<?xml version="1.0" standalone="no"?>
<!DOCTYPE svg PUBLIC "-//W3C//DTD SVG 20010904//EN"
 "http://www.w3.org/TR/2001/REC-SVG-20010904/DTD/svg10.dtd">
<svg version="1.0" xmlns="http://www.w3.org/2000/svg"
 width="700.000000pt" height="700.000000pt" viewBox="0 0 700.000000 700.000000"
 preserveAspectRatio="xMidYMid meet">
<metadata>
Created by potrace 1.11, written by Peter Selinger 2001-2013
</metadata>
<g transform="translate(0.000000,700.000000) scale(0.100000,-0.100000)"
fill="#000000" stroke="none">
<path d="M3494 6579 c-58 -11 -377 -193 -419 -239 -10 -11 -21 -17 -26 -14 -8
5 -109 -43 -143 -68 -16 -12 -17 -18 -6 -37 16 -31 8 -35 -24 -10 l-27 21 -43
-36 c-24 -19 -77 -51 -117 -69 -92 -43 -597 -331 -625 -358 -11 -10 -24 -19
-29 -19 -4 0 -76 -39 -159 -86 -292 -167 -288 -165 -276 -178 8 -11 1 -14 -33
-18 -33 -4 -100 -38 -258 -128 -298 -171 -419 -244 -527 -317 -51 -35 -122
-76 -158 -93 -35 -16 -102 -51 -147 -78 -45 -27 -113 -66 -150 -86 -83 -46
-137 -92 -137 -117 0 -27 43 -51 84 -48 28 3 46 -4 83 -32 44 -32 561 -336
858 -504 66 -37 253 -147 415 -245 162 -97 320 -191 351 -208 76 -43 87 -57
64 -82 -10 -11 -39 -32 -64 -46 -132 -76 -832 -490 -866 -513 -22 -14 -47 -26
-56 -27 -8 -1 -105 -53 -215 -117 -131 -76 -202 -124 -209 -139 -8 -17 -17
-22 -37 -20 -15 1 -39 -5 -53 -14 l-25 -16 23 -18 c26 -21 18 -36 -11 -21 -12
6 -29 11 -39 11 -23 0 -299 -165 -306 -183 -3 -8 3 -29 14 -46 15 -24 24 -31
39 -26 14 4 28 -3 47 -24 32 -34 209 -134 226 -128 7 2 20 -9 29 -24 10 -16
39 -39 65 -52 27 -13 97 -52 158 -85 60 -34 125 -67 145 -73 19 -7 39 -18 43
-25 9 -16 156 -96 211 -115 21 -8 57 -30 80 -50 23 -20 73 -54 111 -76 39 -22
106 -61 150 -87 71 -41 101 -52 128 -47 5 1 7 -4 5 -11 -5 -14 140 -101 552
-335 227 -129 257 -143 277 -132 12 6 30 8 40 5 17 -7 16 -9 -5 -26 l-22 -18
67 -38 c36 -20 86 -39 110 -42 47 -5 47 -5 33 -33 -10 -17 -7 -19 31 -19 31 0
40 -3 36 -14 -4 -9 12 -23 44 -41 l50 -27 -7 28 c-5 19 -4 25 5 20 6 -4 11
-18 11 -31 0 -18 11 -32 38 -49 94 -61 490 -279 548 -302 35 -15 64 -30 64
-35 0 -5 9 -9 20 -9 39 0 50 47 50 212 l0 152 -31 32 -30 31 26 17 26 17 1
682 c1 820 2 771 -11 795 -7 13 -6 30 4 58 8 21 14 73 15 114 0 106 14 148 64
195 24 22 151 100 287 177 134 75 343 196 464 269 266 160 398 229 439 229 57
0 102 -20 246 -105 79 -47 148 -84 154 -82 6 2 28 -11 48 -29 43 -38 168 -104
198 -104 12 0 20 -7 20 -17 0 -13 95 -73 328 -207 180 -103 346 -201 369 -216
36 -25 43 -27 54 -14 15 19 39 0 39 -31 0 -20 9 -25 71 -40 58 -14 70 -21 66
-35 -4 -17 69 -63 280 -176 l72 -39 22 21 c17 17 20 28 14 53 -5 25 -17 37
-58 58 -29 14 -79 43 -112 63 -33 21 -177 104 -320 185 -143 81 -308 176 -366
211 -99 61 -107 64 -138 53 -38 -13 -53 -5 -26 15 23 16 51 -3 -285 191 -282
162 -520 306 -520 315 0 10 225 163 265 180 70 30 1210 687 1413 814 68 42
143 87 168 98 48 24 59 44 19 34 -22 -6 -26 -2 -36 38 -6 25 -18 51 -28 59
-13 12 -280 167 -714 415 -55 32 -94 47 -129 50 -47 4 -49 6 -28 17 22 12 20
14 -46 52 -38 22 -154 90 -259 150 -422 245 -563 323 -584 323 -11 0 -21 4
-21 10 0 13 -99 79 -207 138 -48 27 -115 66 -148 86 -33 20 -72 40 -87 43 -16
3 -28 11 -28 18 0 7 -15 19 -32 28 -33 15 -49 20 -100 31 -16 4 -28 13 -28 21
0 8 -5 15 -11 15 -6 0 -20 11 -30 24 -11 14 -34 28 -52 32 -17 3 -45 18 -62
31 -35 29 -399 244 -530 313 -97 51 -137 61 -201 49z m-45 -168 c7 -5 16 -32
19 -60 4 -49 6 -52 48 -71 32 -13 44 -25 44 -40 l0 -20 -39 19 -38 20 -7 -76
c-3 -42 -6 -395 -6 -784 0 -699 0 -708 20 -714 11 -3 20 -13 20 -21 0 -11 -6
-13 -19 -9 -19 6 -20 0 -20 -124 0 -72 -5 -148 -11 -170 -16 -59 -95 -124
-266 -218 -309 -169 -391 -217 -455 -264 -36 -26 -94 -61 -128 -78 -35 -16
-73 -39 -85 -49 -11 -11 -38 -25 -59 -31 -22 -5 -67 -28 -100 -50 -102 -66
-169 -71 -268 -21 -23 12 -40 15 -50 9 -22 -14 -33 -10 -18 7 15 18 17 16 -81
71 -36 21 -117 68 -180 107 -63 38 -180 103 -260 145 -80 41 -198 109 -262
151 -156 100 -355 214 -398 229 -19 6 -46 22 -60 35 -14 12 -92 60 -175 106
-82 46 -162 92 -177 102 -53 37 -34 64 90 137 40 23 70 46 67 52 -4 5 3 9 13
9 21 0 894 497 953 542 19 15 55 35 79 43 58 20 110 51 206 123 44 32 86 59
95 59 8 0 79 38 158 84 130 76 140 85 114 90 l-28 6 25 6 c14 4 46 11 72 17
26 5 105 43 175 84 403 232 530 309 550 331 12 14 31 25 43 25 30 0 91 33 124
69 17 17 37 31 46 31 8 0 31 8 50 19 173 92 157 86 179 72z m279 -45 c59 -30
134 -70 166 -90 33 -20 72 -36 88 -36 18 0 28 -5 28 -15 0 -8 10 -19 22 -26
18 -10 24 -8 38 11 l17 23 7 -36 c4 -19 12 -39 19 -45 17 -14 725 -421 887
-510 74 -41 169 -96 210 -122 41 -27 86 -51 100 -55 14 -4 39 -17 55 -30 65
-48 172 -107 203 -112 17 -3 32 -11 32 -17 1 -16 813 -481 818 -468 2 7 15 -2
29 -19 14 -16 67 -55 119 -85 51 -30 96 -59 100 -65 14 -23 -33 -59 -196 -153
-94 -54 -198 -118 -231 -143 -33 -24 -81 -51 -107 -61 -27 -11 -81 -40 -121
-66 -40 -25 -109 -65 -154 -88 -45 -22 -134 -73 -197 -113 -63 -40 -151 -91
-195 -113 -57 -28 -85 -48 -93 -67 -10 -22 -15 -25 -27 -15 -11 9 -31 1 -102
-43 -48 -29 -146 -87 -218 -128 -185 -105 -176 -106 -419 39 -103 61 -194 112
-201 112 -7 0 -37 16 -66 36 -72 48 -144 84 -168 84 -11 0 -28 11 -37 25 -9
14 -115 83 -238 156 -121 72 -236 143 -255 157 -56 42 -71 89 -71 231 0 120
-1 123 -18 108 -31 -28 -34 -19 -7 18 l27 34 -2 288 c0 176 -5 290 -11 293 -6
4 -4 20 6 43 13 31 15 114 15 561 0 288 3 531 6 540 9 25 26 20 142 -38z
m-300 -2243 c39 -15 43 -19 36 -42 -4 -14 -5 -111 -3 -216 2 -104 3 -237 1
-295 -2 -58 -6 -229 -10 -380 -8 -330 3 -314 -159 -217 -60 35 -151 89 -203
119 -52 31 -122 72 -154 92 -34 20 -73 36 -90 36 -20 0 -37 8 -51 25 -11 13
-90 64 -175 113 -86 48 -179 104 -208 122 l-52 34 27 28 c15 16 228 143 473
283 246 141 459 269 475 285 33 35 36 35 93 13z m-1160 -717 c29 -8 68 -23 87
-35 20 -11 37 -16 40 -10 10 16 25 10 34 -14 8 -21 174 -126 273 -173 20 -9
35 -20 33 -24 -2 -4 12 -14 31 -23 19 -10 121 -68 227 -130 106 -63 219 -128
252 -146 34 -17 94 -57 134 -87 51 -38 76 -52 81 -43 4 6 13 8 19 5 15 -10 14
-35 -1 -41 -10 -4 -12 -79 -10 -338 2 -182 3 -348 2 -367 0 -19 -4 -331 -8
-692 -4 -361 -10 -659 -13 -663 -12 -11 -105 31 -225 102 -66 39 -247 144
-404 233 -157 90 -314 182 -350 205 -36 23 -90 54 -120 68 -30 15 -75 40 -100
56 -89 57 -342 203 -447 258 -60 31 -121 67 -137 80 -16 14 -61 40 -100 60
-39 20 -91 50 -116 67 -25 17 -106 66 -180 108 l-135 77 -3 -29 c-3 -29 -4
-29 -28 -13 -22 14 -23 17 -9 33 14 15 12 18 -27 29 -23 7 -58 25 -77 41 -20
15 -139 87 -266 160 -126 73 -247 143 -267 156 -41 26 -60 54 -50 71 10 15
142 113 153 113 5 0 73 37 152 83 78 46 231 134 340 196 108 62 197 119 197
126 0 7 15 16 33 20 39 9 405 215 463 261 23 18 54 36 70 40 16 4 84 42 152
86 179 116 197 121 300 94z m1807 -326 c3 -5 -1 -10 -10 -10 -9 0 -13 5 -10
10 3 6 8 10 10 10 2 0 7 -4 10 -10z"/>
</g>
</svg>
