<?xml version="1.0" encoding="utf-8"?>
<!-- Generator: Adobe Illustrator 19.2.1, SVG Export Plug-In . SVG Version: 6.00 Build 0)  -->
<svg version="1.1" id="Layer_1" xmlns="http://www.w3.org/2000/svg" xmlns:xlink="http://www.w3.org/1999/xlink" x="0px" y="0px"
	 viewBox="0 0 216 125" style="enable-background:new 0 0 216 125;" xml:space="preserve">
<style type="text/css">
	.st0{fill:#757576;}
	.st1{fill:#FFFFFF;}
	.st2{fill:#F37046;}
</style>
<g>
	<g>
		<path class="st0" d="M147.4,111.6c-0.6-0.6-0.4-1.5-0.3-2.2c0.2-1.6,0.5-3.1,0.9-4.6c0.7-2.8,2-5.3,3.3-7.9
			c0.2,0.1,0.4,0.2,0.6,0.2c0-0.1,0.1-0.2,0.1-0.2c-0.3-0.4-0.2-0.7,0.1-1.1c0.8-0.9,1.4-1.9,2.2-2.8c1-1.2,2-2.4,3.1-3.5
			c0.5-0.5,0.5-0.5,1.2,0c0.1-0.4,0.2-0.8,0.3-1.4c0.2,0.4,0.4,0.7,0.7,1.1c0-0.6,0-0.9,0.1-1.3c0.1-0.2,0.2-0.5,0.5-0.7
			c1.5-1,2.8-2.3,4.7-2.7c2.2-1.6,4.8-2.2,7.3-2.8c1.1-0.3,2.2-0.7,3.4-0.4c2-0.7,4.2-0.3,6.2-0.3c2.5-0.1,5,0.5,7.5,1.1
			c0.3,0.1,0.5,0.2,0.7,0.4c0.3,0.3,0.5,0.4,0.9,0.3c0.4,0,0.9,0.1,1.3,0.3c1.8,0.8,3.6,1.7,5.2,2.7c0.6,0.4,0.9,1.2,1.7,1.2
			c0.1,0,0.2,0.1,0.2,0.2c0.1,0.5,0.2,0.8,0.8,0.6c0.1,0,0.3,0.3,0.5,0.4c-0.2,0.2-0.3,0.3-0.5,0.4c0.4,0.4,0.8,0.5,1.1,0
			c3,2.6,5.5,5.5,7.4,9c0.2,0.4,0.7,0.7,0.3,1.3c-0.1,0.1,0.1,0.4,0.3,0.5c0.7,0.5,0.7,0.5,0,1.1c0,0,0,0.1-0.1,0.3
			c0.2,0,0.3,0,0.4-0.1c0.4-0.2,0.7,0,0.8,0.4c0.6,2,1.2,4,1.7,6.1c0.1,0.2,0.2,0.5,0.2,0.7c0,0.3,0.3,0.7-0.3,0.8
			c0,0.2,0.1,0.5,0.1,0.5c0.4,0,0.4,0.3,0.4,0.6c0,1,0,2,0,3c0,0.6-0.3,0.9-0.9,0.9c-0.8,0-1.6-0.1-2.4-0.1c-0.4,0-0.8,0.1-1.2,0.1
			c-1.2,0-2.4,0-3.5,0c-0.6,0-1.1-0.1-1.6-0.7c-0.1,0.3-0.1,0.4-0.2,0.7c-1.9,0-3.9,0-5.9,0c-0.4,0-0.8-0.2-1.2-0.4
			c-0.1,0.7-0.7,0.4-1,0.4c-2.2,0-4.3-0.1-6.5-0.1c-0.7,0-1.5,0.1-2.2,0.2c-0.2-0.3-0.4-0.6-0.5-0.8c-0.2,0.2-0.4,0.3-0.5,0.4
			c-0.6,0.5-0.6,0.5-1.2,0c-0.1-0.1-0.4-0.1-0.6-0.1c0,0.2,0,0.3,0,0.5c-1.9,0-3.8,0-5.7,0c-0.4,0-0.8-0.1-0.8-0.7
			c-0.5,0.5-0.8,1.1-1.4,0.4c-0.2-0.2-0.8-0.2-1.3-0.2c0.1,0.2,0.2,0.4,0.3,0.5c-6,0-12.1,0.1-18.1,0c-1.6,0-3.2,0.1-4.8,0
			c-1-0.1-2,0-3,0c-0.5,0-0.8-0.2-0.8-0.8C147.1,112.6,147.2,112.1,147.4,111.6z M193.7,105.9c0,0.1,0,0.1,0,0.2
			c0.9,0.2,1.9,0.3,3.1,0.5c-0.2-0.5-0.2-0.9-0.4-0.9c-0.8-0.1-1.6-0.1-2.3-0.1C194,105.7,193.9,105.8,193.7,105.9z M183.8,102
			c0,0.1,0.1,0.1,0.1,0.2c0.7,0,1.4,0,2.1,0c0-0.3,0.1-0.5,0-0.6c-0.1-0.2-0.3-0.5-0.5-0.5c-0.2,0-0.4,0.2-0.6,0.3
			c-0.2,0.1-0.4,0.2-0.6,0.3C184.1,101.8,184,101.9,183.8,102z M197.3,97.3c0-0.1,0.1-0.1,0.1-0.2c-0.2-0.2-0.4-0.5-0.6-0.7
			c0.2-0.2,0.4-0.4,0.6-0.6c-0.4,0.3-1.3-0.7-1.4,0.4c0,0.3,0.2,0.7,0.5,1C196.7,97.4,197,97.3,197.3,97.3z M200.3,92.6
			c0.5,1.1,1.4,0.8,2.1,1.1c0-0.1,0.1-0.2,0.1-0.3c-0.1-1-1.3-0.2-1.6-1C200.9,92.4,200.6,92.5,200.3,92.6z"/>
		<path class="st0" d="M193.9,42.9c-0.1,0.3-0.2,0.5-0.3,0.9c0.4,0,0.8-0.1,1.2-0.1c0.1,0.6,1.1,0.8,0.9,1.7c0,0,0.3,0.1,0.4,0.2
			c0.7,0.4,1.1,1.3,0.8,2c1.2,0.3,1.4,1.4,1.8,2.3c0.4,1,0.8,2,0.9,3.2c0.1,0.8,0.5,1.7,0.5,2.6c-0.2,0.1-0.4,0.2-0.6,0.3
			c0.2,0.2,0.5,0.3,0.8,0.6c-0.1,0.2-0.3,0.4-0.5,0.6c0.7,0.8,0.7,0.8,0.1,1.4c0.4,0.4,0.6,0.9,0.2,1.5c-0.3,0.4-0.1,1.1-0.2,1.6
			c-0.2,0.8-0.4,1.6-0.6,2.4c-0.2,0.5-0.5,0.9-0.6,1.5c-0.1,0.5-0.4,1-0.7,1.5c-0.3,0.5-0.6,1.1-0.9,1.6c-0.3,0.5-0.7,0.9-1,1.4
			c-0.4,0.5-0.7,1-1.1,1.4c-0.4,0.4-0.8,0.8-1.2,1.2c-1.8,1.5-3.7,2.9-5.9,3.9c-1.2,0.5-2.5,0.9-3.8,1.2c-0.2,0.1-0.5,0-1-0.1
			c-0.4,0.5-1.1,0.7-2,0.2c-0.1-0.1-0.4,0-0.5,0c-0.6,0.2-1.2,0.4-1.8,0c-0.1-0.1-0.2-0.1-0.3-0.1c-0.9,0.7-1.9,0.1-2.8,0
			c-1-0.1-2-0.5-3-0.8c-0.5-0.1-1-0.3-0.9-1c-0.9,0.3-1.6-0.1-2.3-0.6c-0.8-0.6-1.7-1-2.6-1.6c0.3-0.2,0.4-0.3,0.8-0.6
			c-0.4-0.1-0.7-0.1-1-0.2c-0.9-0.1-1-0.2-1.2-1.2c0-0.2-0.3-0.5-0.4-0.5c-0.7,0.1-1-0.4-1.3-0.8c-0.5-0.6-0.9-1.2-1.3-1.8
			c0.5-0.3,1.2-0.4,1.2-1.2c-0.8-0.5-0.7,0.8-1.5,0.6c-0.1-0.1-0.3-0.4-0.5-0.6c-0.7-1.6-1.6-3.2-2-4.9c-0.1-0.8-0.3-1.7-0.4-2.5
			c-0.1-1.2-0.3-2.4-0.2-3.5c0.1-1.5,0.3-3.1,0.7-4.6c0.6-2.1,1.5-4.1,2.8-5.9c0.3-0.4,0.6-0.9,0.9-1.3c0.2-0.2,0.5-0.4,0.8-0.4
			c0.7-0.1,1.1-0.3,1.5-1.1c-0.4,0.1-0.5,0.2-0.8,0.2c0-0.1,0-0.2,0.1-0.3c1.9-2,4.1-3.5,6.6-4.6c1.7-0.7,3.5-1.2,5.3-1.5
			c0.3-0.1,0.7,0.2,1.1,0.4c0.1-0.1,0.4-0.4,0.7-0.4c1.6,0,3.3-0.2,4.9,0.3c-0.4,0-1-0.2-0.8,0.7c0.4-0.1,0.8-0.1,1-0.3
			c0.5-0.5,1-0.3,1.4-0.2c1.1,0.4,2.3,0.5,3.1,1.5c0,0,0.1,0.1,0.1,0.1c1.1,0,1.9,0.7,2.7,1.3c0.9,0.6,1.7,1.3,2.5,1.9
			C193.7,42.7,193.8,42.7,193.9,42.9z M180.1,43.8c0.4,0.1,0.6,0.1,0.9,0.2c0.1-0.6,0.6-0.4,1-0.5c0.4-0.1,0.8-0.2,1-0.8
			C181.9,42.7,180.9,42.7,180.1,43.8z M177.3,45.5c-0.6-1.2-0.9-1.3-2-0.9c0,0.2,0,0.5,0,0.6C176,45.2,176.6,45.4,177.3,45.5z
			 M196.9,65.2c-0.2-0.1-0.4-0.2-0.5-0.3c-0.4-0.1-1,0.2-1.3-0.4c0,0-0.4,0.1-0.4,0.2c-0.1,0.2,0,0.5,0.1,0.5
			c0.4,0.2,0.9,0.2,1.3,0.4C196.5,65.9,196.7,65.7,196.9,65.2z M174.6,58.7c0.2-0.6-0.2-0.7-0.5-0.8c-0.3-0.1-0.6,0-0.8-0.3
			c-0.4-0.5-0.6-0.1-0.8,0.3C173.4,58.7,173.8,58.8,174.6,58.7z"/>
	</g>
	<g>
		
			<rect x="82.2" y="30.5" transform="matrix(0.2405 -0.9707 0.9707 0.2405 34.7579 171.953)" class="st1" width="90" height="66.5"/>
		<g>
			<path class="st0" d="M91.3,56.9c0,0-0.3-0.1-0.5-0.3c1.4-5.5,2.8-11.1,4.1-16.5c0.3,0,0.5,0.1,0.9,0.1c-0.3-0.5-0.6-0.8-0.9-1.3
				c0.6,0,0.9,0.1,1.3,0.1c0.1-0.4,0.1-0.8,0.3-1.6c-0.4,0.4-0.6,0.7-0.8,0.9c-0.1,0-0.2-0.1-0.3-0.1c0.7-3,1.5-6,2.2-9
				c0.1,0,0.4,0,0.4,0c0-0.7-0.2-1.2-0.1-1.7c0.8-3.2,1.6-6.3,2.4-9.5c0.4,0.2,0.7,0.3,1.1,0.4c-1-1.4-0.5-2.6,0-3.9
				c0.6-1.6,0.9-3.4,1.3-5.2c0.2-1,1.4-1.8,2.3-1.6c1.4,0.3,2.9,0.7,4.3,1.1c0.2,0.1,0.3,0.4,0.4,0.6c0.3-0.1,0.7-0.3,1-0.2
				c0.6,0,1.2,0.2,1.8,0.4c0.2,0.1,0.5,0.2,0.5,0.4c0.2,0.9,0.7,0.9,1.4,0.6c0.3-0.1,0.7-0.2,1-0.2c4.1,1,8.2,2,12.3,3
				c1.6,0.4,3.2,0.8,4.8,1.2c0.2,0.1,0.4,0.3,0.5,0.5c0.4,0,1-0.1,1.5,0c2.8,0.7,5.7,1.5,8.5,2.2c5.2,1.3,10.5,2.5,15.7,3.8
				c0.8,0.2,1.5,0.4,2.5,0.7c-0.3,0.5-0.6,1.1-1.1,2c0.6-0.3,1-0.5,1.5-0.8c0-0.3-0.1-0.7-0.2-1.2c2.5,0.6,4.9,1.2,7.4,1.8
				c1.6,0.4,3.1,0.7,4.7,1.1c1.4,0.3,2,1.4,1.7,2.8c-1.1,4.3-2.1,8.6-3.2,12.9c-0.2,1,0,2.3-1.7,2.6c0.4,0.3,0.7,0.4,1,0.6
				c-0.8,1.6-0.5,3.5-1.7,5.1c0.4,0.7,0.2,1.6-0.4,1.7c0,0.6,0,1.1-0.1,1.6c-2.4,9.6-4.8,19.2-7.2,28.7c-0.1,0.4-0.6,0.8-0.9,1.2
				c0.7,0.3,0.5,1,0.3,1.8c-1.6,6.2-3,12.3-4.6,18.5c-0.3,1.3-1.2,2.5-1.2,3.8c0,1-0.3,1.9-0.4,2.9c-0.2,0.8-0.3,1.6-0.5,2.4
				c-0.2,0.7-0.2,1.6-1.6,1.4c1.2,0.9,0.7,1.8,0.6,2.7c-0.1,1-0.4,1.9-0.7,2.8c-0.4,1.6-1.6,2.3-3.2,1.9c-2.4-0.6-4.9-1-7.2-1.9
				c-1.2-0.5-2.5-0.1-3.5-0.8c-1.2-0.9-2.9-0.1-3.9-1.3c-2.4,0-4.6-0.9-6.9-1.4c-1.7-0.4-3.4-0.7-5.1-1.2c-2.6-0.8-5.3-1.2-7.9-1.9
				c-1-0.3-2.1-0.4-3.1-0.8c-0.5-0.2-0.9-0.8-1.5-1.4c-0.1,0.1-0.3,0.3-0.6,0.6c0,0.1,0.1,0.3,0.1,0.4c-2.4-0.7-4.8-1.4-7.2-2
				c-3-0.7-6-1.4-9-2c-1.3-0.3-2.7-0.6-4-1c-0.4-0.1-0.8-0.5-1.1-0.7c-0.5,0-0.9,0.1-1.4,0c-1.8-0.4-3.5-0.8-5.3-1.2
				c-1.8-0.4-2.4-1.5-1.9-3.3c0.5-1.9,1-3.7,1.4-5.6c0.2-0.8,0.3-1.6,0.6-2.3c0.1-0.3-0.2-1.2,0.8-1c0,0,0.3-0.6,0.2-0.7
				c-0.6-0.9-0.1-1.6,0.1-2.4c0.5-2.1,1-4.2,1.5-6.3c0.1-0.6,0.5-1.1,0.7-1.7c0,0-0.3-0.1-0.2-0.1c0.3-1.1,0.3-2.4,0.9-3.3
				c0.4-0.7,0.1-1.1,0.2-1.6c0.6-2.3,1.2-4.6,1.7-6.9c0.9-3.4,1.7-6.7,2.6-10.1C90.6,57.6,90.9,57.3,91.3,56.9z M84.6,99.5
				c0.8,0.3,1.3,1.2,2.2,0.6c0,0,0.2,0.1,0.3,0.2c1,0.2,1.9,0.6,2.9,0.7c1.9,0.2,3.6,0.9,5.4,1.4c7.6,1.7,15.1,3.7,22.6,5.6
				c2.7,0.7,5.5,1.3,8.2,2c0.5,0.1,1,0.5,1.6,0.8c0.2,0,0.6-0.2,1-0.1c2.3,0.5,4.5,1.2,6.8,1.6c2.2,0.4,4.3,1.3,6.6,1.7
				c1.7,0.3,3.4,0.8,5.2,1.2c1.6,0.4,1.8,0.2,2.1-1.5c0.2-0.9,0.7-1.7,1.2-2.8c0-0.3-0.3-0.9-0.2-1.4c0.9-4,1.9-7.9,2.9-11.9
				c1.5-6,2.9-12.1,4.4-18.1c0.1-0.3,0.4-0.6,0.6-0.9c0-0.5,0.2-0.9,0.3-1.4c0.2-1,0.3-2,0.5-3c0.5-2.1,1-4.2,1.5-6.3
				c0.1-0.4,0.5-0.8,0.6-1c0-0.5,0-0.7,0-0.9c0.7-2.7,1.5-5.5,2.2-8.2c0.9-3.7,1.7-7.4,2.6-11.1c0.1-0.4,0.4-0.8,0.5-1.3
				c0.3-1.4,0.5-2.9,0.8-4.3c0-0.2,0.4-0.4,0.6-0.5c-0.1,0-0.2,0-0.3-0.1c0.1-0.5,0.2-1.1,0.3-1.6c0-0.2,0.2-0.3,0.2-0.5
				c0.4-1.6,0.6-3.3,1.1-4.9c0.1-0.4,0.2-0.6,0.2-1c0-0.6,0.2-1.2,0.5-1.8c0.1-0.2,0.7-0.2,1-0.3c0.3-0.1,0.5-0.3,0.8-0.5
				c0-0.1-0.1-0.2-0.1-0.3c-0.5,0.1-0.9,0.2-1.5,0.3c0.1-0.5,0.2-1,0.3-1.5c-3.4-0.8-6.7-1.7-10.1-2.5c-2.1-0.5-4.3-0.9-6.4-1.6
				c-1.5-0.5-3.6-0.1-4.5-2c-1.1,0.9-2.1,0.7-3-0.3c-0.7,0-1.2,0.1-1.7,0c-5.7-1.4-11.3-2.7-17-4.1c-3.4-0.8-6.7-1.7-10-2.6
				c-0.5-0.1-0.9-0.5-1.3-0.7c-2.1,0.2-4-0.8-6-1.1c0.1-0.3,0.1-0.5,0.1-0.9c-1.7,1.4-3-0.6-4.5-0.3c-0.4,1.9-0.9,3.7-1.3,5.4
				c-0.5,0-0.8,0.1-1.1,0.1c0,0.1-0.1,0.2-0.1,0.2c0.3,0.2,0.6,0.4,1,0.6c-0.7,2.6-1.3,5.2-2,7.9c-0.9-0.4-1.7-0.3-2.4,0.2
				c0.7,0.1,1.5,0.2,2.2,0.2c-0.5,2.1-0.8,4.2-1.5,6.1c-0.6,1.9-0.9,3.9-1.4,5.8c-0.1,0.6-0.5,1.1-0.7,1.7c0,0.1,0.2,0.4,0.1,0.6
				c-1,3.9-1.9,7.8-3,11.7c-0.4,1.6-0.5,3.4-1.5,4.9c-0.4,0.6-0.1,1.6-0.1,2.5c-1.5-0.2-1.7,0.9-2.2,1.9c0.7-0.2,1.1-0.3,1.7-0.4
				c-0.4,0.9-0.7,1.7-1.1,2.5c0.8,1.4-1.2,2.5-0.5,3.9c-0.4,0-0.6,0-0.7,0c0.1,0.7,0.3,1.3,0.2,1.9c-0.2,1.1-0.6,2.1-0.8,3.2
				C88.9,81.9,86.8,90.7,84.6,99.5z M136.4,18.5c-0.4-0.3-0.8-0.7-1.2-0.8c-0.4-0.2-0.8-0.2-1.3-0.3c0,0.1-0.1,0.2-0.1,0.2
				c0.7,0.6,1.4,1.1,2.3,1.8C136.3,18.9,136.4,18.6,136.4,18.5z M172.3,37.2c0-0.4-0.1-0.9-0.1-1.5c-0.6,0-1.2,0.1-2.1,0.2
				C171,36.5,171.6,36.9,172.3,37.2z M100.1,106.3c-0.1-1-0.2-1.8-0.3-2.7C98.9,104.6,99,105.2,100.1,106.3z M117.6,12.6
				c-0.1,0.2-0.1,0.3-0.2,0.5c0-0.6-0.1-1.2-0.1-1.9c-0.6,0.4-1,0.6-1.3,0.8c0.3-0.3,0.7-0.7,1-1C117.2,11.5,117.4,12.1,117.6,12.6z
				"/>
			<path class="st1" d="M84.6,99.5c2.2-8.8,4.3-17.5,6.5-26.2c0.3-1.1,0.6-2.1,0.8-3.2c0.1-0.6-0.1-1.2-0.2-1.9c0.1,0,0.4,0,0.7,0
				c-0.7-1.4,1.3-2.6,0.5-3.9c0.3-0.8,0.7-1.6,1.1-2.5c-0.6,0.2-1.1,0.3-1.7,0.4c0.5-1,0.6-2.1,2.2-1.9c0-0.9-0.3-1.9,0.1-2.5
				c1-1.5,1-3.3,1.5-4.9c1-3.9,2-7.8,3-11.7c0.1-0.2-0.1-0.5-0.1-0.6c0.3-0.6,0.6-1.1,0.7-1.7c0.5-1.9,0.8-3.9,1.4-5.8
				c0.6-1.9,1-3.9,1.5-6.1c-0.7-0.1-1.5-0.2-2.2-0.2c0.7-0.6,1.5-0.6,2.4-0.2c0.7-2.7,1.3-5.3,2-7.9c-0.3-0.2-0.6-0.4-1-0.6
				c0-0.1,0.1-0.2,0.1-0.2c0.3,0,0.7-0.1,1.1-0.1c0.4-1.7,0.8-3.5,1.3-5.4c1.4-0.3,2.7,1.8,4.5,0.3c-0.1,0.3-0.1,0.5-0.1,0.9
				c2,0.3,4,1.2,6,1.1c0.4,0.2,0.8,0.6,1.3,0.7c3.3,0.9,6.7,1.8,10,2.6c5.7,1.4,11.3,2.8,17,4.1c0.5,0.1,1,0,1.7,0
				c0.9,1,1.9,1.2,3,0.3c1,1.9,3,1.4,4.5,2c2.1,0.7,4.2,1.1,6.4,1.6c3.4,0.8,6.7,1.6,10.1,2.5c-0.1,0.5-0.2,1-0.3,1.5
				c0.6-0.1,1.1-0.2,1.5-0.3c0,0.1,0.1,0.2,0.1,0.3c-0.3,0.2-0.5,0.4-0.8,0.5c-0.3,0.1-0.9,0.1-1,0.3c-0.3,0.5-0.5,1.2-0.5,1.8
				c0,0.4-0.1,0.7-0.2,1c-0.5,1.6-0.8,3.2-1.1,4.9c0,0.2-0.2,0.3-0.2,0.5c-0.1,0.5-0.2,1.1-0.3,1.6c0.1,0,0.2,0,0.3,0.1
				c-0.2,0.2-0.6,0.3-0.6,0.5c-0.3,1.4-0.5,2.9-0.8,4.3c-0.1,0.4-0.4,0.8-0.5,1.3c-0.9,3.7-1.7,7.4-2.6,11.1
				c-0.7,2.7-1.4,5.5-2.2,8.2c-0.1,0.2,0,0.4,0,0.9c-0.1,0.2-0.5,0.6-0.6,1c-0.5,2.1-1,4.2-1.5,6.3c-0.2,1-0.3,2-0.5,3
				c-0.1,0.5-0.3,0.9-0.3,1.4c-0.2,0.3-0.5,0.6-0.6,0.9c-1.5,6-3,12.1-4.4,18.1c-1,4-2,7.9-2.9,11.9c-0.1,0.5,0.2,1.1,0.2,1.4
				c-0.5,1.1-1,1.9-1.2,2.8c-0.3,1.7-0.5,1.9-2.1,1.5c-1.7-0.4-3.4-0.9-5.2-1.2c-2.2-0.4-4.3-1.3-6.6-1.7c-2.3-0.4-4.6-1.1-6.8-1.6
				c-0.4-0.1-0.9,0.1-1,0.1c-0.6-0.3-1.1-0.7-1.6-0.8c-2.7-0.7-5.5-1.3-8.2-2c-7.5-1.9-15-3.9-22.6-5.6c-1.8-0.4-3.5-1.2-5.4-1.4
				c-1-0.1-1.9-0.5-2.9-0.7c-0.1,0-0.3-0.2-0.3-0.2C85.9,100.7,85.4,99.8,84.6,99.5z M129.4,93.7c0.2,0.3,0.3,0.7,0.5,0.8
				c4.6,1.2,9.2,2.3,13.8,3.4c1.5,0.3,2.4-0.3,2.7-1.6c0.2-1.2-0.4-2.2-1.7-2.5c-3.8-0.9-7.5-1.9-11.2-2.8c-2.1-0.5-4.3-1-6.5-1.6
				c-0.3,0.1-0.6,0.3-1.3,0.5c0.2-0.5,0.3-0.7,0.4-0.9c-0.2,0-0.3,0-0.5,0c-1.1-0.1-2.1-1.1-3.3-0.3c-0.1,0.1-0.7-0.2-0.7-0.2
				c0.1-0.7-0.4-0.6-0.8-0.7c-0.8-0.2-1.6-0.4-2.4-0.6c-1.8-0.5-3.7-0.9-5.7-1.4c0.2,0.4,0.3,0.6,0.6,1c-0.3-0.1-0.6-0.1-0.7-0.2
				c-0.5-1.4-1.4-1.4-2.6-0.8c-0.3,0.2-0.9-0.2-1.4-0.3c0.1-0.2,0.1-0.5,0.2-0.7c-1.3-0.3-2.5-0.6-3.8-0.9c-0.3-0.1-0.7,0.1-1.2,0.1
				c-0.1-0.1-0.3-0.5-0.5-0.5c-2.4-0.6-4.7-1.2-7.1-1.7c-1.1-0.2-2.1,0.7-2.2,1.7c0,1.3,0.3,2.1,1.5,2.4c1.6,0.3,3.2,0.8,4.8,1.2
				c2.5,0.6,5.1,1,7.7,1.6c1.5,0.4,2.9,1.1,4.3,1.4c1.7,0.3,3.4,1.3,5,0.8c0.7,0.3,1.1,0.6,1.6,0.8c2.9,0.7,5.8,1.4,8.6,2.2
				C128.2,94,128.9,94.4,129.4,93.7z M141.8,71c0.3-0.4,0.5-0.6,0.6-0.9c0.2,0.2,0.6,0.4,0.6,0.6c-0.2,0.8,0.3,0.8,0.8,0.9
				c2.1,0.5,4.2,1,6.3,1.5c1.1,0.3,2.3-0.4,2.6-1.3c0.4-1.3-0.3-2.5-1.6-2.8c-2.5-0.6-5.1-1.3-7.6-1.9c-0.2,0.3-0.3,0.6-0.5,0.8
				c-0.4-0.2-0.7-0.4-1.1-0.6c0.4-0.2,0.6-0.3,1.1-0.6c-1.5-0.1-2.6-0.2-3.8-0.3c-0.1,0-0.2-0.2-0.3-0.3c-0.8-0.6-2.3-0.7-2.7-0.1
				c0,0-0.1,0-0.2,0c0.1-0.2,0.1-0.5,0.2-0.7c-1.4-0.4-2.7-0.9-4.1-1c-1.2-0.1-2.3-1.3-3.3-0.3c-0.2-0.3-0.4-0.6-0.7-0.7
				c-1-0.3-2.1-0.5-3.1-0.7c-6-1.5-12-3-18-4.5c-1.6-0.4-3.1-0.7-4.7-1c-0.9-0.1-1.7,0.4-1.8,1.2c-0.1,0.8,0,1.8,0.4,2.4
				c0.6,0.9,2.8,1,3.5,0.7c0.5,0.4,0.8,0.7,1.2,0.8c1.6,0.5,3.2,0.8,4.8,1.2c0.3,0.1,0.6-0.2,0.9-0.1c1.8,0.6,3.6,1.2,5.4,1.8
				c0-0.4,0-0.6,0.1-0.8c0.3,0.3,0.5,0.8,0.8,0.8c2.3,0.6,4.5,1.2,6.8,1.7c0.3,0.1,0.6-0.1,0.9-0.3c0.2-0.1,0.4-0.3,0.5-0.5
				c-0.1,0.9,0.1,1.1,0.9,1.3C131.8,68.4,136.8,69.7,141.8,71z M155.9,44.7c0.4,0.4,0.6,0.9,1,1.1c1,0.3,2.3-0.4,2.7-1.4
				c0.3-0.9,0-1.6-0.6-2.3c-0.7-0.7-1,0-1.5,0.2c-0.1,0-0.2,0.1-0.5,0.2c0.5-0.8,0.4-1-0.4-1.2c-3.7-0.8-7.3-1.7-10.9-2.6
				c-3.4-0.9-6.8-1.8-10.3-2.6c-1-0.2-1.9-0.9-3-0.2c-0.1,0.1-0.6-0.2-0.6-0.2c0.2-0.9-0.6-0.6-0.9-0.7c-0.7-0.3-1.5-0.4-2.2-0.6
				c-2.7-0.6-5.3-1.3-8-1.9c-0.9-0.2-1.9-0.4-2.8-0.7c-0.9-0.4-1.9,0.1-2.6-0.6c0,0-0.4,0.3-0.6,0.5c-0.1,0.2-0.2,0.4-0.3,0.6
				c-0.1-0.3-0.2-0.7-0.3-1c-0.1-0.1-0.1-0.4-0.2-0.4c-1.5-0.3-3-0.8-4.6-0.9c-1.5-0.1-2.2,1.3-1.7,2.7c0.5,1.4,1.6,1.3,2.7,1.6
				c5.7,1.4,11.3,2.9,17.1,4.3c0-0.3,0-0.5,0-0.9c0.9,1.9,2.7,1.1,3.9,1.7c-0.2-0.3-0.5-0.6-0.7-0.9c0.5-0.1,0.9-0.5,0.9,0.4
				c0,0.6,0.4,0.9,1,1c3.2,0.7,6.3,1.6,9.5,2.2c1.8,0.4,3.5,1.6,5.5,0.9c0,0,0.1,0.2,0.2,0.3c0.2,0.2,0.4,0.5,0.7,0.5
				c2.5,0.6,5.1,1.2,7.6,1.8C155.8,45.2,155.8,44.9,155.9,44.7z M149.2,75.7c-0.4-0.3-0.7-0.5-1-0.6c-2.5-0.7-4.9-1.3-7.4-1.9
				c-6.1-1.5-12.3-3.1-18.4-4.5c-0.5-0.1-1,0.1-1.5,0.1c-0.3,0-0.6-0.1-0.8-0.1c0.2-0.7-0.4-0.6-0.8-0.7c-2.1-0.7-4.4-0.9-6.5-1.6
				c-1.7-0.5-3.4-0.9-5.1-1.2c-1.1-0.2-2.3-0.3-3.5-0.5c-1-0.2-1.9-0.9-2.9-1c-0.6-0.1-1.6,0.2-2,0.7c-0.4,0.6-0.4,1.5-0.4,2.3
				c0,0.3,0.6,0.6,0.9,0.9c0.2-0.4,0.4-0.7,0.6-1.1c0,0,0.2,0,0.3,0c-0.4,1.2,0.2,1.6,1.3,1.8c1.1,0.2,2.2,0.5,3.3,0.8
				c0.1,0,0.2,0,0.3,0c0.1-0.3,0.3-0.5,0.4-0.8c0.2,0.1,0.4,0.2,0.6,0.3c-0.2,0.3-0.3,0.5-0.5,0.7c2.4,0.6,4.6,1.2,6.9,1.8
				c3.9,1.1,7.8,1.8,11.7,2.8c6.1,1.7,12.3,3.1,18.5,4.6c1.7,0.4,3.5,0.7,5.1,1.3c0.9,0.3,1.6,0,2.1-0.5c0.6-0.6,0.8-1.4,0.5-2.3
				C150.7,75.7,149.7,75.2,149.2,75.7z M119.7,97.9c0.6,1,1.4,1.1,2.5,1.3c2.8,0.5,5.6,1.5,8.4,2.3c2.8,0.8,5.7,1.5,8.5,2.1
				c1.2,0.3,2.4,0.6,3.6,0.7c1.1,0.1,2-0.6,2-1.5c0.2-1.5-0.3-2.3-1.6-2.6c-1.8-0.5-3.7-0.9-5.5-1.4c-1.7-0.5-3.5-0.6-5.2-1.2
				c-1.8-0.6-3.6-1-5.4-1.4c-4.2-1-8.4-1.9-12.5-2.9c-2.6-0.6-5.1-1.4-7.7-2.1c-3.9-1-7.8-1.9-11.7-2.9c-1.2-0.3-2.4,0.3-2.7,1.4
				c-0.3,1.3,0.4,2.6,1.7,2.8c0.4,0.1,0.8,0,1.1,0.3c0,0,0.6-0.2,0.8-0.5c0.5-0.7,0.9-1.3,2.1-1c-0.6,0.5-0.9,0.9-1.5,1.4
				c1.1,1.2,2.6,0.9,4.1,1.4c-0.2-0.4-0.3-0.6-0.5-1c0.4,0.1,0.7,0.2,1,0.3c-0.1,0.3-0.1,0.5-0.2,0.9c1.3,0.2,2.5,0.4,3.7,0.5
				c0.2,0.1,0.3,0.3,0.5,0.4c1.6,0.4,3.2,0.9,4.8,1.2c1.5,0.3,3,1.2,4.7,0.7c0.2-0.1,0.7,0.2,0.7,0.2c-0.2,0.8,0.4,0.5,0.7,0.6
				c1.1,0.3,2.2,0.6,3.3,0.9c0.1,0,0.2,0,0.4,0C119.8,98.5,119.7,98.2,119.7,97.9z M115.4,38c-1.6-0.4-3.1-0.7-4.6-1.1
				c-0.4-0.1-0.8-0.2-1.2-0.2c-1-0.1-2.1-0.3-3.1-0.1c-0.5,0.1-1.1,1.3-1,1.9c0.2,0.9,0.8,1.8,1.9,2c4.1,1,8.3,2,12.4,2.9
				c0.3,0.1,0.6,0,1,0c1,1.3,2.4,0.7,3.5,0.5c0.3,0.4,0.5,0.9,0.6,0.9c0.4-0.1,0.7-0.3,1.3-0.6c-0.1,0.4-0.2,0.6-0.3,0.9
				c2.5,0.6,5,1.2,7.5,1.8c0.9,0.2,1.9,0.3,2.9,0.5c0.2,0.6,0.8,0.3,1.3,0.2c0.3,0,0.7,0.1,1,0.1c-0.7,0.9,0.3,0.5,0.5,0.6
				c0.4,0.2,0.9,0.3,1.4,0.4c0.1-0.3,0.1-0.6,0.2-0.9c0.5,0.2,0.9,0.4,1.4,0.6c-0.3,0.1-0.5,0.2-1,0.4c0.5,0.1,0.9,0.2,1.2,0.3
				c4.2,1.1,8.4,2.1,12.6,3.2c1.9,0.5,3.3-0.6,2.9-2.4c-0.2-1.1-1-1.6-2-1.9c-1.7-0.4-3.4-0.8-5.1-1.2c-5.8-1.4-11.7-2.9-17.5-4.3
				c-1.7-0.4-3.4-0.9-5.1-1.3c-4.3-0.9-8.5-2.6-13-2.7C115.2,38.4,115.3,38.2,115.4,38z M107.4,55.2c0.4,0.2,0.8,0.6,1.2,0.7
				c1.1,0.3,2.3,0.4,3.5,0.6c2.2,0.5,4.3,1.1,6.5,1.5c1.2,0.2,1.9-0.7,2-1.9c0.1-1-0.7-1.9-1.6-2.2c-1.5-0.4-3-0.7-4.4-1.1
				c-2.3-0.6-4.6-1.2-6.9-1.7c-0.3-0.1-0.8,0.6-1.1,0.5c-0.4-0.1-0.5-0.9-0.9-1c-0.8-0.2-1.7-0.2-2.5-0.3c-0.1,0-0.3,0.1-0.3,0.2
				c-0.3,0.7-0.8,1.4-0.9,2.1c-0.1,0.9,0.5,1.5,1.4,1.8c1,0.3,2,0.5,2.9,0.7C106.5,55.2,106.9,55.2,107.4,55.2z M99.1,77.3
				c-0.4-0.7-0.6-1.4-1.1-1.6c-0.4-0.2-1.1-0.1-1.6,0.2c-0.8,0.5-1.5,1.2-1.1,2.2c0.3,0.7,1.1,1.6,1.8,1.8c4.7,1.3,9.4,2.4,14.1,3.6
				c1.3,0.3,2.4-0.3,2.7-1.6c0.4-1.4-0.1-2.2-1.6-2.6c-1.5-0.4-3-0.8-4.5-1.1c-0.3-0.1-0.9,0.2-1,0.1c-0.7-1-1.5-0.8-2.2-0.3
				c-1.4-1.5-3.4-1.2-4.8-1.8C99.5,76.6,99.3,77,99.1,77.3z M127.5,29.3c-0.3-0.8-0.4-1.5-0.8-1.9c-0.3-0.4-1-0.5-1.6-0.6
				c-1.3-0.3-2.6-0.5-3.8-0.9c-3.5-0.9-6.9-1.9-10.4-2.7c-0.6-0.1-1.8,0.4-2,1c-0.3,0.7-0.3,2.3,0.1,2.4c1.8,0.8,3.7,1.2,5.5,1.7
				c0.1,0,0.3-0.2,0.4-0.3c0.1,0.3,0.2,0.6,0.3,0.6c3.2,0.8,6.3,1.7,9.5,2.4c0.6,0.1,1.3-0.3,2-0.5c-0.2-0.4-0.4-0.8-0.6-1.2
				C126.4,29.4,126.8,29.4,127.5,29.3z"/>
			<path class="st1" d="M136.4,18.5c0,0.2-0.1,0.4-0.3,0.9c-0.8-0.6-1.5-1.2-2.3-1.8c0-0.1,0.1-0.2,0.1-0.2c0.4,0.1,0.9,0.1,1.3,0.3
				C135.7,17.8,136,18.1,136.4,18.5z"/>
			<path class="st1" d="M172.3,37.2c-0.6-0.4-1.3-0.8-2.2-1.4c0.9-0.1,1.5-0.1,2.1-0.2C172.2,36.4,172.2,36.9,172.3,37.2z"/>
			<path class="st1" d="M100.1,106.3c-1.1-1.2-1.2-1.7-0.3-2.7C99.9,104.5,100,105.4,100.1,106.3z"/>
			<path class="st1" d="M117.6,12.6c-0.2-0.5-0.4-1.1-0.6-1.6c-0.3,0.3-0.7,0.7-1,1c0.4-0.2,0.7-0.4,1.3-0.8c0,0.7,0.1,1.3,0.1,1.9
				C117.5,12.9,117.5,12.8,117.6,12.6z"/>
			<path class="st0" d="M129.4,93.7c-0.5,0.7-1.2,0.3-1.9,0.1c-2.9-0.8-5.8-1.4-8.6-2.2c-0.5-0.1-0.9-0.4-1.6-0.8
				c-1.6,0.6-3.3-0.4-5-0.8c-1.5-0.3-2.9-1-4.3-1.4c-2.5-0.6-5.1-1.1-7.7-1.6c-1.6-0.4-3.2-0.8-4.8-1.2c-1.1-0.2-1.5-1.1-1.5-2.4
				c0-1,1.1-1.9,2.2-1.7c2.4,0.4,4.7,1.1,7.1,1.7c0.2,0.1,0.4,0.4,0.5,0.5c0.4-0.1,0.8-0.2,1.2-0.1c1.3,0.3,2.5,0.6,3.8,0.9
				c-0.1,0.2-0.1,0.5-0.2,0.7c0.5,0.1,1.1,0.4,1.4,0.3c1.2-0.6,2.1-0.6,2.6,0.8c0,0.1,0.3,0.1,0.7,0.2c-0.2-0.4-0.3-0.6-0.6-1
				c2,0.5,3.9,0.9,5.7,1.4c0.8,0.2,1.6,0.4,2.4,0.6c0.4,0.1,0.9,0,0.8,0.7c0,0,0.6,0.3,0.7,0.2c1.2-0.9,2.2,0.1,3.3,0.3
				c0.2,0,0.3,0,0.5,0c-0.1,0.2-0.2,0.4-0.4,0.9c0.7-0.3,1-0.4,1.3-0.5c2.2,0.5,4.3,1,6.5,1.6c3.7,0.9,7.5,2,11.2,2.8
				c1.4,0.3,2,1.3,1.7,2.5c-0.3,1.3-1.2,2-2.7,1.6c-4.6-1.1-9.2-2.2-13.8-3.4C129.7,94.4,129.6,94,129.4,93.7z"/>
			<path class="st0" d="M141.8,71c-4.9-1.2-10-2.6-15.1-3.8c-0.8-0.2-1-0.4-0.9-1.3c-0.2,0.2-0.3,0.4-0.5,0.5
				c-0.3,0.1-0.6,0.3-0.9,0.3c-2.3-0.5-4.6-1.1-6.8-1.7c-0.3-0.1-0.5-0.5-0.8-0.8c0,0.2,0,0.4-0.1,0.8c-1.8-0.6-3.6-1.2-5.4-1.8
				c-0.3-0.1-0.6,0.1-0.9,0.1c-1.6-0.4-3.2-0.8-4.8-1.2c-0.4-0.1-0.7-0.5-1.2-0.8c-0.7,0.4-2.9,0.2-3.5-0.7
				c-0.4-0.6-0.5-1.6-0.4-2.4c0.1-0.8,0.9-1.4,1.8-1.2c1.6,0.3,3.1,0.6,4.7,1c6,1.5,12,3,18,4.5c1,0.3,2.1,0.5,3.1,0.7
				c0.2,0.1,0.4,0.4,0.7,0.7c1-1,2.1,0.2,3.3,0.3c1.4,0.2,2.7,0.7,4.1,1c-0.1,0.2-0.1,0.4-0.2,0.7c0.1,0,0.2,0,0.2,0
				c0.5-0.5,2-0.5,2.7,0.1c0.1,0.1,0.2,0.3,0.3,0.3c1.2,0.1,2.3,0.2,3.8,0.3c-0.6,0.3-0.8,0.4-1.1,0.6c0.4,0.2,0.7,0.4,1.1,0.6
				c0.2-0.3,0.3-0.5,0.5-0.8c2.5,0.6,5.1,1.3,7.6,1.9c1.3,0.3,2,1.5,1.6,2.8c-0.2,0.9-1.5,1.5-2.6,1.3c-2.1-0.5-4.2-1-6.3-1.5
				c-0.5-0.1-1-0.1-0.8-0.9c0-0.1-0.4-0.4-0.6-0.6C142.2,70.3,142,70.6,141.8,71z"/>
			<path class="st0" d="M155.9,44.7c-0.1,0.2-0.1,0.5-0.2,0.8c-2.5-0.6-5.1-1.2-7.6-1.8c-0.3-0.1-0.5-0.3-0.7-0.5
				c-0.1-0.1-0.2-0.3-0.2-0.3c-2,0.7-3.7-0.5-5.5-0.9c-3.2-0.6-6.3-1.5-9.5-2.2c-0.7-0.1-1.1-0.4-1-1c0-0.9-0.4-0.5-0.9-0.4
				c0.2,0.3,0.5,0.6,0.7,0.9c-1.2-0.7-3.1,0.2-3.9-1.7c0,0.5,0,0.7,0,0.9c-5.7-1.5-11.4-2.9-17.1-4.3c-1.1-0.3-2.2-0.3-2.7-1.6
				c-0.5-1.4,0.3-2.8,1.7-2.7c1.5,0.1,3.1,0.6,4.6,0.9c0.1,0,0.2,0.3,0.2,0.4c0.1,0.3,0.2,0.6,0.3,1c0.1-0.2,0.2-0.4,0.3-0.6
				c0.2-0.2,0.6-0.5,0.6-0.5c0.7,0.8,1.8,0.3,2.6,0.6c0.9,0.4,1.9,0.5,2.8,0.7c2.7,0.6,5.3,1.3,8,1.9c0.8,0.2,1.5,0.3,2.2,0.6
				c0.3,0.1,1.2-0.2,0.9,0.7c0,0,0.5,0.3,0.6,0.2c1.1-0.7,2,0,3,0.2c3.4,0.8,6.8,1.7,10.3,2.6c3.6,0.9,7.3,1.8,10.9,2.6
				c0.8,0.2,0.9,0.4,0.4,1.2c0.3-0.1,0.4-0.1,0.5-0.2c0.5-0.2,0.9-0.9,1.5-0.2c0.6,0.7,0.9,1.4,0.6,2.3c-0.3,1-1.7,1.8-2.7,1.4
				C156.5,45.6,156.2,45.1,155.9,44.7z"/>
			<path class="st0" d="M149.2,75.7c0.5-0.4,1.5,0,1.8,1c0.3,0.9,0,1.8-0.5,2.3c-0.5,0.5-1.2,0.8-2.1,0.5c-1.7-0.6-3.4-0.8-5.1-1.3
				c-6.2-1.5-12.4-2.9-18.5-4.6c-3.9-1-7.8-1.8-11.7-2.8c-2.3-0.6-4.5-1.2-6.9-1.8c0.2-0.3,0.3-0.5,0.5-0.7
				c-0.2-0.1-0.4-0.2-0.6-0.3c-0.2,0.3-0.3,0.6-0.4,0.8c-0.1,0-0.2,0.1-0.3,0c-1.1-0.3-2.2-0.7-3.3-0.8c-1.1-0.2-1.7-0.6-1.3-1.8
				c-0.2,0-0.3,0-0.3,0c-0.2,0.4-0.4,0.7-0.6,1.1c-0.3-0.3-0.8-0.6-0.9-0.9c0-0.8-0.1-1.7,0.4-2.3c0.4-0.5,1.4-0.8,2-0.7
				c1,0.1,1.9,0.8,2.9,1c1.1,0.3,2.3,0.3,3.5,0.5c1.7,0.4,3.5,0.7,5.1,1.2c2.2,0.7,4.4,0.9,6.5,1.6c0.4,0.1,1,0,0.8,0.7
				c0.3,0,0.6,0.1,0.8,0.1c0.5,0,1-0.2,1.5-0.1c6.1,1.5,12.3,3,18.4,4.5c2.5,0.6,4.9,1.3,7.4,1.9C148.5,75.2,148.8,75.4,149.2,75.7z
				 M124.8,72.9c0.1,0.1,0.1,0.2,0.2,0.4c0.6-0.4,1.3-0.9,2.1-1.4C125.6,71,125.6,72.7,124.8,72.9z"/>
			<path class="st0" d="M119.7,97.9c0,0.3,0,0.5,0.1,0.8c-0.2,0-0.3,0.1-0.4,0c-1.1-0.3-2.2-0.6-3.3-0.9c-0.3-0.1-0.9,0.2-0.7-0.6
				c0,0-0.5-0.3-0.7-0.2c-1.7,0.6-3.1-0.4-4.7-0.7c-1.6-0.3-3.2-0.8-4.8-1.2c-0.2-0.1-0.4-0.2-0.5-0.4c-1.2-0.2-2.4-0.3-3.7-0.5
				c0.1-0.4,0.1-0.6,0.2-0.9c-0.3-0.1-0.6-0.1-1-0.3c0.2,0.3,0.3,0.5,0.5,1c-1.5-0.5-3-0.3-4.1-1.4c0.5-0.5,0.9-0.9,1.5-1.4
				c-1.2-0.3-1.7,0.3-2.1,1c-0.2,0.2-0.7,0.5-0.8,0.5c-0.3-0.4-0.7-0.2-1.1-0.3c-1.2-0.2-2-1.5-1.7-2.8c0.3-1.1,1.5-1.7,2.7-1.4
				c3.9,1,7.8,1.9,11.7,2.9c2.6,0.7,5.1,1.5,7.7,2.1c4.2,1,8.4,1.9,12.5,2.9c1.8,0.4,3.7,0.8,5.4,1.4c1.7,0.6,3.5,0.7,5.2,1.2
				c1.8,0.5,3.7,1,5.5,1.4c1.3,0.3,1.7,1.1,1.6,2.6c-0.1,0.9-0.9,1.6-2,1.5c-1.2-0.1-2.4-0.4-3.6-0.7c-2.8-0.7-5.7-1.4-8.5-2.1
				c-2.8-0.8-5.6-1.8-8.4-2.3C121.2,99,120.3,98.9,119.7,97.9z"/>
			<path class="st0" d="M115.4,38c-0.1,0.2-0.2,0.4-0.2,0.5c4.5,0.1,8.7,1.8,13,2.7c1.7,0.4,3.4,0.9,5.1,1.3
				c5.8,1.4,11.7,2.9,17.5,4.3c1.7,0.4,3.4,0.8,5.1,1.2c1,0.2,1.8,0.8,2,1.9c0.3,1.8-1.1,2.9-2.9,2.4c-4.2-1-8.4-2.1-12.6-3.2
				c-0.4-0.1-0.7-0.2-1.2-0.3c0.4-0.2,0.7-0.3,1-0.4c-0.4-0.2-0.9-0.4-1.4-0.6c-0.1,0.3-0.1,0.6-0.2,0.9c-0.5-0.2-1-0.3-1.4-0.4
				c-0.2-0.1-1.2,0.3-0.5-0.6c-0.3,0-0.7-0.1-1-0.1c-0.6,0.1-1.1,0.4-1.3-0.2c-1.1-0.2-2-0.3-2.9-0.5c-2.5-0.6-5-1.2-7.5-1.8
				c0.1-0.3,0.2-0.5,0.3-0.9c-0.5,0.3-0.9,0.5-1.3,0.6c-0.1,0-0.3-0.5-0.6-0.9c-1.1,0.1-2.5,0.7-3.5-0.5c-0.4,0-0.7,0.1-1,0
				c-4.1-1-8.3-2-12.4-2.9c-1.1-0.3-1.7-1.1-1.9-2c-0.1-0.6,0.5-1.8,1-1.9c0.9-0.3,2.1,0,3.1,0.1c0.4,0,0.8,0.2,1.2,0.2
				C112.3,37.2,113.8,37.6,115.4,38z M109.3,38.6c0.7,0.6,1.3,1.1,2,1.7c0-0.6,0-1.1,0-1.6C110.8,38.7,110.1,38.6,109.3,38.6z"/>
			<path class="st2" d="M107.4,55.2c-0.4,0-0.9,0.1-1.3,0c-1-0.2-2-0.4-2.9-0.7c-0.8-0.3-1.5-0.9-1.4-1.8c0.1-0.7,0.6-1.4,0.9-2.1
				c0-0.1,0.2-0.2,0.3-0.2c0.9,0.1,1.7,0.1,2.5,0.3c0.3,0.1,0.5,0.8,0.9,1c0.3,0.1,0.8-0.5,1.1-0.5c2.3,0.5,4.6,1.1,6.9,1.7
				c1.5,0.4,3,0.7,4.4,1.1c0.9,0.2,1.7,1.2,1.6,2.2c-0.1,1.2-0.8,2.1-2,1.9c-2.2-0.4-4.3-1-6.5-1.5c-1.1-0.3-2.3-0.4-3.5-0.6
				C108.2,55.8,107.8,55.4,107.4,55.2z"/>
			<path class="st2" d="M99.1,77.3c0.2-0.3,0.3-0.7,0.6-1.2c1.4,0.6,3.4,0.2,4.8,1.8c0.7-0.5,1.5-0.7,2.2,0.3c0.1,0.1,0.7-0.2,1-0.1
				c1.5,0.3,3,0.7,4.5,1.1c1.5,0.4,2,1.2,1.6,2.6c-0.4,1.3-1.4,1.9-2.7,1.6c-4.7-1.2-9.4-2.3-14.1-3.6c-0.7-0.2-1.5-1.1-1.8-1.8
				c-0.4-0.9,0.4-1.7,1.1-2.2c0.4-0.3,1.2-0.4,1.6-0.2C98.5,75.9,98.7,76.6,99.1,77.3z"/>
			<path class="st2" d="M127.5,29.3c-0.7,0-1,0-1.4,0.1c0.2,0.4,0.4,0.8,0.6,1.2c-0.7,0.2-1.4,0.7-2,0.5c-3.2-0.7-6.4-1.5-9.5-2.4
				c-0.1,0-0.2-0.3-0.3-0.6c-0.1,0.1-0.3,0.3-0.4,0.3c-1.9-0.5-3.8-0.9-5.5-1.7c-0.4-0.2-0.4-1.8-0.1-2.4c0.3-0.5,1.4-1.1,2-1
				c3.5,0.8,6.9,1.8,10.4,2.7c1.3,0.3,2.6,0.6,3.8,0.9c0.5,0.1,1.2,0.2,1.6,0.6C127,27.9,127.2,28.6,127.5,29.3z M111.1,25.3
				c-1,0.2-1.6,0.3-2.3,0.5c0.4,0.3,0.8,0.4,1.2,0.5c0.2,0,0.6,0.2,0.7,0.1C110.8,26.1,110.9,25.8,111.1,25.3z"/>
			<path class="st1" d="M124.8,72.9c0.8-0.2,0.8-1.8,2.3-1.1c-0.8,0.6-1.5,1-2.1,1.4C125,73.1,124.9,73,124.8,72.9z"/>
			<path class="st1" d="M109.3,38.6c0.8,0,1.4,0.1,2,0.1c0,0.5,0,1,0,1.6C110.6,39.7,110,39.2,109.3,38.6z"/>
			<path class="st1" d="M111.1,25.3c-0.2,0.5-0.3,0.9-0.5,1.1c-0.1,0.1-0.4-0.1-0.7-0.1c-0.4-0.1-0.8-0.2-1.2-0.5
				C109.4,25.6,110.1,25.5,111.1,25.3z"/>
		</g>
	</g>
	<g>
		<path class="st0" d="M5.1,113.4c-0.9-0.9-0.5-2.2-0.4-3.3c0.3-2.3,0.8-4.5,1.3-6.8c1-4.1,2.9-7.8,4.8-11.5
			c0.3,0.1,0.5,0.2,0.8,0.3c0-0.1,0.1-0.2,0.1-0.3c-0.5-0.6-0.3-1.1,0.1-1.6c1.1-1.3,2.1-2.8,3.2-4.1c1.4-1.8,2.9-3.6,4.5-5.2
			c0.7-0.7,0.7-0.7,1.8-0.1c0.1-0.6,0.3-1.2,0.5-2.1c0.3,0.6,0.6,1,1,1.6c0-0.8,0-1.4,0.1-1.9c0.1-0.4,0.4-0.8,0.7-1
			c2.2-1.4,4.2-3.4,6.9-4c3.2-2.3,7-3.2,10.7-4c1.6-0.4,3.2-1,5-0.7c3-1.1,6.1-0.4,9.2-0.5c3.7-0.1,7.3,0.7,10.9,1.7
			c0.4,0.1,0.8,0.3,1,0.6c0.4,0.4,0.7,0.5,1.3,0.4c0.6-0.1,1.3,0.2,1.9,0.5c2.7,1.1,5.2,2.4,7.7,4c0.9,0.6,1.3,1.7,2.5,1.7
			c0.1,0,0.3,0.2,0.3,0.3c0.1,0.7,0.3,1.1,1.2,0.9c0.2,0,0.4,0.4,0.7,0.6c-0.3,0.2-0.5,0.4-0.7,0.6c0.6,0.6,1.1,0.7,1.6,0
			c4.4,3.9,8.1,8.1,10.8,13.1c0.3,0.6,1.1,1.1,0.4,1.9c-0.1,0.1,0.2,0.6,0.4,0.7c1,0.8,1,0.8,0,1.7c-0.1,0.1-0.1,0.2-0.2,0.4
			c0.3,0,0.5,0,0.7-0.1c0.6-0.3,1,0,1.2,0.6c0.9,3,1.7,5.9,2.5,8.9c0.1,0.3,0.2,0.7,0.3,1c0,0.4,0.4,1-0.4,1.1
			c0.1,0.3,0.1,0.8,0.2,0.8c0.6,0,0.6,0.5,0.6,0.9c0,1.5,0,2.9,0,4.4c0,0.9-0.4,1.3-1.4,1.3c-1.2,0-2.4-0.1-3.6-0.1
			c-0.6,0-1.2,0.1-1.8,0.1c-1.7,0-3.5,0-5.2,0c-0.9,0-1.6-0.2-2.3-1c-0.1,0.4-0.2,0.7-0.2,1c-2.9,0-5.7,0-8.6,0
			c-0.6,0-1.2-0.4-1.8-0.5c-0.2,1-1,0.5-1.5,0.5c-3.2,0-6.3-0.1-9.5-0.2c-1.1,0-2.2,0.2-3.2,0.3c-0.3-0.5-0.5-0.8-0.8-1.2
			c-0.3,0.2-0.5,0.4-0.8,0.6c-0.9,0.8-0.9,0.7-1.8,0c-0.2-0.2-0.6-0.1-0.9-0.1c0,0.2,0,0.4,0,0.7c-2.7,0-5.6,0-8.4,0
			c-0.6,0-1.1-0.1-1.2-1c-0.7,0.8-1.2,1.6-2.1,0.6c-0.3-0.3-1.1-0.2-1.9-0.3c0.2,0.3,0.3,0.6,0.5,0.8c-8.9,0-17.7,0.1-26.6-0.1
			c-2.4,0-4.7,0.2-7.1,0.1c-1.5-0.1-2.9,0-4.4,0c-0.8,0-1.2-0.3-1.1-1.1C4.8,114.9,4.9,114.3,5.1,113.4z M73.1,105.2
			c0,0.1,0,0.2,0.1,0.3c1.4,0.2,2.7,0.5,4.5,0.8c-0.3-0.7-0.3-1.3-0.5-1.3c-1.1-0.1-2.3-0.2-3.4-0.2C73.5,104.8,73.3,105,73.1,105.2
			z M58.5,99.5c0.1,0.1,0.1,0.2,0.2,0.2c1,0,2,0,3.1,0c0-0.4,0.1-0.7,0-0.9c-0.2-0.3-0.4-0.7-0.7-0.8c-0.3-0.1-0.6,0.3-0.9,0.4
			c-0.3,0.1-0.6,0.3-0.8,0.4C59,99.1,58.8,99.3,58.5,99.5z M78.3,92.6c0.1-0.1,0.1-0.2,0.2-0.3c-0.3-0.3-0.6-0.7-0.9-1
			c0.3-0.3,0.6-0.6,0.9-0.9c-0.7,0.4-1.9-1-2,0.6c0,0.5,0.4,1.1,0.7,1.5C77.4,92.7,77.9,92.6,78.3,92.6z M82.7,85.6
			c0.7,1.7,2.1,1.2,3.1,1.6c0.1-0.2,0.1-0.3,0.1-0.4c-0.2-1.5-1.9-0.3-2.3-1.4C83.6,85.4,83.1,85.5,82.7,85.6z"/>
		<path class="st0" d="M73.3,12.8c-0.1,0.4-0.3,0.8-0.5,1.3c0.7-0.1,1.1-0.1,1.7-0.1c0.1,0.9,1.5,1.2,1.3,2.4c0,0.1,0.4,0.2,0.6,0.3
			c1,0.6,1.6,2,1.2,3c1.8,0.4,2,2,2.6,3.3c0.6,1.5,1.2,3,1.4,4.7c0.1,1.2,0.8,2.5,0.7,3.8c-0.3,0.2-0.6,0.3-0.9,0.5
			c0.3,0.2,0.7,0.5,1.2,0.9c-0.2,0.2-0.5,0.6-0.8,0.9c1,1.2,1,1.2,0.1,2.1c0.6,0.6,0.8,1.3,0.3,2.2c-0.4,0.6-0.1,1.6-0.2,2.4
			c-0.2,1.2-0.6,2.4-0.9,3.6c-0.2,0.7-0.8,1.4-0.9,2.2c-0.1,0.8-0.6,1.5-1,2.2c-0.4,0.8-0.8,1.5-1.3,2.3c-0.4,0.7-1,1.3-1.5,2
			c-0.5,0.7-1,1.4-1.6,2.1c-0.5,0.6-1.1,1.2-1.8,1.8c-2.6,2.2-5.4,4.3-8.6,5.7c-1.8,0.8-3.7,1.3-5.5,1.8c-0.4,0.1-0.8,0-1.4-0.1
			c-0.6,0.8-1.7,1-2.9,0.3c-0.2-0.1-0.5,0-0.8,0c-0.9,0.3-1.8,0.6-2.6,0c-0.1-0.1-0.3-0.1-0.4-0.1c-1.3,1.1-2.7,0.2-4,0
			c-1.5-0.2-3-0.7-4.5-1.2c-0.7-0.2-1.4-0.5-1.3-1.5c-1.4,0.4-2.4-0.1-3.4-0.8c-1.2-0.8-2.4-1.5-3.7-2.4c0.4-0.3,0.6-0.5,1.1-0.9
			c-0.6-0.1-1.1-0.2-1.5-0.3c-1.4-0.2-1.5-0.3-1.8-1.7c-0.1-0.3-0.5-0.7-0.6-0.7c-1,0.2-1.5-0.6-2-1.2c-0.7-0.8-1.3-1.7-1.9-2.7
			c0.8-0.4,1.7-0.6,1.7-1.8c-1.1-0.7-1,1.2-2.1,0.9c-0.2-0.2-0.5-0.5-0.7-0.9c-1.1-2.4-2.4-4.6-2.9-7.2c-0.2-1.2-0.4-2.4-0.5-3.7
			c-0.2-1.7-0.4-3.5-0.3-5.2c0.2-2.3,0.4-4.5,1-6.7c0.8-3.1,2.2-6,4.1-8.6c0.5-0.7,0.9-1.4,1.4-1.9c0.3-0.3,0.7-0.5,1.1-0.6
			c1-0.1,1.6-0.5,2.2-1.6c-0.5,0.1-0.8,0.2-1.2,0.3c0-0.2,0-0.4,0.1-0.4c2.8-2.9,6-5.1,9.7-6.7c2.5-1.1,5.1-1.7,7.7-2.1
			c0.4-0.1,1,0.3,1.6,0.6c0.2-0.1,0.6-0.6,1-0.6c2.4,0,4.8-0.3,7.2,0.4C57.6,5,56.8,4.7,57.1,6c0.5-0.1,1.1-0.1,1.4-0.4
			c0.7-0.7,1.4-0.5,2.1-0.2c1.6,0.6,3.3,0.8,4.5,2.2c0,0,0.1,0.1,0.1,0.1c1.6,0,2.8,1.1,4,1.9c1.3,0.8,2.5,1.8,3.7,2.8
			C73,12.5,73.1,12.6,73.3,12.8z M53.1,14.1c0.6,0.1,0.9,0.2,1.3,0.2c0.1-0.9,0.9-0.5,1.4-0.7c0.6-0.2,1.2-0.3,1.4-1.2
			C55.8,12.6,54.3,12.6,53.1,14.1z M48.9,16.6c-0.9-1.8-1.3-2-2.9-1.4c0,0.3,0,0.7,0,0.9C47,16.3,47.9,16.4,48.9,16.6z M77.7,45.5
			c-0.3-0.1-0.5-0.3-0.8-0.4c-0.6-0.1-1.4,0.4-1.9-0.5c0,0-0.5,0.1-0.6,0.3c-0.1,0.2,0,0.7,0.1,0.8c0.6,0.3,1.3,0.4,1.9,0.6
			C77.1,46.5,77.4,46.2,77.7,45.5z M45,36c0.4-0.8-0.3-1-0.8-1.1c-0.4-0.1-0.8,0-1.2-0.4c-0.6-0.7-0.9-0.1-1.2,0.4
			C43.3,35.9,43.8,36.1,45,36z"/>
	</g>
</g>
</svg>
