<?xml version="1.0" encoding="utf-8"?>
<!-- Generator: Adobe Illustrator 20.1.0, SVG Export Plug-In . SVG Version: 6.00 Build 0)  -->
<svg version="1.1" id="Layer_1" xmlns="http://www.w3.org/2000/svg" xmlns:xlink="http://www.w3.org/1999/xlink" x="0px" y="0px"
	 viewBox="0 0 815 280" style="enable-background:new 0 0 815 280;" xml:space="preserve">
<style type="text/css">
	.st0{fill:#B5B6B7;}
	.st1{fill:#757576;}
	.st2{fill:#FFFFFF;}
	.st3{fill:#F37046;}
</style>
<g>
	<path class="st0" d="M8.4,197c0,0-0.3,0.2-0.7,0.4c-0.4,0-0.7,0-1.1,0c0-4.3,0-8.6,0-12.8c0-0.2,0.6-0.5,1.2-0.9
		c-0.3-0.9-1.1-2-1.1-3.1c-0.2-2.5-0.1-5,0-7.4c0-0.4,0.8-0.7,1.3-1.2c-0.2-0.1-1.3-0.4-1.3-0.7c0-4,0.2-8,0.3-12.1
		c0-0.5-0.4-1.1-0.4-1.6c0-5.6,0-11.1,0-16.7c0-1.3,0-2.6,0-3.8c10-0.1,19.7-0.3,29.5-0.3c9.8-0.1,19.7,0,29.5,0
		c9.3,0,18.7,0.3,28,0.2c9.3-0.1,18.6,0.1,27.9,0.1c9.7-0.1,19.3,0,29,0c9.7,0,19.4,0,29.1,0c9.4,0,18.8,0,28,0.2
		c1.7-0.1,3.4-0.3,5.1-0.3c5-0.1,10-0.1,14.9,0c21.2,0.1,42.3,0.2,63.5,0.2c13.7,0,27.4,0.1,41.1,0.1c3.6,0,7.2-0.1,10.8-0.1
		c1.1,0,2,0.4,3.1,0.6c2.9-0.8,12-0.9,16.3-0.2c0.3-0.2,0.6-0.4,0.7-0.5c6.6,0,13.1-0.1,19.4,0c7.1,0.2,14.2-0.1,21.3,0
		c7.8,0.1,15.8,0.1,23.6-0.1c3-0.1,5.4,0.6,8.8,0.2c2.6-0.4,6.2-0.1,9.4-0.1c1.3,0,2.6,0.3,3.9,0.4c1.3-0.1,2.9-0.4,4.6-0.4
		c4.7-0.1,9.3,0,14.4,0c0,0.5,0,1,0,1.4c0,7,0,13.9,0,20.9c0,0.9,1.1,2-5.3,1.6c0.2,0.1,0.3,0.2,0.5,0.3c1.5,0.1,3,0.3,5,0.5
		c-1.2,3.8,1.9,7.7-2,11.4c3.6,0.8,0.8,1.8,1.9,2.6c-1.3,0.2-2.3,0.3-3.4,0.5c1.2,0.4,3.2,0.8,3.1,1.1c-1,2.7,3,5.6-2.5,8.3
		c0.8-0.2,1.6-0.3,2.4-0.5c0,4,0,8.1,0,12.4c-10.3,0-20.6,0.2-30.9-0.1c-2.7-0.1-4.8,0.2-7.3,0.2c-18.7-0.1-37.5,0-56.2,0
		c-9,0-18,0-26.9,0c-2.5,0-5.5,0.4-7.3-0.5c-0.1,0-2.1,0.3-3.2,0.4c-0.8,0.1-1.6,0.1-2.4,0.1c-14.7,0-29.4,0-44.1,0
		c-6.7,0-13.4,0-20.1,0c-1.5,0-3-0.2-4.5-0.2c-1.5,0-3.1,0.2-4.6,0.2c-9.9,0-19.9,0-29.8,0c-1.2,0-2.4-0.4-3-0.5
		c-2.5,0.2-4.5,0.5-6.6,0.5c-10.5,0-21,0-31.5-0.1c-1,0-1.9-0.4-1.9-0.4c-2,0.2-3.4,0.5-4.8,0.5c-13.7,0-27.3,0-41,0
		c0.1-0.2,0.2-0.4,0.3-0.8c-5.8,2-9-0.1-13.4-0.5c0,0.5,0,0.8,0,1.3c-11.2,0-22.3,0-33.4,0c-7.1,0-14.3,0-21.4,0
		c-20.5,0-40.9,0-61.4,0C11.4,197.4,10.2,197.2,8.4,197z M371.3,160.8c-3.2,1,1.4,1.4,4,2c0.7,0.1,2.6-0.2,3.9-0.3
		c-1,0.2-2,0.3-3,0.5C374.6,162.2,372.9,161.5,371.3,160.8z M298.7,193.4c0.5-0.1,1-0.3,1.5-0.4c-2.1-0.7-4.2-1.3-6.9-2.1
		c-0.1,0.7-0.2,1.2-0.3,1.3C295.3,192.7,297,193.1,298.7,193.4z M403.3,156.6c-0.8-0.5-1.4-0.8-1.9-1.2c-6,0.4-6,0.4-5.9,1
		C397.9,156.5,400.3,156.6,403.3,156.6z M198.4,191.3c0.3,0.1,0.8,0.3,1.3,0.5c3.1-0.8,3.7,0.4,5.7,0.5c0.4,0,0.7,0.1,1,0.1
		c0.2-0.1,0.7-0.3,0.6-0.4c-1.6-0.6-3.4-1.2-5.2-1.9C200.2,190.7,199.4,191,198.4,191.3z M278.8,156.7c0.3-0.6,1.2-1.3,0.5-1.8
		c-0.8-0.5-1.8-1.3-4.6-1.2C276.1,154.7,277.3,155.6,278.8,156.7z M58.3,165.1c-2.3-0.1-4.4-0.2-6.9-0.3c1.1,0.7,1.7,1.2,2.3,1.6
		c0.4,0.1,0.8,0.2,1.3,0.3C56,166.3,56.9,165.8,58.3,165.1z M370,186.6c-0.6,1.7,1,2.2,6.1,2.2c0.1-0.4,0.2-0.7,0.4-1.3
		C373.8,188.4,373.2,188.3,370,186.6z M174.4,149.9c0.1,0.1,0.2,0.3,0.3,0.4c1.8,0.1,3.7,0.2,5.4,0.2c0.4,0,0.7-0.7,1.2-1.3
		C178.4,149.5,176.4,149.7,174.4,149.9z M137,176.4c-1.1,0.7-2.6,1.2-2.2,1.6c0.5,0.5,2.4,0.9,3.6,1.4c0.8-0.1,1.6-0.2,2.4-0.3
		C133.8,178.7,139.1,177.5,137,176.4z M96.5,168.5c2.1-0.3,3.6-0.5,5.1-0.7c-1.3-0.5-2.7-1-4.1-1.5C97.2,167.1,97,167.6,96.5,168.5z
		 M186.2,143.6c-1.7,0.3-2.9,0.5-4.1,0.7c1.3,0.4,2.6,0.9,3.8,1.3c0.4,0,0.8-0.1,1.2-0.1C186.8,144.9,186.6,144.3,186.2,143.6z
		 M237.2,137c-0.8,0.3-1.6,0.5-2.2,0.7c-1.4-0.2-2.6-0.3-4.7-0.6c0.8,0.6,1.2,1,1.8,1.5C234.1,138,238.4,138.4,237.2,137z
		 M370.4,172.3c-0.1-0.1-0.2-0.2-0.2-0.2c-1.1,0-2.4,0-3.1,0.1c-0.5,0.1-0.5,0.6-0.2,0.8c0.7,0.6,1.6,1.1,2.5,1.6c0.2,0,0.4,0,0.7,0
		c-0.4-0.6-0.7-1.2-1.1-1.9C369.1,172.7,369.7,172.5,370.4,172.3z M183.1,180.6c-0.2-0.1-0.4-0.2-0.5-0.2c-1.6,0.1-3.1,0.3-4.7,0.4
		c0.6,0.4,1.3,0.8,1.9,1.1C180.8,181.5,182,181.1,183.1,180.6z M22.7,138.4c-3,0.5-1.6,1.9-5.4,1.9c0.2,0.1,0.4,0.3,0.7,0.4
		c0.1,0,0.4,0,0,0c2.1-0.3,3.8-0.6,5.4-0.9C23.1,139.5,23,139.1,22.7,138.4z M408.3,159.7c-0.5-0.1-1.1-0.1-1.6-0.2
		c-0.7,0.3-1.5,0.6-2.2,0.9c-0.5,0.2-1.1,0.3-1.6,0.5c1.1,0.1,2.9,0.3,3.1,0.2C407,160.6,407.5,160.1,408.3,159.7z M95.9,150.9
		c3.9-0.9,3.9-0.9,0-2.2C95.9,149.4,95.9,150.1,95.9,150.9z M167.4,161c-1.4,0.6-2.7,1.3-4.1,1.9C166.4,162.6,169.8,162.4,167.4,161
		z M105.9,187.1c-4.7,0.7-3.7,1.7-4.8,2.5c0.4,0.1,0.9,0.1,1.3,0.2C103.5,189,104.5,188.2,105.9,187.1z M363.6,159.2
		c-5.3,0.6-0.4,1.9-2.6,2.6c0.6,0,1.1,0.1,1.7,0.1C363,161,363.2,160.1,363.6,159.2z M161.5,187.4c0.9-0.9,1.6-1.6,2.3-2.3
		c-0.6,0-1.3-0.1-1.9-0.1C164.2,185.8,156.3,186.3,161.5,187.4z M206.6,168.8c0.4-0.7,1-1.2,0.8-1.6c-0.1-0.3-1.2-0.5-1.9-0.7
		c-0.5,0.2-1.6,0.5-1.4,0.6C204.5,167.6,205.5,168.1,206.6,168.8z"/>
</g>
<g>
	<path class="st1" d="M6.7,275.7c0,0,0,0.2-0.1,0.4c0,0-0.1,0-0.1,0c0-4.3,0-8.6,0-12.8c0-0.2,0.1-0.5,0.1-0.9c0-0.9-0.1-2-0.1-3.1
		c0-2.5,0-5,0-7.4c0-0.4,0.1-0.7,0.1-1.2c0-0.1-0.1-0.4-0.1-0.7c0-4,0-8,0-12.1c0-0.5,0-1.1,0-1.6c0-5.6,0-11.1,0-16.7
		c0-1.3,0-2.6,0-3.8c1.1-0.1,2.2-0.3,3.3-0.3c1.1-0.1,2.2,0,3.3,0c1,0,2.1,0.3,3.1,0.2c1-0.1,2.1,0.1,3.1,0.1c1.1-0.1,2.2,0,3.2,0
		c1.1,0,2.2,0,3.2,0c1,0,2.1,0,3.1,0.2c0.2-0.1,0.4-0.3,0.6-0.3c0.6-0.1,1.1-0.1,1.7,0c2.4,0.1,4.7,0.2,7.1,0.2c1.5,0,3,0.1,4.6,0.1
		c0.4,0,0.8-0.1,1.2-0.1c0.1,0,0.2,0.4,0.3,0.6c0.3-0.8,1.3-0.9,1.8-0.2c0-0.2,0.1-0.4,0.1-0.5c0.7,0,1.5-0.1,2.2,0
		c0.8,0.2,1.6-0.1,2.4,0c0.9,0.1,1.8,0.1,2.6-0.1c0.3-0.1,0.6,0.6,1,0.2c0.3-0.4,0.7-0.1,1-0.1c0.1,0,0.3,0.3,0.4,0.4
		c0.1-0.1,0.3-0.4,0.5-0.4c0.5-0.1,1,0,1.6,0c0,0.5,0,1,0,1.4c0,7,0,13.9,0,20.9c0,0.9,0.1,2-0.6,1.6c0,0.1,0,0.2,0.1,0.3
		c0.2,0.1,0.3,0.3,0.6,0.5c-0.1,3.8,0.2,7.7-0.2,11.4c0.4,0.8,0.1,1.8,0.2,2.6c-0.1,0.2-0.3,0.3-0.4,0.5c0.1,0.4,0.4,0.8,0.3,1.1
		c-0.1,2.7,0.3,5.6-0.3,8.3c0.1-0.2,0.2-0.3,0.3-0.5c0,4,0,8.1,0,12.4c-1.1,0-2.3,0.2-3.4-0.1c-0.3-0.1-0.5,0.2-0.8,0.2
		c-2.1-0.1-4.2,0-6.3,0c-1,0-2,0-3,0c-0.3,0-0.6,0.4-0.8-0.5c0,0-0.2,0.3-0.4,0.4c-0.1,0.1-0.2,0.1-0.3,0.1c-1.6,0-3.3,0-4.9,0
		c-0.7,0-1.5,0-2.2,0c-0.2,0-0.3-0.2-0.5-0.2c-0.2,0-0.3,0.2-0.5,0.2c-1.1,0-2.2,0-3.3,0c-0.1,0-0.3-0.4-0.3-0.5
		c-0.3,0.2-0.5,0.5-0.7,0.5c-1.2,0-2.3,0-3.5-0.1c-0.1,0-0.2-0.4-0.2-0.4c-0.2,0.2-0.4,0.5-0.5,0.5c-1.5,0-3,0-4.6,0
		c0-0.2,0-0.4,0-0.8c-0.6,2-1-0.1-1.5-0.5c0,0.5,0,0.8,0,1.3c-1.2,0-2.5,0-3.7,0c-0.8,0-1.6,0-2.4,0c-2.3,0-4.6,0-6.8,0
		C7,276.1,6.9,275.8,6.7,275.7z M47.1,239.4c-0.4,1,0.2,1.4,0.4,2c0.1,0.1,0.3-0.2,0.4-0.3c-0.1,0.2-0.2,0.3-0.3,0.5
		C47.4,240.9,47.2,240.2,47.1,239.4z M39,272.1c0.1-0.1,0.1-0.3,0.2-0.4c-0.2-0.7-0.5-1.3-0.8-2.1c0,0.7,0,1.2,0,1.3
		C38.6,271.4,38.8,271.7,39,272.1z M50.6,235.3c-0.1-0.5-0.2-0.8-0.2-1.2c-0.7,0.4-0.7,0.4-0.7,1C50,235.2,50.3,235.2,50.6,235.3z
		 M27.8,270c0,0.1,0.1,0.3,0.1,0.5c0.3-0.8,0.4,0.4,0.6,0.5c0,0,0.1,0.1,0.1,0.1c0-0.1,0.1-0.3,0.1-0.4c-0.2-0.6-0.4-1.2-0.6-1.9
		C28,269.4,27.9,269.7,27.8,270z M36.8,235.4c0-0.6,0.1-1.3,0.1-1.8c-0.1-0.5-0.2-1.3-0.5-1.2C36.5,233.3,36.6,234.2,36.8,235.4z
		 M12.2,243.8c-0.3-0.1-0.5-0.2-0.8-0.3c0.1,0.7,0.2,1.2,0.3,1.6c0,0.1,0.1,0.2,0.1,0.3C12,244.9,12.1,244.5,12.2,243.8z
		 M46.9,265.2c-0.1,1.7,0.1,2.2,0.7,2.2c0-0.4,0-0.7,0-1.3C47.3,267.1,47.3,267,46.9,265.2z M25.1,228.6c0,0.1,0,0.3,0,0.4
		c0.2,0.1,0.4,0.2,0.6,0.2c0,0,0.1-0.7,0.1-1.3C25.6,228.2,25.4,228.4,25.1,228.6z M21,255.1c-0.1,0.7-0.3,1.2-0.2,1.6
		c0.1,0.5,0.3,0.9,0.4,1.4c0.1-0.1,0.2-0.2,0.3-0.3C20.6,257.3,21.2,256.2,21,255.1z M16.5,247.2c0.2-0.3,0.4-0.5,0.6-0.7
		c-0.1-0.5-0.3-1-0.5-1.5C16.6,245.8,16.5,246.3,16.5,247.2z M26.5,222.3c-0.2,0.3-0.3,0.5-0.5,0.7c0.1,0.4,0.3,0.9,0.4,1.3
		c0,0,0.1-0.1,0.1-0.1C26.5,223.5,26.5,223,26.5,222.3z M32.1,215.6c-0.1,0.3-0.2,0.5-0.2,0.7c-0.2-0.2-0.3-0.3-0.5-0.6
		c0.1,0.6,0.1,1,0.2,1.5C31.8,216.7,32.3,217.1,32.1,215.6z M47,251c0-0.1,0-0.2,0-0.2c-0.1,0-0.3,0-0.3,0.1c-0.1,0.1-0.1,0.6,0,0.8
		c0.1,0.6,0.2,1.1,0.3,1.6c0,0,0,0,0.1,0c0-0.6-0.1-1.2-0.1-1.9C46.8,251.3,46.9,251.2,47,251z M26.1,259.3c0-0.1,0-0.2-0.1-0.2
		c-0.2,0.1-0.4,0.3-0.5,0.4c0.1,0.4,0.1,0.8,0.2,1.1C25.9,260.2,26,259.8,26.1,259.3z M8.3,217.1c-0.3,0.5-0.2,1.9-0.6,1.9
		c0,0.1,0,0.3,0.1,0.4c0,0,0,0,0,0c0.2-0.3,0.4-0.6,0.6-0.9C8.3,218.2,8.3,217.8,8.3,217.1z M51.2,238.3c-0.1-0.1-0.1-0.1-0.2-0.2
		c-0.1,0.3-0.2,0.6-0.2,0.9c-0.1,0.2-0.1,0.3-0.2,0.5c0.1,0.1,0.3,0.3,0.3,0.2C51,239.3,51.1,238.8,51.2,238.3z M16.4,229.5
		c0.4-0.9,0.4-0.9,0-2.2C16.4,228.1,16.4,228.8,16.4,229.5z M24.4,239.7c-0.2,0.6-0.3,1.3-0.5,1.9C24.3,241.3,24.6,241.1,24.4,239.7
		z M17.5,265.8c-0.5,0.7-0.4,1.7-0.5,2.5c0,0.1,0.1,0.1,0.1,0.2C17.2,267.7,17.4,266.9,17.5,265.8z M46.2,237.8
		c-0.6,0.6,0,1.9-0.3,2.6c0.1,0,0.1,0.1,0.2,0.1C46.1,239.7,46.2,238.8,46.2,237.8z M23.7,266.1c0.1-0.9,0.2-1.6,0.3-2.3
		c-0.1,0-0.1-0.1-0.2-0.1C24,264.5,23.1,265,23.7,266.1z M28.7,247.5c0-0.7,0.1-1.2,0.1-1.6c0-0.3-0.1-0.5-0.2-0.7
		c-0.1,0.2-0.2,0.5-0.2,0.6C28.5,246.3,28.6,246.8,28.7,247.5z"/>
</g>
<g>
	<path class="st1" d="M67.4,12l-1-2.4H62L61,12h-2.4l4.5-10.6h2.1L69.8,12H67.4z M64.2,4.2l-1.4,3.4h2.8L64.2,4.2z"/>
	<path class="st1" d="M78.4,12l-2.2-3.4h-1.8V12H72V1.5h4.8c2.5,0,4,1.3,4,3.5v0c0,1.7-0.9,2.8-2.2,3.3l2.6,3.8H78.4z M78.5,5.1
		c0-1-0.7-1.5-1.8-1.5h-2.3v3h2.3C77.8,6.6,78.5,6,78.5,5.1L78.5,5.1z"/>
	<path class="st1" d="M91.3,12l-1-2.4h-4.4l-1,2.4h-2.4l4.5-10.6h2.1L93.7,12H91.3z M88.1,4.2l-1.4,3.4h2.8L88.1,4.2z"/>
	<path class="st1" d="M100.9,12h-5V1.5h4.9c2.1,0,3.5,1.1,3.5,2.7v0c0,1.2-0.6,1.8-1.4,2.3c1.2,0.5,2,1.2,2,2.6v0
		C104.9,11,103.3,12,100.9,12z M102,4.6c0-0.7-0.5-1.1-1.5-1.1h-2.3v2.2h2.1C101.3,5.7,102,5.4,102,4.6L102,4.6z M102.6,8.8
		c0-0.7-0.5-1.1-1.7-1.1h-2.7v2.3h2.7C101.9,9.9,102.6,9.6,102.6,8.8L102.6,8.8z"/>
	<path class="st1" d="M107.5,12V1.5h2.3V12H107.5z"/>
	<path class="st1" d="M117.9,12.2c-3.1,0-5.4-2.4-5.4-5.4v0c0-3,2.2-5.4,5.5-5.4c2,0,3.2,0.7,4.1,1.6l-1.5,1.7
		c-0.8-0.7-1.6-1.2-2.7-1.2c-1.8,0-3,1.5-3,3.3v0c0,1.8,1.2,3.3,3,3.3c1.2,0,1.9-0.5,2.8-1.2l1.5,1.5
		C121.1,11.4,119.9,12.2,117.9,12.2z"/>
	<path class="st1" d="M134.7,12.2c-3.1,0-5.4-2.4-5.4-5.4v0c0-3,2.2-5.4,5.5-5.4c2,0,3.2,0.7,4.1,1.6l-1.5,1.7
		c-0.8-0.7-1.6-1.2-2.7-1.2c-1.8,0-3,1.5-3,3.3v0c0,1.8,1.2,3.3,3,3.3c1.2,0,1.9-0.5,2.8-1.2l1.5,1.5
		C137.9,11.4,136.7,12.2,134.7,12.2z"/>
	<path class="st1" d="M141.4,12V1.5h2.3v8.4h5.2V12H141.4z"/>
	<path class="st1" d="M151.4,12V1.5h2.3V12H151.4z"/>
	<path class="st1" d="M161.9,12.2c-3.1,0-5.4-2.4-5.4-5.4v0c0-3,2.2-5.4,5.5-5.4c2,0,3.2,0.7,4.1,1.6l-1.5,1.7
		c-0.8-0.7-1.6-1.2-2.7-1.2c-1.8,0-3,1.5-3,3.3v0c0,1.8,1.2,3.3,3,3.3c1.2,0,1.9-0.5,2.8-1.2l1.5,1.5
		C165.1,11.4,163.9,12.2,161.9,12.2z"/>
	<path class="st1" d="M175.4,12l-3.3-4.5l-1.2,1.3V12h-2.3V1.5h2.3v4.6l4.3-4.6h2.8l-4.3,4.5l4.5,6H175.4z"/>
	<path class="st1" d="M190,3.6V12h-2.3V3.6h-3.2V1.5h8.7v2.1H190z"/>
	<path class="st1" d="M202.2,12V7.8h-4.3V12h-2.3V1.5h2.3v4.2h4.3V1.5h2.3V12H202.2z"/>
	<path class="st1" d="M214,12l-2.2-3.4h-1.8V12h-2.3V1.5h4.8c2.5,0,4,1.3,4,3.5v0c0,1.7-0.9,2.8-2.2,3.3l2.6,3.8H214z M214,5.1
		c0-1-0.7-1.5-1.8-1.5h-2.3v3h2.3C213.4,6.6,214,6,214,5.1L214,5.1z"/>
	<path class="st1" d="M224.1,12.2c-3.2,0-5.6-2.4-5.6-5.4v0c0-3,2.4-5.4,5.6-5.4s5.6,2.4,5.6,5.4v0C229.7,9.7,227.4,12.2,224.1,12.2
		z M227.3,6.7c0-1.8-1.3-3.3-3.2-3.3S221,4.9,221,6.7v0c0,1.8,1.3,3.3,3.2,3.3S227.3,8.6,227.3,6.7L227.3,6.7z"/>
	<path class="st1" d="M236.8,12.1c-2.8,0-4.5-1.6-4.5-4.7v-6h2.3v5.9c0,1.7,0.9,2.6,2.3,2.6c1.4,0,2.3-0.9,2.3-2.5v-6h2.3v5.9
		C241.4,10.6,239.6,12.1,236.8,12.1z"/>
	<path class="st1" d="M249.4,12.2c-3.3,0-5.5-2.3-5.5-5.4v0c0-3,2.3-5.4,5.5-5.4c1.9,0,3,0.5,4.1,1.4L252,4.5
		c-0.8-0.7-1.5-1.1-2.7-1.1c-1.7,0-3,1.5-3,3.3v0c0,1.9,1.3,3.3,3.2,3.3c0.8,0,1.6-0.2,2.2-0.6V7.9h-2.3v-2h4.6v4.6
		C252.8,11.4,251.3,12.2,249.4,12.2z"/>
	<path class="st1" d="M263.3,12V7.8H259V12h-2.3V1.5h2.3v4.2h4.3V1.5h2.3V12H263.3z"/>
	<path class="st1" d="M280.2,12l-2.2-3.4h-1.8V12h-2.3V1.5h4.8c2.5,0,4,1.3,4,3.5v0c0,1.7-0.9,2.8-2.2,3.3l2.6,3.8H280.2z
		 M280.2,5.1c0-1-0.7-1.5-1.8-1.5h-2.3v3h2.3C279.6,6.6,280.2,6,280.2,5.1L280.2,5.1z"/>
	<path class="st1" d="M293.1,12l-1-2.4h-4.4l-1,2.4h-2.4l4.5-10.6h2.1l4.5,10.6H293.1z M289.9,4.2l-1.4,3.4h2.8L289.9,4.2z"/>
	<path class="st1" d="M301.1,3.6V12h-2.3V3.6h-3.2V1.5h8.7v2.1H301.1z"/>
	<path class="st1" d="M306.7,12V1.5h7.9v2.1H309v2.1h5v2.1h-5v2.2h5.7V12H306.7z"/>
	<path class="st1" d="M42.9,30.1c-2.8,0-4.5-1.6-4.5-4.7v-6h2.3v5.9c0,1.7,0.9,2.6,2.3,2.6c1.4,0,2.3-0.9,2.3-2.5v-6h2.3v5.9
		C47.5,28.6,45.7,30.1,42.9,30.1z"/>
	<path class="st1" d="M54.2,30.1c-1.6,0-3.2-0.6-4.5-1.7l1.4-1.6c0.9,0.8,1.9,1.3,3.1,1.3c0.9,0,1.5-0.4,1.5-1v0
		c0-0.6-0.4-0.9-2.1-1.3c-2.1-0.5-3.5-1.1-3.5-3.2v0c0-1.9,1.5-3.2,3.7-3.2c1.5,0,2.8,0.5,3.9,1.3l-1.2,1.7c-0.9-0.6-1.8-1-2.7-1
		c-0.9,0-1.4,0.4-1.4,0.9v0c0,0.7,0.5,0.9,2.3,1.4c2.1,0.6,3.3,1.3,3.3,3.2v0C58,29,56.4,30.1,54.2,30.1z"/>
	<path class="st1" d="M60.7,30V19.5H63V30H60.7z"/>
	<path class="st1" d="M73.6,30l-5.1-6.7V30h-2.3V19.5h2.1l4.9,6.5v-6.5h2.3V30H73.6z"/>
	<path class="st1" d="M83.8,30.2c-3.3,0-5.5-2.3-5.5-5.4v0c0-3,2.3-5.4,5.5-5.4c1.9,0,3,0.5,4.1,1.4l-1.5,1.8
		c-0.8-0.7-1.5-1.1-2.7-1.1c-1.7,0-3,1.5-3,3.3v0c0,1.9,1.3,3.3,3.2,3.3c0.8,0,1.6-0.2,2.2-0.6v-1.5h-2.3v-2h4.6v4.6
		C87.2,29.4,85.7,30.2,83.8,30.2z"/>
	<path class="st1" d="M99.9,30.1c-1.6,0-3.2-0.6-4.5-1.7l1.4-1.6c0.9,0.8,1.9,1.3,3.1,1.3c0.9,0,1.5-0.4,1.5-1v0
		c0-0.6-0.4-0.9-2.1-1.3c-2.1-0.5-3.5-1.1-3.5-3.2v0c0-1.9,1.5-3.2,3.7-3.2c1.5,0,2.8,0.5,3.9,1.3l-1.2,1.7c-0.9-0.6-1.8-1-2.7-1
		c-0.9,0-1.4,0.4-1.4,0.9v0c0,0.7,0.5,0.9,2.3,1.4c2.1,0.6,3.3,1.3,3.3,3.2v0C103.8,29,102.2,30.1,99.9,30.1z"/>
	<path class="st1" d="M110.4,26.8h-1.8V30h-2.3V19.5h4.3c2.5,0,4,1.5,4,3.6v0C114.7,25.6,112.8,26.8,110.4,26.8z M112.4,23.1
		c0-1-0.7-1.6-1.9-1.6h-1.8v3.2h1.8C111.7,24.8,112.4,24.1,112.4,23.1L112.4,23.1z"/>
	<path class="st1" d="M117,30V19.5h7.9v2.1h-5.6v2.1h5v2.1h-5v2.2h5.7V30H117z"/>
	<path class="st1" d="M132.6,30.2c-3.1,0-5.4-2.4-5.4-5.4v0c0-3,2.2-5.4,5.5-5.4c2,0,3.2,0.7,4.1,1.6l-1.5,1.7
		c-0.8-0.7-1.6-1.2-2.7-1.2c-1.8,0-3,1.5-3,3.3v0c0,1.8,1.2,3.3,3,3.3c1.2,0,1.9-0.5,2.8-1.2l1.5,1.5
		C135.8,29.4,134.6,30.2,132.6,30.2z"/>
	<path class="st1" d="M139.4,30V19.5h2.3V30H139.4z"/>
	<path class="st1" d="M147.3,21.6v2.2h5v2.1h-5V30H145V19.5h8v2.1H147.3z"/>
	<path class="st1" d="M155.5,30V19.5h2.3V30H155.5z"/>
	<path class="st1" d="M166,30.2c-3.1,0-5.4-2.4-5.4-5.4v0c0-3,2.2-5.4,5.5-5.4c2,0,3.2,0.7,4.1,1.6l-1.5,1.7
		c-0.8-0.7-1.6-1.2-2.7-1.2c-1.8,0-3,1.5-3,3.3v0c0,1.8,1.2,3.3,3,3.3c1.2,0,1.9-0.5,2.8-1.2l1.5,1.5C169.2,29.4,168,30.2,166,30.2z
		"/>
	<path class="st1" d="M177.9,30V19.5h2.3V30H177.9z"/>
	<path class="st1" d="M187.2,30.1c-1.6,0-3.2-0.6-4.5-1.7l1.4-1.6c0.9,0.8,1.9,1.3,3.1,1.3c0.9,0,1.5-0.4,1.5-1v0
		c0-0.6-0.4-0.9-2.1-1.3c-2.1-0.5-3.5-1.1-3.5-3.2v0c0-1.9,1.5-3.2,3.7-3.2c1.5,0,2.8,0.5,3.9,1.3l-1.2,1.7c-0.9-0.6-1.8-1-2.7-1
		c-0.9,0-1.4,0.4-1.4,0.9v0c0,0.7,0.5,0.9,2.3,1.4c2.1,0.6,3.3,1.3,3.3,3.2v0C191,29,189.5,30.1,187.2,30.1z"/>
	<path class="st1" d="M193.8,30V19.5h2.3V30H193.8z"/>
	<path class="st1" d="M203,30.1c-1.6,0-3.2-0.6-4.5-1.7l1.4-1.6c0.9,0.8,1.9,1.3,3.1,1.3c0.9,0,1.5-0.4,1.5-1v0
		c0-0.6-0.4-0.9-2.1-1.3c-2.1-0.5-3.5-1.1-3.5-3.2v0c0-1.9,1.5-3.2,3.7-3.2c1.5,0,2.8,0.5,3.9,1.3l-1.2,1.7c-0.9-0.6-1.8-1-2.7-1
		c-0.9,0-1.4,0.4-1.4,0.9v0c0,0.7,0.5,0.9,2.3,1.4c2.1,0.6,3.3,1.3,3.3,3.2v0C206.9,29,205.3,30.1,203,30.1z"/>
	<path class="st1" d="M221.4,30l-3.3-4.5l-1.2,1.3V30h-2.3V19.5h2.3v4.6l4.3-4.6h2.8l-4.3,4.5l4.5,6H221.4z"/>
	<path class="st1" d="M226.1,30V19.5h7.9v2.1h-5.6v2.1h5v2.1h-5v2.2h5.7V30H226.1z"/>
	<path class="st1" d="M242.1,25.8V30h-2.3v-4.1l-4-6.4h2.7l2.5,4.2l2.5-4.2h2.6L242.1,25.8z"/>
	<path class="st1" d="M259.4,30h-2l-2.4-6.9l-2.4,6.9h-2L247,19.5h2.5l2.2,7.1l2.4-7.1h2l2.4,7.1l2.2-7.1h2.4L259.4,30z"/>
	<path class="st1" d="M269.8,30.2c-3.2,0-5.6-2.4-5.6-5.4v0c0-3,2.4-5.4,5.6-5.4s5.6,2.4,5.6,5.4v0C275.4,27.7,273,30.2,269.8,30.2z
		 M272.9,24.7c0-1.8-1.3-3.3-3.2-3.3s-3.1,1.5-3.1,3.3v0c0,1.8,1.3,3.3,3.2,3.3S272.9,26.6,272.9,24.7L272.9,24.7z"/>
	<path class="st1" d="M284.4,30l-2.2-3.4h-1.8V30H278V19.5h4.8c2.5,0,4,1.3,4,3.5v0c0,1.7-0.9,2.8-2.2,3.3l2.6,3.8H284.4z
		 M284.4,23.1c0-1-0.7-1.5-1.8-1.5h-2.3v3h2.3C283.8,24.6,284.4,24,284.4,23.1L284.4,23.1z"/>
	<path class="st1" d="M293.6,30h-4.1V19.5h4.1c3.3,0,5.6,2.3,5.6,5.2v0C299.1,27.7,296.9,30,293.6,30z M296.7,24.7
		c0-1.9-1.3-3.2-3.2-3.2h-1.8v6.3h1.8C295.4,27.9,296.7,26.6,296.7,24.7L296.7,24.7z"/>
	<path class="st1" d="M305.4,30.1c-1.6,0-3.2-0.6-4.5-1.7l1.4-1.6c0.9,0.8,1.9,1.3,3.1,1.3c0.9,0,1.5-0.4,1.5-1v0
		c0-0.6-0.4-0.9-2.1-1.3c-2.1-0.5-3.5-1.1-3.5-3.2v0c0-1.9,1.5-3.2,3.7-3.2c1.5,0,2.8,0.5,3.9,1.3l-1.2,1.7c-0.9-0.6-1.8-1-2.7-1
		c-0.9,0-1.4,0.4-1.4,0.9v0c0,0.7,0.5,0.9,2.3,1.4c2.1,0.6,3.3,1.3,3.3,3.2v0C309.2,29,307.6,30.1,305.4,30.1z"/>
	<path class="st1" d="M322.3,30h-2L316,19.5h2.5l2.7,7.4l2.7-7.4h2.5L322.3,30z"/>
	<path class="st1" d="M332.1,30.1c-1.6,0-3.2-0.6-4.5-1.7l1.4-1.6c0.9,0.8,1.9,1.3,3.1,1.3c0.9,0,1.5-0.4,1.5-1v0
		c0-0.6-0.4-0.9-2.1-1.3c-2.1-0.5-3.5-1.1-3.5-3.2v0c0-1.9,1.5-3.2,3.7-3.2c1.5,0,2.8,0.5,3.9,1.3l-1.2,1.7c-0.9-0.6-1.8-1-2.7-1
		c-0.9,0-1.4,0.4-1.4,0.9v0c0,0.7,0.5,0.9,2.3,1.4c2.1,0.6,3.3,1.3,3.3,3.2v0C336,29,334.4,30.1,332.1,30.1z"/>
	<path class="st1" d="M338.3,30v-2.4h2.4V30H338.3z"/>
	<path class="st1" d="M66.6,48.2c-3.2,0-5.6-2.4-5.6-5.4v0c0-3,2.4-5.4,5.6-5.4s5.6,2.4,5.6,5.4v0C72.2,45.7,69.9,48.2,66.6,48.2z
		 M69.8,42.7c0-1.8-1.3-3.3-3.2-3.3s-3.1,1.5-3.1,3.3v0c0,1.8,1.3,3.3,3.2,3.3S69.8,44.6,69.8,42.7L69.8,42.7z"/>
	<path class="st1" d="M79.6,48h-2l-4.2-10.6h2.5l2.7,7.4l2.7-7.4h2.5L79.6,48z"/>
	<path class="st1" d="M86.1,48V37.5H94v2.1h-5.6v2.1h5v2.1h-5v2.2h5.7V48H86.1z"/>
	<path class="st1" d="M103.1,48l-2.2-3.4H99V48h-2.3V37.5h4.8c2.5,0,4,1.3,4,3.5v0c0,1.7-0.9,2.8-2.2,3.3l2.6,3.8H103.1z
		 M103.1,41.1c0-1-0.7-1.5-1.8-1.5H99v3h2.3C102.5,42.6,103.1,42,103.1,41.1L103.1,41.1z"/>
	<path class="st1" d="M116,48l-1-2.4h-4.4l-1,2.4h-2.4l4.5-10.6h2.1l4.5,10.6H116z M112.8,40.2l-1.4,3.4h2.8L112.8,40.2z"/>
	<path class="st1" d="M120.6,48V37.5h2.3v8.4h5.2V48H120.6z"/>
	<path class="st1" d="M130.5,48V37.5h2.3v8.4h5.2V48H130.5z"/>
	<path class="st1" d="M150.4,48.2c-3.1,0-5.4-2.4-5.4-5.4v0c0-3,2.2-5.4,5.5-5.4c2,0,3.2,0.7,4.1,1.6l-1.5,1.7
		c-0.8-0.7-1.6-1.2-2.7-1.2c-1.8,0-3,1.5-3,3.3v0c0,1.8,1.2,3.3,3,3.3c1.2,0,1.9-0.5,2.8-1.2l1.5,1.5
		C153.6,47.4,152.4,48.2,150.4,48.2z"/>
	<path class="st1" d="M165,48l-1-2.4h-4.4l-1,2.4h-2.4l4.5-10.6h2.1l4.5,10.6H165z M161.8,40.2l-1.4,3.4h2.8L161.8,40.2z"/>
	<path class="st1" d="M177.8,48v-6.9l-3,4.5h-0.1l-2.9-4.4V48h-2.3V37.5h2.5l2.8,4.4l2.8-4.4h2.5V48H177.8z"/>
	<path class="st1" d="M187.3,44.8h-1.8V48h-2.3V37.5h4.3c2.5,0,4,1.5,4,3.6v0C191.5,43.6,189.6,44.8,187.3,44.8z M189.2,41.1
		c0-1-0.7-1.6-1.9-1.6h-1.8v3.2h1.8C188.5,42.8,189.2,42.1,189.2,41.1L189.2,41.1z"/>
	<path class="st1" d="M200.6,48l-1-2.4h-4.4l-1,2.4h-2.4l4.5-10.6h2.1L203,48H200.6z M197.4,40.2l-1.4,3.4h2.8L197.4,40.2z"/>
	<path class="st1" d="M205.3,48V37.5h2.3V48H205.3z"/>
	<path class="st1" d="M215.9,48.2c-3.3,0-5.5-2.3-5.5-5.4v0c0-3,2.3-5.4,5.5-5.4c1.9,0,3,0.5,4.1,1.4l-1.5,1.8
		c-0.8-0.7-1.5-1.1-2.7-1.1c-1.7,0-3,1.5-3,3.3v0c0,1.9,1.3,3.3,3.2,3.3c0.8,0,1.6-0.2,2.2-0.6v-1.5h-2.3v-2h4.6v4.6
		C219.3,47.4,217.8,48.2,215.9,48.2z"/>
	<path class="st1" d="M230.6,48l-5.1-6.7V48h-2.3V37.5h2.1l4.9,6.5v-6.5h2.3V48H230.6z"/>
	<path class="st1" d="M248.6,48l-1-2.4h-4.4l-1,2.4h-2.4l4.5-10.6h2.1L251,48H248.6z M245.4,40.2l-1.4,3.4h2.8L245.4,40.2z"/>
	<path class="st1" d="M257.1,48h-2l-4.2-10.6h2.5l2.7,7.4l2.7-7.4h2.5L257.1,48z"/>
	<path class="st1" d="M263.6,48V37.5h7.9v2.1h-5.6v2.1h5v2.1h-5v2.2h5.7V48H263.6z"/>
	<path class="st1" d="M280.6,48l-2.2-3.4h-1.8V48h-2.3V37.5h4.8c2.5,0,4,1.3,4,3.5v0c0,1.7-0.9,2.8-2.2,3.3l2.6,3.8H280.6z
		 M280.6,41.1c0-1-0.7-1.5-1.8-1.5h-2.3v3h2.3C280,42.6,280.6,42,280.6,41.1L280.6,41.1z"/>
	<path class="st1" d="M293.5,48l-1-2.4h-4.4l-1,2.4h-2.4l4.5-10.6h2.1l4.5,10.6H293.5z M290.3,40.2l-1.4,3.4h2.8L290.3,40.2z"/>
	<path class="st1" d="M302.5,48.2c-3.3,0-5.5-2.3-5.5-5.4v0c0-3,2.3-5.4,5.5-5.4c1.9,0,3,0.5,4.1,1.4l-1.5,1.8
		c-0.8-0.7-1.5-1.1-2.7-1.1c-1.7,0-3,1.5-3,3.3v0c0,1.9,1.3,3.3,3.2,3.3c0.8,0,1.6-0.2,2.2-0.6v-1.5h-2.3v-2h4.6v4.6
		C305.9,47.4,304.4,48.2,302.5,48.2z"/>
	<path class="st1" d="M309.8,48V37.5h7.9v2.1h-5.6v2.1h5v2.1h-5v2.2h5.7V48H309.8z"/>
</g>
<g>
	<path class="st1" d="M525.2,12V1.5h7.9v2.1h-5.6v2.1h5v2.1h-5v2.2h5.7V12H525.2z"/>
	<path class="st1" d="M543.2,12l-5.1-6.7V12h-2.3V1.5h2.1l4.9,6.5V1.5h2.3V12H543.2z"/>
	<path class="st1" d="M553.3,12.2c-3.3,0-5.5-2.3-5.5-5.4v0c0-3,2.3-5.4,5.5-5.4c1.9,0,3,0.5,4.1,1.4L556,4.5
		c-0.8-0.7-1.5-1.1-2.7-1.1c-1.7,0-3,1.5-3,3.3v0c0,1.9,1.3,3.3,3.2,3.3c0.8,0,1.6-0.2,2.2-0.6V7.9h-2.3v-2h4.6v4.6
		C556.7,11.4,555.3,12.2,553.3,12.2z"/>
	<path class="st1" d="M560.6,12V1.5h2.3v8.4h5.2V12H560.6z"/>
	<path class="st1" d="M570.6,12V1.5h2.3V12H570.6z"/>
	<path class="st1" d="M579.9,12.1c-1.6,0-3.2-0.6-4.5-1.7l1.4-1.6c0.9,0.8,1.9,1.3,3.1,1.3c0.9,0,1.5-0.4,1.5-1v0
		c0-0.6-0.4-0.9-2.1-1.3c-2.1-0.5-3.5-1.1-3.5-3.2v0c0-1.9,1.5-3.2,3.7-3.2c1.5,0,2.8,0.5,3.9,1.3l-1.2,1.7c-0.9-0.6-1.8-1-2.7-1
		s-1.3,0.4-1.3,0.9v0c0,0.7,0.5,0.9,2.3,1.4c2.1,0.6,3.3,1.3,3.3,3.2v0C583.8,11,582.2,12.1,579.9,12.1z"/>
	<path class="st1" d="M592.9,12V7.8h-4.3V12h-2.3V1.5h2.3v4.2h4.3V1.5h2.3V12H592.9z"/>
	<path class="st1" d="M608.4,12.2c-3.1,0-5.4-2.4-5.4-5.4v0c0-3,2.2-5.4,5.5-5.4c2,0,3.2,0.7,4.1,1.6l-1.5,1.7
		c-0.8-0.7-1.6-1.2-2.7-1.2c-1.8,0-3,1.5-3,3.3v0c0,1.8,1.2,3.3,3,3.3c1.2,0,1.9-0.5,2.8-1.2l1.5,1.5
		C611.6,11.4,610.4,12.2,608.4,12.2z"/>
	<path class="st1" d="M615.1,12V1.5h2.3v8.4h5.2V12H615.1z"/>
	<path class="st1" d="M625.1,12V1.5h2.3V12H625.1z"/>
	<path class="st1" d="M635.6,12.2c-3.1,0-5.4-2.4-5.4-5.4v0c0-3,2.2-5.4,5.5-5.4c2,0,3.2,0.7,4.1,1.6l-1.5,1.7
		c-0.8-0.7-1.6-1.2-2.7-1.2c-1.8,0-3,1.5-3,3.3v0c0,1.8,1.2,3.3,3,3.3c1.2,0,1.9-0.5,2.8-1.2l1.5,1.5
		C638.8,11.4,637.6,12.2,635.6,12.2z"/>
	<path class="st1" d="M649.1,12l-3.3-4.5l-1.2,1.3V12h-2.3V1.5h2.3v4.6l4.3-4.6h2.8l-4.3,4.5l4.5,6H649.1z"/>
	<path class="st1" d="M663.7,3.6V12h-2.3V3.6h-3.2V1.5h8.7v2.1H663.7z"/>
	<path class="st1" d="M675.9,12V7.8h-4.3V12h-2.3V1.5h2.3v4.2h4.3V1.5h2.3V12H675.9z"/>
	<path class="st1" d="M687.7,12l-2.2-3.4h-1.8V12h-2.3V1.5h4.8c2.5,0,4,1.3,4,3.5v0c0,1.7-0.9,2.8-2.2,3.3l2.6,3.8H687.7z
		 M687.7,5.1c0-1-0.7-1.5-1.8-1.5h-2.3v3h2.3C687.1,6.6,687.7,6,687.7,5.1L687.7,5.1z"/>
	<path class="st1" d="M697.9,12.2c-3.2,0-5.6-2.4-5.6-5.4v0c0-3,2.4-5.4,5.6-5.4c3.2,0,5.6,2.4,5.6,5.4v0
		C703.4,9.7,701.1,12.2,697.9,12.2z M701,6.7c0-1.8-1.3-3.3-3.2-3.3c-1.9,0-3.1,1.5-3.1,3.3v0c0,1.8,1.3,3.3,3.2,3.3
		C699.7,10,701,8.6,701,6.7L701,6.7z"/>
	<path class="st1" d="M710.5,12.1c-2.8,0-4.5-1.6-4.5-4.7v-6h2.3v5.9c0,1.7,0.9,2.6,2.3,2.6c1.4,0,2.3-0.9,2.3-2.5v-6h2.3v5.9
		C715.1,10.6,713.3,12.1,710.5,12.1z"/>
	<path class="st1" d="M723.1,12.2c-3.3,0-5.5-2.3-5.5-5.4v0c0-3,2.3-5.4,5.5-5.4c1.9,0,3,0.5,4.1,1.4l-1.5,1.8
		c-0.8-0.7-1.5-1.1-2.7-1.1c-1.7,0-3,1.5-3,3.3v0c0,1.9,1.3,3.3,3.2,3.3c0.8,0,1.6-0.2,2.2-0.6V7.9H723v-2h4.6v4.6
		C726.5,11.4,725,12.2,723.1,12.2z"/>
	<path class="st1" d="M737,12V7.8h-4.3V12h-2.3V1.5h2.3v4.2h4.3V1.5h2.3V12H737z"/>
	<path class="st1" d="M753.9,12l-2.2-3.4h-1.8V12h-2.3V1.5h4.8c2.5,0,4,1.3,4,3.5v0c0,1.7-0.9,2.8-2.2,3.3l2.6,3.8H753.9z
		 M753.9,5.1c0-1-0.7-1.5-1.8-1.5h-2.3v3h2.3C753.3,6.6,753.9,6,753.9,5.1L753.9,5.1z"/>
	<path class="st1" d="M766.8,12l-1-2.4h-4.4l-1,2.4H758l4.5-10.6h2.1l4.5,10.6H766.8z M763.6,4.2l-1.4,3.4h2.8L763.6,4.2z"/>
	<path class="st1" d="M774.8,3.6V12h-2.3V3.6h-3.2V1.5h8.7v2.1H774.8z"/>
	<path class="st1" d="M780.4,12V1.5h7.9v2.1h-5.6v2.1h5v2.1h-5v2.2h5.7V12H780.4z"/>
	<path class="st1" d="M520.6,30.1c-2.8,0-4.5-1.6-4.5-4.7v-6h2.3v5.9c0,1.7,0.9,2.6,2.3,2.6s2.3-0.9,2.3-2.5v-6h2.3v5.9
		C525.2,28.6,523.4,30.1,520.6,30.1z"/>
	<path class="st1" d="M531.9,30.1c-1.6,0-3.2-0.6-4.5-1.7l1.4-1.6c0.9,0.8,1.9,1.3,3.1,1.3c0.9,0,1.5-0.4,1.5-1v0
		c0-0.6-0.4-0.9-2.1-1.3c-2.1-0.5-3.5-1.1-3.5-3.2v0c0-1.9,1.5-3.2,3.7-3.2c1.5,0,2.8,0.5,3.9,1.3l-1.2,1.7c-0.9-0.6-1.8-1-2.7-1
		s-1.3,0.4-1.3,0.9v0c0,0.7,0.5,0.9,2.3,1.4c2.1,0.6,3.3,1.3,3.3,3.2v0C535.8,29,534.2,30.1,531.9,30.1z"/>
	<path class="st1" d="M538.5,30V19.5h2.3V30H538.5z"/>
	<path class="st1" d="M551.4,30l-5.1-6.7V30H544V19.5h2.1l4.9,6.5v-6.5h2.3V30H551.4z"/>
	<path class="st1" d="M561.5,30.2c-3.3,0-5.5-2.3-5.5-5.4v0c0-3,2.3-5.4,5.5-5.4c1.9,0,3,0.5,4.1,1.4l-1.5,1.8
		c-0.8-0.7-1.5-1.1-2.7-1.1c-1.7,0-3,1.5-3,3.3v0c0,1.9,1.3,3.3,3.2,3.3c0.8,0,1.6-0.2,2.2-0.6v-1.5h-2.3v-2h4.6v4.6
		C564.9,29.4,563.5,30.2,561.5,30.2z"/>
	<path class="st1" d="M578.9,30h-5V19.5h4.9c2.1,0,3.5,1.1,3.5,2.7v0c0,1.2-0.6,1.8-1.4,2.3c1.2,0.5,2,1.2,2,2.6v0
		C582.9,29,581.3,30,578.9,30z M580,22.6c0-0.7-0.5-1.1-1.5-1.1h-2.3v2.2h2.1C579.3,23.7,580,23.4,580,22.6L580,22.6z M580.6,26.8
		c0-0.7-0.5-1.1-1.7-1.1h-2.7v2.3h2.7C580,27.9,580.6,27.6,580.6,26.8L580.6,26.8z"/>
	<path class="st1" d="M591.7,30l-2.2-3.4h-1.8V30h-2.3V19.5h4.8c2.5,0,4,1.3,4,3.5v0c0,1.7-0.9,2.8-2.2,3.3l2.6,3.8H591.7z
		 M591.8,23.1c0-1-0.7-1.5-1.8-1.5h-2.3v3h2.3C591.1,24.6,591.8,24,591.8,23.1L591.8,23.1z"/>
	<path class="st1" d="M601.9,30.2c-3.2,0-5.6-2.4-5.6-5.4v0c0-3,2.4-5.4,5.6-5.4c3.2,0,5.6,2.4,5.6,5.4v0
		C607.5,27.7,605.2,30.2,601.9,30.2z M605.1,24.7c0-1.8-1.3-3.3-3.2-3.3c-1.9,0-3.2,1.5-3.2,3.3v0c0,1.8,1.3,3.3,3.2,3.3
		C603.8,28,605.1,26.6,605.1,24.7L605.1,24.7z"/>
	<path class="st1" d="M617.3,30l-1-2.4h-4.4l-1,2.4h-2.4l4.5-10.6h2.1l4.5,10.6H617.3z M614.1,22.2l-1.4,3.4h2.8L614.1,22.2z"/>
	<path class="st1" d="M626,30h-4.1V19.5h4.1c3.3,0,5.6,2.3,5.6,5.2v0C631.6,27.7,629.3,30,626,30z M629.2,24.7
		c0-1.9-1.3-3.2-3.2-3.2h-1.8v6.3h1.8C627.9,27.9,629.2,26.6,629.2,24.7L629.2,24.7z"/>
	<path class="st1" d="M639.5,30V19.5h2.3V30H639.5z"/>
	<path class="st1" d="M648.7,30.1c-1.6,0-3.2-0.6-4.5-1.7l1.4-1.6c0.9,0.8,1.9,1.3,3.1,1.3c0.9,0,1.5-0.4,1.5-1v0
		c0-0.6-0.4-0.9-2.1-1.3c-2.1-0.5-3.5-1.1-3.5-3.2v0c0-1.9,1.5-3.2,3.7-3.2c1.5,0,2.8,0.5,3.9,1.3l-1.2,1.7c-0.9-0.6-1.8-1-2.7-1
		s-1.3,0.4-1.3,0.9v0c0,0.7,0.5,0.9,2.3,1.4c2.1,0.6,3.3,1.3,3.3,3.2v0C652.6,29,651,30.1,648.7,30.1z"/>
	<path class="st1" d="M655.3,30V19.5h2.3V30H655.3z"/>
	<path class="st1" d="M664.6,30.1c-1.6,0-3.2-0.6-4.5-1.7l1.4-1.6c0.9,0.8,1.9,1.3,3.1,1.3c0.9,0,1.5-0.4,1.5-1v0
		c0-0.6-0.4-0.9-2.1-1.3c-2.1-0.5-3.5-1.1-3.5-3.2v0c0-1.9,1.5-3.2,3.7-3.2c1.5,0,2.8,0.5,3.9,1.3l-1.2,1.7c-0.9-0.6-1.8-1-2.7-1
		s-1.3,0.4-1.3,0.9v0c0,0.7,0.5,0.9,2.3,1.4c2.1,0.6,3.3,1.3,3.3,3.2v0C668.4,29,666.8,30.1,664.6,30.1z"/>
	<path class="st1" d="M682.9,30l-3.3-4.5l-1.2,1.3V30h-2.3V19.5h2.3v4.6l4.3-4.6h2.8l-4.3,4.5l4.5,6H682.9z"/>
	<path class="st1" d="M687.7,30V19.5h7.9v2.1H690v2.1h5v2.1h-5v2.2h5.7V30H687.7z"/>
	<path class="st1" d="M703.6,25.8V30h-2.3v-4.1l-4-6.4h2.7l2.5,4.2l2.5-4.2h2.6L703.6,25.8z"/>
	<path class="st1" d="M720.9,30h-2l-2.4-6.9l-2.4,6.9h-2l-3.6-10.6h2.5l2.2,7.1l2.4-7.1h2l2.4,7.1l2.2-7.1h2.4L720.9,30z"/>
	<path class="st1" d="M731.3,30.2c-3.2,0-5.6-2.4-5.6-5.4v0c0-3,2.4-5.4,5.6-5.4c3.2,0,5.6,2.4,5.6,5.4v0
		C736.9,27.7,734.6,30.2,731.3,30.2z M734.5,24.7c0-1.8-1.3-3.3-3.2-3.3c-1.9,0-3.2,1.5-3.2,3.3v0c0,1.8,1.3,3.3,3.2,3.3
		C733.2,28,734.5,26.6,734.5,24.7L734.5,24.7z"/>
	<path class="st1" d="M745.9,30l-2.2-3.4h-1.8V30h-2.3V19.5h4.8c2.5,0,4,1.3,4,3.5v0c0,1.7-0.9,2.8-2.2,3.3l2.6,3.8H745.9z
		 M746,23.1c0-1-0.7-1.5-1.8-1.5h-2.3v3h2.3C745.3,24.6,746,24,746,23.1L746,23.1z"/>
	<path class="st1" d="M755.1,30H751V19.5h4.1c3.3,0,5.6,2.3,5.6,5.2v0C760.7,27.7,758.4,30,755.1,30z M758.3,24.7
		c0-1.9-1.3-3.2-3.2-3.2h-1.8v6.3h1.8C757,27.9,758.3,26.6,758.3,24.7L758.3,24.7z"/>
	<path class="st1" d="M766.9,30.1c-1.6,0-3.2-0.6-4.5-1.7l1.4-1.6c0.9,0.8,1.9,1.3,3.1,1.3c0.9,0,1.5-0.4,1.5-1v0
		c0-0.6-0.4-0.9-2.1-1.3c-2.1-0.5-3.5-1.1-3.5-3.2v0c0-1.9,1.5-3.2,3.7-3.2c1.5,0,2.8,0.5,3.9,1.3l-1.2,1.7c-0.9-0.6-1.8-1-2.7-1
		c-0.9,0-1.4,0.4-1.4,0.9v0c0,0.7,0.5,0.9,2.3,1.4c2.1,0.6,3.3,1.3,3.3,3.2v0C770.8,29,769.2,30.1,766.9,30.1z"/>
	<path class="st1" d="M783.9,30h-2l-4.2-10.6h2.5l2.7,7.4l2.7-7.4h2.5L783.9,30z"/>
	<path class="st1" d="M793.7,30.1c-1.6,0-3.2-0.6-4.5-1.7l1.4-1.6c0.9,0.8,1.9,1.3,3.1,1.3c0.9,0,1.5-0.4,1.5-1v0
		c0-0.6-0.4-0.9-2.1-1.3c-2.1-0.5-3.5-1.1-3.5-3.2v0c0-1.9,1.5-3.2,3.7-3.2c1.5,0,2.8,0.5,3.9,1.3l-1.2,1.7c-0.9-0.6-1.8-1-2.7-1
		c-0.9,0-1.4,0.4-1.4,0.9v0c0,0.7,0.5,0.9,2.3,1.4c2.1,0.6,3.3,1.3,3.3,3.2v0C797.6,29,796,30.1,793.7,30.1z"/>
	<path class="st1" d="M799.8,30v-2.4h2.4V30H799.8z"/>
	<path class="st1" d="M536.3,48.2c-3.2,0-5.6-2.4-5.6-5.4v0c0-3,2.4-5.4,5.6-5.4c3.2,0,5.6,2.4,5.6,5.4v0
		C541.9,45.7,539.5,48.2,536.3,48.2z M539.5,42.7c0-1.8-1.3-3.3-3.2-3.3c-1.9,0-3.1,1.5-3.1,3.3v0c0,1.8,1.3,3.3,3.2,3.3
		C538.2,46,539.5,44.6,539.5,42.7L539.5,42.7z"/>
	<path class="st1" d="M549.2,48h-2L543,37.5h2.5l2.7,7.4l2.7-7.4h2.5L549.2,48z"/>
	<path class="st1" d="M555.7,48V37.5h7.9v2.1H558v2.1h5v2.1h-5v2.2h5.7V48H555.7z"/>
	<path class="st1" d="M572.7,48l-2.2-3.4h-1.8V48h-2.3V37.5h4.8c2.5,0,4,1.3,4,3.5v0c0,1.7-0.9,2.8-2.2,3.3l2.6,3.8H572.7z
		 M572.8,41.1c0-1-0.7-1.5-1.8-1.5h-2.3v3h2.3C572.1,42.6,572.8,42,572.8,41.1L572.8,41.1z"/>
	<path class="st1" d="M585.6,48l-1-2.4h-4.4l-1,2.4h-2.4l4.5-10.6h2.1L588,48H585.6z M582.4,40.2l-1.4,3.4h2.8L582.4,40.2z"/>
	<path class="st1" d="M590.3,48V37.5h2.3v8.4h5.2V48H590.3z"/>
	<path class="st1" d="M600.1,48V37.5h2.3v8.4h5.2V48H600.1z"/>
	<path class="st1" d="M620,48.2c-3.1,0-5.4-2.4-5.4-5.4v0c0-3,2.2-5.4,5.5-5.4c2,0,3.2,0.7,4.1,1.6l-1.5,1.7
		c-0.8-0.7-1.6-1.2-2.7-1.2c-1.8,0-3,1.5-3,3.3v0c0,1.8,1.2,3.3,3,3.3c1.2,0,1.9-0.5,2.8-1.2l1.5,1.5
		C623.3,47.4,622.1,48.2,620,48.2z"/>
	<path class="st1" d="M634.6,48l-1-2.4h-4.4l-1,2.4h-2.4l4.5-10.6h2.1L637,48H634.6z M631.4,40.2l-1.4,3.4h2.8L631.4,40.2z"/>
	<path class="st1" d="M647.5,48v-6.9l-3,4.5h-0.1l-2.9-4.4V48h-2.3V37.5h2.5l2.8,4.4l2.8-4.4h2.5V48H647.5z"/>
	<path class="st1" d="M656.9,44.8h-1.8V48h-2.3V37.5h4.3c2.5,0,4,1.5,4,3.6v0C661.2,43.6,659.3,44.8,656.9,44.8z M658.8,41.1
		c0-1-0.7-1.6-1.9-1.6h-1.8v3.2h1.8C658.2,42.8,658.8,42.1,658.8,41.1L658.8,41.1z"/>
	<path class="st1" d="M670.2,48l-1-2.4h-4.4l-1,2.4h-2.4l4.5-10.6h2.1l4.5,10.6H670.2z M667.1,40.2l-1.4,3.4h2.8L667.1,40.2z"/>
	<path class="st1" d="M675,48V37.5h2.3V48H675z"/>
	<path class="st1" d="M685.6,48.2c-3.3,0-5.5-2.3-5.5-5.4v0c0-3,2.3-5.4,5.5-5.4c1.9,0,3,0.5,4.1,1.4l-1.5,1.8
		c-0.8-0.7-1.5-1.1-2.7-1.1c-1.7,0-3,1.5-3,3.3v0c0,1.9,1.3,3.3,3.2,3.3c0.8,0,1.6-0.2,2.2-0.6v-1.5h-2.3v-2h4.6v4.6
		C689,47.4,687.5,48.2,685.6,48.2z"/>
	<path class="st1" d="M700.2,48l-5.1-6.7V48h-2.3V37.5h2.1l4.9,6.5v-6.5h2.3V48H700.2z"/>
	<path class="st1" d="M718.2,48l-1-2.4h-4.4l-1,2.4h-2.4l4.5-10.6h2.1l4.5,10.6H718.2z M715.1,40.2l-1.4,3.4h2.8L715.1,40.2z"/>
	<path class="st1" d="M726.8,48h-2l-4.2-10.6h2.5l2.7,7.4l2.7-7.4h2.5L726.8,48z"/>
	<path class="st1" d="M733.2,48V37.5h7.9v2.1h-5.6v2.1h5v2.1h-5v2.2h5.7V48H733.2z"/>
	<path class="st1" d="M750.3,48l-2.2-3.4h-1.8V48h-2.3V37.5h4.8c2.5,0,4,1.3,4,3.5v0c0,1.7-0.9,2.8-2.2,3.3L753,48H750.3z
		 M750.3,41.1c0-1-0.7-1.5-1.8-1.5h-2.3v3h2.3C749.7,42.6,750.3,42,750.3,41.1L750.3,41.1z"/>
	<path class="st1" d="M763.1,48l-1-2.4h-4.4l-1,2.4h-2.4l4.5-10.6h2.1l4.5,10.6H763.1z M760,40.2l-1.4,3.4h2.8L760,40.2z"/>
	<path class="st1" d="M772.2,48.2c-3.3,0-5.5-2.3-5.5-5.4v0c0-3,2.3-5.4,5.5-5.4c1.9,0,3,0.5,4.1,1.4l-1.5,1.8
		c-0.8-0.7-1.5-1.1-2.7-1.1c-1.7,0-3,1.5-3,3.3v0c0,1.9,1.3,3.3,3.2,3.3c0.8,0,1.6-0.2,2.2-0.6v-1.5h-2.3v-2h4.6v4.6
		C775.6,47.4,774.1,48.2,772.2,48.2z"/>
	<path class="st1" d="M779.5,48V37.5h7.9v2.1h-5.6v2.1h5v2.1h-5v2.2h5.7V48H779.5z"/>
</g>
<g>
	<g>
		<path class="st1" d="M207.4,112.5c0.1,0.3,0.3,0.5,0.4,0.9c-3.5,0.1-7.1,0-10.6,0.1c-3.8,0.1-7.6,0-11.4,0c-3.6,0-7.2,0-10.8,0
			c-3.8-0.1-7.5-0.3-11.3-0.3c-3.7,0-7.4,0.2-11.2,0.4c0.2-0.4,0.3-0.6,0.4-0.8c-0.1-0.1-0.1-0.1-0.2-0.2c-0.2,0.2-0.5,0.4-0.8,0.7
			c-3.3,0-6.7,0-10.2,0c-1.3,0-2.5,0.1-3.8,0.1c-1.6,0-3.2-0.2-4.8,0c-0.3,0-0.7-0.2-1.1-0.3c-0.1,0-0.2-0.1-0.3-0.1
			c-1.4,0.9-3,0.2-4.5,0.4c-0.9,0.1-1.7,0.1-2.1-1c0.1,0.3,0.2,0.6,0.3,1c-4.8,0-9.5,0-14.2,0c-4.7,0-9.5-0.1-14.2-0.2
			c-4.8,0-9.6,0-14.4,0c-0.1-0.1-0.2-0.4-0.3-0.7c-0.1,0-0.2,0.1-0.3,0.1c0.1,0.3,0.1,0.5,0.2,0.8c-1.4,0-2.8,0-4.2,0
			c0.1-0.4,0.1-0.8,0.2-1.1c-0.2,0.1-0.5,0.2-0.6,0.4c-0.1,0.2,0,0.5,0,0.8c-1.5,0-2.9,0-4.4,0c-4,0-8.1,0-12.1,0c-1,0-2,0.4-3-0.3
			c-0.2-0.1-0.8,0.3-1.1,0.3c-1.8,0-3.7,0-5.5,0c-0.5,0-1.1-0.3-1.6-0.4c-0.2,0-0.5-0.1-0.5-0.1c-0.4,0.8-1.1,0.5-1.7,0.5
			c-11.5,0-22.9,0-34.4,0c-2.1,0-4.2,0-6.3,0c-1.7,0-1.9-0.2-1.9-2c0-0.3-0.1-0.7-0.1-1c0.4-3.3-0.1-6.6,0-9.9
			c0-0.4,0.3-0.9,0.4-1.3c0.1-0.3,0.1-0.6,0-0.9c-0.1-0.4-0.3-0.7-0.6-1.3c0.5,0.2,0.8,0.3,1,0.4c0-0.2,0.1-0.4,0-0.5
			c-0.2-0.2-0.5-0.4-0.8-0.7c-0.1-1.6-0.2-3.3-0.3-5.1c0-0.3,0.3-0.6,0.5-0.8C4.2,89.5,5,88.2,4.8,87C4.8,86.2,5,85.5,5,84.7
			c0-4.1,0-8.2,0-12.3c0-1.2,0.4-1.5,1.6-1.6c6.5,0,12.9,0,19.4,0c1.3,0,2.7,0,4,0c1.8,0,3.5,0,5.3,0c0.4,0,0.9,0.2,1.3,0.3
			c0.1,0,0.3,0.1,0.4,0.1c2.1-0.9,4.3-0.2,6.4-0.4c0.8-0.1,1.7,0,2.5,0c0,0.3,0.1,0.6,0.1,0.8c0,0,0.4,0,0.4,0c0-0.2,0-0.4,0-0.8
			c1.9,0.3,3.8-0.3,5.6,0.4c0.4-0.3,0.8-0.9,1.1,0c0.3-0.1,0.7-0.4,1-0.4c1.4,0,2.9,0,4.3,0c0.8,0,1.6,0.2,2.3,0.2
			c0.7,0,1.4-0.2,2-0.2c0.8,0,1.6,0,2.3,0c0.8,0,1.6,0,2.4,0c0.4,0,0.8,0.3,1.2,0.4c0.2-0.1,0.4-0.4,0.7-0.4c3.9,0,7.8,0,11.7,0.1
			c0.9,0,1.9,0.5,2.7,0.2c1.5-0.4,2.9-0.3,4.3-0.3c4.1,0,8.1,0,12.2,0c5.6,0,11.3,0,16.9,0c3.6,0,7.2-0.1,10.8,0c1.9,0,3.9,0,5.8,0
			c3.3,0,6.6-0.2,9.8-0.2c3.2,0,6.4,0,9.6,0c2.7,0,5.5,0,8.2,0c1.9,0,3.8,0.2,5.6,0.2c2.8,0,5.7-0.1,8.5-0.2c1.5,0,3.1-0.1,4.6,0
			c1.4,0.1,2.7,0.3,4.1,0.4c0.5,0,1-0.1,1.5-0.1c2.2,0,4.4,0,6.7,0c3.8,0.1,7.7,0,11.5,0c3.9,0,7.8,0,11.7,0c1.9,0,3.7,0,5.6,0
			c0.3,0,0.7,0,1.3,0.1c-0.5,0.3-0.7,0.5-1,0.7c0.3,0.2,0.6,0.3,1,0.5c0-1.2,0.6-1.3,1.6-1.2c2.6,0.1,5.2,0,7.8,0
			c0.5,0,0.9,0.3,1.4,0.4c0.1,0,0.3,0.1,0.4,0c0.5-0.1,1-0.4,1.5-0.4c2.8,0,5.7,0,8.5,0c2.1,0,177.1,0.2,179.2,0.2
			c1.7,0,3.5-0.1,5.2-0.2c0.6,0,1.1,0.1,1.2,0.9c0,0.3,0.4,0.5,0.6,0.7c0.1-0.1,0.1-0.1,0.2-0.2c-0.1-0.2-0.1-0.4-0.2-0.5
			c-0.1-0.2-0.2-0.3-0.3-0.4c0.2-0.1,0.6-0.4,0.7-0.4c0.4,0.4,0.8,0,1.2,0c3.3,0,6.6,0,9.9,0c0.3,0,0.6,0.4,1,0.7
			c0.1-0.1,0.2-0.4,0.3-0.7c3.4,0,6.8,0,10.3,0c-0.1,0.2-0.3,0.4-0.2,0.5c0,0.2,0.2,0.5,0.3,0.7c0.2-0.2,0.5-0.4,0.5-0.6
			c-0.1-0.7,0.4-0.6,0.8-0.7c1.5,0,3,0,4.6,0c0,0.2,0,0.4,0,0.7c0.2-0.1,0.3-0.1,0.3-0.1c0.3-0.2,0.7-0.5,1-0.5c2.8,0,5.5,0,8.3,0
			c0.4,0,0.7,0.3,1.3,0.6c0,0,0.2-0.2,0.4-0.6c1.8,0,3.8,0,5.8,0c0.8,0,1.3,0.4,1.4,1.2c0.1,0.8,0.1,1.5,0,2.3
			c0,0.2-0.1,0.4-0.4,0.3c0.1,0.4,0.3,0.9,0.3,1.3c0,2.1,0,4.2,0.1,6.3c0,2.5,0,5.1,0,7.6c0,1-1.1,0.6-1.5,1.2
			c0.2,0,0.5,0.1,0.7,0.1c0.2,0,0.5,0,0.7-0.1c-0.1,0.3-0.2,0.6-0.3,0.8c-0.2,0.2-0.4,0.4-0.8,0.7c0.5,0,0.8,0,1.2,0
			c0,1,0.1,2.1,0,3.2c0,0.3-0.5,0.6-0.9,1c0.3,0,0.6,0.1,0.9,0.1c0,0.8,0,1.7,0,2.6c-0.2-0.2-0.4-0.4-0.7-0.6
			c0.1,0.6,0.3,1.1,0.4,1.6c0,0,0,0-0.1,0c0.1,0.2,0.2,0.4,0.2,0.6c-0.2,0-0.5,0-0.7,0.1c0,0.1,0,0.2,0,0.2c0.3,0,0.5,0,0.8,0.1
			c0,2.9,0,5.9,0,8.9c0,1-0.7,0.9-1.5,1c0.5,0.3,0.9,0.5,1.3,0.7c-0.3,0.9-0.6,1.2-1.5,1.2c-5.3,0-10.7-0.1-16-0.1
			c-1.1,0-2.3,0.1-3.4,0.1c-0.4,0-0.8-0.2-1.1-0.3c-0.5,0.1-1,0.2-1.5,0.2c-2.9,0.1-5.8,0.1-8.7,0.1c-3.8,0-7.5,0-11.3,0
			c-0.4,0-0.7-0.2-1.1-0.4c-0.1,0-0.3-0.1-0.3,0c-0.7,0.7-1.5,0.2-2.3,0.2c-4.7,0-182.1,0-186.8,0.1c-0.5,0-1,0.1-1.4,0.1
			c-8.3,0-16.6,0-24.9,0c-1.3,0-2.7,0-4,0c-0.2,0-0.4-0.1-0.6-0.3c-0.3-0.2-0.4-0.3-0.8,0.1C211,113.9,208.5,113.3,207.4,112.5z
			 M474,105.9c-0.2-0.7-0.5-1.5-0.5-2.3c-0.1-3.5,0-6.9,0-10.4c0-2.8,0.1-5.7,0-8.5c-0.1-2.8,0.4-5.5,0-8.2c-0.1-0.9,0-2.1-1.4-2.4
			c-0.2,0-0.3-0.3-0.3-0.4c-0.2,0.4-0.2,0.9-0.5,1c-0.3,0.1-0.8,0-1.1-0.1c-0.1,0-0.1-0.1-0.2-0.1c-1.2,0.2-2.4,0.4-3.6,0.5
			c0-0.1,0-0.2,0.1-0.4c-0.2-0.2-0.4-0.4-0.6-0.4c-0.2,0-0.4,0.3-0.7,0.5c-1.7,0-3.7,0-5.7,0c0.3-0.4,0.5-0.6,0.8-0.9
			c-0.3-0.1-0.4-0.1-0.6,0c-0.5,0.3-1.1,0.9-1.6,0.9c-2.9,0.1-5.7,0-8.6,0c-0.3,0-0.7,0.1-0.8,0c-0.5-0.7-1.1-0.2-1.6-0.1
			c-0.3,0.1-0.7,0.1-1,0.1c-2.4,0-4.7,0-7.1,0c-2.2,0-4.4-0.2-6.6,0c-1.5,0.1-3,0-4.6,0c-0.4,0-0.8-0.3-1.2-0.3
			c-0.8,0-1.5,0.2-2.3,0.2c-0.3,0-0.7-0.4-1-0.3c-0.7,0.1-1.4,0.3-2.1,0.4c-4.5,0.1-181.9,0-186.4,0c-5.4,0-10.9,0-16.3,0
			c-2.3,0-4.7-0.2-7,0c-1.6,0.1-3.3,0-4.9,0c0,0,0-0.1,0-0.1c0.4-0.1,0.8-0.2,1-0.2c-0.2-0.4-0.3-0.7-0.5-1c-0.3,0-0.6-0.1-0.8-0.1
			c-0.1,0.5-0.2,1-0.2,1.4c-4.6,0-9.2,0-13.8,0c-0.1-0.1-0.2-0.3-0.3-0.4c0.3-0.1,0.5-0.2,1-0.4c-0.6,0-0.9,0-1.3,0
			c-0.1,0.3-0.2,0.5-0.3,0.8c-0.9,0-1.7,0.1-2.5,0c-1.1-0.1-2.4,0.5-2.9-0.6c-0.5,0.2-1,0.6-1.4,0.6c-1.3-0.1-2.6,0.2-3.9-0.3
			c-1-0.3-2.2,0.2-3.4,0.3c-3.6,0.2-7.1-0.3-10.7,0c-2.6,0.2-5.3,0-7.9,0c-1.8,0-3.6,0-5.4,0c-1.8,0-3.7-0.1-5.5,0
			c-1.7,0.1-3.4-0.5-5.1-0.1c-1,0.2-2,0-3,0c-1.3,0-2.7,0-4,0c-0.3,0-0.6-0.3-0.8-0.3c-0.4,0.1-0.7,0.3-1.1,0.4c-2.4,0-4.8,0-7.2,0
			c-7.4,0-14.8,0-22.3,0c-0.4,0-0.9-0.4-1.3-0.4c-1,0.1-1.9,0.4-2.8,0.5c-0.2-0.6-0.3-0.9-0.4-1.3c-0.1,0-0.1,0-0.2,0
			c0,0.4-0.1,0.7-0.1,1c-1,0-2,0-2.9,0c0.2-0.2,0.4-0.4,0.7-0.8c-0.8,0.1-1.2,0.2-1.7,0.3c0.1,0.2,0.2,0.3,0.4,0.5
			c-2,0.1-2.3,0-2.5-0.3c-0.3,0.1-0.6,0.3-0.9,0.3c-0.2,0-0.5-0.2-0.7-0.2c-2.3,0.1-4.6,0.2-6.9,0.2c-2.3,0-4.6-0.1-6.9-0.1
			c-3.9,0-7.8,0.1-11.7,0.1c-0.2,0-0.5,0-0.7-0.1c-0.8-0.8-0.8-0.8-1.6-0.1c0.2,0.1,0.3,0.1,0.8,0.3c-0.6,0-0.8,0-1.1,0
			c-0.9,0.2-1.8-0.1-2.7-0.1c-1.4,0-2.9,0.7-4.1-0.5c-0.1-0.1-0.5,0-0.6,0.1c-0.1,0.8-0.7,0.5-1.2,0.5c-1.1,0-2.3,0-3.4,0
			c-1.1,0-2.3,0-3.4,0c-1.1,0-2.3-0.1-3.4,0c-1,0.2-2-0.6-3.1-0.1c-0.1,0-0.3-0.3-0.5-0.4c-0.2-0.1-0.3-0.1-0.5-0.1
			c0,0.2,0,0.3,0,0.4c-3.4,0-6.8,0-10.3,0c1.1-0.8,1.1-1.1,0.2-1.7c-0.2,0.3-0.6,0.6-0.5,0.8c0.4,1.2-0.4,1.1-1.1,1
			c-2.4-0.1-4.8-0.2-7.2-0.3c-1.3,0-2.6,0.2-3.9,0.3c-0.8,0.1-1.5,0-1.6-1.1c-0.1,0.1-0.2,0.1-0.3,0.2c0,0.3,0.1,0.6,0.1,0.9
			c-2.2,0-4.5,0-6.7,0c-0.4,0.8-0.7,1.5-1.1,2.2c-0.2,0.4,0.2,1.2,0.7,1.3c-0.1,1.7-0.2,3.4-0.2,5.1c0,4,0.1,8,0.2,12
			c0,4.1,0,8.2,0,12.3c0,1.3,0.4,1.6,1.7,1.7c1.5,0.1,3-0.5,4.4,0.4c0.1,0.1,0.3-0.1,0.5-0.1c0.3-0.1,0.5-0.3,0.8-0.3c5,0,10,0,15,0
			c0.4,0,0.7,0.2,1.1,0.4c0.9-0.2,1.8-0.4,2.7-0.4c6.8,0,13.6,0,20.5,0c0.5,0,1.1,0.3,1.6,0.5c0,0.1,0,0.2,0,0.3
			c0.2-0.1,0.4-0.3,0.6-0.5c-0.3-0.1-0.4-0.1-0.7-0.3c1.9-0.3,3.6,0.1,5.4-0.1c1.8-0.1,3.6-0.1,5.4,0c1.7,0.1,3.3,0.3,5,0.3
			c1.6,0,3.2-0.3,4.8-0.3c1.7,0,3.4,0,5,0c1.7,0,3.5,0.2,5.2,0.2c1.8,0,3.6-0.1,5.4-0.2c1.8,0,3.5,0,5.3,0c1.8,0,3.5,0,5.3,0
			c1.8,0,3.6,0,5.4,0c1.8,0,3.5,0,5.3,0c0.1,0.4,0.1,0.7,0.1,1c0.5-0.4,0.6-1.6,1.5-0.7c0,0,0.2-0.1,0.3-0.1
			c0.6-0.1,1.3-0.2,2.1-0.3c-0.3,0.3-0.4,0.5-0.8,0.9c1.2-0.4,2.1-0.6,3.2-1c-0.2,0.4-0.2,0.6-0.4,1c0.8-0.7,0.9,1.2,1.6,0.3
			c-0.3-0.3-0.6-0.6-1-1.1c3.2,0,6.2,0,9.1,0c0.3,0,0.5,0.2,0.8,0.2c1.3-0.1,2.6-0.2,3.9-0.2c0.3,0,0.5,0.4,0.8,0.4
			c0.6-0.1,1.3-0.4,1.9-0.4c2.8,0,5.5,0,8.3,0c0.1,0.5,0.1,1,0.2,1.4c0.3-0.1,0.6-0.2,1.1-0.3c-0.2-0.4-0.4-0.8-0.7-1.2
			c1.1,0.1,2.2,0.2,3.3,0.3c0.5,0.1,1.2,0.3,1.4,0.1c0.7-0.7,1.2-0.2,1.4,0c0.4-0.2,0.8-0.4,0.8-0.4c0.6,0.6,1.2,0.3,1.7,0
			c0.1,0,0.1,0,0.2,0c1,0,2,0,2.8,0c0.3,0.4,0.6,0.6,0.8,0.8c0.1-0.3,0.1-0.5,0.2-0.8c7.7,0,15.4,0,23.1,0c0.1,0.2,0.2,0.5,0.3,0.7
			c0.1-1.1,0.9-0.8,1.5-0.8c1.4,0.1,2.9,0.2,4.3,0.3c1.2,0,2.3-0.2,3.5-0.2c0.4,0,0.8,0.3,1.3,0.4c0.6-0.7,6.7-0.7,7.1,0
			c0.6-0.1,1.1-0.4,1.7-0.4c1.5,0,3.1-0.1,4.6,0c1.4,0.2,2.9-0.1,4.3,0c1.1,0,2.1,0,3.2,0c0,0.2,0.1,0.4,0.1,0.4
			c0.6-0.1,1.1-0.3,1.7-0.3c4.4,0,8.9-0.1,13.3-0.1c0.3,0,0.6,0.4,1.1,0.7c0.8-1.1,2.2-0.7,3.5-0.7c4.7,0,182.2,0,187-0.1
			c0.6,0,1.2,0.9,1.8,0c2.1,0.2,4.3-0.7,6.3,0.8c0.1-0.3,0.2-0.7,0.3-0.7c0.6-0.1,1.2-0.1,1.9-0.1c4.3,0,8.7,0,13,0
			c5.6,0,11.3,0,16.9,0c3.6,0,7.2,0,10.8,0c1.2,0,1.7-0.6,1.6-1.8c0-0.6,0-1.2,0-1.8C473.7,105.8,474,105.9,474,105.9z M171.8,72.9
			c0-0.1,0-0.3,0-0.4c-1.2,0-2.4,0-3.7,0c0.3,0.4,0.4,0.7,0.6,0.9C169.7,73.3,170.8,73.1,171.8,72.9z M138.2,72.8
			c-0.1,0.3-0.1,0.6-0.2,0.8c0.6,0,1.1,1,1.8,0.2C139.3,73.5,138.8,73.2,138.2,72.8z M101.3,111.2c0.5-0.2,0.9-0.3,1.2-0.5
			c0.2-0.1,0.2-0.4,0.3-0.6c-0.2,0-0.4,0-0.5,0c-0.3,0-0.6-0.1-0.8-0.1C101.5,110.5,101.4,110.8,101.3,111.2z M469.5,111.3
			c0.1-0.1,0.1-0.2,0.2-0.4c-0.5-0.1-1-0.3-1.4-0.4c-0.1,0-0.3,0.3-0.6,0.6C468.4,111.3,468.9,111.3,469.5,111.3z M60.6,73.1
			c0,0.2-0.1,0.4-0.1,0.5c0.4,0.1,0.8,0.2,1.3,0.3c0.1,0,0.2-0.4,0.2-0.6C61.5,73.2,61.1,73.1,60.6,73.1z"/>
	</g>
	<g>
		<path class="st1" d="M26.4,88.7c0.4-0.3,0.8-0.4,0.9-0.6c0.1-0.2-0.1-0.6-0.4-0.8c-0.1,0.2-0.1,0.4-0.2,0.7c0-0.1-0.1-0.3-0.1-0.3
			c0.5-0.7-0.1-2.1,1.3-2.3c0-0.1-0.1-0.2-0.1-0.4c0-0.2-0.1-0.4,0-0.5c1.5-2.4,3.6-3.8,6.3-4.3c2.3-0.4,4.4-0.1,6.5,0.9
			c2.4,1.1,4.1,3.1,4.7,5.7c0.4,1.7,0.4,3.5,0.1,5.2c-0.3,1.8-1.1,3.4-2.5,4.7c-1.9,1.7-4.1,2.8-6.7,2.6c-0.6,0-1.2-0.1-1.8-0.2
			c0-0.1,0-0.2,0-0.4c-1.4,0.6-2.4-0.1-3.4-0.7c-1.8-1.1-1.9-0.9-3.4,0.5c-0.5,0.5-1,0.9-1.5,1.3c-0.3,0.2-0.8,0.3-1.1,0.4
			c-0.2,0.4-0.3,0.8-0.5,1c-0.7,0.6-1.5,1.2-2.2,1.8c-1,0.8-1.4,0.8-2.3,0c-1.3-1.3-1.2-2.6,0.3-3.5c1.8-1.1,3.5-2.4,5.3-3.7
			c0.2,0.2,0.4,0.4,0.5,0.6c0.1,0,0.1-0.1,0.2-0.1c-0.1-0.2-0.2-0.5-0.3-0.8c1.2-0.6,1.3-1.7,0.9-3c-0.2-0.7-0.5-1.5-0.4-2.2
			C26.7,89.7,26.3,89.2,26.4,88.7z M41.9,84.8c-0.7-0.1-1.3,0-1.7-0.2c-1.3-1-2.7-1.3-4.4-1.3c-4.1,0-7.3,4.1-6.1,8.2
			c0.1,0.4,0,0.8-0.1,1.2c0.3,0.2,0.7,0.4,0.9,0.7c1.2,1.9,3.1,3,5.3,3c2.9,0.1,5-1.4,6.2-3.9c1.2-2.5,0.9-4.9-1-7
			C41.3,85.3,41.5,85.2,41.9,84.8z"/>
	</g>
	<g>
		<path class="st1" d="M451.2,84.1c-0.1-0.3-0.1-0.6-0.2-1.1c-0.3,0.3-0.5,0.5-0.9,0.9c0.6,0.2,1,0.4,1.5,0.5c0,1.7,0.3,3.4-0.1,5
			c-0.2,0.9,0.3,1.5,0.2,2.3c-0.2,0.8,0,1.7,0,2.5c0,2.2,0.1,4.3-0.1,6.5c0,0.5,0.1,0.9,0.1,1.4c0,0.5,0,1.1-0.3,1.5
			c-0.3,0.4-0.9,0.5-1.4,0.7c-0.2-0.5-0.6-0.9-0.6-1.4c0-7.3,0-14.6,0-21.8c0-0.6,0.1-1.3,0.8-1.3c0.7,0,1.5,0.1,1.4,1.3
			c-0.1,1,0,2,0,3C451.4,84.1,451.3,84.1,451.2,84.1z"/>
	</g>
</g>
<g>
	<path class="st1" d="M64.9,98.3l-1.1-2.6h-4.9l-1.1,2.6h-2.6l5-11.7h2.4l5,11.7H64.9z M61.4,89.6l-1.5,3.8h3.1L61.4,89.6z"/>
	<path class="st1" d="M79.1,98.3v-7.6l-3.3,5h-0.1l-3.2-4.9v7.5H70V86.6h2.8l3.1,4.9l3.1-4.9h2.8v11.6H79.1z"/>
	<path class="st1" d="M93.7,98.3l-1.1-2.6h-4.9l-1.1,2.6h-2.6l5-11.7h2.4l5,11.7H93.7z M90.2,89.6l-1.5,3.8h3.1L90.2,89.6z"/>
	<path class="st1" d="M108.5,98.6l-1.3-1.1c-1,0.6-2.2,1-3.5,1c-3.6,0-6.2-2.7-6.2-6v0c0-3.3,2.6-6,6.2-6s6.2,2.7,6.2,6v0
		c0,1.2-0.4,2.4-1,3.3l1.2,1L108.5,98.6z M107.3,92.4c0-2-1.5-3.7-3.5-3.7s-3.5,1.6-3.5,3.6v0c0,2,1.5,3.7,3.5,3.7
		c0.6,0,1.1-0.1,1.5-0.3l-1.9-1.6l1.6-1.8l1.9,1.7C107.2,93.6,107.3,93.1,107.3,92.4L107.3,92.4z"/>
	<path class="st1" d="M127.2,98.3l-1.1-2.6h-4.9l-1.1,2.6h-2.6l5-11.7h2.4l5,11.7H127.2z M123.7,89.6l-1.5,3.8h3.1L123.7,89.6z"/>
	<path class="st1" d="M137.2,98.5c-3.6,0-6.1-2.5-6.1-6v0c0-3.3,2.6-6,6.1-6c2.1,0,3.4,0.6,4.6,1.6l-1.6,1.9c-0.9-0.7-1.7-1.2-3-1.2
		c-1.9,0-3.3,1.6-3.3,3.6v0c0,2.1,1.5,3.7,3.5,3.7c0.9,0,1.8-0.2,2.4-0.7v-1.7h-2.6v-2.2h5v5C140.9,97.6,139.3,98.5,137.2,98.5z"/>
	<path class="st1" d="M145.3,98.3V86.6h8.8v2.3h-6.2v2.4h5.5v2.3h-5.5V96h6.3v2.3H145.3z"/>
	<path class="st1" d="M165.2,98.3l-5.6-7.4v7.4H157V86.6h2.4l5.4,7.2v-7.2h2.5v11.6H165.2z"/>
	<path class="st1" d="M176.3,98.5c-3.4,0-6-2.6-6-6v0c0-3.3,2.5-6,6.1-6c2.2,0,3.5,0.7,4.6,1.8l-1.6,1.9c-0.9-0.8-1.8-1.3-3-1.3
		c-2,0-3.4,1.6-3.4,3.6v0c0,2,1.4,3.7,3.4,3.7c1.3,0,2.1-0.5,3.1-1.4l1.6,1.6C179.8,97.7,178.5,98.5,176.3,98.5z"/>
	<path class="st1" d="M189.4,93.6v4.6h-2.6v-4.6l-4.5-7h3l2.8,4.7l2.8-4.7h2.9L189.4,93.6z"/>
	<path class="st1" d="M201.9,98.3V86.6h2.6v11.6H201.9z"/>
	<path class="st1" d="M212.2,98.4c-1.8,0-3.5-0.6-4.9-1.9l1.5-1.8c1,0.9,2.1,1.4,3.5,1.4c1,0,1.7-0.4,1.7-1.1v0c0-0.6-0.4-1-2.3-1.5
		c-2.3-0.6-3.9-1.2-3.9-3.6v0c0-2.1,1.7-3.5,4.1-3.5c1.7,0,3.1,0.5,4.3,1.5l-1.3,1.9c-1-0.7-2-1.1-3-1.1s-1.5,0.4-1.5,1v0
		c0,0.8,0.5,1,2.5,1.5c2.4,0.6,3.7,1.5,3.7,3.5v0C216.4,97.1,214.7,98.4,212.2,98.4z"/>
	<path class="st1" d="M219.3,98.3V86.6h2.6v9.3h5.8v2.3H219.3z"/>
	<path class="st1" d="M238.9,98.3l-1.1-2.6h-4.9l-1.1,2.6h-2.6l5-11.7h2.4l5,11.7H238.9z M235.4,89.6l-1.5,3.8h3.1L235.4,89.6z"/>
	<path class="st1" d="M253.1,98.3v-7.6l-3.3,5h-0.1l-3.2-4.9v7.5H244V86.6h2.8l3.1,4.9l3.1-4.9h2.8v11.6H253.1z"/>
	<path class="st1" d="M259.2,98.3V86.6h2.6v11.6H259.2z"/>
	<path class="st1" d="M270.8,98.5c-3.4,0-6-2.6-6-6v0c0-3.3,2.5-6,6.1-6c2.2,0,3.5,0.7,4.6,1.8l-1.6,1.9c-0.9-0.8-1.8-1.3-3-1.3
		c-2,0-3.4,1.6-3.4,3.6v0c0,2,1.4,3.7,3.4,3.7c1.3,0,2.1-0.5,3.1-1.4l1.6,1.6C274.4,97.7,273,98.5,270.8,98.5z"/>
	<path class="st1" d="M288.1,98.4c-1.8,0-3.5-0.6-4.9-1.9l1.5-1.8c1,0.9,2.1,1.4,3.5,1.4c1,0,1.7-0.4,1.7-1.1v0c0-0.6-0.4-1-2.3-1.5
		c-2.3-0.6-3.9-1.2-3.9-3.6v0c0-2.1,1.7-3.5,4.1-3.5c1.7,0,3.1,0.5,4.3,1.5l-1.3,1.9c-1-0.7-2-1.1-3-1.1s-1.5,0.4-1.5,1v0
		c0,0.8,0.5,1,2.5,1.5c2.4,0.6,3.7,1.5,3.7,3.5v0C292.3,97.1,290.6,98.4,288.1,98.4z"/>
	<path class="st1" d="M300.2,89v9.3h-2.6V89h-3.5v-2.4h9.6V89H300.2z"/>
	<path class="st1" d="M313.5,98.3l-1.1-2.6h-4.9l-1.1,2.6h-2.6l5-11.7h2.4l5,11.7H313.5z M310,89.6l-1.5,3.8h3.1L310,89.6z"/>
	<path class="st1" d="M322.4,89v9.3h-2.6V89h-3.5v-2.4h9.6V89H322.4z"/>
	<path class="st1" d="M328.6,98.3V86.6h8.8v2.3h-6.2v2.4h5.5v2.3h-5.5V96h6.3v2.3H328.6z"/>
	<path class="st1" d="M353.1,98.3l-2.5-3.7h-2v3.7H346V86.6h5.3c2.7,0,4.4,1.4,4.4,3.8v0c0,1.9-1,3.1-2.5,3.6l2.8,4.2H353.1z
		 M353.1,90.6c0-1.1-0.8-1.7-2-1.7h-2.5v3.3h2.6C352.4,92.3,353.1,91.6,353.1,90.6L353.1,90.6z"/>
	<path class="st1" d="M358.7,98.3V86.6h8.8v2.3h-6.2v2.4h5.5v2.3h-5.5V96h6.3v2.3H358.7z"/>
	<path class="st1" d="M370.5,98.3V86.6h2.6v9.3h5.8v2.3H370.5z"/>
	<path class="st1" d="M381.4,98.3V86.6h8.8v2.3H384v2.4h5.5v2.3H384V96h6.3v2.3H381.4z"/>
	<path class="st1" d="M401.9,98.3l-1.1-2.6h-4.9l-1.1,2.6h-2.6l5-11.7h2.4l5,11.7H401.9z M398.3,89.6l-1.5,3.8h3.1L398.3,89.6z"/>
	<path class="st1" d="M411,98.4c-1.8,0-3.5-0.6-4.9-1.9l1.5-1.8c1,0.9,2.1,1.4,3.5,1.4c1,0,1.7-0.4,1.7-1.1v0c0-0.6-0.4-1-2.3-1.5
		c-2.3-0.6-3.9-1.2-3.9-3.6v0c0-2.1,1.7-3.5,4.1-3.5c1.7,0,3.1,0.5,4.3,1.5l-1.3,1.9c-1-0.7-2-1.1-3-1.1s-1.5,0.4-1.5,1v0
		c0,0.8,0.5,1,2.5,1.5c2.4,0.6,3.7,1.5,3.7,3.5v0C415.2,97.1,413.5,98.4,411,98.4z"/>
	<path class="st1" d="M418.1,98.3V86.6h8.8v2.3h-6.2v2.4h5.5v2.3h-5.5V96h6.3v2.3H418.1z"/>
	<path class="st1" d="M434,98.4c-1.8,0-3.5-0.6-4.9-1.9l1.5-1.8c1,0.9,2.1,1.4,3.5,1.4c1,0,1.7-0.4,1.7-1.1v0c0-0.6-0.4-1-2.3-1.5
		c-2.3-0.6-3.9-1.2-3.9-3.6v0c0-2.1,1.7-3.5,4.1-3.5c1.7,0,3.1,0.5,4.3,1.5l-1.3,1.9c-1-0.7-2-1.1-3-1.1s-1.5,0.4-1.5,1v0
		c0,0.8,0.5,1,2.5,1.5c2.4,0.6,3.7,1.5,3.7,3.5v0C438.3,97.1,436.6,98.4,434,98.4z"/>
</g>
<g>
	<g>
		<path class="st1" d="M713.1,112.3c0.1,0.3,0.3,0.5,0.4,0.9c-3.5,0.1-7.1,0-10.6,0.1c-3.8,0.1-7.6,0-11.4,0c-3.6,0-7.2,0-10.8,0
			c-3.8-0.1-7.5-0.3-11.3-0.3c-3.7,0-7.4,0.2-11.2,0.4c0.2-0.4,0.3-0.6,0.4-0.8c-0.1-0.1-0.1-0.1-0.2-0.2c-0.2,0.2-0.5,0.4-0.8,0.7
			c-3.3,0-6.7,0-10.2,0c-1.3,0-2.5,0.1-3.8,0.1c-1.6,0-3.2-0.2-4.8,0c-0.3,0-0.7-0.2-1.1-0.3c-0.1,0-0.2-0.1-0.3-0.1
			c-1.4,0.9-3,0.2-4.5,0.4c-0.9,0.1-1.7,0.1-2.1-1c0.1,0.3,0.2,0.6,0.3,1c-4.8,0-9.5,0-14.2,0c-4.7,0-9.5-0.1-14.2-0.2
			c-4.8,0-9.6,0-14.4,0c-0.1-0.1-0.2-0.4-0.3-0.7c-0.1,0-0.2,0.1-0.3,0.1c0.1,0.3,0.1,0.5,0.2,0.8c-1.4,0-2.8,0-4.2,0
			c0.1-0.4,0.1-0.8,0.2-1.1c-0.2,0.1-0.5,0.2-0.6,0.4c-0.1,0.2,0,0.5,0,0.8c-1.5,0-2.9,0-4.4,0c-4,0-8.1,0-12.1,0c-1,0-2,0.4-3-0.3
			c-0.2-0.1-0.8,0.3-1.1,0.3c-1.8,0-3.7,0-5.5,0c-0.5,0-1.1-0.3-1.6-0.4c-0.2,0-0.5-0.1-0.5-0.1c-0.4,0.8-1.1,0.5-1.7,0.5
			c-11.5,0-22.9,0-34.4,0c-2.1,0-4.2,0-6.3,0c-1.7,0-1.9-0.2-1.9-2c0-0.3-0.1-0.7-0.1-1c0.4-3.3-0.1-6.6,0-9.9
			c0-0.4,0.3-0.9,0.4-1.3c0.1-0.3,0.1-0.6,0-0.9c-0.1-0.4-0.3-0.7-0.6-1.3c0.5,0.2,0.8,0.3,1,0.4c0-0.2,0.1-0.4,0-0.5
			c-0.2-0.2-0.5-0.4-0.8-0.7c-0.1-1.6-0.2-3.3-0.3-5.1c0-0.3,0.3-0.6,0.5-0.8c-1.2-0.8-0.4-2.2-0.5-3.3c-0.1-0.8,0.2-1.5,0.2-2.3
			c0-4.1,0-8.2,0-12.3c0-1.2,0.4-1.5,1.6-1.6c6.5,0,12.9,0,19.4,0c1.3,0,2.7,0,4,0c1.8,0,3.5,0,5.3,0c0.4,0,0.9,0.2,1.3,0.3
			c0.1,0,0.3,0.1,0.4,0.1c2.1-0.9,4.3-0.2,6.4-0.4c0.8-0.1,1.7,0,2.5,0c0,0.3,0.1,0.6,0.1,0.8c0,0,0.4,0,0.4,0c0-0.2,0-0.4,0-0.8
			c1.9,0.3,3.8-0.3,5.6,0.4c0.4-0.3,0.8-0.9,1.1,0c0.3-0.1,0.7-0.4,1-0.4c1.4,0,2.9,0,4.3,0c0.8,0,1.6,0.2,2.3,0.2
			c0.7,0,1.4-0.2,2-0.2c0.8,0,1.6,0,2.3,0c0.8,0,1.6,0,2.4,0c0.4,0,0.8,0.3,1.2,0.4c0.2-0.1,0.4-0.4,0.7-0.4c3.9,0,7.8,0,11.7,0.1
			c0.9,0,1.9,0.5,2.7,0.2c1.5-0.4,2.9-0.3,4.3-0.3c4.1,0,8.1,0,12.2,0c5.6,0,11.3,0,16.9,0c3.6,0,7.2-0.1,10.8,0c1.9,0,3.9,0,5.8,0
			c3.3,0,6.6-0.2,9.8-0.2c3.2,0,6.4,0,9.6,0c2.7,0,5.5,0,8.2,0c1.9,0,3.8,0.2,5.6,0.2c2.8,0,5.7-0.1,8.5-0.2c1.5,0,3.1-0.1,4.6,0
			c1.4,0.1,2.7,0.3,4.1,0.4c0.5,0,1-0.1,1.5-0.1c2.2,0,4.4,0,6.7,0c3.8,0.1,7.7,0,11.5,0c3.9,0,7.8,0,11.7,0c1.9,0,3.7,0,5.6,0
			c0.3,0,0.7,0,1.3,0.1c-0.5,0.3-0.7,0.5-1,0.7c0.3,0.2,0.6,0.3,1,0.5c0-1.2,0.6-1.3,1.6-1.2c2.6,0.1,5.2,0,7.8,0
			c0.5,0,0.9,0.3,1.4,0.4c0.1,0,0.3,0.1,0.4,0c0.5-0.1,1-0.4,1.5-0.4c2.8,0,5.7,0,8.5,0c2.1,0,4.3,0.2,6.4,0.2
			c1.7,0,3.5-0.1,5.2-0.2c0.6,0,1.1,0.1,1.2,0.9c0,0.3,0.4,0.5,0.6,0.7c0.1-0.1,0.1-0.1,0.2-0.2c-0.1-0.2-0.1-0.4-0.2-0.5
			c-0.1-0.2-0.2-0.3-0.3-0.4c0.2-0.1,0.6-0.4,0.7-0.4c0.4,0.4,0.8,0,1.2,0c3.3,0,6.6,0,9.9,0c0.3,0,0.6,0.4,1,0.7
			c0.1-0.1,0.2-0.4,0.3-0.7c3.4,0,6.8,0,10.3,0c-0.1,0.2-0.3,0.4-0.2,0.5c0,0.2,0.2,0.5,0.3,0.7c0.2-0.2,0.5-0.4,0.5-0.6
			c-0.1-0.7,0.4-0.6,0.8-0.7c1.5,0,3,0,4.6,0c0,0.2,0,0.4,0,0.7c0.2-0.1,0.3-0.1,0.3-0.1c0.3-0.2,0.7-0.5,1-0.5c2.8,0,5.5,0,8.3,0
			c0.4,0,0.7,0.3,1.3,0.6c0,0,0.2-0.2,0.4-0.6c1.8,0,3.8,0,5.8,0c0.8,0,1.3,0.4,1.4,1.2c0.1,0.8,0.1,1.5,0,2.3
			c0,0.2-0.1,0.4-0.4,0.3c0.1,0.4,0.3,0.9,0.3,1.3c0,2.1,0,4.2,0.1,6.3c0,2.5,0,5.1,0,7.6c0,1-1.1,0.6-1.5,1.2
			c0.2,0,0.5,0.1,0.7,0.1c0.2,0,0.5,0,0.7-0.1c-0.1,0.3-0.2,0.6-0.3,0.8c-0.2,0.2-0.4,0.4-0.8,0.7c0.5,0,0.8,0,1.2,0
			c0,1,0.1,2.1,0,3.2c0,0.3-0.5,0.6-0.9,1c0.3,0,0.6,0.1,0.9,0.1c0,0.8,0,1.7,0,2.6c-0.2-0.2-0.4-0.4-0.7-0.6
			c0.1,0.6,0.3,1.1,0.4,1.6c0,0,0,0-0.1,0c0.1,0.2,0.2,0.4,0.2,0.6c-0.2,0-0.5,0-0.7,0.1c0,0.1,0,0.2,0,0.2c0.3,0,0.5,0,0.8,0.1
			c0,2.9,0,5.9,0,8.9c0,1-0.7,0.9-1.5,1c0.5,0.3,0.9,0.5,1.3,0.7c-0.3,0.9-0.6,1.2-1.5,1.2c-5.3,0-10.7-0.1-16-0.1
			c-1.1,0-2.3,0.1-3.4,0.1c-0.4,0-0.8-0.2-1.1-0.3c-0.5,0.1-1,0.2-1.5,0.2c-2.9,0.1-5.8,0.1-8.7,0.1c-3.8,0-7.5,0-11.3,0
			c-0.4,0-0.7-0.2-1.1-0.4c-0.1,0-0.3-0.1-0.3,0c-0.7,0.7-1.5,0.2-2.3,0.2c-4.7,0-9.4,0-14.1,0.1c-0.5,0-1,0.1-1.4,0.1
			c-8.3,0-16.6,0-24.9,0c-1.3,0-2.7,0-4,0c-0.2,0-0.4-0.1-0.6-0.3c-0.3-0.2-0.4-0.3-0.8,0.1C716.6,113.7,714.1,113.2,713.1,112.3z
			 M806.9,105.8c-0.2-0.7-0.5-1.5-0.5-2.3c-0.1-3.5,0-6.9,0-10.4c0-2.8,0.1-5.7,0-8.5c-0.1-2.8,0.4-5.5,0-8.2
			c-0.1-0.9,0-2.1-1.4-2.4c-0.2,0-0.3-0.3-0.3-0.4c-0.2,0.4-0.2,0.9-0.5,1c-0.3,0.1-0.8,0-1.1-0.1c-0.1,0-0.1-0.1-0.2-0.1
			c-1.2,0.2-2.4,0.4-3.6,0.5c0-0.1,0-0.2,0.1-0.4c-0.2-0.2-0.4-0.4-0.6-0.4c-0.2,0-0.4,0.3-0.7,0.5c-1.7,0-3.7,0-5.7,0
			c0.3-0.4,0.5-0.6,0.8-0.9c-0.3-0.1-0.4-0.1-0.6,0c-0.5,0.3-1.1,0.9-1.6,0.9c-2.9,0.1-5.7,0-8.6,0c-0.3,0-0.7,0.1-0.8,0
			c-0.5-0.7-1.1-0.2-1.6-0.1c-0.3,0.1-0.7,0.1-1,0.1c-2.4,0-4.7,0-7.1,0c-2.2,0-4.4-0.2-6.6,0c-1.5,0.1-3,0-4.6,0
			c-0.4,0-0.8-0.3-1.2-0.3c-0.8,0-1.5,0.2-2.3,0.2c-0.3,0-0.7-0.4-1-0.3c-0.7,0.1-1.4,0.3-2.1,0.4c-4.5,0.1-9.1,0-13.6,0
			c-5.4,0-10.9,0-16.3,0c-2.3,0-4.7-0.2-7,0c-1.6,0.1-3.3,0-4.9,0c0,0,0-0.1,0-0.1c0.4-0.1,0.8-0.2,1-0.2c-0.2-0.4-0.3-0.7-0.5-1
			c-0.3,0-0.6-0.1-0.8-0.1c-0.1,0.5-0.2,1-0.2,1.4c-4.6,0-9.2,0-13.8,0c-0.1-0.1-0.2-0.3-0.3-0.4c0.3-0.1,0.5-0.2,1-0.4
			c-0.6,0-0.9,0-1.3,0c-0.1,0.3-0.2,0.5-0.3,0.8c-0.9,0-1.7,0.1-2.5,0c-1.1-0.1-2.4,0.5-2.9-0.6c-0.5,0.2-1,0.6-1.4,0.6
			c-1.3-0.1-2.6,0.2-3.9-0.3c-1-0.3-2.2,0.2-3.4,0.3c-3.6,0.2-7.1-0.3-10.7,0c-2.6,0.2-5.3,0-7.9,0c-1.8,0-3.6,0-5.4,0
			c-1.8,0-3.7-0.1-5.5,0c-1.7,0.1-3.4-0.5-5.1-0.1c-1,0.2-2,0-3,0c-1.3,0-2.7,0-4,0c-0.3,0-0.6-0.3-0.8-0.3
			c-0.4,0.1-0.7,0.3-1.1,0.4c-2.4,0-4.8,0-7.2,0c-7.4,0-14.8,0-22.3,0c-0.4,0-0.9-0.4-1.3-0.4c-1,0.1-1.9,0.4-2.8,0.5
			c-0.2-0.6-0.3-0.9-0.4-1.3c-0.1,0-0.1,0-0.2,0c0,0.4-0.1,0.7-0.1,1c-1,0-2,0-2.9,0c0.2-0.2,0.4-0.4,0.7-0.8
			c-0.8,0.1-1.2,0.2-1.7,0.3c0.1,0.2,0.2,0.3,0.4,0.5c-2,0.1-2.3,0-2.5-0.3c-0.3,0.1-0.6,0.3-0.9,0.3c-0.2,0-0.5-0.2-0.7-0.2
			c-2.3,0.1-4.6,0.2-6.9,0.2c-2.3,0-4.6-0.1-6.9-0.1c-3.9,0-7.8,0.1-11.7,0.1c-0.2,0-0.5,0-0.7-0.1c-0.8-0.8-0.8-0.8-1.6-0.1
			c0.2,0.1,0.3,0.1,0.8,0.3c-0.6,0-0.8,0-1.1,0c-0.9,0.2-1.8-0.1-2.7-0.1c-1.4,0-2.9,0.7-4.1-0.5c-0.1-0.1-0.5,0-0.6,0.1
			c-0.1,0.8-0.7,0.5-1.2,0.5c-1.1,0-2.3,0-3.4,0c-1.1,0-2.3,0-3.4,0c-1.1,0-2.3-0.1-3.4,0c-1,0.2-2-0.6-3.1-0.1
			c-0.1,0-0.3-0.3-0.5-0.4c-0.2-0.1-0.3-0.1-0.5-0.1c0,0.2,0,0.3,0,0.4c-3.4,0-6.8,0-10.3,0c1.1-0.8,1.1-1.1,0.2-1.7
			c-0.2,0.3-0.6,0.6-0.5,0.8c0.4,1.2-0.4,1.1-1.1,1c-2.4-0.1-4.8-0.2-7.2-0.3c-1.3,0-2.6,0.2-3.9,0.3c-0.8,0.1-1.5,0-1.6-1.1
			c-0.1,0.1-0.2,0.1-0.3,0.2c0,0.3,0.1,0.6,0.1,0.9c-2.2,0-4.5,0-6.7,0c-0.4,0.8-0.7,1.5-1.1,2.2c-0.2,0.4,0.2,1.2,0.7,1.3
			c-0.1,1.7-0.2,3.4-0.2,5.1c0,4,0.1,8,0.2,12c0,4.1,0,8.2,0,12.3c0,1.3,0.4,1.6,1.7,1.7c1.5,0.1,3-0.5,4.4,0.4
			c0.1,0.1,0.3-0.1,0.5-0.1c0.3-0.1,0.5-0.3,0.8-0.3c5,0,10,0,15,0c0.4,0,0.7,0.2,1.1,0.4c0.9-0.2,1.8-0.4,2.7-0.4
			c6.8,0,13.6,0,20.5,0c0.5,0,1.1,0.3,1.6,0.5c0,0.1,0,0.2,0,0.3c0.2-0.1,0.4-0.3,0.6-0.5c-0.3-0.1-0.4-0.1-0.7-0.3
			c1.9-0.3,3.6,0.1,5.4-0.1c1.8-0.1,3.6-0.1,5.4,0c1.7,0.1,3.3,0.3,5,0.3c1.6,0,3.2-0.3,4.8-0.3c1.7,0,3.4,0,5,0
			c1.7,0,3.5,0.2,5.2,0.2c1.8,0,3.6-0.1,5.4-0.2c1.8,0,3.5,0,5.3,0c1.8,0,3.5,0,5.3,0c1.8,0,3.6,0,5.4,0c1.8,0,3.5,0,5.3,0
			c0.1,0.4,0.1,0.7,0.1,1c0.5-0.4,0.6-1.6,1.5-0.7c0,0,0.2-0.1,0.3-0.1c0.6-0.1,1.3-0.2,2.1-0.3c-0.3,0.3-0.4,0.5-0.8,0.9
			c1.2-0.4,2.1-0.6,3.2-1c-0.2,0.4-0.2,0.6-0.4,1c0.8-0.7,0.9,1.2,1.6,0.3c-0.3-0.3-0.6-0.6-1-1.1c3.2,0,6.2,0,9.1,0
			c0.3,0,0.5,0.2,0.8,0.2c1.3-0.1,2.6-0.2,3.9-0.2c0.3,0,0.5,0.4,0.8,0.4c0.6-0.1,1.3-0.4,1.9-0.4c2.8,0,5.5,0,8.3,0
			c0.1,0.5,0.1,1,0.2,1.4c0.3-0.1,0.6-0.2,1.1-0.3c-0.2-0.4-0.4-0.8-0.7-1.2c1.1,0.1,2.2,0.2,3.3,0.3c0.5,0.1,1.2,0.3,1.4,0.1
			c0.7-0.7,1.2-0.2,1.4,0c0.4-0.2,0.8-0.4,0.8-0.4c0.6,0.6,1.2,0.3,1.7,0c0.1,0,0.1,0,0.2,0c1,0,2,0,2.8,0c0.3,0.4,0.6,0.6,0.8,0.8
			c0.1-0.3,0.1-0.5,0.2-0.8c7.7,0,15.4,0,23.1,0c0.1,0.2,0.2,0.5,0.3,0.7c0.1-1.1,0.9-0.8,1.5-0.8c1.4,0.1,2.9,0.2,4.3,0.3
			c1.2,0,2.3-0.2,3.5-0.2c0.4,0,0.8,0.3,1.3,0.4c0.6-0.7,6.7-0.7,7.1,0c0.6-0.1,1.1-0.4,1.7-0.4c1.5,0,3.1-0.1,4.6,0
			c1.4,0.2,2.9-0.1,4.3,0c1.1,0,2.1,0,3.2,0c0,0.2,0.1,0.4,0.1,0.4c0.6-0.1,1.1-0.3,1.7-0.3c4.4,0,8.9-0.1,13.3-0.1
			c0.3,0,0.6,0.4,1.1,0.7c0.8-1.1,2.2-0.7,3.5-0.7c4.7,0,9.5,0,14.2-0.1c0.6,0,1.2,0.9,1.8,0c2.1,0.2,4.3-0.7,6.3,0.8
			c0.1-0.3,0.2-0.7,0.3-0.7c0.6-0.1,1.2-0.1,1.9-0.1c4.3,0,8.7,0,13,0c5.6,0,11.3,0,16.9,0c3.6,0,7.2,0,10.8,0
			c1.2,0,1.7-0.6,1.6-1.8c0-0.6,0-1.2,0-1.8C806.6,105.7,806.9,105.8,806.9,105.8z M677.5,72.8c0-0.1,0-0.3,0-0.4
			c-1.2,0-2.4,0-3.7,0c0.3,0.4,0.4,0.7,0.6,0.9C675.4,73.1,676.4,73,677.5,72.8z M643.8,72.7c-0.1,0.3-0.1,0.6-0.2,0.8
			c0.6,0,1.1,1,1.8,0.2C644.9,73.4,644.5,73.1,643.8,72.7z M607,111.1c0.5-0.2,0.9-0.3,1.2-0.5c0.2-0.1,0.2-0.4,0.3-0.6
			c-0.2,0-0.4,0-0.5,0c-0.3,0-0.6-0.1-0.8-0.1C607.1,110.3,607.1,110.7,607,111.1z M802.4,111.2c0.1-0.1,0.1-0.2,0.2-0.4
			c-0.5-0.1-1-0.3-1.4-0.4c-0.1,0-0.3,0.3-0.6,0.6C801.3,111.1,801.8,111.2,802.4,111.2z M566.3,72.9c0,0.2-0.1,0.4-0.1,0.5
			c0.4,0.1,0.8,0.2,1.3,0.3c0.1,0,0.2-0.4,0.2-0.6C567.2,73.1,566.7,73,566.3,72.9z"/>
	</g>
	<g>
		<path class="st1" d="M532.1,88.6c0.4-0.3,0.8-0.4,0.9-0.6c0.1-0.2-0.1-0.6-0.4-0.8c-0.1,0.2-0.1,0.4-0.2,0.7
			c0-0.1-0.1-0.3-0.1-0.3c0.5-0.7-0.1-2.1,1.3-2.3c0-0.1-0.1-0.2-0.1-0.4c0-0.2-0.1-0.4,0-0.5c1.5-2.4,3.6-3.8,6.3-4.3
			c2.3-0.4,4.4-0.1,6.5,0.9c2.4,1.1,4.1,3.1,4.7,5.7c0.4,1.7,0.4,3.5,0.1,5.2c-0.3,1.8-1.1,3.4-2.5,4.7c-1.9,1.7-4.1,2.8-6.7,2.6
			c-0.6,0-1.2-0.1-1.8-0.2c0-0.1,0-0.2,0-0.4c-1.4,0.6-2.4-0.1-3.4-0.7c-1.8-1.1-1.9-0.9-3.4,0.5c-0.5,0.5-1,0.9-1.5,1.3
			c-0.3,0.2-0.8,0.3-1.1,0.4c-0.2,0.4-0.3,0.8-0.5,1c-0.7,0.6-1.5,1.2-2.2,1.8c-1,0.8-1.4,0.8-2.3,0c-1.3-1.3-1.2-2.6,0.3-3.5
			c1.8-1.1,3.5-2.4,5.3-3.7c0.2,0.2,0.4,0.4,0.5,0.6c0.1,0,0.1-0.1,0.2-0.1c-0.1-0.2-0.2-0.5-0.3-0.8c1.2-0.6,1.3-1.7,0.9-3
			c-0.2-0.7-0.5-1.5-0.4-2.2C532.3,89.6,532,89,532.1,88.6z M547.5,84.7c-0.7-0.1-1.3,0-1.7-0.2c-1.3-1-2.7-1.3-4.4-1.3
			c-4.1,0-7.3,4.1-6.1,8.2c0.1,0.4,0,0.8-0.1,1.2c0.3,0.2,0.7,0.4,0.9,0.7c1.2,1.9,3.1,3,5.3,3c2.9,0.1,5-1.4,6.2-3.9
			c1.2-2.5,0.9-4.9-1-7C547,85.2,547.2,85,547.5,84.7z"/>
	</g>
	<g>
		<path class="st1" d="M736.3,84c-0.1-0.3-0.1-0.6-0.2-1.1c-0.3,0.3-0.5,0.5-0.9,0.9c0.6,0.2,1,0.4,1.5,0.5c0,1.7,0.3,3.4-0.1,5
			c-0.2,0.9,0.3,1.5,0.2,2.3c-0.2,0.8,0,1.7,0,2.5c0,2.2,0.1,4.3-0.1,6.5c0,0.5,0.1,0.9,0.1,1.4c0,0.5,0,1.1-0.3,1.5
			c-0.3,0.4-0.9,0.5-1.4,0.7c-0.2-0.5-0.6-0.9-0.6-1.4c0-7.3,0-14.6,0-21.8c0-0.6,0.1-1.3,0.8-1.3c0.7,0,1.5,0.1,1.4,1.3
			c-0.1,1,0,2,0,3C736.5,83.9,736.4,84,736.3,84z"/>
	</g>
</g>
<g>
	<path class="st1" d="M572,98.1l-1.1-2.6H566l-1.1,2.6h-2.6l5-11.7h2.4l5,11.7H572z M568.5,89.5l-1.5,3.8h3.1L568.5,89.5z"/>
	<path class="st1" d="M577.1,98.1V86.5h2.6v9.3h5.8v2.3H577.1z"/>
	<path class="st1" d="M601,98.1v-4.7h-4.7v4.7h-2.6V86.5h2.6v4.6h4.7v-4.6h2.6v11.6H601z"/>
	<path class="st1" d="M615.6,98.1l-1.1-2.6h-4.9l-1.1,2.6H606l5-11.7h2.4l5,11.7H615.6z M612.1,89.5l-1.5,3.8h3.1L612.1,89.5z"/>
	<path class="st1" d="M624.8,93.5v4.6h-2.6v-4.6l-4.5-7h3l2.8,4.7l2.8-4.7h2.9L624.8,93.5z"/>
	<path class="st1" d="M638.3,98.1l-1.1-2.6h-4.9l-1.1,2.6h-2.6l5-11.7h2.4l5,11.7H638.3z M634.8,89.5l-1.5,3.8h3.1L634.8,89.5z"/>
	<path class="st1" d="M647.2,88.9v9.3h-2.6v-9.3h-3.5v-2.4h9.6v2.4H647.2z"/>
	<path class="st1" d="M668.1,98.1v-7.6l-3.3,5h-0.1l-3.2-4.9v7.5H659V86.5h2.8l3.1,4.9l3.1-4.9h2.8v11.6H668.1z"/>
	<path class="st1" d="M674.1,98.1V86.5h8.8v2.3h-6.2v2.4h5.5v2.3h-5.5v2.4h6.3v2.3H674.1z"/>
	<path class="st1" d="M690.4,98.1h-4.5V86.5h4.5c3.7,0,6.2,2.5,6.2,5.8v0C696.6,95.6,694.1,98.1,690.4,98.1z M693.9,92.3
		c0-2.1-1.4-3.5-3.5-3.5h-2v7h2C692.5,95.8,693.9,94.4,693.9,92.3L693.9,92.3z"/>
	<path class="st1" d="M699.6,98.1V86.5h2.6v11.6H699.6z"/>
	<path class="st1" d="M714.4,98.1l-1.1-2.6h-4.9l-1.1,2.6h-2.6l5-11.7h2.4l5,11.7H714.4z M710.9,89.5l-1.5,3.8h3.1L710.9,89.5z"/>
</g>
<g>
	<path class="st2" d="M64.8,164.3v-2.4h8.8v2.2l-3.3,3.1c1.8,0.3,3.5,1.2,3.5,3.7c0,2.5-1.8,4.3-4.7,4.3c-2.3,0-3.9-0.9-5.1-2.2
		l2-1.9c0.9,1,1.8,1.6,3.1,1.6c1.1,0,1.8-0.6,1.8-1.6c0-1.1-0.9-1.7-2.5-1.7h-1.2l-0.4-1.8l3.1-3.1H64.8z"/>
	<path class="st2" d="M76.4,161.8h9.3v2.2L80,174.8h-3.2l5.8-10.5h-6.1V161.8z"/>
	<path class="st2" d="M86.7,174.8v-3h3v3H86.7z"/>
	<path class="st2" d="M93.6,161.8h8v2.5h-5.5l-0.1,2.2c0.5-0.1,1-0.2,1.7-0.2c2.6,0,4.5,1.2,4.5,4.2c0,2.8-1.9,4.5-4.9,4.5
		c-2.1,0-3.6-0.7-4.9-1.9l1.7-2.1c1,0.9,1.9,1.4,3.1,1.4c1.3,0,2.2-0.6,2.2-1.8c0-1.1-0.9-1.8-2.3-1.8c-0.8,0-1.6,0.2-2.2,0.5
		l-1.6-1.1L93.6,161.8z"/>
	<path class="st2" d="M108,168.3c-1.9,0-3.1-1.5-3.1-3.3c0-1.9,1.3-3.3,3.2-3.3c1.9,0,3.1,1.5,3.1,3.3
		C111.1,166.9,109.9,168.3,108,168.3z M108.3,174.8h-2.2l9.5-13h2.2L108.3,174.8z M108,163.4c-0.8,0-1.2,0.7-1.2,1.6
		c0,0.9,0.5,1.6,1.2,1.6c0.8,0,1.2-0.7,1.2-1.6C109.2,164.1,108.7,163.4,108,163.4z M115.9,175c-1.9,0-3.1-1.5-3.1-3.3
		c0-1.9,1.3-3.3,3.2-3.3c1.9,0,3.1,1.5,3.1,3.3C119.1,173.5,117.8,175,115.9,175z M115.9,170c-0.8,0-1.2,0.7-1.2,1.6
		c0,0.9,0.5,1.7,1.2,1.7c0.8,0,1.2-0.7,1.2-1.6C117.2,170.8,116.7,170,115.9,170z"/>
</g>
<g>
	<path class="st1" d="M77.9,240.7v8h1.7v2.3h-1.7v2.8h-2.7V251h-6.3l-0.5-2l7.1-8.2H77.9z M75.1,244.7l-3.4,4h3.4V244.7z"/>
	<path class="st1" d="M82.4,253.8v-3h3v3H82.4z"/>
	<path class="st1" d="M88.8,243.3v-2.4h8.8v2.2l-3.3,3.1c1.8,0.3,3.5,1.2,3.5,3.7c0,2.5-1.8,4.3-4.7,4.3c-2.3,0-3.9-0.9-5.1-2.2
		l2-1.9c0.9,1,1.8,1.6,3.1,1.6c1.1,0,1.8-0.6,1.8-1.6c0-1.1-0.9-1.7-2.5-1.7h-1.2l-0.4-1.8l3.1-3.1H88.8z"/>
	<path class="st1" d="M103.5,247.3c-1.9,0-3.1-1.5-3.1-3.3c0-1.9,1.3-3.3,3.2-3.3c1.9,0,3.1,1.5,3.1,3.3
		C106.7,245.8,105.4,247.3,103.5,247.3z M103.9,253.8h-2.2l9.5-13h2.2L103.9,253.8z M103.5,242.4c-0.8,0-1.2,0.7-1.2,1.6
		c0,0.9,0.5,1.7,1.2,1.7c0.8,0,1.2-0.7,1.2-1.6C104.7,243.1,104.3,242.4,103.5,242.4z M111.5,254c-1.9,0-3.1-1.5-3.1-3.3
		c0-1.9,1.3-3.3,3.2-3.3c1.9,0,3.1,1.5,3.1,3.3C114.7,252.5,113.4,254,111.5,254z M111.5,249c-0.8,0-1.2,0.7-1.2,1.6
		c0,0.9,0.5,1.7,1.2,1.7c0.8,0,1.2-0.7,1.2-1.6C112.7,249.8,112.2,249,111.5,249z"/>
</g>
<g>
	<path class="st0" d="M511,197c0,0-0.1,0.2-0.3,0.4c-0.1,0-0.3,0-0.4,0c0-4.3,0-8.6,0-12.8c0-0.2,0.2-0.5,0.4-0.9
		c-0.1-0.9-0.4-2-0.4-3.1c-0.1-2.5,0-5,0-7.4c0-0.4,0.3-0.7,0.5-1.2c-0.1-0.1-0.5-0.4-0.5-0.7c0-4,0.1-8,0.1-12.1
		c0-0.5-0.1-1.1-0.1-1.6c0-5.6,0-11.1,0-16.7c0-1.3,0-2.6,0-3.8c3.7-0.1,7.3-0.3,10.9-0.3c3.6-0.1,7.3,0,11,0
		c3.5,0,6.9,0.3,10.4,0.2c3.5-0.1,6.9,0.1,10.4,0.1c3.6-0.1,7.2,0,10.8,0c3.6,0,7.2,0,10.8,0c3.5,0,7,0,10.4,0.2
		c0.6-0.1,1.3-0.3,1.9-0.3c1.8-0.1,3.7-0.1,5.5,0c7.9,0.1,15.7,0.2,23.6,0.2c5.1,0,10.2,0.1,15.2,0.1c1.3,0,2.7-0.1,4-0.1
		c0.4,0,0.8,0.4,1.1,0.6c1.1-0.8,4.5-0.9,6-0.2c0.1-0.2,0.2-0.4,0.3-0.5c2.4,0,4.8-0.1,7.2,0c2.6,0.2,5.3-0.1,7.9,0
		c2.9,0.1,5.9,0.1,8.8-0.1c1.1-0.1,2,0.6,3.3,0.2c1-0.4,2.3-0.1,3.5-0.1c0.5,0,1,0.3,1.4,0.4c0.5-0.1,1.1-0.4,1.7-0.4
		c1.7-0.1,3.5,0,5.3,0c0,0.5,0,1,0,1.4c0,7,0,13.9,0,20.9c0,0.9,0.4,2-2,1.6c0.1,0.1,0.1,0.2,0.2,0.3c0.6,0.1,1.1,0.3,1.9,0.5
		c-0.4,3.8,0.7,7.7-0.7,11.4c1.4,0.8,0.3,1.8,0.7,2.6c-0.5,0.2-0.8,0.3-1.3,0.5c0.5,0.4,1.2,0.8,1.1,1.1c-0.4,2.7,1.1,5.6-0.9,8.3
		c0.3-0.2,0.6-0.3,0.9-0.5c0,4,0,8.1,0,12.4c-3.8,0-7.7,0.2-11.4-0.1c-1-0.1-1.8,0.2-2.7,0.2c-6.9-0.1-13.9,0-20.8,0
		c-3.3,0-6.7,0-10,0c-0.9,0-2,0.4-2.7-0.5c0,0-0.8,0.3-1.2,0.4c-0.3,0.1-0.6,0.1-0.9,0.1c-5.5,0-10.9,0-16.4,0c-2.5,0-5,0-7.5,0
		c-0.6,0-1.1-0.2-1.7-0.2c-0.6,0-1.1,0.2-1.7,0.2c-3.7,0-7.4,0-11.1,0c-0.5,0-0.9-0.4-1.1-0.5c-0.9,0.2-1.7,0.5-2.4,0.5
		c-3.9,0-7.8,0-11.7-0.1c-0.4,0-0.7-0.4-0.7-0.4c-0.8,0.2-1.3,0.5-1.8,0.5c-5.1,0-10.1,0-15.2,0c0-0.2,0.1-0.4,0.1-0.8
		c-2.1,2-3.4-0.1-5-0.5c0,0.5,0,0.8,0,1.3c-4.1,0-8.3,0-12.4,0c-2.7,0-5.3,0-8,0c-7.6,0-15.2,0-22.8,0
		C512.2,197.4,511.7,197.2,511,197z M645.7,160.8c-1.2,1,0.5,1.4,1.5,2c0.2,0.1,0.9-0.2,1.4-0.3c-0.4,0.2-0.7,0.3-1.1,0.5
		C646.9,162.2,646.3,161.5,645.7,160.8z M618.8,193.4c0.2-0.1,0.4-0.3,0.5-0.4c-0.8-0.7-1.6-1.3-2.5-2.1c-0.1,0.7-0.1,1.2-0.1,1.3
		C617.5,192.7,618.1,193.1,618.8,193.4z M657.6,156.6c-0.3-0.5-0.5-0.8-0.7-1.2c-2.2,0.4-2.2,0.4-2.2,1
		C655.6,156.5,656.5,156.6,657.6,156.6z M581.5,191.3c0.1,0.1,0.3,0.3,0.5,0.5c1.2-0.8,1.4,0.4,2.1,0.5c0.1,0,0.3,0.1,0.4,0.1
		c0.1-0.1,0.3-0.3,0.2-0.4c-0.6-0.6-1.3-1.2-1.9-1.9C582.2,190.7,581.9,191,581.5,191.3z M611.4,156.7c0.1-0.6,0.5-1.3,0.2-1.8
		c-0.3-0.5-0.7-1.3-1.7-1.2C610.4,154.7,610.8,155.6,611.4,156.7z M529.6,165.1c-0.9-0.1-1.6-0.2-2.6-0.3c0.4,0.7,0.6,1.2,0.9,1.6
		c0.2,0.1,0.3,0.2,0.5,0.3C528.7,166.3,529.1,165.8,529.6,165.1z M645.2,186.6c-0.2,1.7,0.4,2.2,2.3,2.2c0-0.4,0.1-0.7,0.1-1.3
		C646.6,188.4,646.4,188.3,645.2,186.6z M572.6,149.9c0,0.1,0.1,0.3,0.1,0.4c0.7,0.1,1.4,0.2,2,0.2c0.2,0,0.2-0.7,0.5-1.3
		C574.1,149.5,573.4,149.7,572.6,149.9z M558.8,176.4c-0.4,0.7-1,1.2-0.8,1.6c0.2,0.5,0.9,0.9,1.3,1.4c0.3-0.1,0.6-0.2,0.9-0.3
		C557.6,178.7,559.5,177.5,558.8,176.4z M543.7,168.5c0.8-0.3,1.3-0.5,1.9-0.7c-0.5-0.5-1-1-1.5-1.5
		C544,167.1,543.9,167.6,543.7,168.5z M577,143.6c-0.6,0.3-1.1,0.5-1.5,0.7c0.5,0.4,0.9,0.9,1.4,1.3c0.1,0,0.3-0.1,0.4-0.1
		C577.3,144.9,577.1,144.3,577,143.6z M595.9,137c-0.3,0.3-0.6,0.5-0.8,0.7c-0.5-0.2-1-0.3-1.8-0.6c0.3,0.6,0.4,1,0.7,1.5
		C594.8,138,596.4,138.4,595.9,137z M645.4,172.3c0-0.1-0.1-0.2-0.1-0.2c-0.4,0-0.9,0-1.1,0.1c-0.2,0.1-0.2,0.6-0.1,0.8
		c0.2,0.6,0.6,1.1,0.9,1.6c0.1,0,0.2,0,0.2,0c-0.1-0.6-0.3-1.2-0.4-1.9C644.9,172.7,645.1,172.5,645.4,172.3z M575.9,180.6
		c-0.1-0.1-0.1-0.2-0.2-0.2c-0.6,0.1-1.2,0.3-1.8,0.4c0.2,0.4,0.5,0.8,0.7,1.1C575,181.5,575.4,181.1,575.9,180.6z M516.3,138.4
		c-1.1,0.5-0.6,1.9-2,1.9c0.1,0.1,0.1,0.3,0.2,0.4c0,0,0.1,0,0,0c0.8-0.3,1.4-0.6,2-0.9C516.5,139.5,516.5,139.1,516.3,138.4z
		 M659.4,159.7c-0.2-0.1-0.4-0.1-0.6-0.2c-0.3,0.3-0.5,0.6-0.8,0.9c-0.2,0.2-0.4,0.3-0.6,0.5c0.4,0.1,1.1,0.3,1.2,0.2
		C658.9,160.6,659.1,160.1,659.4,159.7z M543.5,150.9c1.5-0.9,1.5-0.9,0-2.2C543.5,149.4,543.5,150.1,543.5,150.9z M570,161
		c-0.5,0.6-1,1.3-1.5,1.9C569.7,162.6,570.9,162.4,570,161z M547.2,187.1c-1.8,0.7-1.4,1.7-1.8,2.5c0.2,0.1,0.3,0.1,0.5,0.2
		C546.3,189,546.7,188.2,547.2,187.1z M642.8,159.2c-2,0.6-0.1,1.9-0.9,2.6c0.2,0,0.4,0.1,0.6,0.1
		C642.6,161,642.7,160.1,642.8,159.2z M567.9,187.4c0.3-0.9,0.6-1.6,0.9-2.3c-0.2,0-0.5-0.1-0.7-0.1
		C568.9,185.8,565.9,186.3,567.9,187.4z M584.6,168.8c0.2-0.7,0.4-1.2,0.3-1.6c0-0.3-0.4-0.5-0.7-0.7c-0.2,0.2-0.6,0.5-0.5,0.6
		C583.8,167.6,584.2,168.1,584.6,168.8z"/>
</g>
<g>
	<path class="st1" d="M510.4,275.7c0,0,0,0.2-0.1,0.4c0,0-0.1,0-0.1,0c0-4.3,0-8.6,0-12.8c0-0.2,0.1-0.5,0.1-0.9
		c0-0.9-0.1-2-0.1-3.1c0-2.5,0-5,0-7.4c0-0.4,0.1-0.7,0.1-1.2c0-0.1-0.1-0.4-0.1-0.7c0-4,0-8,0-12.1c0-0.5,0-1.1,0-1.6
		c0-5.6,0-11.1,0-16.7c0-1.3,0-2.6,0-3.8c0.8-0.1,1.6-0.3,2.4-0.3c0.8-0.1,1.6,0,2.4,0c0.8,0,1.5,0.3,2.3,0.2
		c0.8-0.1,1.5,0.1,2.3,0.1c0.8-0.1,1.6,0,2.4,0c0.8,0,1.6,0,2.4,0c0.8,0,1.5,0,2.3,0.2c0.1-0.1,0.3-0.3,0.4-0.3
		c0.4-0.1,0.8-0.1,1.2,0c1.7,0.1,3.4,0.2,5.2,0.2c1.1,0,2.2,0.1,3.3,0.1c0.3,0,0.6-0.1,0.9-0.1c0.1,0,0.2,0.4,0.2,0.6
		c0.2-0.8,1-0.9,1.3-0.2c0-0.2,0-0.4,0.1-0.5c0.5,0,1.1-0.1,1.6,0c0.6,0.2,1.2-0.1,1.7,0c0.6,0.1,1.3,0.1,1.9-0.1
		c0.2-0.1,0.4,0.6,0.7,0.2c0.2-0.4,0.5-0.1,0.8-0.1c0.1,0,0.2,0.3,0.3,0.4c0.1-0.1,0.2-0.4,0.4-0.4c0.4-0.1,0.8,0,1.2,0
		c0,0.5,0,1,0,1.4c0,7,0,13.9,0,20.9c0,0.9,0.1,2-0.4,1.6c0,0.1,0,0.2,0,0.3c0.1,0.1,0.2,0.3,0.4,0.5c-0.1,3.8,0.2,7.7-0.2,11.4
		c0.3,0.8,0.1,1.8,0.2,2.6c-0.1,0.2-0.2,0.3-0.3,0.5c0.1,0.4,0.3,0.8,0.3,1.1c-0.1,2.7,0.2,5.6-0.2,8.3c0.1-0.2,0.1-0.3,0.2-0.5
		c0,4,0,8.1,0,12.4c-0.8,0-1.7,0.2-2.5-0.1c-0.2-0.1-0.4,0.2-0.6,0.2c-1.5-0.1-3,0-4.6,0c-0.7,0-1.5,0-2.2,0c-0.2,0-0.4,0.4-0.6-0.5
		c0,0-0.2,0.3-0.3,0.4c-0.1,0.1-0.1,0.1-0.2,0.1c-1.2,0-2.4,0-3.6,0c-0.5,0-1.1,0-1.6,0c-0.1,0-0.2-0.2-0.4-0.2
		c-0.1,0-0.3,0.2-0.4,0.2c-0.8,0-1.6,0-2.4,0c-0.1,0-0.2-0.4-0.2-0.5c-0.2,0.2-0.4,0.5-0.5,0.5c-0.9,0-1.7,0-2.6-0.1
		c-0.1,0-0.2-0.4-0.2-0.4c-0.2,0.2-0.3,0.5-0.4,0.5c-1.1,0-2.2,0-3.3,0c0-0.2,0-0.4,0-0.8c-0.5,2-0.7-0.1-1.1-0.5c0,0.5,0,0.8,0,1.3
		c-0.9,0-1.8,0-2.7,0c-0.6,0-1.2,0-1.7,0c-1.7,0-3.3,0-5,0C510.7,276.1,510.6,275.8,510.4,275.7z M539.9,239.4c-0.3,1,0.1,1.4,0.3,2
		c0.1,0.1,0.2-0.2,0.3-0.3c-0.1,0.2-0.2,0.3-0.2,0.5C540.2,240.9,540.1,240.2,539.9,239.4z M534,272.1c0-0.1,0.1-0.3,0.1-0.4
		c-0.2-0.7-0.3-1.3-0.6-2.1c0,0.7,0,1.2,0,1.3C533.8,271.4,533.9,271.7,534,272.1z M542.5,235.3c-0.1-0.5-0.1-0.8-0.2-1.2
		c-0.5,0.4-0.5,0.4-0.5,1C542.1,235.2,542.3,235.2,542.5,235.3z M525.9,270c0,0.1,0.1,0.3,0.1,0.5c0.3-0.8,0.3,0.4,0.5,0.5
		c0,0,0.1,0.1,0.1,0.1c0-0.1,0.1-0.3,0-0.4c-0.1-0.6-0.3-1.2-0.4-1.9C526,269.4,526,269.7,525.9,270z M532.4,235.4
		c0-0.6,0.1-1.3,0-1.8c-0.1-0.5-0.1-1.3-0.4-1.2C532.2,233.3,532.3,234.2,532.4,235.4z M514.5,243.8c-0.2-0.1-0.4-0.2-0.6-0.3
		c0.1,0.7,0.1,1.2,0.2,1.6c0,0.1,0.1,0.2,0.1,0.3C514.3,244.9,514.4,244.5,514.5,243.8z M539.8,265.2c0,1.7,0.1,2.2,0.5,2.2
		c0-0.4,0-0.7,0-1.3C540.1,267.1,540.1,267,539.8,265.2z M523.9,228.6c0,0.1,0,0.3,0,0.4c0.1,0.1,0.3,0.2,0.4,0.2
		c0,0,0.1-0.7,0.1-1.3C524.3,228.2,524.1,228.4,523.9,228.6z M520.9,255.1c-0.1,0.7-0.2,1.2-0.2,1.6c0,0.5,0.2,0.9,0.3,1.4
		c0.1-0.1,0.1-0.2,0.2-0.3C520.6,257.3,521.1,256.2,520.9,255.1z M517.6,247.2c0.2-0.3,0.3-0.5,0.4-0.7c-0.1-0.5-0.2-1-0.3-1.5
		C517.6,245.8,517.6,246.3,517.6,247.2z M524.9,222.3c-0.1,0.3-0.2,0.5-0.3,0.7c0.1,0.4,0.2,0.9,0.3,1.3c0,0,0.1-0.1,0.1-0.1
		C524.9,223.5,524.9,223,524.9,222.3z M529,215.6c-0.1,0.3-0.1,0.5-0.2,0.7c-0.1-0.2-0.2-0.3-0.4-0.6c0.1,0.6,0.1,1,0.1,1.5
		C528.8,216.7,529.1,217.1,529,215.6z M539.9,251c0-0.1,0-0.2,0-0.2c-0.1,0-0.2,0-0.3,0.1c0,0.1,0,0.6,0,0.8
		c0.1,0.6,0.1,1.1,0.2,1.6c0,0,0,0,0.1,0c0-0.6-0.1-1.2-0.1-1.9C539.8,251.3,539.8,251.2,539.9,251z M524.6,259.3c0-0.1,0-0.2,0-0.2
		c-0.1,0.1-0.3,0.3-0.4,0.4c0.1,0.4,0.1,0.8,0.2,1.1C524.4,260.2,524.5,259.8,524.6,259.3z M511.6,217.1c-0.2,0.5-0.1,1.9-0.4,1.9
		c0,0.1,0,0.3,0.1,0.4c0,0,0,0,0,0c0.2-0.3,0.3-0.6,0.4-0.9C511.6,218.2,511.6,217.8,511.6,217.1z M542.9,238.3
		c0-0.1-0.1-0.1-0.1-0.2c-0.1,0.3-0.1,0.6-0.2,0.9c0,0.2-0.1,0.3-0.1,0.5c0.1,0.1,0.2,0.3,0.3,0.2
		C542.8,239.3,542.9,238.8,542.9,238.3z M517.5,229.5c0.3-0.9,0.3-0.9,0-2.2C517.5,228.1,517.5,228.8,517.5,229.5z M523.4,239.7
		c-0.1,0.6-0.2,1.3-0.3,1.9C523.3,241.3,523.6,241.1,523.4,239.7z M518.4,265.8c-0.4,0.7-0.3,1.7-0.4,2.5c0,0.1,0.1,0.1,0.1,0.2
		C518.2,267.7,518.2,266.9,518.4,265.8z M539.3,237.8c-0.4,0.6,0,1.9-0.2,2.6c0,0,0.1,0.1,0.1,0.1
		C539.3,239.7,539.3,238.8,539.3,237.8z M522.9,266.1c0.1-0.9,0.1-1.6,0.2-2.3c-0.1,0-0.1-0.1-0.2-0.1
		C523.1,264.5,522.5,265,522.9,266.1z M526.5,247.5c0-0.7,0.1-1.2,0.1-1.6c0-0.3-0.1-0.5-0.2-0.7c0,0.2-0.1,0.5-0.1,0.6
		C526.4,246.3,526.5,246.8,526.5,247.5z"/>
</g>
<g>
	<path class="st2" d="M562.2,161.8h1.9v13.1h-2.8v-10.2l-2.3,0.6l-0.6-2.3L562.2,161.8z"/>
	<path class="st2" d="M568,164.3v-2.4h8.8v2.2l-3.3,3.1c1.8,0.3,3.5,1.2,3.5,3.7c0,2.5-1.8,4.3-4.7,4.3c-2.3,0-3.9-0.9-5.1-2.2
		l2-1.9c0.9,1,1.8,1.6,3.1,1.6c1.1,0,1.8-0.6,1.8-1.6c0-1.1-0.9-1.7-2.5-1.7h-1.2l-0.4-1.8l3.1-3.1H568z"/>
	<path class="st2" d="M580,174.8v-3h3v3H580z"/>
	<path class="st2" d="M590.7,175c-2.9,0-5-1.5-5-3.8c0-1.6,0.7-2.5,2.1-3.2c-1-0.6-1.7-1.4-1.7-2.9c0-2,1.8-3.6,4.6-3.6
		s4.6,1.6,4.6,3.6c0,1.4-0.6,2.2-1.6,2.9c1.3,0.7,2.1,1.5,2.1,3.1C595.7,173.6,593.6,175,590.7,175z M590.7,169.4
		c-1.3,0-2.2,0.6-2.2,1.6c0,0.9,0.8,1.6,2.2,1.6s2.2-0.7,2.2-1.6C593,170,592,169.4,590.7,169.4z M590.7,164c-1.2,0-1.9,0.7-1.9,1.5
		c0,0.9,0.7,1.6,1.9,1.6s1.9-0.7,1.9-1.6C592.6,164.7,591.9,164,590.7,164z"/>
	<path class="st2" d="M601.3,168.3c-1.9,0-3.1-1.5-3.1-3.3c0-1.9,1.3-3.3,3.2-3.3c1.9,0,3.1,1.5,3.1,3.3
		C604.4,166.9,603.2,168.3,601.3,168.3z M601.6,174.8h-2.2l9.5-13h2.2L601.6,174.8z M601.3,163.4c-0.8,0-1.2,0.7-1.2,1.6
		c0,0.9,0.5,1.6,1.2,1.6c0.8,0,1.2-0.7,1.2-1.6C602.5,164.1,602,163.4,601.3,163.4z M609.2,175c-1.9,0-3.1-1.5-3.1-3.3
		c0-1.9,1.3-3.3,3.2-3.3c1.9,0,3.1,1.5,3.1,3.3C612.4,173.5,611.1,175,609.2,175z M609.2,170c-0.8,0-1.2,0.7-1.2,1.6
		c0,0.9,0.5,1.7,1.2,1.7c0.8,0,1.2-0.7,1.2-1.6C610.5,170.8,610,170,609.2,170z"/>
</g>
<g>
	<path class="st1" d="M561.6,243.3v-2.4h8.8v2.2l-3.3,3.1c1.8,0.3,3.5,1.2,3.5,3.7c0,2.5-1.8,4.3-4.7,4.3c-2.3,0-3.9-0.9-5.1-2.2
		l2-1.9c0.9,1,1.8,1.6,3.1,1.6c1.1,0,1.8-0.6,1.8-1.6c0-1.1-0.9-1.7-2.5-1.7h-1.2l-0.4-1.8l3.1-3.1H561.6z"/>
	<path class="st1" d="M573.6,253.8v-3h3v3H573.6z"/>
	<path class="st1" d="M581.7,240.7h1.9v13.1h-2.8v-10.2l-2.3,0.6l-0.6-2.3L581.7,240.7z"/>
	<path class="st1" d="M590.1,247.3c-1.9,0-3.1-1.5-3.1-3.3c0-1.9,1.3-3.3,3.2-3.3c1.9,0,3.1,1.5,3.1,3.3
		C593.2,245.8,592,247.3,590.1,247.3z M590.4,253.8h-2.2l9.5-13h2.2L590.4,253.8z M590.1,242.4c-0.8,0-1.2,0.7-1.2,1.6
		c0,0.9,0.5,1.7,1.2,1.7c0.8,0,1.2-0.7,1.2-1.6C591.3,243.1,590.8,242.4,590.1,242.4z M598.1,254c-1.9,0-3.1-1.5-3.1-3.3
		c0-1.9,1.3-3.3,3.2-3.3c1.9,0,3.1,1.5,3.1,3.3C601.2,252.5,599.9,254,598.1,254z M598.1,249c-0.8,0-1.2,0.7-1.2,1.6
		c0,0.9,0.5,1.7,1.2,1.7c0.8,0,1.2-0.7,1.2-1.6C599.3,249.8,598.8,249,598.1,249z"/>
</g>
<g>
</g>
<g>
	<path class="st3" d="M331.9,216.9c0.6-0.1,1-0.1,1.4-0.2c0-0.1,0-0.2,0-0.2c-0.4-0.1-0.8-0.1-1.6-0.3c0.3-1,0.6-2,0.8-3
		c0.1-0.2,0-0.6-0.1-0.7c-1-1.6-0.6-3.4-0.4-5c0.4-3.3,1.1-6.5,1.9-9.8c0.3-1.2,0.9-2.4,1.4-3.6c0.1-0.3,0.6-0.4,0.8-0.5
		c-0.2-0.2-0.5-0.6-0.5-0.7c0.9-1.2,0.8-3.1,2.2-4.1c0-0.1-0.2-0.4-0.1-0.5c0.7-1.1,1.5-2.2,2.2-3.3c0.2-0.3,0.4-0.7,0.6-1.1
		c1.6-3,3.8-5.6,6.3-7.9c1.7-1.6,3.4-3.2,5.2-4.6c1.6-1.3,3.4-2.5,5.2-3.5c1.7-1,3.5-2.1,5.4-2.7c2-0.7,3.9-1.9,6-2.4
		c2.1-0.5,4.3-1.2,6.4-1.4c3.6-0.4,7.3-0.4,11-0.5c1.4,0,2.8,0.1,4.2,0.2c0.6,0.1,1.7-0.1,1.1,1.3c0.3,0,0.5,0,0.8,0
		c-0.1-0.4-0.2-0.7-0.3-1.1c2.2,0.5,4.2,0.9,6.2,1.5c1.8,0.5,3.6,1.2,5.4,1.9c0.2,0.1,0.4,0.4,0.7,0.8c0.8-0.4,1.5,0,2.3,0.8
		c0.6,0.6,1.7,0.6,2.5,1.1c2.6,1.7,5.1,3.4,7.6,5.1c0.2,0.1,0.9,0.4,0.3,0.9c0,0,0.2,0.5,0.3,0.5c0.3,0,0.5-0.1,0.9-0.2
		c3.4,3.3,6.8,6.8,9.2,11.1c1.3,2.5,2.8,4.9,4,7.5c1.7,3.6,2.8,7.5,3.3,11.5c0.4,3.2,0.6,6.5,0.7,9.8c0.1,1.4-0.1,2.8-0.3,4.1
		c-0.1,0.7-0.6,1.4-0.9,2.2c0,0,0.2,0,0.6-0.1c-1,4.2-1.3,8.6-3.8,12.1c0.5,1.5-0.8,2.4-1.2,3.6c-0.5,1.2-0.8,2.7-2.8,2.4
		c0.1,0.1,0.1,0.3,0.2,0.4c0.3,0.1,0.6,0.2,0.8,0.4c0,0.1,0.1,0.2,0,0.2c-1.7,2.5-3.4,5-5.3,7.4c-0.9,1-1.8,2.2-2.9,3
		c-0.4,0.3-0.6,1.2-1.4,0.6c0,0-0.4,0.4-0.6,0.6c0.8,0.6-0.1,0.9-0.4,1.1c-1.1,0.9-2.4,1.5-3.5,2.5c-2.6,2.3-5.7,3.8-8.8,5.3
		c-4.2,2-8.6,3.4-13.3,4c-1.2,0.2-2.4,0.3-3.6,0.4c-0.8,0.1-1.5-0.1-2.3,0c-0.8,0-1.5,0.3-2.3,0.3c-1.6,0-3.3,0.1-4.9-0.3
		c-1.9-0.4-3.9-0.2-5.8-0.8c-2-0.6-4.1-0.9-6-1.6c-5.6-1.9-10.8-4.6-15.4-8.4c-2.5-2.1-4.9-4.4-7-6.8c-2-2.2-3.7-4.6-5.2-7.1
		c-3-4.8-5-10-6.2-15.6C332.5,221.2,332.2,219.1,331.9,216.9z M391.2,203.9c-0.9-0.9-2-0.3-2.6,1.8
		C389.6,205,390.4,204.5,391.2,203.9z M360.6,199.2c-0.8,0.3-1.4,0.4-1.9,0.7c-0.3,0.2-0.8,0.5-0.8,0.8c-0.1,0.3,0.3,0.7,0.4,0.9
		C359.2,200.7,359.8,200,360.6,199.2z M388.3,218.8c-0.2-1.2-0.7-1.1-1.4-0.9c-0.3,0.1-0.7,0.3-0.9,0.2c-0.6-0.4-0.5-0.4-0.8,0.4
		C386.2,218.6,387.2,218.7,388.3,218.8z M355.6,248.7c-0.4-1.3-0.4-1.3-1.8-0.3c0.1,0.4,0.2,0.8,0.3,1.3
		C354.7,249.3,355.1,249,355.6,248.7z M417.4,240.1c-0.1-0.6-0.2-1.2-0.3-1.9c-0.7,0.4-1.3,0.7-1.8,0.9c0.5,0.3,1,0.6,1.4,0.9
		c0,0.1-0.1,0.2-0.1,0.3C416.9,240.3,417.2,240.2,417.4,240.1z M395.2,205.4c0.8,0.2,1.6,0.4,2.3,0.5c-0.4-0.7-0.7-1.3-1.1-2
		C396,204.4,395.7,204.9,395.2,205.4z M382.7,239.7c1,0.2,1.7,0.3,2.8,0.6c-1.6-1-0.1-1.2,0.2-2
		C384.6,238.8,383.6,239.3,382.7,239.7z M367.4,235.6c0.2,0.3,0.3,0.4,0.4,0.6c0.2-0.2,0.4-0.3,0.5-0.5c0.1-0.2-0.1-0.5-0.2-0.9
		c0,0-0.3-0.1-0.5-0.2c-0.4,0.3-0.7,0.5-1,0.7c-0.1,0.1-0.2,0.4-0.3,0.6c0.2,0,0.4,0.2,0.6,0.1C367.1,236,367.2,235.8,367.4,235.6z
		 M390,179c0.1,0.1,0.2,0.2,0.4,0.3c0.5-0.7,1-1.4,1.6-2.3C390,176.7,390.7,178.4,390,179z M397.6,216.8c0,0.1,0,0.2,0.1,0.3
		c0.8-0.2,1.5-0.4,2.6-0.7c-0.8-0.4-1.3-0.6-1.7-0.8C398.2,216.1,397.9,216.4,397.6,216.8z M398.9,239.9c0.4-1.1,0.4-1.1-1.8-1.9
		C396.6,239.8,398.8,238.5,398.9,239.9z M402.6,243.1c0.2-0.2,0.5-0.4,0.8-0.5c-1.1-1.7-1.3-1.9-1.3-1.9
		C402.3,241.5,402.4,242.2,402.6,243.1z M353.7,225.2c0.8,0.2,1.5,0.4,2.3,0.5c0-0.1,0-0.2,0-0.3c-0.5-0.4-1-0.8-1.6-1.3
		C354.2,224.5,354,224.8,353.7,225.2z M427.2,210.2c-0.4-1.4-1-1.4-2.5-0.4c0.4,0.2,0.8,0.4,1.2,0.7
		C425.9,209.3,426.3,209.1,427.2,210.2z M398.7,205.9c1,1.1,1,1.1,1.8,0.1C399.7,205.2,399.7,205.2,398.7,205.9z M349.2,239.6
		c0.1-1,0.1-1.9,0.2-2.7c-0.1,0-0.2,0-0.3,0c-0.2,0.7-0.4,1.3-0.7,2.2C348.5,239,348.8,239.3,349.2,239.6z M419.9,231.9
		c0.4-0.2,0.7-0.4,1-0.6c-0.8-1.2-0.8-1.2-1.6-1C419.5,230.8,419.7,231.3,419.9,231.9z M336.8,229.5c0.1,0,0.2,0,0.3,0.1
		c0.1-0.3,0.3-0.7,0.1-0.9c-0.6-1.1-1.8-0.5-2.7-0.6c0.2,0.2,0.5,0.4,0.8,0.4c0.4,0,0.8,0,1.3-0.1
		C336.7,228.8,336.7,229.2,336.8,229.5z M375.3,164.8c0.4-0.6,0.7-0.9,0.9-1.2c0.1-0.1,0.1-0.3,0.1-0.4c0-0.1-0.2-0.2-0.3-0.2
		c-0.7-0.2-0.9,0.4-0.9,0.9C375.1,164.1,375.2,164.5,375.3,164.8z M396.5,169.3c0-0.1,0-0.2,0-0.4c-0.3,0.1-0.7,0.1-1,0.4
		c-0.3,0.2-0.4,0.6-0.5,0.9c-0.1,0.2-0.1,0.5-0.2,0.7c0.2-0.1,0.5-0.1,0.6-0.3C395.9,170.2,396.2,169.7,396.5,169.3z M337.7,190.4
		c-0.1,0.6-0.3,1-0.4,1.7c0.8-0.6,1.4-1,2.2-1.6C338.7,190.4,338.2,190.4,337.7,190.4z M382.6,194.5c0.5,0,1.1,0,1.7,0
		c0-0.1,0-0.1,0-0.2c-0.3-0.1-0.6-0.1-0.8-0.2c0.3-0.8,0-1.2-0.8-1C382.7,193.6,382.7,194,382.6,194.5z M335.3,224.7
		c1.3,0.2,1.4-0.6,1.2-1.6C335.9,223.5,335,223.5,335.3,224.7z M404.7,232.6c1,0.5,1.3-0.3,1.7-0.9c0.1-0.1-0.3-0.5-0.4-0.6
		C405.5,231.6,405.1,232.1,404.7,232.6z M426,208.4c1,0.1,1.8,0.1,2.7,0.2c0-0.1,0-0.2,0-0.3C426.3,207.9,426.3,207.9,426,208.4z
		 M379.9,248.3c0.6-0.1,1-0.1,1.1-0.1c0.1-0.7,0.1-1.1,0.2-1.6C379.9,246.5,380.4,247.6,379.9,248.3z M406.6,192.1
		c0.1-0.1,0.1-0.2,0.2-0.3c-0.1-0.3-0.2-0.5-0.3-0.8c-0.5,0.1-1,0.2-1.4,0.3c0,0.1-0.1,0.2-0.1,0.3
		C405.4,191.7,406,191.9,406.6,192.1z M374,188c0.4-0.6,0.6-1.1,0.8-1.5c0-0.1-0.1-0.2-0.1-0.3c-0.4,0.1-0.8,0.3-1.2,0.4
		C373.7,187,373.8,187.4,374,188z M344.3,188c-0.6-2.1-0.6-2.1-1.3-2C343.4,186.7,343.9,187.4,344.3,188z M360.4,177.4
		c0.6-0.1,1.1-0.2,1.7-0.2c-0.3-0.6-0.5-0.9-0.8-1.5C360.9,176.4,360.7,176.8,360.4,177.4z M380.7,210.8c0.2,0.3,0.5,0.7,0.5,0.6
		c0.6-0.3,1.2-0.6,1.7-0.9c-0.1-0.1-0.1-0.2-0.2-0.4C382.2,210.3,381.6,210.5,380.7,210.8z"/>
</g>
<g>
	<path class="st2" d="M351.5,191.1h13.1v3l-8.1,15.1h-4.5l8.1-14.7h-8.5V191.1z"/>
	<path class="st2" d="M368.6,191.1h13.1v3l-8.1,15.1H369l8.1-14.7h-8.5V191.1z"/>
	<path class="st2" d="M387.8,196.8l-2.8-2.3c1.8-2.4,3.5-3.8,6.8-3.8c3.9,0,6.2,2.2,6.2,5.6c0,3-1.6,4.6-4.8,7l-3,2.3h7.9v3.4h-13.4
		V206l6-4.9c2.3-1.9,3.1-2.8,3.1-4.4c0-1.5-1-2.4-2.4-2.4C390.1,194.4,389.2,195.1,387.8,196.8z"/>
	<path class="st2" d="M406.2,200.1c-2.6,0-4.4-2-4.4-4.6c0-2.6,1.8-4.7,4.4-4.7c2.6,0,4.4,2,4.4,4.6
		C410.7,198,408.9,200.1,406.2,200.1z M406.8,209.2h-3.1l13.2-18.1h3.1L406.8,209.2z M406.2,193.2c-1.1,0-1.7,1-1.7,2.3
		c0,1.2,0.7,2.3,1.7,2.3c1.1,0,1.7-1,1.7-2.3C407.9,194.3,407.3,193.2,406.2,193.2z M417.4,209.4c-2.6,0-4.4-2-4.4-4.6
		c0-2.6,1.8-4.7,4.4-4.7c2.6,0,4.4,2,4.4,4.6C421.8,207.3,420,209.4,417.4,209.4z M417.4,202.5c-1.1,0-1.7,1-1.7,2.3
		c0,1.2,0.7,2.3,1.7,2.3c1.1,0,1.7-1,1.7-2.3C419.1,203.5,418.4,202.5,417.4,202.5z"/>
</g>
<g>
	<path class="st2" d="M358.1,230.4h-5.3v-11.2h5.2c2.3,0,3.7,1.1,3.7,2.9v0c0,1.3-0.7,2-1.5,2.4c1.3,0.5,2.1,1.2,2.1,2.8v0
		C362.3,229.3,360.6,230.4,358.1,230.4z M359.2,222.5c0-0.7-0.6-1.2-1.6-1.2h-2.4v2.4h2.3C358.5,223.7,359.2,223.3,359.2,222.5
		L359.2,222.5z M359.8,226.9c0-0.8-0.6-1.2-1.8-1.2h-2.8v2.5h2.9C359.2,228.2,359.8,227.8,359.8,226.9L359.8,226.9z"/>
	<path class="st2" d="M364.9,230.4v-11.2h8.5v2.2h-6v2.3h5.3v2.2h-5.3v2.4h6.1v2.2H364.9z"/>
	<path class="st2" d="M381.4,221.4v8.9h-2.5v-8.9h-3.4v-2.3h9.3v2.3H381.4z"/>
	<path class="st2" d="M392.4,221.4v8.9h-2.5v-8.9h-3.4v-2.3h9.3v2.3H392.4z"/>
	<path class="st2" d="M398.3,230.4v-11.2h8.5v2.2h-6v2.3h5.3v2.2h-5.3v2.4h6.1v2.2H398.3z"/>
	<path class="st2" d="M416.5,230.4l-2.4-3.6h-1.9v3.6h-2.5v-11.2h5.1c2.6,0,4.2,1.4,4.2,3.7v0c0,1.8-1,2.9-2.4,3.5l2.7,4H416.5z
		 M416.5,223c0-1.1-0.7-1.6-1.9-1.6h-2.4v3.2h2.5C415.8,224.6,416.5,224,416.5,223L416.5,223z"/>
</g>
<g>
	<path class="st3" d="M659.2,216.9c0.6-0.1,1-0.1,1.4-0.2c0-0.1,0-0.2,0-0.2c-0.4-0.1-0.8-0.1-1.6-0.3c0.3-1,0.6-2,0.8-3
		c0.1-0.2,0-0.6-0.1-0.7c-1-1.6-0.6-3.4-0.4-5c0.4-3.3,1.1-6.5,1.9-9.8c0.3-1.2,0.9-2.4,1.4-3.6c0.1-0.3,0.6-0.4,0.8-0.5
		c-0.2-0.2-0.5-0.6-0.5-0.7c0.9-1.2,0.8-3.1,2.2-4.1c0-0.1-0.2-0.4-0.1-0.5c0.7-1.1,1.5-2.2,2.2-3.3c0.2-0.3,0.4-0.7,0.6-1.1
		c1.6-3,3.8-5.6,6.3-7.9c1.7-1.6,3.4-3.2,5.2-4.6c1.6-1.3,3.4-2.5,5.2-3.5c1.7-1,3.5-2.1,5.4-2.7c2-0.7,3.9-1.9,6-2.4
		c2.1-0.5,4.3-1.2,6.4-1.4c3.6-0.4,7.3-0.4,11-0.5c1.4,0,2.8,0.1,4.2,0.2c0.6,0.1,1.7-0.1,1.1,1.3c0.3,0,0.5,0,0.8,0
		c-0.1-0.4-0.2-0.7-0.3-1.1c2.2,0.5,4.2,0.9,6.2,1.5c1.8,0.5,3.6,1.2,5.4,1.9c0.2,0.1,0.4,0.4,0.7,0.8c0.8-0.4,1.5,0,2.3,0.8
		c0.6,0.6,1.7,0.6,2.5,1.1c2.6,1.7,5.1,3.4,7.6,5.1c0.2,0.1,0.9,0.4,0.3,0.9c0,0,0.2,0.5,0.3,0.5c0.3,0,0.5-0.1,0.9-0.2
		c3.4,3.3,6.8,6.8,9.2,11.1c1.3,2.5,2.8,4.9,4,7.5c1.7,3.6,2.8,7.5,3.3,11.5c0.4,3.2,0.6,6.5,0.7,9.8c0.1,1.4-0.1,2.8-0.3,4.1
		c-0.1,0.7-0.6,1.4-0.9,2.2c0,0,0.2,0,0.6-0.1c-1,4.2-1.3,8.6-3.8,12.1c0.5,1.5-0.8,2.4-1.2,3.6c-0.5,1.2-0.8,2.7-2.8,2.4
		c0.1,0.1,0.1,0.3,0.2,0.4c0.3,0.1,0.6,0.2,0.8,0.4c0,0.1,0.1,0.2,0,0.2c-1.7,2.5-3.4,5-5.3,7.4c-0.9,1-1.8,2.2-2.9,3
		c-0.4,0.3-0.6,1.2-1.4,0.6c0,0-0.4,0.4-0.6,0.6c0.8,0.6-0.1,0.9-0.4,1.1c-1.1,0.9-2.4,1.5-3.5,2.5c-2.6,2.3-5.7,3.8-8.8,5.3
		c-4.2,2-8.6,3.4-13.3,4c-1.2,0.2-2.4,0.3-3.6,0.4c-0.8,0.1-1.5-0.1-2.3,0c-0.8,0-1.5,0.3-2.3,0.3c-1.6,0-3.3,0.1-4.9-0.3
		c-1.9-0.4-3.9-0.2-5.8-0.8c-2-0.6-4.1-0.9-6-1.6c-5.6-1.9-10.8-4.6-15.4-8.4c-2.5-2.1-4.9-4.4-7-6.8c-2-2.2-3.7-4.6-5.2-7.1
		c-3-4.8-5-10-6.2-15.6C659.7,221.2,659.5,219.1,659.2,216.9z M718.5,203.9c-0.9-0.9-2-0.3-2.6,1.8
		C716.9,205,717.7,204.5,718.5,203.9z M687.9,199.2c-0.8,0.3-1.4,0.4-1.9,0.7c-0.3,0.2-0.8,0.5-0.8,0.8c-0.1,0.3,0.3,0.7,0.4,0.9
		C686.4,200.7,687.1,200,687.9,199.2z M715.5,218.8c-0.2-1.2-0.7-1.1-1.4-0.9c-0.3,0.1-0.7,0.3-0.9,0.2c-0.6-0.4-0.5-0.4-0.8,0.4
		C713.5,218.6,714.4,218.7,715.5,218.8z M682.9,248.7c-0.4-1.3-0.4-1.3-1.8-0.3c0.1,0.4,0.2,0.8,0.3,1.3
		C681.9,249.3,682.4,249,682.9,248.7z M744.7,240.1c-0.1-0.6-0.2-1.2-0.3-1.9c-0.7,0.4-1.3,0.7-1.8,0.9c0.5,0.3,1,0.6,1.4,0.9
		c0,0.1-0.1,0.2-0.1,0.3C744.2,240.3,744.5,240.2,744.7,240.1z M722.5,205.4c0.8,0.2,1.6,0.4,2.3,0.5c-0.4-0.7-0.7-1.3-1.1-2
		C723.3,204.4,722.9,204.9,722.5,205.4z M709.9,239.7c1,0.2,1.7,0.3,2.8,0.6c-1.6-1-0.1-1.2,0.2-2
		C711.8,238.8,710.9,239.3,709.9,239.7z M694.6,235.6c0.2,0.3,0.3,0.4,0.4,0.6c0.2-0.2,0.4-0.3,0.5-0.5c0.1-0.2-0.1-0.5-0.2-0.9
		c0,0-0.3-0.1-0.5-0.2c-0.4,0.3-0.7,0.5-1,0.7c-0.1,0.1-0.2,0.4-0.3,0.6c0.2,0,0.4,0.2,0.6,0.1C694.3,236,694.5,235.8,694.6,235.6z
		 M717.2,179c0.1,0.1,0.2,0.2,0.4,0.3c0.5-0.7,1-1.4,1.6-2.3C717.3,176.7,717.9,178.4,717.2,179z M724.8,216.8c0,0.1,0,0.2,0.1,0.3
		c0.8-0.2,1.5-0.4,2.6-0.7c-0.8-0.4-1.3-0.6-1.7-0.8C725.5,216.1,725.2,216.4,724.8,216.8z M726.1,239.9c0.4-1.1,0.4-1.1-1.8-1.9
		C723.9,239.8,726,238.5,726.1,239.9z M729.9,243.1c0.2-0.2,0.5-0.4,0.8-0.5c-1.1-1.7-1.3-1.9-1.3-1.9
		C729.5,241.5,729.7,242.2,729.9,243.1z M681,225.2c0.8,0.2,1.5,0.4,2.3,0.5c0-0.1,0-0.2,0-0.3c-0.5-0.4-1-0.8-1.6-1.3
		C681.5,224.5,681.2,224.8,681,225.2z M754.5,210.2c-0.4-1.4-1-1.4-2.5-0.4c0.4,0.2,0.8,0.4,1.2,0.7
		C753.2,209.3,753.5,209.1,754.5,210.2z M725.9,205.9c1,1.1,1,1.1,1.8,0.1C727,205.2,727,205.2,725.9,205.9z M676.5,239.6
		c0.1-1,0.1-1.9,0.2-2.7c-0.1,0-0.2,0-0.3,0c-0.2,0.7-0.4,1.3-0.7,2.2C675.8,239,676.1,239.3,676.5,239.6z M747.2,231.9
		c0.4-0.2,0.7-0.4,1-0.6c-0.8-1.2-0.8-1.2-1.6-1C746.8,230.8,747,231.3,747.2,231.9z M664,229.5c0.1,0,0.2,0,0.3,0.1
		c0.1-0.3,0.3-0.7,0.1-0.9c-0.6-1.1-1.8-0.5-2.7-0.6c0.2,0.2,0.5,0.4,0.8,0.4c0.4,0,0.8,0,1.3-0.1C663.9,228.8,664,229.2,664,229.5z
		 M702.6,164.8c0.4-0.6,0.7-0.9,0.9-1.2c0.1-0.1,0.1-0.3,0.1-0.4c0-0.1-0.2-0.2-0.3-0.2c-0.7-0.2-0.9,0.4-0.9,0.9
		C702.3,164.1,702.5,164.5,702.6,164.8z M723.8,169.3c0-0.1,0-0.2,0-0.4c-0.3,0.1-0.7,0.1-1,0.4c-0.3,0.2-0.4,0.6-0.5,0.9
		c-0.1,0.2-0.1,0.5-0.2,0.7c0.2-0.1,0.5-0.1,0.6-0.3C723.1,170.2,723.4,169.7,723.8,169.3z M665,190.4c-0.1,0.6-0.3,1-0.4,1.7
		c0.8-0.6,1.4-1,2.2-1.6C665.9,190.4,665.4,190.4,665,190.4z M709.9,194.5c0.5,0,1.1,0,1.7,0c0-0.1,0-0.1,0-0.2
		c-0.3-0.1-0.6-0.1-0.8-0.2c0.3-0.8,0-1.2-0.8-1C710,193.6,709.9,194,709.9,194.5z M662.6,224.7c1.3,0.2,1.4-0.6,1.2-1.6
		C663.2,223.5,662.3,223.5,662.6,224.7z M732,232.6c1,0.5,1.3-0.3,1.7-0.9c0.1-0.1-0.3-0.5-0.4-0.6
		C732.7,231.6,732.3,232.1,732,232.6z M753.2,208.4c1,0.1,1.8,0.1,2.7,0.2c0-0.1,0-0.2,0-0.3C753.6,207.9,753.6,207.9,753.2,208.4z
		 M707.1,248.3c0.6-0.1,1-0.1,1.1-0.1c0.1-0.7,0.1-1.1,0.2-1.6C707.2,246.5,707.6,247.6,707.1,248.3z M733.8,192.1
		c0.1-0.1,0.1-0.2,0.2-0.3c-0.1-0.3-0.2-0.5-0.3-0.8c-0.5,0.1-1,0.2-1.4,0.3c0,0.1-0.1,0.2-0.1,0.3
		C732.7,191.7,733.3,191.9,733.8,192.1z M701.3,188c0.4-0.6,0.6-1.1,0.8-1.5c0-0.1-0.1-0.2-0.1-0.3c-0.4,0.1-0.8,0.3-1.2,0.4
		C700.9,187,701.1,187.4,701.3,188z M671.5,188c-0.6-2.1-0.6-2.1-1.3-2C670.7,186.7,671.1,187.4,671.5,188z M687.6,177.4
		c0.6-0.1,1.1-0.2,1.7-0.2c-0.3-0.6-0.5-0.9-0.8-1.5C688.2,176.4,687.9,176.8,687.6,177.4z M707.9,210.8c0.2,0.3,0.5,0.7,0.5,0.6
		c0.6-0.3,1.2-0.6,1.7-0.9c-0.1-0.1-0.1-0.2-0.2-0.4C709.4,210.3,708.8,210.5,707.9,210.8z"/>
</g>
<g>
	<path class="st2" d="M677.4,194.5v-3.4h12.3v3l-4.6,4.4c2.5,0.4,4.9,1.7,4.9,5.1c0,3.4-2.5,6-6.5,6c-3.3,0-5.5-1.3-7.1-3.1l2.7-2.6
		c1.2,1.4,2.5,2.2,4.4,2.2c1.5,0,2.6-0.9,2.6-2.2c0-1.5-1.3-2.3-3.5-2.3h-1.7l-0.6-2.5l4.3-4.4H677.4z"/>
	<path class="st2" d="M706.6,190.9V202h2.4v3.2h-2.4v3.9h-3.8v-3.9h-8.9l-0.6-2.8l9.9-11.5H706.6z M702.8,196.4L698,202h4.8V196.4z"
		/>
	<path class="st2" d="M714.2,191.1h11.1v3.5h-7.7l-0.2,3.1c0.7-0.2,1.4-0.3,2.4-0.3c3.6,0,6.3,1.7,6.3,5.8c0,3.9-2.7,6.3-6.9,6.3
		c-2.9,0-5-1-6.8-2.7l2.4-2.9c1.4,1.2,2.7,2,4.3,2c1.9,0,3-0.9,3-2.5c0-1.6-1.3-2.5-3.2-2.5c-1.1,0-2.2,0.3-3,0.7l-2.3-1.5
		L714.2,191.1z"/>
	<path class="st2" d="M734.3,200.1c-2.6,0-4.4-2-4.4-4.6c0-2.6,1.8-4.7,4.4-4.7c2.6,0,4.4,2,4.4,4.6
		C738.7,198,736.9,200.1,734.3,200.1z M734.8,209.2h-3.1l13.2-18.1h3.1L734.8,209.2z M734.3,193.2c-1.1,0-1.7,1-1.7,2.3
		c0,1.2,0.7,2.3,1.7,2.3c1.1,0,1.7-1,1.7-2.3C736,194.3,735.3,193.2,734.3,193.2z M745.4,209.4c-2.6,0-4.4-2-4.4-4.6
		c0-2.6,1.8-4.7,4.4-4.7c2.6,0,4.4,2,4.4,4.6C749.8,207.3,748,209.4,745.4,209.4z M745.4,202.5c-1.1,0-1.7,1-1.7,2.3
		c0,1.2,0.7,2.3,1.7,2.3c1.1,0,1.7-1,1.7-2.3C747.1,203.5,746.4,202.5,745.4,202.5z"/>
</g>
<g>
	<path class="st2" d="M684.9,230.4h-5.3v-11.2h5.2c2.3,0,3.7,1.1,3.7,2.9v0c0,1.3-0.7,2-1.5,2.4c1.3,0.5,2.1,1.2,2.1,2.8v0
		C689.1,229.3,687.4,230.4,684.9,230.4z M686,222.5c0-0.7-0.6-1.2-1.6-1.2H682v2.4h2.3C685.3,223.7,686,223.3,686,222.5L686,222.5z
		 M686.6,226.9c0-0.8-0.6-1.2-1.8-1.2H682v2.5h2.9C686,228.2,686.6,227.8,686.6,226.9L686.6,226.9z"/>
	<path class="st2" d="M691.7,230.4v-11.2h8.5v2.2h-6v2.3h5.3v2.2h-5.3v2.4h6.1v2.2H691.7z"/>
	<path class="st2" d="M708.2,221.4v8.9h-2.5v-8.9h-3.4v-2.3h9.3v2.3H708.2z"/>
	<path class="st2" d="M719.2,221.4v8.9h-2.5v-8.9h-3.4v-2.3h9.3v2.3H719.2z"/>
	<path class="st2" d="M725.1,230.4v-11.2h8.5v2.2h-6v2.3h5.3v2.2h-5.3v2.4h6.1v2.2H725.1z"/>
	<path class="st2" d="M743.3,230.4l-2.4-3.6h-1.9v3.6h-2.5v-11.2h5.1c2.6,0,4.2,1.4,4.2,3.7v0c0,1.8-1,2.9-2.4,3.5l2.7,4H743.3z
		 M743.3,223c0-1.1-0.7-1.6-1.9-1.6h-2.4v3.2h2.5C742.6,224.6,743.3,224,743.3,223L743.3,223z"/>
</g>
</svg>
