<?xml version="1.0" encoding="utf-8"?>
<!-- Generator: Adobe Illustrator 19.1.0, SVG Export Plug-In . SVG Version: 6.00 Build 0)  -->
<svg version="1.1" id="Layer_1" xmlns="http://www.w3.org/2000/svg" xmlns:xlink="http://www.w3.org/1999/xlink" x="0px" y="0px"
	 viewBox="0 0 300 150" style="enable-background:new 0 0 300 150;" xml:space="preserve">
<style type="text/css">
	.st0{fill:#757576;}
	.st1{fill:#F37046;}
</style>
<g>
	<g>
		<path class="st0" d="M41.4,145.8c-1-1-0.6-2.4-0.4-3.5c0.3-2.5,0.8-4.9,1.4-7.3c1.1-4.4,3.1-8.4,5.2-12.5c0.3,0.1,0.6,0.3,0.9,0.4
			c0-0.1,0.2-0.3,0.1-0.3c-0.5-0.6-0.4-1.2,0.1-1.7c1.2-1.5,2.2-3,3.4-4.5c1.6-1.9,3.1-3.9,4.9-5.6c0.8-0.7,0.8-0.7,1.9-0.1
			c0.2-0.7,0.3-1.3,0.5-2.2c0.4,0.6,0.6,1,1.1,1.8c0.1-0.9,0-1.5,0.1-2c0.1-0.4,0.4-0.8,0.7-1c2.4-1.6,4.5-3.7,7.4-4.3
			c3.5-2.5,7.5-3.4,11.6-4.4c1.8-0.4,3.5-1.1,5.4-0.7c3.2-1.1,6.6-0.4,9.9-0.5c4-0.1,7.9,0.8,11.8,1.8c0.4,0.1,0.8,0.3,1.1,0.6
			c0.4,0.5,0.8,0.6,1.5,0.5c0.6-0.1,1.4,0.2,2,0.5c2.9,1.2,5.6,2.6,8.3,4.3c0.9,0.6,1.4,1.9,2.8,1.8c0.1,0,0.3,0.2,0.3,0.4
			c0.1,0.8,0.4,1.2,1.3,1c0.2,0,0.5,0.4,0.8,0.7c-0.3,0.2-0.6,0.5-0.8,0.7c0.6,0.7,1.2,0.7,1.8,0c4.7,4.2,8.7,8.8,11.7,14.2
			c0.3,0.6,1.1,1.2,0.4,2.1c-0.1,0.1,0.2,0.6,0.4,0.8c1.1,0.8,1.1,0.8,0,1.8c-0.1,0.1-0.1,0.2-0.2,0.5c0.3,0,0.5,0,0.7-0.1
			c0.7-0.3,1.1,0,1.3,0.6c0.9,3.2,1.8,6.4,2.7,9.6c0.1,0.4,0.3,0.7,0.3,1.1c0,0.4,0.4,1-0.4,1.2c0.1,0.3,0.1,0.9,0.2,0.9
			c0.7,0,0.6,0.5,0.6,0.9c0,1.6,0,3.2,0,4.7c0,1-0.5,1.4-1.5,1.4c-1.3,0-2.6-0.1-3.9-0.2c-0.7,0-1.3,0.2-2,0.2c-1.9,0-3.7,0-5.6,0
			c-0.9,0-1.7-0.2-2.5-1.1c-0.1,0.4-0.2,0.7-0.3,1.1c-3.1,0-6.2,0-9.3,0c-0.6,0-1.3-0.4-1.9-0.6c-0.2,1.1-1.1,0.6-1.6,0.6
			c-3.4,0-6.8-0.2-10.2-0.2c-1.2,0-2.3,0.2-3.5,0.3c-0.3-0.5-0.6-0.9-0.8-1.3c-0.3,0.2-0.6,0.4-0.8,0.6c-1,0.8-1,0.8-2,0
			c-0.2-0.2-0.6-0.1-1-0.1c0,0.2,0,0.5,0,0.8c-3,0-6,0-9.1,0c-0.7,0-1.2-0.1-1.2-1.1c-0.8,0.9-1.3,1.7-2.3,0.6
			c-0.3-0.4-1.2-0.2-2-0.4c0.2,0.4,0.4,0.6,0.5,0.9c-9.6,0-19.2,0.1-28.7-0.1c-2.6,0-5.1,0.2-7.7,0.1c-1.6-0.1-3.2,0-4.8,0
			c-0.9,0-1.3-0.3-1.2-1.2C41,147.4,41.2,146.7,41.4,145.8z M114.9,136.8c0,0.1,0,0.2,0.1,0.3c1.5,0.3,3,0.5,4.9,0.9
			c-0.3-0.7-0.4-1.4-0.6-1.4c-1.2-0.1-2.5-0.2-3.7-0.2C115.3,136.4,115.1,136.7,114.9,136.8z M99.1,130.7c0.1,0.1,0.1,0.2,0.2,0.3
			c1.1,0,2.2,0,3.3,0c0-0.4,0.1-0.7,0-1c-0.2-0.3-0.5-0.8-0.8-0.8c-0.3-0.1-0.7,0.3-1,0.5c-0.3,0.2-0.6,0.3-0.9,0.5
			C99.7,130.3,99.4,130.5,99.1,130.7z M120.5,123.3c0.1-0.1,0.1-0.2,0.2-0.3c-0.3-0.4-0.6-0.8-0.9-1.1c0.3-0.3,0.6-0.7,0.9-1
			c-0.7,0.4-2.1-1.1-2.1,0.6c0,0.5,0.4,1.2,0.8,1.6C119.5,123.3,120.1,123.2,120.5,123.3z M125.3,115.7c0.8,1.8,2.3,1.3,3.4,1.7
			c0.1-0.2,0.1-0.3,0.1-0.4c-0.2-1.6-2.1-0.3-2.5-1.5C126.2,115.4,125.7,115.6,125.3,115.7z"/>
		<path class="st0" d="M115.1,37c-0.2,0.5-0.3,0.8-0.5,1.5c0.7-0.1,1.2-0.1,1.8-0.1c0.2,1,1.7,1.3,1.4,2.6c0,0.1,0.5,0.2,0.7,0.3
			c1.1,0.6,1.8,2.1,1.3,3.2c1.9,0.4,2.2,2.2,2.8,3.6c0.7,1.6,1.3,3.2,1.5,5c0.2,1.3,0.8,2.7,0.7,4.1c-0.3,0.2-0.6,0.4-0.9,0.5
			c0.4,0.3,0.7,0.5,1.3,0.9c-0.2,0.3-0.5,0.6-0.8,1c1,1.3,1,1.3,0.2,2.2c0.7,0.7,0.9,1.4,0.3,2.4c-0.4,0.7-0.1,1.7-0.3,2.6
			c-0.3,1.3-0.6,2.6-1,3.9c-0.3,0.8-0.8,1.5-1,2.4c-0.1,0.8-0.7,1.6-1.1,2.4c-0.4,0.8-0.9,1.7-1.4,2.5c-0.5,0.7-1,1.4-1.6,2.2
			c-0.6,0.8-1.1,1.5-1.8,2.2c-0.6,0.7-1.2,1.3-1.9,1.9c-2.9,2.4-5.8,4.6-9.3,6.1c-2,0.8-4,1.4-6,1.9c-0.4,0.1-0.8,0-1.5-0.1
			c-0.7,0.9-1.8,1-3.1,0.3c-0.2-0.1-0.6,0-0.8,0c-1,0.3-1.9,0.7-2.8,0c-0.1-0.1-0.4-0.1-0.4-0.1c-1.4,1.2-3,0.2-4.4,0
			c-1.6-0.2-3.2-0.8-4.8-1.3c-0.7-0.2-1.5-0.5-1.4-1.6c-1.5,0.4-2.6-0.1-3.7-0.9c-1.3-0.9-2.6-1.7-4-2.6c0.4-0.3,0.7-0.5,1.2-0.9
			C73,85.1,72.5,85,72,84.9c-1.5-0.2-1.6-0.3-2-1.9c-0.1-0.3-0.5-0.8-0.7-0.7c-1.1,0.2-1.6-0.6-2.1-1.2c-0.7-0.9-1.4-1.9-2.1-2.9
			c0.8-0.4,1.8-0.7,1.8-1.9c-1.2-0.8-1.1,1.3-2.3,1c-0.2-0.2-0.5-0.6-0.7-1c-1.2-2.6-2.6-5-3.1-7.8c-0.2-1.3-0.4-2.6-0.6-4
			c-0.2-1.9-0.4-3.7-0.3-5.6c0.2-2.4,0.5-4.9,1.1-7.3c0.9-3.4,2.4-6.5,4.4-9.3c0.5-0.7,0.9-1.5,1.5-2.1c0.3-0.3,0.8-0.6,1.2-0.6
			c1-0.1,1.8-0.5,2.4-1.7c-0.6,0.2-0.9,0.2-1.3,0.3c0-0.2,0-0.4,0.1-0.5c3-3.2,6.5-5.5,10.5-7.3c2.7-1.2,5.5-1.8,8.3-2.3
			c0.5-0.1,1,0.4,1.7,0.6c0.2-0.1,0.7-0.6,1.1-0.6c2.6,0,5.2-0.3,7.8,0.5c-0.6,0.1-1.6-0.3-1.2,1.2c0.6-0.1,1.2-0.1,1.5-0.4
			c0.7-0.7,1.5-0.5,2.2-0.2c1.7,0.6,3.6,0.9,4.9,2.4c0,0,0.1,0.1,0.1,0.1c1.8,0,3,1.1,4.3,2c1.4,0.9,2.7,2,4,3
			C114.8,36.7,114.9,36.8,115.1,37z M93.3,38.5c0.6,0.1,1,0.2,1.4,0.2c0.1-1,1-0.6,1.5-0.8c0.6-0.2,1.3-0.3,1.6-1.3
			C96.2,36.8,94.6,36.8,93.3,38.5z M88.8,41.1c-1-1.9-1.4-2.1-3.2-1.5c0,0.4,0,0.7,0,1C86.7,40.8,87.7,40.9,88.8,41.1z M119.9,72.4
			c-0.3-0.1-0.6-0.3-0.9-0.4c-0.7-0.1-1.6,0.4-2-0.6c0,0-0.6,0.1-0.6,0.3c-0.1,0.2,0,0.8,0.1,0.8c0.6,0.3,1.4,0.4,2,0.7
			C119.2,73.4,119.6,73.1,119.9,72.4z M84.6,62.1c0.4-0.9-0.3-1.1-0.9-1.2c-0.5-0.1-0.9,0-1.3-0.4c-0.7-0.8-1-0.1-1.3,0.4
			C82.7,62,83.2,62.2,84.6,62.1z"/>
	</g>
	<g>
		<path class="st1" d="M225,55.2c-0.4,0-0.7,0-1,0c0,0.1,0,0.4,0.1,0.4c0.9,0.2,0.6,0.6,0.3,1.2c-0.5,0.9-0.8,2-1.5,2.8
			c-0.6,0.8-0.7,1.7-1.3,2.5c-0.6,0.8-1.1,1.8-1.6,2.7c-0.6,1-1.3,2.1-2,3.2c-0.1-0.1-0.2-0.3-0.5-0.6c-0.1,0.4-0.3,0.7-0.2,0.9
			c0.3,0.5,0.2,0.8-0.1,1.2c-0.7,0.9-1.3,1.9-1.9,2.8c-0.4,0.7-0.7,1.6-1.1,2.3c-0.2,0.3-0.2,0.8-0.8,0.6c0,0-0.2,0.2-0.2,0.2
			c0.6,1-0.4,1.5-0.8,2.2c-2.7,4.6-5.5,9.2-8.3,13.8c-2.1,3.5-4.3,7.1-6.4,10.6c-0.1,0.2-0.4,0.3-0.6,0.5c0,0.2,0,0.5-0.1,0.7
			c-0.4,0.6-0.9,1-1.2,1.6c-0.5,0.9-0.9,1.9-1.4,2.8c-1.7,3-3.5,5.9-5.2,8.8c-0.2,0.4-0.6,0.6-0.8,1.1c-0.3,0.7-1.1,0.7-1.5,0
			c-0.4-0.5-0.8-1.1-1.1-1.6c-1.8-3.2-3.7-6.5-5.5-9.7c-1.4-2.4-2.8-4.8-4.2-7.3c-0.2-0.4-0.4-0.9-0.6-1.3c0.1,0,0.3-0.1,0.5-0.1
			c-1.3-0.1-1.3-1.5-1.9-2.2c-0.4-0.5-0.7-1.2-1-1.8c-1.5-2.7-3.1-5.3-4.6-8c-0.7-1.2-1.5-2.4-2.1-3.6c-0.6-1.3-1.5-2.4-2.1-3.6
			c-0.7-1.3-1.4-2.5-2.2-3.8c-1.4-2.4-2.8-4.9-4.2-7.3c-0.1-0.2-0.3-0.5-0.4-0.7c-0.1-0.4-0.2-0.8-0.3-1.3c-0.9-0.1-1.1-1.2-1.6-1.9
			c0.2-0.1,0.4-0.1,0.6-0.2c-0.9,0-1.2-0.6-1.4-1.3c0.1,0,0.2-0.1,0.4-0.2c0-0.1-0.1-0.1-0.1-0.1c-0.8,0.1-0.8-0.6-1.1-1
			c-0.4-0.6-0.7-1.3-1-2c-0.1-0.2,0-0.5,0-0.8c-0.1,0-0.2,0.1-0.4,0.2c-1.2-2.5-2.2-5-2.8-7.8c0.4,0,0.6,0,0.8-0.1
			c0-0.1,0-0.2-0.1-0.2c-0.2-0.1-0.5-0.1-0.9-0.2c-0.2-0.8-0.5-1.8-0.6-2.9c-0.2-2.1-0.3-4.3-0.4-6.4c0-0.6-0.2-1.3,0.8-1.4
			c-0.2,0-0.4-0.1-0.6-0.2c0.1-1.5,0.2-3,0.4-4.5c0-0.2,0.5-0.4,0.8-0.8c-0.2-0.1-0.4-0.1-0.7-0.2c0.2-0.7,0.3-1.4,0.5-2.2
			c0.3-1,0.7-1.9,1-2.9c0.1-0.3,0-0.6,0.1-0.8c0.1-0.4,0.4-0.7,0.6-1c0-0.3,0-0.6,0.1-0.8c0.3-0.8,0.6-1.6,1.1-2.4
			c0.6-1,1.4-1.9,1.8-2.9c0.5-1.3,1.3-2.3,2-3.3c0.2-0.3,0.6-0.6,0.9-0.9c0.1-0.2,0.1-0.5,0.3-0.6c1.6-1.7,3.2-3.5,4.9-5.1
			c1.3-1.2,2.8-2.4,4.3-3.3c2.2-1.3,4.6-2.5,7-3.5c0.6-0.3,1.5,0.1,1.9-0.7c0.1,0.1,0.3,0.2,0.4,0.3c0.2,0.1,0.4,0.2,0.6,0.4
			c0-0.4,0-0.6,0.1-1.1c2-0.3,4-0.7,6.1-0.9c1.9-0.2,3.8-0.4,5.7-0.5c1.2-0.1,2.4,0,3.6,0.1c0.2,0,0.3,0.2,0.4,0.4
			c0.1,0.2,0.2,0.4,0.2,0.5c0.4-0.3,0.8-0.8,1-0.7c1,0.5,2,0.1,3,0.5c0.4,0.1,0.8,0.3,1.2,0.4c-0.2,1,0.1,1.4,0.8,1.4
			c0-0.1,0-0.1,0-0.2c-0.1-0.3-0.3-0.6-0.4-0.9c0.3,0,0.7-0.1,1,0c1.4,0.5,2.7,1,4.1,1.6c1.6,0.7,3.2,1.4,4.7,2.1
			c0.7,0.3,1.3,0.7,1.9,1.1c1,0.7,2.1,1.4,3.1,2.2c1.1,0.9,2.1,1.8,3.1,2.7c0.3,0.2,0.4,0.7,0.6,1c0.1,0,0.4,0,0.5,0.1
			c1.6,2.1,3.2,4.1,4.7,6.2c1,1.4,1.8,2.9,2.5,4.5c0.7,1.4,1.2,3,1.8,4.5c0,0.1,0.1,0.1,0.1,0.1c-0.4,0.6-0.1,1,0.4,1.5
			c0.2,0.2-0.5,1-1,1c0,0.1,0,0.2,0,0.2c0.4-0.1,0.7-0.1,1.3-0.2c0.1,0.6,0.4,1.4,0.5,2.2c0.2,1.7,0.3,3.5,0.5,5.2
			c0,0.3,0.2,0.6,0.1,0.9c0,0.2-0.2,0.5-0.2,0.7c0,0.1-0.1,0.2-0.1,0.3c0.6,0.6,0.2,1.3,0.2,2c-0.1,0.9,0,1.9-0.2,2.8
			c-0.4,2.2-0.8,4.4-1.3,6.6C225.9,52.7,225.4,53.9,225,55.2z M179.1,70.9c-0.1,0.2-0.2,0.7-0.3,0.7c-0.3,0-0.5-0.2-0.8-0.3
			c0,0.1-0.1,0.1-0.1,0.2c0.6,0.1,0.4,1.3,1.3,1.2c0.1-0.3,0.1-0.6,0.2-0.9C179.6,71.3,179.6,71.3,179.1,70.9z M173.6,11.8
			c0.1,0,0.1,0.1,0.2,0.1c0.1-0.6,0.2-1.1,0.3-1.7c-0.4,0-0.7-0.1-1.1-0.1C173.2,10.8,173.4,11.3,173.6,11.8z M164.2,68.8
			c-0.2,0.2-0.5,0.5-0.9,0.8c0.4,0.2,0.6,0.2,0.8,0.3c0-0.2,0-0.4,0-0.5c0.1-0.2,0.4-0.4,0.4-0.6c0.1-0.3,0.3-1-0.3-0.8
			c-0.4,0.1-0.6-0.2-1,0C163.6,68.4,163.9,68.6,164.2,68.8z M202.5,50.8c-0.8,1-0.8,1-0.5,0.9c0.4-0.2,0.7-0.5,1.1-0.7
			c0.1,0.1,0.1,0.1,0.2,0.2C203,51.1,202.7,51,202.5,50.8z M177.6,6.9c0.4-0.1,0.8-0.2,1.2-0.3c0-0.4,0-0.8,0-1.4
			c-0.2,0.5-0.3,0.7-0.4,1c-0.3,0-0.6,0-0.9,0C177.6,6.4,177.6,6.6,177.6,6.9z M218.5,23.8c0.2,0.1,0.5,0.1,0.7,0.2
			c0.2,0,0.4,0,0.6,0c0-0.2,0-0.4-0.1-0.5c-0.2-0.2-0.4-0.5-0.6-0.7C218.9,23.2,218.7,23.5,218.5,23.8z M195.2,87.5
			c0-0.5,0.1-0.9,0-1.2c-0.1-0.2-0.3-0.5-0.5-0.6c0,0-0.4,0.1-0.4,0.3c0,0.2,0.1,0.4,0.1,0.6c0.5-0.2,0.4,0.2,0.4,0.4
			C194.9,87.1,195,87.3,195.2,87.5z M196.3,85.5c0.2-0.3,0.4-0.6,0.6-0.9c-0.5-0.3-0.9-0.5-1.5-0.9C195.8,84.5,196,84.9,196.3,85.5z
			 M161.3,64.6c0.5,0.3,1,0.5,1.5,0.7c0-0.1,0.1-0.1,0.1-0.2c-0.2-0.1-0.4-0.3-0.6-0.4c0.1-0.3,0.1-0.7,0.2-1.1
			C162,64.1,161.6,64.4,161.3,64.6z M157.2,34.4c0.2,0.3,0.3,0.5,0.5,0.7c0.1,0.1,0.4,0,0.6,0c0-0.1,0-0.1,0-0.2
			c-0.2-0.1-0.3-0.2-0.7-0.3c0.5-0.2,0.9-0.3,1.3-0.5c0-0.1-0.1-0.2-0.1-0.2C158.4,34,157.9,34.2,157.2,34.4z M171,45.7
			c0.5-0.2,0.9-0.4,1.5-0.6c-0.5-0.2-1-0.3-1.4-0.5c0,0.3,0,0.6,0,0.8C171,45.5,171,45.6,171,45.7z M186.6,75.2c0,0.4,0,0.7-0.1,1.1
			c0.1,0,0.2,0,0.3,0c0.2-0.2,0.3-0.4,0.5-0.6c0.1,0,0.1,0,0.2,0c0.2,0.1,0.3,0.1,0.5,0.2c0-0.1,0.1-0.2,0.1-0.3
			c-0.2,0-0.3,0-0.5-0.1C187.3,75.4,187,75.3,186.6,75.2z M192.4,39.3c1,0,1-0.2,0.1-1.4C192.5,38.3,192.5,38.7,192.4,39.3z
			 M188,22.5c-0.1,0.1-0.1,0.2-0.2,0.2c0.6,0.4,1.1,0.7,1.7,1.1c0.1-0.1,0.1-0.2,0.2-0.3C189.2,23,188.5,22.8,188,22.5z M171.3,82.1
			c0-0.3-0.1-0.5,0-0.7c0.4-0.5,0.2-0.8-0.2-1.1C170.7,80.9,170.4,81.5,171.3,82.1z M184.1,5.3c-0.1,0-0.1,0-0.2-0.1
			c-0.4,0.5-0.7,0.9-1.1,1.4c0.4-0.1,0.7-0.2,1.2-0.3C184,6,184.1,5.6,184.1,5.3z M208.8,80.7c-0.4,0.4-0.8,0.6-0.9,0.9
			c-0.1,0.1,0.2,0.5,0.3,0.7c0,0,0.4,0,0.4-0.1C208.6,81.8,208.7,81.3,208.8,80.7z M211.7,43.6c0-0.1,0-0.2,0.1-0.2
			c-0.4-0.4-0.8-0.7-1.3-1.1c0.1,0.5,0.3,1,0.5,1.3C211.2,43.7,211.5,43.6,211.7,43.6z M195.2,72.7c0.1,0,0.1,0,0.2,0
			c0.3-0.4,0.7-0.7,1.1-1.2c-0.4,0-0.9-0.2-0.9-0.1C195.4,71.8,195.3,72.2,195.2,72.7z M174.1,66c-0.1-0.7-0.4-0.8-1.8-0.2
			C173,65.9,173.5,65.9,174.1,66z M219.6,53.7c0.1-0.1,0.2-0.1,0.3-0.2c-0.2-0.4-0.4-0.8-0.6-1.2c0-0.1-0.3,0-0.5,0.1
			C219.1,52.8,219.4,53.2,219.6,53.7z M174.3,78.5c0.4-0.4,0.6-0.7,1-1.1c-0.6,0-0.9-0.1-1.3-0.1C174,77.7,174.1,78,174.3,78.5z
			 M169.7,86.6c0.6,0.8,1.2,0.7,1.8,0.1C170.9,86.7,170.4,86.6,169.7,86.6z M158.1,30.3c-0.3,0.3-0.6,0.4-0.7,0.6
			c0.4,0.2,0.7,0.4,1,0.6c0.1-0.1,0.4-0.2,0.8-0.4c-0.5-0.1-0.7-0.1-1-0.2C158.2,30.8,158.2,30.6,158.1,30.3z M198.3,41.4
			c0,0.1,0,0.3,0,0.4c0.7-0.1,1.4-0.2,2-0.3c0-0.1,0-0.2,0-0.3C199.7,41.3,199,41.4,198.3,41.4z M190.6,60.4
			c0.1-0.2,0.1-0.3,0.1-0.5c0-0.1-0.1-0.3-0.2-0.3c-0.1,0-0.3,0.2-0.3,0.2c0.1,0.4,0.2,0.7,0.4,1c0.1,0.2,0.5,0.2,0.7,0.3
			c0-0.1,0-0.1,0.1-0.2C191.2,60.8,190.9,60.6,190.6,60.4z M171.3,61.2c0.6,0.6,1-0.2,1.5-0.3c0.1,0,0.3-0.1,0.4-0.2
			c0,0-0.1-0.3-0.1-0.3c-0.2,0-0.3,0.1-0.4,0.1C172.1,60.7,171.7,60.9,171.3,61.2z M189.7,27.1c0.1,0,0.2,0.1,0.3,0.1
			c0.1-0.3,0.3-0.5,0.4-0.8c0.1-0.1,0.1-0.3,0.2-0.4c-0.2,0-0.6-0.1-0.6,0C189.8,26.4,189.7,26.8,189.7,27.1z M177.9,25.1
			c-0.1-0.3-0.1-0.6-0.3-0.8c-0.1-0.1-0.3-0.1-0.5-0.1c0,0.1,0,0.3,0,0.4c0,0.3,0,0.5,0,0.8C177.3,25.3,177.5,25.2,177.9,25.1z
			 M155.5,43c0,0.1,0.1,0.2,0.1,0.3c0.3-0.2,0.6-0.4,0.9-0.6c0,0-0.2-0.4-0.3-0.6c-0.1-0.1-0.3,0-0.5,0c0.2,0.3,0.3,0.5,0.4,0.7
			C155.8,42.8,155.6,42.9,155.5,43z M187.1,51.4c-0.4-0.1-0.6-0.1-0.8-0.2c-0.1,0.4-0.1,0.8-0.2,1.2c0.2,0.1,0.4,0.2,0.7,0.3
			c0.1,0,0.1-0.1,0.2-0.1C186.2,52.2,186.6,51.8,187.1,51.4z M183.8,15.8c0.5,0,1-0.1,1.5-0.1C184.6,15,184.1,15,183.8,15.8z
			 M209.3,43.7c-0.6-0.2-1.1-0.4-1.6-0.6c0,0.1-0.1,0.2-0.1,0.3C208.1,43.6,208.3,44.4,209.3,43.7z M220.2,36
			c-0.1-0.1-0.2-0.2-0.3-0.4c-0.3,0.2-0.5,0.4-0.8,0.7c0,0,0.2,0.3,0.3,0.4C219.6,36.5,219.9,36.3,220.2,36z M191.6,64.1
			c-0.2,0.4-1.3,0.2-0.9,1.2C191,64.9,191.8,64.9,191.6,64.1z M199.5,19.6c-0.1,0.1-0.2,0.1-0.3,0.2c-0.1,0.6,0.1,1,0.8,1.2
			C199.9,20.4,199.7,20,199.5,19.6z"/>
		<path class="st0" d="M232.4,130.5c-1.1-0.2-1.1-0.7-0.8-1.4c0.7-1.8,1.4-3.7,2.1-5.5c0.8-2.3,1.5-4.5,2.2-6.8
			c0.1-0.3,0.4-0.5,0.7-0.8c0-0.2-0.1-0.7,0-1.1c0.1-0.4,0-0.9,0.7-0.9c-0.1-0.3-0.6-0.8,0.2-0.9c0-0.1-0.1-0.2-0.1-0.3
			c0-0.3,0.1-0.6,0.1-0.8c0.4,0.1,0.8,0.2,1.4,0.4c-0.6-0.5-1.1-0.7-0.6-1.3c-0.7-0.9,0-1.4,0.5-2c0.3-0.4,0-0.8,0.1-1.1
			c0.4-1.3,0.7-2.7,1.3-3.9c0.7-1.6,1-3.3,1.6-4.9c0.6-1.7,1.2-3.4,1.8-5.1c0.3-0.7,0.5-1.5,0.7-2.3c0.3-0.9,0.5-1.8,1.4-2.3
			c-0.2,0.1-0.4,0.2-0.6,0.3c0.2-0.7,0.4-1.3,0.6-2c0.2,0,0.3,0.1,0.6,0.2c0.1-0.6-1-1.7,0.8-1.7c-0.1-0.2-0.2-0.4-0.3-0.5
			c-0.1,0-0.2,0-0.3,0.1c0.4-1,0.2-2.3,1.7-2.8c-0.2-0.1-0.3-0.2-0.3-0.2c-0.1,0-0.2,0-0.4-0.1c0.6-1.5,1.2-2.9,1.7-4.4
			c0.6-1.8,1.1-3.7,1.7-5.5c0.3-1,0.7-2.1,1-3.1c0.3-1,1-1.4,2-1.1c1.5,0.5,3,1,4.4,1.5c1,0.3,1,0.5,0.8,1.5
			c-0.5,2.8-1.6,5.5-2.6,8.1c-0.6,1.5-0.9,3-1.4,4.5c-0.4,1.1-0.8,2.3-1.2,3.4c-0.3,0.9-0.5,0.9-1.1,0.4c-0.1,0.1-0.3,0.2-0.4,0.3
			c-0.1,0.1-0.3,0.2-0.5,0.4c0.7,0,1.2,0,1.7,0c-0.3,0.8-0.4,1.5-0.7,2c-0.6,1-0.6,2.2-1.1,3.3c-0.5,1.2-0.9,2.5-1.3,3.7
			c-0.4,1.2-0.8,2.5-1.3,3.7c-1.1,3.1-2.1,6.3-3.3,9.4c-0.2,0.4-0.3,0.8-0.4,1.2c-0.2,0.8-0.3,1.7-1.7,1.7c0.9,0.5,0.8,0.9,0.6,1.5
			c-0.7,2-1.4,4.1-2.1,6.2c-1.5,4.4-3,8.7-4.5,13c-0.2,0.6-0.4,1.2-0.7,1.8c-0.1,0.2-0.3,0.4-0.5,0.6c0,0.3,0,0.8-0.1,1.1
			c-0.3,0.8-0.6,1.5-1,2.2c-0.3,0.6-0.9,0.6-1.5,0.4c-0.6-0.2-1.1-0.4-1.6-0.6c-0.2-0.1-0.3-0.3-0.4-0.4c-0.2-0.1-0.4-0.1-0.7-0.2
			c-0.1,0-0.2,0.1-0.3,0.1c-0.8-0.3-1.6-0.7-2.5-1c0.1-0.1,0.2-0.1,0.3-0.2c-0.1-0.4-0.2-0.8-0.2-1.2c0-0.2,0.1-0.4,0.1-0.6
			c0.6-1.8,1.2-3.6,1.8-5.3c0.2-0.6,0.3-1.2,1.2-0.7C232,130.8,232.1,130.7,232.4,130.5z M233,129.5c0,0.2,0,0.5,0.1,0.7
			c0.1-0.1,0.1-0.1,0.2-0.2c0.3,0.2,0.6,0.4,0.9,0.6c0.1,0.1,0.1,0.2,0.2,0.3c0.1-0.1,0.2-0.3,0.2-0.3
			C234.2,130,234,129.3,233,129.5z M237.2,122.8c1.2,0.3,1.6,0.1,1.9-0.8C238.4,122.3,237.9,122.5,237.2,122.8z M249.8,87.7
			c-1.1-0.5-1.1-0.5-1.4,0C248.8,87.7,249.3,87.7,249.8,87.7z"/>
		<path class="st0" d="M172.8,148.7c0,0.2,0,0.4,0.1,0.6c0,0-0.1,0-0.2,0c-1-0.5-1.9,0.1-2.9,0c-1.5-0.2-3.1-0.2-4.7-0.2
			c-1.1,0-2.2,0.2-3.3,0.3c-0.1-0.1-0.1-0.2-0.2-0.3c0.2-0.1,0.4-0.3,0.7-0.4c-0.5-0.2-0.7-0.5-1,0.1c-0.3,0.7-1.3,0.6-1.7,0
			c-0.1,0.2-0.1,0.3-0.1,0.3c-0.7,0.1-1.3,0.2-1.8,0.1c-0.5-0.1-1-0.3-1.5-0.5c0,0.1-0.1,0.1-0.1,0.2c0.1,0.1,0.2,0.2,0.3,0.2
			c0,0-0.1,0.1-0.1,0.1c-0.4-0.2-0.7-0.5-1.1-0.7c0,0.2,0,0.4,0,0.7c-1.3-0.1-2.7-0.1-4-0.2c-0.5,0-0.9-0.4-0.9-1c0-0.4,0-0.7,0-1.1
			c0-0.2,0.2-0.4,0.3-0.5c-0.1-0.3-0.4-0.7-0.4-1c0-0.9,0.1-1.7,0.1-2.6c0-0.8,0.3-1.2,1.1-1.2c2.3,0,4.6,0,6.9,0
			c1.8,0,3.7-0.1,5.5-0.1c1.4,0,2.7,0.1,4.1,0.1c1.5,0,3-0.1,4.5-0.1c1.6,0,3.2,0,4.8,0c0.3,0,0.5,0.2,0.7,0.3
			c0.8-0.1,1.5-0.2,2.2-0.3c3.5,0,7,0,10.3,0c0.2,0.3,0.3,0.4,0.4,0.6c0,0,0.2-0.1,0.2-0.1c-0.1-0.1-0.1-0.3-0.2-0.5
			c3.5,0,7,0,10.6,0c0,0,0,0.1,0,0.1c0,0.1,0,0.1,0,0.2c0.3-0.1,0.6-0.3,1-0.3c3.2,0,6.4,0.1,9.6,0.1c1.2,0,2.5-0.2,3.7-0.1
			c1.8,0.1,3.6-0.1,5.3,0c0.9,0,1.8,0.1,2.7,0.2c0.4,0,0.5,0.2,0.7,0.7c0.6,1.8,0.2,3.6,0.3,5.4c0.1,1-0.3,1.3-1.3,1.3
			c-0.5,0-1,0.3-1.5,0.1c-0.7-0.2-1.4,0.1-2,0c-0.4-0.1-0.9-0.2-1.3-0.3c-0.2,0-0.3,0-0.5,0c0,0.1,0.1,0.2,0.1,0.4
			c-2.6,0-5.2,0.1-7.8,0c-1.3-0.1-2.5,0.1-3.8,0c-1.3-0.1-2.7,0-4,0c-1.4,0-2.7,0-4.1,0c-1.4,0-2.7,0-4.1,0c-0.4,0-0.7-0.2-1.1-0.2
			c-0.2,0-0.4,0.2-0.7,0.2c-0.8,0-1.5,0-2.3,0c-0.3,0-0.6,0-0.8,0c-0.2,0-0.3-0.2-0.5-0.3c-0.1-0.1-0.3-0.1-0.5-0.1
			c-0.1,0.6-0.5,0.4-0.9,0.4c-2.3,0-4.5,0-6.8,0c-0.9,0-1.7,0-2.6,0c-0.2,0-0.4-0.2-0.7-0.3c-0.1-0.1-0.4-0.1-0.4-0.1
			c-0.2,0.7-0.7,0.4-1.1,0.4c-1,0-1.9-0.1-2.9-0.2C173.3,149.1,173.1,148.9,172.8,148.7z M152.7,146.7c-0.5-0.1-0.8-0.2-1.2-0.3
			c-0.5,1-0.4,1.3,0.5,1.8c-0.1-0.5-0.1-0.8-0.1-1.1C152.1,146.9,152.3,146.8,152.7,146.7z M204.5,146.3c0.1,0,0.2,0,0.3,0
			c0.2-0.3,0.5-0.6,0.7-1c-0.3-0.2-0.5-0.3-0.9-0.4C204.6,145.4,204.6,145.8,204.5,146.3z M210.8,146.6c0.1-0.1,0.2-0.2,0.3-0.3
			c-0.2-0.4-0.3-0.8-0.5-1.2c-0.1,0.3-0.4,0.5-0.4,0.8C210.2,146.2,210.6,146.4,210.8,146.6z"/>
		<path class="st0" d="M227.1,144.9c-0.3-1.8,1.5-3.2,3.2-3.1c1.9,0.1,3.4,1.4,3.3,3.2c-0.1,1.8-1.3,3.3-3.3,3.3
			C228.5,148.4,226.9,146.8,227.1,144.9z"/>
	</g>
</g>
</svg>
