<?xml version="1.0" encoding="utf-8"?>
<!-- Generator: Adobe Illustrator 20.1.0, SVG Export Plug-In . SVG Version: 6.00 Build 0)  -->
<svg version="1.1" id="Layer_1" xmlns="http://www.w3.org/2000/svg" xmlns:xlink="http://www.w3.org/1999/xlink" x="0px" y="0px"
	 viewBox="0 0 781 372" style="enable-background:new 0 0 781 372;" xml:space="preserve">
<style type="text/css">
	.st0{fill:#F37046;}
	.st1{fill:#4E4E4E;}
	.st2{fill:#FFFFFF;}
	.st3{fill:#AF3725;}
	.st4{fill:#757576;}
</style>
<g>
	<g>
		<path class="st0" d="M63.6,164.7c3.7,0,7.4,0,11,0c2.4,0,5.3-0.7,5.9,1.7c1.1-0.6,2.1-1.7,3.1-1.7c15.1-0.1,30.2-0.1,45.2-0.1
			c0.3,0.9,0.6,1.6,0.9,2.4c0.5-0.5,1-1.1,1.7-1.4c0.9-0.4,1.9-0.9,2.9-0.9c19.9-0.1,39.8,0,59.7,0c5.2,0,10.5-0.1,15.7,0
			c1.5,0,3.1,0.5,4.7,0.8c0.1-0.1,0.7-0.8,1.2-0.8c6.6,0.1,13.2,0.4,19.9,0.5c1.4,0,2.8-0.5,4.2-0.5c13.3,0,26.7,0,40,0
			c10.4,0,20.8,0,31.1,0c3.3,0,6.5,0.5,9.8,0.1c3.7-0.4,7.4-0.1,11.2-0.1c3.8,0,7.5,0,11.3,0c3.8,0,7.5,0,11.3,0
			c11.7,0,23.4-0.1,35.1,0.1c1.8,0,3.5,0.8,5.2,1.2c1,0.2,2.2,0.1,3.3,0.1c-0.3-2,1.8-1.3,3-1.3c4.8-0.1,9.7-0.3,14.4,0
			c3.5,0.2,7-0.1,10.5-0.1c4,0,8,0,11.9,0c3.9,0,7.7,0,11.6,0c4,0,8-0.2,11.9,0c12.5,0.6,25-0.5,37.5,0.2c6.7,0.4,13.6-0.4,20.4-0.2
			c5.2,0.2,10.4-0.3,15.7-0.1c1.3,0.1,3.1-0.6,3.4,1.2c0,0.1,1.2,0.3,1.4,0.2c3.6-2.5,8-1.2,12-1.3c8.2-0.2,16.4-0.1,24.6-0.1
			c11.1,0,22.2,0,33.2,0c-0.3,0.5-0.6,1.1-0.8,1.6c3.3-1.7,6.3-2.3,10-1c1,0.3,2.6-0.6,3.9-0.6c11.1-0.1,22.3,0,33.4,0
			c6.4,0,12.9-0.1,19.3,0c1.4,0,2.8,0.6,4.2,0.9c1.5-0.3,3.1-0.9,4.7-0.9c14.8-0.1,29.6,0,44.4,0c4.5,0,6.1,2,4.1,5.1
			c-0.3,0.5-0.5,1-0.5,1.5c0.4,4.4,0.9,8.8,1.4,12.9c-1.4,0.7-2.2,1.1-2.9,1.4c4.8,2.4,1.3,5.8,2.8,8.5c-1.2,0.1-2.1,0.1-3.7,0.2
			c5,2.3,3.4,5.2,2.8,8c-0.2,0.8,0.6,1.8,0.6,2.6c0,11.6,0,23.2,0,34.8c0,0.5-0.8,0.9-1.2,1.4c-0.5,0.5-1.3,1-1.5,1.6
			c-0.3,0.8-0.2,1.7-0.3,2.5c1-0.3,2.1-0.7,3-1c0,5.8,0,11.9,0,18.6c-1.3-0.8-2.3-1.3-3.2-1.8c0.1,2.5,0.4,2.7,3.6,2.4
			c-0.3,4.5-0.8,8.9-0.9,13.3c-0.1,3.6,0.4,7.1,0.6,10.7c0.1,2.2-1.7,3.2-4.4,3.2c-9.7,0-19.5-0.3-29.2-0.3c-16.7,0-33.3,0.2-50,0.3
			c-1.7,0-3.5-0.8-5.1-1.2c0-0.1,0,0.5,0,1c-11.4,0-22.6,0-33.5,0c0.3-0.5,0.7-1.2,1.1-1.9c-0.2-0.2-0.4-0.4-0.6-0.6
			c-1,0.3-2.7,0.6-2.7,1c-0.4,1.9-2.1,1.7-3.8,1.6c-7-0.2-14-0.5-21-0.5c-12,0-24,0.3-36,0.4c-5.3,0-10.5,0.2-15.8,0
			c-1.4,0-2.7-0.8-4.1-1.2c0,1.6-2.2,1.4-4.3,1.3c-4.1-0.1-8.2-0.2-12.3,0.1c-1.8,0.1-3.2-1.1-5.3-0.3c-1.7,0.7-4.2,0.2-6.4,0.1
			c-1.1,0-2.2-0.4-3.3-0.6c-1.4,0.2-3,0.5-4.7,0.5c-11.4,0-22.8,0-34,0c-1-1-2-2.1-3.4-3.5c0.2,1.5,0.4,2.5,0.6,3.7
			c-4.2,0-8.3,0.3-12.3-0.1c-1.9-0.2-3.5,0.1-5.2,0.1c-2.4,0-4.7-0.3-7.2-0.1c-1.4,0.1-2.9-1.1-4.6-1.8c-1.2,2.2-3.9,2-6.6,2
			c-4.9-0.1-9.8,0-14.7,0c-2.9,0-6.3,0.6-7.7-2.4c0.2,0.7,0.4,1.5,0.5,2.2c-8.4,0-17,0-25.6,0c-0.1,0-0.2-0.6-0.3-0.8
			c-1.2,0.3-2.2,0.9-3.2,0.9c-20.1,0.1-40.2,0.1-60.3,0c-3.7,0-7.5-0.6-11.2-0.6c-3.4,0-6.7,0.4-10.1,0.4c-12.7,0-25.5,0-38.2,0
			c-1.9,0-3.7,0.2-5.4,0.3c-0.1-1.3-0.2-2.4-0.4-3.4c0-0.1-1.2,0-1.8,0c0,1.1,0,2.1,0,3.6c-5-0.3-10-0.9-14.9-0.9
			c-5,0-10.1,0.9-15,0.6c-5.1-0.3-10.1,0.4-15.2,0.1c-5.2-0.3-10.4-0.1-16.5-0.1c1-0.8,1.7-1.4,2.4-2c-0.8-0.7-1.7-1.5-3.1-2.8
			c0.2,0.9,0.4,1.3,0.4,1.7c-0.1,3.1-0.4,3.3-4.7,3.3c-2,0-4.1,0-6.4,0c0.1-0.8,0.2-1.6,0.2-2.6c-1.3,0.6-3.6,0.1-3.3,2.1
			c0,0.1-0.9,0.3-1.4,0.3c-6.9,0.1-13.8,0.2-20.7,0.1c-1.4,0-2.8-1.2-4.4-1.9c0,0.7,0,1.3,0,1.8c-17.1,0-34.1,0-51.2,0
			c-0.1-0.4-0.3-1.1-0.4-1.8c-1.5,2.4-4.2,2-6.6,2c-4.7,0-9.3,0-14,0c-1.3,0-3.1,0.5-3.3-1.3c0-0.1-1.4-0.3-2.1-0.2
			c-0.2,0-0.3,0.8-0.4,1.1c-6.2,0-12.5,0-18.8,0c-6,0.1-12,0.2-18,0.3c-1.4,0-2.8,0.2-4.1,0c-1-0.2-2.6-1-2.6-1.5
			c-0.1-5.9,0-11.9,0-17.8c0-2.5-0.2-5.1-0.1-7.6c0-1,0.6-2,1-3c0.1-0.3,0.4-0.7,0.3-0.9c-2.9-7.4-0.5-15-1.2-22.5
			c0-0.3,0.4-0.7,0.7-1c0.7-0.8,0.7-0.7-0.3-1.8c-0.4-0.4-0.4-1.1-0.4-1.6c0.1-8.5,0.3-17.1,0.4-25.6c0-4.6-0.3-9.2-0.4-13.9
			c-0.1-5.2,0-10.5,0-15.9c3.5,1,4.3-0.4,4.3-2.3c-1.3,0.2-2.6,0.5-4.4,0.8c0.6-2.2-1.2-4.2,1.5-5.8c0.3-0.2,0.1-1.3-0.2-1.4
			c-2.1-0.8-1.3-2-0.6-2.9c0.5-0.7,2-1.4,3-1.4c3.3,0.1,6.6,0.7,10,0.8c2.3,0,4.6-0.7,6.9-0.8c1.3,0,2.6,0.7,4.2,1.2
			c0,0,0.3-0.6,0.6-1.3c5.3,0,10.6,0,16,0c2,0,4.9-0.8,5.2,2C62.9,166.1,63.2,165.4,63.6,164.7z M414.3,285c-1.7-0.4-3-0.8-4.3-1
			c-0.3-0.1-1,0.5-1.2,0.8c-0.1,0.2,0.5,0.8,0.9,0.8c2.4,0.3,4.9,0.5,8.2,0.9c-1-1.9-1.8-3.3-2.6-4.8c-0.3,0.1-0.6,0.2-0.9,0.2
			C414.3,282.8,414.3,283.7,414.3,285z M274.3,217.1c-0.1,0.1-0.3,0.3-0.4,0.4c0.6,0.4,1.2,0.9,1.9,1.1c2.3,0.6,3.9-0.1,4.8-1.4
			c-0.9-1.3-1.7-2.3-2.6-3.6c-0.4,0.5-1.1,1-1.2,1.6c-0.2,0.6,0.1,1.4,0.2,2.3C275.8,217.4,275,217.3,274.3,217.1z M416.5,210.6
			c-0.1-2.4-3.3-3.7-8.6-3.9C408.7,210.5,414.8,207.8,416.5,210.6z M674.8,178.3c-0.1-1.7-0.3-3.1-0.4-4.5c-2,0.6-3.9,1.2-6.1,1.9
			C670.4,176.5,672.5,177.3,674.8,178.3z M142.1,231.4c0.7-0.3,1.9-1.2,3.1-1.2c3.1,0,3.1,0.2,3-2
			C143.1,228.4,141.6,229.4,142.1,231.4z M603.4,195.4c0.8-0.1,1.7-0.3,2.7-0.5c0-1,0.1-1.9-0.1-2.8c-0.1-0.4-0.8-0.8-1.2-1.2
			c-0.9,0.6-1.9,1.2-2.8,1.9c-0.1,0.1,0.3,0.5,0.5,0.8C602.8,194.2,603,194.7,603.4,195.4z M717.9,218.1c1.9,0,4.3,0,6.6,0
			c0.1-0.2,0.2-0.3,0.2-0.5c-2-0.7-4.1-1.5-5.9-2.1C718.4,216.6,718.1,217.4,717.9,218.1z M53.2,176.4c0.8-0.4,1.8-0.9,3.5-1.8
			c-3.1-0.2-5.1-0.4-7.2-0.4c-0.4,0-0.8,0.6-1.2,1c0.5,0.2,0.9,0.4,1.4,0.6C50.8,176.1,51.9,176.2,53.2,176.4z M92,204.2
			c-0.9,1.5-1.7,2.9-2.7,4.6C94.7,207.2,95.3,206.1,92,204.2z M504.4,259.3c-1.8,1.4,0.2,2.1,1.1,3c0.6,0.6,1.2,1.1,1.8,1.6
			c0.3-0.3,1-0.6,0.9-0.8c-0.3-0.7-0.6-1.5-1.2-2.1C506.4,260.3,505.4,259.9,504.4,259.3z M532,237c-0.3-0.5-0.7-0.9-1-1.4
			c-2,0.8-3.9,1.7-5.9,2.5c0.2,0.3,0.5,0.7,0.7,1C527.8,238.4,529.9,237.7,532,237z M425.5,232.8c-0.6-0.8-0.9-1.2-1.2-1.6
			c0.9-0.3,1.9-0.6,2.7-0.9c-0.6-0.7-1.2-1.3-1.7-1.7c-1.4,1.2-2.7,2.3-4.3,3.6C422.7,232.5,423.7,232.6,425.5,232.8z M496.7,275.7
			c-0.7,1.6-1.1,2.6-1.7,3.8c4.4-2.2,4.8-2.7,4-4.8C497.9,275.2,496.9,275.6,496.7,275.7z M532.6,277.9c0.8,0,1.5,0,2.3-0.1
			c0-1,0.2-1.9-0.1-2.8c0-0.2-1.8-0.1-2.7-0.1C532.3,275.9,532.5,276.9,532.6,277.9z M347,206.2c0.5-0.1,1.1-0.1,1.6-0.2
			c0-1.1,0-2.3,0-3.4c-1.2,0.2-2.3,0.4-3.5,0.6C345.8,204.2,346.4,205.2,347,206.2z M92,279.3c0.1,1-0.1,2.3,0.5,2.6
			c1.4,0.7,3.3,0.8,4.9,1.2c0-0.2,0-0.3,0-0.5C95.9,281.7,94.4,280.7,92,279.3z M667,180.9c-1.3,0.7-2.4,1.3-4.3,2.3
			c2.8,0.2,4.7,0.4,7.1,0.6C668.9,182.8,668,182,667,180.9z M169.4,248c-0.5,1-0.9,1.9-1.5,3c3.9-1.4,2.2,1.1,2.9,1.9
			C172.8,251.6,172.5,250.5,169.4,248z M677,203.8c2.6,0.1,4.1-2.1,3.3-6.4C679.2,199.7,678.1,201.8,677,203.8z M204.2,243.9
			c-1-0.8-1.9-1.5-3-2.4c0,2.9,0,2.9-3,2.6C200.5,247.3,202.4,243.7,204.2,243.9z M203.9,166.8c2.3,0.9,4.4,1.8,6.5,2.6
			c0.2-0.2,0.3-0.3,0.5-0.5c-1.4-1.1-2.8-2.2-4.2-3.3C205.6,166,204.8,166.4,203.9,166.8z M629.8,285.1c0.3,0.1,0.7,0.1,1,0.2
			c0.6-1.1,1.2-2.3,1.8-3.4c-0.9,0-1.9-0.1-2.8-0.1C629.8,282.9,629.8,284,629.8,285.1z M458.4,171.1c-2.2,0.9-4.3,1.7-6.4,2.6
			C456.4,174.5,458.4,173.8,458.4,171.1z M313.4,273.7c-0.4-0.2-0.8-0.3-1.2-0.5c-1.4,0.8-2.9,1.6-4.3,2.4c1,1.2,1.7,2,2.4,2.8
			c0.3,0,0.7,0,1,0C309.5,276.3,310.1,274.7,313.4,273.7z M394.1,274.9c0.3-1.1,0.6-2.2,0.9-3.5
			C391.3,272.1,391.3,272.1,394.1,274.9z M361.6,274.3c3.4,1,2.7-1.5,4-2.3C360.9,270.1,363.2,273.8,361.6,274.3z M651,172.1
			c-2.2-0.3-3.4-0.5-4.6-0.7c0,0.3,0,0.9,0,1.4c0.9,0,1.7,0,2.9,0c-0.5,0.9-0.9,1.6-1.3,2.2c0.3,0.1,0.6,0.2,0.9,0.3
			C649.7,174.2,650.5,173,651,172.1z M595.6,196.5c-1,0.2-1.7,0.2-2.4,0.4c-0.6,0.1-1.2,0.3-1.8,0.5c0.4,0.4,0.8,1.1,1.3,1.2
			c1.4,0.2,2.9,0.2,4.3,0.2C596.5,198,595.9,197.1,595.6,196.5z M595.7,187.2c2.5-0.1,4.7-0.2,7.6-0.3
			C598.9,185.2,596.4,185.4,595.7,187.2z M700.6,221.3c-2-0.4-3.7-0.7-5.3-1c-0.1,0.2-0.2,0.4-0.2,0.7
			C696.4,221.9,697.3,224.4,700.6,221.3z M381.3,256.8c2.2,0.3,3.9,0.5,6,0.7C385.8,255,384.2,254.8,381.3,256.8z M370.2,200.4
			c-0.9,2,0.8,2.7,2.9,3.2C376.4,200.4,369.8,202.1,370.2,200.4z M324.6,251.3c-0.7,1-1.2,1.8-1.8,2.6c0.2,0.2,0.4,0.4,0.6,0.6
			c1.6-1.1,3.2-2.2,5.1-3.5C326.9,251.1,325.7,251.2,324.6,251.3z M594.4,234.6c-2.7-1.3-4.1-0.8-5,0.8c-0.3,0.4-0.2,1-0.2,1.2
			C591.1,235.9,592.4,235.3,594.4,234.6z M661.5,230.8c6.9,1,6.9,1,7,0.3c-1.3-0.4-2.5-0.8-4.2-1.3
			C664,229.8,663.1,230.2,661.5,230.8z"/>
	</g>
	<g>
		<rect x="478.6" y="93.6" class="st1" width="274.7" height="43"/>
	</g>
	<g>
		<path class="st2" d="M499.5,110.4v-3.1h11.1v2.7l-4.1,4c2.2,0.4,4.4,1.5,4.4,4.6c0,3.1-2.2,5.4-5.9,5.4c-3,0-5-1.2-6.4-2.8
			l2.5-2.4c1.1,1.3,2.3,2,4,2c1.4,0,2.3-0.8,2.3-2c0-1.4-1.1-2.1-3.2-2.1h-1.5l-0.6-2.3l3.9-3.9H499.5z"/>
		<path class="st2" d="M516.1,112.5l-2.5-2c1.6-2.2,3.2-3.4,6.1-3.4c3.5,0,5.6,2,5.6,5.1c0,2.7-1.4,4.1-4.3,6.4l-2.7,2.1h7.1v3.1
			h-12.1v-2.9l5.5-4.5c2-1.7,2.8-2.6,2.8-3.9c0-1.4-0.9-2.1-2.2-2.1C518.2,110.3,517.3,111,516.1,112.5z"/>
		<path class="st2" d="M535.3,124c-4.4,0-7.3-3.7-7.3-8.5s2.9-8.5,7.3-8.5s7.3,3.7,7.3,8.5S539.7,124,535.3,124z M535.3,110.3
			c-2.2,0-3.6,2.2-3.6,5.2s1.4,5.2,3.6,5.2c2.2,0,3.6-2.2,3.6-5.2S537.5,110.3,535.3,110.3z"/>
		<path class="st2" d="M546.3,123.7h-1.5v-3.7h3.8v3.2c0,3.1-1.5,4.3-4.3,4.4L544,126C545.7,125.8,546.5,125,546.3,123.7z"/>
		<path class="st2" d="M557.2,124c-2.4,0-4-0.8-5.4-1.9l1.9-2.7c1.2,1,2.2,1.4,3.6,1.4c2,0,3.1-1.5,3.3-3.7
			c-0.8,0.7-1.9,1.1-3.3,1.1c-3.6,0-5.9-2-5.9-5.3c0-3.3,2.6-5.8,6.3-5.8c2.2,0,3.5,0.5,4.7,1.8c1.2,1.2,1.9,3,1.9,6.2
			C564.4,120.3,561.9,124,557.2,124z M557.8,110.1c-1.8,0-2.8,1-2.8,2.5s1.1,2.5,2.9,2.5s2.8-1,2.8-2.5
			C560.7,111.2,559.6,110.1,557.8,110.1z"/>
		<path class="st2" d="M574.2,124c-4.4,0-7.3-3.7-7.3-8.5s2.9-8.5,7.3-8.5s7.3,3.7,7.3,8.5S578.5,124,574.2,124z M574.2,110.3
			c-2.2,0-3.6,2.2-3.6,5.2s1.4,5.2,3.6,5.2c2.2,0,3.6-2.2,3.6-5.2S576.3,110.3,574.2,110.3z"/>
		<path class="st2" d="M594.4,111.6c-1.1-0.8-1.9-1.3-3.3-1.3c-2,0-3.1,1.6-3.3,3.8c0.8-0.5,1.8-1.1,3.4-1.1c3.3,0,5.8,1.8,5.8,5.2
			c0,3.4-2.7,5.7-6.3,5.7c-2.1,0-3.6-0.6-4.7-1.8c-1.2-1.2-1.9-3-1.9-6.2c0-5.1,2.3-9,7.2-9c2.2,0,3.7,0.7,5.1,1.8L594.4,111.6z
			 M590.5,116c-1.8,0-2.8,1-2.8,2.4c0,1.4,1.1,2.5,2.9,2.5s2.8-1,2.8-2.4C593.3,117,592.3,116,590.5,116z"/>
		<path class="st2" d="M614.7,110.6v13.1h-3.6v-13.1h-5v-3.3h13.6v3.3H614.7z"/>
		<path class="st2" d="M625.7,124c-3.9,0-6.8-2.9-6.8-6.5v0c0-3.6,2.9-6.5,6.8-6.5c3.9,0,6.8,2.9,6.8,6.5v0
			C632.5,121,629.6,124,625.7,124z M629,117.4c0-1.9-1.3-3.5-3.3-3.5c-2,0-3.3,1.6-3.3,3.4v0c0,1.9,1.3,3.5,3.3,3.5
			C627.8,120.9,629,119.3,629,117.4L629,117.4z"/>
		<path class="st2" d="M639.4,123.9c-2.2,0-3.7-0.9-3.7-3.8v-5.9h-1.5v-3h1.5v-3.2h3.6v3.2h3v3h-3v5.4c0,0.8,0.4,1.2,1.1,1.2
			c0.7,0,1.2-0.2,1.8-0.4v2.9C641.4,123.6,640.6,123.9,639.4,123.9z"/>
		<path class="st2" d="M652.2,123.7v-1.4c-0.9,1-2.1,1.6-3.8,1.6c-2.4,0-4.3-1.4-4.3-3.8v0c0-2.7,2.1-4,5.1-4c1.3,0,2.2,0.2,3.1,0.5
			v-0.2c0-1.5-0.9-2.3-2.7-2.3c-1.4,0-2.3,0.3-3.5,0.7l-0.9-2.7c1.4-0.6,2.7-1,4.9-1c3.9,0,5.6,2,5.6,5.4v7.3H652.2z M652.3,118.6
			c-0.6-0.3-1.4-0.5-2.3-0.5c-1.5,0-2.5,0.6-2.5,1.7v0c0,1,0.8,1.5,1.9,1.5c1.7,0,2.8-0.9,2.8-2.2V118.6z"/>
		<path class="st2" d="M658.9,123.7v-17.1h3.6v17.1H658.9z"/>
		<path class="st2" d="M680,123.9c-4.4,0-7.1-2.5-7.1-7.3v-9.4h3.6v9.3c0,2.7,1.3,4.1,3.5,4.1c2.2,0,3.5-1.3,3.5-3.9v-9.4h3.6v9.3
			C687.2,121.5,684.4,123.9,680,123.9z"/>
		<path class="st2" d="M694.9,123.9c-1.8,0-3.7-0.6-5.4-1.9l1.5-2.3c1.4,1,2.8,1.5,4,1.5c1,0,1.5-0.4,1.5-0.9v0c0-0.8-1.2-1-2.6-1.5
			c-1.8-0.5-3.7-1.3-3.7-3.8v0c0-2.6,2.1-4,4.6-4c1.6,0,3.3,0.5,4.7,1.5l-1.4,2.5c-1.2-0.7-2.5-1.2-3.4-1.2c-0.9,0-1.3,0.4-1.3,0.9
			v0c0,0.7,1.2,1,2.6,1.5c1.8,0.6,3.8,1.4,3.8,3.7v0C699.7,122.7,697.6,123.9,694.9,123.9z"/>
		<path class="st2" d="M713.9,118.7h-8.7c0.4,1.6,1.5,2.5,3.1,2.5c1.2,0,2.1-0.4,3-1.3l2,1.8c-1.2,1.5-2.9,2.3-5.1,2.3
			c-3.8,0-6.6-2.6-6.6-6.5v0c0-3.6,2.6-6.5,6.2-6.5c4.2,0,6.1,3.3,6.1,6.8v0C714,118.1,714,118.3,713.9,118.7z M707.9,113.8
			c-1.5,0-2.4,1.1-2.7,2.7h5.4C710.3,114.8,709.4,113.8,707.9,113.8z"/>
		<path class="st2" d="M724,114.6c-2.4,0-3.8,1.4-3.8,4.4v4.6h-3.6v-12.6h3.6v2.5c0.7-1.7,1.9-2.9,4-2.8v3.7H724z"/>
		<path class="st2" d="M730.8,123.9c-1.8,0-3.7-0.6-5.4-1.9l1.5-2.3c1.4,1,2.8,1.5,4,1.5c1,0,1.5-0.4,1.5-0.9v0c0-0.8-1.2-1-2.6-1.5
			c-1.8-0.5-3.7-1.3-3.7-3.8v0c0-2.6,2.1-4,4.6-4c1.6,0,3.3,0.5,4.7,1.5l-1.4,2.5c-1.2-0.7-2.5-1.2-3.4-1.2c-0.9,0-1.3,0.4-1.3,0.9
			v0c0,0.7,1.2,1,2.6,1.5c1.8,0.6,3.8,1.4,3.8,3.7v0C735.6,122.7,733.5,123.9,730.8,123.9z"/>
	</g>
	<g>
		<g>
			<path class="st1" d="M750,141c-0.4,0.2-0.6,0.5-0.1,0.9c0.2-0.2,0.4-0.5,0.6-0.7c0.1-0.1,0.3-0.2,0.5-0.2c0.7,0,1.4,0,2.2,0
				c0.2,0.5,0.1,0.9-0.1,1.3c-0.5,1-1,2-1.6,2.8c-0.7,0.9-1.1,2-1.7,3c-1.5,2.4-2.8,4.8-4.2,7.3c-1.5,2.6-3,5.2-4.6,7.8
				c-1.1,1.9-2.2,3.8-3.3,5.8c-0.3,0.4-0.5,0.9-0.7,1.3c-0.2,0.4-0.4,0.6-0.9,0.5c0.1,0.1,0.2,0.3,0.3,0.4c-0.4,0.7-0.9,1.5-1.3,2.2
				c-0.2-0.1-0.4-0.2-0.7-0.3c0.2,0.3,0.3,0.5,0.4,0.7c-0.6,1-1.2,2.1-1.8,3.1c-0.3,0.5-0.8,0.2-1.2,0.4c0.2,0.2,0.3,0.5,0.5,0.7
				c-0.6,0.3-0.9,0.3-1.2-0.3c-1-1.7-2-3.5-3-5.2c-0.9-1.6-1.8-3.1-2.7-4.6c-0.4-0.8-0.9-1.6-1.3-2.4c-0.4-0.7-0.9-1.5-1.4-2.2
				c-0.6-1-1.1-2-1.7-2.9c-0.3-0.5,0.1-0.9-0.1-1.3c-0.2,0.1-0.3,0.2-0.6,0.4c-0.1-0.6-0.3-1.3-0.4-1.8c-0.2,0-0.5,0-0.6-0.1
				c-0.4-0.5-0.8-1-0.9-1.7c0-0.1,0-0.2,0-0.2c-1-0.9-1.4-2.1-2.1-3.2c-1.1-1.8-2.1-3.6-3.1-5.4c-0.8-1.4-1.7-2.9-2.5-4.3
				c-0.1-0.2-0.2-0.4,0-0.6c0.1-0.1,0-0.4,0-0.8c-0.2,0.2-0.3,0.3-0.4,0.4c0,0-0.1,0-0.1,0c-0.1-0.8,0-0.8,0.6-0.8
				c0.9,0,1.7,0,2.6,0c0,0.2,0,0.5,0,0.7c0.1,0,0.1,0,0.2,0c0.8-0.8,1.8-0.7,2.8-0.7c1.7,0,3.4,0,5.1,0c1.7,0,3.3,0,4.9,0
				c0.1,0.2,0.2,0.4,0.4,0.6c0.1-0.3,0.2-0.4,0.3-0.6c0.9,0,1.7,0,2.6,0c0.1,0.2,0.1,0.3,0.2,0.6c0.2-0.2,0.3-0.4,0.5-0.6
				c0.6,0,1.3,0,2,0c0.7,0,1.5,0,2.2,0c0.7,0,1.5,0,2.2,0c0.7,0,1.5-0.2,2.1,0.2c0.6-0.5,1.4-0.2,2.1-0.2c0.7-0.1,1.5,0,2.2,0
				c0.7,0,1.5,0,2.2,0c0.7,0,1.5,0,2.2,0C748.5,141,749.2,141,750,141z M742.4,156.9c0.1,0,0.1,0.1,0.2,0.1c0.1-0.2,0.3-0.4,0.3-0.5
				c-0.1-0.4,0.1-0.8,0.3-1.1c-0.2-0.1-0.4-0.1-0.6-0.2c-0.1,0-0.3-0.1-0.4-0.1c-0.1,0.1-0.2,0.4-0.1,0.5c0.1,0.2,0.3,0.3,0.4,0.4
				C742.5,156.4,742.4,156.7,742.4,156.9z M744.6,151.6c-0.3-0.3-0.5-0.4-0.6-0.6c0.3-0.7,0.3-0.7-0.4-0.7c-0.1,0.4-0.1,0.9-0.2,1.3
				C743.8,151.6,744.1,151.6,744.6,151.6z M741.6,157.8c0.3,0.4,0.6,0.6,0.8,0.9c0.7-0.5,0-0.9-0.1-1.3c0,0-0.1-0.1-0.2-0.1
				C742,157.5,741.8,157.6,741.6,157.8z M737.1,143.6c0.3-0.6,0.5-1.1,0.8-1.6c-0.3,0-0.7,0.1-1,0.1
				C736.9,142.5,737,143,737.1,143.6z M736.2,164c0,0,0.1,0.1,0.1,0.1c0.2-0.6,1.1-0.4,1.3-1.2c-0.3,0-0.6,0-0.8,0
				C736.6,163.3,736.4,163.6,736.2,164z M726.7,161.7c-0.3,0.1-0.5,0.3-0.3,0.7c0.1,0.2,1.1,0.4,1.2,0.2c0.1-0.1,0.1-0.3,0.1-0.4
				c0-0.1-0.2-0.1-0.4-0.1C726.7,162.2,726.7,162.3,726.7,161.7z M720.5,142c-0.7,0.4-0.7,0.4-0.2,1.5c0.1-0.1,0.3-0.2,0.4-0.3
				c0.1-0.1,0-0.3-0.1-0.5C720.6,142.5,720.6,142.3,720.5,142z M719.1,153.3c0-0.1-0.1-0.1-0.1-0.2c-0.6,0.1-1.2,0.1-1.8,0.2
				c0.4,0.3,0.8,0.5,1.2,0.7C718.5,153.6,718.5,153.2,719.1,153.3z M733.8,171.7c0.3-0.5,0.9-0.9,0.8-1.6
				C733.7,170.3,734,171.1,733.8,171.7z"/>
		</g>
	</g>
	<g>
		<path class="st3" d="M17.2,289.8c0-0.1-0.1,0.4-0.2,0.9c-0.1,0-0.3,0-0.4-0.1c0-8.9,0-17.8,0-26.7c0-0.5,0.2-1,0.4-1.8
			c-0.1-1.8-0.4-4.1-0.4-6.4c-0.1-5.2,0-10.3,0-15.5c0-0.7,0.3-1.5,0.5-2.4c-0.1-0.2-0.4-0.9-0.4-1.5c0-8.4,0.1-16.7,0.1-25.1
			c0-1.1-0.1-2.3-0.1-3.4c0-11.6,0-23.2,0-34.8c0-2.7,0-5.4,0-8c3.4-0.3,6.7-0.6,10.1-0.7c3.4-0.1,6.7,0,10.1,0.1
			c3.2,0.1,6.4,0.6,9.6,0.3c3.2-0.3,6.4,0.3,9.5,0.2c3.3-0.1,6.6-0.1,9.9-0.1c3.3,0,6.6,0,9.9,0c3.2,0,6.4,0.1,9.6,0.3
			c0.6-0.2,1.2-0.6,1.7-0.7c1.7-0.1,3.4-0.1,5.1-0.1c7.2,0.1,14.5,0.3,21.7,0.5c4.7,0.1,9.4,0.2,14,0.2c1.2,0,2.5-0.2,3.7-0.1
			c0.4,0,0.7,0.8,1,1.2c1-1.6,4.1-1.9,5.6-0.3c0.1-0.4,0.2-0.9,0.2-1c2.3,0,4.5-0.3,6.6,0.1c2.4,0.4,4.8-0.2,7.3,0.1
			c2.7,0.3,5.4,0.2,8.1-0.3c1-0.2,1.8,1.3,3,0.4c0.9-0.7,2.1-0.3,3.2-0.2c0.4,0,0.9,0.6,1.3,0.9c0.4-0.3,1-0.9,1.6-0.9
			c1.6-0.1,3.2,0,4.9,0c0,1.1,0,2,0,2.9c0,14.5,0,29,0,43.5c0,1.9,0.4,4.2-1.8,3.3c0.1,0.2,0.1,0.5,0.2,0.7c0.5,0.3,1,0.6,1.7,1
			c-0.4,7.9,0.6,16-0.7,23.7c1.2,1.6,0.3,3.8,0.7,5.4c-0.4,0.4-0.8,0.7-1.2,1.1c0.4,0.9,1.1,1.6,1.1,2.3c-0.3,5.7,1,11.7-0.8,17.4
			c0.3-0.3,0.6-0.6,0.8-0.9c0,8.4,0,17,0,25.8c-3.5,0-7.1,0.3-10.6-0.2c-0.9-0.2-1.7,0.4-2.5,0.3c-6.4-0.2-12.8-0.1-19.2-0.1
			c-3.1,0-6.1,0-9.2,0c-0.8,0-1.9,0.8-2.5-1.1c0-0.1-0.7,0.6-1.1,0.8c-0.3,0.2-0.5,0.3-0.8,0.3c-5,0-10.1,0-15.1,0
			c-2.3,0-4.6,0-6.9,0c-0.5,0-1-0.4-1.6-0.4c-0.5,0-1.1,0.4-1.6,0.4c-3.4,0-6.8,0.1-10.2,0c-0.4,0-0.8-0.8-1-1c-0.9,0.4-1.6,1-2.3,1
			c-3.6,0.1-7.2,0-10.8-0.1c-0.3,0-0.7-0.9-0.6-0.8c-0.7,0.4-1.2,1-1.6,1c-4.7,0.1-9.3,0-14,0c0-0.5,0.1-0.8,0.1-1.6
			c-2,4.2-3.1-0.2-4.6-1c0,1,0,1.7,0,2.6c-3.8,0-7.6,0-11.4,0c-2.4,0-4.9,0-7.3,0c-7,0-14,0-21,0C18.3,290.6,17.9,290.2,17.2,289.8z
			 M141.4,214.3c-1.1,2.1,0.5,3,1.4,4.1c0.2,0.3,0.9-0.4,1.3-0.7c-0.3,0.4-0.7,0.7-1,1.1C142.5,217.3,141.9,215.8,141.4,214.3z
			 M116.5,282.3c0.2-0.3,0.3-0.5,0.5-0.8c-0.7-1.4-1.4-2.7-2.3-4.4c-0.1,1.5-0.1,2.4-0.1,2.7C115.4,280.8,116,281.6,116.5,282.3z
			 M152.3,205.7c-0.3-1-0.5-1.7-0.7-2.4c-2,0.9-2,0.9-2,2C150.5,205.4,151.3,205.5,152.3,205.7z M82.2,278c0.1,0.2,0.3,0.6,0.4,1
			c1.1-1.8,1.3,0.8,2,1.1c0.1,0,0.2,0.2,0.4,0.3c0.1-0.3,0.2-0.7,0.2-0.8c-0.6-1.3-1.2-2.5-1.8-3.9C82.8,276.7,82.6,277.3,82.2,278z
			 M109.7,205.8c0.1-1.3,0.4-2.7,0.2-3.7c-0.3-1.1-0.6-2.8-1.6-2.5C108.8,201.6,109.2,203.5,109.7,205.8z M34.3,223.3
			c-0.8-0.2-1.5-0.4-2.4-0.6c0.4,1.5,0.6,2.4,0.8,3.3c0.1,0.2,0.3,0.5,0.4,0.7C33.5,225.8,33.8,224.8,34.3,223.3z M140.9,268.1
			c-0.2,3.5,0.3,4.6,2.1,4.5c0-0.8,0.1-1.5,0.1-2.7C142.2,271.8,142,271.7,140.9,268.1z M74,191.7c0,0.3,0.1,0.5,0.1,0.8
			c0.6,0.2,1.2,0.5,1.9,0.4c0.1,0,0.2-1.4,0.4-2.7C75.4,190.8,74.7,191.3,74,191.7z M61.2,246.9c-0.4,1.5-0.9,2.6-0.8,3.3
			c0.2,1.1,0.8,1.9,1.2,2.9c0.3-0.2,0.5-0.4,0.8-0.6C60.1,251.6,61.9,249.3,61.2,246.9z M47.4,230.5c0.7-0.6,1.2-1,1.8-1.5
			c-0.5-1-0.9-2-1.4-3.1C47.6,227.5,47.5,228.7,47.4,230.5z M78,178.5c-0.6,0.6-1,1-1.4,1.4c0.4,0.9,0.9,1.8,1.3,2.7
			c0.1-0.1,0.3-0.2,0.4-0.2C78.3,181.2,78.2,180.1,78,178.5z M95.5,164.7c-0.3,0.5-0.5,1-0.8,1.4c-0.5-0.4-0.9-0.7-1.6-1.2
			c0.3,1.3,0.4,2,0.6,3.1C94.4,166.9,95.9,167.7,95.5,164.7z M141.1,238.4c0-0.2-0.1-0.3-0.1-0.5c-0.4,0.1-0.8-0.1-1.1,0.2
			c-0.2,0.3-0.2,1.2-0.1,1.7c0.2,1.2,0.6,2.3,0.9,3.4c0.1,0,0.2,0,0.2,0c-0.1-1.3-0.2-2.6-0.4-4
			C140.6,239.1,140.8,238.7,141.1,238.4z M77,255.7c-0.1-0.2-0.1-0.3-0.2-0.5c-0.5,0.3-1.1,0.6-1.6,0.9c0.2,0.8,0.4,1.6,0.6,2.4
			C76.2,257.6,76.6,256.6,77,255.7z M22.1,167.8c-1,1.1-0.5,3.9-1.9,4c0.1,0.3,0.1,0.6,0.2,0.9c0,0.1,0.1,0.1,0,0
			c0.7-0.7,1.3-1.3,1.9-1.9C22.3,170,22.2,169.2,22.1,167.8z M154,212c-0.2-0.1-0.4-0.3-0.5-0.4c-0.3,0.6-0.5,1.2-0.8,1.8
			c-0.2,0.4-0.4,0.7-0.5,1.1c0.4,0.1,1,0.5,1.1,0.3C153.6,214,153.7,213,154,212z M47.2,193.7c1.3-1.9,1.3-1.9,0-4.6
			C47.2,190.7,47.2,192.1,47.2,193.7z M71.6,214.9c-0.5,1.3-0.9,2.7-1.4,4C71.3,218.2,72.4,217.7,71.6,214.9z M50.6,269.2
			c-1.6,1.4-1.3,3.6-1.6,5.3c0.2,0.1,0.3,0.2,0.5,0.4C49.8,273.2,50.1,271.5,50.6,269.2z M138.7,211c-1.8,1.2-0.1,3.9-0.9,5.4
			c0.2,0.1,0.4,0.1,0.6,0.2C138.5,214.8,138.6,213,138.7,211z M69.6,269.9c0.3-1.9,0.5-3.4,0.8-4.9c-0.2-0.1-0.4-0.1-0.7-0.2
			C70.5,266.5,67.8,267.6,69.6,269.9z M85,231.1c0.1-1.5,0.3-2.5,0.3-3.4c0-0.5-0.4-1-0.6-1.5c-0.2,0.5-0.5,1-0.5,1.3
			C84.3,228.6,84.6,229.6,85,231.1z"/>
	</g>
	<g>
		<g>
			<path class="st4" d="M16.3,6.4c4.4,7.5,8.5,14.8,12.9,22.3c-3.3,0.8-6.4,0.2-9.8,0.5c-0.2,1.5-0.4,3.1-0.4,4.6
				c0.1,5.5,0.2,11-0.1,16.5c-0.1,2.5,0.3,4.9,0,7.4c-0.3,2.4,0.1,4.9,0.1,7.3c0,2.5,0,4.9,0,7.4c0,1.6,0.4,3.2-0.5,4.6
				c0.9,1.2,0.5,2.5,0.6,3.8c0,2.2-0.2,4.4,0,6.7c0.1,2.3,0,4.6,0,6.9c0,2.3,0,4.6,0,6.9c0,2.3,0,4.6,0,6.9c0,6.1,0,12.2,0,18.3
				c0,4,0.2,8,0,12c-0.2,2.9,0.1,5.8,0,8.7c0,0.7,0.2,1.6-1.3,1.5c1.4,0.4,1.4,1.3,1.3,2.2c-0.1,2.3-0.4,4.6-0.3,6.9
				c0,5.2,0.2,10.4,0.3,15.5c0,1.1,0,2.1-1.5,2.5c1.2,0.9,1.6,1.7,1.6,3c-0.1,3.1,0.1,6.2-0.1,9.4c-0.1,1.6-0.3,3.2-0.1,4.8
				c0.2,1.6,0.4,3.3,0.4,4.9c0,0.9-0.2,1.8-0.3,2.8c0,0.2-0.3,0.5-0.2,0.6c1.4,2.7,0,5.7,0.5,8.5c0.2,1.3-0.2,2.8,0.1,4.2
				c0.3,1.7-0.5,3.2-0.1,5c0.4,1.6,0,3.3,0,5c0,6.5,0.1,13,0.1,19.5c0,6.5-0.2,13-0.2,19.5c0,9.4,0.2,18.8,0.2,28.3
				c0,4.9,0.1,9.7-0.2,14.6c-0.2,2.8,0.3,5.5,0.2,8.2c-0.1,2.9,0,5.8,0,8.6c0,8.4,0,16.7,0,25.1c0,0.4,0.1,0.8,0.1,1.4
				c0.8,0.1,1.6,0.1,2.3,0.1c4.2,0,8.5-0.1,12.7,0c0.7,0,1.3,0.4,2.1,0.7c1-1.6,2.8-0.9,4.1-0.7c4.7,0.8,9.3,0.1,13.9,0.2
				c5.9,0.2,11.8,0,17.6,0c8,0,15.9,0.1,23.9,0.1c6.9,0,13.7-0.1,20.6-0.2c3.6,0,7.1,0.1,10.7,0.2c0.1,0.4,0.3,0.9,0.5,1.8
				c0.5-0.9,0.8-1.3,1.2-2c4.8,0.1,9.8,0.3,14.7,0.3c2.9,0,5.9-0.2,8.8-0.2c17,0,34.1,0,51.1,0c4.2,0,8.5,0.2,12.7,0.2
				c1.4,0,2.9-0.3,4.3-0.3c0.8,0,1.5,0.3,2.3,0.5c0.3,0.1,0.6,0.2,0.9,0.1c3.8-1.3,7.8-0.4,11.6-0.6c7.1-0.4,14.1-0.4,21.2-0.1
				c4.8,0.2,9.5,0,14.3,0.1c0.6,0,1.5-0.4,1.8,0.7c0,0.1,0.2,0.1,0.4,0.1c0.3-1.6,1.6-0.8,2.3-0.8c6.5,0,13.1,0.1,19.6,0.2
				c3.7,0,7.5,0.2,11.2,0.2c4,0,8-0.2,12-0.2c0.9,0,1.8,0.3,2.7,0.4c0.2,0,0.5,0.1,0.7,0.1c3.7-0.9,7.4-0.4,11.2-0.3
				c2.9,0.1,5.9-0.2,8.8-0.2c6.1,0,12.1,0.2,18.2,0.2c3.8,0,7.6-0.2,11.5-0.2c0.9,0,1.7,0.4,2.8,0.6c0.7-0.2,1.6-0.6,2.5-0.6
				c10.7,0,21.4,0,32,0c2.9,0,5.8,0.5,8.7,0.2c5.1-0.6,10.2-0.2,15.3-0.3c4.9-0.1,9.7-0.1,14.6-0.1c6.7,0,13.4,0.1,20,0.2
				c2.4,0,4.8-0.2,7.2-0.2c1.1,0,2.3-0.2,2.7,1.4c0,0.1,0.5,0.1,1.1,0.1c-0.3-0.5-0.5-0.8-0.7-1.1c0.1-0.1,0.2-0.3,0.4-0.3
				c3.6,0,7.2-0.1,10.8-0.1c7,0,14,0.1,21,0.1c7.7,0,15.3-0.1,23-0.1c6.7,0,13.4,0,20.1,0c2.2,0,4.4-0.2,6.6,0c3,0.2,5.9-0.1,8.9,0
				c3,0,6.1,0,9.1,0c3,0,6.1-0.1,9.1-0.1c3.1,0,6.2,0,9.3,0.1c0.6,0,1.3,0.4,2.3,0.7c0.4-0.4,1.3-0.8,2.5-0.8
				c10.8,0.1,117.9,0.1,128.7,0.1c1.3,0,2.7-0.4,4-0.4c1.2,0,2.4,0.3,3.9,0.5c0,0,0.3-0.5,0.5-0.4c2.2,0.1,4.4-0.6,6.6,0.4
				c0.1,0.1,0.3,0.3,0.4,0.2c2.4-1.4,5.1-0.2,7.6-0.7c0.1,0,0.1-0.1,0.4-0.4c0-2.5,0-5.3,0-8.1c2.2-0.1,3.6,1.2,5.1,2.1
				c4.9,2.7,9.7,5.5,14.5,8.4c0.9,0.5,1.7,1.1,2.7,1.8c-3.2,2.8-6.9,4.9-10.7,6.9c-0.5,0.3-1.2,0-2,0c0,0.2,0,0.7,0,1.4
				c-2.8,1.5-5.7,3.1-8.9,4.8c-1.2-3.2,0.1-6.3-0.9-9.6c-1.2-0.1-2.5-0.4-3.8-0.4c-8.2-0.1-16.5-0.1-24.7-0.1
				c-6.1,0-12.1,0.1-18.2,0c-3.4,0-103.4,0.2-106.8-0.1c-3.1-0.3-6.1,0.3-9.2,0.1c-4-0.3-8,0-12.1,0c-6.1-0.1-12.2-0.1-18.3-0.1
				c-5.8,0-11.7,0.2-17.5,0.1c-4.6,0-9.2-0.3-13.8-0.4c-2,0-4.1,0.3-6.1,0.3c-4.2,0-8.4-0.2-12.6-0.2c-3.9,0-7.8,0.2-11.6,0.2
				c-1.7,0-3.5-0.3-5.2-0.3c-1.8,0-3.6,0.2-5.4,0.2c-6.9,0-13.8,0-20.7,0.1c-3.2,0-6.4,0.1-9.6,0c-1.1,0-2.2-0.3-3.4-0.5
				c-0.5,0.1-1.2,0.5-1.9,0.5c-7.5,0-15,0-22.4,0c-6.8,0-13.5-0.2-20.3-0.2c-5.7,0-11.3,0.2-17,0.1c-8.3-0.1-16.6,0.1-24.9,0
				c-13.2-0.1-26.5-0.1-39.7-0.1c-1.2,0-2.4,0-3.6,0.1c-0.8,0-1.6,0-2.2-0.7c-0.7,0.7-1.5,0.7-2.4,0.7c-10.2,0-20.3,0.1-30.5-0.1
				c-3.2,0-6.4,0.2-9.7,0.1c-2.7-0.1-5.4-0.4-8.2,0c-2.7,0.3-5.4,0-8.1,0c-2.8,0-5.6,0-8.4,0c-0.8,0-1.7-0.3-2.5-0.4
				c-0.3,0-0.7,0-1,0.1c-0.4,0.1-0.9,0.3-1.3,0.3c-2-0.2-4,0.1-6,0.1c-2,0-4,0.1-6,0c-1,0-2-0.4-2.9-0.5c-0.4,0-0.8,0.4-1.3,0.5
				c-1.3,0.1-2.6,0.1-3.8,0c-6.5-0.1-13.1-0.2-19.6-0.2c-9.1,0-18.2,0.1-27.3,0.2c-6.1,0-12.1,0.2-18.1-0.1
				c-2.8-0.1-5.5,0.4-8.3,0.1c-2.8-0.2-5.6,0-8.3,0c-1.5,0-1.5,0-2.5-1c-0.9,0.9-1.9,1.2-3.3,0.8c-1.2-0.4-2.7,0.2-4,0.2
				c-9.1,0-18.2-0.1-27.3-0.1c-5.4,0-10.9,0.1-16.3,0.1c-1.8,0-3.6-0.4-5.4-0.4c-1.1,0-2.2,0.4-3.2,0.4c-3.5,0.1-7,0-10.5,0.1
				c-1.6,0.1-3.2-0.5-4.9-0.2c-1.6,0.2-3.3,0.4-5,0.2c-1.7-0.2-3.5-0.1-5.3-0.1c-7.2,0-14.3,0-21.5,0c-7.8,0-15.6,0-23.4,0
				c-0.5,0-0.9,0-1.5,0c-1.1-2.2-0.6-4.4-0.7-6.6c-0.1-6.7,0-13.4,0-20.1c0-4.5,0-9.1,0-13.6c0-6.5,0-13,0-19.5c0-0.6,0-1.3,0-2
				c0.4-0.1,0.8-0.1,1.2-0.1c0-0.1,0-0.3,0-0.4c-0.5-0.4-1.1-0.6-1-1.6c0.1-2.1,0.2-4.2-0.2-6.2c-0.2-1,1-1.5,0.6-2.5
				c-0.4-0.8-0.4-1.8-0.5-2.8c-0.1-1.3,0.3-2.7,0.1-4c-0.5-3.5-0.8-7-0.4-10.5c0.6-5.3,0.2-10.5,0.3-15.8c0.1-3.4-0.1-6.7,0.1-10.1
				c0.1-2.3,0.2-4.7-0.1-7c-0.1-1.1,1.1-1.9,0.3-3.2c-0.5-0.9,0-2.3,0-3.5c-0.1-2.2-0.2-4.5-0.2-6.7c0-3.6,0-7.2,0.1-10.8
				c0-0.9,0.4-1.8,0.6-2.9c-0.7-0.6-0.9-1.5-0.4-2.7c0.2-0.4-0.2-1-0.2-1.6c0-2.5-0.1-5,0-7.4c0-0.4,0.2-0.7,0.4-1.1
				c0.1-0.3,0.4-0.6,0.3-0.7c-1.1-1.6-0.6-3.4-0.6-5c-0.1-4.6,0-9.3,0-13.9c0-10.6,0-21.2,0-31.8c0-0.3,0.1-0.6,0.1-0.9
				c0.4,0,0.8,0,1.2,0c-1.3-1-1.3-1-1.3-2.7c0-13.6,0-27.1,0-40.7c0-0.6,0.1-1.3,0-1.9c-0.1-1.1,0.5-1.6,1.6-1.8
				c-0.4-0.1-0.8-0.2-1.6-0.3c0-2.6,0-5.3,0-7.9c0-6.7,0-13.3,0-20c0-5.5,0-11,0.2-16.4c0.1-1.7-0.3-3.4,0.3-5.1
				c0.3-0.8-0.4-1.9-0.5-2.8c-0.1-4,0-8,0-12.2H3.4c0.5-1.5,0.5-2.6,1.5-3.4c5-4,8.2-9.9,9.5-16.2C14.7,8.2,15.2,7.9,16.3,6.4z
				 M756.1,346.5c-1.1,0.2-1.8,0.3-2.7,0.4C754.3,347.9,755,348,756.1,346.5z M15.2,40.2c-1.2-0.2-1.2-0.2-1.4,0.8
				C14.2,40.7,14.6,40.5,15.2,40.2z M16.3,141.2c-0.3-0.3-0.5-0.5-0.6-0.7c-0.2,0.2-0.5,0.4-0.5,0.6c0,0.2,0.2,0.4,0.4,0.7
				C15.8,141.6,16,141.4,16.3,141.2z M14.7,337.3c0.1,0.1,0.2,0.3,0.3,0.4c0.3-0.2,0.5-0.4,0.7-0.6c0,0-0.2-0.4-0.2-0.3
				C15.3,337,15,337.2,14.7,337.3z M331.1,352c0.2,0,0.4-0.1,0.6-0.1c-0.1-0.4-0.2-0.9-0.2-1.3c-0.2,0-0.3,0-0.5,0.1
				C331,351.2,331,351.6,331.1,352z M350.2,351.2c0-0.1,0.1-0.2,0.1-0.3c-0.3-0.1-0.5-0.3-0.8-0.4c-0.2,0-0.4,0.1-0.6,0.2
				c0,0.1,0,0.2,0.1,0.3C349.4,351.1,349.8,351.2,350.2,351.2z M296.1,351.5c-0.1-0.1-0.2-0.2-0.2-0.3c-0.4,0.3-0.8,0.5-1.1,0.8
				c0.1,0.1,0.2,0.3,0.3,0.4C295.4,352.1,295.8,351.8,296.1,351.5z M48.7,353.1c-0.2,0.1-0.3,0.2-0.3,0.2c0,0,0,0.1,0.1,0.2
				c0.3,0.2,0.7,0.4,1,0.6c0.1-0.1,0.1-0.2,0.2-0.4C49.3,353.5,49,353.3,48.7,353.1z M461.4,353.3c-0.1,0.2-0.1,0.4-0.2,0.5
				c0.5,0.1,1,0.3,1.5,0.4c0.1-0.2,0.1-0.3,0.2-0.5C462.4,353.6,461.9,353.4,461.4,353.3z M154.6,355c-0.6-0.2-0.9-0.4-1.1-0.4
				c-0.2,0.1-0.4,0.4-0.6,0.6c0.2,0.1,0.5,0.4,0.7,0.3C153.9,355.6,154.1,355.4,154.6,355z"/>
		</g>
	</g>
	<g>
		<path class="st2" d="M47.7,190.9h10.1v3.2h-7l-0.2,2.8c0.7-0.2,1.2-0.3,2.2-0.3c3.2,0,5.7,1.5,5.7,5.3c0,3.5-2.5,5.7-6.2,5.7
			c-2.6,0-4.5-0.9-6.1-2.5l2.2-2.6c1.2,1.1,2.5,1.8,3.9,1.8c1.7,0,2.7-0.8,2.7-2.3c0-1.4-1.1-2.2-2.9-2.2c-1,0-2,0.3-2.7,0.6
			l-2.1-1.4L47.7,190.9z"/>
		<path class="st2" d="M60.8,190.9h11.8v2.7l-7.4,13.7h-4.1l7.3-13.3h-7.7V190.9z"/>
		<path class="st2" d="M74.2,207.3h-1.5v-3.7h3.8v3.2c0,3.1-1.5,4.3-4.3,4.4l-0.3-1.5C73.5,209.4,74.3,208.6,74.2,207.3z"/>
		<path class="st2" d="M85.1,207.6c-2.4,0-4-0.8-5.4-1.9l1.9-2.7c1.2,1,2.2,1.4,3.6,1.4c2,0,3.1-1.5,3.3-3.7
			c-0.8,0.7-1.9,1.1-3.3,1.1c-3.6,0-5.9-2-5.9-5.3c0-3.3,2.6-5.8,6.3-5.8c2.2,0,3.5,0.5,4.7,1.8c1.2,1.2,1.9,3,1.9,6.2
			C92.3,203.9,89.7,207.6,85.1,207.6z M85.7,193.7c-1.8,0-2.8,1-2.8,2.5s1.1,2.5,2.9,2.5s2.8-1,2.8-2.5
			C88.6,194.8,87.5,193.7,85.7,193.7z"/>
		<path class="st2" d="M102,207.6c-4.4,0-7.3-3.7-7.3-8.5s2.9-8.5,7.3-8.5s7.3,3.7,7.3,8.5S106.4,207.6,102,207.6z M102,193.9
			c-2.2,0-3.6,2.2-3.6,5.2s1.4,5.2,3.6,5.2c2.2,0,3.6-2.2,3.6-5.2S104.2,193.9,102,193.9z"/>
		<path class="st2" d="M113.2,190.9h10.1v3.2h-7l-0.2,2.8c0.7-0.2,1.2-0.3,2.2-0.3c3.2,0,5.7,1.5,5.7,5.3c0,3.5-2.5,5.7-6.2,5.7
			c-2.6,0-4.5-0.9-6.1-2.5l2.2-2.6c1.2,1.1,2.5,1.8,3.9,1.8c1.7,0,2.7-0.8,2.7-2.3c0-1.4-1.1-2.2-2.9-2.2c-1,0-2,0.3-2.7,0.6
			l-2.1-1.4L113.2,190.9z"/>
		<path class="st2" d="M47.1,235.4V219h12.4v3.2h-8.8v3.3h7.7v3.2h-7.7v3.4h8.9v3.2H47.1z"/>
		<path class="st2" d="M70.3,235.4v-7c0-1.7-0.8-2.6-2.2-2.6s-2.2,0.9-2.2,2.6v7h-3.6v-12.6H66v1.8c0.8-1.1,1.9-2,3.7-2
			c2.7,0,4.3,1.8,4.3,4.7v8.1H70.3z"/>
		<path class="st2" d="M82.6,239.2c-2,0-4-0.5-5.6-1.3l1.2-2.7c1.3,0.7,2.6,1.1,4.2,1.1c2.4,0,3.6-1.2,3.6-3.4v-0.6
			c-1.1,1.3-2.2,2-4.1,2c-2.9,0-5.6-2.1-5.6-5.9v0c0-3.7,2.7-5.9,5.6-5.9c1.9,0,3.1,0.8,4.1,1.9v-1.6h3.6v9.7
			C89.6,237.3,87.3,239.2,82.6,239.2z M86.1,228.5c0-1.7-1.3-2.9-3.1-2.9s-3,1.2-3,2.9v0c0,1.7,1.3,2.9,3,2.9S86.1,230.2,86.1,228.5
			L86.1,228.5z"/>
		<path class="st2" d="M93,235.4v-17.1h3.6v17.1H93z"/>
		<path class="st2" d="M99.9,221.5v-3.2h3.7v3.2H99.9z M100,235.4v-12.6h3.6v12.6H100z"/>
		<path class="st2" d="M111.3,235.6c-1.8,0-3.7-0.6-5.4-1.9l1.5-2.3c1.4,1,2.8,1.5,4,1.5c1,0,1.5-0.4,1.5-0.9v0c0-0.8-1.2-1-2.6-1.5
			c-1.8-0.5-3.7-1.3-3.7-3.8v0c0-2.6,2.1-4,4.6-4c1.6,0,3.3,0.5,4.7,1.5l-1.4,2.5c-1.2-0.7-2.5-1.2-3.4-1.2c-0.9,0-1.3,0.4-1.3,0.9
			v0c0,0.7,1.2,1,2.6,1.5c1.8,0.6,3.8,1.4,3.8,3.7v0C116.1,234.4,114.1,235.6,111.3,235.6z"/>
		<path class="st2" d="M126.6,235.4v-7c0-1.7-0.8-2.6-2.2-2.6s-2.2,0.9-2.2,2.6v7h-3.6v-17.1h3.6v6.3c0.8-1.1,1.9-2,3.7-2
			c2.7,0,4.3,1.8,4.3,4.7v8.1H126.6z"/>
		<path class="st2" d="M53.9,263.8c-4.4,0-7.1-2.5-7.1-7.3v-9.4h3.6v9.3c0,2.7,1.3,4.1,3.5,4.1c2.2,0,3.5-1.3,3.5-3.9v-9.4h3.6v9.3
			C61.1,261.3,58.3,263.8,53.9,263.8z"/>
		<path class="st2" d="M68.8,263.7c-1.8,0-3.7-0.6-5.4-1.9l1.5-2.3c1.4,1,2.8,1.5,4,1.5c1,0,1.5-0.4,1.5-0.9v0c0-0.8-1.2-1-2.6-1.5
			c-1.8-0.5-3.7-1.3-3.7-3.8v0c0-2.6,2.1-4,4.6-4c1.6,0,3.3,0.5,4.7,1.5l-1.4,2.5c-1.2-0.7-2.5-1.2-3.4-1.2c-0.9,0-1.3,0.4-1.3,0.9
			v0c0,0.7,1.2,1,2.6,1.5c1.8,0.6,3.8,1.4,3.8,3.7v0C73.6,262.5,71.5,263.7,68.8,263.7z"/>
		<path class="st2" d="M87.8,258.5h-8.7c0.4,1.6,1.5,2.5,3.1,2.5c1.2,0,2.1-0.4,3-1.3l2,1.8c-1.2,1.5-2.9,2.3-5.1,2.3
			c-3.8,0-6.6-2.6-6.6-6.5v0c0-3.6,2.6-6.5,6.2-6.5c4.2,0,6.1,3.3,6.1,6.8v0C87.9,257.9,87.9,258.1,87.8,258.5z M81.8,253.6
			c-1.5,0-2.4,1.1-2.7,2.7h5.4C84.2,254.6,83.3,253.6,81.8,253.6z"/>
		<path class="st2" d="M97.9,254.4c-2.4,0-3.8,1.4-3.8,4.4v4.6h-3.6v-12.6h3.6v2.5c0.7-1.7,1.9-2.9,4-2.8v3.7H97.9z"/>
		<path class="st2" d="M104.7,263.7c-1.8,0-3.7-0.6-5.4-1.9l1.5-2.3c1.4,1,2.8,1.5,4,1.5c1,0,1.5-0.4,1.5-0.9v0c0-0.8-1.2-1-2.6-1.5
			c-1.8-0.5-3.7-1.3-3.7-3.8v0c0-2.6,2.1-4,4.6-4c1.6,0,3.3,0.5,4.7,1.5l-1.4,2.5c-1.2-0.7-2.5-1.2-3.4-1.2c-0.9,0-1.3,0.4-1.3,0.9
			v0c0,0.7,1.2,1,2.6,1.5c1.8,0.6,3.8,1.4,3.8,3.7v0C109.5,262.5,107.4,263.7,104.7,263.7z"/>
	</g>
	<g>
		<path class="st2" d="M208.5,196.1l-2.5-2c1.6-2.2,3.2-3.4,6.1-3.4c3.5,0,5.6,2,5.6,5.1c0,2.7-1.4,4.1-4.3,6.4l-2.7,2.1h7.1v3.1
			h-12.1v-2.9l5.5-4.5c2-1.7,2.8-2.6,2.8-3.9c0-1.4-0.9-2.1-2.2-2.1C210.6,193.9,209.7,194.6,208.5,196.1z"/>
		<path class="st2" d="M230.9,195.2c-1.1-0.8-1.9-1.3-3.3-1.3c-2,0-3.1,1.6-3.3,3.8c0.8-0.5,1.8-1.1,3.4-1.1c3.3,0,5.8,1.8,5.8,5.2
			c0,3.4-2.7,5.7-6.3,5.7c-2.1,0-3.6-0.6-4.7-1.8c-1.2-1.2-1.9-3-1.9-6.2c0-5.1,2.3-9,7.2-9c2.2,0,3.7,0.7,5.1,1.8L230.9,195.2z
			 M227,199.6c-1.8,0-2.8,1-2.8,2.4c0,1.4,1.1,2.5,2.9,2.5s2.8-1,2.8-2.4C229.8,200.6,228.8,199.6,227,199.6z"/>
		<path class="st2" d="M236.3,194v-3.1h11.1v2.7l-4.1,4c2.2,0.4,4.4,1.5,4.4,4.6c0,3.1-2.2,5.4-5.9,5.4c-3,0-5-1.2-6.4-2.8l2.5-2.4
			c1.1,1.3,2.3,2,4,2c1.4,0,2.3-0.8,2.3-2c0-1.4-1.1-2.1-3.2-2.1h-1.5l-0.6-2.3l3.9-3.9H236.3z"/>
		<path class="st2" d="M251.9,207.3h-1.5v-3.7h3.8v3.2c0,3.1-1.5,4.3-4.3,4.4l-0.3-1.5C251.3,209.4,252.1,208.6,251.9,207.3z"/>
		<path class="st2" d="M263.8,207.6c-4.4,0-7.3-3.7-7.3-8.5c0-4.8,2.9-8.5,7.3-8.5s7.3,3.7,7.3,8.5
			C271.1,203.8,268.2,207.6,263.8,207.6z M263.8,193.9c-2.2,0-3.6,2.2-3.6,5.2s1.4,5.2,3.6,5.2c2.2,0,3.6-2.2,3.6-5.2
			S266,193.9,263.8,193.9z"/>
		<path class="st2" d="M280.9,207.6c-4.4,0-7.3-3.7-7.3-8.5c0-4.8,2.9-8.5,7.3-8.5s7.3,3.7,7.3,8.5
			C288.2,203.8,285.3,207.6,280.9,207.6z M280.9,193.9c-2.2,0-3.6,2.2-3.6,5.2s1.4,5.2,3.6,5.2c2.2,0,3.6-2.2,3.6-5.2
			S283.1,193.9,280.9,193.9z"/>
		<path class="st2" d="M294.6,190.8h2.5v16.5h-3.6v-12.9l-2.9,0.7l-0.7-3L294.6,190.8z"/>
		<path class="st2" d="M218.8,235.4l-1.5-3.7h-6.9l-1.5,3.7h-3.7l7-16.5h3.3l7,16.5H218.8z M213.8,223.2l-2.2,5.3h4.4L213.8,223.2z"
			/>
		<path class="st2" d="M232.1,226.3c-2.4,0-3.8,1.4-3.8,4.4v4.6h-3.6v-12.6h3.6v2.5c0.7-1.7,1.9-2.9,4-2.8v3.7H232.1z"/>
		<path class="st2" d="M241.3,235.4V234c-0.9,1-2.1,1.6-3.8,1.6c-2.4,0-4.3-1.4-4.3-3.8v0c0-2.7,2.1-4,5.1-4c1.3,0,2.2,0.2,3.1,0.5
			V228c0-1.5-0.9-2.3-2.7-2.3c-1.4,0-2.3,0.3-3.5,0.7l-0.9-2.7c1.4-0.6,2.7-1,4.9-1c3.9,0,5.6,2,5.6,5.4v7.3H241.3z M241.4,230.3
			c-0.6-0.3-1.4-0.5-2.3-0.5c-1.5,0-2.5,0.6-2.5,1.7v0c0,1,0.8,1.5,1.9,1.5c1.7,0,2.8-0.9,2.8-2.2V230.3z"/>
		<path class="st2" d="M255.3,235.6c-1.9,0-3.1-0.9-3.9-1.9v1.6h-3.6v-17.1h3.6v6.3c0.9-1.2,2.1-2,3.9-2c2.9,0,5.7,2.3,5.7,6.5v0
			C261,233.3,258.2,235.6,255.3,235.6z M257.4,229.1c0-2.1-1.4-3.5-3.1-3.5c-1.7,0-3,1.4-3,3.5v0c0,2.1,1.4,3.5,3,3.5
			C256,232.6,257.4,231.2,257.4,229.1L257.4,229.1z"/>
		<path class="st2" d="M263.7,221.5v-3.2h3.7v3.2H263.7z M263.8,235.4v-12.6h3.6v12.6H263.8z"/>
		<path class="st2" d="M276.6,235.7c-3.8,0-6.5-2.9-6.5-6.5v0c0-3.6,2.7-6.5,6.6-6.5c2.4,0,3.8,0.8,5,2.1l-2.2,2.3
			c-0.8-0.8-1.6-1.4-2.9-1.4c-1.8,0-3,1.6-3,3.4v0c0,1.9,1.2,3.5,3.2,3.5c1.2,0,2-0.5,2.9-1.3l2.1,2.1
			C280.5,234.7,279.1,235.7,276.6,235.7z"/>
		<path class="st2" d="M213.4,263.8c-4.4,0-7.1-2.5-7.1-7.3v-9.4h3.6v9.3c0,2.7,1.3,4.1,3.5,4.1c2.2,0,3.5-1.3,3.5-3.9v-9.4h3.6v9.3
			C220.6,261.3,217.8,263.8,213.4,263.8z"/>
		<path class="st2" d="M228.3,263.7c-1.8,0-3.7-0.6-5.4-1.9l1.5-2.3c1.4,1,2.8,1.5,4,1.5c1,0,1.5-0.4,1.5-0.9v0c0-0.8-1.2-1-2.6-1.5
			c-1.8-0.5-3.7-1.3-3.7-3.8v0c0-2.6,2.1-4,4.6-4c1.6,0,3.3,0.5,4.7,1.5l-1.4,2.5c-1.2-0.7-2.5-1.2-3.4-1.2c-0.9,0-1.3,0.4-1.3,0.9
			v0c0,0.7,1.2,1,2.6,1.5c1.8,0.6,3.8,1.4,3.8,3.7v0C233.1,262.5,231,263.7,228.3,263.7z"/>
		<path class="st2" d="M247.4,258.5h-8.7c0.4,1.6,1.5,2.5,3.1,2.5c1.2,0,2.1-0.4,3-1.3l2,1.8c-1.2,1.5-2.9,2.3-5.1,2.3
			c-3.8,0-6.6-2.6-6.6-6.5v0c0-3.6,2.6-6.5,6.2-6.5c4.2,0,6.1,3.3,6.1,6.8v0C247.4,257.9,247.4,258.1,247.4,258.5z M241.3,253.6
			c-1.5,0-2.4,1.1-2.7,2.7h5.4C243.7,254.6,242.8,253.6,241.3,253.6z"/>
		<path class="st2" d="M257.4,254.4c-2.4,0-3.8,1.4-3.8,4.4v4.6H250v-12.6h3.6v2.5c0.7-1.7,1.9-2.9,4-2.8v3.7H257.4z"/>
		<path class="st2" d="M264.2,263.7c-1.8,0-3.7-0.6-5.4-1.9l1.5-2.3c1.4,1,2.8,1.5,4,1.5c1,0,1.5-0.4,1.5-0.9v0c0-0.8-1.2-1-2.6-1.5
			c-1.8-0.5-3.7-1.3-3.7-3.8v0c0-2.6,2.1-4,4.6-4c1.6,0,3.3,0.5,4.7,1.5l-1.4,2.5c-1.2-0.7-2.5-1.2-3.4-1.2c-0.9,0-1.3,0.4-1.3,0.9
			v0c0,0.7,1.2,1,2.6,1.5c1.8,0.6,3.8,1.4,3.8,3.7v0C269,262.5,267,263.7,264.2,263.7z"/>
	</g>
	<g>
		<path class="st4" d="M284.7,9v9.5h-2.6V9h-3.6V6.6h9.9V9H284.7z"/>
		<path class="st4" d="M298.5,18.5v-4.8h-4.8v4.8H291V6.6h2.6v4.7h4.8V6.6h2.6v11.9H298.5z"/>
		<path class="st4" d="M304.6,18.5V6.6h9v2.3h-6.4v2.4h5.6v2.3h-5.6v2.5h6.5v2.3H304.6z"/>
		<path class="st4" d="M329.7,18.5l-2.5-3.8h-2.1v3.8h-2.6V6.6h5.4c2.8,0,4.5,1.5,4.5,3.9v0c0,1.9-1,3.1-2.5,3.7l2.9,4.2H329.7z
			 M329.8,10.6c0-1.1-0.8-1.7-2.1-1.7h-2.6v3.4h2.7C329,12.3,329.8,11.7,329.8,10.6L329.8,10.6z"/>
		<path class="st4" d="M335.5,18.5V6.6h9v2.3h-6.4v2.4h5.6v2.3h-5.6v2.5h6.5v2.3H335.5z"/>
		<path class="st4" d="M352.2,18.5h-4.6V6.6h4.6c3.7,0,6.3,2.6,6.3,5.9v0C358.5,15.9,355.9,18.5,352.2,18.5z M355.8,12.5
			c0-2.1-1.4-3.6-3.6-3.6h-2v7.2h2C354.3,16.1,355.8,14.7,355.8,12.5L355.8,12.5z"/>
		<path class="st4" d="M361.6,18.5V6.6h2.6v11.9H361.6z"/>
		<path class="st4" d="M375.1,18.5l-2.5-3.8h-2.1v3.8h-2.6V6.6h5.4c2.8,0,4.5,1.5,4.5,3.9v0c0,1.9-1,3.1-2.5,3.7l2.9,4.2H375.1z
			 M375.2,10.6c0-1.1-0.8-1.7-2.1-1.7h-2.6v3.4h2.7C374.4,12.3,375.2,11.7,375.2,10.6L375.2,10.6z"/>
		<path class="st4" d="M380.9,18.5V6.6h9v2.3h-6.4v2.4h5.6v2.3h-5.6v2.5h6.5v2.3H380.9z"/>
		<path class="st4" d="M398.5,18.7c-3.5,0-6.1-2.7-6.1-6.1v0c0-3.4,2.5-6.2,6.2-6.2c2.2,0,3.6,0.7,4.7,1.8l-1.7,1.9
			c-0.9-0.8-1.9-1.3-3-1.3c-2,0-3.5,1.7-3.5,3.7v0c0,2,1.4,3.7,3.5,3.7c1.4,0,2.2-0.5,3.1-1.4l1.7,1.7
			C402.2,17.8,400.8,18.7,398.5,18.7z"/>
		<path class="st4" d="M411.6,9v9.5h-2.6V9h-3.6V6.6h9.9V9H411.6z"/>
		<path class="st4" d="M432.9,18.5v-7.8l-3.3,5.1h-0.1l-3.3-5v7.7h-2.6V6.6h2.8l3.1,5l3.1-5h2.8v11.9H432.9z"/>
		<path class="st4" d="M438.4,18.5V6.6h9v2.3H441v2.4h5.6v2.3H441v2.5h6.5v2.3H438.4z"/>
		<path class="st4" d="M455.2,9v9.5h-2.6V9h-3.6V6.6h9.9V9H455.2z"/>
		<path class="st4" d="M468.3,18.5v-4.8h-4.8v4.8h-2.6V6.6h2.6v4.7h4.8V6.6h2.6v11.9H468.3z"/>
		<path class="st4" d="M479.5,18.7c-3.7,0-6.3-2.7-6.3-6.1v0c0-3.4,2.7-6.2,6.3-6.2s6.3,2.7,6.3,6.1v0
			C485.8,15.9,483.2,18.7,479.5,18.7z M483.1,12.5c0-2-1.5-3.7-3.6-3.7s-3.6,1.7-3.6,3.7v0c0,2,1.5,3.7,3.6,3.7
			C481.6,16.2,483.1,14.6,483.1,12.5L483.1,12.5z"/>
		<path class="st4" d="M492.8,18.5h-4.6V6.6h4.6c3.7,0,6.3,2.6,6.3,5.9v0C499.1,15.9,496.6,18.5,492.8,18.5z M496.4,12.5
			c0-2.1-1.4-3.6-3.6-3.6h-2v7.2h2C495,16.1,496.4,14.7,496.4,12.5L496.4,12.5z"/>
		<path class="st4" d="M288.8,38.9V27h9v2.3h-6.4v2.4h5.6V34h-5.6v2.5h6.5v2.3H288.8z"/>
		<path class="st4" d="M309.2,38.9l-5.8-7.6v7.6h-2.6V27h2.4l5.6,7.3V27h2.6v11.9H309.2z"/>
		<path class="st4" d="M320.7,39.1c-3.7,0-6.3-2.6-6.3-6.1v0c0-3.4,2.6-6.2,6.2-6.2c2.1,0,3.4,0.6,4.7,1.6l-1.6,2
			c-0.9-0.8-1.7-1.2-3.1-1.2c-1.9,0-3.4,1.7-3.4,3.7v0c0,2.2,1.5,3.8,3.6,3.8c1,0,1.8-0.2,2.5-0.7v-1.7h-2.6V32h5.2v5.2
			C324.6,38.2,322.9,39.1,320.7,39.1z"/>
		<path class="st4" d="M337.8,38.9l-1.1-2.7h-5l-1.1,2.7H328l5.1-12h2.4l5.1,12H337.8z M334.2,30l-1.6,3.9h3.2L334.2,30z"/>
		<path class="st4" d="M348.1,39.1c-3.7,0-6.3-2.6-6.3-6.1v0c0-3.4,2.6-6.2,6.2-6.2c2.1,0,3.4,0.6,4.7,1.6l-1.6,2
			c-0.9-0.8-1.7-1.2-3.1-1.2c-1.9,0-3.4,1.7-3.4,3.7v0c0,2.2,1.5,3.8,3.6,3.8c1,0,1.8-0.2,2.5-0.7v-1.7H348V32h5.2v5.2
			C351.9,38.2,350.2,39.1,348.1,39.1z"/>
		<path class="st4" d="M356.3,38.9V27h9v2.3h-6.4v2.4h5.6V34h-5.6v2.5h6.5v2.3H356.3z"/>
		<path class="st4" d="M377.7,38.9v-7.8l-3.3,5.1h-0.1l-3.3-5v7.7h-2.6V27h2.8l3.1,5l3.1-5h2.8v11.9H377.7z"/>
		<path class="st4" d="M383.8,38.9V27h9v2.3h-6.4v2.4h5.6V34h-5.6v2.5h6.5v2.3H383.8z"/>
		<path class="st4" d="M404.3,38.9l-5.8-7.6v7.6h-2.6V27h2.4l5.6,7.3V27h2.6v11.9H404.3z"/>
		<path class="st4" d="M415.4,29.4v9.5h-2.6v-9.5h-3.6V27h9.9v2.4H415.4z"/>
		<path class="st4" d="M434.7,38.9l-2.5-3.8h-2.1v3.8h-2.6V27h5.4c2.8,0,4.5,1.5,4.5,3.9v0c0,1.9-1,3.1-2.5,3.7l2.9,4.2H434.7z
			 M434.8,31c0-1.1-0.8-1.7-2.1-1.7h-2.6v3.4h2.7C434,32.7,434.8,32.1,434.8,31L434.8,31z"/>
		<path class="st4" d="M440.5,38.9V27h9v2.3h-6.4v2.4h5.6V34h-5.6v2.5h6.5v2.3H440.5z"/>
		<path class="st4" d="M461.4,38.9l-1.1-2.7h-5l-1.1,2.7h-2.7l5.1-12h2.4l5.1,12H461.4z M457.8,30l-1.6,3.9h3.2L457.8,30z"/>
		<path class="st4" d="M471.5,39.1c-3.5,0-6.1-2.7-6.1-6.1v0c0-3.4,2.5-6.2,6.2-6.2c2.2,0,3.6,0.7,4.7,1.8l-1.7,1.9
			c-0.9-0.8-1.9-1.3-3-1.3c-2,0-3.5,1.7-3.5,3.7v0c0,2,1.4,3.7,3.5,3.7c1.4,0,2.2-0.5,3.1-1.4l1.7,1.7
			C475.1,38.2,473.7,39.1,471.5,39.1z"/>
		<path class="st4" d="M486.6,38.9v-4.8h-4.8v4.8h-2.6V27h2.6v4.7h4.8V27h2.6v11.9H486.6z"/>
	</g>
</g>
</svg>
