<?xml version="1.0" encoding="utf-8"?>
<!-- Generator: Adobe Illustrator 19.1.0, SVG Export Plug-In . SVG Version: 6.00 Build 0)  -->
<svg version="1.1" id="Layer_1" xmlns="http://www.w3.org/2000/svg" xmlns:xlink="http://www.w3.org/1999/xlink" x="0px" y="0px"
	 viewBox="0 0 310 275" style="enable-background:new 0 0 310 275;" xml:space="preserve">
<style type="text/css">
	.st0{fill:#E0E1E0;}
	.st1{fill:#757576;}
	.st2{fill-rule:evenodd;clip-rule:evenodd;fill:#757576;}
	.st3{fill:#434343;}
	.st4{fill:#F37046;}
</style>
<g>
	<rect x="25.1" y="73.6" class="st0" width="262.3" height="148.3"/>
	<g>
		<path class="st1" d="M119.3,62.4c-0.6,0.6-1.2,1.1-1.7,1.5c0.8,0,1.7-0.4,2.3-0.1c0.9,0.5,1.6,1.4,2.3,2.2c0.3,0.3,0.2,1,0.5,1.3
			c0.2,0.2,0.8-0.1,1.2-0.2c-0.1-0.5-0.1-1.1-0.4-1.5c-1.8-3-0.9-3.5,2.3-3.4c8.4,0.2,16.8-0.2,25.1,0.2c7.1,0.3,14.3-0.3,21.4-0.1
			c7.4,0.2,14.8,0,22.2,0c16.5,0,33,0,49.6,0c6.4,0,12.8-0.3,19.1,0.5c3.3,0.4,6.2-1.4,9.5-0.6c1.8,0.4,3.7,2.6,5.8,0.2
			c0.5-0.5,2.2,0.2,3.4,0.2c4.7-0.1,9.3-0.3,14-0.2c0.9,0,2.3,1.7,2.4,2.7c0.3,4.2,0.2,8.5,0.1,12.8c0,0.5-0.8,1-1.1,1.6
			c-0.2,0.4-0.5,1-0.3,1.2c2.8,4.7,1.5,9.7,0.7,14.6c-0.1,0.6,0.4,1.3,0.4,1.9c0.1,4.3,0.4,8.6,0.2,12.9c-0.2,4,0.3,8,0.2,12.1
			c-0.2,4.4,0,8.9,0,13.3c0,15.3,0.2,30.6-0.3,45.9c-0.1,1.8-0.4,3.3-0.1,5.4c0.7,5,0.4,10.3,0.3,15.4c-0.1,4.2,0.1,8.4-0.1,12.6
			c0,1.2-0.9,2.3-1.3,3.4c-0.1,0.2-0.2,0.5-0.2,0.8c0.5,2.5,1.2,5,1.5,7.6c0.3,2.5,0.3,5.1-0.1,7.5c-0.1,1-1.6,2.5-2.5,2.6
			c-3.5,0.3-7.1,0.1-10.6,0.1c-5.3,0-10.7,0-16,0c-6.3,0-12.7,0-19,0c-17.4,0-34.7,0-52.1,0c-1.5,0-3.9,0.6-3.3-2.5
			c0-0.2-0.7-0.7-0.9-0.7c-0.4,0.1-0.9,0.6-0.9,0.9c-0.2,2.3-1.6,2.4-3.4,2.4c-7.2-0.1-14.5,0-21.7,0c-7,0-13.9,0-20.9,0
			c-1.4,0-3.2,0.5-4.2-0.1c-2.3-1.6-4.1,0.7-6.3,0.3c-2.6-0.5-5.5,0.1-8.2-0.2c-0.9-0.1-1.8-1.4-2.5-2.3c-0.4-0.5-0.4-1.3-0.7-1.9
			c-0.1-0.1-1.1,0.1-1.1,0.2c-0.2,0.9-0.3,1.9-0.3,2.9c0,0.4,0.5,0.7,0.8,1c-0.5,0.1-1,0.2-1.5,0.2c-3,0-6.1-0.1-9.1,0
			c-1.9,0.1-3.7-3.4-5.6,0c-9,0-18,0-27.1,0c-7.1,0-14.3,0.1-21.4,0c-7.8-0.1-15.7-0.2-23.5-0.4c-6.9-0.2-13.7,0.8-20.6,0.5
			c-2.7-0.1-4-1-3.8-3.7c0.2-2.1,0.8-4.2,0.8-6.3c0.1-1.5-0.6-3-0.6-4.6c0-14.8,0-29.6,0-44.4c0-10.2-0.1-20.3-0.2-30.5
			c0-2.3-0.9-5.3,0.2-6.6c1.8-2.2-0.1-3.6,0-5.3c0.1-5.6-0.2-11.2-0.1-16.8c0-1.3,0.8-2.6,1.2-4c0.1-0.4,0.1-0.9-0.1-1.2
			c-1.9-2.2-1.8-6.2,0.3-8.9c0.2-0.2,0.1-0.9-0.2-1.1c-2.3-2.2-1.7-4.5-0.4-7c0.2-0.3,0-0.8-0.1-1.2c-0.1-0.4-0.7-0.8-0.7-0.9
			c1.2-3-0.5-6-0.2-9c0.4-3.3,0.1-6.7,0.1-10.1c0-0.4,0.5-1,1-1.2c0.4-0.2,1,0.1,1.5,0.2c-0.4-0.5-0.7-1.1-1.1-1.5
			c-1.2-1.1-2.1-8.2-1.1-9.6c0.2-0.2,0.4-0.6,0.6-0.6c4.5,0,9-0.1,13.5-0.1c2.6,0,5.2,0.2,7.8,0.1c7.2,0,14.3-0.1,21.5-0.1
			c5.3,0,10.7-0.2,16-0.2c11.2,0,22.5,0,33.7,0.1c1,0,2,0.9,3,1.4c0.2,0.1,0.4,0.2,0.5,0.3c1.4-3.6,4.4-1.1,6.6-1.7
			C116.5,62.1,118,62.4,119.3,62.4z M284.7,84.8c0.1,0,0.1,0,0.2,0c0-1.1-0.1-2.2,0-3.3c0.5-3.3-0.9-4.3-4.2-4.3
			c-3.9,0-7.7-0.8-11.6-1.1c-0.4,0-0.8,0.3-1.2,0.4c-1.1,0.3-2.2,0.8-3.2,0.8c-13.6,0.1-27.3,0-40.9,0c-6.3,0-12.6,0-19,0
			c-2.9,0-5.7-1.2-8.8-0.2c-2.6,0.8-5.6,0.2-8.5,0.2c-11.8,0-23.6,0-35.4,0c-6.9,0-13.8,0-20.7,0c-1.2,0-2.3-0.6-3.5-0.6
			c-4.1,0.1-8.3,0.4-12.4,0.5c-1,0-1.9-0.9-2.9-0.9c-1.6,0.1-3.2,0.9-4.8,0.9c-7.7,0.1-15.5,0.1-23.2,0c-7.2-0.1-14.5-0.5-21.7-0.6
			c-5.4,0-10.8,0.4-16.2,0.6c-1.2,0-2.4-0.4-3.6-0.5c-1.9-0.2-3.7-0.5-5.6-0.7c-0.4,0-0.8,0.1-1.2,0.2c-0.9,0.3-1.8,0.9-2.7,1
			c-2.1,0.2-4.2-0.3-6.2,0.2c-1.4,0.3-2.5,1.7-3.8,2.6c3.3,2,1.1,5.1,1.5,7.6c0.3,1.9,0.6,5-0.3,5.6c-2.8,1.8-0.7,2.2,0.4,3.2
			c0.1,0.1,0,0.4,0,0.6c0,0.7,0.1,1.5,0,2.2c-0.5,1.9-0.2,3.8-0.3,5.5c-0.5,9.2,2.7,18.6-1.8,27.5c-0.2,0.3,0.2,0.9,0.3,1.4
			c0.3-0.3,0.6-0.7,0.9-1c0.2-0.2,0.4-0.3,0.7-0.5c0.1,0.2,0.2,0.4,0.2,0.5c0,3,0.1,6.1,0.1,9.1c0,11.9,0,23.7,0,35.6
			c0,13.6,0.1,27.2,0,40.9c0,3.2,1.5,4.6,4.4,4.2c4.9-0.7,9.7,0.8,14.7,0.3c7.2-0.7,14.6-0.3,21.9-0.2c2.5,0,5.1,0.4,7.6-0.1
			c2.4-0.5,4.2,1.6,6.9,0.3c1.9-0.9,4.7-0.1,7.1-0.1c6.4,0,12.7,0.1,19.1,0.1c8.7,0,17.4-0.1,26.1-0.1c0.8,0,1.5,0.6,2.3,0.7
			c1.1,0.1,2.1,0,3.2,0.1c0.9,0.1,1.8,0.4,2.7,0.3c1.2-0.2,2.3-1,3.5-1c24.2-0.1,48.4-0.1,72.6,0c4,0,8,0.1,12.1,0.1
			c16.4,0,32.9-0.1,49.3,0c5.4,0.1,6.5-0.6,6.5-5.9c0-10.5,0-21,0-31.5c0-0.7,0.4-2,0.7-2c3.2-0.2,0.3-1.4,0.3-2
			c0-3.7-0.3-7.4-0.2-11.1c0-0.8,3.9-2-0.4-1.9c-0.1,0-0.4-0.9-0.4-1.3c0-7.4-0.5-14.9,0.3-22.3c0.2-1.9-0.4-3.4-0.3-5.1
			c0.2-2.5,0.6-5.1,0.6-7.6c-0.1-6-0.5-12.1-0.5-18.1c0-5.8,0.5-11.6,0.5-17.4C285.5,92.5,285,88.7,284.7,84.8z M12.3,146.2
			c0.8,1.3,1.3,2.2,1.9,2.9c0.2,0.2,1.2,0.1,1.3-0.1c0.2-0.5,0.2-1.2,0.2-1.7c0-0.4-0.3-0.8-0.5-1.2c-0.2-0.7-0.4-1.3-0.7-2
			C13.9,144.7,13.2,145.4,12.3,146.2z M224.7,69.5c-0.2-0.2-0.3-0.4-0.5-0.7c-0.2,0.2-0.3,0.4-0.5,0.6c0.5,0.4,1,0.8,1.5,1
			c0.9,0.5,1.9,0.9,2.8,1.4c0.3,0.2,0.6,0.6,0.8,0.9c0.2-0.3,0.7-0.8,0.6-1c-0.3-1-0.8-1.9-1.2-2.9c-0.1-0.4-0.1-0.8-0.1-1.3
			c-0.5,0.2-1,0.3-1.4,0.6C226,68.5,225.4,69,224.7,69.5z M22.6,107.7c-1.8-0.8-2.9-1.6-4.2-1.9c-0.3-0.1-1.4,1.2-1.4,1.9
			c0,0.7,1.1,1.9,1.5,1.9C19.7,109.3,20.8,108.5,22.6,107.7z M176.6,223.4c-1-0.2-2.5-0.8-2.6-0.6c-0.7,1.2-1.2,2.7-1.6,4.1
			c-0.1,0.2,0.5,0.5,0.8,0.8C174.2,226.4,175.3,225,176.6,223.4z M19.6,83.4c-0.6-0.8-1.3-2-1.6-1.9c-0.8,0.3-2,1.1-2,1.5
			c0.2,1,1,1.8,1.6,2.7C18.2,85,18.8,84.3,19.6,83.4z M191.4,227.4c-0.9,1.3-1.5,2.1-2.1,2.9c-0.1,0.1,0.5,0.8,0.6,0.7
			c1-0.4,2-0.9,3-1.3C192.6,229.1,192.2,228.5,191.4,227.4z M230.7,228c-1.1,0-2-0.3-2.4,0.1c-0.6,0.5-1.1,1.3-1.3,2
			c-0.1,0.5,0.3,1.2,0.7,1.7c0.1,0.1,0.7,0,1-0.1c0-0.3-0.2-0.7-0.1-1c0.2-0.5,0.4-1.1,0.8-1.6C229.7,228.8,230,228.6,230.7,228z
			 M69.9,63.9c-1,0.6-1.5,0.9-2,1.1c0.9,0.7,1.7,1.4,2.6,2.1c0.2-0.4,0.7-0.9,0.6-1.2C70.8,65.3,70.4,64.7,69.9,63.9z M294.2,107.4
			c0.6-0.4,1.1-0.7,1.6-1c-0.8-0.6-1.5-1.4-2.4-1.7c-0.3-0.1-1,0.8-1.5,1.2C292.6,106.3,293.3,106.8,294.2,107.4z M14,162.2
			c0.5-1.7,0.8-2.9,1.1-4c0-0.2-0.5-0.4-0.8-0.7c-0.5,0.9-1,1.9-1.3,2.9C12.8,160.7,13.4,161.2,14,162.2z"/>
		<path class="st1" d="M290.6,272.9c-2.3-0.5-4.5-1.2-6.8-1.5c-1.1-0.1-2.2,0.9-3.3,0.9c-15.1,0.1-30.2,0.1-45.3,0
			c-0.7,0-1.5-0.8-2.3-1.2c-0.4-0.2-1-0.2-1.4-0.2c-1.2,0.2-2.4,0.4-3.5,0.6c-0.8,0.2-1.5,0.7-2.3,0.7c-11.6-0.2-23.2-0.4-34.8-0.6
			c-1.6,0-3.2,0.6-4.8,0.6c-17.5,0-34.9,0-52.4,0c-1.8,0-3.6,0-5.4,0c-0.4,0-0.8-0.2-1.2-0.3c0.1-0.3,0.1-0.7,0.3-0.9
			c0.2-0.4,0.5-0.7,0.8-1c-0.9-0.2-1.8-0.4-2.8-0.5c-0.2,0-0.6,0.5-0.5,0.8c0.4,2-0.8,2.1-2.3,2.1c-6-0.1-12,0-18-0.1
			c-1.2,0-2.4-0.7-3.6-1c-0.4-0.1-0.9-0.3-1.3-0.2c-6,0.4-11.9,1-17.9,1.2c-4.1,0.2-8.3,0-12.4,0c-15.4,0-30.7,0-46.1,0
			c-3.6,0-7.2-0.1-10.7-0.5c-4.8-0.6-7.4-4.3-10.1-7.8c2.3-2.6-0.5-3.1-1.5-4.7c-0.9-1.4-0.6-3.8-0.4-5.7c0.1-0.6,1.5-1.4,2.4-1.4
			c8.1-0.1,16.3-0.1,24.4-0.1c1.8,0,3.6-0.2,5.2,0.3c3.9,1,7.6-0.8,11.5-0.4c4.3,0.5,8.6,0,13,0.2c1.4,0,2.7,0.8,4.1,1.1
			c0.3,0.1,0.7,0.1,1.1,0c1.6-0.4,3.2-1.1,4.8-1.1c5.7-0.1,11.4-0.1,17.1-0.1c0.4,0,0.9-0.2,1.1,0c2.4,2.7,4.8-0.2,7.2-0.1
			c3.1,0.2,6.2,0,9.2,0.1c1,0,2,0.6,3,0.7c1,0.1,2-0.1,3-0.3c0.8-0.1,1.5-0.5,2.3-0.5c9.1,0,18.1,0,27.2,0c3,0,6.1,0,9.1,0
			c11.4,0,22.7,0,34.1,0c7.1,0,14.3,0,21.4,0c7.8,0,15.7,0,23.5,0c0.7,0,1.3,0.8,2,1c0.5,0.1,1.1-0.1,1.7-0.1
			c1.2-0.1,2.4-0.3,3.6-0.4c0.9-0.1,1.8-0.1,2.6-0.1c6.3,0,12.6,0,19-0.1c3.1,0,6.1-0.2,9.2-0.2c13.9,0,27.8,0.1,41.7-0.1
			c3.4-0.1,4.1,1.9,4.2,4.1c0.4,9.2-5.7,16.1-15.3,16.2c-1.1,0-2.2,0-3.3,0C290.7,272.6,290.7,272.7,290.6,272.9z M208.8,256.5
			c-0.8,1.5-1.3,2.3-1.7,3.2c-0.1,0.1,0.3,0.6,0.4,0.6c1.2-0.6,2.4-1.3,3.6-1.9C210.5,258,210,257.5,208.8,256.5z"/>
	</g>
	<g>
		<path class="st2" d="M27.2,85.7c0.3-0.4,0.7-0.8,1-1.2c0.4,0.4,0.9,0.7,1.3,1.1c-0.3,0.4-0.7,0.8-1,1.2
			C28.1,86.4,27.6,86,27.2,85.7z"/>
		<path class="st2" d="M37.1,73.6c0.3-0.4,0.7-0.8,1-1.2C38.2,74,38.6,73,37.1,73.6z"/>
		<path class="st2" d="M39.3,84.5c0.6,0.2,1.2,0.3,1.8,0.5c-0.2,0.2-0.3,0.4-0.5,0.6C40.2,85.2,39.7,84.9,39.3,84.5z"/>
		<path class="st2" d="M49.2,72.4c0.6,0.2,1.2,0.3,1.8,0.5c-0.2,0.2-0.3,0.4-0.5,0.6C50.1,73.2,49.6,72.8,49.2,72.4z"/>
		<path class="st2" d="M40.5,96.6c0.3-0.4,0.7-0.8,1-1.2C41.7,97,42,96,40.5,96.6z"/>
		<path class="st2" d="M50.4,84.5c0.7-0.4,1.4-0.8,2.1-1.3c-0.2,0.2-0.3,0.4-0.5,0.6c-0.1,0.6-0.2,1.2-0.3,1.8
			C51.3,85.3,50.8,84.9,50.4,84.5z"/>
		<path class="st2" d="M60.3,72.5c0.3-0.4,0.7-0.8,1-1.2C61.4,72.9,61.8,71.9,60.3,72.5z"/>
		<path class="st2" d="M22.9,131.6c0.6,0.2,1.2,0.3,1.8,0.5c-0.2,0.2-0.3,0.4-0.5,0.6C23.8,132.3,23.4,131.9,22.9,131.6z"/>
		<path class="st2" d="M32.3,120.1c0.3-0.4,0.7-0.8,1-1.2c0.4,0.4,0.9,0.7,1.3,1.1c-0.3,0.4-0.7,0.8-1,1.2
			C33.2,120.9,32.8,120.5,32.3,120.1z"/>
		<path class="st2" d="M52.6,95.4c0.6,0.2,1.2,0.3,1.8,0.5c-0.2,0.2-0.3,0.4-0.5,0.6C53.5,96.1,53,95.8,52.6,95.4z"/>
		<path class="st2" d="M62,84c2.3-1.3,0.4-0.9,2.8-0.7c-0.5,0.6-1,1.2-1.5,1.8C62.9,84.7,62.4,84.3,62,84z"/>
		<path class="st2" d="M71.9,71.9c2.3-1.3,0.4-0.9,2.8-0.7c-0.5,0.6-1,1.2-1.5,1.8C72.8,72.6,72.3,72.3,71.9,71.9z"/>
		<path class="st2" d="M24.6,143.1c0.6,0.2,1.2,0.3,1.8,0.5c-0.2,0.2-0.3,0.4-0.5,0.6C25.5,143.8,25.1,143.4,24.6,143.1z"/>
		<path class="st2" d="M34,131.6c0.3-0.4,0.7-0.8,1-1.2c0.4,0.4,0.9,0.7,1.3,1.1c-0.3,0.4-0.7,0.8-1,1.2
			C34.9,132.3,34.5,132,34,131.6z"/>
		<path class="st2" d="M43.9,119.6c0.7-0.4,1.4-0.8,2.1-1.3c-0.2,0.2-0.3,0.4-0.5,0.6c-0.1,0.6-0.2,1.2-0.3,1.8
			C44.8,120.3,44.4,119.9,43.9,119.6z"/>
		<path class="st2" d="M54.3,106.9c0.6,0.2,1.2,0.3,1.8,0.5c-0.2,0.2-0.3,0.4-0.5,0.6C55.2,107.6,54.8,107.3,54.3,106.9z"/>
		<path class="st2" d="M63.7,95.5c0.3-0.4,0.7-0.8,1-1.2C64.9,95.9,65.2,94.9,63.7,95.5z"/>
		<path class="st2" d="M73.6,83.4c0.3-0.4,0.7-0.8,1-1.2C74.8,83.8,75.1,82.8,73.6,83.4z"/>
		<path class="st2" d="M83.5,71.3c0.3-0.4,0.7-0.8,1-1.2C84.6,71.8,85,70.8,83.5,71.3z"/>
		<path class="st2" d="M36.2,142.5c0.6,0.2,1.2,0.3,1.8,0.5c-0.2,0.2-0.3,0.4-0.5,0.6C37.1,143.2,36.7,142.9,36.2,142.5z"/>
		<path class="st2" d="M46.1,130.4c0.3-0.4,0.7-0.8,1-1.2c0.1,0.4,0.1,0.8,0.2,1.1c0.2,0.2,0.4,0.4,0.7,0.5
			C47.3,130.8,46.7,130.6,46.1,130.4z"/>
		<path class="st2" d="M55.5,119c0.3-0.4,0.7-0.8,1-1.2C56.7,119.4,57,118.4,55.5,119z"/>
		<path class="st2" d="M65.4,106.9c0.3-0.4,0.7-0.8,1-1.2C66.6,107.4,66.9,106.4,65.4,106.9z"/>
		<path class="st2" d="M75.3,94.9c0.3-0.4,0.7-0.8,1-1.2c0.4,0.4,0.9,0.7,1.3,1.1c-0.3,0.4-0.7,0.8-1,1.2
			C76.2,95.6,75.8,95.3,75.3,94.9z"/>
		<path class="st2" d="M85.2,82.8c0.7-0.4,1.4-0.8,2.1-1.3c-0.2,0.2-0.3,0.4-0.5,0.6c-0.1,0.6-0.2,1.2-0.3,1.8
			C86.1,83.6,85.6,83.2,85.2,82.8z"/>
		<path class="st2" d="M95.1,70.8c2.3-1.3,0.4-0.9,2.8-0.7C96.1,70.9,96.8,70.7,95.1,70.8z"/>
		<path class="st2" d="M27.5,166.6c0.3-0.4,0.7-0.8,1-1.2c0.4,0.4,0.9,0.7,1.3,1.1c-0.3,0.4-0.7,0.8-1,1.2
			C28.4,167.4,28,167,27.5,166.6z"/>
		<path class="st2" d="M37.4,154.6c0.3-0.4,0.7-0.8,1-1.2C38.6,155,38.9,154,37.4,154.6z"/>
		<path class="st2" d="M47.8,141.9c0.6,0.2,1.2,0.3,1.8,0.5c-0.2,0.2-0.3,0.4-0.5,0.6C48.7,142.7,48.3,142.3,47.8,141.9z"/>
		<path class="st2" d="M57.2,130.5c0.3-0.4,0.7-0.8,1-1.2c0.4,0.4,0.9,0.7,1.3,1.1c-0.3,0.4-0.7,0.8-1,1.2
			C58.1,131.2,57.7,130.8,57.2,130.5z"/>
		<path class="st2" d="M67.1,118.4c0.3-0.4,0.7-0.8,1-1.2C68.3,118.8,68.6,117.9,67.1,118.4z"/>
		<path class="st2" d="M77.5,105.8c0.6,0.2,1.2,0.3,1.8,0.5c-0.2,0.2-0.3,0.4-0.5,0.6C78.4,106.5,78,106.1,77.5,105.8z"/>
		<path class="st2" d="M86.9,94.3c0.3-0.4,0.7-0.8,1-1.2C88.1,94.7,88.4,93.8,86.9,94.3z"/>
		<path class="st2" d="M106.7,70.2c0.7-0.4,1.4-0.8,2.1-1.3c-0.2,0.2-0.3,0.4-0.5,0.6c-0.1,0.6-0.2,1.2-0.3,1.8
			C107.6,70.9,107.1,70.6,106.7,70.2z"/>
		<path class="st2" d="M39.6,165.5c0.6,0.2,1.2,0.3,1.8,0.5c-0.2,0.2-0.3,0.4-0.5,0.6C40.5,166.2,40.1,165.8,39.6,165.5z"/>
		<path class="st2" d="M49.5,153.4c0.6,0.2,1.2,0.3,1.8,0.5c-0.2,0.2-0.3,0.4-0.5,0.6C50.4,154.1,50,153.8,49.5,153.4z"/>
		<path class="st2" d="M58.9,142c0.3-0.4,0.7-0.8,1-1.2C60.1,142.4,60.4,141.4,58.9,142z"/>
		<path class="st2" d="M68.8,129.9c0.3-0.4,0.7-0.8,1-1.2c0.4,0.4,0.9,0.7,1.3,1.1c-0.3,0.4-0.7,0.8-1,1.2
			C69.7,130.6,69.3,130.3,68.8,129.9z"/>
		<path class="st2" d="M78.7,117.9c0.3-0.4,0.7-0.8,1-1.2c0.4,0.4,0.9,0.7,1.3,1.1c-0.3,0.4-0.7,0.8-1,1.2
			C79.6,118.6,79.2,118.2,78.7,117.9z"/>
		<path class="st2" d="M88.6,105.8c0.7-0.4,1.4-0.8,2.1-1.3c-0.2,0.2-0.3,0.4-0.5,0.6c-0.1,0.6-0.2,1.2-0.3,1.8
			C89.5,106.5,89.1,106.2,88.6,105.8z"/>
		<path class="st2" d="M99,93.2c0.6,0.2,1.2,0.3,1.8,0.5c-0.2,0.2-0.3,0.4-0.5,0.6C99.9,93.9,99.4,93.5,99,93.2z"/>
		<path class="st2" d="M108.9,81.1c0.6,0.2,1.2,0.3,1.8,0.5c-0.2,0.2-0.3,0.4-0.5,0.6C109.8,81.8,109.3,81.5,108.9,81.1z"/>
		<path class="st2" d="M118.3,69.7c0.7-0.4,1.4-0.8,2.1-1.3C120.4,69.4,119.8,71,118.3,69.7z"/>
		<path class="st2" d="M41.3,177c0.6,0.2,1.2,0.3,1.8,0.5c-0.2,0.2-0.3,0.4-0.5,0.6C42.2,177.7,41.8,177.3,41.3,177z"/>
		<path class="st2" d="M51.2,164.9c0.6,0.2,1.2,0.3,1.8,0.5c-0.2,0.2-0.3,0.4-0.5,0.6C52.1,165.6,51.7,165.3,51.2,164.9z"/>
		<path class="st2" d="M61.1,152.9c0.6,0.2,1.2,0.3,1.8,0.5c-0.2,0.2-0.3,0.4-0.5,0.6C62,153.6,61.6,153.2,61.1,152.9z"/>
		<path class="st2" d="M71,140.8c0.6,0.2,1.2,0.3,1.8,0.5c-0.2,0.2-0.3,0.4-0.5,0.6C71.9,141.5,71.5,141.2,71,140.8z"/>
		<path class="st2" d="M80.9,128.7c0.6,0.2,1.2,0.3,1.8,0.5c-0.2,0.2-0.3,0.4-0.5,0.6C81.8,129.5,81.4,129.1,80.9,128.7z"/>
		<path class="st2" d="M90.3,117.3c0.3-0.4,0.7-0.8,1-1.2c0.4,0.4,0.9,0.7,1.3,1.1c-0.3,0.4-0.7,0.8-1,1.2
			C91.2,118,90.8,117.7,90.3,117.3z"/>
		<path class="st2" d="M100.2,105.2c2.3-1.3,0.4-0.9,2.8-0.7c-0.5,0.6-1,1.2-1.5,1.8C101.1,106,100.7,105.6,100.2,105.2z"/>
		<path class="st2" d="M110.1,93.2c0.3-0.4,0.7-0.8,1-1.2c0.4,0.4,0.9,0.7,1.3,1.1c-0.3,0.4-0.7,0.8-1,1.2
			C111,93.9,110.6,93.6,110.1,93.2z"/>
		<path class="st2" d="M120,81.1c0.3-0.4,0.7-0.8,1-1.2C121.2,81.6,121.5,80.6,120,81.1z"/>
		<path class="st2" d="M129.9,69.1c0.3-0.4,0.7-0.8,1-1.2c0.4,0.4,0.9,0.7,1.3,1.1c-0.3,0.4-0.7,0.8-1,1.2
			C130.8,69.8,130.3,69.4,129.9,69.1z"/>
		<path class="st2" d="M43,188.4c0.6,0.2,1.2,0.3,1.8,0.5c-0.2,0.2-0.3,0.4-0.5,0.6C43.9,189.2,43.5,188.8,43,188.4z"/>
		<path class="st2" d="M62.3,164.9c0.7-0.4,1.4-0.8,2.1-1.3c-0.2,0.2-0.3,0.4-0.5,0.6c-0.1,0.6-0.2,1.2-0.3,1.8
			C63.2,165.7,62.8,165.3,62.3,164.9z"/>
		<path class="st2" d="M72.7,152.3c0.6,0.2,1.2,0.3,1.8,0.5c-0.2,0.2-0.3,0.4-0.5,0.6C73.6,153,73.2,152.7,72.7,152.3z"/>
		<path class="st2" d="M82.1,140.8c0.3-0.4,0.7-0.8,1-1.2C83.3,141.3,83.6,140.3,82.1,140.8z"/>
		<path class="st2" d="M92,128.8c0.3-0.4,0.7-0.8,1-1.2c0.4,0.4,0.9,0.7,1.3,1.1c-0.3,0.4-0.7,0.8-1,1.2
			C92.9,129.5,92.5,129.2,92,128.8z"/>
		<path class="st2" d="M101.9,116.7c0.3-0.4,0.7-0.8,1-1.2C103.1,117.2,103.4,116.2,101.9,116.7z"/>
		<path class="st2" d="M112.3,104.1c0.6,0.2,1.2,0.3,1.8,0.5c-0.2,0.2-0.3,0.4-0.5,0.6C113.2,104.8,112.8,104.4,112.3,104.1z"/>
		<path class="st2" d="M121.7,92.6c0.3-0.4,0.7-0.8,1-1.2c0.4,0.4,0.9,0.7,1.3,1.1c-0.3,0.4-0.7,0.8-1,1.2
			C122.6,93.4,122.2,93,121.7,92.6z"/>
		<path class="st2" d="M131.6,80.6c2.3-1.3,0.4-0.9,2.8-0.7c0.1,0.4,0.1,0.8,0.2,1.1c-0.4,0-0.8,0-1.2,0.1
			C132.8,80.9,132.2,80.7,131.6,80.6z"/>
		<path class="st2" d="M141.5,68.5c0.3-0.4,0.7-0.8,1-1.2c0.4,0.4,0.9,0.7,1.3,1.1c-0.3,0.4-0.7,0.8-1,1.2
			C142.4,69.2,141.9,68.9,141.5,68.5z"/>
		<path class="st2" d="M133.1,90.9c1.7-0.1,1-0.2,3,0.4c-0.5,0.6-1,1.2-1.5,1.8C134.1,92.4,133.6,91.7,133.1,90.9z"/>
		<path class="st2" d="M34.4,212.6c0.3-0.4,0.7-0.8,1-1.2C35.5,213,35.9,212,34.4,212.6z"/>
		<path class="st2" d="M54.2,188.5c0.3-0.4,0.7-0.8,1-1.2C55.3,188.9,55.6,187.9,54.2,188.5z"/>
		<path class="st2" d="M64.5,175.8c0.6,0.2,1.2,0.3,1.8,0.5c-0.2,0.2-0.3,0.4-0.5,0.6C65.4,176.6,65,176.2,64.5,175.8z"/>
		<path class="st2" d="M74.4,163.8c0.6,0.2,1.2,0.3,1.8,0.5c-0.2,0.2-0.3,0.4-0.5,0.6C75.3,164.5,74.9,164.1,74.4,163.8z"/>
		<path class="st2" d="M94.2,139.7c0.6,0.2,1.2,0.3,1.8,0.5c-0.2,0.2-0.3,0.4-0.5,0.6C95.1,140.4,94.7,140,94.2,139.7z"/>
		<path class="st2" d="M103.6,128.2c0.7-0.4,1.4-0.8,2.1-1.3c-0.2,0.2-0.3,0.4-0.5,0.6c-0.1,0.6-0.2,1.2-0.3,1.8
			C104.5,128.9,104.1,128.6,103.6,128.2z"/>
		<path class="st2" d="M113.5,116.2c0.7-0.4,1.4-0.8,2.1-1.3C115.7,115.9,115,117.5,113.5,116.2z"/>
		<path class="st2" d="M123.4,104.1c0.3-0.4,0.7-0.8,1-1.2c0.4,0.4,0.9,0.7,1.3,1.1c-0.3,0.4-0.7,0.8-1,1.2
			C124.3,104.8,123.9,104.5,123.4,104.1z"/>
		<path class="st2" d="M143.2,80c0.3-0.4,0.7-0.8,1-1.2C144.4,80.4,144.7,79.4,143.2,80z"/>
		<path class="st2" d="M153.1,68c0.7-0.4,1.4-0.8,2.1-1.3c-0.2,0.2-0.3,0.4-0.5,0.6c-0.1,0.6-0.2,1.2-0.3,1.8
			C154,68.7,153.5,68.3,153.1,68z"/>
		<path class="st2" d="M55.9,200c0.3-0.4,0.7-0.8,1-1.2C57,200.4,57.4,199.4,55.9,200z"/>
		<path class="st2" d="M76.1,175.3c0.6,0.2,1.2,0.3,1.8,0.5c-0.2,0.2-0.3,0.4-0.5,0.6C77,176,76.6,175.6,76.1,175.3z"/>
		<path class="st2" d="M105.8,139.1c0.6,0.2,1.2,0.3,1.8,0.5c-0.2,0.2-0.3,0.4-0.5,0.6C106.7,139.8,106.3,139.5,105.8,139.1z"/>
		<path class="st2" d="M135,103.5c2.3-1.3,0.4-0.9,2.8-0.7c-0.5,0.6-1,1.2-1.5,1.8C135.9,104.3,135.5,103.9,135,103.5z"/>
		<path class="st2" d="M144.9,91.5c0.3-0.4,0.7-0.8,1-1.2c0.4,0.4,0.9,0.7,1.3,1.1c-0.3,0.4-0.7,0.8-1,1.2
			C145.8,92.2,145.4,91.9,144.9,91.5z"/>
		<path class="st2" d="M154.8,79.4c0.3-0.4,0.7-0.8,1-1.2c0.4,0.4,0.9,0.7,1.3,1.1c-0.3,0.4-0.7,0.8-1,1.2
			C155.7,80.2,155.2,79.8,154.8,79.4z"/>
		<path class="st2" d="M164.7,67.4c0.3-0.4,0.7-0.8,1-1.2c0.4,0.4,0.9,0.7,1.3,1.1c-0.3,0.4-0.7,0.8-1,1.2
			C165.6,68.1,165.1,67.8,164.7,67.4z"/>
		<path class="st2" d="M58.1,210.9c0.6,0.2,1.2,0.3,1.8,0.5c-0.2,0.2-0.3,0.4-0.5,0.6C58.9,211.6,58.5,211.2,58.1,210.9z"/>
		<path class="st2" d="M68,198.8c0.6,0.2,1.2,0.3,1.8,0.5c-0.2,0.2-0.3,0.4-0.5,0.6C68.8,199.5,68.4,199.2,68,198.8z"/>
		<path class="st2" d="M77.9,186.8c0.6,0.2,1.2,0.3,1.8,0.5c-0.2,0.2-0.3,0.4-0.5,0.6C78.7,187.5,78.3,187.1,77.9,186.8z"/>
		<path class="st2" d="M97.1,163.3c0.3-0.4,0.7-0.8,1-1.2C98.3,163.7,98.6,162.7,97.1,163.3z"/>
		<path class="st2" d="M107.5,150.6c0.6,0.2,1.2,0.3,1.8,0.5c-0.2,0.2-0.3,0.4-0.5,0.6C108.4,151.3,108,151,107.5,150.6z"/>
		<path class="st2" d="M116.9,139.1c0.3-0.4,0.7-0.8,1-1.2c0.4,0.4,0.9,0.7,1.3,1.1c-0.3,0.4-0.7,0.8-1,1.2
			C117.8,139.9,117.4,139.5,116.9,139.1z"/>
		<path class="st2" d="M127.3,126.5"/>
		<path class="st2" d="M136.7,115c0.3-0.4,0.7-0.8,1-1.2c0.4,0.4,0.9,0.7,1.3,1.1c-0.3,0.4-0.7,0.8-1,1.2
			C137.6,115.8,137.2,115.4,136.7,115z"/>
		<path class="st2" d="M147.1,102.4c0.6,0.2,1.2,0.3,1.8,0.5c-0.2,0.2-0.3,0.4-0.5,0.6C148,103.1,147.6,102.7,147.1,102.4z"/>
		<path class="st2" d="M156.5,90.9c0.3-0.4,0.7-0.8,1-1.2c0.4,0.4,0.9,0.7,1.3,1.1c-0.3,0.4-0.7,0.8-1,1.2
			C157.4,91.7,157,91.3,156.5,90.9z"/>
		<path class="st2" d="M166.4,78.9c0.7-0.4,1.4-0.8,2.1-1.3c-0.2,0.2-0.3,0.4-0.5,0.6c-0.1,0.6-0.2,1.2-0.3,1.8
			C167.3,79.6,166.8,79.2,166.4,78.9z"/>
		<path class="st2" d="M176.8,66.2c0.6,0.2,1.2,0.3,1.8,0.5c-0.2,0.2-0.3,0.4-0.5,0.6C177.7,67,177.2,66.6,176.8,66.2z"/>
		<path class="st2" d="M69.7,210.3c0.6,0.2,1.2,0.3,1.8,0.5c-0.2,0.2-0.3,0.4-0.5,0.6C70.5,211,70.1,210.7,69.7,210.3z"/>
		<path class="st2" d="M89.5,186.2c0.6,0.2,1.2,0.3,1.8,0.5c-0.2,0.2-0.3,0.4-0.5,0.6C90.3,186.9,89.9,186.6,89.5,186.2z"/>
		<path class="st2" d="M99.3,174.1c0.6,0.2,1.2,0.3,1.8,0.5c-0.2,0.2-0.3,0.4-0.5,0.6C100.2,174.9,99.8,174.5,99.3,174.1z"/>
		<path class="st2" d="M158.2,102.4c0.3-0.4,0.7-0.8,1-1.2c0.4,0.4,0.9,0.7,1.3,1.1c-0.3,0.4-0.7,0.8-1,1.2
			C159.1,103.1,158.7,102.8,158.2,102.4z"/>
		<path class="st2" d="M178,78.3c0.3-0.4,0.7-0.8,1-1.2C179.2,78.7,179.5,77.7,178,78.3z"/>
		<path class="st2" d="M187.9,66.3c0.7-0.4,1.4-0.8,2.1-1.3C190,66,189.4,67.6,187.9,66.3z"/>
		<path class="st2" d="M90.7,198.3c0.3-0.4,0.7-0.8,1-1.2C91.8,198.7,92.2,197.7,90.7,198.3z"/>
		<path class="st2" d="M120.8,161.5c0.6,0.2,1.2,0.3,1.8,0.5c-0.2,0.2-0.3,0.4-0.5,0.6C121.7,162.2,121.3,161.9,120.8,161.5z"/>
		<path class="st2" d="M159.9,113.9c0.7-0.4,1.4-0.8,2.1-1.3c-0.2,0.2-0.3,0.4-0.5,0.6c-0.1,0.6-0.2,1.2-0.3,1.8
			C160.8,114.6,160.4,114.3,159.9,113.9z"/>
		<path class="st2" d="M170.3,101.3c0.6,0.2,1.2,0.3,1.8,0.5C171,102.6,169.7,102.5,170.3,101.3z"/>
		<path class="st2" d="M189.6,77.7c0.7-0.4,1.4-0.8,2.1-1.3C191.8,77.5,191.1,79.1,189.6,77.7z"/>
		<path class="st2" d="M200,65.1c0.6,0.2,1.2,0.3,1.8,0.5c-0.2,0.2-0.3,0.4-0.5,0.6C200.9,65.8,200.4,65.5,200,65.1z"/>
		<path class="st2" d="M92.9,209.2c0.6,0.2,1.2,0.3,1.8,0.5c-0.2,0.2-0.3,0.4-0.5,0.6C93.8,209.9,93.3,209.5,92.9,209.2z"/>
		<path class="st2" d="M102.8,197.1c0.6,0.2,1.2,0.3,1.8,0.5c-0.2,0.2-0.3,0.4-0.5,0.6C103.6,197.8,103.2,197.5,102.8,197.1z"/>
		<path class="st2" d="M112.7,185.1c0.6,0.2,1.2,0.3,1.8,0.5c-0.2,0.2-0.3,0.4-0.5,0.6C113.5,185.8,113.1,185.4,112.7,185.1z"/>
		<path class="st2" d="M171.5,113.3c2.3-1.3,0.4-0.9,2.8-0.7c-0.5,0.6-1,1.2-1.5,1.8C172.4,114.1,172,113.7,171.5,113.3z"/>
		<path class="st2" d="M181.4,101.3c2.3-1.3,0.4-0.9,2.8-0.7c-0.5,0.6-1,1.2-1.5,1.8C182.3,102,181.9,101.7,181.4,101.3z"/>
		<path class="st2" d="M191.8,88.6c0.3-0.4,0.7-0.8,1-1.2c0.1,0.4,0.1,0.8,0.2,1.1c0.2,0.2,0.4,0.4,0.7,0.5
			C193,89,192.4,88.8,191.8,88.6z"/>
		<path class="st2" d="M201.2,77.2c2.3-1.3,0.4-0.9,2.8-0.7c-0.5,0.6-1,1.2-1.5,1.8C202.1,77.9,201.7,77.5,201.2,77.2z"/>
		<path class="st2" d="M211.1,65.1c0.3-0.4,0.7-0.8,1-1.2C212.3,65.6,212.6,64.6,211.1,65.1z"/>
		<path class="st2" d="M86,233.8c-0.4-0.4-0.9-0.7-1.3-1.1c0.6,0.2,1.2,0.3,1.8,0.5C86.3,233.4,86.2,233.6,86,233.8"/>
		<path class="st2" d="M104.5,208.6c0.6,0.2,1.2,0.3,1.8,0.5c-0.2,0.2-0.3,0.4-0.5,0.6C105.4,209.3,104.9,209,104.5,208.6z"/>
		<path class="st2" d="M113.9,197.2c0.7-0.4,1.4-0.8,2.1-1.3C116,196.9,115.3,198.5,113.9,197.2z"/>
		<path class="st2" d="M124.3,184.5c0.6,0.2,1.2,0.3,1.8,0.5c-0.2,0.2-0.3,0.4-0.5,0.6C125.1,185.2,124.7,184.9,124.3,184.5z"/>
		<path class="st2" d="M183.1,112.8c2.3-1.3,0.4-0.9,2.8-0.7c-0.5,0.6-1,1.2-1.5,1.8C184,113.5,183.6,113.1,183.1,112.8z"/>
		<path class="st2" d="M193,100.7c0.7-0.4,1.4-0.8,2.1-1.3c-0.2,0.2-0.3,0.4-0.5,0.6c-0.1,0.6-0.2,1.2-0.3,1.8
			C193.9,101.5,193.5,101.1,193,100.7z"/>
		<path class="st2" d="M202.9,88.7c0.3-0.4,0.7-0.8,1-1.2C204.1,89.1,204.4,88.1,202.9,88.7z"/>
		<path class="st2" d="M212.8,76.6c0.3-0.4,0.7-0.8,1-1.2c0.4,0.4,0.9,0.7,1.3,1.1c-0.3,0.4-0.7,0.8-1,1.2
			C213.7,77.3,213.3,77,212.8,76.6z"/>
		<path class="st2" d="M222.7,64.6c0.7-0.4,1.4-0.8,2.1-1.3c-0.2,0.2-0.3,0.4-0.5,0.6c-0.1,0.6-0.2,1.2-0.3,1.8
			C223.6,65.3,223.1,64.9,222.7,64.6z"/>
		<path class="st2" d="M96.3,232.1c0.6,0.2,1.2,0.3,1.8,0.5c-0.2,0.2-0.3,0.4-0.5,0.6C97.2,232.9,96.7,232.5,96.3,232.1z"/>
		<path class="st2" d="M106.2,220.1c0.6,0.2,1.2,0.3,1.8,0.5c-0.2,0.2-0.3,0.4-0.5,0.6C107.1,220.8,106.6,220.5,106.2,220.1z"/>
		<path class="st2" d="M116.1,208c0.6,0.2,1.2,0.3,1.8,0.5c-0.2,0.2-0.3,0.4-0.5,0.6C117,208.8,116.5,208.4,116.1,208z"/>
		<path class="st2" d="M126,196c0.6,0.2,1.2,0.3,1.8,0.5c-0.2,0.2-0.3,0.4-0.5,0.6C126.8,196.7,126.4,196.3,126,196z"/>
		<path class="st2" d="M135.9,183.9c0.6,0.2,1.2,0.3,1.8,0.5c-0.2,0.2-0.3,0.4-0.5,0.6C136.7,184.7,136.3,184.3,135.9,183.9z"/>
		<path class="st2" d="M187,123"/>
		<path class="st2" d="M195.2,111.6c0.6,0.2,1.2,0.3,1.8,0.5c-0.2,0.2-0.3,0.4-0.5,0.6C196.1,112.3,195.7,112,195.2,111.6z"/>
		<path class="st2" d="M205.1,99.6c0.6,0.2,1.2,0.3,1.8,0.5c-0.2,0.2-0.3,0.4-0.5,0.6C206,100.3,205.6,99.9,205.1,99.6z"/>
		<path class="st2" d="M214.5,88.1c0.3-0.4,0.7-0.8,1-1.2c0.4,0.4,0.9,0.7,1.3,1.1c-0.3,0.4-0.7,0.8-1,1.2
			C215.4,88.8,215,88.5,214.5,88.1z"/>
		<path class="st2" d="M224.4,76.1c0.3-0.4,0.7-0.8,1-1.2c0.4,0.4,0.9,0.7,1.3,1.1c-0.3,0.4-0.7,0.8-1,1.2
			C225.3,76.8,224.9,76.4,224.4,76.1z"/>
		<path class="st2" d="M234.8,63.4c0.6,0.2,1.2,0.3,1.8,0.5c-0.2,0.2-0.3,0.4-0.5,0.6C235.7,64.1,235.2,63.8,234.8,63.4z"/>
		<path class="st2" d="M107.9,231.6c0.6,0.2,1.2,0.3,1.8,0.5c-0.2,0.2-0.3,0.4-0.5,0.6C108.8,232.3,108.3,231.9,107.9,231.6z"/>
		<path class="st2" d="M117.3,220.1c0.3-0.4,0.7-0.8,1-1.2C118.4,220.5,118.8,219.6,117.3,220.1z"/>
		<path class="st2" d="M127.7,207.5c0.6,0.2,1.2,0.3,1.8,0.5c-0.2,0.2-0.3,0.4-0.5,0.6C128.6,208.2,128.1,207.8,127.7,207.5z"/>
		<path class="st2" d="M147.5,183.4c0.6,0.2,1.2,0.3,1.8,0.5c-0.2,0.2-0.3,0.4-0.5,0.6C148.3,184.1,147.9,183.7,147.5,183.4z"/>
		<path class="st2" d="M186.5,135.8c2.3-1.3,0.4-0.9,2.8-0.7c0.1,0.4,0.1,0.8,0.2,1.1c-0.4,0-0.8,0-1.2,0.1
			C187.8,136.1,187.1,135.9,186.5,135.8z"/>
		<path class="st2" d="M206.8,111c0.6,0.2,1.2,0.3,1.8,0.5c-0.2,0.2-0.3,0.4-0.5,0.6C207.7,111.8,207.3,111.4,206.8,111z"/>
		<path class="st2" d="M216.2,99.6c0.7-0.4,1.4-0.8,2.1-1.3c-0.2,0.2-0.3,0.4-0.5,0.6c-0.1,0.6-0.2,1.2-0.3,1.8
			C217.1,100.3,216.7,100,216.2,99.6z"/>
		<path class="st2" d="M236,75.5c0.3-0.4,0.7-0.8,1-1.2c0.4,0.4,0.9,0.7,1.3,1.1c-0.3,0.4-0.7,0.8-1,1.2
			C236.9,76.2,236.5,75.9,236,75.5z"/>
		<path class="st2" d="M245.9,63.4c0.3-0.4,0.7-0.8,1-1.2c0.4,0.4,0.9,0.7,1.3,1.1c-0.3,0.4-0.7,0.8-1,1.2
			C246.8,64.2,246.3,63.8,245.9,63.4z"/>
		<path class="st2" d="M119.5,231c0.6,0.2,1.2,0.3,1.8,0.5c-0.2,0.2-0.3,0.4-0.5,0.6C120.4,231.7,119.9,231.4,119.5,231z"/>
		<path class="st2" d="M128.9,219.6c0.7-0.4,1.4-0.8,2.1-1.3c-0.2,0.2-0.3,0.4-0.5,0.6c-0.1,0.6-0.2,1.2-0.3,1.8
			C129.8,220.3,129.3,219.9,128.9,219.6z"/>
		<path class="st2" d="M138.8,207.5c0.3-0.4,0.7-0.8,1-1.2C139.9,207.9,140.3,206.9,138.8,207.5z"/>
		<path class="st2" d="M148.7,195.5c0.3-0.4,0.7-0.8,1-1.2c0.4,0.4,0.9,0.7,1.3,1.1c-0.3,0.4-0.7,0.8-1,1.2
			C149.6,196.2,149.1,195.8,148.7,195.5z"/>
		<path class="st2" d="M159.1,182.8c0.6,0.2,1.2,0.3,1.8,0.5c-0.2,0.2-0.3,0.4-0.5,0.6C159.9,183.5,159.5,183.2,159.1,182.8z"/>
		<path class="st2" d="M188.7,146.6c0.6,0.2,1.2,0.3,1.8,0.5c-0.2,0.2-0.3,0.4-0.5,0.6C189.6,147.4,189.2,147,188.7,146.6z"/>
		<path class="st2" d="M208,123.1c0.3-0.4,0.7-0.8,1-1.2C209.2,123.6,209.5,122.6,208,123.1z"/>
		<path class="st2" d="M217.9,111.1c0.3-0.4,0.7-0.8,1-1.2c0.4,0.4,0.9,0.7,1.3,1.1c-0.3,0.4-0.7,0.8-1,1.2
			C218.8,111.8,218.4,111.4,217.9,111.1z"/>
		<path class="st2" d="M227.8,99c0.3-0.4,0.7-0.8,1-1.2C229,99.5,229.3,98.5,227.8,99z"/>
		<path class="st2" d="M237.7,87c0.3-0.4,0.7-0.8,1-1.2c0.4,0.4,0.9,0.7,1.3,1.1c-0.3,0.4-0.7,0.8-1,1.2
			C238.6,87.7,238.2,87.3,237.7,87z"/>
		<path class="st2" d="M247.6,74.9c0.7-0.4,1.4-0.8,2.1-1.3C249.8,74.7,249.1,76.3,247.6,74.9z"/>
		<path class="st2" d="M257.5,62.9c0.3-0.4,0.7-0.8,1-1.2C258.7,63.3,259,62.3,257.5,62.9z"/>
		<path class="st2" d="M141,218.4c0.6,0.2,1.2,0.3,1.8,0.5c-0.2,0.2-0.3,0.4-0.5,0.6C141.9,219.1,141.4,218.8,141,218.4z"/>
		<path class="st2" d="M150.9,206.3c0.6,0.2,1.2,0.3,1.8,0.5c-0.2,0.2-0.3,0.4-0.5,0.6C151.8,207.1,151.3,206.7,150.9,206.3z"/>
		<path class="st2" d="M160.3,194.9c0.3-0.4,0.7-0.8,1-1.2c0.4,0.4,0.9,0.7,1.3,1.1c-0.3,0.4-0.7,0.8-1,1.2
			C161.2,195.6,160.7,195.3,160.3,194.9z"/>
		<path class="st2" d="M170.7,182.2c0.6,0.2,1.2,0.3,1.8,0.5c-0.2,0.2-0.3,0.4-0.5,0.6C171.5,183,171.1,182.6,170.7,182.2z"/>
		<path class="st2" d="M189.9,158.7c0.3-0.4,0.7-0.8,1-1.2c0.4,0.4,0.9,0.7,1.3,1.1c-0.3,0.4-0.7,0.8-1,1.2
			C190.8,159.5,190.4,159.1,189.9,158.7z"/>
		<path class="st2" d="M200.3,146.1c0.6,0.2,1.2,0.3,1.8,0.5c-0.2,0.2-0.3,0.4-0.5,0.6C201.2,146.8,200.8,146.4,200.3,146.1z"/>
		<path class="st2" d="M209.7,134.6c0.3-0.4,0.7-0.8,1-1.2C210.9,135,211.2,134.1,209.7,134.6z"/>
		<path class="st2" d="M219.6,122.6c2.3-1.3,0.4-0.9,2.8-0.7c-0.5,0.6-1,1.2-1.5,1.8C220.5,123.3,220.1,122.9,219.6,122.6z"/>
		<path class="st2" d="M230,109.9c0.6,0.2,1.2,0.3,1.8,0.5c-0.2,0.2-0.3,0.4-0.5,0.6C230.9,110.6,230.5,110.3,230,109.9z"/>
		<path class="st2" d="M239.4,98.5c0.3-0.4,0.7-0.8,1-1.2c0.4,0.4,0.9,0.7,1.3,1.1c-0.3,0.4-0.7,0.8-1,1.2
			C240.3,99.2,239.9,98.8,239.4,98.5z"/>
		<path class="st2" d="M249.3,86.4c0.7-0.4,1.4-0.8,2.1-1.3C251.5,86.2,250.8,87.8,249.3,86.4z"/>
		<path class="st2" d="M259.2,74.4c0.7-0.4,1.4-0.8,2.1-1.3c-0.2,0.2-0.3,0.4-0.5,0.6c-0.1,0.6-0.2,1.2-0.3,1.8
			C260.1,75.1,259.7,74.7,259.2,74.4z"/>
		<path class="st2" d="M270.1,61.1c0.4,0.4,0.9,0.7,1.3,1.1c-0.3,0.4-0.7,0.8-1,1.2c-0.4-0.4-0.9-0.7-1.3-1.1
			C269.4,61.9,269.8,61.5,270.1,61.1"/>
		<path class="st2" d="M270.6,72.6c2.6,0.5,1.7-0.3,1.5,2.2C271.6,74.1,271.1,73.4,270.6,72.6z"/>
		<path class="st2" d="M142.7,229.9c0.6,0.2,1.2,0.3,1.8,0.5c-0.2,0.2-0.3,0.4-0.5,0.6C143.6,230.6,143.1,230.2,142.7,229.9z"/>
		<path class="st2" d="M162,206.4c0.3-0.4,0.7-0.8,1-1.2c0.4,0.4,0.9,0.7,1.3,1.1c-0.3,0.4-0.7,0.8-1,1.2
			C162.9,207.1,162.4,206.7,162,206.4z"/>
		<path class="st2" d="M172.4,193.7c0.6,0.2,1.2,0.3,1.8,0.5c-0.2,0.2-0.3,0.4-0.5,0.6C173.2,194.5,172.8,194.1,172.4,193.7z"/>
		<path class="st2" d="M181.8,182.3c0.7-0.4,1.4-0.8,2.1-1.3c-0.2,0.2-0.3,0.4-0.5,0.6c-0.1,0.6-0.2,1.2-0.3,1.8
			C182.6,183,182.2,182.6,181.8,182.3z"/>
		<path class="st2" d="M191.7,170.2c0.3-0.4,0.7-0.8,1-1.2c0.4,0.4,0.9,0.7,1.3,1.1c-0.3,0.4-0.7,0.8-1,1.2
			C192.5,170.9,192.1,170.6,191.7,170.2z"/>
		<path class="st2" d="M202,157.6c0.6,0.2,1.2,0.3,1.8,0.5c-0.2,0.2-0.3,0.4-0.5,0.6C202.9,158.3,202.5,157.9,202,157.6z"/>
		<path class="st2" d="M231.2,122c0.7-0.4,1.4-0.8,2.1-1.3C233.4,121.8,232.7,123.4,231.2,122z"/>
		<path class="st2" d="M241.1,110c0.3-0.4,0.7-0.8,1-1.2c0.4,0.4,0.9,0.7,1.3,1.1c-0.3,0.4-0.7,0.8-1,1.2
			C242,110.7,241.6,110.3,241.1,110z"/>
		<path class="st2" d="M251,97.9c0.7-0.4,1.4-0.8,2.1-1.3c-0.2,0.2-0.3,0.4-0.5,0.6c-0.1,0.6-0.2,1.2-0.3,1.8
			C251.9,98.6,251.5,98.3,251,97.9z"/>
		<path class="st2" d="M260.9,85.8c0.3-0.4,0.7-0.8,1-1.2c0.4,0.4,0.9,0.7,1.3,1.1c-0.3,0.4-0.7,0.8-1,1.2
			C261.8,86.6,261.4,86.2,260.9,85.8z"/>
		<path class="st2" d="M154.3,229.3c0.6,0.2,1.2,0.3,1.8,0.5c-0.2,0.2-0.3,0.4-0.5,0.6C155.2,230,154.7,229.7,154.3,229.3z"/>
		<path class="st2" d="M184,193.2c0.6,0.2,1.2,0.3,1.8,0.5c-0.2,0.2-0.3,0.4-0.5,0.6C184.8,193.9,184.4,193.5,184,193.2z"/>
		<path class="st2" d="M193.4,181.7c0.3-0.4,0.7-0.8,1-1.2c0.4,0.4,0.9,0.7,1.3,1.1c-0.3,0.4-0.7,0.8-1,1.2
			C194.2,182.4,193.8,182.1,193.4,181.7z"/>
		<path class="st2" d="M203.3,169.7c0.3-0.4,0.7-0.8,1-1.2c0.4,0.4,0.9,0.7,1.3,1.1c-0.3,0.4-0.7,0.8-1,1.2
			C204.1,170.4,203.7,170,203.3,169.7z"/>
		<path class="st2" d="M232.9,133.5c0.7-0.4,1.4-0.8,2.1-1.3c-0.2,0.2-0.3,0.4-0.5,0.6c-0.1,0.6-0.2,1.2-0.3,1.8
			C233.8,134.2,233.4,133.9,232.9,133.5z"/>
		<path class="st2" d="M243.3,120.8c0.6,0.2,1.2,0.3,1.8,0.5c-0.2,0.2-0.3,0.4-0.5,0.6C244.2,121.6,243.8,121.2,243.3,120.8z"/>
		<path class="st2" d="M252.7,109.4c0.7-0.4,1.4-0.8,2.1-1.3c-0.2,0.2-0.3,0.4-0.5,0.6c-0.1,0.6-0.2,1.2-0.3,1.8
			C253.6,110.1,253.2,109.8,252.7,109.4z"/>
		<path class="st2" d="M262.6,97.3c0.3-0.4,0.7-0.8,1-1.2c0.4,0.4,0.9,0.7,1.3,1.1c-0.3,0.4-0.7,0.8-1,1.2
			C263.5,98.1,263.1,97.7,262.6,97.3z"/>
		<path class="st2" d="M273,84.7c0.6,0.2,1.2,0.3,1.8,0.5c-0.2,0.2-0.3,0.4-0.5,0.6C273.9,85.4,273.5,85,273,84.7z"/>
		<path class="st2" d="M282.4,73.2c0.7-0.4,1.4-0.8,2.1-1.3c-0.2,0.2-0.3,0.4-0.5,0.6c-0.1,0.6-0.2,1.2-0.3,1.8
			C283.3,74,282.9,73.6,282.4,73.2z"/>
		<path class="st2" d="M165.9,228.8c0.6,0.2,1.2,0.3,1.8,0.5c-0.2,0.2-0.3,0.4-0.5,0.6C166.8,229.5,166.3,229.1,165.9,228.8z"/>
		<path class="st2" d="M175.3,217.3c0.7-0.4,1.4-0.8,2.1-1.3c-0.2,0.2-0.3,0.4-0.5,0.6c-0.1,0.6-0.2,1.2-0.3,1.8
			C176.2,218,175.7,217.7,175.3,217.3z"/>
		<path class="st2" d="M185.7,204.6c0.6,0.2,1.2,0.3,1.8,0.5c-0.2,0.2-0.3,0.4-0.5,0.6C186.6,205.4,186.1,205,185.7,204.6z"/>
		<path class="st2" d="M195.1,193.2c0.7-0.4,1.4-0.8,2.1-1.3c-0.2,0.2-0.3,0.4-0.5,0.6c-0.1,0.6-0.2,1.2-0.3,1.8
			C196,193.9,195.5,193.6,195.1,193.2z"/>
		<path class="st2" d="M205,181.1c0.3-0.4,0.7-0.8,1-1.2c0.4,0.4,0.9,0.7,1.3,1.1c-0.3,0.4-0.7,0.8-1,1.2
			C205.8,181.9,205.4,181.5,205,181.1z"/>
		<path class="st2" d="M214.9,169.1c0.3-0.4,0.7-0.8,1-1.2c0.4,0.4,0.9,0.7,1.3,1.1c-0.3,0.4-0.7,0.8-1,1.2
			C215.7,169.8,215.3,169.5,214.9,169.1z"/>
		<path class="st2" d="M224.8,157c2.3-1.3,0.4-0.9,2.8-0.7c-0.5,0.6-1,1.2-1.5,1.8C225.6,157.8,225.2,157.4,224.8,157z"/>
		<path class="st2" d="M235.1,144.4c0.6,0.2,1.2,0.3,1.8,0.5c-0.2,0.2-0.3,0.4-0.5,0.6C236,145.1,235.6,144.7,235.1,144.4z"/>
		<path class="st2" d="M244.5,132.9c0.3-0.4,0.7-0.8,1-1.2C245.7,133.4,246,132.4,244.5,132.9z"/>
		<path class="st2" d="M254.4,120.9c0.7-0.4,1.4-0.8,2.1-1.3C256.6,120.6,255.9,122.2,254.4,120.9z"/>
		<path class="st2" d="M264.3,108.8c0.7-0.4,1.4-0.8,2.1-1.3c-0.2,0.2-0.3,0.4-0.5,0.6c-0.1,0.6-0.2,1.2-0.3,1.8
			C265.2,109.6,264.8,109.2,264.3,108.8z"/>
		<path class="st2" d="M274.2,96.8c0.7-0.4,1.4-0.8,2.1-1.3c-0.2,0.2-0.3,0.4-0.5,0.6c-0.1,0.6-0.2,1.2-0.3,1.8
			C275.1,97.5,274.7,97.1,274.2,96.8z"/>
		<path class="st2" d="M284.1,84.7c2.3-1.3,0.4-0.9,2.8-0.7c-0.5,0.6-1,1.2-1.5,1.8C285,85.4,284.6,85.1,284.1,84.7z"/>
		<path class="st2" d="M177.5,228.2c0.6,0.2,1.2,0.3,1.8,0.5c-0.2,0.2-0.3,0.4-0.5,0.6C178.4,228.9,177.9,228.6,177.5,228.2z"/>
		<path class="st2" d="M186.9,216.7c0.3-0.4,0.7-0.8,1-1.2C188,217.2,188.4,216.2,186.9,216.7z"/>
		<path class="st2" d="M196.8,204.7c0.3-0.4,0.7-0.8,1-1.2c0.4,0.4,0.9,0.7,1.3,1.1c-0.3,0.4-0.7,0.8-1,1.2
			C197.7,205.4,197.2,205,196.8,204.7z"/>
		<path class="st2" d="M206.7,192.6c0.3-0.4,0.7-0.8,1-1.2C207.8,193.1,208.2,192.1,206.7,192.6z"/>
		<path class="st2" d="M217.1,180c0.6,0.2,1.2,0.3,1.8,0.5c-0.2,0.2-0.3,0.4-0.5,0.6C217.9,180.7,217.5,180.3,217.1,180z"/>
		<path class="st2" d="M226.5,168.5c0.7-0.4,1.4-0.8,2.1-1.3c-0.2,0.2-0.3,0.4-0.5,0.6c-0.1,0.6-0.2,1.2-0.3,1.8
			C227.3,169.3,226.9,168.9,226.5,168.5z"/>
		<path class="st2" d="M236.8,155.9c0.6,0.2,1.2,0.3,1.8,0.5c-0.2,0.2-0.3,0.4-0.5,0.6C237.7,156.6,237.3,156.2,236.8,155.9z"/>
		<path class="st2" d="M246.2,144.4c0.3-0.4,0.7-0.8,1-1.2C247.4,144.8,247.7,143.9,246.2,144.4z"/>
		<path class="st2" d="M256.1,132.4c0.3-0.4,0.7-0.8,1-1.2C257.3,132.8,257.6,131.8,256.1,132.4z"/>
		<path class="st2" d="M266,120.3c0.7-0.4,1.4-0.8,2.1-1.3C268.2,120.1,267.5,121.7,266,120.3z"/>
		<path class="st2" d="M276.4,107.7c0.6,0.2,1.2,0.3,1.8,0.5c-0.2,0.2-0.3,0.4-0.5,0.6C277.3,108.4,276.9,108,276.4,107.7z"/>
		<path class="st2" d="M285.8,96.2c0.7-0.4,1.4-0.8,2.1-1.3c-0.2,0.2-0.3,0.4-0.5,0.6c-0.1,0.6-0.2,1.2-0.3,1.8
			C286.7,96.9,286.3,96.6,285.8,96.2z"/>
		<path class="st2" d="M188.6,228.2c0.3-0.4,0.7-0.8,1-1.2C189.7,228.6,190.1,227.7,188.6,228.2z"/>
		<path class="st2" d="M199,215.6c0.6,0.2,1.2,0.3,1.8,0.5c-0.2,0.2-0.3,0.4-0.5,0.6C199.9,216.3,199.4,215.9,199,215.6z"/>
		<path class="st2" d="M208.4,204.1c0.3-0.4,0.7-0.8,1-1.2C209.5,204.5,209.9,203.6,208.4,204.1z"/>
		<path class="st2" d="M218.8,191.5c0.6,0.2,1.2,0.3,1.8,0.5c-0.2,0.2-0.3,0.4-0.5,0.6C219.7,192.2,219.2,191.8,218.8,191.5z"/>
		<path class="st2" d="M228.2,180c0.7-0.4,1.4-0.8,2.1-1.3c-0.2,0.2-0.3,0.4-0.5,0.6c-0.1,0.6-0.2,1.2-0.3,1.8
			C229.1,180.7,228.6,180.4,228.2,180z"/>
		<path class="st2" d="M238.1,168c0.7-0.4,1.4-0.8,2.1-1.3c-0.2,0.2-0.3,0.4-0.5,0.6c-0.1,0.6-0.2,1.2-0.3,1.8
			C238.9,168.7,238.5,168.3,238.1,168z"/>
		<path class="st2" d="M257.8,143.9c0.7-0.4,1.4-0.8,2.1-1.3c-0.2,0.2-0.3,0.4-0.5,0.6c-0.1,0.6-0.2,1.2-0.3,1.8
			C258.7,144.6,258.3,144.2,257.8,143.9z"/>
		<path class="st2" d="M267.7,131.8c2.3-1.3,0.4-0.9,2.8-0.7c-0.5,0.6-1,1.2-1.5,1.8C268.6,132.5,268.2,132.2,267.7,131.8z"/>
		<path class="st2" d="M277.6,119.7c0.7-0.4,1.4-0.8,2.1-1.3C279.8,119.5,279.1,121.1,277.6,119.7z"/>
		<path class="st2" d="M287.5,107.7c2.3-1.3,0.4-0.9,2.8-0.7c-0.5,0.6-1,1.2-1.5,1.8C288.4,108.4,288,108.1,287.5,107.7z"/>
		<path class="st2" d="M239.6,178.3c1.7-0.1,1-0.2,3,0.4C239.8,179.6,241.8,179.6,239.6,178.3z"/>
		<path class="st2" d="M210.1,215.6c0.3-0.4,0.7-0.8,1-1.2C211.2,216,211.6,215,210.1,215.6z"/>
		<path class="st2" d="M220,203.6c0.7-0.4,1.4-0.8,2.1-1.3c-0.2,0.2-0.3,0.4-0.5,0.6c-0.1,0.6-0.2,1.2-0.3,1.8
			C220.9,204.3,220.4,203.9,220,203.6z"/>
		<path class="st2" d="M230.4,190.9c0.6,0.2,1.2,0.3,1.8,0.5c-0.2,0.2-0.3,0.4-0.5,0.6C231.3,191.6,230.8,191.3,230.4,190.9z"/>
		<path class="st2" d="M250.2,166.8c0.6,0.2,1.2,0.3,1.8,0.5c-0.2,0.2-0.3,0.4-0.5,0.6C251,167.5,250.6,167.2,250.2,166.8z"/>
		<path class="st2" d="M259.6,155.3c0.3-0.4,0.7-0.8,1-1.2C260.7,155.8,261,154.8,259.6,155.3z"/>
		<path class="st2" d="M269.9,142.7c0.3-0.4,0.7-0.8,1-1.2c0.1,0.4,0.1,0.8,0.2,1.1c0.2,0.2,0.4,0.4,0.7,0.5
			C271.2,143,270.5,142.9,269.9,142.7z"/>
		<path class="st2" d="M279.3,131.2c0.3-0.4,0.7-0.8,1-1.2c0.4,0.4,0.9,0.7,1.3,1.1c-0.3,0.4-0.7,0.8-1,1.2
			C280.2,132,279.8,131.6,279.3,131.2z"/>
		<path class="st2" d="M289.2,119.2c0.7-0.4,1.4-0.8,2.1-1.3c-0.2,0.2-0.3,0.4-0.5,0.6c-0.1,0.6-0.2,1.2-0.3,1.8
			C290.1,119.9,289.7,119.5,289.2,119.2z"/>
		<path class="st2" d="M212.3,226.5c0.6,0.2,1.2,0.3,1.8,0.5c-0.2,0.2-0.3,0.4-0.5,0.6C213.2,227.2,212.7,226.9,212.3,226.5z"/>
		<path class="st2" d="M232.1,202.4c0.3-0.4,0.7-0.8,1-1.2c0.1,0.4,0.1,0.8,0.2,1.1c0.2,0.2,0.4,0.4,0.7,0.5
			C233.3,202.7,232.7,202.6,232.1,202.4z"/>
		<path class="st2" d="M241.5,190.9c0.3-0.4,0.7-0.8,1-1.2c0.4,0.4,0.9,0.7,1.3,1.1c-0.3,0.4-0.7,0.8-1,1.2
			C242.4,191.7,241.9,191.3,241.5,190.9z"/>
		<path class="st2" d="M251.4,178.9c0.7-0.4,1.4-0.8,2.1-1.3C253.5,178.7,252.8,180.2,251.4,178.9z"/>
		<path class="st2" d="M261.8,166.2c0.6,0.2,1.2,0.3,1.8,0.5c-0.2,0.2-0.3,0.4-0.5,0.6C262.6,167,262.2,166.6,261.8,166.2z"/>
		<path class="st2" d="M271.6,154.2c0.3-0.4,0.7-0.8,1-1.2c0.1,0.4,0.1,0.8,0.2,1.1c0.2,0.2,0.4,0.4,0.7,0.5
			C272.9,154.5,272.3,154.3,271.6,154.2z"/>
		<path class="st2" d="M281,142.7c0.7-0.4,1.4-0.8,2.1-1.3C283.2,142.5,282.5,144.1,281,142.7z"/>
		<path class="st2" d="M290.9,130.7c0.3-0.4,0.7-0.8,1-1.2C292.1,131.1,292.4,130.1,290.9,130.7z"/>
		<path class="st2" d="M262.8,177.2c0.8,0.3,1.7,0.7,2.5,1c-0.3,0.4-0.7,0.8-1,1.2C263.8,178.7,263.3,177.9,262.8,177.2z"/>
		<path class="st2" d="M223.4,226.5c0.3-0.4,0.7-0.8,1-1.2C224.5,227,224.9,226,223.4,226.5z"/>
		<path class="st2" d="M243.2,202.4c0.3-0.4,0.7-0.8,1-1.2C244.3,202.8,244.7,201.9,243.2,202.4z"/>
		<path class="st2" d="M253.1,190.4c0.7-0.4,1.4-0.8,2.1-1.3c-0.2,0.2-0.3,0.4-0.5,0.6c-0.1,0.6-0.2,1.2-0.3,1.8
			C254,191.1,253.5,190.7,253.1,190.4z"/>
		<path class="st2" d="M272.9,166.3c0.3-0.4,0.7-0.8,1-1.2C274,166.7,274.3,165.7,272.9,166.3z"/>
		<path class="st2" d="M282.8,154.2c0.3-0.4,0.7-0.8,1-1.2C283.9,154.6,284.2,153.6,282.8,154.2z"/>
		<path class="st2" d="M292.6,142.2c0.3-0.4,0.7-0.8,1-1.2c0.4,0.4,0.9,0.7,1.3,1.1c-0.3,0.4-0.7,0.8-1,1.2
			C293.5,142.9,293.1,142.5,292.6,142.2z"/>
		<path class="st2" d="M235,226c0.3-0.4,0.7-0.8,1-1.2C236.1,226.4,236.5,225.4,235,226z"/>
		<path class="st2" d="M244.9,213.9c0.3-0.4,0.7-0.8,1-1.2c0.4,0.4,0.9,0.7,1.3,1.1c-0.3,0.4-0.7,0.8-1,1.2
			C245.8,214.6,245.3,214.3,244.9,213.9z"/>
		<path class="st2" d="M254.8,201.9c0.3-0.4,0.7-0.8,1-1.2c0.4,0.4,0.9,0.7,1.3,1.1c-0.3,0.4-0.7,0.8-1,1.2
			C255.7,202.6,255.2,202.2,254.8,201.9z"/>
		<path class="st2" d="M264.7,189.8c2.3-1.3,0.4-0.9,2.8-0.7c-0.5,0.6-1,1.2-1.5,1.8C265.6,190.5,265.1,190.2,264.7,189.8z"/>
		<path class="st2" d="M274.6,177.8c0.3-0.4,0.7-0.8,1-1.2C275.7,178.2,276.1,177.2,274.6,177.8z"/>
		<path class="st2" d="M296.5,152.4c0,1-0.7,2.6-2.1,1.3C295.1,153.2,295.8,152.8,296.5,152.4"/>
		<path class="st2" d="M265.7,200.7c1.7-0.1,1-0.2,3,0.4c-0.3,0.4-0.7,0.8-1,1.2C267,201.8,266.4,201.3,265.7,200.7z"/>
		<path class="st2" d="M246.6,225.4c0.3-0.4,0.7-0.8,1-1.2C247.7,225.8,248.1,224.8,246.6,225.4z"/>
		<path class="st2" d="M256.5,213.3c0.3-0.4,0.7-0.8,1-1.2c0.4,0.4,0.9,0.7,1.3,1.1c-0.3,0.4-0.7,0.8-1,1.2
			C257.4,214.1,256.9,213.7,256.5,213.3z"/>
		<path class="st2" d="M276.3,189.2c0.7-0.4,1.4-0.8,2.1-1.3c-0.2,0.2-0.3,0.4-0.5,0.6c-0.1,0.6-0.2,1.2-0.3,1.8
			C277.2,190,276.7,189.6,276.3,189.2z"/>
		<path class="st2" d="M286.2,177.2c0.7-0.4,1.4-0.8,2.1-1.3c-0.2,0.2-0.3,0.4-0.5,0.6c-0.1,0.6-0.2,1.2-0.3,1.8
			C287.1,177.9,286.6,177.6,286.2,177.2z"/>
		<path class="st2" d="M297,163.9c0.2,1.6,0.5,0.6-1,1.2C296.4,164.7,296.7,164.3,297,163.9"/>
		<path class="st2" d="M277.3,200.2c0.7-0.4,1.4-0.8,2.1-1.3c0.4,0.4,0.9,0.7,1.3,1.1c-0.5,0.6-1,1.2-1.5,1.8
			C278.6,201.3,278,200.7,277.3,200.2z"/>
		<path class="st2" d="M258.2,224.8c0.3-0.4,0.7-0.8,1-1.2c0.2,0.2,0.4,0.4,0.7,0.5C259.3,224.4,258.7,224.6,258.2,224.8z"/>
		<path class="st2" d="M268.1,212.8c0.3-0.4,0.7-0.8,1-1.2c0.4,0.4,0.9,0.7,1.3,1.1c-0.3,0.4-0.7,0.8-1,1.2
			C269,213.5,268.5,213.1,268.1,212.8z"/>
		<path class="st2" d="M287.9,188.7c0.7-0.4,1.4-0.8,2.1-1.3c-0.2,0.2-0.3,0.4-0.5,0.6c-0.1,0.6-0.2,1.2-0.3,1.8
			C288.8,189.4,288.3,189,287.9,188.7z"/>
		<path class="st2" d="M269.8,224.3c0.7-0.4,1.4-0.8,2.1-1.3c-0.2,0.2-0.3,0.4-0.5,0.6c-0.1,0.6-0.2,1.2-0.3,1.8
			C270.7,225,270.2,224.6,269.8,224.3z"/>
		<path class="st2" d="M279.7,212.2c0.7-0.4,1.4-0.8,2.1-1.3c-0.2,0.2-0.3,0.4-0.5,0.6c-0.1,0.6-0.2,1.2-0.3,1.8
			C280.6,212.9,280.1,212.6,279.7,212.2z"/>
		<path class="st2" d="M289.6,200.2c0.7-0.4,1.4-0.8,2.1-1.3c-0.2,0.2-0.3,0.4-0.5,0.6c-0.1,0.6-0.2,1.2-0.3,1.8
			C290.5,200.9,290,200.5,289.6,200.2z"/>
		<path class="st2" d="M291.1,210.5c1.7-0.1,1-0.2,3,0.4c-0.5,0.6-1,1.2-1.5,1.8C292.1,212,291.6,211.3,291.1,210.5z"/>
		<path class="st2" d="M281.4,223.7c0.7-0.4,1.4-0.8,2.1-1.3c-0.2,0.2-0.3,0.4-0.5,0.6c-0.1,0.6-0.2,1.2-0.3,1.8
			C282.3,224.4,281.8,224.1,281.4,223.7z"/>
		<path class="st2" d="M293,223.1c0.7-0.4,1.4-0.8,2.1-1.3c-0.2,0.2-0.3,0.4-0.5,0.6c-0.1,0.6-0.2,1.2-0.3,1.8
			C293.9,223.9,293.4,223.5,293,223.1z"/>
	</g>
	<rect x="89.7" y="36.9" class="st3" width="131.3" height="143.6"/>
	<g>
		<path class="st4" d="M185.3,183.5c-1.2,0-2.3,0-3.5,0c-0.8,0-1.6,0-2.4,0c-0.3,0-0.6-0.1-0.9-0.1c0.2-0.2,0.3-0.4,0.4-0.6
			c-0.7,0-1.4-0.1-2.1-0.1c-0.2,0-0.4,0.3-0.6,0.5c-0.3,0.2-0.6,0.5-0.9,0.5c-1.2-0.1-2.4,0-3.6,0c-1.2,0-2.5,0-3.9,0
			c0.5-0.3,0.7-0.5,1.1-0.8c-0.5-0.3-0.9-0.7-1.4-0.3c-0.1,0.1-0.3,0.3-0.3,0.3c0.6,0.7-0.2,0.8-0.5,0.8c-1,0-2.1,0.4-3-0.6
			c-0.1-0.1-0.4-0.2-0.6-0.1c-1.2,0.7-1.6,0.7-2.7,0.4c-0.3-0.1-0.7,0-1.1,0.1c-0.8,0.1-1.5,0.2-2.3,0.2c-0.2,0-0.4-0.1-0.5-0.2
			c-0.6-0.6-1-0.6-1.6,0.1c-0.3,0.3-0.6,0.8-0.8,0c0,0-0.2-0.1-0.3-0.1c-0.4,0.1-0.8,0.3-1.2,0.3c-2.2,0-4.4,0-6.6,0
			c0-0.1-0.1-0.2-0.1-0.2c0.1-0.3,0.3-0.7,0.2-1c-0.1-0.3-1.9,0-2.1,0.4c-0.5,0.8-1.3,1-2.2,0.8c-0.4-0.1-0.8-0.4-1.2-0.7
			c-0.2-0.1-0.4-0.3-0.6-0.5c0,0.3,0,0.5,0.1,0.8c0,0.1,0.1,0.2,0.2,0.5c-1,0-1.8-0.1-2.7-0.1c-0.2,0-0.4-0.1-0.6-0.2
			c0.2-0.1,0.3-0.3,0.5-0.4c0.4-0.2,0.8-0.3,1.2-0.5c0.1-0.1,0.2-0.2,0.3-0.4c-0.1,0-0.3,0-0.4-0.1c-0.7-0.5-1.4-0.9-1.7,0.4
			c0,0.1-0.3,0.2-0.5,0.3c-0.6,0.2-0.6,0.2-0.1,0.8c-2.9,0-5.7,0-8.6,0c0.3-0.7,0.2-0.9-0.8-1c-0.6-0.1-1.2-0.2-1.7-0.2
			c-0.2,0-0.4,0.4-0.5,0.6c-0.2,0.8-0.1,0.8-0.8,0.4c-0.2-0.1-0.4-0.1-0.6-0.1c-0.3,0-0.6,0.1-1,0.1c0-0.3,0-0.7,0-1
			c0-0.2,0.2-0.4,0.3-0.6c-0.4,0-0.8-0.1-1.3-0.1c0.3,0.7,0.5,1.3,0.7,2c-1.1,0-2.2,0-3.2,0c-0.3,0-0.6-0.4-0.9-0.4
			c-0.3,0-0.6,0.4-1,0.4c-0.5,0-1-0.2-1.5-0.2c-0.6,0-1.1,0.2-1.7,0.3c-0.1-0.1-0.1-0.2-0.2-0.3c0.3-0.3,0.5-0.6,0.8-0.9
			c0.2,0.2,0.5,0.5,0.7,0.7c0.5-0.4,0.8-1,0.3-1.6c-0.2-0.2-0.6-0.5-0.8-0.4c-0.4,0.1-0.8,0.4-1,0.7c-0.2,0.3-0.3,0.8-0.2,1.2
			c0.1,0.6-0.3,0.6-0.5,0.5c-0.5-0.5-1.1-0.2-1.6-0.2c-0.5,0.1-1.1,0.1-1.7,0.1c-3.1,0-6.2,0.1-9.3,0.1c-0.6,0-1.2,0.2-1.5-0.6
			c-0.1-0.3-0.8-0.3-1.3-0.5c0.2,0.4,0.4,0.7,0.5,0.9c-0.3,0.1-0.6,0.2-0.8,0.1c-0.5,0-1.1,0.3-1.3-0.6c0-0.1-1-0.2-1.3,0
			c-0.8,0.6-1.7,0.7-2.6,0.7c-1.9,0-3.9,0-5.8,0c-1.3,0-1.7-0.5-1.6-1.8c0-0.7,0-1.5,0-2.2c0-0.4,0.2-0.7,0.3-1.1
			c0-0.1,0.1-0.4,0-0.4c-0.8-0.6-0.1-1.5-0.3-2.2c0-0.1,0.4-0.4,0.6-0.7c0.1-0.1,0.2-0.3,0.1-0.4c0-0.1-0.2-0.2-0.2-0.2
			c-0.8,0.6-0.7-0.3-0.7-0.6c0-0.9,0.1-1.8,0.1-2.7c0-0.3-0.1-0.6-0.1-0.9c0.2-0.9,0-2.1,1.6-1.9c0.1,0,0.3-0.4,0.3-0.4
			c-0.4-0.5-0.8-1-1.3-1.5c0,0.6,0,1.1,0,1.6c-0.1,0-0.3,0-0.4,0c0-1.6,0-3.1,0-4.7c0.1-0.1,0.1-0.2,0.2-0.3c0.1,0.3,0.3,0.7,0.4,1
			c0.1-0.1,0.2-0.2,0.4-0.3c-0.3-0.4-0.5-0.9-0.8-1.3c-0.1-0.2-0.4-0.3-0.3-0.4c0.4-1,0.1-2.1,0-3.1c0-0.2,0.1-0.4,0.2-0.6
			c0-0.3,0.1-0.6,0.1-1c0.2,0.3,0.5,0.5,0.7,0.8c0.3-0.2,0.6-0.6,0.9-0.5c0.7,0,0.3-0.4,0.3-0.7c-0.5,0.6-0.7-1.4-1.3-0.1
			c-0.2,0.4-1,0-0.9-0.5c0.1-2,0.1-4.1,0.3-6.1c0-0.3,0.3-0.5,0.4-0.7c0.1-0.3,0.2-0.6,0.2-0.9c-0.3,0.1-0.5,0.2-0.9,0.3
			c0.2-0.6,0.4-1.2,0.5-1.8c0-0.1-0.4-0.2-0.4-0.3c0-0.5,0-1.1,0.1-1.6c0-0.3,0.4-0.7,0.3-0.9c-0.5-0.9,0.3-1.1,0.8-1.4
			c-0.5-0.4-1-0.7-0.7-1.5c0.2-0.3-0.3-0.9-0.4-1.4c-0.1-0.4,0-0.4,0.6-0.9c0.1-0.1,0-0.4,0-0.4c-0.8-0.1-0.5-0.6-0.3-1
			c0.2-0.3,0.4-0.6-0.1-0.9c-0.2-0.1-0.1-0.8-0.1-1.2c0-0.7,0.4-0.4,0.8-0.3c0.1,0,0.3-0.2,0.4-0.4c-0.2-0.2-0.4-0.7-0.6-0.7
			c-0.6,0-0.8,0-0.5-0.6c0-0.1,0-0.2,0-0.2c-0.6-1.4-0.2-2.6,0.7-3.8c0.4-0.5,0.1-0.6-0.3-0.9c-0.3-0.2-0.7-0.4-0.7-0.6
			c0-1.2-0.5-2.5,0.4-3.6c0.3-0.3,0.2-0.3-0.3-0.5c-0.1,0-0.2-0.2-0.2-0.2c0.2-0.7-0.5-1.6,0.6-2c0.1,0,0.1-0.2,0.1-0.2
			c-1-0.7-0.4-1.7-0.4-2.5c-0.2-1.9-0.1-3.7,0-5.6c0-0.3-0.3-1,0.5-0.8c0,0,0.1-0.4,0.1-0.6c0,0-0.3-0.1-0.4-0.1
			c-0.1,0-0.2-0.1-0.2-0.2c0-1.2,0-2.4,0-3.6c0-0.5,0-1,0.7-1c-0.2-0.4-0.6-0.8-0.6-1.2c0-1,0.2-1.9,0.2-2.9c0-0.5-0.2-1-0.2-1.5
			c0-1.5,0-3.1,0-4.6c0-0.5-0.1-1,0.5-1.3c0.4-0.2,0-0.3-0.2-0.5c-0.3-0.4-0.3-0.9-0.3-1.4c0-0.8,0-1.5,0-2.3
			c0.8-0.1,1.7,0.5,2.2-0.5c0.1-0.3,0.1-0.6,0.1-0.9c-0.3,0.2-0.9,0.2-1,0.5c-0.3,0.9-0.6,0.8-1,0.2c0-0.1-0.2-0.1-0.3-0.1
			c0.2-0.2,0.4-0.4,0.6-0.6c0,0-0.4-0.3-0.4-0.4c0-0.2,0.2-0.4,0.3-0.6c0-0.1,0.1-0.3,0-0.4c-0.8-0.5-0.5-1.3-0.5-2
			c0-2.1,0.3-4.2,0.1-6.2c-0.1-1.1,0.3-2.1-0.1-3.1c-0.1-0.3,0.2-0.8,0.4-1.2c0,0,0.1,0,0.1,0c0-0.4-0.3-0.9-0.1-1.1
			c0.2-0.3,0.8-0.3,0.4-1c-0.2-0.5,0-1.2-0.3-1.8c-0.2,0.7-0.4,1.3-0.6,2c-0.1,0-0.1,0-0.2,0c0-1.7-0.1-3.5,0-5.2
			c0.1-1.1,0.2-1.1,0-2.6c-0.1-0.7-0.1-1.5,0-2.2c0-0.7,0.2-1.4,0.2-2.1c0-0.5,0-1,0.7-1c0.1,0,0.2-0.2,0.3-0.3
			c-0.6-0.3,0-1.2-0.8-1.4c-0.2,0-0.2-0.6-0.2-0.9c-0.1-1.6-0.2-3.2-0.3-4.8c0-0.3,0.1-0.4,0.4-0.3c0.1,0.1,0.4,0,0.8-0.1
			c-1.2-0.9-1-2-0.8-3c0-0.2-0.1-0.5-0.1-0.7c0-0.7,0.1-1.5,0.1-2.2c0-0.4,0.1-0.7,0-1c-0.3-1-0.5-2,0.1-3c0.1-0.1,0-0.3,0-0.4
			c-0.1-0.4-0.3-0.8-0.3-1.2c0-2.5-0.1-5,0-7.4c0.1-1.3,0.1-2.6-0.1-3.9c-0.1-0.7,0.3-0.8,0.8-0.9c0.4-0.1,0.9,0,0.7-0.6
			c0-0.1-0.6-0.1-1,0c-0.1,0-0.3,0.2-0.5,0.3c0-1.6,0-3,0-4.5c0-0.1,0-0.3,0-0.4c1.5-0.7,0-1.6,0-2.4c0-0.8-0.2-1.4,0.6-2
			c0.2-0.2,0.2-0.6,0.3-0.9c-0.3,0.1-0.6,0.1-1,0.2c0-0.9,0-1.8,0-2.7c0-0.4-0.2-0.8,0.5-1c0.4-0.1,0.3-0.5-0.7-1
			c1,0,1.5-0.4,1.4-1.4c-0.2,0.1-0.4,0.3-0.6,0.3c-0.2,0-0.4-0.1-0.6-0.2c0.3-0.4-0.8-1.4,0.6-1.4c0-0.3,0-0.7-0.1-0.7
			c-0.7-0.1-0.5-0.7-0.5-1.1c0-0.9,0-1.8,0-2.7c0-0.4-0.2-0.9,0.5-1c0,0,0.1-0.3,0-0.4c-0.2-0.2-0.5-0.3-0.5-0.5
			c0-0.9-0.1-1.8,0.1-2.6c0.1-0.3,0.8-0.6,1.2-0.6c1.1,0,2.1,0.1,3.2,0.2c0.6,0,1.2-0.2,1.7-0.2c1.2,0,2.4,0,3.6,0
			c0.5,0,0.8,0,1.1,0.5c0.3,0.6,0.4,0.5-0.3,0.9c-0.2,0.1-0.3,0.4-0.4,0.8c1.1-0.1,2.1-0.2,3.4-0.3c-0.4-0.3-0.7-0.5-0.8-0.5
			C97.1,3.8,97,3.4,97.1,3c0.1-0.3,0.4-0.5,0.7-0.8c0.1-0.1,0.2,0,0.4,0c1.5,0,3,0,4.5,0c0.3,0,0.5,0.1,0.8,0.2
			c0.3,0.1,0.6,0.1,0.9,0.1c1-0.1,2-0.2,3.3-0.4c-0.3,0.5-0.4,0.8-0.6,1.1c0.5,0.1,0.9,0.2,1.4,0.2c0.2,0,0.4-0.1,0.6-0.1
			c-0.1-0.2-0.2-0.4-0.3-0.5c-0.1-0.2-0.3-0.3-0.4-0.5c0-0.1,0.1-0.2,0.1-0.2c0.3,0.2,0.6,0.2,0.8,0.5c0.4,0.6,0.8,1.1,1.6,0.5
			c0.2-0.1,0.5-0.2,0.7-0.1c0.7,0.4,1.3,0.6,1.3-0.6c0-0.1,0.5-0.2,0.8-0.2c0.6,0,1.3,0,1.9,0c0.7,0,1.4,0.1,2.1,0.1
			c0.7,0,1.3-0.1,2-0.1c1.6,0,3.2,0,4.8,0c0.6,0,1.1,0.5,1.7,0.4c0.2,0,0.5-0.1,0.7-0.2c0.3-0.2,0.6-0.4,0.7,0.3
			c0,0,0.6,0.2,0.8,0.1c0.7-0.5,0.6-0.5,0.8,0.2c0,0.2,0.1,0.3,0.1,0.6c1.4-1.4,3-1.5,4.7-1.4c0.2,0,0.5,0.5,0.5,0.7
			c0,0.5,0.3,0.3,0.5,0.4c0.5,0,0.5-0.1,0.3-0.5c-0.1-0.4,0-0.6,0.5-0.6c1.7,0,3.3,0,5,0c0.5,0,0.4,0.2,0.2,0.5
			c0.4-0.2,0.9,0.8,1.2-0.1c0-0.1,0.4-0.3,0.6-0.3c1.2,0.3,2.5-0.4,3.8,0.3c0.4,0.2,1.2-0.2,1.8-0.3c0.3,0,0.6-0.1,0.9,0
			c0.2,0.1,0.3,0.3,0.4,0.5c0.1,0.2,0.1,0.3,0.2,0.5c0.1-0.2,0.4-0.4,0.4-0.5c-0.2-0.5,0.1-0.6,0.4-0.5c1.3,0.4,2.7-0.3,4.1,0.3
			c0.5,0.2,1.5-0.3,2.3-0.2c1,0.1,2-0.1,3-0.1c0.3,0,1-0.4,0.9,0.5c0.3-0.1,0.7-0.1,1-0.2c0.5-0.1,0.9-0.3,1.4-0.3
			c0.3,0,0.5,0.7,0.7,0.6c0.4-0.1,0.7-0.6,1.1-0.6c1-0.1,2.1-0.1,3.1,0c0.5,0,1.2-0.4,1.3,0.6c0,0,0.3,0,0.3,0
			c0.3-1.1,1.1-0.4,1.8-0.4c-0.3,0.5-0.8,1-0.7,1.4c0.2,0.5,0.8,1,1.3,1.5c0.2-0.6,0.2-1.1,0-1.6c-0.1-0.4,0-1.2,0.2-1.4
			c0.6-0.5,1.7,0,2,0.9c0.2-1,0.9-1,1.7-1c1.6,0,3.2,0.3,4.7,0c1.3-0.2,2,0.8,1.6,2.1c-0.1,0.3,0.3,0.9,0.2,1.1
			c-0.7,0.9,0.1,1.8-0.2,2.7c-0.2,0.7-0.6,1.4-1,2.1c0.1,0.1,0.3,0.2,0.6,0.4c0.1,0.1,0.1,0.3,0.2,0.4c-0.2,0-0.3,0.1-0.5,0.1
			c-0.2,0-0.4,0-0.6,0c0.1,0.3,0.1,0.7,0.2,1c0,0.1,0.3,0.2,0.5,0.4c0-0.2,0.1-0.3,0.1-0.4c0.1-0.2,0.2-0.4,0.2-0.6
			c0.1,0.2,0.3,0.3,0.3,0.5c0,1.5,0,3,0,4.5c0,0.2-0.2,0.6-0.3,0.6c-0.6,0.3-0.4-0.4-0.6-0.6c-0.1-0.1,0-0.4,0.1-0.7
			c-0.4,0.6-0.7,1.1-1,1.7c0,0.1,0.3,0.4,0.5,0.5c1.4,0.4,1.7,0.8,1.7,2.3c-0.1,2.7-0.2,5.4-0.3,8.2c0,0.3-0.3,0.5-0.4,0.7
			c-0.1,0.2-0.3,0.4-0.5,0.7c0.2,0,0.5,0,0.7,0.1c0.1,0,0.3,0.3,0.2,0.3c-0.2,0.6-0.5,1.1-0.8,1.7c-0.1,0.2-0.1,0.4-0.1,0.5
			c0.1-0.1,0.3-0.3,0.4-0.3c0.1,0,0.4,0.1,0.4,0.2c0.1,0.2,0,0.5,0.1,0.8c0.3,0.8-0.4,1.4-0.2,2.2c0.2,0.8,0.1,1.6,0.1,2.4
			c0,0.6-0.4,0.4-0.8,0.4c-0.4-0.1-0.4-1.3-1-0.5c-0.5,0.7,0.6,0.2,0.7,0.7c0.3,1.1,1.3,1.6,1.9,2.4c0.3,0.5,0,1-0.8,1.1
			c-0.3,0.1-0.8-0.1-0.8,0.5c0,0.1,0.1,0.3,0.2,0.3c0.3,0,0.5-0.1,0.8-0.2c-0.1,0.3-0.2,0.5-0.2,0.8c-0.1,1.1,0.9,1.9,2,1.9
			c2.7-0.1,5.5,0,8.2,0c1.9,0,3.8,0,5.7,0c0.4,0,0.9-0.3,1,0.5c0,0,0.3,0.1,0.3,0.1c1.4-0.8,2.8-0.5,4.3-0.5
			c-0.3,0.3-0.7,0.6-0.6,0.7c0.1,0.3,0.4,0.6,0.9,0.3c0.1-0.1,0.5,0.2,0.7,0.3c0.1,0,0.2-0.2,0.4-0.3c-0.1-0.1-0.2-0.2-0.3-0.2
			c-0.2-0.2-0.4-0.3-0.6-0.5c0.2-0.1,0.5-0.3,0.7-0.3c1.5,0.1,3,0.2,4.6,0.2c0.8,0,1.5-0.2,2.3-0.2c2.7,0,5.4,0.1,8,0.1
			c0.5,0,0.8,0.1,1.1,0.6c0.1,0.3,0.5,0.1,0.8,0c0.6-0.4,1.2-0.7,1.9-0.9c0.7-0.1,0.7,0,0.8-0.8c0-0.1,0.2-0.3,0.3-0.2
			c0.3,0.1,0.6,0.1,0.8,0.3c0.1,0.1,0,0.5,0,0.7c0,1,0,2.1,0,3.1c0,0.7-0.2,1.4-0.2,2.1c0,0.7,0.1,1.5,0.2,2.2c0,0.3,0,0.5-0.1,0.8
			c-0.1,0-0.2,0-0.3,0c0-0.4,0-0.8,0-1.1c-0.7-0.2-1.4-0.4-2-0.5c0.4,0.7,0.8,1.4,1.3,2.1c0,0,0.2,0,0.2,0.1c0.8,0.3,1.2,1,0.8,1.7
			c-0.3,0.6-0.3,1-0.2,1.5c0,0.1,0,0.2,0,0.3c-0.9,1.5,0.5,3-0.1,4.5c-0.1,0.4,0.3,1,0.3,1.6c-0.1-0.2-0.2-0.3-0.3-0.5
			c-0.1,0.2-0.2,0.3-0.1,0.5c0.1,0.9,0.2,1.7,0.4,2.7c-0.3-0.2-0.5-0.4-0.8-0.6c-0.1,0.3-0.3,0.5-0.3,0.8c0,0.3,0.2,0.8,0.4,0.9
			c1.1,0.6,0.1,1.7,0.7,2.4c-0.1,0.1-0.3,0.1-0.4,0.2c-0.3,0.1-0.6,0.2-0.8,0.4c-0.1,0.1-0.1,0.4-0.2,0.7c0.2,0,0.5,0.1,0.7,0
			c0.8-0.3,0.8-0.3,0.8,0.5c0,0.9,0.3,1.9-0.4,2.7c-0.1,0.1-0.3,0.7,0.3,1c0.2,0.1,0.1,0.9,0,1.5c-0.3-0.3-0.7-0.7-1-1
			c-0.2-0.1-0.4-0.2-0.6-0.4c-0.1,0.2-0.3,0.5-0.2,0.7c0,0.2,0.2,0.6,0.3,0.7c1.5,0.8,1.9,1.9,1.1,3.3c-0.6,1.1-0.5,1.7,0.5,3
			c0.1,0.1-0.2,0.5-0.3,0.7c-0.3,0.3-0.6,0.5,0.1,0.7c0.2,0,0.3,0.7,0.3,1c-0.1,1.6,0.4,3.2-0.4,4.8c0,0,0.3,0.2,0.3,0.3
			c0,0.6-0.1,1.2-0.1,1.8c0,0.1-0.2,0.2-0.1,0.3c0.6,1.4,0.5,2.7,0,4.5c-0.1,0.4,0.2,0.9,0.3,1.4c0,0.4-0.1,0.8-0.1,1.2
			c0,0.2-0.1,0.4-0.1,0.6c0.1,0.7,0.3,1.4,0.3,2.1c0,0.7-0.4,1.2-1.2,1.4c0,0,0,0.5,0,0.7c0.2,0,0.5,0,0.7-0.1
			c0.1,0,0.2-0.2,0.5-0.3c-0.1,0.9-0.1,1.8-0.2,2.7c0,0.4-0.1,0.8-0.1,1.1c0.1,1.5-0.4,2.8-0.9,4.1c-0.1,0.3-0.6,0.6-0.9,0.6
			c-0.8,0.1-1.3,0.5-1.2,1.4c0.1,0.5,0.5,1,0.8,1.5c0.1,0.1,0.4,0.1,0.8,0c-1.3-0.4-0.4-1.5-0.9-2.1c0.6,0,1.3-0.3,1.6,0
			c1.3,1,1.3,1.9,0.7,3.4c-0.1,0.1,0.1,0.4,0.2,0.6c0.1,0.3,0.2,0.5,0.2,0.8c0,1.4,0,2.8,0,4.2c0,0.5-0.2,0.7-0.6,0.9
			c-0.1,0.1-0.2,0.2-0.3,0.3c0.1,0.1,0.2,0.3,0.3,0.2c0.8-0.5,0.6,0.1,0.6,0.5c0,0.9,0,1.8,0,2.7c0,0.3-0.3,0.5-0.4,0.8
			c-0.2,0.4-0.5,0.7-0.5,1.2c0.3-0.1,0.5-0.3,0.8-0.4c0,0.1,0.1,0.1,0.1,0.2c-0.1,0.4-0.2,0.7-0.2,1.1c0,0.4,0,0.8,0,1.2
			c-0.6,0-1.1,0-1.7,0c-0.1,0-0.2,0-0.4-0.1c0.8,1.3,0.8,1.3,2.3,0.7c-0.1,0.4-0.2,0.7-0.3,1c-0.1,0.3,0,0.6-0.1,0.9
			c-0.4-0.1-0.7-0.2-1-0.2c0,0.1-0.1,0.1-0.1,0.2c0.2,0.1,0.3,0.3,0.5,0.4c0.8,0.4,0.8,1,0.2,1.6c-0.1,0.1-0.1,0.3,0,0.4
			c0.3,0.3,0.9,1.5,0.7,1.8c-0.7,0.9,0.5,2.5-1.5,3c0.2,0.1,0.3,0.2,0.5,0.3c0.3-0.1,0.6-0.3,0.9-0.4c0,0.6,0.1,1.2,0.1,1.8
			c0,0.9,0.1,1.9,0,2.8c-0.1,0.6-0.6,1.2-1.1,1c-0.8-0.3-1,0.2-1.3,0.6c-0.1,0.2-0.2,0.3-0.2,0.7c0.3-0.1,0.6-0.1,0.8-0.2
			c0.6-0.2,1.5,0.2,1.7,0.8c0.1,0.4,0.2,0.9,0.2,1.3c0,2.4,0,4.7,0,7.1c0,0.4,0.2,1.1-0.7,0.9c-0.2,0-0.5,0.4-0.9,0.7
			c0.6,0,1.1,0,1.5,0c0.6,1.2-0.4,2.1-0.7,3.2c-0.2,0.5-0.2,0.8,0.2,1.3c0.3,0.4,0.4,1.3,0.3,1.9c-0.2,1.1,0.1,2,0.1,3.1
			c0,0.9,0.1,1.7,0.2,2.6c0,0.2-0.1,0.5-0.3,0.6c-0.5,0.3-0.3,0.4,0,0.7c0.4,0.3,0.5,0.7-0.2,0.9c-0.1,0-0.2,0.3-0.2,0.4
			c0.1,0.4,0.1,0.5-0.4,0.5c-0.3,0-0.5,0-0.8,0.1c0,0.1,0,0.2,0.1,0.2c0.3,0.1,0.7,0.3,1,0.4c0.2,0,0.4-0.1,0.6-0.2
			c-0.1,0.9-0.2,1.9-0.2,2.8c0,0.7,0.1,1.4-1.1,1.2c0.5,0.4,1,0.6,1,0.8c0.1,0.5,0.3,1.2-0.6,1.3c-0.1,0-0.1,0.4-0.1,0.6
			c1.1,0,1,0.7,1.1,1.5c0,0.9-0.3,1.6-1.1,1.9c-0.1,0.1-0.3,0.1-0.4,0.2c-0.1-0.4-0.1-0.9-0.3-0.9c-0.5-0.2-0.8,0.1-0.8,0.6
			c0,0.1-0.4,0.3-0.7,0.3c-1.2,0-2.5,0-3.7,0c-0.3,0-0.5-0.3-0.8-0.4c-0.2-0.1-0.5-0.1-0.5-0.1c-0.4,0.7-0.8,0.5-1.4,0.3
			c-0.3-0.1-0.7,0-1.1,0.1c-0.7,0.1-1.5,0.4-2.1-0.2c-0.1,0-0.2,0-0.3,0c-2.3,0.2-4.5,0.3-6.6,0.4c0-0.7-0.1-1.2-0.1-1.8
			c-0.1,0-0.2,0-0.3,0c-0.1,0.4-0.2,0.7-0.4,1.1c-0.1,0.2-0.3,0.6-0.4,0.6c-0.2,0-0.5-0.2-0.7-0.4c-0.4-0.4-0.7-1-1.5-0.7
			c0.2,0.3,0.4,0.6,0.8,1.1c-0.7,0-1.3,0-1.9,0c-0.1,0-0.3-0.3-0.4-0.4c-0.1-0.1-0.2-0.1-0.2-0.2c-0.2,0.6-0.5,0.3-0.8,0.1
			c-0.3-0.2-1-0.9-0.7,0.3c0,0.1-0.2,0.2-0.2,0.2c-0.7-0.8-1.5-0.1-2.3-0.1c-0.9-0.1-1.9,0.2-2.9,0.1c-0.7-0.1-1.3-0.4-1.9-0.6
			c-0.2-0.1-0.5,0-0.8,0c0.2,0.2,0.4,0.4,0.6,0.6c-0.7,0-1.3,0.1-1.9,0.1c-1.4,0-2.8,0-4.2,0C185.9,183.7,185.6,183.5,185.3,183.5
			c0.1-0.1,0.2-0.2,0.3-0.3c0.5-0.3,1.8-0.2,1-1.5c0-0.1,0.1-0.2,0.1-0.3c0.1-0.5,0.3-0.9,0.3-1.4c0,0-0.5-0.2-0.6-0.2
			c-0.4,0.7-0.9,0.3-1.4,0.1c-0.3-0.1-0.5-0.2-0.8-0.2c0.1,0.2,0.1,0.5,0.2,0.7c0.7,0.8,0.8,1.4-0.1,1.9
			C184.7,182.8,185,183.1,185.3,183.5z M125.9,138.2c1-1.6,1.9-3.1,2.9-4.6c0.3-0.4,0.5-0.9,1.2-0.9c0.3,0,1.1-0.6,1-0.7
			c-0.3-0.7,0.5-0.7,0.7-1.1c-0.1-0.1-0.1-0.1-0.2-0.2c-0.4,0.2-0.8,0.4-1.4,0.8c0.8-1.3,1.5-2.5,2.3-3.6c0.9-1.3,1.8-2.6,3.6-2.3
			c0.1,0,0.3-0.2,0.2-0.3c-0.1-0.9,0.4-0.9,1.1-0.9c0.4,0,0.9-0.1,1.3-0.3c0.8-0.3,1.5-0.7,2.3-1c0,0.1,0,0.1,0.1,0.2
			c-0.4,0.4-0.7,0.8-1.1,1.2c0.6,0.1,1.2,0.1,1.9,0.2c-0.6-0.6-0.3-1.2,0.2-1.6c0.3-0.2,1-0.4,1.2-0.2c0.5,0.6,0.8,0.5,1.1-0.1
			c0.2-0.2,0.5-0.4,0.8-0.5c1.1-0.3,2.2-0.7,3.3-0.8c1,0,2-1.2,3.1-0.2c0,0,0.3-0.1,0.4-0.2c0.1-0.1,0.2-0.4,0.3-0.5
			c2.1-0.5,4.2-1.1,6.3-1.5c0.2,0,0.4,0.3,0.6,0.5c0.2-0.6,0.7-0.7,1.5-0.7c1,0,2.1-0.5,3.1-0.8c0.9-0.3,2,0.1,2.8-0.6
			c0.1-0.1,0.5-0.2,0.6-0.1c0.7,0.4,1.2-0.1,1.8-0.3c0.3-0.1,0.5-0.2,0.8-0.3c0.3,0,0.6,0,0.5,0.5c-0.1,0.2,0.1,0.5,0.2,0.7
			c0.2-0.2,0.4-0.4,0.5-0.7c0.1-0.3,0-0.7,0.1-1c0.4,0.1,0.8,0.1,1.2,0.2c0.2,0,0.4,0,0.6,0c0.9,0.2,1.8,0.3,2.2,1.3
			c0.1,0.2,0.5,0.3,0.7,0.3c0.9-0.2,1.8-0.2,2.7,0.3c0.7,0.5,1.5,1,2.3,1.3c1.4,0.5,3.1,0.5,4,1.9c0,0.1,0.3,0,0.4,0
			c1,0.5,2.5,0.1,3.2,1.5c0,0.1,0.3,0,0.5,0c0.4-0.1,0.8-0.3,1.1-0.2c1,0.2,1.9,0.6,2.9,0.9c1.7,0.5,3.4,0.9,5.2,1.4
			c0,0,0,0.3,0,0.5c0.6,0.1,0.9-0.9,1.6-0.2c0,0,0.4-0.1,0.4-0.2c0.1-0.9,0.8-0.5,1.2-0.5c0.8,0,1.5,0.3,2.4-0.2
			c0.7-0.4,1.8-0.9,2.6,0.1c0,0,0.1-0.1,0.3-0.1c-0.3-0.5-0.6-0.8,0.1-1.6c0.8-0.9,1.7-2,1.6-3.4c0-0.2,0.2-0.5,0.3-0.7
			c0.2,0.2,0.4,0.4,0.5,0.6c0.1,0.1-0.1,0.4,0,0.5c0.1,0.2,0.4,0.6,0.4,0.5c0.7-0.4,0.8,0.3,1.2,0.6c0.6-1.1-1-1.4-0.7-2.4
			c0-0.1-0.4-0.4-0.6-0.6c-0.1-0.1-0.3,0-0.3-0.1c-0.2-0.1-0.4-0.3-0.6-0.5c0.3-0.2,0.6-0.6,0.8-0.5c1,0.3,1.6-0.1,2.1-1
			c-0.6,0-1.2-0.5-1.9-0.2c-0.2,0.1-0.5-0.1-0.8-0.1c0.2-0.1,0.4-0.2,0.6-0.4c0.1-0.1,0.2-0.2,0.3-0.3c-0.1-0.1-0.3-0.2-0.4-0.4
			c-0.4-0.4-0.9-0.7-1.1-1.1c-0.9-1.7-2.5-2.4-4.1-3.2c-0.7-0.4-1.9,0.1-2.2-1.2c0,0-0.2,0-0.2,0c-0.3,0.6-0.5,0.1-0.6-0.1
			c-0.1-0.3,0-0.8-0.6-0.5c-0.7,0.4,0.2,0.6,0,0.8c-1.4-0.1-2.7-0.2-4-0.3c-0.7-0.1-1.4-0.4-2.2-0.6c-0.2-0.1-0.5,0-0.7,0
			c-0.4,0.1-0.7,0.3-1,0.3c-1,0.1-2,0.1-3,0.1c-1.2,0-2.4,0.1-3.5,0.1c-0.2,0-0.4-0.3-0.6-0.4c-0.3-0.3-0.7-1-1-1
			c-0.6,0-1.5,0.2-1.7,1c-0.2,0.7-0.6,0.8-1.1,0.8c-0.4,0-0.9-0.1-1.3-0.1c-0.1,0-0.4,0-0.4,0.1c0,0.6-0.5,0.5-0.8,0.5
			c-0.7,0-1.4,0.1-1.7-0.8c0-0.1-0.5-0.1-0.8-0.2c0.1,0.2,0.2,0.4,0.2,0.6c0,0.1,0,0.2,0,0.3c-0.9-0.3-1.7-0.4-2.4-0.8
			c-2.4-1.6-4.8-3.3-7.1-5.2c-1.3-1-2.3-2.4-3.5-3.7c-0.8-0.8-1.1-1.6-1.6-3c0-0.1-0.2-0.3-0.3-0.3c-1.6-0.2-1.6-1.8-2.5-2.7
			c0,0,0.1-0.2,0.1-0.3c0,0,0.2,0,0.2,0.1c0.2,0.1,0.3,0.3,0.5,0.3c0.2,0,0.5-0.1,0.7-0.2c-0.1-0.2-0.1-0.4-0.3-0.5
			c-0.6-0.4-1.3-0.7-1.9-1c-0.2-0.1-0.5-0.2-0.6-0.3c-0.9-1.7-1.8-3.4-2.5-5.2c-0.2-0.5-0.4-1-0.7-1.6c-0.3-0.5-1.1-1.3,0.2-1.6
			c-0.1-0.2-0.3-0.6-0.4-0.6c-0.8,0.3-0.8-0.3-0.8-0.8c0-0.7,0-1.4,0-2.2c0-0.2,0.1-0.3,0.2-0.5c1,0.4,1.5-0.8,2.4-0.6
			c0.3,0,0.6-0.4,0.9-0.6c-0.1-0.2-0.2-0.4-0.4-0.5c-0.4-0.3-1.9-0.1-2.2,0.3c-0.2,0.2-0.3,0.5-0.5,0.9c-0.5-1.3,0.4-1.9,0.2-3
			c-0.2-0.9,0.5-2.1,0.4-3.2c0-0.1,0-0.2,0-0.3c0.2-1.1,0.5-2.2,0.5-3.3c0-1.1,0.5-2,0.6-3.1c0-2.5,0.5-5,0.6-7.5
			c0-0.6-0.1-1.1,0.6-1.5c0.2-0.1,0.5-0.6-0.1-0.9c-0.2-0.1-0.7,0.4-0.5-0.2c0.1-0.3,0.3-0.9,0.5-0.9c1.3-0.1,0-1.3,0.7-1.6
			c-0.2,0-0.5-0.1-0.6,0c-0.1,0.2-0.2,0.5-0.3,0.7c-0.3-0.7-0.5-1.4-0.8-2.1c0-0.1,0-0.4,0.1-0.5c0.1-0.1,0.3,0,0.5,0
			c-0.2-0.2-0.3-0.4-0.5-0.5c-1.1-0.4-1.1-0.6-0.6-1.6c0.1-0.2-0.1-0.5-0.1-0.8c-0.1,0-0.2,0-0.2,0.1c-0.6,0.5-0.8,0.5-1.2-0.2
			c-0.5-0.8-0.9-1.1-1.9-1.3c-2.2-0.4-4.2-0.3-6.2,0.4c-1.3,0.4-2.4,1.2-2.7,2.7c-0.3-0.1-0.5-0.3-0.8-0.4c-0.3-0.1-0.6-0.1-0.9-0.1
			c0.1,0.3,0.1,0.7,0.3,0.9c0.7,0.6,0.2,1-0.3,1.3c-0.4,0.2-0.8,0.4-1.3,0.6c0.6,0.7,1.2,1.2,2.2,0.5c-0.6,1,0.2,2.2-0.8,3.1
			c-0.4,0.4-0.2,0.8,0.4,1.1c0.1,0.1,0.1,0.3,0.1,0.3c-0.6,0.4-0.2,0.8-0.2,1.2c0.1,0.8,0.7,1.7-0.2,2.5c-0.3,0.2-0.4,0.5,0.2,0.8
			c0.4,0.2,0.9,1,0.3,1.7c-0.1,0.1-0.1,0.3,0,0.5c0.2,0.2,0.4,0.4,0.7,0.7c-0.6,0.1-1,0.1-1.3,0.2c0,0.1-0.1,0.2-0.1,0.2
			c0.2,0.2,0.6,0.6,0.7,0.5c1-0.5,0.6,0.1,0.4,0.5c-0.2,0.4-0.6,0.6,0.2,0.7c0.1,0,0.2,0.5,0.2,0.8c0,0.2-0.1,0.6,0,0.7
			c0.7,0.7,0.6,1.6,0.8,2.4c0.2,0.7,0.7,1.5,0.4,2c-0.4,0.7,0,1.2,0.1,1.7c0.1,0.6,0.6,1.2,0.7,1.8c0.4,1.3,0.7,2.7,0.9,4
			c0.1,0.3,0,0.8-0.1,0.9c-0.3,0.2-0.9,0.4-1.2,0.2c-0.5-0.3-0.9-0.2-1.2,0.1c-0.7,0.5-1,0.2-1.3-0.5c-0.1-0.2-0.3-0.3-0.4-0.4
			c-0.1,0.2-0.3,0.4-0.3,0.6c-0.1,0.8,0.8,1.3,1.6,1c1.3-0.5,1.5-0.4,2.3,0.8c0.1,0.1,0.1,0.4,0.3,0.4c0.7,0.4,0.6,0.4,0.7,0.9
			c0,0.5,0,0.8-0.6,0.8c-0.5,0-0.5,0.5-0.1,0.5c0.7,0.1,0.4,0.4,0.3,0.8c-0.4,0.9-0.8,1.7-2.1,1.5c1.3,0.6,1.4,1.1,0.4,2.1
			c-0.1,0.1-0.3,0.2-0.3,0.4c0.1,1.4-1.1,2.2-1.4,3.4c-0.2,0.6-0.5,1.2-0.8,1.8c-0.2,0.4-1,0.7-0.4,1.4c0,0-0.2,0.2-0.2,0.3
			c-0.3,0.5-0.5,1.1-0.8,1.6c-0.9,1.4-1.1,3.2-2.8,4.1c0,0,0,0.3,0,0.3c0.9,0.5-0.2,0.8-0.1,1.2c-0.7-0.7-0.5,0.3-0.6,0.4
			c-0.2,0.2-0.1,0.6-0.3,0.8c-0.6,0.8-1.8,1.3-1.2,2.7c0,0-0.1,0.1-0.1,0.1c-0.5,0.9-1,1.8-1.5,2.8c-0.3-0.6-0.5-1.1-0.7-1.5
			c-0.3,0.4-0.6,0.9-0.5,1.3c0.4,1.2,0.4,1.5-0.2,2.3c-0.1,0.2-0.1,0.5-0.2,0.7c-0.2,0.7-0.4,1.5-0.8,2.2c-0.2,0.4-0.8,0.7-0.8,1.1
			c0.1,1.4-1,2.2-1.5,3.3c-0.1,0.4-0.2,0.7-0.8,0.5c-0.2-0.1-0.7,0.2-0.9,0.4c-0.3,0.3-0.1,0.6,0.4,0.7c0,0,0.1,0.3,0.1,0.3
			c-0.8,0.4-1,1.5-2.1,1.7c-1.1,0.2-2,0.8-2.7,1.7c-0.1,0.1-0.2,0.1-0.3,0.2c-2.4,1.5-4.9,2.9-7.3,4.4c-0.2,0.1-0.7,0.3-0.8,0.2
			c-0.5-0.6-1-0.1-1.5,0c-0.8,0.1-0.6,0.5-0.3,0.8c0.5,0.5,0.1,0.8-0.1,1c-0.4,0.3-1,0.4-1.4,0.7c-0.3,0.2-0.3,0.6-0.5,0.9
			c-0.3,0.3-0.6,0.6-1,0.9c-0.2,0.2-0.6,0.5-0.7,0.4c-0.9-0.6-0.6,0.4-0.8,0.6c-0.2,0.2-0.1,0.6-0.3,0.8c-0.4,0.4-0.9,0.7-1.3,1.1
			c-0.5,0.5-1,1.3-1.9,0.8c-0.1-0.1-0.4,0.1-0.6,0.2c0.1,0.2,0.1,0.4,0.3,0.6c0.1,0.1,0.4,0.2,0.6,0.3c-0.1,0.2-0.2,0.6-0.4,0.7
			c-0.3,0.1-0.4,0.2-0.5,0.6c-0.2,0.7-0.6,1.3-0.9,1.9c-0.1,0.1-0.2,0.3-0.3,0.3c-0.7-0.5-1.1-0.3-1.5,0.4c-0.8-0.5-0.5,0.3-0.6,0.5
			c0.3,0.1,0.6,0.3,0.8,0.3c0.3,0,0.5-0.3,0.9-0.5c-0.1,0.7-0.1,1.4-0.2,2.1c0,0.7,0.3,1.6-1,1.4c0,0-0.1,0.2-0.2,0.2
			c0.2,0.2,0.4,0.4,0.6,0.4c1.3,0,2,0.9,3,1.5c0.4,0.2,0.6,0.7,1,0.8c0.8,0.1,1,0.5,0.7,1.1c0.6-0.1,1.1-0.3,1.6-0.3
			c0.9,0,1.8,0.3,2.7,0.2c0.9-0.2,1.3,0.3,1.9,0.6c0.2,0.1,0.4,0.2,0.6,0.3c0-0.3,0.1-0.6,0-0.9c-0.1-0.2-0.4-0.4-0.7-0.6
			c0.9-0.4,1.7-0.9,2.5-1.2c1.4-0.4,2.3-1.3,3.2-2.3c0.9-1,1.1-1.2,2-0.3c0.3,0.3,1-0.1,1.1,0.6c0.1-0.4,0.3-0.7,0.4-1.1
			c0.2-0.9,0.8-1.2,1.8-0.9c0.2,0.1,0.5,0.1,0.7,0.1c-0.1-0.2-0.1-0.5-0.3-0.6c-0.8-0.8-0.9-1.3-0.1-2.2c0.1-0.1,0-0.5,0-0.6
			c-0.2-0.1-0.5,0-0.9,0c0.2-0.3,0.3-0.7,0.5-0.9c0.4-0.5,0.5-1.6,1.6-0.8c0.1-0.2,0.2-0.5,0.3-0.7c-0.6-0.2-0.5-0.6-0.2-0.9
			c0.3-0.3,0.6-0.5,1-0.7c0.3-0.2,0.6-0.4,1-0.6c0-0.1-0.1-0.2-0.1-0.3C126.6,138,126.3,138.1,125.9,138.2z M135.5,76.1
			c0-0.1,0-0.2,0-0.3c1.3-0.2,1.9-0.9,2-2.2c0.4,0.6,0.7,1.2,1.2,1.9c0.1-0.4,0.1-0.6,0.1-0.8c0.3-0.6,0.5-1.5,1.4-0.5
			c0.1,0.1,0.4,0.1,0.6,0c0.6-0.3,1.3-0.7,1.8-1.1c0.3-0.2,0.4-0.5,0.6-0.8c0,0-0.3-0.3-0.4-0.3c-0.3,0-0.5,0.1-0.8,0.2
			c0.1-0.3,0.1-0.6,0.2-0.9c0.2-0.7-0.3-1.6-0.7-1.3c-1,0.7-1.6-0.3-2.5-0.4c0.3,0.6,0.2,1.2,1.2,1.2c0.7,0,0.9,0.9,0.5,1.4
			c-0.1,0.1-0.2,0.2-0.2,0.3c0.1,0.3,0.6,0.6,0,0.7c-0.4,0.1-0.9,0.8-1.3-0.1c-0.2-0.3-0.5-0.7-0.8-0.9c-0.3-0.1-0.7-0.1-1.1,0
			c-0.4,0.1-0.6,0.3-0.4,0.8c0.2,0.6-0.2,0.8-0.8,0.6c-0.3-0.1-0.7-0.2-1-0.2c0.1,0.4,0.4,0.5,0.5,0.6c0.1,0.1,0.2,0.4,0.1,0.6
			c0,0.2,0.1,0.6-0.5,0.4c-0.2-0.1-0.5,0-0.5,0.1c-0.7,1.3-0.9,0.5-1.3-0.2c-0.1-0.1-0.5-0.1-0.7-0.2c0,0.2,0,0.5,0.1,0.7
			c0.2,0.3,0.6,0.6,0.9,0.7c0.3,0.1,0.6,0,0.9,0c0.1,0,0.2,0.1,0.3,0.2c0.9,0.7,1,0.7,2-0.2C136.4,76.2,135.9,76.1,135.5,76.1z
			 M93.5,108.2c0-1.4,0.5-2.6,0-3.8c0,0,0.1-0.1,0.1-0.2c0.1-0.2,0.1-0.4,0.2-0.5c-0.2-0.1-0.5-0.3-0.7-0.2
			c-0.3,0.1-0.5,0.4-0.7,0.4c-0.6,0.1-1.2,0.1-1.8,0.1c0.3-0.9-0.7-0.9-1.1-1.2c-1.1-0.7-1,0.6-1.4,1.1c-0.5,0.7-0.1,0.8,0.5,0.9
			c0.2,0.1,0.5,0.3,0.6,0.5c0.1,0.1-0.2,0.5-0.4,0.6c-0.2,0.1-0.5,0.1-0.8,0.2c-0.2,0-0.3,0.1-0.5,0.2c0.1,0.2,0.3,0.6,0.4,0.6
			c0.7-0.2,1.6-0.2,2.1-0.7c1-0.9,1.1-1,2.1-0.1c0.3,0.3,1.2,0,0.9,0.8c-0.3,0.8-0.8,0-1.2,0c-0.2,0-0.5,0.2-0.7,0.2
			c0.2,0.3,0.3,0.7,0.5,0.7C92.3,108.1,93,108.1,93.5,108.2z M217.9,125.7c0.2,0.2,0.4,0.4,0.4,0.6c-0.1,1.7,0,1.8,1.4,2.2
			c0.3,0.1,0.5,0.4,0.6,0.7c0.3,0.5,0.5,1.1,0.8,1.6c0.2,0.3,0.8,0.4,0.2,0.9c-0.1,0,0.2,0.4,0.2,0.6c0.3-0.1,0.6-0.3,0.9-0.4
			c-0.7-0.3,0.2-1.4-0.8-1.7c-0.6-0.1-0.5-0.7,0-0.9c0.7-0.3,1.4-0.6,2.2,0.3c-0.2-0.5-0.2-0.7-0.3-1c-0.1-0.3-0.1-0.6-0.1-1
			c-0.5,0.3-0.9,0.6-1.3,0.9c-0.5,0.4-0.7,0.4-0.8-0.3c-0.1-0.6-0.5-0.3-0.7-0.2c-0.6,0.3-0.9,0.1-1.3-0.3c-0.4-0.4-0.5-0.7-0.1-1.2
			c0.1-0.1-0.2-0.6-0.4-0.8C218.6,125.6,218.3,125.7,217.9,125.7z M134.2,93.4c-0.4,0.1-1.1,0.2-1.2,0.5c-0.2,0.6,0,1.2,0,1.9
			c0,0.3,0.1,0.6,0.2,0.8c-0.3,0-0.5,0-0.8-0.1c-0.3-0.1-0.6-0.2-0.9-0.2c-0.1,0-0.3,0.1-0.4,0.1c-0.1,0.1,0,0.3,0.1,0.4
			c0.8,0.5,0.5,0.7-0.1,1.1c-0.3,0.2-0.3,0.8-0.5,1.2c0.3,0,0.6,0,0.9,0c0.3,0,0.5,0,0.8,0c0.9,0.1,0.9-0.5,0.7-1
			c-0.1-0.3-0.3-0.6-0.4-1c0.3,0,0.5-0.1,0.8-0.1c0.9-0.1,1.1-0.2,1.2-1.2c0-0.1,0-0.2,0-0.2c-0.1,0.1-0.3,0.3-0.5,0.4
			c-0.1-0.1-0.2-0.1-0.2-0.2C133.9,95.1,134,94.4,134.2,93.4z M185.9,165.2c0.8-1.3-0.2-1.3-0.9-1.5c-0.2,0-0.4,0-0.5-0.1
			c0.1,0.2,0.1,0.5,0.2,0.6c0.4,0.2,0.7,0.4,0.5,1c-0.2,0.6-0.6,0.8-1.1,0.7c-1-0.2-1.2,0.4-1.3,1.1c0,0.3,0.1,0.5,0.2,0.8
			c0.3-0.1,0.6-0.2,0.9-0.4c0.4-0.2,0.7-0.8,1.1-0.8c1.6-0.1,1.6,0,2.9-1.1C187.4,165,186.9,164.5,185.9,165.2z M186.2,82.5
			c0.3,0.2,0.5,0.4,0.7,0.5c0.4,0.3,0.5,0.7,0,0.9c-0.7,0.3-0.4,0.6-0.1,0.9c0.2,0.2,0.3,0.5,0.5,0.8c0.2,0.2,0.4,0.3,0.6,0.5
			c0.1-0.2,0.2-0.5,0.2-0.7c0.1-0.3,0-0.8,0.2-1c0.5-0.5,0.7-0.7-0.2-0.9c-0.6-0.2-0.2-0.8-0.1-0.8c1.1,0.2,1-0.7,1.2-1.3
			c0.2-0.3,0.4-0.7,0.7-0.9c0.4-0.2,0.9-0.2,1.4-0.3c0-0.1,0-0.2,0-0.3c-0.4,0-0.9-0.2-1.3,0c-0.8,0.3-1.3,0.5-2.1,0.3
			c-0.1,0-0.1,0.1-0.2,0.1c0.2,0.3-0.5,1.1,0.6,0.8c0.1,0,0.4,0.2,0.6,0.3c-0.1,0.2-0.3,0.4-0.4,0.4
			C187.8,82.1,187.1,82.2,186.2,82.5z M141.2,164c-0.2-0.6-0.3-1-0.5-1.5c0-0.1-0.2-0.4-0.3-0.4c-0.3,0-0.9,0.1-0.9,0.2
			c0,1-0.4,1.3-1.4,1.1c0,0-0.2,0.2-0.2,0.3c-0.1,0.6-0.3,0-0.4,0c-0.9-0.1-0.2-0.5-0.2-0.8c0-0.4-0.1-0.7-0.2-1
			c0-0.1-0.5-0.2-0.5-0.1c-0.3,0.3-0.5,0.7-0.7,1.1c0.5,0,0.3,0.2,0.3,0.6c-0.1,0.7-0.6,0.3-0.8,0.6c-0.1,0.1-0.1,0.2-0.2,0.4
			c0.2,0,0.3,0.1,0.5,0.1c0.5,0,1.1-0.2,1.5,0c0.7,0.3,1.3,0.1,1.9-0.2c0.2-0.1,0.5-0.3,0.7-0.4C140.3,164,140.7,164,141.2,164z
			 M182.2,151.9c-0.2,0.4-0.3,1-0.5,1.1c-0.5,0.1-1-0.1-1.1-0.9c-0.1-0.4-0.6-0.7-0.9-1.1c0,0-0.3,0.1-0.4,0.2
			c-0.1,0.1-0.1,0.3,0,0.4c0.1,0.1,0.3,0.2,0.3,0.2c-0.4,0.8,0.2,1.4,0.7,1.6c0.5,0.3,1.3,0.1,1.9,0.1c0.1,0,0.3-0.2,0.4-0.3
			c0.3-0.4,0.2-0.4,0.7-0.2c0,0,0.2-0.2,0.3-0.3c0-0.3,0.1-0.6,0-0.9c-0.1-0.5,0-0.6,0.6-0.5c0.4,0.1,0.9-0.2,1.2-0.4
			c0.2-0.2,0.3-0.6,0.4-0.9c-0.3-0.1-0.6-0.2-0.9-0.3c-0.1,0-0.2,0.1-0.3,0.1c-0.2,0-0.4-0.1-0.5-0.2c0,0.2-0.1,0.4-0.1,0.5
			c0.3,0.6,0.1,0.8-0.5,0.8c-0.1,0-0.3,0.3-0.3,0.5c0,0.2,0.1,0.5,0.1,0.7c-0.1,0-0.2,0.1-0.2,0.1
			C182.7,152.1,182.4,152,182.2,151.9z M112.2,39.6c0.9-0.4,1.3-0.2,1.4,0.8c0,0.1,0.2,0.4,0.2,0.4c0.6-0.3,1.3-0.6,1.6-1.1
			c0.3-0.5,0.3-0.6,0.8-0.2c0.5,0.5,0.7,0.1,1-0.3c0.4-0.4,0.4-0.8,0-1c-0.3-0.2-0.5-0.3-0.6-0.6c0-0.1-0.4-0.1-0.6-0.2
			c0,0.2-0.1,0.4-0.1,0.6c0,0.1-0.1,0.4-0.1,0.4c-0.8,0-1.4,0.7-2.3,0.2C112.7,38.2,112.2,38.8,112.2,39.6z M162.5,66.4
			c0.1-0.1,0.1-0.1,0.2-0.2c-0.4-0.7-0.8-1.5-1.4-2c-0.4-0.4-1.5-0.2-0.2-0.9c0.1,0,0-0.4,0-0.4c-0.4,0-0.7-1-1.3-0.1
			c-0.4,0.6-0.8,0.5-1.2-0.3c-0.1-0.2-0.1-0.4-0.2-0.4c-0.2-0.1-0.5-0.1-0.8-0.1c0.1,0.6,0.2,1.7,0.4,1.7c0.8,0.1,1.2,1.2,2.2,0.9
			c0.2-0.1,0.7,0.3,1,0.5c-0.1,0.2-0.2,0.4-0.3,0.5c-0.1,0.1-0.2,0.3-0.3,0.4c0.2,0,0.5,0.2,0.6,0.1
			C161.7,65.4,162.1,65.9,162.5,66.4z M130.7,19.2c0.1,0,0.2,0.1,0.2,0.1c0.1,0.2,0.1,0.4,0.2,0.6c0.1-0.2,0.3-0.4,0.4-0.6
			c0.3-0.8,0.5-0.8,1.2-0.3c0.1,0.1,0.3,0.2,0.5,0.2c0-0.2,0-0.4-0.1-0.5c-0.6-0.8-1.4-1.1-2.3-0.8c-0.2,0.1-0.4,0.1-0.6,0.1
			c-0.9,0-1,0.1-0.7,0.8c0.2,0.5,0.5,1-0.3,1.3c-0.3,0.1-0.5,0.5-0.5,0.8c0,0.5,0.1,1,0.2,1.4c0,0.1,0.2,0.1,0.4,0.1
			c0.3,0,0.7,0,1-0.1c0-0.1,0-0.1,0-0.2c-0.3-0.1-0.6-0.2-0.8-0.3C129.9,21.1,130.3,20.2,130.7,19.2z M222.2,54.5
			c-0.4,0-0.6-0.1-0.7,0c-0.2,0.1-0.4,0.3-0.4,0.5c0,0.8,0.4-0.2,0.4,0.1c0.2,0.7,1.3,0.4,1.3,1.3c0,0.2,0.8,0.5,1.1,0.5
			c0.4,0,0.7-0.5,0.4-1c-0.1-0.1,0.2-0.3,0.1-0.5c-0.1-0.4-0.1-1.1-0.3-1.2c-0.6-0.2-0.6-0.4-0.2-0.8C224,53.3,224,53,224,53
			c-0.3-0.1-0.5-0.2-0.8-0.2c0,0-0.2,0.3-0.2,0.4c0.3,0.4-0.4,0.6-0.1,1.2C223.1,54.9,222.3,54.5,222.2,54.5z M161.3,127.5
			c0-0.1,0-0.1,0-0.2c0.1-0.1,0.3-0.1,0.3-0.2c0.1-0.3,0.2-0.6,0.1-0.8c-0.1-0.3-0.5-0.6-0.6-0.6c-0.6,0.1-0.2,0.4,0,0.6
			c-0.1,0.1-0.3,0.1-0.4,0.2c-0.2,0.1-0.7,0.2-0.7,0.4c-0.1,1-0.7,0.9-1.5,0.7c0.3,0.4,0.4,0.7,0.6,1c0.3,0.4,0.6,0.5,0.8-0.1
			c0.1-0.4,0.3-0.9,0.9-0.7c0.3,0.1,0.6,0.4,0.9,0.7c-0.4,0.2-0.6,0.3-0.7,0.4c-0.2,0.1-0.5,0.1-0.7,0.3c-0.1,0.1,0.1,0.5,0.2,0.5
			c0.3,0,0.7,0.1,0.9-0.1c0.7-0.5,1.3-1.2,2-1.9C162.5,127.7,161.9,127.6,161.3,127.5z M92.4,116.9c-0.1,0-0.2,0-0.3-0.1
			c-0.2,1-0.5,2-0.7,3.1c-0.1,0.4,0.2,0.6,0.6,0.4c0.6-0.4,1.2-0.3,1.5,0.2c0.2,0.3,0.3,0.8,0.4,1.1c0.1,0.1,0.1,0.3,0.2,0.4
			c0.1-0.1,0.4-0.1,0.4-0.2c0.1-0.6,0.4-0.8,1-0.8c0.1,0,0.2-0.2,0.3-0.3c-0.1-0.1-0.3-0.1-0.4-0.2c-0.4-0.4-1.3-0.2-1.4-1.1
			c0,0-0.2-0.1-0.3-0.1c-1-0.2-1.6-0.7-1.4-1.9C92.5,117.3,92.4,117.1,92.4,116.9z M99.9,14.7c0.5,0.2,0.9,0.3,1.3,0.5
			c0.3-0.9,0.9-0.2,1.3-0.4c-0.1,0.5-0.1,1-0.2,1.4c0,0.1,0.2,0.3,0.3,0.4c0,0,0.2-0.1,0.3-0.2c0.4-0.6,0.8-1.3,1.1-1.9
			c0.1-0.2,0.1-0.5,0.1-0.7c-0.3,0-0.7-0.1-0.8,0c-0.2,0.2-0.3,0.5-0.6,0.1c-0.2-0.3-0.6-0.5,0-0.7c0.1,0,0.1-0.2,0.1-0.4
			c-0.6,0.1-1.1,0.1-1.6,0.2c-0.2,0-0.4,0.2-0.6,0.4c1.1,1.2-0.4,0.8-0.7,1.1C100,14.5,99.9,14.7,99.9,14.7z M217.2,181.1
			c-0.2-0.1-0.4-0.2-0.7-0.3c-0.7-0.1-1-0.4-1.1-1.1c0-0.3-0.2-0.5-0.4-0.8c-0.2,0.3-0.5,0.7-0.6,1c-0.1,0.2,0.1,0.5,0.2,0.7
			c0.3,0.8-0.4,1-0.9,1.1c-0.5,0.2-0.8-0.2-0.7-0.8c0-0.1-0.3-0.4-0.5-0.4c-0.1,0-0.5,0.3-0.4,0.3c0.1,0.5,0.2,1,0.6,1.3
			c0.3,0.3,0.9,0.6,1.3-0.1c0,0,0.3,0,0.4,0c0.2,0.2,0.4,0.4,0.6,0.6C215.7,182.3,216.4,181.7,217.2,181.1z M89.1,121.1
			c-0.4,0-0.8-0.1-1.2-0.1c-0.2,0-0.3,0.2-0.5,0.3c0.1,0.1,0.3,0.3,0.4,0.3c0.8,0,1.1,0.5,1.3,1.2c0.1,0.2,0.4,0.5,0.6,0.5
			c0.4,0.1,0.9-0.3,1,0.4c0.3-0.1,0.5-0.1,0.8-0.2c-0.1-0.2,0-0.5-0.2-0.6c-0.2-0.2-0.4-0.4-0.7-0.5c0.2-0.1,0.4-0.2,0.5-0.4
			c0.1-0.2,0-0.5,0-0.7c-1.1,0.2-1.4-1.1-2.4-1.3C88.9,120.4,89,120.8,89.1,121.1z M109.5,165.5c0.2-0.5,0.5-0.9,0.4-1.4
			c-0.1-0.6-0.8-1.1-0.8-1.5c0-0.8-0.6-0.8-1-1c-0.1,0-0.6,0.3-0.6,0.5c-0.1,0.8-0.1,1.7-0.1,2.6c0,0.2,0.1,0.4,0.2,0.5
			C108.3,164.5,108.8,165.2,109.5,165.5z M100.6,54.4c-0.8,0.1-1.6,0.1-2.5,0.2c-0.2,0-0.3,0.2-0.5,0.3c0.2,0.1,0.4,0.3,0.6,0.3
			c0.5,0,1-0.1,1.5-0.2c0,0.8-0.4,0.9-0.9,0.8c-0.1,0-0.2,0.2-0.3,0.3c0.1,0.1,0.3,0.3,0.4,0.3c0.4-0.1,0.9-0.2,1.2-0.4
			c0.4-0.3,0.6-0.4,0.9,0c0,0,0.3-0.1,0.4-0.1c-0.5-1,0.3-1,0.9-1.2c0.1,0,0.3-0.3,0.3-0.5c0-0.1-0.3-0.4-0.4-0.3
			c-1.2,0.3-1.1-0.5-1.4-1.2C100.8,53.3,100.7,53.9,100.6,54.4z M188.3,100.4c0-0.1,0.1-0.2,0.1-0.3c0-0.1-0.1-0.3-0.1-0.4
			c0.1-0.9-0.1-1.5-1.1-1.8c-0.3-0.1-0.7-0.6-0.1-1.1c0.1-0.1,0.2-0.5,0.1-0.5c-0.3-0.1-0.6-0.2-0.8-0.2c-0.1,0-0.3,0.5-0.2,0.5
			c0.9,0.7-0.1,0.5-0.3,0.7c-0.2,0.1-0.4,0.4-0.4,0.5c0.3,0.6,0.5,1.4,0.9,1.8C186.9,100.2,187.6,100.2,188.3,100.4z M117.5,109.6
			c1.3,0.9,1.3,0.9,2.5,0.8c0.2,0,0.3,0,0.5,0.1c0.7,0.4,1.5-0.4,2.3,0.1c0.1,0.1,0.5-0.2,0.6-0.3c0.1-0.1,0.1-0.4,0.1-0.5
			c0-0.1-0.3-0.3-0.3-0.3c-0.5,0.4-1-0.3-1.5,0.1c-0.2,0.2-0.9,0-1.1-0.2c-0.6-0.7-0.5-0.7-1.2,0c-0.1,0.1-0.4,0.2-0.6,0.2
			C118.4,109.6,117.9,109.6,117.5,109.6z M225.7,98c-0.9-0.5-1.9-0.9-2.5-1.7c-0.2-0.2-0.5-0.5-0.5-0.6c0.1-0.4,0.2-0.9,0.9-0.9
			c0.2,0,0.4-0.2,0.6-0.3c-0.2-0.2-0.4-0.5-0.6-0.7c-0.2,1.2-0.3-0.8-0.6,0c-0.1,0.3-0.6,0.4-0.9,0.7c-0.2,0.1-0.3,0.3-0.5,0.5
			c0.8,0.5,0.4,1.1,0.3,1.7c0,0,0.2,0.2,0.3,0.2c0.4,0.2,0.7,0.3,1.1,0.4c0.4,0.1,0.7,0.3,0.4,0.8c-0.1,0.2,0,0.4,0,0.6
			C224,97.5,225,98.7,225.7,98z M94.3,36.3c-0.1-0.5-0.2-1-0.1-1.2c0.4-0.6,0.2-0.9-0.1-1.4c-0.2-0.4-0.2-0.8-0.4-1.2
			c-0.1-0.3-0.5-0.4-0.7-0.6c-0.1,0.4-1.2,0.3-0.6,1.1c0.3,0.4,0.5,0.7,0.8,1.1c-0.2,0.1-0.5,0.2-0.6,0.4c-0.1,0.1-0.2,0.5-0.1,0.5
			C93,35.4,93.7,35.9,94.3,36.3z M170.3,144.2c0.6-0.3,0.6-0.3,0.9-1.2c0.1-0.2,0.5-0.3,0.8-0.3c0.6,0,1-0.1,0.7-0.9
			c-0.1-0.3-0.2-0.7-0.2-1c0,1.2,0,1.2-1.4,1.3c-0.8,0-1.6,0-2.4,0.2c-0.3,0.1-0.7,0.6-0.8,1c0,0.2,0.6,0.7,0.9,0.7
			c0.4,0,0.7-0.3,0.2-0.8c0,0,0.2-0.4,0.3-0.4c0.3,0,0.8,0,0.8,0.1C170.3,143.3,170.2,143.8,170.3,144.2z M137.2,55.6
			c-1.1-0.1-1.5-0.6-1.4-1.5c0-0.1,0-0.3-0.1-0.3c-0.1-0.1-0.2-0.2-0.3-0.4c0.2-0.1,0.4-0.3,0.6-0.3c0.2,0,0.3,0.2,0.5,0.3
			c0.1,0,0.3,0,0.5,0c-0.1-0.2-0.2-0.5-0.3-0.5c-0.4-0.1-0.8-0.1-1.2-0.1c-0.7-0.1-1.3-0.3-2-0.5c0.1,0.5,1.1,0.5,0.6,1.3
			c-0.1,0.1,0.5,0.7,0.8,1.1c0,0.1-0.3,0.3-0.5,0.5c-0.1,0.1-0.3,0-0.4,0c0.1,0.3,0.2,0.5,0.2,0.8c0.2-0.1,0.5-0.1,0.5-0.2
			c0.1-0.4,0.2-0.5,0.5-0.2C136.1,56.1,136.1,56.1,137.2,55.6z M113.7,85c-0.4,1.5-0.4,1.5,1,1.4c0.1,0,0.2,0,0.3,0.1
			c0.6,0.4,0.9,0.4,1.5,0.1c0.2-0.1,0.4-0.2,0.5-0.3c0.1,0,0.2-0.1,0.4-0.1c-0.1-0.1-0.2-0.4-0.3-0.4c-0.6-0.1-1.3-0.3-1.9-0.2
			c-0.7,0.1-1.2,0.3-0.9-0.7c0-0.1-0.3-0.3-0.5-0.5c-0.4,0.6-0.8,0.2-1.3,0.2c-0.2,0-0.4,0.3-0.6,0.5c0.3,0.1,0.5,0.4,0.8,0.4
			C113,85.5,113.3,85.2,113.7,85z M149.6,13.2c0.5,0.7,0.8,1.1,1.1,1.5c0,0.1-0.1,0.3-0.2,0.4c-0.1-0.1-0.2-0.2-0.2-0.3
			c-0.1-0.1-0.2-0.2-0.3-0.3c0,0.1,0,0.3,0,0.4c-0.6,0.5,0.3,1.1-0.2,1.6c-0.1,0.1,0.1,0.5,0.2,0.7c0.3-0.1,0.6-0.2,0.7-0.3
			c0.2-0.3,0.4-0.6,0.5-1c0.1-0.2,0.1-0.5,0.3-0.6c0.3-0.2,0.6-0.2,1-0.3c-0.3-0.2-0.6-0.4-0.9-0.7c-0.1-0.1,0.1-0.3,0.1-0.4
			c0-0.1,0-0.3,0-0.3C151,13.4,150.4,13.3,149.6,13.2z M99,119.5c-0.1,0.3-0.2,1.1-0.4,1.1c-1.3,0.4-0.5,1.1-0.5,1.6
			c0.5-0.2,1-0.4,1.4-0.7c0.2-0.1,0.4-0.5,0.4-0.6c-0.1-0.4-0.1-0.6,0-0.6c0.9,0.1,1.2-0.8,1.9-1.1c-0.6-0.2-1.3-0.8-1.9,0.1
			C99.9,119.6,99.3,119.5,99,119.5z M108.7,89.4c0.4-0.6,0.8-1.1,1-1.6c0.1-0.2-0.3-0.5-0.5-0.7c0,0-0.4,0.1-0.5,0.2
			c-0.4,0.5,0,0.5,0.3,0.6c0,0.2,0,0.4-0.1,0.5c-0.2,0.1-0.4,0.2-0.7,0.3c-0.5,0-0.7,0.3-0.5,0.6c0.7,1.2-0.1,2.1-0.4,3.1
			c0.2,0.1,0.4,0.1,0.6,0.2c0.3,0.1,0.6,0.6,0.9,0.1c0.1-0.1-0.3-0.5-0.6-0.7c-0.4-0.3-0.4-0.2,0-0.7c0.5-0.5,1-1,1.5-1.5
			C109.4,89.7,109,89.5,108.7,89.4z M170.7,145.3c0,0,0,0.1,0,0.2c0.2,0.4,0.2,0.4-0.2,0.7c-0.2,0.2-0.3,0.5-0.3,0.8
			c0,0.1,0.3,0.2,0.5,0.3c0.2,0.1,0.5,0.3,0.7,0.3c0.2,0.1,0.6,0.1,0.6,0.1c0.2-0.3,0.3-0.6,0.3-0.9c-0.2-0.8-0.2-0.7,0.6-0.9
			c0.3-0.1,0.5-0.4,0.7-0.6c-0.3-0.2-0.7-0.5-1-0.5C172,144.8,171.4,145.1,170.7,145.3z M195.2,100.7c-0.5,0.2-0.8,0.3-1.2,0.4
			c0.2,0.2,0.5,0.5,0.7,0.7c0.1,0.2,0.1,0.4,0.1,0.6c0,0.2,0.1,0.6,0.2,0.6c0.4,0.1,0.8,0.1,1.1,0.1c0-0.2-0.1-0.4-0.1-0.6
			c0-0.2,0.2-0.4,0.3-0.5c0.2-0.1,0.6-0.1,0.8-0.3c0.1-0.1,0.2-0.5,0.1-0.7c-0.1-0.2-0.4-0.5-0.5-0.5
			C196.2,100.9,195.7,101.5,195.2,100.7z M211,83.8c-0.1-0.6-0.1-1.1-0.3-1.5c-0.3-0.7,0-0.8,0.6-0.7c0.5,0.1,0.8,0.2,0.9-0.6
			c0-0.3,0.3-0.7,0.2-1.1c-0.1-0.3,0-0.6-0.1-0.8c-0.2,0.2-0.6,0.4-0.7,0.7c-0.2,0.8-0.5,1.3-1.4,1.3c-0.1,0-0.3,0.3-0.4,0.5
			C209.2,82.5,209.4,82.8,211,83.8z M116.5,108.2c-0.1,0-0.2-0.1-0.2-0.1c0-0.1,0.1-0.3,0.1-0.3c-0.1-0.2-0.3-0.4-0.5-0.5
			c-0.2-0.1-0.4,0-0.6,0c0.1,0.2,0.2,0.4,0.2,0.6c0,0.2,0.1,0.5,0,0.6c-0.1,0.1-0.5,0.2-0.6,0.1c-0.5-0.6-1-0.3-1.5-0.1
			c-0.3,0.1-0.7,0.3-1,0.4c0.4,0.1,0.8,0.3,1.1,0.4c0.1,0,0.2,0,0.3,0c0.6-0.1,1.1-0.2,1.4,0.5c0,0.1,0.5,0.1,0.6,0.1
			C115.9,109.3,116.2,108.8,116.5,108.2z M218.1,181.5c0.3,0.3,0.5,0.5,0.6,0.7c0.1,0.3,0.1,0.7,0.5,0.5c0.2-0.1,0.3-0.3,0.4-0.5
			c0.1-0.1,0.3-0.3,0.4-0.4c0.2,0.2,0.3,0.4,0.4,0.6c0.1,0.2,0.2,0.5,0.3,0.7c0.2-0.3,0.5-0.6,0.5-0.9c0-0.3-0.3-0.7-0.5-0.9
			c-0.8-0.6-0.8-0.9-0.2-1.8c0.1-0.2,0-0.6,0-0.9c0,0-0.5-0.1-0.5,0c-0.2,0.5-0.5,1.1-0.4,1.7C219.5,181.1,219.1,181.6,218.1,181.5z
			 M87.5,125.1c0.3,0.4,0.9,0.8,0.8,1c-0.1,0.5,0,0.5,0.4,0.6c0.7,0.2,0.8,0.6,0.3,1.1c-0.1,0.1-0.4,0.2-0.5,0.3
			c-0.1,0.1-0.2,0.3-0.1,0.3c0.1,0.1,0.3,0.2,0.4,0.2c0.7-0.1,1-0.6,1-1.2c0-1,0-1.9,0-2.9c0-0.1-0.1-0.2-0.1-0.3
			c-0.2,0.1-0.5,0.1-0.5,0.2c-0.1,0.4-0.1,0.1-0.4,0.1C88.4,124.6,87.9,124.9,87.5,125.1z M99.6,74c-0.3,0.1-0.5,0.2-0.7,0.3
			c-0.2,0.1-0.3,0.4-0.3,0.6c0,0.1,0.2,0.4,0.2,0.4c0.5-0.1,1-0.3,1.4-0.5c0.1-0.1,0-0.6-0.1-0.8c-0.1-0.4-0.9-0.8,0.1-1.2
			c0,0,0-0.3-0.1-0.4c0-0.1-0.2-0.2-0.3-0.1c-0.9,0.3-1.3-0.5-2-0.7c-0.1,0-0.2-0.2-0.3-0.2c-0.1,0.1-0.2,0.3-0.1,0.4
			c0.1,0.2,0.3,0.3,0.4,0.5c0.2,0.3,1,0.6-0.1,0.8c-0.1,0-0.1,0.3-0.1,0.5c0,0,0.3,0.1,0.4,0.1C98.9,72.7,99.1,73.5,99.6,74z
			 M88,42.1c0.1,0,0.2,0,0.2-0.1c0-0.1-0.1-0.2-0.1-0.2c-0.1,0-0.2,0-0.2,0.1C87.9,41.9,88,42,88,42.1z M182.9,59.3
			c0-0.1-0.1-0.1-0.1-0.2c0,0-0.1,0.1-0.1,0.1c0,0.1,0,0.1,0,0.2C182.8,59.3,182.8,59.3,182.9,59.3z M105.1,17.9
			c0,0.1,0,0.2-0.1,0.2c0.1,0,0.1,0,0.2,0c0,0,0-0.1,0-0.1C105.2,18,105.1,18,105.1,17.9z M92.6,123.9
			C92.6,123.9,92.5,124,92.6,123.9c-0.1,0.1,0,0.1,0,0.2C92.6,124.1,92.7,124,92.6,123.9C92.7,124,92.6,124,92.6,123.9z
			 M163.6,157.1C163.6,157,163.7,157,163.6,157.1c0.1-0.1,0-0.2,0-0.2C163.6,156.9,163.5,156.9,163.6,157.1
			C163.5,157,163.6,157,163.6,157.1z M190,105.9C190,105.8,190,105.8,190,105.9c-0.1-0.1-0.1,0-0.2,0
			C189.9,105.9,189.9,105.9,190,105.9C190,105.9,190,105.9,190,105.9z M114.4,163.1C114.4,163.1,114.3,163.1,114.4,163.1
			c-0.1-0.1-0.1,0-0.2,0C114.2,163.1,114.3,163.2,114.4,163.1C114.3,163.2,114.4,163.1,114.4,163.1z"/>
		<path class="st4" d="M190.3,9.6c0,0.2,0.1,0.3,0.2,0.5c0,0.1,0.1,0.2,0.2,0.2c0.1,0,0.3,0,0.3-0.1c0.4-0.6,0.4-0.5,0.8-0.8
			c0.4-0.2,0.7-0.6,1.1-1c1.2,1.2,2.6,2.5,3.9,4c0.3,0.3,0.2,0.9,0.4,1.5c0.5,0,1.5-0.1,1.6,1.1c0,0.2,0.6,0.3,0.8,0.5
			c0.5,0.4,0.9,0.9,1.4,1.3c0.1,0.1,0.3,0.1,0.4,0.2c0.7,0.7,1.5,1.2,1.7,2.3c0.1,0.4,0.6,0.8,0.7,1.3c0.3,1.1-0.6,1.5-1.5,1.9
			c1.4,0.8,2.1,0.2,2.4-2.1c0.5,0.5,1,0.9,1.4,1.3c0.5,0.5,0.5,0.5-0.2,0.8c-0.1,0-0.2,0.1-0.2,0.1c0.1,0.1,0.2,0.3,0.3,0.4
			c0.7,0.3,1.5,0.6,2.2,0.9c0.1,0,0.2,0.3,0.2,0.3c-0.7,0.6,0,0.6,0.3,0.9c0.6,0.5,1.8,0.5,1.6,1.8c0,0,0.3,0.1,0.4,0.1
			c0.3,0.1,0.6,0.2,1,0.3c-0.4,0.2-0.6,0.4-0.9,0.5c0.4,0.2,0.8,0.6,1.2,0.6c0.5,0,1.1-0.3,1,0.6c0,0.1,0.7,0.3,1,0.5
			c2.2,2.1,4.4,4.3,6.6,6.5c0.6,0.6,1.3,1.2,1.9,1.8c0.3,0.3,0.5,0.5,0.8,0.9c-1.5,0.4-2.2-0.1-1.9-1.7c-0.3,0.3-0.7,0.5-0.7,0.7
			c0,0.9-1.1,0.5-1.3,1.1c-0.2-0.5-1.1,0.2-1.2-0.6c0,0-0.6-0.2-0.7-0.1c-0.7,0.7-1.7,0.3-2.5,0.7c0,0-0.1,0-0.1,0
			c-0.6-1-1.4-0.2-2-0.2c-0.4,0-0.5-0.2-0.6-0.5c0-0.1-0.3-0.2-0.4-0.2c0,0-0.1,0.2-0.1,0.3c-0.1,0.6-0.5,1-1,0.8
			c-1.7-0.7-3.4-0.2-5.1-0.4c-1-0.1-1,0.8-1.5,1.3c-0.7-0.5,0.6-1.7-0.7-1.9c-0.1,0.2-0.1,0.4-0.2,0.6c-0.1,0.7-0.5,0.5-0.9,0.3
			c-0.3-0.1-0.7,0-1-0.1c-1.6-0.4-3.4,0.6-5-0.4c-0.1,0-0.3,0.1-0.4,0.1c-0.3,0.1-0.5,0.1-0.8,0.1c-0.2,0-0.6-0.1-0.7,0
			c-0.3,0.4-1-0.1-1.2,0.6c0,0-0.2,0-0.2,0c-0.4-1.5-1.7-0.2-2.4-0.9c0.1-0.5,0.4-0.8,1-0.8c0.3,0,0.6,0,0.4-0.5
			c-0.2-0.6-0.4-0.1-0.6,0c-0.5,0.2-1.1,0.4-1.8,0.6c0-0.9,0-2,0-3.1c0-0.6,0-1.1,0-1.7c0-0.2,0.3-0.5,0.6-0.5
			c0.6-0.2,0.7-0.5,0.3-1c-0.5-0.6-1-1.3-1-2.2c0-0.3-0.1-0.6-0.2-0.9c-0.3-0.7,0-1.2,0.6-1.5c0.7-0.4,0.6-0.9,0.4-1.6
			c-0.2,0.4-0.3,0.8-0.4,1.1c-0.1,0-0.2,0-0.3,0c-0.1-0.8-0.2-1.6-0.2-2.4c0-0.2,0.1-0.5,0.3-0.7c0.6-0.6,0.4-0.5,0.1-1.3
			c-0.2-0.7-1-1.3-0.4-2.2c0-0.1,0-0.2,0-0.3c-0.2-2.1,0.4-4.1,0.3-6.1c0-0.8,0.2-1.6-0.1-2.3c-0.3-1,0.4-1.1,0.8-1.6
			C190.2,9.6,190.3,9.6,190.3,9.6z"/>
		<path class="st4" d="M190.3,9.6c-0.1,0-0.2,0-0.3,0c-0.9-1.5-0.9-1.5-0.7-3.9c0.1,0.1,0.3,0.2,0.3,0.4c0.1,0.3,0.1,0.6,0.2,0.9
			c0.5-0.2,1.4-1.3,1.2,0.4c0,0.1,0.3,0.1,0.5,0.2c0.3,0.1,0.5,0.3,0.8,0.5C191.2,8,190.6,8.6,190.3,9.6z"/>
		<path class="st4" d="M143.5,113.5c0-0.1,0.1-0.2,0.1-0.2c-0.7-0.2-1.2-1-2.2-0.5c-0.4-1.2,0.5-2,0.8-2.9c0.7-1.7,1.7-3.3,2.6-5
			c0.2-0.3,0.5-0.5,0.7-0.8c0.3-0.4,0.5-0.6,0.5-1.3c-0.2-1.4,1.3-2.9,2.6-2.4c0.8,0.3,0.6-0.4,0.9-0.7c-0.2-0.1-0.5-0.2-0.7-0.3
			c-0.3-0.2-0.7-0.3-1-0.4c0.2-0.3,0.4-0.7,0.6-1c0.2-0.5,0.4-0.2,0.7,0c0.1,0.1,0.4,0,0.6,0c0-0.2-0.1-0.4-0.1-0.7
			c0-0.2,0-0.3,0-0.5c0.4,0.2,0.9,0.3,1.2,0.6c0.4,0.5,0.7,0.3,1.1,0.1c0.1-0.1,0.3-0.2,0.5-0.3c0,0.2,0,0.4,0,0.5
			c0,0-0.1,0.1-0.1,0.1c-0.1,0.3-0.1,0.6-0.1,0.9c0.4-0.2,1-0.4,1-0.5c-0.1-0.6,0.1-0.5,0.4-0.2c0.4,0.5,0.8,1,1.1,1.6
			c0,0.1-0.2,0.2-0.2,0.4c0,0.3,0.1,0.7,0.2,1c0,0.1,0.4,0.1,0.4,0.1c0.5-0.5,0.6,0,0.7,0.2c0.2,0.2,0.3,0.5,0.5,0.7
			c0.3,0.3,0.5,0.7,0.8,1c0.2,0.3,0.5,0.7,0.7,1c0.2,0.3,1.2,0.2,0.3,0.9c0.3,0.3,0.6,0.7,1,0.8c0.7,0.2,1.3,0.2,1.1,1.1
			c0,0.1,0,0.1,0.1,0.2c1.8,0.7,2.6,2.5,4.1,3.6c0.6,0.4,0.3,1.3-0.4,1.6c-1.1,0.4-2.1,0.7-3.2,1c-0.3,0.1-0.7,0-1-0.1
			c-0.2,0-0.6-0.1-0.7,0c-1.3,1.1-3,1.1-4.5,1.8c-1,0.5-1.4,0.1-1.2-1c0-0.2,0-0.4,0-0.6c-0.2,0.1-0.6,0.2-0.7,0.4
			c-0.1,0.5,0,1.1,0,1.9c-0.7,0.1-1.6,0.3-2.6,0.5c-0.7,0.1-1.6-0.4-2,0.7c-0.1,0.2-0.8,0-1.1,0.2c-0.8,0.5-1.8,0.1-2.6,0.6
			c-0.8,0.5-1.8,0.5-2.7,0.7c-0.4,0.1-0.8,0-1,0.5c-0.3-0.1-0.7-0.1-0.9-0.3c-0.3-0.2-0.4-0.6-0.5-1c0.5,0,1.1,0.2,1.5,0.1
			c0.4-0.1,0.8-0.6,1.1-0.9c-0.5-0.3-0.9-0.5-1.4-0.7c-0.1,0.2-0.2,0.7-0.5,0.8c-0.3,0.2-0.8,0-1.4,0c0.5-0.9,0.6-1.7,1.6-1.9
			c0.1,0,0.3-0.2,0.3-0.2C142.2,115.5,142.6,113.9,143.5,113.5c0.5,0.2,0.9,0.3,1.4,0.5c0.1,0.1,0.2,0.3,0.2,0.4
			c0.2-0.2,0.5-0.4,0.5-0.5c-0.3-0.9,0.4-0.8,0.9-0.8c0.9,0,0.9,0,0.7-0.9c0-0.1,0.1-0.2,0.1-0.3c0.1-0.3,0-1.3-0.3-2
			c-0.2,0.8,0,1.7-1,1.6c-0.1,0-0.2,0.2-0.2,0.3c0,0.7-0.4,0.8-0.9,1C144.4,112.9,144,113.2,143.5,113.5z"/>
		<path class="st4" d="M149.2,63.2c0.2,0.2,0.4,0.4,0.6,0.6c0.2,0.1,0.6,0.4,0.6-0.3c-0.1-1-0.2-1.3-1-2c-0.3-0.2-0.4-0.7-0.4-1
			c0-0.3,0.4-0.8,0.8-0.2c0.1-0.1,0.3-0.2,0.3-0.3c0-0.1-0.1-0.4-0.2-0.4c-0.9,0.1-1-0.6-1.2-1.1c0.3,0,0.6,0,0.8-0.1
			c0.4-0.1,0.7-0.3,1,0.2c0.4,0.9,1-0.3,1.5,0.1c0.1-0.2,0.3-0.3,0.3-0.5c0.1-0.7-0.1-0.7-0.8-0.5c-0.3,0.1-0.6,0.1-0.9,0
			c-0.3,0-0.5-0.2-0.7-0.3c-0.3-0.1-0.8-0.2-0.9-0.4c-0.1-0.4,0-0.8,0-1.3c0-0.2,0.4-0.5,0.4-0.5c-0.6-0.7-0.7-1.3,0.3-1.7
			c0,0-0.1-0.3-0.1-0.5c-0.3-0.9-0.2-1.6,0.3-1.8c0.8-0.3,2,0,2.2,0.7c0.4,1.5,0.7,3.1,1.1,4.6c0.4,1.2-0.2,2.5,0.6,3.6
			c0.1,0.1,0,0.4,0,0.5c-0.2-0.1-0.4-0.1-0.5-0.2c-0.3-0.1-1.6,0.6-1.7,1c0,0.1,0.1,0.4,0.2,0.4c0.2,0,0.5,0,0.7-0.1
			c0.2-0.1,0.3-0.4,0.4-0.6c0.4,0.5,0.9,0.9,1,1.5c0.1,0.5-0.1,1.1-0.2,1.6c0,0.1-0.2,0.2-0.2,0.2c-1-0.8-1.4,0.3-1.9,1
			c0.7-0.1,1.4-0.2,2.1-0.2c-0.3,1.5-0.7,3-1,4.5c-0.2-0.1-0.4-0.4-0.6-0.4c-0.3-0.1-0.6,0-0.8,0c0.2,0.3,0.3,0.6,0.5,0.8
			c0.3,0.2,0.9,0.1,0.5,0.6c-0.2,0.3-0.6,0.5-1,0.8c-0.2-0.3-0.3-0.3-0.4,0c0,0-0.4,0-0.5-0.1c-0.1-0.1-0.2-0.4-0.1-0.6
			c0.1-0.2,0.4-0.2,0.6-0.4c-0.2-0.1-0.5-0.1-0.6-0.3c-0.1-0.1-0.2-0.3-0.2-0.4c1.1-0.3-0.7-1.2,0.3-1.5c0.1,0,0.3-0.2,0.3-0.2
			c-0.3-0.5-0.7-0.9-0.9-1.4c-0.1-0.2,0.2-0.6,0.5-0.9c0.1-0.1,0.4,0,0.6,0c-0.2-0.2-0.3-0.6-0.6-0.7
			C149.2,64.6,149.1,64,149.2,63.2z"/>
		<path class="st4" d="M199.5,116.1c0.1-1.2,0.1-1.3,1.3-1c0.6,0.1,1.2,0.3,1.9,0.5c0.1,0,0.2,0.1,0.2,0.2c-0.2,1.2,0.9,0.9,1.4,1.1
			c0.6,0.2,1.1,0.4,1.1,1c-0.1,0.6-0.1,1.5-1.1,1.6c-0.7,0.1-1.4,0.2-2.1,0.3c-2.3,0.1-4.5-0.1-6.7-1c0,0-0.1,0-0.1,0
			c-0.5-0.2-0.6-1-1.5-0.6c-0.5,0.2-1.2-0.3-1.8-0.5c0.1-0.3,0.3-0.5,0.4-0.8c-0.5,0.1-1.1-0.5-1.4,0.3c0,0-0.6-0.1-0.6-0.2
			c0-0.5-0.1-1.2,0.1-1.5c0.5-0.4,0-0.5-0.1-0.8c-0.2,0.1-0.4,0.1-0.6,0.2c-0.2,0.1-0.3,0.2-0.5,0.4c0-0.2-0.1-0.4-0.1-0.5
			c0.1-0.2,0.3-0.3,0.5-0.3c1.3,0,2.6-0.1,3.8,0c0.6,0,1.1,0.3,1.8,0c0.5-0.2,1.2-0.1,1.8,0c0.4,0,1.1-0.2,0.6,0.7
			c0,0,0.3,0.3,0.5,0.3c0.1,0,0.3-0.2,0.3-0.3c0-0.1-0.1-0.3-0.1-0.4c0.2,0.1,0.4,0.2,0.4,0.3C199.2,115.3,199.4,115.7,199.5,116.1z
			"/>
		<path class="st4" d="M119.5,132.8c0.3,0.4,0.4,0.7,0.6,1c0.1,0,0.2-0.1,0.2-0.1c0.2-0.3,0.3-0.6,0.6-0.8c0.2-0.2,0.6-0.3,0.9-0.4
			c0,0.3,0,0.6-0.2,0.8c-1.3,2-2.6,4-4.3,5.6c-0.7,0.7-1,1.6-1.6,2.4c-0.3,0.3-0.8,0.5-1.1,0.8c-0.2,0.2-0.2,0.6-0.5,0.8
			c-1.1,1-2.2,2-3.3,2.9c-0.1,0.1-0.2,0.2-0.3,0.2c-0.4,0-1.1,0-1.1-0.1c-0.2-0.6,0.2-0.8,0.8-0.8c0.2,0,0.6-0.3,0.6-0.5
			c0.2-0.7-0.5-0.1-0.6-0.3c-0.1-0.2-0.1-0.5,0-0.7c1-1.4,2.1-2.7,3.2-4.1c0.8-1,1.8-1.7,3-2.2c0.1,0,0.1-0.5,0.1-0.5
			c-0.6-0.5-0.2-0.7,0.1-1.1C117.5,134.8,118.4,133.8,119.5,132.8z"/>
	</g>
</g>
</svg>
