<?xml version="1.0" encoding="utf-8"?>
<!-- Generator: Adobe Illustrator 20.1.0, SVG Export Plug-In . SVG Version: 6.00 Build 0)  -->
<svg version="1.1" id="Layer_1" xmlns="http://www.w3.org/2000/svg" xmlns:xlink="http://www.w3.org/1999/xlink" x="0px" y="0px"
	 viewBox="0 0 622 180" style="enable-background:new 0 0 622 180;" xml:space="preserve">
<style type="text/css">
	.st0{fill:#FFFFFF;}
	.st1{fill:#F37046;}
	.st2{fill:#434343;}
</style>
<g>
	<circle class="st0" cx="91.2" cy="92.1" r="77.1"/>
	<g>
		<path class="st1" d="M88.6,152.9c0.2,0,0.4,0,0.5,0c0-0.1,0-0.1,0-0.2c-0.2-0.1-0.4-0.1-0.6-0.2c0.3-0.6-0.5-1.6,0.7-1.9
			c-0.2,0-0.4-0.1-0.7-0.1c0-1,0-2,0-3c0-1.9,0-3.9,0-5.8c0-0.3,0.2-0.6,0.3-0.9c-0.1-0.4-0.3-0.8-0.3-1.2c0-4,0-8.1,0-12.1
			c0-0.9-0.3-1.9,0.4-2.8c-0.1,0.1-0.2,0.1-0.3,0.1c0-6.1,0-12.1,0-18.2c0.2,0.1,0.4,0.2,0.6,0.3c0-0.1,0.1-0.1,0.1-0.2
			c-0.1-0.1-0.3-0.2-0.4-0.4c0.2-0.1,0.3-0.3,0.4-0.4c0,0,0-0.1,0-0.1c-0.3,0.1-0.5,0.1-0.7,0.2c0-2.4,0-4.7,0-7.1
			c0-1-0.1-2.1-0.1-3.1c0-2.2,0-4.5,0-6.7c0-1,0-2.1,0-3.1c0-1.1,0-2.1,0-3.2c0-0.3,0.2-0.7,0.3-1.1c-0.8-0.7-0.3-3.1,0.9-3.6
			c0-0.1,0-0.1-0.1-0.2c-0.3,0.1-0.6,0.2-1,0.4c0-0.6-0.1-1.1-0.1-1.7c0.4,0.2,0.7,0.3,1,0.5c0,0,0.1-0.1,0.1-0.1
			c-0.1-0.1-0.3-0.2-0.3-0.4c-0.1-0.1-0.1-0.3-0.1-0.4c-0.2,0.1-0.4,0.1-0.8,0.3c0.2-0.4,0.3-0.6,0.4-0.8c0-0.1,0.2-0.1,0.3-0.2
			c-0.2,0-0.4,0-0.6-0.1c0-1.7,0-3.3,0-5c0-1.6-0.1-3.3,0-4.9c0.1-1.6-0.2-3.3,0-5c0.1,0,0.3,0.1,0.5,0.2c-1.3-1.1,0.3-1.9-0.1-2.9
			c-0.1,0.2-0.3,0.4-0.4,0.7c0-0.2-0.1-0.4-0.1-0.6c0-2.5,0-5,0-7.5c0-0.5,0-1,0-1.4c0-0.1,0.1-0.2,0.1-0.3c0.1-0.3,0.3-0.5,0.4-0.8
			c-0.1,0-0.2-0.1-0.2-0.1c-0.1,0.2-0.1,0.3-0.2,0.5c-0.3-0.2-0.1-4.6,0.2-4.8c-0.1-0.1-0.4-0.3-0.3-0.4c0.4-0.7-0.3-1.4,0-2.1
			c0.1-0.2,0.2-0.4,0.2-0.5c-0.1-0.3-0.2-0.6-0.2-0.9c0-4.8,0-9.6,0-14.4c0-1.6,0-3.2,0-4.9c1.1,0,2.1,0,3.2,0
			c0.8,0,1.7-0.1,2.4,0.4c0.9-0.6,1.9-0.1,2.8,0c1.2,0.1,2.4,0.4,3.6,0.6c1.2,0.2,2.3,0.3,3.5,0.6c1.2,0.3,2.5,0.6,3.7,0.9
			c0.2,0,0.3,0.3,0.4,0.4c0.2-0.1,0.5-0.2,0.6-0.1c0.5,0.4,1.1,0.2,1.6,0.4c0.5,0.3,1.2,0.3,1.6,0.6c0.9,0.6,2,0.5,2.9,1
			c1,0.5,2.1,1,3.1,1.4c1,0.5,2.1,0.9,3.1,1.4c0,0.3-0.1,0.5-0.1,0.7c0.2-0.1,0.3-0.1,0.5-0.1c0.2,0,0.4-0.1,0.5,0
			c0.9,0.5,1.8,1.1,2.7,1.7c1.4,0.8,2.7,1.6,4.1,2.5c1,0.7,1.9,1.5,2.9,2.3c0.2,0.1,0.5,0.2,0.6,0.3c0.3,0.3,0.6,0.9,0.8,0.9
			c0.6,0,0.7,0.4,1,0.6c2,1.9,4,3.8,6,5.7c1.2,1.2,2.2,2.4,3.3,3.7c1.1,1.3,2.1,2.6,3,3.8c-0.2,0.2-0.4,0.3-0.5,0.4
			c0,0.1,0.1,0.1,0.1,0.2c0.2,0,0.4,0,0.7,0c0.8,1.3,1.9,2.5,2.4,4.2c0,0,0.2,0.1,0.3,0.2c0.9,1.8,2.3,3.4,2.8,5.5
			c0.6,0.2,0.8,1,0.4,1.4c1.2,0.8,1.4,2.2,1.8,3.5c0.3,1,0.8,2,1.2,3c0.2,0.4,0.3,0.9,0.5,1.5c-0.3-0.3-0.4-0.4-0.5-0.6
			c-0.1,0.5-0.1,0.9,0.6,0.7c1.6,5.2,2.5,10.5,2.9,16c-0.2-0.1-0.3-0.1-0.4-0.2c-0.1,0.2-0.1,0.4-0.2,0.6c0.2,0.1,0.4,0.2,0.6,0.2
			c-0.1,0.1-0.3,0.2-0.5,0.3c1.1,0.4,0.6,1.3,0.7,2c0.1,1.6,0.1,3.2,0,4.8c-0.2,2.4-0.5,4.8-0.7,7.2c0,0.5-0.1,0.9-0.2,1.3
			c-0.2,0-0.4,0-0.7,0.1c0.8,0.6,0.6,2.1-0.1,2.5c0.4,0.8,0,2.4-0.4,2.6c-0.1,0.7-0.1,1.4-0.3,1.9c-0.2,0.9-0.5,1.9-0.9,2.8
			c-0.1,0.3-0.6,0.5-0.8,0.8c-0.1,0.1-0.1,0.2,0,0.4c0.1-0.1,0.2-0.2,0.3-0.4c0.1,0,0.2,0.1,0.2,0.1c-0.8,2.6-1.8,5.1-3,7.5
			c-0.2-0.1-0.5-0.1-0.7-0.2c0,0-0.1,0.1-0.1,0.1c0.2,0.1,0.4,0.3,0.6,0.5c-1,2.4-1.5,3.3-1.9,3.1c-0.1,0.3-0.1,0.7-0.2,1
			c-0.7,1.2-1.4,2.3-2.1,3.5c-0.1,0.1-0.3,0.1-0.4,0.2c-0.1,0-0.3,0.1-0.3,0.1c-0.4,2.3-2.2,3.7-3.4,5.5c-0.2,0.3-0.5,0.4-0.9,0.7
			c0.1,0.8-0.7,1.2-1.3,2c0-0.3-0.1-0.4-0.1-0.6c-0.1,0.1-0.3,0.1-0.5,0.2c0.1,0.2,0.3,0.4,0.5,0.6c-3.4,4-7.4,7.5-11.8,10.6
			c0.1-0.3,0.2-0.5,0.3-0.9c-0.7,0.5-0.9,0.8-0.7,1.2c-0.3,0.3-0.6,0.6-0.9,0.8c-0.2,0.1-0.5,0.1-0.8,0.1c0.3,0.8-0.6,0.7-1,1
			c-0.7,0.6-1.6,1.1-2.4,1.5c-1.9,1-3.8,1.8-5.7,2.9c-2.8,1.6-5.8,2.5-8.7,3.5c-1.5,0.5-3,0.9-4.6,1.3c-0.2,0.1-0.6-0.1-0.9-0.2
			c0,0,0,0.2,0,0.3c-2.4,0.9-9,1.7-9.3,1.2c-1,0.7-2.1,0.6-3.3,0.5c-0.3,0-0.6,0-0.9,0.1c-0.7,0.1-1.5,0.1-2.2,0.2
			c-0.1-0.1-0.1-0.1-0.2-0.2c0.2-0.3,0.3-0.6,0.5-0.9c0.1-0.2,0.1-0.3,0.2-0.5c-0.2,0-0.3,0-0.5,0c0-0.1,0-0.3,0-0.5
			c0.2,0,0.4,0,0.6,0.1c-0.1-0.2-0.1-0.3-0.2-0.4c-0.1-0.2-0.4-0.3-0.4-0.4c0.2-0.8,0-1.5,0-2.3C88.6,154.8,88.6,153.9,88.6,152.9z
			 M111.4,83.5c-0.2-0.5-0.4-1.2-1-1.3c0.1,0.4,0.3,0.8,0.4,1.2C110.8,83.8,111,83.8,111.4,83.5c0.3,0.1,0.6,0.2,0.9,0.2
			c0.1,0,0.2-0.3,0.3-0.4c-0.3,0-0.6,0.1-0.8,0C111.5,83,111.5,83.3,111.4,83.5z M130.2,109.9c-0.2,0-0.4,0-0.5,0.1
			c-0.1,0.3-0.1,0.6-0.1,0.8c0.4,0,0.8,0,1.3,0C130.6,110.3,130.4,110.1,130.2,109.9c0.3,0,0.6,0,0.7,0c-0.1-0.5-0.2-0.9-0.3-1.3
			c-0.1,0-0.1,0-0.2,0C130.4,109,130.3,109.4,130.2,109.9z M104.3,155c-0.2-0.2-0.4-0.4-0.6-0.6c-0.2-0.1-0.4,0-0.6,0.1
			c-0.1,0-0.1,0.2-0.1,0.3c0.2,0.5,0.5,1,0.8,1.6c0.2-0.4,0.4-0.7,0.6-0.9c-0.3-0.1-0.5-0.2-0.8-0.3
			C103.8,155.2,104,155.1,104.3,155z M137.6,136.5c-0.1,0-0.2,0-0.3,0c0,0.6-0.1,1.1-0.1,1.4c0.3,0.3,0.5,0.6,0.8,0.7
			c0.3,0.2,0.7,0.2,1.1,0.4c0-0.1,0-0.1,0-0.2c-0.5-0.3-0.9-0.6-1.5-1C137.6,137.5,137.6,137,137.6,136.5z M106.3,149.6
			c-0.6,0.6-1.2,0.8-1.1,1.7c0.2,0.1,0.4,0.1,0.7,0.3c-0.7-1.2,0.4-0.8,0.7-1.1C106.5,150.2,106.4,150,106.3,149.6z M135.9,125.7
			c0.1,0.2,0.2,0.4,0.1,0.6c-0.1,0.1-0.3,0.2-0.5,0.3c-0.2,0.1-0.5,0.3-0.5,0.5c0,0.2,0.2,0.4,0.4,0.6c0.1-0.3,0.2-0.6,0.3-0.6
			c0.2-0.1,0.4,0,0.6,0.1C136.4,125.8,136.4,125.8,135.9,125.7z M150.4,64.4c0.1-0.3,0.3-0.6,0.3-0.6c0.6,0.2,0.3-0.5,0.6-0.6
			c0,0,0-0.2,0-0.4c-0.1,0-0.2,0-0.3,0.1c-0.8,0.1-1.1,0.4-0.6,1.2C150.4,64.2,150.4,64.3,150.4,64.4z M115.3,125.8c0,0-0.2,0-0.3,0
			c-0.2,0-0.3,0-0.5,0c0,0.1,0,0.3,0.1,0.4c0.1,0.1,0.4,0.2,0.5,0.2c0.3-0.2,1.2-0.1,0.6-1c-0.1-0.1,0-0.3,0.1-0.4
			c-0.1,0-0.2,0-0.2,0C115.4,125.2,115.4,125.5,115.3,125.8z M133.1,109c-0.1,0.5-0.2,0.8-0.2,1.1c0,0.1,0.4,0.3,0.5,0.2
			c0.2-0.1,0.4-0.4,0.6-0.6C133.7,109.4,133.5,109.3,133.1,109z M139.6,117.4c0.5,1.3,1.2,1.6,1.9,0.9
			C140.9,118.1,140.3,117.8,139.6,117.4z M119.9,55.7c-0.4-0.4-0.7-0.8-1-1.1c-0.1,0.1-0.1,0.1-0.2,0.2c0.2,0.6,0.5,1.2,1.2,1.6
			C119.9,56.1,119.9,55.9,119.9,55.7z M97.9,85.8c-0.1-0.1-0.1-0.1-0.2-0.2c-0.3,0.3-0.7,0.6-0.9,0.9c-0.1,0.1,0.3,0.5,0.5,0.8
			C97.6,86.7,97.8,86.3,97.9,85.8z M138.1,72.3c0.5-0.2,0.9-0.5,1.5-0.8c-0.6-0.2-0.9-0.3-1.2-0.3c-0.2,0.2-0.4,0.4-0.6,0.7
			C137.9,71.9,138,72.1,138.1,72.3z M132.7,54.1c0.2-0.5,0.3-0.7,0.4-0.9c-0.5-0.2-1-0.3-1.5-0.4c0,0-0.1,0.1-0.1,0.1
			C131.8,53.3,132.2,53.7,132.7,54.1z M95.2,145.5c0.6-0.7,0.7-1.6,0.2-1.8c-0.2,0.5-0.3,1-0.5,1.6
			C94.9,145.3,95.1,145.4,95.2,145.5z M129.9,47.4c0-0.1-0.1-0.1-0.1-0.2c-0.4-0.3-0.8-0.5-1.2-0.8c0,0.1-0.1,0.1-0.1,0.2
			c0.1,0,0.2,0.1,0.3,0.1c-0.1,0.3-0.3,0.5-0.5,0.9C129,47.5,129.4,47.5,129.9,47.4z M139.1,42.2c-0.5,0.2-1-0.1-1,0.6
			c0,0.2,0.3,0.4,0.5,0.4C139.2,43.2,138.9,42.6,139.1,42.2z M129.1,142.9c0-0.1,0.1-0.1,0.1-0.2c-0.6-0.6-0.8-1.1-0.4-1.4
			c-0.3,0-0.6-0.1-0.8-0.1c0.7,0.4-0.2,0.5-0.1,0.6C128.3,142.3,128.7,142.6,129.1,142.9z M146.9,63c0.7-0.6,0.8-1.3,0.3-1.9
			c-0.1,0.5-0.1,0.8-0.2,1.2c-0.2,0-0.4,0.1-0.7,0.1C146.5,62.6,146.7,62.8,146.9,63z M129.7,42.9c-0.7,0.1-0.9,0.7-1,1.4
			C129.2,44.4,129.8,43.6,129.7,42.9z M107.7,99.6c-0.1,0.1-0.1,0.2-0.2,0.4c0.7,0.3,1.3,0.5,2,0.8c0-0.1,0.1-0.2,0.1-0.3
			C109,100.1,108.3,99.9,107.7,99.6z M118.6,76.4c0,0-0.1-0.1-0.1-0.1c-0.5,0.1-1,0.3-1.5,0.4c-0.1,0-0.1,0.2-0.2,0.3
			c0.1,0.1,0.3,0.1,0.4,0.2c0.2-0.5,0.6-0.2,0.9-0.4C118.3,76.7,118.5,76.6,118.6,76.4z M118.7,133.7c-0.1,1,0.1,1.1,1,0.8
			c0-0.4-0.1-0.7-0.1-1.1c0,0-0.1,0-0.1,0c-0.1,0.2-0.1,0.5-0.2,0.8C119.1,134,118.9,133.9,118.7,133.7z M93,133c0,0-0.1,0-0.1,0.1
			c0.1,0.2,0.1,0.5,0.3,0.6c0.1,0.1,0.4,0.1,0.5,0c0.5-0.3,0.3-0.8,0.4-1.2c0,0-0.2-0.1-0.3-0.1c-0.1,0.4-0.2,0.7-0.3,1.1
			C93.2,133.3,93.1,133.2,93,133z M137.1,72.2c-1.3,0.5-1.3,0.5-1.3,1.2C136.9,72.9,136.9,72.9,137.1,72.2z M112.7,56.8
			c0.3,0,0.6,0,0.8-0.1c0.1-0.1,0-0.4,0-0.8c0.1,0,0.4-0.1,0.6-0.2c0-0.1,0-0.1,0-0.2c-0.2,0-0.4-0.1-0.5,0
			c-0.2,0.1-0.3,0.3-0.4,0.4C113,56.2,113,56.4,112.7,56.8z M125.3,98.1c0.5-0.3,0.9-0.5,1.4-0.7c0.1-0.1,0.2-0.2,0.3-0.3
			c-0.1,0-0.2-0.1-0.3-0.1C126.1,97.3,125.4,97.2,125.3,98.1z M126.5,123.3c-0.1-0.2-0.1-0.3-0.2-0.5c-0.3,0.1-0.7,0.3-1,0.4
			c0.1,0.1,0.3,0.4,0.4,0.4C126,123.6,126.2,123.4,126.5,123.3z M88.7,130.8c0.3,0.1,0.6,0.2,0.7,0.3c0.2,0.1,0.3,0.3,0.4,0.5
			c0.1,0.1,0.2,0.1,0.3,0c0.1,0,0.1-0.2,0.1-0.2C90.1,130.9,89.4,130.5,88.7,130.8z M115,51.7c-0.1-0.3-0.3-0.7-0.4-1
			c-0.4,0-0.7,0.1-1.1,0.1c0,0.1,0,0.1-0.1,0.2C114,51.2,114.5,51.4,115,51.7z M111.1,145.9c0-0.5,0.1-1,0.1-1.4
			c-0.4,0.2-0.7,0.4-1,0.6C110.5,145.3,110.7,145.5,111.1,145.9z M89.5,80.7c0.9,0,0.7-0.7,1-1c-0.1-0.1-0.3-0.3-0.4-0.4
			C89.9,79.9,89.7,80.2,89.5,80.7z M91.2,122.6c-0.2-0.1-0.4-0.3-0.5-0.3c-0.1-0.3-0.2-0.5-0.3-0.9
			C89.9,122.3,90.2,122.7,91.2,122.6z M94.2,69.1c-0.4,0.2-0.7,0.4-1,0.7c0,0,0.1,0.2,0.1,0.3c0.4-0.1,0.8-0.3,1.2-0.4
			C94.3,69.4,94.2,69.2,94.2,69.1z M152.6,96.2c0.1-0.1,0.1-0.1,0.2-0.2c-0.1-0.1-0.2-0.3-0.2-0.4c-0.1-0.2,0-0.4-0.1-0.6
			c-0.2,0.1-0.5,0.2-0.9,0.3C152,95.8,152.3,96,152.6,96.2z M109.4,67.6c-0.8,0.8-0.7,1.3,0,1.5C109.4,68.6,109.4,68.2,109.4,67.6z
			 M119,124.3c0-0.6-0.6-1-1.6-0.9C118,123.8,118.5,124,119,124.3z M92.6,151.9c0.4-0.1,0.9,0.4,1.2-0.3
			C93.3,151.1,92.9,151.2,92.6,151.9z M148.6,77.8c0.9,0.3,0.9,0.3,1.2-0.7C149.4,77.3,149,77.5,148.6,77.8z M98.3,79.3
			c0.2,0.8,0.2,0.8,1.1,0.2c-0.1-0.2-0.2-0.3-0.2-0.4C98.9,79.2,98.6,79.2,98.3,79.3z M117.6,147.8c-0.1,0-0.2-0.1-0.3-0.1
			c-0.1,0.4-0.3,0.8-0.4,1.4c0.1,0,0.4,0.1,0.4,0C117.4,148.7,117.5,148.3,117.6,147.8z M110.2,123c-0.1-0.5-0.2-0.9-0.2-1.3
			c-0.2,0.1-0.4,0.2-0.5,0.2c0.1,0.3,0.2,0.5,0.2,0.6c0.1,0.2,0.1,0.4,0.2,0.5C110,123.1,110.2,123,110.2,123z M98.9,77
			c0,0,0.1-0.1,0.1-0.1c-0.1-0.4-0.2-0.8-0.3-1.2c-0.2,0.2-0.4,0.4-0.6,0.6C98.4,76.5,98.7,76.8,98.9,77z M146.3,105.8
			c0.9,0.1,1.1-0.1,0.9-0.7C146.8,105.1,146.4,105,146.3,105.8z M99.6,108.4c0.1,0,0.1,0,0.2,0c0-0.4,0-0.8-0.1-1.1
			c-0.1-0.2-0.5-0.2-0.8-0.3C99.2,107.5,99.4,107.9,99.6,108.4z M112.1,48.8c-0.1,1.4-0.1,1.4,0.6,1.2
			C112.5,49.6,112.3,49.2,112.1,48.8z M117.4,41.2c0.9-0.4,0.1-0.8,0-1.2c0-0.1-0.3-0.1-0.4-0.1C117.1,40.4,117.3,40.8,117.4,41.2z
			 M137.1,139c0-0.1,0-0.2,0-0.3c-0.5,0-1,0.1-1.5,0.1C136.1,139.6,136.6,139.2,137.1,139z M90.8,30.2c-0.1,0.1-0.3,0.3-0.4,0.4
			c0,0,0.1,0.3,0.2,0.3c0.4-0.1,0.8-0.2,1.4-0.4C91.5,30.4,91.2,30.3,90.8,30.2z M142.5,128.2c-0.3,0.3-0.6,0.5-0.9,0.7
			c0.1,0.2,0.3,0.4,0.4,0.6C141.9,129,143.1,128.9,142.5,128.2z M111.2,28c0.2,0.2,0.4,0.3,0.5,0.4c0.1,0.1,0.3,0.1,0.5,0.1
			c0-0.1-0.1-0.3-0.2-0.4c0-0.1-0.1-0.2-0.1-0.3c0-0.1,0-0.2,0-0.3c-0.1,0-0.2,0.1-0.3,0.1C111.6,27.7,111.4,27.8,111.2,28z
			 M119.3,53.5c-0.4-0.8-0.8-0.9-1.4-0.4C118.4,53.2,118.8,53.4,119.3,53.5z M125,55.5c-0.1,0-0.1,0-0.2,0c-0.2,0.2-0.4,0.4-0.5,0.7
			c-0.1,0.1,0,0.3,0.1,0.5c0.1-0.1,0.3-0.1,0.4-0.2C124.8,56.2,124.9,55.8,125,55.5z M98,99c0.1,0.3,0.2,0.6,0.4,0.7
			c0.4,0.1,0.8,0,1.2,0c0,0,0-0.1,0-0.1C99.2,99.4,98.7,99.2,98,99z M125.1,93.5c-0.1,0.2-0.3,0.4-0.2,0.5c0.3,0.4,0.7,0.7,1.1,1
			c0,0,0.1-0.1,0.1-0.1C125.8,94.4,125.5,94,125.1,93.5z M141.7,87c-0.4-0.1-0.7-0.2-1-0.3c0,0.4,0.1,0.7,0.1,1.1
			C141.1,87.6,141.3,87.4,141.7,87z M106.4,83.3c0.1,0,0.2,0,0.3,0c0-0.2-0.1-0.4-0.1-0.5c0-0.1-0.1-0.3-0.2-0.4c0.1,0,0.3,0,0.4,0
			c0-0.1,0-0.2,0.1-0.2c-0.3-0.1-0.5-0.2-0.8-0.3C106.2,82.4,106.3,82.8,106.4,83.3z M100,86.2c-0.6-0.5-1.3-0.4-1.7,0.1
			C98.9,86.3,99.4,86.2,100,86.2z M99.5,83.7c0-0.1-0.1-0.1-0.1-0.2c-0.3,0.2-0.7,0.4-1,0.6c0.1,0.2,0.3,0.4,0.4,0.5
			C99,84.2,99.2,84,99.5,83.7z M154.4,71.6c0.5-0.1,1-0.1,1.5-0.2C155.2,70.6,155.3,70.7,154.4,71.6z M117.5,150.1
			c0,0.1-0.1,0.1-0.1,0.2c0.1,0.2,0.1,0.4,0.2,0.7c0.3,0,0.5-0.1,0.8-0.1c0-0.1,0.1-0.1,0.1-0.2
			C118.2,150.4,117.8,150.2,117.5,150.1z M133.5,74.1c0.1,0.1,0.2,0.2,0.3,0.3c0.2-0.1,0.6-0.3,0.6-0.4c0-0.3-0.2-0.5-0.6-0.3
			C133.8,73.7,133.7,74,133.5,74.1z M127,75.4c-0.4,0-0.8-0.1-1.2-0.1c0,0.1-0.1,0.1-0.1,0.2c0.4,0.2,0.7,0.4,1.2,0.6
			C126.9,75.8,127,75.6,127,75.4z M125.6,135.1c0,0-0.1,0.1-0.1,0.1c0.3,0.4,0.6,0.7,0.9,1.2c0.1-0.1,0.3-0.2,0.5-0.4
			C126.4,135.7,126,135.4,125.6,135.1z M97.9,84.6c0-0.1,0-0.2,0.1-0.3c-0.6-0.6-0.6-0.6-1.2,0C97.2,84.5,97.6,84.5,97.9,84.6z
			 M95.6,133.2c0-0.2,0-0.3,0-0.5c-0.4,0-0.7,0-1.1,0.1c0,0,0,0.2,0,0.3C94.8,133.1,95.2,133.2,95.6,133.2z M118.3,132.1
			c0-0.1,0-0.3,0-0.4c-0.4,0-0.8,0-1.1,0.1c-0.1,0-0.1,0.2-0.1,0.4C117.4,132.2,117.9,132.1,118.3,132.1z M155.5,95.6
			c-0.2-0.4-0.4-0.7-0.6-1.1c0,0-0.2-0.1-0.5-0.2c0.3,0.6,0.6,1,0.9,1.5C155.4,95.7,155.5,95.6,155.5,95.6z M153.7,83.3
			c-0.1-0.1-0.2-0.3-0.3-0.4c-0.3,0.3-0.6,0.6-0.8,0.9c0.1,0.1,0.1,0.1,0.2,0.2C153,83.8,153.3,83.6,153.7,83.3z M101.3,80.2
			c0.1,0,0.1,0.1,0.2,0.1c0.3-0.2,0.6-0.3,0.9-0.5c0,0,0-0.1-0.1-0.1c-0.2,0-0.4,0-0.6,0c0-0.2,0-0.3,0-0.4c-0.1,0-0.1,0-0.2,0
			C101.4,79.6,101.3,79.9,101.3,80.2z M150.3,96.2c-0.1-0.4-0.1-0.7-0.2-1.1c-0.2,0.1-0.5,0.3-0.8,0.5
			C149.7,95.8,149.9,96,150.3,96.2z M142.2,123.2c-0.1,0-0.2,0.1-0.3,0.1c0.1,0.3,0.2,0.7,0.3,1.1c0,0,0.2,0,0.6,0
			C142.5,123.9,142.4,123.6,142.2,123.2z M106.1,113.6c-0.1-0.1-0.1-0.3-0.2-0.4c-0.4,0.2-0.8,0.4-1.2,0.7c0,0.1,0,0.1,0.1,0.2
			C105.2,113.9,105.7,113.8,106.1,113.6z M128.9,57.6c0.9,0,0.1-0.8,0.5-1c-0.2,0-0.4,0-0.6,0.1C128.8,57,128.9,57.2,128.9,57.6z
			 M143,115c0,0,0.1-0.2,0.1-0.4c-0.1-0.3-0.7-0.4-1.2-0.3C142.2,114.5,142.5,114.7,143,115z M131.7,114.5c0,0,0-0.1-0.1-0.1
			c0,0-0.1,0-0.1,0C131.6,114.5,131.6,114.5,131.7,114.5C131.6,114.5,131.7,114.5,131.7,114.5z"/>
	</g>
	<g>
		<path class="st2" d="M171.3,105.9c-0.1,0-0.2-0.1-0.3-0.2c0.3,1.2,0.2,1.8-0.3,2c0.3,0.5,0.3,0.5,0.1,0.5
			c-0.2,0.9-0.3,1.7-0.5,2.6c-0.3-0.2-0.5-0.3-0.8-0.4c0,0.1-0.1,0.1-0.1,0.1c0.7,0.5,0.7,1,0.4,1.8c-0.7,2.2-1.3,4.5-2,6.7
			c-0.1,0.4-0.4,0.7-0.6,1c0,0.2,0,0.6-0.1,0.9c-0.3,1-0.7,1.9-1.1,2.8c-1.6,3.1-3.2,6.2-4.8,9.3c-0.4,0.7-0.9,1.4-1.2,2.2
			c-0.2,0.4-0.1,0.8-0.2,1.3c-0.2-0.2-0.4-0.4-0.6-0.6c0,0.2,0,0.4-0.1,0.6c-1.1,1.6-2.3,3.1-3.4,4.7c-0.2,0.3-0.4,0.6-0.6,0.9
			c-0.4-0.1-0.7-0.1-1-0.2c0.3,0.7,0.4,1.2-0.2,1.7c-0.5,0.4-1.1,0.9-1.5,1.5c-1.8,2.8-4.5,4.9-6.8,7.3c-1.7,1.7-3.6,3.4-5.6,4.8
			c-2.9,2.2-6,4.2-9,6.2c-1.3,0.9-2.7,1.6-4.1,2.3c-0.2,0.1-0.5,0.1-0.7,0.1c-0.1,0-0.3,0-0.3,0.1c-1,1.2-2.5,1.5-3.8,2.1
			c-2.1,0.9-4.2,1.7-6.4,2.5c-2.2,0.7-4.4,1.3-6.7,1.9c-0.2,0.1-0.5-0.1-0.7-0.1c0,0,0,0.1,0.1,0.3c-0.7,0.2-1.4,0.3-2.1,0.5
			c0-0.1,0-0.3-0.1-0.4c0,0-0.2,0-0.3,0c-0.4,0.9-1.4,0.5-2.1,0.8c-0.2,0.1-0.6-0.1-0.9-0.1c-0.1,0-0.2,0.2-0.3,0.2
			c-0.4,0.2-0.8,0.4-1.1-0.1c-0.2,0.1-0.3,0.4-0.5,0.4c-2.2,0.3-4.5,0.5-6.7,0.7c-0.1,0-0.2-0.1-0.2-0.2c-0.2-0.1-0.4-0.1-0.6-0.2
			c-0.1,0.5-0.5,0.3-0.8,0.3c-1.6,0.1-3.2,0.1-4.7,0.1c-1.7,0-3.5,0.1-5.2-0.2c-0.9-0.1-1.8-0.1-2.7-0.2c-0.4,0-0.8,0-1.1,0
			c-0.3-0.3-0.5-0.6-0.7-0.8c0,0-0.1,0-0.1,0.1c0,0.2,0.1,0.4,0.1,0.7c-1.1-0.1-2.1-0.2-3.2-0.4c-1.8-0.3-3.7-0.7-5.5-1
			c-0.2,0-0.4-0.2-0.7-0.5c-0.9,0.5-1.9-0.2-3-0.5c-1-0.3-2-0.4-3-0.8c-2.3-0.7-4.6-1.5-6.8-2.4c-2.6-1.1-5.1-2.3-7.7-3.5
			c0.3-0.2,0.4-0.4,0.6-0.6c-0.7,0.1-1.2,0.2-1.8-0.2c-1.3-0.8-2.6-1.5-3.9-2.3c-1-0.6-2.1-1.3-3.1-2c-0.9-0.6-1.8-1.3-2.7-2
			c0.2-0.2,0.4-0.5,0.6-0.8c-0.2,0-0.4-0.1-0.4-0.1c-0.7,0.8-1.1,0.2-1.6-0.2c-3-2.4-5.9-5-8.5-7.8c-0.2-0.2-0.2-0.6-0.4-0.8
			c-0.1-0.2-0.4-0.3-0.7-0.4c-2-1.9-3.9-4-5.5-6.3c-1.7-2.3-3.4-4.6-5-7.1c-1.6-2.4-2.9-4.9-4.4-7.4c0.2-0.1,0.4-0.2,0.4-0.2
			c-1-0.5-0.9-1.6-1.6-2.3c0.2-0.3,0.3-0.5,0.5-0.8c-0.7,0.2-0.9-0.1-1.1-0.6c-0.4-1.2-0.9-2.3-1.4-3.4c-0.1-0.2,0-0.5-0.1-0.7
			c0-0.1-0.3-0.2-0.3-0.3c-0.5-1.4-1-2.8-1.3-4.3C7,114.7,7,114.4,6.7,114c-0.4-0.6-0.5-1.5-0.6-2.2c-0.2-0.8-0.4-1.7-0.6-2.5
			c0-0.2,0.1-0.4,0.3-0.8c0,0-0.1-0.1-0.5-0.3c-0.1-0.4,0.3-0.6,0.8-0.7c-0.1-0.2-0.2-0.4-0.4-0.5c0.2-0.1,0.3-0.2,0.6-0.4
			c-0.3,0-0.5,0-0.5,0c-0.2,0.3-0.4,0.6-0.5,0.8c-0.6-0.8-1.5-8.4-1.2-8.9c-0.1-1-0.2-1.7-0.3-2.5c0.2-0.1,0.4-0.1,0.6-0.1
			c0,0,0-0.1,0-0.1c-0.2,0-0.5,0-0.6-0.1c-0.1-0.1-0.1-0.4-0.1-0.6c0.2-0.1,0.4-0.1,0.8-0.3c-0.3-0.2-0.5-0.2-0.8-0.4
			c0.1-0.9,0.1-1.8,0.2-2.7c0-0.6-0.1-1.2-0.1-1.8c0-0.8,0-1.6,0-2.4c0-0.3-0.2-0.7,0.3-0.7c0,0,0-0.2,0.1-0.3c-0.1,0-0.3,0-0.5-0.1
			c0.1-1.2,0.2-2.3,0.4-3.5c0.1-1,0.2-1.9,0.3-2.9c0.3-2,0.5-4,0.9-5.9c0.6-2.8,1.4-5.6,2.2-8.4c0.1-0.2,0.2-0.4,0.4-0.5
			c0.3-0.3,0.3-0.2,0-0.6c0-0.1,0.2-0.3,0.2-0.4c0.1-0.1,0.2-0.2,0.2-0.3c-0.1,0-0.2-0.1-0.2-0.1c0.3-0.9,0.6-1.8,0.9-2.6
			c0.2,0,0.5-0.1,1-0.1c-1.1-0.4-0.5-1-0.4-1.4c0.1-0.5,0.5-0.9,0.8-1.5c-0.1-0.6,1.3-3.4,1.8-3.4C12,53,13,52,13.6,50.8
			c1.1-2,2.4-3.9,3.5-5.8c0,0,0-0.1,0-0.1c1.2-1.4,2.1-3.1,3.4-4.5c0.7-0.7,1.1-1.6,1.9-2.3c0.8-0.7,1.4-1.6,2.1-2.4
			c1.2-1.3,2.4-2.6,3.7-3.8c1.6-1.6,3.4-3,5.1-4.5c0.1-0.1,0.3,0,0.4-0.1c0.3,0,0.5,0,0.8,0c0-0.1,0-0.1,0-0.2
			c-0.2-0.1-0.3-0.1-0.5-0.2c0-0.1,0-0.1,0-0.1c0.6,0.1,0.5-0.5,0.8-0.7c1.3-0.9,2.5-1.9,3.8-2.7c1.9-1.3,3.8-2.5,5.8-3.7
			c1.2-0.7,2.3-1.4,3.6-2c0.2-0.1,0.5-0.1,0.7-0.1c0.3,0,0.6,0.1,0.5-0.4c0-0.1,0.2-0.2,0.3-0.3c2.3-1.1,4.7-2.2,7.1-3.2
			c1.5-0.6,3-1.3,4.6-1.7c1.7-0.4,3.3-1.3,5-1.6c0.1,0.2,0.1,0.4,0.2,0.6c1.2-1.6,2.9-1.6,4.5-1.5c-0.2-0.1-0.3-0.1-0.5-0.2
			c0-0.1,0-0.1,0.1-0.1c2.3-0.5,4.6-1,6.9-1.4C79,7.6,80.5,7.4,82,7.2c1-0.1,2-0.3,3-0.4c1-0.1,2.1-0.2,3.1-0.3
			c1.5-0.1,3.1-0.3,4.6-0.3c1.6,0,3.3,0.1,4.9,0.2c0,0,0.1,0,0.1,0c1.6-0.4,3.2-0.2,4.8,0c2.4,0.4,4.8,0.9,7.2,1.3
			c0.2,0,0.5,0.3,0.7,0.4c0.1,0,0.3-0.1,0.5-0.1c2,0.7,3.9,1.4,5.9,2.1c1.5,0.5,2.9,1.1,4.3,1.7c1.4,0.6,2.9,1.4,4.2,2.1
			c0.3,0.1,0.3,0.7,0.6,0.9c0.3,0.1,0.7-0.2,1,0c0.8,0.4,1.6,0.9,2.4,1.4c0.3,0.2,0.5,0.4,0.7,0.6c0.2,0.1,0.5,0.1,0.8,0.3
			c0.7,0.4,1.4,0.9,2.1,1.4c1.4,1,2.9,1.9,4.3,3c1.4,1.1,2.9,2.1,4.2,3.3c1,1,2.2,1.7,3.2,2.7c0.2,0.2,0.1,0.5,0.2,0.8
			c0,0.1,0.1,0.2,0.3,0.3c0-0.2,0-0.3-0.1-0.5c0.1,0,0.2,0,0.2,0c0.9,0.9,1.8,1.8,2.7,2.7c0.1,0.1,0.1,0.3,0.1,0.5
			c0,0.1,0.1,0.2,0.2,0.2c1.3,0.4,1.8,1.6,2.7,2.3c0.4,0.3,0.7,0.7,1,1.1c0.2,0.2,0.3,0.5,0.3,0.6c0.5,0.5,0.9,0.8,1.2,1.2
			c1,1.2,2,2.3,2.8,3.6c2,2.8,3.9,5.7,5.7,8.7c0.3,0.5,1,1,0.9,1.9c-0.1,0.3,0.6,0.7,0.8,1.1c1,2,1.9,3.9,2.8,6
			c0.8,1.8,1.4,3.7,2,5.6c0.2,0.6,0.2,1.3,0.4,1.9c0.2,0.6,0.5,1.1,0.7,1.6c0.4,1.6,0.8,3.3,1.3,4.9c-0.2,0-0.3,0-0.6,0
			c0.5,0.5,1.2,0.8,0.5,1.6c0.1,0,0.2-0.1,0.4-0.1c0,0.6,0.7,1.3-0.4,1.7c0.2-0.1,0.4-0.1,0.7-0.2c0.3,2.1,0.5,4.1,0.7,6.2
			c0.1,0.5,0.5,1-0.1,1.5c0.1,0.1,0.3,0.2,0.3,0.4c0,0.8,0,1.6,0.1,2.5c0,0.1-0.1,0.2-0.1,0.2c0.8,1,0,2.2,0.4,3.3
			c-0.3,0-0.4,0.1-0.7,0.1c1,0.6,0.5,1.5,0.6,2.3c0.1,0.8,0,1.6,0,2.5c0,0.2-0.3,0.4-0.3,0.6c0,0.2,0.1,0.4,0.2,0.9
			c0,0.2,0.2,0.9,0,1.1c-0.5,0.6,0.2,1.1-0.1,1.7c-0.1,0.2,0.2,0.6-0.3,0.6c0,0.1,0.1,0.3,0.1,0.4c0.1,0,0.2,0,0.2,0
			c-0.6,1,0.4,2.4-1.3,3.1c1.5,0.3,0.6,1.2,0.6,1.9C171.7,104.7,171.4,105.3,171.3,105.9z M131.7,34.2c0-0.1,0-0.2,0-0.3
			c-0.3,0-0.5,0-0.8,0.1c-0.4,0-0.8,0.1-1.1,0c-1-0.6-2-1.3-3-2c-0.7-0.5-0.9-0.4-1.3,0.3c-0.4,0.6-0.7,1.3-1.1,1.9
			c-0.8,1.2-1.6,2.4-2.3,3.6c-1.2,2-2.4,4.1-3.6,6.1c-0.4,0.7-1.2,0.8-1.9,0.7c-0.7-0.1-1.2-0.5-1.5-1.2c-0.5-1,0.2-1.8,0.6-2.5
			c1-1.9,2.2-3.8,3.4-5.7c1-1.6,1.9-3.2,2.9-4.8c0.6-0.9,0.6-1.1-0.4-1.6c-1-0.5-2-1-3-1.5c-0.2-0.1-0.5-0.6-0.6-0.5
			c-0.6,0.3-0.7-0.3-1-0.5c-0.9,0.2-1.6-0.5-2.4-0.7c-0.3-0.1-0.6-0.3-0.9-0.5c-0.2-0.1-0.4,0-0.6-0.1c-2.5-1-5-1.8-7.6-2.4
			c-2.2-0.5-4.4-0.9-6.6-1.4c-0.3-0.1-0.6-0.2-0.9-0.3c-0.3,0.1-0.6,0.1-0.9,0.1c-1.1,0-2.1-0.6-3.2-0.4c-0.9,0.1-1.8-0.1-2.7-0.1
			c-1,0-1.2,0.1-1.2,1.2c0,2.1,0,4.1,0,6.2c0,0.8,0,1.7,0,2.5c-0.3-0.1-0.5-0.2-0.8-0.3c0.1-0.2,0.2-0.3,0.3-0.5
			c-0.3,0-0.7-0.1-1-0.1c0,0,0,0.1,0,0.1c0.2,0.1,0.4,0.2,0.6,0.4C89,29.9,88.9,30,88.8,30c0.3,0.1,0.6,0.2,0.9,0.4
			c-0.4,0.2-0.6,0.3-0.8,0.5c0,0,0,0.1,0,0.1c0.3-0.1,0.6-0.1,1-0.2c-0.2,0.8,0.4,1.6-0.6,2.2c0.2,0,0.3-0.1,0.5-0.1
			c0,0.9,0,1.8,0,2.7c0,0.4-0.2,0.8-0.3,1.2c0.1,0.2,0.2,0.5,0.3,0.7c0,0.6,0.1,1.2,0,1.8c-0.1,0.6,0.4,1.5-0.7,1.8c0,0,0,0.1,0,0.1
			c0.3,0.3,0.7,0.7,0.7,1.1c0.1,0.8,0.1,1.6,0,2.5c-0.1,0.9-0.7,1.8-2.3,1.7c-0.8-0.1-1.6-0.9-1.6-1.7c0-0.9,0-1.8,0-2.7
			c0.1-1-0.3-2.1,0.3-3.1c0-0.1,0-0.2,0-0.2c-0.6-0.1-0.3-0.5-0.3-0.8c0-0.9,0-1.7,0-2.6c0-0.9,0.1-1.7,0-2.6
			c-0.1-0.7,0.1-1.5,0.1-2.2c-0.1-1.6-0.1-3.1,0-4.7c0-0.4,0.2-0.8,0.3-1.3c-0.5-0.3-0.6-1.6,0-2.6c-0.1-0.3-0.3-0.5-0.4-0.7
			c-0.1-0.6-0.4-0.8-1-0.7c-1.2,0.1-2.5,0.2-3.7,0.3c-1.7,0.2-3.4,0.3-5.1,0.6c-2.2,0.4-4.4,0.9-6.6,1.5c-0.4,0.1-0.6,0-0.7-0.3
			c0,0-0.1,0-0.2,0.1c0.1,0.1,0.1,0.2,0.2,0.3c-0.1,0.1-0.1,0.1-0.1,0.1c-1.3,0.4-2.6,0.8-3.9,1.3c-1.3,0.4-2.5,0.9-3.8,1.5
			c-1.1,0.5-2.3,0.7-3.3,1.5c-1,0.7-2.1,1.1-3.2,1.7c-0.5,0.2-0.6,0.6-0.3,1c0.5,0.7,0.6,1.7,1.3,2.3c0.1,0.1,0,0.3,0,0.4
			c0,0.4-0.5,0.6-0.2,1.1c0.1,0.1,0.2,0.3,0.3,0.4c0-0.2,0.1-0.4,0.1-0.6c0-0.1-0.1-0.3-0.2-0.4c0.2-0.1,0.3-0.1,0.4-0.2
			c0.2,0.6,0.5,1.1,0.9,1.7c1,1.5,1.9,3.1,2.8,4.7c-0.1,0-0.3,0-0.4,0c0.3,0.2,0.6,0.3,0.7,0.5c0.5,0.7,1,1.4,1.2,2.2
			c0.2,0.5,0.1,1.1-0.1,1.7c-0.2,0.5-0.7,0.6-1.2,0.9c-1,0.4-1.6,0-2.1-0.6c-0.3-0.4-0.9-0.8-0.5-1.5c-0.6,0-0.7-0.3-0.5-0.7
			c-0.3-0.3-0.5-0.5-0.7-0.8c-0.4-0.5-0.7-1.1-1-1.7c-0.3-0.3-0.3-0.6,0.1-0.9c0,0,0-0.1,0-0.1c-0.2,0-0.4,0.1-0.4,0.1
			c-1.4-2.4-2.8-4.6-4.2-6.9c-0.6,0.4-1.2,0.5-1.7,1c-0.8,0.7-1.8,1.2-2.6,1.9c-1.9,1.5-3.8,3-5.6,4.6c-1.5,1.4-3,2.8-4.4,4.4
			c-1.1,1.2-2.1,2.3-3.1,3.6c-1,1.4-2.2,2.7-3.1,4.2c-0.8,1.4-2.2,2.4-2.2,4.2c0,0.1,0,0.2-0.1,0.3c0.1-0.1,0.3-0.2,0.4-0.2
			c0.7,0.4,1.5,0.7,2.2,1.2c0.9,0.6,1.8,1.2,2.7,1.7c0.8,0.5,1.7,0.7,2.6,1.2c0.7,0.4,1.4,0.8,2.1,1.2c0.8,0.5,1.7,0.9,2.5,1.4
			c0.7,0.4,1,1.4,0.8,2.3c-0.2,0.7-0.7,1.2-1.5,1.3c-0.2,0-0.5-0.1-0.7-0.1c-0.3,0-0.7,0-0.9-0.1c-0.8-0.5-1.8-0.7-2.1-1.5
			c-0.5-0.1-0.9-0.1-1.1-0.3c-2.7-1.5-5.4-3-8.1-4.5c-0.8-0.4-1-0.4-1.3,0.4c-1.2,2.8-2.4,5.5-3.5,8.3c-1.5,3.9-2.5,8-3,12.2
			c-0.3,2.3-0.5,4.7-0.7,7c0,0.1-0.1,0.3-0.1,0.4c0.1-0.7-0.4-0.6-1-0.7c0.7,0.9,1.3,1.7,1,2.7c0.6,0.3,0.8,0,0.8-0.5
			c0.5,0.3,1,0.5,1.4,0.7c0-0.1,0.1-0.2,0.1-0.2c-0.2-0.1-0.4-0.3-0.6-0.5c1.8,0,3.5,0,5.2,0c0.7,0,1.5-0.1,2.1,0.4
			c0.1,0,0.2,0,0.3,0c-0.1-0.2-0.1-0.3-0.2-0.4c1.6,0.3,3.2-0.4,4.8,0.5c-0.1-0.1-0.2-0.2-0.4-0.4c1.4,0,2.7,0,4,0
			c0.4,0,0.8,0.2,1.3,0.3c0,0,0.2-0.3,0.4-0.2c1.1,0.2,2.3-0.4,3.4,0.3c0.1,0,0.2,0,0.3,0c0.5-0.4,1-0.4,1.5-0.1
			c0.4,0.3,0.9,0.6,1.2,1c0.4,0.6,0.2,1.7-0.3,2.2c-0.5,0.6-1.5,0.7-1.8,0.4c-0.3,0.1-0.5,0.2-0.7,0.2c-1.8,0-3.5,0.1-5.3,0.1
			c-0.6,0-1.2-0.2-1.9-0.3c-0.1,0-0.1,0-0.2,0.1c-0.3,0.1-0.5,0.3-0.8,0.3c-4.6,0-9.3,0-13.9,0c-0.1,0-0.2,0-0.3,0
			c-0.1-0.2-0.1-0.4-0.2-0.7c-0.1,0.3-0.2,0.4-0.2,0.5c0,0.8-0.1,1.6,0,2.4c0.1,1.4,0.3,2.7,0.4,4.1c0.1,0.6,0.1,1.2,0.1,1.9
			c0.2,0.2,0.6,1.4,0.3,1.6c-0.5,0.4-0.2,0.6,0.3,0.9c-0.2,0.1-0.4,0.2-0.6,0.3c0,0,0.1,0.1,0.1,0.1c0.2,0,0.4-0.1,0.7-0.2
			c-0.1,0.2-0.2,0.4-0.2,0.5c0,0.2-0.1,0.5,0,0.7c0.1,0.2,0.4,0.3,0.4,0.4c0.3,1.2,0.6,2.5,0.9,3.7c0.2,0.9,0.4,1.7,0.7,2.6
			c0.6,1.6,1.2,3.2,1.8,4.8c0,0-0.1,0.1-0.1,0.1c-0.3-0.1-0.6-0.3-1-0.4c0,0.2,0,0.5,0.1,0.6c0.1,0.1,0.4,0.3,0.5,0.2
			c0.6-0.4,0.7,0.1,0.9,0.4c0.2,0.4,0.4,0.8,0.5,1.1c-0.2,0.2-0.3,0.3-0.4,0.4c0.2,0,0.4,0.1,0.6,0.1c0.1,0.4,0.2,0.8,0.5,1.1
			c0.6,0.9,0.7,2.3,2,2.4c0.2-0.2,0.2-0.4,0.4-0.5c0.8-0.5,1.7-0.9,2.5-1.3c0,0,0.1,0.1,0.1,0.1c0,0.1-0.1,0.1-0.1,0.2
			c-0.1,0.1-0.1,0.1-0.2,0.2c0.8,0.2,1,0.1,0.9-0.3c-0.1-0.5,0.3-0.9,0.8-0.8c0.2,0,0.5,0,0.7,0.1c0-0.1-0.1-0.1-0.1-0.2
			c0.1-0.2,0.3-0.5,0.5-0.6c0.9-0.5,1.9-1,2.9-1.6c0.1,0.1,0.1,0.3,0.2,0.4c0.2-0.1,0.5-0.2,0.8-0.3c-0.2-0.2-0.3-0.3-0.5-0.4
			c0.3-0.1,0.7-0.3,1.2-0.5c0.9-0.3,1.9,0.1,2.3,1c0.4,0.7,0,2-0.7,2.5c-1.6,0.9-3.1,2.1-4.8,2.3c-0.2,0.3-0.3,0.5-0.4,0.6
			c-1.4,0.8-2.8,1.5-4.2,2.3c-0.3,0.2-0.5,0.4-0.7,0.7c-0.2,0.2-0.2,0.5-0.3,0.6c0.3,0.2,0.6,0.3,0.7,0.6c1,1.5,2,2.9,3,4.5
			c-0.1,0-0.2,0.1-0.3,0.1c0.4,0.4,0.9,0.7,1.2,1.1c1,1.1,1.8,2.3,2.8,3.4c1.7,1.8,3.4,3.6,5.2,5.3c0.6,0.6,1.2,1.1,1.7,1.5
			c-0.1,0.4-0.2,0.5-0.2,0.7c0,0,0.1,0.1,0.2,0.1c0.1-0.2,0.2-0.4,0.3-0.6c0.5,0.5,1,1,1.6,1.4c1.6,1.2,3.3,2.4,4.9,3.7
			c1.2,0.9,1.5,0.9,2.2-0.4c0.9-1.5,1.9-3.1,2.9-4.6c0.5-0.8,1.1-1.6,1.6-2.4c0.4-0.6,0.7-1.2,1-1.8c0.4-0.6,1-0.9,1.7-0.8
			c0.8,0.1,1.5,0.5,1.8,1.3c0.1,0.1,0.1,0.4,0,0.5c-0.2,0.2-0.5,0.4-0.7,0.5c0,0,0.1,0.1,0.1,0.1c0.2,0,0.4,0,0.6,0.1
			c-0.2,0.4-0.3,0.9-0.5,1.2c-0.8,1.3-1.6,2.6-2.4,3.9c-0.9,1.6-1.9,3.1-2.8,4.7c-0.2,0.4,0,1.2,0.4,1.3c0.5,0.2,1,0.3,1.4,0.5
			c1.3,0.6,2.6,1.4,3.9,2c1.5,0.7,3.1,1.2,4.6,1.7c0.1,0.1,0.3,0.2,0.3,0.3c0,0.4,0,0.4,0.4,0.3c0.4,0,0.7,0,1.1,0
			c2.7,0.7,5.4,1.3,8,2c0.5,0.1,1.2,0,1.3,0.7c0,0.1,0.2,0.2,0.4,0.4c0-0.3,0-0.5,0-0.7c1,0.1,2,0.2,2.9,0.4
			c0.6,0.1,1.2,0.2,1.8,0.3c1.3,0.1,2.6,0.1,3.9,0.3c0.9,0.1,1.3-0.1,1.3-1c0-1.3,0-2.6,0-3.9c0-3.1,0-6.2,0-9.4
			c0-1.2-0.1-2.5,0.2-3.7c0.2-0.8-0.1-1.7-0.2-2.6c0-0.6-0.1-1.2,0.4-1.7c0,0,0-0.1-0.2-0.3c0,0.2-0.1,0.3-0.1,0.4c0,0,0,0-0.1,0
			c-0.3-2.5,0.6-3.1,2.1-3.2c-0.1,0.2-0.2,0.3-0.2,0.5c0.5-0.4,0.9-0.4,1.4,0.1c0.6,0.6,0.3,1-0.3,1.4c0.3,0.1,0.4,0.1,0.6,0.2
			c0-0.1,0.1-0.3,0.2-0.6c0,2.2,0,4.2,0,6.2c0,0.2-0.2,0.5-0.3,0.7c0.1,0.1,0.3,0.2,0.3,0.4c0,1.7,0,3.3,0,5c0,0.2-0.2,0.4-0.2,0.5
			c0.4,0.8,0.3,1.7-0.4,2.3c0.2,0,0.4,0,0.5,0c0,2.6,0,5.1,0,7.6c-0.2,0-0.3,0-0.4,0c0.1,0.1,0.1,0.3,0.2,0.4
			c0.1,0.1,0.3,0.2,0.5,0.4c0.1,0.1,0.3,0.4,0.4,0.4c0.5,0.1,1.1,0.2,1.6,0.1c1.3-0.1,2.6-0.4,3.8-0.5c1.2-0.2,2.4-0.3,3.6-0.5
			c1.1-0.2,2.2-0.4,3.2-0.6c0.2,0,0.5,0.1,0.7,0.1c0.2,0,0.4-0.4,0.5-0.4c0.5,0.2,0.8-0.2,1.2-0.3c2.3-0.7,4.6-1.4,6.9-2.1
			c0.2-0.1,0.6,0.1,0.9,0.1c0.1-0.3,0.1-1,0.9-0.4c0.1,0.1,0.4-0.1,0.4-0.1c0-0.7,0.5-0.5,0.9-0.7c0.9-0.3,1.8-1,2.7-1.3
			c0.6-0.2,1.1-0.9,1.8-0.4c0.2-1.2,1.3-1,2.1-1.3c0-0.2,0-0.4-0.1-0.5c-0.5-1-1.1-2-1.7-3c-1-1.8-2.1-3.6-3.1-5.4
			c-0.2-0.3-0.2-0.6-0.3-1c-0.1-0.1-0.5-0.1-0.5-0.3c-0.2-0.6-0.4-1.3-0.3-1.9c0.2-1.1,1.3-1.5,2.2-0.9c0.1,0.1,0.3,0.2,0.4,0.1
			c0.6-0.3,0.8,0.2,1,0.5c0.4,0.5,0.6,1,0.9,1.5c1.5,2.6,3,5.1,4.5,7.7c0.3,0.6,0.6,0.6,1.2,0.3c2.3-1.5,4.6-3.1,6.8-5
			c0.3-0.3,0.8-0.5,1.1-0.7c0.1,0.1,0.1,0.1,0.2,0.2c-0.1,0.4-0.2,0.8-0.3,1.3c0.3,0,0.6,0.1,1,0.1c-0.2-0.2-0.4-0.3-0.5-0.5
			c0.5-0.4,0.4-0.7-0.3-0.9c0.3-0.1,0.5-0.1,0.7-0.2c-0.4,0-0.6-0.1-1-0.1c0.1-0.2,0.2-0.2,0.2-0.3c1.1-1,2.3-2,3.4-3.1
			c2.2-2.4,4.4-4.8,6.4-7.3c1.4-1.8,2.6-3.8,3.9-5.6c0.3-0.4,0.3-0.8-0.3-1.1c-2.5-1.4-5.1-2.7-7.5-4.2c-1-0.6-2.3-0.8-2.8-2.3
			c-0.2-0.6-0.4-1,0-1.6c0.6-1.1,1.9-1.3,2.8-0.4c0.1,0.1,0.2,0.1,0.2,0.1c0.2-0.4,0.4,0,0.5,0c0.8,0.2,1.2,0.9,2,1.1
			c1.1,0.4,2,1.1,3,1.7c1.2,0.7,2.4,1.3,3.6,2c0.4,0.2,1.1,0,1.1,0.9c0.1-0.4,0-0.7,0.1-1c0.6-1.5,1.3-3,1.9-4.5
			c0.4-0.9,0.7-1.8,1.1-2.6c0.3-0.8,1-1.4,0.9-2.3c0,0,0.1-0.1,0.1-0.1c0.3-0.9,0.8-1.7,0.9-2.6c0-0.3,0.4-0.6,0.5-0.8
			c0-0.3-0.1-0.6,0-0.8c0.2-0.8,0.5-1.6,0.7-2.4c0.3-1.7,0.6-3.5,0.9-5.3c0.2-1.1,0.2-2.2,0.4-3.3c0.1-0.3,0.3-0.6,0.4-0.8
			c-0.1-0.4-0.3-0.7-0.3-1c0-0.8,0.1-1.6,0.1-2.4c0-0.5-0.2-0.7-0.7-0.7c-0.3,0-0.5-0.2-0.7-0.3c-0.2,0.1-0.5,0.2-0.7,0.3
			c-0.6,0-1.3-0.1-1.9-0.1c-3.3,0-6.7,0.1-10,0.1c-0.6,0-1.2-0.2-1.9-0.3c-0.1,0-0.2,0-0.3,0.1c-0.2,0.1-0.5,0.2-0.7,0.2
			c-0.9,0-1.8,0-2.8,0c-0.6,0-1.1,0-1.1-0.7c0-0.1-0.2-0.1-0.3-0.2c0,0.3,0,0.6,0,0.9c-0.8,0-1.6,0.1-2.3,0c-0.5,0-0.9-0.2-1.4-0.4
			c-0.8-0.3-0.9-1.1-0.8-1.8c0.1-0.5,0.4-1,0.8-1.3c0.9-0.7,1.9-0.5,2.9-0.4c0.3,0,0.6,0.2,1,0.3c0.1-0.1,0.4-0.3,0.6-0.3
			c4.3,0,8.5,0,12.8,0c0,0.2,0.1,0.4,0.1,0.7c0.6-0.7,1.2-0.8,1.9-0.6c0,0.2,0,0.4,0,0.6c0.1-0.1,0.2-0.3,0.4-0.4
			c0.2-0.1,0.4-0.3,0.6-0.3c1.3,0,2.6,0,3.9,0c0.7,0,0.8-0.4,0.8-1c-0.1-1.3-0.2-2.5-0.3-3.8c-0.1-1-0.3-2.1-0.4-3.1
			c-0.1-0.8-0.1-1.6-0.1-2.4c-0.1-0.2-0.2-0.5-0.3-0.8c0-0.2,0-0.4,0-0.6c-0.4-1.5-0.8-3-1.2-4.5c0-0.1,0.1-0.2,0.2-0.2
			c0.1-0.1,0.1-0.2,0.1-0.4c-0.2,0-0.4,0-0.5,0c-0.5-1.7-1-3.5-1.6-5.4c-0.5-1.2-1.1-2.6-1.8-4c0.3,0,0.4,0,0.8,0
			c-0.2-0.2-0.4-0.5-0.5-0.4c-0.4,0.2-0.5-0.2-0.6-0.4c-0.3-0.6-0.6-1.3-0.9-1.9c-0.5-1.1-0.8-1.2-1.8-0.7c-0.9,0.5-1.8,1.1-2.7,1.6
			c-0.5,0.3-0.9,0.6-1.4,0.1c-0.1-0.1-0.3,0.1-0.5,0.1c0.4,0.2,0.5,0.3,0.8,0.4c-1.6,0.9-3.2,1.7-4.7,2.5c-0.7,0.4-1.4,0.6-2,1.1
			c-1.2,0.9-2.1,0.9-3.1,0.1c0.1-0.2,0.2-0.3,0.2-0.4c0-0.2-0.1-0.4-0.2-0.7c-0.2,0.2-0.3,0.3-0.5,0.4c-0.4-0.8-0.1-1.9,0.8-2.4
			c0.3-0.2,0.9-0.1,1.1-0.4c0.4-0.5,0.9-0.7,1.5-1c2.2-1.2,4.3-2.4,6.5-3.6c1-0.6,2-1.1,3-1.7c0.2-0.1,0.3-0.5,0.2-0.7
			c-0.4-0.7-0.8-1.3-1.2-1.9c-1.2-1.8-2.5-3.6-3.7-5.5c0-0.1,0.1-0.3,0.2-0.4c-0.2,0.1-0.3,0.1-0.5,0.2c-0.9-1.3-1.7-1.6-1.8-2.9
			c-0.1,0.1-0.2,0.2-0.2,0.2c-3.3-3.1-6.6-6.2-9.9-9.3c0.1-0.1,0.3-0.1,0.4-0.2c0-0.1,0-0.1,0-0.2c-0.3,0-0.6,0.1-0.8,0.1
			c0,0,0-0.1,0-0.1C131.2,34.4,131.4,34.3,131.7,34.2z M159.2,102c0.1,0,0.1,0,0.2,0c0.1-0.5,0.3-1,0.4-1.5c-0.5,0-1,0.1-1.5,0.1
			c0,0.1,0,0.1,0,0.2c0.3,0.1,0.7,0.1,0.9,0.3C159.3,101.3,159.2,101.7,159.2,102z M168.4,84.9c0-0.4,0-0.6,0-0.9
			c-0.3,0-0.6,0.1-0.9,0.1c-0.3,0.1-0.6,0.1-1,0.2C167.2,84.5,167.7,84.7,168.4,84.9z M105.4,17.7c-0.4,0.5-0.7,1-1,1.5
			c0.7-0.3,1.1-0.6,1.7-0.8C105.9,18.2,105.7,18,105.4,17.7z M11.7,119.3c0.4,0,0.7,0,1.1,0.1c-0.1-0.2-0.2-0.3-0.2-0.3
			c-1-0.3-1.4,0.3-1.9,1.1c0.4-0.1,0.7-0.1,1-0.2C11.7,119.9,11.7,119.6,11.7,119.3z M165.1,113.6c-0.2,0.3-0.9,0.5-0.5,1.1
			c0.1,0.1,0.5,0.1,0.7,0C165.7,114.4,165.5,114,165.1,113.6z M76.2,14.6c0-0.5-0.1-1-0.2-1.4c0,0-0.3,0-0.4,0
			c0.1,0.4,0.2,0.7,0.3,1.1c-0.1,0-0.1,0.1-0.2,0.1c-0.2-0.2-0.5-0.3-0.7-0.5C74.9,14.6,75,14.7,76.2,14.6z M162.4,76.7
			c0.7,0.3,1.2,0.6,1.7,0.8c0-0.1,0.1-0.1,0.1-0.2c-0.3-0.4-0.7-0.8-1.1-1.1C163.2,76.2,162.8,76.4,162.4,76.7z M146.6,57.8
			c0.6,0.5,1.2,0.9,1.7,1.2c0-0.9-0.8-1.1-1.4-1.5C146.8,57.6,146.7,57.7,146.6,57.8z M60.1,161.6c0-0.1-0.1-0.1-0.1-0.2
			c-0.4,0.1-0.8,0-1.1,0.2c-0.2,0.1-0.4,0.5-0.5,0.7c0,0,0.3,0.2,0.4,0.3c0.2-0.2,0.4-0.4,0.5-0.7c0,0-0.1,0-0.1-0.1
			C59.5,161.8,59.8,161.7,60.1,161.6z M71.1,13c1.4-0.9,1.4-0.9,1.3-1.1c-0.5,0.2-1,0.4-1.5,0.6c0,0.1,0,0.2,0.1,0.4
			C71,12.8,71,12.9,71.1,13z M150,142.7c0-0.2,0.1-0.4,0.1-0.6c0.1-0.4-0.4-0.9-0.7-0.8c0.8,0.4-0.1,0.7-0.2,1
			C149.4,142.5,149.7,142.6,150,142.7z M155.7,45.7c-0.2-0.3-0.2-0.5-0.4-0.6c-0.2-0.2-0.4-0.2-0.5-0.4c-0.1,0.1-0.1,0.1-0.2,0.2
			c0.1,0.3,0.1,0.7,0.3,0.8C155,45.9,155.4,45.7,155.7,45.7z M51.6,166.2c1.1,0.1,1.1,0.1,1.4-1.2C52.5,165.4,52.1,165.8,51.6,166.2
			z M63.4,18.8c-0.1,0-0.2,0.1-0.3,0.1c0.7,0.7,0.1,1-0.4,1.3c0.7,0.1,1.2-0.2,1.2-0.6C63.9,19.3,63.6,19,63.4,18.8z M65,13.9
			c0-0.1,0.1-0.2,0.1-0.3c-0.5-0.2-1.1-0.4-1.6-0.6c0,0.1-0.1,0.3-0.1,0.4C63.8,13.5,64.4,13.7,65,13.9z M13.5,113.6
			c-0.5-0.4-0.8-0.7-1.2-1c0.1,0.4,0.2,0.8,0.3,1.2C12.9,113.8,13.2,113.7,13.5,113.6z M21.2,67.4c-0.6,0.1-1.2,0.1-1.2,0.9
			C20.8,68.4,21,68,21.2,67.4z M39,36.6c0.3,0.1,0.5,0.2,0.6,0.4c0.2,0.2,0.3,0.4,0.4,0.7c0.1-0.3,0.2-0.5,0.4-0.8
			C40.1,36.4,39.6,36.6,39,36.6z M11.8,68.4c-0.1,0-0.1,0.1-0.2,0.1c0.2,1.1,0.2,1.1,0.9,0.7C12.2,69,12,68.7,11.8,68.4z M9.3,75.7
			c0.2-0.3,0.3-0.4,0.4-0.5c-0.1-0.1-0.1-0.1-0.2-0.2c-0.3,0.3-0.6,0.5-0.9,0.8c0,0.1,0.1,0.1,0.1,0.2c0.4-0.1,0.8-0.1,1.3-0.2
			c0-0.1,0-0.1,0-0.2C9.8,75.7,9.7,75.7,9.3,75.7z M166.6,110.7c0-0.1,0.1-0.1,0.1-0.2c-0.5-0.3-1.1-0.7-1.6-1
			C165.2,110.6,166.2,110.2,166.6,110.7z M32.1,45.6c0.1-0.5,0.1-1,0.2-1.6c-0.1,0.1-0.3,0.3-0.4,0.4c-0.1,0.2-0.1,0.4-0.1,0.5
			C31.5,45.6,31.6,45.7,32.1,45.6z M83.6,172.1c0.1-0.3,0.2-0.6,0.3-0.8c-0.4-0.1-0.7-0.2-1-0.3c0,0.1-0.1,0.3-0.1,0.4
			C83,171.6,83.2,171.8,83.6,172.1z M15.1,68.1c0-0.1,0.1-0.1,0.1-0.2c0-0.3,0-0.7-0.1-1.1c-0.3,0.2-0.5,0.4-0.8,0.6
			C14.6,67.6,14.8,67.9,15.1,68.1z M149.1,51c0.1,0,0.1,0,0.2,0c0.8-0.9,0.8-1.3,0.3-1.5C149.4,50,149.3,50.5,149.1,51z M77.2,20.9
			c0.2-0.2,0.3-0.4,0.4-0.6c0.1-0.2,0.2-0.3,0.2-0.5c0-0.1-0.3-0.3-0.3-0.2c-0.2,0.1-0.4,0.3-0.4,0.4C77.1,20.3,77.2,20.6,77.2,20.9
			z M102.1,164.2c0.4,0.3,0.8,0.5,1.1,0.7C103.2,163.8,103.2,163.8,102.1,164.2z M74.4,170.4c0.1,0,0.2,0,0.3-0.1
			c0-0.2,0.1-0.6,0-0.7c-0.2-0.1-0.5-0.1-0.8-0.2C74.1,169.8,74.2,170.1,74.4,170.4z M15.8,90.4c-0.2,0.3-0.3,0.6-0.4,1
			c0.5-0.1,0.9-0.3,1.2-0.4C16.3,90.9,16.1,90.7,15.8,90.4z M166.6,88.8c0,0.1,0,0.1-0.1,0.2c0.3,0.2,0.6,0.4,0.9,0.6
			c0.1-0.3,0.1-0.6,0.2-0.8C167.3,88.8,167,88.8,166.6,88.8z M153.1,43.3c0.6,0.6,1.1,0.2,1.7,0.1c0-0.1-0.1-0.3-0.1-0.3
			C154.2,43.1,153.7,43.2,153.1,43.3z M156.4,65.4c0.5,0.1,0.7,0.2,1,0.3c0,0.2,0,0.4-0.1,0.7c0.8-0.4,0.4-0.8,0.2-1.2
			C157.2,65.3,156.9,65.3,156.4,65.4z M114.1,16.5c0.3,0.4,0.6,0.7,0.8,1c0.1-0.3,0.3-0.6,0.4-1.1C114.9,16.5,114.6,16.5,114.1,16.5
			z M22.3,58.8c0.4,0.2,0.8,0.4,1.4,0.6C23.5,58.6,23.2,58.5,22.3,58.8z M148.7,48.3c0-0.1,0-0.1-0.1-0.2c-0.5,0-1-0.1-1.5-0.1
			c0,0,0,0.1,0,0.1c0.3,0.2,0.5,0.3,0.9,0.5C148.2,48.6,148.4,48.5,148.7,48.3z M141.2,149.4c-0.1,0-0.4-0.1-0.5,0
			c-0.2,0.2-0.3,0.5-0.4,0.7c0,0.1,0.1,0.2,0.2,0.3c0.1-0.1,0.2-0.2,0.3-0.3C140.9,149.9,141,149.7,141.2,149.4z M54.4,31.4
			c-0.5-0.2-0.7,0.2-0.9,0.6c-0.1,0.1,0,0.3,0,0.5c0.2-0.1,0.4-0.2,0.5-0.3C54.2,32,54.3,31.7,54.4,31.4z M85.2,171.8
			c0.1,0,0.1,0,0.2-0.1c0-0.3-0.1-0.6-0.1-0.9c-0.3,0.1-0.5,0.2-0.9,0.3C84.8,171.4,85,171.6,85.2,171.8z M56.4,25.8
			c0,0,0.1,0.1,0.1,0.1c0.3,0.1,0.6,0.2,0.9,0.2c0.1,0,0.3,0,0.5-0.1c0,0,0.1-0.2,0.1-0.2c-0.1-0.1-0.3-0.1-0.4-0.2
			c-0.2,0-0.3-0.1-0.5-0.1C56.8,25.7,56.6,25.8,56.4,25.8z M85.7,13.5c0-0.2,0-0.4,0.1-0.6c0.3-0.5,0.3-0.5-0.3-0.6
			c0,0.2,0,0.4-0.1,0.5C85.1,13.3,85.2,13.4,85.7,13.5z M17.8,75.4c-0.6,0.1-0.6,0.1-0.4,0.7c0,0.2,0,0.4,0,0.6c0.1,0,0.2,0,0.2,0
			c0-0.2,0-0.4,0-0.5C17.6,76,17.7,75.7,17.8,75.4z M15,79.8c0.7-0.1,0.9-0.4,0.9-1.1c-0.3,0.1-0.6,0.1-0.9,0.2
			c0.3,0.2,0.4,0.3,0.5,0.4C15.4,79.4,15.2,79.6,15,79.8z M167.4,91.4c-0.2,0.5-0.3,0.8-0.5,1.3c0.3-0.2,0.7-0.3,1-0.5
			C167.8,92,167.7,91.8,167.4,91.4z M36.9,121c0.1-0.1,0.1-0.2,0.2-0.3c-0.3-0.2-0.6-0.4-0.9-0.6c0,0.1-0.2,0.4-0.1,0.4
			C36.3,120.7,36.6,120.8,36.9,121z M56.9,19.2c-0.3-0.7-0.4-0.7-1.6,0.2C56,19.3,56.4,19.3,56.9,19.2z M70.9,163.9
			c-0.5,0-0.9-0.8-1.3,0c0.1,0.2,0.2,0.4,0.3,0.5C70.2,164.3,70.5,164.1,70.9,163.9z M103.9,160c0,0,0.1,0.1,0.1,0.1
			c0.3-0.1,0.7-0.2,1-0.4c0.1-0.1,0.1-0.3,0.2-0.4c-0.1,0-0.3-0.1-0.4,0C104.5,159.5,104.2,159.8,103.9,160z M123.7,155.3
			c0,0,0.1-0.1,0.1-0.1c-0.2-0.2-0.4-0.5-0.5-0.4c-0.3,0.1-0.5,0.3-0.7,0.5c-0.1,0.1,0.1,0.4,0.2,0.7c0.1-0.4,0.1-0.6,0.1-0.7
			C123.2,155.2,123.5,155.2,123.7,155.3z M129.6,154.7c0-0.4,0.1-0.8,0.1-1.2c-0.3,0.1-0.5,0.1-0.8,0.2c0.2,0.1,0.3,0.2,0.3,0.2
			C128.8,154.5,129.4,154.6,129.6,154.7z M97.4,14.6c-0.4-0.2-0.8-0.3-1.3-0.5C96.4,15,96.7,15.2,97.4,14.6z M28.6,147.3
			c-0.1,0.3-0.2,0.7-0.3,1.1c0,0,0.1,0.1,0.1,0.1c0.3-0.2,0.5-0.5,0.8-0.7c-0.1,0.1-0.2,0.2-0.3,0.2
			C28.8,147.7,28.7,147.5,28.6,147.3z M146.4,34.5c0,0,0.1,0.1,0.1,0.1c0.4-0.2,0.7-0.4,1.1-0.6c-0.1-0.2-0.2-0.3-0.4-0.6
			C146.9,33.8,146.7,34.2,146.4,34.5z M148.2,43.9c-0.4-0.7,0.1-1.1,0.7-1.5C147.7,42.6,147.6,42.8,148.2,43.9z M156.6,136.4
			c-0.8,0.2-0.7,0.6-0.6,1.1c0.3,0,0.6,0,0.9-0.1c0-0.1,0-0.1,0-0.2c-0.2-0.1-0.5-0.2-0.7-0.2C156.3,136.8,156.4,136.7,156.6,136.4z
			 M26.5,125.1c-0.3-0.2-0.6-0.3-0.9-0.4c-0.2,0.4-0.3,0.7-0.5,1C25.6,125.5,26,125.3,26.5,125.1z M149.6,124
			c-0.3-0.8-0.7-1.1-1.3-0.8C148.8,123.5,149.2,123.8,149.6,124z M102.6,9.5c-1.4,0.3-1.4,0.3-0.8,0.9C102,10.1,102.2,9.9,102.6,9.5
			z M140.6,141.3c0.3-0.1,0.7-0.2,1-0.2c-0.2-0.2-0.4-0.2-0.6-0.3c-0.2-0.1-0.3-0.3-0.4-0.5c-0.1,0-0.1,0-0.2,0.1
			C140.5,140.7,140.5,140.9,140.6,141.3z M157.2,118.7c0.6,0.1,1,0.2,1.6,0.3c-0.3-0.3-0.7-0.5-0.3-0.9
			C158.1,118.3,157.7,118.5,157.2,118.7z M17.4,62.2c-0.9-1.1-0.9-1.1-1.3-0.7C16.6,61.8,17,62,17.4,62.2z"/>
		<path class="st2" d="M94.5,86.5c-0.2,0.1-0.3,0.1-0.4,0.1c0.3,0.3,0.6,0.5,0.9,0.8c0,0-0.1,0.1-0.1,0.1c-0.3,0-0.5,0-0.8,0
			c0,0.1-0.1,0.1-0.1,0.2c0.2,0.2,0.5,0.3,0.7,0.5c0.2,0.2,0.5,0.4,0.5,0.6c0.1,1.7-0.2,3.4-0.6,5.1c-0.5,2.2-0.9,4.5-1.4,6.8
			c-0.1,0.3-0.4,0.6-0.6,0.9c0.2-0.1,0.4-0.1,0.5-0.2c-0.9,4.5-1.8,8.9-2.8,13.4c-0.1-0.1-0.2-0.2-0.3-0.3c-0.1,0.3-0.2,0.5-0.4,0.8
			c0.3-0.1,0.4-0.1,0.7-0.2c-0.8,2.8-1,5.6-1.9,8.3c-0.1,0-0.3,0-0.4,0c-1.3-6.6-2.6-13.1-3.8-19.7c0.2,0,0.3,0,0.4,0.1
			c0-0.1,0-0.1,0-0.1c-0.7-0.3-0.6-1-0.7-1.5c-0.3-1.4-0.5-2.9-0.8-4.3c-0.2-0.8-0.4-1.6-0.5-2.4c-0.2-0.8-0.3-1.7-0.5-2.5
			c0-0.2,0.2-0.4,0.2-0.4c-0.2-0.5-0.4-0.9-0.5-1.4c-0.3-1.5,0-3.4,0.7-4.7c0.5-0.1,0.9-0.2,1.4-0.3c-0.1-0.2-0.2-0.4-0.3-0.8
			c-0.3,0.3-0.5,0.6-0.7,0.9c0,0-0.1-0.1-0.1-0.1c0.1-0.2,0.2-0.4,0.3-0.6c1.1-1.3,2.4-2.2,4.1-2.5C87.6,83,88,83,88.4,83
			c0.2,0,0.3,0.2,0.4,0.2c0.3-0.1,0.6-0.3,0.8-0.2c2,0.4,3.7,1.4,4.8,3.2C94.4,86.3,94.5,86.4,94.5,86.5z M90.4,108.8
			c0-0.1,0-0.2,0-0.3c-0.5-0.1-1.1-0.3-1.7-0.4c0,0.2,0,0.4,0.1,0.6c0.4,0,0.7,0,1,0C90,108.7,90.2,108.7,90.4,108.8z M85.8,99.8
			c-0.3-0.5-0.5-0.8-0.7-1c-0.1,0-0.1,0-0.2,0c0,0.4,0.1,0.7,0.1,1.1C85.3,99.8,85.5,99.8,85.8,99.8z M85.5,92.9
			c0.1,0.2,0.2,0.3,0.3,0.5c0.2-0.2,0.4-0.4,0.7-0.6C86.1,92.4,86.1,92.4,85.5,92.9z M90.4,92.7c-0.1,0.2-0.3,0.4-0.6,0.9
			c0.6-0.1,1-0.2,1.2-0.3C90.9,93.2,90.7,92.9,90.4,92.7z"/>
	</g>
</g>
<g>
	<path class="st2" d="M565.3,83.5c0.2-0.2,0.5-0.3,0.9-0.7c-1,0-1.4-0.4-1.6-1.1c-1.7-5.1-2.5-10.4-2-15.7c0.3-4,1.2-7.8,2.7-11.5
		c1.7-4.1,3.7-8,7.1-11.1c0.3-0.3,0.6-1.1,1.4-0.1c-0.1-1.2,0.6-1.7,1.4-2.2c1.4-1,2.8-1.9,4.4-2.4c1-0.3,1.9-0.9,2.8-1.2
		c1-0.3,2.1-0.6,3.2-0.8c1.1-0.2,2.2-0.6,3.3-0.6c3,0.1,6-0.1,9,0.8c3.4,1,6.4,2.4,9.3,4.5c0.5,0.4,1.2,0.6,1.2,1.4
		c0,0.1,0.2,0.3,0.3,0.4c3.1,1.5,4.6,4.4,6.1,7.1c2.4,4.4,3.7,9.2,4.2,14.2c0.3,3.1,0,6.2-0.1,9.2c-0.1,1-0.3,2.1-0.5,3.1
		c-0.2,0.8-0.2,1.8-0.5,2.6c-0.4,0.9-0.6,1.9-0.9,2.8c-0.3,1-0.6,2-1.2,2.9c-1.1,1.7-1.7,3.8-3.3,5.3c-0.9,0.8-1.4,2-2.2,2.9
		c-3.1,3.2-6.7,5.7-11,6.9c-4.4,1.3-9,1.6-13.5,0.7c-6.6-1.2-12.2-4.3-16.1-9.9C567.7,88.9,566,86.5,565.3,83.5z M587.9,88.8
		c1,0,1.6,0,2.2,0c2,0.1,4-0.3,5.8-1.3c3.1-1.7,5.1-4.3,6.6-8c1.4-3.6,2.1-7.2,1.9-11c-0.2-5.3-1.1-10.4-4.4-14.8
		c-0.2-0.2-0.2-0.6-0.3-1c-0.4-0.2-0.9-0.6-1.4-0.9c-1.5-0.9-2.9-2.1-4.5-2.6c-1.8-0.6-3.8-0.7-5.7-0.2c-2.7,0.7-5.1,1.9-6.6,4.4
		c-0.7,1.1-1.7,1.9-2.1,3.3c-1.1,3.2-2.1,6.3-2.2,9.7c0,0.4-0.4,0.9-0.6,1.2c0.1,0.3,0.4,0.7,0.4,1.1c0.4,2.5,0.6,5.1,1.1,7.6
		c0.6,3,1.8,5.7,3.9,8c0.5,0.6,0.9,1.2,1.3,1.8c0.3,0.4,0.7,0.8,1.2,0.9C585.9,87.4,587,88.1,587.9,88.8z M599.9,89.8
		c-1.2-0.5-1.4,0.5-1.9,1C598.5,90.5,599.1,90.2,599.9,89.8z M572.7,47.2c0.3-0.5,0.6-0.9,0.9-1.4C572.7,45.8,572.7,45.8,572.7,47.2
		z M611.5,71.3c0.2,0.1,0.4,0.1,0.6,0.2c0.1-0.5,0.2-0.9,0.3-1.4c-0.1,0-0.2-0.1-0.3-0.1C611.9,70.4,611.7,70.9,611.5,71.3z
		 M597.2,92.3c0.2,0.4,0.4,0.7,0.6,0.9c0.1-0.1,0.2-0.2,0.3-0.2c0-0.3,0-0.7,0-1.1C597.7,92.1,597.5,92.2,597.2,92.3z M610.9,90.5
		c0.1,0,0.3,0,0.4,0c0.2-0.4,0.5-0.7-0.4-1C610.9,89.9,610.9,90.2,610.9,90.5z M569.4,85.2c-0.1-0.1-0.2-0.1-0.3-0.2
		c-0.2,0.4-0.5,0.7-0.7,1.1c0.1,0.1,0.2,0.1,0.3,0.2C569,85.9,569.2,85.5,569.4,85.2z M608.9,60.1c-0.4-0.1-0.7-0.2-1.1-0.3
		c0.2,0.4,0.3,0.6,0.4,0.9C608.4,60.5,608.6,60.3,608.9,60.1z M573.2,78c0.1,0.6,0.2,1,0.2,1.4C573.7,79,574.2,78.5,573.2,78z"/>
	<path class="st2" d="M473.5,36.1c1.7,0.2,3-0.3,3.9,1c0.1,0.1,0.4,0.1,0.5,0.1c0.7-1,1.6-0.3,2.3-0.1c2.3,0.8,4.5,1.7,6.6,2.6
		c0.4,0.2,0.6,0.7,0.9,1.1c0.1,0.1,0.3,0.3,0.3,0.3c0.7-0.4,1.1,0.1,1.5,0.5c1.1,1,2.4,1.8,3.1,3.1c0.5,0.8,1.3,0.9,1.8,1.6
		c1.7,2.3,3.2,4.8,4.1,7.5c1.1,3.1,1.9,6.2,2.6,9.4c0.4,2.2,0.4,4.4,0.4,6.6c0,3.4-0.6,6.7-1.5,10c-0.4,1.5-0.9,3-1.6,4.4
		c-1.6,3.3-3.3,6.6-5.8,9.3c-1.9,2.1-4.1,3.8-6.6,5.2c-0.3,0.2-0.8,0.5-1.1,0.4c-0.7-0.3-0.8,0.2-1.1,0.5c-0.5,0.3-1,0.7-1.5,0.8
		c-2.4,0.6-4.8,1.3-7.4,1.4c-4.7,0.2-9.1-0.5-13.3-2.5c-4.7-2.2-8.4-5.5-11.2-9.9c-0.9-1.4-1.7-2.8-2.2-4.4
		c-0.6-1.8-1.7-3.4-1.9-5.4c-0.2-1.9-0.7-3.8-1-5.7c-0.1-0.4-0.3-0.8,0.3-1c0.1,0,0.2-0.4,0.1-0.4c-1.2-1.1-0.6-2.5-0.7-3.7
		c-0.2-1.4,0.1-2.8,0.2-4.2c0.2-1.5,0.4-2.9,0.7-4.3c0.3-1.4,0.6-2.8,1.1-4.1c0.4-1.3,1-2.7,1.6-3.9c2-4.2,4.8-7.7,8.5-10.6
		c3.1-2.4,6.7-3.9,10.5-4.8C469.7,36.3,471.9,36.2,473.5,36.1z M487.3,66.8c-0.6-0.6-0.8-2-0.4-2.8c0.1-0.1,0.1-0.3,0.1-0.4
		c-0.7,0.1-0.5-0.4-0.6-0.8c-0.9-3.4-2-6.6-4.2-9.4c-2.3-2.9-5.3-4.4-8.9-4.6c-3.4-0.1-6.4,1.5-8.8,3.7c-1.3,1.1-2,3-2.7,4.6
		c-1.2,2.7-1.9,5.5-2.1,8.5c0,0.4-0.3,0.8-0.3,1.2c0,0.7,0.3,1.4,0.3,2c0,2.2,0.1,4.4,0.6,6.6c0.2,0.7,0,1.5,0.2,2.1
		c1,1.9,2,3.8,3.1,5.7c0.5,0.9,1,1.8,1.4,2.5c0.3,0.1,0.7,0.1,0.9,0.3c1.3,0.8,2.6,1.9,4,2.4c1.3,0.4,2.8,0.3,4.1,0.2
		c4.6-0.3,7.7-2.9,9.8-6.8c2.4-4.3,3-8.9,3-13.7C486.9,67.8,487.1,67.4,487.3,66.8z M449.3,75c0.1,0.1,0.2,0.2,0.3,0.3
		c0.3-0.2,0.6-0.4,1-0.7c-0.4-0.3-0.6-0.5-1-0.8C449.4,74.2,449.3,74.6,449.3,75z M489.3,52.1c-0.1,0-0.2-0.1-0.3-0.1
		c-0.2,0.4-0.3,0.8-0.5,1.3c0.4,0,0.7,0,1.1,0C489.4,52.8,489.4,52.5,489.3,52.1z M489.6,73.4c-0.4-0.3-0.7-0.5-1-0.7
		c-0.1,0.4-0.2,0.7-0.3,1.1C488.8,73.6,489.1,73.5,489.6,73.4z M452.5,50.8c0.2,0,0.3,0,0.5,0c0-0.4,0-0.9,0-1.3c-0.1,0-0.2,0-0.3,0
		C452.6,49.9,452.6,50.4,452.5,50.8z M479.5,95.2c0,0.2,0,0.4,0,0.5c0.4,0,0.9,0,1.3,0.1c0-0.1,0-0.2,0-0.2
		C480.4,95.4,479.9,95.3,479.5,95.2z M469.7,45.6c-0.4-0.5-0.6-0.7-0.9-1c-0.2,0.4-0.3,0.6-0.5,0.9
		C468.8,45.5,469.1,45.6,469.7,45.6z M470.5,38.2c0.5-0.3,0.8-0.4,1.3-0.7C471,37.1,470.5,36.9,470.5,38.2z M466,39.2
		c-1.1-0.1-0.7,0.4-0.7,1C465.6,39.9,465.8,39.6,466,39.2z M479.7,91.5c-0.1,0-0.2-0.1-0.3-0.1c-0.1,0.4-0.3,0.7-0.4,1.1
		c0.1,0,0.2,0.1,0.2,0.1C479.4,92.2,479.6,91.9,479.7,91.5z M471.8,42.5c0,0.1,0,0.2,0,0.3c0.3,0,0.7-0.1,1-0.1c0-0.1,0-0.2,0-0.3
		C472.5,42.5,472.1,42.5,471.8,42.5z M499.4,75.3c-0.1,0-0.1,0-0.2,0c-0.1,0.4-0.1,0.8-0.2,1.2c0.1,0,0.3,0,0.4,0
		C499.4,76.1,499.4,75.7,499.4,75.3z"/>
	<path class="st2" d="M298.5,91.9c0.5-0.1,0.8-0.1,1.2-0.2c-1.4-0.6-3.1-0.9-2.5-3c-0.3-0.1-0.8,0-0.9-0.2c-0.7-1.4-1.4-2.9-2.1-4.4
		c-0.1-0.2,0.2-0.6,0.1-0.6c-1.7-1.6-1.7-3.8-2.2-5.8c-1-4.2-1.4-8.4-0.8-12.7c0.3-2.3,0.1-4.8,1.5-6.8c0.5-4.2,2.6-7.8,5-11.2
		c3.2-4.5,7.4-7.7,12.6-9.4c2-0.7,4.2-1.3,6.3-1.3c3.5,0,7-0.3,10.4,0.9c0.6,0.2,1.5,0.1,1.6,1.1c0,0.1,0.3,0.2,0.4,0.2
		c0.9-0.4,1.6,0.1,2.3,0.5c3.9,1.9,7.1,4.6,9.6,8.1c2.1,3,3.9,6.3,4.7,9.9c0.3,1.4,1.3,2.8,0.7,4.4c1,0.8,0.7,2,0.8,3.1
		c0.6,4.8,0.3,9.6-0.9,14.2c-0.5,2-1.3,4-2.1,5.9c-0.6,1.5-1.3,3-2.2,4.4c-0.7,1-1.1,2.1-1.9,3c-1,1-1.8,2-2.8,2.9
		c-1,0.9-2,1.7-3.1,2.4c-1.1,0.7-2.2,1.4-3.4,1.9c-4.4,2.2-9.2,2.8-14,2.5c-4.4-0.3-8.5-1.7-12.3-4.2
		C302.4,95.9,300.6,93.9,298.5,91.9z M318.2,88.9c6.7-0.1,10-2.8,12.6-8.2c1.4-3,2.3-6.2,2.3-9.6c0-1.4,0.2-2.8,0-4.1
		c-0.2-2.4-0.5-4.8-1.2-7.2c-0.3-1.2-1-2.2-1.4-3.3c-0.3-0.8-0.6-1.4-1.2-2c-0.8-0.8-1.7-1.7-2.2-2.7c-0.3-0.6-0.4-1.1-1.2-1
		c-0.1,0-0.1-0.2-0.2-0.2c-2-1.3-4.2-1.9-6.5-1.7c-4.9,0.4-8.4,2.9-10.8,7.6c-1.3,2.6-2,5.4-2.3,8.4c-0.7,6.5,0.2,12.6,3.6,18.3
		c0.6,0.9,1.3,1.7,2.1,2.4c1.7,1.5,3.6,2.6,5.9,3.1c0.1,0,0.2,0.2,0.4,0.4c-0.3,0.3-0.5,0.5-0.8,0.7c0.4,0.2,0.7,0.4,1.2,0.6
		C318.2,89.9,318.2,89.5,318.2,88.9z M300,74c0.5,0.3,0.9,1.3,1.8,0.4C301.1,74.3,300.5,74.2,300,74z M296,70.5
		c-0.1,0.1-0.3,0.2-0.4,0.2c0,0.6,0.1,1.2,1.2,1C296.5,71.2,296.2,70.9,296,70.5z M338.5,88.9c-0.1-0.1-0.2-0.2-0.3-0.3
		c-0.2,0.3-0.4,0.6-0.6,0.9c0.1,0,0.1,0.1,0.2,0.1C338,89.4,338.2,89.2,338.5,88.9z M297.5,55.1c0.1-0.1,0.1-0.2,0.2-0.4
		c-0.2-0.1-0.5-0.1-0.7-0.2c0,0-0.1,0.2-0.1,0.2C297,54.9,297.2,55,297.5,55.1z M332.9,88.4c0.1-0.1,0.3-0.3,0.3-0.4
		c0-0.1-0.2-0.2-0.3-0.3c-0.1,0.1-0.3,0.3-0.4,0.4C332.6,88.2,332.7,88.3,332.9,88.4z M312.8,46.2c-0.1,0-0.1-0.1-0.2-0.1
		c-0.1,0.2-0.3,0.5-0.4,0.7c0.1,0,0.2,0.1,0.3,0.1C312.5,46.8,312.7,46.5,312.8,46.2z M330.2,95.1c0.1-0.1,0.1-0.3,0.2-0.4
		c-0.3-0.1-0.6-0.1-0.9-0.2c0,0.1-0.1,0.2-0.1,0.3C329.7,94.8,330,94.9,330.2,95.1z M338.5,74.8c-0.3-0.6-0.6-0.7-1.1,0
		C337.8,74.8,338.1,74.8,338.5,74.8z"/>
	<path class="st2" d="M410.7,56.7c1.1,0.2,1.3,0.8,1.4,1.5c0.4,2.6,0.8,5.2,1.2,7.8c0.1,0.9,0.2,1.8,0.2,2.8c0,0.4-0.2,0.7-0.3,1.1
		c-0.1,0.2-0.2,0.3-0.2,0.4c0.9,2.8,0.1,5.5-0.6,8.1c-0.8,3.3-1.7,6.6-3.7,9.4c-0.4,0.5-0.9,0.9-1.5,1.5c0.1,0.8-0.1,1.7-1.4,2
		c-0.2,0-0.4,0.1-0.4,0.3c-0.5,2.5-2.7,3.4-4.4,4.9c-1.7,1.5-3.6,2.4-5.6,3.3c-2.7,1.2-5.5,1.7-8.4,1.8c-2.9,0.1-5.8,0.1-8.6-0.7
		c-0.6-0.2-1.2-0.6-2.1-1c-0.2,0-0.8,0.2-1.2,0c-1.3-0.8-2.8-0.9-3.9-1.9c-1.2-0.9-2.4-1.8-3.6-2.7c-3-2.5-5.2-5.7-7-9.2
		c-0.2-0.5-0.4-0.9,0.2-1.2c-0.4-0.3-1-0.6-1.1-1c-0.7-2.5-1.3-5.1-2.1-7.6c-0.2-0.7,0.6-1.4-0.1-2.2c-0.4-0.5-0.2-1.5-0.4-2.3
		c-0.4-2.7-0.2-5.3,0.1-8c0.4-2.7,0.9-5.4,1.9-8c1.2-3.3,2.6-6.5,4.8-9.2c2.2-2.7,4.6-5.2,7.7-6.9c3.2-1.8,6.6-2.8,10.2-3.2
		c3.7-0.5,7.4-0.4,11,0.7c3.6,1.2,7,2.7,9.9,5.4c1.8,1.6,3.4,3.2,4.7,5.2c1.5,2.5,3.1,5,3.9,7.8C411.5,56,411.6,56.4,410.7,56.7z
		 M371.5,68.3c-0.2,3.6,0.5,7,1.6,10.3c1.2,3.5,3,6.5,6.2,8.5c1.1,0.7,2.2,1.3,3.6,1.6c2.7,0.4,5.3,0.1,7.7-1.2
		c2.7-1.5,4.6-3.8,5.9-6.6c1.5-3.2,2.4-6.5,2.5-10.1c0-0.5,0.2-1,0.2-1.5c-0.2-2-0.5-4.1-0.9-6.1c-0.6-3.4-1.5-6.6-4.2-9.9
		c-3.3-4-8.4-5.8-13.4-3.4c-1.5,0.7-3,1.5-4.1,2.6c-1.1,1.2-1.9,2.8-2.6,4.3C372.2,60.5,371.6,64.4,371.5,68.3z M383.4,92
		c-0.5-0.8-0.8-1.4-1.7-1.4C381.9,91.5,382.5,91.7,383.4,92z M371.5,42.7c1.1,0.4,1.1,0.4,1.2-0.4C372.4,42.4,372,42.5,371.5,42.7z
		 M407.3,67c-0.8-0.8-1-0.4-1.2,0.2c0,0.1,0.1,0.2,0.2,0.3C406.5,67.4,406.8,67.2,407.3,67z M402.6,80.9c0-0.1,0.1-0.3,0.1-0.4
		c-0.4,0-0.7-0.5-1.5-0.1C401.9,80.6,402.3,80.7,402.6,80.9z M379.2,41c0.3-0.5,0.5-0.7,0.5-0.9c0-0.2-0.2-0.4-0.5-0.7
		C379.2,40,379.2,40.3,379.2,41z M372.4,97.2c0.8,0.3,0.8,0.3,1.3-0.4C373.1,97,372.7,97.1,372.4,97.2z M368.9,73.6
		c-0.5,0.5-0.6,0.9,0,1.6C368.9,74.5,368.9,74.1,368.9,73.6z M368.3,78.6c-0.2-0.2-0.4-0.4-0.5-0.4c-0.2,0-0.4,0.2-0.4,0.3
		c0,0.2,0.2,0.3,0.3,0.5C367.9,78.9,368,78.8,368.3,78.6z M405.1,88.8c-0.6,0.4-1,0.7-0.1,1.2C405,89.5,405,89.2,405.1,88.8z
		 M387.5,40.5c0.1,0,0.2,0,0.3,0c0-0.3,0.1-0.6,0.1-0.8c0,0-0.3,0-0.5-0.1C387.4,40,387.5,40.3,387.5,40.5z M361.9,52.9
		c0.1,0.1,0.1,0.1,0.2,0.2c0.3-0.2,0.5-0.4,0.8-0.6c-0.1-0.1-0.1-0.2-0.2-0.3C362.4,52.4,362.1,52.6,361.9,52.9z M391.6,42.7
		c0.2,0.2,0.3,0.3,0.3,0.3c0.3-0.2,0.6-0.5,0.8-0.7c-0.1-0.1-0.1-0.2-0.2-0.3C392.2,42.2,391.9,42.5,391.6,42.7z M367.3,72.1
		c0-0.1-0.1-0.2-0.1-0.2c-0.3,0.1-0.5,0.2-0.8,0.3c0.1,0.1,0.2,0.3,0.3,0.4C366.9,72.4,367.1,72.3,367.3,72.1z M402.8,87.8
		c0.1,0.1,0.3,0.2,0.4,0.3c0.1-0.3,0.3-0.5,0.4-0.8c0,0-0.2-0.2-0.3-0.2C403.2,87.4,403,87.6,402.8,87.8z M370.9,66.9
		c-0.1,0-0.3-0.1-0.4-0.1c-0.1,0.2-0.2,0.3-0.1,0.5c0,0.2,0.1,0.4,0.3,0.9C370.8,67.5,370.8,67.2,370.9,66.9z M362,82.5
		c-0.2-0.1-0.4-0.3-0.4-0.3c-0.2,0.1-0.3,0.3-0.4,0.5c0,0,0.3,0.3,0.3,0.3C361.6,82.8,361.8,82.6,362,82.5z M372.7,80.3
		c-0.9-0.8-0.9-0.8-1.4-0.1C371.7,80.3,372.1,80.3,372.7,80.3z M407.8,71.8c0.1-0.1,0.2-0.2,0.2-0.2c-0.1-0.1-0.2-0.3-0.3-0.4
		c-0.1-0.1-0.3-0.1-0.8-0.2C407.4,71.5,407.6,71.6,407.8,71.8z"/>
	<path class="st2" d="M262,37.7c0.4-0.1,0.9-0.4,1.5-0.5c1.3-0.1,2.6-0.1,3.9,0c0.5,0,1.1,0.3,1.6,0.3c0.5,0,1-0.3,1.6-0.4
		c0.2,0.5,0.3,0.9,0.4,1.3c0.1,0,0.2,0,0.3,0c0.1-0.4,0.2-0.7,0.3-1.2c1.9,0,3.8,0,5.7,0c0.9,0,1.2,0.5,1.2,1.4
		c0,1.9-0.1,3.9-0.1,5.8c0,0.5,0.2,1,0.1,1.4c-0.1,0.4-0.3,0.8-0.6,1.3c0.1,0.1,0.4,0.4,0.5,0.8c0.3,1-0.2,1.6-1.2,1.6
		c-2.8,0-5.5,0.2-8.3-0.1c-2.3-0.3-4.6,0.2-6.8,0c-2.7-0.3-5.4,0.1-8.2,0c-1.7-0.1-2.2,0.3-2.4,2c-0.2,2.2-0.4,4.4-0.5,6.7
		c0,0.6,0.2,1.2,0.3,1.6c3.4-0.2,6.5-0.5,9.7-0.4c5.6,0.1,10.8,1.6,15,5.5c2.9,2.8,4.5,6.4,5,10.5c0.5,3.5,0.3,7-0.4,10.5
		c-0.3,1.2-0.7,2.4-1.2,3.5c-1.5,3.1-3.5,5.9-6.4,7.9c-0.9,0.6-2,1-3,1.6c-1,0.6-2.2,0.9-3.3,1.3c-1.2,0.4-2.4,0.6-3.6,0.8
		c-0.4,0.1-0.9-0.2-1.5-0.3c-0.1,0.1-0.4,0.6-0.7,0.7c-4.4,0.3-8.8,0.5-13-0.8c-5-1.5-9.7-3.8-13.4-7.6c-0.2-0.2-0.6-0.3-0.9-0.5
		c1-1.5,1.8-3,3-4.3c1-1.1,1.8-2.3,2.8-3.3c0.4-0.4,1-0.7,1.5-1.1c0.1-0.3,0.2-0.9,0.6-1.2c0.5-0.4,1-0.1,1.4,0.3
		c1.1,0.8,2.2,1.6,3.2,2.4c0.3,0.2,0.4,0.6,0.6,1c1.1-0.3,1.9,0.6,2.9,1c4.1,1.8,8.4,2.4,12.6,0.6c3.7-1.6,5.4-4.8,5.1-8.4
		c-0.3-4-3.2-6.3-6.5-7.2c-4.4-1.3-8.6-0.6-12.8,0.9c-1.9,0.7-3.5,0.6-4.8-0.8c-0.7-0.7-2.1-0.7-2.3-2c0-0.1-0.3-0.2-0.4-0.2
		c-0.9,0.2-1.7-0.3-2.1-0.9c-0.5-0.6-0.8-1.5-0.8-2.3c0.1-3.6,0.4-7.1,0.7-10.7c0.1-0.8,0.1-1.6,0.2-2.4c0.2-4.8,0.4-9.6,0.6-14.4
		c0.1-1.8,0.4-2,2.1-2c3.3,0,6.7,0.1,10,0.1c2.8,0,5.7-0.2,8.5-0.2C260.6,37.2,261.2,37.5,262,37.7z M244.6,67.1
		c-0.1,0.1-0.2,0.2-0.3,0.3c0.4,0.3,0.7,0.6,1.1,0.9c0.1-0.1,0.1-0.2,0.2-0.3C245.2,67.7,244.9,67.4,244.6,67.1z M256.7,59.6
		c-0.1,0.1-0.2,0.2-0.3,0.3c0.2,0.4,0.3,0.9,1.3,0.6C257.3,60.2,257,59.9,256.7,59.6z M245.7,45c-0.1,0-0.2-0.1-0.2-0.1
		c-0.2,0.3-0.3,0.6-0.5,0.9c0.1,0.1,0.2,0.1,0.4,0.2C245.4,45.6,245.6,45.3,245.7,45z M273.2,80.5c1,0,1,0,1.3-0.5
		C274.1,80.1,273.7,80.3,273.2,80.5z M262.7,46.3c-0.5-0.3-0.9-0.5-1.5-0.8C261.5,46.4,261.9,46.7,262.7,46.3z M279.5,77.7
		c0-0.1-0.1-0.2-0.1-0.2c-0.2,0-0.3,0-0.5,0c-0.2,0.1-0.3,0.2-0.5,0.3c0.1,0.1,0.1,0.2,0.2,0.3C278.9,77.9,279.2,77.8,279.5,77.7z
		 M244.9,41.6c0-0.1,0-0.2,0-0.3c-0.3,0-0.6,0-0.8,0c0,0.1,0,0.2,0,0.3C244.3,41.6,244.6,41.6,244.9,41.6z M248.8,98.2
		c0.1,0,0.3,0,0.4,0c0-0.3-0.1-0.5-0.1-0.8c0,0-0.3,0-0.3,0C248.7,97.7,248.8,98,248.8,98.2z M243.2,50.6c-0.2-0.2-0.4-0.4-0.4-0.4
		c-0.2,0-0.3,0.2-0.5,0.3c0.1,0.1,0.2,0.3,0.3,0.3C242.7,50.9,242.9,50.8,243.2,50.6z"/>
	<path class="st2" d="M547.8,61.4c-0.2,0.7-0.2,1.2-0.5,1.7c-1.7,3.1-3,6.3-5.2,9.1c-0.2,1.8-1.4,3.1-2.2,4.6
		c-2.4,4.6-4.9,9-7.4,13.6c-0.2,0.4-0.3,0.8-0.5,1.1c-0.4,0.5-0.9,0.9-1.4,1.5c0,0.2,0.2,0.7,0.1,1c-0.8,1.7-1.8,3.3-2.6,5
		c-0.5,1.1-1.4,1.6-2.5,1.6c-1.9,0-3.9,0-5.8,0c-0.4,0-1,0.1-1-0.6c-1,0.7-4.3,0.9-7,0.4c0.2-1.5,1-2.8,1.8-3.9c1-1.3,1.4-3,2.3-4.3
		c0.3-0.5,0.3-1.4,1.2-1.3c0.1,0,0.2-0.1,0.2-0.2c-0.2-2,1.3-3.2,2.1-4.7c1-1.8,1.9-3.6,2.9-5.3c0.5-0.9,0.9-2,1.8-2.6
		c0.3-2.4,2-4.1,3-6.2c0.4-0.9,0.6-2.2,1.9-2.6c0.1,0,0.1-0.2,0.1-0.2c-0.3-1,0.4-1.5,0.8-2.2c1-2,2-4,3.2-5.8
		c1.1-1.7,1.8-3.6,2.9-5.3c1-1.7,1.9-3.5,2.8-5.3c0.1-0.1,0.1-0.3,0.2-0.6c-1.2-0.5-2.4-0.3-3.6-0.3c-0.7,0-1.5,0.1-1.7-1
		c-0.1,1-0.6,1.1-1.3,1.1c-1.9,0-3.9,0-5.8,0c-3.2,0-6.3,0-9.5,0c-1.9,0-3.9-0.1-5.8,0c-0.8,0-1.2-0.4-1.3-1.1
		c-0.1-0.7-0.3-1.5-0.1-2.1c0.4-0.9-0.5-2,0.4-2.8c0.1-0.1-0.4-0.6-0.5-1c-0.1-1.3-0.1-2.6,0-3.9c0.1-1.2,0.4-1.5,1.7-1.5
		c4.3,0,8.6-0.1,12.9,0c1.5,0.1,2.9-0.1,4.4-0.1c1.6,0.1,3.2,0,4.8,0c1.5,0,3.1,0,4.6,0c5.1,0,10.2,0,15.3,0c1.8,0,2.1,0.3,2.1,2.2
		c0,2.1,0.1,4.1,0,6.2c-0.1,1.3-0.4,2.7-1,3.9c-1.9,3.7-3.9,7.4-5.9,11C548.5,60.9,548,61.2,547.8,61.4z M517.3,93.6
		c-0.5,0.7-0.8,1.1-1.2,1.7C517.1,95,517.1,94.4,517.3,93.6z M539.4,72.8c1-0.4,0.5-0.7,0-1.3C539.4,72.1,539.4,72.4,539.4,72.8z
		 M545.2,50.8c-0.3-0.8-0.4-1.2-1.1-0.8c-0.1,0.1-0.2,0.3-0.3,0.5C544.3,50.6,544.6,50.7,545.2,50.8z M530.4,38.5
		c0.1-0.1,0.2-0.2,0.4-0.2c-0.2-0.3-0.4-0.6-0.6-0.9c-0.1,0.1-0.2,0.1-0.3,0.2C530,38,530.2,38.2,530.4,38.5z M554.9,46.7
		c0-0.1,0.1-0.2,0.1-0.3c-0.3-0.1-0.5-0.2-0.8-0.4c-0.1,0.1-0.1,0.3-0.2,0.4C554.3,46.5,554.6,46.6,554.9,46.7z M546.2,46.3
		c-0.1,0-0.3,0.1-0.4,0.1c0.1,0.3,0.2,0.6,0.4,0.9c0.1,0,0.2-0.1,0.3-0.1C546.4,46.9,546.3,46.6,546.2,46.3z M516.6,40.6
		c-0.1,0.1-0.2,0.1-0.3,0.2c0.3,0.3-0.1,0.9,1,0.8C517,41.2,516.8,40.9,516.6,40.6z M535.5,76.1c0.1,0.1,0.1,0.2,0.2,0.3
		c0.3-0.2,0.7-0.4,1-0.6c0-0.1-0.1-0.1-0.1-0.2C536.2,75.8,535.8,75.9,535.5,76.1z M524.1,80.2c0.1-0.1,0.2-0.1,0.3-0.1
		c-0.1-0.1-0.1-0.3-0.2-0.4c-0.1,0-0.3,0.1-0.4,0.1C524,79.9,524.1,80.1,524.1,80.2z"/>
	<path class="st2" d="M418.8,109.7c2-0.8,3.8-1.3,5.4-2.3c2.3-1.4,3.5-3.5,3.2-6.4c-1.6-1-3.5-0.2-5.3-0.9c-0.7-2.3-0.3-4.7-0.3-7.1
		c0-2.3,0.2-4.6,0.3-7.1c0.9,0,1.6-0.1,2.2-0.1c3.4,0,6.8,0,10.2,0c1.8,0,1.9,0.1,2,1.9c0,2.4-0.1,4.8-0.1,7.1c0,0.5,0,0.9,0,1.4
		c0.2,4.3,0.2,8.6-2.2,12.4c-1.5,2.3-3.4,4.4-6.4,4.9c-1.8,1.5-4,1.1-6,1.5c-1.6,0.3-2.1-0.1-2.4-1.7
		C419.2,112.2,419,110.9,418.8,109.7z M431.6,105.1c-0.1,0.1-0.2,0.1-0.3,0.2c0.2,0.3,0.4,0.7,0.6,1c0,0.1,0.3,0,0.6,0
		C432.1,105.8,431.8,105.4,431.6,105.1z"/>
</g>
<g>
	<path class="st2" d="M314,130.1c-0.3,0.2-0.5,0.5-0.8,0.7c-0.3-0.8-1.4-1.5-2.1-1.3c-1.2,0.3-1.8,1.2-1.8,2c0,1.6-0.1,3.3-0.2,4.9
		c0,0.2-0.3,0.5-0.5,0.8c0,0,0.3,0.1,0.5,0.3c0,0.4,0,0.9,0,1.6c-1,0-2.1,0.1-3.1,0.1c-0.2,0-0.4-0.4-0.5-0.8
		c0.3,0.1,0.6,0.2,0.9,0.3c0-0.1,0.1-0.2,0.1-0.3c-0.3-0.2-0.7-0.4-1-0.6c0-1.4,0-2.8,0-4.3c0.1,0,0.3,0,0.6-0.1
		c-1.3-0.7-0.5-1.1,0.4-1.4c-0.1,0-0.2-0.1-0.3-0.1c-0.2,0.1-0.4,0.2-0.7,0.3c0-0.6,0-1.1,0-1.6c0.5,0.3,0.9,0.2,1-0.4
		c0-0.2,0-0.5,0-0.8c-0.1,0-0.3,0-0.3,0c-0.1,0.2-0.1,0.4-0.1,0.6c-0.5-0.6-1-2.8-0.5-3.4c0.4-0.5,0.9-0.6,1.5-0.3
		c0.1,0.1,0.4,0.2,0.4,0.1c0.8-0.7,1.3,0,1.7,0.5c0.3,0.4,0.5,0.5,1,0.2c2.3-1.5,3.9-1.4,6,0.3c0.5,0.4,0.8,0.3,1.2-0.1
		c2.1-1.7,4.2-1.7,6.3-0.3c0.9,0.5,1.1,1.4,0.8,2c0.7,0.3,0.7,0.4,0.6,2.8c-0.2,0-0.4-0.1-0.6-0.1c0,0.1-0.1,0.2-0.1,0.2
		c0.3,0.2,0.5,0.3,1,0.6c-0.1,0.2-0.2,0.7-0.3,1.1c0.1,0.3,0.3,0.8,0.4,1.3c-0.3,0-0.5,0-0.6,0c0.2,0.3,0.4,0.6,0.4,0.9
		c0,0.9-0.1,1.8-0.2,2.7c0,0.5-0.3,0.8-0.8,0.8c-0.7,0-1.4,0-2.1,0c-0.6,0-0.8-0.4-0.7-0.9c0-1.4,0-2.7,0-4.1c0-1-0.1-2-0.2-3.1
		c0-1.2-1.8-2.2-2.9-1.5c-0.4,0.3-0.9,0.2-1.6,0.4c0.1,0.2,0.3,0.4,0.5,0.6c0,0,0.1-0.1,0.1-0.1c0,0.6-0.1,1.1-0.1,1.7
		c-0.4,0.1-0.8,0.3-1.4,0.5c0.5,0.3,0.9,0.4,1.4,0.7c-0.5,0.1-0.8,0.2-1.2,0.3c1.1,0,1.1,0.6,1.1,1.4c-0.1,0.7,0,1.4,0,2.1
		c0,0.3-0.2,0.6-0.2,0.8c0,0.2,0.1,0.5,0.2,0.8c-0.1,0-0.3,0.2-0.5,0.2c-0.6,0-1.3,0-1.9,0c-1.1,0-1.2-0.1-1.2-1.2
		c0-1.5,0-3.1,0-4.6c0-0.6,0.3-1.3-0.1-1.9c-0.1-0.1,0.2-0.4,0.3-0.6c0.2-0.2,0.4-0.3,0.6-0.5C314.1,130.3,314.1,130.2,314,130.1z
		 M306.5,128.1c0,0.1,0.1,0.2,0.1,0.3c0.4-0.1,0.9-0.1,1.5-0.2c-0.2-0.2-0.4-0.6-0.6-0.6C307.2,127.7,306.8,127.9,306.5,128.1z"/>
	<path class="st2" d="M408.3,126.5c0.9-0.4,1.8-0.3,2.8-0.1c1.2,0.2,1.1,1,1.3,1.7c0.5,1.6,0.9,3.2,1.3,4.8c0.1,0,0.2,0,0.3,0
		c0.1-0.4,0.3-0.7,0.4-1.1c0.5-1.6,1-3.2,1.6-4.8c0.1-0.3,0.4-0.5,0.7-0.6c0.4-0.1,0.9-0.2,1.4-0.2c1-0.1,1.5,0.4,1.8,1.3
		c0.3,1.2,0.6,2.5,0.9,3.7c0.2,0.7,0.7,1.3,1.1,2.1c0.3-0.9,0.6-1.8,0.8-2.6c0.3-1,0.5-2.1,0.8-3.1c0.3-1.2,0.7-1.4,1.9-1.4
		c0.7,0,1.4,0.1,2.1,0.2c-0.1,0.1-0.1,0.2-0.2,0.3c0,0.2,0.1,0.4,0.1,0.6c-0.1,0.4-0.1,0.9-0.3,1.3c-0.3,1.1-0.7,2.3-1.1,3.4
		c-0.2,0.4-0.5,0.8-0.7,1.1c0,0.3,0.1,0.7,0,1c-0.3,1.3-0.7,2.5-1.1,3.8c-0.4,1.2-1,1.7-2,1.6c0-0.2-0.1-0.3-0.1-0.5
		c-0.2,0-0.3,0-0.4,0.1c-0.7,0.6-1.5,0.4-1.8-0.5c-0.1-0.5-0.3-1-0.4-1.5c0,0,0-0.1,0-0.1c0.4-0.9-0.4-1.4-0.7-2
		c0.3-0.1,0.6-0.2,1-0.4c-0.9-0.1-0.9-0.1-2.1-2.4c-0.4,1.3-0.9,2.4-1.2,3.6c-0.3,0.8-0.5,1.7-0.7,2.5c-0.2,0.8-0.7,1.2-1.6,1.1
		c-0.2,0-0.5,0-0.7,0c-1.6,0-2.2-0.7-2.1-2.4c0-0.2-0.3-0.5-0.4-0.7c-0.3-0.7-0.6-1.5-0.7-2.2c-0.1-0.8-0.6-1.4-0.7-2.1
		C409.4,130.1,408.3,128.5,408.3,126.5z"/>
	<path class="st2" d="M587.1,132.6c-0.4,0-0.5,0-0.7,0c0.1,0.4,0.2,0.7,0.3,1.2c0.1-0.3,0.1-0.4,0.1-0.6c0,0,0.1,0,0.1,0
		c0,1.2,0,2.3,0,3.5c0,0.6,0,1.1,0,1.7c0,0.5-0.3,0.7-0.7,0.8c-0.7,0.1-1.4,0.1-2,0c-0.5-0.1-0.9-0.5-1.6-0.9
		c-0.5,0.2-1.3,0.8-2.1,0.9c-0.8,0.2-1.7,0.7-2.5-0.2c-1,0.3-1.7-0.4-2.4-0.8c-0.8-0.5-1.4-1.2-1.5-2.3c0-0.5-0.6-0.9-0.7-1.4
		c-0.3-1.8-0.3-3.6,0.5-5.3c0-0.1,0-0.2,0.1-0.2c0.8-0.2,0.8-1.2,1.4-1.6c1-0.6,1.9-1.4,3.1-1.5c1.3-0.1,2.5,0.2,3.6,0.9
		c0.2,0.1,0.5,0.3,1,0.5c0-1.7,0.1-3.2,0.1-4.7c0-1.1,0.2-1.2,1.3-0.9c0.3,0.1,0.6-0.2,1-0.3c1.4-0.1,1.5,0.2,1.6,1.6c0.1,1,0,2,0,3
		C587.1,128.2,587.1,130.4,587.1,132.6z M583,134.9c0-0.4,0.1-0.7,0.1-1.1c0.1-0.6,0.2-1.1,0.1-1.7c-0.4-2.4-2.7-3.6-4.6-2.4
		c-1.2,0.7-1.4,1.9-1.4,3.3c0,1.5,0.8,2.5,2,3.1c1,0.5,2.2,0.1,3.3-1.1C582.6,134.9,582.9,134.9,583,134.9z"/>
	<path class="st2" d="M508.6,132.5c1.4,0.6,0.9,1.7,0.9,2.5c0.1,1.1,0,2.2,0,3.3c0,0.8,0,0.8-0.7,0.9c-0.2-0.4-0.4-0.7-0.6-1
		c-0.1,0-0.2,0-0.3,0.1c0.1,0.3,0.2,0.6,0.2,1c-1.1,0-2.3,0.4-2.6-1.1c-0.8,0.3-1.6,0.6-2.4,1c-1.1,0.6-2.2,0.4-3.2,0
		c-2.7-1-3.9-3-4.1-5.9c-0.1-1.3,0.1-2.6,0.6-3.8c0.4-0.9,1.1-1.7,1.9-2.3c0.8-0.6,1.9-0.8,3-1c1.3-0.2,2.5,0.1,3.5,0.9
		c0.2,0.1,0.4,0.1,0.8,0.3c0-1.6,0.1-3.1,0.1-4.6c0-0.8,0.3-1.1,1.1-1.1c0.6,0,1.2,0.1,1.7,0.1c0.8,0,1,0.5,1,1.1
		c0,1.1-0.1,2.3-0.1,3.4c-0.2,0-0.4,0-0.6,0c0.1,0.3,0.2,0.5,0.3,0.8c0.1,0.2,0.3,0.4,0.3,0.6c0,1.1,0,2.2,0,3.4
		C509.5,131.5,509.8,132.3,508.6,132.5z M499.6,132.8c0.2,0.7,0.4,1.4,0.7,2c0.5,0.9,1.6,1.6,2.6,1.4c2-0.3,2.6-1.7,2.9-3.4
		c0.2-1.3-0.4-2.3-1.4-3c-0.7-0.4-1.6-0.8-2.3-0.7C500.7,129.4,499.8,131.1,499.6,132.8z M505.9,131.1c0.6-0.1,1.2-0.2,1.7-0.2
		C506.5,130.2,506.1,130.4,505.9,131.1z"/>
	<path class="st2" d="M474.8,139c0.1-1.1,0.2-2.1,0.2-3.2c0-1.2-0.1-2.4-0.2-3.6c0-0.3-0.1-0.5-0.1-0.8c-0.1-0.8-0.4-1.5-1.3-1.8
		c-0.2-0.1-0.4-0.2-0.6-0.4c-0.1,0.1-0.3,0.2-0.4,0.3c-0.3,0-0.7-0.1-0.8,0c-0.4,0.6-0.8,1.3-1,2c-0.4,1.6-0.1,3.2-0.2,4.8
		c0,0.3,0.1,0.7,0.1,1c0,0.4,0.1,1-0.1,1.3c-0.9,1-2.1,0.4-3.1,0.4c-0.7,0-0.5-0.7-0.5-1.2c0-4,0-8,0-11.9c0-1.2,0-2.3,0-3.5
		c0-0.8,0.4-1,1-1.1c0.5,0,1.1,0,1.6,0c0.3,0,0.6,0.1,0.9,0.3c0.1,0.1,0.1,0.4,0,0.7c0.4,0.4,0.4,0.7,0.2,1.4
		c-0.2,0.6,0,1.5,0.1,2.2c0,0.4,0.1,0.7,0.2,1.2c0.3-0.2,0.6-0.3,0.9-0.4c2.2-1.4,4.3-1,6,0.7c0.2,0.2,0.5,0.4,0.1,0.8
		c0,0,0.1,0.3,0.2,0.3c0.8,0.1,0.6,0.7,0.7,1.2c0.1,1.4,0.2,2.7,0.2,4.1c0,1-0.1,2-0.2,3c0,0.5-0.1,1-0.1,1.5c0,0.6-0.5,0.8-1,0.8
		C476.7,139.2,475.8,139.1,474.8,139z"/>
	<path class="st2" d="M532.1,134.8c1.1,0.7,0.6,1.2,0.2,1.8c-1.7,2.5-4.2,3.3-7,2.9c-2.9-0.4-5.1-2-6-5c-0.8-2.8,0.7-6.4,3.4-7.7
		c1.9-0.9,3.7-1.1,5.7-0.5c2.6,0.8,5.1,3,4.9,6.2c0,0.3,0,0.6,0,1C533.4,134.2,533.4,134.9,532.1,134.8z M522.4,131.5
		c0,0.2,0,0.4,0,0.4c0.9,0.3,0.6,1,0.7,1.6c0.1,1.8,2.4,3.4,4,2.8c1.3-0.5,2.4-2,2.4-3.4c0-1.7-0.8-3-2.2-3.6
		c-1.2-0.4-2.2-0.2-3.1,0.6c-0.5,0.5-0.8,1.1-1.2,1.7C522.9,131.7,522.7,131.6,522.4,131.5z"/>
	<path class="st2" d="M616.5,129.1c0.1-0.1,0.3-0.1,0.5-0.2c1.2,1.4,1.3,3.1,1.2,4.8c-0.3,3.3-3,6-7.6,5.9c-2.1,0-4.5-1.4-4.5-2.7
		c-0.9,0.4-1-0.4-1.3-0.9c-1.5-2.7-0.9-6.5,1.4-8.3c0.9-0.7,2-1.2,3.1-1.5c2-0.6,4-0.3,5.8,0.9c0.1,0.1,0.3,0.3,0.4,0.4
		c0.1,0.2,0.1,0.4,0.1,0.6c0.2-0.1,0.4-0.2,0.7-0.4C616.4,128.3,616.5,128.7,616.5,129.1z M614.2,135.6c0.1,0,0.2,0,0.3,0
		c0-0.4-0.1-0.7-0.1-1.1c0-0.2-0.1-0.4-0.1-0.6c0-0.6,0.2-1.2,0.1-1.8c-0.2-1.8-1.9-3.4-4-2.9c-1,0.3-2.2,1.6-2.3,2.6
		c-0.1,1.4-0.1,2.8,1.3,3.8c1.5,1.1,3.3,0.8,4.6-0.9C614,135.1,614.1,135.4,614.2,135.6z"/>
	<path class="st2" d="M250.2,133.5c0.2-1.2,0.4-2.4,0.7-3.5c0.6-1.8,2-2.8,3.7-3.4c1.8-0.7,3.6-0.9,5.5-0.1c0.3,0.1,1,0,0.8,0.7
		c0,0,0.1,0.1,0.2,0.1c0.6,0.3,1.2,0.7,1.8,1c0,0,0,0.2,0,0.3c0,0.2,0.1,0.6,0.1,0.6c1.3-0.1,1,1.1,1.3,1.7c0,0.1,0.1,0.2,0.1,0.2
		c-0.4,1.1,0.2,2.1-0.1,3.2c-0.7,2.3-2,4-4.3,4.8c-0.3,0.1-0.7,0-1,0.1c-0.3,0.1-0.6,0.3-0.9,0.3c-2.3,0.2-4.5-0.4-6-2.2
		C251.3,136.3,250.2,135.2,250.2,133.5z M260.8,132.3c-0.1-0.3-0.2-0.6-0.4-0.8c-0.3-0.5-0.6-1.1-1.1-1.6c-0.7-0.8-2.5-1-3.2-0.5
		c-1.2,0.9-2.1,2-1.9,3.5c0.1,0.8,0.2,1.8,0.7,2.5c0.4,0.6,1.3,0.9,2.1,1.1c0.4,0.1,0.8,0.4,1.1,0.7c0.1-1.4,1.6-1.3,1.9-2.2
		c0,0,0.2,0,0.3,0.1c0.1-0.6,0-1.2,0.3-1.7c0.2-0.4,0.8-0.5,1.3-0.7C261.8,131.6,261.3,131.9,260.8,132.3z"/>
	<path class="st2" d="M377.7,138.4c-0.1,0.1-0.2,0.2-0.2,0.2c-0.3-0.2-0.6-0.4-0.8-0.6c-2-1.9-2.6-5.2-1.7-7.8
		c0.6-1.5,1.5-2.4,2.7-3.3c0.2-0.2,0.5-0.7,0.9-0.1c0,0,0.2,0,0.3-0.1c1.7-1.2,3.4-0.7,5,0.1c1.8,0.8,2.7,2.3,3.1,4.2
		c0.1,0.7,0.1,1.5,0.2,2.3c0.1,0.7-0.3,0.9-0.9,0.9c-1.5-0.1-3-0.2-4.5-0.3c-0.8,0-1.7,0.2-2.5,0.3c-0.2,0-0.6,0.4-0.6,0.5
		c0.1,0.4,0.4,0.7,0.5,1c0.2,0.3,1,0.2,0.6,0.9c0.2,0,0.4,0.1,0.6,0c0.2,0,0.3-0.2,0.5-0.2c1,0.1,1.9-0.1,2.8-0.7
		c0.5-0.4,1.2-0.3,1.7,0.3c0.2,0.2,0.3,0.4,0.5,0.5c0.5,0.4,0.5,0.9,0,1.3c-0.5,0.4-1.2,0.6-1.7,1c-0.9,0.9-1.9,0.7-2.9,0.8
		c-1.2,0.1-2.2-0.2-3.2-0.6C378,138.9,377.9,138.6,377.7,138.4z M382.7,132.7c0.2-1,1-1.7,0.2-2.7c-1.2-1.3-3.4-1.1-4.2,0.6
		c-0.3,0.7-0.2,1,0.6,1c1,0,2,0,3,0C382.4,131.9,382.5,132.2,382.7,132.7z"/>
	<path class="st2" d="M493.5,132.3c-0.1-0.2-0.1-0.5-0.2-0.7c-0.4,0.1-0.4,0.1-0.4,1c0.3,0.1,0.7,0.1,1,0.2
		c-0.3,0.3-0.5,0.6-0.9,0.9c0.3,0,0.5,0,0.7-0.1c0,0.1,0,0.1,0.1,0.2c-0.3,0.1-0.6,0.3-0.8,0.2c-0.9-0.5-1.7,0.2-2.6-0.1
		c-0.9-0.2-1.9,0.1-2.9,0.1c-0.8,0-1.6-0.1-2.3,0.4c0.3,1.1,1.3,1.9,2.3,1.9c1,0.1,1.9-0.1,2.7-0.7c0.8-0.6,2.6,0.4,2.6,1.4
		c0,0.4-0.4,0.9-0.7,1.2c-2.4,1.9-6,1.8-8.3,0.1c-1.6-1.2-2.5-2.8-2.6-4.9c-0.1-2.1,0.3-4.1,1.8-5.6c0.7-0.7,1.7-1.2,2.7-1.6
		c1.8-0.6,3.6-0.4,5.3,0.7c0.2,0.1,0.2,0.4,0.3,0.5c0,0.1,0.1,0.3,0.1,0.3c1.6,0.2,1.5,1.7,2,2.7c0.2,0.5,0.2,1.1,0.3,1.6
		C493.7,132.2,493.6,132.2,493.5,132.3z M490.2,131.6c-0.1-0.4-0.2-0.6-0.3-0.8c-0.3-1-1.2-1.7-2.3-1.7c-0.9,0-2,0.7-2.4,1.5
		c-0.2,0.5-0.2,0.9,0.5,0.9C487.2,131.6,488.6,131.6,490.2,131.6z"/>
	<path class="st2" d="M598.1,126.4c-0.2,0.1-0.4,0.3-0.6,0.4c0,0.1,0,0.2,0.1,0.3c0.5-0.1,0.9-0.1,1.4-0.2c0.1,0,0.3,0,0.4,0.1
		c0.6,0.6,1.5,1.1,1.8,1.9c0.6,1.4,1.2,2.8,1,4.4c-0.1,0.6-0.3,0.8-0.9,0.8c-1.1,0-2.1,0-3.2,0c-0.2,0-0.4-0.2-0.6-0.3
		c-0.2,0.1-0.5,0.3-0.9,0.3c-1,0-2,0-3,0c-0.2,1.1,0.9,2.3,2.1,2.3c0.9,0,1.8-0.2,2.6-0.5c1.1-0.4,2.4-0.1,2.8,0.8
		c0.3,0.7,0.1,1.2-0.7,1.5c-0.5,0.2-1,0.8-1.5,1c-2.2,0.7-4.4,0.7-6.4-0.4c0-1.2-1.4-0.9-1.8-1.6c-0.6-1.1-1.1-2.1-1.1-3.4
		c0-0.3-0.1-0.6-0.1-1c0.6,0.1,1.2,0.3,1.8,0.4c0-0.1,0.1-0.2,0.1-0.3c-0.6-0.2-1.1-0.3-1.7-0.5
		C589.2,128.6,593.9,124.6,598.1,126.4z M594.1,131.7c0.7,0,1.5,0,2.4,0c1.9,0.1,2.1-0.1,1.3-1.8c-0.1-0.2-0.5-0.4-0.8-0.5
		c-1.4-0.5-2.7-0.1-3.3,1.1c-0.3,0.6-0.3,1.3-0.5,1.9c0.1,0,0.1,0.1,0.2,0.1C593.6,132.3,593.9,132,594.1,131.7z"/>
	<path class="st2" d="M284.2,131.4c-0.1-0.6-0.2-1.2-0.2-1.7c-0.6-0.2-1.2-0.4-1.9-0.5c-0.4,0-0.8-0.1-1.2-0.1c-0.2,0-0.4-0.1-0.5,0
		c-0.5,0.8-1.5,0.7-2,0.5c-0.5-0.2-0.8-1-1-1.7c-0.2-0.6,0-1.2,0.8-1.3c1.3-0.2,2.5-0.5,3.8-0.5c1.2,0,2.5,0,3.7,0.6
		c1.4,0.8,2.1,2,2.3,3.5c0.1,0.8,0.2,1.6,0.2,2.4c0,0.8-0.1,1.6-0.2,2.5c-0.2-0.2-0.2-0.3-0.4-0.5c-0.1,0.2-0.2,0.4-0.2,0.4
		c1.1,0.7,0.6,1.8,0.6,2.7c0,1.4-0.1,1.4-1.5,1.4c-0.8,0-1.6,0.2-2.2-0.6c-0.1-0.1-0.6,0-0.8,0.1c-1.1,0.5-2.2,0.8-3.4,0.7
		c-0.4,0-0.7-0.3-1.1-0.5c-0.1,0-0.2-0.2-0.3-0.2c-1.2-0.1-1.7-0.6-2.3-1.9c0.2-0.1,0.5-0.1,0.7-0.2c0-0.1,0-0.1,0-0.2
		c-0.3,0-0.6,0-0.9,0c0.1-0.8,0-1.5,0.2-2.2c0.4-1.9,1.8-2.5,3.5-2.8C281.2,131.3,282.7,131.4,284.2,131.4z M281.5,137.3
		c0.4-0.3,0.6-0.5,0.9-0.5c0.7,0,1.1-0.6,1.6-1c0.2-0.3,0.6-0.8,0.4-1c-0.2-0.4-0.7-0.8-1.2-0.9c-1.3-0.3-2.7-0.3-3.5,1.1
		c-0.1,0.1-0.2,0.1-0.3,0.2c0.8,1-0.9,1.2-0.5,2c0.4-0.3,0.7-0.6,1.2-0.9c0.1,0.1,0.3,0.4,0.6,0.5c0.3,0.1,0.6,0,0.8,0.1
		C281.6,137,281.6,137.1,281.5,137.3z"/>
	<path class="st2" d="M358.4,138.1c-0.4,0.2-0.7,0.5-1,0.6c-0.8,0.4-1.4,0.8-2.4,0.6c-0.7-0.2-1.6,0.3-2.1-0.6
		c-1.6-0.2-1.9-1.5-2.2-2.7c-0.2-0.8-0.1-1.8-0.1-2.7c0-1.9,0-3.9,0-5.8c0-0.5-0.1-1.1,0.6-1.3c0.6-0.2,0.9,0.2,1.2,0.6
		c0.1,0.1,0.2,0.2,0.3,0.2c0.2-0.3,0.4-0.8,0.6-0.8c0.5-0.1,1.1,0,1.1,0.8c0,1.3-0.1,2.6,0,3.9c0,1.3,0.1,2.5,0.3,3.8
		c0.2,0.9,1.3,1.4,2.4,1.3c0.7-0.1,1.5-0.9,1.5-1.8c0.1-2.3,0.2-4.6,0.2-6.9c0-0.8,0.4-1,1-1.1c0.4,0,0.8,0,1.2,0
		c1.2,0,1.7,0.5,1.6,1.7c-0.1,1.1-0.1,2.3-0.2,3.4c0,0.3-0.2,0.6-0.3,0.9c0,0.1,0,0.2,0,0.3c0.1,0.2,0.3,0.4,0.3,0.6
		c0,1.8,0,3.6,0,5.4c0,0.7-0.3,0.8-0.9,0.8c-0.4,0-0.8,0-1.3,0C359.4,139.3,358.7,139.1,358.4,138.1z"/>
	<path class="st2" d="M436.9,131.5c-0.4-1.8-1-2.4-2.9-2.2c-0.7,0.1-1.5,0.3-2.2,0.3c-0.4,0-1,0-1.2-0.3c-0.3-0.3-0.2-0.9-0.2-1.4
		c-0.1-0.3-0.3-0.6-0.4-0.8c0.3-0.1,0.6-0.3,0.9-0.4c0.1,0,0.4,0.1,0.5,0c2.3-1,4.7-0.9,6.9,0c1.2,0.5,2,1.6,2.1,3
		c0.1,1.1,0.4,2.2,0.4,3.3c0,1.1-0.3,2.1-0.4,3.2c0,0.6,0.2,1.3,0.2,1.9c0.1,0.7-0.3,1-1,1c-0.5,0-1.1,0-1.6,0c-0.1,0-0.3,0-0.3,0
		c-1.1-1.3-2.1-0.2-3.2,0c-0.5,0.1-1.1,0.6-1.5-0.2c0,0-0.2,0-0.2,0.1c-0.8,0.9-1.4-0.3-2.4-0.1c0.3-0.3,0.4-0.4,0.6-0.6
		c-0.3-0.2-0.6-0.3-0.9-0.5c0,0.2,0,0.3,0.1,0.5c0,0-0.1,0.1-0.1,0.1c-0.3-0.4-0.6-0.8-0.8-1.2c-0.2-0.5-0.9-1.1,0.4-1.5
		c-0.9-0.3-0.8-0.9-0.6-1.4c0.2-1,0.8-1.8,1.7-2.3c0.1-0.1,0.3-0.2,0.4-0.2c0.9,0.9,1.4,0.2,2-0.4c0.3-0.3,1-0.2,1.6-0.2
		C435.3,131.3,436,131.4,436.9,131.5z M434.4,136.8c1.2,0,2.1-0.6,2.5-1.7c0.1-0.3,0-0.8-0.2-0.9c-1.2-0.9-2.6-0.7-3.7,0.1
		c-0.3,0.2-0.4,0.6-0.5,1C432.4,136.1,433.2,136.8,434.4,136.8z M435.6,127.5c-0.6,0.2-1,0.7-0.7,1.1c0.2,0.2,0.5,0.3,0.8,0.4
		c0-0.2,0-0.4,0-0.6C435.7,128.1,435.7,127.8,435.6,127.5z"/>
	<path class="st2" d="M339.7,127.3c0.6-0.2,1.2-0.4,1.8-0.6c0.3-0.1,0.5-0.4,0.8-0.5c0.8-0.3,1.5,0.1,2.2,0.2c0.9,0.2,1.5,0.6,2,1.1
		c0.8,0.8,1,1.7,1,2.8c0,1.4,0.1,2.7,0.2,4.1c0,0.5-0.1,1-0.3,1.6c-0.2,0.5,0.1,1.3,0.1,1.9c0,1.1-0.2,1.3-1.3,1.3c-0.5,0-1,0-1.5,0
		c-0.3,0-0.7-0.2-0.8-0.4c-0.1-0.3,0.2-0.6,0.3-0.9c-0.1-0.5-0.3-1-0.3-1.5c-0.1-1.6-0.1-3.3-0.2-4.9c0-1.1-1-2-2-1.9
		c-1.1,0-2,0.9-2,2c-0.1,1.2-0.1,2.3-0.2,3.5c0,0.2-0.2,0.5-0.4,0.8c0.4,0.4,0.5,0.6,0.3,3.3c-0.9,0.1-1.8,0.2-2.7,0.2
		c-0.6,0-1-0.2-0.9-1c0.1-1.4,0.1-2.8,0.1-4.2c0-2.2,0.1-4.3,0-6.5c0-0.5-0.2-1,0.3-1.2c0.5-0.1,1.1,0,1.7,0c0.1,0,0.2,0.1,0.3,0.1
		C339.3,125.7,339.4,126.7,339.7,127.3z"/>
	<path class="st2" d="M242.5,126c-1.3-0.1-3-0.2-4.8-0.3c0.1-0.3,0.2-0.6,0.2-1c-0.2,0-0.3,0-0.6,0c0-0.4-0.1-0.7-0.1-1.1
		c0.2-1.4,0.5-1.5,1.9-1.3c0.4,0.1,0.9-0.1,1.4-0.1c2.3,0,4.6,0,6.8,0c1,0,1.9,0,2.9,0c0.6,0,1.1,0.2,1,1c0,0.6,0.1,1.3,0,1.9
		c-0.1,0.5-0.5,0.7-1,0.5c-0.5-0.1-1,0-1.5,0c-0.4,0-0.8,0-1.1,0c-1.1,0-1.5,0.6-1.4,1.7c0.1,1.7,0,3.4,0,5.1c0,1.7-0.1,3.4,0,5.1
		c0.1,1-0.2,1.5-1.2,1.5c-0.3,0-0.6,0-1,0c-1.7,0-1.6,0-1.6-1.7c0-1.9,0-3.7,0-5.6c0-1.7-0.1-3.5-0.1-5.2
		C242.3,126.4,242.4,126.1,242.5,126z M244,127.9c-0.1,0.3-0.2,0.5-0.3,0.8c0.4,0.1,0.8,0.3,1.2,0.4c0.1-0.1,0.1-0.1,0.2-0.2
		C244.7,128.6,244.4,128.3,244,127.9z"/>
	<path class="st2" d="M392.2,126.6c0.4-0.2,0.8-0.6,1.3-0.6c1.3-0.1,2.6,0,3.7,0.7c0.1,0,0.1,0.1,0.2,0.1c0.4,0.2,1.1,0.5,1.1,0.6
		c-0.1,0.7-0.3,1.4-0.6,2c-0.1,0.2-0.7,0.3-1.1,0.2c-0.8-0.2-1.5-0.5-2.3-0.6c-0.4-0.1-0.9,0.2-1.3,0.5c-0.1,0.1,0,0.6,0.1,0.9
		c0,0.1,0.2,0.2,0.3,0.2c1.1,0.4,2.1,0.8,3.2,1.2c0.3,0.1,0.5,0.5,0.9,0.9c0.8-0.2,1.2,0.6,1.4,1.4c0.4,1.5,0.4,2.9-0.9,3.9
		c-1.5,1.2-3.3,1.6-5.2,1.3c-0.3,0-0.5,0-0.8-0.1c-0.2-0.1-0.3-0.3-0.6-0.5c-0.2,0-0.6,0.1-0.9,0c-0.6-0.3-1.4-0.8-1.6-1.3
		c-0.1-0.5,0.4-1.3,0.8-1.9c0.1-0.1,0.5-0.2,0.7-0.1c1.2,0.3,2.4,0.7,3.6,1c0.1,0,0.3,0,0.4,0.1c0.6,0,1.1-0.2,1.1-0.7
		c0-0.4-0.5-0.9-0.8-1.1c-1.1-0.4-2.2-0.6-3.3-1c-2.2-0.7-2.7-3.4-1.8-5.2c0.3-0.6,0.9-1.1,1.4-1.6
		C391.4,126.6,391.8,126.7,392.2,126.6z"/>
	<path class="st2" d="M560.3,136.3c0.6,0.8-0.2,1.7-0.6,2.4c-0.7,1.2-2,0.4-3.1,0.7c0.1-0.1,0.2-0.3,0.4-0.4c-0.4-0.2-1-0.3-1.3-0.6
		c-0.3-0.4-0.4-0.9-0.6-1.4c-0.1-0.3-0.4-0.6-0.4-1c0-1.4-0.9-2.4-1.4-3.6c-0.5-1.4-1-2.9-1.6-4.3c-0.2-0.5-0.4-1.1-0.7-1.6
		c0.1,0,0.2,0.1,0.4,0.1c0.2-0.1,0.4-0.3,0.7-0.4c1.9-0.5,2.8,0,3.4,1.9c0,0.1,0.1,0.2,0.1,0.3c-0.1,0.1-0.2,0.1-0.3,0.1
		c-0.1,0-0.2,0.1-0.2,0.3c0.2,0,0.4-0.1,0.6-0.1c0.6,1.8,1.2,3.5,1.9,5.5c0.3-0.5,0.5-0.7,0.5-0.8c0.7,0,1.4,0.1,2,0.1
		c0-0.1,0-0.3,0-0.4c-0.4,0-0.8-0.1-1.2,0c-0.5,0.1-0.7-0.1-0.5-0.5c0.5-1.4,0.8-2.9,1.5-4.2c0.2-0.4,0.3-0.9,0.4-1.1
		c0.2-0.7,0.6-0.8,1.1-0.8c0.8-0.1,1.6-0.2,2.3-0.1c0.4,0,0.6,0.4,0.4,1c-0.9,2.2-1.7,4.3-2.5,6.5c-0.2,0.6-0.4,1.2-0.7,1.8
		C560.8,135.8,560.6,136,560.3,136.3z"/>
	<path class="st2" d="M461.1,129.6c0.3,0,0.7,0.1,1,0.1c0,0,0.1-0.1,0.1-0.1c-0.3-0.2-0.6-0.5-0.9-0.5c-0.1,0-0.4,0.3-0.6,0.6
		c-1.4-0.8-2.6-0.3-3.7,0.9c-0.7,0.7-1,2.8-0.5,3.8c0.7,1.5,1.7,2.2,3.2,2.1c0.5,0,1.1-0.3,1.5-0.6c1.3-0.7,1.9-0.5,2.8,0.8
		c0.6,0.9,0.1,1.3-0.5,1.7c-2,1.3-4.2,1.7-6.4,0.9c-2.7-0.9-4.3-2.7-4.6-5.7c-0.2-1.5,0.1-2.8,0.9-4.1c1.3-2.1,3.2-3.5,5.6-3.4
		c1.7,0,3.5,0.5,4.9,1.6c0.1,0.1,0.2,0.3,0.2,0.4c0.2,0.8-1,2.3-1.8,2.2c-0.4,0-0.8-0.2-1.2-0.4
		C461.1,129.8,461.1,129.7,461.1,129.6z"/>
	<path class="st2" d="M539.9,139.2c-0.8,0-1.7,0-2.6,0c-0.4,0-0.8-0.1-0.8-0.7c0-0.9,0-1.8,0-2.7c0-0.4,0.3-0.7,0-1.2
		c-0.2-0.4-0.2-1-0.2-1.5c0-0.5,0.1-1,0.1-1.5c0.1-0.9,0.1-1.8-1-2.4c-0.4-0.2-0.5-1-0.6-1.6c0-0.6,0.1-1.1,0.8-1.5
		c0.4-0.2,0.7-0.9,0.7-1.4c0.1-1.7,1.8-3.6,3.6-3.3c0.5,0.1,1,0,1.5,0c1.2,0,1.6,0.8,1.5,2c-0.1,1.2-0.7,1.2-1.5,1.2
		c-0.4,0-0.8,0.3-1.1,0.5c-0.1,0.1-0.1,0.6,0,0.9c0.1,0.1,0.5,0.2,0.7,0.2c1.3-0.2,1.8,0.3,1.8,1.5c0,1.5,0,1.5-1.4,1.6
		c-0.1,0-0.2,0-0.3,0c-0.9,0.1-1.1,0.6-1,1.5c0.1,0.6-0.1,1.2-0.1,1.8c-0.1,1.1-0.3,2.2-0.3,3.3c0,0.6,0.3,1.1,0.3,1.7
		C540.3,138.2,540.1,138.6,539.9,139.2z"/>
	<path class="st2" d="M447.6,129.5c0.1,0.5,0.2,0.9,0.2,1.2c0,1.5-0.1,3,0.1,4.5c0.1,0.9,1,0.8,1.7,0.8c1.1-0.1,1.1-0.1,1.1,1
		c0,0.3,0,0.7,0,1c-0.1,0.8-0.6,1-1.4,1c-0.7,0-1.3,0.3-2,0.3c-1,0-2-0.3-2.6-1.1c-0.8-1.1-0.8-2.4-0.7-3.7c0.1-0.8,0.5-1.9,0.2-2.3
		c-0.5-0.7-0.1-1.4-0.3-2c-0.1-0.2-0.2-0.6-0.3-0.6c-1,0-0.6-1.3-1.3-1.5c0.2-0.5,0.2-1.2,0.6-1.5c0.7-0.5,1.1-1,1.1-2
		c0-1.4,0.2-1.6,1.5-1.6c0.3,0,0.6,0,0.9,0c1.2,0,1.3,0.1,1.4,1.3c0,0.5,0.1,0.9,0.2,1.4c0.1,0.2,0.3,0.4,0.5,0.5
		c0.1,0.1,0.3,0,0.5,0c1.6,0,2.3,1.2,1.6,2.7c-0.1,0.2-0.4,0.4-0.7,0.5c-0.6,0.1-1.3,0-1.9,0.1C447.7,129.4,447.5,129.6,447.6,129.5
		z"/>
	<path class="st2" d="M372.7,129.3c-0.5,0-1,0-1.5,0c-0.7,0-1.1,0.3-1.1,1.1c0,1.3-0.1,2.7-0.2,4c-0.1,0.8,0.6,1.6,1.4,1.6
		c0.5,0,1,0,1.6,0c0,0.8,0,1.5,0,2.2c0,0.6-0.6,0.8-1.1,0.5c-0.1-0.1-0.2,0-0.4,0c0,0,0,0.2,0,0.3c-0.1,0.2-0.3,0.4-0.4,0.4
		c-1.1,0-2.1,0.2-3.2-0.4c-1-0.6-1.5-1.5-1.6-2.6c-0.1-1.6-0.1-3.2-0.2-4.8c0-0.3,0-0.5,0.1-0.8c0.2-0.8-0.1-1.2-0.8-1.5
		c-0.2-0.1-0.6-0.3-0.6-0.4c0.1-0.9-0.8-2,0.5-2.6c0.7-0.4,0.9-0.8,0.9-1.6c0-1,0.1-1.8,1.6-1.7c0.4,0,0.7,0,1.1,0
		c0.8,0,1.3,0.3,1.2,1.2c0,0.4-0.1,0.9,0,1.3c0.1,0.3,0.4,0.5,0.7,0.7c0.2,0.1,0.5,0,0.8,0c1.4,0,1.8,0.5,1.5,1.9
		C372.8,128.4,372.7,128.8,372.7,129.3z M370.6,128.7c0.5-0.2,0.7-0.2,0.8-0.4c0.2-0.2,0.3-0.4,0.5-0.6c-0.4-0.2-0.5-0.9-1.1-0.6
		c0,0,0,0.1-0.1,0.2c0.2,0.1,0.3,0.1,0.5,0.2C371.1,127.8,370.9,128.2,370.6,128.7z"/>
	<path class="st2" d="M272.5,126.3c0.5,0,0.9-0.2,1.2,0c0.3,0.1,0.5,0.5,0.5,0.8c0.1,0.4,0,0.8,0,1.2c0.1,0.8-0.3,1-1,1
		c-0.3,0-0.7,0-1,0c-0.5,0.1-0.9,0.3-0.9,0.9c0,1.6,0,3.3,0.1,4.9c0,0.7,0.8,1.1,1.8,0.9c0.8-0.2,1.1,0,1,0.8c0,0.4,0.1,0.8,0,1.1
		c-0.1,0.4-0.3,0.9-0.5,1c-1.4,0.5-2.8,0.8-4.3,0.2c-1.4-0.6-2-1.8-1.9-3.3c0.1-1,0-2,0-3c0-1.4-0.3-2.8,0.4-4.1c0,0,0-0.1,0-0.5
		c-0.4,0.4-0.6,0.6-0.9,0.8c0,0.1,0,0.2,0,0.3c-0.3-0.2-0.8-0.4-0.9-0.7c-0.2-0.6-0.1-1.2-0.1-1.8c0.3,0.1,0.7,0.1,1,0.2
		c0.9,0.1,0.5-0.6,0.6-1.1c0-0.9,0-1.8,0-2.6c0-0.1,0.4-0.3,0.6-0.4c0.8-0.3,1.9-0.1,2.1,0.4c0.3-0.1,0.5-0.2,0.8-0.3
		c0,0.1,0.1,0.1,0.1,0.2c-0.1,0.2-0.2,0.3-0.3,0.5c0.7,0.3,0.7,0.9,0.3,2C271.6,126,272.1,126.2,272.5,126.3z"/>
	<path class="st2" d="M294.9,127.6c0.1,0.3,0.2,0.6,0.2,0.9c0,1.9,0,3.8,0,5.7c0,0.3-0.2,0.5-0.3,0.8c0,0.2,0.2,0.4,0.3,0.6
		c0,1.1,0,2.1,0,3.2c0,0.1-0.2,0.4-0.3,0.4c-0.6,0-1.2,0-1.8,0c-0.1,0-0.1-0.2-0.1-0.2c-0.4,0.1-0.8,0.3-1.1,0.2
		c-0.2,0-0.3-0.5-0.3-0.8c0-0.9,0-1.8,0-2.8c0.5,0.1,1,0.2,1.5,0.3c0.1-0.2,0.2-0.6,0.4-1.1c-0.7,0.2-1.3,0.4-2,0.6
		c0-2.3,0-4.6,0-6.8c0-2,0-3.9,0-5.9c0-0.7,0.3-1,0.9-1.1c2.6-0.3,2.8-0.1,2.8,2.5c0,0.6,0,1.2,0,1.8c0,0.2-0.2,0.5-0.3,0.7
		c-0.3,0.6-1.3,0.9-1.2,1.7c0.1,0.7,0.3,1.4,0.5,2.1c0.2-0.1,0.4-0.1,0.7-0.2c-0.3-0.7-0.5-1.3-0.8-2c0.1-0.1,0.4-0.4,0.7-0.6
		C294.6,127.4,294.8,127.5,294.9,127.6z"/>
	<path class="st2" d="M570.6,138.7c-0.6-0.1-0.9-0.2-1.2-0.2c0,0.1,0,0.1-0.1,0.2c0.3,0.1,0.5,0.3,0.9,0.5c-1.1,0-2,0.1-2.9,0.1
		c-0.4,0-0.6-0.3-0.6-0.8c0.1-1.7,0.2-3.5,0.2-5.2c0-2-0.1-4-0.2-6c0-0.9,0.4-1.2,1.1-1.2c0.4,0,0.7,0,1.1,0c1.4,0,1.6,0.2,1.5,1.6
		c0,0.4-0.3,0.8-0.3,1.2c0,0.4,0.2,0.9,0.2,1.3c0,2-0.1,4-0.1,6c0,0.4,0.1,0.9,0.2,1.3C570.6,137.9,570.6,138.3,570.6,138.7z"/>
	<path class="st2" d="M332.5,128.1c0,0.4-0.1,0.9-0.1,1.3c0,2.4,0,4.9,0,7.3c0,0.2,0,0.5,0,0.7c0.2,1.3-0.3,1.9-1.5,1.8
		c-0.1,0-0.2-0.1-0.3-0.1c-1.9,0-1.9,0-1.9-1.8c0-1.2,0-2.4,0-3.7c0.3,0,0.5-0.1,0.9-0.1c-0.6-0.6-1.1-1.2-0.9-2.1
		c0.2-0.7-0.4-1.5,0.5-2c-0.4-0.5-0.8-2.4-0.5-2.8c0.1-0.2,0.5-0.4,0.7-0.4c0.7-0.1,1.4,0,2.1,0c0,0.2,0,0.4,0,0.7
		c0.3-0.1,0.5-0.1,0.8-0.2c0.1,0.3,0.2,0.6,0.3,1c-0.4-0.1-0.8-0.1-1.1-0.2c0,0.1-0.1,0.2-0.1,0.2
		C331.7,127.9,332.1,128,332.5,128.1z M331.7,136.8c-0.1,0-0.2-0.1-0.2-0.1c-0.4,0.4-0.9,0.8-1.5,1.3c0.4,0.1,0.8,0.3,0.9,0.2
		C331.2,137.8,331.4,137.3,331.7,136.8z"/>
	<path class="st2" d="M569.1,124.9c-0.5,0-1.1,0.1-1.6,0c-0.3,0-0.6-0.3-0.7-0.5c-0.2-0.3-0.2-0.7-0.2-1.1c-0.1-1.3,0.3-1.6,1.9-1.7
		c1.5-0.1,2.4,0.9,2.2,2.4C570.6,124.7,570.2,124.9,569.1,124.9z"/>
	<path class="st2" d="M331,124.9c0.1-0.2,0.1-0.4,0.2-0.6c-0.2,0.1-0.3,0.1-0.3,0.1c-0.1,0.1-0.3,0.3-0.5,0.5
		c-1.6,0-1.9-0.7-1.8-2.1c0-0.4,0.4-0.9,0.6-1c1-0.1,2-0.1,3,0c0.4,0,0.5,1.6,0.2,2.4C332.1,124.9,332.1,124.9,331,124.9z"/>
</g>
</svg>
