<svg xmlns="http://www.w3.org/2000/svg" viewBox="0 0 74.82 58.91"><defs><style>.cls-1{fill:#757576;}.cls-2{fill:#fff;}</style></defs><title>Asset 1</title><g id="Layer_2" data-name="Layer 2"><g id="Layer_1-2" data-name="Layer 1"><path class="cls-1" d="M11,22.89c-.16-.15-.09-.37-.07-.56a10.71,10.71,0,0,1,.23-1.17,8.54,8.54,0,0,1,.83-2l.14.06s0,0,0,0a.19.19,0,0,1,0-.27c.19-.23.36-.48.55-.71a10.62,10.62,0,0,1,.77-.89c.12-.12.12-.12.3,0l.08-.36.17.28a1.88,1.88,0,0,1,0-.33.3.3,0,0,1,.12-.16,3.76,3.76,0,0,1,1.18-.68,4.83,4.83,0,0,1,1.85-.69,2.06,2.06,0,0,1,.85-.11,5,5,0,0,1,1.58-.08,6.87,6.87,0,0,1,1.88.29.37.37,0,0,1,.18.1.23.23,0,0,0,.23.08.69.69,0,0,1,.32.08,8.46,8.46,0,0,1,1.32.69c.15.09.22.3.44.29,0,0,0,0,.05.06s.06.2.21.16.08.07.12.11l-.13.1c.1.11.19.12.28,0a8.43,8.43,0,0,1,1.86,2.26c.05.1.18.19.07.33s0,.1.07.13.17.13,0,.29c0,0,0,0,0,.07l.11,0a.14.14,0,0,1,.2.1c.15.51.29,1,.44,1.53a.72.72,0,0,1,0,.18c0,.07.07.17-.06.19a.58.58,0,0,0,0,.14c.11,0,.1.08.1.15,0,.25,0,.5,0,.76s-.07.23-.23.23l-.62,0c-.1,0-.21,0-.31,0h-.89a.46.46,0,0,1-.4-.17l0,.17H23.38a1.19,1.19,0,0,1-.31-.09c0,.17-.17.09-.26.09l-1.63,0c-.19,0-.37,0-.55,0l-.13-.21-.13.1c-.15.13-.15.13-.32,0s-.1,0-.16,0v.12H18.45c-.11,0-.19,0-.2-.18-.12.14-.2.28-.36.1s-.19,0-.33-.06l.08.14c-1.52,0-3,0-4.58,0-.41,0-.81,0-1.22,0-.25,0-.5,0-.76,0s-.21-.05-.19-.19S10.94,23,11,22.89Zm11.7-1.42v.06l.77.14c0-.12-.06-.22-.09-.23a5.44,5.44,0,0,0-.59,0S22.71,21.45,22.67,21.47Zm-2.51-1,0,0h.53c0-.07,0-.12,0-.15s-.07-.12-.12-.13-.11,0-.16.07l-.14.07Zm3.41-1.18,0-.05-.15-.18.15-.16c-.11.07-.33-.17-.34.1a.43.43,0,0,0,.12.26S23.5,19.3,23.57,19.31Zm.76-1.21c.12.28.36.2.54.28a.28.28,0,0,0,0-.07c0-.25-.33,0-.4-.24Z"/><path class="cls-1" d="M22.71,5.57l-.08.23.29,0c0,.16.27.21.23.42,0,0,.07,0,.11.05a.45.45,0,0,1,.21.51c.31.06.35.35.44.57a2.79,2.79,0,0,1,.23.8,3.54,3.54,0,0,1,.12.65l-.15.09.21.15-.14.16c.17.21.17.21,0,.35a.27.27,0,0,1,0,.37c-.06.11,0,.27,0,.41a5.5,5.5,0,0,1-.16.62,2.15,2.15,0,0,0-.15.38,1.29,1.29,0,0,1-.18.39c-.07.13-.14.27-.23.39s-.17.23-.25.34-.18.24-.28.36a3,3,0,0,1-.3.31,5.7,5.7,0,0,1-1.49,1,6.85,6.85,0,0,1-1,.3,1,1,0,0,1-.24,0,.37.37,0,0,1-.49.05.19.19,0,0,0-.13,0c-.15.05-.3.11-.45,0s-.06,0-.07,0c-.23.18-.47,0-.7,0a4,4,0,0,1-.77-.21c-.11,0-.24-.08-.22-.25a.63.63,0,0,1-.59-.14c-.2-.14-.42-.26-.64-.41l.2-.15-.26,0c-.24,0-.26-.06-.31-.3,0,0-.08-.12-.11-.12s-.25-.1-.34-.2-.22-.3-.33-.46c.13-.06.29-.11.29-.31-.2-.12-.18.21-.37.16a.9.9,0,0,1-.11-.16,5.21,5.21,0,0,1-.49-1.25c0-.21-.07-.42-.09-.63a5.63,5.63,0,0,1,0-.89,6.28,6.28,0,0,1,.17-1.16,4.64,4.64,0,0,1,.7-1.49A3.58,3.58,0,0,1,15,6.07a.32.32,0,0,1,.2-.1.44.44,0,0,0,.38-.27l-.2.06s0-.06,0-.08a4.93,4.93,0,0,1,1.67-1.16,5.75,5.75,0,0,1,1.33-.37c.08,0,.16.06.27.1s.1-.1.17-.1a4,4,0,0,1,1.24.08c-.1,0-.25,0-.2.19.09,0,.2,0,.25-.06a.3.3,0,0,1,.36,0,1.56,1.56,0,0,1,.77.38l0,0A1.28,1.28,0,0,1,22,5c.22.15.43.32.64.48Zm-3.48.24.23,0c0-.16.16-.09.25-.12s.2-.05.25-.21A.85.85,0,0,0,19.23,5.81Zm-.72.42c-.16-.31-.23-.34-.51-.24v.15Zm4.95,5a.6.6,0,0,0-.14-.06c-.11,0-.25.06-.32-.09,0,0-.09,0-.1,0s0,.12,0,.13.22.06.32.1S23.42,11.32,23.47,11.2ZM17.84,9.56c.06-.14,0-.17-.14-.19s-.14,0-.2-.07-.16,0-.2.07C17.55,9.56,17.63,9.59,17.84,9.56Z"/><path class="cls-1" d="M36.58,26.29c-.22-.21-.13-.52-.09-.79a15,15,0,0,1,.32-1.64A12,12,0,0,1,38,21.08l.2.08s0-.06,0-.06a.27.27,0,0,1,0-.38c.27-.33.5-.67.76-1a14.87,14.87,0,0,1,1.09-1.25c.17-.17.17-.16.43,0l.12-.5.24.39a2.64,2.64,0,0,1,0-.46.42.42,0,0,1,.16-.23,5.27,5.27,0,0,1,1.66-1,6.76,6.76,0,0,1,2.59-1,2.89,2.89,0,0,1,1.2-.16,7,7,0,0,1,2.21-.12,9.63,9.63,0,0,1,2.63.4.51.51,0,0,1,.25.14.32.32,0,0,0,.33.11,1,1,0,0,1,.45.11,11.85,11.85,0,0,1,1.85,1c.21.13.31.42.61.41,0,0,.07,0,.07.08s.08.28.29.22c0,0,.11.09.17.15l-.18.15c.13.15.27.17.39,0a11.8,11.8,0,0,1,2.6,3.17c.07.13.26.26.1.46,0,0,0,.14.09.18.24.19.24.18,0,.4,0,0,0,0,0,.1a.68.68,0,0,0,.16,0,.19.19,0,0,1,.29.14c.21.71.41,1.43.61,2.14a1,1,0,0,1,.06.25c0,.09.1.23-.09.27a.81.81,0,0,0,0,.19c.16,0,.14.11.14.21,0,.35,0,.71,0,1.06s-.1.32-.33.32-.58,0-.86,0-.29,0-.44,0H56.64a.65.65,0,0,1-.56-.24l-.06.24c-.69,0-1.38,0-2.07,0a1.66,1.66,0,0,1-.43-.13c0,.24-.24.13-.36.13l-2.28,0c-.26,0-.52,0-.78.06l-.18-.3-.18.14c-.21.18-.21.18-.44,0-.05,0-.14,0-.22,0v.17h-2c-.15,0-.27,0-.28-.25-.17.19-.28.39-.51.13-.07-.08-.27-.05-.46-.08l.11.19c-2.14,0-4.27,0-6.41,0-.57,0-1.14,0-1.71,0-.35,0-.71,0-1.06,0-.19,0-.29-.08-.27-.27S36.54,26.49,36.58,26.29Zm16.39-2,0,.08,1.08.19c-.06-.16-.08-.31-.12-.32a7.63,7.63,0,0,0-.83,0S53,24.26,53,24.29Zm-3.52-1.37,0,.06h.74c0-.09,0-.16,0-.21s-.1-.17-.17-.19-.15.06-.23.1l-.2.1Zm4.77-1.65,0-.07-.21-.25.21-.22c-.16.09-.47-.24-.48.14a.6.6,0,0,0,.17.36C54,21.28,54.13,21.25,54.23,21.27Zm1.06-1.69c.17.4.51.28.76.39a.39.39,0,0,0,0-.1c0-.35-.47-.07-.56-.34Z"/><path class="cls-1" d="M53,2l-.11.32.41,0c0,.23.37.29.32.59,0,0,.1,0,.15.07a.63.63,0,0,1,.3.72c.43.09.48.49.62.8A3.91,3.91,0,0,1,55,5.61a5,5,0,0,1,.16.91L55,6.64l.29.21-.19.23c.23.3.23.3,0,.5a.38.38,0,0,1,.06.52c-.09.15,0,.38-.06.57a7.7,7.7,0,0,1-.23.86,3,3,0,0,0-.21.53,1.81,1.81,0,0,1-.25.54c-.1.19-.2.37-.32.55s-.23.32-.35.48-.25.34-.39.5a4.13,4.13,0,0,1-.43.43,8,8,0,0,1-2.08,1.36,9.59,9.59,0,0,1-1.34.43,1.37,1.37,0,0,1-.34,0,.51.51,0,0,1-.69.08.27.27,0,0,0-.18,0c-.21.07-.42.16-.63,0,0,0-.08,0-.1,0-.32.26-.66,0-1,0a5.64,5.64,0,0,1-1.08-.29c-.16-.05-.34-.11-.31-.35a.89.89,0,0,1-.83-.2c-.28-.2-.58-.37-.9-.57l.27-.21-.36-.06c-.33,0-.37-.08-.44-.42,0-.07-.11-.17-.16-.16-.25,0-.36-.14-.48-.28s-.31-.42-.47-.65c.19-.09.41-.15.41-.43-.28-.17-.25.29-.51.22a1.26,1.26,0,0,1-.16-.23A7.3,7.3,0,0,1,40.92,9c-.05-.29-.1-.59-.13-.88a7.89,7.89,0,0,1-.07-1.25A8.79,8.79,0,0,1,41,5.26a6.51,6.51,0,0,1,1-2.08,5,5,0,0,1,.33-.47.45.45,0,0,1,.27-.13.61.61,0,0,0,.53-.38l-.28.08s0-.09,0-.11A6.91,6.91,0,0,1,45.17.54,8.06,8.06,0,0,1,47,0c.11,0,.23.08.38.13s.15-.14.24-.14a5.57,5.57,0,0,1,1.74.11c-.14,0-.35-.06-.27.26.12,0,.27,0,.34-.09A.42.42,0,0,1,50,.24,2.19,2.19,0,0,1,51,.77l0,0a1.79,1.79,0,0,1,1,.45c.31.2.6.44.89.67Zm-4.87.33.32.05c0-.23.23-.13.35-.17s.29-.07.35-.29A1.19,1.19,0,0,0,48.15,2.34Zm-1,.59c-.22-.43-.32-.47-.71-.33v.21Zm6.93,7a.84.84,0,0,0-.19-.09c-.15,0-.35.09-.45-.13,0,0-.13,0-.14.06s0,.17,0,.18.31.09.45.15S54,10.07,54.08,9.91Zm-7.88-2.3c.09-.19-.06-.24-.19-.27s-.19,0-.28-.1-.22,0-.28.1C45.79,7.6,45.91,7.64,46.21,7.61Z"/><path class="cls-2" d="M60.2,58.91l-.4,0h-.38l-.38,0-.15,0H46.14l0,0H43.56l-.33,0-.14,0h-.18l-.43-.17a2.71,2.71,0,0,1-1.73-2.54v-.2a10.25,10.25,0,0,1,0-1.65c.1-.8.26-1.56.41-2.26l0-.11a7,7,0,0,1,.5-1.59l.08-.17.05-.18a3.92,3.92,0,0,1,.54-1.15l.22-.31.11-.28a4.38,4.38,0,0,1,.66-1.17l.13-.16.1-.18a2.72,2.72,0,0,1,.38-.52l.22-.24.14-.24a3.06,3.06,0,0,1,.17-.26,10,10,0,0,1,.85-1,5.24,5.24,0,0,1,.71-.63l.24-.17.19-.22A3.41,3.41,0,0,1,47,43a17.25,17.25,0,0,1,4.41-2.55l.32-.11.18-.05.17-.08a3.14,3.14,0,0,1,.85-.25l.19,0,.19-.06.41-.1.17,0,.17-.06a3.19,3.19,0,0,1,1-.18h.41l.32-.08a3.86,3.86,0,0,1,.89-.1H58.9a5.84,5.84,0,0,1,1.62.2l.23.07.24,0,.4.06c.44.09.87.2,1.3.31l.38.1a3.3,3.3,0,0,1,.41.13l.44.17H64l.58.29.53.3.3.17.16.06a8.16,8.16,0,0,1,1.75,1l.29.2a16.14,16.14,0,0,1,1.32,1,3,3,0,0,1,.47.5l.18.25.24.19a7.21,7.21,0,0,1,1.27,1.28l.52.66.16,0,.47.89,1.28,1.81-.25.13.62,1.17-.08.19.26.86c.1.33.19.66.27,1l.27,1.11.1,0v1.17L74.82,56l-.23.82a2.86,2.86,0,0,1-1.86,1.87,2.89,2.89,0,0,1-1,.18H68.37c-.13,0-.31,0-.54,0h-1l-.34,0H61.07l-.22,0-.22,0Z"/><path class="cls-2" d="M58.52,43H57.13a8.75,8.75,0,0,1-2.2-.31,11.85,11.85,0,0,1-6.1-3.79,11.4,11.4,0,0,1-1.08-1.51l-.16-.25,0-.06a2.89,2.89,0,0,1-.41-.79l-.05-.15L47,36l-.07-.16a9.07,9.07,0,0,1-.78-3.47v-.09s0-.23,0-.3a7.44,7.44,0,0,1,0-1.18,12.2,12.2,0,0,1,.51-2.92l.32-1,.17-.25.07-.16a10.65,10.65,0,0,1,1.07-1.78l.12-.16L49,23.19l.41,0,.75-.67.25-.2a12.43,12.43,0,0,1,3.84-2l1.4-.38.16-.41,1.68.3h1.12a2.76,2.76,0,0,1,.54.05l.11,0h.11a4.11,4.11,0,0,1,.82.17l.2.06.21,0a3.3,3.3,0,0,1,1.24.44l.25.15.28.09a4.43,4.43,0,0,1,1,.49l.06,0,.09.05a8.59,8.59,0,0,1,1.36.94l.25.23.15.15.18.13a2.72,2.72,0,0,1,.33.28l.08.08a5.08,5.08,0,0,1,.79.93l.13.2.16.17a3.68,3.68,0,0,1,.48.63,11.37,11.37,0,0,1,1.62,4l0,.16L70.31,33l-.78-.11-.65,1.91c0,.1-.07.2-.11.3a3.76,3.76,0,0,1-.17.35l-.13.23-.07.26a5.13,5.13,0,0,1-.79,1.55l-.13.19-.06.1a7,7,0,0,1-.75,1.06l-.17.21a3.41,3.41,0,0,1-.47.49l-.15.13-.13.15a4.21,4.21,0,0,1-.8.71l-.11.08a2.82,2.82,0,0,1-.36.24l-.19.11-.17.14a2.84,2.84,0,0,1-.6.38l-.49.24c-.49.24-1,.47-1.49.68-.22.09-.42.14-.55.18l-.17.05-2,.92Z"/><path class="cls-1" d="M62.9,42.83l.36,0c.08,0,.18-.07.24,0a12.15,12.15,0,0,0,1.18.6,7.75,7.75,0,0,1,1.62.95,13.6,13.6,0,0,1,1.14.84,2,2,0,0,1,.3.44.42.42,0,0,0,.09.11A7.29,7.29,0,0,1,70,47.95l-.33.18.57.13,1.09,2c-.11.26-.42.34-.27.65l.35,0,0-.3a14.75,14.75,0,0,1,1,3.85l-.36.23.39.18a9.65,9.65,0,0,1,0,1.11c0,.1-.22.2-.36.26a1.13,1.13,0,0,1-.38,0l-3.1,0a1.72,1.72,0,0,1-.73-.1c-.22-.11-.39,0-.58,0a4.75,4.75,0,0,1-.59.12l-5.18.09a4.86,4.86,0,0,1-.66-.09c-.19.18-.55.13-.89.12s-.68.14-.82-.33l-.45.12.14.19-13.7.23-.2-.43-.2.47H43.9c-.32,0-.41-.06-.42-.37a9.69,9.69,0,0,1,0-1.48c.07-.68.2-1.36.34-2a4.78,4.78,0,0,1,.38-1.29,10.07,10.07,0,0,1,.39-1,4.38,4.38,0,0,0,.54-1,1.62,1.62,0,0,1,.65-1s0-.11,0-.16a.85.85,0,0,1,.11-.29,6.21,6.21,0,0,0,.45-.43c.11-.16.14-.38.25-.54a7.86,7.86,0,0,1,.64-.76,1.24,1.24,0,0,1,1.33-.53l-.26-.45a2.47,2.47,0,0,1,.28-.31,14.73,14.73,0,0,1,3.74-2.25c.19-.08.19-.08.39.06a.86.86,0,0,1,1.13-.36c.11-.37.48-.26.73-.35s.55-.31.88,0c.09.08.42-.05.6-.16a1.3,1.3,0,0,1,.67-.18l2.2,0a3,3,0,0,1,1.31.22c.19.09.45,0,.67,0,.54.11,1.07.24,1.6.37C62.75,42.43,62.93,42.53,62.9,42.83ZM48.08,47.52a.86.86,0,0,0-.14.1l-.17.22c-.25.31-.24.33.1.54a3.49,3.49,0,0,1,.43.38l.31-.25-.5-.39C48.28,47.74,48.28,47.74,48.08,47.52Zm12,5.84c.26.15.34.15.73,0,0-.22,0-.42,0-.62s-.06-.22-.1-.22a.43.43,0,0,0-.3.1c-.06.07-.05.2-.09.3S60.15,53.2,60.08,53.37Zm-4.86-7.61c.23.19.29-.22.51-.06a3.36,3.36,0,0,0,.56.27l-.17-.49c-.21,0-.37,0-.52-.08S55.2,45.41,55.22,45.76Zm-1.54,1c0,.26,0,.5-.3.65a1.21,1.21,0,0,0,1.08-.22c-.15-.36-.39,0-.56-.1Zm4.41-3.39c.26-.12.5-.21.72-.33,0,0,.07-.13.07-.19s-.09-.1-.13-.1a2.48,2.48,0,0,0-.3.09L58,43Zm10.52,9c-.44,0-.78.3-.73.56l.38.13Zm-22.75.7c-.09-.13-.07-.37-.33-.31,0,.36.1.61.3.54a.69.69,0,0,1,.49,0,.62.62,0,0,0,.23,0C46.4,52.91,46.1,53.17,45.85,53.08Zm3.22,2.45.45-.58a.68.68,0,0,0-.82.51ZM65.78,44.3c-.34-.29-.63.12-1,0,.12.43.49.2.65.37ZM46,49.94l.46.43c.09-.11.2-.17.2-.25a.46.46,0,0,0-.11-.33C46.36,49.63,46.18,49.71,46,49.94Z"/><path class="cls-1" d="M59.55,22.69c.35-.29.89-.1,1.3.45.51-.21.89.15,1.3.35a6.16,6.16,0,0,1,1,.68c.13.1.17.3.3.41s.32.09.43.2c.34.32.73.62.74,1.19.29,0,.43.13.56.34a8.54,8.54,0,0,1,1.39,3.36,1.45,1.45,0,0,0,.07.23l-.29,0s0,0,0,0a1.43,1.43,0,0,1,.45,1.35,8.13,8.13,0,0,1-.08,1.46A7.08,7.08,0,0,1,66.41,34a3.9,3.9,0,0,1-.32.55s-.09.08-.08.11c.06.72-.47,1.19-.77,1.76a7.33,7.33,0,0,1-.71,1c-.17.22-.44.32-.6.59a2.48,2.48,0,0,1-.62.57.27.27,0,0,1-.38,0,1.43,1.43,0,0,0-.42-.13,1.64,1.64,0,0,0,.07.34c.08.16.08.29-.1.38-.6.3-1.19.63-1.82.89-.26.11-.56.16-.85.3l-.18-.28a1,1,0,0,1-1.23.37.67.67,0,0,0-.39,0,4.9,4.9,0,0,1-2.47-.08,9.42,9.42,0,0,1-4.9-3,13,13,0,0,1-1.09-1.53c-.07-.1-.28-.27,0-.34a2.68,2.68,0,0,1-.37-.5,6.49,6.49,0,0,1-.64-2.54c0-.47-.12-.94-.1-1.41A8.62,8.62,0,0,1,50.18,26a1,1,0,0,0,.09-.17h.39l.4,0,.34-.42c-.35,0-.53.4-.88.19a1.41,1.41,0,0,1,1.06-.8c.11-.15-.16-.27,0-.42a10.37,10.37,0,0,1,3.07-1.71c.52-.16,1.06-.28,1.59-.4.19,0,.39,0,.44.23,0,.07.08.13.17.28l.2-.53c.31.05.72-.22,1,.3,0-.28.14-.4.35-.33C58.83,22.38,59.3,22.21,59.55,22.69ZM59.43,28c.28.19.52.33.55.66,0,.13.19.17.28.07a.42.42,0,0,0-.08-.58l-.48-.47Zm.87,2.32a1.84,1.84,0,0,0-.27.39c0,.08,0,.25.08.26a1.9,1.9,0,0,0,.65,0c.09,0,.15-.2.21-.3-.24-.25-.4,0-.54,0Zm-.22,5.73.19.39c.42-.22,0-.47.12-.69-.51,0-.51,0-.73.39C59.83,36.32,59.94,36.18,60.08,36.1Zm.23-4.54,1.09.21-.09-.43C61,31.43,60.62,31.25,60.31,31.56Z"/><path class="cls-2" d="M15.18,51.26h-.61l-.29,0h-10v0h-2l-.26,0H1.71l-.34-.13a2.11,2.11,0,0,1-1.35-2v-.16a8,8,0,0,1,0-1.29c.07-.62.2-1.21.32-1.76l0-.09a5.44,5.44,0,0,1,.39-1.24l.06-.13,0-.14a3.05,3.05,0,0,1,.42-.89l.17-.24L1.55,43A3.41,3.41,0,0,1,2.06,42l.1-.12.08-.14a2.12,2.12,0,0,1,.3-.41l.17-.18L2.82,41,3,40.79A7.75,7.75,0,0,1,3.62,40a4.08,4.08,0,0,1,.55-.49l.19-.13.15-.17a2.66,2.66,0,0,1,.38-.37,13.44,13.44,0,0,1,3.43-2l.25-.09.14,0,.13-.06a2.45,2.45,0,0,1,.66-.2l.15,0,.15,0,.32-.08.14,0,.13,0a2.48,2.48,0,0,1,.8-.14h.32l.25-.06a3,3,0,0,1,.69-.08h1.72a4.55,4.55,0,0,1,1.26.16l.18.05h.19l.31,0,1,.24.3.08.32.1.34.14h.06l.45.22.42.23.23.14.12,0a6.36,6.36,0,0,1,1.36.79l.22.16a12.57,12.57,0,0,1,1,.79,2.37,2.37,0,0,1,.37.39l.14.19.19.15a5.61,5.61,0,0,1,1,1l.41.52.13,0,.37.7,1,1.41-.19.1.48.91-.06.15.2.67c.08.26.15.52.21.76l.21.87.08,0V48l.09,1-.18.64a2.23,2.23,0,0,1-1.45,1.46,2.25,2.25,0,0,1-.79.14H21.55l-.42,0h-.76l-.27,0H15.68l-.17,0Z"/><path class="cls-2" d="M13.87,38.89H12.79a6.82,6.82,0,0,1-1.71-.24,9.24,9.24,0,0,1-4.75-3,8.88,8.88,0,0,1-.84-1.18l-.12-.19,0,0A2.25,2.25,0,0,1,5,33.67l0-.12-.05-.11-.06-.13a7.06,7.06,0,0,1-.61-2.71v-.07s0-.18,0-.23a5.79,5.79,0,0,1,0-.92,9.51,9.51,0,0,1,.4-2.27l.25-.8.13-.2L5,26a8.29,8.29,0,0,1,.83-1.39l.09-.13.54-1h.32l.58-.52.19-.15a9.68,9.68,0,0,1,3-1.57l1.09-.3.13-.32,1.31.24H14a2.15,2.15,0,0,1,.42,0l.09,0h.09a3.2,3.2,0,0,1,.64.13l.16.05.16,0a2.57,2.57,0,0,1,1,.34l.19.11.21.07a3.45,3.45,0,0,1,.8.38l0,0,.07,0a6.69,6.69,0,0,1,1.06.73l.19.18.12.12.14.1a2.12,2.12,0,0,1,.26.22l.06.06a4,4,0,0,1,.61.72l.1.16.13.13a2.86,2.86,0,0,1,.37.49,8.85,8.85,0,0,1,1.26,3.1l0,.13.91,2.89L22.45,31l-.51,1.49-.09.24a2.93,2.93,0,0,1-.13.27l-.1.18-.06.2a4,4,0,0,1-.62,1.2l-.1.15,0,.08a5.43,5.43,0,0,1-.58.82l-.13.16a2.65,2.65,0,0,1-.37.38l-.12.1-.1.12a3.28,3.28,0,0,1-.62.55L18.8,37a2.2,2.2,0,0,1-.28.19l-.15.08-.13.11a2.21,2.21,0,0,1-.47.29l-.38.19c-.38.19-.75.37-1.16.53-.17.07-.32.11-.43.14l-.14,0-1.55.71Z"/><path class="cls-1" d="M17.29,38.74l.28,0c.06,0,.14-.05.19,0a9.46,9.46,0,0,0,.92.46,6,6,0,0,1,1.26.74,10.6,10.6,0,0,1,.88.65,1.52,1.52,0,0,1,.23.34.33.33,0,0,0,.07.08,5.68,5.68,0,0,1,1.71,1.77l-.26.14L23,43l.85,1.55c-.08.2-.33.27-.21.51l.27,0,0-.23a11.49,11.49,0,0,1,.81,3l-.28.18.3.14a7.51,7.51,0,0,1,0,.86c0,.08-.17.16-.28.2a.88.88,0,0,1-.29,0l-2.42,0a1.34,1.34,0,0,1-.57-.08c-.17-.08-.3,0-.45,0a3.7,3.7,0,0,1-.46.09l-4,.07a3.79,3.79,0,0,1-.52-.07c-.15.14-.43.1-.69.09s-.53.11-.64-.26l-.35.1.11.15-10.67.18-.16-.33-.15.37H2.48c-.25,0-.32,0-.33-.29a7.55,7.55,0,0,1,0-1.15c.05-.53.16-1.06.26-1.58a3.73,3.73,0,0,1,.29-1,7.85,7.85,0,0,1,.31-.8,3.41,3.41,0,0,0,.42-.76,1.26,1.26,0,0,1,.5-.74s0-.08,0-.13A.66.66,0,0,1,4,42.83a4.84,4.84,0,0,0,.35-.33c.09-.12.11-.3.2-.42a6.13,6.13,0,0,1,.5-.59,1,1,0,0,1,1-.41l-.2-.35a1.93,1.93,0,0,1,.22-.25,11.47,11.47,0,0,1,2.91-1.75c.15-.06.14-.06.31,0a.67.67,0,0,1,.88-.28c.08-.29.37-.2.57-.27s.43-.24.69,0c.07.06.33,0,.47-.12a1,1,0,0,1,.52-.14l1.71,0a2.33,2.33,0,0,1,1,.17c.15.07.35,0,.52,0,.42.08.83.19,1.25.28C17.17,38.42,17.31,38.5,17.29,38.74ZM5.74,42.39l-.11.08-.14.17c-.19.24-.18.26.08.42a2.72,2.72,0,0,1,.33.3l.24-.2-.39-.3C5.9,42.56,5.9,42.56,5.74,42.39Zm9.35,4.55c.21.12.26.12.57,0,0-.17,0-.33,0-.48s0-.17-.08-.17a.33.33,0,0,0-.23.08c-.05.05,0,.16-.07.24S15.15,46.81,15.09,46.94ZM11.3,41c.18.15.23-.17.4,0a2.62,2.62,0,0,0,.43.21L12,40.8c-.16,0-.29,0-.41-.07S11.29,40.75,11.3,41Zm-1.2.8c0,.2,0,.39-.24.51a.94.94,0,0,0,.84-.17c-.12-.28-.3,0-.44-.07Zm3.44-2.64c.2-.09.39-.16.56-.26s.06-.1.05-.15-.07-.08-.1-.07a1.93,1.93,0,0,0-.24.07l-.32.07Zm8.19,7c-.34,0-.61.24-.57.44l.3.1ZM4,46.72c-.07-.1-.06-.29-.26-.24,0,.28.08.48.23.42a.53.53,0,0,1,.38,0,.48.48,0,0,0,.18,0C4.43,46.58,4.2,46.79,4,46.72Zm2.51,1.91.35-.45a.53.53,0,0,0-.64.4Zm13-8.74c-.27-.22-.49.09-.77,0,.1.33.38.16.51.29ZM4.11,44.27l.36.34c.07-.08.16-.14.16-.19a.36.36,0,0,0-.09-.26C4.4,44,4.26,44.1,4.11,44.27Z"/><path class="cls-1" d="M14.67,23c.27-.23.69-.08,1,.35.4-.16.69.12,1,.28a4.8,4.8,0,0,1,.79.53c.1.08.13.23.23.32s.25.07.34.15c.26.25.57.48.57.92.22,0,.34.1.44.26a6.66,6.66,0,0,1,1.09,2.62,1.13,1.13,0,0,0,.06.18l-.23,0,0,0a1.11,1.11,0,0,1,.35,1,6.33,6.33,0,0,1-.06,1.14,5.51,5.51,0,0,1-.23,1,3,3,0,0,1-.25.43s-.07.06-.06.09c0,.56-.37.93-.6,1.37a5.71,5.71,0,0,1-.55.77c-.13.17-.35.25-.46.46a1.93,1.93,0,0,1-.49.44.21.21,0,0,1-.3,0,1.12,1.12,0,0,0-.33-.1,1.28,1.28,0,0,0,.05.26c.06.13.06.23-.08.3-.47.23-.93.49-1.41.69-.2.08-.44.13-.66.24l-.14-.22a.74.74,0,0,1-1,.29.52.52,0,0,0-.3,0,3.82,3.82,0,0,1-1.93-.06,7.34,7.34,0,0,1-3.82-2.3,10.1,10.1,0,0,1-.85-1.19c-.05-.08-.22-.21,0-.26a2.09,2.09,0,0,1-.29-.39,5.06,5.06,0,0,1-.49-2c0-.37-.09-.74-.08-1.1a6.72,6.72,0,0,1,1.39-4,.76.76,0,0,0,.07-.13h.3l.31,0,.27-.33c-.27,0-.42.31-.69.15a1.1,1.1,0,0,1,.82-.62c.09-.12-.13-.21,0-.33a8.08,8.08,0,0,1,2.39-1.33c.41-.13.82-.22,1.24-.31.15,0,.3,0,.34.18,0,.05.06.1.13.22l.16-.41c.25,0,.56-.17.8.24,0-.22.11-.31.27-.26S14.48,22.67,14.67,23Zm-.09,4.17c.22.15.41.26.43.51,0,.1.15.13.22.05a.33.33,0,0,0-.06-.45L14.79,27ZM15.26,29a1.44,1.44,0,0,0-.21.31c0,.06,0,.19.06.2a1.48,1.48,0,0,0,.5,0c.07,0,.11-.16.16-.23-.18-.19-.31,0-.42,0Zm-.17,4.47.15.31c.33-.17,0-.37.09-.54-.4,0-.4,0-.57.3C14.89,33.67,15,33.55,15.09,33.49ZM15.27,30l.85.16L16,29.78C15.78,29.85,15.51,29.72,15.27,30Z"/><path class="cls-2" d="M36.93,58.91l-.48,0H36l-.46,0-.18,0H20l0,0h-3.1l-.4,0-.17,0H16l-.52-.2a3.28,3.28,0,0,1-2.09-3.07v-.25a12.38,12.38,0,0,1,0-2c.12-1,.31-1.88.5-2.73l0-.13a8.43,8.43,0,0,1,.6-1.92l.1-.2.06-.21a4.73,4.73,0,0,1,.65-1.38l.26-.38.13-.33a5.28,5.28,0,0,1,.8-1.42l.16-.19.12-.22a3.28,3.28,0,0,1,.46-.63l.27-.28.17-.29a3.7,3.7,0,0,1,.21-.32,12,12,0,0,1,1-1.19,6.33,6.33,0,0,1,.86-.76l.29-.21.23-.27a4.12,4.12,0,0,1,.6-.58,20.84,20.84,0,0,1,5.32-3.08c.08,0,.21-.08.38-.13l.21-.06.2-.09a3.79,3.79,0,0,1,1-.3l.23,0,.23-.07a4.22,4.22,0,0,1,.5-.12l.21,0,.2-.07a3.85,3.85,0,0,1,1.24-.21h.5l.38-.09a4.67,4.67,0,0,1,1.08-.12h2.67a7.05,7.05,0,0,1,2,.24l.28.08.29,0a3.7,3.7,0,0,1,.48.07c.53.11,1,.25,1.57.38l.46.12a4,4,0,0,1,.5.16l.53.21h.1l.69.34.65.36.36.21.19.08a9.85,9.85,0,0,1,2.11,1.22l.34.24a19.49,19.49,0,0,1,1.6,1.22,3.67,3.67,0,0,1,.57.61l.22.3.29.23a8.7,8.7,0,0,1,1.53,1.55l.63.8.2,0,.57,1.08L53,47l-.3.15.74,1.42-.1.23.31,1c.12.4.23.8.32,1.19l.32,1.35.12.06v1.42l.14,1.59-.28,1a3.45,3.45,0,0,1-2.25,2.26,3.49,3.49,0,0,1-1.23.22h-4c-.15,0-.38,0-.65,0h-1l-.16,0-.41,0H38l-.27,0-.27,0Z"/><path class="cls-2" d="M34.9,39.74H33.22a10.57,10.57,0,0,1-2.66-.37,14.32,14.32,0,0,1-7.36-4.58A13.76,13.76,0,0,1,21.9,33l-.19-.3-.06-.08a3.49,3.49,0,0,1-.5-.95l-.06-.18L21,31.28l-.09-.2A11,11,0,0,1,20,26.89v-.11s0-.28,0-.36A9,9,0,0,1,19.89,25a14.74,14.74,0,0,1,.61-3.53l.38-1.24.2-.3.09-.19a12.86,12.86,0,0,1,1.29-2.15l.14-.2.83-1.62.5,0,.9-.81.3-.24a15,15,0,0,1,4.64-2.44l1.69-.46.2-.49,2,.37h.86l.21,0h.28a3.33,3.33,0,0,1,.65.07l.13,0H36a5,5,0,0,1,1,.2l.24.08.25,0a4,4,0,0,1,1.49.53l.3.18.33.1a5.35,5.35,0,0,1,1.24.59l.07,0,.11.06a10.38,10.38,0,0,1,1.65,1.14A3.41,3.41,0,0,1,43,15l.18.19.21.15a3.28,3.28,0,0,1,.4.34l.1.1a6.14,6.14,0,0,1,1,1.12l.15.24.2.21a4.44,4.44,0,0,1,.58.76,13.73,13.73,0,0,1,2,4.8l0,.2,1.41,4.47-.95-.13-.79,2.31c0,.12-.09.24-.14.36a4.54,4.54,0,0,1-.2.43l-.15.28-.09.31a6.2,6.2,0,0,1-1,1.87l-.16.23-.07.12a8.43,8.43,0,0,1-.91,1.28l-.2.25a4.12,4.12,0,0,1-.57.59l-.18.15-.15.18a5.08,5.08,0,0,1-1,.86l-.13.1a3.41,3.41,0,0,1-.44.29l-.23.13-.2.17a3.42,3.42,0,0,1-.72.46l-.6.29c-.59.29-1.16.57-1.8.82-.26.1-.5.17-.66.22l-.21.06-2.4,1.11Z"/><path class="cls-1" d="M40.19,39.49l.43-.06c.1,0,.22-.08.29,0a14.67,14.67,0,0,0,1.42.72,9.36,9.36,0,0,1,2,1.15,16.43,16.43,0,0,1,1.37,1,2.36,2.36,0,0,1,.36.53.51.51,0,0,0,.11.13,8.8,8.8,0,0,1,2.66,2.75l-.4.21.69.16,1.32,2.4c-.13.32-.51.41-.33.78l.42,0,0-.36a17.82,17.82,0,0,1,1.25,4.65l-.44.28.47.22a11.65,11.65,0,0,1,0,1.34c0,.12-.27.24-.43.31a1.37,1.37,0,0,1-.46,0c-1.25,0-2.5.05-3.75.06a2.08,2.08,0,0,1-.88-.12c-.27-.13-.47,0-.7,0a5.73,5.73,0,0,1-.72.14q-3.13.07-6.26.11a5.87,5.87,0,0,1-.8-.11c-.23.22-.66.16-1.07.14s-.82.17-1-.4l-.55.15.16.23-16.54.28-.24-.52-.24.57-1.11,0c-.39,0-.49-.08-.51-.45a11.71,11.71,0,0,1,0-1.79c.08-.82.24-1.64.41-2.46A5.78,5.78,0,0,1,17.57,50,12.16,12.16,0,0,1,18,48.72a5.29,5.29,0,0,0,.65-1.18,2,2,0,0,1,.78-1.15s0-.13.06-.2a1,1,0,0,1,.14-.35,7.51,7.51,0,0,0,.54-.52c.14-.19.17-.46.3-.66a9.5,9.5,0,0,1,.77-.92,1.49,1.49,0,0,1,1.61-.64l-.31-.54a3,3,0,0,1,.33-.38,17.79,17.79,0,0,1,4.52-2.72c.22-.09.22-.09.47.07a1,1,0,0,1,1.36-.44c.13-.44.58-.31.89-.43s.67-.38,1.06,0c.11.09.51-.06.72-.19a1.57,1.57,0,0,1,.81-.22l2.65,0a3.61,3.61,0,0,1,1.58.26c.23.1.55,0,.81,0,.65.13,1.29.29,1.93.44C40,39,40.23,39.13,40.19,39.49Zm-17.9,5.66a1,1,0,0,0-.17.12c-.08.08-.14.18-.21.27-.3.38-.29.4.13.66a4.21,4.21,0,0,1,.52.46l.37-.31-.6-.47C22.53,45.42,22.53,45.42,22.29,45.16Zm14.49,7.06c.32.18.41.18.88,0,0-.27,0-.51-.06-.75s-.08-.27-.12-.27a.51.51,0,0,0-.36.12c-.08.08-.07.25-.11.37S36.87,52,36.78,52.22ZM30.91,43c.27.23.36-.27.61-.07a4.06,4.06,0,0,0,.67.32l-.2-.59c-.25,0-.45-.05-.63-.1C31,42.49,30.89,42.61,30.91,43Zm-1.86,1.24c0,.31.06.6-.37.79A1.46,1.46,0,0,0,30,44.8c-.18-.43-.47-.05-.68-.12Zm5.33-4.1c.31-.14.6-.25.87-.4.06,0,.09-.16.08-.23s-.11-.12-.16-.12a3,3,0,0,0-.37.11l-.5.11ZM47.08,51c-.53,0-.94.37-.88.68l.46.16Zm-27.48.84c-.11-.16-.09-.45-.4-.37,0,.43.12.74.36.65a.83.83,0,0,1,.59.05.75.75,0,0,0,.28,0C20.27,51.66,19.9,52,19.6,51.87Zm3.89,3,.55-.7a.82.82,0,0,0-1,.61ZM43.67,41.27c-.41-.35-.77.14-1.19,0,.15.52.59.25.78.45ZM19.77,48.08l.56.52c.11-.13.24-.21.25-.3a.55.55,0,0,0-.13-.4C20.21,47.7,20,47.8,19.77,48.08Z"/><path class="cls-1" d="M36.14,15.16c.42-.35,1.07-.12,1.57.55.61-.25,1.07.18,1.57.43A7.43,7.43,0,0,1,40.5,17c.15.12.21.36.36.49s.39.11.52.24c.41.39.88.75.89,1.43.35,0,.52.15.68.41a10.32,10.32,0,0,1,1.68,4.06,1.75,1.75,0,0,0,.09.27l-.35,0s0,0,0,0a1.72,1.72,0,0,1,.55,1.63,9.82,9.82,0,0,1-.1,1.77,8.55,8.55,0,0,1-.35,1.59,4.72,4.72,0,0,1-.38.66s-.1.09-.1.14c.07.87-.57,1.44-.93,2.12a8.86,8.86,0,0,1-.86,1.2c-.2.27-.54.39-.72.71a3,3,0,0,1-.75.69.32.32,0,0,1-.46,0,1.73,1.73,0,0,0-.51-.15,2,2,0,0,0,.08.41c.1.2.1.35-.12.46-.73.36-1.44.76-2.19,1.07-.32.13-.67.2-1,.37l-.21-.34a1.15,1.15,0,0,1-1.49.44.81.81,0,0,0-.47,0,5.92,5.92,0,0,1-3-.09A11.37,11.37,0,0,1,25.39,33a15.66,15.66,0,0,1-1.32-1.85c-.08-.12-.33-.33-.05-.41a3.23,3.23,0,0,1-.45-.6,7.84,7.84,0,0,1-.77-3.07c0-.57-.14-1.14-.12-1.71a10.42,10.42,0,0,1,2.16-6.18,1.18,1.18,0,0,0,.1-.2h.47l.48,0,.41-.5c-.43,0-.64.49-1.06.23a1.7,1.7,0,0,1,1.27-1c.14-.18-.2-.32.05-.51a12.53,12.53,0,0,1,3.71-2.07c.63-.19,1.28-.34,1.92-.49.23-.05.47-.05.53.28,0,.08.09.16.21.34l.24-.63c.38.06.87-.27,1.24.37,0-.34.17-.48.42-.4C35.27,14.79,35.84,14.58,36.14,15.16ZM36,21.64c.34.23.63.4.66.8,0,.16.23.2.34.08a.51.51,0,0,0-.09-.7l-.59-.56Zm1.05,2.8a2.23,2.23,0,0,0-.33.48c0,.09,0,.3.09.31a2.29,2.29,0,0,0,.78.06c.1,0,.18-.24.25-.36-.28-.3-.49,0-.66,0Zm-.27,6.92.23.48c.5-.27,0-.57.14-.83-.62,0-.62,0-.88.47C36.48,31.63,36.61,31.46,36.79,31.36Zm.28-5.48,1.31.25-.11-.52C37.85,25.71,37.43,25.51,37.06,25.87Z"/></g></g></svg>