<?xml version="1.0" encoding="utf-8"?>
<!-- Generator: Adobe Illustrator 19.1.0, SVG Export Plug-In . SVG Version: 6.00 Build 0)  -->
<svg version="1.1" id="Layer_1" xmlns="http://www.w3.org/2000/svg" xmlns:xlink="http://www.w3.org/1999/xlink" x="0px" y="0px"
	 viewBox="0 0 400 200" style="enable-background:new 0 0 400 200;" xml:space="preserve">
<style type="text/css">
	.st0{fill:#757576;}
	.st1{fill:none;stroke:#424343;stroke-width:2;stroke-miterlimit:10;}
	.st2{fill:#F37046;}
	.st3{fill:#FFFFFF;}
</style>
<g>
	<g>
		<path class="st0" d="M119.4,92.6c0.5,0.1,0.7,0.1,0.9,0.2c-0.1,1.2-0.2,2.4-0.3,3.6c0,0.1-0.2,0.3-0.3,0.4c-0.3,0.3-0.6,0.5,0,0.9
			c0.1,0.1,0.2,0.3,0.2,0.5c-0.2,2-0.5,4.1-0.7,6.1c-0.2,1.4-0.3,2.8-0.5,4.3c-0.2,1.8-0.4,3.6-0.6,5.4c0,0.2-0.3,0.3-0.2,0.2
			c0,0.8,0.1,1.4,0,2c-0.1,0.9-0.3,1.8-0.4,2.7c-0.3,2.7-0.5,5.4-0.8,8.1c-0.4,3.3-0.8,6.6-1.2,9.9c-0.1,0.9-0.1,1.8-0.2,2.6
			c0,0.2-0.2,0.4-0.3,0.7c-0.1,3.6-0.6,7.4-1.3,11c0.1,0.3,0.3,0.7,0.2,1c-0.2,2.5-0.4,5.1-0.8,7.6c-0.3,1.4-0.1,2.9-0.5,4.3
			c-0.2,0.7-0.5,1.1-1.2,1.1c-2.1,0-4.3,0-6.4,0c-0.3,0-0.6-0.4-1.1-0.8c0.2,0.3,0.2,0.5,0.3,0.7c-4.9,0-9.7,0-14.6,0
			c0,0-0.1-0.3-0.1-0.4c-0.3,0.1-0.6,0.4-0.9,0.4c-2.5,0-5,0-7.5,0c-0.1-0.3-0.1-0.6-0.2-0.9c-0.6,0.1-1.1,0.3-1.6,0.4
			c0,0.1,0,0.2,0,0.2c0.3,0,0.6,0.1,0.9,0.1c0,0.1,0,0.1,0,0.2c-1,0-1.9,0.1-2.9,0c-0.9-0.1-1.8,0.3-2.6-0.3
			c-0.2-0.1-0.7,0.3-1.1,0.3c-1.1,0-2.2-0.3-3.3-0.2c-0.5,0.1-0.8,0.3-0.9-0.3c-1.6,0.7-3.1,0.8-4.7-0.3c0,0.4,0,0.6,0,0.7
			c-1,0-2,0.1-3,0.1c-0.8,0-1.7,0.1-1.3-1.2c0.1-0.4-0.3-0.9-0.2-1.3c0.2-0.9-0.5-1.6-0.6-2.5c0-1.1-0.2-2.2-0.3-3.2
			c-0.1-1.1-0.2-2.1-0.3-3.2c-0.3-2.5-0.7-5.1-1-7.6c-0.2-1.4-0.1-2.8-0.3-4.2c-0.2-1.5-0.5-3-0.7-4.5c-0.1-0.6,0.2-1.3,0.3-2
			c-0.1,0-0.3-0.1-0.5-0.1c-0.2-1.5-0.3-2.9-0.5-4.6c0.6,0.2,1.1,0.4,1.5,0.5c0-0.1,0.1-0.2,0.1-0.2c-0.3-0.2-0.7-0.6-1-0.5
			c-0.7,0.1-0.8-0.3-0.7-0.8c0.1-0.7-0.2-1.4,0.1-2.2c0.2-0.7-0.4-1.6-0.5-2.5c-0.2-1.6-0.4-3.3-0.6-4.9c-0.3-2.2-0.5-4.3-0.8-6.5
			c-0.1-0.7-0.3-1.4-0.2-2c0-0.3,0.6-0.6,0.9-0.8c0.2-0.1,0.6,0,0.9,0c0-0.1,0-0.2,0.1-0.3c-0.4-0.1-0.9-0.3-1.3-0.2
			c-0.7,0.3-0.8,0-0.8-0.5c-0.3-2.2-0.7-4.4-0.7-6.7c0-0.9-0.4-1.7-0.4-2.7c0.1-0.9-0.2-1.9-0.3-2.9c-0.1-1.1-0.3-2.2-0.4-3.3
			c0-0.4,0.2-0.7,0.3-1.1c-0.7-0.5-0.7-1.3,0-2.3c0.3,0.1,0.5,0.2,0.8,0.3c0.3-1.1-0.1-1.5-1.5-1.2c-0.1-1.4-0.3-2.8-0.3-4.3
			c0-0.3,0.3-0.9,0.5-1c0.5-0.1,1,0.1,1.5,0.2c0.2,0,0.4,0.1,0.6,0.1c1.2-0.1,2.5-0.3,3.7-0.3c0.2,0,0.4,0.5,0.5,0.5
			c2.3-0.8,4.7-0.4,7.1-0.5c1.2-0.1,1.4,0.2,1.4,1.3c0,1.1-0.1,2.2,0,3.4c0,0.8,0.2,1.5,0.3,2.3c0.3,1.9,0.9,3.7,1.9,5.4
			c2.2,4.1,5.4,7.1,9.7,8.8c0.2,0.1,0.4,0.4,0.5,0.6c1.2,0.2,2.4,0.4,3.6,0.6c3.1,0.7,6.1,0.4,9.1-0.5c0.6-0.2,1.2-0.3,2-0.5
			c0,0,0.2-0.3,0.5-0.4c1.3-0.8,2.6-1.6,3.8-2.4c2.6-1.8,4.8-5.1,6.1-8.1c1-2.2,1.3-4.4,1.3-6.8c0.2-0.1,0.5-0.2,0.7-0.4
			c0-0.1,0-0.1-0.1-0.2c-0.2,0-0.4,0.1-0.6,0.1c0-1,0-2,0-3.2c2.4,0,4.8,0,7.1,0c0.5,0,1.1,0.1,1.6,0c0.5,0,1,0.2,1.6,0.3
			c0,0,0-0.2,0.1-0.4c1.3,0,2.7,0,4,0c0.8,0,1.1,0.5,1,1.2c-0.2,1.7-0.4,3.4-0.6,5.1C120.5,91.4,120.6,92.2,119.4,92.6z
			 M112.8,146.1c-1,0.2-1.5,0.7-1.2,1.4c0.1,0.1,0.7,0.1,1,0.1c0.7,0,0.6-0.4,0.6-0.9c-0.3,0-0.6,0.1-1.2,0.2
			C112.4,146.6,112.5,146.4,112.8,146.1z M65.6,159.9c0.2-1.7,1.9-0.7,2.5-1.8c-1.1,0.2-2,0.4-3.3,0.7
			C65.2,159.3,65.4,159.6,65.6,159.9z M81.5,160.9c-0.6-0.3-1.4-0.6-0.5-1.7c-0.6,0.1-0.9,0.2-1,0.2c0.1,0.8,0.1,1.4,0.2,2
			C80.6,161.2,81,161.1,81.5,160.9z M60.8,118c0.3-0.3,0.5-0.6,0.7-0.9c0.1,0,0.2,0.1,0.3,0.1c0-1-0.9-0.9-1.5-1.2
			c-0.1,0.1-0.2,0.1-0.3,0.2C60.3,116.8,60.5,117.4,60.8,118z M114.3,97.4c0,0.3,0,0.6,0.1,0.9c0.1,0.3,0.4,0.5,0.6,0.8
			c0.2-0.2,0.4-0.3,0.5-0.5C115.8,97.7,115.4,97.4,114.3,97.4z M65.4,127.3c0.8,0.1,1.6,0.1,2.6,0.2c-0.7-0.4-1.3-0.7-1.8-1
			c0-0.1,0.1-0.1,0.1-0.2c-0.3,0.1-0.6,0.1-0.9,0.2C65.5,126.7,65.5,127,65.4,127.3z M102.1,130.2c-0.4-0.3-0.7-0.8-1.3-0.3
			c-0.1,0.1-0.5-0.2-0.6-0.3c-0.2-0.2-0.3-0.6-0.4-0.9c-0.1,0.1-0.2,0.2-0.3,0.3c-0.1,0.2-0.2,0.5-0.3,0.7
			C100.1,130.2,101,130.4,102.1,130.2z M112.2,121c-0.4,0-0.9,0-1.4-0.1c-0.2,0-0.3-0.1-0.5-0.1c0,0.1-0.1,0.3-0.1,0.3
			c0.1,0.1,0.3,0.2,0.5,0.2c0.3,0.1,0.6,0.1,0.8,0.2c0.5,0.2,0.9,0.3,1.3,0.5c0-0.1,0.1-0.2,0.1-0.4c-0.3,0-0.5,0-0.7-0.1
			C112.2,121.6,112.3,121.3,112.2,121z M69.4,102.5c0.2,0.6,0.3,1,0.4,1.4c0.3-0.1,0.7-0.3,1-0.4c0-0.4-0.1-0.7-0.1-1.1
			C70.3,102.4,69.9,102.4,69.4,102.5z M112.9,101.7c-0.1-0.1-0.1-0.2-0.2-0.3c-0.5,0.3-0.9,0.6-1.4,0.9c-0.7,0.4-0.4,0.9,0,1.4
			c0.1,0.1,0.3,0.1,0.5,0.1c0-0.2,0-0.4-0.1-0.5c-0.8-0.6-0.1-0.7,0.3-1C112.2,102,112.6,101.8,112.9,101.7z M103.6,153.8
			c0.1-0.1,0.1-0.1,0.2-0.2c-0.4-0.2-0.8-0.6-1.2-0.7c-0.4-0.1-0.8,0.2-1.2,0.3c0,0.1,0,0.2,0,0.2
			C102.1,153.5,102.8,153.7,103.6,153.8z M101.9,110.7c0.8-0.1,1.7,0,2.1-0.9c0.1-0.1,0.2-0.2,0.3-0.3c-0.2,0-0.4-0.1-0.5,0
			C103.2,109.8,102.5,110.2,101.9,110.7z M66.6,95.1c-0.5-0.4-1-0.9-1.7-0.2c-0.1,0.1,0,0.4,0,0.6c0.4-0.2,0.8-0.3,1.1-0.4
			c0.1,0.4,0.1,0.7,0.1,0.9c0.1,0,0.1,0,0.2,0C66.4,95.7,66.5,95.4,66.6,95.1z M98.1,159.7c0.3-0.4,0.6-0.7,0.8-1.1
			c0.1-0.2,0.2-0.5,0.2-0.8c0-0.1-0.3-0.2-0.5-0.2c-0.1,0-0.3,0.2-0.3,0.3c-0.1,0.4-0.3,0.8-0.3,1.3C97.9,159.4,98,159.6,98.1,159.7
			z M98.6,162.4c0.6,0.2,1.1,0.4,1.8,0.7c-0.6-0.7-1.1-1.3-1.7-1.9c-0.1-0.1-0.4,0.1-0.7,0.2c0.4,0.2,0.6,0.3,0.9,0.5
			C98.9,162.2,98.7,162.3,98.6,162.4z M85.9,116c0-0.2,0-0.7-0.2-0.8c-0.2-0.2-0.7-0.2-0.9,0c-0.2,0.1-0.3,0.5-0.5,0.7
			C84.9,115.9,85.3,116,85.9,116z M71,110.7c0,0.6,0.1,1.1,0.1,1.5c0.1,0,0.2,0,0.3,0.1c0.2-0.6,0.3-1.1,0.6-2
			C71.4,110.6,71.1,110.7,71,110.7z M116,109.7c0,0.1,0,0.2-0.1,0.3c0.5,0.3,1.5-0.1,1.3,1.3c0.4-0.4,0.7-0.6,1.1-1
			C117.4,110.1,116.7,109.9,116,109.7z M85.7,124.1c0.3,1.5,1.7,0.5,2.2,1.3c0.1-0.1,0.1-0.3,0.2-0.4
			C87.4,124.7,86.6,124.5,85.7,124.1z M66,140.6c-0.1-0.4-0.1-0.8-0.2-1.1c-0.5,0.4-0.9,0.7-1.3,1c0,0.1,0,0.2,0,0.2
			C64.9,140.7,65.3,140.7,66,140.6z M90.2,161.2c-0.8-0.1-1.5-0.1-2.1-0.2c0,0.1,0,0.2,0,0.3c0.3,0,0.7,0,1,0.2
			c0.2,0.1,0.2,0.4,0.3,0.7C89.7,161.9,89.9,161.6,90.2,161.2z M65.3,113.9c0.4,1.3,0.8,1.4,1.9,0.8C66.5,114.4,66,114.2,65.3,113.9
			z M85.8,127.5c0-0.1,0-0.2-0.1-0.3c-0.5,0.1-1,0.2-1.5,0.3c0.3,0.4,0.4,0.8,0.7,1.1c0,0.1,0.3-0.1,0.5-0.1
			c-0.1-0.3-0.2-0.5-0.4-0.8C85.4,127.5,85.6,127.5,85.8,127.5z M75.7,145.9c-0.4,0.3-0.5-1.1-1-0.4c-0.2,0.2,0.1,0.9,0.2,1.3
			c-0.1-0.2-0.2-0.4-0.3-0.6C75.1,146.1,75.5,146,75.7,145.9z M79.9,127.6c-0.3,0.4-0.5,0.8-0.8,1.2c0.4,0.1,0.7,0.2,1.1,0.3
			C80.1,128.6,80,128.1,79.9,127.6z M117.5,98.9c0.3-1.2-1-0.4-1.3-1C115.7,99.3,117.4,98.2,117.5,98.9z M110.6,105.5
			c0.1-0.1,0.1-0.1,0.2-0.2c-0.2-0.2-0.4-0.6-0.5-0.6c-0.5,0.1-1,0.3-1.7,0.5c0.3,0.3,0.5,0.4,0.7,0.6c0.2-0.3,0.3-0.6,0.4-0.8
			C110.1,105.2,110.3,105.3,110.6,105.5z M77.3,152.2c0,0.2,0,0.4,0.1,0.7c0.1,0,0.3-0.1,0.4-0.1c-0.2-0.5-0.3-1-0.5-1.4
			c-0.1-0.1-0.5-0.1-0.8-0.1c0,0.1,0,0.2-0.1,0.2C76.7,151.6,76.9,151.9,77.3,152.2z M58.6,113.6c0,0.1,0,0.2,0,0.3
			c0.4,0,0.8,0,1.2,0.1c-0.1,0.3-0.1,0.6-0.2,1c0.4-0.1,0.6-0.2,0.7-0.3c-0.2-0.4-0.4-0.8-0.6-1.3C59.4,113.4,59,113.5,58.6,113.6z
			 M79.2,136.9c0,0.1,0,0.3,0,0.4c0.4,0.1,0.8,0.2,1.3,0.3c0-0.3,0-0.5,0-0.8C80,136.9,79.6,136.9,79.2,136.9z M105.7,149.6
			c-0.1,0-0.2-0.1-0.2-0.1c-0.5,0.2-0.9,0.4-1.5,0.7c0.2,0.1,0.5,0.5,0.6,0.5C104.9,150.4,105.3,150,105.7,149.6z M70.3,143.3
			c0.6,0.1,1.2,0.4,1.7-0.3C71.4,142.8,70.7,142.4,70.3,143.3z M75.1,130.3c-0.1,0.2-0.2,0.4-0.3,0.7c0.5,0.1,0.9,0.2,1.4,0.3
			c0-0.1,0.1-0.2,0.1-0.3C76,130.7,75.6,130.6,75.1,130.3z M106.9,103.9c-0.4-0.3-0.7-0.6-1.3-1.1c0.1,0.7,0.2,1.2,0.3,1.7
			C106.3,104.3,106.6,104.1,106.9,103.9z"/>
		<path class="st0" d="M126.8,72.9c-0.2,0.2-0.4,0.4-0.6,0.6c0.1,0.1,0.1,0.2,0.2,0.2c0.2-0.1,0.4-0.2,0.6-0.3
			c0.1,0.1,0.1,0.2,0.1,0.2c0,1.6,0,3.3,0,4.9c0,0.8-0.4,1-1,1c-2,0-4,0-6.1,0c-2.3,0-4.5,0-6.8,0c-2.6,0-5.2,0-7.7,0
			c-1.2,0-2.2-0.5-2.7-1.7c0.3-0.2,0.5-0.3,0.7-0.4c0-0.1,0-0.1,0-0.2c-0.3,0-0.7,0-1,0c0-0.2,0-0.5,0-0.7c-0.5-0.4-1.1-0.8-1.6-1.4
			c-1.5-1.9-3.3-3.5-5.4-4.6c-0.5-0.3-0.9-1-1.3-0.9c-0.9,0.2-1.5-0.4-2.2-0.6c-2-0.5-4.1-0.8-6.2-0.8c-1,0-1.9,0.2-2.9,0.3
			c0-0.2,0-0.5,0-0.7c-0.5,1.6-2,1.2-3,1.6c-2.2,0.8-4.2,1.8-5.8,3.4c-1.5,1.5-2.8,3.2-4.1,4.9C69,79,68,79.7,66.4,79.6
			c-2.3-0.1-4.6,0-6.9,0c-0.2,0-0.4-0.1-0.9-0.3c-0.5,0.1-1.3,0.3-2.2,0.3c-2.4,0-4.8,0-7.2,0c-0.9,0-1.8,0-2.7,0
			c-0.7,0-1.1-0.3-1.1-1.1c0-1.8-0.2-3.5-0.2-5.3c0-2.3,0.1-4.7,0.2-7c0-0.7,0.4-0.7,0.9-0.7c4.2,0,8.4,0,12.7,0
			c0.2,0.3,0.3,0.5,0.4,0.7c0.1,0,0.1,0,0.2-0.1c0-0.2-0.1-0.4-0.1-0.6c9.9,0,19.8,0,29.6,0c-0.1,0.3-0.3,0.6-0.4,0.9
			c1-1.4,2.4-0.9,3.6-0.9c3.8,0,7.6,0.1,11.4,0.1c3,0,5.9,0,8.9,0c0,0.1,0,0.4,0,0.5c0.5,0.1,1,0.1,1.6,0.2c0,0,0.1-0.1,0.1-0.1
			c-0.1-0.1-0.3-0.2-0.4-0.3c-0.2-0.1-0.5-0.2-0.7-0.2c0-0.1,0-0.2,0-0.3c1.9,0,3.8,0,5.8,0c0.5,0,1,0.1,1.5,0.2
			c0.4,0,0.9,0.1,1.3,0c1.4-0.1,2.9-0.2,4.3-0.2c0.7,0,1,0.2,1,1c0,2.2,0,4.4,0,6.6C127,73,126.9,73,126.8,72.9z M73.1,66.7
			c0.4,0.4,0.7,0.7,1,1c0.1-0.1,0.1-0.1,0.2-0.2c-0.2-0.2-0.4-0.3-0.6-0.5c0.5-0.3,1-0.5,1.5-0.7c-0.1-0.1-0.1-0.2-0.2-0.4
			C74.4,66.2,73.8,66.4,73.1,66.7z M68.2,66.8c0.1-0.1,0.1-0.2,0.2-0.3c-0.7-0.2-1.7,0.2-1.9-1c-0.1,0.1-0.2,0.2-0.2,0.3
			c0.1,0.4,0.2,0.8,0.3,1.2C67.1,67,67.6,66.9,68.2,66.8z M48.9,74.3c0-0.8,0-1.3,0-1.7c0.2-0.1,0.4-0.2,0.5-0.3
			c-0.2-0.2-0.6-0.2-0.6-0.2C48.8,72.8,47.9,73.4,48.9,74.3z"/>
		<path class="st0" d="M70.6,43.9c0.3,0.3,0.4,0.4,0.6,0.6c-0.6-0.8,0.1-1.1,0.5-1.4c0.4-0.4,0.9-0.7,1.4-1c0.2-0.1,0.4-0.1,0.6-0.1
			c0.5,0,0.8,0.1,1.1-0.7c0.2-0.5,1-0.9,1.6-1.2c1.9-0.7,3.7-1.6,5.7-1.9c1.7-0.3,3.3-0.8,5.1-0.6c3.8,0.4,7.5,1.3,10.7,3.4
			c1.6,1.1,3.3,2.2,4.7,3.6c2.1,2.1,3.8,4.5,4.7,7.6c-0.1,0-0.2-0.1-0.3,0c-0.1,0-0.2,0.1-0.5,0.4c0.5,0,0.7,0,1.1,0
			c0,0.4-0.1,0.8-0.1,1.4c0.1,0.1,0.4,0.3,0.4,0.6c0.3,1.6,0.4,3.1,0.7,4.7c0.2,1-0.4,1-1,1c-2.5,0-4.9,0.1-7.4,0
			c-0.9-0.1-1.7,0.1-2.6,0.1c-2.3,0-4.6,0-7,0c0-0.2-0.1-0.4-0.1-0.4c-0.7,0.1-1.2,0.3-1.8,0.4c-1.7,0-3.4,0.1-5.1,0
			c-1.2,0-2.5-0.3-3.7-0.3c-0.4,0-0.7,0.3-1.1,0.3c-0.9,0.1-1.9,0-2.8,0c-3.4,0-6.8,0-10.1,0c-0.8,0-1.5-0.1-1.8-1
			c0.3-0.1,0.5-0.1,0.8-0.2c0,0,0-0.1,0-0.1c-0.3-0.1-0.6-0.1-0.8-0.2c0-0.1,0-0.1,0-0.2c0.3-0.1,0.6-0.1,1.1-0.3
			c-1.1-0.4-1-1.1-0.7-1.9c0.3-1,0.5-2.1,0.9-3.1c0.3-0.9,0.5-1.8,0.8-2.8c0.3-1,0.7-1.5,1.8-1.1c0.2-0.7,0.1-1.1-0.8-1.1
			C68.2,46.8,69.4,45.4,70.6,43.9z M101.5,48.5c-0.3-0.1-0.6-0.3-0.9-0.4c0,0.1-0.1,0.3-0.1,0.4c0.6,0.2,1.3,0.4,1.7,0.5
			c0.1-1,0.2-1.8,0.2-2.6c-0.1,0-0.2,0-0.3,0C102,47,101.8,47.7,101.5,48.5z M81.1,42.2c-0.8-0.2-1.4-1.1-2.4-0.3
			c0.4,0.2,0.9,0.2,1.1,0.4C80.3,43.1,80.7,42.5,81.1,42.2z M71,51.2c0.1,0.6,0.3,1,0.4,1.4c0.4-0.3,0.8-0.6,1.3-1
			C72.1,51.5,71.6,51.4,71,51.2z M74.4,59.2c-0.4,0-0.7,0-1,0.1c-0.2,0.1-0.4,0.3-0.6,0.4c0.1,0.1,0.1,0.1,0.2,0.2
			C74.5,59.6,74.5,59.6,74.4,59.2z"/>
		<path class="st0" d="M111.1,85.5c-0.6-0.2-1.1-0.4-2-0.7c0.8-0.6,1.3-0.9,1.7-1.3c0.3-0.3,0.8-0.8,0.8-1.1c-0.6-3.2,0-6.7-2.7-9.3
			c-0.1-0.1-0.2-0.3-0.2-0.4c-0.2-1-0.4-2.1-0.6-3c-0.9,0.5-1.4,1-1.8,0.9c-0.7-0.2-1.2-0.7-2.1-1.3c1.1-0.5,1.7-0.9,2.4-1.2
			c-0.2-0.3-0.4-0.6-0.6-0.9c-2.9-0.1-5.7-0.2-8.6-0.3c-0.2,0.5-0.3,1.1-0.6,1.7c-0.1,0.3-0.6,0.4-0.9,0.6c-0.1-0.2-0.4-0.5-0.4-0.7
			c0-0.6,0.1-1.1,0.2-1.7c-8.6-0.3-17.3-0.5-26-0.6c-0.8,0-1.6-0.1-2.4-0.2c-1.9,1.9-3.2,4.3-4.4,6.8c-1.4,2.8-2,5.8-2.1,8.9
			c-0.2,4.5,0.3,8.8,2.2,12.8c0.5,1,1.7,1.7,2,2.8c0.7,3.1,3.1,4.9,5.3,6.5c5.2,3.8,10.8,6.4,17.5,4.8c2.1,0.9,4.1-0.2,6-0.6
			c3.9-0.9,7.2-2.9,10.1-5.6c3-2.8,5.3-6.3,6.4-10.3c0.7-2.6,1.1-5.3,1.7-7.9c-0.2,0-0.4-0.1-0.7-0.1
			C111.2,84.5,111.2,84.9,111.1,85.5z M88.5,86.7c-1,0.1-2.1,0.2-3.1,0.2c0-0.2,0-0.4,0-0.6c1-0.3,2-0.6,3.1-0.8
			c0.2,0,0.4,0.2,0.6,0.4C88.8,86.2,88.7,86.7,88.5,86.7z M91.9,83.4c2-1.1,2.8-0.9,3.4,1C94.1,84.1,93.1,83.8,91.9,83.4z
			 M100.6,103.7c-0.6,0-1.2-0.2-1.8-0.3c0,0,0.1-0.8,0.1-0.8c0.7,0,1.4,0,2.1,0.1c0.2,0,0.3,0.5,0.5,0.8
			C101.3,103.6,101,103.8,100.6,103.7z"/>
		<path class="st0" d="M73,23.5c-1.1-2.2-0.8-4.4-0.5-6.6c0.4,0.1,0.7,0.2,1.1,0.3c0-0.1,0.1-0.2,0.1-0.2c-0.3-0.3-0.7-0.5-1-0.8
			c0.4-1.1,0.6-2.4,1.6-3.3c0.2-0.3,0.3-0.8,0.5-1.1c1.3-2.1,3.2-3.6,5.4-4.6C81.4,6.7,82.7,6.1,84,6c2.2-0.1,4.5-0.4,6.7,0.5
			C91.1,6.7,91.5,7,92,7.4c1.6-0.1,2.6,1.3,3.8,2.2c0.1,0.1,0,0.4,0,0.5c0.7-0.1,0.9,0.1,2,1.8c-0.2,0.2-0.5,0.3-0.7,0.4
			c1.3-0.2,1.7,0.7,1.9,1.6c0.4,1.5,0.8,3,1.1,4.5c0.2,0.8,0.5,1.7-0.3,2.5c-0.1,0.1,0.4,0.9,0.1,1.5c-0.5,1.4-0.8,2.9-1.5,4.2
			c-0.8,1.4-1.8,2.7-2.9,3.7c-2.1,1.9-4.7,3-7.6,3.3c-2.4,0.3-4.6,0-6.8-0.9c-0.7-0.3-1.3-0.9-1.9-1.4c-0.2-0.1-0.5-0.3-0.5-0.3
			c-0.3,0.6-0.6,0.1-0.8-0.1c-1.9-1.4-3.4-3.2-4.4-5.4c-0.2-0.4-0.1-1-0.5-1.4C72.9,24.1,73,23.7,73,23.5z"/>
	</g>
	<path class="st1" d="M120.8,67.8"/>
	<path class="st2" d="M74.6,126.9c0.3,0,0.6,0,0.7,0.1c0.3,0.4,0.5,0.9,0.7,1.4c0,0.1-0.6,0.5-0.7,0.5c-0.3-0.4-0.7-0.8-0.9-1.3
		C74.4,127.5,74.6,127.2,74.6,126.9z"/>
	<path class="st2" d="M113.4,131c-0.2-0.8-0.1-1.5,0.7-1.5c0.3,0,0.8,0.4,0.8,0.6C114.9,131.1,114.1,130.9,113.4,131z"/>
	<path class="st2" d="M127,117.3c-0.9-0.9,0-1.1,0.5-1.5C127.7,116.7,127.7,116.7,127,117.3z"/>
	<g>
		<path class="st0" d="M98.7,195.7c-0.4,0.1-0.9,0.3-1.4,0.3c-2.1,0-4.2,0.1-6.3,0c-3.5-0.1-6.9,0.1-10.4,0c-0.9,0-1.9,0.1-2.8,0
			c-0.5,0-0.9-0.3-1.3-0.5c0-0.1,0.1-0.2,0.1-0.4c-0.5,0.3-1.1,0.9-1.4,0.8c-1.4-0.3-2.8,0.1-4.2,0.1c-1.6,0-3.2-0.1-4.7-0.1
			c-1.5,0-3,0.1-4.5,0.1c-0.2,0-0.4-0.2-0.6-0.2c0.2-0.9,0.4-1.8,0.6-2.7c-0.5,0.1-1.1,0.3-1.4,0.4c-0.1,0.6-0.1,1-0.2,1.4
			c-0.1,0-0.2,0-0.4,0c0.3,0.4,0.5,0.7,0.9,1.3c-3.4,0-6.6,0.1-9.8-0.1c-1.8-0.1-3.5,0-5.2,0.1c-5.3,0-10.6,0-15.9,0
			c-0.6,0-1.1-0.2-1.7-0.4c-0.1,0.1-0.4,0.4-0.7,0.4c-4.3,0-8.5,0-12.8,0c-0.9,0-1.1-0.4-1.1-1c0-1.9,0-3.7,0-5.6
			c0-1.5-0.2-2.9-0.3-4.4c-0.1-1.1,0.1-2.2,0.1-3.4c0-1-0.1-2-0.1-3c0.1-2.5,0.1-5,0.3-7.4c0-0.5,0.7-0.9,1.2-1.5
			c-0.3,0-0.7-0.1-1.3-0.2c0-1.9,0-4,0-6c0-0.6,0.1-1,1-0.9c1.7,0.1,3.4-0.5,4.8,0.5c1.2-1,2.7-0.3,4-0.5c1.5-0.2,2.1,0.8,3.3,1.4
			c-0.4,0.1-0.6,0.2-1.1,0.3c0.3,0.2,0.5,0.4,0.6,0.5c0.8-0.5,1.4-0.9,2.1-1.3c-0.9-0.1-1.6-0.2-2.7-0.3c1.1-0.6,5.9-0.8,9.6-0.5
			c-0.1,0.2-0.2,0.3-0.3,0.6c0.2,0,0.4,0,0.4,0c0.9-1.3,2.5-0.4,3.7-0.6c1.5-0.2,3.1,0,4.4,0c0.3,0.3,0.5,0.6,0.8,0.9
			c0.2-0.2,0.3-0.5,0.6-0.9c1,0.1,2.3,0.6,3.3,0.4c3.1-0.7,6.3-0.2,9.4-0.3c0.7,0,1.6-0.3,2.1,0.5c0.1,0.1,1,0.2,1.2,0.1
			c1.5-1.2,3.3-0.3,4.9-0.5c0.3,0,0.6,0.5,0.6,0.5c1.2-0.2,2.3-0.5,3.3-0.5c6.2,0,12.4,0,18.5,0c0.8,0,2.2-0.2,1.6,1.5
			c0.8-0.4,1.3-0.6,1.9-0.9c-0.5-0.2-0.8-0.4-1.4-0.7c2.9,0,5.4,0,7.9,0c2.6,0,5.2-0.1,7.8,0c2.2,0.1,4.4,0.1,6.6,0
			c0.1,0.3,0.1,0.6,0.1,0.6c0.7-0.2,1.3-0.4,1.9-0.4c2.6-0.1,5.3-0.2,7.9-0.1c2.1,0.1,4.1,0,6.1,0c2.2,0,4.5,0,6.7,0
			c1.3,0,2.6,0.3,3.9,0.3c2.5,0,4.9-0.2,7.4-0.3c0.3,0,0.6,0.1,0.9,0.1c0.4,0,0.7,0,1.1,0c0.4,0,0.8,0,1.1,0.1
			c0.2,0.1,0.4,0.3,0.5,0.4c0.1-0.2,0.3-0.4,0.5-0.7c1.3,0,2.8,0,4.2,0c0.8,0,1.3,0.1,1.3,0.8c-0.1,2.6-0.2,5.3-0.2,7.9
			c0,1.7,0.1,3.4,0.1,5.1c0,4.5,0.1,9,0.1,13.6c0,0.4,0.1,0.9,0,1.3c-0.1,0.6-0.3,1.1-0.5,1.8c0.1,0.2,0.5,0.6,0.5,1
			c0.1,1.8-0.1,1.9-2.5,1.9c-1.2,0-2.4-0.3-3.6-0.3c-0.7,0-1.4,0.3-2.1,0.3c-3.6,0-7.3,0-10.9,0c-0.6,0-1.6,0.4-1.8-0.5
			c0,0-0.5-0.1-0.5,0c-0.6,1.3-2,0.5-2.9,0.5c-6.5,0.1-13,0.1-19.5,0.1c-3.9,0-7.8,0-11.8,0C100,196,99.4,195.8,98.7,195.7z
			 M28.5,166.2c0.7,1.3,1.4-0.3,2.1-0.2c-1-0.2-1.9-1.3-2.9,0c-0.2,0.2-0.5,0.3-0.7,0.5c0.2,0.1,0.4,0.2,0.6,0.2
			C27.9,166.5,28.1,166.4,28.5,166.2z M121.3,183.7c0-0.1,0-0.2,0-0.2c-0.7-0.1-1.3-0.2-1.8-0.3c-0.2-0.3-0.4-0.6-0.6-1
			c-0.5,0.3-0.9,0.6-1.4,0.8c0,0.1,0.1,0.2,0.1,0.4c1.5-0.5,1.4,0.3,1.6,0.6C119.9,183.9,120.6,183.8,121.3,183.7z M148.6,179.3
			c-0.5,0.2-0.8,0.4-1.1,0.5c-0.2,0.1-0.4,0.3-0.3,0.4c0.1,0.2,0.3,0.5,0.5,0.5c0.7,0.1,1.4,0.1,2.5,0.2
			C149.5,180.3,149,179.8,148.6,179.3z M142.7,181.3c0.2,0.5,0.4,1,0.5,1.4c0.8-0.2,1.5-0.3,2.3-0.5
			C144.7,181.5,144,180.7,142.7,181.3z M108.2,191.4c0.1,0,0.2,0.1,0.3,0.1c0.6-0.6,1.3-1.2,1.9-1.9c-0.9-0.1-1.7-0.3-2.7-0.4
			c0.5,0.5,0.8,0.8,1.1,1.1C108.6,190.7,108.4,191,108.2,191.4z M68.7,173.1c0.2,0.7,0.4,1.3,0.6,2c0.3,0,0.7,0,1.5,0
			C69.6,174.5,70.8,173.1,68.7,173.1z M98.5,172.8c1.1,0.2,1.9,0.4,2.7,0.6c0-0.1,0.1-0.2,0.1-0.3c-0.2-0.2-0.5-0.4-0.7-0.6
			c-0.2-0.2-0.4-0.5-0.6-0.7C99.5,172.2,99,172.5,98.5,172.8z M89.5,168.6c-0.1-0.1-0.3-0.1-0.4-0.2c-2.1,1.1-2.2,1.2-1.3,1.8
			c0.4-0.2,0.8-0.4,1.1-0.7C89.2,169.3,89.3,168.9,89.5,168.6z M83.3,172.5c0-0.3,0-0.6,0.1-0.8c0.2-0.4,1.4-0.5,0.6-1.2
			c-0.4,0.3-0.9,0.6-1.3,0.9c-0.2,0.2-0.4,0.4-0.5,0.7c-0.1,0.1,0,0.2,0,0.3C82.6,172.5,83,172.5,83.3,172.5z M69.4,168.5
			c0.1,0.1,0.3,0.5,0.6,0.5c0.9,0,1.8-0.1,2.6-0.1c0-0.2,0-0.7-0.2-0.7c-0.3-0.1-0.8-0.1-1.2,0C70.6,168.3,70,168.4,69.4,168.5z
			 M69.3,164.1c1.3,0,2.4,0,3.5,0c0-0.1,0-0.2,0-0.3c-1-0.2-2-0.3-3-0.5C69.7,163.6,69.5,163.9,69.3,164.1z M49.1,180.2
			c-0.7,0.7-1.1,1.1-1.7,1.7c1.1-0.1,1.7-0.2,2.4-0.3C49.6,181.3,49.5,180.9,49.1,180.2z M133.3,183.4c0.2,0,0.3,0,0.5,0
			c0.2-0.6,0.5-1.2,0.8-1.9c-0.7,0.2-1.5,0.3-1.5,0.5C133,182.4,133.2,182.9,133.3,183.4z M47,174.8c0.6-0.1,1.1-0.2,1.6-0.4
			c0.3-0.1,0.4-0.3,0.6-0.5c-0.2-0.1-0.4-0.3-0.7-0.4C47.2,173.3,47.5,174.4,47,174.8z M140.3,169.4c0.1,0.2,0.3,0.3,0.4,0.5
			c0.8-0.5,1.7-1,2.5-1.5c-0.1-0.1-0.2-0.2-0.3-0.3C142,168.6,141.2,169,140.3,169.4z M64.7,169.1c-0.1,0.1-0.1,0.1-0.2,0.2
			c0.6,0.4,1.2,0.8,1.8,1.3c0.2-0.4,0.5-0.7,0.7-1.1C66.3,169.3,65.5,169.2,64.7,169.1z M33.1,168c-1.1-1.4-1.1-1.4-2.6-0.1
			C31.4,168,32.2,168,33.1,168z M111.1,170.7c1.2,1.2,1.5,1.2,2.4,0.2C112.6,170.8,111.8,170.8,111.1,170.7z"/>
	</g>
	<g>
		<path class="st3" d="M-13,178.9c-0.3,0.1-0.7,0.3-1.1,0.3c-1.6,0-3.2,0.1-4.8,0c-2.6-0.1-5.3,0.1-7.9,0c-0.7,0-1.5,0.1-2.2,0
			c-0.4,0-0.7-0.3-1-0.5c0-0.1,0-0.2,0.1-0.4c-0.4,0.3-0.8,0.9-1.1,0.8c-1.1-0.3-2.1,0.1-3.2,0.1c-1.2,0-2.4-0.1-3.6-0.1
			c-1.1,0-2.3,0.1-3.4,0.1c-0.2,0-0.3-0.2-0.5-0.2c0.2-0.9,0.3-1.8,0.5-2.7c-0.4,0.1-0.8,0.3-1,0.4c-0.1,0.6-0.1,1-0.1,1.4
			c-0.1,0-0.2,0-0.3,0c0.2,0.4,0.4,0.7,0.7,1.3c-2.6,0-5.1,0.1-7.5-0.1c-1.3-0.1-2.6,0-4,0.1c-4.1,0-8.1,0-12.2,0
			c-0.4,0-0.8-0.2-1.3-0.4c-0.1,0.1-0.3,0.4-0.5,0.4c-3.2,0-6.5,0-9.7,0c-0.7,0-0.8-0.4-0.8-1c0-1.9,0-3.7,0-5.6
			c0-1.5-0.2-2.9-0.2-4.4c0-1.1,0.1-2.2,0.1-3.4c0-1-0.1-2-0.1-3c0-2.5,0.1-5,0.3-7.4c0-0.5,0.6-0.9,0.9-1.5c-0.2,0-0.6-0.1-1-0.2
			c0-1.9,0-4,0-6c0-0.6,0.1-1,0.8-0.9c1.3,0.1,2.6-0.5,3.7,0.5c0.9-1,2.1-0.3,3.1-0.5c1.2-0.2,1.6,0.8,2.5,1.4
			c-0.3,0.1-0.5,0.2-0.9,0.3c0.2,0.2,0.4,0.4,0.5,0.5c0.6-0.5,1.1-0.9,1.6-1.3c-0.7-0.1-1.2-0.2-2-0.3c0.8-0.6,4.5-0.8,7.4-0.5
			c-0.1,0.2-0.1,0.3-0.2,0.6c0.2,0,0.3,0,0.3,0c0.7-1.3,1.9-0.4,2.8-0.6c1.1-0.2,2.3,0,3.4,0c0.2,0.3,0.4,0.6,0.6,0.9
			c0.1-0.2,0.2-0.5,0.4-0.9c0.7,0.1,1.7,0.6,2.5,0.4c2.4-0.7,4.8-0.2,7.2-0.3c0.5,0,1.2-0.3,1.6,0.5c0.1,0.1,0.8,0.2,0.9,0.1
			c1.1-1.2,2.5-0.3,3.7-0.5c0.2,0,0.5,0.5,0.5,0.5c0.9-0.2,1.7-0.5,2.5-0.5c4.7,0,9.4,0,14.1,0c0.6,0,1.7-0.2,1.2,1.5
			c0.6-0.4,1-0.6,1.5-0.9c-0.4-0.2-0.6-0.4-1.1-0.7c2.2,0,4.1,0,6,0c2,0,4-0.1,6,0c1.7,0.1,3.3,0.1,5,0c0.1,0.3,0.1,0.6,0.1,0.6
			c0.5-0.2,1-0.4,1.4-0.4c2-0.1,4-0.2,6-0.1c1.6,0.1,3.1,0,4.7,0c1.7,0,3.4,0,5.1,0c1,0,2,0.3,3,0.3c1.9,0,3.8-0.2,5.7-0.3
			c0.2,0,0.4,0.1,0.7,0.1c0.3,0,0.5,0,0.8,0c0.3,0,0.6,0,0.9,0.1c0.2,0.1,0.3,0.3,0.4,0.4c0.1-0.2,0.2-0.4,0.4-0.7c1,0,2.1,0,3.2,0
			c0.6,0,1,0.1,1,0.8c-0.1,2.6-0.1,5.3-0.2,7.9c0,1.7,0.1,3.4,0.1,5.1c0,4.5,0,9,0.1,13.6c0,0.4,0.1,0.9,0,1.3
			c-0.1,0.6-0.2,1.1-0.4,1.8c0.1,0.2,0.4,0.6,0.4,1c0.1,1.8-0.1,1.9-1.9,1.9c-0.9,0-1.8-0.3-2.8-0.3c-0.5,0-1.1,0.3-1.6,0.3
			c-2.8,0-5.6,0-8.3,0c-0.5,0-1.2,0.4-1.4-0.5c0,0-0.4-0.1-0.4,0c-0.5,1.3-1.5,0.5-2.2,0.5c-5,0.1-9.9,0.1-14.9,0.1c-3,0-6,0-9,0
			C-12,179.2-12.5,179-13,178.9z M-66.6,149.4c0.6,1.3,1-0.3,1.6-0.2c-0.7-0.2-1.4-1.3-2.2,0c-0.1,0.2-0.4,0.3-0.5,0.5
			c0.1,0.1,0.3,0.2,0.4,0.2C-67,149.7-66.8,149.6-66.6,149.4z M4.2,166.9c0-0.1,0-0.2,0-0.2c-0.5-0.1-1-0.2-1.4-0.3
			c-0.1-0.3-0.3-0.6-0.4-1c-0.3,0.3-0.7,0.6-1,0.8c0,0.1,0.1,0.2,0.1,0.4c1.1-0.5,1.1,0.3,1.2,0.6C3.1,167.1,3.7,167,4.2,166.9z
			 M25,162.5c-0.3,0.2-0.6,0.4-0.8,0.5c-0.1,0.1-0.3,0.3-0.3,0.4c0.1,0.2,0.2,0.5,0.4,0.5c0.5,0.1,1.1,0.1,1.9,0.2
			C25.7,163.5,25.4,163,25,162.5z M20.6,164.5c0.1,0.5,0.3,1,0.4,1.4c0.6-0.2,1.2-0.3,1.8-0.5C22,164.7,21.5,163.9,20.6,164.5z
			 M-5.8,174.6c0.1,0,0.1,0.1,0.2,0.1c0.5-0.6,1-1.2,1.5-1.9c-0.7-0.1-1.3-0.3-2.1-0.4c0.4,0.5,0.6,0.8,0.8,1.1
			C-5.5,173.9-5.6,174.2-5.8,174.6z M-35.9,156.3c0.1,0.7,0.3,1.3,0.4,2c0.2,0,0.6,0,1.1,0C-35.2,157.8-34.3,156.3-35.9,156.3z
			 M-13.2,156c0.8,0.2,1.4,0.4,2.1,0.6c0-0.1,0.1-0.2,0.1-0.3c-0.2-0.2-0.4-0.4-0.5-0.6c-0.2-0.2-0.3-0.5-0.5-0.7
			C-12.4,155.4-12.8,155.7-13.2,156z M-20,151.9c-0.1-0.1-0.2-0.1-0.3-0.2c-1.6,1.1-1.7,1.2-1,1.8c0.3-0.2,0.6-0.4,0.9-0.7
			C-20.3,152.5-20.2,152.2-20,151.9z M-24.8,155.8c0-0.3,0-0.6,0.1-0.8c0.2-0.4,1.1-0.5,0.5-1.2c-0.3,0.3-0.7,0.6-1,0.9
			c-0.2,0.2-0.3,0.4-0.4,0.7c0,0.1,0,0.2,0,0.3C-25.3,155.8-25,155.8-24.8,155.8z M-35.4,151.7c0.1,0.1,0.2,0.5,0.4,0.5
			c0.7,0,1.3-0.1,2-0.1c0-0.2,0-0.7-0.1-0.7c-0.3-0.1-0.6-0.1-0.9,0C-34.4,151.5-34.9,151.6-35.4,151.7z M-35.4,147.3
			c1,0,1.8,0,2.7,0c0-0.1,0-0.2,0-0.3c-0.7-0.2-1.5-0.3-2.3-0.5C-35.2,146.8-35.3,147.1-35.4,147.3z M-50.8,163.4
			c-0.5,0.7-0.8,1.1-1.3,1.7c0.8-0.1,1.3-0.2,1.8-0.3C-50.5,164.5-50.6,164.1-50.8,163.4z M13.4,166.6c0.1,0,0.3,0,0.4,0
			c0.2-0.6,0.4-1.2,0.6-1.9c-0.5,0.2-1.1,0.3-1.2,0.5C13.1,165.6,13.3,166.1,13.4,166.6z M-52.5,158c0.4-0.1,0.9-0.2,1.3-0.4
			c0.2-0.1,0.3-0.3,0.5-0.5c-0.2-0.1-0.3-0.3-0.5-0.4C-52.3,156.5-52.1,157.6-52.5,158z M18.7,152.7c0.1,0.2,0.2,0.3,0.3,0.5
			c0.6-0.5,1.3-1,1.9-1.5c-0.1-0.1-0.2-0.2-0.2-0.3C20,151.8,19.4,152.2,18.7,152.7z M-38.9,152.3c0,0.1-0.1,0.1-0.1,0.2
			c0.5,0.4,0.9,0.8,1.4,1.3c0.2-0.4,0.4-0.7,0.5-1.1C-37.8,152.5-38.4,152.4-38.9,152.3z M-63.1,151.2c-0.9-1.4-0.9-1.4-2-0.1
			C-64.3,151.2-63.7,151.2-63.1,151.2z M-3.6,154c0.9,1.2,1.1,1.2,1.8,0.2C-2.4,154.1-3,154-3.6,154z"/>
	</g>
	<g>
		<path class="st3" d="M205.4,178.9c-0.3,0.1-0.7,0.3-1.1,0.3c-1.6,0-3.2,0.1-4.8,0c-2.6-0.1-5.3,0.1-7.9,0c-0.7,0-1.5,0.1-2.2,0
			c-0.4,0-0.7-0.3-1-0.5c0-0.1,0-0.2,0.1-0.4c-0.4,0.3-0.8,0.9-1.1,0.8c-1.1-0.3-2.1,0.1-3.2,0.1c-1.2,0-2.4-0.1-3.6-0.1
			c-1.1,0-2.3,0.1-3.4,0.1c-0.2,0-0.3-0.2-0.5-0.2c0.2-0.9,0.3-1.8,0.5-2.7c-0.4,0.1-0.8,0.3-1,0.4c-0.1,0.6-0.1,1-0.1,1.4
			c-0.1,0-0.2,0-0.3,0c0.2,0.4,0.4,0.7,0.7,1.3c-2.6,0-5.1,0.1-7.5-0.1c-1.3-0.1-2.6,0-4,0.1c-4.1,0-8.1,0-12.2,0
			c-0.4,0-0.8-0.2-1.3-0.4c-0.1,0.1-0.3,0.4-0.5,0.4c-3.2,0-6.5,0-9.7,0c-0.7,0-0.8-0.4-0.8-1c0-1.9,0-3.7,0-5.6
			c0-1.5-0.2-2.9-0.2-4.4c0-1.1,0.1-2.2,0.1-3.4c0-1-0.1-2-0.1-3c0-2.5,0.1-5,0.3-7.4c0-0.5,0.6-0.9,0.9-1.5c-0.2,0-0.6-0.1-1-0.2
			c0-1.9,0-4,0-6c0-0.6,0.1-1,0.8-0.9c1.3,0.1,2.6-0.5,3.7,0.5c0.9-1,2.1-0.3,3.1-0.5c1.2-0.2,1.6,0.8,2.5,1.4
			c-0.3,0.1-0.5,0.2-0.9,0.3c0.2,0.2,0.4,0.4,0.5,0.5c0.6-0.5,1.1-0.9,1.6-1.3c-0.7-0.1-1.2-0.2-2-0.3c0.8-0.6,4.5-0.8,7.4-0.5
			c-0.1,0.2-0.1,0.3-0.2,0.6c0.2,0,0.3,0,0.3,0c0.7-1.3,1.9-0.4,2.8-0.6c1.1-0.2,2.3,0,3.4,0c0.2,0.3,0.4,0.6,0.6,0.9
			c0.1-0.2,0.2-0.5,0.4-0.9c0.7,0.1,1.7,0.6,2.5,0.4c2.4-0.7,4.8-0.2,7.2-0.3c0.5,0,1.2-0.3,1.6,0.5c0.1,0.1,0.8,0.2,0.9,0.1
			c1.1-1.2,2.5-0.3,3.7-0.5c0.2,0,0.5,0.5,0.5,0.5c0.9-0.2,1.7-0.5,2.5-0.5c4.7,0,9.4,0,14.1,0c0.6,0,1.7-0.2,1.2,1.5
			c0.6-0.4,1-0.6,1.5-0.9c-0.4-0.2-0.6-0.4-1.1-0.7c2.2,0,4.1,0,6,0c2,0,4-0.1,6,0c1.7,0.1,3.3,0.1,5,0c0.1,0.3,0.1,0.6,0.1,0.6
			c0.5-0.2,1-0.4,1.4-0.4c2-0.1,4-0.2,6-0.1c1.6,0.1,3.1,0,4.7,0c1.7,0,3.4,0,5.1,0c1,0,2,0.3,3,0.3c1.9,0,3.8-0.2,5.7-0.3
			c0.2,0,0.4,0.1,0.7,0.1c0.3,0,0.5,0,0.8,0c0.3,0,0.6,0,0.9,0.1c0.2,0.1,0.3,0.3,0.4,0.4c0.1-0.2,0.2-0.4,0.4-0.7c1,0,2.1,0,3.2,0
			c0.6,0,1,0.1,1,0.8c-0.1,2.6-0.1,5.3-0.2,7.9c0,1.7,0.1,3.4,0.1,5.1c0,4.5,0,9,0.1,13.6c0,0.4,0.1,0.9,0,1.3
			c-0.1,0.6-0.2,1.1-0.4,1.8c0.1,0.2,0.4,0.6,0.4,1c0.1,1.8-0.1,1.9-1.9,1.9c-0.9,0-1.8-0.3-2.8-0.3c-0.5,0-1.1,0.3-1.6,0.3
			c-2.8,0-5.6,0-8.3,0c-0.5,0-1.2,0.4-1.4-0.5c0,0-0.4-0.1-0.4,0c-0.5,1.3-1.5,0.5-2.2,0.5c-5,0.1-9.9,0.1-14.9,0.1c-3,0-6,0-9,0
			C206.3,179.2,205.9,179,205.4,178.9z M151.8,149.4c0.6,1.3,1-0.3,1.6-0.2c-0.7-0.2-1.4-1.3-2.2,0c-0.1,0.2-0.4,0.3-0.5,0.5
			c0.1,0.1,0.3,0.2,0.4,0.2C151.3,149.7,151.5,149.6,151.8,149.4z M222.6,166.9c0-0.1,0-0.2,0-0.2c-0.5-0.1-1-0.2-1.4-0.3
			c-0.1-0.3-0.3-0.6-0.4-1c-0.3,0.3-0.7,0.6-1,0.8c0,0.1,0.1,0.2,0.1,0.4c1.1-0.5,1.1,0.3,1.2,0.6C221.5,167.1,222,167,222.6,166.9z
			 M243.4,162.5c-0.3,0.2-0.6,0.4-0.8,0.5c-0.1,0.1-0.3,0.3-0.3,0.4c0.1,0.2,0.2,0.5,0.4,0.5c0.5,0.1,1.1,0.1,1.9,0.2
			C244.1,163.5,243.7,163,243.4,162.5z M238.9,164.5c0.1,0.5,0.3,1,0.4,1.4c0.6-0.2,1.2-0.3,1.8-0.5
			C240.4,164.7,239.9,163.9,238.9,164.5z M212.6,174.6c0.1,0,0.1,0.1,0.2,0.1c0.5-0.6,1-1.2,1.5-1.9c-0.7-0.1-1.3-0.3-2.1-0.4
			c0.4,0.5,0.6,0.8,0.8,1.1C212.9,173.9,212.7,174.2,212.6,174.6z M182.4,156.3c0.1,0.7,0.3,1.3,0.4,2c0.2,0,0.6,0,1.1,0
			C183.1,157.8,184.1,156.3,182.4,156.3z M205.2,156c0.8,0.2,1.4,0.4,2.1,0.6c0-0.1,0.1-0.2,0.1-0.3c-0.2-0.2-0.4-0.4-0.5-0.6
			c-0.2-0.2-0.3-0.5-0.5-0.7C205.9,155.4,205.6,155.7,205.2,156z M198.3,151.9c-0.1-0.1-0.2-0.1-0.3-0.2c-1.6,1.1-1.7,1.2-1,1.8
			c0.3-0.2,0.6-0.4,0.9-0.7C198.1,152.5,198.2,152.2,198.3,151.9z M193.6,155.8c0-0.3,0-0.6,0.1-0.8c0.2-0.4,1.1-0.5,0.5-1.2
			c-0.3,0.3-0.7,0.6-1,0.9c-0.2,0.2-0.3,0.4-0.4,0.7c0,0.1,0,0.2,0,0.3C193.1,155.8,193.4,155.8,193.6,155.8z M183,151.7
			c0.1,0.1,0.2,0.5,0.4,0.5c0.7,0,1.3-0.1,2-0.1c0-0.2,0-0.7-0.1-0.7c-0.3-0.1-0.6-0.1-0.9,0C183.9,151.5,183.5,151.6,183,151.7z
			 M182.9,147.3c1,0,1.8,0,2.7,0c0-0.1,0-0.2,0-0.3c-0.7-0.2-1.5-0.3-2.3-0.5C183.2,146.8,183.1,147.1,182.9,147.3z M167.5,163.4
			c-0.5,0.7-0.8,1.1-1.3,1.7c0.8-0.1,1.3-0.2,1.8-0.3C167.9,164.5,167.8,164.1,167.5,163.4z M231.7,166.6c0.1,0,0.3,0,0.4,0
			c0.2-0.6,0.4-1.2,0.6-1.9c-0.5,0.2-1.1,0.3-1.2,0.5C231.5,165.6,231.7,166.1,231.7,166.6z M165.9,158c0.4-0.1,0.9-0.2,1.3-0.4
			c0.2-0.1,0.3-0.3,0.5-0.5c-0.2-0.1-0.3-0.3-0.5-0.4C166.1,156.5,166.3,157.6,165.9,158z M237.1,152.7c0.1,0.2,0.2,0.3,0.3,0.5
			c0.6-0.5,1.3-1,1.9-1.5c-0.1-0.1-0.2-0.2-0.2-0.3C238.4,151.8,237.7,152.2,237.1,152.7z M179.4,152.3c0,0.1-0.1,0.1-0.1,0.2
			c0.5,0.4,0.9,0.8,1.4,1.3c0.2-0.4,0.4-0.7,0.5-1.1C180.6,152.5,180,152.4,179.4,152.3z M155.3,151.2c-0.9-1.4-0.9-1.4-2-0.1
			C154,151.2,154.6,151.2,155.3,151.2z M214.8,154c0.9,1.2,1.1,1.2,1.8,0.2C215.9,154.1,215.4,154,214.8,154z"/>
	</g>
	<path class="st2" d="M19,167.9c1.2-1.3,2.1-0.1,3,0.1c0.9-1.7,0.4-3.5-1.1-4.4c-0.3-0.2-0.7-0.4-0.9-0.7c-0.6-0.5-0.7-1.1-0.1-1.7
		c0.3-0.3,0.7-0.6,1.1-0.9c0.7-0.5,1.6-0.7,2-1.6c0.1-0.2,0.5-0.4,0.8-0.4c0.4,0,0.8,0.1,1.3,0.2c-0.1,0.4-0.2,0.8-0.3,1.2
		c-0.1,0.2-0.3,0.4-0.6,0.7c1.1,1.2,1.9,2.7,3.6,3.1c0.9-0.6,0.6-1.3,0.4-2c-0.1-0.4-0.1-0.8-0.2-1.2c-0.3-1.5-0.2-1.6,1.5-1.6
		c0.1,0,0.3,0,0.6-0.1c0.1-2.3-0.9-4.2-2.3-6c-0.8,0.4-1.4,0.7-2,1.1c-1-0.9-0.3-1.8-0.2-2.7c0.1,0.4,0.2,0.9,0.3,1.5
		c0.3-0.6,0.5-1,0.8-1.5c2.6,0.4,4.6-1.1,6.9-2.3c-0.1-0.6-0.1-1.2-0.2-1.8c0-0.2-0.1-0.4-0.3-0.5c-1.5-1.4-1.5-1.4-0.6-3.8
		c0-0.1,0.1-0.2,0-0.2c-0.5-0.4-0.6-1,0.1-1.2c0.5-0.1,1.3,0.2,1.8,0.5c0.5,0.4,0.8,1,1.1,1.6c1.3,2,3,2.8,5.7,2.6
		c-1.4-1.6-2.6-3.2-4.1-4.5c-1.4-1.3-3.1-2.3-4.6-3.5c0-0.1,0.1-0.3,0.1-0.4c0.7,0,1.5-0.1,2.1-0.1c0.6-0.8,1.3-1.5,1.7-2.3
		c0.3-0.5,0.3-1.1,0.3-1.7c-0.1-0.8-0.4-1.5-0.5-2.3c-0.2-1.1,0.1-1.4,1.3-1c0.1,0,0.1,0.1,0.2,0.1c2.7-0.1,3.7,1.8,4.7,3.8
		c0.9,1.8,1.8,3.7,2.8,5.5c0.3,0.6,0.7,1,1,1.5c0.9-0.3,0.8-0.8,0.8-1.4c0-1,0.3-1.9-1.1-2.1c-0.2,0-0.3-0.4-0.5-0.6
		c-1.1-1.8-2.2-3.6-3.4-5.5c0.4-0.2,0.7-0.5,0.9-0.4c0.5,0.2,1,0.5,1.4,0.9c0.3,0.3,0.9,0.6,0.1,1c0.2,0.3,0.5,0.7,0.8,1.1
		c0.8-0.9,0.6-1.7,0.2-2.5c-0.4-0.9-0.8-1.8-1.2-2.7c-0.4-0.9-0.5-1.8,0.3-2.8c0.5,0,1.2,0.1,1.8,0.1c0.7-0.7,1.4-1.4,2.3-2.2
		c0,0.1,0,0,0-0.1c-0.2-0.7-1.2-1.3-0.3-2.1c0.7-0.6,1.4-1.5,2.5-0.6c0.2,0.2,1-0.1,1.2-0.3c0.6-0.7,1.2-1.5,1.6-2.4
		c0.4-0.8,0.8-1.4,1.8-1.6c1.8-0.2,3.3-1.8,3.1-3.6c-0.3-1.9,0.9-2.5,2.1-3.6c0.1,0.8,0.4,1.4,0.3,1.9c-0.5,1.9,0.7,2.6,2.2,3.5
		c0.3-2.8-1.3-4.9-1.7-7.2c3.1-1.7,3.1-1.7,5.4-1.2c0-1.7,0-3.3,0-5c0.8-0.2,1.5-0.4,2.3-0.5c0.7-0.1,1.3-0.2,2.1-0.3
		c-0.5-1.2-0.9-2.2-1.4-3.3c2.1-0.7,1.7-2.7,2.5-4.2c-0.4-0.6-0.9-1.2-1.4-2c0.9,0.2,1.5,0.3,2.3,0.5c0.1-0.7,0.2-1.2,0.3-1.9
		c0.5-0.2,1.1-0.4,1.7-0.6c-2.3,0.1-3.4-1.1-3.8-3.3c-0.1-0.5-0.6-0.7-1.2-0.3c-1.1,0.9-2.3,0.7-3.5,0.3c-1.4-0.5-2.8-0.9-4.6-1.5
		c1.1-0.4,1.9-0.6,2.9-0.9c0.1-0.4,0.3-1.1,0.5-1.9c-0.8-0.1-1.5-0.2-2.3-0.3c0.2-0.7,0.4-1.3,0.5-1.9c-0.1-0.1-0.2-0.2-0.3-0.2
		c-0.7,0.5-1.5,1.1-2.3,1.7c-1.2-3.3-3.3-5.6-7.1-5.9c0.2-1.5-0.6-2.7,0.1-4.1c0.4-0.9-0.4-1.5-1.5-1.3c-0.3,0.1-0.6,0.2-1,0.2
		c-0.7,0-1.2-0.4-1.2-1c0-0.4,0.5-0.9,0.8-1.2c0.2-0.2,0.6-0.1,0.9-0.2c0.7-0.2,0.7-0.7,0.3-1.3c-0.6,0.3-1.1,0.6-1.9,1.1
		c-0.6-0.8-1.3-1.5-1.7-2.3c-0.9-2.2-1.5-2.5-3.7-1.7c-0.2,0.1-0.4,0.1-0.6,0.3c-0.3-0.4-0.5-0.9-0.8-1.3c-0.3-0.3-0.7-0.5-1.2-0.8
		c0.4-1.3,0.8-2.5,1.3-4c-1.1,0.6-1.8,1-2.8,1.5c-0.2-0.8-0.6-1.3-0.6-1.9c0-1.1-0.5-1.6-1.3-2.3c-1.2-1.1-2.3-2.3-3.3-3.6
		c-0.7-1-0.2-2.2,0.1-3.2c0.2-0.9,0.9-1.7,0.3-2.7c-2.3-0.2-1,2-1.9,2.9c-1.1-0.4-2.1-1-3.1-1.8c-0.7-0.5-0.5-1.3-0.2-2
		c0.3-0.5,0.6-0.9,0.9-1.4c-1.5-1.6-3.2,0.4-4.7-0.3c0-0.7,0-1.4,0-1.8c-0.9-1-1.6-1.9-2.4-2.7c-0.3-0.3-0.8-0.6-1.2-0.5
		c-1.5,0.2-2.7-0.4-3.8-1.3c-1.6-1.3-3.1-2.9-5.3-3.1c-0.3,0-0.5-0.4-0.9-0.6c0.6-0.9,1.1-1.7,1.6-2.6c-0.6-1.3-1.3,0.8-2.1-0.4
		c0,0.1,0-0.2,0-0.4c-0.1-1.7-0.9-2.7-2.6-3c-1.1-0.2-1.8-0.8-2.3-1.7c-0.7-1.3-1.3-2.7-2.1-4C6.3,20,5.8,19.3,4.9,19
		c-0.5-0.1-0.9-0.7-1.1-1.2c-0.3-0.9-0.5-1.9-0.6-2.9C3,14,3.3,13.3,3.9,12.6c1.1-1.4,1.9-3,2.8-4.5C6.8,7.9,7,7.6,7.1,7.4
		C7.5,6.7,8,6,8.9,6.1c0.6,0.1,1.3,0.4,1.8,0.8C11,7.1,11,7.7,11.2,8.1c0.1,0.2,0.2,0.3,0.3,0.4c0.2,0,0.3,0.1,0.4,0.1
		c1.7-0.7,2.1-1.1,2.8,1.4c0.6,2.2,2.2,3.8,4,5.2c1.6,1.2,3.3,2.3,4.4,4.2c0.7,1.3,2.1,1.1,3.4,0.9c0.4,0.7,0.4,1.6,1.6,1.7
		c0.5,0,1.1,0.9,1.4,1.5c1.1,2.3,2.9,4,4.8,5.5c1,0.8,1,1.9,0.6,3c0.5,1.2,1.4,2.1,2.7,2.5c1.9,0.5,3.2,1.7,4.3,3.3
		c0.3,0.4,0.6,0.9,0.9,1.3c0.8,1,1,1,2.1,0.3c1.2-0.8,1.8-0.6,1.9,0.8c0,0.5,0,1,0,1.6c0.7,0,1.3,0,2,0c-1.1,1.2,1.1,1.5,0.2,2.8
		c0.8-0.4,1.3-0.6,2-0.9c0.5,0.5,1,1,1.4,1.6c1.7,2.4,3.5,4.8,5.1,7.3c1,1.5,1,2.8,0.7,4.6c-0.5,0-1-0.1-1.5-0.1
		c0.3,0.5,0.5,0.9,0.8,1.5c0.3-0.2,0.8-0.3,1-0.7c0.6-0.9,1.4-1.3,2.4-1.6c0.8-0.2,1.5-0.6,2.2-0.8c1.3-0.4,1.9-0.1,2.3,1.1
		c0.5,1.7,1.4,3.1,2.7,4.3c1,0.9,1.7,2.8,2.1,4.9c1.6,0,2.9,0.4,3.7,2.1c0.1,0.2,0.5,0.3,0.8,0.4c1.7,0.6,2.5,1.8,2.6,3.8
		c0,0.5,0.3,1.1,0.5,1.6c0.7,0.1,1.5,0,2,0.3c0.5,0.4,0.6,1.2,0.9,1.8c1.4,0.1,2.9,0.2,4.4,0.4c0.3,0,0.5,0.3,0.8,0.5
		c0.6,0.4,1.3,0.8,2.1,1.3c0.2-0.8,0.3-1.5,0.6-1.8c0.3-0.3,1-0.3,1.7-0.5c0.4-1.2-1.2-1.3-1.5-2.2c0.6-0.4,1.3-0.7,1.9-1.1
		c0.7-0.4,1.4-0.7,1.9-1.2c0.6-0.7,1-1.6,1.4-2.5c0.3-0.8,0.4-1.6,0.6-2.6c1.5,0.2,2.8-0.8,4.3-0.2c0.7,0.3,1.1-0.3,1-1
		c-0.1-0.7-0.1-1.5-0.2-2.2c2.4-0.2,5.1-1.9,7.1-3.8c-0.3-0.8-0.7-1.7-1-2.5c0.6-0.4,1.4-0.7,1.7-1.3c0.6-1,1.2-0.7,1.9-0.2
		c0.7,0.6,1.4,0.9,2.1,0c-0.5-0.7-1-1.3-1.5-2.1c1.2-1,2.4-0.7,3.5-0.7c0.8-1.2,0.9-2.8,2.4-3.5c0.4-0.1,0.7-0.4,1-0.7
		c1.2-1,2.4-1.2,3.8-0.7c0.8,0.3,1.7,0.5,2.8,0.7c0.1-0.7,0.2-1.2,0.2-1.8c-1.2-0.1-2.3-0.3-3.6-0.4c0.8-1,1.4-1.6,1.9-2.3
		c0.2-0.2,0.4-0.5,0.4-0.7c0-1,0.6-0.9,1.2-0.7c0.7,0.3,1.4,0.7,2.2,1.1c1.1-1.6-0.6-3.1,0-4.7c0.6,0,1.3-0.1,1.9-0.1
		c0.9-0.9,1.8-1.7,2.6-2.6c0.3-0.3,0.6-0.9,0.5-1.2c-0.5-1.8,0.5-3,1.4-4.3c0.6-0.9,1.1-1.8,1.6-2.7c0.2,0.2,0.4,0.4,0.6,0.6
		c0.2-1.3-0.2-2.7,1.1-3.8c0.3,0.2,0.6,0.3,0.8,0.5c0.6,1,1.1,0.8,1.4-0.1c0.3-0.8,0.8-1.1,1.6-1.1c1.3-0.1,2-0.8,2.1-2.1
		c0.1-1.5,0.9-2.4,2.2-3c1.2-0.5,2.4-0.9,3.4-1.7c0.8-0.6,1.4-1.4,1.8-2.3c0.4-0.7,0.8-1.1,1.5-1.3c1.9-0.5,3.7-0.6,5.5,0.6
		c1.4,1,2.9,1.8,4.4,2.6c0.7,0.4,1.6,0.8,1.3,1.7c-0.3,1-0.1,2.4-1.6,2.6c-0.2,0-0.3,0.2-0.5,0.3c0.2,0.7,0.4,1.4,0.7,2.2
		c-0.5,0.2-0.9,0.5-1.3,0.6c-2.2,0.6-3.9,1.9-5.1,3.8c-0.8,1.1-1.5,2.3-2.5,3.3c-0.9,1-2,1.8-3.2,2.8c0.1,0.7,0.1,1.5,0.2,2.4
		c-0.5,0.1-0.9,0.3-1.4,0.5c0.4,1.3-0.5,1.9-1.4,2.6c-1.6,1.1-3,2.3-4.5,3.5c-0.2,0.1-0.4,0.3-0.4,0.4c-0.6,2.1-2.4,2.1-4.1,2.5
		c-0.3,0.1-0.5,0.1-0.9,0.2c-0.6,3.8-3.6,5.9-6.4,8.4c0.4,0.6,0.9,1.2,1.3,1.8c-0.3,1.5-1.4,1.6-2.7,1.4c-0.1,0.7-0.1,1.4-0.2,2
		c-0.3-0.1-0.6-0.1-0.9-0.2c-0.2,1.9-1.3,3.2-2.8,4.3c-2,1.3-3.8,2.8-5.7,4.2c-0.3-0.2-0.6-0.4-0.8-0.5c-1.4,2.5-3.2,2.8-6.1,1.2
		c0.4,0.5,0.8,0.9,1.1,1.4c0.1,0.2,0,0.6,0,0.8c0.4,0,0.7,0,1.2,0.1c0,1.7,1.8,2.9,1.1,4.9c-0.5,0.2-1.1,0.5-1.7,0.8
		c-1,0.5-2.1,0.8-2.8,1.8c-1,1.4-2.4,2.2-4,2.7c-0.9,0.2-1.8,0.6-1.6,1.8c0,0.3-0.1,0.8-0.3,0.9c-1.3,0.9-1.7,2.4-2.7,3.5
		c-0.7,0.8-1.3,1.6-2.6,1.3c-0.4-0.1-1.1,0.5-1.3,1c-0.9,1.9-0.9,2-2.3,2.8c0,0.1,0.1,0.4,0.1,0.4c2.1,0,3.6,1.7,5.6,2.2
		c0.7,0.2,1.1,0.7,1,1.5c-0.1,1.1,0.4,1.7,1.4,2.3c0.1-1.7,1.8-1.7,2.7-2.6c0.4-0.4,1-0.2,1.3,0.4c0.4,0.9,0.9,1.8,1.2,2.7
		c0.7,2.7,2.2,5,4,7.1c1.6,1.9,1.8,2.2,2.3,4.5c0.5,0.2,1.1,0.4,1.6,0.6c0.6,0.3,1.2,0.5,1.8,0.9c-0.1,0.5-0.1,0.9-0.1,1
		c0.8,0.8,1.4,1.4,2.4,2.3c1.4,0,3.4-0.3,4.4,1.9c0.6-0.2,1.1-0.3,1.8-0.5c0.5,0.8,0.9,1.5,1.3,2.2c0.6,1.1,1.4,1.8,2.7,2.1
		c2,0.5,1.9,0.6,2.1,2.7c0.1,1.1,0.6,2.1,1,3.3c1.1-0.9,1.8-1.8,3-0.8c0.4,0.3,1.2,0.1,1.9,0c2.1-0.2,4,1.1,4.5,3.2
		c0.3,1.4,0.6,2.9,0.9,4.3c0.2,1,0.9,1.3,1.7,1.1c0.4,0.8,0.6,1.5,1.1,2.2c0.5,0.8,1.1,1.7,1.8,2.3c0.8,0.5,1.8,0.6,2.7,0.9
		c1.3,0.4,2.1,1.2,2.5,2.5c0.2,0.6,0.9,1,1.5,1.6c-0.1,0-0.4,0.3-0.6,0.2c-1.7-0.3-2.3,0.2-2,1.9c0,0.3,0.2,0.5,0.3,0.7
		c1.1,0.3,2,0.2,2.7-0.8c0.2-0.3,0.9-0.5,1.3-0.5c0.2,0,0.5,0.7,0.5,1.1c0,1.1,0.6,1.8,1.4,2.5c0.4,0.3,0.7,0.7,1.2,1.3
		c-1.1,0.1-1.7,0.2-2.3,0.2c-1.4,0-2.6,0.3-3.2,1.8c-0.1,0.3-0.8,0.5-1.1,0.4c-0.3-0.2-0.5-0.8-0.5-1.1c0.1-0.6,0.5-1.1,0.9-2
		c-0.7-0.1-1.3-0.3-1.9-0.2c-1,0.1-1.9,0.5-2.6,1.3c-1.6,2-1.7,2-3.4,0c-0.6-0.8-1.2-1.5-1.8-2.4c-0.2-0.4-0.4-1.1-0.2-1.4
		c0.4-0.6,1-0.4,1.6,0c0.2,0.2,0.4,0.3,0.6,0.4c2.5-1.7,2.5-1.7,3.1-3.4c-0.4-0.7-0.9-0.9-1.7-0.5c-1.1,0.5-1.3,0.4-2.9,0
		c0-0.3-0.1-0.6,0-0.9c0.1-0.7-0.4-1-1-1c-1.7,0-3.2,0.7-4.6,1.7c-0.2,0.2-0.3,0.9-0.1,1.2c0.3,0.5,0.6,1,0.1,1.4
		c-0.3,0.3-0.9,0.2-1.4,0.2c-0.3,0-0.6-0.2-1.1-0.3c1.3-2.9-0.7-5-1.6-7.4c-0.2-0.5-0.8-0.7-1.2-1.1c-0.4,1.6-1.9,1.9-3,2.1
		c-1.1,0.3-2.4-0.2-3.5-0.4c-0.3-1.4,0.2-2.1,1.2-2.8c0.8-0.5,2-0.8,2.4-1.8c0.3-0.7,0.7-1.4,1-2.1c0.3-0.8,0.7-1.6,1.1-2.7
		c-4,2.3-6.2,6-9.5,8.9c-0.1-1-0.1-1.6-0.2-2.4c-0.8-0.3-1.8-0.5-2.2-1.6c-0.1-0.3-0.8-0.4-1.2-0.4c-1.2,0.1-2.3,0.3-3.8,0.5
		c-0.1-0.6-0.3-1.2-0.1-1.7c0.6-1.8,1.4-3.2,3.5-3.9c2.2-0.7,4.3-1.9,6.5-3c0.6-0.3,1.2-0.7,1.9-1.1c-1-1.2-1.9-0.8-2.8-0.2
		c-2.2,1.2-4.3,2.5-6.5,3.8c-0.3,0.2-0.7,0.3-1.6,0.7c0.8-1.5,1.4-2.7,2.2-4.1c-1.5,0.5-2.7,0.9-4,1.4c-2.2,0.9-2.6,0.6-2.5-1.7
		c0-0.2,0-0.4,0-0.5c-0.8-0.8-1.5-1.6-2.3-2.4c-0.5,0.2-1.1,0.4-1.6,0.6c-1.5-1.6-1.5-1.9-0.6-3.4c-0.6-0.9-1.4-1.6-2.4-2.1
		c-1.1-0.5-2.1-1-2-2.8c0.1-1.4-2.9-3-4.3-2.4c-0.2,0.1-0.4,0.1-0.5,0.1c-0.7-0.8-1.4-1.5-2.4-2.5c0.9-0.1,1.6-0.2,2.4-0.2
		c1.5,0,2.5-0.6,3.1-2.2c-2.7-0.4-4.9,1.1-7.4,1.4c-1.2-1.6-1.2-3.5-0.5-5.4c-1.5-0.2-2.8-0.3-4.2,0.1c-0.6,0.2-1.3,0-1.9-0.1
		c-0.4-0.1-0.8-0.3-1.1-0.5c-2.1-1.3-4.1-1.1-6.2,0.1c0.2,0.5,0.4,0.9,0.6,1.4c-0.7,1.5-2.2,1.9-3.6,2.5c0.1,1.3,0.1,2.6-1.1,3.6
		c-0.2,0.1-0.2,0.5-0.2,0.7c-0.1,1.9-1.3,2.7-3.4,2.8c0.2,0.6,0.2,1.1,0.4,1.5c0.4,0.6,0.9,1.1,1.3,1.7c0.5,0.6,0.4,1.4-0.2,1.7
		c-1.2,0.6-2.2,1.7-3.7,1.7c-0.9,0-1.6,0.4-2.2,1c-1.6,1.4-3.2,2.7-4.9,4c-0.6,0.4-1.3,0.8-1.9,0.9c-1.3,0.2-1.8,1-2,2.1
		c-0.1,0.6-0.3,1.3-0.5,1.9c-0.6,0-1.1-0.1-1.6-0.1c-0.2,0.4-0.4,0.9-0.7,1.1c-0.9,0.7-1.3,1.5-1,2.7c0.3,1.4-0.6,2.5-2.1,3.1
		c0.7,1.1,1.4,2.1,2.1,3.1c-1.1,0.9-1.3-0.4-2.1-0.7c-1.1,0.7-2.4,1.4-3.6,2.1c0.1,0.4,0.2,0.7,0.2,1c-0.1,2.2-0.4,2.5-2.7,2.6
		c-0.9,0.1-1.8,0.2-2.5,1.1c0.8,1.1,0.8,2.4,0.3,3.7c-0.1,0.3-0.1,0.8,0,1.1c0.3,1.7-0.2,2.1-1.5,3.3c-1.6,1.6-3.5,2-5.5,2.3
		c-1.2,0.2-0.8,1.4-1.2,2c-1.8-0.2-2.9,1-3.7,2.3c-0.7,1.2-1.2,2.5-1.8,3.7c-0.4,0.8-0.8,1.4-1.7,1.8c-0.8,0.3-1.4,1-2.3,1.6
		c-0.1-0.2-0.4-0.6-0.4-0.9c0.2-1.3,0.2-1.3-0.5-2.4c-0.8,0.7-1.6,1.5-2.4,2.2c0.8,0.7,1.6,1.5,2.7,2.4c-0.6,0.5-1.1,1.1-1.6,1.1
		c-1.4,0.1-2,1-2.7,2c-0.1,0.2-0.4,0.3-0.6,0.5c-0.8-0.3-0.9-1-0.9-1.6c0.1-1.6-0.3-2.8-1.9-3.6C19.3,168.6,19.2,168.2,19,167.9z
		 M118.6,133.2c1.2,0.6,2.2,1,2.9,1.3c0.6-0.7,0.8-1.4,1.3-1.6c0.6-0.2,0.6-0.6,0.4-0.9c-0.2-0.3-0.7-0.7-1-0.6
		C120.9,131.5,119.7,132,118.6,133.2z M37.5,133.5c0.7,1.5,0.5,3.3,2.6,3.4c0.2-1.3-0.7-4.3-1.4-4.2C38.5,132.9,38,133.1,37.5,133.5
		z M39.5,53c0.6,0.4,1.1,0.7,1.4,0.8c0.4-1,0.7-1.9,1.1-2.8C40.8,50.5,40.8,50.5,39.5,53z M112.8,117.2c-1.7,0.4-2.5,1.6-2.9,3.1
		c0.5-0.5,1.5,0.3,1.8-1C111.8,118.6,112.9,118.2,112.8,117.2z M117.4,53.2c0.7-1.2,0.6-1.3-1.9-2.5c-0.2,0.4-0.4,0.7-0.5,1
		C115.8,52.2,116.6,52.7,117.4,53.2z M51,123.9c0.9,0.9,1.9,1.7,3,2.7C53.7,124.6,53.3,124.1,51,123.9z M101.8,63.3
		c-0.5,0.9-0.4,1.3,0.5,1.3c0.3,0,0.5-0.2,0.9-0.4C102.7,63.9,102.3,63.6,101.8,63.3z M5.8,16.1C5.9,16,6,15.9,6.1,15.9
		c-0.1-0.4-0.3-0.8-0.5-1.2c-0.4,0.2-0.7,0.4-1.1,0.7C5.1,15.6,5.4,15.9,5.8,16.1z M141.8,36.3c0.6-0.5,1-0.9,1.5-1.3
		C142.1,34.6,142.1,34.6,141.8,36.3z M74,80.7c0,0.1,0,0.3,0,0.4c0.6-0.1,1.3-0.1,2.2-0.2C75.2,79.9,74.6,80.5,74,80.7z M60.2,123.1
		c0.1,0,0.3,0,0.4,0c0-0.5,0-1,0-1.5c-0.1,0-0.2,0-0.2,0C60.3,122.1,60.3,122.6,60.2,123.1z M153,23.3c0.5-0.3,0.9-0.7,1.4-1
		C153.9,22.5,152.6,21.9,153,23.3z M59.7,60.4c0.1,0.1,0.2,0.2,0.2,0.3c0.3-0.3,0.6-0.5,0.9-0.8c-0.1-0.1-0.2-0.2-0.2-0.3
		C60.3,59.9,60,60.1,59.7,60.4z M109.1,77.8c0-0.1-0.1-0.3-0.1-0.4c-0.5,0.1-1,0.3-1.5,0.4c0,0.2,0.1,0.3,0.1,0.5
		C108.1,78.1,108.6,77.9,109.1,77.8z M77.9,80.2c-1,0.6-1.3,0.9-0.5,1.6C77.5,81.3,77.6,80.9,77.9,80.2z M94,80.3
		c-0.9-0.3-1.4-0.4-1.2,0.8C93.2,80.8,93.6,80.6,94,80.3z M21.5,162.2c0,0.1-0.1,0.3-0.1,0.4c0.2,0.1,0.4,0.3,0.6,0.2
		c0.2,0,0.4-0.3,1-0.6C22.2,162.2,21.9,162.2,21.5,162.2z M66.3,75c0-0.1-0.1-0.3-0.1-0.4c-0.3,0-0.5,0.1-0.8,0.1
		c0.1,0.2,0.1,0.4,0.2,0.4C65.8,75.2,66,75.1,66.3,75z M75,73.2c-0.2-0.2-0.3-0.5-0.4-0.4c-0.2,0-0.4,0.2-0.6,0.4
		c0,0,0.2,0.4,0.2,0.4C74.5,73.5,74.7,73.4,75,73.2z M77.4,97.6c0.1,0,0.2-0.1,0.3-0.1c-0.1-0.3-0.1-0.5-0.2-0.8
		C77.3,96.8,77,96.9,77,97C77.1,97.2,77.3,97.4,77.4,97.6z M147.1,28.9c-0.1-0.2-0.2-0.3-0.3-0.5c-0.1,0.2-0.3,0.3-0.4,0.5
		c0,0,0.2,0.3,0.3,0.3C146.8,29.2,146.9,29,147.1,28.9z M137.8,29.6c-0.8,0.2-0.8,0.2-0.8,1.1C137.4,30.2,137.6,30,137.8,29.6z
		 M128.8,128.5c-0.1-0.1-0.3-0.2-0.4-0.3c-0.2,0.3-0.5,0.6-0.7,0.9c0.1,0.1,0.2,0.2,0.3,0.3C128.2,129.1,128.5,128.8,128.8,128.5z
		 M146.6,35.2c-0.6-0.2-1-0.4-1.6-0.6C145.6,35.5,145.6,35.5,146.6,35.2z M128.3,50c-0.2-0.2-0.3-0.4-0.4-0.5
		c-0.2,0.2-0.4,0.3-0.6,0.5c0.1,0.1,0.2,0.4,0.3,0.4C127.9,50.3,128.1,50.1,128.3,50z M49.9,57.4c1,0.2,1,0.2,1.3-0.5
		C50.7,57,50.3,57.2,49.9,57.4z M124,58.8c-0.1,0.1-0.2,0.1-0.3,0.2c0.2,0.3,0.4,0.5,0.5,0.8c0.1-0.1,0.2-0.1,0.2-0.2
		C124.3,59.4,124.2,59.1,124,58.8z"/>
</g>
<g>
	<g>
		<path class="st0" d="M260.8,65.2c0.3,0,0.5,0,0.9-0.1c0-0.3,0-0.5,0-0.9c-0.3,0.2-0.5,0.3-0.8,0.5c-0.5-1.2-0.6-2.4-0.6-3.7
			c0-0.2,0.3-0.4,0.4-0.7c0-0.1-0.1-0.3-0.2-0.5c-0.1,0.1-0.3,0.2-0.5,0.3c-0.2-1.2-0.4-2.5-0.6-3.9c0.4,0.1,0.7,0.2,1.1,0.3
			c-0.2-0.4-0.3-0.7-0.3-0.7c-1,0-1-0.8-1.1-1.4c-0.4-2.3-0.7-4.6-1.1-6.9c-0.3-1.7-0.6-3.4-0.8-5.1c-0.2-1.6-0.9-3.2-0.5-4.9
			c0.1-0.4-0.6-0.7-0.2-1.1c-0.7-0.5-0.2-1.2-0.3-1.7c-0.1-0.6-0.5-1.2-0.6-1.8c-0.3-1.8-0.6-3.7-0.9-5.5c0-0.3-0.1-0.6-0.2-0.8
			c-0.2-0.7-0.1-1,0.8-1.4c-0.4-0.3-0.7-0.5-1.1-0.8c0.1-1.4,0.8-1.7,2.4-2.1c2.5-0.5,5-0.9,7.5-1.2c2.3-0.4,4.6-0.7,7-1
			c1.8-0.3,3.6-0.7,5.5-0.9c1.8-0.2,3.5-0.6,5.2-0.8c0.9-0.1,1.7-0.3,2.5-0.4c0.5-0.1,1.1-0.3,1.6,0.3c0.1,0.1,0.8,0,0.8-0.1
			c0.2-0.6,0.7-0.6,1.1-0.7c3-0.5,6.1-1,9.1-1.5c0.1,0,0.2,0,0.2,0c1.2,0.4,2.2-0.1,3.3-0.5c0.9-0.3,2-0.4,3-0.6
			c2.5-0.4,4.9-0.9,7.4-1.2c1.7-0.2,3.3-0.9,5-0.5c0.1,0,0.2,0,0.3-0.1c1.2-0.9,2.7-0.5,4-1c0.1,0,0.3,0.2,0.5,0.3
			c0.2,0.1,0.6,0.1,0.6,0.1c0.6-1.1,1.8-0.6,2.6-0.8c1.5-0.4,3.1-0.3,4.6-0.7c2.9-0.7,5.9-0.9,8.8-1.6c1.1-0.3,2.2-0.4,3.3-0.5
			c0.3,0,0.7,0.1,1,0.2c0-0.1,0.2-0.4,0.3-0.4c1.5,0.1,2.9-0.9,4.4-0.5c0.3,0.1,0.6-0.2,0.9-0.3c1.6-0.5,3.1-0.7,4.8-0.6
			c0.9,0,1.2,0.4,1.3,1.3c0.1,0.6,0.2,1.3,0.4,1.9c0.2,0.6,0.1,1.1,0.2,1.7c0.4,1.3,0.3,2.7,0.5,4c0.1,0.7,0.2,1.4,0.5,2
			c0.3,0.7,0.1,1.2-0.3,1.8c0.3,0,0.5,0,0.8,0.1c0,1.1,0,2.2,0,3.3c0,0.3,0.3,0.5,0.4,0.8c0.2,0.8,0.4,1.7,0.5,2.5
			c0.4,2.4,0.8,4.9,1.2,7.3c0.2,0.9,0,1.3-0.6,1.8c1.3,0.9,1.1,2.4,1.4,3.6c0.5,2.4,0.8,4.7,1.2,7.1c0.3,1.8,0.5,3.6,0.8,5.3
			c0.1,0.7,0.2,1.5,0.3,2.2c0.1,0.3,0.1,0.4-0.2,0.6c-0.1,0-0.1,0.3-0.1,0.3c1.1,0.5,0.3,1.5,0.8,2.3c0.4,0.7,0.3,1.7,0.4,2.5
			c0.1,0.9,0.2,1.8,0.3,2.7c0,0.1,0,0.3,0,0.4c0.6,0.5,0,1.2,0.4,1.9c0.4,0.6,0.4,1.4,0.5,2.1c0.1,0.7,0.1,1.3-0.4,1.9
			c-0.2,0.2-0.5,0.6-0.7-0.1c0-0.1-0.5-0.1-0.7-0.1c-0.1,1.2-1.2,0.9-1.8,1.1c-3,0.6-6,1-9,1.5c-1.9,0.3-3.8,0.5-5.7,0.7
			c-0.6,0.1-1.1,0.3-1.7,0.4c-0.4,0.1-0.8,0-1.4,0c-0.2,0.1-0.5,0.3-0.9,0.4c-1.9,0.4-3.9,0.7-5.8,1c-1.1,0.2-2.2,0.3-3.3,0.5
			c-1.4,0.2-2.7,0.4-4.1,0.6c-1.4,0.2-2.8,0.4-4.1,0.7c-0.8,0.1-1.6,0.3-2.4,0.5c-0.9,0.3-1.2,1.1-1.1,2c0.3,1.9,0.6,3.7,0.9,5.6
			c0.1,0.9,0.3,1.8,0.5,2.7c0.1,0.4,0.1,0.7-0.3,1.1c-0.4,0.5,0,0.7,0.5,0.6c0.7,4.1,1.3,8.2,2,12.4c-0.6,0.6-0.6,0.6-0.6,1.5
			c0.3,0,0.5,0.1,0.8,0.1c0,0.1,0,0.2,0.1,0.3c0.2,1.3,0.4,2.6,0.6,3.9c0,0.1,0.1,0.2,0.1,0.4c-0.1,1,0.1,2,0.4,3
			c0.3,0.9,0.6,2,0.5,3c-0.1,1.7,0.8,3.3,0.7,5.1c-0.1,0.1-0.4,0.2-0.6,0.4c0.1,0.2,0.1,0.3,0.1,0.3c0.6,0.1,0.8,0.4,0.8,1.1
			c0.1,1.2,0.8,2.3,0.4,3.6c0.4,0.5,0.3,1.1,0.5,1.6c0.2,0.7,0.4,1.4-0.2,2.1c-0.1,0.1,0.1,0.8,0.3,0.8c0.5,0.2,0.6,0.6,0.6,1
			c0.2,1.8,0.5,3.7,0.8,5.5c0.2,1.1,0.8,2.1,0.2,3.3c0.4,0.4,0.4,0.9,0.5,1.4c0.5,3.4,1.1,6.7,1.7,10.1c0.2,0.9,0.3,1.9,0.4,2.8
			c-0.3,0.1-0.6,0.1-0.9,0.2c1.2,0.4,1.2,1.3,1.3,2.3c0.1,1.2,0.7,2.3,0.1,3.5c0.2,0.2,0.6,0.4,0.6,0.5c-0.2,0.6,0.6,1.2,0,1.7
			c0,0,0,0.2,0.1,0.3c0.8,1,0.6,2.3,0.8,3.5c0.2,1.2,0.4,2.4,0.5,3.7c0.1,1.1-0.3,1.5-1.3,1.7c-1.4,0.3-2.7,0.5-4.1,0.8
			c-0.2,0-0.6,0.1-0.7-0.1c-0.6-0.7-0.9-0.1-1.4,0.1c-1,0.6-2.1,0.6-3.2,0.3c-0.4-0.1-0.7-0.8-0.8-1.3c-0.3-1.4-0.5-2.8-0.8-4.2
			c-0.3-1.5-0.5-2.9-0.8-4.4c-0.1-0.3-0.2-0.5-0.4-0.8c-0.8,0.6-0.9,1.4-1.1,2.2c-0.4,1.3-0.7,2.7-1.1,4c-0.2,0.6-0.6,1-1.1,1.2
			c-0.4,0.1-0.7,0.3-0.4,0.7c0.1,0.2,0.5,0.1,0.9,0.2c-0.3,0.9-0.5,2-0.9,3c0,0.1-0.4,0.2-0.6,0.3c0.1,0.5,0.2,0.9,0.3,1.5
			c-0.5,0-0.9-0.1-1.2-0.1c0,0.1,0,0.3,0.1,0.4c0.5,0.7,1,1.3,0,2.1c-0.2,0.2,0,0.8-0.1,1.2c-0.2,0.8-0.4,1.6-0.6,2.4
			c-1.1,3.9-2.2,7.7-3.3,11.6c-0.1,0.4-0.5,0.6-0.8,1c0.2,0.6,0.1,1.4-0.6,1.7c-0.6,0.3-1.3,0.5-2.1,0.8c0.3,0.3,0.5,0.4,0.7,0.6
			c-0.1,0.1-0.1,0.2-0.1,0.2c-1.5,0.8-3,1.3-4.7,1.1c-1.4-0.2-2.8,0.1-4.3,0.1c-3.6,0-7.2,0-10.8,0c-0.7,0-0.7-0.7-1-0.8
			c-0.8-0.5,0-0.7,0-1.2c-0.5,0.1-1-0.1-0.8,0.8c0.1,0.4,0,0.7,0.1,1.2c-1.5,0-3.1,0-4.6,0c-0.3,0-0.5-0.3-0.7-0.4
			c-0.3,0.1-0.6,0.4-1,0.4c-2.2,0-4.4,0.2-6.5,0c-0.9-0.1-1.7,0.1-2.6,0.1c-6.5,0-13,0-19.5,0c-2.7,0-5.5-0.1-8.2-0.1
			c-0.7,0-1.4,0.1-2.1,0.1c-0.7,0-1.4,0.1-2.1-0.3c-0.2-0.2-0.8-0.2-1,0c-0.7,0.6-1.6,0.3-2.3,0.4c-2.2,0-4.3,0-6.5,0
			c-0.4,0-0.9-0.2-1.3-0.2c-0.6-0.1-0.7-0.5-0.8-1c-0.2-3.6,0.3-7.1,1.5-10.6c0.2-0.5,0.4-0.8,1.1-0.9c-0.5-0.7-0.6-1.3,0-1.9
			c0.4,0,0.8,0,1.2,0.1c0-0.1,0-0.1,0-0.2c-0.3-0.2-0.7-0.5-1-0.7c3.2-7.1,7.6-11.8,12.3-15.6c0.1,0.1,0.2,0.3,0.3,0.5
			c0.2-0.4,0.4-0.8,0.4-0.9c0.6-0.4,1.1-0.6,1.4-1c0.7-0.7,2.5-1.8,3.5-2c0.2,0,0.5,0.1,0.6-0.4c0-0.2,0.3-0.3,0.5-0.4
			c1.1-0.5,2.1-1,3.2-1.3c1.6-0.5,3.3-0.9,5-1.3c1.2-0.2,2.4-0.3,3.6-0.5c1.3-0.1,2.6-0.2,3.8-0.3c0.2,0,0.3,0,0.5,0
			c0,0.2,0.1,0.4,0.1,0.7c0.3-0.2,0.6-0.4,0.8-0.6c0.1,0.3,0.2,0.6,0.3,1c0.1,0,0.2,0,0.3,0c0.2-0.4,0.3-0.8,0.5-1.2
			c1.2-0.1,2.5,0,3.6,0.6c0.1,0.1,0.5-0.2,0.7-0.2c2.2,0.3,4.4,0.7,6.5,1.6c0.9,0.4,1.9,0.8,2.9,1c0.6,0.2,1.3,0.3,1.6,1
			c0.1,0.2,0.5,0.4,0.6,0.3c1-0.3,1.3,0.7,2,0.9c0.1,0,0.1,0.4,0.1,0.5c0.4,0.1,0.8,0,1,0.2c1.5,1.1,2.9,2.1,4.3,3.3
			c0.3,0.3,0.6,0.7,0.9,1c0.2,0.2,0.4,0.5,0.6,0.7c0.7,0.6,1.8,1.2,2,1.9c0.3,0.8,1,0.8,1.3,1.4c0.3,0.6,0.8,1.2,1.2,1.7
			c0.5,0.6,1,1.1,1.5,1.7c0.5-0.3,0.9-0.6,1.1-0.7c0.2-1.1,0.4-2,0.6-2.9c1.2-4,2.3-8,3.5-12c0.1-0.3,0.1-0.6,0.3-0.8
			c0.1-0.1,0.5-0.2,0.6-0.2c0.4,0.8,0.6,0,1.1,0c-0.3-0.3-0.5-0.5-0.6-0.7c-0.1-0.1-0.3-0.4-0.3-0.4c0.7-0.7,0-1.6,0.3-2.4
			c0.3-0.9,0.5-1.8,0.8-2.6c0.1-0.3,0.6-0.5,0.9-0.8c-0.4-0.3-0.6-0.7-0.4-1.3c0.7-2,1.1-4,1.7-6c0,0,0-0.1,0.1-0.1
			c1.1-2.2,1.2-4.6,1.9-6.9c0.7-2.3,1.3-4.6,2-6.9c0.6-2.1,1.7-4,2.8-5.8c0.1-0.3,0.2-0.4,0.2-0.7c0-0.8,0.3-1.6,0-2.3
			c-0.3-0.7-0.5-1.5-0.6-2.2c-0.4-2.5-0.8-5-1.2-7.5c-0.2-1.3-0.4-2.6-0.7-3.9c0.4-0.1,0.9-0.1,0.6-0.8c-0.2,0-0.4,0-0.7,0
			c-0.4-2.9-0.8-5.9-1.2-8.9c-0.2-1.4-0.5-2.8-0.8-4.2c-0.3-1.9-0.6-3.8-0.9-5.7c-0.3-1.7-0.6-3.4-0.8-5c-0.1-0.8-0.3-1.6-0.4-2.5
			c-0.3-1.9-0.9-2.2-2.8-1.9c-0.9,0.2-1.9-0.1-2.6,0.2c-1.1,0.5-2.3,0.4-3.5,0.7c-0.2,0-0.3,0.1-0.5,0.1c-1.9,0-3.6,0.6-5.5,0.8
			c-1.6,0.1-3.2,0.7-4.8,0.6c-0.7,0-1.3,0.3-2,0.4c-1.5,0.3-3,0.7-4.5,0.8c-1.3,0.1-2.6,0.6-3.9,0.7c-1.3,0.1-2.6,0.4-3.9,0.6
			c-2.7,0.4-5.4,0.9-8.1,1.3c-1.3,0.2-2.2-0.2-2.4-1.7c-0.2-1.3-0.5-2.5-0.7-3.7c0.4-0.3,0.7-0.5,1.1-0.7c-0.4-0.5-0.9-0.9-1.1-1.4
			c-0.3-0.7-0.4-1.6-0.6-2.4c-0.2-1-0.6-2.1-0.5-3.1c0.1-1.2-0.3-2.2-0.5-3.2C261,67.2,261,66.2,260.8,65.2z M348.8,14.3
			c0.5-1,0.5-1.1-0.5-1.3c0.1-0.1,0.2-0.2,0.3-0.3c-0.1-0.1-0.3-0.3-0.4-0.3c-0.5,0.2-1.1,0.3-1.6,0.6c-0.1,0.1-0.2,0.3-0.3,0.5
			c0,0.1,0,0.2,0,0.3C347.3,13.2,348,13.8,348.8,14.3z M309.5,177.7c-0.9,0.1-0.8,0.1-0.8,0.8c0,0.8,0.3,1.4,0.7,2.1
			c0.6-0.6,0.6-0.6,0.4-1.4C309.7,178.7,309.6,178.2,309.5,177.7z M322,15.1c-0.8-0.3-1.5,0.5-2.2,0.3c0,0.4-0.1,0.7,0,0.8
			c0.1,0.2,0.1,0.8,0.6,0.5c0.4-0.2,0.7-0.3,1.1-0.5C321,15.5,321.9,15.6,322,15.1z M316,27.6c0,0.4-0.2,1,0.7,1
			c0.5,0,0.9,0.3,1,0.9c0.1,0.5,0.3,0.6,0.7,0.4c0.1-0.1,0.1-0.5,0-0.7c-0.3-0.5-0.7-1-1-1.3C316.9,27.7,316.5,27.6,316,27.6z
			 M309,33.3c0.1,0,0.2,0,0.3,0c0.2-0.7,0.4-1.5,0.6-2.2c0.1-0.6-0.4-0.7-0.8-0.7c-0.1,0-0.3,0.4-0.5,0.6c0.6,0.4,0.1,0.9,0.2,1.3
			C308.8,32.6,308.9,33,309,33.3z M308.1,37.8c0.5,0.1,0.8,0.1,1.3,0.2c-0.4-1-0.4-0.9-1.1-1c-1,0-1.4,0.7-1.7,1.4
			C307.3,38.8,307.6,38.2,308.1,37.8z M283.2,193.7c0.1-0.6,0.3-1.1,0.4-1.8c-0.7,0.5-1.3,0.9-2,0.3c-0.1-0.1-0.5,0.1-0.6,0.3
			c-0.1,0.1-0.1,0.4,0,0.6c0.1,0.3,0.3,0.5,0.4,0.7c0.1-0.1,0.1-0.2,0.2-0.3c0.3-0.2,0.7-0.3,1-0.5
			C282.9,193.3,283,193.5,283.2,193.7z M311.9,84.8c-0.5-0.2-1.2-0.8-1.8,0.2c0.5,0.2,0.9,0.4,1.5,0.6c-0.3,0.1-0.5,0.2-0.8,0.3
			c0.4,0.7,0.6,0.7,1.5,0.2C312.1,85.7,312,85.3,311.9,84.8z M272.1,37.7c0.1-0.6,0.1-1.2,0.2-1.7c-1.2-0.5-1.3,0.5-1.8,1.1
			C271,37.3,271.4,37.4,272.1,37.7z M285.2,30.4c0.5,0.9,1.4,1.2,1.9,0.8c0-0.3-0.1-0.6-0.1-0.8c0.2-0.3,0.5-0.5,0.8-0.9
			c-1.4-0.1-1.4,0-1.3,0.9C286,30.4,285.7,30.4,285.2,30.4z M318.6,31.1c0-0.1,0-0.2,0-0.3c-0.6-0.3-1.1-0.7-1.8-1.1
			c0,0.4,0,0.6,0,0.7c0.3,0.4-0.5,1.1,0.3,1.2C317.6,31.6,318.1,31.2,318.6,31.1z M270.1,166.3c-0.5,0.1-0.7,0.2-1,0.2
			c-0.4,0.1-0.8,0-0.9-0.5c-0.2-0.9-0.8-0.7-1.4-0.6c0.6,0.3,0.2,1.3,1.3,1.3C268.9,166.9,269.5,167.3,270.1,166.3z M270.2,73.5
			c-0.7-0.5-1.3,0.5-2,0c-0.1-0.1-0.3,0.7,0,0.8c0.6,0.2,1.2,0.3,1.8,0.4C270.1,74.3,270.1,73.9,270.2,73.5z M296.1,41.4
			c0.4,0.6,0.5,1.1-0.2,1.5c-0.1,0,0,0.4-0.1,0.6c0.2,0,0.5,0.1,0.7,0c0.3-0.2,0.6-0.6,0.8-0.8c-0.1-0.5-0.3-0.9-0.4-1.4
			C296.7,41.4,296.5,41.4,296.1,41.4z M315.8,91.5c0.1,1,0.1,1.8,1.2,1.9c0.3-0.2,0.6-0.5,0.9-0.8C317.2,92.3,316.6,91.9,315.8,91.5
			z M334.3,30.8c0.1-0.1,0.1-0.1,0.2-0.2c-0.2-0.2-0.4-0.4-0.5-0.6c-0.1-0.3-0.2-0.6-0.4-0.9c-0.5,0.2-1,0.3-1.8,0.5
			c0.6,0.3,0.9,0.6,1.3,0.8C333.5,30.5,333.9,30.6,334.3,30.8z M294.4,47.6c-0.2-0.4-0.3-0.6-0.4-0.8c0.3-0.1,0.5-0.1,0.9-0.3
			c-0.4-0.2-0.7-0.4-0.8-0.4c-0.5,0.4-1.5,0-1.6,1.1C293.1,47.4,293.6,47.5,294.4,47.6z M345.9,45.2c-0.1-0.2-0.1-0.3-0.1-0.3
			c-0.4-0.1-0.9-0.3-1.2-0.1c-0.2,0.2-0.3,0.7-0.5,1.1c0,0,0,0.1,0.1,0.1c0.4,0,0.8,0.1,1.1,0C345.6,45.8,345.7,45.4,345.9,45.2z
			 M317.3,17.8c0.4,0.8,1.1,0.9,1.7,0.6c0.2-0.1,0.3-0.6,0.4-0.9c-0.5,0-0.8,0.1-1.1,0.1C317.9,17.5,317.5,17.1,317.3,17.8z"/>
		<path class="st0" d="M241.8,129.4c0.6-0.4,1.2-0.4,1.8,0c0-0.8,0.1-1.4,0.1-2.1c-0.8,0.2-1,1.4-2,0.9c-0.1-2,0.1-3.9,0.9-5.8
			c0.4-0.9,0.7-1.9,1.1-2.9c1.1-2.5,2.5-4.8,4.6-6.6c0.7-0.6,1.3-1.3,1.9-1.8c0.7-0.6,1.5-1.2,2.2-1.7c0.4-0.3,0.9-0.6,1.3-0.8
			c0.4,0.1,0.7,0.3,1.2,0.4c-0.1-0.4-0.1-0.7-0.2-1c1.1-0.5,2.1-1.3,3.6-0.7c-0.1-0.3-0.2-0.5-0.2-0.7c3.1-1.1,6.3-1.3,9.5-1.1
			c1,0.1,2,0.4,3,0.6c0.6,0.1,1.1,0.2,1.7,0.4c2.3,0.7,4.6,1.6,6.5,3.2c0.5,0.4,1.1,0.6,1.6,1c0.5,0.4,1,0.8,1,1.7
			c0.3-0.1,0.4-0.2,0.7-0.4c1.9,2.1,3.7,4.2,5,6.8c-0.1,0.9,0.7,1.3,0.9,2c0.3,0.7,0.5,1.5,0.8,2.2c0.2,0.8,0.5,1.6,0.6,2.4
			c0.1,1.1,0.6,2.2-0.1,3.3c0.8,0.9,0.6,2,0.4,2.9c-0.3,1.9-0.8,3.8-1.2,5.6c-0.1,0.6-0.4,1.1-0.6,1.6c-0.1,0.3-0.3,0.6-0.7,0.5
			c-0.7-0.3-0.6,0.3-0.7,0.8c0.3,0,0.5,0,0.8,0c-0.9,1.8-1.8,3.4-3.1,4.8c-0.3,0.3-1.1,0.6-1.1,0.7c0.1,0.6-0.2,0.8-0.6,1.1
			c-2.1,1.9-4.3,3.5-6.8,4.7c-2.3,1.1-4.7,1.7-7.1,2.2c-1,0.2-2,0.4-2.9,0.2c-1.9-0.4-3.8-0.1-5.6-0.7c-1.8-0.6-3.6-1.2-5.3-2
			c-1.7-0.9-3.2-2-4.7-3.1c-0.2-0.1-0.2-0.5-0.2-0.6c-0.5-0.4-1.1-0.6-1.4-1c-1.4-1.6-2.7-3.2-4-4.9c0.4-0.4,0.6-0.8,0.9-1
			c-0.3-0.8-0.9-0.3-1.4-0.4C242.1,136.6,241.4,133.1,241.8,129.4z M278.2,134.6c0,0.7,0.2,1.1-0.2,1.6c-0.4,0.6,0.1,1.1,0.8,1.4
			c0.3,0.1,0.6,0.4,0.9,0.6c0.7,0.5,0.8,0.5,1.2-0.4c-1.9-0.8-1.9-0.8-1.7-3C278.9,134.8,278.6,134.7,278.2,134.6z M262.9,121
			c0.9-0.1,1.2-0.3,1.1-1.2c-0.1-0.7,0-1.2,0.9-1.3c0.2,0,0.3-0.3,0.5-0.5c-0.9-0.5-1.2,0.1-1.6,0.5c-0.4,0.4-0.9,0.8-1.5,1.3
			C263.6,119.8,263,120.4,262.9,121z M266,138.5c0.5,0.5,0.9,0.6,1.4,0.1c0.7-0.7,0.7-1,0.1-1.8c-0.4,0.2-0.9,0.4-1.3,0.5
			C266.2,137.8,266.1,138.1,266,138.5z M256.9,149.2c0.2-0.5,0.4-0.8,0.7-1.3c-0.6-0.3-1.1-0.6-1.7-0.9c0,0-0.1,0.2-0.2,0.3
			c0.2,0.2,0.5,0.4,0.7,0.6c-0.3,0.4-0.6,0.7-1.1,1.2C255.9,149.2,256.4,149.2,256.9,149.2z M275.4,118.9c-0.8,0.5-0.8,0.5-0.1,1.1
			c0.9-0.4,0.8-1.3,1.3-2.1c-0.7,0-1.3,0-2,0C274.9,118.4,275.1,118.6,275.4,118.9z M259.1,114.6c0.1,0.6-0.1,1.2,0.6,1.3
			c0.5-0.4,0.9-0.7,1.3-1c-0.3-0.5-0.6-1-0.9-1.6C259.7,114.3,259.6,114.4,259.1,114.6z M273.1,110.6c-0.2-0.5-0.4-0.9-0.6-1.3
			c-0.3-0.4-0.7-0.3-1-0.1c-0.4,0.3-0.3,0.7,0,0.9c0.3,0.3,0.7,0.5,1,0.8C272.6,110.8,272.8,110.8,273.1,110.6z M250.6,119.7
			c0.4-0.2,0.8-0.3,0.8-0.5c0.2-0.5,0.4-1,0.6-1.4c0-0.1-0.2-0.3-0.4-0.5C251.2,117.7,250.7,118.7,250.6,119.7z M260.1,130.5
			c-0.3,0.2-0.6,0.4-0.9,0.5c0.3,1.1,1.2,0.9,2,1.2C261.4,131.2,260.4,131.1,260.1,130.5z M253.1,127.6c-0.5-1.2-0.8-1.3-1.7-0.7
			c0.4,0.2,0.7,0.4,1,0.5c-0.8,0.5-0.8,0.5-0.2,1.1C252.5,128.2,252.8,127.9,253.1,127.6z"/>
	</g>
	<g>
		<path class="st0" d="M323.5,136.1c-0.4-0.4-0.3-1-0.2-1.6c0.1-1.1,0.4-2.2,0.6-3.3c0.5-2,1.4-3.7,2.3-5.5c0.1,0.1,0.3,0.1,0.4,0.2
			c0,0,0.1-0.1,0.1-0.1c-0.2-0.3-0.2-0.5,0-0.8c0.5-0.6,1-1.3,1.5-2c0.7-0.9,1.4-1.7,2.2-2.5c0.3-0.3,0.3-0.3,0.8,0
			c0.1-0.3,0.1-0.6,0.2-1c0.2,0.3,0.3,0.5,0.5,0.8c0-0.4,0-0.7,0.1-0.9c0-0.2,0.2-0.4,0.3-0.5c1.1-0.7,2-1.6,3.3-1.9
			c1.5-1.1,3.3-1.5,5.1-1.9c0.8-0.2,1.6-0.5,2.4-0.3c1.4-0.5,2.9-0.2,4.4-0.2c1.8,0,3.5,0.4,5.2,0.8c0.2,0,0.4,0.1,0.5,0.3
			c0.2,0.2,0.4,0.2,0.6,0.2c0.3,0,0.6,0.1,0.9,0.2c1.3,0.5,2.5,1.2,3.7,1.9c0.4,0.3,0.6,0.8,1.2,0.8c0,0,0.1,0.1,0.1,0.2
			c0.1,0.3,0.2,0.5,0.6,0.4c0.1,0,0.2,0.2,0.3,0.3c-0.1,0.1-0.2,0.2-0.4,0.3c0.3,0.3,0.5,0.3,0.8,0c2.1,1.9,3.9,3.9,5.2,6.3
			c0.1,0.3,0.5,0.5,0.2,0.9c0,0,0.1,0.3,0.2,0.4c0.5,0.4,0.5,0.4,0,0.8c0,0,0,0.1-0.1,0.2c0.1,0,0.2,0,0.3,0c0.3-0.1,0.5,0,0.6,0.3
			c0.4,1.4,0.8,2.8,1.2,4.3c0,0.2,0.1,0.3,0.1,0.5c0,0.2,0.2,0.5-0.2,0.5c0,0.1,0,0.4,0.1,0.4c0.3,0,0.3,0.2,0.3,0.4
			c0,0.7,0,1.4,0,2.1c0,0.4-0.2,0.6-0.7,0.6c-0.6,0-1.1-0.1-1.7-0.1c-0.3,0-0.6,0.1-0.9,0.1c-0.8,0-1.7,0-2.5,0
			c-0.4,0-0.8-0.1-1.1-0.5c0,0.2-0.1,0.3-0.1,0.5c-1.4,0-2.7,0-4.1,0c-0.3,0-0.6-0.2-0.9-0.3c-0.1,0.5-0.5,0.3-0.7,0.3
			c-1.5,0-3-0.1-4.5-0.1c-0.5,0-1,0.1-1.5,0.1c-0.1-0.2-0.3-0.4-0.4-0.6c-0.1,0.1-0.3,0.2-0.4,0.3c-0.4,0.4-0.4,0.4-0.9,0
			c-0.1-0.1-0.3,0-0.4-0.1c0,0.1,0,0.2,0,0.3c-1.3,0-2.7,0-4,0c-0.3,0-0.5,0-0.6-0.5c-0.3,0.4-0.6,0.8-1,0.3
			c-0.1-0.2-0.5-0.1-0.9-0.2c0.1,0.2,0.2,0.3,0.2,0.4c-4.2,0-8.5,0-12.7,0c-1.1,0-2.3,0.1-3.4,0c-0.7,0-1.4,0-2.1,0
			c-0.4,0-0.6-0.1-0.5-0.5C323.3,136.8,323.4,136.5,323.5,136.1z M356,132.1c0,0.1,0,0.1,0,0.2c0.7,0.1,1.3,0.2,2.2,0.4
			c-0.1-0.3-0.2-0.6-0.2-0.6c-0.5-0.1-1.1-0.1-1.6-0.1C356.2,131.9,356.1,132,356,132.1z M349,129.4c0,0,0.1,0.1,0.1,0.1
			c0.5,0,1,0,1.5,0c0-0.2,0-0.3,0-0.4c-0.1-0.1-0.2-0.3-0.3-0.4c-0.1,0-0.3,0.1-0.5,0.2c-0.1,0.1-0.3,0.1-0.4,0.2
			C349.3,129.2,349.2,129.3,349,129.4z M358.5,126.1c0,0,0.1-0.1,0.1-0.1c-0.1-0.2-0.3-0.3-0.4-0.5c0.1-0.1,0.3-0.3,0.4-0.4
			c-0.3,0.2-0.9-0.5-1,0.3c0,0.2,0.2,0.5,0.3,0.7C358.1,126.1,358.3,126.1,358.5,126.1z M360.6,122.7c0.3,0.8,1,0.6,1.5,0.8
			c0-0.1,0.1-0.1,0-0.2c-0.1-0.7-0.9-0.1-1.1-0.7C361.1,122.6,360.8,122.7,360.6,122.7z"/>
		<path class="st0" d="M356.1,87.8c-0.1,0.2-0.1,0.4-0.2,0.6c0.3,0,0.5,0,0.8-0.1c0.1,0.5,0.7,0.6,0.6,1.2c0,0,0.2,0.1,0.3,0.1
			c0.5,0.3,0.8,0.9,0.6,1.4c0.9,0.2,1,1,1.2,1.6c0.3,0.7,0.6,1.4,0.7,2.2c0.1,0.6,0.4,1.2,0.3,1.8c-0.1,0.1-0.3,0.2-0.4,0.2
			c0.2,0.1,0.3,0.2,0.6,0.4c-0.1,0.1-0.2,0.3-0.4,0.5c0.5,0.6,0.5,0.6,0.1,1c0.3,0.3,0.4,0.6,0.1,1c-0.2,0.3,0,0.8-0.1,1.1
			c-0.1,0.6-0.3,1.2-0.4,1.7c-0.1,0.4-0.4,0.6-0.4,1.1c-0.1,0.4-0.3,0.7-0.5,1.1c-0.2,0.4-0.4,0.7-0.6,1.1c-0.2,0.3-0.5,0.6-0.7,1
			c-0.3,0.3-0.5,0.7-0.8,1c-0.3,0.3-0.5,0.6-0.8,0.9c-1.3,1.1-2.6,2.1-4.1,2.7c-0.9,0.4-1.8,0.6-2.7,0.8c-0.2,0-0.4,0-0.7,0
			c-0.3,0.4-0.8,0.5-1.4,0.2c-0.1,0-0.2,0-0.4,0c-0.4,0.1-0.8,0.3-1.3,0c0,0-0.2-0.1-0.2,0c-0.6,0.5-1.3,0.1-1.9,0
			c-0.7-0.1-1.4-0.4-2.1-0.6c-0.3-0.1-0.7-0.2-0.6-0.7c-0.7,0.2-1.1,0-1.6-0.4c-0.6-0.4-1.2-0.7-1.8-1.1c0.2-0.1,0.3-0.2,0.5-0.4
			c-0.3-0.1-0.5-0.1-0.7-0.1c-0.7-0.1-0.7-0.2-0.9-0.8c0-0.1-0.2-0.3-0.3-0.3c-0.5,0.1-0.7-0.3-0.9-0.6c-0.3-0.4-0.6-0.8-0.9-1.3
			c0.4-0.2,0.8-0.3,0.8-0.9c-0.6-0.3-0.5,0.6-1,0.4c-0.1-0.1-0.2-0.3-0.3-0.5c-0.5-1.1-1.2-2.2-1.4-3.5c-0.1-0.6-0.2-1.2-0.3-1.8
			c-0.1-0.8-0.2-1.7-0.1-2.5c0.1-1.1,0.2-2.2,0.5-3.2c0.4-1.5,1.1-2.9,2-4.1c0.2-0.3,0.4-0.6,0.7-0.9c0.1-0.1,0.4-0.2,0.5-0.3
			c0.5,0,0.8-0.2,1.1-0.8c-0.2,0.1-0.4,0.1-0.6,0.2c0-0.1,0-0.2,0-0.2c1.3-1.4,2.9-2.5,4.7-3.2c1.2-0.5,2.4-0.8,3.7-1
			c0.2,0,0.5,0.2,0.7,0.3c0.1-0.1,0.3-0.3,0.5-0.3c1.2,0,2.3-0.1,3.5,0.2c-0.3,0-0.7-0.1-0.5,0.5c0.2-0.1,0.5,0,0.7-0.2
			c0.3-0.3,0.7-0.2,1-0.1c0.7,0.3,1.6,0.4,2.2,1.1c0,0,0,0.1,0.1,0.1c0.8,0,1.3,0.5,1.9,0.9c0.6,0.4,1.2,0.9,1.8,1.3
			C356,87.7,356,87.8,356.1,87.8z M346.5,88.5c0.3,0,0.5,0.1,0.6,0.1c0.1-0.5,0.5-0.3,0.7-0.3c0.3-0.1,0.6-0.1,0.7-0.6
			C347.7,87.7,347,87.7,346.5,88.5z M344.5,89.7c-0.4-0.9-0.6-0.9-1.4-0.7c0,0.2,0,0.3,0,0.4C343.6,89.5,344,89.6,344.5,89.7z
			 M358.2,103.5c-0.1-0.1-0.2-0.2-0.4-0.2c-0.3-0.1-0.7,0.2-0.9-0.3c0,0-0.3,0.1-0.3,0.1c0,0.1,0,0.3,0.1,0.4
			c0.3,0.1,0.6,0.2,0.9,0.3C358,104,358.1,103.8,358.2,103.5z M342.6,99c0.2-0.4-0.1-0.5-0.4-0.5c-0.2,0-0.4,0-0.6-0.2
			c-0.3-0.3-0.4-0.1-0.6,0.2C341.8,98.9,342,99,342.6,99z"/>
	</g>
	<g>
		<g>
			<g>
				<path class="st3" d="M370.9,198c-0.3,0-0.5,0-0.8,0l-0.2,0l-0.5,0c-0.3,0-0.5,0-0.7,0l-0.3,0H343l0,0.1l-4.3,0
					c-0.3,0-0.5,0-0.8,0c-0.2,0-0.4,0-0.7,0l-0.3,0h-0.4l-0.9-0.3c-2.1-0.8-3.4-2.7-3.4-5l0-0.4c0-0.9-0.1-2.1,0.1-3.3
					c0.2-1.6,0.5-3.1,0.8-4.5l0-0.2c0.2-0.9,0.4-2,1-3.2l0.2-0.3l0.1-0.3c0.2-0.6,0.5-1.4,1.1-2.3l0.4-0.6l0.2-0.5
					c0.4-0.9,0.8-1.7,1.3-2.3l0.3-0.3l0.2-0.4c0.2-0.4,0.5-0.7,0.8-1l0.4-0.5l0.3-0.5c0.1-0.2,0.2-0.3,0.3-0.5c0.5-0.7,1-1.3,1.7-2
					c0.5-0.5,0.9-0.9,1.4-1.3l0.5-0.3l0.4-0.4c0.3-0.4,0.6-0.7,1-1c2.8-2.2,5.7-3.9,8.8-5.1c0.1-0.1,0.3-0.1,0.6-0.2l0.4-0.1
					l0.3-0.2c0.5-0.2,1.1-0.4,1.7-0.5l0.4-0.1l0.4-0.1c0.3-0.1,0.5-0.1,0.8-0.2l0.3-0.1l0.3-0.1c0.7-0.2,1.4-0.4,2-0.4l0.8,0
					l0.6-0.1c0.6-0.1,1.2-0.2,1.8-0.2l0.1,0c0.6,0,1.2,0,1.8,0l2.5,0c0.8,0,2,0,3.2,0.4l0.5,0.1l0.5,0c0.3,0,0.5,0.1,0.8,0.1
					c0.9,0.2,1.7,0.4,2.6,0.6l0.8,0.2c0.3,0.1,0.6,0.2,0.8,0.3l0.9,0.3h0.2l1.1,0.6c0.3,0.2,0.7,0.4,1.1,0.6l0.6,0.3l0.3,0.1
					c1.4,0.6,2.6,1.4,3.5,2c0.2,0.2,0.4,0.3,0.6,0.4c0.9,0.6,1.7,1.3,2.6,2c0.3,0.3,0.7,0.6,0.9,1l0.4,0.5l0.5,0.4
					c1.1,0.9,1.7,1.5,2.5,2.5l1,1.3l0.3,0.1l0.9,1.8l2.5,3.6l-0.5,0.3l1.2,2.3l-0.2,0.4l0.5,1.7c0.2,0.7,0.4,1.3,0.5,2l0.5,2.2
					l0.2,0.1v2.3l0.2,2.6l-0.5,1.6c-0.5,1.7-1.8,3-3.7,3.7c-0.6,0.2-1.3,0.4-2,0.4c-0.1,0-0.3,0-0.4,0l-0.1,0l-3.2,0
					c-1,0-1.9,0-2.9,0c-0.3,0-0.6,0-1.1,0l-0.2,0h-1.5l-0.3,0c-0.2,0-0.4,0-0.7,0c-1.7,0-3.5,0-5.2,0c-1.7,0-3.4,0-5.1,0
					c-0.2,0-0.3,0-0.5,0l-0.4,0l-0.4,0C371.5,198,371.2,198,370.9,198z"/>
			</g>
			<g>
				<path class="st3" d="M367.6,166.5c0,0-2.8,0-2.8,0c-1.7,0-3.2-0.3-4.4-0.6c-4.7-1.2-8.8-3.7-12.1-7.5c-0.9-1-1.6-2.1-2.1-3
					l-0.3-0.5l-0.1-0.1c-0.4-0.5-0.6-1-0.8-1.6l-0.1-0.3l-0.1-0.3c0-0.1-0.1-0.2-0.1-0.3c-0.7-1.6-1.6-4.1-1.5-6.9l0-0.2
					c0,0,0-0.5-0.1-0.6c-0.1-0.7-0.1-1.5-0.1-2.4c0.1-2,0.5-4,1-5.8l0.6-2l0.3-0.5l0.1-0.3c0.6-1.2,1.3-2.4,2.1-3.5l0.2-0.3l1.4-2.7
					l0.8,0l1.5-1.3c0.2-0.1,0.3-0.3,0.5-0.4c2.5-1.8,4.8-3.2,7.6-4l2.8-0.8l0.3-0.8l3.3,0.6l0.7,0c0.1,0,0.3,0,0.4,0l0.4,0l0.4,0
					c0.2,0,0.3,0,0.5,0c0.4,0,0.7,0,1.1,0.1l0.2,0l0.2,0c0.6,0.1,1.1,0.2,1.6,0.3l0.4,0.1l0.4,0.1c0.9,0.1,1.7,0.4,2.5,0.9l0.5,0.3
					l0.5,0.2c0.9,0.3,1.6,0.7,2,1l0.1,0.1l0.2,0.1c1.1,0.6,2,1.3,2.7,1.9c0.2,0.1,0.3,0.3,0.5,0.5l0.3,0.3l0.3,0.3
					c0.2,0.2,0.5,0.4,0.7,0.6l0.2,0.2c0.4,0.4,1,1,1.6,1.8l0.3,0.4l0.3,0.3c0.3,0.4,0.7,0.8,0.9,1.2c1.2,2,2.7,4.7,3.2,7.9l0.1,0.3
					l2.3,7.4l-1.6-0.2l-1.3,3.8c-0.1,0.2-0.1,0.4-0.2,0.6c-0.1,0.2-0.2,0.5-0.3,0.7l-0.3,0.5l-0.1,0.5c-0.4,1.4-1.1,2.4-1.6,3.1
					l-0.3,0.4l-0.1,0.2c-0.5,0.9-1,1.6-1.5,2.1c-0.1,0.2-0.2,0.3-0.3,0.4c-0.3,0.3-0.6,0.7-0.9,1l-0.3,0.3l-0.3,0.3
					c-0.6,0.7-1.2,1.1-1.6,1.4l-0.2,0.2c-0.2,0.2-0.5,0.3-0.7,0.5l-0.4,0.2l-0.3,0.3c-0.4,0.3-0.8,0.5-1.2,0.8
					c-0.3,0.2-0.7,0.3-1,0.5c-1,0.5-1.9,0.9-3,1.4c-0.4,0.2-0.8,0.3-1.1,0.4l-0.3,0.1l-4,1.8L367.6,166.5z"/>
			</g>
		</g>
		<g>
			<path class="st0" d="M376.3,166.1c0.3,0,0.5-0.1,0.7-0.1c0.2,0,0.4-0.1,0.5-0.1c0.8,0.4,1.5,0.9,2.3,1.2c1.2,0.4,2.2,1.2,3.2,1.9
				c0.8,0.5,1.5,1.1,2.3,1.7c0.3,0.2,0.4,0.6,0.6,0.9c0.1,0.1,0.1,0.2,0.2,0.2c2.1,1.6,2.4,1.8,4.4,4.5c-0.2,0.1-0.3,0.2-0.7,0.4
				c0.4,0.1,0.7,0.2,1.1,0.3c0.7,1.2,1.4,2.6,2.2,3.9c-0.2,0.5-0.8,0.7-0.5,1.3c0.2,0,0.5,0,0.7-0.1c0-0.2,0-0.4,0-0.6
				c1,2.5,1.8,5,2.1,7.6c-0.2,0.1-0.4,0.3-0.7,0.5c0.3,0.1,0.5,0.2,0.8,0.4c0,0.7,0.1,1.5,0,2.2c0,0.2-0.4,0.4-0.7,0.5
				c-0.2,0.1-0.5,0-0.8,0c-2.1,0-4.1,0.1-6.2,0.1c-0.5,0-1,0-1.5-0.2c-0.4-0.2-0.8,0-1.1,0c-0.4,0.1-0.8,0.2-1.2,0.2
				c-3.4,0.1-6.9,0.1-10.3,0.2c-0.4,0-0.7-0.1-1.3-0.2c-0.4,0.4-1.1,0.3-1.8,0.2c-0.6,0-1.4,0.3-1.6-0.7c-0.3,0.1-0.5,0.2-0.9,0.2
				c0.1,0.2,0.2,0.3,0.3,0.4c-9,0.2-18.1,0.3-27.2,0.5c-0.1-0.2-0.2-0.4-0.4-0.8c-0.2,0.4-0.3,0.7-0.4,0.9c-0.6,0-1.2,0-1.8,0
				c-0.6,0-0.8-0.1-0.8-0.7c-0.1-1-0.1-2,0-2.9c0.1-1.4,0.4-2.7,0.7-4c0.2-0.9,0.3-1.8,0.7-2.6c0.4-0.7,0.4-1.4,0.8-2
				c0.4-0.6,0.8-1.3,1.1-1.9c0.3-0.8,0.6-1.5,1.3-1.9c0.1,0,0.1-0.2,0.1-0.3c0.1-0.2,0.1-0.4,0.2-0.6c0.3-0.3,0.7-0.5,0.9-0.9
				c0.2-0.3,0.3-0.8,0.5-1.1c0.4-0.5,0.8-1,1.3-1.5c0.7-0.7,1.4-1.4,2.6-1.1c-0.2-0.4-0.3-0.6-0.5-0.9c0.2-0.2,0.3-0.5,0.5-0.6
				c2.3-1.8,4.7-3.4,7.4-4.5c0.4-0.2,0.4-0.2,0.8,0.1c0.6-0.9,1.1-1,2.2-0.7c0.2-0.7,1-0.5,1.5-0.7c0.5-0.2,1.1-0.6,1.8,0
				c0.2,0.2,0.8-0.1,1.2-0.3c0.4-0.2,0.9-0.4,1.3-0.4c1.5,0,2.9,0,4.4-0.1c0.9,0,1.8,0.1,2.6,0.4c0.4,0.2,0.9,0,1.3,0.1
				c1.1,0.2,2.1,0.5,3.2,0.7C376,165.3,376.4,165.5,376.3,166.1z M346.9,175.4c-0.1,0.1-0.2,0.1-0.3,0.2c-0.1,0.1-0.2,0.3-0.3,0.4
				c-0.5,0.6-0.5,0.7,0.2,1.1c0.3,0.2,0.5,0.5,0.9,0.8c0.2-0.1,0.4-0.3,0.6-0.5c-0.4-0.3-0.7-0.6-1-0.8
				C347.3,175.8,347.3,175.8,346.9,175.4z M370.7,187c0.5,0.3,0.7,0.3,1.5,0c0-0.4,0-0.8-0.1-1.2c0-0.2-0.1-0.4-0.2-0.4
				c-0.2,0-0.5,0.1-0.6,0.2c-0.1,0.1-0.1,0.4-0.2,0.6C371,186.4,370.8,186.7,370.7,187z M361,171.9c0.5,0.4,0.6-0.4,1-0.1
				c0.3,0.2,0.6,0.3,1.1,0.5c-0.2-0.5-0.3-0.8-0.3-1c-0.4-0.1-0.7-0.1-1-0.2C361.2,171,361,171.2,361,171.9z M358,173.9
				c0,0.5,0.1,1-0.6,1.3c0.9,0.1,1.6,0.1,2.1-0.4c-0.3-0.7-0.8-0.1-1.1-0.2C358.3,174.4,358.1,174.1,358,173.9z M366.8,167.2
				c0.5-0.2,1-0.4,1.4-0.7c0.1,0,0.1-0.3,0.1-0.4c0-0.1-0.2-0.2-0.3-0.2c-0.2,0-0.4,0.1-0.6,0.2c-0.3,0.1-0.6,0.1-0.8,0.2
				C366.7,166.6,366.7,166.8,366.8,167.2z M387.6,185c-0.9,0.1-1.6,0.6-1.4,1.1c0.2,0.1,0.5,0.2,0.8,0.3
				C387.2,185.9,387.4,185.5,387.6,185z M342.4,186.4c-0.2-0.3-0.1-0.7-0.7-0.6c-0.1,0.7,0.2,1.2,0.6,1.1c0.4-0.2,0.7,0,1,0.1
				c0.1,0,0.3,0,0.5-0.1C343.5,186.1,342.9,186.6,342.4,186.4z M348.8,191.3c0.3-0.4,0.6-0.8,0.9-1.2c-0.7-0.2-1.4,0.3-1.6,1
				C348.4,191.2,348.6,191.2,348.8,191.3z M382,169c-0.7-0.6-1.3,0.2-2,0c0.2,0.9,1,0.4,1.3,0.7C381.6,169.5,381.8,169.2,382,169z
				 M342.7,180.2c0.3,0.3,0.6,0.6,0.9,0.9c0.2-0.2,0.4-0.3,0.4-0.5c0-0.2-0.1-0.5-0.2-0.7C343.4,179.6,343.1,179.7,342.7,180.2z"/>
			<path class="st0" d="M369.6,126c0.7-0.6,1.8-0.2,2.6,0.9c1-0.4,1.8,0.3,2.6,0.7c0.7,0.4,1.4,0.9,2,1.4c0.3,0.2,0.3,0.6,0.6,0.8
				c0.2,0.2,0.6,0.2,0.9,0.4c0.7,0.6,1.4,1.2,1.5,2.4c0.6-0.1,0.9,0.3,1.1,0.7c1.3,2.1,2.4,4.2,2.8,6.7c0,0.1,0.1,0.3,0.1,0.5
				c-0.2,0-0.4-0.1-0.6-0.1c0,0,0,0-0.1,0.1c0.9,1.1,0.9,1.1,0.9,2.7c0,1,0,2-0.2,2.9c-0.2,0.9-0.2,1.8-0.6,2.6
				c-0.2,0.4-0.4,0.7-0.6,1.1c0,0.1-0.2,0.2-0.2,0.2c0.1,1.4-0.9,2.4-1.5,3.5c-0.4,0.7-0.9,1.3-1.4,2c-0.3,0.4-0.9,0.6-1.2,1.2
				c-0.3,0.5-0.8,0.8-1.2,1.1c-0.2,0.2-0.5,0.2-0.8,0c-0.2-0.1-0.5-0.1-0.8-0.3c0.1,0.3,0.1,0.5,0.1,0.7c0.2,0.3,0.2,0.6-0.2,0.8
				c-1.2,0.6-2.4,1.3-3.6,1.8c-0.5,0.2-1.1,0.3-1.7,0.6c-0.1-0.2-0.2-0.4-0.3-0.6c-0.6,0.9-1.4,1.1-2.5,0.7c-0.2-0.1-0.5-0.1-0.8,0
				c-1.7,0.5-3.3,0.2-4.9-0.2c-3.9-0.9-7.1-2.9-9.7-5.9c-0.8-0.9-1.5-2-2.2-3c-0.1-0.2-0.6-0.5-0.1-0.7c-0.3-0.3-0.6-0.6-0.7-1
				c-0.7-1.6-1.2-3.3-1.3-5.1c0-0.9-0.2-1.9-0.2-2.8c0.1-3.7,1.2-7.2,3.5-10.2c0.1-0.1,0.1-0.2,0.2-0.3c0.3,0,0.5,0,0.8,0
				c0.2,0,0.5,0,0.8,0.1c0.2-0.2,0.4-0.5,0.7-0.8c-0.7,0-1.1,0.8-1.7,0.4c0.5-0.8,1.1-1.5,2.1-1.6c0.2-0.3-0.3-0.5,0.1-0.8
				c1.9-1.4,3.8-2.7,6.1-3.4c1-0.3,2.1-0.6,3.2-0.8c0.4-0.1,0.8-0.1,0.9,0.5c0,0.1,0.2,0.3,0.3,0.6c0.2-0.4,0.3-0.7,0.4-1
				c0.6,0.1,1.4-0.4,2,0.6c0.1-0.6,0.3-0.8,0.7-0.7C368.2,125.4,369.2,125.1,369.6,126z M369.4,136.7c0.6,0.4,1,0.7,1.1,1.3
				c0,0.3,0.4,0.3,0.6,0.1c0.3-0.3,0.2-0.8-0.2-1.2c-0.3-0.3-0.5-0.5-1-0.9C369.8,136.2,369.6,136.4,369.4,136.7z M371.2,141.3
				c-0.3,0.4-0.5,0.6-0.5,0.8c0,0.2,0.1,0.5,0.2,0.5c0.4,0.1,0.9,0.2,1.3,0.1c0.2,0,0.3-0.4,0.4-0.6c-0.5-0.5-0.8-0.1-1.1,0
				C371.3,141.9,371.3,141.7,371.2,141.3z M370.7,152.7c0.1,0.3,0.3,0.5,0.4,0.8c0.8-0.4,0.1-0.9,0.2-1.4c-1,0-1,0-1.5,0.8
				C370.2,153.1,370.4,152.8,370.7,152.7z M371.2,143.7c0.7,0.1,1.4,0.3,2.2,0.4c-0.1-0.4-0.1-0.6-0.2-0.9
				C372.5,143.4,371.8,143,371.2,143.7z"/>
		</g>
	</g>
	<g>
		<path class="st0" d="M191.1,177.7c-0.4-0.4-0.3-1-0.2-1.6c0.1-1.1,0.4-2.2,0.6-3.3c0.5-2,1.4-3.7,2.3-5.5c0.1,0.1,0.3,0.1,0.4,0.2
			c0,0,0.1-0.1,0.1-0.1c-0.2-0.3-0.2-0.5,0-0.8c0.5-0.6,1-1.3,1.5-2c0.7-0.9,1.4-1.7,2.2-2.5c0.3-0.3,0.3-0.3,0.8,0
			c0.1-0.3,0.1-0.6,0.2-1c0.2,0.3,0.3,0.5,0.5,0.8c0-0.4,0-0.7,0.1-0.9c0-0.2,0.2-0.4,0.3-0.5c1.1-0.7,2-1.6,3.3-1.9
			c1.5-1.1,3.3-1.5,5.1-1.9c0.8-0.2,1.6-0.5,2.4-0.3c1.4-0.5,2.9-0.2,4.4-0.2c1.8,0,3.5,0.4,5.2,0.8c0.2,0,0.4,0.1,0.5,0.3
			c0.2,0.2,0.4,0.2,0.6,0.2c0.3,0,0.6,0.1,0.9,0.2c1.3,0.5,2.5,1.2,3.7,1.9c0.4,0.3,0.6,0.8,1.2,0.8c0,0,0.1,0.1,0.1,0.2
			c0.1,0.3,0.2,0.5,0.6,0.4c0.1,0,0.2,0.2,0.3,0.3c-0.1,0.1-0.2,0.2-0.4,0.3c0.3,0.3,0.5,0.3,0.8,0c2.1,1.9,3.9,3.9,5.2,6.3
			c0.1,0.3,0.5,0.5,0.2,0.9c0,0,0.1,0.3,0.2,0.4c0.5,0.4,0.5,0.4,0,0.8c0,0,0,0.1-0.1,0.2c0.1,0,0.2,0,0.3,0c0.3-0.1,0.5,0,0.6,0.3
			c0.4,1.4,0.8,2.8,1.2,4.3c0,0.2,0.1,0.3,0.1,0.5c0,0.2,0.2,0.5-0.2,0.5c0,0.1,0,0.4,0.1,0.4c0.3,0,0.3,0.2,0.3,0.4
			c0,0.7,0,1.4,0,2.1c0,0.4-0.2,0.6-0.7,0.6c-0.6,0-1.1-0.1-1.7-0.1c-0.3,0-0.6,0.1-0.9,0.1c-0.8,0-1.7,0-2.5,0
			c-0.4,0-0.8-0.1-1.1-0.5c0,0.2-0.1,0.3-0.1,0.5c-1.4,0-2.7,0-4.1,0c-0.3,0-0.6-0.2-0.9-0.3c-0.1,0.5-0.5,0.3-0.7,0.3
			c-1.5,0-3-0.1-4.5-0.1c-0.5,0-1,0.1-1.5,0.1c-0.1-0.2-0.3-0.4-0.4-0.6c-0.1,0.1-0.3,0.2-0.4,0.3c-0.4,0.4-0.4,0.4-0.9,0
			c-0.1-0.1-0.3,0-0.4-0.1c0,0.1,0,0.2,0,0.3c-1.3,0-2.7,0-4,0c-0.3,0-0.5,0-0.6-0.5c-0.3,0.4-0.6,0.8-1,0.3
			c-0.1-0.2-0.5-0.1-0.9-0.2c0.1,0.2,0.2,0.3,0.2,0.4c-4.2,0-8.5,0-12.7,0c-1.1,0-2.3,0.1-3.4,0c-0.7,0-1.4,0-2.1,0
			c-0.4,0-0.6-0.1-0.5-0.5C190.9,178.4,191,178.1,191.1,177.7z M223.6,173.7c0,0.1,0,0.1,0,0.2c0.7,0.1,1.3,0.2,2.2,0.4
			c-0.1-0.3-0.2-0.6-0.2-0.6c-0.5-0.1-1.1-0.1-1.6-0.1C223.8,173.5,223.7,173.6,223.6,173.7z M216.7,171c0,0,0.1,0.1,0.1,0.1
			c0.5,0,1,0,1.5,0c0-0.2,0-0.3,0-0.4c-0.1-0.1-0.2-0.3-0.3-0.4c-0.1,0-0.3,0.1-0.5,0.2c-0.1,0.1-0.3,0.1-0.4,0.2
			C216.9,170.8,216.8,170.9,216.7,171z M226.1,167.7c0,0,0.1-0.1,0.1-0.1c-0.1-0.2-0.3-0.3-0.4-0.5c0.1-0.1,0.3-0.3,0.4-0.4
			c-0.3,0.2-0.9-0.5-1,0.3c0,0.2,0.2,0.5,0.3,0.7C225.7,167.7,226,167.7,226.1,167.7z M228.3,164.3c0.3,0.8,1,0.6,1.5,0.8
			c0-0.1,0.1-0.1,0-0.2c-0.1-0.7-0.9-0.1-1.1-0.7C228.7,164.2,228.4,164.3,228.3,164.3z"/>
		<path class="st0" d="M223.8,129.4c-0.1,0.2-0.1,0.4-0.2,0.6c0.3,0,0.5,0,0.8-0.1c0.1,0.5,0.7,0.6,0.6,1.2c0,0,0.2,0.1,0.3,0.1
			c0.5,0.3,0.8,0.9,0.6,1.4c0.9,0.2,1,1,1.2,1.6c0.3,0.7,0.6,1.4,0.7,2.2c0.1,0.6,0.4,1.2,0.3,1.8c-0.1,0.1-0.3,0.2-0.4,0.2
			c0.2,0.1,0.3,0.2,0.6,0.4c-0.1,0.1-0.2,0.3-0.4,0.5c0.5,0.6,0.5,0.6,0.1,1c0.3,0.3,0.4,0.6,0.1,1c-0.2,0.3,0,0.8-0.1,1.1
			c-0.1,0.6-0.3,1.2-0.4,1.7c-0.1,0.4-0.4,0.6-0.4,1.1c-0.1,0.4-0.3,0.7-0.5,1.1c-0.2,0.4-0.4,0.7-0.6,1.1c-0.2,0.3-0.5,0.6-0.7,1
			c-0.3,0.3-0.5,0.7-0.8,1c-0.3,0.3-0.5,0.6-0.8,0.9c-1.3,1.1-2.6,2.1-4.1,2.7c-0.9,0.4-1.8,0.6-2.7,0.8c-0.2,0-0.4,0-0.7,0
			c-0.3,0.4-0.8,0.5-1.4,0.2c-0.1,0-0.2,0-0.4,0c-0.4,0.1-0.8,0.3-1.3,0c0,0-0.2-0.1-0.2,0c-0.6,0.5-1.3,0.1-1.9,0
			c-0.7-0.1-1.4-0.4-2.1-0.6c-0.3-0.1-0.7-0.2-0.6-0.7c-0.7,0.2-1.1,0-1.6-0.4c-0.6-0.4-1.2-0.7-1.8-1.1c0.2-0.1,0.3-0.2,0.5-0.4
			c-0.3-0.1-0.5-0.1-0.7-0.1c-0.7-0.1-0.7-0.2-0.9-0.8c0-0.1-0.2-0.3-0.3-0.3c-0.5,0.1-0.7-0.3-0.9-0.6c-0.3-0.4-0.6-0.8-0.9-1.3
			c0.4-0.2,0.8-0.3,0.8-0.9c-0.6-0.3-0.5,0.6-1,0.4c-0.1-0.1-0.2-0.3-0.3-0.5c-0.5-1.1-1.2-2.2-1.4-3.5c-0.1-0.6-0.2-1.2-0.3-1.8
			c-0.1-0.8-0.2-1.7-0.1-2.5c0.1-1.1,0.2-2.2,0.5-3.2c0.4-1.5,1.1-2.9,2-4.1c0.2-0.3,0.4-0.6,0.7-0.9c0.1-0.1,0.4-0.2,0.5-0.3
			c0.5,0,0.8-0.2,1.1-0.8c-0.2,0.1-0.4,0.1-0.6,0.2c0-0.1,0-0.2,0-0.2c1.3-1.4,2.9-2.5,4.7-3.2c1.2-0.5,2.4-0.8,3.7-1
			c0.2,0,0.5,0.2,0.7,0.3c0.1-0.1,0.3-0.3,0.5-0.3c1.2,0,2.3-0.1,3.5,0.2c-0.3,0-0.7-0.1-0.5,0.5c0.2-0.1,0.5,0,0.7-0.2
			c0.3-0.3,0.7-0.2,1-0.1c0.7,0.3,1.6,0.4,2.2,1.1c0,0,0,0.1,0.1,0.1c0.8,0,1.3,0.5,1.9,0.9c0.6,0.4,1.2,0.9,1.8,1.3
			C223.6,129.3,223.7,129.3,223.8,129.4z M214.1,130.1c0.3,0,0.5,0.1,0.6,0.1c0.1-0.5,0.5-0.3,0.7-0.3c0.3-0.1,0.6-0.1,0.7-0.6
			C215.4,129.3,214.7,129.3,214.1,130.1z M212.1,131.3c-0.4-0.9-0.6-0.9-1.4-0.7c0,0.2,0,0.3,0,0.4
			C211.2,131.1,211.6,131.2,212.1,131.3z M225.9,145.1c-0.1-0.1-0.2-0.2-0.4-0.2c-0.3-0.1-0.7,0.2-0.9-0.3c0,0-0.3,0.1-0.3,0.1
			c0,0.1,0,0.3,0.1,0.4c0.3,0.1,0.6,0.2,0.9,0.3C225.6,145.6,225.7,145.4,225.9,145.1z M210.2,140.6c0.2-0.4-0.1-0.5-0.4-0.5
			c-0.2,0-0.4,0-0.6-0.2c-0.3-0.3-0.4-0.1-0.6,0.2C209.4,140.5,209.6,140.6,210.2,140.6z"/>
	</g>
</g>
</svg>
