<?xml version="1.0" encoding="utf-8"?>
<!-- Generator: Adobe Illustrator 19.1.0, SVG Export Plug-In . SVG Version: 6.00 Build 0)  -->
<svg version="1.1" id="Layer_1" xmlns="http://www.w3.org/2000/svg" xmlns:xlink="http://www.w3.org/1999/xlink" x="0px" y="0px"
	 viewBox="0 0 360 255" style="enable-background:new 0 0 360 255;" xml:space="preserve">
<style type="text/css">
	.st0{fill:#757576;}
	.st1{fill-rule:evenodd;clip-rule:evenodd;fill:#757576;}
	.st2{fill:#F37046;}
</style>
<g>
	<g>
		<path class="st0" d="M155.5,114.2c-0.4,0.4-0.8,0.7-1.1,1c0.5,0,1.1-0.3,1.5,0c0.6,0.3,1.1,0.9,1.5,1.4c0.2,0.2,0.1,0.7,0.3,0.9
			c0.1,0.1,0.5-0.1,0.8-0.1c-0.1-0.3-0.1-0.7-0.2-1c-1.2-1.9-0.6-2.3,1.5-2.2c5.5,0.2,11-0.1,16.6,0.1c4.7,0.2,9.4-0.2,14.1-0.1
			c4.9,0.1,9.7,0,14.6,0c10.9,0,21.8,0,32.7,0c4.2,0,8.4-0.2,12.6,0.3c2.2,0.3,4.1-0.9,6.2-0.4c1.2,0.3,2.4,1.7,3.9,0.1
			c0.3-0.3,1.5,0.1,2.2,0.1c3.1,0,6.2-0.2,9.2-0.1c0.6,0,1.5,1.1,1.6,1.8c0.2,2.8,0.1,5.6,0,8.4c0,0.4-0.5,0.7-0.7,1
			c-0.1,0.2-0.3,0.6-0.2,0.8c1.9,3.1,1,6.4,0.5,9.6c-0.1,0.4,0.3,0.8,0.3,1.3c0.1,2.8,0.3,5.7,0.1,8.5c-0.1,2.7,0.2,5.3,0.1,7.9
			c-0.1,2.9,0,5.8,0,8.8c0,10.1,0.1,20.2-0.2,30.2c0,1.2-0.2,2.2,0,3.6c0.5,3.3,0.3,6.8,0.2,10.2c0,2.8,0.1,5.5-0.1,8.3
			c0,0.8-0.6,1.5-0.9,2.3c-0.1,0.2-0.1,0.3-0.1,0.5c0.3,1.7,0.8,3.3,1,5c0.2,1.6,0.2,3.3,0,5c-0.1,0.7-1,1.6-1.7,1.7
			c-2.3,0.2-4.7,0.1-7,0.1c-3.5,0-7,0-10.5,0c-4.2,0-8.3,0-12.5,0c-11.5,0-22.9,0-34.4,0c-1,0-2.6,0.4-2.2-1.7
			c0-0.1-0.4-0.5-0.6-0.5c-0.2,0.1-0.6,0.4-0.6,0.6c-0.1,1.5-1,1.6-2.2,1.6c-4.8,0-9.5,0-14.3,0c-4.6,0-9.2,0-13.8,0
			c-0.9,0-2.1,0.4-2.8-0.1c-1.5-1.1-2.7,0.5-4.2,0.2c-1.7-0.4-3.6,0-5.4-0.2c-0.6-0.1-1.2-0.9-1.7-1.5c-0.3-0.3-0.3-0.8-0.5-1.2
			c0-0.1-0.7,0-0.8,0.1c-0.1,0.6-0.2,1.3-0.2,1.9c0,0.2,0.3,0.5,0.5,0.7c-0.3,0-0.7,0.1-1,0.1c-2,0-4-0.1-6,0c-1.2,0-2.5-2.2-3.7,0
			c-5.9,0-11.9,0-17.8,0c-4.7,0-9.4,0-14.1,0c-5.2,0-10.3-0.1-15.5-0.3c-4.5-0.1-9,0.5-13.6,0.3c-1.8-0.1-2.7-0.6-2.5-2.4
			c0.1-1.4,0.5-2.8,0.6-4.2c0-1-0.4-2-0.4-3c0-9.8,0-19.5,0-29.3c0-6.7-0.1-13.4-0.1-20.1c0-1.5-0.6-3.5,0.1-4.4
			c1.2-1.5,0-2.4,0-3.5c0-3.7-0.1-7.4-0.1-11.1c0-0.9,0.6-1.7,0.8-2.6c0.1-0.2,0.1-0.6,0-0.8c-1.2-1.4-1.2-4.1,0.2-5.9
			c0.1-0.1,0-0.6-0.1-0.8c-1.5-1.5-1.1-3-0.3-4.6c0.1-0.2,0-0.5-0.1-0.8c-0.1-0.2-0.5-0.5-0.4-0.6c0.8-2-0.3-3.9-0.1-5.9
			c0.2-2.2,0-4.4,0.1-6.7c0-0.3,0.3-0.7,0.6-0.8c0.3-0.1,0.7,0.1,1,0.1c-0.2-0.3-0.4-0.7-0.7-1c-0.8-0.8-1.4-5.4-0.7-6.3
			c0.1-0.2,0.3-0.4,0.4-0.4c3,0,5.9,0,8.9,0c1.7,0,3.4,0.1,5.2,0.1c4.7,0,9.4-0.1,14.2-0.1c3.5,0,7-0.1,10.6-0.1
			c7.4,0,14.8,0,22.2,0c0.7,0,1.3,0.6,2,0.9c0.1,0.1,0.2,0.1,0.4,0.2c0.9-2.4,2.9-0.8,4.3-1.1C153.7,114,154.7,114.2,155.5,114.2z
			 M264.6,128.9c0,0,0.1,0,0.1,0c0-0.7-0.1-1.5,0-2.2c0.3-2.2-0.6-2.8-2.8-2.8c-2.6,0-5.1-0.5-7.7-0.8c-0.3,0-0.5,0.2-0.8,0.3
			c-0.7,0.2-1.4,0.5-2.1,0.5c-9,0-18,0-27,0c-4.2,0-8.3,0-12.5,0c-1.9,0-3.7-0.8-5.8-0.1c-1.7,0.5-3.7,0.1-5.6,0.1
			c-7.8,0-15.6,0-23.4,0c-4.6,0-9.1,0-13.7,0c-0.8,0-1.5-0.4-2.3-0.4c-2.7,0.1-5.5,0.3-8.2,0.3c-0.6,0-1.3-0.6-1.9-0.6
			c-1.1,0.1-2.1,0.6-3.1,0.6c-5.1,0.1-10.2,0.1-15.3,0c-4.8-0.1-9.5-0.4-14.3-0.4c-3.6,0-7.1,0.3-10.7,0.4c-0.8,0-1.6-0.2-2.4-0.3
			c-1.2-0.2-2.5-0.3-3.7-0.4c-0.3,0-0.5,0.1-0.8,0.1c-0.6,0.2-1.2,0.6-1.8,0.6c-1.4,0.1-2.8-0.2-4.1,0.1c-0.9,0.2-1.7,1.1-2.5,1.7
			c2.2,1.3,0.7,3.4,1,5c0.2,1.2,0.4,3.3-0.2,3.7c-1.8,1.2-0.4,1.5,0.2,2.1c0.1,0.1,0,0.3,0,0.4c0,0.5,0.1,1,0,1.5
			c-0.3,1.2-0.1,2.5-0.2,3.6c-0.3,6,1.8,12.3-1.2,18.1c-0.1,0.2,0.1,0.6,0.2,0.9c0.2-0.2,0.4-0.4,0.6-0.6c0.1-0.1,0.3-0.2,0.4-0.3
			c0.1,0.1,0.2,0.2,0.2,0.4c0,2,0,4,0,6c0,7.8,0,15.6,0,23.5c0,9,0,18,0,26.9c0,2.1,1,3.1,2.9,2.8c3.2-0.5,6.4,0.5,9.7,0.2
			c4.7-0.5,9.6-0.2,14.4-0.2c1.7,0,3.4,0.3,5-0.1c1.6-0.3,2.8,1,4.5,0.2c1.3-0.6,3.1-0.1,4.7-0.1c4.2,0,8.4,0.1,12.6,0
			c5.7,0,11.5-0.1,17.2-0.1c0.5,0,1,0.4,1.5,0.4c0.7,0.1,1.4,0,2.1,0.1c0.6,0,1.2,0.3,1.8,0.2c0.8-0.1,1.5-0.7,2.3-0.7
			c15.9,0,31.9,0,47.8,0c2.7,0,5.3,0.1,8,0.1c10.8,0,21.7-0.1,32.5,0c3.6,0,4.3-0.4,4.3-3.9c0-6.9,0-13.9,0-20.8
			c0-0.5,0.3-1.3,0.4-1.3c2.1-0.1,0.2-0.9,0.2-1.3c0-2.4-0.2-4.9-0.1-7.3c0-0.5,2.6-1.3-0.3-1.2c-0.1,0-0.3-0.6-0.3-0.9
			c0-4.9-0.3-9.8,0.2-14.7c0.1-1.2-0.3-2.2-0.2-3.4c0.1-1.7,0.4-3.4,0.4-5c-0.1-4-0.4-8-0.4-11.9c0-3.8,0.3-7.6,0.4-11.5
			C265.1,134,264.8,131.5,264.6,128.9z M85,169.4c0.5,0.8,0.8,1.4,1.3,1.9c0.1,0.1,0.8,0.1,0.9-0.1c0.2-0.3,0.2-0.8,0.1-1.1
			c0-0.3-0.2-0.5-0.3-0.8c-0.2-0.4-0.3-0.9-0.4-1.3C86,168.4,85.6,168.9,85,169.4z M225,118.8c-0.1-0.1-0.2-0.3-0.3-0.4
			c-0.1,0.1-0.2,0.3-0.3,0.4c0.3,0.2,0.6,0.5,1,0.7c0.6,0.3,1.2,0.6,1.8,1c0.2,0.1,0.4,0.4,0.5,0.6c0.2-0.2,0.5-0.5,0.4-0.7
			c-0.2-0.7-0.6-1.3-0.8-1.9c-0.1-0.3-0.1-0.6-0.1-0.8c-0.3,0.1-0.6,0.2-0.9,0.4C225.9,118.2,225.5,118.5,225,118.8z M91.8,144
			c-1.2-0.6-1.9-1-2.7-1.2c-0.2,0-0.9,0.8-0.9,1.2c0,0.4,0.7,1.3,1,1.2C89.9,145.1,90.6,144.6,91.8,144z M193.3,220.3
			c-0.7-0.2-1.6-0.5-1.7-0.4c-0.5,0.8-0.8,1.8-1.1,2.7c0,0.1,0.3,0.4,0.5,0.5C191.7,222.3,192.5,221.4,193.3,220.3z M89.8,128
			c-0.4-0.5-0.9-1.3-1-1.2c-0.5,0.2-1.4,0.7-1.3,1c0.1,0.6,0.7,1.2,1.1,1.8C88.9,129.1,89.3,128.6,89.8,128z M203.1,223
			c-0.6,0.8-1,1.4-1.4,1.9c0,0.1,0.3,0.5,0.4,0.5c0.7-0.3,1.3-0.6,2-0.9C203.8,224.1,203.6,223.7,203.1,223z M229,223.3
			c-0.7,0-1.3-0.2-1.6,0c-0.4,0.3-0.7,0.8-0.8,1.3c-0.1,0.3,0.2,0.8,0.4,1.1c0.1,0.1,0.4,0,0.7,0c0-0.2-0.1-0.5-0.1-0.6
			c0.1-0.4,0.3-0.7,0.5-1C228.3,223.9,228.5,223.7,229,223.3z M122.9,115.2c-0.7,0.4-1,0.6-1.3,0.7c0.6,0.5,1.1,0.9,1.7,1.4
			c0.1-0.3,0.4-0.6,0.4-0.8C123.6,116.1,123.3,115.7,122.9,115.2z M270.8,143.8c0.4-0.3,0.7-0.5,1-0.7c-0.5-0.4-1-0.9-1.6-1.1
			c-0.2-0.1-0.7,0.5-1,0.8C269.8,143.1,270.2,143.4,270.8,143.8z M86.1,180c0.3-1.1,0.6-1.9,0.7-2.7c0-0.1-0.4-0.3-0.6-0.4
			c-0.3,0.6-0.7,1.2-0.9,1.9C85.3,179,85.7,179.3,86.1,180z"/>
		<path class="st0" d="M268.5,252.9c-1.5-0.3-3-0.8-4.5-1c-0.7-0.1-1.5,0.6-2.2,0.6c-10,0-19.9,0-29.9,0c-0.5,0-1-0.6-1.5-0.8
			c-0.3-0.1-0.6-0.1-0.9-0.1c-0.8,0.1-1.6,0.2-2.3,0.4c-0.5,0.1-1,0.5-1.5,0.5c-7.6-0.1-15.3-0.3-22.9-0.4c-1,0-2.1,0.4-3.1,0.4
			c-11.5,0-23,0-34.5,0c-1.2,0-2.4,0-3.5,0c-0.3,0-0.5-0.1-0.8-0.2c0.1-0.2,0.1-0.4,0.2-0.6c0.1-0.2,0.3-0.4,0.5-0.7
			c-0.6-0.1-1.2-0.3-1.8-0.3c-0.1,0-0.4,0.4-0.4,0.5c0.3,1.3-0.5,1.4-1.5,1.4c-3.9,0-7.9,0-11.8,0c-0.8,0-1.6-0.4-2.4-0.7
			c-0.3-0.1-0.6-0.2-0.8-0.2c-3.9,0.3-7.8,0.6-11.8,0.8c-2.7,0.1-5.5,0-8.2,0c-10.1,0-20.3,0-30.4,0c-2.4,0-4.7,0-7.1-0.3
			c-3.2-0.4-4.9-2.9-6.7-5.1c1.5-1.7-0.3-2.1-1-3.1c-0.6-0.9-0.4-2.5-0.3-3.7c0-0.4,1-0.9,1.6-0.9c5.4-0.1,10.7-0.1,16.1,0
			c1.2,0,2.4-0.1,3.5,0.2c2.6,0.7,5-0.5,7.6-0.3c2.8,0.3,5.7,0,8.5,0.1c0.9,0,1.8,0.5,2.7,0.7c0.2,0.1,0.5,0,0.7,0
			c1.1-0.2,2.1-0.7,3.2-0.7c3.8-0.1,7.5,0,11.3,0c0.2,0,0.6-0.1,0.7,0c1.6,1.8,3.2-0.1,4.8,0c2,0.1,4.1,0,6.1,0c0.7,0,1.3,0.4,2,0.5
			c0.6,0.1,1.3-0.1,1.9-0.2c0.5-0.1,1-0.3,1.5-0.3c6,0,12,0,17.9,0c2,0,4,0,6,0c7.5,0,15,0,22.5,0c4.7,0,9.4,0,14.1,0
			c5.2,0,10.3,0,15.5,0c0.4,0,0.8,0.5,1.3,0.6c0.3,0.1,0.7,0,1.1-0.1c0.8-0.1,1.6-0.2,2.4-0.3c0.6-0.1,1.2-0.1,1.7-0.1
			c4.2,0,8.3,0,12.5-0.1c2,0,4-0.2,6-0.2c9.2,0,18.3,0.1,27.5-0.1c2.2,0,2.7,1.3,2.7,2.7c0.3,6.1-3.8,10.6-10.1,10.7
			c-0.7,0-1.5,0-2.2,0C268.5,252.7,268.5,252.8,268.5,252.9z M214.5,242.2c-0.5,1-0.8,1.5-1.1,2.1c0,0.1,0.2,0.4,0.2,0.4
			c0.8-0.4,1.6-0.8,2.4-1.3C215.7,243.1,215.3,242.8,214.5,242.2z"/>
	</g>
	<g>
		<path class="st1" d="M94.8,129.7c0.2-0.3,0.4-0.5,0.7-0.8c0.3,0.2,0.6,0.5,0.9,0.7c-0.2,0.3-0.4,0.5-0.7,0.8
			C95.4,130.1,95.1,129.9,94.8,129.7z"/>
		<path class="st1" d="M101.3,121.7c0.2-0.3,0.4-0.5,0.7-0.8C102.1,122,102.3,121.3,101.3,121.7z"/>
		<path class="st1" d="M102.8,128.9c0.4,0.1,0.8,0.2,1.2,0.3c-0.1,0.1-0.2,0.3-0.3,0.4C103.4,129.4,103.1,129.1,102.8,128.9z"/>
		<path class="st1" d="M109.3,120.9c0.4,0.1,0.8,0.2,1.2,0.3c-0.1,0.1-0.2,0.3-0.3,0.4C109.9,121.4,109.6,121.2,109.3,120.9z"/>
		<path class="st1" d="M103.6,136.9c0.2-0.3,0.4-0.5,0.7-0.8C104.3,137.1,104.6,136.5,103.6,136.9z"/>
		<path class="st1" d="M110.1,128.9c0.5-0.3,0.9-0.6,1.4-0.8c-0.1,0.1-0.2,0.3-0.3,0.4c-0.1,0.4-0.1,0.8-0.2,1.2
			C110.7,129.4,110.4,129.2,110.1,128.9z"/>
		<path class="st1" d="M116.6,121c0.2-0.3,0.4-0.5,0.7-0.8C117.4,121.2,117.6,120.6,116.6,121z"/>
		<path class="st1" d="M92,159.9c0.4,0.1,0.8,0.2,1.2,0.3c-0.1,0.1-0.2,0.3-0.3,0.4C92.6,160.4,92.3,160.2,92,159.9z"/>
		<path class="st1" d="M98.2,152.4c0.2-0.3,0.4-0.5,0.7-0.8c0.3,0.2,0.6,0.5,0.9,0.7c-0.2,0.3-0.4,0.5-0.7,0.8
			C98.8,152.9,98.5,152.6,98.2,152.4z"/>
		<path class="st1" d="M111.6,136.1c0.4,0.1,0.8,0.2,1.2,0.3c-0.1,0.1-0.2,0.3-0.3,0.4C112.1,136.6,111.8,136.3,111.6,136.1z"/>
		<path class="st1" d="M117.8,128.5c1.5-0.9,0.3-0.6,1.9-0.5c-0.3,0.4-0.7,0.8-1,1.2C118.3,129,118,128.8,117.8,128.5z"/>
		<path class="st1" d="M124.3,120.6c1.5-0.9,0.3-0.6,1.9-0.5c-0.3,0.4-0.7,0.8-1,1.2C124.9,121.1,124.6,120.8,124.3,120.6z"/>
		<path class="st1" d="M93.1,167.5c0.4,0.1,0.8,0.2,1.2,0.3c-0.1,0.1-0.2,0.3-0.3,0.4C93.7,168,93.4,167.7,93.1,167.5z"/>
		<path class="st1" d="M99.3,160c0.2-0.3,0.4-0.5,0.7-0.8c0.3,0.2,0.6,0.5,0.9,0.7c-0.2,0.3-0.4,0.5-0.7,0.8
			C99.9,160.4,99.6,160.2,99.3,160z"/>
		<path class="st1" d="M105.8,152c0.5-0.3,0.9-0.6,1.4-0.8c-0.1,0.1-0.2,0.3-0.3,0.4c-0.1,0.4-0.1,0.8-0.2,1.2
			C106.4,152.5,106.1,152.3,105.8,152z"/>
		<path class="st1" d="M112.7,143.7c0.4,0.1,0.8,0.2,1.2,0.3c-0.1,0.1-0.2,0.3-0.3,0.4C113.3,144.1,113,143.9,112.7,143.7z"/>
		<path class="st1" d="M118.9,136.1c0.2-0.3,0.4-0.5,0.7-0.8C119.6,136.4,119.9,135.7,118.9,136.1z"/>
		<path class="st1" d="M125.4,128.2c0.2-0.3,0.4-0.5,0.7-0.8C126.2,128.4,126.4,127.8,125.4,128.2z"/>
		<path class="st1" d="M131.9,120.2c0.2-0.3,0.4-0.5,0.7-0.8C132.7,120.5,132.9,119.9,131.9,120.2z"/>
		<path class="st1" d="M100.8,167.1c0.4,0.1,0.8,0.2,1.2,0.3c-0.1,0.1-0.2,0.3-0.3,0.4C101.3,167.6,101,167.4,100.8,167.1z"/>
		<path class="st1" d="M107.3,159.2c0.2-0.3,0.4-0.5,0.7-0.8c0,0.3,0.1,0.5,0.1,0.8c0.1,0.1,0.3,0.2,0.4,0.4
			C108.1,159.4,107.7,159.3,107.3,159.2z"/>
		<path class="st1" d="M113.5,151.6c0.2-0.3,0.4-0.5,0.7-0.8C114.2,151.9,114.5,151.3,113.5,151.6z"/>
		<path class="st1" d="M120,143.7c0.2-0.3,0.4-0.5,0.7-0.8C120.8,144,121,143.3,120,143.7z"/>
		<path class="st1" d="M126.5,135.7c0.2-0.3,0.4-0.5,0.7-0.8c0.3,0.2,0.6,0.5,0.9,0.7c-0.2,0.3-0.4,0.5-0.7,0.8
			C127.1,136.2,126.8,136,126.5,135.7z"/>
		<path class="st1" d="M133,127.8c0.5-0.3,0.9-0.6,1.4-0.8c-0.1,0.1-0.2,0.3-0.3,0.4c-0.1,0.4-0.1,0.8-0.2,1.2
			C133.6,128.3,133.3,128,133,127.8z"/>
		<path class="st1" d="M139.6,119.9c1.5-0.9,0.3-0.6,1.9-0.5C140.3,119.9,140.7,119.8,139.6,119.9z"/>
		<path class="st1" d="M95,183.1c0.2-0.3,0.4-0.5,0.7-0.8c0.3,0.2,0.6,0.5,0.9,0.7c-0.2,0.3-0.4,0.5-0.7,0.8
			C95.6,183.5,95.3,183.3,95,183.1z"/>
		<path class="st1" d="M101.6,175.1c0.2-0.3,0.4-0.5,0.7-0.8C102.3,175.4,102.5,174.7,101.6,175.1z"/>
		<path class="st1" d="M108.4,166.8c0.4,0.1,0.8,0.2,1.2,0.3c-0.1,0.1-0.2,0.3-0.3,0.4C109,167.2,108.7,167,108.4,166.8z"/>
		<path class="st1" d="M114.6,159.2c0.2-0.3,0.4-0.5,0.7-0.8c0.3,0.2,0.6,0.5,0.9,0.7c-0.2,0.3-0.4,0.5-0.7,0.8
			C115.2,159.7,114.9,159.5,114.6,159.2z"/>
		<path class="st1" d="M121.1,151.3c0.2-0.3,0.4-0.5,0.7-0.8C121.9,151.5,122.1,150.9,121.1,151.3z"/>
		<path class="st1" d="M128,142.9c0.4,0.1,0.8,0.2,1.2,0.3c-0.1,0.1-0.2,0.3-0.3,0.4C128.6,143.4,128.3,143.2,128,142.9z"/>
		<path class="st1" d="M134.2,135.4c0.2-0.3,0.4-0.5,0.7-0.8C134.9,135.7,135.2,135,134.2,135.4z"/>
		<path class="st1" d="M147.2,119.5c0.5-0.3,0.9-0.6,1.4-0.8c-0.1,0.1-0.2,0.3-0.3,0.4c-0.1,0.4-0.1,0.8-0.2,1.2
			C147.8,120,147.5,119.7,147.2,119.5z"/>
		<path class="st1" d="M103,182.3c0.4,0.1,0.8,0.2,1.2,0.3c-0.1,0.1-0.2,0.3-0.3,0.4C103.6,182.8,103.3,182.5,103,182.3z"/>
		<path class="st1" d="M109.5,174.3c0.4,0.1,0.8,0.2,1.2,0.3c-0.1,0.1-0.2,0.3-0.3,0.4C110.1,174.8,109.8,174.6,109.5,174.3z"/>
		<path class="st1" d="M115.7,166.8c0.2-0.3,0.4-0.5,0.7-0.8C116.5,167.1,116.7,166.4,115.7,166.8z"/>
		<path class="st1" d="M122.3,158.8c0.2-0.3,0.4-0.5,0.7-0.8c0.3,0.2,0.6,0.5,0.9,0.7c-0.2,0.3-0.4,0.5-0.7,0.8
			C122.8,159.3,122.5,159.1,122.3,158.8z"/>
		<path class="st1" d="M128.8,150.9c0.2-0.3,0.4-0.5,0.7-0.8c0.3,0.2,0.6,0.5,0.9,0.7c-0.2,0.3-0.4,0.5-0.7,0.8
			C129.4,151.4,129.1,151.1,128.8,150.9z"/>
		<path class="st1" d="M135.3,142.9c0.5-0.3,0.9-0.6,1.4-0.8c-0.1,0.1-0.2,0.3-0.3,0.4c-0.1,0.4-0.1,0.8-0.2,1.2
			C135.9,143.4,135.6,143.2,135.3,142.9z"/>
		<path class="st1" d="M142.1,134.6c0.4,0.1,0.8,0.2,1.2,0.3c-0.1,0.1-0.2,0.3-0.3,0.4C142.7,135.1,142.4,134.8,142.1,134.6z"/>
		<path class="st1" d="M148.7,126.7c0.4,0.1,0.8,0.2,1.2,0.3c-0.1,0.1-0.2,0.3-0.3,0.4C149.3,127.1,149,126.9,148.7,126.7z"/>
		<path class="st1" d="M154.9,119.1c0.5-0.3,0.9-0.6,1.4-0.8C156.3,119,155.8,120,154.9,119.1z"/>
		<path class="st1" d="M104.1,189.9c0.4,0.1,0.8,0.2,1.2,0.3c-0.1,0.1-0.2,0.3-0.3,0.4C104.7,190.3,104.4,190.1,104.1,189.9z"/>
		<path class="st1" d="M110.7,181.9c0.4,0.1,0.8,0.2,1.2,0.3c-0.1,0.1-0.2,0.3-0.3,0.4C111.2,182.4,110.9,182.1,110.7,181.9z"/>
		<path class="st1" d="M117.2,174c0.4,0.1,0.8,0.2,1.2,0.3c-0.1,0.1-0.2,0.3-0.3,0.4C117.8,174.4,117.5,174.2,117.2,174z"/>
		<path class="st1" d="M123.7,166c0.4,0.1,0.8,0.2,1.2,0.3c-0.1,0.1-0.2,0.3-0.3,0.4C124.3,166.5,124,166.3,123.7,166z"/>
		<path class="st1" d="M130.2,158.1c0.4,0.1,0.8,0.2,1.2,0.3c-0.1,0.1-0.2,0.3-0.3,0.4C130.8,158.6,130.5,158.3,130.2,158.1z"/>
		<path class="st1" d="M136.4,150.5c0.2-0.3,0.4-0.5,0.7-0.8c0.3,0.2,0.6,0.5,0.9,0.7c-0.2,0.3-0.4,0.5-0.7,0.8
			C137,151,136.7,150.8,136.4,150.5z"/>
		<path class="st1" d="M142.9,142.6c1.5-0.9,0.3-0.6,1.9-0.5c-0.3,0.4-0.7,0.8-1,1.2C143.5,143.1,143.2,142.8,142.9,142.6z"/>
		<path class="st1" d="M149.5,134.6c0.2-0.3,0.4-0.5,0.7-0.8c0.3,0.2,0.6,0.5,0.9,0.7c-0.2,0.3-0.4,0.5-0.7,0.8
			C150.1,135.1,149.8,134.9,149.5,134.6z"/>
		<path class="st1" d="M156,126.7c0.2-0.3,0.4-0.5,0.7-0.8C156.8,127,157,126.3,156,126.7z"/>
		<path class="st1" d="M162.5,118.7c0.2-0.3,0.4-0.5,0.7-0.8c0.3,0.2,0.6,0.5,0.9,0.7c-0.2,0.3-0.4,0.5-0.7,0.8
			C163.1,119.2,162.8,119,162.5,118.7z"/>
		<path class="st1" d="M105.3,197.4c0.4,0.1,0.8,0.2,1.2,0.3c-0.1,0.1-0.2,0.3-0.3,0.4C105.8,197.9,105.5,197.7,105.3,197.4z"/>
		<path class="st1" d="M118,181.9c0.5-0.3,0.9-0.6,1.4-0.8c-0.1,0.1-0.2,0.3-0.3,0.4c-0.1,0.4-0.1,0.8-0.2,1.2
			C118.6,182.4,118.3,182.2,118,181.9z"/>
		<path class="st1" d="M124.8,173.6c0.4,0.1,0.8,0.2,1.2,0.3c-0.1,0.1-0.2,0.3-0.3,0.4C125.4,174.1,125.1,173.8,124.8,173.6z"/>
		<path class="st1" d="M131,166c0.2-0.3,0.4-0.5,0.7-0.8C131.8,166.3,132,165.7,131,166z"/>
		<path class="st1" d="M137.5,158.1c0.2-0.3,0.4-0.5,0.7-0.8c0.3,0.2,0.6,0.5,0.9,0.7c-0.2,0.3-0.4,0.5-0.7,0.8
			C138.1,158.6,137.8,158.3,137.5,158.1z"/>
		<path class="st1" d="M144.1,150.1c0.2-0.3,0.4-0.5,0.7-0.8C144.8,150.4,145.1,149.8,144.1,150.1z"/>
		<path class="st1" d="M150.9,141.8c0.4,0.1,0.8,0.2,1.2,0.3c-0.1,0.1-0.2,0.3-0.3,0.4C151.5,142.3,151.2,142,150.9,141.8z"/>
		<path class="st1" d="M157.1,134.3c0.2-0.3,0.4-0.5,0.7-0.8c0.3,0.2,0.6,0.5,0.9,0.7c-0.2,0.3-0.4,0.5-0.7,0.8
			C157.7,134.7,157.4,134.5,157.1,134.3z"/>
		<path class="st1" d="M163.6,126.3c1.5-0.9,0.3-0.6,1.9-0.5c0,0.3,0.1,0.5,0.1,0.8c-0.3,0-0.5,0-0.8,0
			C164.4,126.5,164,126.4,163.6,126.3z"/>
		<path class="st1" d="M170.2,118.4c0.2-0.3,0.4-0.5,0.7-0.8c0.3,0.2,0.6,0.5,0.9,0.7c-0.2,0.3-0.4,0.5-0.7,0.8
			C170.7,118.8,170.5,118.6,170.2,118.4z"/>
		<path class="st1" d="M164.7,133.1c1.1-0.1,0.7-0.1,2,0.3c-0.3,0.4-0.7,0.8-1,1.2C165.3,134.1,165,133.6,164.7,133.1z"/>
		<path class="st1" d="M99.5,213.3c0.2-0.3,0.4-0.5,0.7-0.8C100.3,213.6,100.5,213,99.5,213.3z"/>
		<path class="st1" d="M112.6,197.5c0.2-0.3,0.4-0.5,0.7-0.8C113.3,197.7,113.6,197.1,112.6,197.5z"/>
		<path class="st1" d="M119.4,189.1c0.4,0.1,0.8,0.2,1.2,0.3c-0.1,0.1-0.2,0.3-0.3,0.4C120,189.6,119.7,189.4,119.4,189.1z"/>
		<path class="st1" d="M126,181.2c0.4,0.1,0.8,0.2,1.2,0.3c-0.1,0.1-0.2,0.3-0.3,0.4C126.5,181.6,126.2,181.4,126,181.2z"/>
		<path class="st1" d="M139,165.3c0.4,0.1,0.8,0.2,1.2,0.3c-0.1,0.1-0.2,0.3-0.3,0.4C139.6,165.8,139.3,165.5,139,165.3z"/>
		<path class="st1" d="M145.2,157.7c0.5-0.3,0.9-0.6,1.4-0.8c-0.1,0.1-0.2,0.3-0.3,0.4c-0.1,0.4-0.1,0.8-0.2,1.2
			C145.8,158.2,145.5,158,145.2,157.7z"/>
		<path class="st1" d="M151.7,149.8c0.5-0.3,0.9-0.6,1.4-0.8C153.1,149.6,152.7,150.7,151.7,149.8z"/>
		<path class="st1" d="M158.2,141.8c0.2-0.3,0.4-0.5,0.7-0.8c0.3,0.2,0.6,0.5,0.9,0.7c-0.2,0.3-0.4,0.5-0.7,0.8
			C158.8,142.3,158.5,142.1,158.2,141.8z"/>
		<path class="st1" d="M171.3,125.9c0.2-0.3,0.4-0.5,0.7-0.8C172,126.2,172.3,125.6,171.3,125.9z"/>
		<path class="st1" d="M177.8,118c0.5-0.3,0.9-0.6,1.4-0.8c-0.1,0.1-0.2,0.3-0.3,0.4c-0.1,0.4-0.1,0.8-0.2,1.2
			C178.4,118.5,178.1,118.2,177.8,118z"/>
		<path class="st1" d="M113.7,205c0.2-0.3,0.4-0.5,0.7-0.8C114.5,205.3,114.7,204.7,113.7,205z"/>
		<path class="st1" d="M127.1,188.7c0.4,0.1,0.8,0.2,1.2,0.3c-0.1,0.1-0.2,0.3-0.3,0.4C127.7,189.2,127.4,189,127.1,188.7z"/>
		<path class="st1" d="M146.6,164.9c0.4,0.1,0.8,0.2,1.2,0.3c-0.1,0.1-0.2,0.3-0.3,0.4C147.2,165.4,146.9,165.1,146.6,164.9z"/>
		<path class="st1" d="M165.9,141.5c1.5-0.9,0.3-0.6,1.9-0.5c-0.3,0.4-0.7,0.8-1,1.2C166.5,141.9,166.2,141.7,165.9,141.5z"/>
		<path class="st1" d="M172.4,133.5c0.2-0.3,0.4-0.5,0.7-0.8c0.3,0.2,0.6,0.5,0.9,0.7c-0.2,0.3-0.4,0.5-0.7,0.8
			C173,134,172.7,133.8,172.4,133.5z"/>
		<path class="st1" d="M178.9,125.6c0.2-0.3,0.4-0.5,0.7-0.8c0.3,0.2,0.6,0.5,0.9,0.7c-0.2,0.3-0.4,0.5-0.7,0.8
			C179.5,126,179.2,125.8,178.9,125.6z"/>
		<path class="st1" d="M185.5,117.6c0.2-0.3,0.4-0.5,0.7-0.8c0.3,0.2,0.6,0.5,0.9,0.7c-0.2,0.3-0.4,0.5-0.7,0.8
			C186,118.1,185.8,117.9,185.5,117.6z"/>
		<path class="st1" d="M115.2,212.2c0.4,0.1,0.8,0.2,1.2,0.3c-0.1,0.1-0.2,0.3-0.3,0.4C115.7,212.7,115.4,212.4,115.2,212.2z"/>
		<path class="st1" d="M121.7,204.3c0.4,0.1,0.8,0.2,1.2,0.3c-0.1,0.1-0.2,0.3-0.3,0.4C122.3,204.7,122,204.5,121.7,204.3z"/>
		<path class="st1" d="M128.2,196.3c0.4,0.1,0.8,0.2,1.2,0.3c-0.1,0.1-0.2,0.3-0.3,0.4C128.8,196.8,128.5,196.6,128.2,196.3z"/>
		<path class="st1" d="M140.9,180.8c0.2-0.3,0.4-0.5,0.7-0.8C141.7,181.1,141.9,180.4,140.9,180.8z"/>
		<path class="st1" d="M147.8,172.5c0.4,0.1,0.8,0.2,1.2,0.3c-0.1,0.1-0.2,0.3-0.3,0.4C148.4,173,148.1,172.7,147.8,172.5z"/>
		<path class="st1" d="M154,164.9c0.2-0.3,0.4-0.5,0.7-0.8c0.3,0.2,0.6,0.5,0.9,0.7c-0.2,0.3-0.4,0.5-0.7,0.8
			C154.6,165.4,154.3,165.2,154,164.9z"/>
		<path class="st1" d="M160.8,156.6"/>
		<path class="st1" d="M167,149c0.2-0.3,0.4-0.5,0.7-0.8c0.3,0.2,0.6,0.5,0.9,0.7c-0.2,0.3-0.4,0.5-0.7,0.8
			C167.6,149.5,167.3,149.3,167,149z"/>
		<path class="st1" d="M173.9,140.7c0.4,0.1,0.8,0.2,1.2,0.3c-0.1,0.1-0.2,0.3-0.3,0.4C174.4,141.2,174.2,140.9,173.9,140.7z"/>
		<path class="st1" d="M180.1,133.1c0.2-0.3,0.4-0.5,0.7-0.8c0.3,0.2,0.6,0.5,0.9,0.7c-0.2,0.3-0.4,0.5-0.7,0.8
			C180.6,133.6,180.4,133.4,180.1,133.1z"/>
		<path class="st1" d="M186.6,125.2c0.5-0.3,0.9-0.6,1.4-0.8c-0.1,0.1-0.2,0.3-0.3,0.4c-0.1,0.4-0.1,0.8-0.2,1.2
			C187.2,125.7,186.9,125.4,186.6,125.2z"/>
		<path class="st1" d="M193.4,116.8c0.4,0.1,0.8,0.2,1.2,0.3c-0.1,0.1-0.2,0.3-0.3,0.4C194,117.3,193.7,117.1,193.4,116.8z"/>
		<path class="st1" d="M122.8,211.8c0.4,0.1,0.8,0.2,1.2,0.3c-0.1,0.1-0.2,0.3-0.3,0.4C123.4,212.3,123.1,212.1,122.8,211.8z"/>
		<path class="st1" d="M135.8,195.9c0.4,0.1,0.8,0.2,1.2,0.3c-0.1,0.1-0.2,0.3-0.3,0.4C136.4,196.4,136.1,196.2,135.8,195.9z"/>
		<path class="st1" d="M142.4,188c0.4,0.1,0.8,0.2,1.2,0.3c-0.1,0.1-0.2,0.3-0.3,0.4C143,188.5,142.7,188.2,142.4,188z"/>
		<path class="st1" d="M181.2,140.7c0.2-0.3,0.4-0.5,0.7-0.8c0.3,0.2,0.6,0.5,0.9,0.7c-0.2,0.3-0.4,0.5-0.7,0.8
			C181.8,141.2,181.5,141,181.2,140.7z"/>
		<path class="st1" d="M194.2,124.8c0.2-0.3,0.4-0.5,0.7-0.8C195,125.1,195.2,124.4,194.2,124.8z"/>
		<path class="st1" d="M200.8,116.9c0.5-0.3,0.9-0.6,1.4-0.8C202.2,116.7,201.7,117.8,200.8,116.9z"/>
		<path class="st1" d="M136.6,203.9c0.2-0.3,0.4-0.5,0.7-0.8C137.4,204.2,137.6,203.5,136.6,203.9z"/>
		<path class="st1" d="M156.5,179.7c0.4,0.1,0.8,0.2,1.2,0.3c-0.1,0.1-0.2,0.3-0.3,0.4C157.1,180.2,156.8,179.9,156.5,179.7z"/>
		<path class="st1" d="M182.3,148.3c0.5-0.3,0.9-0.6,1.4-0.8c-0.1,0.1-0.2,0.3-0.3,0.4c-0.1,0.4-0.1,0.8-0.2,1.2
			C182.9,148.8,182.6,148.5,182.3,148.3z"/>
		<path class="st1" d="M189.2,139.9c0.4,0.1,0.8,0.2,1.2,0.3C189.6,140.8,188.8,140.8,189.2,139.9z"/>
		<path class="st1" d="M201.9,124.4c0.5-0.3,0.9-0.6,1.4-0.8C203.3,124.3,202.8,125.3,201.9,124.4z"/>
		<path class="st1" d="M208.7,116.1c0.4,0.1,0.8,0.2,1.2,0.3c-0.1,0.1-0.2,0.3-0.3,0.4C209.3,116.6,209,116.3,208.7,116.1z"/>
		<path class="st1" d="M138.1,211.1c0.4,0.1,0.8,0.2,1.2,0.3c-0.1,0.1-0.2,0.3-0.3,0.4C138.7,211.6,138.4,211.3,138.1,211.1z"/>
		<path class="st1" d="M144.6,203.1c0.4,0.1,0.8,0.2,1.2,0.3c-0.1,0.1-0.2,0.3-0.3,0.4C145.2,203.6,144.9,203.4,144.6,203.1z"/>
		<path class="st1" d="M151.1,195.2c0.4,0.1,0.8,0.2,1.2,0.3c-0.1,0.1-0.2,0.3-0.3,0.4C151.7,195.7,151.4,195.4,151.1,195.2z"/>
		<path class="st1" d="M190,147.9c1.5-0.9,0.3-0.6,1.9-0.5c-0.3,0.4-0.7,0.8-1,1.2C190.5,148.4,190.2,148.2,190,147.9z"/>
		<path class="st1" d="M196.5,140c1.5-0.9,0.3-0.6,1.9-0.5c-0.3,0.4-0.7,0.8-1,1.2C197.1,140.4,196.8,140.2,196.5,140z"/>
		<path class="st1" d="M203.3,131.6c0.2-0.3,0.4-0.5,0.7-0.8c0,0.3,0.1,0.5,0.1,0.8c0.1,0.1,0.3,0.2,0.4,0.4
			C204.1,131.8,203.7,131.7,203.3,131.6z"/>
		<path class="st1" d="M209.5,124.1c1.5-0.9,0.3-0.6,1.9-0.5c-0.3,0.4-0.7,0.8-1,1.2C210.1,124.6,209.8,124.3,209.5,124.1z"/>
		<path class="st1" d="M216,116.1c0.2-0.3,0.4-0.5,0.7-0.8C216.8,116.4,217,115.8,216,116.1z"/>
		<path class="st1" d="M133.6,227.3c-0.3-0.2-0.6-0.5-0.9-0.7c0.4,0.1,0.8,0.2,1.2,0.3C133.8,227.1,133.7,227.2,133.6,227.3"/>
		<path class="st1" d="M145.7,210.7c0.4,0.1,0.8,0.2,1.2,0.3c-0.1,0.1-0.2,0.3-0.3,0.4C146.3,211.2,146,211,145.7,210.7z"/>
		<path class="st1" d="M151.9,203.2c0.5-0.3,0.9-0.6,1.4-0.8C153.4,203,152.9,204.1,151.9,203.2z"/>
		<path class="st1" d="M158.8,194.8c0.4,0.1,0.8,0.2,1.2,0.3c-0.1,0.1-0.2,0.3-0.3,0.4C159.4,195.3,159.1,195.1,158.8,194.8z"/>
		<path class="st1" d="M197.6,147.5c1.5-0.9,0.3-0.6,1.9-0.5c-0.3,0.4-0.7,0.8-1,1.2C198.2,148,197.9,147.8,197.6,147.5z"/>
		<path class="st1" d="M204.1,139.6c0.5-0.3,0.9-0.6,1.4-0.8c-0.1,0.1-0.2,0.3-0.3,0.4c-0.1,0.4-0.1,0.8-0.2,1.2
			C204.7,140.1,204.4,139.8,204.1,139.6z"/>
		<path class="st1" d="M210.7,131.6c0.2-0.3,0.4-0.5,0.7-0.8C211.4,131.9,211.6,131.3,210.7,131.6z"/>
		<path class="st1" d="M217.2,123.7c0.2-0.3,0.4-0.5,0.7-0.8c0.3,0.2,0.6,0.5,0.9,0.7c-0.2,0.3-0.4,0.5-0.7,0.8
			C217.8,124.2,217.5,123.9,217.2,123.7z"/>
		<path class="st1" d="M223.7,115.8c0.5-0.3,0.9-0.6,1.4-0.8c-0.1,0.1-0.2,0.3-0.3,0.4c-0.1,0.4-0.1,0.8-0.2,1.2
			C224.3,116.2,224,116,223.7,115.8z"/>
		<path class="st1" d="M140.3,226.2c0.4,0.1,0.8,0.2,1.2,0.3c-0.1,0.1-0.2,0.3-0.3,0.4C140.9,226.7,140.6,226.5,140.3,226.2z"/>
		<path class="st1" d="M146.9,218.3c0.4,0.1,0.8,0.2,1.2,0.3c-0.1,0.1-0.2,0.3-0.3,0.4C147.5,218.8,147.2,218.5,146.9,218.3z"/>
		<path class="st1" d="M153.4,210.3c0.4,0.1,0.8,0.2,1.2,0.3c-0.1,0.1-0.2,0.3-0.3,0.4C154,210.8,153.7,210.6,153.4,210.3z"/>
		<path class="st1" d="M159.9,202.4c0.4,0.1,0.8,0.2,1.2,0.3c-0.1,0.1-0.2,0.3-0.3,0.4C160.5,202.9,160.2,202.6,159.9,202.4z"/>
		<path class="st1" d="M166.4,194.5c0.4,0.1,0.8,0.2,1.2,0.3c-0.1,0.1-0.2,0.3-0.3,0.4C167,194.9,166.7,194.7,166.4,194.5z"/>
		<path class="st1" d="M200.1,154.3"/>
		<path class="st1" d="M205.6,146.8c0.4,0.1,0.8,0.2,1.2,0.3c-0.1,0.1-0.2,0.3-0.3,0.4C206.2,147.3,205.9,147,205.6,146.8z"/>
		<path class="st1" d="M212.1,138.8c0.4,0.1,0.8,0.2,1.2,0.3c-0.1,0.1-0.2,0.3-0.3,0.4C212.7,139.3,212.4,139.1,212.1,138.8z"/>
		<path class="st1" d="M218.3,131.3c0.2-0.3,0.4-0.5,0.7-0.8c0.3,0.2,0.6,0.5,0.9,0.7c-0.2,0.3-0.4,0.5-0.7,0.8
			C218.9,131.8,218.6,131.5,218.3,131.3z"/>
		<path class="st1" d="M224.8,123.3c0.2-0.3,0.4-0.5,0.7-0.8c0.3,0.2,0.6,0.5,0.9,0.7c-0.2,0.3-0.4,0.5-0.7,0.8
			C225.4,123.8,225.1,123.6,224.8,123.3z"/>
		<path class="st1" d="M231.7,115c0.4,0.1,0.8,0.2,1.2,0.3c-0.1,0.1-0.2,0.3-0.3,0.4C232.3,115.5,232,115.2,231.7,115z"/>
		<path class="st1" d="M148,225.9c0.4,0.1,0.8,0.2,1.2,0.3c-0.1,0.1-0.2,0.3-0.3,0.4C148.6,226.3,148.3,226.1,148,225.9z"/>
		<path class="st1" d="M154.2,218.3c0.2-0.3,0.4-0.5,0.7-0.8C155,218.6,155.2,217.9,154.2,218.3z"/>
		<path class="st1" d="M161,210c0.4,0.1,0.8,0.2,1.2,0.3c-0.1,0.1-0.2,0.3-0.3,0.4C161.6,210.5,161.3,210.2,161,210z"/>
		<path class="st1" d="M174.1,194.1c0.4,0.1,0.8,0.2,1.2,0.3c-0.1,0.1-0.2,0.3-0.3,0.4C174.7,194.6,174.4,194.3,174.1,194.1z"/>
		<path class="st1" d="M199.9,162.7c1.5-0.9,0.3-0.6,1.9-0.5c0,0.3,0.1,0.5,0.1,0.8c-0.3,0-0.5,0-0.8,0
			C200.7,162.9,200.3,162.8,199.9,162.7z"/>
		<path class="st1" d="M213.2,146.4c0.4,0.1,0.8,0.2,1.2,0.3c-0.1,0.1-0.2,0.3-0.3,0.4C213.8,146.9,213.5,146.6,213.2,146.4z"/>
		<path class="st1" d="M219.4,138.9c0.5-0.3,0.9-0.6,1.4-0.8c-0.1,0.1-0.2,0.3-0.3,0.4c-0.1,0.4-0.1,0.8-0.2,1.2
			C220,139.3,219.7,139.1,219.4,138.9z"/>
		<path class="st1" d="M232.5,123c0.2-0.3,0.4-0.5,0.7-0.8c0.3,0.2,0.6,0.5,0.9,0.7c-0.2,0.3-0.4,0.5-0.7,0.8
			C233.1,123.4,232.8,123.2,232.5,123z"/>
		<path class="st1" d="M239,115c0.2-0.3,0.4-0.5,0.7-0.8c0.3,0.2,0.6,0.5,0.9,0.7c-0.2,0.3-0.4,0.5-0.7,0.8
			C239.6,115.5,239.3,115.3,239,115z"/>
		<path class="st1" d="M155.6,225.5c0.4,0.1,0.8,0.2,1.2,0.3c-0.1,0.1-0.2,0.3-0.3,0.4C156.2,226,155.9,225.7,155.6,225.5z"/>
		<path class="st1" d="M161.8,217.9c0.5-0.3,0.9-0.6,1.4-0.8c-0.1,0.1-0.2,0.3-0.3,0.4c-0.1,0.4-0.1,0.8-0.2,1.2
			C162.4,218.4,162.1,218.2,161.8,217.9z"/>
		<path class="st1" d="M168.4,210c0.2-0.3,0.4-0.5,0.7-0.8C169.1,210.3,169.3,209.6,168.4,210z"/>
		<path class="st1" d="M174.9,202c0.2-0.3,0.4-0.5,0.7-0.8c0.3,0.2,0.6,0.5,0.9,0.7c-0.2,0.3-0.4,0.5-0.7,0.8
			C175.5,202.5,175.2,202.3,174.9,202z"/>
		<path class="st1" d="M181.7,193.7c0.4,0.1,0.8,0.2,1.2,0.3c-0.1,0.1-0.2,0.3-0.3,0.4C182.3,194.2,182,193.9,181.7,193.7z"/>
		<path class="st1" d="M201.3,169.9c0.4,0.1,0.8,0.2,1.2,0.3c-0.1,0.1-0.2,0.3-0.3,0.4C201.9,170.3,201.6,170.1,201.3,169.9z"/>
		<path class="st1" d="M214,154.4c0.2-0.3,0.4-0.5,0.7-0.8C214.8,154.6,215,154,214,154.4z"/>
		<path class="st1" d="M220.5,146.4c0.2-0.3,0.4-0.5,0.7-0.8c0.3,0.2,0.6,0.5,0.9,0.7c-0.2,0.3-0.4,0.5-0.7,0.8
			C221.1,146.9,220.8,146.7,220.5,146.4z"/>
		<path class="st1" d="M227.1,138.5c0.2-0.3,0.4-0.5,0.7-0.8C227.8,138.8,228.1,138.1,227.1,138.5z"/>
		<path class="st1" d="M233.6,130.5c0.2-0.3,0.4-0.5,0.7-0.8c0.3,0.2,0.6,0.5,0.9,0.7c-0.2,0.3-0.4,0.5-0.7,0.8
			C234.2,131,233.9,130.8,233.6,130.5z"/>
		<path class="st1" d="M240.1,122.6c0.5-0.3,0.9-0.6,1.4-0.8C241.5,122.4,241.1,123.5,240.1,122.6z"/>
		<path class="st1" d="M246.6,114.6c0.2-0.3,0.4-0.5,0.7-0.8C247.4,114.9,247.6,114.3,246.6,114.6z"/>
		<path class="st1" d="M169.8,217.2c0.4,0.1,0.8,0.2,1.2,0.3c-0.1,0.1-0.2,0.3-0.3,0.4C170.4,217.7,170.1,217.4,169.8,217.2z"/>
		<path class="st1" d="M176.3,209.2c0.4,0.1,0.8,0.2,1.2,0.3c-0.1,0.1-0.2,0.3-0.3,0.4C176.9,209.7,176.6,209.5,176.3,209.2z"/>
		<path class="st1" d="M182.5,201.7c0.2-0.3,0.4-0.5,0.7-0.8c0.3,0.2,0.6,0.5,0.9,0.7c-0.2,0.3-0.4,0.5-0.7,0.8
			C183.1,202.2,182.8,201.9,182.5,201.7z"/>
		<path class="st1" d="M189.4,193.3c0.4,0.1,0.8,0.2,1.2,0.3c-0.1,0.1-0.2,0.3-0.3,0.4C190,193.8,189.7,193.6,189.4,193.3z"/>
		<path class="st1" d="M202.1,177.8c0.2-0.3,0.4-0.5,0.7-0.8c0.3,0.2,0.6,0.5,0.9,0.7c-0.2,0.3-0.4,0.5-0.7,0.8
			C202.7,178.3,202.4,178.1,202.1,177.8z"/>
		<path class="st1" d="M209,169.5c0.4,0.1,0.8,0.2,1.2,0.3c-0.1,0.1-0.2,0.3-0.3,0.4C209.5,170,209.2,169.7,209,169.5z"/>
		<path class="st1" d="M215.2,161.9c0.2-0.3,0.4-0.5,0.7-0.8C215.9,162.2,216.1,161.6,215.2,161.9z"/>
		<path class="st1" d="M221.7,154c1.5-0.9,0.3-0.6,1.9-0.5c-0.3,0.4-0.7,0.8-1,1.2C222.3,154.5,222,154.2,221.7,154z"/>
		<path class="st1" d="M228.5,145.7c0.4,0.1,0.8,0.2,1.2,0.3c-0.1,0.1-0.2,0.3-0.3,0.4C229.1,146.1,228.8,145.9,228.5,145.7z"/>
		<path class="st1" d="M234.7,138.1c0.2-0.3,0.4-0.5,0.7-0.8c0.3,0.2,0.6,0.5,0.9,0.7c-0.2,0.3-0.4,0.5-0.7,0.8
			C235.3,138.6,235,138.3,234.7,138.1z"/>
		<path class="st1" d="M241.2,130.2c0.5-0.3,0.9-0.6,1.4-0.8C242.7,130,242.2,131.1,241.2,130.2z"/>
		<path class="st1" d="M247.8,122.2c0.5-0.3,0.9-0.6,1.4-0.8c-0.1,0.1-0.2,0.3-0.3,0.4c-0.1,0.4-0.1,0.8-0.2,1.2
			C248.4,122.7,248.1,122.5,247.8,122.2z"/>
		<path class="st1" d="M254.9,113.5c0.3,0.2,0.6,0.5,0.9,0.7c-0.2,0.3-0.4,0.5-0.7,0.8c-0.3-0.2-0.6-0.5-0.9-0.7
			C254.5,114,254.7,113.7,254.9,113.5"/>
		<path class="st1" d="M255.3,121.1c1.7,0.3,1.1-0.2,1,1.5C256,122.1,255.6,121.6,255.3,121.1z"/>
		<path class="st1" d="M170.9,224.7c0.4,0.1,0.8,0.2,1.2,0.3c-0.1,0.1-0.2,0.3-0.3,0.4C171.5,225.2,171.2,225,170.9,224.7z"/>
		<path class="st1" d="M183.7,209.3c0.2-0.3,0.4-0.5,0.7-0.8c0.3,0.2,0.6,0.5,0.9,0.7c-0.2,0.3-0.4,0.5-0.7,0.8
			C184.2,209.7,184,209.5,183.7,209.3z"/>
		<path class="st1" d="M190.5,200.9c0.4,0.1,0.8,0.2,1.2,0.3c-0.1,0.1-0.2,0.3-0.3,0.4C191.1,201.4,190.8,201.1,190.5,200.9z"/>
		<path class="st1" d="M196.7,193.4c0.5-0.3,0.9-0.6,1.4-0.8c-0.1,0.1-0.2,0.3-0.3,0.4c-0.1,0.4-0.1,0.8-0.2,1.2
			C197.3,193.8,197,193.6,196.7,193.4z"/>
		<path class="st1" d="M203.2,185.4c0.2-0.3,0.4-0.5,0.7-0.8c0.3,0.2,0.6,0.5,0.9,0.7c-0.2,0.3-0.4,0.5-0.7,0.8
			C203.8,185.9,203.5,185.7,203.2,185.4z"/>
		<path class="st1" d="M210.1,177.1c0.4,0.1,0.8,0.2,1.2,0.3c-0.1,0.1-0.2,0.3-0.3,0.4C210.7,177.5,210.4,177.3,210.1,177.1z"/>
		<path class="st1" d="M229.3,153.6c0.5-0.3,0.9-0.6,1.4-0.8C230.7,153.5,230.3,154.5,229.3,153.6z"/>
		<path class="st1" d="M235.8,145.7c0.2-0.3,0.4-0.5,0.7-0.8c0.3,0.2,0.6,0.5,0.9,0.7c-0.2,0.3-0.4,0.5-0.7,0.8
			C236.4,146.2,236.1,145.9,235.8,145.7z"/>
		<path class="st1" d="M242.4,137.7c0.5-0.3,0.9-0.6,1.4-0.8c-0.1,0.1-0.2,0.3-0.3,0.4c-0.1,0.4-0.1,0.8-0.2,1.2
			C243,138.2,242.7,138,242.4,137.7z"/>
		<path class="st1" d="M248.9,129.8c0.2-0.3,0.4-0.5,0.7-0.8c0.3,0.2,0.6,0.5,0.9,0.7c-0.2,0.3-0.4,0.5-0.7,0.8
			C249.5,130.3,249.2,130,248.9,129.8z"/>
		<path class="st1" d="M178.6,224.4c0.4,0.1,0.8,0.2,1.2,0.3c-0.1,0.1-0.2,0.3-0.3,0.4C179.2,224.9,178.9,224.6,178.6,224.4z"/>
		<path class="st1" d="M198.2,200.5c0.4,0.1,0.8,0.2,1.2,0.3c-0.1,0.1-0.2,0.3-0.3,0.4C198.7,201,198.5,200.8,198.2,200.5z"/>
		<path class="st1" d="M204.4,193c0.2-0.3,0.4-0.5,0.7-0.8c0.3,0.2,0.6,0.5,0.9,0.7c-0.2,0.3-0.4,0.5-0.7,0.8
			C204.9,193.5,204.6,193.2,204.4,193z"/>
		<path class="st1" d="M210.9,185c0.2-0.3,0.4-0.5,0.7-0.8c0.3,0.2,0.6,0.5,0.9,0.7c-0.2,0.3-0.4,0.5-0.7,0.8
			C211.5,185.5,211.2,185.3,210.9,185z"/>
		<path class="st1" d="M230.4,161.2c0.5-0.3,0.9-0.6,1.4-0.8c-0.1,0.1-0.2,0.3-0.3,0.4c-0.1,0.4-0.1,0.8-0.2,1.2
			C231,161.7,230.7,161.4,230.4,161.2z"/>
		<path class="st1" d="M237.3,152.9c0.4,0.1,0.8,0.2,1.2,0.3c-0.1,0.1-0.2,0.3-0.3,0.4C237.9,153.3,237.6,153.1,237.3,152.9z"/>
		<path class="st1" d="M243.5,145.3c0.5-0.3,0.9-0.6,1.4-0.8c-0.1,0.1-0.2,0.3-0.3,0.4c-0.1,0.4-0.1,0.8-0.2,1.2
			C244.1,145.8,243.8,145.5,243.5,145.3z"/>
		<path class="st1" d="M250,137.4c0.2-0.3,0.4-0.5,0.7-0.8c0.3,0.2,0.6,0.5,0.9,0.7c-0.2,0.3-0.4,0.5-0.7,0.8
			C250.6,137.8,250.3,137.6,250,137.4z"/>
		<path class="st1" d="M256.9,129c0.4,0.1,0.8,0.2,1.2,0.3c-0.1,0.1-0.2,0.3-0.3,0.4C257.5,129.5,257.2,129.3,256.9,129z"/>
		<path class="st1" d="M263.1,121.5c0.5-0.3,0.9-0.6,1.4-0.8c-0.1,0.1-0.2,0.3-0.3,0.4c-0.1,0.4-0.1,0.8-0.2,1.2
			C263.6,121.9,263.4,121.7,263.1,121.5z"/>
		<path class="st1" d="M186.2,224c0.4,0.1,0.8,0.2,1.2,0.3c-0.1,0.1-0.2,0.3-0.3,0.4C186.8,224.5,186.5,224.2,186.2,224z"/>
		<path class="st1" d="M192.4,216.5c0.5-0.3,0.9-0.6,1.4-0.8c-0.1,0.1-0.2,0.3-0.3,0.4c-0.1,0.4-0.1,0.8-0.2,1.2
			C193,216.9,192.7,216.7,192.4,216.5z"/>
		<path class="st1" d="M199.3,208.1c0.4,0.1,0.8,0.2,1.2,0.3c-0.1,0.1-0.2,0.3-0.3,0.4C199.9,208.6,199.6,208.3,199.3,208.1z"/>
		<path class="st1" d="M205.5,200.6c0.5-0.3,0.9-0.6,1.4-0.8c-0.1,0.1-0.2,0.3-0.3,0.4c-0.1,0.4-0.1,0.8-0.2,1.2
			C206.1,201,205.8,200.8,205.5,200.6z"/>
		<path class="st1" d="M212,192.6c0.2-0.3,0.4-0.5,0.7-0.8c0.3,0.2,0.6,0.5,0.9,0.7c-0.2,0.3-0.4,0.5-0.7,0.8
			C212.6,193.1,212.3,192.9,212,192.6z"/>
		<path class="st1" d="M218.5,184.7c0.2-0.3,0.4-0.5,0.7-0.8c0.3,0.2,0.6,0.5,0.9,0.7c-0.2,0.3-0.4,0.5-0.7,0.8
			C219.1,185.1,218.8,184.9,218.5,184.7z"/>
		<path class="st1" d="M225,176.7c1.5-0.9,0.3-0.6,1.9-0.5c-0.3,0.4-0.7,0.8-1,1.2C225.6,177.2,225.3,177,225,176.7z"/>
		<path class="st1" d="M231.9,168.4c0.4,0.1,0.8,0.2,1.2,0.3c-0.1,0.1-0.2,0.3-0.3,0.4C232.5,168.9,232.2,168.6,231.9,168.4z"/>
		<path class="st1" d="M238.1,160.8c0.2-0.3,0.4-0.5,0.7-0.8C238.9,161.1,239.1,160.5,238.1,160.8z"/>
		<path class="st1" d="M244.6,152.9c0.5-0.3,0.9-0.6,1.4-0.8C246,152.7,245.6,153.8,244.6,152.9z"/>
		<path class="st1" d="M251.1,144.9c0.5-0.3,0.9-0.6,1.4-0.8c-0.1,0.1-0.2,0.3-0.3,0.4c-0.1,0.4-0.1,0.8-0.2,1.2
			C251.7,145.4,251.4,145.2,251.1,144.9z"/>
		<path class="st1" d="M257.7,137c0.5-0.3,0.9-0.6,1.4-0.8c-0.1,0.1-0.2,0.3-0.3,0.4c-0.1,0.4-0.1,0.8-0.2,1.2
			C258.2,137.5,258,137.2,257.7,137z"/>
		<path class="st1" d="M264.2,129c1.5-0.9,0.3-0.6,1.9-0.5c-0.3,0.4-0.7,0.8-1,1.2C264.8,129.5,264.5,129.3,264.2,129z"/>
		<path class="st1" d="M193.9,223.6c0.4,0.1,0.8,0.2,1.2,0.3c-0.1,0.1-0.2,0.3-0.3,0.4C194.5,224.1,194.2,223.9,193.9,223.6z"/>
		<path class="st1" d="M200.1,216.1c0.2-0.3,0.4-0.5,0.7-0.8C200.8,216.4,201.1,215.7,200.1,216.1z"/>
		<path class="st1" d="M206.6,208.1c0.2-0.3,0.4-0.5,0.7-0.8c0.3,0.2,0.6,0.5,0.9,0.7c-0.2,0.3-0.4,0.5-0.7,0.8
			C207.2,208.6,206.9,208.4,206.6,208.1z"/>
		<path class="st1" d="M213.1,200.2c0.2-0.3,0.4-0.5,0.7-0.8C213.9,200.5,214.1,199.8,213.1,200.2z"/>
		<path class="st1" d="M220,191.8c0.4,0.1,0.8,0.2,1.2,0.3c-0.1,0.1-0.2,0.3-0.3,0.4C220.6,192.3,220.3,192.1,220,191.8z"/>
		<path class="st1" d="M226.2,184.3c0.5-0.3,0.9-0.6,1.4-0.8c-0.1,0.1-0.2,0.3-0.3,0.4c-0.1,0.4-0.1,0.8-0.2,1.2
			C226.8,184.8,226.5,184.5,226.2,184.3z"/>
		<path class="st1" d="M233,176c0.4,0.1,0.8,0.2,1.2,0.3c-0.1,0.1-0.2,0.3-0.3,0.4C233.6,176.4,233.3,176.2,233,176z"/>
		<path class="st1" d="M239.2,168.4c0.2-0.3,0.4-0.5,0.7-0.8C240,168.7,240.2,168,239.2,168.4z"/>
		<path class="st1" d="M245.7,160.5c0.2-0.3,0.4-0.5,0.7-0.8C246.5,160.7,246.7,160.1,245.7,160.5z"/>
		<path class="st1" d="M252.3,152.5c0.5-0.3,0.9-0.6,1.4-0.8C253.7,152.4,253.2,153.4,252.3,152.5z"/>
		<path class="st1" d="M259.1,144.2c0.4,0.1,0.8,0.2,1.2,0.3c-0.1,0.1-0.2,0.3-0.3,0.4C259.7,144.6,259.4,144.4,259.1,144.2z"/>
		<path class="st1" d="M265.3,136.6c0.5-0.3,0.9-0.6,1.4-0.8c-0.1,0.1-0.2,0.3-0.3,0.4c-0.1,0.4-0.1,0.8-0.2,1.2
			C265.9,137.1,265.6,136.9,265.3,136.6z"/>
		<path class="st1" d="M201.2,223.7c0.2-0.3,0.4-0.5,0.7-0.8C202,223.9,202.2,223.3,201.2,223.7z"/>
		<path class="st1" d="M208.1,215.3c0.4,0.1,0.8,0.2,1.2,0.3c-0.1,0.1-0.2,0.3-0.3,0.4C208.6,215.8,208.3,215.6,208.1,215.3z"/>
		<path class="st1" d="M214.3,207.8c0.2-0.3,0.4-0.5,0.7-0.8C215,208,215.2,207.4,214.3,207.8z"/>
		<path class="st1" d="M221.1,199.4c0.4,0.1,0.8,0.2,1.2,0.3c-0.1,0.1-0.2,0.3-0.3,0.4C221.7,199.9,221.4,199.7,221.1,199.4z"/>
		<path class="st1" d="M227.3,191.9c0.5-0.3,0.9-0.6,1.4-0.8c-0.1,0.1-0.2,0.3-0.3,0.4c-0.1,0.4-0.1,0.8-0.2,1.2
			C227.9,192.3,227.6,192.1,227.3,191.9z"/>
		<path class="st1" d="M233.8,183.9c0.5-0.3,0.9-0.6,1.4-0.8c-0.1,0.1-0.2,0.3-0.3,0.4c-0.1,0.4-0.1,0.8-0.2,1.2
			C234.4,184.4,234.1,184.2,233.8,183.9z"/>
		<path class="st1" d="M246.9,168c0.5-0.3,0.9-0.6,1.4-0.8c-0.1,0.1-0.2,0.3-0.3,0.4c-0.1,0.4-0.1,0.8-0.2,1.2
			C247.5,168.5,247.2,168.3,246.9,168z"/>
		<path class="st1" d="M253.4,160.1c1.5-0.9,0.3-0.6,1.9-0.5c-0.3,0.4-0.7,0.8-1,1.2C254,160.6,253.7,160.3,253.4,160.1z"/>
		<path class="st1" d="M259.9,152.1c0.5-0.3,0.9-0.6,1.4-0.8C261.3,152,260.9,153,259.9,152.1z"/>
		<path class="st1" d="M266.4,144.2c1.5-0.9,0.3-0.6,1.9-0.5c-0.3,0.4-0.7,0.8-1,1.2C267,144.7,266.7,144.4,266.4,144.2z"/>
		<path class="st1" d="M234.8,190.7c1.1-0.1,0.7-0.1,2,0.3C235,191.6,236.3,191.6,234.8,190.7z"/>
		<path class="st1" d="M215.4,215.3c0.2-0.3,0.4-0.5,0.7-0.8C216.1,215.6,216.4,215,215.4,215.3z"/>
		<path class="st1" d="M221.9,207.4c0.5-0.3,0.9-0.6,1.4-0.8c-0.1,0.1-0.2,0.3-0.3,0.4c-0.1,0.4-0.1,0.8-0.2,1.2
			C222.5,207.9,222.2,207.6,221.9,207.4z"/>
		<path class="st1" d="M228.7,199c0.4,0.1,0.8,0.2,1.2,0.3c-0.1,0.1-0.2,0.3-0.3,0.4C229.3,199.5,229,199.3,228.7,199z"/>
		<path class="st1" d="M241.8,183.2c0.4,0.1,0.8,0.2,1.2,0.3c-0.1,0.1-0.2,0.3-0.3,0.4C242.4,183.6,242.1,183.4,241.8,183.2z"/>
		<path class="st1" d="M248,175.6c0.2-0.3,0.4-0.5,0.7-0.8C248.8,175.9,249,175.2,248,175.6z"/>
		<path class="st1" d="M254.8,167.3c0.2-0.3,0.4-0.5,0.7-0.8c0,0.3,0.1,0.5,0.1,0.8c0.1,0.1,0.3,0.2,0.4,0.4
			C255.6,167.5,255.2,167.4,254.8,167.3z"/>
		<path class="st1" d="M261,159.7c0.2-0.3,0.4-0.5,0.7-0.8c0.3,0.2,0.6,0.5,0.9,0.7c-0.2,0.3-0.4,0.5-0.7,0.8
			C261.6,160.2,261.3,160,261,159.7z"/>
		<path class="st1" d="M267.6,151.8c0.5-0.3,0.9-0.6,1.4-0.8c-0.1,0.1-0.2,0.3-0.3,0.4c-0.1,0.4-0.1,0.8-0.2,1.2
			C268.1,152.2,267.9,152,267.6,151.8z"/>
		<path class="st1" d="M216.8,222.5c0.4,0.1,0.8,0.2,1.2,0.3c-0.1,0.1-0.2,0.3-0.3,0.4C217.4,223,217.1,222.8,216.8,222.5z"/>
		<path class="st1" d="M229.9,206.6c0.2-0.3,0.4-0.5,0.7-0.8c0,0.3,0.1,0.5,0.1,0.8c0.1,0.1,0.3,0.2,0.4,0.4
			C230.7,206.8,230.3,206.7,229.9,206.6z"/>
		<path class="st1" d="M236.1,199.1c0.2-0.3,0.4-0.5,0.7-0.8c0.3,0.2,0.6,0.5,0.9,0.7c-0.2,0.3-0.4,0.5-0.7,0.8
			C236.7,199.6,236.4,199.3,236.1,199.1z"/>
		<path class="st1" d="M242.6,191.1c0.5-0.3,0.9-0.6,1.4-0.8C244,191,243.6,192,242.6,191.1z"/>
		<path class="st1" d="M249.4,182.8c0.4,0.1,0.8,0.2,1.2,0.3c-0.1,0.1-0.2,0.3-0.3,0.4C250,183.3,249.7,183,249.4,182.8z"/>
		<path class="st1" d="M256,174.8c0.2-0.3,0.4-0.5,0.7-0.8c0,0.3,0.1,0.5,0.1,0.8c0.1,0.1,0.3,0.2,0.4,0.4
			C256.8,175,256.4,174.9,256,174.8z"/>
		<path class="st1" d="M262.2,167.3c0.5-0.3,0.9-0.6,1.4-0.8C263.6,167.1,263.1,168.2,262.2,167.3z"/>
		<path class="st1" d="M268.7,159.3c0.2-0.3,0.4-0.5,0.7-0.8C269.4,159.6,269.7,159,268.7,159.3z"/>
		<path class="st1" d="M250.1,190c0.5,0.2,1.1,0.5,1.6,0.7c-0.2,0.3-0.4,0.5-0.7,0.8C250.8,191,250.5,190.5,250.1,190z"/>
		<path class="st1" d="M224.2,222.5c0.2-0.3,0.4-0.5,0.7-0.8C224.9,222.8,225.1,222.2,224.2,222.5z"/>
		<path class="st1" d="M237.2,206.6c0.2-0.3,0.4-0.5,0.7-0.8C238,206.9,238.2,206.3,237.2,206.6z"/>
		<path class="st1" d="M243.7,198.7c0.5-0.3,0.9-0.6,1.4-0.8c-0.1,0.1-0.2,0.3-0.3,0.4c-0.1,0.4-0.1,0.8-0.2,1.2
			C244.3,199.2,244,198.9,243.7,198.7z"/>
		<path class="st1" d="M256.8,182.8c0.2-0.3,0.4-0.5,0.7-0.8C257.5,183.1,257.7,182.4,256.8,182.8z"/>
		<path class="st1" d="M263.3,174.9c0.2-0.3,0.4-0.5,0.7-0.8C264,175.1,264.3,174.5,263.3,174.9z"/>
		<path class="st1" d="M269.8,166.9c0.2-0.3,0.4-0.5,0.7-0.8c0.3,0.2,0.6,0.5,0.9,0.7c-0.2,0.3-0.4,0.5-0.7,0.8
			C270.4,167.4,270.1,167.2,269.8,166.9z"/>
		<path class="st1" d="M231.8,222.2c0.2-0.3,0.4-0.5,0.7-0.8C232.6,222.4,232.8,221.8,231.8,222.2z"/>
		<path class="st1" d="M238.3,214.2c0.2-0.3,0.4-0.5,0.7-0.8c0.3,0.2,0.6,0.5,0.9,0.7c-0.2,0.3-0.4,0.5-0.7,0.8
			C238.9,214.7,238.6,214.5,238.3,214.2z"/>
		<path class="st1" d="M244.8,206.3c0.2-0.3,0.4-0.5,0.7-0.8c0.3,0.2,0.6,0.5,0.9,0.7c-0.2,0.3-0.4,0.5-0.7,0.8
			C245.4,206.8,245.1,206.5,244.8,206.3z"/>
		<path class="st1" d="M251.4,198.3c1.5-0.9,0.3-0.6,1.9-0.5c-0.3,0.4-0.7,0.8-1,1.2C252,198.8,251.7,198.6,251.4,198.3z"/>
		<path class="st1" d="M257.9,190.4c0.2-0.3,0.4-0.5,0.7-0.8C258.7,190.7,258.9,190,257.9,190.4z"/>
		<path class="st1" d="M272.4,173.7c0,0.7-0.5,1.7-1.4,0.8C271.4,174.2,271.9,173.9,272.4,173.7"/>
		<path class="st1" d="M252.1,205.5c1.1-0.1,0.7-0.1,2,0.3c-0.2,0.3-0.4,0.5-0.7,0.8C252.9,206.3,252.5,205.9,252.1,205.5z"/>
		<path class="st1" d="M239.4,221.8c0.2-0.3,0.4-0.5,0.7-0.8C240.2,222.1,240.4,221.4,239.4,221.8z"/>
		<path class="st1" d="M246,213.8c0.2-0.3,0.4-0.5,0.7-0.8c0.3,0.2,0.6,0.5,0.9,0.7c-0.2,0.3-0.4,0.5-0.7,0.8
			C246.6,214.3,246.3,214.1,246,213.8z"/>
		<path class="st1" d="M259,198c0.5-0.3,0.9-0.6,1.4-0.8c-0.1,0.1-0.2,0.3-0.3,0.4c-0.1,0.4-0.1,0.8-0.2,1.2
			C259.6,198.4,259.3,198.2,259,198z"/>
		<path class="st1" d="M265.5,190c0.5-0.3,0.9-0.6,1.4-0.8c-0.1,0.1-0.2,0.3-0.3,0.4c-0.1,0.4-0.1,0.8-0.2,1.2
			C266.1,190.5,265.8,190.2,265.5,190z"/>
		<path class="st1" d="M272.7,181.3c0.1,1.1,0.3,0.4-0.7,0.8C272.3,181.8,272.5,181.5,272.7,181.3"/>
		<path class="st1" d="M259.7,205.2c0.5-0.3,0.9-0.6,1.4-0.8c0.3,0.2,0.6,0.5,0.9,0.7c-0.3,0.4-0.7,0.8-1,1.2
			C260.6,205.9,260.1,205.5,259.7,205.2z"/>
		<path class="st1" d="M247.1,221.4c0.2-0.3,0.4-0.5,0.7-0.8c0.1,0.1,0.3,0.2,0.4,0.4C247.8,221.1,247.5,221.3,247.1,221.4z"/>
		<path class="st1" d="M253.6,213.5c0.2-0.3,0.4-0.5,0.7-0.8c0.3,0.2,0.6,0.5,0.9,0.7c-0.2,0.3-0.4,0.5-0.7,0.8
			C254.2,214,253.9,213.7,253.6,213.5z"/>
		<path class="st1" d="M266.7,197.6c0.5-0.3,0.9-0.6,1.4-0.8c-0.1,0.1-0.2,0.3-0.3,0.4c-0.1,0.4-0.1,0.8-0.2,1.2
			C267.2,198.1,267,197.8,266.7,197.6z"/>
		<path class="st1" d="M254.7,221c0.5-0.3,0.9-0.6,1.4-0.8c-0.1,0.1-0.2,0.3-0.3,0.4c-0.1,0.4-0.1,0.8-0.2,1.2
			C255.3,221.5,255,221.3,254.7,221z"/>
		<path class="st1" d="M261.3,213.1c0.5-0.3,0.9-0.6,1.4-0.8c-0.1,0.1-0.2,0.3-0.3,0.4c-0.1,0.4-0.1,0.8-0.2,1.2
			C261.9,213.6,261.6,213.3,261.3,213.1z"/>
		<path class="st1" d="M267.8,205.2c0.5-0.3,0.9-0.6,1.4-0.8c-0.1,0.1-0.2,0.3-0.3,0.4c-0.1,0.4-0.1,0.8-0.2,1.2
			C268.4,205.6,268.1,205.4,267.8,205.2z"/>
		<path class="st1" d="M268.8,212c1.1-0.1,0.7-0.1,2,0.3c-0.3,0.4-0.7,0.8-1,1.2C269.5,213,269.1,212.5,268.8,212z"/>
		<path class="st1" d="M262.4,220.7c0.5-0.3,0.9-0.6,1.4-0.8c-0.1,0.1-0.2,0.3-0.3,0.4c-0.1,0.4-0.1,0.8-0.2,1.2
			C263,221.2,262.7,220.9,262.4,220.7z"/>
		<path class="st1" d="M270,220.3c0.5-0.3,0.9-0.6,1.4-0.8c-0.1,0.1-0.2,0.3-0.3,0.4c-0.1,0.4-0.1,0.8-0.2,1.2
			C270.6,220.8,270.3,220.5,270,220.3z"/>
	</g>
	<g>
		<path class="st0" d="M338.8,166.1c-0.2-0.4-0.3-0.6-0.4-0.8c-0.3,0.2-0.5,0.4-0.8,0.6c-0.6,0.4-1.2,0.1-1.7-0.5
			c-0.3,0.3-0.5,0.5-0.8,0.7c-0.4-0.2-0.9-0.4-1.4,0c-0.2,0.1-0.5,0.1-0.8,0.1c-1.3,0-2.6,0-4,0c-0.6,0-1.3-0.2-1.9-0.3
			c-0.6,0.1-1.2,0.3-1.8,0.3c-2.1,0-4.2,0-6.3,0c-1.5,0-3,0-4.4,0c-0.5,0-1-0.1-1.4-0.3c-0.3-0.1-0.7-0.5-0.7-0.6
			c0.3-0.7-0.4-1.3-0.3-1.9c0.1-0.7,0.1-1.5,0.2-2.2c0-0.3,0.2-0.5,0.3-0.7c0.1-0.1,0.3-0.3,0.2-0.3c-0.5-0.8,0.1-1.5,0.3-2.2
			c0.2-0.5,0.6-0.9,0.7-1.4c0.1-0.6,0.4-0.9,0.8-1.2c0.1-0.1,0.1-0.3,0.1-0.5c0-0.1-0.1-0.3,0-0.3c0.9-0.5,0.7-1.6,1.3-2.2
			c0.6-0.6,1.1-1.5,1.7-2.1c0.3-0.4,0.8-0.6,1.4-0.9c-0.1,0.1,0,0.1,0,0c0.1-0.6,0.7-1.3,1-1.3c0.7,0,0.5,0.7,0.7,1.1
			c0.7-0.3,0.7-0.3,0.3-2c0.8-0.8,1.8-1.3,2.8-1.9c2.5-1.4,5.1-2.1,7.9-2.5c1.3-0.2,2.6-0.3,4-0.2c1.8,0.1,3.7,0.3,5.4,0.8
			c1,0.3,2.2,0.4,3.1,1c1,0.6,2.1,1,3.1,1.6c1.7,1,3.2,2.2,4.5,3.7c1,1.1,1.9,2.2,2.8,3.4c1,1.5,2,3,2.4,4.9
			c0.1,0.3,0.3,0.6,0.4,0.9c0.2,0.6,0.5,1.1,0.3,1.7c-0.1,0.2,0,0.6,0.2,0.8c0.4,0.5,0.5,1.1,0.4,1.7c0,0.4,0,0.7,0.1,1.1
			c0.2,1.4-0.4,2.3-1.8,2.3c-1.2,0-2.5,0.3-3.8-0.2c-0.4-0.1-0.9,0.2-1.4,0.2c-1.6,0-3.2,0-4.8,0
			C344.2,166.1,341.5,166.1,338.8,166.1z M349.5,157.1c1,0.1,1.4,0,1.4-0.4c0-0.5-0.5-0.9-1.4-0.9
			C349.4,156.2,349.4,156.6,349.5,157.1z"/>
		<path class="st0" d="M2.1,161.8c-1-0.5-0.8-1.2-0.6-1.9c0.6-2,1.4-4,2.6-5.7c0.7-1.1,1.4-2.2,2.1-3.3c0.2-0.4,0.5-0.2,0.8-0.1
			c-0.2-0.7,0.2-1.2,0.7-1.6c0.4-0.3,0.8-0.7,1.1-1.1c0.4-0.6,1-0.2,1.5-0.5c0.5-0.3,0.1-0.9,0.7-1.3c2.4-1.6,4.9-2.7,7.8-3.2
			c0.3-0.1,0.5-0.1,0.8-0.2c-0.1,0.2-0.1,0.5-0.2,0.8c0.4-0.2,0.7-0.3,0.9-0.5c0.4-0.7,1-0.7,1.7-0.7c0.5,0,1-0.3,1.4-0.1
			c1,0.5,1.8-0.4,2.7-0.1c0.9,0.3,2,0.3,2.9,0.4c2.2,0.4,4.3,1,6.3,2.1c0.4,0.2,0.8,0.4,0.8,1c0.9-0.1,1.5,0.4,2.1,0.9
			c1.1,1,2.5,1.7,3.2,3.1c0.8,1.5,2.3,2.5,3.1,4c0.5,0.9,0.8,1.8,0.1,2.7c0.1,0.1,0.2,0.2,0.2,0.2c1.2-0.1,1.2-0.1,1.5,1
			c0.4,1.1,0.7,2.3,0.9,3.4c0.1,0.7,0.4,1.5-0.5,2c-0.3,0.1-0.2,0.5,0,1.1c0.2-0.2,0.4-0.3,0.6-0.5c0.6,0.2,0.2,1.8-0.6,2
			c-0.6,0.2-1.3,0.8-2,0c-0.1-0.1-0.2-0.2-0.4-0.3c-0.5,1-1.4,0.5-2.1,0.6c-0.8,0.1-1.6,0.3-2.2-0.6c-0.3,0.3-0.3,0.7-0.9,0.7
			c-2.5-0.1-5-0.1-7.4-0.1c-0.7,0-1.4,0.1-2.1,0.1c-0.9,0-1.9,0.2-2.5-0.6c-1.3,0.7-1.3,0.7-2.1-0.1c-0.9,1-2.1,0.7-3.3,0.6
			c-0.5,0-1,0.1-1.5,0.1c-3.5,0-7,0-10.5,0c-2.1,0-4.1,0-6.2,0c-0.3,0-0.6,0-1,0c-1.1-0.2-1.4-0.6-1.4-1.7c0-0.5,0-1,0-1.6
			C1.2,162.2,1.2,162.2,2.1,161.8z M43.9,163.8c-0.7-1.9-1.3-2.3-2.1-1.6C41.9,163.3,43,163.3,43.9,163.8z"/>
		<path class="st0" d="M66.5,61.3c1,0.2,1.1,0.2,1-0.5c0-0.5,0.2-0.7,0.6-0.4c0.3,0.2,0.5,0.4,0.9,0.1c-0.2-0.2-0.4-0.5-0.6-0.7
			c0-0.1,0.1-0.2,0.2-0.2c3.1-2.6,6.6-4,10.6-4.7c1.8-0.3,3.5-0.4,5.3-0.4c1.1,0,2.1,0.1,3.1,0.5c0.6,0.2,1.3,0.2,1.9,0.4
			c2.7,0.7,5.3,1.9,7.6,3.5c0.6,0.4,0.7,1,0.5,1.7c0.4-0.2,0.7-0.3,1-0.4c2.4,2,4.2,4.4,5.5,7.1c0.7,1.5,1.4,3,1.6,4.6
			c0.3,1.5,0.9,3,0.7,4.6c-0.1,1-0.5,1.5-1.5,1.5c-2.9,0-5.7-0.1-8.6-0.1c-1.3,0-2.7,0.1-4,0.1c-1.4,0-2.9,0-4.3,0
			c-1.2,0-2.4,0.2-3.6,0.2c-2.8,0-5.6,0-8.4,0c-2.2,0-4.4,0-6.6,0c-2.1,0-4.3,0-6.4,0c-0.6,0-1.2-0.2-1.8-0.2
			c-0.8-0.1-1.1-0.7-1.2-1.3c-0.1-0.6,0.1-1.2,0.1-1.9c0-0.1,0.1-0.2,0.1-0.3c-0.6-2,0.3-3.7,1-5.4c0.8-1.8,1.8-3.4,2.8-5.1
			C65,63.1,65.8,62.2,66.5,61.3z M80.9,60c-0.4-0.2-0.6-0.3-0.9-0.4c-0.5-0.1-1.1,0.6-0.8,0.9c0.5,0.5,0,1,0.3,1.4
			C81,61.9,80.3,60.5,80.9,60z M102.3,67.8c-0.2-0.3-0.4-0.5-0.6-0.7c-0.6,0.2-1.1,0.3-1.6,0.5c0.3,0.4,0.6,0.8,1,1.1
			C101.5,68.4,101.8,68.1,102.3,67.8z"/>
		<path class="st0" d="M296.1,64.8c-0.1,0.1-0.2,0.5-0.3,0.8c0.6,0.6,0.9,0,1.3-0.2c0.9,0.8,1.2,2,1.6,3.1c0.6,1.5,1,3,1.3,4.6
			c0.1,0.8,0.1,1.6,0.2,2.4c0.1,1-0.5,1.7-1.5,1.9c-0.3,0.1-0.7,0.1-1.1,0.1c-3,0-5.9,0.1-8.9,0c-1.9-0.1-3.7,0.1-5.6,0
			c-0.5,0-1-0.2-1.6-0.3c-0.2,0.1-0.5,0.3-0.8,0.3c-5.6,0-11.2,0-17,0c0-0.3,0-0.6,0.1-1c-0.3,0.1-0.7,0.2-0.8,0.4
			c-0.3,0.6-0.8,0.6-1.4,0.6c-1.6,0-3.1-0.1-4.7-0.1c-0.7,0-1.4,0-2.1-0.1c-0.6-0.1-0.8-0.5-0.9-1.1c-0.2-1-0.3-2,0.1-3
			c0.2-0.4,0-0.9,0.1-1.4c0.6-3.4,2.2-6.4,4.4-9.1c0.3-0.3,0.4-0.7,0.6-1c0.4-0.6,0.9-0.9,1.8-0.4c-0.5-1.5,0.6-2,1.3-2.6
			c2.9-2.4,6.3-3.9,10.1-4.5c1.5-0.3,3-0.4,4.5-0.5c0.4,0,0.8,0.1,1.2,0.2c0.1,0,0.1,0.1,0.2,0.1c1.6-0.5,3.1,0.1,4.6,0.4
			c0.7,0.1,1.3,0.4,1.9,0.6c0.4,0.2,0.8,0.5,1.4,0.9c1.4-0.3,2.6,0.9,3.9,1.7c1.6,1,2.9,2.3,4.1,3.6c0.6,0.6,1.1,1.2,1.6,1.9
			c0.1,0.1,0,0.4,0.1,0.6C295.9,64,296,64.3,296.1,64.8z M266.9,59.1c-0.4-0.2-0.7-0.4-0.9-0.4c-0.4,0-0.8,0.2-1.2,0.3
			c-0.1,0-0.2,0.3-0.2,0.4c0.1,0.3,0.3,0.6,0.5,0.7c0.2,0.1,0.6,0.1,0.9-0.1C266.3,59.9,266.5,59.5,266.9,59.1z M277.2,60.4
			c-1.2,0.2-1.4,0.4-1.4,1c0.1,0.7,0.6,0.9,1.8,0.8c-0.1-0.2-0.1-0.4-0.3-0.5c-0.2-0.1-0.4-0.1-0.7-0.2
			C276.9,61.1,277.1,60.8,277.2,60.4z M278,73c-1.2,0.1-1.2,0.1-1.5,1.1c0.6,0.2,1,0.8,1.9,0.6C277.8,74.3,277.4,73.9,278,73z"/>
		<path class="st0" d="M188.2,54.7c0,0.6,0,1.1,0,1.6c-0.7,0-1.4,0-2.1,0c-1.7,0.1-3.4,0.2-5.1,0.2c-2.3,0-4.6-0.1-6.9-0.1
			c-4.4,0-8.7,0.1-13.1,0.1c-0.7,0-1.5-0.1-2.2-0.3c-0.7-0.1-1.1-0.9-1.1-1.8c0.1-1.5,0.2-3.1,0.5-4.6c0.2-1.2,0.8-2.3,1.2-3.4
			c0.3,0,0.5,0,0.8,0c0-0.2,0.1-0.4,0.1-0.5c-0.3-0.7-0.1-1.2,0.3-1.8c0.4-0.6,0.7-1.2,1.2-1.8c0.2-0.2,0.6-0.3,0.8-0.5
			c0.2-0.5,0.4-1.2,0.8-1.6c1.3-1.4,2.5-2.9,4.3-3.7c0.4-0.2,0.7-0.6,1-0.7c0.2-0.1,0.6-0.1,0.9-0.2c0,0.3,0.1,0.5,0.1,0.8
			c0,0.5-0.1,1-0.1,1.6c0.9-0.1,1.3-0.4,1.8-1.8c-0.4-0.3-0.9-0.7-1.4-1.1c1.3-0.8,2.6-1.2,3.9-1.6c2.7-0.8,5.4-1.2,8.1-1
			c1.3,0.1,2.5,0.3,3.8,0.5c0.4,0.1,0.7,0.3,1.3,0.6c0.5-0.2,1.1,0,1.9,0.4c0.7,0.4,1.6,0.5,2.3,0.8c2.2,1.1,4.1,2.5,5.9,4.1
			c0.9,0.8,1.8,1.8,2.3,3c0.1,0.3,0.3,0.5,0.5,0.7c0.9,0.8,1.3,1.9,1.8,2.9c0.2,0.3,0.5,0.7,0.1,1.1c-0.1,0.1,0.1,0.5,0.2,0.5
			c0.6,0.1,0.6,0.6,0.7,1c0.8,2,1.2,4.1,1.2,6.3c0,1.4-0.4,1.8-1.8,1.8c-0.6,0-1.3-0.1-1.9-0.2c-0.3,0-0.5-0.3-0.8-0.5
			c-1.2,1-2.7,0.3-4.4,0.6c1-0.5,0.8-1,0.2-1.6c-0.5,0.9-1.2,1.4-2.1,1.5c-1,0.1-1.7-0.5-2.5-1.3c-0.1,0.5-0.2,0.9-0.3,1.2
			c-0.4-0.1-0.8-0.1-1.2-0.2c-0.2-0.1-0.4-0.4-0.4-0.5C189.3,54.9,188.7,55,188.2,54.7z M169,40.9c-0.4-0.2-0.9-0.4-1.2-0.6
			c-0.4,0.3-0.8,0.6-1.1,0.9c0.1,0.5,0.2,1,0.4,1.6C167.8,42.2,168.4,41.6,169,40.9z"/>
		<path class="st0" d="M193.5,8.8c0.5,1.1,1,2.1,1.4,3.2c0.3,0.8,0.3,1.6,0.4,2.4c0.1,0.3,0.2,0.6,0.2,0.9c0.1,0.4,0.2,0.9,0.2,1.3
			c-0.2,2.3-0.5,4.7-1.7,6.8c-2.6,4.5-6.3,7.3-11.6,7.9c-0.7,0.1-1.5,0.3-2.2,0.2c-2.1-0.3-4.1-0.6-6-1.6c-1.6-0.9-3.1-1.9-4.2-3.3
			c-1.9-2.3-3.3-4.9-3.6-8c-0.1-0.8-0.2-1.6-0.3-2.3c0.4,0,0.7-0.1,1.1-0.1c-0.4-0.7-1-1.2-0.7-2c0.3-0.8,0.4-1.6,0.7-2.4
			c0.7-2.1,1.8-4.1,3.4-5.7c1.7-1.6,3.5-3,5.9-3.5c0.6-0.1,1.1-0.2,1.5,0.3c0.2-0.3,0.3-0.5,0.4-0.7c1.2,0,2.5,0,3.8,0
			c0.3,0,0.6,0.2,0.9,0.2c0.1,0,0.4,0.2,0.4,0.1c0.8-0.7,1.5,0,2.2,0.1c0.1,0,0.2,0,0.2,0c0.5,0.1,0.5,0.9,1.3,0.7
			c0.4-0.1,1,0.5,1.6,0.8c1.9,1.1,3.4,2.8,4.6,4.6c-0.5,0-1-0.1-1.6-0.1c0,0.2-0.1,0.3,0,0.4c0.1,0.4,0.2,0.7,0.3,1.1
			c0.4-0.2,0.8-0.3,1.2-0.6C193.4,9.2,193.4,9,193.5,8.8z"/>
		<path class="st0" d="M265.7,28.5c0-0.2-0.1-0.5,0-0.6c0.6-0.7,1.3-1.3,2-1.9c0.5-0.5,1.1-0.8,1.9-0.7c0.6,0.1,0.6-0.3,0.4-0.6
			c0.4-0.2,0.7-0.5,1.1-0.7c1.1-0.4,2.2-0.9,3.3-0.9c2-0.1,4.1-0.2,6.2,0.2c1.4,0.3,2.7,0.8,3.9,1.6c0.7,0.5,1.5,0.8,2.1,1.6
			c0.2,0.3,0.5,0.4,0.3,0.9c0,0,0.3,0.5,0.4,0.4c0.7-0.3,1,0.3,1.4,0.6c-0.1,0.7-0.7,1.3,0,2.1c0.2-0.4,0.3-0.7,0.5-1.3
			c0.5,0.7,0.9,1.3,1.1,1.9c0.3,0.8,0.9,1.6,0.6,2.6c-0.1,0.2,0.1,0.7,0.2,0.9c0.7,0.9,0.8,2,0.7,3.1c-0.2-0.1-0.5-0.2-0.8-0.3
			c0,0.5,0,1,0,1.5c0.3,0,0.5,0,0.7,0c0,0.1,0.1,0.2,0.1,0.2c-0.2,0.9-0.4,1.9-0.6,2.8c-0.9,3.6-3,6.3-6.2,8.1
			c-1,0.6-2.1,1.1-3.2,1.6c-0.5,0.2-1.1,0.1-1.9,0.2c-0.3,0.5-1.1,0.6-1.8,0.7c-3.4,0.2-6.6-0.6-9.5-2.6c-3.3-2.3-5.3-5.5-6.1-9.4
			c-0.6-3.5-0.1-6.8,1.6-10C264.4,29.6,265.1,29.1,265.7,28.5z M284.6,45.5c0-0.8,0-1.5,0-2.2c-0.5-0.1-0.9-0.3-1.2,0.3
			c-0.2,0.4-0.1,0.8,0.4,1.1C284,44.9,284.2,45.2,284.6,45.5z"/>
		<path class="st0" d="M91,25.3c0,0.9,0.1,1.1,0.8,1.1c0.6,0,1.1,0.3,1.4,0.7c0.6,0.7,1.5,1.1,1.5,2.1c1.3,0.8,1.7,2.1,2.2,3.4
			c0.4,1.1,0.6,2.2,0.9,3.2c-0.4,0.3-0.7,0.6-1.2,1c0.6,0.1,0.8,0.1,1.1,0.1c1.3,8.5-7.1,17.5-17.5,15.6c0.1-0.4,0.1-0.7,0.2-1.2
			c-0.4,0-0.8,0-1.2-0.1c0,0.3,0,0.6,0,1c-1-0.4-1.9-0.6-2.6-1c-3.3-1.8-5.8-4.4-7.2-8c-0.8-2.2-1.1-4.4-0.9-6.7
			c0.1-1.4,0.3-2.9,1.2-4.2c0.2-0.3,0.2-0.8,0.4-1.1c1.7-3.3,4.2-5.7,7.7-7.1c0.6-0.2,1-0.3,1.4,0.4c0.4-0.4,0.6-0.7,0.9-1.1
			c0.8,0,1.6,0,2.4,0c0.3,0,0.6,0,0.8,0.1c0.5,0.5,1,0.2,1.5,0.1c0.9-0.3,1.8-0.1,2.7,0.2C88.9,24.4,89.9,24.9,91,25.3z M93.8,41.4
			c0,0.1,0,0.2,0,0.3c0.8,0,1.6,0.1,2.4,0.1c0.2,0,0.3-0.4,0.4-0.5c-0.6-0.5-1.1-0.9-1.6-1.4c0,0.4,0,0.6,0,0.8
			C94.6,40.9,94.2,41.2,93.8,41.4z"/>
		<path class="st0" d="M38.9,123.1c-0.4,0.1-0.6,0.1-0.6,0.2c-0.2,0.7-1.2,0.8-1.1,1.7c0.6-0.3,1.2-0.5,1.8-0.7c0.2,2.5,0,4.9-1,7.2
			c-0.2-0.3-0.4-0.5-0.6-0.9c-0.5,0.5-0.6,1-0.5,1.5c0.2,1.2-0.2,2.1-0.9,3c-1.3,1.6-2.8,2.9-4.6,3.9c-0.7,0.4-1.3,1-2.2,0.5
			c-0.1,0-0.2,0-0.3,0.1c-1,1.2-2.5,1-3.8,1.1c-2.1,0.2-4.2-0.2-6.3-1c-1.9-0.8-3.5-1.8-4.9-3.1c-2.1-2-3.4-4.5-4.1-7.4
			c-0.4-1.7-0.2-3.4-0.2-5.1c0-0.7,0.7-1.3,0.5-2.1c0,0,0.2-0.1,0.3-0.1c0.4-0.2,0.7-0.5,0.4-1c-0.2-0.3-0.1-0.5,0-0.9
			c0.6-1.4,1.2-2.8,2.7-3.7c0.8-1.6,2.2-2.4,3.7-3.3c1.6-0.9,3.3-1.5,5.2-1.7c0.6-0.1,1.1-0.2,1.6-0.2c0.9,0,1.9-0.1,2.7,0.3
			c0.8,0.4,1.6,0.1,2.4,0.6c0.7,0.5,1.6,0.7,2.4,1.1c0.6,0.4,1.2,0.9,1.8,1.4c0.4,0.3,0.8,0.5,1.1,0.8c1.5,1.5,2.9,3.1,3.5,5.2
			C38.1,121.5,38.5,122.3,38.9,123.1z M21.4,119.8c-0.1-0.5,0.1-1.1-0.5-1.4c-1.2-0.6-1.3-0.6-2-0.1c0.4,0.2,0.7,0.4,1,0.4
			c0.7,0.1,1,0.4,0.8,1.1C20.8,119.8,21,119.8,21.4,119.8z M35.6,127.1c0,0,0.1,0.2,0.2,0.3c0.2,0.1,0.5,0.2,0.7,0.1
			c0.3-0.1,0.3-0.4,0.2-0.7c0-0.3,0.1-0.7,0.1-1c0-0.5-0.3-0.5-0.3-0.4C36.2,126,35.9,126.5,35.6,127.1z"/>
		<path class="st0" d="M338.1,111.5c0.8,0.2,1.6,0.4,2.4,0.7c0.7,0.3,1.5,0.5,2.2,0.9c1.1,0.7,2.2,1.2,2.9,2.3
			c0.5,0.8,1.4,1.4,2,2.2c0.4,0.5,0.7,1.2,1,1.8c0.3,0.6,0.6,1.3,0.9,1.9c0.3,0.8,0.5,1.7-0.4,2.6c0.4-0.1,0.6-0.1,0.9-0.1
			c0.1,0.4,0.3,0.8,0.2,1.1c-0.1,0.3-0.6,0.6-0.6,0.9c0,0.3,0.8,0.2,0.6,0.9c-0.2,1.1-0.4,2.3-0.6,3.4c-0.2,0.7-0.2,1.4-0.9,1.9
			c-0.2,0.1-0.2,0.7-0.3,1c-1.1,2.8-3.2,4.5-5.7,5.9c-1.2,0.6-2.4,1.3-3.7,1.5c-1,0.2-2.1,0.9-3.2,0.1c0,0-0.2,0-0.2,0.1
			c-1.6,0.6-3,0-4.6-0.5c-0.8-0.3-1.6-0.4-2.3-0.8c-0.6-0.3-1.2-0.7-1.8-1c0.1-0.3,0.1-0.6,0.2-1.1c-0.5,0.1-0.8,0.1-1.2,0.2
			c-1.2-0.9-2.1-2.1-3-3.4c-0.6-0.9-0.6-1-0.1-2.2c-1.1-0.3-1.6-1.1-1.5-2.2c0.6-0.5,1,1,1.7,0.2c-0.4-0.5-0.8-1.1-1.2-1.7
			c-0.2,0.1-0.4,0.3-0.8,0.6c-0.5-3-0.1-5.9,1.1-8.6c0.4-0.1,0.7-0.2,1.2-0.3c-0.3-0.3-0.4-0.5-0.6-0.7c2-3.7,5-6.2,9.1-7.1
			c1.4-0.3,2.9-0.2,4.4-0.3c0.1,0,0.2,0,0.3,0.1C337.4,112.2,337.4,112.2,338.1,111.5z M342.8,136.3c0.6,0.1,1.1,0.3,1.6,0.3
			c0.3,0,0.6-0.2,0.8-0.4c0.2-0.2,0.2-0.6,0.3-1.2c-0.4,0.4-0.6,0.5-0.7,0.7c-0.8-0.3-0.9-0.8-0.5-1.6c-0.8,0-1.4,0.3-1.8,0.9
			C342.5,135.5,342.6,135.9,342.8,136.3z M341.2,126.9c-0.1-0.1-0.1-0.2-0.3-0.3c-0.5-0.2-1.8,0.2-2.1,0.6c-0.2,0.3-0.2,0.6,0.2,0.8
			c0.5,0.3,2-0.3,2.2-0.9C341.2,127.1,341.2,127,341.2,126.9z M337.1,119.2c-0.7,0.2-0.9,0.4-0.6,1c0.2,0.5,0.3,1,0.5,1.6
			c0.2-0.2,0.6-0.3,0.6-0.4C337.7,120.6,337.4,119.9,337.1,119.2z M335.3,131.9c0.6,0,1.1-0.1,1.6-0.1c-0.4-1-0.7-1.4-1.3-1.2
			C334.9,130.8,335.4,131.4,335.3,131.9z M330.5,118.9c0.4-0.4,0.6-0.7,1.1-1.2c-0.8-0.1-1.1-1.1-2-0.3
			C329.9,117.9,330.2,118.4,330.5,118.9z"/>
	</g>
	<g>
		<path class="st0" d="M180.3,100.7c0,0,0.2-0.1,0.7-0.3c-0.2,0.7-0.4,1.2-0.5,1.6c-0.1,0.2-0.3,0.5-0.2,0.5
			c1.2,0.7,0.5,1.7,0.3,2.6c0,0.2-0.1,0.4-0.1,0.6c0.1,2.4,0.2,4.9,0.3,7.3c0,0.5,0.1,1,0.1,1.5c0,2.5-0.3,4.9,0,7.4
			c0.1,1-0.2,1.9-1.2,2.5c-0.9-0.5-1.3-1.3-1.2-2.3c0.1-1.7,0-3.4,0-5c0-7.8,0-15.6,0-23.4c0-2.3,0.2-4.7,0.2-7
			c0-0.5-0.2-1.1-0.3-1.7c0.4-0.1,0.7-0.1,0.7-0.1c-0.2-0.5-0.6-0.9-0.6-1.4c-0.1-1.8,0-3.6,0-5.4c0-0.8,0.2-1.3,1.1-1.6
			c-0.3,0-0.7-0.1-1-0.1c0-1.9,0-3.8,0-5.8c0.2,0,0.5,0,0.8,0c0-0.1,0-0.1,0-0.2c-0.3-0.1-0.6-0.2-0.9-0.3c-0.2-0.9,0.1-1.5,1.2-1.6
			c1.2-0.1,1.2,0.6,1.2,1.4c0,1.3,0.1,2.6,0,3.8c-0.2,1,0.1,1.9,0.1,2.8c0,1.3-0.2,2.6,0,3.9c0,0.2-0.1,0.5-0.2,0.5
			c-1.1-0.3-0.8,1-1.3,1.5c0.2-0.2,0.5-0.4,0.7-0.6c0.1-0.1,0.3-0.3,0.5-0.4c0.1,0.2,0.2,0.4,0.2,0.6c0,0.8,0.1,1.6,0,2.3
			c-0.3,1.5,0.1,2.9,0,4.4c-0.1,1.6,0,3.2,0,4.8c0,1.6,0.1,3.3,0,4.9C180.8,99.2,180.5,100,180.3,100.7z"/>
		<path class="st0" d="M121.9,109.6c0.4-0.2,0.7-0.5,1.1-0.7c-3-0.3-3.2-3.2-4.6-4.9c-1.3-1.6-2.2-3.5-3.3-5.2
			c-2.3-3.7-4.6-7.3-6.9-11c-0.5-0.8-0.5-1.5,0.3-2c0.7-0.5,1.4-0.2,1.9,0.6c1.6,2.7,3.3,5.3,4.9,8c1.4,2.3,3,4.6,4.4,6.9
			c1.9,3,3.7,6.1,5.6,9.1c0.6,1,1.2,1.9,1.9,2.9c-0.2,0.1-0.4,0.3-0.6,0.6c0.1,0,0.1,0.1,0.2,0.1c1.2,0.2,1.6,1.1,1.9,2.1
			c0.1,0.3-0.5,1.2-0.7,1.2c-0.6-0.1-1.5-0.3-1.8-0.8c-1.3-1.9-2.4-3.8-3.7-5.8C122.4,110.3,122.2,110,121.9,109.6z"/>
		<path class="st0" d="M251,85.9c0.7,1,0.2,1.9-0.5,2.7c-1,1.3-2.3,2.4-2.8,3.9c-1.1,3-3.2,5.2-4.6,8c-0.2,0.3-0.7,0.4-1.3,0.7
			c0.3,0,0.5,0,1,0c-1.5,2-2.8,3.7-4.1,5.5c-0.5,0.7-0.7,1.6-1.1,2.4c-1.5,2.4-3,4.8-4.5,7.2c-0.8,1.2-1.8,1.3-2.3,0.3
			c-0.2-0.4-0.1-1.2,0.1-1.6c1.4-2.4,2.9-4.8,4.4-7.1c2.3-3.6,4.6-7.3,6.8-10.9c2.1-3.4,4.1-6.7,6.3-10.1
			C249.1,85.9,249.9,85.4,251,85.9z"/>
		<path class="st0" d="M275.9,149.6c-0.2-0.4-0.3-0.7-0.4-0.9c-0.4,0.3-0.8,0.7-1.3,1.1c-0.2-0.3-0.5-0.8-0.7-1.2c-0.2,0-0.1,0,0,0
			c0.6-2,2.4-1.4,3.8-1.7c1.7-0.3,3.3-0.8,5-1.2c2.1-0.5,4.3-1,6.4-1.3c0.6-0.1,1.3,0.2,2.1,0.4c-0.1-0.2-0.1-0.5-0.2-0.8
			c2.8-0.6,5.5-1.1,8.3-1.7c1.3-0.3,2.5-0.5,3.8-0.8c0.3-0.1,0.7-0.1,0.8,0.1c0.7,0.9,1.1,0.1,1.5-0.3c0.9,0.1,1.4,0.8,1,1.5
			c-0.3,0.5-1.1,0.8-1.7,1.1c-0.5,0.2-1,0.2-1.5,0.3c-1,0.2-2,0.5-3.1,0.7c-1.9,0.4-3.7,0.7-5.6,1.1c-3.4,0.6-6.8,1.2-10.2,1.9
			C281.2,148.3,278.5,149,275.9,149.6z"/>
		<path class="st0" d="M72.1,144.1c0,0.3,0,0.5,0,0.8c0.2-0.1,0.4-0.2,0.6-0.4c0.7-0.5,1.1-0.2,1.5,0.4c0.4,0.5,0.6,1,1.5,0.4
			c0.5-0.4,1.6-0.1,2.4,0c3,0.6,6,1.3,9.1,1.9c0.9,0.2,1.3,0.6,1.2,1.4c-0.1,0.9-0.7,1.1-1.5,1c-2-0.3-4-0.7-6-1.1
			c-4.2-0.8-8.4-1.7-12.6-2.5c-2.8-0.6-5.7-1-8.5-1.8c-1-0.3-2.1-0.1-3.1-0.6c-0.8-0.4-1.3-0.9-1-1.7c0.3-0.8,1-0.8,1.8-0.7
			c3.9,0.8,7.8,1.6,11.7,2.4C70.3,143.8,71.2,144,72.1,144.1z"/>
	</g>
	<g>
		<path class="st2" d="M144.7,209.9c-0.4,1-1,0-1.4-0.1c-2.5-1.1-4.2-2.9-4.9-5.6c-0.2-0.8-0.4-1.6-0.4-2.4c-0.1-2.6,0-5.2,0-7.8
			c0-0.7-0.1-1.5,1.3-1.7c-0.6-0.4-0.9-0.6-1.2-0.8c0-3.1,0-6.1,0-9.2c0-0.5-0.1-0.9-0.1-1.4c0-2.3,0-4.7,0-7c0-0.4,0.2-0.9,0.4-1.4
			c-0.1-0.2-0.4-0.5-0.4-0.9c0-5.3,0-10.7,0-16c0-0.4,0.2-0.8,0.4-1.3c-0.1-0.4-0.4-1-0.4-1.6c0-2.3,0.1-4.5,0.2-6.8
			c0-1.3-0.2-2.5-0.2-3.8c0.2-3.9,2.7-7.1,6.5-8.2c0.4-0.1,0.9-0.3,1.2,0.3c0.1,0.2,0.5,0.3,0.9,0.3c-0.1-0.2-0.2-0.3-0.4-0.6
			c0.3-0.1,0.5-0.2,0.7-0.2c2,0,4,0.2,6.1,0.2c1.9,0,3.9-0.1,5.8-0.2c0.4,0,0.7,0.3,1.1,0.4c0.3,0.1,0.7,0.2,0.9,0.1
			c1.2-0.9,2.6-0.3,3.8-0.5c0.1,0.3,0.2,0.6,0.2,0.5c0.6-0.2,1.1-0.5,1.6-0.5c4.6,0,9.2,0,13.8,0c3.2,0,6.3,0,9.5,0
			c0.6,0,1.4-0.4,1.9,0.4c0,0,0.2,0,0.3,0c1.2-0.6,2.4-0.5,3.6-0.1c0.1,0,0.3-0.1,0.5-0.1c1-0.2,1.9-0.5,2.5,0.4
			c0.9-0.2,1.6-0.5,2.3-0.5c2.9-0.1,5.8,0,8.6,0c1.8,0,3.5,0,5.3,0c3.4,0,6.1,1.2,8,4.1c0.2,0.3,0.8,0.7,0.2,1
			c0.3,0.6,0.8,1.2,0.9,1.8c0.2,1.4,0,2.8,0.2,4.2c0.1,1-0.3,1.1-1,1.2c-0.1,0-0.2,0.1-0.5,0.2c0.6,0.2,1.1,0.4,1.6,0.6
			c0,0.4,0,0.8,0,1.2c-0.3-0.1-0.6-0.2-1.1-0.3c1.4,1.5,1.2,3,0.9,4.6c0,0.2,0,0.5-0.1,0.7c0,0.3,0,0.6,0,0.8c0,6.5,0,13.1,0,19.6
			c0,3.2,0,6.5,0,9.7c-0.5,0.2-0.9,0.4-1.5,0.7c0.6,0.7,1.9,0.9,1.5,2.2c-0.3,0.9,0.3,2.1-1.1,2.8c0.5,0,0.7,0.1,1,0.1
			c0.1,1.8,0.2,3.6,0.3,5.4c0.1,1.4,0.3,2.8,0.2,4.1c-0.2,2.9,0.1,6.1-1.9,8.6c-0.6,0.7-1.2,1.3-1.9,1.8c-0.7,0.6-1.6,1-2.3,1.5
			c-1.2-0.8,0.2-1,0.2-1.6c-0.6-0.2-1.1-0.2-1,0.5c0.1,0.5-0.2,0.4-0.4,0.5c-0.9,0.6-1.7,1-2.8,1c-3.1-0.1-6.2-0.1-9.2-0.1
			c-0.9,0-1.7-0.2-2.6-0.2c-0.7,0-1.4,0.3-2.3,0.5c0.2-1,0.4-1.7,0.6-2.4c-0.1,0-0.2-0.1-0.3-0.1c-0.5,0.7-1.1,1.4-1.7,2.3
			c-1.9,0-4,0-6.2,0c-4.4,0-8.8,0-13.2,0c-0.4,0-0.8-0.3-1.1-0.3c-0.3,0-0.6,0.3-0.8,0.3c-0.9,0-1.8,0-2.7,0
			c-0.2-0.3-0.3-0.6-0.5-0.8c-0.2,0.2-0.4,0.4-0.6,0.7c0,0.1,0,0.2,0.1,0.3c-1.3-0.1-2.6-0.3-4-0.4c-0.1,0-0.3,0-0.4,0.1
			c-0.2,0.1-0.4,0.2-0.5,0.2c-1.7-0.3-3.4,0.1-5.1,0c-1.8-0.1-3.7,0-5.5,0c-1.8,0-3.6,0-5.4,0c-0.5,0-0.9-0.4-1.4-0.4
			c-0.4,0-0.8,0.4-1.2,0.4c-1.5,0-2.9-0.1-4.4-0.2C145.3,210.4,145.1,210.1,144.7,209.9z M148.3,191.4c0.6,0.3,1.2,0.7,1.8,0.7
			c1.6,0.1,3.3-0.1,4.9-0.1c0.4,0,0.7,0.3,1,0.4c0.6-0.1,1.1-0.4,1.7-0.4c1.2,0,2.4,0.2,3.6,0.2c3.2-0.1,6.3-0.2,9.5-0.3
			c0,0.5,0,0.9,0.1,1.2c0.4-0.3,0.8-0.6,1.3-1c0.4,0,1.1-0.1,1.8-0.1c1.9,0,3.8,0,5.7,0c2.2,0.1,4.4,0.2,6.6,0.2
			c1.7,0,3.4-0.2,5.1-0.2c0.3,0,0.6,0.3,0.7,0.3c0.5-0.1,0.8-0.3,1.2-0.3c2.1,0,4.3-0.1,6.4,0c1.8,0.1,3.6-0.4,5.4,0.5
			c0.1,0.1,0.3,0,0.5,0c-0.2-0.2-0.2-0.3-0.4-0.4c1.7,0,3.2,0,4.8,0c-0.1,0.3-0.2,0.6-0.2,0.8c0.1,0.1,0.1,0.1,0.2,0.2
			c0.5-0.9,1.2-1,2.1-1.1c2-0.1,2.6-0.6,2.9-2.3c0.1-0.7,0.4-1.5,0.3-2.1c-0.4-1.4-0.4-2.9-0.4-4.3c0-1.5,0.1-3.1,0.2-4.6
			c0-1.1,0-2.3,0-3.4c0-0.2,0.2-0.4,0.3-0.5c0.1-0.2,0.2-0.5,0.4-1c-0.4,0.2-0.6,0.3-0.8,0.5c0.2-2.1-0.4-4.1,0.5-6
			c-0.1-0.1-0.1-0.1-0.2-0.2c-0.1,0.2-0.2,0.5-0.3,0.7c-0.1,0-0.1-0.1-0.2-0.1c0.3-1.7,0.3-3.3,0-5c-0.2-1.1,0.1-2.2,0.1-3.3
			c0-1,0.1-1.9,0-2.9c0-0.5-0.1-1,0-1.5c0.2-1.7-0.2-3.4-2.2-3.4c-0.7,0-1.4-0.2-2.1-0.2c-1.3,0-2.6-0.4-4-0.1
			c-1.3,0.3-2.8,0.1-4.2,0.1c-0.4,0-0.9-0.3-1.3-0.3c-1.2,0.1-2.3,0.3-3.6,0.5c0-0.7,0-1.1,0-1.5c-0.5,1.4-1.6,1.4-2.8,1.4
			c-3.3-0.1-6.6-0.1-10-0.2c-3.1,0-6.3,0.1-9.4,0.1c-0.3,0-0.6,0-0.9-0.1c0-0.2,0.1-0.4,0.1-0.5c-0.5,0-1.3-0.1-1.3,0
			c-0.2,0.9-0.9,0.5-1.3,0.6c-1.2,0.1-2.4,0-3.5,0c-0.8,0-1.3-0.2-1.6-0.9c-1.3,0.8-2.6,1.7-4.1,0.1c0.1,0.2,0.1,0.4,0.2,0.7
			c-2.1,0-4.3,0-6.4,0c-0.1-0.2-0.2-0.5-0.3-0.7c0,0-0.1,0-0.1,0.1c0,0.2,0,0.4,0,0.6c-1.7,0-3.3,0-5.2,0c1-0.9,0.2-1-0.5-1.3
			c0.1,0.4,0.2,0.8,0.4,1.4c-0.6,0-1.3,0.1-2.2,0.1c-0.1,0.5-0.3,1.1-0.4,1.8c-0.1,0.9,0,1.8,0,2.8c0,0.3-0.3,0.6-0.4,0.9
			c0.1,0.5,0.4,1,0.4,1.5c0,2.4,0,4.7,0,7.1c0,0.6,0.1,1.2-0.9,1.3c1.1,0.5,1.2,1.1,0.2,1.9c1-0.3,0.7,0.4,0.7,0.7
			c0,3.4,0,6.7,0,10.1c0,2.7,0,5.4,0,8.1c0,0.3-0.3,0.5-0.5,0.8C148.6,189.7,148,190.6,148.3,191.4z M153.3,198.4
			c-1.2,0-2.1,0-3.4,0c0.6-0.6,1.3-1,0.7-1.8c-0.6,0.6-1,1.2-1.7,1.8c0,0-0.1,0-0.3,0c-1.1,0-1.2,0.2-1.2,1.3c0,0.3,0.1,0.7,0,0.9
			c-0.1,0.4-0.3,0.7-0.5,1.1c0.2,0.5,0.4,1.1,0.6,1.7c0.2,0.5,0.5,0.6,1,0.6c1.6,0,3.2,0,4.8,0C153.3,202.3,153.3,200.5,153.3,198.4
			z M199.3,204.1c-0.2-0.9,0.2-1.2,1-1.3c0.2,0,0.4-0.3,0.5-0.5c-0.1,0-0.1-0.1-0.2-0.1c-0.4,0.1-0.9,0.1-1.5,0.2
			c0.3-1.4-0.5-2.7,0.6-3.9c-2,0-4,0-6,0c-0.2,1.2-0.4,2.3-0.6,3.5c0.5,0.3,0.5,0.4,0.4,1c-0.1,0.3,0,0.6,0.1,0.9
			c0.1,0.2,0.4,0.3,0.6,0.4c0.9,0.3,2.1-0.6,2.8,0.7c0,0,0.4,0,0.4-0.1C197.8,203.9,198.6,204.3,199.3,204.1z M163.1,198.3
			c-0.1,0.4-0.2,0.9-0.3,1.3c0,1,0,1.9,0,2.9c0,0.5-0.3,0.9-0.3,1.4c0,0.2,0.3,0.5,0.4,0.5c1,0,2-0.1,2.9-0.1c1.2,0,2.5,0.2,3.2-1.1
			c0-0.1,0-0.1,0.1-0.3c-0.8,0.1-0.6-0.5-0.6-0.9c0-1.1,0-2.2,0-3.4c-1.1,0-2.2,0-3.2,0c-0.3-0.4-0.5-0.8-0.8-1.3
			c-0.1,0.5-0.1,0.9-0.1,1.3C164,198.4,163.6,198.4,163.1,198.3z M184.1,145.5c0-1.6,0-3.1,0-4.7c0-0.3-0.5-0.8-0.7-0.8
			c-1.1-0.1-2.2,0-3.4,0c-1.4,0-1.7,0.2-1.7,1.7c0,0.6,0.2,1.4-0.1,1.9c-0.3,0.8,0.3,1.3,0.2,2c0,0.1,0.4,0.3,0.5,0.3
			C180.5,145.8,182.2,146.1,184.1,145.5z M162.8,140.9c-0.3-0.1-0.6-0.3-0.9-0.4c-0.1,0.1-0.1,0.2-0.2,0.3c0.4,0.2,0.7,0.4,1.2,0.6
			c-0.1,0.9-0.1,1.9-0.2,3c0.9-0.1,0.2,0.7,0.4,1.2c1.8,0,3.6,0,5.4,0c0-0.3,0-0.4,0.1-0.6c0.1-1.1-0.3-2.2,0.4-3.2
			c0.3-0.4-0.6-1.8-1.2-1.8c-1-0.1-1.9,0.1-2.9,0C163.9,139.8,163.2,139.9,162.8,140.9z M184.1,198.5c-1.8,0-3.4,0-4.9,0
			c-0.3,0-0.8,0.3-0.8,0.5c-0.1,1.7-0.4,3.4,0.2,5.1c1.8,0.3,3.5-0.3,5.2,0.4c0.2,0.1,0.6-0.4,1.1-0.7c-0.5,0-0.6,0.1-0.7,0.1
			C184.1,202.1,184.1,200.3,184.1,198.5z M214.7,198.6c-2,0-3.8,0-5.7,0c0,1.6,0.1,3.2,0,4.7c0,0.8,0.2,1,0.9,1c0.4,0,0.8-0.1,1.2,0
			c0.3,0.1,0.5,0.3,0.6,0.3c0.6-0.1,1.2-0.3,1.7-0.3c1.3-0.1,1.5-0.2,1.4-1.5c0-0.9,0-1.8,0-2.7C214.7,199.5,214.7,199,214.7,198.6z
			 M193.8,142.8c-0.9-0.2-1.1,0.2-0.9,0.8c0.3-0.1,0.6-0.1,0.9-0.2c0,0.8,0,1.5,0,2.2c0.5,0.1,0.9,0.2,1.4,0.2
			c1.1,0.1,2.1,0,3.2,0.1c0.7,0,1.3-0.4,1.2-0.9c-0.1-0.6-0.3-1.2-0.3-1.8c0-1.1,0-2.2,0-3.3c-1.9,0-3.6,0-5.5,0
			C193.8,140.9,193.8,141.7,193.8,142.8z M153.2,140.2c-0.4-0.1-0.7-0.2-1-0.2c-1.3-0.1-2.5-0.1-3.8-0.1c-0.5,0-0.9,0.2-0.9,0.8
			c0,1.4-0.1,2.8,0,4.2c0,0.4,0.6,1,0.8,1c1.1-0.3,2.2-0.3,3.3-0.3c0.5,0,1,0,1.6,0c-0.5-1.4,0.6-1.6,1.3-2.4
			c-0.6,0.2-1,0.3-1.4,0.4C153.2,142.4,153.2,141.4,153.2,140.2z M214.7,145.6c0-1.3,0-2.4,0-3.5c0-0.4,0.3-0.7,0.6-1.3
			c-0.2-0.8-1.1-0.7-1.9-0.8c-0.8,0-1.6-0.1-2.4-0.2c-1-0.2-2,0.2-2,0.9c0,1.4,0,2.7,0,4.1c0,0.6,0.2,0.8,0.8,0.8
			C211.3,145.6,212.9,145.6,214.7,145.6z"/>
		<path class="st2" d="M196.8,159.2c0.4,0.1,0.7,0,1,0.2c0.9,0.5,1.5,1.1,1.6,2.2c0.1,0.7,0.7,1.4,0.8,2.1c0.2,2.1,0.2,4.2,0.3,6.2
			c0.1,1.3,0.2,2.5,0.3,3.9c-0.4-0.2-0.6-0.2-0.9-0.4c0.1,0.3,0.1,0.6,0.1,0.6c0.9,0.2,0.8,0.9,0.7,1.6c-0.2,1.9-0.4,3.8-0.7,5.9
			c-0.5-0.3-0.8-0.4-1.3-0.7c0.2,0.5,0.2,0.8,0.4,0.9c0.6,0.1,0.5,0.5,0.2,0.8c-0.6,0.7-1.3,1.4-1.9,2.1c-1,0.9-2.2,1-3.4,1
			c-2,0-3.9,0.1-5.9,0.2c-1.4,0.1-2.8,0.2-4.1,0.2c-0.8,0-1.1-0.2-0.7-1.1c-0.2,0.1-0.5,0.1-0.5,0.1c0,1.1-0.9,0.9-1.6,0.9
			c-0.1-0.3-0.1-0.5-0.2-1c-0.3,0.4-0.4,0.6-0.7,1c-1.4-0.3-3.1,0.6-4.6-0.6c-0.7,0.9-1.3,0.5-1.8,0c-0.2,0.2-0.4,0.4-0.5,0.4
			c-2.3-0.1-4.6,0-6.8-0.4c-2.1-0.4-3.3-2.1-3.9-4.1c-0.6-1.8-0.8-3.6-0.7-5.5c0-0.7,0-1.4,0-2c0-0.2,0.3-0.4,0.4-0.5
			c-0.2-0.7-0.8-1.5-0.6-2c0.4-0.8-0.3-1.4,0-2.1c0.3-0.7,0.2-1.5,0.3-2.3c0.3-0.1,0.6-0.2,1.2-0.4c-0.4-0.2-0.7-0.4-1-0.6
			c-0.2-2.3,0.6-4.3,2.2-6c0.3-0.4,0.7-0.9,1.3-0.4c0,0,0.2,0,0.3-0.1c0.9-1.1,2.2-0.8,3.3-0.9c1.9-0.2,3.8-0.3,5.6-0.3
			c2.6,0,5.2,0.2,7.8,0.2c1,0,2.1-0.2,3.1-0.2c1.2,0,2.5,0,3.7,0.1c0.3,0,0.6,0.1,0.9,0.1c1.7,0.1,3.3,0.1,5,0.3
			C195.9,158.7,196.4,159,196.8,159.2z M186.1,169.3c-0.4,0.3-0.9,0.9-1.1,0.8c-1.2-0.6-2.7-0.7-3.4-2.1c0-0.1-0.1-0.1-0.2-0.1
			c-0.3,0.6-0.6,0.1-0.9-0.1c-1.2-0.7-2.4-1.4-3.7-2.1c0,3.1-0.1,6,0,8.9c0,0.6-0.6,1.1-0.1,1.8c0.3,0.5,0.1,1.3,0.1,2
			c3.1-1.8,6.1-3.4,9-5.1c0.7-0.4,1.2-0.9,1.9-1.3c0.5-0.3,0-0.6,0.1-0.9c0,0-0.1-0.1-0.2-0.1c0,0.2,0,0.4-0.1,0.8
			c-0.7-0.4-1.4-0.8-1.9-1.1C185.6,170,186.9,170.1,186.1,169.3z"/>
	</g>
</g>
</svg>
