<?xml version="1.0" encoding="utf-8"?>
<!-- Generator: Adobe Illustrator 19.1.0, SVG Export Plug-In . SVG Version: 6.00 Build 0)  -->
<svg version="1.1" id="Layer_1" xmlns="http://www.w3.org/2000/svg" xmlns:xlink="http://www.w3.org/1999/xlink" x="0px" y="0px"
	 viewBox="0 0 360 255" style="enable-background:new 0 0 360 255;" xml:space="preserve">
<style type="text/css">
	.st0{fill:#757576;}
</style>
<g>
	<path class="st0" d="M92.8,206.2c1.2-0.5,2.4-1,3.7-1.5c0.3-0.1,0.8,0.2,1.2,0.2c0.2,0,0.5,0,0.7-0.1c0.3,0,0.7,0,1,0
		c0.4,0,1.2,0.3,1.3,0.2c0.5-0.8,1.3-0.3,1.9-0.4c0.7-0.1,1.5,0,2.2,0c2.4-0.1,4.8-0.1,7.1-0.2c0.5,0,1,0.1,1.9,0.2
		c-0.7,0.9-1.1,1.6-1.7,2.3c-1.8,1.9-3.6,3.7-5.3,5.6c-1.5,1.5-2.9,3.1-4.5,4.8c0.8,0.1,1.4,0.3,2.1,0.3c2.3,0,4.7,0,7,0
		c0.3,0,0.7,0.2,1,0.3c0.1-0.1,0.4-0.3,0.6-0.3c1.7,0,3.5-0.1,5.2,0c1.4,0.1,2.9-0.1,4.3,0c0.1,0.2,0.2,0.4,0.2,0.5
		c0.1-0.1,0.2-0.3,0.5-0.5c1.9,0,4,0,6.2,0c0.4,0,0.7,0.4,1,0.6c0-0.1-0.1-0.4-0.1-0.7c0.9,0.3,1.8-0.4,2.6,0.4c0,0,0.3-0.3,0.5-0.3
		c2,0,4-0.2,5.9,0.1c0.8,0.1,1.5-0.3,2.3-0.1c0.8,0.2,1.7,0,2.6,0c0.3,0,0.6,0.2,0.9,0.3c0.1,0,0.3,0,0.4-0.1
		c0.3-0.1,0.5-0.2,0.8-0.2c3.4,0,6.9,0,10.3,0c1.8,0,3.6,0,5.5,0c0,0.2-0.1,0.5-0.1,0.7c0.1,0,0.1,0.1,0.2,0.1
		c0.1-0.2,0.3-0.4,0.6-0.8c1.3,0,2.9,0,4.5,0c2.5,0,5.1-0.1,7.6,0c1.4,0.1,2.9-0.1,4.3-0.1c1.5,0,3,0,4.4,0c1.5,0,3,0,4.4,0
		c0.3,0,0.7,0.1,0.8,0.3c0.1,0.2-0.1,0.5,0,0.8c0,0.4,0,0.8,0.1,1.2c0,0.3,0.2,0.5,0.2,0.8c0,1.6,0,3.2,0,4.8c0,0.6-0.3,1-1,1
		c-2.9,0-5.9,0-8.8,0.1c-2,0-4,0.1-6.1,0.1c-0.9,0-1.7,0-2.6-0.2c0.2,0,0.5-0.1,0.7-0.1c0-0.1,0-0.2,0-0.3c-0.3,0-0.6,0-0.8,0.1
		c-0.4,0.1-0.7,0.4-1,0.5c-1.2,0.1-2.4,0.1-3.7,0c-1.9-0.1-3.8,0-5.6,0c-1.9,0-3.9,0-5.8,0c-2.4,0-4.7,0-7.1,0
		c-0.3,0-0.6-0.2-0.9-0.3c-0.1,0-0.2-0.1-0.2-0.1c-0.5,0.6-1.1,0.4-1.8,0.3c-0.4-0.1-0.8,0.1-1.4,0.2c0.1-0.3,0.1-0.6,0.2-0.8
		c-0.1-0.1-0.2-0.1-0.3-0.2c-0.2,0.3-0.3,0.5-0.6,0.9c-2.1,0-4.3,0-6.6,0c-0.6,0-1.1,0.1-1.7,0.1c-2.3,0-4.5,0-6.8,0
		c-0.4,0-0.7-0.2-1.2-0.3c-0.9,0.8-1.8,0.3-2.8-0.3c0.1,0.2,0.2,0.3,0.4,0.6c-1.8,0-3.6,0.2-5.3-0.1c-0.9-0.2-1.7,0.2-2.7,0.1
		c0.4-0.2,0.6-0.3,0.8-0.4c0-0.1,0-0.2-0.1-0.3c-0.3,0.1-0.7,0.1-1,0.2c-0.4,0.1-0.7,0.4-1.1,0.4c-1.5,0-3,0-4.5,0
		c-0.8,0-1.6-0.3-2.5-0.1c-0.9,0.2-1.9,0.1-2.9,0.1c-0.9,0-1.9,0-2.8,0c-1,0-1.9,0-2.9,0c-0.3,0-0.7-0.2-1-0.3c-0.1,0-0.2,0-0.4,0
		c-0.4,0.1-0.8,0.3-1.1,0.3c-3.7,0-7.3,0-11,0c-1,0-2-0.3-3.1-0.3c-0.9,0-1.9,0.3-2.7,0.6c-2.6,1-5.1,2.1-7.6,3.1
		c-0.4,0.1-0.8,0.2-1.1,0.3c-0.6,0.3-1.2,0.7-1.8,0.9c-1,0.5-2.1,0.9-3.2,1.3c-0.3,0.1-0.6-0.1-0.9,0c-0.2,0-0.3,0.3-0.5,0.5
		c-0.1,0.1-0.1,0.2-0.2,0.3c-1.3,0.6-2.5,1.1-3.8,1.6c-0.2,0.1-0.5-0.2-0.7-0.2c-0.2,0-0.5,0-0.6,0.1c-0.1,0.1,0,0.4-0.1,0.8
		c-2.8,0.8-5.5,2.6-8.6,3.4c-0.6,0.3-1.3,0.8-2,1c-1.6,0.6-3.2,1.4-5,2.1c0.2-0.3,0.3-0.4,0.5-0.6c-0.3,0-0.5,0-0.7-0.1
		c0,0.3,0,0.5,0,0.8c-1.5,0.6-3,1.3-4.5,1.9c-0.3,0.1-0.7,0.1-1,0.1c-0.1,0-0.1,0-0.2,0c0.2,0.8-0.5,0.6-0.8,0.7
		c-1,0.4-2.1,0.7-3.2,1.1c-2,0.9-3.9,1.8-5.8,2.7c-0.9,0.4-1.8,1-2.7,1.2c-0.7,0.1-1.6,0-2.3,0.1c-0.3,0.1-0.6,0.1-0.8,0.4
		c0.3,0.1,0.6,0.1,0.9,0.2c0,0.1,0,0.2,0.1,0.3c-0.9,0.4-1.8,0.8-2.7,1.1c-0.2,0.1-0.4,0.1-0.5,0.2c-1,1-2.1,0.8-2.6-0.5
		c-0.1-0.3-0.3-0.6-0.4-0.9c-0.1-0.2,0-0.5,0-0.9c-0.1,0-0.3-0.2-0.6-0.3c0.1-0.2,0.3-0.4,0.3-0.5c-0.4-0.4-0.8-0.8-0.9-1.2
		c-0.5-1.1-1.1-2.2-1.4-3.4c-0.1-0.5-0.4-0.8-0.6-1.2c-0.2-0.6-0.5-1.1-0.8-1.7c-0.3-0.8-0.1-1.4,0.7-1.8c3-1.3,6.1-2.5,9.1-3.8
		c2.6-1.1,5.3-2.3,7.9-3.4c1.4-0.6,2.7-1.2,4.1-1.7c0.1,0.2,0.3,0.3,0.2,0.3c0.3-0.3,0.6-0.6,0.9-0.9c0.3,0.3,0.4,0.4,0.6,0.6
		c0.1-0.2,0.1-0.4,0.2-0.6c0.1-0.1,0.2-0.3,0.4-0.3c2.3-1,4.6-1.9,6.9-2.9c1.9-0.8,3.7-1.6,5.6-2.5c0.1,0.2,0.3,0.3,0.4,0.5
		c0.1-0.1,0.2-0.1,0.2-0.1c0-0.9,0.8-0.9,1.3-1.1c3.7-1.6,7.4-3.2,11.1-4.8c0.4-0.2,0.8-0.1,1.3-0.3c2.2-1.1,4.4-2,6.6-2.9
		c0.9-0.4,1.2-1.1,1.2-2.1c0-5.6,0-11.3,0-16.9c0-1.2-0.1-2.3,0-3.5c0.1-0.8,0-1.6,0-2.4c0-0.9,0-1.9,0-2.8c0-1,0-1.9,0-2.9
		c0-0.3,0.2-0.5,0.3-0.8c0.1,0,0.2,0,0.3,0.1c-0.2-0.2-0.4-0.4-0.7-0.8c0.4-0.1,0.7-0.1,1-0.2c0-0.1,0-0.2,0-0.2
		c-0.3,0-0.5,0-0.9-0.1c0-1.1,0-2.2,0-3.4c0-2.1,0-4.1,0-6.2c0-0.4,0.2-0.7,0.2-1.1c0-0.3-0.2-0.5-0.2-0.8c0-2.6,0-5.1,0-7.7
		c0-0.3,0.3-0.6,0.4-0.9c-0.2-0.2-0.4-0.5-0.4-0.7c0-1.2-0.1-2.4,0.1-3.6c0.1-0.5,0-0.8-0.1-1.2c-0.1-1.9,0-3.8,0-5.7
		c0-0.5,0.1-1.1,0.1-1.6c0.1-0.9-0.1-1.8-0.1-2.7c-0.1-0.8,0.2-1.7,0-2.5c-0.1-1,0-2,0-3c0-1,0-2,0-3c0-0.2,0.1-0.4,0.3-0.6
		c-0.1-0.5-0.3-1-0.3-1.5c0-4.4,0-8.8,0-13.2c0-1.8-0.1-3.7,0-5.5c0.2,0,0.5,0,0.7,0c0-0.1,0-0.2,0-0.2c-0.7-0.2-0.7-0.7-0.7-1.3
		c0-2.7,0-5.3,0-8c0-0.3,0.2-0.6,0.2-0.9c0-0.1,0-0.3,0-0.4c0-0.2-0.2-0.4-0.2-0.6c0.4-0.8-0.1-1.6,0-2.4c0-0.9,0-1.9,0-2.8
		c0-0.5,0.3-1,0-1.6c-0.1-0.2,0.2-0.6,0.3-0.8c-0.1-0.3-0.3-0.5-0.3-0.8c0-2.4,0-4.7,0-7.1c0-0.3,0.3-0.5,0.4-0.7
		c-0.1-0.2-0.4-0.4-0.4-0.6c-0.1-0.5,0-0.9,0-1.4c0.1-1.4,0.5-2.8,0.2-4.1c-0.4-1.4-0.1-2.8-0.2-4.2c-0.1-1.4,0-2.8,0-4.3
		c0-1.2,0.2-1.4,1.4-1.4c3.5,0,7.1,0,10.6,0c1,0,2,0,3.1,0.1c0,0.2-0.1,0.4-0.1,0.6c0.1,0,0.1,0.1,0.2,0.1c0.2-0.2,0.3-0.5,0.5-0.7
		c0.8,0,1.6,0,2.4,0c0,0.2,0.1,0.4,0.1,0.6c1.9-0.7,2.4-0.8,4.5-0.5c0.3,0,0.6-0.1,1-0.1c0.8,0,1.7-0.1,2.4,0.6
		c0.1,0.1,0.4,0.1,0.7,0c-0.2-0.2-0.4-0.3-0.7-0.5c2.3,0,4.5,0,6.7,0c0,0.1,0,0.4,0,0.6c0.1,0,0.2,0,0.2,0c0.6-1.1,1.6-0.6,2.4-0.5
		c0.8,0,1.6-0.1,2.4-0.1c2.5,0,5.1,0,7.6,0c2.2,0,4.4,0.1,6.6,0.1c2.4,0,4.7-0.1,7.1-0.1c0.4,0,0.7,0.2,0.9,0.3
		c1-0.1,1.8-0.3,2.7-0.3c1.9,0,3.9-0.1,5.8,0c1.7,0,3.5-0.1,5.2,0c0.5,0,1.1-0.1,1.6-0.2c0.1-0.3,0.2-0.6,0.3-0.8
		c-0.4-0.5-0.8-0.9-1.1-1.4c-0.7-1.1-1.3-2.2-2-3.2c-0.5-0.7-0.4-1.2,0.1-1.9c-0.3,0-0.7,0.1-1.2,0.2c-0.6-1-1.3-2.1-2-3.2
		c-0.6-1-1.3-1.9-1.9-2.9c-0.7-1-1.2-2.1-1.8-3.2c0.1-0.1,0.3-0.2,0.6-0.4c-1.2,0-1.4-0.8-1.9-1.6c-0.9-1.6-2.1-3-3.2-4.6
		c0.5-0.2,0.8-0.4,1.1-0.5c-0.5,0.4-0.7-1.6-1.4-0.1c-2.1-3.3-4.2-6.4-6.1-9.6c-1.8-3.1-4.2-5.9-5.6-9.4c-0.2-0.2-0.6-0.6-0.9-1
		c-1.4-2.2-2.7-4.5-4.2-6.7c-1-1.5-2.1-3-3.1-4.5c0.2-0.2,0.4-0.4,0.5-0.5c0-0.1-0.1-0.1-0.1-0.1c-0.7,0-1.1-0.5-1.4-1
		c-1.3-2.2-2.7-4.3-4-6.4c-0.2-0.3-0.8-0.6,0.1-1c0.2-0.1,0.2-0.6-0.3-0.5c-0.1,0-0.2,0.1-0.5-0.1c0.3-0.3,0.6-0.7,1-0.9
		c1.4-0.9,2.9-1.8,4.3-2.7c1.7-1.1,3.4-2.2,5.2-3.3c0.8-0.5,1.3-0.4,1.8,0.3c1.1,1.7,2.2,3.5,3.2,5.2c0.1,0.2,0.1,0.5,0.2,0.8
		c0,0.1,0,0.2,0.1,0.3c1.8,1.2,2.4,3.3,3.6,5c2.2,3.3,4.3,6.6,6.4,10c1.4,2.3,2.9,4.4,4.2,6.8c-0.3,0.1-0.6,0.2-1.1,0.4
		c0.5,0.1,0.9,0.2,1.3,0.3c0-0.1,0.1-0.2,0.1-0.2c1.7,2.7,3.5,5.4,5.2,8.1c0.6,1,1.3,2,1.9,3c0.9,1.5,1.8,3,2.6,4.6
		c0.1,0.2,0.4,0.4,0.6,0.6c0.4,0.4,0.7,0.9,0,1.4c0.4,0,0.7,0,1-0.1c0.9,1.4,1.8,2.8,2.6,4.2c0.8,1.3,1.5,2.6,2.3,3.9
		c0.5,0.8,1.2,1.6,1.7,2.4c0.3,0.4,0.3,1,0.6,1.4c0.2,0.3,0.6,0.5,0.8,0.8c0.8,1.1,1.5,2.3,2.2,3.4c1.5,2.3,3,4.7,4.4,7.1
		c0.9,1.6,2.2,2.1,4,1.9c0.6-0.1,1.4-0.4,1.8,0.5c0,0.1,0.4,0.1,0.5,0c0.6-1.1,1.6-0.5,2.4-0.5c4.5-0.1,9.1-0.1,13.6-0.1
		c1.4,0,2.7,0,4.1,0c-0.1,0.3-0.1,0.6-0.2,0.9c0.3-0.1,0.5-0.1,0.9-0.2c-0.2,1.3-0.3,2.6-0.4,3.8c0,0.3,0.3,0.7,0.3,1
		c-0.1,0.8-0.3,1.5-0.4,2.3c0,0,0.2-0.1,0.3-0.2c0.2,0.9-0.2,1.5-1.1,1.5c-3.8,0-7.7,0-11.5,0c-0.2,0-0.4-0.2-0.5-0.3
		c-0.4,0.1-0.8,0.2-1.5,0.4c0.4-0.5,0.6-0.8,0.8-1.1c-0.1-0.1-0.2-0.1-0.2-0.2c-0.2,0.3-0.3,0.5-0.5,0.8c-0.1,0.1-0.4,0.4-0.4,0.4
		c-0.9-0.4-1.7,0.2-2.6,0c-0.9-0.2-1.9,0-2.9,0c0-0.2,0-0.4,0-0.6c-0.2,0.1-0.5,0.1-0.5,0.2c0,1-0.2,2.1,0,3.1
		c0.4,2.5,0.8,4.9,1.3,7.4c0,0.2,0.1,0.4,0.2,0.7c-0.3-0.1-0.4-0.2-0.4-0.2c0.2,0.6,0.4,1.3,0.5,2c0.1,0.6-0.2,0.8-0.8,0.5
		c-1.2-0.7-2.4-1.5-3.5-2.2c-1.5-1-3-2-4.5-3c-0.7-0.5-1.5-1-2.3-1.5c0.2-0.2,0.4-0.3,0.6-0.5c0,0-0.2-0.4-0.2-0.3
		c-0.3,0.1-0.6,0.2-1,0.4c-0.5-0.4-1.1-0.8-1.6-1.2c-1.1-0.8-2-1.8-2.4-3.2c-0.2-0.8-2.1-1.9-2.8-1.7c-0.3,0.1-0.6,0-0.8,0
		c-1.6-0.1-3.2-0.2-4.9-0.2c-2.5,0-5,0.1-7.6,0.2c-4.2,0-8.4,0.1-12.6,0c-2,0-4.1,0.1-6.1,0c-2.1,0-4.1,0-6.2,0c-4.4,0-8.8,0-13.2,0
		c-5.7,0-11.4,0-17.1,0c-1.3,0-1.5,0.4-1.4,1.7c0.2,1.1,0.1,2.3,0.1,3.5c0,1.1,0,2.2,0,3.2c-0.4,0.3-0.7,0.5-1,0.8
		c0,0.1,0.1,0.1,0.1,0.2c0.3-0.1,0.5-0.2,0.9-0.3c-0.2,0.4-0.3,0.8-0.4,1c0.1,0.8,0.3,1.5,0.3,2.2c0,2.4,0,4.9,0,7.3
		c0,0.2-0.3,0.4-0.3,0.7c0,0.3,0.3,0.6,0.3,0.9c0,1.2,0,2.5,0,3.5c-0.3,0.3-0.5,0.5-0.7,0.7c0.2,0.1,0.4,0.2,0.7,0.3
		c-0.1,0.6,0.2,1.5-0.3,2.2c0.1,0.3,0.4,0.7,0.3,1c-0.2,0.3-0.6,0.5-1,0.8c0.3,0.1,0.6,0.3,1.1,0.6c-0.2,0.6,0.4,1.5-0.4,2.1
		c0.1,0.3,0.3,0.6,0.3,1c0,2,0,4,0,6.1c0,0.2-0.2,0.4-0.3,0.6c0.1,0.6,0.3,1.2,0.3,1.9c0,4.9,0,9.7,0,14.6c0,0.3-0.2,0.6-0.3,0.9
		c0.1,0.3,0.3,0.6,0.3,0.9c0,5.5,0,10.9,0,16.4c0,0.3-0.2,0.7-0.3,1.1c0.1,0.2,0.3,0.5,0.3,0.8c0,2.9,0,5.9,0,8.8
		c0,0.3-0.2,0.5-0.4,0.9c0.1,0.1,0.3,0.3,0.6,0.6c-0.4,0.1-0.6,0.2-1,0.3c0.4,0.2,0.6,0.4,1,0.6c-0.1,0.4-0.2,0.9-0.4,1.4
		c0,0.2,0.2,0.5,0.2,0.9c0.1,1.3,0.1,2.6,0.1,3.9c0,0.8-0.1,1.6,0,2.4c0,0.3-0.2,0.7-0.3,0.9c0.1,0.6,0.3,1.1,0.3,1.6
		c0,2.4,0,4.8,0,7.1c0,2.7,0,5.3,0,8c0,0.4-0.4,0.8-0.6,1.2c0.1,0,0.3,0,0.6-0.1c0,1.8,0,3.7,0,5.6c-0.2,0-0.4-0.1-0.6-0.2
		c0.2,0.5,0.7,1.1,0.6,1.6c-0.1,0.5-0.6,1-1,1.5c0.3-0.1,0.6-0.2,1.1-0.3c-0.1,0.8-0.2,1.4-0.3,2.1c-0.1,0,0,0,0.2,0
		c0,0.2,0.1,0.5,0.1,1c0.7-0.2,1.3-0.4,1.9-0.7c2.2-0.9,4.3-1.9,6.5-2.7c0.5-0.2,1.2,0,1.8,0c-0.1-0.1-0.1-0.4-0.3-0.7
		C91.8,206.4,92.3,206.3,92.8,206.2c0,0.3,0,0.6,0,0.9c0.1,0,0.2,0,0.3,0c0.3-0.1,0.6-0.2,0.8-0.3c-0.2-0.2-0.5-0.4-0.8-0.5
		C93,206.2,92.9,206.2,92.8,206.2z M114.3,220.4c-0.1-0.1-0.1-0.2-0.2-0.3c-0.3,0-0.6,0-1,0c0.2,0.6,0.3,1.1,0.5,1.6
		c-0.1-0.6,0.3-0.7,0.7-0.9c0.1-0.1,0.2-0.2,0.4-0.3C114.5,220.5,114.4,220.4,114.3,220.4z M21.8,242.3c0.1,0,0.2,0,0.2,0
		c0.1-0.2,0.2-0.3,0.3-0.5c0.5,0.5,1.5,0.2,1.8,1.1c0.4,1.1,0.9,2.1,1.3,3.2c0.3,0.7,0.7,0.9,1.4,0.5c1.8-0.7,3.6-1.4,5.3-2.1
		c0.5-0.2,1.1-0.6,0.7-1.4c-0.6-1.3-1.1-2.6-1.7-4c-0.3-0.8-0.7-1.7-1-2.5c-0.3-0.6-0.6-0.9-1.4-0.6c-1.8,0.8-3.7,1.5-5.6,2.3
		c-0.5,0.2-0.8,1.4-0.5,1.9c0.4,0.6,0.7,1.2,1.1,1.8c0,0-0.1,0-0.1,0.1c-0.7-0.4-1.3-0.9-2-1.3c-0.1,0.1-0.2,0.2-0.2,0.2
		C21.6,241.3,21.7,241.8,21.8,242.3z M113.6,18.4c0.2,0.2,0.6,0.3,0.8,0.6c0.8,0.9,1.2,2.1,2,3c0.4,0.4,0.6,1,1,1.5
		c0.4,0.6,0.8,0.8,1.3,0.2c0.1-0.1,0.2-0.1,0.2-0.1c0.8-0.3,1.2-1.4,2.4-0.9c0,0,0.2-0.2,0.3-0.3c0.2-0.2,0.3-0.6,0.5-0.7
		c0.8-0.5,1.6-1,2.4-1.5c0.7-0.4,0.9-0.9,0.4-1.7c-0.5-0.7-0.8-1.5-1.3-2.4c0.7,0.2,1.2,0.3,1.7,0.4c0-0.1,0-0.2,0-0.2
		c-0.7-0.2-1.3-0.4-2.3-0.7c-0.3-0.5-0.8-1.3-1.4-2.1c-0.3-0.4-0.6-0.6-1.2-0.2c-1.2,0.9-2.5,1.6-3.8,2.3c-0.2,0.1-0.5,0.1-0.6,0.2
		c-0.1,0.2-0.3,0.4-0.5,0.6c-0.5,0.4-1.1,0.8-1.6,1.2C113.7,17.8,113.6,18.2,113.6,18.4z M165.3,85.9c-0.3-1.4-0.5-2.8-0.9-4.2
		c-0.2-1-1-1.3-1.8-0.7c-1.3,0.9-2.6,1.8-3.8,2.7c-0.4,0.3-0.9,0.7-1.3,0.7c-0.8,0.1-0.9,0.6-0.8,1.1c0.1,0.5,0.3,1.1,0.9,1.3
		c1,0.5,2,1,2.5,1.8c0.3,0.1,0.6,0.2,0.8,0.3c0.4,0.2,0.7,0.5,1.1,0.7c0.5,0.3,0.9,0.5,1.3,0c0.3-0.3,0.7-0.5,1.1-0.7
		c-0.2-0.7,1.1-2.5,2-2.9C166.1,86,165.7,86,165.3,85.9z M99.8,215.8c0.7-0.5,1.1-0.8,1.5-1.3c1.2-1.2,2.4-2.5,3.6-3.7
		c0.4-0.4,0.5-0.8,0.1-1.2c-0.5-0.5-1-1.1-1.4-1.6c-0.3-0.3-0.4-0.7-0.6-0.9c-1.8,0-3.6,0-5.3,0c0-0.2,0-0.4-0.1-0.6
		c-0.4,0.3-0.8,0.6-1.4,1C97.1,210.2,98.3,212.9,99.8,215.8z M108.5,78.3c0-0.1,0-0.2-0.1-0.3c-0.4,0.1-0.8,0.3-1.3,0.4
		c-0.5-0.9-1,0.3-1.6,0.2c0,0.4,0,0.7,0,1c0.6,0,1.2-0.1,1.8-0.1C107.5,79.2,108.1,78.6,108.5,78.3z M53.9,234.4
		c-0.8,0.3-1.4,0.6-2,0.8c-0.1,0-0.2,0.2-0.3,0.3c0.2,0.1,0.3,0.3,0.5,0.3C53,235.9,53.6,235.6,53.9,234.4z M129.7,25.7
		c0.6,0.9,1.4,0.8,2-0.3C131,24.8,130.4,25.5,129.7,25.7z M175.9,222.9c-0.1,0.1-0.2,0.1-0.2,0.2c0.2,0.3,0.4,0.8,0.7,0.9
		c0.4,0.1,0.9-0.1,1.3-0.2c0-0.1,0-0.2,0-0.2C177,223.4,176.4,223.1,175.9,222.9z M160.3,219.6c-0.3,0.6-0.5,1-0.7,1.4
		c0.6,0,1.1-0.1,1.7-0.1c0-0.3,0-0.5-0.1-0.9c-0.2,0.3-0.3,0.4-0.5,0.6C160.6,220.2,160.5,220,160.3,219.6z M21.2,247.4
		c0.5,0.3,0.9,0.5,1.5,0.8c0-0.4,0-1-0.1-1.1C22.1,247.1,21.5,246.8,21.2,247.4z M80,97.3c1.1,0.1,1.3-0.1,1-0.8
		c-0.2,0.1-0.4,0.4-0.6,0.4c-0.8,0.2-0.9,0.3-0.2,1.1C80.1,97.8,80,97.6,80,97.3z M77.2,153.5c-0.5-0.3-0.8-0.5-1.1-0.7
		c-0.1,0.6-0.2,1-0.3,1.6C76.3,154.1,76.7,153.8,77.2,153.5z M71,166.3c0.6,0.1,1,0.1,1.3,0.2c-0.2-0.3-0.4-0.5-0.6-0.8
		c0.1-0.1,0.2-0.3,0.2-0.5c-0.1,0-0.1-0.1-0.2-0.1C71.6,165.3,71.4,165.7,71,166.3z M80.6,218.3c-0.6,0.5,0.1,1,0.3,1.5
		c0,0.1,0.3,0.1,0.5,0.1c0-0.2,0.1-0.4,0-0.6C81.1,218.9,80.8,218.6,80.6,218.3z M25.8,248.5c0,0.1,0,0.2,0,0.3c0.3,0,0.7,0,1-0.1
		c0.1,0,0.2-0.3,0.2-0.3c-0.4-0.3-0.7-0.6-1.1-0.9c-0.1,0.1-0.1,0.1-0.2,0.2c0.3,0.2,0.5,0.5,0.8,0.8
		C26.2,248.5,26,248.5,25.8,248.5z M37.9,232.8c0.1,0.2,0.1,0.3,0.2,0.5c0.6-0.3,1.2-0.6,1.8-0.9c-0.1-0.1-0.1-0.2-0.2-0.3
		C39.1,232.3,38.5,232.6,37.9,232.8z M101.4,78.7c0.1-0.1,0.2-0.3,0.3-0.4c-0.4-0.4-0.9-0.8-1.3-1.1c-0.1,0.1-0.2,0.2-0.3,0.3
		C100.6,77.9,101,78.3,101.4,78.7z M157.3,83.9c-1.1-0.9-1.6-0.8-1.8,0C156,83.9,156.5,83.9,157.3,83.9z M78.1,196.1
		c-0.7,0.1-1.3,0.3-1.9,0.4C76.9,196.8,77.7,197.1,78.1,196.1z M122,22.3c0.7,1.2,0.9-0.2,1.4,0.1c0-0.1,0-0.2-0.1-0.4
		C123,22.1,122.5,22.2,122,22.3z M89.1,225.2c-0.4-0.1-0.7-0.1-1.1-0.1c-0.1,0-0.3,0.2-0.4,0.3c0,0.1,0.1,0.3,0.1,0.4
		C88,226,88.9,225.6,89.1,225.2z M74.3,181.2c-0.2,0.6-0.4,1,0.2,1.1c0.2,0,0.5-0.1,0.7-0.1C74.9,181.8,74.6,181.5,74.3,181.2z
		 M174.5,220.4c0,0.1,0,0.2,0,0.3c0.6-0.1,1.2-0.1,1.9-0.2C176.2,220.1,175.9,220.1,174.5,220.4z"/>
	<path class="st0" d="M314.4,190.4c0.1,1.1,0.1,2.1,0.1,3.2c0,5.2,0.1,10.3,0,15.5c0,1.5,0.2,3,0,4.6c-0.1,1.6,0,3.2,0,4.8
		c0,2,0,4,0,6c0,0.6,0,1.2-0.3,1.7c-0.2,0.3-0.8,0.5-1.3,0.5c-2.7,0-5.4,0-8.2,0c0-0.3,0-0.6,0-0.8c0,0-0.1,0-0.1,0
		c-0.1,0.3-0.2,0.5-0.2,0.8c-2.4,0-4.8,0-7.1,0c0-0.3,0-0.5,0-0.7c-0.1,0-0.2,0-0.2,0c-0.1,0.2-0.1,0.4-0.2,0.7
		c-0.8,0.3-3.3,0-3.6-0.3c-0.4,0.1-0.7,0.4-1,0.4c-1.7,0-3.4,0-5.2,0c0-0.2,0-0.3,0-0.5c-0.4,0.1-1-0.4-1.2,0.5c0,0.1-0.4,0-0.6,0
		c-1.7,0-3.3,0-5,0c-5.7,0-11.4,0-17.1,0c-2,0-3.9,0-5.9,0c-2.9,0-5.8,0-8.7,0c-0.2,0-0.5-0.3-0.8-0.5c0,0.2-0.1,0.3-0.1,0.7
		c-0.9-0.2-1.8-0.4-2.8-0.5c-0.3,0-0.6,0.3-0.8,0.3c-0.6,0.1-1.2,0-1.8,0c-0.7,0.1-1.1-0.1-1.1-1c-1,1.7-2.5,0.8-3.8,1
		c-0.4,0.1-0.9-0.2-1.4-0.3c-0.1,0-0.2-0.1-0.3-0.1c-2.2,0.8-4.5,0.2-6.7,0.3c-2.6,0.1-5.1,0-7.7,0c-1.2,0-2.3,0-3.5,0
		c-1.1,0-2.2,0.2-3.1-0.7c-0.1-0.1-0.3-0.1-0.5-0.1c0.1,0.3,0.2,0.5,0.3,0.8c-0.8,0-1.5,0-2.2,0c-0.2,0-0.5-0.3-0.7-0.4
		c-0.2-0.1-0.5-0.3-0.6-0.2c-0.2,0.1-0.2,0.4-0.4,0.7c-0.2,0-0.6,0.1-0.8,0c-0.6-0.3-1.2,0-1.8,0c-2.4,0-4.8,0-7.2,0
		c-1.2,0-2.5-0.1-3.7-0.1c-0.8,0-0.8-0.5-0.8-1c0-1.7,0-3.5,0-5.2c0-0.3,0.2-0.5,0.3-0.8c-0.6-0.2-0.4-0.9-0.3-1.3
		c0.1-0.3,0.7-0.5,1-0.5c1.1,0.1,2.3-0.3,3.5,0.3c0.3,0.2,0.9-0.2,1.4-0.4c0,0.1,0,0.2-0.1,0.3c0.3,0.2,0.5,0.4,0.9,0.7
		c0.1-0.3,0.1-0.5,0.2-0.9c1.7,0,3.4,0,5.2,0c2,0,3.9,0,5.9,0c3.1,0,6.3,0,9.4,0c0.3,0,0.6,0.2,1,0.3c0.2-0.1,0.6-0.3,1-0.3
		c3.2,0,6.4,0,9.5,0c0.4,0,0.9,0.3,1.3,0.5c0,0.1,0,0.2,0,0.3c-0.2,0.1-0.5,0.3-0.7,0.4c0,0.1,0,0.2,0,0.2c0.2,0,0.6,0.1,0.7,0
		c0.2-0.4,0.3-0.8,0.6-1.4c1.1,0,2.6,0,4,0c0.2,0.2,0.3,0.5,0.5,0.6c0,0,0.3-0.2,0.4-0.2c-0.1-0.1-0.2-0.3-0.3-0.4c1,0,2,0,3.2,0
		c-0.3,0.1-0.4,0.2-0.5,0.2c0,0.1,0,0.1,0,0.2c0.2,0,0.6,0.1,0.6,0.1c0.2-0.7,0.7-0.4,1.1-0.4c1.7,0.1,3.3,0,5,0c1.7,0,3.5,0,5.2,0
		c1.7,0,3.5,0,5.2,0c0.9,0,1.9,0.1,2.8,0c0.6-0.1,1.1,0.3,1.8,0.1c0.6-0.2,1.4,0,2.1,0c0.8,0,1.5,0,2.3,0c0.7,0,1.5,0,2.2,0
		c0.7,0,1.5,0,2.2,0c0.8,0,1.6-0.1,2.4,0c1,0.1,1.9,0.3,2.9,0.4c0,0-0.1-0.2-0.2-0.4c0.9,0,1.7-0.1,2.5,0c0.7,0.1,1.6-0.5,2.1,0.5
		c1.3-0.7,3.2-0.8,3.5-0.2c0.6-0.1,1.1-0.3,1.6-0.3c1.1,0,2.3,0.2,3.4,0.3c0.8,0,1.6-0.2,2.3-0.2c2.2-0.1,4.5-0.1,6.7-0.1
		c0.3,0,0.7-0.1,1-0.1c0.9,0,1-0.6,1-1.3c0-2,0-4,0-6c0-3.6,0-7.1,0-10.7c0-2.1,0-4.3,0-6.4c0-0.4,0.1-0.7,0.2-1.1
		c-0.1-0.2-0.3-0.6-0.2-0.7c0.3-0.3,0.5-0.4,0-0.6c-0.1,0,0-0.4,0-0.6c0-3.9,0-7.8,0-11.7c0-2.3,0-4.6,0-6.9c0-0.3,0.3-0.6,0.3-0.9
		c0-0.3-0.3-0.7-0.3-1c0-6,0-11.9,0-17.9c0-2.2,0-4.4,0-6.6c0-0.6,0-1.2,0.9-1.3c-0.3-0.1-0.6-0.2-0.9-0.3c0-4.5,0-9.1,0-13.6
		c0-0.2,0.2-0.4,0.4-0.8c-0.1-0.1-0.3-0.3-0.5-0.6c0-0.1,0.1-0.1,0.1-0.2c0.2,0.1,0.5,0.2,0.7,0.3c-0.9-0.7-0.7-1.7-0.7-2.6
		c0.1-1.7-0.1-3.4-0.1-5.1c0-0.6,0-1.2,0-1.8c0-0.3,0.2-0.6,0.3-0.9c-0.1-0.2-0.3-0.4-0.3-0.6c0.1-1.2,0.2-2.3,0.2-3.5
		c0-0.4-0.2-0.8-0.2-1.3c0-3.6,0.1-7.2,0.1-10.8c0-3.1-0.1-6.2-0.1-9.2c0-1.9,0-3.8,0-5.8c0-0.3,0.1-0.6,0.2-0.9
		c0,0.2,0.1,0.4,0.1,0.6c0.3-0.1,0.6-0.1,0.8-0.1c-0.1-0.5-0.2-1-0.4-1.7c-0.1,0.4-0.2,0.7-0.3,0.9c-0.1-0.3-0.3-0.5-0.4-0.8
		c0-0.8-0.4-1.1-1.1-1.1c-1.3,0-2.6,0-3.8,0c-0.8,0-1.4,0.4-1.8,0.9c-1.2,1.6-2.4,3.2-3.6,4.8c-0.5,0.8-1,1.6-1.6,2.4
		c-0.2-0.2-0.4-0.3-0.7-0.6c-0.1,0.2-0.2,0.3-0.4,0.5c0.2,0.1,0.5,0.2,0.7,0.3c-1.5,1.9-2.6,4.2-4.9,5.4c-2,1.1-3.8,2.7-6.1,3.3
		c-0.1,0.1-0.3,0.4-0.5,0.6c-1.8,1.1-3.6,2.2-5.4,3.3c-0.4,0.2-0.8,0.3-1.5,0.6c0.1-3.6,1.5-6.9,2-10.3c0.2,0.1,0.4,0.1,0.6,0.2
		c0-0.1,0.1-0.1,0.1-0.2c-0.2-0.1-0.4-0.3-0.6-0.4c0.1-0.3,0.2-0.7,0.3-1c0.3,0,0.7,0.1,1,0.1c0-0.1,0-0.1,0-0.2
		c-0.3-0.1-0.6-0.1-1-0.2c0.6-2.3,0.7-4.8,2.6-6.6c0.4-0.4,0.6-0.8,0.9-1.2c0.4-0.6,1.2-1.2,0.1-1.9c-0.1,0,0-0.3-0.1-0.5
		c-0.9,1.1-2,0.5-3,0.7c-0.1-0.2-0.2-0.5-0.3-0.7c-0.2,0.1-0.3,0.4-0.5,0.4c-1.2,0.1-2.4,0.1-3.7,0.1c0-0.1,0-0.2,0.1-0.6
		c-0.8,1-1.7,0.8-2.5,0.8c-3.9,0-7.7,0-11.6,0c-0.3,0-0.7-0.3-1-0.3c-0.2,0-0.4,0.1-0.7,0.2c-0.1,0-0.3,0.2-0.4,0.2c-3,0-6,0-9,0
		c-0.9,0-1.9-0.2-2.8-0.3c-0.3,0-0.6,0.3-0.9,0.3c-0.6-0.1-1.1-0.3-1.8-0.5c0.1,0.2,0.1,0.3,0.2,0.5c-0.1,0-0.2,0-0.3,0
		c-6.1,0-12.2,0-18.2,0c-6.9,0-13.7,0-20.6,0c-0.3,0-0.6,0.1-0.8,0c-0.2-0.1-0.4-0.3-0.4-0.6c0-0.3,0.2-0.8,0.1-0.9
		c-0.5-0.4-1.1-0.7-1.7-1.1c-0.1,0.1-0.1,0.2-0.2,0.3c0.3,0.2,0.6,0.5,0.9,0.6c0.8,0.2,0.7,0.8,0.5,1.3c-0.1,0.2-0.6,0.4-0.9,0.4
		c-0.8,0.1-1.6,0-2.3,0c-0.7,0-1.1-0.3-1.1-1.1c0-2.3,0-4.6,0-6.9c0-0.8,0.3-1.1,1-1c1.5,0.1,3,0.2,4.5,0.2c1.1,0,2.1-0.2,3.2-0.2
		c0.7,0,1.4,0.3,2.1,0.2c1,0,1.9-0.2,2.9-0.3c1.7,0,3.5-0.1,5.2,0c0.5,0,1,0.4,1.6,0.6c0-0.1,0-0.3,0.1-0.6c2.2,0,4.5,0,6.7,0
		c1.2,0,2.4,0,3.6,0.1c0.5,0,1.1,0.2,1.6,0.4c0.2-0.1,0.7-0.5,0.9-0.4c1.1,0.5,2.2-0.1,3.3-0.1c2.2,0.1,4.3-0.1,6.5,0.1
		c2.8,0.2,5.5-0.3,8.3,0.2c1.8,0.3,3.6-0.1,5.4-0.2c0.8,0,1.7,0,2.5,0c0.1,0.3,0.2,0.6,0.4,0.9c0.1,0,0.2-0.1,0.2-0.1
		c-0.1-0.2-0.2-0.4-0.3-0.7c0.3,0,0.5-0.1,0.8-0.1c3.3,0,6.5-0.1,9.8,0c1,0,2-0.1,2.9,0c1,0,2.1-0.1,3.1,0c1,0.1,2-0.1,3,0
		c1.1,0,2.2,0,3.3,0c1.1,0,2.2,0,3.3,0c1.1,0,2.2,0,3.3,0c0.9,0,1.8-0.3,2.4-1.1c2.3-3.1,4.6-6.1,6.9-9.2c1.6-2.1,3-4.3,4.7-6.3
		c1.7-2.1,3.1-4.4,4.8-6.4c1.3-1.6,2.5-3.2,3.7-4.8c1.9-2.6,3.8-5.3,5.8-7.9c1-1.4,2.1-2.9,3.2-4.3c0.4-0.5,0.9-0.9,1.4-1.4
		c0,0-0.1-0.1-0.3-0.2c1.2-1.3,1.9-3,3.3-4c0.1-0.3,0.1-0.6,0.3-0.9c1.5-2,3-4,4.5-6c0.4-0.5,1.1-0.7,1.3-1.2
		c0.5-1.7,1.8-2.8,2.7-4.1c0.4-0.6,0.9-1.2,1.2-1.5c0.5,0,0.8,0,1,0c0.2,0,0.4,0,0.4,0c0.8,0.7,1.5,1.6,2.4,2
		c1.6,0.6,2.7,1.9,4.1,2.8c0.6,0.4,1.1,0.8,1.7,1.2c-0.1,0.1-0.2,0.3-0.2,0.5c0.1,0.1,0.2,0.2,0.2,0.1c0.8-0.3,1.5,0.4,1.6,1.2
		c0.1,0.9-0.6,1.4-1.1,2c-0.7,0.9-1.5,1.8-2.3,2.7c-0.3,0.3-0.3,0.8-0.5,1.2c-3.3,4.4-6.5,8.9-9.8,13.3c-0.2,0.3-0.6,0.5-0.9,0.7
		c0,0.2,0,0.6-0.1,0.8c-0.3,0.5-0.6,0.9-1,1.3c-0.2,0.2-0.5,0.3-0.8,0.3c-0.4,0-0.5,0.1-0.5,0.6c0,0.7-0.4,1.4-0.9,2
		c-1,1.4-2,2.7-3,4.1c-1,1.3-2,2.6-3,3.9c-0.1,0.1-0.5,0.1-0.6,0.2c-0.2,0.2-0.3,0.5-0.4,0.7c0.1,0,0.1,0.1,0.2,0.1
		c-2.1,2.9-4.2,5.8-6.3,8.6c-0.8,1-1.8,1.9-2.6,2.9c-0.4,0.5-0.5,1.1-0.8,1.6c-0.9,1.4-1.9,2.7-3,4.1c0.4,0.2,0.8,0.3,1.1,0.5
		c0.2,0.1,0.5,0.3,0.7,0.4c0.1,0.1,0.3,0.1,0.4,0.1c1.3-0.9,2.7-0.2,4.1-0.4c0.4-0.1,0.8,0,1.2,0c0.6,0,1.2,0,0.8,1
		c0.3-0.4,0.5-0.6,0.6-0.8c0.1,0.3,0.4,0.7,0.4,1c0,1.7,0,3.5,0,5.2c0,2.6,0,5.2,0,7.8c0,0.2,0,0.4,0,0.7c-0.3,0-0.6,0.1-0.8,0.1
		c0,0.1-0.1,0.2-0.1,0.2c0.2,0.2,0.5,0.4,0.8,0.8c-0.1,0.5,0.5,1.5-0.3,2.1c0.1,0.3,0.4,0.5,0.4,0.7c0,5.6,0,11.2-0.1,16.9
		c0,0.8,0.1,1.7,0.1,2.5c0,1,0.1,2.1,0,3.1c-0.1,1,0.1,1.9,0.1,2.9c-0.1,1,0,2.1,0,3.1c0,0.3-0.2,0.5-0.3,0.8
		c-0.1,0.1-0.2,0.3-0.3,0.4c0.2,0.1,0.3,0.1,0.4,0.1c0,2.6,0,5.1,0,7.6c0,1.5,0.1,3.1,0.1,4.6c0,1.9-0.1,3.8-0.1,5.7
		c0,2.3,0.1,4.5,0.1,6.8c0,0.6-0.1,1.1-0.9,1.1c0.3,0.2,0.6,0.4,0.9,0.6c0,2.9,0,5.8,0,8.7c0,0.3-0.3,0.5-0.5,0.8
		c0.1,0,0.3,0.1,0.5,0.2c0,2.8,0,5.6,0,8.4c0,0.8,0.1,1.7,0.1,2.5c0,6.2,0,12.5,0,18.7C314.5,189.6,314.4,190.1,314.4,190.4
		c-0.2,0-0.5,0-0.6,0.1c-0.4,0.4-0.6,0.8-1,1.3c0.1,0.2,0.2,0.4,0.3,0.5c0.2-0.2,0.5-0.5,0.8-0.8c0-0.1-0.2-0.3-0.3-0.5
		c0.1,0.1,0.2,0.1,0.3,0.2C314,191,314.2,190.7,314.4,190.4z M324.1,32.6c0.5,0.1,1,0.1,1.3,0.4c1.5,1,2.9,2.1,4.5,3.3
		c0.3-0.3,0.7-0.7,1-1.1c1.1-1.5,2.2-2.9,3.3-4.4c0.1-0.2,0.2-0.6,0.1-0.7c-0.7-0.7-1.4-1.4-2.1-2.1c-0.3-0.3-0.5-0.6-0.7-0.9
		c-0.1-0.2-0.1-0.5-0.2-0.8c-0.1,0-0.2,0.1-0.2,0.1c0.1,0.3,0.1,0.6,0.2,0.9c-0.1,0-0.2,0-0.2,0c-1.3-0.8-2.2-2-3.7-2.5
		c-0.2-0.1-0.4-0.4-0.4-0.7c-0.1-0.4-0.1-0.9-0.1-1.4c-0.5,0.3-0.8,0.6-1,0.7c0.2,0.2,0.5,0.3,0.6,0.5c0.1,0.3,0.1,0.7,0.2,0.9
		c0.2,0.4,0.2,0.6,0,0.9c-1.3,1.8-2.7,3.6-4,5.3c0.6,0.4,1.1,0.8,1.6,1.2C324.2,32.4,324.1,32.5,324.1,32.6z M287.3,94.5
		c-2.3-1.7-4.4-3.3-6.6-4.9c-0.9-0.7-1.5-0.3-1.8,0.8c-0.4,1.7-0.7,3.4-1.2,5.1c-0.3,0.9,0.2,1.3,0.9,1.6c0.6,0.3,1.2,0.3,1.8,0.6
		c0.5,0.3,1,0.2,1.4-0.1C283.6,96.7,285.4,95.7,287.3,94.5z M210.4,78.3c0-0.1,0-0.1,0-0.2c-0.8-0.2-1.6-0.3-2.3-0.5
		c-0.9-0.2-1.1-0.1-1.2,0.8c0.6-0.2,1.2-0.3,1.8-0.5c-0.1,0.9-0.2,1.6-0.3,2.5c0.3-0.3,1.1,0,0.7-0.9c-0.1-0.2,0.4-0.6,0.7-0.8
		C209.8,78.5,210.1,78.4,210.4,78.3z M318.6,50.4c1-0.2,1.9-0.4,2.9-0.6C320.6,49.3,319,49.6,318.6,50.4z M305,161.8
		c0.4,0.4,0.8,0.7,1.1,1c0.3-0.3,0.5-0.7,0.9-1.2C306.1,161.6,305.6,161.7,305,161.8z M308.4,169.1c-0.6,0-1.1-0.1-1.6-0.1
		c0.1,0.6,0.2,1.1,0.2,1.4C307.5,169.9,307.9,169.5,308.4,169.1z M290.4,83.1c0.3-0.5,0.7-1,0.6-1.3c-0.1-0.4-0.7-0.6-0.9-0.9
		C290.2,81.6,290.3,82.2,290.4,83.1z M311.2,100.2c-0.1,1.2-1.1,0-1.5,0.7c0.2,0,0.4,0.1,0.6,0.2c-0.3,0.4-0.5,0.7-0.7,0.9
		c0.1,0,0.1,0.1,0.2,0.1c0.5-0.5,1.1-0.9,1.6-1.4C311.5,100.6,311.3,100.3,311.2,100.2z M310.8,106.4c0,0.1-0.1,0.2-0.1,0.2
		c0.6,0.2,1.3,0.4,1.9,0.6c0-0.3,0-0.6,0-0.8C312,106.4,311.4,106.4,310.8,106.4z M305.6,185c1.2,0.5,0.7-1,1.5-1
		c-0.3-0.1-0.6-0.2-1-0.2C305.9,184.2,305.8,184.5,305.6,185z M305.4,140.9c0.1,0.6,0.1,1.1,0.2,1.6c0.1,0,0.2,0.1,0.2,0.1
		c0.3-0.3,0.5-0.6,0.8-0.9C306.2,141.4,305.9,141.2,305.4,140.9z M296.1,78.3c-1,0.2-1.3,0.5-1,1.1c0.1,0.1,0.3,0.1,0.5,0.2
		C295.8,79.3,295.9,78.9,296.1,78.3z M263.2,82.9c0,0,0.1,0.1,0.1,0.1c0.1,0,0.2,0,0.2-0.1c0.2-0.2,0.4-0.4,0.7-0.6
		c-0.3-0.1-0.5-0.2-0.8-0.3c-0.2-0.1-0.4-0.2-0.6-0.4c-0.1,0.2-0.1,0.3-0.2,0.5c0.3,0.1,0.6,0.2,0.9,0.3
		C263.4,82.6,263.3,82.7,263.2,82.9z M278.1,222.4c-0.4,0.2-0.4,0.2,0.1,1.3c0.3-0.2,0.6-0.4,0.9-0.5
		C278.8,222.9,278.5,222.7,278.1,222.4z M307.2,133.8c0.3,0.1,0.6,0.3,1,0.5c0.1,0,0.3,0.1,0.4,0c0.1,0,0.1-0.3,0.1-0.3
		c-0.4-0.3-0.9-0.7-1.3-1C307.3,133.4,307.3,133.6,307.2,133.8z M225.8,83c0.3-0.3,0.6-0.5,0.8-0.8c0-0.1-0.1-0.2-0.1-0.3
		c-0.5,0-0.9,0.1-1.5,0.1C225.3,82.5,225.4,82.7,225.8,83z M307.7,199.1c-0.7-0.1-1-0.1-1.4-0.1c-0.5-0.1-0.6,0-0.4,0.5
		c0.1,0.2,0.2,0.4,0.3,0.6c0.2-0.2,0.4-0.4,0.6-0.6C307,199.4,307.3,199.3,307.7,199.1z M313.6,152c-0.3,0.5-0.5,0.9-0.8,1.5
		C313.7,153.4,314,152.9,313.6,152z M233.3,218.6c-0.2-0.2-0.5-0.3-0.7-0.5c0.1,0.4,0.3,0.8,0.6,1.1c0,0,0.5-0.1,0.6-0.3
		c0.1-0.2,0.1-0.5,0.2-0.8c-0.1,0-0.2,0-0.2-0.1C233.5,218.2,233.4,218.4,233.3,218.6z M296.6,218.7c0,0.1,0,0.2,0.1,0.3
		c0.5-0.1,0.9-0.1,1.4-0.2c0,0,0-0.4,0-0.8C297.4,218.3,297,218.5,296.6,218.7z M323.5,27.8c0.2,0,0.7,0.2,0.7,0
		c0.2-0.3,0.3-0.7,0.3-1.1c0,0-0.3-0.2-0.3-0.2c-0.1,0.1-0.2,0.3-0.3,0.4C323.9,27.2,323.7,27.4,323.5,27.8z M255.2,223
		c0.4,0,0.8,0.1,0.9,0c0.5-0.6,0.3-1-0.4-1.1C255.6,222,255.4,222.6,255.2,223z M293.8,221.3c0.1-0.5,0.2-0.9,0.3-1.2
		c-0.4-0.1-0.7-0.1-1.2-0.2C293.2,220.4,293.5,220.7,293.8,221.3z M286.3,219.1c0,0.1,0.1,0.1,0.1,0.2c0.5,0,1,0,1.6,0
		c-0.4-0.3-0.6-0.6-0.9-0.7C286.9,218.6,286.6,219,286.3,219.1z M304.3,149.7c0.2,0.1,0.6,0.1,0.9,0.2c-0.3-1.2-0.3-1.2-0.7-1.1
		C304.4,149.1,304.4,149.4,304.3,149.7z M334.8,27.2c0.4-0.3,0.8-0.5,1.2-0.7c-0.4-0.5-1.3,0.4-1.4-0.6
		C334.7,26.2,334.7,26.6,334.8,27.2z M300.6,220c-0.1,0.1-0.2,0.2-0.3,0.4c0.3,0.2,0.5,0.4,0.8,0.6c0,0,0.3-0.3,0.4-0.5
		C301.2,220.3,300.9,220.1,300.6,220z"/>
	<path class="st0" d="M119,203.8c-0.5,0-1-0.2-1.3-0.6c-0.5-0.5-0.7-0.9-0.7-1.5c0-0.5,0.2-1,0.7-1.4l0.8-0.7c1.7-1.7,3.6-3.4,5.4-5
		c0,0,0.1-0.1,0.1-0.1l0.6-0.5c0.2-0.2,0.2-0.2-0.1-0.9l0-0.1c-1.5-3.4-1.1-6.5,1.1-9.2c0.7-0.8,1.4-1.4,2.4-1.9
		c0.1-0.1,0.3-0.7,0.3-1.3c0-0.5-0.1-1.1-0.2-1.7c-0.1-0.4-0.1-0.8-0.2-1.3c-0.1-1-0.1-2-0.2-2.9c-0.1-1.2-0.1-2.4-0.2-3.6
		c-0.1-0.7-0.2-1.5-0.3-2.2c-0.1-0.5-0.1-1.1-0.2-1.6l-1.1,0.3l-0.2-0.5c-0.1,0-0.2,0.1-0.3,0.2c-0.2,0.1-0.3,0.1-0.5,0.1l-0.1,0
		l-3.3,0c-1.7,0-3.3,0-5,0c-0.3,0-0.6-0.1-0.7-0.2c0,0-0.1,0-0.1,0l0,0c-0.1,0.1-0.3,0.2-0.4,0.3c-0.8,0.6-1.6,1.1-2.3,1.7
		c-0.7,0.6-1.4,1.2-2.1,1.8c-0.6,0.6-1.3,1.1-1.9,1.7c-1.3,1.1-2.3,2-3,2.9c0,0,0,0.4,0,0.6c0,0.1,0,0.2,0,0.4
		c0.1,0.1,0.2,0.3,0.3,0.4c0.2,0.5,0,0.9-0.2,1.2c0.8,0.8,0.5,1.7,0.3,2.3c-0.1,0.2-0.1,0.5-0.1,0.6c0,0.3,0,0.9-0.4,1.3
		c0,0-0.1,0.1-0.2,0.1c0,0,0,0,0,0.1c0.1,0.5-0.2,0.9-0.4,1.1c0,0-0.1,0.1-0.1,0.1c-0.7,1.3-1.9,2.3-3.5,3.2
		c-0.3,0.1-0.3,0.2-0.2,0.5c0.4,1.5,0.8,3,1.2,4.5c0.3,1.1,0.6,2.2,0.9,3.4c0.3,1.1,0,1.8-0.2,2.1c-0.3,0.3-0.7,0.7-1.6,0.7
		c-0.4,0-0.9,0-1.3-0.4c-0.3-0.3-0.4-0.7-0.4-1.2c0-0.1-0.2-0.4-0.3-0.6c-0.1-0.2-0.3-0.5-0.4-0.8c-0.1-0.3-0.1-0.6-0.1-0.8
		c0-0.1,0-0.1,0-0.2c0,0,0,0-0.1-0.1c-0.1-0.1-0.3-0.3-0.4-0.6c-0.1-0.3-0.2-0.6-0.3-1c-0.3-1-0.7-2-0.8-3.1
		c-0.2-1.1-0.7-1.6-2.1-1.9c-1.5-0.3-2.9-1-3.9-2.2c-0.8-0.9-1.4-1.7-1.7-2.5c-0.4-0.8-0.5-1.6-0.7-2.5l-0.1-0.5
		c-0.1-0.4,0.1-0.7,0.2-0.9l-0.5-0.5l0.4-0.3l0,0l0.1-0.6c0.6-3.1,2.4-5.2,5.4-6.3c1-0.4,2.1-0.6,3.1-0.6c1.7,0,3.2,0.5,4.7,1.5
		c0.2,0.1,0.4,0.2,0.5,0.2c0,0,0.2,0,0.5-0.3c0.6-0.5,1.2-1,1.7-1.6c0.6-0.5,1.2-1.1,1.8-1.6c0.5-0.5,1-0.9,1.6-1.3
		c0.8-0.7,1.7-1.4,2.5-2.2c0.2-0.2,0.4-0.4,0.6-0.7c0.1-0.2,0.2-0.3,0.3-0.5c0.1-0.2,0.2-0.3,0.3-0.4c0-0.1,0-0.2,0-0.3
		c-0.1-0.5-0.1-0.9-0.1-1.4c0-2.1,0-3.9,0.1-5.5l-0.1,0l0-3.4c0-2.8,0-5.7,0-8.5c0-0.5,0.1-0.9,0.4-1.1c0.4-0.4,0.8-0.4,1.2-0.4
		c1,0,2,0,2.9,0c0.9,0,1.8,0,2.6,0c0.3,0,0.5-0.1,0.8-0.1l-0.1-0.6c-0.2-0.1-0.4-0.2-0.5-0.4c-0.2-0.4-0.1-0.7,0-1
		c-1.1-1.2-2.6-3.8-2.7-5.2l-1.1-1.8l0.1-0.1c-0.2-0.2-0.3-0.4-0.4-0.6c-0.8-1.6-1.6-3-2.2-4.3c-0.2-0.4-0.3-0.8-0.3-1.2
		c0-0.1,0-0.1,0-0.2c-0.2-0.2-0.5-0.4-0.7-0.7c-0.6-1.2-1.2-2.4-1.8-3.6c-0.3-0.6-0.6-1.2-0.9-1.8c-0.2-0.5-0.8-0.5-1.2-0.5
		c-0.1,0-0.2,0-0.3,0c-0.2,0-0.3,0-0.5,0c-0.7,0-1.4-0.1-2-0.4c-0.9-0.4-1.8-0.9-2.6-1.5l-0.3-0.2c-0.3-0.2-0.4-0.5-0.5-0.8
		c-0.9-0.4-1.5-1.1-1.6-1.8c0-0.2,0-0.4,0-0.5c-0.4-0.3-0.5-0.8-0.6-1.1l0-0.2c-0.5-1.8-0.4-3.7,0.4-5.4c1.1-2.6,2.9-4.2,5.3-4.8
		c0.1,0,0.2,0,0.3,0c0.2,0,0.5,0.1,0.7,0.1l0-0.2l0.5-0.1c0.5-0.1,1-0.2,1.5-0.2c2.3,0,4.5,1.3,5.7,2.4c0.1,0.1,0.2,0.2,0.2,0.4
		c0.8,0.4,1.2,1.2,1.4,1.8c0.1,0.1,0.1,0.2,0.2,0.3c1,2.1,1.1,4.4,0.2,6.7l-0.2,0.4l-0.1,0l-0.2,0.4c-0.1,0.1-0.1,0.3-0.2,0.4
		c-0.2,0.3-0.3,0.7-0.6,1c-0.4,0.5-0.9,1-1.5,1.5c-0.4,0.3-0.4,0.4-0.2,0.7c1.5,2.9,3,5.9,4.3,8.6c0.2,0.3,0.2,0.6,0.3,0.9
		c0,0.2,0.1,0.4,0.2,0.6c0,0,0.1,0.1,0.1,0.1c0.2,0.1,0.4,0.3,0.5,0.6c0.6,1.2,1.2,2.4,1.7,3.6c0.6,1.2,1.2,2.5,1.8,3.7
		c0.9,1.8,1.7,3.4,2.6,4.9c0.2,0,0.6,0,0.8,0l0.1,0c1.6,0,3.3,0,4.9,0c1.4,0,2.9,0,4.3,0c0.5,0,0.9-0.2,1.1-0.9l0-0.1
		c0.1-0.5,0.3-1.1,0.5-1.6c0.1-0.3,0.4-0.5,0.5-0.7c0,0,0.1-0.1,0.1-0.1c0.1-0.1,0.1-0.1,0.2-0.2c-0.2-1.3-0.2-1.5,0.2-2.8l0.2-0.6
		c0.4-1.2,0.7-2.4,1-3.6c0.1-0.5,0.3-0.9,0.6-1.1c0-0.1,0-0.2-0.1-0.3c-0.1-0.2-0.2-0.4-0.4-0.5l0.1,0.4l-1.3-1.5
		c0,0-0.5-0.4-0.5-0.4l0.1-0.1c-1.2-1.3-1.8-2.9-2-4.7c-0.1-1,0-2.1,0.2-3c0.3-1.3,0.8-2.3,1.4-3c1.8-2.3,4.1-3.5,6.7-3.5
		c0.3,0,0.5,0,0.8,0c0,0,0,0,0,0c0.2,0,0.3,0,0.3-0.1c0,0,0,0,0-0.1c0-0.6,0.2-1.1,0.4-1.5c0.1-0.2,0.1-0.3,0.2-0.5
		c0.2-0.4,0.3-0.9,0.5-1.3c0.4-1,0.7-2,1-3c0.2-0.8,0.7-1.3,1.2-1.6l-0.4-0.3l0.2-0.5c0-0.1,0.1-0.3,0.1-0.4
		c0.1-0.4,0.2-0.8,0.4-1.2c0.4-0.7,0.9-1.1,1.6-1.1c0.2,0,0.4,0,0.6,0.1c1.3,0.5,1.9,1.3,1.6,2.4c-0.2,0.8-0.5,1.5-0.8,2.2
		c-0.2,0.4-0.3,0.8-0.5,1.2c-0.1,0.3-0.2,0.6-0.3,0.9c-0.1,0.2-0.1,0.5-0.2,0.7l-0.4,1.3c-0.4,1.3-0.8,2.5-1.3,3.8
		c-0.1,0.2-0.1,0.2,0.2,0.5l0.3,0.3c0.8,0.9,1.7,1.9,2.5,3c0.5,0.7,1,1.7,0.6,3.1c-0.1,0.4,0,0.8,0,1.3c0.1,0.5,0.1,1,0,1.5
		c-0.3,2.6-2.9,5.5-5.5,6.1c-0.6,0.1-1.3,0.2-1.9,0.2c-0.5,0-0.9,0.1-1.3,0.1c-0.1,0-0.2,0.1-0.2,0.2c-0.1,0.3-0.2,0.7-0.3,1
		c-0.1,0.3-0.1,0.5-0.2,0.8c-0.1,0.2-0.2,0.5-0.3,0.6c0,0.2-0.1,0.4-0.1,0.5c-0.1,0.5-0.1,0.9-0.2,1.4c-0.6,2.2-1.2,4.3-1.9,6.5
		c0,0.1,0,0.1,0,0.2c0,0,0,0,0,0c0.7,0,1.4,0,2,0.1c0.5,0,1.1,0.1,1.6,0.1c0.5,0,0.9,0,1.4,0c0.4,0,0.8,0,1.1,0c0.1,0,0.1,0,0.2,0
		c0.7,0,1,0.3,1.3,0.5c0.3,0.3,0.5,0.8,0.5,1.3c0,0.3-0.1,0.7-0.2,0.9c-0.1,0.2-0.1,0.4-0.1,0.6c0,0,0,0,0,0c0,0,0,0.1,0.1,0.1
		c0.1,0.2,0.2,0.4,0.2,0.7l0,0.4c0,0.8,0.1,1.6,0,2.4c-0.1,0.8-0.1,1.5,0,2.3c0,0.5,0.1,1,0.1,1.6c0,1.3,0,2.6,0,3.8l0,0.4
		c0,1,0,2,0,3l0,2l-0.2,0c0.3,0.6,0.2,1.2,0.2,1.7c0,0.2,0,0.3,0,0.5c0,0.5-0.2,1-0.5,1.4c-0.3,0.4-0.8,0.5-1.4,0.6
		c-0.4,0-0.8,0-1.2,0c-0.9,0-1.9,0-2.8,0l-1.8,0l-3.3,0v0l-2.9,0c-0.5,0-2.2,0-2.2,0c-0.3,0-0.5,0-0.6,0c0,0.2,0,0.6,0,1l0,0.5
		c0,0.1,0,0.3,0,0.5c0,0.1-0.1,0.3-0.1,0.4l0.2,0c0,0,0.4,6.1,0.5,7.7c0.1,0.9,0.1,1.8,0.2,2.7c0,0.3,0.1,0.5,0.7,0.5
		c1.2,0.1,2.8,0.4,4.2,1.5c0.4,0.3,0.6,0.6,0.9,0.8c0.1,0.1,0.1,0.2,0.2,0.2l0.3,0.4l-0.1,0.2c0.2,0,0.4,0.1,0.7,0.2
		c0.2,0.1,0.2,0.1,0.3,0.1c0.1,0,0.3,0,0.5-0.1c1.1-0.5,2.1-1,3.2-1.4c0.6-0.2,1.1-0.5,1.7-0.7c0.4-0.2,0.7-0.2,1-0.2
		c0.7,0,1.2,0.3,1.5,0.9c0.3,0.6,0.5,1.7,0,2.3c-0.1,0.2-0.3,0.3-0.4,0.5l0.5,0.2l-2.1,0.6l-0.2,0l-1.2,0.5c-0.8,0.3-1.6,0.7-2.4,1
		c-0.4,0.1-0.5,0.3-0.4,0.7c0.1,2.3-0.5,4.4-1.8,6.1c-0.2,0.3-0.6,0.7-1,1l0.1,0.2l-0.6,0.4c-1.7,1.2-3.5,1.7-5.2,1.7
		c-1.3,0-2.6-0.3-3.8-0.9c-0.2-0.1-0.4-0.2-0.6-0.2c-0.1,0-0.3,0-0.6,0.3c-0.3,0.2-0.5,0.4-0.8,0.7c-0.8,0.6-1.6,1.3-2.4,2
		c-0.6,0.6-1.3,1.3-1.9,1.9c-0.4,0.4-0.8,0.9-1.3,1.3C120.1,203.5,119.5,203.8,119,203.8z M131.9,184.6c-0.9,0-1.8,0.3-2.7,1
		c-1.1,0.9-1.7,2.2-1.8,3.6c0,1.3,0.4,2.5,1.3,3.4c0.2,0.2,0.3,0.4,0.5,0.5c0.1,0.1,0.2,0.3,0.3,0.4c0.2,0,0.4,0.1,0.6,0.1
		c0.7,0.2,1.3,0.3,1.9,0.3h0c0.5,0,1-0.1,1.4-0.3c0.8-0.4,1.6-0.8,2.2-1.4c0.2-0.2,0.3-0.5,0.4-0.9c0.2-0.5,0.4-1.1,0.9-1.5
		c-0.2-0.4-0.4-0.8-0.5-1.3c-0.3-1.6-1.3-2.9-2.8-3.5C133.1,184.8,132.5,184.6,131.9,184.6z M93.2,178.2c0,0.2,0,0.4,0,0.6
		c0,0.4,0,0.7,0,1.1c0.1,1.4,1.7,3.3,2.7,3.6c0.6,0.2,1.2,0.2,1.7,0.2c1.3,0,2.4-0.4,3.4-1.4c0.1-0.1,0.1-0.1,0.2-0.2l0.4-0.7
		c1-1.8,0.9-3.4-0.3-5c-0.9-1.2-2.2-1.9-3.7-1.9c-1.7,0-3.3,0.9-4.1,2.5c-0.1,0.1-0.1,0.2-0.1,0.3c-0.1,0.2-0.2,0.4-0.3,0.7V178.2z
		 M116,163.3c0,0,0.1,0,0.4,0l2,0c2.3,0,4.7,0.1,7,0.1l0.2,0c2.4,0,4.8,0,7.2-0.1c1.5,0,3,0,4.5,0c0.6,0,1.2,0,1.8,0l2.8,0
		c0.5,0,1.1,0,1.6,0c0.5,0,0.6-0.1,0.6-0.6c0-1,0-2,0-2.9l0-4.4c0-2.6,0-5.2,0-7.8c0-0.6-0.1-0.7-0.1-0.8c0,0,0,0,0,0
		c-0.1,0-0.2,0-0.5,0l-0.1,0c-2,0-3.9,0-5.9,0c-2.2,0-4.4,0-6.5,0l-1,0c-0.3,0-0.6-0.1-0.8-0.2c0,0,0,0,0,0
		c-0.4,0.2-1.2,0.3-2.5,0.3c-1,0-2.3-0.1-3.1-0.4c-0.2,0.1-0.5,0.3-0.9,0.3c-1.1,0-2.1,0-3.2,0c-0.7,0-1.4,0-2,0l-0.3,0
		c-0.5,0-0.8,0-1.1,0.1c0.1,0.2,0.2,0.5,0.2,0.8c0,0.7,0,1.5,0,2.2c0,0.8,0,1.6,0,2.4c0,0.6,0,1.2,0,1.8c0,0.9-0.1,1.7,0,2.5
		c0,0.3,0,0.5,0,0.8c0,0.1,0,0.2,0,0.4c0,0.6,0,1.1,0,1.7c0,1.1,0.1,2.1,0,3.2C116,163.1,116,163.3,116,163.3
		C116,163.3,116,163.3,116,163.3z M143.4,118.6c-1.5,0-3.4,0.5-4.4,3.1c-0.7,1.7-0.1,3.8,1.4,5c1,0.8,1.9,1.2,2.8,1.2
		c0.8,0,1.6-0.3,2.5-0.8l0.2-0.2c1.2-0.8,1.8-1.9,1.9-3.4c0-0.2,0-0.3,0.1-0.5l0,0l-0.1-0.7c-0.3-2-2.3-3.5-3.9-3.7
		C143.8,118.6,143.6,118.6,143.4,118.6z M103.6,113.8c0.2,0.3,0.4,0.6,0.6,1c0.2,0.4,0.4,0.7,0.7,1c0.9,0.9,1.9,1.3,2.9,1.3
		c0.1,0,0.3,0,0.4,0c0.5-0.1,1-0.1,1.4-0.2c0.1,0,0.2,0,0.4-0.1c0.1-0.1,0.2-0.3,0.4-0.4c0.2-0.3,0.5-0.5,0.8-0.8
		c0.5-0.5,1-0.9,1.2-1.4c0.3-0.7,0.3-1.6,0.1-2.8c-0.4-2-2.3-3.6-4.5-3.6c-0.2,0-0.5,0-0.7,0.1c-1.2,0.2-2.2,0.7-2.7,1.5
		c-0.4,0.6-0.8,1.3-1.1,2.1c-0.1,0.2-0.2,0.3-0.2,0.5c0,0,0,0.1,0,0.1c0.1,0.4,0.2,0.8,0.2,1.1L103.6,113.8
		C103.5,113.7,103.6,113.8,103.6,113.8z"/>
	<path class="st0" d="M242.1,140.8c-0.6,0-1.2,0-1.7-0.1c-0.3,0-0.6,0-0.9,0c-0.4,0-0.9,0-1.3,0c-0.5,0-0.9,0.1-1.4,0.1
		c-0.2,0-0.4,0-0.5,0c-0.2,0-0.4,0-0.7-0.1v0c0,0-2.7,0-3.1,0c-0.6,0-1.3,0-1.9,0l0,0h-1c-0.3,0-0.6,0-0.9,0c-0.3,0-0.6,0-0.9,0
		c-0.4,0-0.9,0-1.3,0c-0.9-0.1-1.5-0.8-1.5-1.8l0-1.7c0-1.2,0-2.5,0-3.7c0-0.3,0.1-0.6,0.2-0.8c-0.1-0.2-0.2-0.5-0.2-0.8
		c0-2.1,0-4.2,0-5.9c0-0.3,0.2-0.6,0.2-0.7c0,0,0-0.1,0-0.1c-0.6-0.8-0.3-1.7-0.1-2.4c-0.1-0.2-0.2-0.4-0.2-0.7c0-0.8,0-1.5,0.1-2.2
		c0-0.7,0-1.3,0.1-2c0-0.1,0-0.2,0-0.3c0-0.2-0.1-0.5-0.1-0.7c0.1-1.2,0.1-2.5,0-3.8c0-0.9-0.1-1.7,0-2.6c0-1.6,0-3.2,0-4.8
		c0-0.7,0-1.4,0-2.1l0-6.8c0-1.6,1-2.2,1.9-2.2c0.1,0,0.2,0,0.2,0c1.2,0.1,1.9,1,1.8,2.2c0,0.4-0.1,0.9-0.2,1.3l0.1,0.4
		c0,0.1,0.1,0.2,0.1,0.4l0,5.5c0,4.6,0,9.1,0,13.7c0,0,0,0.1,0,0.1c0.6-0.7,1.2-1.4,1.8-2.1c0.1-0.1,0.1-0.2,0.2-0.3
		c0.2-0.2,0.4-0.6,0.7-0.8l4.3-5.1l0.2,0.1c0.1-0.3,0.2-0.6,0.5-0.9c0.6-0.8,1.3-1.6,2-2.4l0.7-0.8c0.4-0.5,0.9-0.7,1.5-0.7
		c0.5,0,1.1,0.2,1.8,0.6c0.4,0.2,0.8,0.5,1.2,0.7l2.1,1.2c1.3,0.8,2.7,1.5,4,2.3c0.3,0.2,0.4,0.4,0.5,0.6c0,0,0,0.1,0.1,0.1
		c0,0,0.1,0.1,0.1,0.2c0.1,0,0.2,0,0.3,0c0.6,0,1.1,0.3,1.5,0.6c0.2,0.1,0.3,0.2,0.4,0.3c0.4,0.2,0.8,0.4,1.1,0.6
		c0.2,0.2,0.5,0.3,0.7,0.4c0.1,0,0.2,0.1,0.4,0.1c0.1,0,0.2,0,0.3,0c0.1-0.1,0.3-0.1,0.4-0.1c0.1,0,0.3-0.1,0.3-0.1c0,0,0,0,0-0.1
		c0.1-0.6,0.6-0.9,1-1.2c0.2-0.1,0.4-0.2,0.4-0.3c0,0,0.1-0.1,0.1-0.2c0.1-0.2,0.2-0.4,0.4-0.6c0.3-0.3,0.7-0.6,1-1
		c0.3-0.3,0.6-0.5,0.9-0.8c0.5-0.5,1-1,1.5-1.5c0.6-0.6,1.2-1.2,1.7-1.7c0.3-0.2,0.5-0.4,0.8-0.6c0,0,0.1-0.1,0.1-0.1
		c0.5-1.1,2.3-2.7,3.3-3l0.4-0.1c0.2-1.2,1.9-3,3-3h0l0.1,0c0.7,0.1,1.4,0.6,1.9,1.2c0.4,0.6,0.1,1.7-0.4,2.2
		c-3.2,3.2-6.4,6.4-10,9.9c-0.8,0.8-1.6,1.6-2.5,2.4c-0.8,0.8-1.6,1.5-2.4,2.3c-0.8,0.8-1.4,1.2-2.2,1.2c-0.6,0-1.2-0.3-2-0.8
		c-2-1.2-4-2.3-5.9-3.4l-3.5-2c-0.7-0.4-1.5-0.8-2.2-1.3c-0.2-0.1-0.3-0.1-0.3-0.1c0,0-0.1,0-0.1,0.1c-0.9,1-1.8,2.1-2.7,3.1
		l-0.6,0.7l0.3,0.1l-1,1c-0.5,0.4-0.9,1-1.3,1.5c-0.6,0.8-1.2,1.5-2,2.2l0.1,0.3l-1.1,0.5l0.1,0.3l-0.3,0.4
		c-0.5,0.7-1.1,1.4-1.7,2.1c-1,1.1-2,2.2-2.4,3.6l-0.1,0.2c0.1,0.4,0.3,0.9,0.3,1.4c0,1.3,0,2.7,0,4l0,0.6c0,0.4-0.2,0.6-0.3,0.8
		l-0.1,0.1c-0.1,0.1-0.1,0.2-0.2,0.4l0.7,0.1l0,1.4c0,0.6,0,1.2,0,1.8c0,0.2,0,0.4,0.1,0.4c0,0,0.1,0.1,0.4,0.1c0.7,0,5.1,0,5.1,0
		h0.6l0,0.1h6.3l0.2,0.3c0.7-0.4,1.4-0.4,1.8-0.4l0.6,0c0.7,0,1.3,0,2,0l5.5,0c0.9,0,1.8,0,2.6,0c0.2,0,0.5,0.1,0.6,0.1
		c0.1,0,0.2,0.1,0.3,0.1c0,0,0,0,0,0c0.2,0,0.3,0,0.5,0c0.1,0,0.2,0,0.3,0l0.1,0c0.2,0,0.4,0,0.5,0l5.4,0c0.2,0,0.3-0.1,0.5-0.1
		c0.2,0,0.4,0,0.5,0c0.1,0,0.2,0,0.4,0c3.2,0,6.5,0,9.7,0c3.4,0,6.9,0,10.3,0c0.3,0,0.5,0.1,0.8,0.2c0.1,0,0.2,0.1,0.3,0.1
		c0.1,0,0.2,0,0.3,0c0.3,0,0.6,0.1,0.8,0.3c0.4,0.3,0.6,0.9,0.5,1.6c-0.1,0.7-0.4,1.3-0.9,1.6c-0.5,0.3-1,0.3-1.3,0.3
		c-4.3,0-8.5,0-12.8,0l-17.9,0c-0.5,0-0.9,0-1.4,0c-0.5,0-0.9,0-1.4,0c-0.9,0-1.6,0-2.3-0.1c-0.1,0-0.2,0-0.3,0c-0.2,0-0.3,0-0.5,0
		c-0.2,0-0.3,0-0.5,0l-0.1,0c-0.5,0-0.8-0.2-1.2-0.3c0,0,0,0,0,0c0,0-0.1,0-0.1,0c-0.4,0.1-0.8,0.3-1.2,0.3
		C243.6,140.8,242.9,140.8,242.1,140.8z"/>
	<path class="st0" d="M230,157.3c-0.7,0-1.3,0-2,0c-1.4-0.1-2-0.6-2.3-1.1c-0.3-0.4-0.5-1.2,0-2.3c0.3-0.7,1.2-1.3,1.9-1.3l0.9,0
		c1.5,0,3,0,4.5,0c1.2,0,2.4,0,3.7,0l0.1,0c0.8,0,1.7,0,2.5-0.1c0.5,0,1,0,1.5-0.1l0.1,0c0.1,0,0.2,0,0.3,0c0.1,0,0.3,0,0.6,0.1
		c0.1,0,0.2-0.1,0.3-0.1c0.4,0,0.7,0,1.1,0c0.4,0,0.8,0,1.2,0c0.6,0,1.1,0,1.5,0.1c0.2,0,0.4,0.1,0.7,0.1c0.3,0,0.7,0,1-0.1
		c0.2,0,0.4,0,0.6,0c0.1,0,0.2,0,0.3,0c0.3,0,0.6,0,0.9,0c0.3,0,0.5,0,0.8,0c0.2,0,0.4,0,0.5,0c0.4-0.1,0.8-0.1,1.3-0.1
		c0.4,0,0.9,0,1.3,0l0.4,0c0.3,0,0.6,0.1,0.9,0.2c0.3-0.2,0.6-0.3,0.8-0.3c0.4,0,0.8,0.2,1.2,0.5c0.1,0,0.3-0.1,0.3-0.1
		c0,0,0.1,0,0.1-0.1c0.2-0.1,0.5-0.3,0.8-0.3c2,0,3.9,0,5.9,0c1.8,0,3.6,0,5.5,0l0.1,0c0.7,0,1.5,0,2.2,0c0.7,0,1.5,0,2.2,0
		c0.2,0,0.4,0,0.6,0c0.7,0,1.5,0,2.2,0c1,0,1.9,0,2.9,0c1,0,1.9,0,2.9,0c0.8,0,1.6,0,2.4,0c0.4,0,0.7,0.1,0.9,0.2
		c0.1,0,0.2,0.1,0.4,0.1c0.1,0,0.2,0,0.3,0c0.1,0,0.2,0,0.3-0.1l0.2,0l0.2,0.1c0.6,0.3,1.5,1.1,1,2.9c-0.2,0.5-0.7,1.5-2.4,1.5
		c-2,0-3.9,0-5.8,0l-6.2,0c-0.6,0-1.2,0-1.8,0c-0.6,0-1.2,0-1.8,0c-0.7,0-1.5,0-2.2,0c-1.2,0-2.4-0.1-3.6-0.2
		c-1.2-0.1-2.3-0.1-3.5-0.2h0c-0.1,0-0.3,0.1-0.5,0.1c-0.3,0.1-0.6,0.2-1,0.2c-1.2,0-2.3,0-3.5,0l-3.8,0H233c-0.5,0-1,0-1.5,0
		C231,157.3,230.5,157.3,230,157.3z"/>
	<path class="st0" d="M231.4,184.6c-0.2,0-0.5,0-0.7,0c-0.2,0-0.4,0-0.6,0l-1.3,0c-0.3,0-0.5,0-0.8,0c-1.3,0-1.9-0.6-2.3-1
		c-0.3-0.4-0.6-1.2-0.2-2.3c0.3-0.9,1-1.4,2.1-1.4c1,0,2,0,3,0c2,0,4.2,0.1,6.2,0.1l0.2,0c2.7,0,5.4,0,8.1-0.1c1.3,0,2.6,0,3.9,0
		l0.4,0c0.6,0,1.3,0,2,0.1l10.1,0c2.3,0,4.7,0,7,0c1.2,0,2.4,0,3.6-0.1c1.1,0,2.2,0,3.3-0.1c1.2,0,2.4,0,3.6,0l4.3,0l2.2,0
		c1.2,0,2,0.5,2.4,1.6h0.2l-0.1,0.3l0.2,0.5l-0.3,0.1l0,0c0,0.1,0,0.1,0,0.2c0,0.3-0.1,0.8-0.4,1.1c-0.5,0.4-1.1,0.8-1.8,0.8l-0.1,0
		c-1.9,0-3.8,0.1-5.7,0.1c-1.7,0-3.2,0-4.6-0.1c-0.2,0-0.4,0-0.6,0c-0.5,0-1,0-1.5,0c-0.5,0-1,0-1.5,0c-0.1,0-0.3,0-0.4,0
		c-1.4,0-2.8,0-4.2,0l-3.8,0c-0.8,0-1.6,0-2.4,0c-0.5,0-1-0.1-1.4-0.2c-0.1,0-0.2-0.1-0.3-0.1c-0.1,0-0.2,0-0.2,0.1
		c-0.4,0.1-0.8,0.2-1.2,0.2c-1.6,0-3.3,0-4.9,0c-1.3,0-2.6,0-3.8,0l-0.4,0c-0.4,0-0.8,0-1.1,0c-0.4,0-0.8,0-1.2,0
		c-0.5,0-0.9,0-1.4-0.1l-1.1-0.1c-0.6,0.1-1.2,0.1-1.8,0.1c-0.2,0-0.4,0-0.6,0c-0.3,0-0.6,0-0.9,0c-0.5,0-1,0-1.5,0
		c-0.5,0-1.1,0-1.6,0c-0.3,0-0.5,0-0.8,0c-0.5,0-1,0-1.5,0c-0.5,0-0.9,0-1.3,0.1c-0.1,0-0.1,0-0.2,0c-0.3,0-0.5-0.1-0.7-0.1
		c-0.1,0-0.3-0.1-0.4-0.1c-0.1,0-0.1,0-0.1,0C232.2,184.5,231.8,184.6,231.4,184.6z"/>
	<path class="st0" d="M274.3,175.3c0,0-1.1,0-1.9-0.3l0.1,0.2c0,0-15.2,0-17.4,0c-5,0-8.9,0-12.6-0.1l-0.2,0c-0.6,0-1.1,0-1.7,0
		c-0.6,0-1.1,0-1.7,0c-0.5,0-1,0-1.4,0c-0.4,0-0.6-0.2-0.7-0.4c0,0,0,0,0,0c-0.1,0-0.2,0-0.2,0c-0.1,0-0.2,0.1-0.3,0.1
		c-0.3,0.1-0.6,0.3-0.9,0.3c-0.1,0-0.2,0-0.3,0c-0.1,0-0.2,0-0.3,0c-0.2,0-0.3,0-0.5,0c-0.2,0-0.4,0-0.6,0c-0.3,0-0.9,0-1.4-0.3
		c-0.1,0-0.2,0.1-0.3,0.1c-0.3,0.1-0.6,0.2-1,0.2l-0.1,0c-0.6,0-1.2,0-1.8-0.1c-0.6,0-1.1-0.1-1.7-0.1c-1,0-1.6-0.6-1.6-1.5l0-0.2
		c0-0.7-0.1-1.5,0.4-2.2c0.4-0.5,1.1-0.5,1.4-0.5c0.1,0,0.6,0,0.6,0c0.1,0,0.1,0,0.2,0l0.4,0c0.4,0,0.8-0.1,1.1-0.1l2.1,0
		c1,0,2,0,3,0c1.2,0,2.5,0,3.7,0c0.3,0,0.5,0,0.8,0c0.5,0,1,0,1.5,0c0.5,0,1,0,1.6,0c0.2,0,0.4,0,0.6,0c0.6,0,1.2,0,1.8,0l5.3,0
		c0.7,0,1.4,0,2.1,0c0.4,0,0.8,0.2,1.1,0.3c0,0,0.1,0,0.1,0c0,0,0,0,0.1,0c0.3-0.1,0.8-0.3,1.3-0.3c1.1,0,2.2-0.1,3.3-0.1
		c0.9,0,1.8,0,2.6,0.1c0.2,0,0.4,0,0.7,0c0.4,0,0.8,0,1.2,0c0.4,0,0.9,0,1.3,0c0.2,0,0.4,0,0.5,0c0.5,0,1,0,1.5,0c0.4,0,2,0,2.4,0
		l7.9,0c0.2,0,0.4,0,0.6,0c0.2,0,0.5,0,0.7,0c0.4,0,0.8,0,1.1,0.1c0.1,0,0.2,0,0.2,0.1l-0.2-0.9l2.4,1.1c0.4-0.3,1-0.3,1.1-0.3
		l0.3,0c0.4,0,0.7,0,1.1,0c0.4,0,0.7,0,1.1,0c0.6,0,1.1,0,1.6,0c0.1,0,0.1,0,0.2,0c1.2,0,1.7,0.9,1.8,1.3c0.4,0.7,0.3,1.6-0.1,2.3
		c-0.4,0.7-1.2,1.2-2,1.2c-0.4,0-0.9,0-1.3,0c-0.7,0-1.4,0-2.1,0c-1.1,0-2,0-2.8-0.1c-0.1,0-0.2,0-0.2,0c-0.2,0-0.5,0-0.7,0
		c-0.3,0-0.6,0-0.8,0c-0.2,0-0.4,0-0.6,0c-0.2,0-0.5-0.1-0.7-0.2c-0.2-0.1-0.5-0.1-0.7-0.1c-0.1,0-0.1,0-0.2,0
		C275.1,175.3,274.6,175.3,274.3,175.3z"/>
	<path class="st0" d="M256,193.9c-0.4,0-0.8-0.1-1.1-0.1c-0.3,0-0.5-0.1-0.7-0.1c0,0,0,0,0,0c-0.1,0-0.2,0-0.3,0c-0.1,0-0.2,0-0.3,0
		c-0.6,0.1-1.1,0.1-1.6,0.1c-0.6,0-1-0.1-1.5-0.2c0,0-0.1,0-0.1,0c-0.1,0-0.2,0-0.3,0c-0.2,0-0.3,0.1-0.5,0.1l-0.5,0
		c-1,0-1.9,0-2.9,0c-1,0-2,0-2.8-0.1c0,0-0.1,0-0.1,0c-0.2,0-0.4,0-0.6,0.1c-0.3,0-0.5,0.1-0.8,0.1c-0.3,0-0.5,0-0.8-0.1
		c-0.2,0-0.4-0.1-0.5-0.2c-0.2,0.1-0.5,0.2-0.8,0.2c-2.5,0-5,0-7.6-0.1l-3.8,0c0,0-0.1,0-0.1,0c-0.1,0-0.3,0.1-0.5,0.1
		c-0.7,0-1.4-0.3-1.9-0.8c-0.3-0.4-0.5-0.8-0.5-1.2c0.1-0.8,0.2-2.1,1.7-2.4l0.8-0.2l0.1,0.3c0.1,0,0.2,0,0.3,0c0.2,0,0.5,0,0.8,0.1
		l0,0c0,0,0.1,0,0.1,0c0.2-0.1,0.5-0.2,0.8-0.2l2.4,0c1.4,0,2.7,0,4.1,0c2,0,3.6,0,5.1,0.1c0.1,0,0.2,0,0.3,0c0.4,0,0.8,0,1.2,0
		c0.4,0,0.9,0,1.3,0c0.3,0,0.6,0,0.9,0c0.3,0,0.5,0.1,0.7,0.1c0.2,0,0.3,0.1,0.5,0.1c0.1,0,0.3,0,0.4-0.1c0.2-0.1,0.5-0.1,0.8-0.1
		c2.1,0,4.2,0,6.2,0l5.3,0l0.3,0.5l0.3-0.5h7.8c0.4,0,0.8,0,1.2,0c0.4,0,0.8,0,1.2,0c0.5,0,1,0,1.6,0c0.5,0,1,0.1,1.4,0.2
		c0.5,0.1,1,0.2,1.4,0.2c0.2,0,0.4,0,0.6-0.1c0.8-0.2,1.6-0.3,2.2-0.3l1,0c0.2,0,0.4,0,0.6,0c0.2,0,0.3,0,0.5,0c0.5,0,1.1,0,1.6,0.1
		c0.5,0,1,0.1,1.5,0.1l0.1,0c0.8,0,1.7-0.1,2.5-0.2c0.4,0,0.8-0.1,1.1-0.1l0.1,0l0.3-0.7l0.8,1.1c0.7,0.9,0.8,2,0.4,3.1
		c-0.3,0.6-1.1,1.1-1.7,1.1l-0.5,0c-1.1,0-2.1,0-3.2,0c-1.1,0-2.1,0-3.2,0l-0.2,0c-1.8,0-3.6,0-5.4,0.1c-2,0-4.1,0.1-6.1,0.1l-0.2,0
		c-0.8,0-1.6-0.1-2.4-0.1c-0.8-0.1-1.5-0.1-2.2-0.1c0,0,0,0,0,0c-0.7,0-1.4,0.1-2.1,0.1c-0.5,0.1-1.1,0.1-1.6,0.1c0,0,0,0,0,0
		c-0.4,0-0.7-0.2-0.9-0.3c-0.1,0-0.1-0.1-0.2-0.1c0,0-0.1,0-0.2-0.1C257.2,193.7,256.7,193.9,256,193.9z"/>
	<path class="st0" d="M265.5,165.8c-0.4,0-0.9,0-1.3,0c-0.4,0-0.6-0.2-0.9-0.3c-0.1,0-0.1-0.1-0.2-0.1c-0.2,0-0.4,0.1-0.7,0.1
		c-0.5,0.1-1.1,0.2-1.7,0.2c-3.2,0-6.4,0-9.6,0l-18.2,0l-1.2,0c-0.4,0-0.8,0-1.2,0c-0.1,0-0.3,0-0.4-0.1c-0.1,0.1-0.2,0.1-0.4,0.1
		c-0.9,0-1.9,0-2.8-0.2c-0.5-0.1-1-0.3-1.2-0.7c-0.3-0.4-0.4-1-0.3-1.5l0-0.2c0.1-0.6,0.4-1.9,1.8-1.9c0.1,0,0.1,0,0.2,0
		c0.3,0,0.7,0.1,1,0.2c0.4,0.1,0.8,0.1,1.2,0.1c0.5,0,0.9-0.1,1.4-0.2c0.3-0.1,0.6-0.1,1-0.1l0.1,0c0.3,0,0.5,0.1,0.7,0.2
		c0,0,0,0,0,0c0.2-0.1,0.6-0.2,1-0.2c1.6,0,3.2,0,4.8,0c1.4,0,2.8,0,4.2,0l0.1,0c0.7,0,1.4,0,2.2,0c0.7,0,1.5,0,2.2,0
		c0.2,0,0.5,0,0.7,0c0.7,0,1.4,0.1,2.1,0.2c0.5,0.1,1.1,0.1,1.6,0.1c0,0,0.2-0.1,0.2-0.1c0.2-0.1,0.5-0.2,0.8-0.2c2.1,0,4.2,0,6.2,0
		c2.2,0,4.3,0,6.5,0c0.4,0,0.7,0.2,1,0.3c0.1,0,0.2,0.1,0.3,0.1c0,0,0.1,0,0.1,0c0.9-0.4,1.9-0.5,2.7-0.5c0.3,0,0.6,0,0.9,0
		c0.3,0,0.6,0,0.8,0l0.1,0c1,0,2,0,3,0l6.7,0c0.7,0,1.5,0,2.2,0c0.2,0,0.3,0.1,0.4,0.1l0.1-0.4l1.9,0.5c0.3-0.2,0.6-0.3,0.9-0.3
		c1,0,1.2,1.1,1.3,1.7c0,0.1,0,0.1,0,0.2c0.1,0.8-0.1,1.5-0.5,1.9c-0.4,0.5-1,0.7-1.8,0.7l-18.7,0L265.5,165.8z"/>
	<path class="st0" d="M180.6,205.3c-0.3,0-0.6,0.1-0.9,0.1c-0.4-1.6,0.9-3.4,3.4-3.5c2.6,0,5.2-0.1,7.8,0c0.9,0.1,1.8-0.1,2.7-0.1
		c1,0.1,2,0,3,0c0.3,0,0.6,0.2,1,0.4c0.1,0,0.3-0.4,0.5-0.4c1.8,0,3.5,0.1,5.3,0.2c1.8,0.1,2.5,2,2.4,3.5c-0.1,1.3-1.5,2.6-3,2.6
		c-4.1,0-8.3,0-12.4,0c-2,0-4.1,0.1-6.2,0c0-0.2,0-0.4,0-0.7c-0.1,0-0.2,0-0.2,0c-0.5,0.9-1.2,0.8-2,0.6c-1.1-0.3-1.8-0.9-2.1-1.9
		C179.9,206,180.3,205.7,180.6,205.3z"/>
	<path class="st0" d="M202.8,97.5c0.2,0.3,0.3,0.4,0.3,0.6c-5.5,0-11,0-16.5,0c0-0.1,0-0.3,0-0.4c-0.2,0-0.3,0.1-0.5,0.1
		c-0.1,0.1-0.3,0.4-0.4,0.3c-1.4,0-2.7,0-4.1-0.2c-1.3-0.2-2.2-1.8-2-3.3c0.1-1.5,1.5-2.8,3-2.8c2.1,0,4.1-0.1,6.2,0
		c1.2,0.1,2.3-0.2,3.5,0c1.1,0.1,2.2,0.3,3.3,0.3c1.6,0,3.2-0.3,4.8-0.2c1.3,0,2.6-0.3,3.9,0.4c1.2,0.7,1.5,1.8,1.4,2.9
		c0,1.1-0.5,2.1-1.6,2.5C203.8,97.9,203.3,97.6,202.8,97.5z"/>
	<path class="st0" d="M186.7,119.9c-1.3,0.7-2.8,0.1-4,0.3c-0.2-0.5-0.3-1.2-0.7-1.4c-0.3-0.2-0.9,0-1.6,0.1c-1.6-1.5-0.4-4.9,1.9-5
		c-0.1,0.3-0.2,0.6-0.3,0.9c0.1,0.1,0.2,0.1,0.3,0.2c0.2-0.3,0.5-0.6,0.8-1c4.9,0,10.1,0,15.1,0c0.1,0.2,0.3,0.5,0.4,0.8
		c0.1,0,0.1-0.1,0.2-0.1c0-0.3,0-0.5,0-0.8c1.4,0,2.7-0.1,4.1,0c0.7,0.1,1.4,0.1,2,1.1c1.1,1.9,1.3,2.5,0.3,4
		c-0.7,0.9-1.7,1.1-2.7,1.1c-1.3,0-2.7-0.2-4-0.2c-2.1,0-4.3,0.2-6.4,0.2c-1.2,0-2.4,0-3.6,0C187.8,120.2,187.3,120,186.7,119.9z
		 M180.6,118.2c0.1-0.5,0.2-0.7,0.2-1c0.2,0.1,0.4,0.2,0.6,0.3c0.1,0,0.1-0.1,0.2-0.1c-0.3-0.3-0.6-0.7-0.9-1
		c-0.2,0.3-0.4,0.5-0.6,0.7C180.3,117.3,180.4,117.6,180.6,118.2z"/>
	<path class="st0" d="M197.2,136c0.2,0.2,0.4,0.3,0.5,0.4c0.1-0.7,0.8-0.4,1.1-0.4c1.5-0.1,3.1-0.2,4.6,0c2,0.3,2.9,2.7,2.1,4.1
		c-0.3-0.6-0.7-1.1-1.5-0.6c0.4,0.4,0.8,0.9,1.3,1.3c-1.2,1.5-2.1,1.7-2.8,0.6c-0.1,0.4-0.1,0.6-0.2,0.9c-2.3,0-4.8,0-7.3,0
		c-0.6,0-1.3,0.1-1.9,0.1c-2,0-4.1,0.1-6.1,0c-1.6-0.1-3.2,0-4.8-0.2c-1-0.1-2-0.7-2.5-1.8c-0.5-1.2-0.3-2.4,0.6-3.2
		c0.6-0.6,1.3-1.2,2.4-1.1c1.7,0.1,3.3,0.1,5,0c0.7,0,1.2,0.1,1.1,1.3c0.2-0.6,0.3-0.9,0.4-1.2C192,136,194.7,136,197.2,136z
		 M182,137.9c-0.3,0-0.6-0.1-0.9-0.1c0.1,0.7,0.1,1.2,0.1,1.9C181.6,139,181.8,138.6,182,137.9z"/>
	<path class="st0" d="M198.3,158.3c0.1-0.1,0.3-0.3,0.5-0.3c0.6,0.1,1.1,0.3,1.7,0.3c0.4,0,0.8,0,1.1-0.1c0.1,0.3,0.2,0.5,0.4,1
		c0.6-1.4,1.2-1.7,2.1-0.9c0.6,0.5,1.7,0.9,1.6,2c0,0.9-0.1,1.8-0.6,2.5c-0.4,0.6-1.5,1.3-2,1.2c-1-0.3-1.6,0.5-2.5,0.3
		c-1-0.2-2,0-3,0c-0.7,0-1.4,0-2.1,0c-0.2,0-0.3-0.2-0.5-0.3c-0.1-0.1-0.4-0.2-0.4-0.2c-0.5,1.1-1.4,0.1-2.1,0.4
		c-0.7,0.3-1.6,0.1-2.4,0c-0.3,0-0.5-0.2-0.7-0.3c-0.2-0.1-0.3-0.1-0.5-0.2c-0.1,0.2-0.1,0.3-0.1,0.4c-2.1,0-4.2,0.1-6.3,0
		c-1.6-0.1-2.7-1.5-2.6-3.3c0.1-1.5,1.4-2.8,2.9-2.7c1.1,0,2.2,0.3,3.3,0.3c0.5,0,1-0.3,1.4-0.3c1.3,0,2.5,0,3.9,0
		c-0.1,0.2-0.1,0.5-0.2,0.8c0.2-0.1,0.6-0.2,0.5-0.3c-0.2-0.6,0.2-0.5,0.6-0.5c1.2,0.1,2.4,0.2,3.5,0.3c0.4,0,0.9-0.3,1.3-0.3
		C197.4,158,197.8,158.2,198.3,158.3z M192.5,163.2c-0.6-0.3-1.1-0.6-1.7-0.9C191,163.3,191.8,163.7,192.5,163.2z"/>
	<path class="st0" d="M195.5,185.9c-0.2,0.1-0.4,0.3-0.6,0.3c-4.1,0-8.1,0-12.2,0c-1.4,0-2.5-0.9-2.9-2.2c-0.4-1.3,0-2.7,1.2-3.4
		c0.6-0.4,1.3-0.6,2.1-0.2c0.1,0.1,0.3,0.1,0.4,0c0.6-0.5,1.1-0.4,1.4,0.4c0,0.1,0.3,0.1,0.6,0.1c-0.2-0.3-0.4-0.5-0.5-0.7
		c0,0,0-0.1,0.1-0.1c0.5,0,1,0,1.4,0c5.5,0,10.9,0,16.4,0c1.4,0,2.9,1.4,2.8,2.7c-0.1,2.6-1.6,3.4-3.1,3.3c-2,0-4,0-6,0
		C196.3,186.1,195.9,186,195.5,185.9z M202.2,182c0.6-0.1,1-0.2,1.4-0.3c-0.2-0.4-0.3-0.6-0.6-1C202.8,181.1,202.6,181.4,202.2,182z
		"/>
	<path class="st0" d="M231.4,203.2c-0.2,0-0.3,0-0.5,0c-0.2,0-0.5,0-0.8,0c-0.4,0-0.8,0-1.2,0c-0.4,0-0.8-0.2-1.1-0.4c0,0,0,0,0,0
		c-0.2,0.1-0.4,0.2-0.6,0.2H227l-0.1,0c-0.6-0.1-1.1-0.6-1.3-1c-0.4-0.7-0.4-1.5,0-2.2c0.4-0.7,1.2-1.1,2-1.1c1,0,2,0,3,0
		c1.4,0,2.8,0,4.2,0l0.4,0c0.9,0,1.8,0,2.6,0.1c0.9,0,1.8,0.1,2.6,0.1c1.5,0,2.9,0,4.3-0.1c0.8,0,1.6,0,2.4-0.1l0.2,0
		c0.5,0,0.8,0,1.2,0.1c0.1,0,0.1,0,0.2,0.1c0.2-0.2,0.4-0.3,0.7-0.3c0.2,0,0.5,0.1,0.7,0.2c0,0,0.1,0,0.1,0c0.2-0.1,0.4-0.1,0.7-0.1
		c0.6,0,1.1,0,1.7,0l1.5,0l0-0.2l1,0.1c0.6,0,1.2,0.1,1.8,0.1c1.3,0.1,2.6,0.2,3.9,0.2l0.3,0c1.4,0,2.8-0.1,4.2-0.1
		c0.7,0,1.5-0.1,2.2-0.1c0.2,0,0.4,0,0.6,0l1.1,0c1.3,0,2.1,0.7,2.2,1.9c0.1,0.6,0.2,2.6-1.9,2.8c-0.4,0-0.8,0.1-1.2,0.1
		c-0.4,0-0.9,0-1.3-0.1c-0.3,0-0.5-0.1-0.6-0.3c-0.2,0.1-0.4,0.3-0.7,0.3c-0.9,0-1.8,0-2.6-0.1c-0.8,0-1.5-0.1-2.3-0.1c0,0,0,0,0,0
		c-0.2,0-0.4,0.1-0.6,0.1c-0.2,0-0.3,0.1-0.5,0.1l-0.9,0.2v-0.3c-0.1,0-0.2,0-0.3,0c-0.1,0-0.1,0-0.1,0c-0.5,0-0.9,0-1.4-0.1
		c-0.5,0-1.1-0.1-1.6-0.1c-0.6,0-1.1,0-1.6,0.1c-0.6,0-1.1,0.1-1.7,0.1c-0.4,0-0.7,0-1.1,0c-0.3,0-0.5,0-0.8,0c-0.4,0-0.8,0-1.3,0
		c-0.4,0-0.9,0-1.3,0c-0.1,0-0.3,0-0.4,0c-0.4,0-0.7,0-1.1,0c-0.3,0-1.4,0-1.7,0c-0.4,0-0.8,0-1.2,0c-0.5,0-0.9-0.2-1.3-0.3
		c-0.1,0-0.1,0-0.2-0.1c0,0,0,0-0.1,0c-0.3,0.1-0.7,0.3-1.1,0.3c-0.9,0-1.7,0-2.6,0c-0.9,0-1.8,0-2.7,0c-0.3,0-0.6-0.1-0.9-0.2
		c-0.1,0-0.2-0.1-0.4-0.1c0,0-0.1,0-0.2,0.1c-0.2,0.1-0.3,0.1-0.5,0.2l-0.4,0.2l-1.5,0.6L231.4,203.2z"/>
	<path class="st0" d="M157.2,99.4c-0.4,0-0.8-0.1-1.2-0.1c-0.2,0-0.5-0.1-0.7-0.1c-0.4,0-0.7,0-1,0.1c-0.4,0-0.8,0.1-1.2,0.1
		c-0.1,0-0.3,0-0.4,0c-1.7-0.1-3.6-0.2-5.6-0.2c0,0,0,0,0,0c-0.5,0-1,0-1.4,0.1c-0.4,0-0.9,0.1-1.4,0.1l-0.1,0c-1.3,0-1.9-0.5-2.2-1
		c-0.3-0.4-0.5-1.2,0-2.4c0.3-0.6,1-1.1,1.6-1.1c1.2,0,2.4,0,3.6,0l3.9,0c0.2,0,0.4,0,0.6,0c0.2,0,0.4,0,0.6,0c0.2,0,0.5,0,0.7,0
		c0.5,0.1,1,0.1,1.5,0.2l0-0.2l4.2,0c1.6,0,3.2,0,4.8,0c0.6,0,1.1,0.5,1.3,1c0.5,1.3,0.3,2.1,0,2.6c-0.3,0.4-0.9,1-2.2,1
		c-0.1,0-0.2,0-0.3,0c-0.2,0-0.4,0-0.6,0c-0.2,0-1,0-1.2,0h-0.8v-0.1c-0.2,0.1-0.4,0.1-0.6,0.1c-0.2,0-0.4,0-0.6-0.1l-0.2-0.1
		C158,99.3,157.6,99.4,157.2,99.4z"/>
	<path class="st0" d="M159.7,185.1c-1.5,0-3,0-4.6,0c-0.7,0-1.9-0.3-2.2-1.1c-0.7-1.4,0-2.2,0.4-2.6c0-0.1,0-0.2,0.1-0.4l0.1-0.6
		l6.6,0c1.7,0,3.4,0,5.1,0c0.6,0,1.1,0.3,1.4,0.8c0.5,0.7,0.6,1.6,0.2,2.5c-0.5,1.4-1.7,1.4-2.4,1.4L159.7,185.1z"/>
	<path class="st0" d="M156.2,179.1l-2.7,0c-0.7,0-1.4,0-2.1,0c0,0-0.4,0-0.4,0c-0.2,0-0.8,0-1.2-0.5c-0.2-0.2-0.3-0.5-0.3-0.9
		c-0.1-0.1-0.3-0.3-0.3-0.6c-0.1-0.7-0.1-1.6,0.4-2.1c0.5-0.6,1.3-0.7,2.1-0.7l3.1,0c0.6,0,1.3,0,1.9,0c0.7,0,1.4,0,2.1,0
		c0.9,0,1.9,0,2.8,0c0,0,0,0,0,0c1.1,0,1.3,0.8,1.4,1.1c0,0,0,0.1,0,0.1c0.5,0.8,0.5,1.7,0.1,2.4c-0.4,0.7-1.1,1.1-2.1,1.1
		c-0.7,0-1.3,0-2,0L156.2,179.1z"/>
	<path class="st0" d="M124.2,157.5c-0.7,0-1.5,0-2.2,0l-1.5,0c-2,0-2.5-0.5-2.5-2.5c0-1.8,0.5-2.1,2.4-2.2c1,0,2,0,2.9,0
		c0.9,0,1.8,0,2.7,0l1.6,0c0.3,0,0.5,0.1,0.6,0.2c0.2,0,0.3,0,0.5-0.1c0,0,0.4-0.1,0.5-0.1c0.2,0,0.4-0.1,0.6-0.1l5,0
		c1.5,0,2.9,0,4.4,0c1.2,0,1.8,0.6,1.9,1.8c0,0.9,0.1,1.7-0.5,2.3c-0.5,0.5-1.2,0.6-2.2,0.6c-0.1,0-0.3,0-0.4,0
		c-0.5,0-1-0.1-1.4-0.1c-0.5-0.1-1-0.1-1.4-0.1l-0.1,0c-1.5,0-3,0.1-4.5,0.1c-1.3,0-2.6,0.1-3.9,0.1
		C125.9,157.5,125,157.5,124.2,157.5z"/>
</g>
</svg>
