<?xml version="1.0" encoding="utf-8"?>
<!-- Generator: Adobe Illustrator 19.1.0, SVG Export Plug-In . SVG Version: 6.00 Build 0)  -->
<svg version="1.1" id="Layer_1" xmlns="http://www.w3.org/2000/svg" xmlns:xlink="http://www.w3.org/1999/xlink" x="0px" y="0px"
	 viewBox="0 0 400 200" style="enable-background:new 0 0 400 200;" xml:space="preserve">
<style type="text/css">
	.st0{fill:#757576;}
	.st1{fill:#F37046;}
</style>
<g>
	<path class="st0" d="M152.6,105.5c-0.3,0-0.7,0-1,0c0.5,0.4,1,0.4,1.6,0.3c0,0,0-0.2,0-0.4c0.9,0.5,1.8,1,2.7,1.5
		c1.3,0.8,2.4,1.7,3.5,2.7c1.9,1.7,3.5,3.7,4.8,5.9c1.2,2,1.9,4.2,2.4,6.5c0.3,1.4,0.4,2.9,0.5,4.4c0.1,0.7-0.1,0.9-0.9,0.8
		c-1,0-2-0.1-3.1-0.1c-1.3,0-2.7,0.1-4,0.1c-0.7,0-1.3,0-2,0c-0.3,0-0.7,0.1-1-0.3c0,0-0.2,0-0.3,0c0.1,0.3-0.2,0.2-0.3,0.2
		c-0.1,0-0.3,0-0.4,0c-0.6,0.1-1.1-0.1-1.5-0.5c-0.1-0.1-0.2-0.2-0.4-0.4c0.1,0.4,0.1,0.6,0.2,0.8c-0.6-0.1-1.1,0.2-1.6-0.2
		c-0.1,0-0.2,0-0.3,0c-1.1,0.5-2.4,0.2-3.5,0.2c-0.7,0-1.3,0.1-1.9,0.1c-1.8-0.1-3.6-0.1-5.5-0.1c-0.4,0-0.8,0.1-1.2,0.1
		c-0.3,0-0.5-0.1-0.9-0.1c0.1-0.2,0.2-0.3,0.3-0.4c-0.2-0.1-0.3-0.3-0.5-0.4c-0.4,0.3-0.2,0.6,0.1,0.9c-1.8,0-3.5,0-5.2,0
		c-0.1-0.1-0.2-0.3-0.3-0.4c-0.1,0.1-0.2,0.3-0.4,0.5c-0.5,0-1.1,0-1.7,0c-0.1,0-0.3,0-0.4-0.1c-0.2-0.3-0.3-0.3-0.4,0
		c-0.5,0-1.1-0.1-1.6-0.1c-0.1,0-0.2-0.1-0.3-0.1c-0.9,0.4-1.9,0.1-2.8,0.2c-1.5,0.1-3.1,0-4.6,0c-0.3,0-0.6-0.1-0.9-0.2
		c0.1-0.5,0.1-0.9,0.2-1.4c0-0.2-0.2-0.5-0.2-0.8c0.2-1.4,0.4-2.7,0.7-4c0.6-2.5,1.7-4.8,3.2-7c1.3-1.9,2.8-3.6,4.6-5.1
		c1.4-1.2,2.9-2.3,4.6-3c0.9-0.4,1.7-0.7,2.6-1c0.3-0.1,0.7-0.1,1.2-0.2c0.1-0.3,0.4-0.5,0.8-0.1c0.1,0.1,0.3,0,0.4,0
		c0.1-0.2,0.1-0.5,0.2-0.5c0.2,0,0.5,0.1,0.6,0.2c0.2,0.2,0.3,0.4,0.7,0.3c-0.1-0.2-0.1-0.4-0.2-0.6c0.3-0.1,0.5-0.2,0.8-0.2
		c1.7-0.1,3.4-0.2,5.1-0.1c0.7,0,1.4,0,2.1,0.1c0.9,0.2,1.9,0.5,2.8,0.7c0.8,0.2,1.5,0.4,2.3,0.7c0.1,0,0.2,0.1,0.3,0.2
		C152.7,105.4,152.7,105.4,152.6,105.5z M146,125.8c0-0.1,0.1-0.2,0.1-0.2c-0.2-0.1-0.5-0.2-0.7-0.4c0-0.1,0.1-0.3,0.1-0.4
		c-0.4,0-0.7-0.1-1.1-0.1c0.1,0.3,0.2,0.5,0.3,0.7C145.1,125.5,145.6,125.6,146,125.8z M137.8,123.2c-0.4,0.5,0.3,1.1-0.5,1.4
		c0.3,0.1,0.5,0.2,0.7,0.2c0.2-0.3,0.4-0.6,0.4-0.9C138.3,123.8,138,123.5,137.8,123.2z M164.5,125.3c0.6,0.5,0.6,0.5,1.5-0.1
		c-0.1-0.3-0.2-0.6-0.6-0.2c-0.1,0.1-0.3,0.1-0.5,0.2C164.8,125.2,164.7,125.3,164.5,125.3z M163,117.2c0.1-0.2,0.3-0.4,0.4-0.7
		c-0.3,0-0.4,0-0.6,0c-0.3,0-0.6-0.2-0.7,0.2c-0.1,0.3,0.3,0.4,0.6,0.5C162.8,117.3,162.9,117.2,163,117.2z"/>
	<path class="st0" d="M106.6,117c0.1,0,0.3-0.1,0.5-0.1c0.3,0.7,0.6,1.3,0.8,2c0.6,1.5,0.9,3.2,1.2,4.8c0.2,0.9,0.1,1.8,0.2,2.7
		c0,0.6-0.3,0.9-0.9,1c-0.2,0-0.4,0-0.6,0c-3.8,0-7.6,0-11.4,0c-0.5,0-1.1,0.1-1.4-0.5c0-0.1-0.2-0.1-0.3-0.1
		c-0.1,0.1-0.2,0.1-0.2,0.2c0,0.1,0,0.2,0,0.3c-0.7,0-1.4-0.1-2,0c-0.7,0.1-1.3-0.3-2-0.1c-0.6,0.2-1.4,0-2,0
		c-0.2-0.3-0.4-0.7-0.6-1c-0.3,0.3-0.3,0.3-0.2,1c-1.2,0-2.4,0-3.6,0c0-0.1,0.1-0.3,0.1-0.5c-0.4,0.1-0.8,0.2-1.1,0.3
		c0,0.1,0,0.2-0.1,0.3c-0.5-0.1-1.2,0.3-1.4-0.6c-0.3,0-0.5,0.1-0.8,0.1c0.1,0.2,0.2,0.4,0.3,0.5c-3.8,0-7.7,0-11.4,0
		c-0.1-0.3-0.1-0.6-0.2-0.9c-0.2,0.4-0.4,0.6-0.6,0.9c-1.4,0-2.8,0-4.2,0c-0.6,0-1.2,0-1.8,0c-0.7,0-1.1-0.7-0.7-1.3
		c0.1-0.1,0.2-0.1,0.1-0.3c-0.1-0.2-0.2-0.4-0.2-0.6c0.2-1.6,0.4-3.3,0.9-4.8c0.1-0.2,0.3-0.4,0.3-0.5c0.1-0.5,0.1-0.9,0.3-1.3
		c0.4-0.9,0.8-1.9,1.3-2.8c0.2-0.4,0.5-0.7,0.8-1c0.1-0.1,0.2-0.2,0.2-0.2c-0.2-0.4,0.2-0.6,0.3-0.9c0.9-1.3,1.9-2.5,3.1-3.6
		c0.7-0.6,1.3-1.3,2.1-1.7c0.5-0.3,0.7-0.7,1.2-1c0.5-0.2,1-0.6,1.5-0.8c0.6-0.3,1.2-0.7,1.8-1c0,0.1,0,0.2,0.1,0.4
		c0.1-0.1,0.4-0.1,0.4-0.2c-0.1-0.5,0.3-0.5,0.6-0.6c1.8-0.7,3.7-1.2,5.6-1.4c0.1,0,0.3-0.1,0.4-0.1c0.2,0,0.5-0.2,0.7,0.2
		c0,0.1,0.3,0,0.4,0c0.2-0.1,0.4-0.2,0.6-0.2c1.1,0,2.3-0.1,3.4,0c1.3,0.1,2.6,0.3,3.8,0.7c1.6,0.4,3.1,1,4.6,1.8
		c0.2,0.1,0.4,0.4,0.6,0.5c0.1,0.1,0.3,0.2,0.5,0.3c0.2,0.1,0.4,0,0.5,0.1c1,0.7,2,1.4,2.9,2.2c0.8,0.6,1.4,1.3,2.1,2
		c0.5,0.5,0.5,0.5,0.4,1.2c0.5-0.2,0.8,0.1,1,0.5c0.8,1.2,1.5,2.3,2.3,3.4c-0.2,0.3-0.3,0.4-0.4,0.6
		C106.5,116.9,106.5,116.9,106.6,117z M100.9,126.6c0-0.1,0-0.2,0.1-0.3c0-0.1,0-0.1,0-0.2c0.1-0.1,0.3-0.2,0.3-0.3
		c0-0.1-0.1-0.4-0.2-0.4c-0.4,0-0.5-0.3-0.7-0.6c0,0-0.1,0-0.2,0c-0.1,0.1-0.2,0.2-0.3,0.4C100,125.8,100.2,126.4,100.9,126.6z
		 M86.7,117.5c-1,0-1.5,0.4-1.2,0.9c0.2,0,0.4,0.1,0.6,0.2C86.4,118.2,86.5,117.9,86.7,117.5z M73.7,107.3c0.5,0.4,0.9,0.7,1.2,1
		c0,0,0.1,0,0.1-0.1c-0.2-0.4-0.4-0.7-0.5-1.1c0.2-0.3,0.2-0.3,0-0.5C74.2,106.9,74,107.1,73.7,107.3z M79.7,112.4
		c0.2-0.6,0.8-0.8,0.6-1.4c-0.4,0-0.7,0.2-0.9,0.5C79.4,111.8,79.6,112.1,79.7,112.4z"/>
	<path class="st0" d="M2.4,125.7c-0.4-0.4-0.3-1.1-0.2-1.6c0.1-1.1,0.4-2.2,0.7-3.3c0.5-2,1.4-3.8,2.4-5.7c0.1,0.1,0.3,0.1,0.4,0.2
		c0,0,0.1-0.1,0.1-0.1c-0.2-0.3-0.2-0.5,0-0.8c0.5-0.7,1-1.4,1.6-2c0.7-0.9,1.4-1.8,2.2-2.6c0.3-0.3,0.4-0.3,0.9,0
		c0.1-0.3,0.1-0.6,0.2-1c0.2,0.3,0.3,0.5,0.5,0.8c0-0.4,0-0.7,0.1-0.9c0-0.2,0.2-0.4,0.3-0.5c1.1-0.7,2.1-1.7,3.4-2
		c1.6-1.1,3.4-1.6,5.3-2c0.8-0.2,1.6-0.5,2.4-0.3c1.5-0.5,3-0.2,4.5-0.2c1.8,0,3.6,0.4,5.4,0.8c0.2,0,0.4,0.2,0.5,0.3
		c0.2,0.2,0.4,0.3,0.7,0.2c0.3,0,0.6,0.1,0.9,0.2c1.3,0.5,2.6,1.2,3.8,2c0.4,0.3,0.6,0.8,1.3,0.8c0,0,0.1,0.1,0.1,0.2
		c0.1,0.3,0.2,0.6,0.6,0.4c0.1,0,0.2,0.2,0.3,0.3c-0.1,0.1-0.3,0.2-0.4,0.3c0.3,0.3,0.6,0.3,0.8,0c2.1,1.9,4,4,5.3,6.5
		c0.1,0.3,0.5,0.5,0.2,0.9c0,0,0.1,0.3,0.2,0.4c0.5,0.4,0.5,0.4,0,0.8c0,0,0,0.1-0.1,0.2c0.1,0,0.2,0,0.3,0c0.3-0.1,0.5,0,0.6,0.3
		c0.4,1.5,0.8,2.9,1.2,4.4c0,0.2,0.1,0.3,0.1,0.5c0,0.2,0.2,0.5-0.2,0.5c0,0.1,0,0.4,0.1,0.4c0.3,0,0.3,0.2,0.3,0.4
		c0,0.7,0,1.4,0,2.2c0,0.5-0.2,0.7-0.7,0.7c-0.6,0-1.2-0.1-1.8-0.1c-0.3,0-0.6,0.1-0.9,0.1c-0.8,0-1.7,0-2.5,0
		c-0.4,0-0.8-0.1-1.1-0.5c0,0.2-0.1,0.3-0.1,0.5c-1.4,0-2.8,0-4.2,0c-0.3,0-0.6-0.2-0.9-0.3c-0.1,0.5-0.5,0.3-0.7,0.3
		c-1.6,0-3.1-0.1-4.7-0.1c-0.5,0-1.1,0.1-1.6,0.1c-0.1-0.2-0.3-0.4-0.4-0.6c-0.1,0.1-0.3,0.2-0.4,0.3c-0.4,0.4-0.4,0.4-0.9,0
		c-0.1-0.1-0.3,0-0.4-0.1c0,0.1,0,0.2,0,0.3c-1.4,0-2.7,0-4.1,0c-0.3,0-0.5,0-0.6-0.5c-0.3,0.4-0.6,0.8-1,0.3
		c-0.2-0.2-0.6-0.1-0.9-0.2c0.1,0.2,0.2,0.3,0.2,0.4c-4.4,0-8.7,0-13.1,0c-1.2,0-2.3,0.1-3.5,0c-0.7,0-1.4,0-2.2,0
		c-0.4,0-0.6-0.2-0.5-0.5C2.2,126.4,2.3,126.1,2.4,125.7z M35.8,121.6c0,0.1,0,0.1,0,0.2c0.7,0.1,1.3,0.2,2.2,0.4
		c-0.1-0.3-0.2-0.6-0.3-0.6c-0.6-0.1-1.1-0.1-1.7-0.1C36,121.4,35.9,121.5,35.8,121.6z M28.7,118.8c0,0,0.1,0.1,0.1,0.1
		c0.5,0,1,0,1.5,0c0-0.2,0-0.3,0-0.4c-0.1-0.2-0.2-0.3-0.3-0.4c-0.1,0-0.3,0.1-0.5,0.2c-0.1,0.1-0.3,0.1-0.4,0.2
		C28.9,118.6,28.8,118.7,28.7,118.8z M38.4,115.4c0,0,0.1-0.1,0.1-0.1c-0.1-0.2-0.3-0.3-0.4-0.5c0.1-0.2,0.3-0.3,0.4-0.5
		c-0.3,0.2-1-0.5-1,0.3c0,0.2,0.2,0.5,0.4,0.7C38,115.5,38.2,115.4,38.4,115.4z M40.6,112c0.3,0.8,1,0.6,1.5,0.8
		c0-0.1,0.1-0.2,0-0.2c-0.1-0.7-1-0.1-1.1-0.7C41,111.9,40.8,111.9,40.6,112z"/>
	<path class="st1" d="M74,176.2c0.2-0.7,0.9-0.7,1.4-1.1c0.2,0.1,0.4,0.2,0.5,0.4c0,0,0.1,0,0.1-0.1c-0.1-0.1-0.1-0.3-0.3-0.5
		c1.2-0.4,2.4-0.8,3.6-1.2c0.1,0,0.2-0.1,0.3,0c0.4,0.2,0.7,0,1.1-0.2c0.2-0.1,0.5-0.1,0.8-0.1c0.8-0.1,1.6-0.2,2.4-0.3
		c0.5-0.1,1,0.2,1.5,0c0.5-0.2,1.1-0.1,1.7,0c1.8,0.1,3.6,0.4,5.4,0.9c1.9,0.6,3.7,1.4,5.4,2.4c0.3,0.2,0.4,0.4,0.3,0.8
		c0.4-0.3,0.7-0.2,1,0.1c0.4,0.3,0.7,0.5,1.1,0.8c0.1,0.1,0.2,0.2,0.2,0.3c0.1,0.2,0.2,0.4,0.5,0.4c0.1,0,0.1,0.1,0.2,0.1
		c0.5,0.7,1.3,1,1.9,1.7c0.5,0.7,1.1,1.3,1.6,2c0.4,0.5,0.7,0.9,1,1.5c-0.2,0.3-0.4,0.5-0.6,0.9c0.2,0.2,0.3,0.3,0.6,0.5
		c0.1-0.2,0.2-0.4,0.3-0.6c0.5,0.3,0.5,0.8,0.8,1.3c0.3,0.5,0.5,1.1,0.8,1.7c0.2,0.5,0.5,1.1,0,1.7c0.3,0,0.4,0.1,0.7,0.1
		c0.6,2.2,1.1,4.4,1,6.8c-0.3,0-0.5-0.1-0.7-0.1c0,0.2,0,0.3,0.1,0.5c-0.2,0-0.3,0-0.5,0c-1.7,0-3.5,0-5.2,0c-0.4,0-0.7-0.2-1.1-0.2
		c-0.1,0.1-0.3,0.2-0.5,0.2c-0.7,0-1.5,0-2.2,0c-0.1,0-0.3,0-0.4-0.1c-0.2-0.2-0.3-0.2-0.5,0c-0.1,0.1-0.4,0.1-0.6,0.1
		c-0.8-0.1-1.6,0.3-2.4-0.2c-0.3,0.3-0.6,0.2-1,0.2c-1.5,0-3.1,0-4.6,0c-0.4,0-0.8-0.2-1.2-0.2c-0.1,0-0.4,0-0.5,0.1
		c-0.4,0.4-0.5,0.1-0.7-0.3c-0.2,0.1-0.4,0.3-0.7,0.5c0-0.3,0-0.5,0-0.7c-0.1,0-0.2,0-0.3,0.1c-0.2,0.4-0.4,0.8-1,0.4
		c-0.1-0.1-0.4,0.2-0.6,0.2c-0.8-0.1-1.7,0.3-2.5-0.2c-0.4,0.2-0.7,0.2-1.1,0.1c-1.1-0.1-2.3,0-3.4,0c-1.5,0-2.9,0.1-4.4,0.1
		c-0.3,0-0.6-0.1-0.9-0.2c-0.1,0-0.2,0-0.3,0c-0.5,0.1-1,0.2-1.5,0.2c-2.4,0-4.9,0-7.3,0c-0.9,0-1.3-0.4-1.3-1.2
		c0.1-1.1,0.2-2.3,0.3-3.4c0-0.1,0.1-0.2,0.2-0.3c0.1-0.1,0.2-0.3,0.2-0.4c-0.2-1.3,0.4-2.3,0.8-3.4c0.8-2.2,2-4.3,3.5-6.1
		c0.9-1.1,1.9-2.2,3-3.1c0.9-0.8,2-1.5,3-2.3C73.4,176.2,73.7,176,74,176.2z M73,184.2c-0.2,0.2-0.4,0.4-0.4,0.5
		c0.2,0.4-0.2,0.5-0.3,0.7c-0.3-0.1-0.5-0.5-0.8-0.1c0.2,0.2,0.3,0.5,0.5,0.7c0.4-0.2,0.8-0.4,1.1-0.5C73,185.1,73,184.7,73,184.2z
		 M75.7,187.1c-0.1-0.4-0.1-0.8-0.2-1.1c-0.5,0-0.7,0.4-0.9,0.9C75.1,186.8,75.3,187.4,75.7,187.1z M79.1,192
		c0.1,0.1,0.1,0.2,0.2,0.3c-0.2,0-0.4,0.1-0.6,0.1c0.2,0.7,0.7,0,1,0.4c0.1-0.3,0.2-0.6,0.3-0.8c-0.2-0.2-0.3-0.4-0.5-0.6
		C79.3,191.6,79.2,191.8,79.1,192z M79.7,179.8c0.4,0,0.8,0,1.2,0c-0.5-0.2-0.6-1.1-1.4-0.9C79.6,179.2,79.6,179.5,79.7,179.8z
		 M84.3,186.1c-0.4,0.1-0.7,0.2-1,0.2c-0.1-0.1-0.2-0.3-0.3-0.4c-0.2,0.2-0.4,0.3-0.6,0.5c0,0.1,0,0.2,0,0.2c0.4-0.2,0.7,0.2,1.1,0
		c0.1-0.1,0.3-0.1,0.4-0.1C84.4,186.7,84.3,186.5,84.3,186.1z M105.4,196.5c-0.4-0.3-0.7-0.6-1.2-1c-0.1,0.4-0.1,0.7-0.2,0.9
		C104.5,196.1,104.8,196.8,105.4,196.5z"/>
	<path class="st0" d="M44.1,182.3c0.1,0,0.2-0.1,0.4-0.1c0.3,0.5,0.5,1.2,0.9,1.6c0.6,0.6,0.9,1.3,1.3,2c0.1,0.3,0.3,0.5,0.2,0.8
		c-0.1,0.2,0,0.2,0.3,0.5c0.1,0.1,0.2,0.1,0.2,0.2c0.2,0.7,0.4,1.4,0.7,2.1c0.1,0.2,0.2,0.5,0.3,0.7c0.4,1.4,0.7,2.9,0.8,4.4
		c0,0.4,0.1,0.9,0.1,1.3c0,0.7-0.2,0.9-0.9,0.9c-0.7,0-1.3,0-2,0c-0.3,0-0.5,0.1-0.7-0.3c-0.1-0.3-0.5-0.1-0.7,0
		c-0.5,0.4-1.1,0.2-1.7,0.2c-0.1,0-0.1-0.2-0.2-0.4c-0.1,0.5-0.5,0.4-0.9,0.4c-0.4,0-0.7,0-1.1,0c-0.2-0.2-0.3-0.4-0.4-0.6
		c-0.2-0.2-0.4-0.2-0.6,0c0,0.1,0.1,0.2,0.1,0.4c-0.8,0.3-4.3,0.3-4.9-0.1c-0.2,0.1-0.4,0.3-0.7,0.3c-1.5,0-2.9,0-4.4,0
		c0,0-0.1,0-0.2-0.1c0.1-0.2,0.2-0.5,0.3-0.7c-0.2-0.1-0.3-0.1-0.5-0.2c-0.1,0.4-0.2,0.7-0.3,1.1c-0.2,0-0.5,0-0.7,0
		c-2.5,0-4.9,0-7.4,0c-3.5,0-7,0-10.5,0c-0.3,0-0.7-0.1-1.1-0.2c-0.5,0.4-1.2,0.1-1.9,0.2c-0.1-0.2-0.2-0.4-0.4-0.7
		c-0.1,0.3-0.1,0.4-0.2,0.7c-0.7,0-1.5,0-2.3,0c-0.8,0-1.5,0-2.3,0c-0.6,0-0.7-0.1-0.7-0.7c-0.1-2.1,0.2-4.2,0.8-6.2
		c0.3-1,0.6-2.1,1.1-3.1c0.3-0.6,0.7-1.1,0.9-1.7c0.1-0.5,0.6-0.7,1.1-0.8c-0.1-0.2-0.2-0.3-0.3-0.6c0.9-1.1,1.8-2.2,2.6-3.3
		c0.6-0.1,1-0.2,1.5-0.3c0-0.1,0-0.1,0-0.2c-0.2-0.1-0.4-0.2-0.7-0.3c0.5-0.5,1.1-1,1.6-1.5c1.5-1.1,3-2.2,4.7-2.9
		c0.6-0.3,1.2-0.5,1.8-0.7c0.6-0.2,1.2-0.4,1.9-0.6c0.7-0.2,1.3-0.3,2-0.5c2.3-0.4,4.6-0.4,6.9-0.3c1.8,0.1,3.6,0.5,5.3,1.1
		c0.3,0.1,0.3,0.4,0.3,0.6c0.5-0.3,0.9-0.2,1.3,0c0.8,0.4,1.7,0.7,2.4,1.2c1,0.7,2.1,1.2,3,2c1.1,1,2.1,2,3.1,3
		c0.2,0.2,0.3,0.4,0.5,0.6C44.1,181.8,44.1,182,44.1,182.3z M12.8,190.7c-0.2-0.3-0.4-0.5-0.4-0.6c-0.1-0.3-0.3-0.4-0.5-0.3
		c-0.3,0.1-0.5,0.3-0.9,0.5c0.6,0.2,1.1,0.5,1.2,1.2C12.4,191.2,12.6,190.9,12.8,190.7z M28.9,187.5c-0.5-0.2-0.9-0.7-1.6-0.5
		c0.1,0.4,0.1,0.7,0.2,1.2C27.9,187.4,28.5,187.9,28.9,187.5z M35.2,185.3c-0.8-0.3-1.1-0.2-1.6,0.3c-0.2,0.3-0.1,0.5,0.2,0.7
		c0.2-0.2,0.3-0.5,0.5-0.6C34.5,185.5,34.8,185.4,35.2,185.3z M26.4,194.7c0.2,0.3,0.4,0.5,0.6,0.7c0.3,0.5,0.4,0.5,0.8,0
		C27.2,194.7,27.1,194.7,26.4,194.7z M11.1,193.4c-0.4-0.3-0.7,0.1-1-0.1c-0.1-0.1-0.4-0.1-0.4,0c-0.1,0.2,0,0.5,0.3,0.5
		c0.3,0.1,0.7,0,1.1,0c0,0,0.1,0,0.1-0.1C11.1,193.7,11.1,193.5,11.1,193.4z M14.2,179.1c0.1,0.4,0.1,0.4-0.3,0.9
		c0.2,0.1,0.5,0.2,0.7,0.2c0.1,0,0.3-0.3,0.3-0.4C14.8,179.5,14.8,179.1,14.2,179.1z"/>
	<path class="st0" d="M160.6,196.5c-0.1,0.1-0.3,0.2-0.5,0.2c-0.7,0-1.4-0.1-2.2-0.1c-0.9,0-1.9,0.1-2.8,0.1c-1.1,0-2.2,0.1-3.3,0
		c-1.6-0.1-3.2,0.1-4.8,0c-1.6,0-3.1-0.1-4.7-0.1c-0.3,0-0.7,0.1-1,0.1c-0.3,0-0.6,0.1-0.9-0.2c-0.2,0.4-0.6,0.2-0.9,0.2
		c-1,0.1-2-0.1-3-0.3c0.1,0.1,0.2,0.2,0.3,0.3c-0.7,0-1.5,0-2.2,0c-0.1-0.1-0.2-0.3-0.4-0.5c-0.5,0.6-1.2,0.5-1.8,0.5
		c-3.2,0-6.5,0-9.7,0c-0.9,0-1.9,0.2-2.9-0.3c0-1.2,0.1-2.4,0.1-3.7c0.2,0,0.3-0.1,0.5-0.1c-0.2-0.4-0.5-0.7,0-1.1
		c-0.3-0.8,0.5-1.4,0.5-2.2c0-0.8,0.5-1.6,0.8-2.3c0.1-0.3,0.3-0.5,0.4-0.8c0-0.2,0.3-0.4,0.5-0.5c0.3-0.2,0.6-0.3,1.1-0.6
		c-0.4-0.1-0.6-0.2-0.9-0.3c0.7-1,1.5-2,2.2-3c0.2-0.2,0.4-0.5,0.6-0.7c0.1-0.2,0.3-0.5,0.6-0.2c0,0,0.3-0.2,0.4-0.4
		c0.4-1.1,1.2-1.7,2.1-2.3c0.2-0.2,0.7,0,0.5-0.5c0,0,0.1-0.1,0.1-0.1c1.8-1.2,3.6-2.4,5.7-3c0.3-0.1,0.5-0.1,0.9-0.1
		c0.1-0.3,0.4-0.5,0.8-0.6c1-0.2,2.1-0.4,3.1-0.7c0.1,0,0.2,0.1,0.4,0.2c-0.3,0-0.4,0.1-0.7,0.1c0.1,0.4,0.2,0.7,0.2,1
		c0.5,0,0.4-0.3,0.3-0.6c0.2,0,0.3-0.1,0.5-0.1c0.2-0.7,0.3-0.7,1-0.7c0.4,0,0.7,0,1.1,0c0.7,0,1.4-0.1,2.1,0.5c0-0.2,0-0.3,0.1-0.5
		c1.5,0.2,3.1,0.1,4.7,0.9c0.1,0,0.4-0.1,0.6,0c0.7,0.3,1.5,0.4,2.2,0.9c0.5,0.3,1.1,0.4,1.6,0.6c0.9,0.5,1.8,1,2.6,1.6
		c0.6,0.5,1.3,0.8,1.8,1.3c0.5,0.4,1,0.9,1.5,1.3c-0.1,0.1-0.2,0.1-0.4,0.3c1.4,0,1.7,1.2,2.4,1.9c0.8,0.9,1.5,2,2.1,3.1
		c0.3,0.5,0.6,0.9,0.8,1.4c0.2,0.5,0.5,1.1,0.7,1.6c0.2,0.5,0.4,1.1,0.5,1.7c0.2,0.6,0.3,1.1,0.4,1.7c0.1,0.5,0.2,0.9,0.3,1.4
		c-0.3,0.2-0.5,0.3-0.7,0.5c0,0,0,0.1,0.1,0.1c0.2,0,0.5,0,0.7,0c0.1,0.8,0.2,1.5,0.2,2.2c0.1,0.9-0.2,1.2-1.1,1.2
		c-1.5,0-3.1,0-4.6,0C161.1,196.7,160.9,196.5,160.6,196.5z M134.2,191.1c0.7-0.2,1.3-0.3,2-0.5c0-0.1,0-0.3,0-0.5
		C135.3,190.2,134.5,190.1,134.2,191.1z M142.6,185.8c0.9,0,1.2-0.8,1.8-1.3c-0.1-0.1-0.2-0.1-0.2-0.1c-0.2,0-0.4-0.2-0.6-0.1
		c-0.2,0.1-0.2,0.3-0.1,0.5c0,0.1-0.2,0.3-0.4,0.4C142.8,185.3,142.7,185.4,142.6,185.8z M146.6,185.8c-0.1,0.3-0.3,0.5-0.3,0.7
		c-0.1,0.2-0.1,0.5,0,0.6c0.2,0.2,0.5,0.3,0.9,0.1C146.5,186.9,147.2,186.2,146.6,185.8z M137.8,177.6c0.4,0.2,0.7,0.4,1.1,0.6
		c0-0.5,0.4-0.8-0.1-1.2C138.6,177.2,138.3,177.4,137.8,177.6z M143.7,193.4c0.1,0.8,0.9,1.1,1.5,0.7c-0.1-0.7-0.6-0.2-0.9-0.2
		c-0.1-0.2-0.1-0.3-0.2-0.4C144,193.4,143.9,193.4,143.7,193.4z M132.1,179.8c-0.2-0.3-0.4-0.5-0.4-0.5c0.3-0.6-0.2-0.9-0.4-1.3
		c-0.1,0.1-0.3,0.2-0.5,0.3c0.2,0.2,0.6,0.2,0.5,0.6c0,0.2,0.1,0.5,0.1,0.8C131.6,179.7,131.8,179.7,132.1,179.8z"/>
	<path class="st0" d="M224.5,196.5c-0.2,0.1-0.4,0.2-0.6,0.2c-1.2,0-2.5,0-3.7,0c0-0.3,0-0.5,0-0.7c-0.1,0-0.1,0-0.2-0.1
		c-0.1,0.2-0.2,0.4-0.4,0.7c-1.5,0-3.1,0.1-4.7,0c-0.4,0-0.8,0.1-1.2,0.1c-1.7,0-3.4,0-5.1,0c-0.2,0-0.5-0.1-0.7-0.2
		c-0.1,0-0.3-0.1-0.4-0.1c-0.9,0.4-1.8,0.2-2.7,0.3c-0.3,0-0.4-0.4-0.7-0.1c-0.2,0.1-0.5,0.1-0.8,0.1c-1.9,0-3.8-0.1-5.7-0.1
		c-2.9,0-5.7,0.1-8.6,0.1c-1.6,0-3.2,0-4.7,0c0-0.4,0-0.7,0-1c-0.1,0-0.1,0-0.2,0c-0.1,0.3-0.2,0.6-0.4,1c0.1,0,0,0,0,0
		c-0.5-0.2-0.9,0-1.4,0c-0.7,0-1.5,0.2-2.2-0.2c-0.2-0.1-0.5-0.1-0.8,0.1c-0.2,0.2-0.7,0.1-1.1,0.1c-0.2,0-0.4-0.1-0.8-0.2
		c0.1-1.1,0.1-2.3,0.2-3.4c0.1-1.4,0.5-2.8,0.9-4.1c0.4-1.4,1-2.6,1.7-3.9c0.4-0.8,1-1.5,1.4-2.3c0.3-0.4,0.6-0.6,1.2-0.5
		c-0.4-0.7,0.1-1.1,0.5-1.5c1.1-1.3,2.4-2.4,3.7-3.4c0.9-0.7,1.9-1.2,2.8-1.8c0.4-0.3,0.8-0.3,1.3,0c0-0.2,0-0.4-0.1-0.6
		c0.4-0.2,0.9-0.4,1.4-0.6c1.8-0.6,3.7-1.1,5.6-1.2c1.2-0.1,2.5-0.1,3.7-0.1c0.2,0,0.4,0.1,0.7,0.2c0.3-0.3,0.8-0.3,1.3-0.2
		c0.5,0.1,1.1,0.2,1.6,0.2c0.1,0,0.2,0.1,0.3,0.2c0.1,0.1,0.2,0.2,0.4,0.2c0.2,0,0.2-0.1,0.2-0.3c0.1,0,0.2,0,0.3,0
		c0.4,0.1,0.8,0.2,1.2,0.3c-0.6,0.2,0.2,0.7-0.2,1c0.3,0,0.6,0.1,0.9,0.1c0-0.3,0.1-0.6,0.1-0.9c0.7,0.4,1.5,0.4,2,1.1
		c0.3-0.1,0.8,0,1.1,0.3c1.3,0.9,2.6,1.7,4,2.6c0.1,0.1,0.1,0.1,0.3,0.3c-0.2,0-0.3,0-0.6,0.1c0.4,0.3,0.7,0.4,1.1,0.7
		c-0.1-0.2-0.1-0.4-0.2-0.7c1.5,1.5,3,2.8,4,4.4c0,0.5,0.1,0.9,0.1,1.4c0.3-0.2,0.4-0.3,0.6-0.4c1.3,1.9,2.1,3.9,2.7,6.1
		C224.4,192,224.7,194.2,224.5,196.5z M198.8,190.6c0.1,0.3,0.2,0.4,0.2,0.5c-0.1,0.2-0.2,0.4,0,0.5c0.3,0.1,0.4,0,0.6-0.2
		c0-0.1,0.1-0.2,0.1-0.2c0.6,0.2,0.6,0.2,1.1,0.1C200.4,190.3,199.6,190.8,198.8,190.6z M215.8,194.2c0.5-0.5,0.9-1.2,1.7-0.9
		c0,0,0.2-0.2,0.3-0.3c-0.7-0.1-1.3-0.1-1.9-0.2C215.6,193.2,215.7,193.7,215.8,194.2z M194.2,189c0.4-0.2,0.7-0.8,0.5-1.1
		c-0.2-0.3-0.4-0.3-0.7-0.2c-0.2,0.1-0.4,0.4-0.3,0.5C193.8,188.5,194,188.7,194.2,189z M215,192.2c-0.2-0.5-0.7-0.5-1.1-0.7
		c-0.1,0-0.3,0.1-0.4,0.2c0.1,0.1,0.1,0.3,0.3,0.4C214.1,192.4,214.6,192.5,215,192.2z M218.1,187.8c-0.6,0.1-1.3-0.6-1.9,0.3
		C216.9,188,217.5,188.7,218.1,187.8z M196.8,182.1c-0.2,0-0.4,0.1-0.6,0.2c0.2,0.3,0.4,0.5,0.6,0.7c0.2,0.4,0.3,0.4,0.8,0.1
		C197.3,182.8,197.1,182.5,196.8,182.1z M194.2,177.9c0-0.1,0-0.1,0.1-0.2c-0.2-0.1-0.3-0.2-0.5-0.1c-0.3,0.1-0.5,0.2-0.8,0.3
		c-0.5,0.2-0.5,0.2-0.1,0.5C193.3,178.2,193.8,178,194.2,177.9z M194.1,195.2c-0.5,0.6-0.5,0.6-0.1,1.2c0.2-0.2,0.4-0.3,0.7-0.5
		C194.5,195.6,194.3,195.4,194.1,195.2z M205.3,175c0,0.6-0.4,0.6-0.8,0.7c0,0.2,0,0.4,0.1,0.7c0.5-0.4,0.8-0.6,1.2-0.9
		C205.6,175.3,205.5,175.2,205.3,175z"/>
	<path class="st0" d="M209.3,105.4c0.2,0,0.4,0,0.6-0.1c0.1,0,0.3-0.1,0.4-0.1c0.6,0.3,1.2,0.7,1.9,1c1,0.4,1.8,1,2.6,1.6
		c0.6,0.4,1.2,0.9,1.8,1.4c0.2,0.2,0.3,0.5,0.5,0.7c0,0.1,0.1,0.1,0.1,0.2c1.7,1.3,1.9,1.5,3.5,3.7c-0.1,0.1-0.2,0.1-0.5,0.3
		c0.3,0.1,0.6,0.1,0.9,0.2c0.5,1,1.1,2.2,1.7,3.2c-0.2,0.4-0.7,0.5-0.5,1c0.2,0,0.4,0,0.6,0c0-0.2,0-0.3,0-0.5
		c0.8,2,1.4,4.1,1.6,6.2c-0.2,0.1-0.3,0.2-0.6,0.4c0.2,0.1,0.4,0.2,0.6,0.3c0,0.6,0,1.2,0,1.8c0,0.2-0.4,0.3-0.6,0.4
		c-0.2,0.1-0.4,0-0.6,0c-1.7,0-3.3,0-5,0c-0.4,0-0.8,0-1.2-0.2c-0.4-0.2-0.6,0-0.9,0c-0.3,0-0.6,0.2-1,0.2c-2.8,0-5.6,0-8.4,0
		c-0.3,0-0.6-0.1-1.1-0.2c-0.3,0.3-0.9,0.2-1.4,0.2c-0.5,0-1.1,0.2-1.3-0.6c-0.2,0.1-0.4,0.1-0.7,0.2c0.1,0.1,0.2,0.2,0.2,0.3
		c-7.4,0-14.7,0-22.1,0c-0.1-0.2-0.2-0.3-0.3-0.7c-0.2,0.4-0.2,0.5-0.3,0.8c-0.5,0-1,0-1.5,0c-0.5,0-0.7-0.1-0.7-0.6
		c0-0.8-0.1-1.6,0-2.4c0.1-1.1,0.4-2.2,0.6-3.3c0.2-0.7,0.3-1.5,0.6-2.1c0.3-0.5,0.3-1.1,0.7-1.7c0.3-0.5,0.7-1,0.9-1.6
		c0.2-0.6,0.5-1.2,1.1-1.5c0.1,0,0.1-0.2,0.1-0.3c0.1-0.2,0.1-0.3,0.2-0.5c0.2-0.2,0.5-0.4,0.7-0.7c0.2-0.3,0.2-0.6,0.4-0.9
		c0.3-0.4,0.7-0.8,1-1.2c0.6-0.6,1.2-1.1,2.2-0.8c-0.2-0.3-0.3-0.5-0.4-0.7c0.2-0.2,0.3-0.4,0.5-0.5c1.9-1.5,3.9-2.7,6.1-3.5
		c0.3-0.1,0.3-0.1,0.6,0.1c0.5-0.7,0.9-0.8,1.8-0.6c0.2-0.6,0.8-0.4,1.2-0.5c0.4-0.1,0.9-0.5,1.4,0c0.1,0.1,0.7-0.1,1-0.2
		c0.4-0.2,0.7-0.3,1.1-0.3c1.2,0,2.4,0,3.5,0c0.7,0,1.4,0.1,2.1,0.4c0.3,0.1,0.7,0,1.1,0.1c0.9,0.2,1.7,0.4,2.6,0.6
		C209.1,104.8,209.4,104.9,209.3,105.4z M185.3,112.6c-0.1,0.1-0.2,0.1-0.2,0.2c-0.1,0.1-0.2,0.2-0.3,0.4c-0.4,0.5-0.4,0.5,0.2,0.9
		c0.2,0.2,0.4,0.4,0.7,0.6c0.1-0.1,0.3-0.3,0.5-0.4c-0.3-0.3-0.6-0.5-0.8-0.6C185.6,113,185.6,113,185.3,112.6z M204.5,122.4
		c0.4,0.2,0.5,0.2,1.2,0c0-0.4,0-0.7-0.1-1c0-0.1-0.1-0.4-0.2-0.4c-0.2,0-0.4,0-0.5,0.1c-0.1,0.1-0.1,0.3-0.2,0.5
		C204.7,121.9,204.6,122.1,204.5,122.4z M196.8,109.9c0.4,0.3,0.5-0.3,0.8-0.1c0.2,0.2,0.5,0.3,0.9,0.4c-0.1-0.4-0.2-0.6-0.3-0.8
		c-0.3-0.1-0.6-0.1-0.8-0.2C197,109.2,196.8,109.4,196.8,109.9z M194.3,111.6c0,0.4,0.1,0.8-0.5,1c0.7,0.1,1.3,0.1,1.7-0.3
		c-0.2-0.6-0.6-0.1-0.9-0.2C194.5,111.9,194.4,111.7,194.3,111.6z M201.5,106.2c0.4-0.2,0.8-0.3,1.2-0.5c0.1,0,0.1-0.2,0.1-0.3
		c0-0.1-0.1-0.2-0.2-0.2c-0.2,0-0.3,0.1-0.5,0.1c-0.2,0.1-0.4,0.1-0.7,0.1C201.5,105.7,201.5,105.9,201.5,106.2z M218.3,121
		c-0.7,0-1.3,0.5-1.2,0.9c0.2,0.1,0.4,0.1,0.6,0.2C217.9,121.7,218.1,121.4,218.3,121z M181.5,121.5c-0.1-0.2-0.1-0.6-0.5-0.5
		c-0.1,0.6,0.1,1,0.5,0.9c0.3-0.1,0.5,0,0.8,0.1c0.1,0,0.2,0,0.4-0.1C182.4,121.2,181.9,121.7,181.5,121.5z M186.6,125.5
		c0.3-0.3,0.5-0.6,0.7-0.9c-0.6-0.2-1.2,0.2-1.3,0.8C186.3,125.5,186.5,125.5,186.6,125.5z M213.9,107.9c-0.5-0.5-1,0.2-1.6,0
		c0.2,0.7,0.8,0.3,1,0.6C213.6,108.3,213.8,108.1,213.9,107.9z M181.8,116.4c0.2,0.2,0.5,0.5,0.7,0.7c0.2-0.2,0.3-0.3,0.3-0.4
		c0-0.2,0-0.4-0.2-0.5C182.4,116,182.1,116.1,181.8,116.4z"/>
	<path class="st0" d="M100.3,87.3c-0.1,0.1-0.3,0.3-0.3,0.4c0,0.2,0.2,0.4,0.3,0.5c0.1,0,0.1,0,0.2,0c-0.1,0.7-0.2,1.4-0.4,2.1
		c-0.3,1-0.5,2.2-1.3,3.1c-0.1,0.1-0.1,0.3-0.1,0.4c-0.2,0.4-0.3,0.9-0.8,0.8c-0.2,0.2,0.2,0.4,0,0.7c-0.3,0.3-0.6,0.8-0.9,1.1
		c-0.1,0.1-0.2,0-0.4-0.1c0,0-0.1,0-0.1,0.1c-0.4,1.5-1.7,2.2-2.9,3c-0.7,0.4-1.4,0.8-2.1,1.1c-1.5,0.7-3.2,1.1-4.8,1.2
		c-0.6,0-1.1,0-1.7,0c-1.7,0.1-3.4-0.4-5-1.1c-0.3-0.1-0.5-0.3-0.7-0.5c-0.1-0.1-0.2-0.2-0.3-0.2c-1.1-0.1-1.8-0.8-2.5-1.4
		c-1.4-1.1-2.6-2.3-3.5-3.9c-0.2-0.3-0.3-0.5-0.5-0.8c-0.5-1.1-1-2.2-1.4-3.3c0.2-0.2,0.3-0.3,0.5-0.5c-1-0.1-0.6-0.9-0.7-1.4
		c-0.2-0.6-0.1-1.2,0.5-1.6c0,0-0.1-0.1-0.1-0.1c-0.1,0-0.3,0-0.4,0c-0.1-1.1-0.1-1.2,0.4-1.8c-0.2,0-0.3,0-0.5-0.1
		c0.4-0.6-0.2-1.5,1-1.8c-0.7-0.3-0.4-0.8-0.3-1.2c0.6-1.5,1.2-2.9,2.2-4.1c0.8-0.9,1.6-1.7,2.5-2.5c0.7-0.7,1-0.6,1.3,0.3
		c0.5-0.4,0.5-0.7-0.2-1.2c1-0.7,2.1-1.4,3.3-1.6c0.2,0,0.4,0.1,0.6,0.1c0,0.1,0,0.1,0,0.2c-0.2,0.1-0.4,0.2-0.5,0.3
		c-0.1,0.3,0.2,0.5,0.9,0.9c0-0.2,0-0.4,0.1-0.6c0-0.1,0-0.3,0.1-0.4c0.4-0.2,0.1-0.5,0.1-0.9c0.9-0.2,1.8-0.5,2.7-0.4
		c0.3,0,0.5,0,0.8-0.1c1.4-0.1,2.8,0,4.1,0.4c0.1,0,0.2,0,0.2,0c0.3,0.2,0.7,0.3,1,0.4c1.4,0.4,2.6,1.2,3.8,2.1
		c0.1,0.1,0.3,0.2,0.4,0.3c0.3,0.3,0.5,0.5,0.8,0.8c0.1,0.1,0.2,0.3,0.3,0.4c0.4,0.3,0.8,0.6,1.1,1c0.8,1.1,1.6,2.2,2.1,3.4
		c0.1,0.3,0.2,0.6,0.3,0.9c0.1,0.2,0.2,0.4,0.3,0.6c0.4,1,0.5,2.1,0.6,3.2C100.1,86.2,100.7,86.7,100.3,87.3z M91,74.7
		c0.1,0,0.2,0,0.2,0c0.2-0.3,0.3-0.7,0.5-1.1c-0.6-0.1-0.8,0.3-1.1,0.5C90.8,74.4,90.9,74.5,91,74.7z M86.2,85.1
		c-0.5-0.4-0.6-0.4-1.5,0C85.1,85.6,85.2,85.6,86.2,85.1z M81.4,81.8c-0.3-0.4-0.6-0.2-1-0.2c0.5,0.2,0,1,0.6,1
		C81.1,82.4,81.2,82.2,81.4,81.8z"/>
	<path class="st1" d="M73,164.2c0.4-0.1,0.5-0.1,0.7-0.1c0-0.5-0.4-0.4-0.7-0.5c-0.2,0-0.3,0-0.4-0.2c-0.4-0.9-1-1.8-1.1-2.9
		c0-0.4-0.4-0.8-0.4-1.2c0-0.6-0.1-1.2-0.2-1.8c-0.1-0.9,0-1.8,0-2.7c0-0.3-0.1-0.6,0.3-0.5c0-0.3-0.2-0.6-0.1-0.9
		c0.3-1.6,0.8-3.1,1.7-4.5c0.1-0.2,0.4-0.3,0.7-0.5c0-0.1-0.1-0.2-0.2-0.4c4.7-7,13.7-8.1,19.2-4.8c-0.2,0.4-0.9,0.4-1,1
		c0.6-0.1,1.1-0.3,1.6-0.4c0-0.1-0.1-0.3-0.2-0.6c0.4,0.6,1.2,0.6,1.3,1.2c0,0,0.1,0,0.2,0c0.3,0.2,0.7,0.3,0.9,0.6
		c0.5,0.5,1,1,1.5,1.5c0.2,0.2,0.5,0.3,0.3,0.8c0,0.1,0.3,0.3,0.6,0.5c0,0.1-0.1,0.4-0.2,0.6c0.2,0,0.5,0,0.8,0
		c0.4,0.7,0.8,1.4,1.1,2.2c0.1,0.2,0.1,0.5,0.1,0.8c0.1,0.2,0.4,0.4,0.4,0.7c0.2,0.6,0.4,1.1,0.3,1.8c0,0.2,0.2,0.5,0.2,0.8
		c0,1,0,1.9,0,2.9c-0.2,0-0.3,0-0.4-0.1c0,0.2-0.1,0.5,0,0.6c0.5,0.5,0.2,1.1,0.1,1.7c-0.1,0.7-0.4,1.4-0.7,2
		c-0.1,0.2-0.1,0.6-0.5,0.6c0,0-0.1,0-0.1,0c0.3,0.6-0.6,0.8-0.6,1.3c0,0.4-0.2,0.6-0.7,0.6c0.2,0.7-0.3,1.1-0.6,1.4
		c-1.1,1.2-2.2,2.3-3.6,3.2c-0.4,0.2-0.8,0.5-1.4,0c0.1,0.5,0,0.8-0.4,0.9c-1.3,0.5-2.5,1-3.9,1.1c-0.9,0.1-1.7,0.1-2.6,0.2
		c-1.8,0.1-3.4-0.4-5-1c-0.5-0.2-0.9-0.6-1.4-0.7c-0.5-0.1-0.9-0.5-1.4-0.8c-0.4-0.3-0.9-0.6-1.3-1c-0.4-0.4-0.9-0.7-1.3-1.1
		c-0.2-0.2-0.5-0.3-0.3-0.7c0,0-0.1-0.2-0.1-0.2C73.6,165.5,73.6,164.6,73,164.2z M76,162.5c0.8,0.2,1.5,0.2,2-0.4
		C77.5,161.6,77.1,161.7,76,162.5z M88.5,161.9c-0.6,0-1-0.1-1.4-0.1c-0.1,0-0.2,0.2-0.3,0.3C87.5,162.8,87.8,162.8,88.5,161.9z
		 M75.7,153.7c0.3,0.2,0.5,0.5,0.8,0.6c0.1,0.1,0.3-0.1,0.5-0.1c-0.3-0.4-0.6-0.7-0.8-1.1C76,153.3,75.9,153.5,75.7,153.7z"/>
	<path class="st0" d="M204.5,72.8c0.6-0.5,1.4-0.1,2.1,0.8c0.8-0.3,1.4,0.3,2.1,0.6c0.6,0.3,1.1,0.7,1.6,1.1
		c0.2,0.2,0.3,0.5,0.5,0.7c0.2,0.2,0.5,0.2,0.7,0.3c0.5,0.5,1.2,1,1.2,1.9c0.5-0.1,0.7,0.2,0.9,0.6c1,1.7,1.9,3.5,2.2,5.5
		c0,0.1,0.1,0.2,0.1,0.4c-0.2,0-0.3,0-0.5-0.1c0,0,0,0-0.1,0.1c0.7,0.9,0.7,0.9,0.7,2.2c0,0.8,0,1.6-0.2,2.4
		c-0.1,0.7-0.2,1.4-0.5,2.1c-0.1,0.3-0.3,0.6-0.5,0.9c0,0.1-0.1,0.1-0.1,0.2c0.1,1.2-0.8,1.9-1.3,2.8c-0.3,0.6-0.8,1.1-1.2,1.6
		c-0.3,0.4-0.7,0.5-1,0.9c-0.2,0.4-0.7,0.6-1,0.9c-0.2,0.2-0.4,0.2-0.6,0c-0.2-0.1-0.4-0.1-0.7-0.2c0,0.3,0,0.4,0.1,0.5
		c0.1,0.3,0.1,0.5-0.2,0.6c-1,0.5-1.9,1-3,1.4c-0.4,0.2-0.9,0.3-1.4,0.5c-0.1-0.2-0.2-0.3-0.3-0.5c-0.5,0.7-1.2,0.9-2,0.6
		c-0.2-0.1-0.4,0-0.6,0c-1.4,0.4-2.7,0.1-4-0.2c-3.1-0.8-5.7-2.5-7.8-4.9c-0.7-0.8-1.2-1.7-1.7-2.5c-0.1-0.2-0.4-0.5-0.1-0.6
		c-0.2-0.3-0.5-0.5-0.6-0.8c-0.5-1.3-1-2.7-1-4.1c0-0.8-0.2-1.5-0.1-2.3c0.2-3,1.1-5.8,3-8.2c0.1-0.1,0.1-0.2,0.1-0.3
		c0.2,0,0.4,0,0.6,0c0.2,0,0.4,0,0.6,0.1c0.2-0.2,0.3-0.4,0.6-0.7c-0.6,0-0.9,0.6-1.4,0.3c0.4-0.6,0.9-1.2,1.7-1.3
		c0.2-0.2-0.3-0.4,0.1-0.7c1.6-1.1,3.2-2.1,5-2.7c0.8-0.2,1.7-0.4,2.6-0.6c0.3-0.1,0.6-0.1,0.7,0.4c0,0.1,0.1,0.2,0.3,0.5
		c0.1-0.3,0.2-0.6,0.3-0.8c0.5,0.1,1.2-0.3,1.7,0.5c0.1-0.4,0.2-0.6,0.6-0.5C203.3,72.3,204.1,72,204.5,72.8z M204.1,81.4
		c0.4,0.3,0.8,0.5,0.9,1.1c0,0.2,0.3,0.3,0.5,0.1c0.2-0.2,0.2-0.7-0.1-0.9c-0.2-0.2-0.4-0.4-0.8-0.8
		C204.5,81.1,204.3,81.2,204.1,81.4z M205.5,85.2c-0.2,0.3-0.4,0.4-0.4,0.6c0,0.1,0,0.4,0.1,0.4c0.3,0.1,0.7,0.1,1,0.1
		c0.1,0,0.2-0.3,0.3-0.5c-0.4-0.4-0.6-0.1-0.9,0C205.6,85.7,205.6,85.5,205.5,85.2z M205,94.5c0.1,0.2,0.2,0.4,0.3,0.6
		c0.7-0.3,0.1-0.8,0.2-1.1c-0.8,0-0.8,0-1.2,0.6C204.6,94.8,204.7,94.6,205,94.5z M205.5,87.1c0.6,0.1,1.1,0.2,1.8,0.4
		c-0.1-0.3-0.1-0.5-0.1-0.7C206.5,86.9,206,86.6,205.5,87.1z"/>
	<path class="st0" d="M204,142.1c0.5-0.3,1.1,0,1.7,0.2c-0.1,0.2-0.2,0.4-0.4,0.6c0.2,0,0.5,0.1,0.5,0c0.3-0.6,0.7-0.3,1-0.1
		c0.8,0.5,1.7,0.9,2.5,1.4c0.6,0.4,1.3,0.8,1.8,1.4c0.4,0.4,0.9,0.7,1.2,1.2c0.3,0.5,0.8,1,1.2,1.5c0.3,0.5,0.6,1,0.9,1.6
		c0.3,0.5,0.6,1.1,0.7,1.7c0.2,0.5,0.4,1,0.3,1.6c0,0.2,0.2,0.5,0.3,0.7c0.1,0.2,0.3,0.4-0.2,0.4c0,0.2,0,0.4,0.1,0.5
		c0.2,0.2,0.3,0.4,0.3,0.8c-0.1,1.2,0,2.5-0.3,3.8c-0.2,0.7-0.3,1.3-1.1,1.5c-0.1,0-0.2,0.1-0.3,0.2c0.2,0.5,0.6,0.2,1,0
		c-0.6,1.2-1.2,2.3-1.8,3.4c-0.4,0.7-0.4,0.7-1.2,0.7c-0.2,0.3-0.1,0.5,0.2,0.5c-0.3,0.5-0.5,0.9-1.1,1.1c0,0-0.1,0-0.1,0.1
		c-0.5,1-1.4,1.5-2.3,2c-0.7,0.5-1.6,0.9-2.4,1.2c-0.8,0.3-1.6,0.6-2.5,0.8c-0.7,0.2-1.4,0.4-2.2,0.2c-0.7-0.1-1.5,0.1-2.2,0
		c-0.9-0.1-1.8-0.3-2.8-0.5c-0.2,0-0.2-0.3-0.3-0.4c-0.3,0-0.6,0.2-0.8,0.1c-1.3-0.5-2.6-1.2-3.7-2c-0.3-0.2-0.6-0.4-0.5-0.9
		c0-0.2-0.2-0.3-0.4-0.7c-0.1,0.2-0.2,0.4-0.3,0.6c-0.6-0.7-1.2-1.3-1.7-2c-0.4-0.4-0.7-0.9-0.9-1.4c-0.3-0.5-0.6-1.1-0.9-1.6
		c-0.1-0.1,0-0.3,0-0.5c0-0.1,0-0.2,0-0.2c-0.6-0.2-0.4-0.9-0.8-1.4c0.1-0.1,0.3-0.2,0.4-0.3c0,0,0-0.1,0-0.1
		c-0.6-0.1-0.5-0.7-0.6-1.1c-0.1-0.7-0.2-1.4-0.2-2.1c-0.1-3.5,0.9-6.8,3.2-9.5c0.6-0.7,1.2-1.4,2.1-2c0.4-0.2,0.7-0.6,1-0.9
		c1.3-1,2.8-1.6,4.4-2.2c0.1,0,0.2-0.1,0.2,0c0.6,0.1,1.2-0.3,1.8-0.4c0.7-0.1,1.4-0.2,2.1,0.1c0.1,0,0.2-0.2,0.3-0.2
		c0.6,0,1.2,0,1.8,0C203.5,141.6,203.7,141.9,204,142.1z M194.5,145.1c-0.1,0.1-0.2,0.2-0.3,0.4c-0.1,0.1-0.2,0.4-0.1,0.5
		c0.1,0.1,0.3,0.2,0.5,0.2c0.4,0,0.8-0.1,0.8-0.7C195.1,145.3,194.8,145.2,194.5,145.1z M208.4,157.5c-0.3-0.3-0.5-0.4-0.7-0.1
		c-0.2,0.2-0.5,0.5-1,0.4c-0.4-0.1-0.4,0.3-0.5,0.5C207.2,158.5,207.7,157.9,208.4,157.5z M200.8,161.4c0.2-0.8-0.4-1.3-0.3-2
		c0,0-0.1-0.1-0.1-0.1c-0.2,0.1-0.4,0.3-0.6,0.4C200.1,160.2,200.4,160.7,200.8,161.4z M198.8,148.9c0.6,0.6,0.6,0.6,0.4,1.2
		c0.5,0.1,0.6-0.2,0.6-0.6c0.1-0.4-0.1-0.8-0.4-1C199.1,148.5,198.9,148.6,198.8,148.9z M191.4,156.6c0.5,0,0.8-0.1,1-0.1
		c0.5,0.1,0.6-0.1,0.7-0.5c-0.2-0.1-0.5-0.2-0.5-0.1c-0.3,0.3-0.6,0.2-0.9,0.2C191.7,156.2,191.6,156.4,191.4,156.6z"/>
	<path class="st0" d="M36,76.2c-0.1,0.2-0.1,0.4-0.2,0.7c0.3,0,0.6,0,0.8-0.1c0.1,0.5,0.8,0.6,0.7,1.2c0,0,0.2,0.1,0.3,0.1
		c0.5,0.3,0.8,1,0.6,1.5c0.9,0.2,1,1,1.3,1.6c0.3,0.7,0.6,1.5,0.7,2.3c0.1,0.6,0.4,1.2,0.3,1.9c-0.2,0.1-0.3,0.2-0.4,0.2
		c0.2,0.1,0.3,0.2,0.6,0.4c-0.1,0.1-0.2,0.3-0.4,0.5c0.5,0.6,0.5,0.6,0.1,1c0.3,0.3,0.4,0.6,0.1,1.1c-0.2,0.3,0,0.8-0.1,1.2
		c-0.1,0.6-0.3,1.2-0.5,1.8c-0.1,0.4-0.4,0.7-0.4,1.1c-0.1,0.4-0.3,0.7-0.5,1.1c-0.2,0.4-0.4,0.8-0.6,1.1c-0.2,0.3-0.5,0.7-0.7,1
		c-0.3,0.3-0.5,0.7-0.8,1c-0.3,0.3-0.6,0.6-0.9,0.9c-1.3,1.1-2.6,2.1-4.2,2.8c-0.9,0.4-1.8,0.6-2.7,0.9c-0.2,0-0.4,0-0.7,0
		c-0.3,0.4-0.8,0.5-1.4,0.2c-0.1-0.1-0.3,0-0.4,0c-0.4,0.1-0.9,0.3-1.3,0c0,0-0.2-0.1-0.2,0c-0.7,0.5-1.3,0.1-2,0
		c-0.7-0.1-1.5-0.4-2.2-0.6c-0.3-0.1-0.7-0.2-0.6-0.7c-0.7,0.2-1.2,0-1.7-0.4c-0.6-0.4-1.2-0.8-1.8-1.2c0.2-0.2,0.3-0.2,0.6-0.4
		c-0.3-0.1-0.5-0.1-0.7-0.1c-0.7-0.1-0.7-0.2-0.9-0.9c0-0.1-0.2-0.4-0.3-0.3c-0.5,0.1-0.7-0.3-1-0.6c-0.3-0.4-0.6-0.9-1-1.3
		c0.4-0.2,0.8-0.3,0.8-0.9c-0.6-0.4-0.5,0.6-1,0.4c-0.1-0.1-0.2-0.3-0.3-0.5c-0.5-1.2-1.2-2.3-1.4-3.6c-0.1-0.6-0.2-1.2-0.3-1.8
		c-0.1-0.8-0.2-1.7-0.1-2.5c0.1-1.1,0.2-2.2,0.5-3.3c0.4-1.5,1.1-2.9,2-4.3c0.2-0.3,0.4-0.7,0.7-1c0.1-0.1,0.4-0.3,0.6-0.3
		c0.5,0,0.8-0.2,1.1-0.8c-0.3,0.1-0.4,0.1-0.6,0.2c0-0.1,0-0.2,0-0.2c1.4-1.4,3-2.5,4.8-3.3c1.2-0.5,2.5-0.8,3.8-1.1
		c0.2,0,0.5,0.2,0.8,0.3c0.1-0.1,0.3-0.3,0.5-0.3c1.2,0,2.4-0.2,3.5,0.2c-0.3,0-0.7-0.1-0.6,0.5c0.3-0.1,0.6,0,0.7-0.2
		c0.3-0.3,0.7-0.2,1-0.1c0.8,0.3,1.6,0.4,2.2,1.1c0,0,0,0.1,0.1,0.1c0.8,0,1.4,0.5,2,0.9c0.6,0.4,1.2,0.9,1.8,1.4
		C35.8,76,35.9,76.1,36,76.2z M26,76.8c0.3,0,0.5,0.1,0.7,0.1c0.1-0.5,0.5-0.3,0.7-0.3c0.3-0.1,0.6-0.2,0.7-0.6
		C27.3,76.1,26.6,76.1,26,76.8z M24,78.1c-0.5-0.9-0.7-1-1.4-0.7c0,0.2,0,0.3,0,0.4C23,77.9,23.5,78,24,78.1z M38.1,92.3
		c-0.1-0.1-0.3-0.2-0.4-0.2c-0.3-0.1-0.7,0.2-0.9-0.3c0,0-0.3,0.1-0.3,0.1c0,0.1,0,0.3,0.1,0.4c0.3,0.1,0.6,0.2,0.9,0.3
		C37.8,92.8,38,92.6,38.1,92.3z M22,87.6c0.2-0.4-0.1-0.5-0.4-0.5c-0.2,0-0.4,0-0.6-0.2c-0.3-0.3-0.4-0.1-0.6,0.2
		C21.2,87.6,21.4,87.6,22,87.6z"/>
	<path class="st0" d="M140.7,141.9c0.4,0.5,0.5,0.4,0.8-0.3c2,0,4-0.2,6,0.4c2.4,0.8,4.4,1.8,6.3,3.7c0.8,0.8,1.7,1.7,2.3,2.8
		c0.6,1.1,1.2,2.1,1.6,3.3c0.1,0.3,0,0.5-0.2,0.8c0.7,0.2,0.7,0.8,0.7,1.3c0.1,1.3,0.1,2.6,0.2,3.9c0,0.2-0.1,0.5-0.2,0.7
		c-0.1,0.1-0.3,0.1-0.5,0.2c0,0.4,0.3,0.3,0.5,0.3c-0.2,0.6-0.3,1.3-0.5,1.9c0,0.1-0.2,0.2-0.3,0.3c-0.1,0.1-0.1,0.2-0.1,0.3
		c0.1,0.5-0.3,1.2-0.7,1.4c-0.1,0.4,0,0.7-0.2,0.9c-1.7,2.7-3.8,4.8-6.7,6.1c-1.8,0.8-3.8,1.3-5.8,1.2c-0.3,0-0.5-0.1-0.9-0.2
		c-0.3,0.4-0.9,0.1-1.5,0.1c-1.4-0.2-2.7-0.7-4-1.2c-1.6-0.7-2.9-1.7-4.2-2.8c-0.5-0.5-0.9-1-1.4-1.5c-0.4-0.3-0.4-0.7,0-1.2
		c-0.3,0.1-0.5,0.1-0.7,0.2c-0.6-0.8-1.1-1.7-1.5-2.7c-0.4-1.1-0.8-2.3-0.9-3.4c-0.1-1.1,0-2.2,0-3.4c0-1.7,0.5-3.3,1.2-4.8
		c0.2-0.4,0.3-0.9,0.9-0.8c0-0.3-0.2-0.6-0.1-0.8c0.4-0.5,0.8-1.1,1.2-1.5c0.1-0.1,0.2-0.1,0.2-0.3c0-0.1,0.1-0.2,0.1-0.2
		c1-1.1,2.1-2.1,3.4-2.8c0.4-0.3,0.9-0.5,1.3-0.7c0.3-0.1,0.6-0.5,1-0.2c0.1,0,0.3-0.1,0.4-0.2c0.3-0.4,0.8-0.4,1.3-0.5
		C140,142.1,140.3,141.9,140.7,141.9z M138.5,163.7c-0.4,0.1-0.7,0.1-1.1,0.2c0.3,0.5,0.5,1.1,1.1,1.2c0.1-0.3-0.4-0.5,0-0.8
		C138.6,164.3,138.5,164,138.5,163.7z M138.8,155c0.7,0.8,0.7,0.8,1.6,0.2c-0.2-0.1-0.4-0.2-0.6-0.2c-0.1,0-0.2,0.1-0.2,0
		C139.3,154.3,139.1,154.8,138.8,155z M154.5,163.3c0.2,0.4,0.5,0.2,0.7,0c0.2-0.1,0.3-0.4,0.4-0.7c0-0.1-0.1-0.3-0.1-0.6
		C155.2,162.6,154.9,162.9,154.5,163.3z M152.5,162.4c0.1,0.3,0.2,0.7,0.6,0.6c0.2-0.4,0.3-0.7,0.5-1
		C153.1,161.7,152.8,162,152.5,162.4z M148.3,159.2c0,0,0-0.1-0.1-0.1c-0.2-0.1-0.4-0.2-0.5-0.1c-0.3,0.1-0.1,0.3-0.1,0.5
		c0,0.2,0,0.4,0,0.7c0.1,0.1,0.2,0.1,0.4,0.2C148,160,148.1,159.6,148.3,159.2z M148.9,157.6c-0.1-0.2-0.1-0.4-0.2-0.6
		c-0.1-0.1-0.3-0.1-0.4-0.1c0,0-0.1,0.2-0.1,0.3c-0.1,0.1-0.2,0.3-0.3,0.4c0,0.1,0,0.2,0,0.4C148.2,157.9,148.5,157.8,148.9,157.6z
		 M150.8,162.1c0-0.6-0.2-1-0.5-1c-0.1,0.1-0.3,0.2-0.4,0.4C150.2,161.7,150.2,162.3,150.8,162.1z"/>
	<path class="st0" d="M38.1,148.3c-0.1,0.1-0.2,0.2-0.4,0.3c0.1,0.1,0.2,0.2,0.2,0.2c0.4,0,0.6,0.2,0.8,0.6c0.2,0.6,0.5,1.1,0.8,1.7
		c0.1,0.2,0.1,0.4,0.1,0.7c0.1,0.1,0.3,0.2,0.3,0.4c0.4,1.4,0.7,2.9,0.6,4.4c0,0.3,0,0.6-0.5,0.6c0.7,0.4,0.3,0.9,0.3,1.3
		c0,0.7-0.3,1.4-0.5,2.1c-0.3,0-0.5-0.1-0.8-0.1c0.1,0.2,0.1,0.4,0.2,0.5c0.4,0.2,0.3,0.5,0.2,0.8c-0.4,0.8-0.7,1.6-1.2,2.3
		c-0.6,1-1.4,1.9-2.1,2.8c-0.2-0.1-0.3-0.2-0.4-0.2c0,0.1-0.1,0.1-0.1,0.1c0.1,0.3-0.1,0.6-0.4,0.8c-1,0.6-1.9,1.3-2.8,2
		c-0.3,0.2-0.5,0.2-0.8-0.1c-0.1,0.2-0.2,0.5-0.3,0.5c-1.1,0.5-2.2,0.9-3.5,1c0-0.2,0-0.3-0.1-0.4c-0.2,0-0.3,0-0.4,0
		c0,0.2-0.1,0.3-0.1,0.5c-0.1,0-0.2,0-0.3,0c-1,0-1.9,0.1-2.9,0c-0.7,0-1.4-0.2-2.1-0.4c-1-0.3-1.9-0.6-2.8-1
		c-1.7-0.9-3.2-1.9-4.5-3.3c-1.1-1.3-2.1-2.7-2.7-4.3c-0.2-0.6-0.6-1.1-0.5-1.8c0-0.3-0.3-0.7-0.4-1.1c-0.4-1.2-0.4-2.5-0.3-3.8
		c0-0.8,0.2-1.6,0.3-2.3c0-0.1,0.1-0.2,0.1-0.3c0.3-0.3,0.4-0.7,0.3-1.1c0-0.2-0.1-0.7,0.5-0.4c0.1,0,0.3-0.1,0.5-0.2
		c-0.5-0.5-0.4-0.9-0.1-1.4c1.5-3.1,3.9-5.4,6.9-6.9c1.2-0.6,2.6-1.1,4-1.2c0.7-0.1,1.3,0,2-0.2c0.3-0.1,0.5,0.4,0.9,0.1
		c0.2-0.2,0.6-0.1,1-0.1c0.4,0,0.7,0.1,1,0.1c1.3,0.1,2.5,0.5,3.6,1.1c1,0.6,2.1,1.1,3,1.9c0.9,0.7,1.7,1.7,2.5,2.6
		C37.3,147.8,38.1,147.8,38.1,148.3z M32.9,168.8c0.8-0.3,0.6-0.9,0.7-1.5c0.2-0.1,0.5-0.2,0.8-0.4c-0.2-0.1-0.3-0.3-0.4-0.3
		c-0.2,0.1-0.6,0.2-0.6,0.3c0,0.6-0.6,0.7-0.8,1.1C32.6,168.4,32.7,168.6,32.9,168.8z M27.1,153c0.2-0.2,0.3-0.3,0.4-0.4
		c0.1-0.1,0.2-0.2,0.5-0.4c-0.4-0.1-0.6-0.1-0.8-0.1c0.2-0.3,0.4-0.7,0.6-1c-0.2-0.1-0.3-0.1-0.4-0.2c-0.2,0.3-0.6,0.5-0.5,1
		C27,152.3,26.3,152.8,27.1,153z M22.9,164c0,0.4,0.2,0.7,0.1,0.9c-0.2,0.6,0.1,0.8,0.4,1.2C23.9,165.3,23.7,164.6,22.9,164z
		 M18,148.2c0.7-0.1,1.2,0.3,1.7-0.2c-0.3-0.2-0.6-0.4-0.8-0.6C18.6,147.6,18.3,147.8,18,148.2z M21.9,147.2c0.4-0.6,0.4-0.6,0-1
		c-0.5,0.2-0.7,0.6-0.5,0.9C21.5,147.1,21.7,147.1,21.9,147.2z M13.6,151.7c-0.5,0.5-0.2,0.8,0.1,1.1c0.1,0.3-0.4,0.3-0.1,0.6
		c0.2,0.2,0.4,0.1,0.6,0.1C14,152.8,13.8,152.3,13.6,151.7z M31.7,168.8c0,0,0.1-0.1,0.1-0.1c-0.2-0.3-0.2-0.8-0.8-1
		c-0.1,0.2-0.3,0.4-0.4,0.6C31.1,168.5,31.4,168.7,31.7,168.8z"/>
	<path class="st0" d="M235.4,125.7c-0.4-0.4-0.3-1.1-0.2-1.6c0.1-1.1,0.4-2.2,0.7-3.3c0.5-2,1.4-3.8,2.4-5.7
		c0.1,0.1,0.3,0.1,0.4,0.2c0,0,0.1-0.1,0.1-0.1c-0.2-0.3-0.2-0.5,0-0.8c0.5-0.7,1-1.4,1.6-2c0.7-0.9,1.4-1.8,2.2-2.6
		c0.3-0.3,0.4-0.3,0.9,0c0.1-0.3,0.1-0.6,0.2-1c0.2,0.3,0.3,0.5,0.5,0.8c0-0.4,0-0.7,0.1-0.9c0-0.2,0.2-0.4,0.3-0.5
		c1.1-0.7,2.1-1.7,3.4-2c1.6-1.1,3.4-1.6,5.3-2c0.8-0.2,1.6-0.5,2.4-0.3c1.5-0.5,3-0.2,4.5-0.2c1.8,0,3.6,0.4,5.4,0.8
		c0.2,0,0.4,0.2,0.5,0.3c0.2,0.2,0.4,0.3,0.7,0.2c0.3,0,0.6,0.1,0.9,0.2c1.3,0.5,2.6,1.2,3.8,2c0.4,0.3,0.6,0.8,1.3,0.8
		c0,0,0.1,0.1,0.1,0.2c0.1,0.3,0.2,0.6,0.6,0.4c0.1,0,0.2,0.2,0.3,0.3c-0.1,0.1-0.3,0.2-0.4,0.3c0.3,0.3,0.6,0.3,0.8,0
		c2.1,1.9,4,4,5.3,6.5c0.1,0.3,0.5,0.5,0.2,0.9c0,0,0.1,0.3,0.2,0.4c0.5,0.4,0.5,0.4,0,0.8c0,0,0,0.1-0.1,0.2c0.1,0,0.2,0,0.3,0
		c0.3-0.1,0.5,0,0.6,0.3c0.4,1.5,0.8,2.9,1.2,4.4c0,0.2,0.1,0.3,0.1,0.5c0,0.2,0.2,0.5-0.2,0.5c0,0.1,0,0.4,0.1,0.4
		c0.3,0,0.3,0.2,0.3,0.4c0,0.7,0,1.4,0,2.2c0,0.5-0.2,0.7-0.7,0.7c-0.6,0-1.2-0.1-1.8-0.1c-0.3,0-0.6,0.1-0.9,0.1
		c-0.8,0-1.7,0-2.5,0c-0.4,0-0.8-0.1-1.1-0.5c0,0.2-0.1,0.3-0.1,0.5c-1.4,0-2.8,0-4.2,0c-0.3,0-0.6-0.2-0.9-0.3
		c-0.1,0.5-0.5,0.3-0.7,0.3c-1.6,0-3.1-0.1-4.7-0.1c-0.5,0-1.1,0.1-1.6,0.1c-0.1-0.2-0.3-0.4-0.4-0.6c-0.1,0.1-0.3,0.2-0.4,0.3
		c-0.4,0.4-0.4,0.4-0.9,0c-0.1-0.1-0.3,0-0.4-0.1c0,0.1,0,0.2,0,0.3c-1.4,0-2.7,0-4.1,0c-0.3,0-0.5,0-0.6-0.5
		c-0.3,0.4-0.6,0.8-1,0.3c-0.2-0.2-0.6-0.1-0.9-0.2c0.1,0.2,0.2,0.3,0.2,0.4c-4.4,0-8.7,0-13.1,0c-1.2,0-2.3,0.1-3.5,0
		c-0.7,0-1.4,0-2.2,0c-0.4,0-0.6-0.2-0.5-0.5C235.2,126.4,235.3,126.1,235.4,125.7z M268.8,121.6c0,0.1,0,0.1,0,0.2
		c0.7,0.1,1.3,0.2,2.2,0.4c-0.1-0.3-0.2-0.6-0.3-0.6c-0.6-0.1-1.1-0.1-1.7-0.1C269,121.4,268.9,121.5,268.8,121.6z M261.6,118.8
		c0,0,0.1,0.1,0.1,0.1c0.5,0,1,0,1.5,0c0-0.2,0-0.3,0-0.4c-0.1-0.2-0.2-0.3-0.3-0.4c-0.1,0-0.3,0.1-0.5,0.2
		c-0.1,0.1-0.3,0.1-0.4,0.2C261.9,118.6,261.8,118.7,261.6,118.8z M271.4,115.4c0,0,0.1-0.1,0.1-0.1c-0.1-0.2-0.3-0.3-0.4-0.5
		c0.1-0.2,0.3-0.3,0.4-0.5c-0.3,0.2-1-0.5-1,0.3c0,0.2,0.2,0.5,0.4,0.7C270.9,115.5,271.2,115.4,271.4,115.4z M273.5,112
		c0.3,0.8,1,0.6,1.5,0.8c0-0.1,0.1-0.2,0-0.2c-0.1-0.7-1-0.1-1.1-0.7C274,111.9,273.7,111.9,273.5,112z"/>
	<path class="st0" d="M277.1,182.3c0.1,0,0.2-0.1,0.4-0.1c0.3,0.5,0.5,1.2,0.9,1.6c0.6,0.6,0.9,1.3,1.3,2c0.1,0.3,0.3,0.5,0.2,0.8
		c-0.1,0.2,0,0.2,0.3,0.5c0.1,0.1,0.2,0.1,0.2,0.2c0.2,0.7,0.4,1.4,0.7,2.1c0.1,0.2,0.2,0.5,0.3,0.7c0.4,1.4,0.7,2.9,0.8,4.4
		c0,0.4,0.1,0.9,0.1,1.3c0,0.7-0.2,0.9-0.9,0.9c-0.7,0-1.3,0-2,0c-0.3,0-0.5,0.1-0.7-0.3c-0.1-0.3-0.5-0.1-0.7,0
		c-0.5,0.4-1.1,0.2-1.7,0.2c-0.1,0-0.1-0.2-0.2-0.4c-0.1,0.5-0.5,0.4-0.9,0.4c-0.4,0-0.7,0-1.1,0c-0.2-0.2-0.3-0.4-0.4-0.6
		c-0.2-0.2-0.4-0.2-0.6,0c0,0.1,0.1,0.2,0.1,0.4c-0.8,0.3-4.3,0.3-4.9-0.1c-0.2,0.1-0.4,0.3-0.7,0.3c-1.5,0-2.9,0-4.4,0
		c0,0-0.1,0-0.2-0.1c0.1-0.2,0.2-0.5,0.3-0.7c-0.2-0.1-0.3-0.1-0.5-0.2c-0.1,0.4-0.2,0.7-0.3,1.1c-0.2,0-0.5,0-0.7,0
		c-2.5,0-4.9,0-7.4,0c-3.5,0-7,0-10.5,0c-0.3,0-0.7-0.1-1.1-0.2c-0.5,0.4-1.2,0.1-1.9,0.2c-0.1-0.2-0.2-0.4-0.4-0.7
		c-0.1,0.3-0.1,0.4-0.2,0.7c-0.7,0-1.5,0-2.3,0c-0.8,0-1.5,0-2.3,0c-0.6,0-0.7-0.1-0.7-0.7c-0.1-2.1,0.2-4.2,0.8-6.2
		c0.3-1,0.6-2.1,1.1-3.1c0.3-0.6,0.7-1.1,0.9-1.7c0.1-0.5,0.6-0.7,1.1-0.8c-0.1-0.2-0.2-0.3-0.3-0.6c0.9-1.1,1.8-2.2,2.6-3.3
		c0.6-0.1,1-0.2,1.5-0.3c0-0.1,0-0.1,0-0.2c-0.2-0.1-0.4-0.2-0.7-0.3c0.5-0.5,1.1-1,1.6-1.5c1.5-1.1,3-2.2,4.7-2.9
		c0.6-0.3,1.2-0.5,1.8-0.7c0.6-0.2,1.2-0.4,1.9-0.6c0.7-0.2,1.3-0.3,2-0.5c2.3-0.4,4.6-0.4,6.9-0.3c1.8,0.1,3.6,0.5,5.3,1.1
		c0.3,0.1,0.3,0.4,0.3,0.6c0.5-0.3,0.9-0.2,1.3,0c0.8,0.4,1.7,0.7,2.4,1.2c1,0.7,2.1,1.2,3,2c1.1,1,2.1,2,3.1,3
		c0.2,0.2,0.3,0.4,0.5,0.6C277.1,181.8,277,182,277.1,182.3z M245.7,190.7c-0.2-0.3-0.4-0.5-0.4-0.6c-0.1-0.3-0.3-0.4-0.5-0.3
		c-0.3,0.1-0.5,0.3-0.9,0.5c0.6,0.2,1.1,0.5,1.2,1.2C245.4,191.2,245.6,190.9,245.7,190.7z M261.9,187.5c-0.5-0.2-0.9-0.7-1.6-0.5
		c0.1,0.4,0.1,0.7,0.2,1.2C260.8,187.4,261.4,187.9,261.9,187.5z M268.1,185.3c-0.8-0.3-1.1-0.2-1.6,0.3c-0.2,0.3-0.1,0.5,0.2,0.7
		c0.2-0.2,0.3-0.5,0.5-0.6C267.5,185.5,267.7,185.4,268.1,185.3z M259.4,194.7c0.2,0.3,0.4,0.5,0.6,0.7c0.3,0.5,0.4,0.5,0.8,0
		C260.2,194.7,260,194.7,259.4,194.7z M244,193.4c-0.4-0.3-0.7,0.1-1-0.1c-0.1-0.1-0.4-0.1-0.4,0c-0.1,0.2,0,0.5,0.3,0.5
		c0.3,0.1,0.7,0,1.1,0c0,0,0.1,0,0.1-0.1C244,193.7,244,193.5,244,193.4z M247.2,179.1c0.1,0.4,0.1,0.4-0.3,0.9
		c0.2,0.1,0.5,0.2,0.7,0.2c0.1,0,0.3-0.3,0.3-0.4C247.7,179.5,247.7,179.1,247.2,179.1z"/>
	<path class="st0" d="M268.9,76.2c-0.1,0.2-0.1,0.4-0.2,0.7c0.3,0,0.6,0,0.8-0.1c0.1,0.5,0.8,0.6,0.7,1.2c0,0,0.2,0.1,0.3,0.1
		c0.5,0.3,0.8,1,0.6,1.5c0.9,0.2,1,1,1.3,1.6c0.3,0.7,0.6,1.5,0.7,2.3c0.1,0.6,0.4,1.2,0.3,1.9c-0.2,0.1-0.3,0.2-0.4,0.2
		c0.2,0.1,0.3,0.2,0.6,0.4c-0.1,0.1-0.2,0.3-0.4,0.5c0.5,0.6,0.5,0.6,0.1,1c0.3,0.3,0.4,0.6,0.1,1.1c-0.2,0.3,0,0.8-0.1,1.2
		c-0.1,0.6-0.3,1.2-0.5,1.8c-0.1,0.4-0.4,0.7-0.4,1.1c-0.1,0.4-0.3,0.7-0.5,1.1c-0.2,0.4-0.4,0.8-0.6,1.1c-0.2,0.3-0.5,0.7-0.7,1
		c-0.3,0.3-0.5,0.7-0.8,1c-0.3,0.3-0.6,0.6-0.9,0.9c-1.3,1.1-2.6,2.1-4.2,2.8c-0.9,0.4-1.8,0.6-2.7,0.9c-0.2,0-0.4,0-0.7,0
		c-0.3,0.4-0.8,0.5-1.4,0.2c-0.1-0.1-0.3,0-0.4,0c-0.4,0.1-0.9,0.3-1.3,0c0,0-0.2-0.1-0.2,0c-0.7,0.5-1.3,0.1-2,0
		c-0.7-0.1-1.5-0.4-2.2-0.6c-0.3-0.1-0.7-0.2-0.6-0.7c-0.7,0.2-1.2,0-1.7-0.4c-0.6-0.4-1.2-0.8-1.8-1.2c0.2-0.2,0.3-0.2,0.6-0.4
		c-0.3-0.1-0.5-0.1-0.7-0.1c-0.7-0.1-0.7-0.2-0.9-0.9c0-0.1-0.2-0.4-0.3-0.3c-0.5,0.1-0.7-0.3-1-0.6c-0.3-0.4-0.6-0.9-1-1.3
		c0.4-0.2,0.8-0.3,0.8-0.9c-0.6-0.4-0.5,0.6-1,0.4c-0.1-0.1-0.2-0.3-0.3-0.5c-0.5-1.2-1.2-2.3-1.4-3.6c-0.1-0.6-0.2-1.2-0.3-1.8
		c-0.1-0.8-0.2-1.7-0.1-2.5c0.1-1.1,0.2-2.2,0.5-3.3c0.4-1.5,1.1-2.9,2-4.3c0.2-0.3,0.4-0.7,0.7-1c0.1-0.1,0.4-0.3,0.6-0.3
		c0.5,0,0.8-0.2,1.1-0.8c-0.3,0.1-0.4,0.1-0.6,0.2c0-0.1,0-0.2,0-0.2c1.4-1.4,3-2.5,4.8-3.3c1.2-0.5,2.5-0.8,3.8-1.1
		c0.2,0,0.5,0.2,0.8,0.3c0.1-0.1,0.3-0.3,0.5-0.3c1.2,0,2.4-0.2,3.5,0.2c-0.3,0-0.7-0.1-0.6,0.5c0.3-0.1,0.6,0,0.7-0.2
		c0.3-0.3,0.7-0.2,1-0.1c0.8,0.3,1.6,0.4,2.2,1.1c0,0,0,0.1,0.1,0.1c0.8,0,1.4,0.5,2,0.9c0.6,0.4,1.2,0.9,1.8,1.4
		C268.8,76,268.8,76.1,268.9,76.2z M259,76.8c0.3,0,0.5,0.1,0.7,0.1c0.1-0.5,0.5-0.3,0.7-0.3c0.3-0.1,0.6-0.2,0.7-0.6
		C260.3,76.1,259.6,76.1,259,76.8z M256.9,78.1c-0.5-0.9-0.7-1-1.4-0.7c0,0.2,0,0.3,0,0.4C256,77.9,256.4,78,256.9,78.1z
		 M271.1,92.3c-0.1-0.1-0.3-0.2-0.4-0.2c-0.3-0.1-0.7,0.2-0.9-0.3c0,0-0.3,0.1-0.3,0.1c0,0.1,0,0.3,0.1,0.4c0.3,0.1,0.6,0.2,0.9,0.3
		C270.8,92.8,270.9,92.6,271.1,92.3z M255,87.6c0.2-0.4-0.1-0.5-0.4-0.5c-0.2,0-0.4,0-0.6-0.2c-0.3-0.3-0.4-0.1-0.6,0.2
		C254.1,87.6,254.4,87.6,255,87.6z"/>
	<path class="st0" d="M271.1,148.3c-0.1,0.1-0.2,0.2-0.4,0.3c0.1,0.1,0.2,0.2,0.2,0.2c0.4,0,0.6,0.2,0.8,0.6
		c0.2,0.6,0.5,1.1,0.8,1.7c0.1,0.2,0.1,0.4,0.1,0.7c0.1,0.1,0.3,0.2,0.3,0.4c0.4,1.4,0.7,2.9,0.6,4.4c0,0.3,0,0.6-0.5,0.6
		c0.7,0.4,0.3,0.9,0.3,1.3c0,0.7-0.3,1.4-0.5,2.1c-0.3,0-0.5-0.1-0.8-0.1c0.1,0.2,0.1,0.4,0.2,0.5c0.4,0.2,0.3,0.5,0.2,0.8
		c-0.4,0.8-0.7,1.6-1.2,2.3c-0.6,1-1.4,1.9-2.1,2.8c-0.2-0.1-0.3-0.2-0.4-0.2c0,0.1-0.1,0.1-0.1,0.1c0.1,0.3-0.1,0.6-0.4,0.8
		c-1,0.6-1.9,1.3-2.8,2c-0.3,0.2-0.5,0.2-0.8-0.1c-0.1,0.2-0.2,0.5-0.3,0.5c-1.1,0.5-2.2,0.9-3.5,1c0-0.2,0-0.3-0.1-0.4
		c-0.2,0-0.3,0-0.4,0c0,0.2-0.1,0.3-0.1,0.5c-0.1,0-0.2,0-0.3,0c-1,0-1.9,0.1-2.9,0c-0.7,0-1.4-0.2-2.1-0.4c-1-0.3-1.9-0.6-2.8-1
		c-1.7-0.9-3.2-1.9-4.5-3.3c-1.1-1.3-2.1-2.7-2.7-4.3c-0.2-0.6-0.6-1.1-0.5-1.8c0-0.3-0.3-0.7-0.4-1.1c-0.4-1.2-0.4-2.5-0.3-3.8
		c0-0.8,0.2-1.6,0.3-2.3c0-0.1,0.1-0.2,0.1-0.3c0.3-0.3,0.4-0.7,0.3-1.1c0-0.2-0.1-0.7,0.5-0.4c0.1,0,0.3-0.1,0.5-0.2
		c-0.5-0.5-0.4-0.9-0.1-1.4c1.5-3.1,3.9-5.4,6.9-6.9c1.2-0.6,2.6-1.1,4-1.2c0.7-0.1,1.3,0,2-0.2c0.3-0.1,0.5,0.4,0.9,0.1
		c0.2-0.2,0.6-0.1,1-0.1c0.4,0,0.7,0.1,1,0.1c1.3,0.1,2.5,0.5,3.6,1.1c1,0.6,2.1,1.1,3,1.9c0.9,0.7,1.7,1.7,2.5,2.6
		C270.2,147.8,271.1,147.8,271.1,148.3z M265.8,168.8c0.8-0.3,0.6-0.9,0.7-1.5c0.2-0.1,0.5-0.2,0.8-0.4c-0.2-0.1-0.3-0.3-0.4-0.3
		c-0.2,0.1-0.6,0.2-0.6,0.3c0,0.6-0.6,0.7-0.8,1.1C265.6,168.4,265.7,168.6,265.8,168.8z M260,153c0.2-0.2,0.3-0.3,0.4-0.4
		c0.1-0.1,0.2-0.2,0.5-0.4c-0.4-0.1-0.6-0.1-0.8-0.1c0.2-0.3,0.4-0.7,0.6-1c-0.2-0.1-0.3-0.1-0.4-0.2c-0.2,0.3-0.6,0.5-0.5,1
		C259.9,152.3,259.3,152.8,260,153z M255.8,164c0,0.4,0.2,0.7,0.1,0.9c-0.2,0.6,0.1,0.8,0.4,1.2C256.9,165.3,256.7,164.6,255.8,164z
		 M250.9,148.2c0.7-0.1,1.2,0.3,1.7-0.2c-0.3-0.2-0.6-0.4-0.8-0.6C251.5,147.6,251.3,147.8,250.9,148.2z M254.8,147.2
		c0.4-0.6,0.4-0.6,0-1c-0.5,0.2-0.7,0.6-0.5,0.9C254.5,147.1,254.6,147.1,254.8,147.2z M246.5,151.7c-0.5,0.5-0.2,0.8,0.1,1.1
		c0.1,0.3-0.4,0.3-0.1,0.6c0.2,0.2,0.4,0.1,0.6,0.1C246.9,152.8,246.7,152.3,246.5,151.7z M264.7,168.8c0,0,0.1-0.1,0.1-0.1
		c-0.2-0.3-0.2-0.8-0.8-1c-0.1,0.2-0.3,0.4-0.4,0.6C264,168.5,264.3,168.7,264.7,168.8z"/>
	<path class="st0" d="M340.1,196.5c-0.2,0.1-0.4,0.2-0.6,0.2c-1.2,0-2.5,0-3.7,0c0-0.3,0-0.5,0-0.7c-0.1,0-0.1,0-0.2-0.1
		c-0.1,0.2-0.2,0.4-0.4,0.7c-1.5,0-3.1,0.1-4.7,0c-0.4,0-0.8,0.1-1.2,0.1c-1.7,0-3.4,0-5.1,0c-0.2,0-0.5-0.1-0.7-0.2
		c-0.1,0-0.3-0.1-0.4-0.1c-0.9,0.4-1.8,0.2-2.7,0.3c-0.3,0-0.4-0.4-0.7-0.1c-0.2,0.1-0.5,0.1-0.8,0.1c-1.9,0-3.8-0.1-5.7-0.1
		c-2.9,0-5.7,0.1-8.6,0.1c-1.6,0-3.2,0-4.7,0c0-0.4,0-0.7,0-1c-0.1,0-0.1,0-0.2,0c-0.1,0.3-0.2,0.6-0.4,1c0.1,0,0,0,0,0
		c-0.5-0.2-0.9,0-1.4,0c-0.7,0-1.5,0.2-2.2-0.2c-0.2-0.1-0.5-0.1-0.8,0.1c-0.2,0.2-0.7,0.1-1.1,0.1c-0.2,0-0.4-0.1-0.8-0.2
		c0.1-1.1,0.1-2.3,0.2-3.4c0.1-1.4,0.5-2.8,0.9-4.1c0.4-1.4,1-2.6,1.7-3.9c0.4-0.8,1-1.5,1.4-2.3c0.3-0.4,0.6-0.6,1.2-0.5
		c-0.4-0.7,0.1-1.1,0.5-1.5c1.1-1.3,2.4-2.4,3.7-3.4c0.9-0.7,1.9-1.2,2.8-1.8c0.4-0.3,0.8-0.3,1.3,0c0-0.2,0-0.4-0.1-0.6
		c0.4-0.2,0.9-0.4,1.4-0.6c1.8-0.6,3.7-1.1,5.6-1.2c1.2-0.1,2.5-0.1,3.7-0.1c0.2,0,0.4,0.1,0.7,0.2c0.3-0.3,0.8-0.3,1.3-0.2
		c0.5,0.1,1.1,0.2,1.6,0.2c0.1,0,0.2,0.1,0.3,0.2c0.1,0.1,0.2,0.2,0.4,0.2c0.2,0,0.2-0.1,0.2-0.3c0.1,0,0.2,0,0.3,0
		c0.4,0.1,0.8,0.2,1.2,0.3c-0.6,0.2,0.2,0.7-0.2,1c0.3,0,0.6,0.1,0.9,0.1c0-0.3,0.1-0.6,0.1-0.9c0.7,0.4,1.5,0.4,2,1.1
		c0.3-0.1,0.8,0,1.1,0.3c1.3,0.9,2.6,1.7,4,2.6c0.1,0.1,0.1,0.1,0.3,0.3c-0.2,0-0.3,0-0.6,0.1c0.4,0.3,0.7,0.4,1.1,0.7
		c-0.1-0.2-0.1-0.4-0.2-0.7c1.5,1.5,3,2.8,4,4.4c0,0.5,0.1,0.9,0.1,1.4c0.3-0.2,0.4-0.3,0.6-0.4c1.3,1.9,2.1,3.9,2.7,6.1
		C340,192,340.3,194.2,340.1,196.5z M314.4,190.6c0.1,0.3,0.2,0.4,0.2,0.5c-0.1,0.2-0.2,0.4,0,0.5c0.3,0.1,0.4,0,0.6-0.2
		c0-0.1,0.1-0.2,0.1-0.2c0.6,0.2,0.6,0.2,1.1,0.1C316,190.3,315.1,190.8,314.4,190.6z M331.3,194.2c0.5-0.5,0.9-1.2,1.7-0.9
		c0,0,0.2-0.2,0.3-0.3c-0.7-0.1-1.3-0.1-1.9-0.2C331.1,193.2,331.2,193.7,331.3,194.2z M309.8,189c0.4-0.2,0.7-0.8,0.5-1.1
		c-0.2-0.3-0.4-0.3-0.7-0.2c-0.2,0.1-0.4,0.4-0.3,0.5C309.4,188.5,309.6,188.7,309.8,189z M330.6,192.2c-0.2-0.5-0.7-0.5-1.1-0.7
		c-0.1,0-0.3,0.1-0.4,0.2c0.1,0.1,0.1,0.3,0.3,0.4C329.7,192.4,330.1,192.5,330.6,192.2z M333.6,187.8c-0.6,0.1-1.3-0.6-1.9,0.3
		C332.5,188,333.1,188.7,333.6,187.8z M312.4,182.1c-0.2,0-0.4,0.1-0.6,0.2c0.2,0.3,0.4,0.5,0.6,0.7c0.2,0.4,0.3,0.4,0.8,0.1
		C312.9,182.8,312.7,182.5,312.4,182.1z M309.7,177.9c0-0.1,0-0.1,0.1-0.2c-0.2-0.1-0.3-0.2-0.5-0.1c-0.3,0.1-0.5,0.2-0.8,0.3
		c-0.5,0.2-0.5,0.2-0.1,0.5C308.9,178.2,309.3,178,309.7,177.9z M309.7,195.2c-0.5,0.6-0.5,0.6-0.1,1.2c0.2-0.2,0.4-0.3,0.7-0.5
		C310.1,195.6,309.9,195.4,309.7,195.2z M320.9,175c0,0.6-0.4,0.6-0.8,0.7c0,0.2,0,0.4,0.1,0.7c0.5-0.4,0.8-0.6,1.2-0.9
		C321.2,175.3,321.1,175.2,320.9,175z"/>
	<path class="st0" d="M324.9,105.4c0.2,0,0.4,0,0.6-0.1c0.1,0,0.3-0.1,0.4-0.1c0.6,0.3,1.2,0.7,1.9,1c1,0.4,1.8,1,2.6,1.6
		c0.6,0.4,1.2,0.9,1.8,1.4c0.2,0.2,0.3,0.5,0.5,0.7c0,0.1,0.1,0.1,0.1,0.2c1.7,1.3,1.9,1.5,3.5,3.7c-0.1,0.1-0.2,0.1-0.5,0.3
		c0.4,0.1,0.6,0.1,0.9,0.2c0.5,1,1.1,2.2,1.7,3.2c-0.2,0.4-0.7,0.5-0.5,1c0.2,0,0.4,0,0.6,0c0-0.2,0-0.3,0-0.5
		c0.8,2,1.4,4.1,1.6,6.2c-0.2,0.1-0.3,0.2-0.6,0.4c0.2,0.1,0.4,0.2,0.6,0.3c0,0.6,0,1.2,0,1.8c0,0.2-0.4,0.3-0.6,0.4
		c-0.2,0.1-0.4,0-0.6,0c-1.7,0-3.3,0-5,0c-0.4,0-0.8,0-1.2-0.2c-0.4-0.2-0.6,0-0.9,0c-0.3,0-0.6,0.2-1,0.2c-2.8,0-5.6,0-8.4,0
		c-0.3,0-0.6-0.1-1.1-0.2c-0.3,0.3-0.9,0.2-1.4,0.2c-0.5,0-1.1,0.2-1.3-0.6c-0.2,0.1-0.4,0.1-0.7,0.2c0.1,0.1,0.2,0.2,0.2,0.3
		c-7.4,0-14.7,0-22.1,0c-0.1-0.2-0.2-0.3-0.3-0.7c-0.2,0.4-0.2,0.5-0.3,0.8c-0.5,0-1,0-1.5,0c-0.5,0-0.7-0.1-0.7-0.6
		c0-0.8-0.1-1.6,0-2.4c0.1-1.1,0.4-2.2,0.6-3.3c0.2-0.7,0.3-1.5,0.6-2.1c0.3-0.5,0.3-1.1,0.7-1.7c0.3-0.5,0.7-1,0.9-1.6
		c0.2-0.6,0.5-1.2,1.1-1.5c0.1,0,0.1-0.2,0.1-0.3c0.1-0.2,0.1-0.3,0.2-0.5c0.2-0.2,0.5-0.4,0.7-0.7c0.2-0.3,0.2-0.6,0.4-0.9
		c0.3-0.4,0.7-0.8,1-1.2c0.6-0.6,1.2-1.1,2.2-0.8c-0.2-0.3-0.3-0.5-0.4-0.7c0.2-0.2,0.3-0.4,0.5-0.5c1.9-1.5,3.9-2.7,6.1-3.5
		c0.3-0.1,0.3-0.1,0.6,0.1c0.5-0.7,0.9-0.8,1.8-0.6c0.2-0.6,0.8-0.4,1.2-0.5c0.4-0.1,0.9-0.5,1.4,0c0.1,0.1,0.7-0.1,1-0.2
		c0.4-0.2,0.7-0.3,1.1-0.3c1.2,0,2.4,0,3.5,0c0.7,0,1.4,0.1,2.1,0.4c0.3,0.1,0.7,0,1.1,0.1c0.9,0.2,1.7,0.4,2.6,0.6
		C324.7,104.8,325,104.9,324.9,105.4z M300.8,112.6c-0.1,0.1-0.2,0.1-0.2,0.2c-0.1,0.1-0.2,0.2-0.3,0.4c-0.4,0.5-0.4,0.5,0.2,0.9
		c0.2,0.2,0.4,0.4,0.7,0.6c0.1-0.1,0.3-0.3,0.5-0.4c-0.3-0.3-0.6-0.5-0.8-0.6C301.1,113,301.1,113,300.8,112.6z M320,122.4
		c0.4,0.2,0.5,0.2,1.2,0c0-0.4,0-0.7-0.1-1c0-0.1-0.1-0.4-0.2-0.4c-0.2,0-0.4,0-0.5,0.1c-0.1,0.1-0.1,0.3-0.2,0.5
		C320.3,121.9,320.2,122.1,320,122.4z M312.4,109.9c0.4,0.3,0.5-0.3,0.8-0.1c0.2,0.2,0.5,0.3,0.9,0.4c-0.1-0.4-0.2-0.6-0.3-0.8
		c-0.3-0.1-0.6-0.1-0.8-0.2C312.5,109.2,312.4,109.4,312.4,109.9z M309.9,111.6c0,0.4,0.1,0.8-0.5,1c0.7,0.1,1.3,0.1,1.7-0.3
		c-0.2-0.6-0.6-0.1-0.9-0.2C310.1,111.9,310,111.7,309.9,111.6z M317.1,106.2c0.4-0.2,0.8-0.3,1.2-0.5c0.1,0,0.1-0.2,0.1-0.3
		c0-0.1-0.1-0.2-0.2-0.2c-0.2,0-0.3,0.1-0.5,0.1c-0.2,0.1-0.4,0.1-0.7,0.1C317,105.7,317.1,105.9,317.1,106.2z M333.8,121
		c-0.7,0-1.3,0.5-1.2,0.9c0.2,0.1,0.4,0.1,0.6,0.2C333.5,121.7,333.7,121.4,333.8,121z M297.1,121.5c-0.1-0.2-0.1-0.6-0.5-0.5
		c-0.1,0.6,0.1,1,0.5,0.9c0.3-0.1,0.5,0,0.8,0.1c0.1,0,0.2,0,0.4-0.1C298,121.2,297.5,121.7,297.1,121.5z M302.2,125.5
		c0.3-0.3,0.5-0.6,0.7-0.9c-0.6-0.2-1.2,0.2-1.3,0.8C301.8,125.5,302,125.5,302.2,125.5z M329.5,107.9c-0.5-0.5-1,0.2-1.6,0
		c0.2,0.7,0.8,0.3,1,0.6C329.1,108.3,329.3,108.1,329.5,107.9z M297.4,116.4c0.2,0.2,0.5,0.5,0.7,0.7c0.2-0.2,0.3-0.3,0.3-0.4
		c0-0.2,0-0.4-0.2-0.5C298,116,297.7,116.1,297.4,116.4z"/>
	<path class="st0" d="M320,72.8c0.6-0.5,1.4-0.1,2.1,0.8c0.8-0.3,1.4,0.3,2.1,0.6c0.6,0.3,1.1,0.7,1.6,1.1c0.2,0.2,0.3,0.5,0.5,0.7
		c0.2,0.2,0.5,0.2,0.7,0.3c0.5,0.5,1.2,1,1.2,1.9c0.5-0.1,0.7,0.2,0.9,0.6c1,1.7,1.9,3.5,2.2,5.5c0,0.1,0.1,0.2,0.1,0.4
		c-0.2,0-0.3,0-0.5-0.1c0,0,0,0-0.1,0.1c0.7,0.9,0.7,0.9,0.7,2.2c0,0.8,0,1.6-0.2,2.4c-0.1,0.7-0.2,1.4-0.5,2.1
		c-0.1,0.3-0.3,0.6-0.5,0.9c0,0.1-0.1,0.1-0.1,0.2c0.1,1.2-0.8,1.9-1.3,2.8c-0.3,0.6-0.8,1.1-1.2,1.6c-0.3,0.4-0.7,0.5-1,0.9
		c-0.2,0.4-0.7,0.6-1,0.9c-0.2,0.2-0.4,0.2-0.6,0c-0.2-0.1-0.4-0.1-0.7-0.2c0,0.3,0,0.4,0.1,0.5c0.1,0.3,0.1,0.5-0.2,0.6
		c-1,0.5-1.9,1-3,1.4c-0.4,0.2-0.9,0.3-1.4,0.5c-0.1-0.2-0.2-0.3-0.3-0.5c-0.5,0.7-1.2,0.9-2,0.6c-0.2-0.1-0.4,0-0.6,0
		c-1.4,0.4-2.7,0.1-4-0.2c-3.1-0.8-5.7-2.5-7.8-4.9c-0.7-0.8-1.2-1.7-1.7-2.5c-0.1-0.2-0.4-0.5-0.1-0.6c-0.2-0.3-0.5-0.5-0.6-0.8
		c-0.5-1.3-1-2.7-1-4.1c0-0.8-0.2-1.5-0.1-2.3c0.2-3,1.1-5.8,3-8.2c0.1-0.1,0.1-0.2,0.1-0.3c0.2,0,0.4,0,0.6,0c0.2,0,0.4,0,0.6,0.1
		c0.2-0.2,0.3-0.4,0.6-0.7c-0.6,0-0.9,0.6-1.4,0.3c0.4-0.6,0.9-1.2,1.7-1.3c0.2-0.2-0.3-0.4,0.1-0.7c1.6-1.1,3.2-2.1,5-2.7
		c0.8-0.2,1.7-0.4,2.6-0.6c0.3-0.1,0.6-0.1,0.7,0.4c0,0.1,0.1,0.2,0.3,0.5c0.1-0.3,0.2-0.6,0.3-0.8c0.5,0.1,1.2-0.3,1.7,0.5
		c0.1-0.4,0.2-0.6,0.6-0.5C318.9,72.3,319.6,72,320,72.8z M319.7,81.4c0.4,0.3,0.8,0.5,0.9,1.1c0,0.2,0.3,0.3,0.5,0.1
		c0.2-0.2,0.2-0.7-0.1-0.9c-0.2-0.2-0.4-0.4-0.8-0.8C320,81.1,319.9,81.2,319.7,81.4z M321,85.2c-0.2,0.3-0.4,0.4-0.4,0.6
		c0,0.1,0,0.4,0.1,0.4c0.3,0.1,0.7,0.1,1,0.1c0.1,0,0.2-0.3,0.3-0.5c-0.4-0.4-0.6-0.1-0.9,0C321.2,85.7,321.1,85.5,321,85.2z
		 M320.5,94.5c0.1,0.2,0.2,0.4,0.3,0.6c0.7-0.3,0.1-0.8,0.2-1.1c-0.8,0-0.8,0-1.2,0.6C320.1,94.8,320.3,94.6,320.5,94.5z M321,87.1
		c0.6,0.1,1.1,0.2,1.8,0.4c-0.1-0.3-0.1-0.5-0.1-0.7C322.1,86.9,321.5,86.6,321,87.1z"/>
	<path class="st0" d="M319.6,142.1c0.5-0.3,1.1,0,1.7,0.2c-0.1,0.2-0.2,0.4-0.4,0.6c0.2,0,0.5,0.1,0.5,0c0.3-0.6,0.7-0.3,1-0.1
		c0.8,0.5,1.7,0.9,2.5,1.4c0.6,0.4,1.3,0.8,1.8,1.4c0.4,0.4,0.9,0.7,1.2,1.2c0.3,0.5,0.8,1,1.2,1.5c0.3,0.5,0.6,1,0.9,1.6
		c0.3,0.5,0.6,1.1,0.7,1.7c0.2,0.5,0.4,1,0.3,1.6c0,0.2,0.2,0.5,0.3,0.7c0.1,0.2,0.3,0.4-0.2,0.4c0,0.2,0,0.4,0.1,0.5
		c0.2,0.2,0.3,0.4,0.3,0.8c-0.1,1.2,0,2.5-0.3,3.8c-0.2,0.7-0.3,1.3-1.1,1.5c-0.1,0-0.2,0.1-0.3,0.2c0.2,0.5,0.6,0.2,1,0
		c-0.6,1.2-1.2,2.3-1.8,3.4c-0.4,0.7-0.4,0.7-1.2,0.7c-0.2,0.3-0.1,0.5,0.2,0.5c-0.3,0.5-0.5,0.9-1.1,1.1c0,0-0.1,0-0.1,0.1
		c-0.5,1-1.4,1.5-2.3,2c-0.7,0.5-1.6,0.9-2.4,1.2c-0.8,0.3-1.6,0.6-2.5,0.8c-0.7,0.2-1.4,0.4-2.2,0.2c-0.7-0.1-1.5,0.1-2.2,0
		c-0.9-0.1-1.8-0.3-2.8-0.5c-0.2,0-0.2-0.3-0.3-0.4c-0.3,0-0.6,0.2-0.8,0.1c-1.3-0.5-2.6-1.2-3.7-2c-0.3-0.2-0.6-0.4-0.5-0.9
		c0-0.2-0.2-0.3-0.4-0.7c-0.1,0.2-0.2,0.4-0.3,0.6c-0.6-0.7-1.2-1.3-1.7-2c-0.4-0.4-0.7-0.9-0.9-1.4c-0.3-0.5-0.6-1.1-0.9-1.6
		c-0.1-0.1,0-0.3,0-0.5c0-0.1,0-0.2,0-0.2c-0.6-0.2-0.4-0.9-0.8-1.4c0.1-0.1,0.3-0.2,0.4-0.3c0,0,0-0.1,0-0.1
		c-0.6-0.1-0.5-0.7-0.6-1.1c-0.1-0.7-0.2-1.4-0.2-2.1c-0.1-3.5,0.9-6.8,3.2-9.5c0.6-0.7,1.2-1.4,2.1-2c0.4-0.2,0.7-0.6,1-0.9
		c1.3-1,2.8-1.6,4.4-2.2c0.1,0,0.2-0.1,0.2,0c0.6,0.1,1.2-0.3,1.8-0.4c0.7-0.1,1.4-0.2,2.1,0.1c0.1,0,0.2-0.2,0.3-0.2
		c0.6,0,1.2,0,1.8,0C319,141.6,319.3,141.9,319.6,142.1z M310,145.1c-0.1,0.1-0.2,0.2-0.3,0.4c-0.1,0.1-0.2,0.4-0.1,0.5
		c0.1,0.1,0.3,0.2,0.5,0.2c0.4,0,0.8-0.1,0.8-0.7C310.7,145.3,310.4,145.2,310,145.1z M324,157.5c-0.3-0.3-0.5-0.4-0.7-0.1
		c-0.2,0.2-0.5,0.5-1,0.4c-0.4-0.1-0.4,0.3-0.5,0.5C322.7,158.5,323.3,157.9,324,157.5z M316.3,161.4c0.2-0.8-0.4-1.3-0.3-2
		c0,0-0.1-0.1-0.1-0.1c-0.2,0.1-0.4,0.3-0.6,0.4C315.6,160.2,315.9,160.7,316.3,161.4z M314.4,148.9c0.6,0.6,0.6,0.6,0.4,1.2
		c0.5,0.1,0.6-0.2,0.6-0.6c0.1-0.4-0.1-0.8-0.4-1C314.7,148.5,314.5,148.6,314.4,148.9z M307,156.6c0.5,0,0.8-0.1,1-0.1
		c0.5,0.1,0.6-0.1,0.7-0.5c-0.2-0.1-0.5-0.2-0.5-0.1c-0.3,0.3-0.6,0.2-0.9,0.2C307.2,156.2,307.1,156.4,307,156.6z"/>
	<path class="st0" d="M350.9,125.7c-0.4-0.4-0.3-1.1-0.2-1.6c0.1-1.1,0.4-2.2,0.7-3.3c0.5-2,1.4-3.8,2.4-5.7
		c0.1,0.1,0.3,0.1,0.4,0.2c0,0,0.1-0.1,0.1-0.1c-0.2-0.3-0.2-0.5,0-0.8c0.5-0.7,1-1.4,1.6-2c0.7-0.9,1.4-1.8,2.2-2.6
		c0.3-0.3,0.4-0.3,0.9,0c0.1-0.3,0.1-0.6,0.2-1c0.2,0.3,0.3,0.5,0.5,0.8c0-0.4,0-0.7,0.1-0.9c0-0.2,0.2-0.4,0.3-0.5
		c1.1-0.7,2.1-1.7,3.4-2c1.6-1.1,3.4-1.6,5.3-2c0.8-0.2,1.6-0.5,2.4-0.3c1.5-0.5,3-0.2,4.5-0.2c1.8,0,3.6,0.4,5.4,0.8
		c0.2,0,0.4,0.2,0.5,0.3c0.2,0.2,0.4,0.3,0.7,0.2c0.3,0,0.6,0.1,0.9,0.2c1.3,0.5,2.6,1.2,3.8,2c0.4,0.3,0.6,0.8,1.3,0.8
		c0,0,0.1,0.1,0.1,0.2c0.1,0.3,0.2,0.6,0.6,0.4c0.1,0,0.2,0.2,0.3,0.3c-0.1,0.1-0.3,0.2-0.4,0.3c0.3,0.3,0.6,0.3,0.8,0
		c2.1,1.9,4,4,5.3,6.5c0.1,0.3,0.5,0.5,0.2,0.9c0,0,0.1,0.3,0.2,0.4c0.5,0.4,0.5,0.4,0,0.8c0,0,0,0.1-0.1,0.2c0.1,0,0.2,0,0.3,0
		c0.3-0.1,0.5,0,0.6,0.3c0.4,1.5,0.8,2.9,1.2,4.4c0,0.2,0.1,0.3,0.1,0.5c0,0.2,0.2,0.5-0.2,0.5c0,0.1,0,0.4,0.1,0.4
		c0.3,0,0.3,0.2,0.3,0.4c0,0.7,0,1.4,0,2.2c0,0.5-0.2,0.7-0.7,0.7c-0.6,0-1.2-0.1-1.8-0.1c-0.3,0-0.6,0.1-0.9,0.1
		c-0.8,0-1.7,0-2.5,0c-0.4,0-0.8-0.1-1.1-0.5c0,0.2-0.1,0.3-0.1,0.5c-1.4,0-2.8,0-4.2,0c-0.3,0-0.6-0.2-0.9-0.3
		c-0.1,0.5-0.5,0.3-0.7,0.3c-1.6,0-3.1-0.1-4.7-0.1c-0.5,0-1.1,0.1-1.6,0.1c-0.1-0.2-0.3-0.4-0.4-0.6c-0.1,0.1-0.3,0.2-0.4,0.3
		c-0.4,0.4-0.4,0.4-0.9,0c-0.1-0.1-0.3,0-0.4-0.1c0,0.1,0,0.2,0,0.3c-1.4,0-2.7,0-4.1,0c-0.3,0-0.5,0-0.6-0.5
		c-0.3,0.4-0.6,0.8-1,0.3c-0.2-0.2-0.6-0.1-0.9-0.2c0.1,0.2,0.2,0.3,0.2,0.4c-4.4,0-8.7,0-13.1,0c-1.2,0-2.3,0.1-3.5,0
		c-0.7,0-1.4,0-2.2,0c-0.4,0-0.6-0.2-0.5-0.5C350.8,126.4,350.8,126.1,350.9,125.7z M384.4,121.6c0,0.1,0,0.1,0,0.2
		c0.7,0.1,1.3,0.2,2.2,0.4c-0.1-0.3-0.2-0.6-0.3-0.6c-0.6-0.1-1.1-0.1-1.7-0.1C384.6,121.4,384.5,121.5,384.4,121.6z M377.2,118.8
		c0,0,0.1,0.1,0.1,0.1c0.5,0,1,0,1.5,0c0-0.2,0-0.3,0-0.4c-0.1-0.2-0.2-0.3-0.3-0.4c-0.1,0-0.3,0.1-0.5,0.2
		c-0.1,0.1-0.3,0.1-0.4,0.2C377.4,118.6,377.3,118.7,377.2,118.8z M386.9,115.4c0,0,0.1-0.1,0.1-0.1c-0.1-0.2-0.3-0.3-0.4-0.5
		c0.1-0.2,0.3-0.3,0.4-0.5c-0.3,0.2-1-0.5-1,0.3c0,0.2,0.2,0.5,0.4,0.7C386.5,115.5,386.7,115.4,386.9,115.4z M389.1,112
		c0.3,0.8,1,0.6,1.5,0.8c0-0.1,0.1-0.2,0-0.2c-0.1-0.7-1-0.1-1.1-0.7C389.5,111.9,389.3,111.9,389.1,112z"/>
	<path class="st0" d="M392.7,182.3c0.1,0,0.2-0.1,0.4-0.1c0.3,0.5,0.5,1.2,0.9,1.6c0.6,0.6,0.9,1.3,1.3,2c0.1,0.3,0.3,0.5,0.2,0.8
		c-0.1,0.2,0,0.2,0.3,0.5c0.1,0.1,0.2,0.1,0.2,0.2c0.2,0.7,0.4,1.4,0.7,2.1c0.1,0.2,0.2,0.5,0.3,0.7c0.4,1.4,0.7,2.9,0.8,4.4
		c0,0.4,0.1,0.9,0.1,1.3c0,0.7-0.2,0.9-0.9,0.9c-0.7,0-1.3,0-2,0c-0.3,0-0.5,0.1-0.7-0.3c-0.1-0.3-0.5-0.1-0.7,0
		c-0.5,0.4-1.1,0.2-1.7,0.2c-0.1,0-0.1-0.2-0.2-0.4c-0.1,0.5-0.5,0.4-0.9,0.4c-0.4,0-0.7,0-1.1,0c-0.2-0.2-0.3-0.4-0.4-0.6
		c-0.2-0.2-0.4-0.2-0.6,0c0,0.1,0.1,0.2,0.1,0.4c-0.8,0.3-4.3,0.3-4.9-0.1c-0.2,0.1-0.4,0.3-0.7,0.3c-1.5,0-2.9,0-4.4,0
		c0,0-0.1,0-0.2-0.1c0.1-0.2,0.2-0.5,0.3-0.7c-0.2-0.1-0.3-0.1-0.5-0.2c-0.1,0.4-0.2,0.7-0.3,1.1c-0.2,0-0.5,0-0.7,0
		c-2.5,0-4.9,0-7.4,0c-3.5,0-7,0-10.5,0c-0.3,0-0.7-0.1-1.1-0.2c-0.5,0.4-1.2,0.1-1.9,0.2c-0.1-0.2-0.2-0.4-0.4-0.7
		c-0.1,0.3-0.1,0.4-0.2,0.7c-0.7,0-1.5,0-2.3,0c-0.8,0-1.5,0-2.3,0c-0.6,0-0.7-0.1-0.7-0.7c-0.1-2.1,0.2-4.2,0.8-6.2
		c0.3-1,0.6-2.1,1.1-3.1c0.3-0.6,0.7-1.1,0.9-1.7c0.1-0.5,0.6-0.7,1.1-0.8c-0.1-0.2-0.2-0.3-0.3-0.6c0.9-1.1,1.8-2.2,2.6-3.3
		c0.6-0.1,1-0.2,1.5-0.3c0-0.1,0-0.1,0-0.2c-0.2-0.1-0.4-0.2-0.7-0.3c0.5-0.5,1.1-1,1.6-1.5c1.5-1.1,3-2.2,4.7-2.9
		c0.6-0.3,1.2-0.5,1.8-0.7c0.6-0.2,1.2-0.4,1.9-0.6c0.7-0.2,1.3-0.3,2-0.5c2.3-0.4,4.6-0.4,6.9-0.3c1.8,0.1,3.6,0.5,5.3,1.1
		c0.3,0.1,0.3,0.4,0.3,0.6c0.5-0.3,0.9-0.2,1.3,0c0.8,0.4,1.7,0.7,2.4,1.2c1,0.7,2.1,1.2,3,2c1.1,1,2.1,2,3.1,3
		c0.2,0.2,0.3,0.4,0.5,0.6C392.6,181.8,392.6,182,392.7,182.3z M361.3,190.7c-0.2-0.3-0.4-0.5-0.4-0.6c-0.1-0.3-0.3-0.4-0.5-0.3
		c-0.3,0.1-0.5,0.3-0.9,0.5c0.6,0.2,1.1,0.5,1.2,1.2C360.9,191.2,361.2,190.9,361.3,190.7z M377.4,187.5c-0.5-0.2-0.9-0.7-1.6-0.5
		c0.1,0.4,0.1,0.7,0.2,1.2C376.4,187.4,377,187.9,377.4,187.5z M383.7,185.3c-0.8-0.3-1.1-0.2-1.6,0.3c-0.2,0.3-0.1,0.5,0.2,0.7
		c0.2-0.2,0.3-0.5,0.5-0.6C383,185.5,383.3,185.4,383.7,185.3z M374.9,194.7c0.2,0.3,0.4,0.5,0.6,0.7c0.3,0.5,0.4,0.5,0.8,0
		C375.7,194.7,375.6,194.7,374.9,194.7z M359.6,193.4c-0.4-0.3-0.7,0.1-1-0.1c-0.1-0.1-0.4-0.1-0.4,0c-0.1,0.2,0,0.5,0.3,0.5
		c0.3,0.1,0.7,0,1.1,0c0,0,0.1,0,0.1-0.1C359.6,193.7,359.6,193.5,359.6,193.4z M362.7,179.1c0.1,0.4,0.1,0.4-0.3,0.9
		c0.2,0.1,0.5,0.2,0.7,0.2c0.1,0,0.3-0.3,0.3-0.4C363.3,179.5,363.3,179.1,362.7,179.1z"/>
	<path class="st0" d="M384.5,76.2c-0.1,0.2-0.1,0.4-0.2,0.7c0.3,0,0.6,0,0.8-0.1c0.1,0.5,0.8,0.6,0.7,1.2c0,0,0.2,0.1,0.3,0.1
		c0.5,0.3,0.8,1,0.6,1.5c0.9,0.2,1,1,1.3,1.6c0.3,0.7,0.6,1.5,0.7,2.3c0.1,0.6,0.4,1.2,0.3,1.9c-0.2,0.1-0.3,0.2-0.4,0.2
		c0.2,0.1,0.3,0.2,0.6,0.4c-0.1,0.1-0.2,0.3-0.4,0.5c0.5,0.6,0.5,0.6,0.1,1c0.3,0.3,0.4,0.6,0.1,1.1c-0.2,0.3,0,0.8-0.1,1.2
		c-0.1,0.6-0.3,1.2-0.5,1.8c-0.1,0.4-0.4,0.7-0.4,1.1c-0.1,0.4-0.3,0.7-0.5,1.1c-0.2,0.4-0.4,0.8-0.6,1.1c-0.2,0.3-0.5,0.7-0.7,1
		c-0.3,0.3-0.5,0.7-0.8,1c-0.3,0.3-0.6,0.6-0.9,0.9c-1.3,1.1-2.6,2.1-4.2,2.8c-0.9,0.4-1.8,0.6-2.7,0.9c-0.2,0-0.4,0-0.7,0
		c-0.3,0.4-0.8,0.5-1.4,0.2c-0.1-0.1-0.3,0-0.4,0c-0.4,0.1-0.9,0.3-1.3,0c0,0-0.2-0.1-0.2,0c-0.7,0.5-1.3,0.1-2,0
		c-0.7-0.1-1.5-0.4-2.2-0.6c-0.3-0.1-0.7-0.2-0.6-0.7c-0.7,0.2-1.2,0-1.7-0.4c-0.6-0.4-1.2-0.8-1.8-1.2c0.2-0.2,0.3-0.2,0.6-0.4
		c-0.3-0.1-0.5-0.1-0.7-0.1c-0.7-0.1-0.7-0.2-0.9-0.9c0-0.1-0.2-0.4-0.3-0.3c-0.5,0.1-0.7-0.3-1-0.6c-0.3-0.4-0.6-0.9-1-1.3
		c0.4-0.2,0.8-0.3,0.8-0.9c-0.6-0.4-0.5,0.6-1,0.4c-0.1-0.1-0.2-0.3-0.3-0.5c-0.5-1.2-1.2-2.3-1.4-3.6c-0.1-0.6-0.2-1.2-0.3-1.8
		c-0.1-0.8-0.2-1.7-0.1-2.5c0.1-1.1,0.2-2.2,0.5-3.3c0.4-1.5,1.1-2.9,2-4.3c0.2-0.3,0.4-0.7,0.7-1c0.1-0.1,0.4-0.3,0.6-0.3
		c0.5,0,0.8-0.2,1.1-0.8c-0.3,0.1-0.4,0.1-0.6,0.2c0-0.1,0-0.2,0-0.2c1.4-1.4,3-2.5,4.8-3.3c1.2-0.5,2.5-0.8,3.8-1.1
		c0.2,0,0.5,0.2,0.8,0.3c0.1-0.1,0.3-0.3,0.5-0.3c1.2,0,2.4-0.2,3.5,0.2c-0.3,0-0.7-0.1-0.6,0.5c0.3-0.1,0.6,0,0.7-0.2
		c0.3-0.3,0.7-0.2,1-0.1c0.8,0.3,1.6,0.4,2.2,1.1c0,0,0,0.1,0.1,0.1c0.8,0,1.4,0.5,2,0.9c0.6,0.4,1.2,0.9,1.8,1.4
		C384.3,76,384.4,76.1,384.5,76.2z M374.5,76.8c0.3,0,0.5,0.1,0.7,0.1c0.1-0.5,0.5-0.3,0.7-0.3c0.3-0.1,0.6-0.2,0.7-0.6
		C375.8,76.1,375.1,76.1,374.5,76.8z M372.5,78.1c-0.5-0.9-0.7-1-1.4-0.7c0,0.2,0,0.3,0,0.4C371.6,77.9,372,78,372.5,78.1z
		 M386.6,92.3c-0.1-0.1-0.3-0.2-0.4-0.2c-0.3-0.1-0.7,0.2-0.9-0.3c0,0-0.3,0.1-0.3,0.1c0,0.1,0,0.3,0.1,0.4c0.3,0.1,0.6,0.2,0.9,0.3
		C386.3,92.8,386.5,92.6,386.6,92.3z M370.6,87.6c0.2-0.4-0.1-0.5-0.4-0.5c-0.2,0-0.4,0-0.6-0.2c-0.3-0.3-0.4-0.1-0.6,0.2
		C369.7,87.6,370,87.6,370.6,87.6z"/>
	<path class="st0" d="M386.6,148.3c-0.1,0.1-0.2,0.2-0.4,0.3c0.1,0.1,0.2,0.2,0.2,0.2c0.4,0,0.6,0.2,0.8,0.6
		c0.2,0.6,0.5,1.1,0.8,1.7c0.1,0.2,0.1,0.4,0.1,0.7c0.1,0.1,0.3,0.2,0.3,0.4c0.4,1.4,0.7,2.9,0.6,4.4c0,0.3,0,0.6-0.5,0.6
		c0.7,0.4,0.3,0.9,0.3,1.3c0,0.7-0.3,1.4-0.5,2.1c-0.3,0-0.5-0.1-0.8-0.1c0.1,0.2,0.1,0.4,0.2,0.5c0.4,0.2,0.3,0.5,0.2,0.8
		c-0.4,0.8-0.7,1.6-1.2,2.3c-0.6,1-1.4,1.9-2.1,2.8c-0.2-0.1-0.3-0.2-0.4-0.2c0,0.1-0.1,0.1-0.1,0.1c0.1,0.3-0.1,0.6-0.4,0.8
		c-1,0.6-1.9,1.3-2.8,2c-0.3,0.2-0.5,0.2-0.8-0.1c-0.1,0.2-0.2,0.5-0.3,0.5c-1.1,0.5-2.2,0.9-3.5,1c0-0.2,0-0.3-0.1-0.4
		c-0.2,0-0.3,0-0.4,0c0,0.2-0.1,0.3-0.1,0.5c-0.1,0-0.2,0-0.3,0c-1,0-1.9,0.1-2.9,0c-0.7,0-1.4-0.2-2.1-0.4c-1-0.3-1.9-0.6-2.8-1
		c-1.7-0.9-3.2-1.9-4.5-3.3c-1.1-1.3-2.1-2.7-2.7-4.3c-0.2-0.6-0.6-1.1-0.5-1.8c0-0.3-0.3-0.7-0.4-1.1c-0.4-1.2-0.4-2.5-0.3-3.8
		c0-0.8,0.2-1.6,0.3-2.3c0-0.1,0.1-0.2,0.1-0.3c0.3-0.3,0.4-0.7,0.3-1.1c0-0.2-0.1-0.7,0.5-0.4c0.1,0,0.3-0.1,0.5-0.2
		c-0.5-0.5-0.4-0.9-0.1-1.4c1.5-3.1,3.9-5.4,6.9-6.9c1.2-0.6,2.6-1.1,4-1.2c0.7-0.1,1.3,0,2-0.2c0.3-0.1,0.5,0.4,0.9,0.1
		c0.2-0.2,0.6-0.1,1-0.1c0.4,0,0.7,0.1,1,0.1c1.3,0.1,2.5,0.5,3.6,1.1c1,0.6,2.1,1.1,3,1.9c0.9,0.7,1.7,1.7,2.5,2.6
		C385.8,147.8,386.6,147.8,386.6,148.3z M381.4,168.8c0.8-0.3,0.6-0.9,0.7-1.5c0.2-0.1,0.5-0.2,0.8-0.4c-0.2-0.1-0.3-0.3-0.4-0.3
		c-0.2,0.1-0.6,0.2-0.6,0.3c0,0.6-0.6,0.7-0.8,1.1C381.1,168.4,381.3,168.6,381.4,168.8z M375.6,153c0.2-0.2,0.3-0.3,0.4-0.4
		c0.1-0.1,0.2-0.2,0.5-0.4c-0.4-0.1-0.6-0.1-0.8-0.1c0.2-0.3,0.4-0.7,0.6-1c-0.2-0.1-0.3-0.1-0.4-0.2c-0.2,0.3-0.6,0.5-0.5,1
		C375.5,152.3,374.8,152.8,375.6,153z M371.4,164c0,0.4,0.2,0.7,0.1,0.9c-0.2,0.6,0.1,0.8,0.4,1.2
		C372.4,165.3,372.3,164.6,371.4,164z M366.5,148.2c0.7-0.1,1.2,0.3,1.7-0.2c-0.3-0.2-0.6-0.4-0.8-0.6
		C367.1,147.6,366.8,147.8,366.5,148.2z M370.4,147.2c0.4-0.6,0.4-0.6,0-1c-0.5,0.2-0.7,0.6-0.5,0.9
		C370,147.1,370.2,147.1,370.4,147.2z M362.1,151.7c-0.5,0.5-0.2,0.8,0.1,1.1c0.1,0.3-0.4,0.3-0.1,0.6c0.2,0.2,0.4,0.1,0.6,0.1
		C362.5,152.8,362.3,152.3,362.1,151.7z M380.2,168.8c0,0,0.1-0.1,0.1-0.1c-0.2-0.3-0.2-0.8-0.8-1c-0.1,0.2-0.3,0.4-0.4,0.6
		C379.6,168.5,379.9,168.7,380.2,168.8z"/>
	<path class="st0" d="M147.6,101.1c0.1-0.6-0.4-0.5-0.8-0.7c-0.1,0.1-0.2,0.3-0.4,0.5c0.2,0.1,0.4,0.2,0.6,0.2
		c0,0.1-0.1,0.1-0.1,0.1c-1.8,0.3-2.1,0.5-2.5-0.1c-0.9,0.7-1.9,0.5-2.8,0.4c-1.4-0.2-2.7-0.6-4-1.2c-0.4-0.2-1.1-0.1-1-0.9
		c0-0.1-0.2-0.2-0.3-0.2c-0.8,0.3-1.3-0.4-1.8-0.8c-0.8-0.6-1.4-1.3-2.2-2c-0.2-0.2-0.4-0.3-0.2-0.6c0-0.1-0.1-0.3-0.1-0.3
		c-0.7,0-0.8-0.6-1.1-1c-0.8-1.2-1.3-2.5-1.7-4c-0.4-1.4-0.5-2.7-0.3-4.1c0-0.2-0.1-0.5-0.1-0.7c-0.1-1.5,0.3-3,0.8-4.4
		c0.8-2.3,2.3-4.2,4.1-5.8c0.9-0.8,1.9-1.4,3-2c0.5-0.3,1.2-0.2,1.7-0.6c0.5-0.4,0.9-0.5,1.5-0.6c2.9-0.7,5.7-0.6,8.5,0.4
		c1.6,0.6,3.2,1.4,4.5,2.6c0.8,0.8,1.7,1.5,2.4,2.4c1.4,1.7,2.3,3.7,2.8,5.9c0.3,1.4,0.4,2.7,0.3,4.1c-0.1,3-1.3,5.6-3,7.9
		C153.4,98.4,150.8,100.2,147.6,101.1z M143.9,101.5c-0.2-0.5-0.2-0.5-1.6-0.8c0,0.5,0.1,0.7,0.4,0.7
		C143.1,101.4,143.5,101.5,143.9,101.5z M143.1,91.2c0,0,0-0.1,0-0.1c-0.3,0-0.5,0-0.8,0.1c-0.3,0.1-0.5,0.3-0.8,0.5
		c0.3,0.3,0.5,0.4,0.6,0.3C142.5,91.7,142.8,91.4,143.1,91.2z M136.8,79.2c0.1,0.1,0.2,0.2,0.2,0.3c-0.2,0-0.4,0.1-0.6,0.1
		c0.3,0.4,0.5,0.5,0.8,0.3c0.3-0.2,0.4-0.5,0.2-0.8C137.3,78.8,137,79.1,136.8,79.2z M152.1,91.2c-0.1,0.2-0.2,0.4-0.2,0.4
		c0.4,0.3,0.6,0.9,1.2,1.1C152.9,91.7,152.9,91.7,152.1,91.2z M142.7,88.5c-0.8-0.1-1,0.1-1.3,0.9c0.4,0.1,0.7,0.1,0.8-0.4
		C142.3,88.9,142.5,88.7,142.7,88.5z M148.9,82.1c-0.2,0.3-0.3,0.5-0.6,0.8c0.5,0,0.9,0,1.2,0c0-0.2,0.1-0.3,0.1-0.5
		c-0.2,0-0.3,0-0.4-0.1C149.1,82.3,149,82.2,148.9,82.1z M151.3,81.9c-0.5,0.4-0.5,0.4-0.2,1.1c0.2,0.4,0.3,0.4,0.6,0
		C151.6,82.6,151.4,82.3,151.3,81.9z M142.8,79.6c0.6-0.1,1.2,0.2,1.7-0.3c-0.5-0.1-0.9-0.2-1.4-0.3C143,79.2,142.9,79.4,142.8,79.6
		z M139.4,97.8c-0.6-0.1-1,0.1-1.4,0.7C138.8,98.8,139,98.1,139.4,97.8z M149.3,76.3c0-0.1,0-0.2,0-0.3c-0.4,0.3-0.7-0.6-1.2,0.1
		c0.2,0,0.3,0.1,0.5,0.1c-0.2,0.3-0.2,0.3,0.3,0.6C149,76.7,149.1,76.5,149.3,76.3z"/>
	<path class="st0" d="M152.6,36.6c-0.3,0-0.7,0-1,0c0.5,0.4,1,0.4,1.6,0.3c0,0,0-0.2,0-0.4c0.9,0.5,1.8,1,2.7,1.5
		c1.3,0.8,2.4,1.7,3.5,2.7c1.9,1.7,3.5,3.7,4.8,5.9c1.2,2,1.9,4.2,2.4,6.5c0.3,1.4,0.4,2.9,0.5,4.4c0.1,0.7-0.1,0.9-0.9,0.8
		c-1,0-2-0.1-3.1-0.1c-1.3,0-2.7,0.1-4,0.1c-0.7,0-1.3,0-2,0c-0.3,0-0.7,0.1-1-0.3c0,0-0.2,0-0.3,0c0.1,0.3-0.2,0.2-0.3,0.2
		c-0.1,0-0.3,0-0.4,0c-0.6,0.1-1.1-0.1-1.5-0.5c-0.1-0.1-0.2-0.2-0.4-0.4c0.1,0.4,0.1,0.6,0.2,0.8c-0.6-0.1-1.1,0.2-1.6-0.2
		c-0.1,0-0.2,0-0.3,0c-1.1,0.5-2.4,0.2-3.5,0.2c-0.7,0-1.3,0.1-1.9,0.1c-1.8-0.1-3.6-0.1-5.5-0.1c-0.4,0-0.8,0.1-1.2,0.1
		c-0.3,0-0.5-0.1-0.9-0.1c0.1-0.2,0.2-0.3,0.3-0.4c-0.2-0.1-0.3-0.3-0.5-0.4c-0.4,0.3-0.2,0.6,0.1,0.9c-1.8,0-3.5,0-5.2,0
		c-0.1-0.1-0.2-0.3-0.3-0.4c-0.1,0.1-0.2,0.3-0.4,0.5c-0.5,0-1.1,0-1.7,0c-0.1,0-0.3,0-0.4-0.1c-0.2-0.3-0.3-0.3-0.4,0
		c-0.5,0-1.1-0.1-1.6-0.1c-0.1,0-0.2-0.1-0.3-0.1c-0.9,0.4-1.9,0.1-2.8,0.2c-1.5,0.1-3.1,0-4.6,0c-0.3,0-0.6-0.1-0.9-0.2
		c0.1-0.5,0.1-0.9,0.2-1.4c0-0.2-0.2-0.5-0.2-0.8c0.2-1.4,0.4-2.7,0.7-4c0.6-2.5,1.7-4.8,3.2-7c1.3-1.9,2.8-3.6,4.6-5.1
		c1.4-1.2,2.9-2.3,4.6-3c0.9-0.4,1.7-0.7,2.6-1c0.3-0.1,0.7-0.1,1.2-0.2c0.1-0.3,0.4-0.5,0.8-0.1c0.1,0.1,0.3,0,0.4,0
		c0.1-0.2,0.1-0.5,0.2-0.5c0.2,0,0.5,0.1,0.6,0.2c0.2,0.2,0.3,0.4,0.7,0.3c-0.1-0.2-0.1-0.4-0.2-0.6c0.3-0.1,0.5-0.2,0.8-0.2
		c1.7-0.1,3.4-0.2,5.1-0.1c0.7,0,1.4,0,2.1,0.1c0.9,0.2,1.9,0.5,2.8,0.7c0.8,0.2,1.5,0.4,2.3,0.7c0.1,0,0.2,0.1,0.3,0.2
		C152.7,36.5,152.7,36.6,152.6,36.6z M146,56.9c0-0.1,0.1-0.2,0.1-0.2c-0.2-0.1-0.5-0.2-0.7-0.4c0-0.1,0.1-0.3,0.1-0.4
		c-0.4,0-0.7-0.1-1.1-0.1c0.1,0.3,0.2,0.5,0.3,0.7C145.1,56.7,145.6,56.8,146,56.9z M137.8,54.4c-0.4,0.5,0.3,1.1-0.5,1.4
		c0.3,0.1,0.5,0.2,0.7,0.2c0.2-0.3,0.4-0.6,0.4-0.9C138.3,54.9,138,54.7,137.8,54.4z M164.5,56.5c0.6,0.5,0.6,0.5,1.5-0.1
		c-0.1-0.3-0.2-0.6-0.6-0.2c-0.1,0.1-0.3,0.1-0.5,0.2C164.8,56.3,164.7,56.4,164.5,56.5z M163,48.4c0.1-0.2,0.3-0.4,0.4-0.7
		c-0.3,0-0.4,0-0.6,0c-0.3,0-0.6-0.2-0.7,0.2c-0.1,0.3,0.3,0.4,0.6,0.5C162.8,48.4,162.9,48.4,163,48.4z"/>
	<path class="st0" d="M106.6,48.1c0.1,0,0.3-0.1,0.5-0.1c0.3,0.7,0.6,1.3,0.8,2c0.6,1.5,0.9,3.2,1.2,4.8c0.2,0.9,0.1,1.8,0.2,2.7
		c0,0.6-0.3,0.9-0.9,1c-0.2,0-0.4,0-0.6,0c-3.8,0-7.6,0-11.4,0c-0.5,0-1.1,0.1-1.4-0.5c0-0.1-0.2-0.1-0.3-0.1
		c-0.1,0.1-0.2,0.1-0.2,0.2c0,0.1,0,0.2,0,0.3c-0.7,0-1.4-0.1-2,0c-0.7,0.1-1.3-0.3-2-0.1c-0.6,0.2-1.4,0-2,0
		c-0.2-0.3-0.4-0.7-0.6-1c-0.3,0.3-0.3,0.3-0.2,1c-1.2,0-2.4,0-3.6,0c0-0.1,0.1-0.3,0.1-0.5c-0.4,0.1-0.8,0.2-1.1,0.3
		c0,0.1,0,0.2-0.1,0.3c-0.5-0.1-1.2,0.3-1.4-0.6c-0.3,0-0.5,0.1-0.8,0.1c0.1,0.2,0.2,0.4,0.3,0.5c-3.8,0-7.7,0-11.4,0
		c-0.1-0.3-0.1-0.6-0.2-0.9c-0.2,0.4-0.4,0.6-0.6,0.9c-1.4,0-2.8,0-4.2,0c-0.6,0-1.2,0-1.8,0c-0.7,0-1.1-0.7-0.7-1.3
		c0.1-0.1,0.2-0.1,0.1-0.3c-0.1-0.2-0.2-0.4-0.2-0.6c0.2-1.6,0.4-3.3,0.9-4.8c0.1-0.2,0.3-0.4,0.3-0.5c0.1-0.5,0.1-0.9,0.3-1.3
		c0.4-0.9,0.8-1.9,1.3-2.8c0.2-0.4,0.5-0.7,0.8-1c0.1-0.1,0.2-0.2,0.2-0.2c-0.2-0.4,0.2-0.6,0.3-0.9c0.9-1.3,1.9-2.5,3.1-3.6
		c0.7-0.6,1.3-1.3,2.1-1.7c0.5-0.3,0.7-0.7,1.2-1c0.5-0.2,1-0.6,1.5-0.8c0.6-0.3,1.2-0.7,1.8-1c0,0.1,0,0.2,0.1,0.4
		c0.1-0.1,0.4-0.1,0.4-0.2c-0.1-0.5,0.3-0.5,0.6-0.6c1.8-0.7,3.7-1.2,5.6-1.4c0.1,0,0.3-0.1,0.4-0.1c0.2,0,0.5-0.2,0.7,0.2
		c0,0.1,0.3,0,0.4,0c0.2-0.1,0.4-0.2,0.6-0.2c1.1,0,2.3-0.1,3.4,0c1.3,0.1,2.6,0.3,3.8,0.7c1.6,0.4,3.1,1,4.6,1.8
		c0.2,0.1,0.4,0.4,0.6,0.5c0.1,0.1,0.3,0.2,0.5,0.3c0.2,0.1,0.4,0,0.5,0.1c1,0.7,2,1.4,2.9,2.2c0.8,0.6,1.4,1.3,2.1,2
		c0.5,0.5,0.5,0.5,0.4,1.2c0.5-0.2,0.8,0.1,1,0.5c0.8,1.2,1.5,2.3,2.3,3.4c-0.2,0.3-0.3,0.4-0.4,0.6C106.5,48,106.5,48.1,106.6,48.1
		z M100.9,57.7c0-0.1,0-0.2,0.1-0.3c0-0.1,0-0.1,0-0.2c0.1-0.1,0.3-0.2,0.3-0.3c0-0.1-0.1-0.4-0.2-0.4c-0.4,0-0.5-0.3-0.7-0.6
		c0,0-0.1,0-0.2,0c-0.1,0.1-0.2,0.2-0.3,0.4C100,57,100.2,57.5,100.9,57.7z M86.7,48.6c-1,0-1.5,0.4-1.2,0.9c0.2,0,0.4,0.1,0.6,0.2
		C86.4,49.3,86.5,49,86.7,48.6z M73.7,38.5c0.5,0.4,0.9,0.7,1.2,1c0,0,0.1,0,0.1-0.1c-0.2-0.4-0.4-0.7-0.5-1.1
		c0.2-0.3,0.2-0.3,0-0.5C74.2,38,74,38.2,73.7,38.5z M79.7,43.6c0.2-0.6,0.8-0.8,0.6-1.4c-0.4,0-0.7,0.2-0.9,0.5
		C79.4,43,79.6,43.2,79.7,43.6z"/>
	<path class="st0" d="M2.4,56.8c-0.4-0.4-0.3-1.1-0.2-1.6c0.1-1.1,0.4-2.2,0.7-3.3c0.5-2,1.4-3.8,2.4-5.7c0.1,0.1,0.3,0.1,0.4,0.2
		c0,0,0.1-0.1,0.1-0.1c-0.2-0.3-0.2-0.5,0-0.8c0.5-0.7,1-1.4,1.6-2c0.7-0.9,1.4-1.8,2.2-2.6c0.3-0.3,0.4-0.3,0.9,0
		c0.1-0.3,0.1-0.6,0.2-1c0.2,0.3,0.3,0.5,0.5,0.8c0-0.4,0-0.7,0.1-0.9c0-0.2,0.2-0.4,0.3-0.5c1.1-0.7,2.1-1.7,3.4-2
		c1.6-1.1,3.4-1.6,5.3-2c0.8-0.2,1.6-0.5,2.4-0.3c1.5-0.5,3-0.2,4.5-0.2c1.8,0,3.6,0.4,5.4,0.8c0.2,0,0.4,0.2,0.5,0.3
		c0.2,0.2,0.4,0.3,0.7,0.2c0.3,0,0.6,0.1,0.9,0.2c1.3,0.5,2.6,1.2,3.8,2c0.4,0.3,0.6,0.8,1.3,0.8c0,0,0.1,0.1,0.1,0.2
		c0.1,0.3,0.2,0.6,0.6,0.4c0.1,0,0.2,0.2,0.3,0.3c-0.1,0.1-0.3,0.2-0.4,0.3c0.3,0.3,0.6,0.3,0.8,0c2.1,1.9,4,4,5.3,6.5
		c0.1,0.3,0.5,0.5,0.2,0.9c0,0,0.1,0.3,0.2,0.4c0.5,0.4,0.5,0.4,0,0.8c0,0,0,0.1-0.1,0.2c0.1,0,0.2,0,0.3,0c0.3-0.1,0.5,0,0.6,0.3
		c0.4,1.5,0.8,2.9,1.2,4.4c0,0.2,0.1,0.3,0.1,0.5c0,0.2,0.2,0.5-0.2,0.5c0,0.1,0,0.4,0.1,0.4c0.3,0,0.3,0.2,0.3,0.4
		c0,0.7,0,1.4,0,2.2c0,0.5-0.2,0.7-0.7,0.7c-0.6,0-1.2-0.1-1.8-0.1c-0.3,0-0.6,0.1-0.9,0.1c-0.8,0-1.7,0-2.5,0
		c-0.4,0-0.8-0.1-1.1-0.5c0,0.2-0.1,0.3-0.1,0.5c-1.4,0-2.8,0-4.2,0c-0.3,0-0.6-0.2-0.9-0.3c-0.1,0.5-0.5,0.3-0.7,0.3
		c-1.6,0-3.1-0.1-4.7-0.1c-0.5,0-1.1,0.1-1.6,0.1c-0.1-0.2-0.3-0.4-0.4-0.6c-0.1,0.1-0.3,0.2-0.4,0.3c-0.4,0.4-0.4,0.4-0.9,0
		c-0.1-0.1-0.3,0-0.4-0.1c0,0.1,0,0.2,0,0.3c-1.4,0-2.7,0-4.1,0c-0.3,0-0.5,0-0.6-0.5c-0.3,0.4-0.6,0.8-1,0.3
		C22,58,21.6,58.1,21.2,58c0.1,0.2,0.2,0.3,0.2,0.4c-4.4,0-8.7,0-13.1,0c-1.2,0-2.3,0.1-3.5,0c-0.7,0-1.4,0-2.2,0
		c-0.4,0-0.6-0.2-0.5-0.5C2.2,57.6,2.3,57.3,2.4,56.8z M35.8,52.8c0,0.1,0,0.1,0,0.2c0.7,0.1,1.3,0.2,2.2,0.4
		c-0.1-0.3-0.2-0.6-0.3-0.6c-0.6-0.1-1.1-0.1-1.7-0.1C36,52.6,35.9,52.7,35.8,52.8z M28.7,50c0,0,0.1,0.1,0.1,0.1c0.5,0,1,0,1.5,0
		c0-0.2,0-0.3,0-0.4c-0.1-0.2-0.2-0.3-0.3-0.4c-0.1,0-0.3,0.1-0.5,0.2c-0.1,0.1-0.3,0.1-0.4,0.2C28.9,49.8,28.8,49.9,28.7,50z
		 M38.4,46.6c0,0,0.1-0.1,0.1-0.1c-0.1-0.2-0.3-0.3-0.4-0.5c0.1-0.2,0.3-0.3,0.4-0.5c-0.3,0.2-1-0.5-1,0.3c0,0.2,0.2,0.5,0.4,0.7
		C38,46.6,38.2,46.6,38.4,46.6z M40.6,43.1c0.3,0.8,1,0.6,1.5,0.8c0-0.1,0.1-0.2,0-0.2c-0.1-0.7-1-0.1-1.1-0.7
		C41,43,40.8,43.1,40.6,43.1z"/>
	<path class="st0" d="M209.3,36.6c0.2,0,0.4,0,0.6-0.1c0.1,0,0.3-0.1,0.4-0.1c0.6,0.3,1.2,0.7,1.9,1c1,0.4,1.8,1,2.6,1.6
		c0.6,0.4,1.2,0.9,1.8,1.4c0.2,0.2,0.3,0.5,0.5,0.7c0,0.1,0.1,0.1,0.1,0.2c1.7,1.3,1.9,1.5,3.5,3.7c-0.1,0.1-0.2,0.1-0.5,0.3
		c0.3,0.1,0.6,0.1,0.9,0.2c0.5,1,1.1,2.2,1.7,3.2c-0.2,0.4-0.7,0.5-0.5,1c0.2,0,0.4,0,0.6,0c0-0.2,0-0.3,0-0.5
		c0.8,2,1.4,4.1,1.6,6.2c-0.2,0.1-0.3,0.2-0.6,0.4c0.2,0.1,0.4,0.2,0.6,0.3c0,0.6,0,1.2,0,1.8c0,0.2-0.4,0.3-0.6,0.4
		c-0.2,0.1-0.4,0-0.6,0c-1.7,0-3.3,0-5,0c-0.4,0-0.8,0-1.2-0.2c-0.4-0.2-0.6,0-0.9,0c-0.3,0-0.6,0.2-1,0.2c-2.8,0-5.6,0-8.4,0
		c-0.3,0-0.6-0.1-1.1-0.2c-0.3,0.3-0.9,0.2-1.4,0.2c-0.5,0-1.1,0.2-1.3-0.6c-0.2,0.1-0.4,0.1-0.7,0.2c0.1,0.1,0.2,0.2,0.2,0.3
		c-7.4,0-14.7,0-22.1,0c-0.1-0.2-0.2-0.3-0.3-0.7c-0.2,0.4-0.2,0.5-0.3,0.8c-0.5,0-1,0-1.5,0c-0.5,0-0.7-0.1-0.7-0.6
		c0-0.8-0.1-1.6,0-2.4c0.1-1.1,0.4-2.2,0.6-3.3c0.2-0.7,0.3-1.5,0.6-2.1c0.3-0.5,0.3-1.1,0.7-1.7c0.3-0.5,0.7-1,0.9-1.6
		c0.2-0.6,0.5-1.2,1.1-1.5c0.1,0,0.1-0.2,0.1-0.3c0.1-0.2,0.1-0.3,0.2-0.5c0.2-0.2,0.5-0.4,0.7-0.7c0.2-0.3,0.2-0.6,0.4-0.9
		c0.3-0.4,0.7-0.8,1-1.2c0.6-0.6,1.2-1.1,2.2-0.8c-0.2-0.3-0.3-0.5-0.4-0.7c0.2-0.2,0.3-0.4,0.5-0.5c1.9-1.5,3.9-2.7,6.1-3.5
		c0.3-0.1,0.3-0.1,0.6,0.1c0.5-0.7,0.9-0.8,1.8-0.6c0.2-0.6,0.8-0.4,1.2-0.5c0.4-0.1,0.9-0.5,1.4,0c0.1,0.1,0.7-0.1,1-0.2
		c0.4-0.2,0.7-0.3,1.1-0.3c1.2,0,2.4,0,3.5,0c0.7,0,1.4,0.1,2.1,0.4c0.3,0.1,0.7,0,1.1,0.1c0.9,0.2,1.7,0.4,2.6,0.6
		C209.1,35.9,209.4,36.1,209.3,36.6z M185.3,43.7c-0.1,0.1-0.2,0.1-0.2,0.2c-0.1,0.1-0.2,0.2-0.3,0.4c-0.4,0.5-0.4,0.5,0.2,0.9
		c0.2,0.2,0.4,0.4,0.7,0.6c0.1-0.1,0.3-0.3,0.5-0.4c-0.3-0.3-0.6-0.5-0.8-0.6C185.6,44.1,185.6,44.1,185.3,43.7z M204.5,53.5
		c0.4,0.2,0.5,0.2,1.2,0c0-0.4,0-0.7-0.1-1c0-0.1-0.1-0.4-0.2-0.4c-0.2,0-0.4,0-0.5,0.1c-0.1,0.1-0.1,0.3-0.2,0.5
		C204.7,53,204.6,53.3,204.5,53.5z M196.8,41.1c0.4,0.3,0.5-0.3,0.8-0.1c0.2,0.2,0.5,0.3,0.9,0.4c-0.1-0.4-0.2-0.6-0.3-0.8
		c-0.3-0.1-0.6-0.1-0.8-0.2C197,40.4,196.8,40.5,196.8,41.1z M194.3,42.7c0,0.4,0.1,0.8-0.5,1c0.7,0.1,1.3,0.1,1.7-0.3
		c-0.2-0.6-0.6-0.1-0.9-0.2C194.5,43.1,194.4,42.9,194.3,42.7z M201.5,37.4c0.4-0.2,0.8-0.3,1.2-0.5c0.1,0,0.1-0.2,0.1-0.3
		c0-0.1-0.1-0.2-0.2-0.2c-0.2,0-0.3,0.1-0.5,0.1c-0.2,0.1-0.4,0.1-0.7,0.1C201.5,36.8,201.5,37.1,201.5,37.4z M218.3,52.2
		c-0.7,0-1.3,0.5-1.2,0.9c0.2,0.1,0.4,0.1,0.6,0.2C217.9,52.9,218.1,52.5,218.3,52.2z M181.5,52.7c-0.1-0.2-0.1-0.6-0.5-0.5
		c-0.1,0.6,0.1,1,0.5,0.9c0.3-0.1,0.5,0,0.8,0.1c0.1,0,0.2,0,0.4-0.1C182.4,52.4,181.9,52.8,181.5,52.7z M186.6,56.7
		c0.3-0.3,0.5-0.6,0.7-0.9c-0.6-0.2-1.2,0.2-1.3,0.8C186.3,56.6,186.5,56.7,186.6,56.7z M213.9,39c-0.5-0.5-1,0.2-1.6,0
		c0.2,0.7,0.8,0.3,1,0.6C213.6,39.4,213.8,39.2,213.9,39z M181.8,47.6c0.2,0.2,0.5,0.5,0.7,0.7c0.2-0.2,0.3-0.3,0.3-0.4
		c0-0.2,0-0.4-0.2-0.5C182.4,47.1,182.1,47.2,181.8,47.6z"/>
	<path class="st0" d="M100.3,18.4c-0.1,0.1-0.3,0.3-0.3,0.4c0,0.2,0.2,0.4,0.3,0.5c0.1,0,0.1,0,0.2,0c-0.1,0.7-0.2,1.4-0.4,2.1
		c-0.3,1-0.5,2.2-1.3,3.1c-0.1,0.1-0.1,0.3-0.1,0.4c-0.2,0.4-0.3,0.9-0.8,0.8c-0.2,0.2,0.2,0.4,0,0.7c-0.3,0.3-0.6,0.8-0.9,1.1
		c-0.1,0.1-0.2,0-0.4-0.1c0,0-0.1,0-0.1,0.1c-0.4,1.5-1.7,2.2-2.9,3c-0.7,0.4-1.4,0.8-2.1,1.1c-1.5,0.7-3.2,1.1-4.8,1.2
		c-0.6,0-1.1,0-1.7,0c-1.7,0.1-3.4-0.4-5-1.1c-0.3-0.1-0.5-0.3-0.7-0.5c-0.1-0.1-0.2-0.2-0.3-0.2c-1.1-0.1-1.8-0.8-2.5-1.4
		c-1.4-1.1-2.6-2.3-3.5-3.9c-0.2-0.3-0.3-0.5-0.5-0.8c-0.5-1.1-1-2.2-1.4-3.3c0.2-0.2,0.3-0.3,0.5-0.5c-1-0.1-0.6-0.9-0.7-1.4
		c-0.2-0.6-0.1-1.2,0.5-1.6c0,0-0.1-0.1-0.1-0.1c-0.1,0-0.3,0-0.4,0c-0.1-1.1-0.1-1.2,0.4-1.8c-0.2,0-0.3,0-0.5-0.1
		c0.4-0.6-0.2-1.5,1-1.8c-0.7-0.3-0.4-0.8-0.3-1.2c0.6-1.5,1.2-2.9,2.2-4.1c0.8-0.9,1.6-1.7,2.5-2.5c0.7-0.7,1-0.6,1.3,0.3
		c0.5-0.4,0.5-0.7-0.2-1.2c1-0.7,2.1-1.4,3.3-1.6c0.2,0,0.4,0.1,0.6,0.1c0,0.1,0,0.1,0,0.2c-0.2,0.1-0.4,0.2-0.5,0.3
		c-0.1,0.3,0.2,0.5,0.9,0.9c0-0.2,0-0.4,0.1-0.6c0-0.1,0-0.3,0.1-0.4c0.4-0.2,0.1-0.5,0.1-0.9c0.9-0.2,1.8-0.5,2.7-0.4
		c0.3,0,0.5,0,0.8-0.1c1.4-0.1,2.8,0,4.1,0.4c0.1,0,0.2,0,0.2,0c0.3,0.2,0.7,0.3,1,0.4c1.4,0.4,2.6,1.2,3.8,2.1
		c0.1,0.1,0.3,0.2,0.4,0.3c0.3,0.3,0.5,0.5,0.8,0.8c0.1,0.1,0.2,0.3,0.3,0.4c0.4,0.3,0.8,0.6,1.1,1c0.8,1.1,1.6,2.2,2.1,3.4
		c0.1,0.3,0.2,0.6,0.3,0.9c0.1,0.2,0.2,0.4,0.3,0.6c0.4,1,0.5,2.1,0.6,3.2C100.1,17.3,100.7,17.9,100.3,18.4z M91,5.9
		c0.1,0,0.2,0,0.2,0c0.2-0.3,0.3-0.7,0.5-1.1c-0.6-0.1-0.8,0.3-1.1,0.5C90.8,5.5,90.9,5.7,91,5.9z M86.2,16.3
		c-0.5-0.4-0.6-0.4-1.5,0C85.1,16.8,85.2,16.8,86.2,16.3z M81.4,13c-0.3-0.4-0.6-0.2-1-0.2c0.5,0.2,0,1,0.6,1
		C81.1,13.6,81.2,13.3,81.4,13z"/>
	<path class="st0" d="M204.5,3.9c0.6-0.5,1.4-0.1,2.1,0.8c0.8-0.3,1.4,0.3,2.1,0.6c0.6,0.3,1.1,0.7,1.6,1.1c0.2,0.2,0.3,0.5,0.5,0.7
		c0.2,0.2,0.5,0.2,0.7,0.3c0.5,0.5,1.2,1,1.2,1.9c0.5-0.1,0.7,0.2,0.9,0.6c1,1.7,1.9,3.5,2.2,5.5c0,0.1,0.1,0.2,0.1,0.4
		c-0.2,0-0.3,0-0.5-0.1c0,0,0,0-0.1,0.1c0.7,0.9,0.7,0.9,0.7,2.2c0,0.8,0,1.6-0.2,2.4c-0.1,0.7-0.2,1.4-0.5,2.1
		c-0.1,0.3-0.3,0.6-0.5,0.9c0,0.1-0.1,0.1-0.1,0.2c0.1,1.2-0.8,1.9-1.3,2.8c-0.3,0.6-0.8,1.1-1.2,1.6c-0.3,0.4-0.7,0.5-1,0.9
		c-0.2,0.4-0.7,0.6-1,0.9c-0.2,0.2-0.4,0.2-0.6,0c-0.2-0.1-0.4-0.1-0.7-0.2c0,0.3,0,0.4,0.1,0.5c0.1,0.3,0.1,0.5-0.2,0.6
		c-1,0.5-1.9,1-3,1.4c-0.4,0.2-0.9,0.3-1.4,0.5c-0.1-0.2-0.2-0.3-0.3-0.5c-0.5,0.7-1.2,0.9-2,0.6c-0.2-0.1-0.4,0-0.6,0
		c-1.4,0.4-2.7,0.1-4-0.2c-3.1-0.8-5.7-2.5-7.8-4.9c-0.7-0.8-1.2-1.7-1.7-2.5c-0.1-0.2-0.4-0.5-0.1-0.6c-0.2-0.3-0.5-0.5-0.6-0.8
		c-0.5-1.3-1-2.7-1-4.1c0-0.8-0.2-1.5-0.1-2.3c0.2-3,1.1-5.8,3-8.2c0.1-0.1,0.1-0.2,0.1-0.3c0.2,0,0.4,0,0.6,0c0.2,0,0.4,0,0.6,0.1
		c0.2-0.2,0.3-0.4,0.6-0.7c-0.6,0-0.9,0.6-1.4,0.3c0.4-0.6,0.9-1.2,1.7-1.3c0.2-0.2-0.3-0.4,0.1-0.7c1.6-1.1,3.2-2.1,5-2.7
		c0.8-0.2,1.7-0.4,2.6-0.6c0.3-0.1,0.6-0.1,0.7,0.4c0,0.1,0.1,0.2,0.3,0.5c0.1-0.3,0.2-0.6,0.3-0.8c0.5,0.1,1.2-0.3,1.7,0.5
		c0.1-0.4,0.2-0.6,0.6-0.5C203.3,3.4,204.1,3.1,204.5,3.9z M204.1,12.6c0.4,0.3,0.8,0.5,0.9,1.1c0,0.2,0.3,0.3,0.5,0.1
		c0.2-0.2,0.2-0.7-0.1-0.9c-0.2-0.2-0.4-0.4-0.8-0.8C204.5,12.2,204.3,12.4,204.1,12.6z M205.5,16.4c-0.2,0.3-0.4,0.4-0.4,0.6
		c0,0.1,0,0.4,0.1,0.4c0.3,0.1,0.7,0.1,1,0.1c0.1,0,0.2-0.3,0.3-0.5c-0.4-0.4-0.6-0.1-0.9,0C205.6,16.8,205.6,16.7,205.5,16.4z
		 M205,25.6c0.1,0.2,0.2,0.4,0.3,0.6c0.7-0.3,0.1-0.8,0.2-1.1c-0.8,0-0.8,0-1.2,0.6C204.6,26,204.7,25.7,205,25.6z M205.5,18.3
		c0.6,0.1,1.1,0.2,1.8,0.4c-0.1-0.3-0.1-0.5-0.1-0.7C206.5,18.1,206,17.8,205.5,18.3z"/>
	<path class="st0" d="M36,7.3c-0.1,0.2-0.1,0.4-0.2,0.7c0.3,0,0.6,0,0.8-0.1c0.1,0.5,0.8,0.6,0.7,1.2c0,0,0.2,0.1,0.3,0.1
		c0.5,0.3,0.8,1,0.6,1.5c0.9,0.2,1,1,1.3,1.6c0.3,0.7,0.6,1.5,0.7,2.3c0.1,0.6,0.4,1.2,0.3,1.9c-0.2,0.1-0.3,0.2-0.4,0.2
		c0.2,0.1,0.3,0.2,0.6,0.4c-0.1,0.1-0.2,0.3-0.4,0.5c0.5,0.6,0.5,0.6,0.1,1c0.3,0.3,0.4,0.6,0.1,1.1c-0.2,0.3,0,0.8-0.1,1.2
		c-0.1,0.6-0.3,1.2-0.5,1.8c-0.1,0.4-0.4,0.7-0.4,1.1c-0.1,0.4-0.3,0.7-0.5,1.1c-0.2,0.4-0.4,0.8-0.6,1.1c-0.2,0.3-0.5,0.7-0.7,1
		c-0.3,0.3-0.5,0.7-0.8,1c-0.3,0.3-0.6,0.6-0.9,0.9c-1.3,1.1-2.6,2.1-4.2,2.8c-0.9,0.4-1.8,0.6-2.7,0.9c-0.2,0-0.4,0-0.7,0
		c-0.3,0.4-0.8,0.5-1.4,0.2c-0.1-0.1-0.3,0-0.4,0c-0.4,0.1-0.9,0.3-1.3,0c0,0-0.2-0.1-0.2,0c-0.7,0.5-1.3,0.1-2,0
		c-0.7-0.1-1.5-0.4-2.2-0.6c-0.3-0.1-0.7-0.2-0.6-0.7c-0.7,0.2-1.2,0-1.7-0.4c-0.6-0.4-1.2-0.8-1.8-1.2c0.2-0.2,0.3-0.2,0.6-0.4
		c-0.3-0.1-0.5-0.1-0.7-0.1c-0.7-0.1-0.7-0.2-0.9-0.9c0-0.1-0.2-0.4-0.3-0.3c-0.5,0.1-0.7-0.3-1-0.6c-0.3-0.4-0.6-0.9-1-1.3
		c0.4-0.2,0.8-0.3,0.8-0.9c-0.6-0.4-0.5,0.6-1,0.4c-0.1-0.1-0.2-0.3-0.3-0.5c-0.5-1.2-1.2-2.3-1.4-3.6c-0.1-0.6-0.2-1.2-0.3-1.8
		c-0.1-0.8-0.2-1.7-0.1-2.5c0.1-1.1,0.2-2.2,0.5-3.3c0.4-1.5,1.1-2.9,2-4.3c0.2-0.3,0.4-0.7,0.7-1c0.1-0.1,0.4-0.3,0.6-0.3
		c0.5,0,0.8-0.2,1.1-0.8c-0.3,0.1-0.4,0.1-0.6,0.2c0-0.1,0-0.2,0-0.2c1.4-1.4,3-2.5,4.8-3.3c1.2-0.5,2.5-0.8,3.8-1.1
		c0.2,0,0.5,0.2,0.8,0.3c0.1-0.1,0.3-0.3,0.5-0.3c1.2,0,2.4-0.2,3.5,0.2c-0.3,0-0.7-0.1-0.6,0.5c0.3-0.1,0.6,0,0.7-0.2
		c0.3-0.3,0.7-0.2,1-0.1c0.8,0.3,1.6,0.4,2.2,1.1c0,0,0,0.1,0.1,0.1c0.8,0,1.4,0.5,2,0.9c0.6,0.4,1.2,0.9,1.8,1.4
		C35.8,7.2,35.9,7.2,36,7.3z M26,8c0.3,0,0.5,0.1,0.7,0.1c0.1-0.5,0.5-0.3,0.7-0.3c0.3-0.1,0.6-0.2,0.7-0.6C27.3,7.2,26.6,7.2,26,8z
		 M24,9.2c-0.5-0.9-0.7-1-1.4-0.7c0,0.2,0,0.3,0,0.4C23,9,23.5,9.1,24,9.2z M38.1,23.4c-0.1-0.1-0.3-0.2-0.4-0.2
		c-0.3-0.1-0.7,0.2-0.9-0.3c0,0-0.3,0.1-0.3,0.1c0,0.1,0,0.3,0.1,0.4c0.3,0.1,0.6,0.2,0.9,0.3C37.8,23.9,38,23.8,38.1,23.4z
		 M22,18.7c0.2-0.4-0.1-0.5-0.4-0.5c-0.2,0-0.4,0-0.6-0.2c-0.3-0.3-0.4-0.1-0.6,0.2C21.2,18.7,21.4,18.8,22,18.7z"/>
	<path class="st0" d="M235.4,56.8c-0.4-0.4-0.3-1.1-0.2-1.6c0.1-1.1,0.4-2.2,0.7-3.3c0.5-2,1.4-3.8,2.4-5.7c0.1,0.1,0.3,0.1,0.4,0.2
		c0,0,0.1-0.1,0.1-0.1c-0.2-0.3-0.2-0.5,0-0.8c0.5-0.7,1-1.4,1.6-2c0.7-0.9,1.4-1.8,2.2-2.6c0.3-0.3,0.4-0.3,0.9,0
		c0.1-0.3,0.1-0.6,0.2-1c0.2,0.3,0.3,0.5,0.5,0.8c0-0.4,0-0.7,0.1-0.9c0-0.2,0.2-0.4,0.3-0.5c1.1-0.7,2.1-1.7,3.4-2
		c1.6-1.1,3.4-1.6,5.3-2c0.8-0.2,1.6-0.5,2.4-0.3c1.5-0.5,3-0.2,4.5-0.2c1.8,0,3.6,0.4,5.4,0.8c0.2,0,0.4,0.2,0.5,0.3
		c0.2,0.2,0.4,0.3,0.7,0.2c0.3,0,0.6,0.1,0.9,0.2c1.3,0.5,2.6,1.2,3.8,2c0.4,0.3,0.6,0.8,1.3,0.8c0,0,0.1,0.1,0.1,0.2
		c0.1,0.3,0.2,0.6,0.6,0.4c0.1,0,0.2,0.2,0.3,0.3c-0.1,0.1-0.3,0.2-0.4,0.3c0.3,0.3,0.6,0.3,0.8,0c2.1,1.9,4,4,5.3,6.5
		c0.1,0.3,0.5,0.5,0.2,0.9c0,0,0.1,0.3,0.2,0.4c0.5,0.4,0.5,0.4,0,0.8c0,0,0,0.1-0.1,0.2c0.1,0,0.2,0,0.3,0c0.3-0.1,0.5,0,0.6,0.3
		c0.4,1.5,0.8,2.9,1.2,4.4c0,0.2,0.1,0.3,0.1,0.5c0,0.2,0.2,0.5-0.2,0.5c0,0.1,0,0.4,0.1,0.4c0.3,0,0.3,0.2,0.3,0.4
		c0,0.7,0,1.4,0,2.2c0,0.5-0.2,0.7-0.7,0.7c-0.6,0-1.2-0.1-1.8-0.1c-0.3,0-0.6,0.1-0.9,0.1c-0.8,0-1.7,0-2.5,0
		c-0.4,0-0.8-0.1-1.1-0.5c0,0.2-0.1,0.3-0.1,0.5c-1.4,0-2.8,0-4.2,0c-0.3,0-0.6-0.2-0.9-0.3c-0.1,0.5-0.5,0.3-0.7,0.3
		c-1.6,0-3.1-0.1-4.7-0.1c-0.5,0-1.1,0.1-1.6,0.1c-0.1-0.2-0.3-0.4-0.4-0.6c-0.1,0.1-0.3,0.2-0.4,0.3c-0.4,0.4-0.4,0.4-0.9,0
		c-0.1-0.1-0.3,0-0.4-0.1c0,0.1,0,0.2,0,0.3c-1.4,0-2.7,0-4.1,0c-0.3,0-0.5,0-0.6-0.5c-0.3,0.4-0.6,0.8-1,0.3
		c-0.2-0.2-0.6-0.1-0.9-0.2c0.1,0.2,0.2,0.3,0.2,0.4c-4.4,0-8.7,0-13.1,0c-1.2,0-2.3,0.1-3.5,0c-0.7,0-1.4,0-2.2,0
		c-0.4,0-0.6-0.2-0.5-0.5C235.2,57.6,235.3,57.3,235.4,56.8z M268.8,52.8c0,0.1,0,0.1,0,0.2c0.7,0.1,1.3,0.2,2.2,0.4
		c-0.1-0.3-0.2-0.6-0.3-0.6c-0.6-0.1-1.1-0.1-1.7-0.1C269,52.6,268.9,52.7,268.8,52.8z M261.6,50c0,0,0.1,0.1,0.1,0.1
		c0.5,0,1,0,1.5,0c0-0.2,0-0.3,0-0.4c-0.1-0.2-0.2-0.3-0.3-0.4c-0.1,0-0.3,0.1-0.5,0.2c-0.1,0.1-0.3,0.1-0.4,0.2
		C261.9,49.8,261.8,49.9,261.6,50z M271.4,46.6c0,0,0.1-0.1,0.1-0.1c-0.1-0.2-0.3-0.3-0.4-0.5c0.1-0.2,0.3-0.3,0.4-0.5
		c-0.3,0.2-1-0.5-1,0.3c0,0.2,0.2,0.5,0.4,0.7C270.9,46.6,271.2,46.6,271.4,46.6z M273.5,43.1c0.3,0.8,1,0.6,1.5,0.8
		c0-0.1,0.1-0.2,0-0.2c-0.1-0.7-1-0.1-1.1-0.7C274,43,273.7,43.1,273.5,43.1z"/>
	<path class="st0" d="M268.9,7.3c-0.1,0.2-0.1,0.4-0.2,0.7c0.3,0,0.6,0,0.8-0.1c0.1,0.5,0.8,0.6,0.7,1.2c0,0,0.2,0.1,0.3,0.1
		c0.5,0.3,0.8,1,0.6,1.5c0.9,0.2,1,1,1.3,1.6c0.3,0.7,0.6,1.5,0.7,2.3c0.1,0.6,0.4,1.2,0.3,1.9c-0.2,0.1-0.3,0.2-0.4,0.2
		c0.2,0.1,0.3,0.2,0.6,0.4c-0.1,0.1-0.2,0.3-0.4,0.5c0.5,0.6,0.5,0.6,0.1,1c0.3,0.3,0.4,0.6,0.1,1.1c-0.2,0.3,0,0.8-0.1,1.2
		c-0.1,0.6-0.3,1.2-0.5,1.8c-0.1,0.4-0.4,0.7-0.4,1.1c-0.1,0.4-0.3,0.7-0.5,1.1c-0.2,0.4-0.4,0.8-0.6,1.1c-0.2,0.3-0.5,0.7-0.7,1
		c-0.3,0.3-0.5,0.7-0.8,1c-0.3,0.3-0.6,0.6-0.9,0.9c-1.3,1.1-2.6,2.1-4.2,2.8c-0.9,0.4-1.8,0.6-2.7,0.9c-0.2,0-0.4,0-0.7,0
		c-0.3,0.4-0.8,0.5-1.4,0.2c-0.1-0.1-0.3,0-0.4,0c-0.4,0.1-0.9,0.3-1.3,0c0,0-0.2-0.1-0.2,0c-0.7,0.5-1.3,0.1-2,0
		c-0.7-0.1-1.5-0.4-2.2-0.6c-0.3-0.1-0.7-0.2-0.6-0.7c-0.7,0.2-1.2,0-1.7-0.4c-0.6-0.4-1.2-0.8-1.8-1.2c0.2-0.2,0.3-0.2,0.6-0.4
		c-0.3-0.1-0.5-0.1-0.7-0.1c-0.7-0.1-0.7-0.2-0.9-0.9c0-0.1-0.2-0.4-0.3-0.3c-0.5,0.1-0.7-0.3-1-0.6c-0.3-0.4-0.6-0.9-1-1.3
		c0.4-0.2,0.8-0.3,0.8-0.9c-0.6-0.4-0.5,0.6-1,0.4c-0.1-0.1-0.2-0.3-0.3-0.5c-0.5-1.2-1.2-2.3-1.4-3.6c-0.1-0.6-0.2-1.2-0.3-1.8
		c-0.1-0.8-0.2-1.7-0.1-2.5c0.1-1.1,0.2-2.2,0.5-3.3c0.4-1.5,1.1-2.9,2-4.3c0.2-0.3,0.4-0.7,0.7-1c0.1-0.1,0.4-0.3,0.6-0.3
		c0.5,0,0.8-0.2,1.1-0.8c-0.3,0.1-0.4,0.1-0.6,0.2c0-0.1,0-0.2,0-0.2c1.4-1.4,3-2.5,4.8-3.3c1.2-0.5,2.5-0.8,3.8-1.1
		c0.2,0,0.5,0.2,0.8,0.3c0.1-0.1,0.3-0.3,0.5-0.3c1.2,0,2.4-0.2,3.5,0.2c-0.3,0-0.7-0.1-0.6,0.5c0.3-0.1,0.6,0,0.7-0.2
		c0.3-0.3,0.7-0.2,1-0.1c0.8,0.3,1.6,0.4,2.2,1.1c0,0,0,0.1,0.1,0.1c0.8,0,1.4,0.5,2,0.9c0.6,0.4,1.2,0.9,1.8,1.4
		C268.8,7.2,268.8,7.2,268.9,7.3z M259,8c0.3,0,0.5,0.1,0.7,0.1c0.1-0.5,0.5-0.3,0.7-0.3c0.3-0.1,0.6-0.2,0.7-0.6
		C260.3,7.2,259.6,7.2,259,8z M256.9,9.2c-0.5-0.9-0.7-1-1.4-0.7c0,0.2,0,0.3,0,0.4C256,9,256.4,9.1,256.9,9.2z M271.1,23.4
		c-0.1-0.1-0.3-0.2-0.4-0.2c-0.3-0.1-0.7,0.2-0.9-0.3c0,0-0.3,0.1-0.3,0.1c0,0.1,0,0.3,0.1,0.4c0.3,0.1,0.6,0.2,0.9,0.3
		C270.8,23.9,270.9,23.8,271.1,23.4z M255,18.7c0.2-0.4-0.1-0.5-0.4-0.5c-0.2,0-0.4,0-0.6-0.2c-0.3-0.3-0.4-0.1-0.6,0.2
		C254.1,18.7,254.4,18.8,255,18.7z"/>
	<path class="st0" d="M324.9,36.6c0.2,0,0.4,0,0.6-0.1c0.1,0,0.3-0.1,0.4-0.1c0.6,0.3,1.2,0.7,1.9,1c1,0.4,1.8,1,2.6,1.6
		c0.6,0.4,1.2,0.9,1.8,1.4c0.2,0.2,0.3,0.5,0.5,0.7c0,0.1,0.1,0.1,0.1,0.2c1.7,1.3,1.9,1.5,3.5,3.7c-0.1,0.1-0.2,0.1-0.5,0.3
		c0.4,0.1,0.6,0.1,0.9,0.2c0.5,1,1.1,2.2,1.7,3.2c-0.2,0.4-0.7,0.5-0.5,1c0.2,0,0.4,0,0.6,0c0-0.2,0-0.3,0-0.5
		c0.8,2,1.4,4.1,1.6,6.2c-0.2,0.1-0.3,0.2-0.6,0.4c0.2,0.1,0.4,0.2,0.6,0.3c0,0.6,0,1.2,0,1.8c0,0.2-0.4,0.3-0.6,0.4
		c-0.2,0.1-0.4,0-0.6,0c-1.7,0-3.3,0-5,0c-0.4,0-0.8,0-1.2-0.2c-0.4-0.2-0.6,0-0.9,0c-0.3,0-0.6,0.2-1,0.2c-2.8,0-5.6,0-8.4,0
		c-0.3,0-0.6-0.1-1.1-0.2c-0.3,0.3-0.9,0.2-1.4,0.2c-0.5,0-1.1,0.2-1.3-0.6c-0.2,0.1-0.4,0.1-0.7,0.2c0.1,0.1,0.2,0.2,0.2,0.3
		c-7.4,0-14.7,0-22.1,0c-0.1-0.2-0.2-0.3-0.3-0.7c-0.2,0.4-0.2,0.5-0.3,0.8c-0.5,0-1,0-1.5,0c-0.5,0-0.7-0.1-0.7-0.6
		c0-0.8-0.1-1.6,0-2.4c0.1-1.1,0.4-2.2,0.6-3.3c0.2-0.7,0.3-1.5,0.6-2.1c0.3-0.5,0.3-1.1,0.7-1.7c0.3-0.5,0.7-1,0.9-1.6
		c0.2-0.6,0.5-1.2,1.1-1.5c0.1,0,0.1-0.2,0.1-0.3c0.1-0.2,0.1-0.3,0.2-0.5c0.2-0.2,0.5-0.4,0.7-0.7c0.2-0.3,0.2-0.6,0.4-0.9
		c0.3-0.4,0.7-0.8,1-1.2c0.6-0.6,1.2-1.1,2.2-0.8c-0.2-0.3-0.3-0.5-0.4-0.7c0.2-0.2,0.3-0.4,0.5-0.5c1.9-1.5,3.9-2.7,6.1-3.5
		c0.3-0.1,0.3-0.1,0.6,0.1c0.5-0.7,0.9-0.8,1.8-0.6c0.2-0.6,0.8-0.4,1.2-0.5c0.4-0.1,0.9-0.5,1.4,0c0.1,0.1,0.7-0.1,1-0.2
		c0.4-0.2,0.7-0.3,1.1-0.3c1.2,0,2.4,0,3.5,0c0.7,0,1.4,0.1,2.1,0.4c0.3,0.1,0.7,0,1.1,0.1c0.9,0.2,1.7,0.4,2.6,0.6
		C324.7,35.9,325,36.1,324.9,36.6z M300.8,43.7c-0.1,0.1-0.2,0.1-0.2,0.2c-0.1,0.1-0.2,0.2-0.3,0.4c-0.4,0.5-0.4,0.5,0.2,0.9
		c0.2,0.2,0.4,0.4,0.7,0.6c0.1-0.1,0.3-0.3,0.5-0.4c-0.3-0.3-0.6-0.5-0.8-0.6C301.1,44.1,301.1,44.1,300.8,43.7z M320,53.5
		c0.4,0.2,0.5,0.2,1.2,0c0-0.4,0-0.7-0.1-1c0-0.1-0.1-0.4-0.2-0.4c-0.2,0-0.4,0-0.5,0.1c-0.1,0.1-0.1,0.3-0.2,0.5
		C320.3,53,320.2,53.3,320,53.5z M312.4,41.1c0.4,0.3,0.5-0.3,0.8-0.1c0.2,0.2,0.5,0.3,0.9,0.4c-0.1-0.4-0.2-0.6-0.3-0.8
		c-0.3-0.1-0.6-0.1-0.8-0.2C312.5,40.4,312.4,40.5,312.4,41.1z M309.9,42.7c0,0.4,0.1,0.8-0.5,1c0.7,0.1,1.3,0.1,1.7-0.3
		c-0.2-0.6-0.6-0.1-0.9-0.2C310.1,43.1,310,42.9,309.9,42.7z M317.1,37.4c0.4-0.2,0.8-0.3,1.2-0.5c0.1,0,0.1-0.2,0.1-0.3
		c0-0.1-0.1-0.2-0.2-0.2c-0.2,0-0.3,0.1-0.5,0.1c-0.2,0.1-0.4,0.1-0.7,0.1C317,36.8,317.1,37.1,317.1,37.4z M333.8,52.2
		c-0.7,0-1.3,0.5-1.2,0.9c0.2,0.1,0.4,0.1,0.6,0.2C333.5,52.9,333.7,52.5,333.8,52.2z M297.1,52.7c-0.1-0.2-0.1-0.6-0.5-0.5
		c-0.1,0.6,0.1,1,0.5,0.9c0.3-0.1,0.5,0,0.8,0.1c0.1,0,0.2,0,0.4-0.1C298,52.4,297.5,52.8,297.1,52.7z M302.2,56.7
		c0.3-0.3,0.5-0.6,0.7-0.9c-0.6-0.2-1.2,0.2-1.3,0.8C301.8,56.6,302,56.7,302.2,56.7z M329.5,39c-0.5-0.5-1,0.2-1.6,0
		c0.2,0.7,0.8,0.3,1,0.6C329.1,39.4,329.3,39.2,329.5,39z M297.4,47.6c0.2,0.2,0.5,0.5,0.7,0.7c0.2-0.2,0.3-0.3,0.3-0.4
		c0-0.2,0-0.4-0.2-0.5C298,47.1,297.7,47.2,297.4,47.6z"/>
	<path class="st0" d="M320,3.9c0.6-0.5,1.4-0.1,2.1,0.8c0.8-0.3,1.4,0.3,2.1,0.6c0.6,0.3,1.1,0.7,1.6,1.1c0.2,0.2,0.3,0.5,0.5,0.7
		c0.2,0.2,0.5,0.2,0.7,0.3c0.5,0.5,1.2,1,1.2,1.9c0.5-0.1,0.7,0.2,0.9,0.6c1,1.7,1.9,3.5,2.2,5.5c0,0.1,0.1,0.2,0.1,0.4
		c-0.2,0-0.3,0-0.5-0.1c0,0,0,0-0.1,0.1c0.7,0.9,0.7,0.9,0.7,2.2c0,0.8,0,1.6-0.2,2.4c-0.1,0.7-0.2,1.4-0.5,2.1
		c-0.1,0.3-0.3,0.6-0.5,0.9c0,0.1-0.1,0.1-0.1,0.2c0.1,1.2-0.8,1.9-1.3,2.8c-0.3,0.6-0.8,1.1-1.2,1.6c-0.3,0.4-0.7,0.5-1,0.9
		c-0.2,0.4-0.7,0.6-1,0.9c-0.2,0.2-0.4,0.2-0.6,0c-0.2-0.1-0.4-0.1-0.7-0.2c0,0.3,0,0.4,0.1,0.5c0.1,0.3,0.1,0.5-0.2,0.6
		c-1,0.5-1.9,1-3,1.4c-0.4,0.2-0.9,0.3-1.4,0.5c-0.1-0.2-0.2-0.3-0.3-0.5c-0.5,0.7-1.2,0.9-2,0.6c-0.2-0.1-0.4,0-0.6,0
		c-1.4,0.4-2.7,0.1-4-0.2c-3.1-0.8-5.7-2.5-7.8-4.9c-0.7-0.8-1.2-1.7-1.7-2.5c-0.1-0.2-0.4-0.5-0.1-0.6c-0.2-0.3-0.5-0.5-0.6-0.8
		c-0.5-1.3-1-2.7-1-4.1c0-0.8-0.2-1.5-0.1-2.3c0.2-3,1.1-5.8,3-8.2c0.1-0.1,0.1-0.2,0.1-0.3c0.2,0,0.4,0,0.6,0c0.2,0,0.4,0,0.6,0.1
		c0.2-0.2,0.3-0.4,0.6-0.7c-0.6,0-0.9,0.6-1.4,0.3c0.4-0.6,0.9-1.2,1.7-1.3c0.2-0.2-0.3-0.4,0.1-0.7c1.6-1.1,3.2-2.1,5-2.7
		c0.8-0.2,1.7-0.4,2.6-0.6c0.3-0.1,0.6-0.1,0.7,0.4c0,0.1,0.1,0.2,0.3,0.5c0.1-0.3,0.2-0.6,0.3-0.8c0.5,0.1,1.2-0.3,1.7,0.5
		c0.1-0.4,0.2-0.6,0.6-0.5C318.9,3.4,319.6,3.1,320,3.9z M319.7,12.6c0.4,0.3,0.8,0.5,0.9,1.1c0,0.2,0.3,0.3,0.5,0.1
		c0.2-0.2,0.2-0.7-0.1-0.9c-0.2-0.2-0.4-0.4-0.8-0.8C320,12.2,319.9,12.4,319.7,12.6z M321,16.4c-0.2,0.3-0.4,0.4-0.4,0.6
		c0,0.1,0,0.4,0.1,0.4c0.3,0.1,0.7,0.1,1,0.1c0.1,0,0.2-0.3,0.3-0.5c-0.4-0.4-0.6-0.1-0.9,0C321.2,16.8,321.1,16.7,321,16.4z
		 M320.5,25.6c0.1,0.2,0.2,0.4,0.3,0.6c0.7-0.3,0.1-0.8,0.2-1.1c-0.8,0-0.8,0-1.2,0.6C320.1,26,320.3,25.7,320.5,25.6z M321,18.3
		c0.6,0.1,1.1,0.2,1.8,0.4c-0.1-0.3-0.1-0.5-0.1-0.7C322.1,18.1,321.5,17.8,321,18.3z"/>
	<path class="st0" d="M350.9,56.8c-0.4-0.4-0.3-1.1-0.2-1.6c0.1-1.1,0.4-2.2,0.7-3.3c0.5-2,1.4-3.8,2.4-5.7c0.1,0.1,0.3,0.1,0.4,0.2
		c0,0,0.1-0.1,0.1-0.1c-0.2-0.3-0.2-0.5,0-0.8c0.5-0.7,1-1.4,1.6-2c0.7-0.9,1.4-1.8,2.2-2.6c0.3-0.3,0.4-0.3,0.9,0
		c0.1-0.3,0.1-0.6,0.2-1c0.2,0.3,0.3,0.5,0.5,0.8c0-0.4,0-0.7,0.1-0.9c0-0.2,0.2-0.4,0.3-0.5c1.1-0.7,2.1-1.7,3.4-2
		c1.6-1.1,3.4-1.6,5.3-2c0.8-0.2,1.6-0.5,2.4-0.3c1.5-0.5,3-0.2,4.5-0.2c1.8,0,3.6,0.4,5.4,0.8c0.2,0,0.4,0.2,0.5,0.3
		c0.2,0.2,0.4,0.3,0.7,0.2c0.3,0,0.6,0.1,0.9,0.2c1.3,0.5,2.6,1.2,3.8,2c0.4,0.3,0.6,0.8,1.3,0.8c0,0,0.1,0.1,0.1,0.2
		c0.1,0.3,0.2,0.6,0.6,0.4c0.1,0,0.2,0.2,0.3,0.3c-0.1,0.1-0.3,0.2-0.4,0.3c0.3,0.3,0.6,0.3,0.8,0c2.1,1.9,4,4,5.3,6.5
		c0.1,0.3,0.5,0.5,0.2,0.9c0,0,0.1,0.3,0.2,0.4c0.5,0.4,0.5,0.4,0,0.8c0,0,0,0.1-0.1,0.2c0.1,0,0.2,0,0.3,0c0.3-0.1,0.5,0,0.6,0.3
		c0.4,1.5,0.8,2.9,1.2,4.4c0,0.2,0.1,0.3,0.1,0.5c0,0.2,0.2,0.5-0.2,0.5c0,0.1,0,0.4,0.1,0.4c0.3,0,0.3,0.2,0.3,0.4
		c0,0.7,0,1.4,0,2.2c0,0.5-0.2,0.7-0.7,0.7c-0.6,0-1.2-0.1-1.8-0.1c-0.3,0-0.6,0.1-0.9,0.1c-0.8,0-1.7,0-2.5,0
		c-0.4,0-0.8-0.1-1.1-0.5c0,0.2-0.1,0.3-0.1,0.5c-1.4,0-2.8,0-4.2,0c-0.3,0-0.6-0.2-0.9-0.3c-0.1,0.5-0.5,0.3-0.7,0.3
		c-1.6,0-3.1-0.1-4.7-0.1c-0.5,0-1.1,0.1-1.6,0.1c-0.1-0.2-0.3-0.4-0.4-0.6c-0.1,0.1-0.3,0.2-0.4,0.3c-0.4,0.4-0.4,0.4-0.9,0
		c-0.1-0.1-0.3,0-0.4-0.1c0,0.1,0,0.2,0,0.3c-1.4,0-2.7,0-4.1,0c-0.3,0-0.5,0-0.6-0.5c-0.3,0.4-0.6,0.8-1,0.3
		c-0.2-0.2-0.6-0.1-0.9-0.2c0.1,0.2,0.2,0.3,0.2,0.4c-4.4,0-8.7,0-13.1,0c-1.2,0-2.3,0.1-3.5,0c-0.7,0-1.4,0-2.2,0
		c-0.4,0-0.6-0.2-0.5-0.5C350.8,57.6,350.8,57.3,350.9,56.8z M384.4,52.8c0,0.1,0,0.1,0,0.2c0.7,0.1,1.3,0.2,2.2,0.4
		c-0.1-0.3-0.2-0.6-0.3-0.6c-0.6-0.1-1.1-0.1-1.7-0.1C384.6,52.6,384.5,52.7,384.4,52.8z M377.2,50c0,0,0.1,0.1,0.1,0.1
		c0.5,0,1,0,1.5,0c0-0.2,0-0.3,0-0.4c-0.1-0.2-0.2-0.3-0.3-0.4c-0.1,0-0.3,0.1-0.5,0.2c-0.1,0.1-0.3,0.1-0.4,0.2
		C377.4,49.8,377.3,49.9,377.2,50z M386.9,46.6c0,0,0.1-0.1,0.1-0.1c-0.1-0.2-0.3-0.3-0.4-0.5c0.1-0.2,0.3-0.3,0.4-0.5
		c-0.3,0.2-1-0.5-1,0.3c0,0.2,0.2,0.5,0.4,0.7C386.5,46.6,386.7,46.6,386.9,46.6z M389.1,43.1c0.3,0.8,1,0.6,1.5,0.8
		c0-0.1,0.1-0.2,0-0.2c-0.1-0.7-1-0.1-1.1-0.7C389.5,43,389.3,43.1,389.1,43.1z"/>
	<path class="st0" d="M384.5,7.3c-0.1,0.2-0.1,0.4-0.2,0.7c0.3,0,0.6,0,0.8-0.1c0.1,0.5,0.8,0.6,0.7,1.2c0,0,0.2,0.1,0.3,0.1
		c0.5,0.3,0.8,1,0.6,1.5c0.9,0.2,1,1,1.3,1.6c0.3,0.7,0.6,1.5,0.7,2.3c0.1,0.6,0.4,1.2,0.3,1.9c-0.2,0.1-0.3,0.2-0.4,0.2
		c0.2,0.1,0.3,0.2,0.6,0.4c-0.1,0.1-0.2,0.3-0.4,0.5c0.5,0.6,0.5,0.6,0.1,1c0.3,0.3,0.4,0.6,0.1,1.1c-0.2,0.3,0,0.8-0.1,1.2
		c-0.1,0.6-0.3,1.2-0.5,1.8c-0.1,0.4-0.4,0.7-0.4,1.1c-0.1,0.4-0.3,0.7-0.5,1.1c-0.2,0.4-0.4,0.8-0.6,1.1c-0.2,0.3-0.5,0.7-0.7,1
		c-0.3,0.3-0.5,0.7-0.8,1c-0.3,0.3-0.6,0.6-0.9,0.9c-1.3,1.1-2.6,2.1-4.2,2.8c-0.9,0.4-1.8,0.6-2.7,0.9c-0.2,0-0.4,0-0.7,0
		c-0.3,0.4-0.8,0.5-1.4,0.2c-0.1-0.1-0.3,0-0.4,0c-0.4,0.1-0.9,0.3-1.3,0c0,0-0.2-0.1-0.2,0c-0.7,0.5-1.3,0.1-2,0
		c-0.7-0.1-1.5-0.4-2.2-0.6c-0.3-0.1-0.7-0.2-0.6-0.7c-0.7,0.2-1.2,0-1.7-0.4c-0.6-0.4-1.2-0.8-1.8-1.2c0.2-0.2,0.3-0.2,0.6-0.4
		c-0.3-0.1-0.5-0.1-0.7-0.1c-0.7-0.1-0.7-0.2-0.9-0.9c0-0.1-0.2-0.4-0.3-0.3c-0.5,0.1-0.7-0.3-1-0.6c-0.3-0.4-0.6-0.9-1-1.3
		c0.4-0.2,0.8-0.3,0.8-0.9c-0.6-0.4-0.5,0.6-1,0.4c-0.1-0.1-0.2-0.3-0.3-0.5c-0.5-1.2-1.2-2.3-1.4-3.6c-0.1-0.6-0.2-1.2-0.3-1.8
		c-0.1-0.8-0.2-1.7-0.1-2.5c0.1-1.1,0.2-2.2,0.5-3.3c0.4-1.5,1.1-2.9,2-4.3c0.2-0.3,0.4-0.7,0.7-1c0.1-0.1,0.4-0.3,0.6-0.3
		c0.5,0,0.8-0.2,1.1-0.8c-0.3,0.1-0.4,0.1-0.6,0.2c0-0.1,0-0.2,0-0.2c1.4-1.4,3-2.5,4.8-3.3c1.2-0.5,2.5-0.8,3.8-1.1
		c0.2,0,0.5,0.2,0.8,0.3c0.1-0.1,0.3-0.3,0.5-0.3c1.2,0,2.4-0.2,3.5,0.2c-0.3,0-0.7-0.1-0.6,0.5c0.3-0.1,0.6,0,0.7-0.2
		c0.3-0.3,0.7-0.2,1-0.1c0.8,0.3,1.6,0.4,2.2,1.1c0,0,0,0.1,0.1,0.1c0.8,0,1.4,0.5,2,0.9c0.6,0.4,1.2,0.9,1.8,1.4
		C384.3,7.2,384.4,7.2,384.5,7.3z M374.5,8c0.3,0,0.5,0.1,0.7,0.1c0.1-0.5,0.5-0.3,0.7-0.3c0.3-0.1,0.6-0.2,0.7-0.6
		C375.8,7.2,375.1,7.2,374.5,8z M372.5,9.2c-0.5-0.9-0.7-1-1.4-0.7c0,0.2,0,0.3,0,0.4C371.6,9,372,9.1,372.5,9.2z M386.6,23.4
		c-0.1-0.1-0.3-0.2-0.4-0.2c-0.3-0.1-0.7,0.2-0.9-0.3c0,0-0.3,0.1-0.3,0.1c0,0.1,0,0.3,0.1,0.4c0.3,0.1,0.6,0.2,0.9,0.3
		C386.3,23.9,386.5,23.8,386.6,23.4z M370.6,18.7c0.2-0.4-0.1-0.5-0.4-0.5c-0.2,0-0.4,0-0.6-0.2c-0.3-0.3-0.4-0.1-0.6,0.2
		C369.7,18.7,370,18.8,370.6,18.7z"/>
	<path class="st0" d="M147.6,32.3c0.1-0.6-0.4-0.5-0.8-0.7c-0.1,0.1-0.2,0.3-0.4,0.5c0.2,0.1,0.4,0.2,0.6,0.2c0,0.1-0.1,0.1-0.1,0.1
		c-1.8,0.3-2.1,0.5-2.5-0.1c-0.9,0.7-1.9,0.5-2.8,0.4c-1.4-0.2-2.7-0.6-4-1.2c-0.4-0.2-1.1-0.1-1-0.9c0-0.1-0.2-0.2-0.3-0.2
		c-0.8,0.3-1.3-0.4-1.8-0.8c-0.8-0.6-1.4-1.3-2.2-2c-0.2-0.2-0.4-0.3-0.2-0.6c0-0.1-0.1-0.3-0.1-0.3c-0.7,0-0.8-0.6-1.1-1
		c-0.8-1.2-1.3-2.5-1.7-4c-0.4-1.4-0.5-2.7-0.3-4.1c0-0.2-0.1-0.5-0.1-0.7c-0.1-1.5,0.3-3,0.8-4.4c0.8-2.3,2.3-4.2,4.1-5.8
		c0.9-0.8,1.9-1.4,3-2c0.5-0.3,1.2-0.2,1.7-0.6c0.5-0.4,0.9-0.5,1.5-0.6c2.9-0.7,5.7-0.6,8.5,0.4c1.6,0.6,3.2,1.4,4.5,2.6
		c0.8,0.8,1.7,1.5,2.4,2.4c1.4,1.7,2.3,3.7,2.8,5.9c0.3,1.4,0.4,2.7,0.3,4.1c-0.1,3-1.3,5.6-3,7.9C153.4,29.5,150.8,31.3,147.6,32.3
		z M143.9,32.6c-0.2-0.5-0.2-0.5-1.6-0.8c0,0.5,0.1,0.7,0.4,0.7C143.1,32.6,143.5,32.6,143.9,32.6z M143.1,22.3c0,0,0-0.1,0-0.1
		c-0.3,0-0.5,0-0.8,0.1c-0.3,0.1-0.5,0.3-0.8,0.5c0.3,0.3,0.5,0.4,0.6,0.3C142.5,22.9,142.8,22.6,143.1,22.3z M136.8,10.4
		c0.1,0.1,0.2,0.2,0.2,0.3c-0.2,0-0.4,0.1-0.6,0.1c0.3,0.4,0.5,0.5,0.8,0.3c0.3-0.2,0.4-0.5,0.2-0.8C137.3,10,137,10.2,136.8,10.4z
		 M152.1,22.3c-0.1,0.2-0.2,0.4-0.2,0.4c0.4,0.3,0.6,0.9,1.2,1.1C152.9,22.9,152.9,22.9,152.1,22.3z M142.7,19.7
		c-0.8-0.1-1,0.1-1.3,0.9c0.4,0.1,0.7,0.1,0.8-0.4C142.3,20,142.5,19.9,142.7,19.7z M148.9,13.2c-0.2,0.3-0.3,0.5-0.6,0.8
		c0.5,0,0.9,0,1.2,0c0-0.2,0.1-0.3,0.1-0.5c-0.2,0-0.3,0-0.4-0.1C149.1,13.4,149,13.3,148.9,13.2z M151.3,13.1
		c-0.5,0.4-0.5,0.4-0.2,1.1c0.2,0.4,0.3,0.4,0.6,0C151.6,13.8,151.4,13.4,151.3,13.1z M142.8,10.8c0.6-0.1,1.2,0.2,1.7-0.3
		c-0.5-0.1-0.9-0.2-1.4-0.3C143,10.4,142.9,10.6,142.8,10.8z M139.4,28.9c-0.6-0.1-1,0.1-1.4,0.7C138.8,30,139,29.3,139.4,28.9z
		 M149.3,7.4c0-0.1,0-0.2,0-0.3c-0.4,0.3-0.7-0.6-1.2,0.1c0.2,0,0.3,0.1,0.5,0.1c-0.2,0.3-0.2,0.3,0.3,0.6
		C149,7.9,149.1,7.7,149.3,7.4z"/>
</g>
</svg>
