<?xml version="1.0" encoding="utf-8"?>
<!-- Generator: Adobe Illustrator 19.1.0, SVG Export Plug-In . SVG Version: 6.00 Build 0)  -->
<svg version="1.1" id="Layer_1" xmlns="http://www.w3.org/2000/svg" xmlns:xlink="http://www.w3.org/1999/xlink" x="0px" y="0px"
	 viewBox="0 0 75 75" style="enable-background:new 0 0 75 75;" xml:space="preserve">
<style type="text/css">
	.st0{fill:#757576;}
</style>
<g>
	<path class="st0" d="M64.6,26.4c-0.1,0.2-0.3,0.4-0.4,0.6c0.1,0,0.3,0,0.4,0c-0.3,1.4-1.2,2.5-2.1,3.6c-1.5,1.9-3.4,3.3-5.6,4.3
		c-3,1.4-6.2,2.2-9.5,2.8c-2.9,0.6-5.8,1.1-8.7,1.8c-1,0.2-2,0.6-2.9,0.9c-0.2-0.5-1.1-0.7-1.5-0.3c-0.3,0.3-0.6,0.6-1,0.9
		c0,0,0.2,0.1,0.4,0.2c-0.8,0.6-1.6,1.2-2.3,1.8c-1.6,1.2-2.7,2.9-3.7,4.6c-0.1,0.1-0.1,0.2-0.2,0.2c-0.5,0.6-0.8,0.6-1.1,0
		c-0.6-1.1-1.2-2.1-1.8-3.2c-0.5-0.8-1-1.5-1.5-2.3c-0.3-0.5-0.4-1-0.6-1.5c-0.1-0.1-0.4-0.2-0.5-0.4c-1.4-2.5-2.9-4.9-4.3-7.4
		c-0.3-0.5-0.3-0.5,0.1-1c0-0.1,0-0.2,0-0.2c-0.1,0-0.3-0.1-0.4,0c-0.1,0.1-0.2,0.2-0.4,0.4c-0.1-0.5-0.2-0.9-0.3-1.3
		c-0.1-0.1-0.4-0.2-0.5-0.3c-1.3-2.1-2.5-4.3-3.7-6.5c-0.5-0.9-0.2-1.8,0.3-2.6c1-1.8,2.3-3.4,4-4.5c0.9-0.6,1.8-1.2,2.8-1.7
		c3.2-1.6,6.6-2.2,10-2.9c2-0.4,4.1-0.9,6.1-1.3c2.1-0.4,4.1-1.1,6.1-1.9c2.4-0.9,4.2-2.5,5.8-4.5c0.8-1,1.5-2.2,2.4-3.4
		c0.3,0.3,0.6,0.6,0.8,0.9c0.7,1.2,1.5,2.5,2.2,3.8C53,6.2,53,6.3,53,6.5c0,0.2,0,0.5,0.2,0.6c0.2,0.3,0.6,0.5,0.8,0.8
		c0.9,1.5,1.8,3,2.6,4.5c0.9,1.5,1.7,2.9,2.5,4.4c0.2,0.4,0.2,0.8,0.4,1.2c0.2,0.3,0.6,0.5,0.8,0.9c1,1.6,1.9,3.2,2.8,4.8
		C63.6,24.6,64.2,25.5,64.6,26.4z M34.6,31.4c0.1,0,0.2,0,0.3,0.1c0.8,0.5,1.7,1,2.5,1.6c0.1,0.1,0,0.3,0,0.5
		c0.2-0.1,0.5-0.3,0.7-0.2c0.4,0.1,0.7,0.3,1,0.4c1.1,0.2,2.3,0.7,3.5,0.5c1.5-0.2,3.1-0.4,4.2-1.7c0.9-1,1.3-2.1,1.1-3.2
		c-0.2-1.5-1-2.8-2.1-3.9c-1.4-1.3-3.1-2-4.9-2.4c-1.5-0.3-2.9-0.3-4.4,0.1c-1.3,0.4-2.3,1.1-2.9,2.3c-0.8,1.6-0.5,3,0.3,4.4
		C34.1,30.3,34.3,30.8,34.6,31.4z M25.7,17.8c-0.7,1,1,1.3,0.4,2.3c-0.7-0.4-1.4-0.8-2.2-1.2c0.1,0.4,0.1,0.7,0.2,1
		c0.1,0.3,0.1,0.6,0.2,1.1c-0.6-0.2-1.1-0.3-1.5-0.5c-0.6-0.3-0.7-0.2-1,0.3c1.5,0.9,1.5,1.1,0.4,2c-0.3-0.4-0.6-0.8-0.9-1.2
		c-0.1,0-0.3,0-0.6,0.1c0,0.5,0,1.1,0,1.6c0.4,0,0.7,0.1,1,0.1c0.5-0.1,0.9-0.2,1.3-0.4c1-0.6,1.9-1.2,2.9-1.7
		c0.6-0.3,1.4-0.5,2.2-0.8C27.2,19.5,26.5,18.7,25.7,17.8z M46.1,12.4c0,0-0.1,0.1-0.1,0.1c0.1,0.3,0.2,0.6,0.4,0.8
		c0.2,0.3,0.4,0.5,0.5,0.8c-0.2,0.1-0.4,0.3-0.6,0.5c-0.9-0.7-1.1-0.7-2.1,0.1c1.1-0.5,1.3,0.4,1.7,1c0,0,0,0,0,0.1
		c0.3,0.7,0.8,0.7,1.4,0.4c0.3-0.2,0.6-0.4,0.9-0.7c0.8-0.7,0.8-0.9,0-1.6C47.6,13.4,46.8,12.9,46.1,12.4z M41.4,15.7
		c0.2,0.5,0.3,1,0.5,1.6c-0.6-0.1-1.1-0.1-1.4-0.3c-0.7-0.5-1.3-0.8-1.8,0.2c0-0.3-0.1-0.5-0.1-0.9c-0.2,0.3-0.3,0.4-0.3,0.5
		c0,0.5-0.7,1,0.1,1.4c0.7,0.4,1.4,0.7,2.2,0.3c0.7-0.3,1.4-0.6,2.1-0.9c0.5-0.2,0.5-0.6,0.2-1c-0.3-0.4-0.7-0.7-1-1.1
		C41.7,15.7,41.6,15.7,41.4,15.7z M31,17c0,0.1-0.3,0.4-0.2,0.5c0.6,0.9,1.3,1.7,1.9,2.5c0,0.1,0.3,0,0.3,0c0.1-0.7,0.7-0.4,1.1-0.5
		c0.4-0.1,1.1-0.3,0.7-0.8c-0.6-0.8-1.2-1.7-2.3-2c0.2,0.4,0.5,0.8,0.8,1.1c0.1,0.2,0.1,0.5,0.1,0.7c-0.2,0-0.6,0.1-0.7,0
		C32.2,18.2,31.7,17.6,31,17z M42.4,14.4c0,0-0.1,0.1-0.1,0.1c0.4,0.5,0.8,1,1.3,1.5c0.3,0.1,0.8,0.3,1.2,0.4
		c0.1-0.1,0.1-0.2,0.2-0.3C44.1,15.6,43.2,15,42.4,14.4z M29.6,18.9c-0.5-0.4-1-0.9-1.5-1.3c-0.1,0.1-0.2,0.2-0.2,0.3
		c0.6,0.7,1.2,1.3,1.8,2c0.1-0.5,0.2-0.8,0.3-1.2C29.8,18.7,29.7,18.8,29.6,18.9z M60.2,32.7c0.1-0.1,0.1-0.2,0.2-0.3
		c-0.5-0.3-1-0.6-1.6-0.9c0.1-0.1,0.2-0.3,0.3-0.5c-0.3-0.1-0.6-0.1-1-0.2c0,0.5,1,0.9,0,1.5c0.5-0.2,0.8-0.3,1-0.3
		C59.6,32.3,59.9,32.5,60.2,32.7z M36.2,18.4c0.1-0.1,0.2-0.2,0.3-0.3c-0.6-0.6-1.3-1.2-1.9-1.7c-0.1,0.1-0.1,0.2-0.2,0.2
		C35,17.3,35.6,17.9,36.2,18.4z M53.8,24.4c0.1-0.1,0.2-0.2,0.3-0.3c-0.2-0.1-0.4-0.3-0.6-0.3c-0.1,0-0.3,0.1-0.4,0.3
		c-0.1,0.1,0,0.3,0,0.5c0.1-0.1,0.2-0.2,0.4-0.3c0.2,0.3,0.3,0.7,0.5,1c0.2-0.1,0.3-0.1,0.6-0.2C54.3,24.8,54,24.5,53.8,24.4z
		 M29.2,33.2c0.6-1.2,0.6-1.5-0.2-1.7C29.1,32,29.1,32.6,29.2,33.2z M23.9,42.4c0.3,0.1,0.6,0.4,0.8,0.3c0.3-0.1,0.5-0.5,0.7-0.8
		c0.1-0.1-0.1-0.3-0.2-0.5c-0.1,0.1-0.4,0.2-0.4,0.3C25,42.7,24.4,42.3,23.9,42.4z M37.1,36.2c-0.1,0.3-0.2,0.5-0.3,0.8
		c0.3,0,0.6,0.1,0.8,0.1C38.3,36.3,37.5,36.4,37.1,36.2z M48.7,33.7c0,0-0.1-0.1-0.1-0.1c-0.3,0.3-0.6,0.6-1,1
		c0.6,0.1,1,0.1,1.3,0.1c0,0,0-0.1,0-0.1c-0.2-0.1-0.3-0.2-0.5-0.3C48.5,34.1,48.6,33.9,48.7,33.7z M29.2,20.2
		c-0.3,0.4-0.5,0.6-0.7,0.9c-0.1,0.1-0.1,0.2-0.2,0.3c0.1,0,0.3,0.1,0.4,0c0.2-0.1,0.5-0.3,0.8-0.5C29.3,20.7,29.2,20.5,29.2,20.2z
		 M38.5,13.4c0-0.1,0.1-0.2,0.1-0.2c-0.4-0.1-0.8-0.3-1.3-0.4C37.3,13.7,38,13.5,38.5,13.4z M60.5,26.5c0,0.3-0.1,0.6-0.1,0.6
		c0.3,0.1,0.6,0.1,0.9,0.2c0-0.1,0.1-0.4,0.1-0.4C61.2,26.8,60.9,26.7,60.5,26.5z M39.3,34.5c-0.1,0.1-0.2,0.2-0.4,0.3
		c0.2,0.3,0.5,0.6,0.7,0.9c0.1-0.1,0.3-0.3,0.2-0.3C39.7,35,39.5,34.8,39.3,34.5z M51.1,25C51.1,25,51.1,25,51.1,25
		C51.1,25,51,25.1,51.1,25C51.1,25.1,51.1,25.1,51.1,25C51.1,25.1,51.1,25.1,51.1,25z"/>
	<path class="st0" d="M32.3,62.5c0,0-0.1,0-0.3,0.1c-0.6-1.2-1.2-2.5-1.9-3.7c-1-1.7-2.1-3.4-3.1-5.2c-1.2-2-2.3-4-3.4-5.9
		c-0.2-0.3-0.2-0.7-0.3-1c0-0.1-0.1-0.3-0.2-0.4c-0.2-0.2-0.4-0.2-0.5-0.4c-1.2-2-2.4-4-3.5-6.1c-0.4-0.8-1-1.4-1.3-2.2
		c-0.1-0.2-0.1-0.4-0.1-0.5c-0.3-0.4-0.6-0.8-0.9-1.2c-0.3-0.5-0.5-1.1-0.8-1.5c-0.6-0.8-0.9-1.7-1.5-2.5c-1.4-2.1-2.5-4.3-3.8-6.5
		c-0.4-0.8-0.2-0.8,0.5-1.3c1-0.6,1.1,0.1,1.5,0.7c0.2,0.4,0.5,0.7,0.6,1.1c0.1,0.4,0.1,0.9,0.2,1.3c0.1-0.1,0.2-0.2,0.4-0.4
		c1,1.7,1.9,3.3,2.8,4.9c-0.1,0.1-0.2,0.2-0.3,0.4c0.2,0,0.4,0.1,0.6,0.1c0.2,0.3,0.4,0.7,0.6,1.1c-0.3,0.1-0.7,0.2-1,0.3
		c0,0,0,0.1,0,0.1c0.4,0,0.8,0,1.3,0c0.7,1.2,1.4,2.5,2.2,3.7c0.5,0.9,1.1,1.8,1.6,2.8c0.2,0.3,0.2,0.7,0.3,1
		c0.2,0.2,0.5,0.4,0.7,0.7c0.7,1.1,1.3,2.3,2,3.4c0.1,0.2,0.5,0.5,0,0.7c-0.1,0,0,0.4,0.2,0.7c0.1-0.2,0.2-0.3,0.3-0.4
		c0.6,1.1,1.3,2.2,1.9,3.3c1,1.7,2,3.4,3,5c0.1,0.2,0.1,0.6,0.3,0.8c0.1,0.2,0.3,0.2,0.4,0.4c0.7,1.2,1.4,2.4,2.1,3.7
		c0.1,0.1-0.1,0.3,0,0.5c0,0.1,0.1,0.4,0.1,0.3c0.7-0.1,0.6,0.5,0.7,0.9c0,0.1,0,0.2,0,0.3c1.3,1.4,2.2,3.2,3.1,4.9
		c1.1,1.8,2.1,3.6,3.1,5.5c0.1,0.3,0.3,0.8,0.1,0.9c-0.3,0.3-0.8,0.5-1.2,0.7c-0.1,0-0.4-0.1-0.4-0.2c-0.3-1.2-1.3-1.9-1.8-3
		c-0.5-1.1-1.2-2.1-1.8-3.2c-0.6-1-1.2-2-1.7-3C32.7,63.7,32.5,63.1,32.3,62.5z"/>
	<path class="st0" d="M35.6,25.4c0-1.1,1.1-0.8,1.6-1.2c0.1-0.1,0.7,0.5,1.1,0.8c0.1,0.1,0.3,0.3,0.4,0.4c0.1,0.2,0.2,0.5,0.1,0.7
		c0,0.1-0.3,0.2-0.5,0.3c-0.7,0.3-1.5,0.6-2.3,0.8c-0.4,0.1-0.8,0.2-1.2,0.2c-0.4-0.1-0.8-0.3-1.2-0.6c-0.1-0.1,0.2-0.6,0.4-0.9
		C34.4,25.2,34.9,25,35.6,25.4z"/>
	<path class="st0" d="M45.2,31.7c-0.1-0.2-0.1-0.4-0.1-0.5c-0.1,0-0.2,0-0.2,0c-0.1,0.4-0.2,0.6-0.7,0.6c-0.7,0-1.3,0.4-2.1,0.1
		c-0.2-0.1-0.6,0.3-0.9,0.4c-0.6,0.3-0.9,0.2-1.2-0.4c-0.1-0.3-0.4-0.6-0.6-0.9c0.2-0.5,0.4-0.6,1-0.3c0.7,0.4,1.6,0.4,2.4,0
		c0.2-0.1,0.5-0.2,0.7-0.1c0.5,0,0.7-0.2,0.8-0.7c0.1-0.3,0.4-0.7,0.7-0.8c0.2-0.1,0.6,0.2,0.8,0.4C46.6,30.4,46.4,31.1,45.2,31.7z"
		/>
	<path class="st0" d="M41.5,27.7c0.1-0.2,0.9,0.2,1.1-0.5c0.1,0,0.3,0,0.3,0.1c0.2,0.2,0.4,0.5,0.4,0.7c-0.1,0.3-0.3,0.7-0.6,0.7
		c-0.6,0.2-1.3,0.1-2,0.2c-0.5,0.1-1.1,0.3-1.4,0.6c-0.4,0.3-0.6,0.3-0.9,0c-0.2-0.3-0.4-0.8-0.3-0.9c0.4-0.6,1-1,1.8-0.9
		c0.1,0,0.2,0,0.3,0C40.5,27.7,40.9,27.7,41.5,27.7z"/>
	<path class="st0" d="M35.8,28.2c0,0.2,0,0.4,0.1,0.6c0.9-0.1,0.9,0.8,1.3,1.2c0,0-0.3,0.5-0.6,0.6c-0.1,0.1-0.5-0.2-0.6-0.4
		c-0.2-0.3-0.2-0.6-0.2-0.9c-0.1-0.3-0.2-0.7-0.2-1C35.6,28.3,35.7,28.2,35.8,28.2z"/>
	<path class="st0" d="M38.4,23.8c0.8,0.1,1.1,0.7,1.5,1.2c0,0-0.3,0.5-0.4,0.5C39,25.4,38.3,24.4,38.4,23.8z"/>
	<path class="st0" d="M45.5,27.4c-0.2,0.3-0.3,0.7-0.4,0.7c-0.3,0-0.7-0.1-0.8-0.3c-0.1-0.2,0-0.6,0.1-0.9
		C44.7,27.1,45,27.2,45.5,27.4z"/>
	<path class="st0" d="M39,18.4c-0.3-0.7-0.2-1.1,0.3-1.3c0.3-0.1,0.8-0.1,0.9,0.1c0.2,0.4,0.3,1-0.2,1.2
		C39.7,18.5,39.3,18.4,39,18.4z"/>
</g>
</svg>
