<?xml version="1.0" encoding="utf-8"?>
<!-- Generator: Adobe Illustrator 19.1.0, SVG Export Plug-In . SVG Version: 6.00 Build 0)  -->
<svg version="1.1" id="Layer_1" xmlns="http://www.w3.org/2000/svg" xmlns:xlink="http://www.w3.org/1999/xlink" x="0px" y="0px"
	 viewBox="0 0 75 75" style="enable-background:new 0 0 75 75;" xml:space="preserve">
<style type="text/css">
	.st0{fill:#757576;}
</style>
<g>
	<path class="st0" d="M56.7,30.4c-0.5,0.3-0.8,0.5-1.1,0.7c0,0.1,0,0.2,0,0.3c1.3-0.5,1.9-0.3,2.2,1.1c0.2,0.9,1.4,1.6,1.9,2.5
		c0.7,1.2,1.2,2.5,1.6,3.8c0.6,2.3,1.4,4.5,1.2,7c-0.1,1.2-0.2,1.4-1.5,1.4c-3.1,0-6.2,0-9.3,0c-2.6,0-5.2,0-7.8,0
		c-0.5,0-1-0.2-1.4-0.3c-0.1,0-0.3-0.1-0.3-0.1c-2,0.7-4.1,0.4-6.1,0.2c-0.1,0-0.3,0-0.5,0.1c-0.2-0.3-0.3-0.7-0.5-1
		c-0.1,0-0.2,0.1-0.2,0.1c0.1,1.3-0.9,1-1.6,1c-1.2,0-2.4,0-3.5,0c-2.5-0.1-5,0-7.5,0c-2.6,0-5.2,0-7.7,0c-1.7,0-2-0.4-1.7-2
		c0-0.1,0.1-0.2,0.1-0.3c-0.2-5.4,2.1-9.9,5.4-14c2.6-3.3,6-5.7,9.8-7.2c0.2,0.2,0.4,0.4,0.6,0.6c0.1-0.2,0.2-0.6,0.4-0.7
		c0.4-0.2,0.8-0.4,1.3-0.4c0.3,0,0.6,0.2,0.9,0.3c0-0.1,0.1-0.1,0.1-0.2c-0.2-0.1-0.3-0.2-0.6-0.4c0.7-0.2,1.2-0.4,1.8-0.5
		c0.9-0.2,1.2-0.6,1.3-1.5c0-0.4,0.4-0.7,0.6-1.1c-0.3-0.5,0.3-0.7,0.6-1.1c0.4-0.4,0.8-0.8,1.3-1.3c-0.5-0.4-0.9-0.8-1.3-0.9
		c-3.6-1.3-5.9-4.8-5.5-8.9c0.4-3.4,2.2-5.7,5.4-6.8c0.4-0.1,0.8,0,1.3,0C36.1,1,36.1,1.2,36,1.3c-1.3,0.8-2.1,1.6-2.8,2.7
		c-1.3,2-1.3,5.6,0.3,7.2c1.4,1.5,3.1,2.7,5.3,2.6c1-0.1,1.9-0.4,2.8-0.8c0.8-0.3,1.2-0.3,1.2,0.6c0,0.2,0.2,0.3,0.4,0.5
		c0.1-0.2,0.1-0.3,0.1-0.4c-0.5-0.9-0.7-1.5,0.4-2.3c0.6-0.4,0.9-1.4,1.3-2.2c0.2-0.3,0.3-0.6,0.5-1c0.5,1.9-0.1,4.2-1.4,5.6
		c-1.2,1.3-2.5,2.2-4.1,2.8c-0.9,0.4-1,0.8-0.2,1.6c0.3,0.3,0.5,0.6,0.8,1c-0.1,0.1-0.2,0.4-0.5,0.8c0.4-0.2,0.6-0.3,0.9-0.5
		c0.2,0.6,0.3,1.1,0.6,1.5c0.3,0.5,0.8,1,1.3,1.3c1.8,0.7,3.8,1.2,5.6,2c1.9,0.8,3.7,1.8,5.1,3.4C54.5,28.8,55.6,29.6,56.7,30.4z
		 M39.4,21.6c-0.2,0.8-1.4,1-0.9,1.9c0.4,0,0.8,0,1.3,0c-0.2-0.4-0.4-0.7-0.7-1.1c0.4-0.1,0.7-0.2,1.1-0.3c-0.2,0.3-0.2,0.5-0.3,0.6
		c0.3,0,0.6,0.1,1,0.1c0-0.1,0-0.2,0.1-0.3C40.4,22.2,39.9,21.9,39.4,21.6z M55.8,45.9c-0.1-0.1-0.1-0.2-0.2-0.2
		c0.1-0.3,0.2-0.6,0.3-1c0-0.1,0-0.2,0-0.2c-0.1-0.1-0.3-0.1-0.3-0.1c-0.4,0.5-1.3,0.7-0.7,1.7C55.2,46.1,55.5,46,55.8,45.9z
		 M47.7,44c-0.3,0.2-0.5,0.4-0.8,0.6c0.4,0.3,0.7,0.6,1.3,1.1C48.6,44.8,47.7,44.4,47.7,44z M22.4,41.3c0-0.1,0-0.2,0-0.3
		c-0.7-0.2-1.5-0.3-2.2-0.5c0.1,0.3,0.1,0.6,0.2,0.8c0.3-0.1,0.5-0.2,0.7-0.2C21.5,41.1,21.9,41.2,22.4,41.3z M61.1,44.8
		c-0.4-0.5-0.6-0.7-0.9-1.1c-0.2,0.5-0.3,1-0.5,1.4C60.1,45,60.5,45,61.1,44.8z M29.6,45.7c0.1,0.1,0.2,0.2,0.2,0.3
		c0.6-0.4,1.2-0.8,1.8-1.2c-0.1-0.1-0.1-0.2-0.2-0.3C30.9,44.9,30.3,45.3,29.6,45.7z M39.2,32.8c0.1,0,0.2,0,0.3,0
		c0-0.4,0.1-0.8,0.1-1.3c-0.3,0-0.6,0-0.9,0C38.8,32,39,32.4,39.2,32.8z"/>
	<path class="st0" d="M13.3,57.7c0,0-0.3-0.2-0.3-0.3c0-0.2,0.2-0.5,0.3-0.5c1.5-0.2,3-0.7,4.4,0.3c0.1,0.1,0.4,0,0.4,0
		c0-0.9,0.7-0.5,1.1-0.5c1.8,0,3.6,0.2,5.4,0.2c2.1,0,4.3-0.1,6.4-0.1c0.4,0,0.9,0.3,1.1,0.4c0.4-0.2,0.6-0.4,0.8-0.4
		c1.4,0,2.7-0.1,4.1,0c0.7,0.1,1.3-0.1,2,0c0.7,0,1.5,0,2.3,0c1.9,0,3.9,0,5.8,0c0.8,0,1.6,0,2.4,0c0.2,0,0.5,0.2,0.7,0.3
		c0.1,0,0.2,0.1,0.3,0c0.5-0.7,1.3-0.4,2-0.4c3,0,6.1,0,9.2,0c0,0.2,0,0.4,0,0.5c0.9,0.2,0.9,0.2,0.9,1.2c0,2.9,0,5.9,0,8.8
		c0,0.5-0.2,1-0.3,1.6c-0.5-0.2-0.8-0.4-1.2-0.5c-0.1,0.1-0.2,0.1-0.2,0.2c0.2,0.4,0.4,0.8,0.6,1c0.2,0.2,0.6,0.1,1,0.2
		c0,0.9,0,2,0,3.1c0,1.1-0.2,1.3-1.4,1.4c-1.3,0-2.7,0-4,0c-1.4,0-2.9,0-4.3,0c-1.1,0-1.7-0.5-2-1.4c-0.8-2.5-2.2-4.7-4.3-6.3
		c-0.1-0.1-0.1-0.3-0.3-0.4c-0.4-0.4-0.4-1.1-1.4-0.9c-0.6,0.1-1.3-0.6-2-0.9c-1-0.3-2-0.5-2.9-0.9c-0.7-0.3-1.5,0-2.4-0.3
		c0.5-0.2,0.7-0.2,0.9-0.3c-0.1-0.1-0.1-0.2-0.2-0.2c-0.2,0.2-0.5,0.3-0.7,0.5c-0.1,0-0.1,0.1,0,0c-1,0-1.8,0.1-2.7,0.1
		c0-0.1,0-0.1,0-0.2c-0.2,0.2-0.5,0.4-0.7,0.5c-4.7,1.3-7.9,4.3-9.7,8.7c-0.8,1.9-0.8,1.9-2.8,1.9c-2.1,0-4.1,0-6.2,0
		c-0.5,0-1,0-1.4,0C13.5,74,13,73.9,13,73c0.1-4.8,0-9.5,0-14.3C13,58.4,13.2,58.1,13.3,57.7z M50,58.9c0,0.6,0,1.1,0,1.5
		c0.1,0,0.2,0,0.3,0c0.1-0.5,0.3-1,0.4-1.5c-1.3-1-1.3-1-1.9-0.7C49.3,58.5,49.7,58.7,50,58.9z M43.1,57.6c-0.1,0.1-0.3,0.3-0.4,0.4
		c0.1,0.5,0.2,1,0.4,1.5c0.3-0.2,0.6-0.4,1-0.6c-0.3,0.2-0.5,0.3-0.8,0.5C43.2,58.8,43.1,58.2,43.1,57.6z M48.4,63.8
		c0.4,0.1,0.7,0.2,1.1,0.3c-0.1-0.4-0.2-0.9-0.3-1.6C48.9,63.1,48.7,63.4,48.4,63.8z"/>
	<path class="st0" d="M49.8,54.3c0,0.2-0.1,0.4-0.1,0.6c-4.1,0-8.2,0-12.2,0c-1.2,0-2.4,0-3.6,0c-1.1,0-2.2-0.2-3.2-0.2
		c0-0.1,0,0.1,0.1,0.2c0,0-0.1,0-0.1,0c-1.5-0.3-2.9,0.1-4.4,0c-1.6-0.1-3.2,0-4.8,0s-3.2,0-4.8,0c-1.2,0-2.4-0.3-3.6-0.3
		c-1.2,0-2.4,0.3-3.6,0.3c-0.3,0-0.9-0.3-0.9-0.5c-0.1-0.4,0.2-0.9,0.3-1.4c0.1-0.2,0.3-0.4,0.5-0.7c-0.8,0.1-0.9-0.3-0.9-0.9
		c0.2-2.6-0.4-2.4,2.5-2.4c1.1,0,2.2,0.1,3.2,0.2c0.2,0,0.4,0.3,0.6,0.2c0.4-0.1,0.7-0.4,1.1-0.4c1.5,0,3.1,0,4.6,0
		c1.7,0,3.4,0,5.1,0c0.4,0,0.8,0.2,1.2,0.3c0.3-0.1,0.6-0.3,0.9-0.3c0.8,0,1.7-0.1,2.5,0c2.2,0.1,4.4-0.1,6.6,0c1.1,0,2.1,0,3.2,0
		c1.1,0,2.3,0,3.4,0c1.1,0,2.3,0,3.4,0c0.4,0,0.8,0.2,1.2,0.2c0.4,0,0.7,0,1.1,0c0.1,0,0.3,0.1,0.4,0.1c2-0.1,4-0.3,6-0.2
		c1.1,0.1,2.1-0.1,3.2-0.1c1.1,0,2.2,0,3.3,0c1.2,0,2.3,0,3.5,0c1.1,0,1.7,0.5,1.4,1.4c-0.4,1.2,0.2,2.2,0.1,3.2
		c-0.1,0.8-0.3,1.3-1.2,1.2c-2-0.1-4-0.2-5.9-0.1c-0.5,0-0.9-0.4-1.5,0c-0.4,0.3-1.2,0.1-1.8,0.1c-0.7,0-1.3,0-2,0
		c-1,0-2.1,0.1-3.1,0C50.8,54.9,50.3,54.6,49.8,54.3z M35.8,51c0,0,0.4,0.1,0.4,0c0.1-0.3,0.3-0.7,0.3-1.1c0-0.2-0.3-0.4-0.5-0.6
		c0,0-0.2,0.1-0.2,0.1c0,0.1,0.1,0.2,0.1,0.3C35.8,50.1,35.8,50.4,35.8,51z"/>
</g>
</svg>
