<?xml version="1.0" encoding="utf-8"?>
<!-- Generator: Adobe Illustrator 19.1.0, SVG Export Plug-In . SVG Version: 6.00 Build 0)  -->
<svg version="1.1" id="Layer_1" xmlns="http://www.w3.org/2000/svg" xmlns:xlink="http://www.w3.org/1999/xlink" x="0px" y="0px"
	 viewBox="0 0 75 75" style="enable-background:new 0 0 75 75;" xml:space="preserve">
<style type="text/css">
	.st0{fill:#757576;}
</style>
<g>
	<path class="st0" d="M61.6,27c-3.8-0.2-7.5,0.2-11.5-0.2c-0.5,0.5-3,0.4-3.4-0.4c-1,1.1-2.2,0.5-3.3,0.6c-4.4,0.1-8.9,0-13.3,0
		c-0.4,0-0.8-0.2-1.2-0.3C28,27.4,27,26.8,26,26.9c-0.6,0-1.1,0-1.7-0.1c-0.6,0-1.3,0-1.9-0.1c-0.1,0-0.2-0.1-0.2-0.1
		c-4.1,0.1-8.1,0.2-12.2,0.3c-1.2,0-1.4-0.3-1.6-1.5c0-0.2,0-0.4,0-0.6c0-2.4,0-2.4,2.5-3.2c0,0.2,0,0.4,0,0.4
		c0.9-0.6,1.9-1.2,2.9-1.9c0.3,0.3,0.5,0.5,0.7,0.8c0.1,0,0.1-0.1,0.2-0.1c-0.1-0.2-0.2-0.4-0.4-0.6c2.1-0.9,4.1-1.8,6.1-2.6
		c2-0.9,4-1.7,6-2.6c3.1-1.3,6.3-2.5,9.4-3.9c2-0.9,3.9-0.5,5.8,0.4c2,1,4.1,1.8,6.2,2.7c2,0.8,4,1.6,5.9,2.5c2.7,1.2,5.4,2.2,8,3.6
		c1.7,0.9,3.6,1.2,5.4,2c1,0.5,1.3,0.9,1.3,2.1c0,2.5,0.2,2.6-3,2.6c-1.2,0-2.2-0.2-3.2-0.8c-0.2-0.1-0.5-0.1-0.8-0.2
		C61.4,26.3,61.5,26.5,61.6,27z M15.7,21.8c0,0.2,0,0.3,0,0.5c0.4,0,0.8,0.1,1.2,0.1c0-0.2,0-0.3,0-0.5
		C16.5,21.8,16.1,21.8,15.7,21.8z M29,23.3c1.1,0.4,1.1,0.4,1.2-0.4C29.9,23,29.4,23.1,29,23.3z"/>
	<path class="st0" d="M24.2,65.6c0-0.2,0-0.4,0-0.6c-0.4,1-1.3,0.7-2,0.7c-3.6,0-7.2,0-10.9,0c-0.6,0-1.3,0.1-1.9-0.1
		c-0.4-0.1-0.8-0.7-0.9-1.2c-0.2-0.7-0.2-1.5,0-2.1c0.1-0.3,0.8-0.7,1.2-0.7c2.3-0.1,4.6,0,6.9,0c1.5,0,3-0.1,4.5,0
		c2.4,0.1,4.9-0.2,7.3,0c0.5,0,1,0.3,1.6,0.4c0.1-0.5,0.6-0.5,1.2-0.5c1.6,0.1,3.1,0,4.7,0.1c0.5,0,1,0.2,1.5,0.3
		c0.1,0,0.3,0.1,0.4,0.1c1-0.1,2.1-0.3,3.1-0.3c4.7,0,9.4,0,14.1,0c0.3,0,0.6,0.2,0.9,0.4c0.2,0.1,0.4,0.2,0.5,0.1
		c1.4-0.9,3-0.4,4.5-0.4c2,0,4,0,6,0c0.8,0,1.3,0.1,1.4,1c0,0.2,0.1,0.3,0.1,0.5c0.2,2.3-1.2,3.3-3.5,2.6c-0.4-0.1-0.9,0-1.4,0
		c-3.6,0-7.2,0-10.7,0c-2.3,0-4.7,0-7,0.1c-1.9,0-3.7,0.2-5.6,0c-2.4-0.2-4.9,0.2-7.3-0.1c-0.1-0.2-0.2-0.5-0.2-0.8
		c-0.1,0-0.1,0-0.2,0c-0.1,0.3-0.1,0.5-0.1,0.7C29.6,65.6,26.9,65.6,24.2,65.6z M40.8,63.4c-0.1,0-0.2-0.1-0.4-0.1
		c-0.1,0.3-0.1,0.7-0.2,1c0.1,0,0.2,0.1,0.4,0.1C40.6,64.1,40.7,63.7,40.8,63.4z"/>
	<path class="st0" d="M24.7,29.3c-0.1-0.2-0.3-0.5-0.5-0.8c1.4,0,2.7,0,4.1,0c1.8,0,3.6,0,5.4,0c1.9,0,3.8-0.1,5.7,0
		c1.1,0,2.2,0.3,3.4,0.3c1.4,0,2.8-0.3,4.2-0.3c4.4,0,8.7,0,13.1,0c0.5,0,1-0.1,1.4,0c0.4,0.1,0.8,0.4,1,0.7c0.2,0.3,0.6,1-0.1,0.9
		c0.1,0.7,0.3,1.3,0.2,1.8c-0.1,0.7-0.8,0.7-1.4,0.7c-5.7,0-11.5,0-17.2-0.1c-0.8,0-1.6,0-2.4,0.1c-2.8,0-5.7,0-8.5,0
		c-0.4,0-0.8-0.2-1.2-0.3c-0.4,0.1-0.8,0.3-1.3,0.3c-1.5,0-3,0-4.4,0c-0.7,0-1.4-0.2-2.1-0.2c-1.5,0-3,0.2-4.5,0.2
		c-1.3,0-2.6,0.1-4,0c-0.9,0-1.5-0.2-1.4-1.3c0.1-0.6,0-1.2,0-1.8c0-0.8,0.5-1,1.1-1c0.1,0,0.2,0,0.3,0c1.9,0,3.8,0,5.7,0
		c0.7,0,1.4,0,2.1,0c0.2,0,0.3,0.3,0.5,0.4c0.2,0.2,0.4,0.4,0.7,0.5C24.6,29.5,24.6,29.4,24.7,29.3z M33.8,31.9
		c0-0.1,0.1-0.2,0.1-0.2c-0.3-0.5-0.7-1.1-1.1-1.7c-0.2,0.4-0.3,0.6-0.5,0.9C32.9,31.2,33.4,31.5,33.8,31.9z M47.1,29.7
		c0.1-0.1,0.1-0.2,0.2-0.4c-0.3-0.2-0.6-0.4-0.8-0.5c-0.1,0.2-0.2,0.4-0.3,0.5C46.5,29.5,46.8,29.6,47.1,29.7z M51.8,30
		c0-0.1,0-0.3,0-0.4c-0.3,0-0.6-0.1-0.9-0.1c-0.1,0-0.1,0.2-0.2,0.4C51.2,29.9,51.5,29.9,51.8,30z"/>
	<path class="st0" d="M51.5,55.9c0.5-0.7,4-0.5,4.5,0.1c0.4-0.2,0.8-0.4,1.1-0.4c1.5,0,3-0.1,4.5,0c0.3,0,1,0.4,1,0.6
		c0.1,0.9,0,1.9-0.1,2.8c0,0.2-0.3,0.5-0.5,0.5c-0.9,0-1.7-0.1-2.6-0.3c-0.3,0.1-0.6,0.3-0.9,0.3c-3,0-6.1-0.1-9.1-0.1
		c-2.1,0-4.1,0.1-6.2,0.1c-4.4,0-8.8,0-13.2,0c-3.2,0-6.4,0-9.6,0c-0.4,0-0.7-0.3-1.1-0.4c-0.2-0.1-0.5-0.3-0.7-0.4
		c-0.1,0.2-0.2,0.5-0.4,0.8c-0.9,0-1.9,0-2.9,0c-1.2,0-1.5-0.4-1.2-1.7c0.2,0.1,0.4,0.1,0.9,0.3c-0.2-0.3-0.3-0.4-0.4-0.5
		c-0.4-0.4-0.9-0.7-0.6-1.4c0.3-0.7,0.9-0.6,1.4-0.6c2.2,0,4.4,0.1,6.5,0.1c1.5,0,3-0.1,4.5-0.1c4.1,0,8.1-0.1,12.2-0.1
		c2.9,0,5.7,0,8.6,0c0.9,0,1.9,0,2.8,0C50.5,55.6,50.9,55.8,51.5,55.9z"/>
	<path class="st0" d="M57.6,53.8c-0.8,0-1.6,0-2.4,0c-0.8,0-1.3-0.4-1.3-1.2c0.1-1.9,0.2-3.9,0.4-5.8c0.1-1.3,0.2-2.6,0.2-4
		c0.1-1.4-0.1-2.9,0.3-4.3c0.3-1,0.1-1.8,0.1-2.8c0-1.2,0.3-1.4,1.6-1.3c0.7,0.1,1.4-0.2,2.1-0.2c1.3,0,1.9,0.7,1.9,2
		c0,2,0.2,4,0.3,6c0.1,1.3,0,2.6,0.1,3.9c0.1,1.7,0.2,3.4,0.4,5.1c0,0.4,0.1,0.9,0.1,1.3c0,0.9-0.5,1.3-1.4,1.3
		C59.1,53.8,58.3,53.8,57.6,53.8C57.6,53.8,57.6,53.8,57.6,53.8z"/>
	<path class="st0" d="M41.9,53.8c-0.1-1.1-0.4-2.2-0.3-3.3c0-1.4-0.1-2.8,0.5-4.1c0.2-0.5-0.2-1.2-0.1-1.9c0.2-2.9,0.3-5.9,0.6-8.8
		c0.1-1.6,0.2-1.6,1.8-1.5c0.9,0,1.8,0.5,2.7,0.3c0.1,0,0.6,0.5,0.6,0.7c0.1,0.8,0.2,1.7,0.2,2.6c0,0.4-0.1,0.7-0.2,0.9
		c0.2,0.7,0.4,1.3,0.4,1.9c0.2,3.6,0.4,7.1,0.6,10.7c0.1,2.6,0,2.7-2.7,2.6C44.8,53.8,43.4,53.8,41.9,53.8z M46.4,52.9
		c-0.1-0.5-0.2-0.9-0.4-1.3c-0.2,0.1-0.4,0.3-0.6,0.3C45.8,52.2,46.1,52.5,46.4,52.9z"/>
	<path class="st0" d="M34.4,53.5c-2.1,0.6-4,0.3-5.9-0.1c0.2-0.2,0.5-0.4,0.7-0.6c-0.2-0.1-0.5-0.2-0.8-0.4c0.4-0.5,0.1-1.1,0.1-1.6
		c0-1.7,0.2-3.5,0.4-5.2c0-0.4-0.1-0.8-0.1-1.2c0-0.8,0.1-1.7,0.2-2.5c0.1-2.2,0.3-4.4,0.4-6.6c0-0.7,0.5-1,1.1-1c1-0.1,2-0.1,3,0
		c0.6,0,1.2,0.3,1.2,1.1c0.1,1.4,0.3,2.8,0.3,4.1c0.1,1.8,0,3.6,0.3,5.3c0.2,1.4-0.1,2.9,0.3,4.3c0.3,1.1,0.2,2.3,0.2,3.5
		c0,0.4-0.4,0.8-0.8,1.1C34.9,53.8,34.5,53.5,34.4,53.5z M31.6,45.1c-0.1,0.6-0.1,1-0.2,1.4C32.2,46.1,32.5,45.7,31.6,45.1z
		 M30,46.8c-0.1,0.1-0.2,0.3-0.3,0.4c0.3,0.3,0.7,0.5,1,0.8c0.1-0.1,0.1-0.2,0.2-0.2C30.6,47.4,30.3,47.1,30,46.8z"/>
	<path class="st0" d="M17.1,53.8c-2.2,0-2.2,0-2.2-2.1c0-1.6-0.1-3.3,0.2-4.8c0.4-2.2,0-4.4,0.3-6.5c0.2-1.7,0.4-3.4,0.5-5.1
		c0-0.7,0.5-0.9,1-0.9c0.9,0,1.8,0,2.6,0c1.3,0.1,1.6,0.5,1.6,1.8c0.2,2.9,0.4,5.8,0.6,8.7c0.1,1.5,0.1,2.9,0.2,4.4
		c0,0.9,0.2,1.8,0.2,2.7c0.1,1.9,0,1.9-1.9,2c-0.5,0-1,0-1.5,0C18.2,53.8,17.7,53.8,17.1,53.8z M18.8,50.1c0-0.2,0-0.3-0.1-0.5
		c-0.6,0.1-1.2,0.2-1.7,0.3c0,0.1,0,0.3,0,0.4C17.6,50.2,18.2,50.1,18.8,50.1z M18.8,41.2c0.2,0.1,0.3,0.1,0.5,0.2
		c0.1-0.3,0.3-0.6,0.4-0.9c-0.1-0.1-0.3-0.1-0.4-0.2C19.1,40.6,18.9,40.9,18.8,41.2z M20.1,44.7c0,0.1,0,0.3,0,0.4
		c0.4,0,0.7,0.1,1.1,0.1c0-0.1,0-0.3,0-0.4C20.8,44.8,20.4,44.8,20.1,44.7z"/>
</g>
</svg>
