<?xml version="1.0" encoding="utf-8"?>
<!-- Generator: Adobe Illustrator 19.1.0, SVG Export Plug-In . SVG Version: 6.00 Build 0)  -->
<svg version="1.1" id="Layer_1" xmlns="http://www.w3.org/2000/svg" xmlns:xlink="http://www.w3.org/1999/xlink" x="0px" y="0px"
	 viewBox="0 0 350 150" style="enable-background:new 0 0 350 150;" xml:space="preserve">
<style type="text/css">
	.st0{fill:#434343;}
	.st1{fill:#E0E1E0;}
	.st2{fill:#EEEEEE;}
	.st3{fill:#F5F7F9;}
	.st4{fill:#BDBDBD;}
	.st5{fill:#F37046;}
</style>
<g>
	<path class="st0" d="M271.2,79.4c0,0.5,0,1,0,1.5c-0.1-0.1-0.1-0.1-0.2-0.1c0,0.1-0.1,0.1-0.1,0.2c0.1,0.1,0.2,0.1,0.3,0.2
		c0,0.6,0.1,1.2-0.2,1.8c0.1,0.1,0.1,0.1,0.2,0.2c0,0.7,0,1.4,0,2.2c-0.1,0.1-0.1,0.2-0.3,0.3c0.1,0.2,0.2,0.4,0.3,0.7
		c-0.1,0.2-0.2,0.4-0.2,0.6c0.4,0.7,0.1,1.4,0.2,2c0,0.4-0.5,0.4-0.3,0.8c0.1,0,0.2,0.1,0.3,0.2c-0.1,0.1-0.2,0.3-0.3,0.4
		c-0.3,0.1-0.6,0.5-1,0.1c-0.4,0.1-0.8,0.1-1.3-0.1c-0.2,0.3-0.6,0-0.9,0.2c-0.2-0.1-0.3-0.2-0.5-0.3c-0.2,0-0.3,0.4-0.5,0
		c0.1-0.1,0.3-0.2,0.5-0.4c-0.3,0-0.4,0-0.7,0c0-0.4,0.1-0.8,0.1-1.2c0-0.4,0-0.8,0-1.3c0-0.2,0.1-0.4,0.1-0.6
		c0.2,0,0.4,0.1,0.6,0.1c0,0,0-0.1,0.1-0.2c-0.3-0.1-0.5-0.2-0.8-0.3c0-0.1,0-0.3,0-0.4c0,0,0.1,0,0.1,0c0.2,0.1,0.3,0.2,0.6,0.3
		c-0.1-0.2-0.1-0.4-0.2-0.5c0.3-0.2,0.3-0.2,0.7-0.2c0.2-0.3,0.4-0.6,0.6-1c0.1-0.1,0.3-0.2,0.4-0.3c-0.1-0.4-0.5-0.3-0.8-0.4
		c-0.3-0.1-0.7,0-1.1,0c0.1,0.4,0.5,0.2,0.7,0.4c0.1,0.5,0.1,0.5-0.1,0.9c-0.1-0.1-0.2-0.1-0.2-0.2c-0.2,0.1-0.4,0.2-0.6,0.2
		c0,0.2,0,0.3,0,0.4c-0.1,0-0.2,0-0.2,0c-0.1-0.4-0.1-0.8,0.1-1.1c-0.1-0.2-0.2-0.4-0.2-0.6c0-1.6,0-3.2,0-4.8c0-0.1,0-0.3,0.1-0.4
		c0.1-0.3,0.2-0.5,0.2-0.7c-0.1-0.2-0.3-0.3-0.3-0.5c0-0.2,0-0.4-0.1-0.6c-0.1-0.2,0-0.4,0-0.6c-0.1-0.7-0.2-1.3-0.5-1.9
		c-0.1-0.1,0-0.3,0-0.5c0.1,0.1,0.2,0.2,0.3,0.2c0-0.1,0-0.2,0-0.4c-0.2,0-0.3,0.1-0.6,0.1c-0.5-1-1.4-1.3-2.3-1.7
		c-0.2,0.1-0.5,0.1-0.9,0.2c-0.1,0-0.1-0.1-0.2-0.2c0,0-0.1,0-0.1,0c-0.1,0.1-0.2,0.2-0.3,0.2c-0.8,0.2-1.5,0.6-2.1,1.1
		c-0.1,0.1-0.2,0.1-0.2,0.1c0-0.1-0.1-0.2-0.1-0.3c-0.1,0-0.2-0.1-0.4-0.1c-0.1,0.1-0.1,0.2-0.2,0.3c0.1,0.1,0.2,0.2,0.2,0.3
		c-0.4,0.6-0.9,1.1-1.1,1.9c-0.1,0-0.1-0.1-0.2-0.1c-0.1,0.3-0.1,0.5-0.2,0.8c0.1,0.1,0.2,0.1,0.3,0.2c0.1,0.3-0.1,0.4-0.4,0.4
		c0.2,0.1,0.3,0.2,0.4,0.2c0.1,1.1,0.1,1.3-0.2,1.7c0,0-0.1-0.1-0.1-0.1c0-0.1,0-0.1-0.1-0.3c-0.1,0.3-0.1,0.4-0.1,0.6
		c0,0.2,0,0.4,0.1,0.6c0.1,0.1,0.3,0.2,0.5,0.3c0,0.3-0.1,0.7-0.1,1c0,0.2,0.1,0.4,0.1,0.7c0,1.5,0,3.1,0,4.6c0,0.3-0.1,0.5-0.2,0.8
		c0,0,0.1,0,0.2,0.1c0,0.9,0,1.9,0,2.8c-0.3,0.5-0.7,0.7-1.3,0.6c-0.2-0.1-0.4-0.3-0.6-0.4c-0.1,0.1-0.1,0.2-0.1,0.3
		c-0.6,0-1.3,0-2.1,0c0.3-0.2,0.4-0.3,0.6-0.4c0-0.1-0.1-0.1-0.1-0.3c-0.2,0.2-0.4,0.3-0.5,0.5c-0.5-0.5-0.1-1.1-0.4-1.7
		c0.2,0.1,0.4,0.2,0.5,0.2c0,0.1,0,0.2-0.1,0.3c0.4,0.1,0.7,0.2,1.1,0.5c0-0.2,0-0.4,0-0.5c-0.2-0.1-0.5-0.1-0.7-0.2
		c-0.1-0.1-0.2-0.3-0.3-0.4c0-0.1,0.1-0.3,0.1-0.4c-0.1-0.1-0.3-0.2-0.4-0.3c-0.1,0.1-0.1,0.2-0.2,0.3c0-0.4,0-0.7,0-0.9
		c0.1-0.2,0.5,0,0.4-0.5c-0.1-0.1-0.2-0.2-0.3-0.3c-0.1,0-0.1,0.1-0.2,0.1c0-0.3,0-0.6,0-0.9c0.2,0,0.3-0.1,0.4-0.1
		c0-0.1,0-0.2-0.1-0.4c0.2-0.1,0.4-0.2,0.7-0.3c0,0,0-0.1,0.1-0.2c-0.2-0.1-0.4-0.2-0.6-0.2c-0.2,0-0.4,0-0.5,0c0-0.4,0-0.8,0-1.3
		c0.1-0.1,0.3-0.2,0.5-0.3c-0.2,0-0.4,0-0.6,0c0-0.2,0-0.3,0-0.5c0.4-0.2,0.3,0.3,0.6,0.3c0.1-0.1,0.2-0.2,0.4-0.4
		c0-0.1,0-0.3-0.1-0.4c-0.1-0.2-0.2-0.3-0.2-0.5c-0.4,0.2-0.1,0.6-0.3,0.9c-0.1,0-0.2,0-0.4,0c0.1-0.2,0.2-0.4,0.3-0.6
		c-0.1-0.1-0.2-0.2-0.2-0.3c0-0.1,0-0.3,0-0.4c0.2-0.1,0.3-0.2,0.5-0.3c-0.2-0.1-0.3-0.2-0.5-0.3c0.1-0.1,0.2-0.2,0.2-0.3
		c-0.1,0-0.1,0-0.2-0.1c0-0.4,0-0.9,0-1.3c0-0.5,0.1-1,0.4-1.4c-0.1-0.1-0.2-0.2-0.4-0.3c0-0.1,0-0.2,0-0.3c0.1,0,0.2,0,0.3,0
		c-0.1-0.2-0.2-0.3-0.3-0.4c0-0.3,0-0.6,0-1c0.2-0.1,0.4-0.1,0.6-0.2c-0.1-0.4-0.4-0.1-0.6-0.2c0-1.1,0-2.2,0-3.3c0.1,0,0.2,0,0.3,0
		c-0.1-0.1-0.1-0.3-0.2-0.4c-0.1,0-0.1,0.1-0.2,0.1c0,0,0,0,0,0c0-0.4-0.1-0.9,0-1.3c0.1-0.3,0.1-0.7,0.6-0.8c0.3,0,0.7,0,1.1,0
		c-0.1,0.2-0.2,0.4-0.3,0.7c0.2-0.1,0.2-0.2,0.2-0.2c0.1,0.1,0.1,0.1,0.3,0.2c0-0.3,0-0.5,0-0.8c0.4,0.1,0.9-0.1,1.3,0.2
		c-0.1,0.3-0.2,0.6,0.2,0.9c0.1,0,0.3,0.1,0.5,0.1c-0.2,0.7,0.2,1.2,0.4,1.8c0.2,0,0.4,0,0.5,0c0.1-0.2,0.2-0.4,0.2-0.6
		c0.4-0.1,0.6-0.1,0.9-0.2c0-0.1,0.1-0.2,0.2-0.3c-0.1-0.1-0.1-0.1-0.2-0.2c0.3-0.3,0.7-0.6,1-0.8c0.2,0,0.4,0.1,0.4-0.3
		c0.3-0.2,0.6-0.3,1-0.5c0.2-0.1,0.4,0,0.5-0.1c0.3-0.2,0.7-0.3,1-0.4c0.4-0.1,0.7-0.1,0.9,0.2c0.1-0.1,0.2-0.2,0.4-0.4
		c0.5,0,1.1,0,1.7,0.2c0.6,0.1,1.1,0.2,1.7,0.5c0.3,0.2,1.1,0.8,1.3,1.1c-0.1,0-0.1,0.1-0.3,0.2c0.3,0,0.5,0,0.6,0.1
		c0,0.1,0.1,0.1,0.1,0.2c-0.1,0.2-0.2,0.3-0.3,0.5c0.3,0,0.5,0.1,0.8,0.1c0.2,0.3,0.4,0.6,0.6,0.9c-0.1,0.2-0.2,0.4-0.3,0.5
		c0,0,0.1,0,0.1,0.1c0.2-0.1,0.4-0.3,0.6-0.4c0.1,0.1,0.3,0.1,0.4,0.2c0.1-0.1,0.2-0.2,0.3-0.3c0.2,0.1,0.3,0.1,0.5,0.2
		c0-0.1,0.1-0.3,0.1-0.5c0.1-0.1,0.2-0.2,0.3-0.3c0-0.1-0.1-0.2-0.1-0.3c-0.3,0.4-0.6,0.5-1.1,0.4c0.1-0.1,0.1-0.2,0.2-0.3
		c0.5-0.3,1-0.6,1.5-1c0.3-0.2,0.6-0.4,0.8-0.6c0.4-0.4,1-0.6,1.5-0.9c0.2,0.2,0.4,0.5,0.7,0.7c0.1-0.1,0.2-0.3,0.2-0.5
		c-0.1-0.1-0.2-0.2-0.3-0.2c0,0,0.1-0.1,0.1-0.1c0.2,0,0.4-0.1,0.6-0.1c0.1,0.1,0.2,0.2,0.3,0.4c0.1-0.3,0.2-0.4,0.3-0.6
		c0.2,0.1,0.3,0.2,0.4,0.3c0.1-0.1,0.2-0.3,0.3-0.5c0.1,0.3,0.2,0.5,0.3,0.7c0.1-0.1,0.1-0.2,0.2-0.2c0.1-0.1,0.1-0.1,0.2-0.2
		c0.8-0.1,1.6,0.1,2.4,0.6c0.2,0,0.5,0,0.5,0.4c0.7,0.2,1.3,0.9,2,2.5c-0.5-0.1-0.9-0.2-1.4,0.1c0.1,0.1,0.1,0.2,0.2,0.3
		c0.4-0.1,0.8-0.1,1.2-0.2c0.1,0.2,0.2,0.4,0.3,0.8c0,0.3-0.1,0.7-0.2,1.1c0.1,0.2,0.1,0.5,0.5,0.5c0,0.2,0,0.4,0,0.6
		c-0.1,0.3-0.5,0.2-0.8,0.4c-0.1,0.1-0.1,0.2-0.2,0.3c0.2,0.1,0.5,0.1,0.7,0.2c0-0.1,0.1-0.3,0.2-0.5c0.1,0.2,0.2,0.4,0.2,0.5
		c-0.1,0.1-0.1,0.2-0.2,0.2c0.1,0.1,0.1,0.2,0.2,0.4c0,0.1-0.1,0.1-0.1,0.1c0,0.3,0.1,0.6,0.1,0.9c0,0.3,0,0.6,0,0.9
		c-0.2,0-0.4-0.1-0.6-0.1c-0.1,0.2-0.2,0.4-0.2,0.6c0.3,0.3,0.5-0.2,0.8-0.2c0.2,0.4,0,0.8,0.1,1.2c-0.2,0.1-0.3,0.2-0.6,0.3
		c0.2,0,0.4,0,0.5,0c0,0.2,0,0.3,0,0.4c0,1.2-0.1,2.3-0.1,3.5c0,0.6,0,1.1,0.1,1.7c0,0.2,0,0.5-0.2,0.7c0.3,0.7,0.1,1.4,0.2,2
		c-0.2,0.4-0.4,0.8-0.7,1.3c-0.1,0-0.3-0.1-0.5-0.1c0,0.2,0,0.3,0.1,0.5c-0.6,0.1-1.2,0.1-1.8-0.1c-0.3,0.1-0.5,0.2-0.8,0.3
		c-0.1,0-0.3-0.1-0.5-0.2c0.2-0.1,0.3-0.2,0.5-0.3c-0.1-0.1-0.1-0.3-0.2-0.5c-0.2,0.1-0.4,0.2-0.6,0.4c0-0.4,0-0.8,0-1.2
		c0.2,0,0.4-0.1,0.5-0.1c0.2-0.2,0.4-0.4,0.7-0.6c-0.1-0.1-0.2-0.3-0.4-0.4c-0.1,0.1-0.1,0.1-0.2,0.2c-0.2-0.2-0.4-0.4-0.6-0.6
		c0-0.3,0-0.6,0.1-1c0.2,0,0.4,0,0.6,0c0.4-0.2,0.3-0.5,0.2-0.7c0.2-0.5,0.7-0.5,1-0.7c-0.2-0.3-0.3-0.5-0.5-0.8
		c-0.1,0.1-0.2,0.1-0.2,0.2c-0.2-0.2-0.3-0.3-0.5-0.5c-0.1,0.1-0.2,0.1-0.4,0.2c-0.1-0.1-0.2-0.2-0.2-0.3c-0.1-0.4,0-1.4,0.1-1.7
		c0.3,0.1,0.2,0.4,0.3,0.6c0.1,0,0.2,0,0.3,0c0-0.2,0-0.4,0.1-0.7c-0.2-0.1-0.5-0.2-0.7-0.4c0-1-0.1-2,0-3c0.1,0,0.3-0.1,0.4-0.1
		c0-0.2,0-0.4,0-0.7c-0.1,0-0.2,0-0.3,0c-0.1-0.8-0.2-1.6-0.3-2.4c0,0,0.1,0,0.2,0.1c0.1-0.1,0.1-0.3,0.2-0.5c-0.2,0-0.3,0-0.5,0
		c-0.3-0.6-0.3-1.3-0.9-1.9c0.1-0.2,0.1-0.5,0.5-0.4c-0.1-0.3-0.3-0.3-0.6-0.3c-0.1,0.1-0.1,0.2-0.2,0.3c-0.3-0.2-0.6-0.6-1.1-0.5
		c0,0,0-0.1,0-0.1c0.1,0,0.3-0.1,0.5-0.2c-0.1-0.1-0.2-0.2-0.3-0.3c-0.1,0.2-0.3,0.3-0.5,0.5c-0.1,0-0.2,0.1-0.3,0
		c-0.4-0.3-0.8,0.1-1.2,0c-0.6,0.3-1.2,0.6-1.8,0.9c-0.2,0.1-0.5,0.2-0.6,0.4c-0.2,0.2-0.4,0.1-0.5,0.1c-0.2,0.3-0.3,0.5-0.4,0.8
		c-0.2,0-0.4,0.1-0.7,0.1c0.1,0.1,0.1,0.2,0.2,0.3c-0.2,0.4-0.5,0.8-0.5,1.3c0,0.1,0,0.1,0,0.2c0,0.5,0,1,0,1.6
		c-0.2,0.2-0.4,0.4-0.6,0.7c0.2,0,0.4,0,0.6,0c0,0.2,0,0.4,0,0.7c-0.1,0-0.1,0-0.2,0C271.1,79.2,271.2,79.3,271.2,79.4z M256.3,76.3
		c0.3-0.2,0.5-0.3,0.8-0.5c-0.1-0.1-0.1-0.2-0.2-0.3c-0.1-0.1-0.2-0.2-0.2-0.2c0.2-0.3,0.7,0,0.8-0.5c-0.1,0-0.1,0-0.2-0.1
		c0-0.1,0-0.2,0-0.3c-0.1,0-0.2,0-0.3-0.1c0.2-0.4-0.1-0.8,0.2-1.2c0.2,0.1,0.3,0.2,0.5,0.2c0,0.2,0,0.3-0.1,0.5
		c0.2-0.2,0.3-0.3,0.4-0.4c-0.1-0.3-0.2-0.5-0.2-0.8c0-0.2,0.1-0.4,0.1-0.6c-0.1-0.1-0.2-0.1-0.3-0.2c-0.1,0.1-0.2,0.2-0.2,0.3
		c0.1,0.2,0.1,0.3,0.2,0.4c-0.2,0.4-0.8,0.1-0.9,0.6c0.1,0.1,0.2,0.2,0.3,0.3c-0.2,0.3-0.5-0.1-0.7,0.1c0.1,0.2,0.1,0.3,0.2,0.4
		c-0.2,0.2-0.3,0.3-0.5,0.5c0.2,0.2,0.4,0.3,0.5,0.4C256.3,75.4,256.3,75.8,256.3,76.3z M255.4,79.2
		C255.5,79.2,255.5,79.2,255.4,79.2C255.5,79.2,255.5,79.1,255.4,79.2C255.5,79.1,255.4,79.1,255.4,79.2
		C255.4,79.2,255.4,79.2,255.4,79.2z"/>
	<path class="st0" d="M224.8,90.6c-0.2-0.1-0.2-0.2-0.3-0.3c-0.1,0-0.1,0.1-0.2,0.1c-0.1-0.1-0.2-0.1-0.3-0.2
		c-0.1,0.1-0.2,0.2-0.3,0.3c-1.3,0-2.6,0.1-3.9,0c-0.2-0.2-0.5-0.5-0.7-0.8c0.1-0.2,0.2-0.3,0.2-0.4c-0.1-0.1-0.1-0.2-0.2-0.3
		c0.1-0.1,0.1-0.3,0.2-0.4c-0.1-0.1-0.1-0.2-0.2-0.3c0.2,0,0.3-0.1,0.4-0.1c0,0,0,0,0-0.1c-0.1-0.3-0.1-0.7-0.2-1.1
		c-0.2,0.4-0.3,0.8-0.5,1.1c0,0.1,0.1,0.2,0.1,0.3c-0.2,0-0.3,0-0.5-0.1c-0.1-0.3-0.3-0.6-0.4-0.8c0-0.4,0-0.7,0-0.9
		c-0.2-0.1-0.2-0.1-0.4-0.2c-0.1,0-0.1,0.1-0.2,0.1c-0.4-0.8-0.9-1.6-1.3-2.4c0.1-0.2,0.3-0.3,0.5-0.5c-0.2,0-0.3,0-0.4,0
		c0,0.1-0.1,0.2-0.1,0.2c0,0-0.1,0-0.1,0c-0.5-0.7-0.9-1.5-1.3-2.3c-0.1-0.1-0.1-0.3-0.1-0.4c-0.4-0.7-0.8-1.4-1.1-2.1
		c-0.6-0.2-1.3-0.4-2-0.5c0-0.4,0.4-0.3,0.6-0.4c0.1-0.1,0.1-0.2,0.2-0.2c-0.2-0.1-0.3-0.1-0.5-0.2c-0.2,0.1-0.4,0.1-0.7,0.2
		c-0.1,0.1-0.2,0.4-0.3,0.7c-0.1,0-0.2,0.1-0.4,0.1c-0.2,0-0.4,0-0.6,0c-0.1-0.1-0.1-0.2-0.2-0.3c0.1-0.1,0.1-0.2,0.2-0.3
		c-0.1-0.2-0.1-0.3-0.2-0.5c-0.1,0-0.1,0-0.1,0.1c-0.1,0.2-0.1,0.4-0.2,0.6c0.1,0.1,0.2,0.2,0.3,0.4c0,0,0,0.1-0.1,0.1
		c-0.1,0-0.2,0.1-0.4,0.1c-0.5,0.1-0.5,0.1-0.7,0.7c-0.1,0.1-0.3,0.1-0.4,0.2c0.1,0,0.2,0.1,0.3,0.1c0.1,0.5,0,1.1,0.1,1.6
		c0,0.5-0.1,1.1,0,1.6c0.1,0.5,0,1.1,0,1.6c-0.3,0.1-0.6,0.1-1,0.2c0,0,0,0-0.1,0.1c0.1,0.1,0.2,0.3,0.2,0.4c0.2,0,0.4,0,0.7,0
		c-0.1-0.1-0.1-0.2-0.2-0.3c0.1,0,0.2-0.1,0.3-0.2c0,0.5,0,0.8,0,1.2c-0.1,0-0.1,0-0.2,0c0,0,0,0.1,0,0.1c0.1,0.2,0.2,0.3,0.2,0.5
		c0,0.8,0,1.5,0,2.3c-0.3-0.1-0.4-0.2-0.7-0.2c-0.1,0.3,0.1,0.3,0.3,0.4c0.1,0.2,0.1,0.4,0.2,0.6c-0.2,0.4-0.6,0.5-1,0.4
		c-0.3,0-0.7-0.1-1-0.1c-0.4,0-0.8-0.2-1.2-0.3c0,0.1,0,0.2,0.1,0.3c-0.7,0.4-1.3,0.1-1.4-0.7c0-0.3-0.2-0.6,0-1c0.1,0,0.3,0,0.4,0
		c0.1-0.3,0.3-0.5,0.5-0.8c0,0,0-0.1-0.1-0.2c-0.3,0.3-0.6,0.5-0.9,0.8c0-0.5,0-0.9,0.3-1.3c-0.4-0.7-0.1-1.5-0.2-2.3
		c0.3,0.2,0.4,0.4,0.6,0.6c0.1-0.1,0.2-0.2,0.3-0.3c-0.2-0.2-0.4-0.3-0.6-0.5c-0.1,0-0.2,0-0.4,0.1c0-0.2,0-0.4,0-0.6
		c0.1-0.1,0.2-0.2,0.4-0.4c-0.1-0.1-0.2-0.2-0.4-0.2c0-0.4,0-0.4,0.5-0.7c0.1,0.1,0.3,0.2,0.4,0.3c-0.1,0.1-0.1,0.1-0.2,0.3
		c0.2,0.1,0.4,0.1,0.7,0.2c0.1-0.1,0.2-0.2,0.3-0.4c-0.2-0.3-0.4,0-0.6-0.1c0-0.1-0.1-0.2-0.1-0.4c-0.2,0-0.4-0.1-0.7-0.1
		c-0.1-0.3,0.2-0.4,0.2-0.7c-0.2,0-0.4-0.1-0.6-0.1c0-0.1,0-0.2,0.1-0.4c0.2,0,0.4,0,0.7,0c-0.1-0.4-0.3-0.7-0.8-0.8
		c0.1-0.1,0.2-0.2,0.2-0.4c-0.1-0.2-0.2-0.4-0.2-0.7c0-0.3-0.1-0.6,0.2-0.7c-0.1-0.2-0.2-0.4-0.2-0.6c0-0.6-0.1-1.2,0.1-1.8
		c0.1-0.2,0-0.5-0.1-0.8c0.2-0.2,0.4-0.4,0.6-0.6c0-0.1-0.1-0.3-0.1-0.4c-0.1-0.1-0.2-0.1-0.3-0.2c0-0.4,0-0.8,0-1.2
		c0.2-0.3,0.5-0.7,0.7-1.1c-0.3-0.2-0.5,0.1-0.7,0.1c0-0.2-0.1-0.3-0.1-0.5c0,0,0.1-0.1,0.1-0.1c0.2,0.1,0.2-0.2,0.3-0.2
		c-0.2-0.1-0.3-0.2-0.5-0.4c0-0.7,0-1.3,0-2c0.1-0.1,0.2-0.2,0.3-0.3c-0.4-0.7-0.5-1.1-0.2-1.6c-0.3-0.9-0.1-1.8-0.2-2.7
		c0,0,0.1-0.1,0.1-0.1c0,0.1,0,0.3,0,0.4c0.1,0,0.1-0.1,0.2-0.1c0-0.1,0-0.2,0-0.3c-0.1-0.1-0.2-0.1-0.4-0.2c0-0.6,0-1.1,0-1.7
		c0.1-0.1,0.2-0.3,0.4-0.4c0.1,0,0.2,0,0.3,0c0,0.1,0.1,0.2,0.1,0.3c-0.1,0.2-0.2,0.4-0.3,0.5c0,0,0.1,0.1,0.1,0.1
		c0.2-0.2,0.4-0.4,0.7-0.5c0.2-0.1,0.5-0.1,0.8-0.1c0-0.4,0.6-0.4,0.6-0.8c1.1-0.1,1.1-0.1,1.7,0.3c0.3-0.2,0.5-0.5,0.9-0.3
		c0.1,0.1,0.1,0.2,0.2,0.3c0.1,0,0.2,0,0.4-0.1c0.1,0.1,0.1,0.2,0.2,0.4c0.2,0,0.4-0.1,0.6-0.1c0.1-0.1,0.1-0.3,0.2-0.5
		c0.6,0,1.2-0.1,1.7,0.1c0.6-0.2,1.2-0.1,1.8-0.1c0.1,0,0.2,0.1,0.2,0.1c-0.1,0.3-0.6-0.1-0.5,0.4c0.2,0.1,0.5,0.1,0.7,0.2
		c0.4-0.1,0.2-0.5,0.3-0.7c0.4-0.2,0.6,0.2,0.9,0.2c0.5-0.4,0.9-0.1,1.4,0c0,0.1,0,0.2,0,0.3c0.1-0.1,0.2-0.2,0.4-0.3
		c0.1,0,0.3,0.1,0.4,0.1c0,0.2,0,0.4,0.1,0.6c0.1-0.2,0.2-0.4,0.4-0.5c1,0.3,2,0.6,2.7,1.3c0.8,0.7,1.6,1.3,2,2.4
		c0,0.1,0,0.2-0.1,0.3c0.5,0.3,0.5,0.3,0.4,0.9c0.1,0,0.2,0.1,0.3,0.1c0.1,0.6,0.3,1.2,0.4,1.8c-0.1,0.2-0.2,0.4-0.4,0.6
		c0.1,0.1,0.2,0.2,0.4,0.4c0,0.4,0,0.9,0,1.3c0,0.5-0.4,0.8-0.3,1.2c-0.1,0-0.2,0-0.4,0.1c-0.1,0.1-0.2,0.2-0.3,0.3
		c0,0.1,0.1,0.3,0.1,0.4c0.2,0.1,0.3,0.1,0.4,0.2c-0.2,0.4-0.3,0.8-0.5,1.1c-0.4,0.7-0.8,1.3-1.3,1.9c-0.1,0.1-0.1,0.2-0.2,0.2
		c-0.4,0.3-0.8,0.5-1.1,0.8c-0.3,0.3-0.8,0.5-1.2,0.7c-0.3,0.2-0.7,0.3-1.1,0.4c0,0.1,0,0.3-0.1,0.5c0.2,0.2,0.3,0.5,0.5,0.7
		c0.2,0.3,0.3,0.5,0.5,0.8c-0.1,0.2-0.3,0.3-0.4,0.5c-0.1,0-0.3,0-0.4,0c0,0,0,0.1,0,0.1c0.2,0.1,0.4,0.2,0.6,0.3
		c0.2-0.1,0.3-0.2,0.4-0.4c0.2,0.2,0.3,0.4,0.5,0.6c-0.2,0.1-0.3,0.2-0.4,0.2c0,0,0,0.1,0.1,0.1c0.2,0,0.3,0.1,0.5,0.1
		c0.2,0.3,0.3,0.6,0.5,1c-0.3,0.3-0.5,0-0.8,0c-0.1,0.1-0.3,0.3-0.4,0.5c0.4,0,0.7,0,1,0c0.1-0.1,0.2-0.2,0.4-0.3
		c0.2,0.3,0.4,0.5,0.5,0.8c0.1,0.3,0.1,0.6,0.2,0.9c0.1-0.1,0.2-0.1,0.2-0.1c0.3,0.5,0.6,1.1,0.9,1.7c-0.2,0.1-0.3,0.1-0.4,0.2
		c0,0,0.1,0.1,0.1,0.1c0.2,0.1,0.4,0.1,0.7,0.2C223.3,87.9,224.2,89.1,224.8,90.6z M215.6,65c-0.3,0.2-0.5,0.3-0.8,0.1
		c-0.2-0.2-0.5-0.3-0.8-0.4c-0.1,0-0.1,0-0.2,0c-0.1,0.1-0.2,0.2-0.3,0.3c-0.2-0.1-0.4-0.1-0.7-0.2c-0.2,0.2-0.4,0.3-0.6,0.5
		c0,0-0.1-0.1-0.2,0c-0.7,0.2-1.5,0-2.2,0.1c-0.1,0-0.2,0-0.2,0c-0.4-0.2-0.7-0.1-1.1,0.1c-0.1,0.2-0.1,0.4-0.2,0.6
		c-0.1,0-0.1,0-0.3,0.1c0.1,0.2,0.2,0.3,0.3,0.4c0,0.8,0,1.6,0,2.3c-0.1,0.1-0.2,0.2-0.3,0.2c0.1,0.1,0.2,0.1,0.4,0.2
		c-0.2,0.1-0.3,0.1-0.4,0.2c0.2,0.2,0.3,0.3,0.3,0.4c0.1,1-0.1,1.9,0,2.8c0,0.2-0.1,0.4-0.1,0.6c0,0.4,0.1,0.8,0.1,1.1
		c-0.1,0.4,0,0.8,0.4,1.1c0.7-0.1,1.4-0.2,2.1,0.1c0.1-0.1,0.2-0.1,0.3-0.2c0.2,0.3,0.4,0.5,0.8,0.5c0-0.1-0.1-0.1-0.2-0.2
		c-0.1-0.1-0.1-0.2-0.2-0.3c0.7-0.1,1.3,0.3,2,0.1c0.3-0.2,0.3-0.2,0.8-0.1c-0.1,0.2-0.2,0.4-0.3,0.6c-0.2,0.1-0.3,0.1-0.5,0.2
		c0.3,0,0.5,0.1,0.8,0.1c0-0.2,0.1-0.3,0.1-0.5c0.1,0,0.2,0,0.3,0c0-0.1,0-0.3,0-0.4c0.1,0.1,0.1,0.1,0.1,0.1
		c0.4-0.1,0.8-0.3,1.2-0.4c0.1,0.2,0.2,0.3,0.3,0.5c0.2-0.1,0.2-0.2,0.3-0.2c0-0.1,0-0.3-0.1-0.4c0.6-0.3,1.1-0.6,1.7-0.9
		c0-0.2,0-0.2,0.1-0.4c0.1,0,0.2,0,0.3,0c-0.2-0.4,0-0.6,0.1-0.8c0.3-0.1,0.5-0.2,0.8-0.3c0-0.2-0.1-0.3-0.1-0.4
		c-0.2,0.2-0.3,0.3-0.4,0.4c0-0.5,0.2-0.9,0.2-1.3c0.1-0.4,0.1-0.9,0.2-1.3c0.2-0.1,0.4-0.1,0.6-0.2c-0.1-0.2-0.2-0.3-0.3-0.4
		c-0.1-0.1-0.2,0-0.3-0.2c0-0.1-0.2-0.2-0.3-0.4c-0.1-0.3-0.2-0.7-0.4-1.1c0.1,0,0.3-0.1,0.5-0.2c-0.2-0.1-0.5-0.1-0.3-0.4
		c0.1-0.2,0.5,0.1,0.5-0.3c-0.3-0.1-0.5-0.2-0.8-0.3c-0.1,0.1-0.1,0.1-0.2,0.2c-0.2-0.1-0.4-0.1-0.6-0.2c0-0.2-0.1-0.3-0.1-0.5
		c-0.1,0-0.2,0-0.3,0c0,0,0.1,0.1,0.1,0.1c-0.1,0.1-0.2,0.2-0.3,0.3c-0.3-0.2-0.5-0.3-0.7-0.4c0-0.1,0-0.2,0-0.4
		c-0.1,0-0.2,0-0.4-0.1c-0.1,0.1-0.1,0.2-0.1,0.3c-0.2,0-0.3-0.1-0.6-0.1c0.2-0.1,0.3-0.2,0.5-0.3C215.8,65.1,215.8,65,215.6,65z"/>
	<path class="st0" d="M229.8,81.3c-0.2-0.3,0.1-0.5,0.2-0.7c0.1-0.2,0.4-0.2,0.6-0.4c0.1-0.3,0.1-0.3,0.7-0.6
		c-0.1,0.2-0.1,0.2-0.2,0.4c0,0.3,0.4,0.4,0.5,0.6c0.5,0,0.4-0.4,0.5-0.7c-0.2-0.1-0.3-0.2-0.5-0.3c-0.1-0.3,0.1-0.4,0.3-0.5
		c0.1,0.2,0.3,0.3,0.4,0.5c0.2-0.3,0.2-0.6,0.3-0.8c0,0,0.1,0,0.1-0.1c0.3-0.2,0.7,0.1,0.9-0.2c0.2-0.3,0.6-0.3,0.9-0.4
		c0.6-0.1,1-0.4,1.6-0.4c0.1,0,0.2-0.1,0.4-0.2c0,0.1,0.1,0.2,0.1,0.2c0.1,0,0.3,0,0.4,0c0-0.1,0.1-0.3,0.1-0.4
		c0.4-0.1,0.8-0.2,1.2-0.2c0.1,0.2,0.2,0.3,0.4,0.5c-0.2,0.2-0.5,0.4-0.7,0.6c0.4,0.2,0.5-0.3,0.8-0.2c0.1-0.3,0.3-0.6,0.4-0.9
		c0.1-0.2,0.3-0.2,0.5-0.2c0.6-0.3,1.3-0.3,1.9-0.6c0.1-0.1,0.3,0,0.6,0c-0.2,0.2-0.3,0.3-0.4,0.4c0.3,0,0.5,0.1,0.8,0.1
		c0,0,0-0.1,0.1-0.2c0.1,0,0.3-0.1,0.4-0.1c0-0.1-0.1-0.2-0.1-0.2c-0.3-0.1-0.5-0.1-0.7-0.2c-0.2-0.1-0.4-0.2-0.7-0.3
		c0.1-0.2,0.2-0.3,0.2-0.4c-0.1-0.2-0.3-0.3-0.3-0.5c-0.2-0.9-0.7-1.6-1.4-2.2c0-0.2,0-0.3,0.1-0.5c-0.2,0-0.3,0.1-0.5,0.1
		c-0.2-0.1-0.5-0.3-0.8-0.5c-0.2-0.1-0.4-0.2-0.7-0.1c-0.2,0.1-0.4,0-0.6,0c0.1-0.2,0.1-0.3,0.1-0.5c-0.3-0.2-0.7-0.2-0.9-0.2
		c-0.3,0.1-0.5,0.2-0.8,0.4c0,0.1-0.1,0.2-0.1,0.4c-0.7,0.2-1.4,0.5-2.2,0.7c0,0-0.1-0.1-0.1-0.1c0,0.1-0.1,0.2-0.1,0.3
		c-0.5,0.2-0.9,0.5-1.3,0.7c-0.5,0.3-0.6,0.3-1.1,0c-0.2-0.3-0.5-0.7-0.3-1.2c-0.1,0-0.2,0-0.3,0c-0.4-0.4-0.6-0.9-0.5-1.5
		c0.2-0.2,0.5-0.4,0.7-0.7c0.1,0.1,0.2,0.1,0.3,0.2c0.1-0.1,0.2-0.3,0.2-0.4c0.1,0.1,0.3,0.1,0.5,0.2c-0.1-0.2-0.1-0.3-0.2-0.4
		c0.5-0.4,2.7-1.1,3.5-1.3c0.1,0.2,0.3,0.3,0.4,0.5c-0.2,0.2-0.4,0.3-0.6,0.4c0.3,0.3,0.3,0.3,0.8,0c0-0.4,0-0.7,0-1.1
		c0.5-0.3,0.9-0.3,1.3,0c0.1,0,0.2,0,0.3,0c0-0.1,0-0.2,0-0.4c0.3,0,0.6,0,1,0c0.3,0.1,0.5,0.4,0.5,0.9c0.2-0.1,0.3-0.1,0.4-0.2
		c0-0.1-0.1-0.2-0.1-0.4c-0.1-0.1-0.3-0.1-0.4-0.2c0-0.1,0-0.1,0.1-0.1c0.6,0.1,1.3,0.2,1.9,0.2c0.3,0.3,0.7,0,1,0.2
		c0.1,0,0.2,0,0.2,0.1c0.9,0.5,1.8,0.8,2.5,1.6c0.5,0.6,0.9,1.2,1.2,1.9c-0.1,0.1-0.2,0.3-0.4,0.5c0.1,0.1,0.2,0.2,0.4,0.3
		c0.1,0.5,0.1,0.5,0.4,0.7c0,0.1,0,0.2,0,0.3c0,0.1,0,0.2,0,0.3c-0.1,0.1-0.2,0.2-0.3,0.4c0.1,0,0.2,0.1,0.4,0.1
		c0.1,0.5,0.1,1,0.2,1.4c-0.2,0.2-0.4,0.3-0.6,0.5c0.2,0,0.4,0,0.6,0.1c0,0.8,0.1,1.6,0.1,2.3c-0.1,0.1-0.2,0.1-0.3,0.2
		c0.1,0.1,0.2,0.2,0.3,0.3c0,0.1,0,0.3,0,0.4c-0.2,0.3-0.5,0.4-0.9,0.4c0.1,0.3,0.3,0.5,0.4,0.8c0.1,0,0.1,0,0.2,0.1
		c0.1-0.2,0.1-0.3,0.2-0.5c0.3,0.7,0,1.3,0.2,1.9c-0.2-0.1-0.4-0.1-0.6-0.2c0.1,0.2,0.1,0.3,0.2,0.5c-0.2,0.1-0.4,0.3-0.6,0.4
		c0.1,0.1,0.1,0.3,0.2,0.5c0.1-0.2,0.2-0.3,0.3-0.5c0.1,0,0.2,0,0.3,0c0-0.1,0.1-0.2,0.2-0.3c0,0.8,0,1.5,0,2.1
		c-0.2,0.1-0.3,0.2-0.5,0.3c0.1,0.1,0.1,0.2,0.2,0.3c0.1-0.1,0.2-0.2,0.3-0.3c0.1,0.5,0,0.9-0.2,1.3c0.1,0.1,0.1,0.2,0.2,0.3
		c0,0.9,0,1.9,0,2.9c0,0.2-0.1,0.4-0.2,0.6c0,0.1-0.2,0.1-0.4,0.2c0-0.3,0-0.4,0.1-0.7c-0.2,0-0.3-0.1-0.5-0.1
		c0.1,0.1,0.1,0.3,0.2,0.4c-0.1,0.2-0.3,0.4-0.5,0.4c-0.6,0-1.3,0.2-2-0.2c0.1-0.1,0.2-0.2,0.3-0.3c-0.1-0.4-0.5-0.3-0.8-0.5
		c-0.1-0.5-0.2-1.1-0.3-1.6c-0.3,0.1-0.5,0.3-0.8,0.5c-0.4,0.1-0.5-0.4-0.9-0.2c0-0.1,0-0.2,0.1-0.3c-0.2,0-0.4,0-0.6,0
		c0.2,0.3,0.4,0.5,0.5,0.7c0.1,0,0.3,0,0.5,0.1c-0.5,0.6-1.2,0.8-1.7,1.2c-0.1-0.2-0.2-0.3-0.2-0.4c0,0-0.1,0-0.1,0.1
		c0,0.1,0,0.3-0.1,0.5c-0.4,0.2-0.8,0.6-1.4,0.4c-0.1,0.1-0.1,0.2-0.2,0.3c-0.4,0.3-0.7-0.3-1.1-0.1c0,0.1-0.1,0.3-0.1,0.4
		c-0.7,0-1.4,0-2.2,0c0-0.1,0.1-0.3,0.1-0.4c-0.2,0-0.4,0-0.6,0c-0.2-0.1-0.3-0.2-0.4-0.3c-0.1,0.1-0.2,0.2-0.3,0.4
		c-1.1-0.3-2-1.1-2.8-2c0-0.1,0-0.1,0.1-0.2c0,0,0.1-0.1,0.1-0.1c0-0.1-0.1-0.1-0.1-0.2c0-0.1-0.1-0.1-0.1-0.2
		c-0.5,0.1-0.5-0.3-0.6-0.5c-0.2-0.7-0.4-1.3-0.4-2.1c0.1-0.1,0.2-0.1,0.4-0.2c-0.3-0.6-0.5-1.2-0.3-2
		C229.2,82,229.3,81.5,229.8,81.3z M237,87.6c0.2-0.1,0.4-0.2,0.5-0.3c0.7-0.2,1.3-0.4,1.8-0.8c0.4-0.2,0.8-0.4,1.1-0.7
		c0.4-0.3,0.8-0.5,1-1.1c0.1-0.2,0.3-0.4,0.4-0.6c-0.2-0.3-0.1-0.7-0.1-1.2c0.1,0.2,0.2,0.2,0.3,0.4c0-0.3,0-0.5,0-0.6
		c-0.2-0.1-0.3-0.2-0.4-0.3c0.4-0.3,0.4-0.3,0.8-0.1c0.2,0.1,0.4,0.3,0.8,0.2c-0.3-0.2-0.5-0.4-0.7-0.7c0.1-0.1,0.1-0.2,0.1-0.4
		c0-0.1,0.1-0.3,0.1-0.4c-0.2,0-0.3,0-0.4,0.1c-0.1,0.1-0.1,0.3-0.2,0.4c-0.1,0-0.3,0-0.5,0.1c0.1-0.6-0.1-1.2,0.1-1.7
		c0.2,0,0.3-0.1,0.4-0.1c-0.1-0.2-0.2-0.3-0.2-0.4c0.1-0.2,0.2-0.3,0.3-0.5c0,0-0.1,0-0.1-0.1c-0.2,0.2-0.4,0.4-0.7,0.6
		c-0.1-0.1-0.3-0.2-0.4-0.2c-0.2,0.1-0.4,0.2-0.6,0.3c-0.5,0.1-1.1,0.2-1.6,0.3c-0.1-0.1-0.1-0.2-0.2-0.2c-0.1,0-0.3,0-0.3,0
		c-0.2,0.2-0.3,0.4-0.4,0.6c-0.2,0-0.3,0-0.3,0c-0.3,0.1-0.6,0.2-0.8,0.3c-0.1-0.1-0.2-0.1-0.2-0.2c0,0.1-0.1,0.2-0.1,0.2
		c-0.2,0-0.3,0-0.5,0c0,0.1,0,0.2,0,0.4c-0.3,0.1-0.6,0.1-0.9,0.2c0,0,0,0.1,0.1,0.2c-0.3,0-0.5,0-0.8,0c-0.1,0.3-0.3,0.5-0.4,0.8
		c-0.5,0.1-0.8-0.3-1.3-0.3c-0.1,0.1-0.1,0.1-0.3,0.2c0.4,0.3,0.8,0.6,1.1,0.9c-0.1,0.4-0.1,0.7-0.6,0.9c0.1,0.1,0.2,0.2,0.3,0.2
		c0,0.3,0.1,0.6,0.1,0.9c0.1,0.8,0.3,1.4,1.1,1.8c0.3,0.2,0.7,0.3,1,0.5c0.2,0.1,0.5,0.2,0.5,0.6c0.2-0.2,0.4-0.3,0.6-0.4
		C236.6,87.5,236.8,87.5,237,87.6z M242.3,72.7c0.2,0.1,0.4,0.2,0.5,0.3c0.3-0.1,0.5-0.2,0.8-0.3c0.1,0.1,0.2,0.1,0.3,0.2
		c0.1,0,0.3-0.1,0.4-0.1c0.1-0.1,0.1-0.2,0.2-0.4c-0.4-0.1-0.7-0.2-1.1-0.2c-0.2,0-0.4,0.1-0.6,0.2c-0.2,0-0.3,0.1-0.5,0.1
		c-0.1-0.2-0.2-0.3-0.3-0.4c-0.1,0-0.2,0.1-0.3,0.1c0.1,0.2,0.2,0.3,0.2,0.4c-0.2,0.3-0.4,0.5-0.5,0.8c0.3,0.1,0.5,0.2,0.7,0.3
		c0-0.1,0-0.2,0-0.3c0.1,0,0.1,0,0.2,0C242.3,73,242.3,72.8,242.3,72.7z M235,79.7C235,79.7,235.1,79.7,235,79.7
		C235.1,79.7,235.1,79.6,235,79.7C235,79.6,235,79.6,235,79.7C235,79.7,235,79.7,235,79.7z"/>
	<path class="st0" d="M244.5,37.8c-0.3,0.1-0.5,0.1-0.8,0.2c0.3,0.1,0.6,0.2,0.8,0.3c0,1.2,0,2.3,0,3.4c-0.1,0-0.3,0-0.5,0
		c0,0.3,0.1,0.4,0.5,0.3c0.1,0.4,0.1,0.8-0.3,1.2c0.1,0.1,0.2,0.2,0.3,0.3c0,0.4,0.1,0.8-0.2,1.2c0.3,0.5,0.2,1.1,0.1,1.7
		c0,0.2-0.1,0.3,0,0.5c0.2,1,0.2,2,0,3c-0.5,0.3-1,0.3-2.4,0.2c-0.5-0.5-0.6-1.4-0.3-2c-0.1-0.2-0.1-0.3-0.2-0.5
		c0.1-0.1,0.2-0.2,0.4-0.3c0.1,0.1,0.2,0.3,0.3,0.4c0.2,0,0.4-0.1,0.6-0.1c-0.1-0.1-0.2-0.3-0.3-0.4c-0.1-0.1-0.2-0.2-0.2-0.3
		c-0.3-0.1-0.5-0.1-0.8-0.2c0-0.7,0-1.4,0-2.1c0.1,0,0.3-0.1,0.5-0.1c-0.3-0.1-0.4-0.2-0.5-0.2c0-0.3,0-0.7,0-1.1
		c0.2-0.2,0.6,0.1,0.6-0.2c-0.2-0.2-0.4-0.3-0.5-0.5c-0.2-0.3-0.2-0.7-0.1-1.4c0.5-0.2,0.6,0.6,1.1,0.4c-0.1-0.2-0.3-0.4-0.4-0.5
		c0.1-0.1,0.1-0.2,0.2-0.3c-0.1-0.2-0.3-0.3-0.5-0.6c-0.1,0.3,0.3,0.5,0.1,0.8c-0.2,0-0.3-0.1-0.5-0.2c0-0.4,0-0.8,0-1.2
		c0.1-0.1,0.3-0.1,0.5-0.3c-0.2-0.1-0.3-0.1-0.5-0.1c0-0.7,0-1.3,0-2c0-0.7-0.2-1.3-0.2-2c0.1,0,0.2-0.1,0.3-0.1
		c0-0.3-0.3-0.3-0.4-0.4c0-0.2-0.1-0.5-0.1-0.7c0.4,0,0.4,0,0.6-0.3c-0.2,0-0.4,0-0.7,0c-0.1-0.8-0.6-1.3-1-2
		c-0.7-0.4-1.3-0.8-2.1-0.8c-0.1-0.2-0.2-0.3-0.3-0.5c-0.1,0.1-0.2,0.2-0.3,0.4c-0.2-0.1-0.4-0.2-0.6-0.3c0-0.1,0.1-0.3,0.1-0.5
		c-0.2,0-0.3,0-0.5,0c0-0.1,0.1-0.2,0.1-0.4c0,0-0.1-0.1-0.2-0.3c-0.1,0.3-0.2,0.5-0.3,0.7c0.2,0.2,0.4,0.4,0.6,0.7
		c-0.2,0-0.3,0.1-0.4,0.1c-0.4,0.1-0.8,0.1-1.2,0.3c-0.4,0.2-0.8,0.4-1.1,0.7c-0.4,0.3-0.7,0.6-1.1,0.8c-0.2,0.1-0.4,0.2-0.7,0.4
		c0,0.3-0.2,0.4-0.4,0.6c-0.2,0.2-0.3,0.4-0.5,0.6c-0.1,0-0.3,0.1-0.6,0.2c0.3,0.1,0.4,0.1,0.5,0.1c0,0.5-0.1,1-0.1,1.5
		c0.1,0.4,0,0.9-0.3,1.3c0.1,0.2,0.2,0.3,0.3,0.4c0,0.3,0,0.7,0,1.1c0,0.4,0,0.7,0,1c-0.1,0.3-0.5,0.5-0.4,0.9
		c0,0.1-0.2,0.1-0.3,0.1c-0.2,0.2,0,0.6-0.5,0.6c0,0.1,0,0.2,0.1,0.4c0.3-0.2,0.5-0.3,0.8-0.5c0,0.2,0,0.3-0.1,0.5
		c0.1,0,0.2,0,0.3,0c0-0.2-0.1-0.4-0.1-0.6c0-0.2,0-0.4,0.1-0.5c0,0,0.1,0,0.1,0c0,0,0,0,0,0.1c0,0.8,0,1.5,0,2.3
		c-0.1-0.1-0.3-0.1-0.4-0.2c-0.1,0.1-0.1,0.2-0.2,0.3c0.3,0,0.4,0.1,0.6,0.1c0,0.1,0,0.2,0,0.4c-0.2,0-0.3,0-0.4,0
		c-0.1,0.4,0.2,0.4,0.4,0.6c0,0.4-0.4,0.5-0.6,0.8c0.2,0.1,0.4,0.1,0.6,0.2c0.1,1.2,0.1,1.9-0.1,2.1c0.1,0.2,0.1,0.3,0.1,0.4
		c0,0.4,0,0.8,0,1.3c0,0.2-0.1,0.5-0.3,0.7c-0.1,0.1-0.3,0.2-0.4,0.2c-0.7,0-1.3,0-2.1,0c0.2-0.2,0.3-0.3,0.5-0.4
		c-0.2,0-0.4,0-0.6-0.1c-0.1-0.2-0.2-0.3-0.4-0.5c-0.1-2.6,0-5.2,0-7.8c0.1,0,0.2-0.1,0.4-0.1c-0.1-0.2-0.2-0.3-0.4-0.5
		c0.2-0.1,0.4-0.1,0.6-0.2c-0.2-0.2-0.4-0.2-0.6-0.3c0-0.6,0-1.2,0-1.8c0.1-0.1,0.3-0.2,0.5-0.3c0,0,0-0.1,0-0.1c-0.1,0-0.1,0-0.2,0
		c-0.1,0-0.1,0-0.2,0c0-0.4,0-0.8,0-1.2c0.4-0.2,1.1-0.1,1.6,0.1c0.2-0.1,0.3-0.2,0-0.4c-0.2,0-0.4,0-0.7,0c0.1-0.2,0.2-0.3,0.3-0.5
		c-0.1,0-0.3,0-0.4,0c-0.1-0.1-0.1-0.3-0.2-0.4c0.1-0.2,0.3-0.4,0.5-0.6c-0.2,0-0.4,0-0.5,0.1c-0.1,0-0.3,0.1-0.5,0.1
		c0-0.1-0.1-0.2-0.1-0.4c0.2-0.1,0.3-0.2,0.4-0.2c0-0.2,0.1-0.5,0.1-0.7c-0.2,0-0.3-0.1-0.5-0.1c0-0.9,0-1.8,0-2.6
		c0-0.1,0-0.3,0-0.4c0-0.5-0.1-1,0.1-1.4c0-0.4-0.1-0.7-0.1-1c0.2-0.1,0.4,0.1,0.5-0.2c-0.1-0.2-0.6-0.3-0.5-0.9
		c0.1,0,0.2-0.1,0.3-0.2c0.1-0.4-0.1-0.5-0.3-0.5c0-1.4,0-2.7,0-4.1c0.3-0.1,0.7,0.4,1.1,0c-0.3-0.1-0.6-0.2-1-0.3
		c-0.3-0.8,0-1.6-0.1-2.4c0.2-0.3,0.3-0.5,0.4-0.8c0.9-0.3,1.8-0.2,2.7,0c0.2,0.4-0.1,0.6-0.1,0.9c0.1,0.1,0.2,0.2,0.3,0.3
		c0,0.5,0,1,0,1.6c-0.2,0.1-0.4,0.1-0.6,0.2c0.2,0.2,0.3,0.3,0.5,0.4c0,0.3,0,0.7-0.4,1c0,0.2,0.1,0.4,0.3,0.4c0,0.5,0,1.1,0,1.6
		c-0.2,0-0.3,0-0.4-0.3c-0.1,0.1-0.3,0.3-0.4,0.4c0.2,0.6,0.6,0.1,0.9,0.3c0,0.9,0,1.9-0.1,2.8c-0.1,0.6-0.1,1.3-0.1,2.1
		c0,0-0.1,0.1-0.2,0.2c0.1,0.3,0.3,0.6,0.4,0.9c0.6-0.3,1-0.8,1.6-1.2c0.5-0.3,0.9-0.8,1.4-1c0.4-0.2,0.8-0.3,1-0.6
		c0.6,0,1.1,0.1,1.6,0.1c0.1,0,0.2-0.1,0.3-0.1c0-0.2-0.1-0.4-0.1-0.6c0.1,0,0.1-0.1,0.1-0.1c0.3,0,0.6,0.1,0.9,0.1
		c0-0.1,0-0.1,0-0.3c0.2,0,0.4,0,0.6,0c0.2,0.2,0.3,0.5,0.6,0.6c0-0.1,0.1-0.1,0.1-0.2c-0.1-0.1-0.3-0.2-0.4-0.2
		c0.1-0.4,2.6,0.3,3.4,0.9c-0.1,0.2-0.1,0.4,0.1,0.5c0-0.1,0.1-0.3,0.1-0.5c0.2,0.3,0.4,0.5,0.5,0.6c0.3,0.3,0.5,0.4,0.6,0.6
		c0.1,0.3,0.3,0.3,0.4,0.5c0.1,0.3,0.2,0.5,0.3,0.7c-0.1,0.2-0.2,0.3-0.4,0.5c0.2,0,0.4,0,0.6,0c0,0.4,0.3,0.8,0.1,1.2
		c-0.2,0-0.3,0.1-0.5,0.1c0-0.1,0.1-0.3,0.1-0.4c-0.3,0-0.6-0.1-0.9-0.1c0,0,0,0,0,0.1c0.2,0.1,0.5,0.2,0.7,0.3
		c-0.1,0.3-0.3,0.6-0.4,0.9c0.1,0.1,0.2,0.2,0.3,0.3c0.1-0.1,0.2-0.3,0.3-0.4c0.1,0,0.2,0,0.4,0c0,0.1,0.1,0.2,0.1,0.2
		c-0.1,0.3-0.2,0.6-0.2,0.9c0.5,0.1,0.6,0.4,0.6,0.8c0,0.5-0.1,1-0.1,1.5C244.5,37.5,244.5,37.7,244.5,37.8z"/>
	<path class="st0" d="M276.3,130.6c-0.2-0.1-0.4-0.2-0.6-0.2c-0.4,0.2-0.9,0.5-1.5,0.4c0.2-0.1,0.3-0.1,0.4-0.2c0,0,0-0.1,0-0.2
		c-0.2,0-0.4,0.1-0.6,0.1c0,0.1-0.1,0.2-0.1,0.3c-0.2-0.1-0.3-0.3-0.4-0.4c-0.1-0.7,0-1.2,0.3-1.8c-0.1,0.1-0.2,0.2-0.3,0.3
		c0-0.5-0.1-0.9,0-1.3c0.1-0.4-0.1-0.8,0-1.2c0.1,0,0.2-0.1,0.2-0.1c-0.5-0.7-0.2-1.4-0.3-2.2c0.3,0.2,0.5,0.3,0.8,0.5
		c0.1-0.1,0.2-0.2,0.3-0.3c-0.4-0.1-0.8-0.2-1.1-0.6c0-0.4,0-0.9,0.1-1.3c0.1,0,0.1,0,0.1,0c0-0.2,0-0.4,0-0.7
		c-0.3-0.4-0.3-0.4,0-0.8c-0.3-0.6-0.2-1.2-0.2-1.8c0.3,0.2,0.6,0.3,0.8,0.4c0,0,0-0.1,0.1-0.1c-0.1-0.1-0.1-0.1-0.2-0.3
		c0-0.1,0-0.3,0-0.4c-0.2,0.1-0.4,0.2-0.6,0.2c0-0.7,0-1.4,0-2.1c0.3-0.2,0.7,0,0.9-0.4c-0.3,0-0.5,0.1-0.8,0.1
		c-0.2-0.4-0.1-0.8-0.1-1.2c0-0.4,0-0.8,0-1.3c0-0.4,0.1-0.8,0.3-1.3c0.1-0.1,0.3-0.2,0.7-0.3c-0.1-0.1-0.2-0.2-0.3-0.2
		c-0.2,0.1-0.4,0.1-0.7,0.2c-0.1-1.5,0.1-2.9,0-4.4c0.2,0.2,0.2,0.2,0.3,0.3c0.1,0,0.3-0.1,0.4-0.1c0,0,0-0.1-0.1-0.2
		c-0.2-0.1-0.4-0.3-0.6-0.4c-0.2-1,0-1.9,0-2.8c-0.1-0.9,0-1.8,0-2.7c0.2-0.1,0.3-0.2,0.5-0.3c-0.2-0.1-0.4-0.1-0.5-0.1
		c0-0.1,0-0.2,0-0.3c0.1-0.3,0.1-0.6,0-0.8c-0.1-0.3,0-0.6,0.2-0.9c0.6-0.3,0.8-0.3,1.2,0.1c0-0.1,0.1-0.2,0.1-0.3c0.3,0,0.6,0,1,0
		c0.1,0.2,0.1,0.4,0.2,0.6c0.1,0.2,0.3,0.3,0.4,0.5c0,0,0.1,0,0.1-0.1c0,0.8-0.1,1.6-0.1,2.5c0,0.2,0.1,0.5,0.1,0.7
		c0,0.8,0,1.7,0,2.5c0,0.2-0.1,0.4-0.1,0.7c0.3,0.9,0,1.9,0.1,3c-0.3-0.2-0.5-0.3-0.7-0.4c0,0.5,0,0.5,0.5,0.6
		c0.2,0.4,0.1,0.9-0.1,1.3c-0.2,0.1-0.3,0.2-0.6,0.4c0.3,0,0.4,0,0.6,0.1c0,0.3,0,0.6,0,0.9c0.8-0.4,1.3-1,2-1.4
		c0.2,0.3,0.4,0.5,0.6,0.8c0.2-0.1,0.3-0.2,0.4-0.3c-0.1-0.1-0.3-0.2-0.4-0.4c0-0.2,0-0.5,0-0.7c0.4-0.3,0.9-0.5,1.3-0.8
		c0,0,0,0.1,0.1,0.1c-0.1,0.1-0.2,0.2-0.4,0.4c0,0.2,0,0.4,0,0.6c0.1-0.1,0.2-0.1,0.3-0.1c0-0.2,0.1-0.4,0.1-0.6
		c0.2,0,0.3,0,0.6-0.1c-0.2-0.1-0.4-0.2-0.6-0.4c0.4-0.2,0.8-0.3,1.2-0.5c0.1,0.1,0.2,0.1,0.4,0.2c0.1-0.1,0.3-0.1,0.3-0.2
		c0.3-0.4,0.7-0.3,1.1-0.1c0.2,0.1,0.4,0.2,0.6,0.2c0-0.1,0-0.2,0-0.3c1-0.2,1.9,0,2.5,0.5c0.1,0,0.2,0,0.3,0
		c0.1,0.2,0.1,0.4,0.2,0.6c0.1-0.1,0.2-0.2,0.3-0.3c0.3,0.3,0.6,0.5,0.8,0.7c0.2,0.5,0.4,0.9,0.6,1.3c-0.2,0.2-0.3,0.4-0.5,0.7
		c0,0,0.1,0.1,0.1,0.3c0.2-0.3,0.4-0.5,0.6-0.8c0-0.1,0-0.3,0-0.7c0.2,0.5,0.6,0.8,0.5,1.2c0.1,0.2,0.2,0.3,0.4,0.5
		c-0.1,0.1-0.2,0.2-0.3,0.3c0.2,0.2,0.3,0.3,0.5,0.5c-0.1,0.4,0.1,0.8,0.1,1.2c-0.1,0.1-0.2,0.2-0.3,0.3c0.5,0.4,0,1,0.2,1.5
		c-0.2,0.2-0.4,0.3-0.6,0.5c-0.3-0.1-0.1-0.3-0.1-0.5c-0.2,0-0.4-0.1-0.6-0.1c0,0.1-0.1,0.1-0.1,0.2c0.1,0,0.1,0,0.3,0.1
		c0,0.1,0,0.3-0.1,0.4c-0.2,0-0.4-0.1-0.7-0.1c0,0-0.1,0.1-0.3,0.2c0.3,0.1,0.5,0.2,0.8,0.3c0.1-0.1,0.2-0.2,0.3-0.3
		c0.4,0,0.7,0,1.2,0.1c0,0.3,0,0.6,0,1c-0.2-0.2-0.3-0.3-0.5-0.5c-0.4,0.2-0.5,0.5-0.6,1c0.3,0,0.6,0.1,0.9-0.2
		c0.1,0.4,0.5,0.6,0.3,1c-0.2,0-0.4,0.1-0.3,0.4c0.1,0.1,0.2,0.1,0.3,0.2c0,0.9,0,1.7,0,2.7c-0.1,0.1-0.1,0.2-0.2,0.2
		c0,0,0.1,0,0.2,0.1c0,0.8,0,1.6,0,2.3c-0.2,0.1-0.4,0.2-0.6,0.3c-0.1-0.1-0.3-0.2-0.5-0.3c-0.3,0.3-0.6,0.6-0.9,0.8
		c0.2,0.1,0.3,0.2,0.4,0.3c0.1-0.1,0.1-0.2,0.1-0.3c0.4-0.1,0.6-0.2,0.9-0.3c0.1,0.1,0.3,0.2,0.5,0.4c0.1,0.5-0.4,0.8-0.7,1.3
		c-0.2-0.4,0.1-0.7,0.2-1.1c-0.1,0-0.2,0-0.3,0c-0.1,0.3-0.2,0.5-0.3,0.8c0,0.1,0,0.1,0.1,0.1c0.1,0,0.1,0,0.2,0
		c0,0.1-0.1,0.2-0.1,0.3c0.2,0,0.4,0,0.6,0c0.1,0.2,0.1,0.4,0.2,0.6c0.1-0.1,0.2-0.1,0.3-0.2c0,0.2-0.1,0.4-0.1,0.6
		c-0.3,0-0.7,0.1-1.1,0.1c0.1,0.1,0.1,0.2,0.2,0.2c0.2,0,0.3,0,0.5,0c0.1,0.1,0.3,0.2,0.5,0.4c0,0.2-0.1,0.5-0.2,0.8
		c-0.3,0.3-0.5,0.3-0.8,0.3c-0.5,0-1,0-1.4,0.1c-0.2-0.1-0.3-0.3-0.5-0.4c-0.1,0-0.2,0-0.4,0c0-0.5,0.1-1.1,0.1-1.6
		c0-0.1,0-0.2,0-0.4c0-0.3,0.1-0.6,0.1-0.9c0-0.3-0.1-0.5-0.1-0.8c0-0.2,0.1-0.3,0.2-0.5c-0.4-0.4-0.2-0.8-0.2-1.3
		c0.1,0,0.3,0,0.5-0.1c-0.2-0.1-0.3-0.2-0.5-0.3c0-0.2,0-0.4,0-0.6c0.1-0.1,0.2-0.2,0.3-0.3c-0.1-0.1-0.1-0.3-0.2-0.4
		c0-0.1,0.1-0.1,0.1-0.3c0.1,0.1,0.2,0.3,0.2,0.4c0.4-0.1,0.4-0.1,0.6-0.3c-0.2-0.2-0.4-0.4-0.5-0.6c0.1-0.4,0.2-0.7,0.3-1.1
		c-0.4,0.1-0.3,0.6-0.6,0.6c0-0.1-0.1-0.1-0.1-0.2c0-0.2,0-0.4,0-0.6c0.2-0.2,0.4-0.4,0.6-0.6c-0.2-0.1-0.4-0.2-0.6-0.3
		c0-0.2,0-0.4,0-0.6c0.2-0.1,0.4-0.2,0.6-0.2c-0.1-0.3-0.3-0.5-0.6-0.7c-0.1-0.5,0.1-0.9,0-1.4c-0.1-0.5-0.1-0.9-0.1-1.5
		c0.2,0.3,0.4,0.4,0.5,0.6c0.3-0.2,0.6-0.3,1-0.6c-0.1-0.2-0.2-0.3-0.3-0.5c-0.2,0.1-0.4,0.3-0.6,0.4c-0.3-0.2-0.6-0.3-0.7-0.7
		c0.2,0,0.4-0.1,0.3-0.4c-0.2-0.1-0.3-0.1-0.5-0.2c0.2-0.1,0.3-0.1,0.4-0.2c-0.4-0.2-0.4-0.2-0.9-1.1c0.1-0.2,0.4-0.2,0.3-0.5
		c-0.3-0.3-0.3,0.2-0.6,0.2c-0.1-0.2-0.2-0.5-0.3-0.8c-0.2,0-0.3,0-0.5,0c-0.1-0.4-0.1-0.4-0.3-0.7c-0.2,0.2-0.5,0.3-0.8,0.1
		c-0.1-0.3-0.3-0.6-0.7-0.6c0,0.2-0.1,0.3-0.1,0.5c-0.1,0-0.1,0.1-0.2,0.1c-0.7,0-1.4,0-2.1,0.2c-0.2,0.1-0.6-0.1-0.7,0.1
		c-0.3,0.3-0.7,0.5-1,0.8c0,0-0.1,0-0.1,0.1c-0.1,0-0.2-0.1-0.5-0.1c0.1,0.2,0.1,0.2,0.2,0.3c-0.5,0.4-0.9,0.9-1.4,1.4
		c-0.1-0.3-0.3-0.4-0.4-0.7c-0.2,0.1-0.5,0.1-0.7,0.2c0.2,0.5,0.8,0.2,1,0.6c-0.2,0.2-0.3,0.4-0.5,0.5c-0.3,0.5-0.2,1.1-0.2,1.8
		c-0.1-0.1-0.2-0.1-0.3-0.1c-0.2,0.4,0.3,0.6,0.3,1.1c-0.2-0.2-0.4-0.3-0.5-0.5c-0.2,0-0.3,0.1-0.5,0.1c-0.1-0.1-0.1-0.2-0.2-0.4
		c-0.2-0.1-0.4-0.2-0.6,0.1c0.3,0.2,0.6,0.4,1,0.7c0.1,0.3,0.2,0.6,0.4,1c0.2-0.2,0.3-0.4,0.5-0.7c0,0.6,0.1,1.1-0.2,1.6
		c0.1,0.1,0.1,0.2,0.2,0.3c-0.2,0.2-0.6-0.1-0.8,0.3c0.2,0.1,0.4,0.1,0.7,0.2c0.1,0.1,0.1,0.3-0.1,0.5c-0.1-0.1-0.2-0.2-0.3-0.3
		c-0.1,0.1-0.3,0.2-0.4,0.3c0.1,0.3,0.5,0.2,0.7,0.4c0.1,0.4,0.1,0.4-0.1,0.6c0.1,0.4,0.1,0.8,0.2,1.2c-0.2,0.1-0.4,0.1-0.6,0.2
		c0,0.2,0,0.4,0,0.7c0.2-0.1,0.3-0.2,0.5-0.2c0.3,0.4,0.1,0.8,0.1,1.3c0,0.4,0,0.8,0,1.2c-0.2,0.2-0.3,0.4-0.5,0.5
		c0.2,0.1,0.3,0.1,0.5,0.2c0,0.2,0,0.3,0,0.5c0,0.7,0,1.4,0,2.1C276.6,129.8,276.5,130.2,276.3,130.6z M274.3,102.2
		c0.1,0.2,0.1,0.3,0.2,0.4c-0.1,0.2-0.2,0.3-0.5,0.3c0.2-0.4-0.3-0.5-0.4-0.9c-0.3,0.5,0.1,0.9,0.2,1.2c0,0-0.1,0.1-0.2,0.1
		c0.1,0.3,0.3,0.6,0.4,0.8c0.6,0,0.6,0,0.7-0.6c-0.2,0.1-0.4,0-0.7-0.3c0.6-0.3,0.8-0.9,1-1.4c-0.1-0.1-0.2-0.1-0.4-0.2
		C274.6,101.9,274.5,102.1,274.3,102.2z"/>
	<path class="st0" d="M300.2,127.7c-0.2-0.2-0.3-0.3-0.5-0.5c-0.1,0.1-0.3,0.1-0.4,0.2c-0.2-0.1-0.3-0.2-0.4-0.2
		c-0.2,0.1-0.3,0.1-0.5,0.2c-0.3-0.6-0.6-1.2-0.9-1.7c0.1-0.1,0.1-0.2,0.2-0.3c-0.1,0-0.2-0.1-0.3-0.1c-0.5-1.2-0.7-2.4-0.7-3.7
		c0.1,0.1,0.3,0.2,0.5,0.2c0.1-0.1,0.2-0.2,0.4-0.3c0,0,0-0.1,0-0.3c-0.2,0-0.3,0-0.5,0c-0.4-0.2-0.6-0.6-0.6-1.1
		c0-0.4,0.1-0.8,0.1-1.2c0-0.1,0-0.2,0-0.2c-0.1-0.6,0.1-1.2,0.2-1.8c0.2-0.9,0.5-1.9,0.9-2.7c0.2-0.4,0.4-0.7,0.6-1.1
		c0.2-0.3,0.5-0.6,0.7-0.8c0.3,0,0.5-0.1,0.7-0.1c-0.1-0.2-0.2-0.3-0.3-0.5c0.1-0.1,0.3-0.3,0.4-0.5c0.3,0.1,0.6,0.3,0.9,0.4
		c0-0.5-0.3-0.6-0.7-0.6c0.7-0.6,1.4-0.9,2.1-1.3c0.1,0.1,0.1,0.1,0.1,0.1c0,0,0,0.1,0,0.1c-0.1,0-0.1,0-0.3,0.1
		c0.1,0.1,0.2,0.3,0.4,0.4c0.2-0.3,0.4-0.5,0.6-0.8c0.1,0.3,0.2,0.4,0.1,0.6c-0.1,0.4,0,0.6,0.3,0.8c0,0.1,0,0.2,0,0.4
		c0.2-0.1,0.4-0.1,0.6-0.2c0.1-0.2,0.1-0.3,0.2-0.5c0.1,0,0.1,0,0.2,0c-0.1-0.2-0.2-0.3-0.2-0.5c-0.2,0-0.4-0.1-0.6-0.2
		c0-0.2,0-0.5,0-0.7c0.4-0.2,0.7-0.3,1.1-0.3c0.4,0,0.7-0.2,1.1-0.1c0.4,0,0.7,0.1,1.1,0.1c0.2,0,0.4-0.1,0.6-0.1
		c1.6,0.3,3.2,0.7,4.5,1.8c0.5,0.4,1,0.8,1.5,1.2c0,0.2,0,0.3,0,0.3c0.2,0.2,0.5,0.3,0.7,0.5c0,0.2,0,0.4,0.1,0.6
		c0,0,0.1-0.1,0.2-0.1c0.5,0.5,0.6,1.3,1.1,1.9c0,0.2-0.1,0.3-0.1,0.5c0,0.1,0.1,0.1,0.1,0.1c0.2,0,0.3,0.2,0.3,0.3
		c0.1,0.5,0.2,1.1,0.3,1.6c0,0.2-0.1,0.4-0.1,0.6c0.1,0.1,0.1,0.2,0.2,0.3c-0.1,0.2-0.2,0.4-0.3,0.5c-0.1,0-0.3-0.1-0.4-0.1
		c0.1,0.2,0.2,0.3,0.2,0.5c-0.2,0.1-0.3,0.1-0.6,0.2c0.2,0.1,0.3,0.2,0.5,0.2c0.2-0.1,0.4-0.2,0.7-0.2c0.1,0.4,0.1,0.8,0,1.1
		c0,0.1-0.1,0.3-0.1,0.4c0.1,0.6-0.1,1.2-0.6,1.7c0.3,0.2,0.6,0.5,0.2,0.8c0.1,0.4-0.1,0.7-0.2,1c-0.1,0.4-0.3,0.8-0.4,1.1
		c-0.1,0-0.3-0.1-0.6-0.1c0.2,0.2,0.3,0.3,0.4,0.5c-0.1,0.2-0.2,0.3-0.3,0.5c-0.2-0.2-0.4-0.3-0.6-0.4c-0.1,0.2-0.1,0.4-0.2,0.5
		c0.2,0,0.4,0.1,0.6,0.1c0,0.1,0,0.1,0,0.2c-0.2,0.3-0.4,0.5-0.6,0.8c-0.1,0-0.2,0-0.3,0.1c0,0.4-0.1,0.7-0.5,0.9
		c-0.1,0-0.3,0-0.5-0.1c0.2-0.2,0.4-0.4,0.6-0.5c-0.1-0.1-0.2-0.1-0.3-0.2c-0.2,0.3-0.4,0.6-0.5,0.8c0.1,0.1,0.3,0.1,0.4,0.2
		c0,0.1,0,0.1,0,0.2c-0.3,0.2-0.6,0.2-0.7,0.5c-0.2,0.3-0.4,0.4-0.7,0.6c-0.3,0.2-0.6,0.3-0.8,0.4c-0.1,0.1-0.2,0.1-0.4,0.2
		c0-0.2-0.1-0.4-0.1-0.7c-0.2,0.1-0.4,0-0.7,0.2c0,0.1,0,0.2,0,0.5c0.2-0.1,0.3-0.1,0.4-0.2c0,0.1,0.1,0.1,0.1,0.2c0,0,0,0.1,0,0.1
		c-0.4,0.2-0.8,0.4-1.2,0.4c-0.3,0-0.7-0.1-1,0c-0.1,0.1-0.2,0.2-0.2,0.3c-0.2,0-0.5,0-0.7,0c-0.1-0.1-0.1-0.2-0.3-0.4
		c-0.1,0.1-0.2,0.2-0.3,0.3c-1.9,0.2-3.6-0.5-5.2-1.5c0-0.1,0.1-0.2,0.1-0.4c0.1,0.1,0.1,0.2,0.1,0.3c0-0.1,0.1-0.2,0.1-0.3
		c0.2,0,0.4,0,0.7,0c0-0.1,0-0.2,0-0.3c-0.3-0.1-0.6-0.2-0.9-0.3c-0.1-0.1-0.2-0.3-0.2-0.4c0.1-0.2,0.2-0.3,0.2-0.5
		c-0.2-0.2-0.1-0.6-0.5-0.6C300.5,127.5,300.3,127.6,300.2,127.7z M300.7,125.2c0.5,0.6,0.8,1.3,1.4,1.8c0.6,0.5,1.2,0.9,1.9,1.3
		c0,0.1,0.1,0.3,0.1,0.4c0-0.1,0.1-0.2,0.1-0.3c0.1,0.1,0.3,0.1,0.4,0.2c0,0.1-0.1,0.2-0.1,0.3c0.1,0.1,0.2,0.2,0.3,0.3
		c0,0.1,0,0.2-0.1,0.3c0.1,0.1,0.1,0.1,0.2,0.2c0.1,0.1,0.1,0.2,0.2,0.4c-0.6-0.2-1-0.3-1.4-0.4c0,0-0.1,0.1-0.2,0.2
		c0.2,0.2,0.4,0.3,0.5,0.5c0.2,0.2,0.1,0.5,0.4,0.7c0.1-0.3,0.1-0.5,0.2-0.7c0.2,0,0.4,0,0.5,0.1c0.2-0.1,0.3-0.2,0.5-0.3
		c-0.2-0.5-0.4-1-1-1.4c0.6,0.1,1.1,0.1,1.5,0.2c0.1,0.2,0.3,0.3,0.4,0.5c0,0,0,0.2-0.1,0.3c0.3,0,0.5-0.3,0.7,0.1
		c0,0.1-0.1,0.1-0.1,0.1c0.1,0.2,0.3,0.3,0.4,0.5c0.1,0,0.2,0,0.4,0c-0.2-0.2-0.3-0.4-0.4-0.6c0.2-0.2,0.3-0.3,0.4-0.5
		c0,0,0-0.1,0-0.2c-0.1,0.1-0.2,0.2-0.4,0.3c-0.2-0.1-0.3-0.2-0.5-0.3c0.2-0.1,0.4-0.1,0.5-0.2c0-0.1,0-0.2,0-0.3
		c0.3-0.1,0.5-0.2,0.7-0.2c0.1,0.1,0.2,0.2,0.3,0.4c0,0,0.1,0,0.1,0c0-0.2,0-0.3,0-0.5c0.4-0.3,0.9-0.5,1.3-0.9
		c0.4-0.3,0.7-0.7,1.1-1.1c0,0,0-0.1,0-0.2c0-0.1,0.1-0.2,0.1-0.3c0.1,0,0.1,0.1,0.2,0.1c0-0.2,0-0.3,0.1-0.5
		c0.1-0.1,0.2-0.3,0.3-0.4c0-0.5,0.4-1.5,0.7-1.8c0-0.3,0-0.6,0-0.9c0.1,0.2,0.2,0.3,0.3,0.5c0,0,0.1-0.1,0.1-0.1c0-0.1,0-0.2,0-0.3
		c0.1,0,0.2-0.1,0.3-0.1c0.2,0.2,0.4,0.4,0.6,0.6c0.1-0.3-0.2-0.6,0.2-0.8c0.1,0,0.2,0.1,0.3,0.2c0,0.1,0,0.3-0.1,0.4
		c0,0,0.1,0,0.1,0c0.1-0.1,0.2-0.3,0.3-0.5c-0.2-0.1-0.3-0.2-0.4-0.3c-0.3,0-0.6,0-0.8,0c-0.1-0.1-0.1-0.1-0.2-0.2
		c-0.3-0.3-0.5-0.7-0.3-1.2c0.1-0.3,0-0.7,0.3-1c0,0,0,0,0-0.1c-0.1-0.1-0.2-0.2-0.3-0.3c-0.1-0.6-0.1-1.2-0.3-1.7
		c-0.1-0.6-0.3-1.1-0.5-1.7c0.1-0.1,0.2-0.3,0.3-0.4c-0.1-0.3-0.1-0.5-0.2-0.8c-0.2,0.1-0.4,0.1-0.7,0.2c0-0.3,0-0.5,0.1-0.7
		c0.1-0.1,0.2-0.1,0.4-0.2c-0.1-0.2-0.1-0.3-0.2-0.4c-0.2,0.2-0.3,0.4-0.4,0.5c-0.4,0-0.4-0.4-0.6-0.6c-0.2-0.2-0.4-0.4-0.6-0.6
		c0.1-0.2,0.2-0.3,0.2-0.4c0,0,0,0-0.1,0c-0.1,0.1-0.3,0.2-0.4,0.3c-1.4-0.9-1.9-1.1-3.9-1.4c0-0.1,0-0.2,0-0.4
		c-0.5,0.8-1.1,0.6-1.7,0.5c-0.3,0.6-0.8,0.7-1.4,0.8c-0.3,0.6-0.8,0.9-1.3,1.3c-0.1,0.1-0.3,0.1-0.4,0.2c-0.3,0.3-0.3,0.7-0.4,1.1
		c-0.2,0-0.3-0.1-0.5-0.1c0,0.1,0,0.3,0,0.4c-0.1,0-0.1,0.1-0.2,0.1c-0.1,0-0.1,0-0.2,0c0.1,0.4,0.2,0.7,0.3,1
		c-0.1,0.4-0.2,0.7-0.3,1.1c-0.1-0.1-0.2-0.1-0.2-0.1c-0.3,0-0.5,0.1-0.8,0.1c0.3,0.2,0.5,0.3,0.6,0.4c0.1-0.1,0.1-0.2,0.2-0.3
		c0,0.6-0.1,1.1-0.1,1.7c0,0.6,0,1.1,0,1.7c-0.3,0-0.6,0-0.9,0c0,0,0,0.1,0,0.1c0.2,0.1,0.3,0.2,0.5,0.3c0.2-0.1,0.3-0.1,0.4-0.2
		c0,0.3,0,0.5,0,0.8c-0.1-0.2-0.2-0.3-0.3-0.5c-0.1,0.2-0.1,0.4-0.2,0.5c0.2,0.2,0.4,0.3,0.6,0.5c0.1,0.5,0.4,1,0.1,1.6
		c0.6,0.1,0.5,0.5,0.7,1c-0.1,0-0.2,0-0.3,0.1c0,0,0.1,0.1,0.1,0.1C300.5,125.2,300.6,125.2,300.7,125.2z"/>
	<path class="st0" d="M322,115.4c0-0.1-0.1-0.2-0.2-0.3c0-0.2,0.2-0.4,0.6-0.4c-0.1-0.1-0.2-0.3-0.3-0.4c0.2-0.3,0.3-0.6,0.6-1
		c0.1,0.1,0.1,0.2,0.2,0.4c0.2-0.1,0.5-0.3,0.8-0.4c-0.1-0.3-0.2-0.7-0.2-1.1c0.3-0.2,0.6-0.5,1-0.7c0-0.1,0-0.2,0-0.3
		c1-0.6,1.9-1.5,3.1-1.8c0.4,0.4,0.8,0.8,1.2,1.2c0.1-0.2,0.2-0.3,0.3-0.5c-0.2-0.1-0.4-0.1-0.6-0.2c0-0.2-0.1-0.3-0.1-0.5
		c-0.2,0-0.4,0-0.6,0.1c0.5-0.4,1-0.5,2.3-0.5c0,0.1,0.1,0.2,0.2,0.3c0.1-0.1,0.2-0.1,0.3-0.2c0.1,0,0.2,0.1,0.4,0.1
		c0.1-0.1,0.2-0.2,0.3-0.3c0.2,0,0.5,0.1,0.8,0.2c-0.1,0.4,0.1,0.6,0.4,0.7c0.2-0.1,0.1-0.3,0.1-0.5c0.1,0.1,0.1,0.2,0.2,0.3
		c0.1,0,0.1-0.1,0.2-0.2c0.4,0.2,0.8,0.4,1.3,0.6c0.1,0.2,0.2,0.5,0.3,0.8c0.1-0.1,0.2-0.2,0.4-0.3c0.2,0.1,0.3,0.2,0.5,0.3
		c0,0.1-0.1,0.3-0.2,0.5c0.2,0,0.4-0.1,0.7-0.1c0.2,0.2,0.4,0.3,0.7,0.5c0.1-0.2,0.1-0.3,0.2-0.5c0.1,0,0.3-0.1,0.6-0.2
		c-0.1-0.1-0.1-0.2-0.2-0.3c-0.1,0.1-0.2,0.2-0.2,0.3c-0.3-0.1-0.4-0.3-0.3-0.6c0-0.5,0.1-1.1,0-1.6c0-0.6,0-1.1,0-1.7
		c0-0.5,0-1.1,0-1.6c0-0.2,0-0.4,0.2-0.5c-0.1-0.2-0.2-0.3-0.2-0.5c0-0.8,0-1.5,0-2.4c0.2,0.2,0.2,0.4,0.3,0.5
		c0.2,0,0.4-0.1,0.7-0.1c-0.2-0.4-0.6-0.4-0.6-0.8c-0.1,0.1-0.2,0.2-0.3,0.4c0-0.7,0-1.4,0-2.1c0.1,0,0.2,0,0.4,0c0-0.1,0-0.3,0-0.4
		c0.5-0.3,0.9,0.1,1.4-0.1c0,0.1,0,0.2,0,0.3c0.1,0,0.2,0,0.3,0c0-0.1,0-0.1,0-0.3c0.2,0,0.3-0.1,0.5,0c0.2,0,0.3,0.1,0.5,0.3
		c0.1,0.1,0.2,0.3,0.3,0.4c0,0.3,0,0.6,0,0.9c-0.2,0.1-0.5,0.1-0.7,0.2c0,0,0,0.1,0,0.1c0.1,0,0.2,0,0.4,0.1c0,0.4,0.5,0.7,0.3,1.1
		c-0.1,0-0.3,0-0.4,0c0,0.1,0,0.1,0,0.2c0.1,0,0.3,0,0.4,0c0.2,0.3,0,0.5,0,0.8c0,0.2,0.1,0.5,0.1,0.7c-0.4,0.3-0.9,0.3-1,0.8
		c0.2,0.2,0.4-0.1,0.5-0.1c0.1,0.1,0.3,0.2,0.5,0.3c-0.1,0.2-0.2,0.4-0.3,0.7c0.1,0.1,0.1,0.3,0.2,0.4c0,0.6,0,1.2,0,1.9
		c-0.1-0.1-0.1-0.1-0.2-0.2c-0.2,0.2-0.2,0.4,0,0.6c0.1,0,0.1-0.1,0.2-0.1c0,1,0,2,0,3c-0.1,0-0.3,0-0.4,0c0.1,0.5,0,0.9-0.4,1.1
		c0,0.1,0,0.1,0,0.1c0.1,0.1,0.3,0.1,0.4,0.2c0.1-0.1,0.2-0.2,0.3-0.3c0.1,0.1,0.1,0.1,0.2,0.1c0,0.1,0.1,0.2,0.1,0.4
		c0,1.2,0,2.4-0.1,3.6c0,0.3,0.1,0.6,0,0.9c0,0.1-0.1,0.3-0.1,0.4c0.1,0.2,0.2,0.4,0.1,0.7c-0.2-0.1-0.3-0.1-0.5-0.2
		c-0.1,0.1-0.1,0.1-0.2,0.2c0.1,0.1,0.1,0.2,0.2,0.4c0.2,0,0.3,0.1,0.5,0.1c0,0.6,0,1.2,0,1.7c0,0.6,0,1.1,0.1,1.7
		c-0.2,0-0.3,0-0.5,0c-0.2,0.2-0.4,0.4-0.2,0.7c0.4,0.1,0.2-0.6,0.6-0.4c0.1,0.5,0.2,1-0.1,1.4c-0.2,0.2-0.4,0.2-0.6,0.4
		c0,0,0,0.1,0,0.2c0.3,0,0.5,0,0.6-0.2c0.2,0.3,0,0.4-0.2,0.6c0.4,0.7,0.3,1.3,0.2,2c0,0.3,0,0.7,0,1.1c0,0-0.1,0.1-0.2,0.1
		c-0.1,0-0.1,0-0.2-0.1c-0.1,0.1-0.2,0.3-0.3,0.4c-0.3,0-0.7-0.1-0.7,0.4c0,0.3,0.3,0.3,0.6,0.4c0.1-0.1,0.2-0.2,0.4-0.4
		c0,0.3,0.1,0.4,0.1,0.6c0.1,0,0.3,0,0.4,0c0.1,0.3,0,0.6-0.2,0.9c-0.3,0.1-0.6,0.1-1,0.2c0-0.2,0-0.2,0.1-0.3
		c-0.1,0-0.2-0.1-0.2-0.1c-0.1-0.1-0.1-0.1-0.2-0.2c-0.1,0.1-0.1,0.1-0.3,0.3c0.2,0.1,0.3,0.1,0.5,0.2c-0.6,0.2-1.1,0.2-1.5-0.4
		c0.1-0.1,0.2-0.3,0.3-0.4c-0.1-0.1-0.2-0.2-0.4-0.2c-0.1-0.3-0.1-0.6-0.2-0.9c-0.2-0.1-0.3-0.3-0.4-0.4c0-0.2-0.1-0.3-0.1-0.5
		c-0.1-0.1-0.2-0.2-0.3-0.3c0.1-0.2,0.2-0.5,0.3-0.8c-0.3,0-0.4,0-0.7-0.1c0.2-0.2,0.3-0.4,0.5-0.5c0.2,0.1,0.3,0.2,0.4,0.3
		c0.1-0.1,0.2-0.2,0.4-0.3c-0.2,0-0.3-0.1-0.3-0.1c0-0.3,0-0.6,0-0.9c0.1,0,0.2,0.1,0.3,0.1c0.1,0,0.2,0,0.3-0.1c0-0.3,0-0.5,0-0.7
		c-0.5-0.2-0.5-0.6-0.5-1.1c0-0.4,0-0.8,0-1.2c0-0.5,0-1.1,0-1.6c0.3-0.2,0.3-0.2,0.4-0.5c-0.2,0-0.3,0-0.5,0c0-0.4,0-0.8,0-1.3
		c0.1,0,0.2,0,0.4,0c-0.2-0.2-0.3-0.4-0.5-0.6c0-0.2,0-0.3,0-0.4c0.2-0.2,0.4-0.3,0.7-0.5c-0.3,0-0.5,0-0.7,0c0-0.1,0-0.3,0-0.5
		c0.1-0.1,0.3-0.2,0.4-0.3c0,0,0-0.1,0-0.1c-0.1-0.1-0.3-0.2-0.4-0.3c0-0.3,0-0.6,0-0.9c0.1,0,0.2,0,0.2-0.1
		c-0.1-0.2-0.2-0.4-0.1-0.6c0.1,0.1,0.2,0.1,0.3,0.2c0,0,0,0-0.1,0.1c0.2,0.2,0.3,0.5,0.5,0.7c0.2-0.5,0.2-1,0.8-1.3
		c-0.4-0.1-0.6-0.2-0.8-0.3c0-0.1-0.1-0.2-0.1-0.2c-0.6-0.1-0.4,0.7-1,0.7c-0.2-0.3-0.5-0.5-0.4-0.9c0-0.1-0.2-0.2-0.3-0.3
		c0,0.1-0.1,0.2-0.1,0.4c-0.1-0.2-0.2-0.3-0.2-0.4c-0.3-0.1-0.6-0.3-0.8-0.4c-0.5-0.2-0.8-0.6-1.4-0.7c-0.8-0.1-1.5-0.4-2.2-0.6
		c0-0.1,0-0.2,0.1-0.3c-0.2-0.2-0.5-0.2-0.7-0.1c-0.1-0.2-0.2-0.3-0.3-0.4c-0.4,0.4,0,0.8-0.1,1.1c-0.4,0.1-0.8,0.2-1.1,0.3
		c-0.2-0.1-0.3-0.2-0.5-0.3c0,0.2,0,0.3,0,0.5c-0.3,0.2-0.6,0.3-0.8,0.5c-0.3,0-0.5-0.1-0.7-0.1c-0.1-0.1-0.2-0.2-0.3-0.3
		c-0.1,0.2-0.1,0.3-0.1,0.3c0.1,0.2,0.2,0.3,0.2,0.4c0.2,0,0.4,0,0.5,0c0,0,0,0,0-0.1c-0.3,0.5-0.6,0.8-0.9,1.2
		c-0.2,0.4-0.5,0.7-0.8,1c-0.1,0.3-0.1,0.6-0.2,0.8c-0.1,0.2-0.4,0.3-0.6,0.5c0.3,0.4,0.3,0.4,0.1,0.6c-0.1,0.1-0.3,0.2-0.4,0.4l0,0
		c0-0.1,0.1-0.3,0.1-0.4c-0.3-0.4-0.6,0-1-0.2c0.1-0.3,0.1-0.5,0.2-0.8c-0.2-0.1-0.4-0.3-0.6-0.4c-0.1,0.3-0.4,0.1-0.6,0.2
		C322.2,115.5,322.1,115.5,322,115.4z"/>
	<path class="st0" d="M251.1,37.7c-0.1-0.1-0.2-0.2-0.3-0.3c0,0-0.1-0.1-0.1-0.1c0-0.1,0-0.3,0-0.4c0.1-0.1,0.2-0.3,0.4-0.5
		c-0.1-0.3-0.3-0.6,0.1-1c0.1,0.2,0.1,0.3,0.1,0.5c0.1,0,0.1,0,0.1,0c0.1-0.3,0.3-0.6,0.4-0.8c0.1,0,0.2-0.1,0.4-0.1
		c-0.3-0.2-0.6-0.3-0.9-0.5c0.2-0.2,0.4-0.3,0.7-0.5c-0.1-0.1-0.2-0.3-0.3-0.5c0.1-0.1,0.1-0.2,0.1-0.3c0.2-0.1,0.4-0.2,0.6-0.3
		c0-0.2-0.1-0.3-0.1-0.5c0-0.3,0.9-1.4,1.4-1.6c-0.1,0.2-0.1,0.3-0.2,0.5c0.3,0,0.5,0,0.8,0c-0.1-0.3-0.4-0.5-0.6-0.7
		c0.1-0.1,0.1-0.2,0.2-0.2c0.8-0.5,1.4-1.1,2.3-1.5c0.2-0.1,0.4-0.1,0.6-0.2c0.1,0.1,0.1,0.2,0.2,0.3c0.1,0,0.2,0,0.3,0
		c-0.1-0.1-0.2-0.2-0.3-0.4c0.3-0.1,0.6-0.2,0.9-0.3c0.4-0.1,0.9-0.2,1.3-0.3c0.5,0,0.9,0,1.4,0c0.5,0,0.9,0,1.4,0.1
		c0.4,0.1,0.9,0.2,1.3,0.4c0.4,0.2,0.8,0.3,1.2,0.5c0.4,0.3,0.7,0.5,1.1,0.7c0.4,0.3,0.7,0.6,1,0.9c-0.1,0.2-0.2,0.3-0.3,0.4
		c0,0.1,0.1,0.1,0.1,0.1c0.3-0.1,0.5,0,0.6,0.2c0,0.1-0.1,0.3-0.1,0.4c0.2,0.2,0.5,0.3,0.6,0.5c0.1,0.2,0.1,0.5,0.2,0.7
		c-0.1,0.1-0.2,0.2-0.4,0.3c0,0.2,0,0.4,0,0.6c0.2,0.2,0.3,0.4,0.5,0.6c0.1,0,0.2-0.1,0.4-0.2c0.3,0.2,0.4,1.2,0,2
		c0.1,0.1,0.2,0.1,0.4,0.2c0,0.7,0,1.4,0,2c-0.2,0.5-0.9,0.1-0.9,0.8c-0.4-0.1-0.7-0.2-1-0.4c0-0.1-0.1-0.1-0.1-0.2
		c-0.2,0-0.3,0.1-0.5,0.2c0.1,0.2,0.3,0.5,0.4,0.7c0.1,0,0.2,0,0.3,0c0-0.1,0.1-0.2,0.1-0.3c0.3,0.1,0.6,0.1,0.8,0.2
		c0.1-0.1,0.2-0.2,0.3-0.3c0.1,0.1,0.3,0.2,0.4,0.2c0,0,0,0.1,0,0.1c-0.7,0.3-1.4,0.2-2.1,0.1c-0.1,0-0.2-0.1-0.2-0.1
		c-0.3,0.1-0.5,0.2-0.7,0.2c-1.9,0-3.8,0-5.7,0c-0.4,0-0.8,0-1.2,0c-0.2,0-0.3,0-0.6-0.1c0.3-0.2,0.4-0.3,0.6-0.4
		c-0.6-0.1-0.7,0-0.7,0.5c-0.8,0-1.6,0-2.4,0c0.1-0.1,0.1-0.1,0.1-0.2c0-0.1,0.1-0.1,0.2-0.2c-0.3,0-0.6-0.1-0.9-0.1
		c0.1-0.1,0.1-0.2,0.2-0.3c-0.1-0.3-0.1-0.5-0.2-0.8c-0.1,0-0.2-0.1-0.4-0.2c-0.1,0-0.2,0.1-0.3,0.2c0.2,0.1,0.3,0.3,0.5,0.4
		c-0.1,0.2-0.2,0.3-0.3,0.5c0.2,0.3,0.3,0.5,0.5,0.8c-0.2,0.1-0.5,0.3-0.7,0.4c-0.1,0.7,0.1,1.3,0.2,1.9c0.1,0.6,0.4,1.1,0.6,1.7
		c0,0,0,0.1,0.1,0.1c0.1,0.4,0.4,0.8,0.6,1.1c0.3,0.3,0.6,0.7,0.9,1c0.5,0.6,1.1,1,1.8,1.3c0.3,0.2,0.6,0.3,0.7,0.7
		c-0.1,0.2-0.4,0.2-0.5,0.4c-0.1,0.2-0.4,0.2-0.6,0.4c0.1,0.1,0.2,0.2,0.3,0.3c-0.1,0.2-0.1,0.4-0.2,0.5c-0.2,0.1-0.3,0.2-0.5,0.2
		c-1-0.3-2-0.7-2.8-1.4c-0.1-0.5,0.4-0.6,0.6-0.8c0-0.4-0.3-0.3-0.4-0.2c-0.2,0-0.3,0.2-0.5,0.3c0,0,0,0.2-0.1,0.4
		c-0.3-0.4-0.8-0.6-1-1.2c0,0-0.2-0.1-0.3-0.2c-0.4-0.5-1-1.7-1.1-2.2c0.1-0.1,0.1-0.1,0.2-0.3c-0.2,0-0.3,0-0.4,0
		c0-0.1-0.1-0.2-0.1-0.4c0.1-0.2,0.3-0.3,0.4-0.5c0.1,0,0.2-0.1,0.4-0.1c0.1-0.2,0.2-0.4,0-0.6c-0.3,0.2-0.4,0.6-0.9,0.5
		c-0.1-0.4-0.4-0.6-0.2-1c0.2,0,0.3,0.1,0.5,0.1c0.2-0.3,0-0.5-0.1-0.8c-0.2,0-0.3,0-0.5,0c-0.2-0.2-0.1-0.5-0.1-0.7
		c0.3,0.1,0.5,0.1,0.8,0.2c0,0,0-0.1,0-0.1c-0.1-0.1-0.2-0.2-0.3-0.3c0.1,0,0.2-0.1,0.3-0.1c0,0,0-0.1,0-0.3
		c-0.2,0.1-0.4,0.2-0.7,0.2c-0.1-0.3-0.1-0.5,0.2-0.7c-0.1-0.1-0.2-0.2-0.3-0.3c0.1-0.2,0.3-0.4,0.5-0.6c0-0.2,0-0.5,0-0.8
		c0.1-0.1,0.1-0.2,0.2-0.4C251.2,37.7,251.2,37.7,251.1,37.7z M256.4,31.9c0-0.4,0-0.8,0-1.3c-0.1,0-0.3,0.1-0.5,0.1
		c0.1,0.2,0.2,0.4,0.4,0.6c-0.2,0.1-0.3,0.1-0.5,0.2c-0.1-0.2-0.2-0.4-0.4-0.6c-0.1,0.1-0.2,0.1-0.3,0.2c-0.1,0-0.1-0.1-0.2-0.1
		c0,0.2,0,0.4,0,0.5c-0.1,0-0.3,0-0.3,0c-0.1,0.2-0.3,0.3-0.4,0.4c-0.1-0.1-0.2-0.1-0.3-0.2c0,0.1-0.1,0.2-0.1,0.3
		c0.2,0.1,0.4,0.2,0.6,0.2c0.1-0.1,0.2-0.2,0.2-0.2c0.5,0,0.9-0.1,1.3-0.1C256,31.9,256.2,31.9,256.4,31.9c-0.2,0.2-0.4,0.4-0.6,0.6
		c-0.1,0.2-0.3,0.3-0.4,0.4c-0.2,0.3-0.4,0.5-0.8,0.6c0,0.2-0.1,0.4-0.1,0.6c-0.3,1-0.6,1.9-0.9,2.9c-0.2,0.1-0.4,0.2-0.6,0.3
		c0.2,0.1,0.4,0.2,0.6,0.2c0.1,0,0.2,0,0.2,0c0.5,0.3,1.1,0.2,1.6,0.2c1,0.1,1.9,0,2.9,0c0.2,0,0.5,0.1,0.8,0.1c0,0,0-0.1,0.1-0.1
		c1.5,0,3,0,4.5,0c0,0,0.1,0,0.1,0c0.1,0.1,0.2,0.3,0.3,0.4c0,0,0.1-0.1,0.1-0.1c0-0.1,0-0.2,0-0.4c0.2,0.1,0.5,0.1,0.8,0.2
		c0,0,0.2,0,0.3-0.1c0.1,0.1,0.2,0.3,0.4,0.4c0.2-0.1,0.5,0.1,0.6-0.3c-0.1-0.1-0.3-0.3-0.5-0.5c0-0.1,0.1-0.2,0.1-0.3
		c0.2-0.1,0.4-0.2,0.7-0.3c-0.1-0.1-0.1-0.2-0.2-0.3c-0.2,0.1-0.3,0.2-0.5,0.4c-0.1-0.9-0.2-1.7-0.3-2.5c-0.2-0.5-0.4-0.9-0.5-1.3
		c0.2-0.1,0.3-0.2,0.5-0.3c0-0.1,0-0.2,0-0.3c-0.2-0.2-0.3,0.2-0.5,0c-0.1-0.2-0.5,0.1-0.5-0.2c0,0-0.1-0.1-0.1-0.1
		c0.2-0.1,0.3-0.1,0.5-0.2c0,0,0-0.1,0-0.1c-0.5-0.1-0.9-0.3-1.4-0.4c-0.1-0.2-0.2-0.4-0.2-0.5c-0.1,0.1-0.2,0.1-0.2,0.2
		c-0.5-0.2-0.9-0.5-1.4-0.7c0-0.1,0-0.2,0-0.3c-0.4,0.3-0.7,0.3-0.9,0.2c0-0.1,0-0.2,0-0.3c-0.5-0.1-0.8,0.3-1.2,0.3
		c-0.5-0.1-0.8,0.2-1.3,0.2c-0.1-0.1-0.3-0.2-0.5-0.3c0,0.2,0,0.4-0.1,0.5C257.4,31.3,256.9,31.6,256.4,31.9z M252.1,38.6
		c-0.1-0.2-0.1-0.3-0.2-0.4c-0.2,0.3-0.4,0-0.6,0c0,0.1-0.1,0.3-0.2,0.5C251.5,38.6,251.8,38.6,252.1,38.6z"/>
	<path class="st0" d="M213.1,28.2c0.1,0,0.1-0.1,0.2-0.1c0.1,0.6,0.1,0.7-0.1,1.1c0,0,0.1,0.1,0.1,0.1c0,0,0.1,0.1,0.1,0.1
		c0,1.5,0.1,3,0,4.5c0,0.8,0.1,1.6,0,2.4c0,0.3,0,0.5,0,0.8c-0.2,0.1-0.3,0.2-0.4,0.3c0,0-0.1-0.1-0.2-0.1c-0.1,0.1-0.1,0.2-0.2,0.4
		c0.1,0.1,0.2,0.1,0.3,0.1c0,0.1,0,0.2,0,0.4c0.2,0,0.3,0,0.5,0c0,0.9,0,1.9,0,2.9c-0.1-0.1-0.2-0.2-0.3-0.3
		c-0.1,0.1-0.3,0.1-0.5,0.2c0.2,0.1,0.4,0.1,0.5,0.2c0.1,0.2,0.2,0.5,0.3,0.8c-0.2,0.3-0.5,0.3-0.8,0.3c0.2,0.1,0.3,0.2,0.5,0.4
		c0.1-0.1,0.2-0.2,0.3-0.3c0,0.6,0.1,1.2-0.1,1.8c0,0.1,0,0.2,0,0.4c0,0.2,0,0.3,0.1,0.5c-0.3,0.1-0.6,0.2-0.8,0.2
		c0,0.1,0.1,0.2,0.1,0.3c0.1,0,0.3,0,0.4,0c0.1-0.1,0.1-0.2,0.2-0.3c0,0.1,0.1,0.1,0.1,0.1c-0.1,0.7,0.2,1.4-0.2,2.1
		c0.1,0.1,0.1,0.3,0.2,0.4c-0.2,0.1-0.5,0.1-0.5,0.4c0.1,0.1,0.2,0.1,0.4,0.2c0,0.4,0.1,1-0.3,1.4c-0.3,0-0.6-0.1-0.9,0.1
		c-0.1,0.1-0.4,0-0.7,0c0-0.1,0-0.2,0-0.3c-0.1-0.1-0.2-0.1-0.3-0.2c-0.2,0.1-0.5,0.1-0.6,0.2c-0.3-0.2,0-0.5-0.2-0.8
		c-0.2-0.2-0.1-0.5,0-0.9c0.1,0,0.2,0.1,0.2,0.1c0,0.1,0,0.2,0,0.4c0.2-0.2,0.3-0.3,0.4-0.4c-0.1-0.1-0.2-0.1-0.4-0.2
		c0.1-0.2,0.2-0.4,0.3-0.5c-0.7-0.5-0.8-1.2-0.3-2c-0.1-0.1-0.2-0.3-0.2-0.5c0-0.7,0-1.4,0-2.2c0.1,0,0.1,0,0.2-0.1
		c-0.1-0.1-0.1-0.2-0.2-0.4c0.3-0.2,0.5-0.3,0.7-0.5c-0.8-0.4-0.9-0.5-0.6-1c-0.3-0.7-0.1-1.4-0.2-2.1c0.2-0.1,0.4-0.3,0.6-0.4
		c0.1,0.1,0.2,0.3,0.2,0.4c0,0,0.1,0,0.1,0c0-0.1-0.1-0.2-0.1-0.3c0.2-0.1,0.3-0.2,0.5-0.3c0-0.3,0.1-0.5,0.1-0.8
		c-0.2,0-0.4-0.1-0.7-0.1c0,0,0,0.1,0,0.1c0.1,0,0.2,0,0.2,0.1c0.1,0,0.1,0.1,0.3,0.1c-0.1,0.1-0.2,0.1-0.3,0.2
		c-0.1,0.1-0.1,0.2-0.1,0.3c-0.3,0-0.5-0.1-0.8-0.1c0-0.5,0-1,0-1.5c0.2-0.1,0.5-0.2,0.7-0.4c-0.1-0.1-0.1-0.2-0.2-0.3
		c-0.2,0.1-0.3,0.2-0.5,0.3c-0.2-0.2-0.2-0.4-0.1-0.7c0-0.4,0-0.7,0-1.1c0-0.5,0-1,0-1.5c0-0.2,0-0.3,0-0.5c0-0.3-0.1-0.7,0.2-1
		c-0.2-0.4-0.2-1,0.1-1.5c-0.1,0-0.1,0-0.2-0.1c-0.2-0.3,0.1-0.6,0.2-0.8c-0.1-0.1-0.1-0.3-0.2-0.4c0.1,0,0.3-0.1,0.5-0.2
		c-0.2-0.1-0.4-0.2-0.6-0.2c0-0.1,0-0.3,0-0.5c0.3,0.1,0.6,0,0.9-0.3c-0.2-0.1-0.5-0.2-0.7-0.4c0,0.2,0.1,0.3,0.1,0.4
		c-0.2,0-0.2-0.2-0.2-0.3c0-0.5,0-1.1,0-1.6c0.2,0,0.4,0.2,0.6,0c-0.2-0.2-0.3-0.4-0.5-0.6c0.1-0.2,0.2-0.3,0.4-0.5c0,0,0,0-0.1-0.1
		c-0.1,0.1-0.2,0.2-0.4,0.3c-0.1-0.2-0.1-0.3-0.2-0.5c0.3-0.1,0.5-0.2,0.9-0.3c-0.2-0.1-0.3-0.2-0.5-0.3c-0.1,0.1-0.1,0.2-0.2,0.3
		c-0.3,0-0.6,0-1-0.1c-0.1-0.2-0.2-0.3-0.3-0.5c-0.1,0.1-0.1,0.1-0.2,0.2c0.1,0.1,0.1,0.2,0.2,0.3c-0.3,0-0.6,0-0.9,0
		c-0.1-0.1-0.3-0.2-0.5-0.4c0,0.2,0,0.3,0,0.4c-1.2,0-2.3,0-3.5,0c-0.1-0.1-0.2-0.1-0.3-0.3c0,0.1-0.1,0.2-0.1,0.3
		c-0.6,0-1.1,0-1.7,0c-0.1-0.1-0.3-0.2-0.5-0.3c-0.3-0.6-0.1-1.2-0.1-1.8c0.1-0.1,0.3-0.3,0.4-0.5c0.6,0,1.1,0,1.7,0
		c0.6,0,1,0.4,1.2,0.9c0,0.1,0.1,0.1,0.1,0.2c0.1,0,0.2,0.1,0.3,0.1c0.1,0.2-0.2,0.4,0.1,0.6c0.1-0.2,0.1-0.5,0.2-0.7
		c0.1-0.2,0.4-0.2,0.6-0.3c-0.1-0.1-0.1-0.1-0.2-0.2c0.1,0.1,0.2,0.2,0.4,0.3c0.1-0.1,0.1-0.1,0.2-0.2c-0.1-0.1-0.2-0.2-0.4-0.3
		c0.2-0.1,0.3-0.2,0.5-0.3c0.2,0.1,0.4,0.2,0.5,0.2c0.4-0.1,0.8-0.2,1.1-0.3c0.2,0.1,0.3,0.5,0.6,0.3c0-0.1-0.1-0.2-0.1-0.2
		c0.5,0,1,0,1.6,0c0,0.1-0.1,0.3-0.1,0.4c0.1,0,0.3,0,0.5,0.1c0-0.2,0-0.3,0.1-0.4c0.3-0.1,0.5-0.1,0.6,0.1c0.2-0.1,0.4-0.2,0.6-0.2
		c0.4,0,0.8,0,1.2,0c0.3,0,0.6-0.1,0.9-0.1c0.8,0,1.5-0.1,2.3,0.1c0.5,0.1,1-0.1,1.5-0.1c0.1,0,0.3,0.1,0.5,0.1
		c0.4-0.2,1.7-0.2,2.4,0c0.2,0.3,0.2,0.3,0.1,0.7c0.1,0,0.2,0.1,0.3,0.1c0,0.1,0.1,0.2,0.1,0.4c-0.1,0.1-0.2,0.2-0.3,0.3
		c0.4,0,0.7,0.1,1.1,0.1c0.1,0.2,0.2,0.3,0.2,0.5c-0.3,0.3-0.7,0.4-1.2,0.3c-0.1-0.1-0.2-0.2-0.3-0.3c-0.1,0.1-0.2,0.2-0.2,0.3
		c-0.7,0-1.3,0-2,0c0-0.1,0-0.2,0-0.4c-0.1-0.1-0.2-0.1-0.4-0.2c0,0.1,0,0.1,0,0.2c0.1,0.2,0,0.3-0.2,0.5c-0.1-0.1-0.2-0.2-0.3-0.3
		c-0.3,0.1-0.4,0.5-0.9,0.3c0.1-0.1,0.1-0.3,0.2-0.4c-0.4-0.2-0.4-0.2-0.7-0.1c0.1,0.1,0.1,0.2,0.2,0.2c0,0.1-0.1,0.1-0.1,0.2
		c-0.4-0.2-0.7-0.5-1-0.7c0,0,0,0.1-0.1,0.1c0.1,0.1,0.4,0.2,0.4,0.3c0,0.3,0.2,0.3,0.5,0.4c-0.7,0-1.2,0-1.7,0c0-0.1,0-0.2,0-0.3
		c-0.3-0.1-0.4,0.1-0.6,0.2c-0.2,0.2-0.4,0.4-0.7,0.6c0.1,0,0.2,0.1,0.3,0.1c0,0.9,0,1.8,0,2.9c0,0-0.1,0.1-0.2,0.2
		C213.1,27.6,213.1,27.9,213.1,28.2z M209.9,22.2c0.1,0.3,0.2,0.5,0.3,0.7c0.3-0.1,0.6-0.1,0.8-0.2c0,0.1,0,0.2,0,0.3
		c-0.1,0.1-0.2,0.2-0.3,0.3c0.2,0.1,0.3,0.2,0.4,0.3c0.3-0.2,0.1-0.4,0.1-0.5c0.1-0.1,0.2-0.2,0.3-0.3c-0.2-0.3-0.3-0.5-0.4-0.7
		c0.1-0.3,0.1-0.5-0.2-0.7c-0.1,0.1-0.3,0.1-0.4,0.2c-0.1,0.2-0.2,0.4-0.2,0.6C210.2,22.2,210.1,22.2,209.9,22.2z"/>
	<path class="st0" d="M260.4,128.5c-0.2,0-0.4-0.1-0.5-0.1c-0.3,0.2,0,0.4,0.1,0.6c-0.1,0-0.2,0-0.4,0c-0.4-0.7-0.6-1.4-0.8-2.2
		c0.1-0.2,0.1-0.4,0.2-0.7c-0.1,0-0.2-0.1-0.3-0.1c0-0.7,0-1.4,0-2.1c0.3,0,0.5-0.1,0.8-0.1c0,0,0-0.1,0-0.1
		c-0.3-0.1-0.5-0.1-0.8-0.2c0-0.4,0-0.8,0-1.2c0-0.1,0.1-0.1,0.2-0.3c-0.4-0.5-0.2-1.1-0.3-1.6c0.1,0,0.2-0.1,0.3-0.1
		c-0.1-0.2-0.2-0.3-0.3-0.4c0-0.4,0-0.7,0-1.2c0.1,0,0.3,0,0.4,0c0-0.1,0-0.2,0.1-0.3c-0.2,0-0.3,0-0.5-0.1c0-0.1,0-0.2,0-0.4
		c0.2,0,0.4-0.1,0.6-0.1c0,0,0-0.1,0-0.1c-0.2,0-0.4-0.1-0.6-0.2c0-0.1,0.1-0.2,0.1-0.4c-0.2-0.3-0.2-0.5-0.1-1.4
		c0.1,0,0.1,0.1,0.2,0.2c0-0.3,0-0.5,0-0.7c-0.1,0-0.2,0-0.3-0.1c0-1,0-2,0-3c-0.2-0.4-0.6-0.4-0.9-0.5c-0.6,0.3-1.3-0.1-1.9,0
		c-0.2-0.1-0.4-0.3-0.4-0.6c0.1,0,0.2,0,0.4,0c-0.1-0.4-0.2-0.7-0.3-1.2c0,0,0.1-0.1,0.1-0.2c0.1-0.1,0.2-0.1,0.2-0.2
		c0.6-0.1,1.2-0.3,1.7-0.1c0.3-0.1,0.5-0.2,0.8-0.3c0.3-0.3,0.6-0.6,0.9-0.9c-0.4-0.6-0.2-1.3-0.3-1.9c0.3-0.1,0.6-0.1,0.7-0.5
		c-0.2,0-0.4-0.1-0.6-0.1c0-0.4,0-0.8,0-1.3c0.1-0.3,0.7-0.3,0.6-0.9c-0.1,0-0.3,0-0.4,0c0-0.1,0-0.1,0-0.2c0.2-0.4,0.6-0.6,1-0.5
		c0.1,0,0.3,0.1,0.4,0.2c-0.1,0.2-0.1,0.4-0.2,0.6c0.1,0,0.3,0,0.4,0.1c0-0.3,0-0.6,0-0.9c0.3,0.1,0.5,0.3,0.8,0.5
		c0,0.2,0.1,0.5,0.1,0.8c0,0.5,0,0.9,0,1.4c0,0.2-0.1,0.5-0.1,0.7c0,0.2,0,0.4,0,0.6c-0.1,0-0.2,0.1-0.3,0.1
		c0.1,0.1,0.1,0.1,0.2,0.2c-0.1,0.1-0.1,0.2-0.2,0.3c0.1,0,0.2,0.1,0.3,0.1c0,0.3,0,0.6,0.1,0.9c0.1,0.6,0.2,0.7,0.8,0.7
		c0.1,0,0.3,0,0.4,0c0.1,0.1,0.2,0.2,0.3,0.4c0.1-0.1,0.2-0.2,0.3-0.4c0.3,0,0.6,0,1,0.1c-0.1,0.3-0.4,0.5-0.2,0.9
		c0.3,0,0.6,0,0.9,0c0-0.1,0-0.3-0.1-0.4c0.4-0.2,0.8-0.3,1.2-0.5c0.1,0.1,0.3,0.2,0.4,0.3c0,0.3,0,0.6,0,1c0.7-0.2,0.3-0.7,0.5-1
		c0.1,0.1,0.2,0.1,0.2,0.2c0,0.4,0.1,0.9,0.1,1.4c0,0.2-0.1,0.4-0.2,0.6c0,0.1-0.2,0.1-0.3,0.1c0-0.1,0-0.2,0.1-0.3
		c-0.1,0-0.3,0-0.4,0c0.1,0.2,0.1,0.3,0.2,0.4c-0.4,0.1-0.5-0.2-0.7-0.4c-0.1,0.1-0.2,0.2-0.4,0.4c0-0.2,0-0.3,0.1-0.4
		c-0.1,0.1-0.2,0.2-0.3,0.3c-0.4,0-0.8,0.1-1.2,0.1c-0.7-0.1-1.5,0.2-2.2-0.2c-0.1,0.3-0.2,0.5-0.3,0.8c0,0,0,0-0.1,0
		c0,1.3,0,2.7,0,4c-0.1,0-0.3,0.1-0.5,0.1c0.2,0.3,0.4,0.6,0.6,1c-0.3,0-0.4-0.1-0.5-0.1c-0.1,0-0.3,0-0.5-0.1
		c0.3,0.3,0.6,0.4,0.9,0.4c0.1,0.6,0.1,1.2,0,1.7c-0.1,0.6,0.2,1.1,0,1.7c-0.2,0-0.5-0.3-0.7,0.1c0.1,0.2,0.2,0.3,0.4,0.5
		c0.1-0.1,0.2-0.1,0.3-0.2c0,0.2,0.1,0.3,0.1,0.4c-0.3,0.1-0.5,0.1-0.9,0.2c0.2,0.1,0.3,0.2,0.4,0.2c0.1,0,0.2,0,0.4,0.1
		c0,0.2-0.1,0.3-0.1,0.4c0.1,0,0.1,0,0.2,0.1c-0.1,0.5,0.2,1-0.2,1.4c0.3,0.4,0.2,0.9,0.1,1.3c0.1,0.5,0.3,1,0.4,1.4
		c0.2,0.3,0.3,0.6,0.5,0.9c0.3,0.1,0.6,0.3,0.7,0.6c-0.1,0.3-0.2,0.6-0.2,0.9c0,0,0.1,0,0.1,0c0.1-0.3,0.3-0.6,0.4-0.9
		c0.8,0.1,0.7,0,1.1,0.8c0.3,0,0.3-0.4,0.4-0.6c0.2,0,0.4,0,0.6,0c-0.1,0.3-0.3,0.2-0.5,0.2c0.1,0.1,0.2,0.1,0.3,0.2
		c0.2,0,0.4-0.1,0.6-0.1c0-0.1,0-0.2,0-0.3c0.1,0,0.3-0.1,0.4-0.1c0.2,0.3,0.4,0.5,0.6,0.8c-0.1,0.1-0.1,0.2-0.2,0.3
		c0,0,0,0,0.1,0.1c0.2-0.1,0.3-0.2,0.5-0.3c0.2-0.4-0.6-0.3-0.4-0.8c0.3-0.1,0.5-0.1,0.7,0.1c0.1,0.3,0.3,0.6,0.4,0.9
		c0.1,0.3,0,0.6,0,1c-0.2,0.2-0.5,0.3-0.8,0.4c-0.5,0.1-0.9,0.3-1.4,0.2c-0.2,0-0.4,0.1-0.6,0.2c-0.3,0-0.6,0-0.9,0
		c-0.2-0.2-0.3-0.6-0.7-0.6c-0.2,0.1-0.5,0.2-0.9,0.4c-0.4-0.2-1-0.3-1.5-0.5c-0.1-0.2-0.2-0.3-0.2-0.5c-0.2-0.1-0.4-0.1-0.6-0.2
		c0-0.2-0.1-0.4-0.1-0.6c-0.3,0.1-0.5,0-0.6-0.2c0.2-0.1,0.5-0.3,0.7-0.4C260.5,128.8,260.5,128.6,260.4,128.5
		C260.5,128.5,260.5,128.5,260.4,128.5z"/>
	<path class="st0" d="M209.9,111.5c0.1-0.3-0.3-0.5-0.3-0.8c-0.2,0.1-0.3,0.2-0.4,0.3c-0.1,0-0.1-0.1-0.2-0.1
		c-0.1,0-0.2-0.1-0.3-0.1c-0.3-0.8-0.6-1.6-0.9-2.5c0.3-0.1,0.5-0.3,0.8-0.4c-0.3-0.3-0.3-0.3-0.8-0.2c-0.5-0.3-0.5-0.9-0.8-1.3
		c0.1-0.1,0.1-0.1,0.2-0.2c0,0,0.1-0.1,0.2-0.1c-0.1-0.1-0.4-0.2-0.3-0.5c0.2-0.1,0.5-0.2,0.8-0.3c-0.3,0-0.5,0-0.6-0.1
		c0-0.1,0-0.2,0-0.3c0.1,0,0.3,0,0.5,0c0-0.1-0.1-0.2-0.1-0.2c-0.3-0.1-0.6-0.1-1-0.1c-0.1,0.3,0.3,0.5,0.3,0.8
		c-0.2,0.1-0.4,0.3-0.6,0.5c-0.2-0.1-0.4-0.1-0.7-0.2c0.1,0.4,0.2,0.6,0.6,0.6c0.1,0.2,0.3,0.4,0.3,0.8c-0.2-0.1-0.3-0.1-0.4-0.2
		c0,0.1-0.1,0.1-0.1,0.2c0.1,0.2,0.2,0.3,0.6,0.2c0,0.3,0,0.7,0,1c-0.2,0-0.3,0.1-0.5,0.1c0,0.2,0,0.3-0.1,0.6c0.1,0,0.2,0,0.2,0
		c0.1-0.1,0.3-0.2,0.5-0.4c0,0.3,0,0.5,0,0.6c-0.1,0.1-0.2,0.2-0.2,0.2c0,0,0,0.1,0,0.1c0.2,0.2,0.2,0.4,0.2,0.6
		c-0.1,0.5,0,0.9,0.1,1.4c-0.1,0-0.2,0-0.3,0.1c0.4,0.6,0.3,1.1,0,1.7c0.1,0,0.2,0,0.2,0c0,0.8,0,1.6,0,2.4
		c-0.1,0.1-0.1,0.2-0.2,0.3c0.1,0.1,0.2,0.2,0.3,0.3c0,0.2,0,0.3,0,0.5c-0.1,0.1-0.2,0.2-0.3,0.2c0.1,0.3,0.3,0.5,0.4,0.8
		c-0.3,0.2-0.7,0.3-0.7,0.8c0.1,0.1,0.3,0.1,0.5,0.2c0,0.1,0,0.2,0,0.3c-0.2,0-0.3,0-0.4,0c-0.2,0-0.4,0.2-0.5,0.4
		c-0.1,0.3-0.2,0.5-0.3,0.8c-0.1,0.2,0,0.5-0.1,0.7c0.4,0.2,0.8,0.5,1.3,0.8c-0.2,0.1-0.2,0.1-0.3,0.1c-0.1,0-0.2,0-0.3,0.1
		c0.2,0.3,0.3,0.6,0.5,1c0,0.1,0,0.3,0,0.5c-0.1,0.1-0.2,0.1-0.4,0.2c0,0.1,0,0.2,0.1,0.2c0.1,0.1,0.2,0.2,0.3,0.3
		c0.1,0.5-0.5,0.3-0.4,0.8c0.1,0.1,0.3,0.2,0.4,0.3c0,0.6,0,1.2,0,1.9c-0.1,0-0.2,0.1-0.3,0c-0.1-0.1-0.3-0.2-0.4-0.3
		c-0.1,0.2-0.2,0.3-0.3,0.5c0.4,0.1,0.7,0.2,1.1,0.3c0,0.4,0,0.7,0,1.1c-0.1,0.1-0.2,0.2-0.3,0.3c0,0.1,0,0.3,0,0.4
		c-0.1,0-0.2,0-0.3,0.1c0,0,0,0.1,0,0.1c0.2,0,0.3,0,0.5,0c0.3,0.3,0,1-0.7,1.4c-0.2,0-0.4,0-0.6,0c0-0.1-0.1-0.2-0.1-0.4
		c-0.1,0.1-0.2,0.2-0.4,0.4c-0.2-0.1-0.3-0.2-0.5-0.3c-0.1,0.1-0.2,0.1-0.3,0.2c-0.1-0.1-0.1-0.1-0.1-0.1c-0.1-0.5-0.2-1.1-0.2-1.6
		c0-0.2,0.1-0.3,0.2-0.4c0.2-0.2,0.2-0.5,0.2-0.7c0,0-0.1-0.1-0.1-0.1c-0.1,0.1-0.2,0.2-0.4,0.4c0-0.8,0-1.5,0-2.1
		c0.3-0.1,0.4,0.1,0.5,0.2c0.1,0,0.3,0,0.5,0c0.3,0.3,0.6,0.5,1,0.3c0.1-0.1,0.3,0,0.5,0c-0.2-0.4-0.6-0.2-0.9-0.3
		c-0.3-0.1-0.6-0.1-0.9-0.2c-0.1-0.1-0.2-0.3-0.2-0.4c-0.1,0-0.3-0.1-0.4-0.1c0-0.8,0-1.5,0-2.3c0.1-0.1,0.3-0.2,0.4-0.4
		c-0.1-0.3-0.3-0.6-0.4-0.9c0-1.1-0.1-2.1-0.1-3.1c0.1-0.1,0.2-0.2,0.3-0.3c0-0.1-0.1-0.3-0.1-0.4c0.1,0,0.1,0,0.3-0.1
		c-0.1-0.1-0.2-0.1-0.4-0.2c0.1-0.6,0-1.2,0-1.9c0-0.6,0-1.3,0-1.9c0-0.6-0.1-1.3,0.1-1.9c-0.2-0.3-0.2-0.8-0.2-1.2
		c0-0.4-0.1-0.9,0.3-1.3c-0.1,0-0.2,0-0.3,0c0-0.2,0-0.5,0-0.7c0-0.2,0-0.5,0-0.8c0.1-0.1,0.3-0.1,0.5-0.3c-0.2-0.1-0.4-0.2-0.5-0.3
		c0.1-1.1-0.1-2.2,0.1-3.3c0.1-0.4-0.1-0.8-0.1-1.2c0-0.3,0.1-0.7,0.2-1c0.1,0,0.1,0.1,0.2,0.1c0-0.1,0.1-0.1,0.2-0.3
		c0.1,0,0.2,0,0.3,0c0.1,0.1,0.2,0.2,0.3,0.4c0.1-0.1,0.2-0.2,0.3-0.3c0.6,0,1.2,0,1.8,0c0,0.2-0.1,0.4-0.1,0.5
		c0.1,0.1,0.2,0.2,0.3,0.3c0,0.2-0.1,0.4-0.1,0.7c0.4,0,0.8,0,1.2,0c0.1,0.2,0.2,0.5,0.3,0.7c0,0.2-0.1,0.3-0.1,0.4
		c0.2,0.2,0.4,0.3,0.5,0.5c0.3,0.6,0.4,1.1,0.3,1.4c0.4,0.2,0.4,0.6,0.5,1c0.2,0.4,0.3,0.7,0.4,1.1c0.1,0.4,0.2,0.8,0.4,1.2
		c-0.1,0.1-0.2,0.1-0.4,0.2c0.3,0.1,0.4,0.2,0.6,0.3c0.3,0.8,0.6,1.6,0.9,2.3c0,0,0,0-0.1,0.1c-0.1-0.1-0.2-0.2-0.3-0.2
		c-0.2,0-0.3,0.1-0.6,0.1c0-0.2,0-0.4,0-0.5c-0.2,0-0.4,0-0.7-0.1C210,111.7,210,111.6,209.9,111.5z"/>
	<path class="st0" d="M296.1,75.8c-0.2,0.1-0.3,0.1-0.6,0.2c0.2,0.1,0.3,0.2,0.5,0.4c0,0.2,0,0.5,0,0.7c-0.1,0.1-0.2,0.2-0.3,0.3
		c0.1,0.1,0.2,0.2,0.3,0.3c0,0.3,0,0.6,0,1c-0.2,0.1-0.4,0.3-0.7,0.5c0.2,0.3,0.4,0.1,0.7-0.1c0,0.9,0,1.7,0,2.6
		c-0.1,0-0.3,0.1-0.4,0.1c0,0.1,0,0.1,0,0.2c0.2,0,0.3,0,0.5,0c0,0.9,0,1.7,0,2.6c-0.2-0.1-0.4-0.1-0.6-0.2
		c-0.1,0.1-0.1,0.1-0.2,0.2c0.3,0.1,0.5,0.3,0.7,0.4c0,0.5-0.3,0.6-0.6,0.8c0.2,0,0.4,0.1,0.6,0.1c0,0.6,0,1.1,0,1.6
		c-0.2,0.1-0.4,0.3-0.6,0.4c-0.1-0.1-0.2-0.2-0.3-0.4c-0.1,0.2-0.1,0.3-0.3,0.5c0.1,0.1,0.2,0.2,0.4,0.3c-0.1,0.1-0.2,0.3-0.3,0.4
		c-0.1,0.2,0,0.4,0,0.6c-0.4,0.2-0.8,0.4-1.2,0.7c0.1,0,0.2,0,0.2,0.1c0.1,0,0.1,0,0.2,0.1c-0.1,0.1-0.1,0.2-0.2,0.3
		c-0.2-0.2-0.4-0.4-0.6-0.7c-0.1,0.2-0.2,0.3-0.3,0.4c0.1,0,0.2,0.1,0.3,0.1c0,0.1-0.1,0.1-0.1,0.1c-0.1,0-0.2-0.1-0.3-0.2
		c0,0.1-0.1,0.2-0.2,0.3c-0.4,0.1-0.7-0.1-1-0.2c-0.3-0.4-0.2-0.8-0.2-1.2c0.1-0.1,0.2-0.2,0.3-0.3c-0.2-0.2-0.4-0.5-0.2-0.9
		c0.1,0,0.2,0,0.2,0c-0.1-0.1-0.1-0.1-0.2-0.2c0.3-0.2,0.5-0.3,0.8-0.5c0,0-0.1-0.1-0.2-0.2c-0.2,0.1-0.4,0.1-0.6,0.2
		c-0.3-0.3-0.2-0.6-0.2-0.9c0.1-0.1,0.2-0.1,0.5-0.2c-0.2-0.1-0.3-0.2-0.5-0.3c0-0.3,0-0.5,0-0.8c0.2-0.1,0.3-0.2,0.6-0.4
		c-0.2-0.1-0.3-0.2-0.4-0.2c-0.1,0-0.1,0.1-0.2,0.1c-0.2-0.7,0.1-1.3,0-2c0.1-0.1,0.3-0.1,0.4-0.2c-0.1,0-0.2-0.1-0.4-0.1
		c-0.2-0.9,0.1-1.8,0-2.7c0.5,0,0.5,0,0.6-0.4c-0.2,0-0.3,0-0.5,0c-0.2-0.4-0.1-0.7-0.1-1.1c0.2,0,0.4,0,0.6,0.1c0,0,0-0.1,0-0.1
		c-0.2-0.1-0.4-0.2-0.6-0.3c0-0.2,0-0.4,0-0.6c0-0.2,0-0.4-0.1-0.5c0.2-0.2,0.3-0.4,0.6-0.6c-0.3,0-0.4,0-0.5,0c0-0.1,0-0.1,0-0.2
		c0.5-0.2,1.1-0.2,1.3-0.9c-0.2,0-0.5,0.1-0.6,0c-0.2-0.2-0.4-0.1-0.5-0.1c0,0.1-0.1,0.2-0.1,0.4c-0.1-1-0.1-1.2,0.1-1.6
		c-0.3-0.6-0.2-1.1-0.1-1.7c0-0.1-0.1-0.3-0.2-0.4c0.2-0.1,0.4-0.2,0.6-0.2c0,0,0,0,0-0.1c-0.2,0-0.3,0-0.5,0c0-0.3,0-0.5,0-0.8
		c0,0,0.1,0,0.1,0c0-0.2,0-0.4,0.1-0.7c0.2,0,0.3,0,0.5,0.1c-0.2-0.3-0.4-0.5-0.7-0.5c0.1-0.3,0.4-0.4,0.6-0.5
		c0,0.2,0.1,0.3,0.1,0.4c0,0,0.1,0,0.1,0c0-0.1,0.1-0.2,0.1-0.4c0.5,0,1,0,1.6,0c0,0.1,0.1,0.2,0.2,0.3c0-0.1,0.1-0.2,0.1-0.3
		c0.6-0.1,1.2-0.1,1.7,0.4c0,1,0.1,2-0.2,2.9c0.2,0.4,0.2,0.4,0.2,1c-0.2,0.5-0.3,0.8-0.4,1.2c0.1,0.1,0.3,0.2,0.4,0.3
		c0,0.1,0,0.2,0,0.4c-0.2,0-0.3,0-0.5,0c0,0,0,0.1,0,0.1c0.1,0.1,0.3,0.1,0.4,0.2C296,75.4,296,75.6,296.1,75.8z"/>
	<path class="st0" d="M245.6,119.2c0,0.4,0,0.8,0,1.3c-0.3,0-0.5,0-0.8,0c0-0.2,0-0.3,0-0.5c-0.1,0.2-0.2,0.4-0.3,0.5
		c-1,0-2,0.1-3.1,0c-0.7-0.1-1.4-0.1-2.1,0c-0.2,0-0.4,0.1-0.6-0.1c0.3-0.3,0.7,0,1.1-0.2c-0.1-0.1-0.2-0.2-0.2-0.2
		c-0.2,0-0.4-0.2-0.6,0.1c0,0.1-0.3,0-0.4,0c-0.1,0.1-0.1,0.2-0.2,0.3c-0.1-0.1-0.2-0.1-0.4-0.2c-0.3,0.1-0.4,0.3-0.5,0.5
		c0.1,0.5,0.4,1,0.3,1.6c-0.2-0.1-0.4-0.1-0.6-0.2c0.2,0.3,0.3,0.5,0.5,0.8c0.1,0,0.2,0,0.4,0c0.1,0.9,0.5,1.6,0.9,2.3
		c0.1,0.2,0.1,0.4,0.1,0.6c0.1,0,0.2,0,0.3,0.1c0.1,0.1,0.2,0.3,0.3,0.6c0.6,0.4,1.2,0.9,1.8,1.4c0,0.1,0,0.3,0.1,0.5
		c0.1-0.1,0.2-0.1,0.3-0.2c0.3,0.1,0.7,0.4,1.1,0.4c0.4,0.1,0.5,0.5,1,0.6c0.1-0.1,0.2-0.2,0.3-0.3c0.2,0,0.6,0.1,0.9,0.1
		c0.4,0,0.7,0,1.1-0.1c0.3-0.1,0.6,0,0.9,0.2c0.1-0.1,0.1-0.2,0.2-0.4c0.2,0,0.5-0.1,0.8-0.1c0.1,0.3,0.1,0.3-0.2,0.6
		c0.1,0.1,0.1,0.2,0.2,0.2c0.1,0,0.2,0,0.2,0c0.2-0.3,0.3-0.5,0.5-0.8c0-0.4-0.4,0.1-0.5-0.2c0.4-0.3,0.9-0.1,1.3-0.5
		c-0.1,0.1-0.1,0.3-0.2,0.4c0.1,0.1,0.1,0.2,0.2,0.3c-0.3,0-0.5,0-0.5,0.4c0.1,0,0.3,0,0.4,0c0.3,0.2,0.5,0.4,0.8,0.6
		c0-0.2,0-0.3-0.1-0.4c-0.2-0.2-0.3-0.4-0.5-0.7c0.2-0.2,0.3-0.4,0.5-0.6c-0.1-0.1-0.3-0.2-0.4-0.3c0.3-0.1,0.5-0.4,0.9-0.3
		c0.4,0.4,0.7,0.8,0.9,1.4c-0.2,0-0.4,0-0.6,0c0,0-0.1,0-0.1,0.1c-0.3-0.3,0-0.6,0-0.9c0,0-0.1-0.1-0.2-0.2
		c-0.1,0.3-0.2,0.6-0.3,0.9c0.2,0.1,0.3,0.2,0.4,0.3c0,0,0,0,0,0c0.2,0,0.4,0.1,0.7,0.2c-0.4,0.5-1.3,0.9-1.9,1
		c-0.4,0.5-1.1,0.5-1.6,0.7c-0.1,0-0.3,0-0.4-0.1c0-0.2,0-0.3,0.1-0.4c-0.3,0-0.5,0-0.8,0c0.2,0.1,0.3,0.3,0.5,0.4
		c-0.4,0.3-0.8,0.4-1.2,0.4c0,0,0-0.1-0.1-0.1c0.2-0.1,0.4-0.2,0.6-0.4c-0.1-0.1-0.1-0.2-0.2-0.2c-0.3,0.1-0.6,0.1-0.9,0.2
		c0.1,0.2,0.2,0.3,0.3,0.5c-0.4,0.1-0.4,0.1-0.7-0.2c-0.4,0.2-0.9,0.3-1.4,0.3c-0.7-0.1-1.3-0.2-2-0.4c0-0.2,0.1-0.3,0.1-0.4
		c0.2,0,0.4,0.1,0.6,0.1c-0.2-0.5-0.3-0.6-0.9-0.5c0-0.1-0.1-0.1-0.1-0.2c-0.1,0-0.2,0-0.3,0c0,0,0,0.1,0,0.1
		c0.2,0.2,0.3,0.4,0.2,0.8c-0.4-0.2-0.9-0.2-1.2-0.5c-0.1-0.1-0.2-0.1-0.4-0.2c-0.5-0.2-1-0.4-1.4-0.9c0.1-0.2,0.2-0.3,0.3-0.5
		c-0.2,0.1-0.5,0.1-0.7,0.2c-0.1-0.1-0.3-0.2-0.4-0.3c0.1-0.1,0.1-0.2,0.2-0.3c-0.1-0.1-0.2-0.1-0.3-0.2c0,0.1-0.1,0.1-0.1,0.3
		c-0.3-0.4-0.6-0.8-1-1.2c0.2-0.1,0.3-0.2,0.5-0.3c0,0,0-0.1,0-0.1c-0.2,0-0.4,0.1-0.6,0.1c-0.1-0.1-0.2-0.3-0.3-0.5
		c0.1,0,0.2-0.1,0.3-0.1c0-0.1,0-0.3,0-0.5c-0.2,0.1-0.3,0.2-0.4,0.3c-0.4-0.7-0.5-0.9-0.4-1.3c-0.1-0.2-0.3-0.5-0.4-0.7
		c0.1-0.1,0.2-0.1,0.3-0.3c-0.2-0.4-0.4-0.7-0.6-1.1c-0.1-0.4-0.1-0.8-0.2-1.2c0-0.5,0-0.9,0.6-1.2c-0.2-0.1-0.3-0.1-0.5-0.2
		c0-0.3,0-0.6,0-1c0.2,0,0.4,0,0.7,0c0-0.1-0.1-0.2-0.1-0.3c-0.2,0-0.3-0.1-0.6-0.1c0-0.1,0-0.3,0-0.5c0.2,0.1,0.4,0.1,0.6,0.2
		c0-0.1,0-0.2,0-0.3c-0.2-0.1-0.3-0.1-0.4-0.2c-0.2-0.5,0-0.9,0.1-1.4c0.1,0.2,0.2,0.4,0.3,0.6c0.4,0.2,0.6,0,0.9-0.2
		c0-0.1,0-0.3,0-0.4c0,0-0.1,0-0.1,0c0,0.1,0,0.1,0,0.3c-0.2,0-0.3,0-0.5,0c0-0.2,0-0.4,0-0.6c-0.2,0.1-0.3,0.1-0.5,0.2
		c0.1-0.3,0.1-0.5,0.2-0.9c0.2,0,0.4-0.1,0.7-0.2c0-0.2,0-0.5-0.4-0.6c0.3-0.8,0.7-1.5,1.2-2.1c0.1,0,0.2,0,0.2,0
		c0.2-0.3,0.3-0.7,0.5-0.9c0.2-0.3,0.4-0.6,0.8-0.7c0,0.1,0.1,0.3,0.1,0.3c0.2,0.2,0.4,0.4,0.6,0.6c0,0.2,0,0.3,0.1,0.5
		c0.2,0,0.4,0.1,0.7,0.1c0,0.3,0,0.5-0.1,0.9c-0.2,0.2-0.4,0.5-0.7,0.8c0,0.4-0.2,0.7-0.4,1.1c-0.2-0.1-0.4-0.1-0.6-0.2
		c0,0,0-0.1,0-0.1c0.1,0,0.3-0.1,0.4-0.1c0-0.3-0.2-0.3-0.4-0.3c-0.1-0.2-0.1-0.4-0.2-0.6c-0.2,0.2-0.3,0.4-0.5,0.5
		c0.3,0.4,0.6,0.9,0.9,1.3c-0.2,0.2,0.2,0.6-0.1,0.8c-0.1,0.3-0.1,0.6-0.1,0.9c-0.3,0-0.5,0-0.8,0c0,0.2,0.1,0.3,0.1,0.4
		c0.1-0.1,0.2-0.1,0.4-0.2c0.1,0.2,0.3,0.4,0.4,0.6c-0.5,0.1-0.8,0.2-1.2,0.3c0,0.4,0.1,0.7,0.1,1.1c0.1,0,0.3,0.1,0.5,0.2
		c-0.1-0.2-0.2-0.3-0.3-0.4c0.1-0.2,0.1-0.4,0.2-0.6c0.1,0,0.3-0.1,0.6-0.1c0.1-0.1,0.1-0.3,0.2-0.3c0.3,0,0.5,0,0.7,0
		c0.8,0,1.5,0,2.4,0c0,0.1,0,0.2,0,0.3c0.1,0,0.2,0.1,0.3,0.2c0-0.2,0-0.3-0.1-0.5c0.2,0,0.4,0,0.7,0c0.2,0.3,0.4,0.5,0.6,0.9
		c0.1,0,0.2-0.1,0.4-0.1c-0.1-0.1-0.1-0.2-0.1-0.3c0.1-0.1,0.2-0.2,0.3-0.3c-0.2,0-0.2,0-0.3,0c0-0.1,0-0.1,0-0.1c0.7,0,1.5,0,2.2,0
		c0,0.1,0.1,0.2,0.2,0.3C245.3,119.2,245.4,119.2,245.6,119.2L245.6,119.2z"/>
	<path class="st0" d="M209.9,111.5c0.1,0.1,0.1,0.2,0.2,0.3c0.1,0.1,0.2,0.1,0.2,0.2c0.1,0.4,0.5,0.5,0.8,0.6
		c0.2,0.1,0.4,0.1,0.6,0.2c0.1,0.2,0.2,0.4,0.3,0.6c-0.2,0.2-0.3,0.4-0.5,0.6c-0.2,0.1-0.4,0.1-0.5,0.4c0.2,0.1,0.4,0,0.5-0.1
		c0.1-0.1,0.4-0.1,0.6-0.2c0.1,0.2,0.2,0.4,0.2,0.6c-0.2,0-0.3,0-0.5,0c0,0,0,0.1,0,0.1c0.2,0,0.4,0.1,0.6,0.2
		c-0.1,0.1-0.1,0.3-0.2,0.4c-0.2,0-0.4,0-0.6-0.1c0.3,0.4,0.8,0.4,1,0.7c-0.1,0.1-0.3,0.3-0.4,0.5c0.1,0.1,0.2,0.1,0.4,0.2
		c0,0,0.1-0.1,0.1-0.2c0.2,0.1,0.3,0.2,0.5,0.4c0.2,0.5,0.4,1.1,0.5,1.7c0.2,0.6,0.5,1.1,0.7,1.8c0.1,0.6,0.4,1.2,0.6,1.8
		c0.1,0.4,0.3,0.8,0.4,1.3c0.1,0.3,0.2,0.5,0.4,0.7c0.4-0.2,0.2-1,0.8-1c0-0.2-0.1-0.3-0.1-0.4c0.1-0.3,0.2-0.6,0.4-1
		c0,0,0.1,0,0.3-0.1c0-0.1,0.1-0.2,0.1-0.3c-0.1-0.4,0-0.7,0.2-1c0.1-0.1,0.1-0.2,0.1-0.3c0.2-0.5,0.3-1,0.5-1.5
		c0-0.1,0.1-0.2,0.2-0.2c0.3-0.1,0.4-0.4,0.7-0.5c-0.1-0.3-0.2-0.2-0.4-0.1c0-0.2,0-0.4,0-0.5c0.5-1,0.6-2.2,1.3-3.1
		c0-0.3,0.1-0.7,0.1-1c0.3-0.1,0.6-0.1,0.7-0.4c-0.1-0.1-0.2-0.1-0.3-0.2c0.2-0.6,0.3-1.1,0.5-1.7c0-0.1,0.1-0.2,0.2-0.2
		c0.2-0.2,0.4-0.4,0.2-0.8c0-0.1,0.1-0.3,0.1-0.4c0.2-0.1,0.3-0.3,0.5-0.4c-0.1-0.1-0.1-0.2-0.2-0.4c0.2-0.4,0.4-0.9,0.6-1.4
		c0.4-0.1,0.8-0.3,1.3-0.5l0,0c0,0.3,0.3,0.3,0.5,0.5c0.2-0.1,0.4-0.1,0.7-0.3c-0.2,0.7-0.4,1.2-0.6,1.8c-0.2,0.1-0.4,0.2-0.7,0.3
		c0.1,0.2,0.2,0.3,0.3,0.5c0,0-0.1,0.1-0.1,0.1c-0.1,0.3-0.1,0.6-0.2,0.9c-0.2,0.1-0.4,0.1-0.6,0.1c0.2,0.1,0.4,0.1,0.6,0.2
		c-0.2,0.1-0.4,0.1-0.5,0.2c0,0.1,0.1,0.2,0.2,0.3c-0.5,0.4-0.3,1.2-0.6,1.7c-0.4,0.1-0.8,0.3-1.2,0.4c0.2,0.1,0.3,0.2,0.5,0.3
		c0.2-0.1,0.3-0.2,0.5-0.4c0,0.1,0.1,0.2,0,0.3c-0.2,0.5-0.3,1-0.5,1.5c-0.1,0.3-0.3,0.5-0.3,0.8c0,0.3-0.2,0.5-0.3,0.8
		c-0.2,0.6-0.5,1.2-0.7,1.8c-0.1,0.2-0.1,0.4-0.2,0.6c-0.2,0-0.3-0.1-0.5-0.1c-0.2,0-0.3,0-0.5,0c0.3,0.3,0.7,0.3,0.7,0.8
		c-0.3,0.5-0.2,1.3-0.9,1.7c0,0,0,0.1,0,0.1c0.1,0.1,0.1,0.1,0.2,0.2c0,0.2-0.1,0.3-0.1,0.4c-0.2,0-0.4,0.1-0.6,0.1
		c-0.1-0.1-0.1-0.3-0.2-0.4c-0.3,0-0.6-0.2-0.9,0.1c0.2,0.2,0.4,0.4,0.6,0.7c-0.1,0.1-0.2,0.1-0.3,0.2c-0.1,0.1-0.2,0.3-0.2,0.5
		c0.1,0,0.2,0,0.2,0c0,0.1,0.1,0.2,0.1,0.3c-0.1,0-0.2,0.1-0.4,0.1c0.1,0.1,0.1,0.2,0.2,0.3c0.1,0,0.1-0.1,0.2-0.1
		c0,0.1,0,0.3,0,0.4c0.1,0,0.2,0.1,0.3,0.1c-0.2,0.5-0.3,0.9-0.5,1.3c-0.2,0.1-0.3,0-0.4-0.2c-0.2-0.3-0.3-0.2-0.6,0
		c0.2,0.2,0.5,0.3,0.8,0.5c-0.1,0.2-0.1,0.4-0.2,0.7c-0.2,0-0.3,0-0.6,0.1c0.2,0.1,0.3,0.2,0.4,0.2c0,0.1-0.1,0.2-0.1,0.3
		c-0.2,0-0.3-0.1-0.6-0.1c0.1,0.2,0.2,0.3,0.4,0.5c-0.1,0.1-0.2,0.2-0.3,0.3c-0.3,0-0.4-0.3-0.7-0.1c0.1,0.1,0.2,0.1,0.4,0.2
		c-0.5,0-0.9,0.1-1.3-0.2c-0.2-0.5-0.5-1.1-0.7-1.6c0.1-0.1,0.2-0.3,0.3-0.4c-0.2-0.1-0.3-0.1-0.5-0.2c0.1-0.1,0.2-0.3,0.2-0.3
		c-0.1-0.1-0.3-0.3-0.4-0.4c0,0,0,0-0.1,0.1c-0.3-0.9-0.6-1.8-0.9-2.6c0.1-0.1,0.2-0.2,0.3-0.3c-0.1-0.1-0.1-0.2-0.2-0.3
		c-0.1,0-0.3,0-0.4,0c-0.2-0.5-0.4-1-0.6-1.5c0.1-0.2,0.2-0.3,0.3-0.5c0.1,0,0.2,0,0.3,0c-0.1-0.1-0.1-0.2-0.1-0.2
		c-0.2,0-0.5-0.1-0.8-0.1c-0.3-0.7-0.6-1.6-0.9-2.4c0.2-0.1,0.4-0.2,0.7-0.4c-0.1-0.1-0.2-0.2-0.4-0.3c-0.2,0.1-0.3,0.2-0.5,0.4
		c-0.3-1-0.8-1.8-0.8-2.9c-0.1-0.1-0.3-0.2-0.4-0.4c-0.1-0.2-0.1-0.3-0.2-0.5c0.1-0.3,0.3-0.2,0.5-0.3c-0.2-0.3-0.4-0.6-0.5-0.9
		C209.6,111.7,209.8,111.6,209.9,111.5z"/>
	<path class="st0" d="M322,115.4c0.1,0,0.2,0.1,0.3,0.1c0,0.2,0,0.4,0,0.6c0.1,0.1,0.3,0.2,0.5,0.3c0.1,0.2,0.2,0.3,0.3,0.5
		c-0.2,0-0.4,0.1-0.5,0.1c0.1,0.5,0.5,0.4,0.7,0.6c0.5-0.1-0.1-0.7,0.4-0.8c0.2,0.1,0.4,0.2,0.6,0.3l0,0c0.1,0.2,0.1,0.3,0.2,0.4
		c-0.1,0.8-0.2,1.5-0.3,2.2c-0.1,0-0.3,0-0.4,0c0,0.3,0,0.5,0,0.8c0.1,0.1,0.3,0.2,0.4,0.2c0.1,0.5,0.1,0.9,0.2,1.3
		c0.1,0.4,0,0.8,0.2,1.2c0.1,0.4,0.2,0.8,0.4,1.2c-0.1,0.3-0.2,0.7-0.3,1c0.2-0.1,0.3-0.1,0.4-0.2c0,0.2,0,0.4,0,0.6
		c0.2-0.1,0.3-0.1,0.5-0.1c0.1,0.1,0.1,0.2,0.2,0.3c-0.1,0.1-0.1,0.2-0.2,0.4c0.2,0,0.4,0,0.5,0c0.2,0.3,0.4,0.5,0.6,0.8
		c0.1,0,0.3,0.1,0.5,0.2c0.6,0.5,1.3,0.9,2,1c0,0,0.1,0.1,0.1,0.2c-0.2,0.1-0.4,0.2-0.7,0.3c0.3,0.1,0.5,0.1,0.7,0.2
		c0.2-0.2,0.3-0.3,0.5-0.5c0.3,0.1,0.5,0.1,0.8,0.2c-0.1,0.1-0.2,0.2-0.3,0.3c0.1,0.2,0.2,0.4,0.3,0.7c0-0.3,0-0.6,0.1-0.8
		c0.2,0.2,0.4,0.3,0.6,0.5c0.1-0.4,0.6,0.2,0.8-0.3c-0.2-0.3-0.6-0.2-0.9-0.3c0.3-0.1,0.4-0.3,0.6-0.3c1.3-0.3,2.4-0.9,3.3-1.7
		c0.2,0,0.4,0,0.6,0c0,0.2-0.1,0.3-0.1,0.5c0.1,0,0.2,0,0.3,0c0.1,0.1,0.2,0.2,0.3,0.3c0,0.2,0.1,0.3,0.1,0.5c0,0.3-0.1,0.4-0.4,0.5
		c-0.2-0.2-0.4-0.4-0.6-0.6c0.1-0.1,0.2-0.2,0.3-0.3c-0.2-0.1-0.5-0.2-0.7-0.4c-0.1,0.4-0.1,0.8,0.2,1.3c0.1,0.1,0.2,0.2,0.4,0.4
		c-0.6,0.4-1.1,0.8-1.7,1.2c-0.3,0.2-0.6,0.3-1,0.5c-0.8,0.3-1.6,0.6-2.5,0.7c-0.7,0-1.3,0.1-2,0c-0.5-0.1-1.1-0.2-1.7-0.4
		c0-0.3,0.1-0.5,0.1-0.8c-0.2-0.2-0.5-0.2-0.8,0c0.2,0.2,0.3,0.3,0.4,0.4c0,0-0.1,0.1-0.1,0.1c-1-0.5-2-1-2.7-1.8
		c0.1-0.1,0.2-0.2,0.4-0.3c-0.3-0.1-0.5-0.1-0.9-0.2c-0.2-0.3-0.5-0.7-0.8-1.1c0-0.4,0-0.8,0-1.3c-0.1,0-0.2,0-0.2,0
		c-0.1,0-0.1,0-0.2,0.1c-0.5-0.9-0.5-1.9-0.8-2.8c0.2-0.1,0.3-0.3,0.6-0.4c-0.3-0.1-0.4-0.2-0.6-0.3c-0.1-0.8-0.2-1.5-0.3-2.3
		c0.1-0.1,0.1-0.2,0.2-0.3c0-0.1,0.1-0.1,0.1-0.2c-0.1-0.2-0.2-0.5-0.3-0.8c0.1-0.1,0.3-0.2,0.4-0.3c-0.1-0.1-0.2-0.2-0.3-0.4
		c0-0.3,0.1-0.6,0.2-0.9c0.1-0.5,0.3-1,0.4-1.6C321.6,115.7,321.7,115.5,322,115.4z"/>
	<path class="st0" d="M226.6,123.2c-0.4,0.1-0.7-0.2-1.1-0.3c-0.1,0-0.3,0.1-0.4,0.2c0-0.2,0-0.5,0-0.8c0.1-0.1,0.1-0.3,0.3-0.5
		c-0.1,0-0.2-0.1-0.3-0.1c0-0.6,0-1.3,0-1.9c0-0.4,0.3-0.6,0.3-1c0-0.1,0-0.2,0-0.3c0-0.1-0.1-0.2-0.1-0.3c-0.1,0-0.1,0.1-0.2,0.1
		c0-0.3,0-0.6,0-0.9c0.1-0.2,0.2-0.3,0.4-0.5c-0.1-0.1-0.2-0.2-0.4-0.3c0-0.9-0.1-1.8,0.2-2.6c0.1-0.1,0.2-0.2,0.3-0.3
		c-0.1-0.1-0.2-0.1-0.4-0.2c0-0.1,0-0.3,0-0.4c0.1,0,0.2,0,0.3,0c0-0.1,0-0.2,0.1-0.4c-0.1,0.1-0.2,0.1-0.3,0.2
		c-0.3-0.4,0.2-0.4,0.3-0.6c-0.1-0.1-0.2-0.3-0.4-0.5c0-0.1,0-0.3,0-0.5c0.2,0,0.4,0.1,0.5,0.1c0-0.1,0.1-0.1,0.2-0.3
		c-0.2,0-0.4,0-0.6,0c-0.2-0.4-0.2-0.9,0.1-1.4c-0.3-0.3-0.1-0.7-0.1-1.1c0.3-0.1,0.6-0.2,0.9-0.2c0,0,0-0.1,0-0.1
		c-0.1,0-0.2,0-0.4,0c-0.4,0-0.4,0-0.4-0.5c0.1,0.1,0.2,0.2,0.3,0.3c0.1-0.1,0.1-0.1,0.2-0.2c-0.2-0.2-0.3-0.4-0.5-0.6
		c-0.1-0.4-0.1-0.8-0.2-1.3c0,0,0.1-0.1,0.1-0.2c-0.2-0.4-0.5-0.4-0.8-0.6c0-0.1,0-0.2,0.1-0.5c-0.2,0.1-0.3,0.1-0.4,0.2
		c-0.2,0.2-0.3,0.5-0.2,0.9c0.2-0.1,0.3-0.2,0.5-0.3c0.2,0.1,0.3,0.1,0.5,0.2c0,0.4,0,0.6-0.4,0.7c-0.2,0.1-0.4,0.1-0.7,0.2
		c-0.1,0-0.3,0-0.5-0.1l0,0c0.1-0.1,0.1-0.1,0.2-0.2c-0.1-0.1-0.2-0.2-0.2-0.2c-0.3,0.1-0.6,0.5-1,0.1c0.2-0.7,0.5-1.4,0.7-2.1
		c0.2-0.1,0.3-0.1,0.4-0.2c-0.1-0.2-0.2-0.3-0.2-0.4c0-0.1,0.1-0.2,0.1-0.4c0.3,0,0.5-0.2,0.8,0c0-0.3-0.3-0.5-0.4-0.7
		c0.1-0.5,0.5-0.7,1-0.7c0.5,0,1-0.1,1.6,0.1c0.1,0,0.2,0,0.4-0.1c0.1,0,0.2,0,0.4,0c-0.1,0.2-0.2,0.3-0.2,0.4
		c0.1,0.1,0.2,0.1,0.3,0.2c0-0.2,0.1-0.3,0.1-0.5c0.1,0,0.2,0,0.3,0c0.3,0.4,0.3,0.4,0.3,1.5c-0.1,0.1-0.3,0.2-0.5,0.4
		c0.1,0.1,0.1,0.2,0.2,0.2c-0.2,0.1-0.3,0.1-0.6,0.3c0.3,0.2,0.6,0.2,0.9-0.1c0,0.2,0,0.3,0,0.4c-0.6,0-0.7,0.1-0.8,0.6
		c0,0.2-0.1,0.4-0.1,0.6c0.1,0,0.2,0,0.3,0.1c0-0.1,0-0.2,0-0.3c0-0.1,0-0.1-0.1-0.2c0.1-0.2,0.2-0.3,0.5-0.2c0.1,0.5,0,0.9-0.5,1.2
		c0.2,0,0.2,0,0.3,0c0.1,0,0.2,0,0.3,0c0,0.2-0.1,0.4,0,0.6c0,0.2,0,0.4,0.1,0.6c-0.1,0-0.1,0-0.2,0.1c0,0.1,0,0.2,0,0.3
		c-0.2,0.1-0.4,0.1-0.7,0.2c0.3,0.2,0.6,0.3,0.9,0.4c0,0.9,0,1.8,0,2.7c-0.1,0.9,0,1.8-0.1,2.7c-0.1,0.9,0.1,1.8,0.1,2.6
		c-0.2,0.1-0.3,0.2-0.4,0.4c0.3,0.2,0.5,0.5,0.3,0.9c-0.1-0.1-0.2-0.1-0.3-0.2c-0.1,0-0.1,0.1-0.2,0.1c0,0.3,0.2,0.4,0.5,0.5
		c0,0.2,0,0.5,0,0.7c-0.1,0-0.3,0.1-0.5,0.2c0.2,0.1,0.3,0.2,0.5,0.4c0,0.1,0,0.2-0.1,0.5c-0.3-0.1-0.6-0.3-1-0.4c0,0.2,0,0.3,0,0.4
		c0.2,0.1,0.4,0.1,0.6,0.2c0.2,0,0.4,0.2,0.4,0.4c0.1,0.5,0,1.1-0.1,1.6c-0.2,0-0.4,0-0.5,0c0,0.3-0.1,0.5-0.1,0.7
		C227,123.2,226.9,123.4,226.6,123.2C226.7,123.2,226.7,123.2,226.6,123.2z"/>
	<path class="st0" d="M245.5,119.2c0-0.1,0-0.2-0.1-0.4c0.6,0,1.2,0,1.7,0c0.6,0,1.2,0.1,1.8-0.1c0.1,0.1,0.2,0.2,0.3,0.3
		c0.1,0,0.1-0.1,0.2-0.1c0.1-0.1,0.1-0.3,0.2-0.3c0.5-0.3,0.4-0.8,0.4-1.2c0-0.3-0.1-0.6-0.1-0.9c0-0.1,0.1-0.2,0.1-0.3
		c0.2,0,0.3,0,0.5,0.1c-0.1,0.2-0.1,0.3-0.2,0.5c0.3-0.1,0.4-0.1,0.6-0.1c-0.1-0.2-0.1-0.3-0.2-0.5c-0.2-0.1-0.4-0.3-0.6-0.2
		c0-0.2,0-0.4-0.1-0.6c0.1,0,0.2-0.1,0.3-0.1c-0.1-0.1-0.1-0.3-0.2-0.4c0.2,0,0.3,0,0.5-0.1c-0.1-0.3-0.4-0.3-0.7-0.6
		c0,0.3,0,0.5,0,0.6c-0.1,0.1-0.2,0.2-0.3,0.3c-0.2-0.2-0.3-0.3-0.5-0.4c0.2-0.4,0.4-0.7,0.9-0.6c-0.2-0.3-0.3-0.5-0.4-0.7
		c-0.3,0.2-0.3,0.6-0.8,0.6c-0.1-0.2-0.3-0.5-0.4-0.7c-0.3-0.3-0.6-0.6-0.9-0.8c0.2-0.4,0.2-0.4,0.5-0.5c0.1,0.2,0.2,0.5,0.3,0.7
		c0,0,0.1,0,0.1,0c0.1-0.1,0.2-0.3,0.2-0.4c0-0.2,0-0.3,0-0.5c0-0.2,0-0.3-0.1-0.5c-0.2,0-0.3,0-0.5,0.1c-0.1-0.1-0.2-0.2-0.4-0.3
		c-0.1,0.1-0.2,0.2-0.4,0.3c0.1,0.1,0.2,0.1,0.3,0.1c-0.1,0.2-0.2,0.3-0.4,0.5c-0.8-0.3-1.5-0.8-2.3-0.8c-0.8,0-1.6,0-2.4,0.3
		c-0.8,0.3-1.5,0.7-2.1,1.3c-0.5-0.1-0.4-0.8-0.9-0.8c0.1-0.8,0.8-0.3,1.2-0.6c-0.4-0.2-0.8-0.3-1.2-0.4c-0.1,0.1-0.2,0.2-0.3,0.4
		c-0.3,0.1-0.6-0.1-0.8-0.4c0.8-0.8,1.8-1.3,2.9-1.7c0.1,0.2,0.2,0.4,0.3,0.6c-0.1,0.1-0.1,0.1-0.2,0.3c0.3,0,0.5-0.1,0.7-0.1
		c0.1-0.1,0.1-0.2,0.2-0.4c-0.1-0.1-0.2-0.1-0.2-0.1c-0.2,0-0.4-0.1-0.4-0.3c0.7-0.3,0.7-0.3,1.3,0c0-0.1,0-0.2,0-0.3
		c0.1,0,0.3,0,0.5,0c0,0.3-0.1,0.5-0.1,0.7c0,0.1,0.1,0.3,0.2,0.5c0.1-0.4,0.3-0.8,0.4-1.2c0.3-0.2,0.7,0,1,0.3
		c0.1-0.1,0.1-0.2,0.2-0.3c0.4,0,0.8-0.1,1.1,0.3c0,0,0.1-0.1,0.2-0.2c0.9,0.2,1.7,0.5,2.5,1c0.3,0.2,0.5,0.5,0.8,0.7
		c0.4,0.2,0.7,0.6,1,1c0.2,0.2,0.4,0.4,0.2,0.8c0.2,0,0.3,0.1,0.4,0.1c0,0.2,0,0.3-0.1,0.4c0.1,0.1,0.2,0.2,0.4,0.3
		c-0.2,0.1-0.4,0.2-0.5,0.3c0,0,0.1,0.1,0.1,0.1c0.2,0,0.4,0,0.6-0.1c0,0.3,0.1,0.5,0.1,0.8c0,0,0.1,0,0.1,0
		c0.3,1.4,0.7,2.9,0.5,4.4c0.3,0.3,0.1,0.8,0.2,1.3c-0.2-0.1-0.3-0.2-0.5-0.3c0.1,0.3,0.1,0.4,0.2,0.6c-0.4,0.3-1,0.1-1.5,0.2
		c-0.1-0.3-0.1-0.6-0.2-0.8c-0.5,0.1-0.4,0.4-0.4,0.8c-0.5,0-1.1,0-1.6,0c0-0.1,0-0.2,0-0.3c-0.2,0-0.4,0-0.6,0c0,0,0,0.1-0.1,0.2
		c-0.2,0-0.4,0-0.7,0c0-0.2,0.1-0.3,0.1-0.5c-0.4-0.2-0.9,0.1-1.2-0.3c0-0.1,0-0.3,0.1-0.4c-0.1,0-0.3,0-0.4,0
		C245.8,119.3,245.7,119.3,245.5,119.2L245.5,119.2z"/>
	<path class="st0" d="M292.7,59.1c0.1,0.1,0.1,0.1,0.1,0.1c0.2-0.1,0.4-0.2,0.6-0.4c0,0.2,0,0.3,0,0.4c0.1,0,0.2-0.1,0.4-0.1
		c-0.1-0.1-0.1-0.2-0.1-0.2c0,0,0.1-0.1,0.1,0c0.7,0,1.4,0.1,1.9,0.5c-0.2,0.2-0.4,0.5-0.6,0.7c0,0.2,0,0.4-0.1,0.7
		c-0.1-0.1-0.1-0.1-0.2-0.2c-0.1,0.1-0.1,0.2-0.2,0.3c-0.3-0.1-0.5-0.1-0.8,0.2c0.1,0.2,0.2,0.3,0.4,0.5c0.2-0.1,0.4-0.3,0.6-0.4
		c0.2,0.1,0.4,0.1,0.6,0.2c0.2,0.1,0.4,0.1,0.5-0.1c-0.2-0.3-0.7,0-0.8-0.5c0.1,0,0.2-0.1,0.3-0.1c-0.1-0.1-0.1-0.2-0.2-0.3
		c0.1-0.1,0.2-0.2,0.4-0.4c0.1,0,0.3,0,0.5,0c0.5,0.6,0.3,1.3,0.4,2c-0.2,0-0.3,0-0.5-0.1c0,0.5-0.6,0.5-0.8,0.9
		c0.4,0.1,0.6-0.4,1-0.2c0.2,0.3-0.1,0.5-0.2,0.8c-0.2,0-0.4,0-0.6,0c0,0.5-0.3,0.6-0.7,0.7c0-0.2,0-0.3,0-0.5c0,0-0.1-0.1-0.2-0.1
		c0,0.2-0.1,0.4-0.1,0.6c-0.3,0.1-0.6,0.1-1.1,0.2c0.1-0.3,0.2-0.4,0.3-0.5c-0.4-0.2-0.4,0.5-0.8,0.3c-0.1-0.2-0.3-0.3-0.5-0.6
		c0-0.1,0-0.2,0-0.4c-0.1,0-0.2-0.1-0.3-0.2c-0.1,0.2-0.1,0.4-0.2,0.6c-0.1,0-0.3,0-0.4,0c-0.4-0.4-0.7-0.9-0.6-1.5
		c0.1-0.3-0.1-0.7,0-1.1C291.1,60.3,291.7,59.2,292.7,59.1z"/>
	<path class="st0" d="M259.1,47.8c0.5,0.3,1.1,0.1,1.5,0.4c0.1,0,0.3-0.1,0.4-0.1c0.2,0,0.5,0,0.7,0c0.4,0,0.9,0,1.3-0.1
		c0,0.1,0,0.2,0,0.3c0.1,0.1,0.2,0.1,0.3,0.2c0,0.2,0,0.3,0,0.5c-0.2,0-0.4,0-0.5,0c0,0.1,0.1,0.2,0.1,0.3c0,0.1,0,0.2,0.1,0.3
		c0.2-0.2,0.5-0.3,0.7-0.5c0.1-0.3,0-0.7-0.2-1c0.2-0.5,0.3-0.5,0.8-0.4c0.3-0.2,0.6-0.3,0.9-0.4c0.2-0.1,0.4-0.1,0.6-0.3
		c0.3-0.3,0.7-0.2,1.1,0c0.1,0.2,0.2,0.4,0.4,0.6c0,0.1-0.1,0.3-0.1,0.4c-0.1,0.1-0.2,0.1-0.4,0.2c0.1,0.1,0.2,0.2,0.4,0.3
		c0.1-0.1,0.2-0.2,0.3-0.2c0,0,0.1,0.1,0.1,0.1c0,0.2,0,0.4-0.2,0.5c-0.7,0.4-1.4,0.7-2.3,1c0.2-0.3,0.2-0.3,0.6-0.6
		c-0.2-0.2-0.2-0.2-0.7,0c-0.1,0.1-0.2,0.2-0.3,0.3c-0.3,0.5-0.7,0.7-1.3,0.7c-0.1-0.1-0.2-0.2-0.3-0.4c-0.1,0.2-0.3,0.3-0.4,0.5
		c-0.2,0-0.4-0.1-0.6-0.1c0,0.1,0,0.1-0.1,0.2c-1.4,0.1-2.9,0.1-4.3-0.4c0.2-0.3,0.4-0.6,0.6-0.9c0,0,0-0.1-0.1-0.2
		c0.1,0,0.2,0,0.3,0c0,0.1,0.1,0.2,0.2,0.3c0-0.2,0-0.4,0.1-0.5c0.1,0,0.1,0,0.2,0C259,48.4,259,48.1,259.1,47.8z"/>
	<path class="st0" d="M226.6,123.2C226.7,123.2,226.7,123.2,226.6,123.2c0.2,0.1,0.4,0,0.6,0c0.1,0.1,0.3,0.2,0.5,0.3
		c0.1-0.1,0.2-0.2,0.3-0.4c0,0.7,0,1.3,0,2c-0.1,0.1-0.3,0.1-0.4,0.2c0,0.2,0,0.4,0,0.7c0.1,0.1,0.2,0.2,0.3,0.4c-0.3,0-0.5,0-0.7,0
		c0,0.2-0.3,0.3-0.1,0.7c0.1-0.1,0.2-0.2,0.3-0.3c0.3,0,0.5,0,0.7,0.3c-0.1,0.5-0.1,1.1-0.2,1.6c0,0.3,0,0.5,0,0.8
		c0,0.2,0,0.5,0,0.8c-0.2,0-0.3,0.1-0.5,0.1c0,0.1-0.1,0.2-0.1,0.4c-0.2,0-0.4,0-0.7-0.1c0.1-0.1,0.1-0.2,0.2-0.3
		c0-0.1,0.1-0.2,0.1-0.3c-0.2-0.1-0.4-0.1-0.5-0.2c-0.4,0.3,0.1,0.5,0.1,0.8c-0.4,0.2-0.8,0-1.2-0.2c0-0.1,0.1-0.1,0.1-0.3
		c-0.1-0.1-0.2-0.2-0.2-0.3c0-0.6,0-1.1,0-1.6c0.2,0,0.4,0.2,0.7,0c-0.1-0.1-0.2-0.2-0.3-0.4c-0.2,0-0.3,0-0.4,0.1
		c0-0.2,0-0.3,0-0.5c0.1,0,0.2-0.1,0.3-0.2c-0.1-0.1-0.2-0.1-0.4-0.1c0-0.4,0.5-0.3,0.7-0.5c0-0.4-0.4-0.6-0.7-0.7
		c0-0.8,0-1.7,0-2.6c0.1,0,0.2,0,0.3,0c0,0.2,0,0.3,0,0.4c0.2,0.1,0.3,0.2,0.5,0.4c0.1-0.1,0.3-0.2,0.3-0.3c0-0.3,0.2-0.4,0.4-0.6
		C226.6,123.4,226.6,123.3,226.6,123.2z"/>
	<path class="st0" d="M300.2,127.7c0.1-0.1,0.3-0.2,0.4-0.3c0.4,0.1,0.3,0.4,0.5,0.6c-0.1,0.2-0.2,0.3-0.2,0.5
		c-0.2,0.1-0.4,0.1-0.6,0.2c-0.1,0.4,0.6,0.4,0.5,0.9c-0.4,0-0.6-0.3-0.8-0.5c0-0.1,0-0.2,0.1-0.4c-0.2,0-0.3,0.1-0.5,0.1
		c-0.3-0.4-0.7-0.8-1.1-1.3c0.4,0.1,0.6,0.2,0.9,0.3c0.1-0.1,0.2-0.2,0.2-0.3c0.2,0.1,0.3,0.2,0.5,0.3
		C300.2,127.8,300.2,127.7,300.2,127.7z"/>
</g>
<g>
	<polygon class="st1" points="162.4,48.3 87.4,91.6 87.4,5 	"/>
	<polygon class="st1" points="12.1,101.3 87.1,144.6 87.1,58 	"/>
	<polygon class="st2" points="115.8,74.9 86.6,91.8 86.6,58 	"/>
	<polygon class="st3" points="12.1,48.3 87.1,91.6 87.1,5 	"/>
	<polygon class="st4" points="56.8,74.9 86.1,91.8 86.1,58 	"/>
	<polygon class="st5" points="116,74.9 86.7,58 86.7,91.8 	"/>
	<g>
		<path class="st0" d="M149.7,95.1c0-0.2,0.1-0.5,0-0.6c-0.2-0.2-0.5-0.3-0.7-0.4c-0.4,1.2-1,0.2-1.2,0c-1.3-0.6-2.6-1.4-3.9-2.2
			c-4.1-2.4-8.2-4.8-12.4-7.2c0.1-0.1,0.2-0.3,0.3-0.6c-1.3,0.2-5.2-2-6-3.3c-0.2,0.1-0.5,0.3-0.6,0.2c-1.7-1-3.3-1.9-5-3
			c-2-1.3-4-2-6.3-0.4c-0.5,0.4-1.2,0.5-1.7,0.7c-0.1,0-0.2,0.2-0.2,0.2c-0.5,0.2-0.8,0.6-1.2,0.8c-3.4,2-6.7,4-10.1,6
			c-3.4,2-6.9,3.9-10.3,5.8c-1.3,0.8-2.4,1.8-2.6,3.5c-0.1,1.3-0.1,2.7-0.2,4c0,0.4-0.3,0.9-0.5,1.4c0.7,1.1,0.8,3.4,0.1,4
			c0.2,0.6,0.4,1,0.4,1.4c0,3.2-0.2,6.5-0.2,9.7c0,3.1,0.1,6.2,0.2,9.3c0,1,0,2.1,0,3.1c0,0.9-0.1,1.7-0.1,2.6c0,1.5,0,2.9,0,4.2
			c-0.4,0.3-0.8,0.5-1.2,0.7c0.4,0.4,0.8,0.8,1.4,1.4c0,2,0,4.4,0,6.8c0,0.4-0.2,0.9-0.5,1.3c-0.4,0.5-0.8,0.6-1.2-0.1
			c-0.1-0.1-0.3-0.2-0.5-0.3c-0.8-0.3-1.6-0.5-2.3-0.9c-3.7-2.1-7.4-4.2-11.1-6.3c-0.5-0.3-1-0.6-0.8-1.4c0-0.2-0.2-0.4-0.3-0.6
			c-0.1,0-0.2,0.1-0.3,0.1c0.1,0.4,0.2,0.7,0.4,1.2c-0.9-0.5-1.6-0.9-2.3-1.3c0.1-0.3,0.3-0.6,0.3-0.7c-0.6,0-1.2,0-2,0
			c0.3-0.4,0.4-0.5,0.5-0.7c0.1-0.1,0.1-0.3,0.2-0.5c-2.3,0.7-3.5-1.2-5.3-1.7c0.4-0.3,0.7-0.6,1.3-1c-0.7,0-1.3-0.2-1.5,0
			c-0.5,0.6-0.8,0.2-1.3-0.1c-2.9-1.7-5.8-3.3-8.7-4.9c-3.1-1.8-6.1-3.6-9.2-5.4c0.2-0.1,0.3-0.2,0.6-0.4c-0.6,0-1,0.1-1.3,0
			c-1.1-0.6-2.3-1.1-3.3-1.8c-1.6-1.2-3.6-1.7-5-3.3c-0.8-0.9-2.3-1-3.4-1.6c-0.9-0.5-1.8-1-2.7-1.6c-0.3-0.2-0.3-0.6-0.6-0.7
			c-0.5-0.2-1.1-0.2-1.6-0.5c-1.8-1-3.6-1.9-5.3-3c-0.9-0.6-2.3-0.7-2.5-2.1c0,0-0.1,0-0.2-0.1c-0.1,0.2-0.1,0.3-0.1,0.4
			c-2-1.3-4.5-1.8-5.9-4c-0.8,0.9-1.2-0.1-1.5-0.5c-0.5-0.7-0.1-1.2,0.5-1.5c2.1-1.3,4.2-2.5,6.2-3.7c0.6,0.2,1.1,0.4,1.6,0.6
			c0.1-0.1,0.1-0.2,0.2-0.4c-0.3-0.2-0.6-0.4-1.1-0.7c0.8-0.2,1.2-1.2,2.1-0.5c0.3,0.2,0.9-0.6,0.7-1.1c3.2-1.8,6.4-3.7,9.5-5.5
			c0.2,0.3,0.3,0.5,0.3,0.4c0.4-0.4,0.7-0.8,1.1-1c0.8-0.5,1.7-0.9,2.5-1.4c3.3-2,6.6-3.9,9.9-5.9c2.8-1.7,5.7-3.3,8.5-5
			c0.9-0.6,0.9-1,0-1.6c-2.5-1.5-5-2.9-7.5-4.4c-2.7-1.6-5.3-3.2-7.9-4.8c-2.3-1.4-4.8-2.6-7.1-4c-1.4-0.8-2.8-1.6-4.1-2.4
			c-3.5-2-7-4-10.5-6.1c-0.8-0.5-1.5-1.2-2.3-1.7c-0.6-0.4-1.4-0.5-2-0.8c-1-0.6-1-1.2-0.2-1.8c0.9-0.7,2-1.5,3.1-2
			c2.2-1,4.1-2.6,6.4-3.5c2.1-0.8,3.9-2.5,5.9-3.7c3.9-2.3,7.9-4.7,11.9-6.9c1.5-0.8,2.8-2.2,4.8-1.7c0,0,0.1-0.1,0,0
			c-0.2-0.2-0.4-0.4-0.6-0.7c3.4-2,6.6-3.8,9.8-5.6c0.2-0.1,0.6,0,0.6,0c0.3-0.4,0.5-0.8,0.9-1c2.7-1.6,5.5-3.2,8.3-4.7
			c2.1-1.1,3.9-2.6,6.2-3.3c1.2-0.4,2.1-1.5,3-2.1c0.6,0.4,1,0.6,1.3,0.9c0-0.1,0.1-0.1,0.1-0.2c-0.2-0.3-0.4-0.7-0.6-1.1
			c1.3-0.7,2.6-1.4,3.9-2.1c0,0.3-0.1,0.4-0.1,0.7c0.5-0.6,0.9-1.1,1.5-1.5c2-1.5,4.4-2.4,6.5-3.8c2.3-1.6,4.6-1.2,6.9,0.2
			c3.9,2.4,7.9,4.7,11.9,7c0.2,0.1,0.4,0.4,0.8,0.9c0.8-0.1,1.9,0,2.3,1.4c0.2-0.1,0.4-0.2,0.6-0.2c0,0.3-0.1,0.6-0.1,0.8
			c3,0.5,3.8,0.9,3.8,1.9c0.3,0,0.6-0.1,0.8,0c1.7,0.6,3,2,4.6,2.7c1.7,0.7,3.2,1.8,4.7,2.8c0.3,0.2,0.5,0.6,0.7,0.9
			c0.2,0,0.6-0.2,0.8-0.1c3.2,1.8,6.4,3.6,9.6,5.5c2.3,1.3,4.6,2.7,6.9,4c1.3,0.8,2.6,1.5,4,2.3c-0.5,0.2-0.9,0.3-1.5,0.5
			c1.2,0.1,2.3,0,3,0.4c4.3,2.4,8.5,4.9,12.8,7.4c1.3,0.7,2.6,1.4,3.9,2.2c0.5,0.3,1.1,0.5,1.3,0.9c0.3,0.7,0.4,1.5,0.6,2.2
			c0.5-0.2,0.7-0.3,1-0.3c0.1,0.1,0.1,0.3,0.2,0.4c-0.8,0.4-1.6,0.8-2.4,1.2c-1.9,1.1-3.7,2.4-5.6,3.5c-3.7,2.2-7.4,4.3-11.1,6.4
			c-2.1,1.2-4.1,2.4-6.2,3.6c-3.8,2.2-7.6,4.4-11.4,6.5c-0.4,0.2-1,0.3-1.2,0.4c-1.8,1.3-3.5,2.5-5.5,3.9c6.3,4.1,12.7,7.4,19,11.2
			c-0.3,0.3-0.6,0.5-0.9,0.7c0,0.1,0.1,0.2,0.1,0.3c0.5-0.2,1-0.3,1.7-0.6c1.1,0.7,2.4,1.5,3.7,2.3c4.5,2.6,8.9,5.1,13.4,7.6
			c0.8,0.4,1.4,1,2.2,1.4c0.8,0.5,1.7,0.7,2.4,1.3c0.3,0.3,0.4,1,0.3,1.5c-0.2,0.6-0.7,1-1.4,0.6c-1.4-0.7-2.8-1.5-4.1-2.2
			c-1.2-0.7-2.4-1.4-3.6-2.1c0.2-0.3,0.4-0.5,0.5-0.6c-1.2-0.3-2.4-0.6-3.6-1C149.6,95.3,149.7,95.2,149.7,95.1z M152.7,44.9
			c-6.3-3.6-12.5-7.2-18.7-10.8c0-0.2,0.1-0.5,0.1-0.7c-1.5,0.7-2.2-0.6-3.2-1c-1-0.4-1.8-1.2-2.9-1.9c-0.5-0.2-1.4-0.4-2-0.9
			c-2.1-1.6-4.6-2.6-6.8-3.9c-3.8-2.3-7.7-4.5-11.6-6.7c-0.9-0.5-1.8-1-2.6-1.5c-1.6-1-3.3-1.9-5-2.9c-0.2-0.1-0.4-0.5-0.4-0.9
			c-0.1-0.3,0-0.6,0-1.3c-0.4,0.6-0.6,1-0.9,1.4c-0.4-0.3-1.2-0.3-1-1.1c0,0-0.3-0.2-0.4-0.2c-1.6,0.2-2.5-1.1-3.8-1.7
			C92,10,90.5,9.2,89,8.4C88.4,8.1,88,8.4,88,9c-0.1,1.2-0.2,2.4-0.2,3.6c0,6.9,0,13.8,0,20.7c0,0.5-0.4,0.9-0.6,1.5
			c0,0,0.3,0.1,0.5,0.2c0,3.3,0,6.6,0,9.9c0,0.9,0.2,1.9,0.1,2.8c0,0.5-0.4,0.9-0.7,1.3c-0.2,0.3-0.5,0.5-0.7,0.7
			c0,0,0.2,0.2,0.2,0.2c0.3-0.2,0.6-0.4,0.8-0.6c0.1-0.1,0.1-0.1,0.3-0.4c0,1.6,0,3.1,0,4.6c-0.1,1.8,0.6,3.1,2.1,4
			c3.3,2,6.7,4,10.1,6c0.3,0.2,0.6,0.6,0.8,0.9c0.3,0.4,0.5,0.8,1,0.3c0,0,0.2,0,0.2,0.1c1.2,0.7,2.5,1.3,3.7,2.1
			c0.3,0.2,0.5,0.6,0.6,0.7c0.3,0,0.7-0.1,0.9,0c2.7,1.6,5.4,3.2,8.1,4.8c1.1,0.6,2.4,0.5,3.3,0c3.2-1.7,6.3-3.6,9.4-5.5
			c0.4,0.2,0.7,0.4,0.7,0.4c0.4-0.5,0.5-1.1,0.9-1.3c1-0.6,2.1-1.1,3.2-1.6c0.1-0.1,0.3,0,0.1,0c1.4-0.9,2.8-1.9,4.2-2.7
			c1.1-0.7,2.3-1.4,3.5-1.9c2-0.8,3.5-2.4,5.6-3.2c0.5-0.2,1.1-0.3,1.5-0.6c0.8-0.6,1.6-1.3,2.4-1.8c2.5-1.5,5.1-2.9,7.6-4.4
			c0.5-0.3,0.8-0.9,1.1-1.2c-1.7-1.9-4.6-2-5.9-4.6C152.6,44.3,152.6,44.6,152.7,44.9z M52.2,71.6c0.1,0.1,0.1,0.2,0.2,0.2
			c0.3-0.1,0.5-0.2,0.8-0.4c0.6,0.3,1.4,0.7,2.2,1c1.6,0.5,3,0.1,4.3-0.8c0.9-0.6,1.8-1.4,2.7-1.5c1.1,0,1.3-0.8,2-1.2
			c1.1-0.6,2.4-0.9,3.3-1.7c2.4-2.1,5.3-3.2,8-4.9c1.9-1.2,4-2.1,6-3.3c1-0.6,2-1.3,2.7-2.1c0.6-0.7,0.9-1.7,1-2.7
			c0.1-1.8,0-3.7,0-5.6c0.3,0.1,0.6,0.3,0.8,0.4c0.3-0.9,0.2-0.9-0.8-0.9c0-1.8,0-3.5,0-5.3c0-4.1,0-8.3,0-12.4c0-1.8,0-3.7,0-5.5
			c0-3.3,0-6.7,0-10c0-1,0.2-2,0.2-2.8c0.7,0.4,1.2,0.7,1.7,0.9c0.4-0.8,0.4-0.8-1.9-1.8C85.2,8.1,85,8,82.2,9.5
			c-0.6,0.3-1.1,0.7-1.7,1c-0.4,0.2-0.8,0.2-1.5,0.4c-0.9,1.4-2.5,2.3-3.8,2.1c-0.3,0.4-0.5,0.9-0.9,1.1c-4.4,2.6-8.8,5.2-13.2,7.7
			c-0.7,0.4-1.3,0.7-2,1.1c-0.4,0.2-0.9,0.2-1.4,0.3c-0.6,0.1-1.1,0.2-1.7,0.3c0,0.1,0,0.2,0.1,0.3c0.3,0,0.7-0.1,1-0.1
			c0,0.1,0.1,0.1,0.1,0.2c-2.3,1.3-4.5,2.6-6.8,4c-0.2-0.2-0.3-0.4-0.3-0.3c-0.9,0.7-1.8,1.5-2.7,2.1c-1.4,0.9-2.8,2-4.3,2.3
			c-1,0.2-1.3,0.9-1.9,1.3c-2.1,1.2-4.2,2.4-6.3,3.6c-4.6,2.7-9.2,5.3-13.9,8c-0.5,0.3-1.1,0.3-1.6,0.4c0,0.1,0.2,0.2,0.3,0.4
			c-1.1,0.7-2.2,1.3-3.4,2c-1.4,0.9-1.4,1.4,0,2.3c1.1,0.7,2.2,1.3,3.3,1.9c1.3,0.7,2.6,1.5,4,2.2c0,0,0.1,0,0.1,0
			c0.6,1.3,2.1,1.1,3.1,1.8c1.1,0.8,2.3,1.4,3.5,2.1c1.2,0.7,2.4,1.3,3.6,2.1c1.2,0.8,2.4,1.7,3.6,2.4c1.3,0.7,2.7,1.3,4,2
			c2.5,1.4,5.1,2.8,7.5,4.4c0.5,0.3,1,0.4,1.5,0.8c0.7,0.5,1.4,0.8,2.2,1.3C52.5,71.3,52.3,71.5,52.2,71.6z M31.9,110.9
			c2.6,1.5,5.3,2.8,7.6,4.5c1.6,1.2,3.8,1.5,4.9,3c1.1,0.5,2.1,1,3,1.5c2.3,1.3,4.7,2.6,7,4.1c1.2,0.8,2.5,1.2,3.5,2
			c1.2,1.1,2.9,1.3,4.1,2.3c1.4,1,3,1.8,4.5,2.7c1.5,0.9,3,1.7,4.5,2.6c1.5,0.9,3.1,1.7,4.6,2.6c2.3,1.3,4.5,2.7,6.8,4
			c0.7,0.4,1.5,0.5,2.5,0.9c0.1-1.8,0.3-3.4,0.3-5c0-4-0.1-8.1,0-12.1c0.1-3.7-0.2-7.5,0-11.2c0-1.1,0.3-2.1,0.4-3.2
			c-0.1-0.1-0.4-0.4-0.4-0.6c0-3.3,0-6.6,0.1-9.9c0-1.6,0-3.3,0-4.9c-0.1,0-0.2,0-0.3,0c0.3-0.2,0.6-0.5,1-0.7
			c-0.4-0.5-0.7-1.2-1.2-0.1c-2.1-2.5-5.3-3.6-8-5.3c-2.4-1.5-4.8-2.9-7.3-4.3c-0.4-0.2-0.8-0.3-1.2-0.5c0.1-0.1,0.3-0.2,0.4-0.3
			c-0.6-0.3-1.3-0.4-1.9-0.8c-1.6-0.9-3.1-1.9-4.7-2.8c-0.4-0.2-0.8-0.3-0.6-0.9c0-0.1-0.3-0.3-0.5-0.4c-0.1,0.1-0.2,0.3-0.4,0.5
			c-0.6-0.3-1.2-0.9-1.8-1c-1.2-0.3-2.6-0.9-3.7-0.5c-1.7,0.6-3.1,1.8-4.7,2.8c-0.8,0.5-1.5,1-2.3,1.4c-0.4,0.2-1,0.2-1.3,0.3
			c-0.6,0.5-1.1,1.1-1.7,1.4c-3,1.7-5.9,3.4-8.9,5.1c-0.4,0.2-1,0.2-1.5,0.3c-0.1,0.2-0.1,0.7-0.3,0.8c-4,2.3-7.9,4.6-11.9,6.8
			c-1,0.6-2,1.2-3,1.8c-0.3,0.2-0.7,0.2-1.1,0.3c-0.2,0.2-0.4,0.5-0.7,0.7c-0.6,0.4-1.3,0.8-1.9,1.3c-1,0.6-0.6,1.3,0.1,1.8
			c0.8,0.6,1.7,1.1,2.6,1.6c3.2,1.9,6.4,3.7,9.7,5.6c0.5,0.3,0.9,0.8,1.3,1.1c0.6,0.2,1.2,0.3,1.9,0.5c-0.3,0.3-0.5,0.5-0.8,0.7
			c0.4,0.3,0.8,0.6,1.3,0.9C31.9,111.6,31.9,111.4,31.9,110.9z M87.1,74.8c2.1,1.6,0.7,3.6,1.3,5.4c-0.4,0.1-0.7,0.2-1,0.2
			c0,0.1,0,0.2,0,0.3c0.3,0.1,0.6,0.1,1.1,0.3c-0.2,0.9-0.5,1.9-0.6,2.9c-0.1,0.4-0.1,0.8,0,1.2c0.1,1,0.4,1.9,0.4,2.9
			c0.1,1.3,0.6,1.6,1.6,1c2.2-1.3,4.5-2.7,6.8-4c0.5-0.3,1.1-0.7,1.7,0c0.2,0.2,0.6,0.1,1.1-0.1c-0.4-0.2-0.8-0.4-1.2-0.7
			c1.7-1,3.5-2,5.3-3.1c3-1.8,6.1-3.5,9.1-5.3c1.4-0.8,1.3-1.3,0-2c-3.2-1.9-6.5-3.8-9.8-5.6c-3.9-2.3-7.9-4.6-11.8-6.8
			c-0.7-0.4-1.5-0.6-2.3-0.8c-0.1,0.8-0.3,1.5-0.4,2.3c-0.1,1.4,0,2.9,0,4.3c0,0.2,0.1,0.4,0,0.6c-0.6,1.2,0.2,2.3,0,3.5
			c-0.1,1.2,0,2.5,0,3.8C87.8,74.9,87.6,74.8,87.1,74.8z M83,60.5c-0.7,0.7-1.1,1.3-1.8,1.7c-4,2.3-8.1,4.6-12.1,6.9
			c-2.6,1.5-5.2,3-7.8,4.5c-0.5,0.3-0.8,0.7-1.5,1.3c1.1,0.7,1.9,1.4,2.9,1.9c2.3,1.4,4.7,2.7,7,4c0.1,0.1,0.2,0.4,0.3,0.5
			c0.1,0.1,0.2,0.4,0.3,0.4c2-0.3,3.3,1.4,4.9,2.2c2.8,1.4,5.5,3.2,8.2,4.8c1,0.6,1.6,0.2,1.6-1c0-2.7,0-5.4,0-8.1
			c0-2.2,0.3-4.3,0.3-6.5c0-3.1-0.2-6.3-0.3-9.4c0-0.7,0.2-1.4,0.4-2.3C84.6,61,83.6,60.7,83,60.5z"/>
	</g>
</g>
</svg>
