<?xml version="1.0" encoding="utf-8"?>
<!-- Generator: Adobe Illustrator 19.2.1, SVG Export Plug-In . SVG Version: 6.00 Build 0)  -->
<svg version="1.1" id="Layer_1" xmlns="http://www.w3.org/2000/svg" xmlns:xlink="http://www.w3.org/1999/xlink" x="0px" y="0px"
	 viewBox="0 0 850 416" style="enable-background:new 0 0 850 416;" xml:space="preserve">
<style type="text/css">
	.st0{fill-rule:evenodd;clip-rule:evenodd;fill:#F5F5F5;}
	.st1{fill-rule:evenodd;clip-rule:evenodd;fill:#EEEEEE;}
	.st2{fill-rule:evenodd;clip-rule:evenodd;fill:#E0E0E0;}
	.st3{fill-rule:evenodd;clip-rule:evenodd;fill:#BDBDBD;}
	.st4{fill:#757576;}
	.st5{fill:#F37046;}
</style>
<g>
	<polygon class="st0" points="169.7,29.4 697.4,29.2 647.6,121.9 220.5,121.7 	"/>
	<polygon class="st1" points="214.6,115.1 653,113 601.9,206 268.5,208.9 	"/>
	<polygon class="st2" points="267.1,208.2 601.9,207.4 548.5,307.1 321.8,305.9 	"/>
	<polygon class="st3" points="321.8,305.9 548.3,304.9 503,392.9 369.8,391.9 	"/>
	<g>
		<path class="st4" d="M708.1,22.6c-2.8,6.4-6.2,12-9.3,17.8c-0.1,0.3-0.7,0.3-1,0.5c0,3.3-2.6,5.5-3.7,8.4
			c-0.2,0.4-0.8,0.7-1.3,1.1c0.4,2.1-1.1,3.7-2.1,5.2c-0.9,1.3-1.4,2.7-2.2,4c-1.7,2.8-3,5.8-4.6,8.6c-2,3.9-4.1,7.7-6.2,11.6
			c-1.6,3-3.3,6-4.8,9c-0.5,0.9-1.7,1.3-1.7,2.8c0,1-1.1,1.9-1.4,3c-0.3,1.3-1.8,1.8-1.9,3.3c-0.1,1.2-1,2.3-1.7,3.4
			c-0.2,0.3-0.7,0.5-1,0.8c-0.2,0.2-0.4,0.5-0.5,0.8c-0.2,0.6,0,1.3-0.3,1.7c-1.6,2.4-2.6,5.1-4.1,7.6c-1.5,2.5-2.8,5.2-4.2,7.8
			c-0.5,0.9-1.3,1.6-1.5,2.7c-0.1,0.3-0.6,0.6-0.9,0.9c-0.2,0.2-0.5,0.4-0.5,0.6c0.3,1.3-0.6,2.2-1.1,3.2c-2.6,5-5.2,10.1-8,15
			c-1.1,1.8-1.5,4.2-3.5,5.5c-0.5,3.4-3,5.9-4.3,9c-0.3,0.7-1.1,1.3-1.5,2c-0.3,0.6-0.3,1.3-0.6,1.9c-0.6,1.4-1.4,2.7-2.1,4
			c-4.9,9-9.7,18-14.6,26.9c-1.2,2.1-2.2,4.3-3.4,6.4c-1.2,2.2-2.3,4.3-3.5,6.5c-1.2,2.3-2.3,4.5-3.6,6.7c-3.3,5.5-6,11.3-9.1,16.9
			c-3.2,5.6-6.1,11.4-9.1,17.1c-2.7,5-5.3,10.2-8.2,15.1c-2.3,3.8-3.8,7.9-6.2,11.6c-0.7,1.1-1.5,2.1-2.2,3.2
			c-0.4,0.6-0.6,1.3-0.9,2c-2.4,4.9-4.8,9.7-7.4,14.5c-1.5,2.8-3.4,5.4-4.7,8.3c-0.5,1-1.4,1.7-1.6,3c-0.1,1.1-1,2.1-1.6,3.2
			c-2.7,4.8-5.4,9.5-8.1,14.3c-1.1,1.9-1.9,3.9-2.9,5.8c-2.9,5.4-5.9,10.8-8.8,16.3c-1.8,3.4-3.5,6.8-5.3,10.1
			c-3.8,7.1-7.6,14.2-11.4,21.2c-4.1,7.6-8.2,15.1-12.2,22.7c-1.1,2-2.3,3.1-4.9,2.8c-3.4-0.4-6.9-0.1-10.4-0.1
			c-6.1-0.1-12.1-0.2-18.2-0.2c-3.6,0-7.2,0.1-10.7,0c-4.9-0.2-9.8,0.2-14.7,0c-4.8-0.2-9.7,0.1-14.5,0c-3-0.1-6-0.6-8.9-0.4
			c-4,0.3-7.9,0-11.9,0.1c-6.9,0.1-13.7,0.1-20.6,0c-2.4,0-4.7-0.5-7-0.6c-1.8-0.1-3.6,0.4-5.4,0.3c-2.9-0.1-5.9,0.5-8.8-0.5
			c-0.4-0.1-0.9,0.2-1.4,0.2c-2.4,0.1-4.6,0.2-5.9-2.6c-1.5-3.1-3.5-5.8-4.7-9c-0.6-1.7-1.9-3.2-2.8-4.8c-1.3-2.3-2.6-4.6-4-6.8
			c-0.8-1.3-1-2.8-2.1-4c-1-1.2-1.6-2.7-2.4-4.1c-0.8-1.4-1.6-2.8-2.3-4.2c-3.5-6.7-7.3-13.1-10.9-19.7c-2.8-5.2-5.7-10.4-8.6-15.6
			c-2.8-5.1-5.7-10.2-8.5-15.3c-4.4-8-8.8-16.1-13.2-24.2c-2.1-3.9-4.3-7.8-6.5-11.7c-1.2-2.1-2.3-4.3-3.5-6.4
			c-0.3-0.5-0.8-1.1,0.5-1.6c-2.2-0.5-2.7-2.4-3.5-3.8c-3.7-6.6-7.3-13.2-11-19.8c-3.1-5.7-6.2-11.4-9.4-17.1
			c-3.7-6.6-7.3-13.2-11-19.9c-2-3.7-4-7.5-6-11.3c-2.3-4.2-4.7-8.2-7-12.4c-3.5-6.5-7-13-10.5-19.5c-1.6-3-3.4-5.9-5.1-8.9
			c-4-7.1-7.9-14.3-11.9-21.5c-3.1-5.6-6.2-11.3-9.3-17c0.4-0.4,0.7-0.8,1.2-1.4c-0.7,0.1-1.2,0.2-1.8,0.3c-1.5-2.8-3.1-5.6-4.6-8.3
			c-0.7-1.3-1.1-3-2.1-3.9c-0.6-0.6,0.4-1.6-0.9-1.9c-0.7-0.2-1.1-1.5-1.5-2.3c-0.4-0.8-0.8-1.6-1.2-2.3c-0.4-0.8-0.8-1.5-1.3-2.3
			c-0.1-0.2-0.4-0.3-0.5-0.5c-0.3-1-0.3-2.7-0.9-3c-1.2-0.5-1.4-1.5-2-2.3c-0.6-1-1.1-2.1-1.7-3.2c-0.5-1-1.1-2-1.6-3
			c-0.5-1-0.9-2-1.4-2.9c-1.8-3.2-3.6-6.3-5.4-9.5c-0.5-0.9-1.8-1.5-0.9-2.8c0,0,0-0.2-0.1-0.2c-2.7-2-3.4-5.3-5.1-7.9
			c-1.7-2.6-3.2-5.4-4.5-8.2c-0.6-1.3-1.4-2.3-1.9-3.6c-0.6-1.4-1.6-2.6-2.2-3.9c-0.5-1.1-1.6-2-1.2-3.5c0.2-0.6-0.9-0.5-1.3-1.3
			c-1.7-3.5-3.8-6.8-5.8-10.1c-0.7-1.2-1.5-2.5-2.1-3.8c-0.8-1.7-0.3-2.4,1.5-2.4c3.2,0.1,6.3-0.1,9.5,0c0.5,0,1.1,0.3,2.1,0.6
			c0.7-0.3,2-1.2,3.5-0.2c0.1,0.1,0.3,0.2,0.4,0.1c2.6-1.1,5.3-0.4,8-0.3c2.9,0,5.9-0.2,8.8-0.2c3.3,0,6.5,0.3,9.8,0.3
			c3.3,0,6.5-0.2,9.8-0.3c5.6,0,11.2,0,16.7,0c6.9,0,13.8,0,20.8,0c13.7,0,27.4,0,41.2,0c5.5,0,10.9,0,16.4,0c5.7,0,11.3,0,17,0
			c2.4,0,4.7,0,7.1,0c0.7,0,1.5,0.3,2.2,0.5c0.2,0,0.4,0.1,0.6,0.1c0.7-0.1,1.5-0.4,2.2-0.4c3.6,0,7.2-0.2,10.9,0.2
			c3.4,0.3,6.8-0.1,10.2-0.3c1.5-0.1,3,0.7,4.6,0.2c0.2-0.1,0.4,0.4,0.7,0.5c1.3,0.6,2.6,1,3.9-0.1c0.5-0.4,1.3-0.5,2-0.5
			c8.1,0,16.3-0.1,24.4,0c3.9,0,7.9-0.1,11.8,0c4,0,8,0,12,0c3.9,0,7.8,0,11.7,0c4,0,8,0,12,0c8.1,0,16.3,0,24.4,0
			c9,0,18.1,0.1,27.1,0.1c10.6,0,21.3-0.1,31.9-0.1c7.6,0,15.2-0.1,22.9,0.1c4,0.1,8-0.2,12.1-0.1c1.1,0.1,2.2,0,2.8,1.4
			c0.9-1.3,2.2-1.4,3.6-1.4c13.4,0.1,26.8,0.1,40.2,0.1c9.5,0,19,0,28.5,0c3.7,0,7.3-0.1,11,0c4.8,0,9.6,0.2,14.4,0.2
			c6.3,0,12.6-0.2,18.9-0.2c9.1,0,18.2,0,27.3,0C706.9,22.6,707.3,22.6,708.1,22.6z M561,283.4c0,0.7-0.4,1.7,1.2,1.7
			C561.7,284.5,561.3,284,561,283.4c0.8-1,0.4-2.7,2.1-3.2c0.1,0,0.1-0.4,0.2-0.6c0.4-1,0.7-2.1,1.2-3c2.9-5.4,5.8-10.7,8.7-16.1
			c1.1-2.1,2.4-4.1,3.6-6.1c0.4,1.3,0.4,1.3,1.6,0.2c-0.6-0.1-1.1-0.1-1.7-0.2c0.9-1.8,1.7-3.7,2.6-5.5c1.4-2.8,3.1-5.4,4.4-8.2
			c1.3-2.8,3.3-5.2,4.6-8c0.5-1.1,1.2-2.1,1.8-3.2c0.6-1.1,1.2-2.2,1.8-3.3c1.7-3.3,3.5-6.6,5-10c0.4-0.9,1.2-0.6,1.8-1
			c-0.4-0.7-0.7-1.4-1-1.9c-1.1-0.3-2.1-0.8-3.1-0.9c-1,0-2.1,0.4-3.2,0.6c-0.2,0-0.3,0-0.5,0c-5.1,0-10.2,0-15.3,0
			c-2.6,0-5.1-0.1-7.7-0.1c-2.6,0-5.3-0.2-7.9,0c-2.5,0.2-4.9-0.3-7.4-0.1c-6.5,0.3-13,0.1-19.6,0.2c-4.5,0-9.1,0-13.6,0
			c-1.9,0-3.8,0-5.7,0c-8.9,0-17.7-0.1-26.6-0.1c-5.7,0-11.3,0.1-17-0.1c-2,0-4.1,0.7-6-0.4c-2.6,1.1-5.3,0.4-7.9,0.5
			c-2.3,0.1-4.6-0.2-6.9-0.1c-6.8,0-13.6,0.2-20.5,0.1c-2.2,0-4.4,0-6.6-0.3c-2.1-0.2-4.4,0.2-6.7,0.3c-7.5,0.1-15,0-22.4,0
			c-7.4,0-14.8,0-22.3,0c-6.7,0-13.3,0.1-20,0.1c-4.3,0-8.6-0.2-12.9-0.2c-9.3,0-18.7,0.1-28,0.1c-2.6,0-5.2-0.6-7.8-0.3
			c-1.1,0.1-1.6-0.7-2.5-0.5c-1.3,0.3-2.6,0.7-3.9,0.7c-4.2,0-8.4-0.3-12.6-0.1c-3.3,0.1-6.6,0-9.8,0.1c-0.7,0-1.5,0.2-2.5,0.3
			c0.5,1.1,0.8,1.8,1.1,2.5c1.8,3.3,3.6,6.6,5.4,9.8c0.6,1,1,2.1,1.6,3.1c2.1,3.9,4.3,7.8,6.4,11.7c0.5,0.9,0.7,2,1.2,3
			c0.5,0.9,1.3,1.6,1.9,2.4c1.5,2.2,2.4,4.8,3.8,7.1c1.4,2.2,2.5,4.4,3.8,6.7c1.3,2.3,2.5,4.6,3.8,6.9c1.3,2.1,2.1,4.5,3.5,6.5
			c0.2,0.3,0.1,0.9,0.2,1.3c0.1,0.3,0.2,0.5,0.3,0.7c0.4,0.5,1,0.9,1.3,1.5c3.6,6.5,7.2,13,10.8,19.5c0.6,1.1,1.3,2.3,2.8,2.4
			c1.1,0,2,0.3,2.9,0.9c0.3,0.2,1.1,0.1,1.2-0.1c0.5-1.1,1.3-0.7,2.1-0.7c5.1,0,10.2,0,15.3,0c4.3,0,8.6-0.1,12.9,0
			c4,0.1,8,0,12,0.1c8.9,0,17.9,0.1,26.8,0.2c1.5,0,2.9,0.2,4.4,0.2c1.4,0,2.8-0.3,4.2-0.3c0.7,0,1.3,0.5,1.8,0.7
			c1.2-0.3,2.3-0.5,3.4-0.7c1.4-0.3,2.4,0.4,2.9,2c1.1-1.5,2.4-2,4-2c9.1,0.1,18.2,0,27.3,0.1c2.7,0,5.4-0.5,8,0.5
			c2.9-1.2,6-0.3,8.9-0.5c0.8-0.1,1.8,0.7,2.3,0.4c1.7-0.9,3.4-0.5,5.1-0.4c2.9,0.1,5.9-0.6,8.7,0.4c4-0.8,8.1-0.3,12.1-0.4
			c1.4,0,2.9,0.1,4.3,0.1c3.7-0.1,7.3-0.2,11-0.2c3.6-0.1,7.1,0.4,10.7,0.2c4.4-0.3,8.8-0.1,13.2,0c4.5,0,8.9,0.2,13.4,0.2
			c4.2,0,8.4-0.1,12.6,0c1.5,0,2.5-0.4,3.1-1.7c0.7-1.5,1.5-3,2.3-4.3c0.7-0.2,1.6,0.8,1.8-0.4c-0.4-0.2-0.8-0.3-1.4-0.6
			C557.9,288.7,559.4,286.1,561,283.4z M676.4,69.2c0.6,0.3,1.1,0.7,2,1.2c-0.1-0.5-0.1-1-0.2-1C677.5,69.3,676.9,69.3,676.4,69.2
			c1.2-3.3,3.3-6.2,4.9-9.4c3-5.7,6.2-11.3,9.3-16.9c0.5-0.9,1-1.7,1.4-2.5c0.8-1.6,1.5-3.2,2.2-4.7c1-2,1.9-4,3.1-6.3
			c-1.4-0.2-2.3-0.3-3.3-0.4c-4-0.3-8.1,0.7-11.9-1.3c0,0-0.1,0.1-0.2,0.1c0.2,0.3,0.5,0.7,0.6,1c-4,0-8,0-12,0
			c-4.8,0-9.6-0.1-14.4,0c-2.5,0.1-5.1,0-7.6-0.1c-2-0.1-4.1-0.3-6.1-0.3c-3.9,0-7.8,0.2-11.7,0.3c-0.7,0-1.4-0.4-2.2-0.3
			c-1.3,0.1-2.7,0.4-4,0.4c-1.7,0.1-3.4,0.3-5-0.1c-1.7-0.4-3.3,0.2-4.9,0.1c-3.2,0-6.4,0-9.5,0c-4.1,0-8.3,0-12.4,0
			c-3.5,0-7,0.1-10.5,0.1c-2.1,0-4.1-0.1-6.2-0.1c-2.2,0-4.3-0.1-6.5,0c-2,0.1-3.9-0.5-5.9-0.2c-4.5,0.5-9.1-0.1-13.7,0.2
			c-3,0.1-6-0.2-9.1-0.2c-7.4,0-14.8,0.1-22.2,0.2c-1.1,0-2.2,0.1-3.4,0c-1.1,0-2.8,0.4-3.2-0.2c-1.1-1.4-2,0.1-2.9,0
			c-1.1-0.1-1.9,0.1-2.6-1c-0.2-0.3-0.9-0.3-1.4-0.5c0.1,0.6,0.3,1.1,0.4,1.7c-1.7,0-3.2,0-4.7,0c-1.4,0-2.9,0-4.3,0
			c-1.5,0-3,0-4.5,0c-1.4,0-2.9,0.3-4.3,0c-1.5-0.3-2.9,0-4.3,0c-1.1,0-2.3-0.2-3.4,0c-1.1,0.2-2-0.5-3.1-0.2
			c-1.1,0.2-2.2,0.2-3.3,0.2c-2.3,0-4.6-0.2-6.9-0.2c-9.8,0-19.6,0.1-29.4,0.1c-2.6,0-5.3-0.1-7.9-0.4c-1.7-0.2-3.7,0-5.5,0.3
			c-1.9,0.4-3.7-0.2-5.7,0c-3.5,0.4-7,0.1-10.5,0.1c-4.9,0-9.9,0-14.8,0c-0.7,0-1.3-0.3-2.3-0.6c0,0-0.3,0.5-0.7,0.5
			c-1.5,0.1-3,0.1-4.5,0.1c-3.3,0-6.7-0.1-10,0c-1.9,0.1-3.5-0.2-4.7-1.9c-0.5,0.7-1,1.3-1.5,2c-3.9,0-7.9,0.2-11.9-0.1
			c-3.3-0.2-6.6,0.6-9.9-0.6c-0.2-0.1-0.4,0.1-0.7,0.2c-0.6,0.2-1.2,0.4-1.8,0.4c-2.8,0-5.6,0-8.4,0c-2.4-0.1-4.8-0.4-7.3-0.3
			c-4.1,0.1-8.3,0.3-12.4,0.4c-0.8,0-1.6-0.6-2.4-0.6c-0.9,0-1.8,0.6-2.7,0.6c-3,0.1-6,0.2-9.1,0.2c-9,0-17.9,0-26.9,0
			c-8.4,0-16.9,0-25.3,0c-3.7,0-7.3-0.3-11-0.3c-4,0-8,0.2-11.9,0.3c-0.5,0-1.1-0.1-1.6-0.2c0.3-1.4-0.7-0.5-1.2-0.6
			c-0.1,1.3-1.1,0.8-1.8,0.8c-2.6,0.1-5.3,0-7.9,0.1c-5.4,0.1-10.8,0.2-16.2,0.3c-1.5,0-3.1-0.2-4.6-0.2c-1,0-2.1,0.2-3.1,0.2
			c-4.8,0-9.6,0-14.4,0c-2.3,0-4.5,0.2-7.1,0.3c0.4,1,0.6,1.8,1,2.4c4.1,7.4,8.2,14.8,12.3,22.2c3.2,5.7,6.4,11.4,9.5,17.1
			c1.7,3.1,3.3,6.1,5,9.2c0.8,1.4,1.4,3,2.4,4.3c1,1.3,1.3,2.9,2.2,4.3c2.8,4.3,5,8.8,7.5,13.3c0.7,1.3,1.2,2.7,2,4
			c0.6,1,2,1.6,1.1,3.1c0,0,0.3,0.3,0.4,0.4c0.6,0.6,1.4,1.1,1.7,1.8c0.9,2,2.2,3.2,4.3,3.4c-0.1,0.7-0.2,1.2-0.2,1.8
			c0.1,0,0.3,0.1,0.4,0.1c0.2-0.6,0.4-1.2,0.5-1.7c0.9-0.1,1.7-0.2,2.4-0.3c3.8-0.1,7.7-0.1,11.5-0.1c0.7,0,1.8-0.6,2.1,0.7
			c0,0,0.3,0.1,0.4,0c1-1.2,2.4-0.6,3.6-0.7c3.5-0.1,7,0,10.4,0c4.2,0,8.3,0.1,12.5,0.1c4.2,0,8.4,0.3,12.6,0
			c4.1-0.3,8.2,0.2,12.3,0c3.2-0.2,6.5,0.2,9.8,0.2c4.5,0,8.9-0.2,13.4-0.2c0.9,0,1.7,0.4,2.4,0.6c1-0.2,2-0.6,2.9-0.6
			c3.5,0,6.9,0.2,10.4,0.2c5.3,0,10.5-0.2,15.8-0.2c2.8,0,5.5,0.2,8.3,0.2c3.2,0,6.4-0.1,9.6-0.2c0.9,0,1.4,0.4,1.8,1.2
			c0,0.1,0.3,0,0.4,0c0-0.3-0.1-0.6-0.1-1.2c3.8,0,7.4,0,11.1,0c3.3,0,6.7,0.3,10,0.3c3.7,0,7.3-0.2,11-0.3c2.1-0.1,4.1,0.3,6.2,0.1
			c3.9-0.4,7.8-0.1,11.7-0.1c10.5,0,20.9,0,31.4,0c2.7,0,5.4,0,8.2,0c0.9,0,1.9,0.7,2.5,0.4c1.2-0.6,2.3-0.4,3.5-0.4
			c9.1,0,18.2-0.1,27.2,0c6,0,12,0.3,18,0.2c1.4,0,2.8,0.1,4.2,0.2c1.2,0,2.5-0.3,3.7-0.4c1.6,0,1.6,0,2.8,1.5
			c0.1-0.5,0.2-0.9,0.2-1.3c2.5,0,5.1,0,7.6,0c0.9,0,1.7,0.2,3,0.4c-0.1,0.1,0.3-0.5,0.4-0.5c1.4,0.7,2.8-0.2,4.2-0.2
			c2.3,0.1,4.6,0.2,7,0.1c7.4-0.2,14.9-0.1,22.3-0.1c1.1,0,2.2,0.1,3.3,0.1c4.9,0,9.7,0,14.5,0c0.2,0.4,0.5,0.8,0.9,1.6
			c0.5-1,0.8-1.8,1.9-1.8c6.7,0,13.3,0.2,20,0.1c0.2,0,0.3,0.3,0.5,0.3c0.3,0.1,0.6,0.3,0.9,0.2c0.5-0.1,1-0.5,1.5-0.6
			c2-0.1,4-0.1,6,0c0.4,0,0.7,0.6,0.8,0.6c1-0.3,1.7-0.6,2.5-0.6c3.9,0,7.9,0.2,11.8,0.2c4.4,0,8.7-0.1,13.1-0.2
			c4.3,0,8.6-0.1,12.9,0c1.9,0,3.3-0.7,4.2-2.5c0.7-1.4,1-3.2,2.8-3.9c0,0-0.1-0.2-0.1-0.4c0.1-0.6,0.1-1.2,0.4-1.7
			c1.5-2.8,3-5.6,4.6-8.4c0.4-0.7,1.1-1.2,1.7-1.9c-0.5-1.1,0.1-2,1.2-2.8c0.5-0.3,1.2-1.2,1.1-1.3c-0.8-1,0.1-1.6,0.5-2.3
			c2.3-4.9,5.3-9.4,7.6-14.3C673.7,73.2,675.1,71.2,676.4,69.2z M257.3,189.1c2.8,5.1,5.5,10.1,8.2,15.1c1,1.8,2.4,2.6,4.4,2.6
			c4.2-0.1,8.5,0,12.7,0c7.8,0,15.6,0,23.4,0c1.8,0,3.7,0,5.5,0c1.8,0,3.6,0.4,5.4,0.2c1.7-0.2,3.4,0.5,5.1-0.3c0.1-0.1,0.3,0,0.5,0
			c1.9,0,3.7,0.3,5.6,0.2c2.1-0.1,4.4-0.7,6.5,0.6c0.2,0.1,0.6-0.1,0.9-0.2c0.8-0.2,1.7-0.4,2.5-0.5c3.8-0.3,7.7,0.2,11.5,0
			c4.9-0.2,9.8-0.1,14.6-0.1c1.5,0,3,0,4.5,0.1c2.9,0.3,6-1,8.8,0.5c0.2,0.1,0.5,0.1,0.7-0.1c1.1-1,2.4-0.5,3.6-0.6
			c2.8-0.1,5.6-0.2,8.4,0c2.8,0.1,5.6,0.3,8.4,0.2c5.1-0.1,10.1-0.2,15.2-0.2c3.1,0,6.2,0.3,9.3,0.4c1,0,2.1-0.4,3-0.2
			c1.1,0.3,2-0.4,3-0.3c2.2,0.2,4.5,0.1,6.7,0.1c2.2,0,4.5,0,6.7,0c2.2,0,4.3,0.5,6.5,0c0.7-0.1,1.5,0.2,2.3,0.4
			c0.4,0.1,0.8,0.3,1.1,0.2c2.3-1.2,4.8-0.4,7.2-0.6c0.5-0.1,1.1,0.4,1.7,0.4c0.9,0,1.8-0.4,2.8-0.4c7.3,0,14.5,0.3,21.8,0.1
			c4.4-0.1,8.8,0.1,13.2-0.1c4.7-0.2,9.4-0.2,14.1,0c3.3,0.1,6.7-0.8,9.9,0.6c0.1,0,0.2,0,0.2-0.1c1.9-0.9,3.9-0.5,5.8-0.5
			c6.8-0.1,13.7,0,20.5-0.1c1.4,0,2.7,0,4.1,0c4.5,0,9.1-0.1,13.6,0c1.2,0,2.4,0.6,3.8,1c0.9-1.2,2.5-1,4.1-1c8.1,0,16.2,0,24.3-0.1
			c0.8,0,1.9-0.1,2.5-0.6c1.4-1.4,3-2.8,3.6-4.6c0.5-1.5,1.1-3,1.8-4.3c5-9.6,10.1-19.1,15.3-28.7c4.6-8.6,9.3-17.2,14-25.8
			c2.3-4.2,4.5-8.3,6.8-12.5c0.9-0.1,1.6-0.1,2.8-0.3c-0.9-0.5-1.5-0.8-2.1-1.1c1.1-2.3,2.3-4.6,3.4-6.9c-1-0.9-1.7-1.6-2.8-0.9
			c-0.3,0.2-0.8,0-1.2,0c-6.8,0-13.5,0-20.3,0c-0.9,0-1.8-0.4-2.8-0.4c-2.1,0-4.2,0.3-6.3,0.3c-3.2,0-6.4-0.2-9.6,0
			c-3.2,0.2-6.3-0.3-9.5,0c-3.3,0.3-6.7,0-10.1,0c-9.5,0-19.1,0-28.6,0c-7.9,0-15.8-0.1-23.7-0.1c-1,0-2.1,0.2-3.1,0.1
			c-1,0-2.2,0.1-3-0.4c-1.1-0.6-1.6,0.7-2.7,0.5c-1.5-0.3-3.2,0-4.8-0.1c-2.9-0.1-5.9,0.5-8.7-0.7c-0.2-0.1-0.5,0-0.7,0.1
			c-0.9,0.9-2,0.6-2.9,0.6c-5.5,0-11-0.2-16.6-0.2c-5.8,0-11.5,0.2-17.3,0.2c-12,0-24,0-36-0.1c-2,0-4.1-0.2-6.1-0.2
			c-2.4,0-4.7,0.3-7,0.4c-0.4-0.6-0.7-1-1.2-1.7c-0.1,0.7-0.2,1.1-0.3,1.5c-5.7,0-11.5,0-17.2,0c-1.7,0-3.5,0-5.2,0.1
			c-1.7,0.1-3.3-0.2-4.9-0.1c-5.4,0.1-10.9,0-16.3,0.1c-5.8,0.1-11.5-0.3-17.3-0.1c-3.6,0.2-7.2,0.1-10.7,0
			c-5.6-0.1-11.2-0.2-16.8-0.3c-6.9,0-13.9,0.1-20.8,0.1c-1,0-2.1,0.4-3.2-0.4c-0.6-0.4-1.8,0.5-2.8,0.5c-6.3,0.1-12.5,0-18.8,0
			c-5.4,0-10.8-0.2-16.2,0c-3.6,0.1-7.2-0.1-10.8-0.1c-5.3,0-10.5,0.1-15.8,0.1c-3.3,0-6.6,0-9.9,0c-3.2,0-6.4,0-9.6-0.1
			c-1.9-0.1-3.7-0.1-5.5,0.7c0.2,0.7,0.3,1.3,0.5,1.9c1.2,2.2,2.4,4.4,3.8,6.5c1.4,2.1,1.8,4.7,3.6,6.7c1.3,1.6,2.1,3.6,3.1,5.5
			c2.4,4.4,4.8,8.8,7.1,13.2c0.6,1,1,2.2,1.7,3.1c0.6,0.8-0.4,2.5,1.5,2.6c0.2,0,0.4,0.6,0.6,1c1.7,3.6,4,6.8,5.5,10.6
			c1.2,3,3.3,5.6,4.9,8.4c1.3,2.2,2.4,4.4,3.6,6.6c-0.6,0.5-1.1,0.9-1.8,1.4C255.8,189.1,256.5,189.1,257.3,189.1z M350.9,361.1
			c1.4,0.3,1.7,0.7,2.6,2.4c1.7,3.2,3.3,6.3,5,9.5c0.5,1,1.8,1.8,1.2,3.3c0,0.1,0.1,0.4,0.2,0.4c1.9,0.3,1.9,2.2,2.6,3.4
			c1.8,2.9,3.3,6,5,9c1,1.8,2.3,2.9,4.5,2.9c3.4-0.1,6.8,0.2,10.3,0.3c6.6,0.1,13.2,0.2,19.9,0.2c6.1,0,12.1-0.1,18.2,0
			c6.3,0.1,12.6,0.4,18.9,0.4c5.7,0,11.3-0.2,17-0.2c4.5,0,9,0.3,13.6,0.3c3,0,6.1-0.3,9.1-0.1c3,0.2,6.1-0.9,9.1,0.6
			c0.1,0.1,0.3,0,0.4-0.1c0.9-1,2.1-0.6,3.1-0.5c2.8,0.2,5.5-0.1,8.3-0.1c1.6,0,2.7-0.6,3.4-2.2c0.8-1.8,1.6-3.7,2.8-5.2
			c1.2-1.5,1-4,3.9-4.3c-0.6-0.5-0.8-0.7-1.1-0.9c1.6-3,3.1-6.1,4.8-9.1c2.5-4.6,5-9.2,7.5-13.8c2.3-4.1,4.6-8.1,6.9-12.2
			c1.2-2.3,2.3-4.7,3.5-7c0.3-0.7,0.8-0.9,1.5-0.7c0.1,0,0.2-0.1,0.3-0.2c-0.3-0.1-0.6-0.2-1-0.4c1.4-2.7,2.9-5.4,4.3-8.2
			c1.4-2.8,3.2-5.3,4.5-8.2c1.2-2.8,2.6-5.4,4.3-8c1.1-1.6,1.2-3.8,3.2-4.9c0.1-0.1,0.2-0.4,0.2-0.6c0-0.7-0.1-1.5-0.2-2.2
			c-1.2,0-2.3,0-3.5,0c-1.1,0-2.2,0-3.4,0c-1.2,0-2.6,0.4-3.5-0.1c-1.1-0.6-1.9,0-2.7,0c-3.5-0.1-7.1,0.1-10.6,0.1
			c-18.2,0-36.4,0-54.5,0c-15.5,0-31,0-46.5,0c-9.9,0-19.8,0-29.7,0c-17.6,0-35.1,0-52.7,0c-5.3,0-10.7-0.3-16-0.2
			c-1.1,0-1.5-0.2-1.9-0.9c-0.5,0.7-0.9,1.3-1.5,2.1c1.1,2.1,2.2,4.3,3.4,6.6c1.2,2.2,2.5,4.4,3.7,6.6c1.2,2.2,2.4,4.4,3.7,6.6
			c1.3,2.3,2.6,4.6,3.8,6.9c1.1,2.2,2.8,4.2,3.1,6.7c2.1,1.6,2.7,4.2,4,6.3c1.3,2.1,2.5,4.4,3.6,6.5c-0.5,0.5-0.9,0.8-1.2,1.1
			c0.1,0.1,0.1,0.2,0.2,0.3c0.4-0.2,0.8-0.3,1.4-0.5c0.3,0.6,0.7,1.3,1,1.9c-0.5,0.3-0.9,0.5-1.2,0.7c1.2,0,2,0.4,2.4,1.7
			c0.2,0.8,1.1,1.5,1.5,2.3C351.3,359.9,351,360.5,350.9,361.1z M370.9,116.4c0.5,0.3,0.8,0.7,1,0.6c0.4-0.2,0.7-0.5,0.8-0.9
			c0-0.1-0.5-0.7-0.7-0.6C371.7,115.6,371.4,115.9,370.9,116.4z M333.5,338.8c1.6,1.4,1.6,1.4,2.5,0.8
			C335.3,339.4,334.6,339.1,333.5,338.8z M308,24.1c0.7,0.4,1.3,0.7,2-0.3C309.2,23.9,308.6,24,308,24.1z M245.3,27.9
			c0.2-0.2,0.4-0.4,0.5-0.6c-0.4-0.3-0.7-0.5-1.1-0.7c0,0-0.3,0.3-0.3,0.3C244.7,27.2,245,27.5,245.3,27.9z M278.1,116.4
			c0.9,0.7,0.9,0.7,1.6,0.4c0,0,0-0.2,0-0.5C279.2,116.3,278.7,116.4,278.1,116.4z M257.6,120.1c0.2-0.2,0.3-0.3,0.5-0.5
			c-0.2-1-0.2-1-1.7-1.3C256.9,119,257.2,119.6,257.6,120.1z M309.6,292.5c0-0.2,0-0.4,0-0.6c-0.5,0-1,0.1-1.5,0.1
			c0,0.2,0,0.3,0,0.5C308.6,292.5,309.1,292.5,309.6,292.5z M445.1,396.1c0.4-0.3,0.8-0.6,1.5-1.1
			C445.2,394.5,445.1,395.3,445.1,396.1z M331.1,301.6c0.2-0.1,0.3-0.2,0.5-0.3c-0.3-0.4-0.6-0.7-0.8-1.1c-0.1,0.1-0.3,0.2-0.4,0.3
			C330.6,300.8,330.9,301.2,331.1,301.6z M350.3,300c0-0.2-0.1-0.3-0.1-0.5c-0.5,0.1-0.9,0.2-1.4,0.4c0.1,0.2,0.2,0.6,0.3,0.6
			C349.5,300.4,349.9,300.2,350.3,300z M550.9,210.4c-0.4-1.4-1.1-1-1.7-1c0,0-0.1,0.2-0.1,0.5C549.6,210,550.1,210.1,550.9,210.4z
			 M257.2,193.1c-0.1-0.1-0.3-0.1-0.4-0.2c-0.2,0.5-0.4,0.9-0.6,1.4c0.1,0.1,0.3,0.1,0.4,0.2C256.8,194,257,193.6,257.2,193.1z
			 M603.8,120.3c0.1,0,0.2-0.1,0.3-0.1c-0.2-0.6-0.4-1.1-0.6-1.7c-0.1,0.1-0.3,0.1-0.4,0.2C603.4,119.3,603.6,119.8,603.8,120.3z
			 M348.9,117.8c-0.5-0.6-1-1.1-1.5,0.1C348,117.9,348.5,117.9,348.9,117.8z M523.6,24.5c0.2,0.5,0.5,1.6,1.2,0.3
			C524.3,24.7,523.9,24.6,523.6,24.5z M185.7,25.1c-0.2,0-0.4,0-0.6,0c0.1,0.4,0.2,0.7,0.3,1.1c0.1,0,0.3-0.1,0.4-0.1
			C185.8,25.8,185.8,25.5,185.7,25.1z M223.1,24c1.1,0.9,1.7,1.2,2.4,0C224.8,24,224.2,24,223.1,24z"/>
	</g>
	<g>
		<path class="st4" d="M287.3,78.8l-3.9-5.4l-1.5,1.5v3.9h-2.8V66.2h2.8v5.5l5.1-5.5h3.3l-5.1,5.3l5.4,7.3H287.3z"/>
		<path class="st4" d="M293.5,78.8V66.2h9.5v2.5h-6.8v2.6h5.9v2.5h-5.9v2.6h6.8v2.5H293.5z"/>
		<path class="st4" d="M313.2,73.8v5h-2.8v-5l-4.8-7.6h3.2l3,5.1l3.1-5.1h3.2L313.2,73.8z"/>
		<path class="st4" d="M335.3,78.9h-2.4l-2.8-8.2l-2.8,8.2h-2.4l-4.3-12.7h3l2.6,8.5l2.8-8.6h2.4l2.8,8.6l2.6-8.5h2.9L335.3,78.9z"
			/>
		<path class="st4" d="M348.2,79c-3.9,0-6.7-2.9-6.7-6.5v0c0-3.6,2.8-6.5,6.7-6.5c3.9,0,6.7,2.9,6.7,6.5v0
			C354.9,76.1,352.1,79,348.2,79z M352,72.5c0-2.2-1.6-4-3.8-4c-2.2,0-3.8,1.8-3.8,3.9v0c0,2.2,1.6,4,3.8,4
			C350.5,76.5,352,74.7,352,72.5L352,72.5z"/>
		<path class="st4" d="M366.2,78.8l-2.7-4h-2.2v4h-2.8V66.2h5.8c3,0,4.8,1.6,4.8,4.2v0c0,2-1.1,3.3-2.7,3.9l3.1,4.5H366.2z
			 M366.2,70.5c0-1.2-0.8-1.8-2.2-1.8h-2.8v3.6h2.8C365.5,72.3,366.2,71.6,366.2,70.5L366.2,70.5z"/>
		<path class="st4" d="M377.7,78.8h-4.9V66.2h4.9c4,0,6.7,2.7,6.7,6.3v0C384.4,76,381.6,78.8,377.7,78.8z M381.5,72.5
			c0-2.2-1.5-3.8-3.8-3.8h-2.1v7.6h2.1C379.9,76.3,381.5,74.8,381.5,72.5L381.5,72.5z"/>
		<path class="st4" d="M392.2,79c-1.9,0-3.8-0.7-5.3-2l1.6-2c1.1,0.9,2.3,1.5,3.8,1.5c1.1,0,1.8-0.4,1.8-1.2v0
			c0-0.7-0.4-1.1-2.5-1.6c-2.5-0.6-4.2-1.4-4.2-3.9v0c0-2.3,1.8-3.8,4.4-3.8c1.8,0,3.4,0.6,4.7,1.6l-1.4,2.1
			c-1.1-0.8-2.2-1.2-3.3-1.2c-1.1,0-1.6,0.5-1.6,1.1v0c0,0.8,0.5,1.1,2.7,1.7c2.6,0.7,4,1.6,4,3.8v0C396.8,77.6,394.9,79,392.2,79z"
			/>
		<path class="st4" d="M415.3,79l-1.5-1.5c-1,0.8-2.2,1.4-3.7,1.4c-2.4,0-4.2-1.4-4.2-3.7c0-1.6,0.9-2.8,2.4-3.5
			c-0.6-0.9-0.9-1.7-0.9-2.5c0-1.7,1.4-3.3,3.8-3.3c2.1,0,3.5,1.4,3.5,3.2c0,1.7-1.1,2.7-2.6,3.3l1.7,1.7c0.4-0.6,0.8-1.4,1.2-2.2
			l2,1.1c-0.5,0.9-1,1.8-1.7,2.7l1.9,1.9L415.3,79z M409.9,73.5c-0.8,0.4-1.2,1-1.2,1.7c0,0.9,0.7,1.5,1.8,1.5
			c0.6,0,1.2-0.3,1.8-0.7L409.9,73.5z M411.2,68.1c-0.7,0-1.2,0.5-1.2,1.3c0,0.6,0.2,1,0.7,1.6c1.1-0.4,1.7-0.9,1.7-1.7
			C412.4,68.6,411.9,68.1,411.2,68.1z"/>
		<path class="st4" d="M431.4,79c-1.9,0-3.8-0.7-5.3-2l1.6-2c1.1,0.9,2.3,1.5,3.8,1.5c1.1,0,1.8-0.4,1.8-1.2v0
			c0-0.7-0.4-1.1-2.5-1.6c-2.5-0.6-4.2-1.4-4.2-3.9v0c0-2.3,1.8-3.8,4.4-3.8c1.8,0,3.4,0.6,4.7,1.6l-1.4,2.1
			c-1.1-0.8-2.2-1.2-3.3-1.2s-1.6,0.5-1.6,1.1v0c0,0.8,0.5,1.1,2.7,1.7c2.6,0.7,4,1.6,4,3.8v0C436,77.6,434.1,79,431.4,79z"/>
		<path class="st4" d="M439.6,78.8V66.2h9.5v2.5h-6.8v2.6h5.9v2.5h-5.9v2.6h6.8v2.5H439.6z"/>
		<path class="st4" d="M462.3,78.8l-1.2-2.8h-5.3l-1.2,2.8h-2.8l5.4-12.7h2.6l5.4,12.7H462.3z M458.5,69.4l-1.7,4.1h3.3L458.5,69.4z
			"/>
		<path class="st4" d="M475.9,78.8l-2.7-4H471v4h-2.8V66.2h5.8c3,0,4.8,1.6,4.8,4.2v0c0,2-1.1,3.3-2.7,3.9l3.1,4.5H475.9z
			 M475.9,70.5c0-1.2-0.8-1.8-2.2-1.8H471v3.6h2.8C475.1,72.3,475.9,71.6,475.9,70.5L475.9,70.5z"/>
		<path class="st4" d="M488.1,79c-3.7,0-6.5-2.9-6.5-6.5v0c0-3.6,2.7-6.5,6.6-6.5c2.4,0,3.8,0.8,5,1.9l-1.8,2c-1-0.9-2-1.4-3.2-1.4
			c-2.1,0-3.7,1.8-3.7,3.9v0c0,2.2,1.5,4,3.7,4c1.4,0,2.3-0.6,3.3-1.5l1.8,1.8C492,78.1,490.5,79,488.1,79z"/>
		<path class="st4" d="M504.3,78.8v-5.1h-5.1v5.1h-2.8V66.2h2.8v5h5.1v-5h2.8v12.6H504.3z"/>
		<path class="st4" d="M523.4,68.7v10h-2.8v-10h-3.8v-2.6h10.4v2.6H523.4z"/>
		<path class="st4" d="M530.3,78.8V66.2h9.5v2.5H533v2.6h5.9v2.5H533v2.6h6.8v2.5H530.3z"/>
		<path class="st4" d="M551.3,78.8l-2.7-4h-2.2v4h-2.8V66.2h5.8c3,0,4.8,1.6,4.8,4.2v0c0,2-1.1,3.3-2.7,3.9l3.1,4.5H551.3z
			 M551.4,70.5c0-1.2-0.8-1.8-2.2-1.8h-2.8v3.6h2.8C550.6,72.3,551.4,71.6,551.4,70.5L551.4,70.5z"/>
		<path class="st4" d="M567.7,78.8v-8.2l-3.5,5.4h-0.1l-3.5-5.3v8.2h-2.7V66.2h3l3.3,5.3l3.3-5.3h3v12.6H567.7z"/>
		<path class="st4" d="M579.2,79c-1.9,0-3.8-0.7-5.3-2l1.6-2c1.1,0.9,2.3,1.5,3.8,1.5c1.1,0,1.8-0.4,1.8-1.2v0
			c0-0.7-0.4-1.1-2.5-1.6c-2.5-0.6-4.2-1.4-4.2-3.9v0c0-2.3,1.8-3.8,4.4-3.8c1.8,0,3.4,0.6,4.7,1.6l-1.4,2.1
			c-1.1-0.8-2.2-1.2-3.3-1.2s-1.6,0.5-1.6,1.1v0c0,0.8,0.5,1.1,2.7,1.7c2.6,0.7,4,1.6,4,3.8v0C583.8,77.6,581.9,79,579.2,79z"/>
	</g>
	<g>
		<path class="st4" d="M337.7,260.6c-3.7,0-6.5-2.9-6.5-6.5v0c0-3.6,2.7-6.5,6.6-6.5c2.4,0,3.8,0.8,5,1.9l-1.8,2
			c-1-0.9-2-1.4-3.2-1.4c-2.1,0-3.7,1.8-3.7,3.9v0c0,2.2,1.5,4,3.7,4c1.4,0,2.3-0.6,3.3-1.5l1.8,1.8
			C341.6,259.7,340.2,260.6,337.7,260.6z"/>
		<path class="st4" d="M351.3,260.5c-3.4,0-5.5-1.9-5.5-5.6v-7.2h2.8v7.1c0,2.1,1,3.1,2.7,3.1s2.7-1,2.7-3v-7.2h2.8v7.1
			C356.8,258.7,354.7,260.5,351.3,260.5z"/>
		<path class="st4" d="M368.6,260.3l-2.7-4h-2.2v4h-2.8v-12.6h5.8c3,0,4.8,1.6,4.8,4.2v0c0,2-1.1,3.3-2.7,3.9l3.1,4.5H368.6z
			 M368.7,252c0-1.2-0.8-1.8-2.2-1.8h-2.8v3.6h2.8C367.9,253.9,368.7,253.1,368.7,252L368.7,252z"/>
		<path class="st4" d="M384.8,260.3l-1.2-2.8h-5.3l-1.2,2.8h-2.8l5.4-12.7h2.6l5.4,12.7H384.8z M381,251l-1.7,4.1h3.3L381,251z"/>
		<path class="st4" d="M394.9,250.3v10h-2.8v-10h-3.8v-2.6h10.4v2.6H394.9z"/>
		<path class="st4" d="M401.8,260.3v-12.6h9.5v2.5h-6.8v2.6h5.9v2.5h-5.9v2.6h6.8v2.5H401.8z"/>
		<path class="st4" d="M420.1,260.3h-4.9v-12.6h4.9c4,0,6.7,2.7,6.7,6.3v0C426.8,257.6,424,260.3,420.1,260.3z M423.9,254
			c0-2.2-1.5-3.8-3.8-3.8h-2.1v7.6h2.1C422.3,257.8,423.9,256.3,423.9,254L423.9,254z"/>
		<path class="st4" d="M442.7,260.6c-3.7,0-6.5-2.9-6.5-6.5v0c0-3.6,2.7-6.5,6.6-6.5c2.4,0,3.8,0.8,5,1.9l-1.8,2
			c-1-0.9-2-1.4-3.2-1.4c-2.1,0-3.7,1.8-3.7,3.9v0c0,2.2,1.5,4,3.7,4c1.4,0,2.3-0.6,3.3-1.5l1.8,1.8
			C446.6,259.7,445.1,260.6,442.7,260.6z"/>
		<path class="st4" d="M456.8,260.6c-3.9,0-6.7-2.9-6.7-6.5v0c0-3.6,2.8-6.5,6.7-6.5c3.9,0,6.7,2.9,6.7,6.5v0
			C463.5,257.6,460.7,260.6,456.8,260.6z M460.6,254c0-2.2-1.6-4-3.8-4s-3.8,1.8-3.8,3.9v0c0,2.2,1.6,4,3.8,4
			C459.1,258,460.6,256.2,460.6,254L460.6,254z"/>
		<path class="st4" d="M475.9,260.3l-6.1-8v8h-2.7v-12.6h2.6l5.9,7.8v-7.8h2.7v12.6H475.9z"/>
		<path class="st4" d="M487.9,250.3v10h-2.8v-10h-3.8v-2.6h10.4v2.6H487.9z"/>
		<path class="st4" d="M494.8,260.3v-12.6h9.5v2.5h-6.8v2.6h5.9v2.5h-5.9v2.6h6.8v2.5H494.8z"/>
		<path class="st4" d="M517,260.3l-6.1-8v8h-2.7v-12.6h2.6l5.9,7.8v-7.8h2.7v12.6H517z"/>
		<path class="st4" d="M529,250.3v10h-2.8v-10h-3.8v-2.6h10.4v2.6H529z"/>
	</g>
	<g>
		<path class="st4" d="M385,345h-6v-12.6h5.9c2.6,0,4.2,1.3,4.2,3.3v0c0,1.4-0.8,2.2-1.7,2.7c1.5,0.6,2.4,1.4,2.4,3.1v0
			C389.7,343.8,387.9,345,385,345z M386.3,336.1c0-0.8-0.6-1.3-1.8-1.3h-2.7v2.7h2.6C385.5,337.5,386.3,337.1,386.3,336.1
			L386.3,336.1z M387,341.1c0-0.8-0.6-1.4-2.1-1.4h-3.2v2.8h3.3C386.3,342.5,387,342.1,387,341.1L387,341.1z"/>
		<path class="st4" d="M393.3,345v-12.6h9.5v2.5h-6.8v2.6h5.9v2.5h-5.9v2.6h6.8v2.5H393.3z"/>
		<path class="st4" d="M414.6,345v-5.1h-5.1v5.1h-2.8v-12.6h2.8v5h5.1v-5h2.8V345H414.6z"/>
		<path class="st4" d="M430.8,345l-1.2-2.8h-5.3l-1.2,2.8h-2.8l5.4-12.7h2.6l5.4,12.7H430.8z M426.9,335.6l-1.7,4.1h3.3L426.9,335.6
			z"/>
		<path class="st4" d="M441.8,345.1h-2.4l-5.1-12.7h3.1l3.3,8.9l3.3-8.9h3L441.8,345.1z"/>
		<path class="st4" d="M450,345v-12.6h2.8V345H450z"/>
		<path class="st4" d="M463,345.2c-3.9,0-6.7-2.9-6.7-6.5v0c0-3.6,2.8-6.5,6.7-6.5c3.9,0,6.7,2.9,6.7,6.5v0
			C469.8,342.2,466.9,345.2,463,345.2z M466.9,338.7c0-2.2-1.6-4-3.8-4c-2.2,0-3.8,1.8-3.8,3.9v0c0,2.2,1.6,4,3.8,4
			C465.3,342.6,466.9,340.9,466.9,338.7L466.9,338.7z"/>
		<path class="st4" d="M481,345l-2.7-4h-2.2v4h-2.8v-12.6h5.8c3,0,4.8,1.6,4.8,4.2v0c0,2-1.1,3.3-2.7,3.9l3.1,4.5H481z M481.1,336.7
			c0-1.2-0.8-1.8-2.2-1.8h-2.8v3.6h2.8C480.3,338.5,481.1,337.8,481.1,336.7L481.1,336.7z"/>
		<path class="st4" d="M395.1,369.2c-3.7,0-6.5-2.9-6.5-6.5v0c0-3.6,2.7-6.5,6.6-6.5c2.4,0,3.8,0.8,5,1.9l-1.8,2
			c-1-0.9-2-1.4-3.2-1.4c-2.1,0-3.7,1.8-3.7,3.9v0c0,2.2,1.5,4,3.7,4c1.4,0,2.3-0.6,3.3-1.5l1.8,1.8
			C399,368.3,397.5,369.2,395.1,369.2z"/>
		<path class="st4" d="M411.3,369v-5.1h-5.1v5.1h-2.8v-12.6h2.8v5h5.1v-5h2.8V369H411.3z"/>
		<path class="st4" d="M427.5,369l-1.2-2.8H421l-1.2,2.8h-2.8l5.4-12.7h2.6l5.4,12.7H427.5z M423.7,359.6l-1.7,4.1h3.3L423.7,359.6z
			"/>
		<path class="st4" d="M442.2,369l-6.1-8v8h-2.7v-12.6h2.6l5.9,7.8v-7.8h2.7V369H442.2z"/>
		<path class="st4" d="M454.8,369.2c-3.9,0-6.6-2.8-6.6-6.5v0c0-3.6,2.8-6.5,6.6-6.5c2.3,0,3.6,0.6,5,1.7L458,360
			c-1-0.8-1.8-1.3-3.3-1.3c-2,0-3.6,1.8-3.6,3.9v0c0,2.3,1.6,4,3.8,4c1,0,1.9-0.3,2.6-0.8v-1.8h-2.8v-2.4h5.5v5.5
			C458.9,368.3,457.1,369.2,454.8,369.2z"/>
		<path class="st4" d="M464.2,369v-12.6h9.5v2.5h-6.8v2.6h5.9v2.5h-5.9v2.6h6.8v2.5H464.2z"/>
	</g>
	<g>
		<path class="st4" d="M292.1,169.9l-1.2-2.8h-5.3l-1.2,2.8h-2.8l5.4-12.7h2.6l5.4,12.7H292.1z M288.3,160.5l-1.7,4.1h3.3
			L288.3,160.5z"/>
		<path class="st4" d="M302.9,169.9H298v-12.6h4.9c4,0,6.7,2.7,6.7,6.3v0C309.6,167.1,306.8,169.9,302.9,169.9z M306.7,163.6
			c0-2.2-1.5-3.8-3.8-3.8h-2.1v7.6h2.1C305.2,167.4,306.7,165.9,306.7,163.6L306.7,163.6z"/>
		<path class="st4" d="M317.4,170.1c-1.9,0-3.8-0.7-5.3-2l1.6-2c1.1,0.9,2.3,1.5,3.8,1.5c1.1,0,1.8-0.5,1.8-1.2v0
			c0-0.7-0.4-1.1-2.5-1.6c-2.5-0.6-4.2-1.4-4.2-3.9v0c0-2.3,1.8-3.8,4.4-3.8c1.8,0,3.4,0.6,4.7,1.6l-1.4,2.1
			c-1.1-0.8-2.2-1.2-3.3-1.2s-1.6,0.5-1.6,1.1v0c0,0.8,0.5,1.1,2.7,1.7c2.6,0.7,4,1.6,4,3.8v0C322.1,168.7,320.2,170.1,317.4,170.1z
			"/>
		<path class="st4" d="M340.5,170.1l-1.5-1.5c-1,0.8-2.2,1.4-3.7,1.4c-2.4,0-4.2-1.4-4.2-3.7c0-1.6,0.9-2.8,2.4-3.5
			c-0.6-0.9-0.9-1.7-0.9-2.5c0-1.7,1.4-3.3,3.8-3.3c2.1,0,3.5,1.4,3.5,3.2c0,1.7-1.1,2.7-2.6,3.3l1.7,1.7c0.4-0.6,0.8-1.4,1.2-2.2
			l2,1.1c-0.5,0.9-1,1.8-1.7,2.7l1.9,1.9L340.5,170.1z M335.1,164.6c-0.8,0.4-1.2,1-1.2,1.7c0,0.9,0.7,1.5,1.8,1.5
			c0.6,0,1.2-0.3,1.8-0.7L335.1,164.6z M336.5,159.2c-0.7,0-1.2,0.5-1.2,1.3c0,0.6,0.2,1,0.7,1.6c1.1-0.4,1.7-0.9,1.7-1.7
			C337.6,159.7,337.2,159.2,336.5,159.2z"/>
		<path class="st4" d="M358,170.1c-3.7,0-6.5-2.9-6.5-6.5v0c0-3.6,2.7-6.5,6.6-6.5c2.4,0,3.8,0.8,5,1.9l-1.8,2c-1-0.9-2-1.4-3.2-1.4
			c-2.1,0-3.7,1.8-3.7,3.9v0c0,2.2,1.5,4,3.7,4c1.4,0,2.3-0.6,3.3-1.5l1.8,1.8C361.9,169.2,360.5,170.1,358,170.1z"/>
		<path class="st4" d="M366.4,169.9v-12.6h2.8v10.1h6.3v2.5H366.4z"/>
		<path class="st4" d="M378.5,169.9v-12.6h2.8v12.6H378.5z"/>
		<path class="st4" d="M391.4,170.1c-3.7,0-6.5-2.9-6.5-6.5v0c0-3.6,2.7-6.5,6.6-6.5c2.4,0,3.8,0.8,5,1.9l-1.8,2
			c-1-0.9-2-1.4-3.2-1.4c-2.1,0-3.7,1.8-3.7,3.9v0c0,2.2,1.5,4,3.7,4c1.4,0,2.3-0.6,3.3-1.5l1.8,1.8
			C395.3,169.2,393.8,170.1,391.4,170.1z"/>
		<path class="st4" d="M407.9,169.9l-3.9-5.4l-1.5,1.5v3.9h-2.8v-12.6h2.8v5.5l5.1-5.5h3.3l-5.1,5.3l5.4,7.3H407.9z"/>
		<path class="st4" d="M426.2,159.8v10h-2.8v-10h-3.8v-2.6H430v2.6H426.2z"/>
		<path class="st4" d="M440.9,169.9v-5.1h-5.1v5.1h-2.8v-12.6h2.8v5h5.1v-5h2.8v12.6H440.9z"/>
		<path class="st4" d="M455.6,169.9l-2.7-4h-2.2v4H448v-12.6h5.8c3,0,4.8,1.6,4.8,4.2v0c0,2-1.1,3.3-2.7,3.9l3.1,4.5H455.6z
			 M455.7,161.6c0-1.2-0.8-1.8-2.2-1.8h-2.8v3.6h2.8C454.9,163.4,455.7,162.7,455.7,161.6L455.7,161.6z"/>
		<path class="st4" d="M468.1,170.1c-3.9,0-6.7-2.9-6.7-6.5v0c0-3.6,2.8-6.5,6.7-6.5c3.9,0,6.7,2.9,6.7,6.5v0
			C474.8,167.2,472,170.1,468.1,170.1z M471.9,163.6c0-2.2-1.6-4-3.8-4s-3.8,1.8-3.8,3.9v0c0,2.2,1.6,4,3.8,4
			C470.4,167.6,471.9,165.8,471.9,163.6L471.9,163.6z"/>
		<path class="st4" d="M483.7,170.1c-3.4,0-5.5-1.9-5.5-5.6v-7.2h2.8v7.1c0,2.1,1,3.1,2.7,3.1c1.7,0,2.7-1,2.7-3v-7.2h2.8v7.1
			C489.2,168.2,487,170.1,483.7,170.1z"/>
		<path class="st4" d="M499.2,170.1c-3.9,0-6.6-2.8-6.6-6.5v0c0-3.6,2.8-6.5,6.6-6.5c2.3,0,3.6,0.6,5,1.7l-1.7,2.1
			c-1-0.8-1.8-1.3-3.3-1.3c-2,0-3.6,1.8-3.6,3.9v0c0,2.3,1.6,4,3.8,4c1,0,1.9-0.3,2.6-0.8V165h-2.8v-2.4h5.5v5.5
			C503.3,169.2,501.5,170.1,499.2,170.1z"/>
		<path class="st4" d="M516.4,169.9v-5.1h-5.1v5.1h-2.8v-12.6h2.8v5h5.1v-5h2.8v12.6H516.4z"/>
		<path class="st4" d="M537.4,169.9l-2.7-4h-2.2v4h-2.8v-12.6h5.8c3,0,4.8,1.6,4.8,4.2v0c0,2-1.1,3.3-2.7,3.9l3.1,4.5H537.4z
			 M537.5,161.6c0-1.2-0.8-1.8-2.2-1.8h-2.8v3.6h2.8C536.7,163.4,537.5,162.7,537.5,161.6L537.5,161.6z"/>
		<path class="st4" d="M553.7,169.9l-1.2-2.8h-5.3l-1.2,2.8h-2.8l5.4-12.7h2.6l5.4,12.7H553.7z M549.8,160.5l-1.7,4.1h3.3
			L549.8,160.5z"/>
		<path class="st4" d="M563.7,159.8v10H561v-10h-3.8v-2.6h10.4v2.6H563.7z"/>
		<path class="st4" d="M570.6,169.9v-12.6h9.5v2.5h-6.8v2.6h5.9v2.5h-5.9v2.6h6.8v2.5H570.6z"/>
	</g>
	<g>
		<g>
			<g>
				<g>
					<g>
						<path class="st5" d="M718.5,123.7c0.3-0.3-0.9-0.7-1.1-0.9C717.4,123.5,718.8,123.8,718.5,123.7z"/>
						<polygon class="st5" points="718.4,130.3 718,129.9 718.7,131.3 						"/>
						<path class="st5" d="M715.8,135.2c2.1,0.5,0.6-2,1.7-2.5l0.5,0.1l-1.3-1.2C716.4,132.8,716.7,134.7,715.8,135.2z"/>
						<path class="st5" d="M710.3,135.7c0.8,0.2,0.3,0.9,0.5-0.5c-0.1,0-0.2,0-0.2,0C710.6,135.3,710.5,135.5,710.3,135.7z"/>
						<path class="st5" d="M710.6,135.2C710.9,134.7,709.8,135.2,710.6,135.2L710.6,135.2z"/>
						<path class="st5" d="M709.8,137.8l-0.3-1c-0.5-0.1-0.9,0.5-1.1,0.1C708.4,137.8,708.9,137.9,709.8,137.8z"/>
						<path class="st5" d="M710.9,139.2l-0.1-0.5C710.6,138.7,710.5,138.7,710.9,139.2z"/>
						<path class="st5" d="M710.6,137.7l0.2,1.1c0.4,0.1,1,0.4,0-0.5C711.3,138.6,710.8,138.2,710.6,137.7z"/>
						<path class="st5" d="M711.1,137.4c0.6-0.2,1.1-0.5,1.4,0.5C712.9,136.4,711.5,135.9,711.1,137.4z"/>
						<path class="st5" d="M717.7,136.5l0.8-0.2l-0.4-0.8C718.3,135.8,717,136.2,717.7,136.5z"/>
						<path class="st5" d="M706.7,141.6c0.4,0.3,1.2,0.3,1.7,0.5l-0.2-0.7C707.8,141.5,707.3,141.9,706.7,141.6z"/>
						<path class="st5" d="M708.4,142.1l0.3,1.1C709.1,142.6,708.9,142.3,708.4,142.1z"/>
						<polygon class="st5" points="712.9,140.4 712.1,138.4 712.8,140.7 						"/>
						<polygon class="st5" points="705.1,144.5 704.4,143.5 705.4,145 						"/>
						<path class="st5" d="M704.3,146.4c-0.6-0.7-1.5-0.3-1.8-0.8c-0.1,0.6,0.3,1.4,0.7,2.1C703,147.1,703.3,146.7,704.3,146.4z"/>
						<path class="st5" d="M703.6,148.8c-0.1-0.3-0.3-0.7-0.5-1.1C703.2,148,703.3,148.4,703.6,148.8z"/>
						<path class="st5" d="M707.8,144.5c-0.3-0.1-1-0.3-1.5,0l1.3,0.3C707.7,144.7,707.8,144.6,707.8,144.5z"/>
						<path class="st5" d="M707.7,144.7L707.7,144.7c-0.2,0.3-0.4,0.5-0.4,0.6C707.3,145.3,707.5,145.1,707.7,144.7z"/>
						<path class="st5" d="M707.9,144.4C707.9,144.4,707.9,144.4,707.9,144.4C708,144.5,708,144.5,707.9,144.4z"/>
						<path class="st5" d="M710.9,141.9c0.4,0.8,0.6,2.1,2,1.7C712.3,142.8,711.5,143,710.9,141.9z"/>
						<path class="st5" d="M709.5,144.7l0.7-0.7c-0.3-0.1-0.8-0.2-1-0.6L709.5,144.7z"/>
						<polygon class="st5" points="709.7,145.3 709.5,144.7 709.3,145 						"/>
						<path class="st5" d="M705.4,148c0.3,0.6,0.2,1,0,1.5c0.5-0.3,0.8-0.8,1.1-1.2C706.2,148,705.6,147.5,705.4,148z"/>
						<path class="st5" d="M706.6,146.5c0,0,0,0.1,0,0.1C706.8,146.6,706.8,146.6,706.6,146.5z"/>
						<path class="st5" d="M703.2,153.7c0.1,0,0.2,0,0.2,0C703.4,153.7,703.3,153.6,703.2,153.7L703.2,153.7z"/>
						<path class="st5" d="M706.8,148.3c0.4-0.2,0.2-0.6,0-1c0,0.3-0.1,0.6-0.2,0.9C706.6,148.4,706.7,148.5,706.8,148.3z"/>
						<path class="st5" d="M703.5,150.3c0.3-0.1,0.6-0.2,0.9-0.3C704,150,703.3,150.1,703.5,150.3z"/>
						<path class="st5" d="M706.3,146.5C706.3,146.5,706.3,146.5,706.3,146.5C706,146.4,706.1,146.5,706.3,146.5z"/>
						<path class="st5" d="M706.3,146.5c0.1,0.3,0.3,0.5,0.5,0.8c0-0.3,0-0.5-0.1-0.8C706.6,146.6,706.4,146.6,706.3,146.5z"/>
						<path class="st5" d="M709.8,158.8c-1-0.6-1.5-2,0-2.2c-0.4-1.2-4.1-2.5-6.4-2.9c0.4,0.3,0.9,0.5,1.1,1.6c0.7,0,2.3-1,2.9,0.1
							c0,1.3-0.8,0.7-1.7,0.9c1.5,0.3,1.2,2.3,3.2,3.1l-0.2-1.3C709.1,158.3,709.4,158.9,709.8,158.8z"/>
						<path class="st5" d="M704.3,152.3l0-0.4c-0.4,0.3-0.9,0.3-2,0.4c0.2,0.8,0.6,1.1,0.9,1.4l1-1.5L704.3,152.3z"/>
						<path class="st5" d="M705.2,150.4c1,0.9,1.1,1.9,2.6,2.1c0.4-1-0.6-1.2-0.8-2c-0.5,1.7-0.4-0.8-1.6,0c0-0.4,0-0.7,0.1-1
							c-0.3,0.2-0.6,0.4-0.9,0.5c0,0,0.1,0,0.1,0l0,0l0,0c0.2,0,0.3,0,0.2,0.1c0,0,0,0,0,0C704.9,150.2,705,150.3,705.2,150.4
							c-0.5,0.3-0.3-0.1-0.4-0.3c-0.1,0-0.1-0.1-0.2-0.1l0,0l-0.2,1.9C704.7,151.6,704.9,151.2,705.2,150.4z"/>
						<path class="st5" d="M715,145.7c-0.1,0-0.2,0-0.3-0.1C714.8,145.7,714.9,145.8,715,145.7z"/>
						<path class="st5" d="M714,145.9c-0.1-0.2-0.5-0.5-0.2-0.8c0.5-0.1,0.5,0.3,0.9,0.5c-0.2-0.4-0.4-1.2-1.3-0.8l0.1,0.2
							c-0.7,0.4-2.6,0.5-2.7,0.3C711.9,145.6,712.7,145.8,714,145.9z"/>
						<path class="st5" d="M709.8,148.4l-0.1,1.6l1.3-0.1l-0.6-0.3C711.1,148.9,710.2,148.7,709.8,148.4z"/>
						<polygon class="st5" points="702.6,153.5 701.4,152.7 702.8,154.4 						"/>
						<polygon class="st5" points="701.8,155.3 700.8,154.7 701.2,155.4 						"/>
						<path class="st5" d="M662.6,255.8l0.1,0.5C662.7,256.1,662.6,255.9,662.6,255.8z"/>
						<path class="st5" d="M664.2,253.1l-0.5-0.4C664,253.1,664.1,253.2,664.2,253.1z"/>
						<path class="st5" d="M679.8,196.1c-1.3,0-3.1-0.2-1.9,0.4l1.2,0.5C679.2,196.4,679.5,196.2,679.8,196.1z"/>
						<path class="st5" d="M671,227.7c0.1,0,0.3,0,0.4,0c-0.3-0.4-0.6-0.7-0.9-1C670.7,227,670.8,227.3,671,227.7z"/>
						<path class="st5" d="M675.5,230.7l-1.1,0.3C674.7,231,675,230.9,675.5,230.7z"/>
						<path class="st5" d="M655.1,271.1l0.9,1.1C656.4,271.6,655.7,271.5,655.1,271.1z"/>
						<path class="st5" d="M693.1,172.6c-0.7,0.2-1.1,0.5-1.3,0.8C692.8,173.2,694,173.2,693.1,172.6z"/>
						<path class="st5" d="M651.3,247.8c0.1,0.3,0.2,0.6,0.5,0.7C651.7,248.1,651.6,247.9,651.3,247.8z"/>
						<path class="st5" d="M691.1,174.7c0.2,0,0.3-0.1,0.4-0.1c0-0.4,0-0.9,0.3-1.3C691.1,173.5,690.5,173.8,691.1,174.7z"/>
						<path class="st5" d="M622.1,323.2c-0.1,0-0.1,0-0.2,0C622.1,323.3,622.1,323.3,622.1,323.2z"/>
						<path class="st5" d="M601.5,331.3c0-0.2,0.2-0.4,0.3-0.7C601.6,330.7,601.5,330.8,601.5,331.3z"/>
						<path class="st5" d="M697.8,161.7C697.9,161.3,697.7,161.6,697.8,161.7L697.8,161.7z"/>
						<path class="st5" d="M703.2,162.4c0.1,0.1,0.2,0.3,0.5,0.4C703.4,162.7,703.3,162.5,703.2,162.4z"/>
						<path class="st5" d="M696.3,182.1L696.3,182.1C696.5,182.2,696.5,182.2,696.3,182.1z"/>
						<path class="st5" d="M698.6,161.5c-0.2,0.1-0.4,0.1-0.6,0.3C698.1,161.7,698.3,161.6,698.6,161.5z"/>
						<path class="st5" d="M698,161.3c0.1-0.1,0.2-0.2,0.3-0.3C698.1,160.9,698,160.8,698,161.3z"/>
						<path class="st5" d="M697.6,162.3c0.1-0.2,0.2-0.4,0.4-0.5c-0.1,0-0.2,0-0.2,0C697.7,161.8,697.7,162,697.6,162.3z"/>
						<path class="st5" d="M636.5,293.3c0,0-0.1,0-0.2,0C636.6,293.9,636.6,293.7,636.5,293.3z"/>
						<path class="st5" d="M686.6,211.8C686.6,211.8,686.5,211.8,686.6,211.8c-0.1-0.1-0.1,0-0.1,0L686.6,211.8z"/>
						<path class="st5" d="M686.7,213.6c-1.1-1.3-0.8-1.5-0.2-1.8l-3.5-1.4L686.7,213.6z"/>
						<path class="st5" d="M659.1,262.4l1.5-0.3c1,2,0,2.5,1.9,2.5c-3.4-2.2,1.6-3.6-1.8-5.8l1.1-0.1c-0.1,0.1,0.1,0.3-0.1,0.4
							c2.3-0.1-2.1-2.3-0.7-3.5c0.6-0.3,1.3-0.4,1.5,0.2l-0.2-1.6c0.3-0.3,0.8,0.2,0.6,0.4l0.7-1.9l0.1,0.1
							c-0.4-0.6-0.9-1.6-1.1-2.1c0.8-0.1,0.2,0.4,0.7,0.6l-0.3-1.4c1.1,0.1,1.6,1.4,1,2c4,1.2-0.4-1.3,2.7-2l-0.1,1.2
							c2.3,0.6,2-0.5,3.9-0.8c-0.8-0.1-4.3,0.2-4.6-1.3c0.4-0.1,0.8-0.4,0.4-1.4c1.3,0.7,1.3,0,1.6-0.7l1.6,1
							c-0.1-1-0.9-1.4-1.4-2.3c0.6-0.7,2-0.2,3.2,0.3c1-1.2-2.6-0.3-2-2c1.3-0.7,1-1.9,0.8-3.8c1-0.4,0.9,0.7,1.6,0.7l-0.9-1.4
							c0.1-0.1,0.5,0.1,0.7,0.3c-0.2-0.9-1.6-1-1.6-2.2c-1.7-1.3,3.7-0.3,2.3-2.6c0.6,0,0.9,0.7,1.6,1c-0.5-2.3-0.2-1.9-1.4-4.2
							l1.7-0.4c-1.7,0.1-2.6-1.8-3.3-3.4c-0.8-0.1-1.4-0.1-1.8-0.1l-0.1-1.9c0.4,0,0.9,0.5,1.4,1.1c-0.1-0.2-0.2-0.3-0.3-0.5
							c0.9-0.1,1.7,0.7,2.4,1.6c-0.4,0-0.9,0-1.3-0.1c0.8,0.9,1.7,1.9,2.8,2.4c-0.1-0.2-0.2-0.5-0.2-0.7c0.2,0.2,0.4,0.4,0.6,0.5
							c0.2,0.1-0.1-0.3-0.4-0.8l2,0.7l-0.7-0.5l2.2-1.2c-1.1-2.4-3.2-5.1-2.8-7.6c1.1,1.3,2.2,1.4,3.8,2.3c-2-0.4-0.2,2-1.1,2.9
							c0.5-0.5,1.2,0.1,1.4,0.4l-0.5-2.8c1.3,0.8,1.2,0.2,2.1,0c-2.8-1.1-0.9-2.4-1.3-3.7c0.9,0.4,1.7,1.1,0.9,2
							c2.6,0.1-2.3-3.1,0-3.2c-0.1,0.2-0.3,0.3,0.1,0.6c-0.5-1,0.9-2,1.5-1.2l-0.1,0.2c1.2-1.4,2.7-4.7,0.6-6.2
							c0.3,0.1,2.6,1.7,3,2.1l-5.9-7c1.8,1.3,6.9,2.9,7.2,4.8c0.5-0.2,1.1-0.5,0.8-1.7c-0.4,0.1-3.1-0.9-3.1-1.4
							c2.7,0.2,1.5,0,4-0.2c-0.6,0.2-3.4-1.9-3-2.5c0.4,0.3,3,1.6,3.2,2l-2.1-3.1c0.3,0.7,2.5,1.5,3.5,1.6c-0.7-0.2,0.8-1.3,0.7-1.8
							l-1,0.3c1.4-1.4-3.2-4-2.1-5.6c0.5,0.5,3.5,2.6,4.3,1.9c-1.3-1.2-6.3-5.8-6.7-7.9l1,0.2l-0.4-1.7c1.9,2,5.6,6.6,6.8,8.7
							c1-0.3,1.1,0.4,1.6-0.6c1,0.1,0.9,1.2,0.8,1.5l1.7-1.9c-1.8-0.9-0.8-2.7-2.4-3.4l0.5,3.4c-1.8-0.9-4.2-4.2-3.1-5.5
							c0.9,0,3,2,3.6,2.3c-0.5-0.5-0.3-2.1,0.2-2l0.6,1.2c1.1-0.5-1.6-2.7,0.7-2.8c0.3-0.3,2.9,0.2,1.9-0.5
							c-2.3-0.5-8.6-3.8-9.9-5.1c0.2,0,3-0.8,4.2-0.7c1.9,0.3,3.3,3,4.9,3.2c-0.5-0.3-0.9-0.9-1-1.2c0.6-0.2,1.4,1,1.6,0
							c-1.7-1.1,1.1-1.6-1.3-1.2c-0.1-1.1,0.8-0.7,1.3-1.7c-1.3-0.3-3.5-3-3.6-4.1c0.4,0.3,1.1,0.4,1.4,0.5c1.1-1.6,2.4-2,3.2-3.6
							c0.5,0.1,1.4-0.4,2,0.4c-0.2-0.4-0.7-0.9-0.5-1.4c2.1-0.1-0.3,1.2,1.9,1.5c-1-0.6-0.8-2-1.1-3c-1.7-0.7-1.2,1.4-0.9,2.4
							c-2.2-1.2-3.9-3.6-4.1-5.8c0.1-1.6,1.7,0.2,1.5-0.2c1.7-2.2-2.8-4.1-0.1-5.3c1.9,0,2.8,1.5,4,1.9c0,1.3-1.8,1.1-2.1,1.9
							l1.1-0.5c0.3,0.6,0.3,1.5-0.3,1.6c1.6,0,2.5-3.9,4.6-5.2c-0.3-0.6-0.5-1.4-1.2-1.5l-0.1,0.7c-1.4-0.1-1-2-1.9-1.5
							c-0.4-1.2-1.2-2.8,0.1-3.6l1.7,0.7c-0.5-0.2-1.4,0.2-1,0.8c-0.5-0.8,3.1-0.5,1.2-2.2l-1.5,0.2c-0.4-1.2-1.6-3.1-0.6-3.8
							c-1.8-0.4,0.1,0.3-2.2,0c2.7,0.6-1.4,2.5,1.5,2.8c-2.6-0.4-1.6,0.8-3.9,0.7c0.6,0.3,1.2,0.2,0.5,0.9c0.1,0.1,0.3,0.3,0.4,0.4
							c0,0,0,0-0.1,0c0,0,0.1,0,0.1,0c0.1,0.1,0.1,0.1,0,0c0.3-0.1,0.7-0.1,1,0c1,1.1,0.3,2.4,0.7,3.2c-0.5,0.4-0.5-0.5-1.2-0.6
							l0.6,1.2c-1.2-0.6-2.7,0.3-2.7-1.3l-0.6,1c-1,0.3-1.7,1-1.5,1.7c-0.5,0.4,0.6,1.9-0.1,1l-0.1,2l-0.3-0.1c-1,1.5,0.2,4.4-3,5
							c0,0.7,0.1,1.5-0.8,2.2l-1.1-0.4c0,0.9-2.2,1.5-1.2,2.4c-3.2-0.8-2.4,3-3.6,4l1.3,0.8c-0.5,0.8-0.6,1.8-0.6,3.1l1.2,0.6
							c0.5,1.4-2.1,1.8-2.8,3.3c-0.4-0.3-0.1-0.6,0.3-0.7c-3.6,0.2,0,4.6-2.8,5.1c0.2,0.6-0.1,0.8-0.5,0.9c0,0,0-0.1,0-0.1
							c0,0-0.1,0.1-0.1,0.1c-0.3,0.1-0.6,0.1-0.9,0.2c0.4,0,0.7,0,0.9-0.1c-0.1,0.3-0.2,0.8-0.2,1.4l-1.4-0.5c0,0,0,0.1,0,0.1
							c-0.7,0.2,0.4,0.7,1.5,1c0.1,0.3,0.2,0.7,0.4,1c-2.2-0.8,0,1.5-2.4,0.8c0.9,0.9-0.4,2.6,1.7,4.1c-0.3-0.1-0.5-0.1-0.4-0.3
							c-0.5,0.3-1,0.7-0.7,1.5l-1.7-0.7l1.6,2.3c-1.3,0.1-2.1,0-2.9-1.3c1,2.6,0,1.7,1.1,4l-1-0.6c-0.2,0.5,0.7,2-0.3,1.8
							c-2.6-0.1-3.2,5.1-6.6,6.7c3.3,1.2-2.1,0.5,0.2,1.9c-0.8-0.3-1.4-0.1-1.8-0.9c-0.1,1.8-2.3,1.4-0.9,3.5
							c-0.8-0.3-0.9-0.9-1.4-1c0.1,0.2,0.4,0.8-0.1,0.7c-0.5-0.1-0.5-0.5-0.7-0.9c-0.7,1.5,1.5,2.9,3.5,4.2
							c-1.4,0.1-1.5,0.6-0.4,1.9c-0.8-0.1-1.8-0.1-1.5-1.1c-0.4,0.4-2.7,2.4-1.1,3.4c-0.5-0.1-0.5,0.6-0.4,0.9
							c-0.7,1-0.9,1.1-1.4,2.2l0.4-0.1c1.8,1.6-0.1,1.2-0.3,2.2l-0.2-0.1c-2.6,1.2,0.2,1.3-2.6,2.3l1.3,0.6c2.6,1.7-2.6,0.8-2.2,2.6
							l0.9,0c0.6,1.2-4.6-0.4-5.3,0.1c-0.3,0-0.2-0.4-0.3-0.7c-2.5,0.7,1.5,1.2,1.2,2.6c-1-0.3-2.1-1.6-2.7-0.9
							c-0.9,0,1.5,4-0.9,4.2c0.8,0.1,1.6,0.3,1.8,1.2c-0.3,1-3.9,0.8-2.3,2.9c-0.2,0-0.5-0.1-0.6-0.2c0.2,1-0.3,2.7,0.6,3.8
							c-4.6-1.9-0.3,5.3-4.3,3l-1,2.2l-0.4-0.3c-1,1.1-0.4,2.2,0.3,3.2c-0.4,0.1-0.7-0.3-0.9-0.4c-1.9,1.4-1.9,1.7-0.8,4.5l-1.4-0.6
							c0.5,0.9-3.6,1.5-3.2,4.3c-0.1-0.1-0.4-0.3-0.5-0.5c0.3,3-6.5,2.9-2.3,6.4l0.3,2.1c1.4-1.6,1.9,1.5,3.1,1.2
							c-0.2,0.9-2.5,1-2.2,0l0.3,0c-2.2-1.8-2.2,1.7-3.8,0.7c-2,3.6-5.4,6.2-7.5,9.4l2.1,0.8l-0.8,1.1c-0.6,0-1.7-0.5-1.1-1.3
							c-1.3-0.2,0.1,1.9,0.4,2.2c-1.7,1.1-1.8-2-2.1-1.5l-0.3,0.7l0.3,0c0.4,1,1.2,1.5,0.5,2.5c-0.8,0.4-1.3-0.4-1.6-0.2
							c-0.1-0.1-0.2,0-0.3,0.3l-1,1.3l1.8,0.3c0.3,1.1-0.9,1.3,1.2,1.7c-3.2-0.6-4.2,4.8-5.4,4.9c0.5,1.6,0,2.4-0.8,3.4
							c0.5-0.1,2.2,0.8,1.4,1.6c-3.2-2.5-2.5,0.8-5.5,0c2,0.3-1.2,2.9,1.7,3.3c-0.8,0.6-1.3-0.7-2.5-0.7c0.2,2.7-3.4,3.6-4.4,6.1
							c0.4,0.3,1.3,0.4,1.7,1.3l-3-0.2c-0.1,0.6,2.3,2,0.3,1.9c0.4,0.1,1.1,0.3,1.1,0.7c-5,3.1-4,10.3-11,12.2
							c1.3-0.1,1.1,0.4,0.8,0.9c0.4-0.2,1.1,0.7,1.7,1l-2.9,0.8c1.4,1.4-1.2,2.1,0.3,3.3l0.1-0.8c1.4,2,4.9,1.6,7.2,3.3
							c-1.6-2.3,4.7-0.3,2.6-3.8c0.7,0,0.6,0.8,1.3,1c-0.8-1-0.7-1.6,0.3-2.2l0.2,0.3c1.3-2.5,2.9-2.9,5.3-5.1l-1.3-0.6
							c0.5-0.5,1-0.3,1.4-0.4c-1.4-1.8-1.1,1.5-2.7-0.3c2.9,0.8,2.6-4,5.7-2.8c0.6-0.9-1.6-0.6-1-1.5l0.9,0.2l-0.8-0.8
							c0.5-0.5,1.6-0.2,2.3,0.2c-0.2,0.1-0.1,0.5-0.1,0.7c1.4-0.2,1-2.3,1.5-2.4l-1,0.6c0.8-2.8,3.6-5.1,3.5-8.4l-0.7-0.2
							c0-2.4,1.5-1,2.2-3.3l0.1,0.2c-0.3-0.7-0.3-1.4,0.1-1.9c0.4,0.9,1.9-0.1,2.2,1c0.1-2.6-0.3-1.5-1.6-4.1l1.1,0.3
							c-0.6-1-1-1.3-0.7-2.4c0.3,1.3,1.8,0.3,2.4,1.8c3.3-0.8-0.2-4.3,3.4-3.4c-2.1-2.5-2.5,0.9-2.8,0c-1.1-0.1-1.5-2-0.8-2.5
							c0.5-0.6,4,0.9,5-0.7c-0.1,0.2,0.1,0.3,0,0.4c1-0.2-0.2-1.8,1.4-1.9c-1.3-1.4,0.7-0.9-1.3-2.3l-0.5,1.8c0-1.2-1.9-3.4,0.1-4.1
							c0.3,0.4,0.6,1.1,0.7,1.6c0.8,0,0.1-1,1-1.1c2,1.4-0.7,2.1,0.3,4c1.1,0.1-0.4-2.6,1.5-0.8c-2.4-2.4,1.3-1.4-0.1-3.8l1.2,0.8
							c-0.1-0.3-0.4-1-0.2-1.3l1.2,1.5c-0.8-1.7,2.2-1,2-2.3c-1.1,1.8-1.7-0.5-3.1-0.2c-0.3-3.2,4,0.6,4.9-2.2c0,0.4-1.5,0.8-1.7,0
							c0.5-0.3,1.4-0.7,2.2-0.6c0.8-1.8-1.4-0.5-1.7-1.7c1.8,0.3-0.1-1.2-0.1-2.2l1.2,0.7c1.9-1.4-2.3-2.1-0.3-3.2l1.3,1.8l0.1-1.2
							l1.3,1c-0.5-1.6,0-1.7,1-2.4c-1-0.3-2.2-1.5-1.7-2.3c1.1-0.1,1,1,1.5-0.3c0.6,0.7,1.4,1.6,0,1.4c0.4,0.3,0.6,0.7,1,1
							c1.2-0.1,1.1-1.4,1.4-1.9c-0.1,0.1-0.3,0.3-0.6,0.3l-0.7-2.8c0.6,0,0.9,0.4,1.1,0.9c0.1-0.4-0.4-1-0.2-1.6
							c0.9,0.7,2,1.3,2,2.3l-0.1-2.3c0.5,0.2,1.7-0.1,2,0.3c1.1-0.6-0.6-3.4,0.9-4.2c-0.2-0.2-0.3-0.4-0.3-0.8
							c0.9-1,2.7-1.3,2.2-3.5l2.3,0.3c0.2-1.3-2.9-0.3-2.5-2.5c0.2-1.6,1.8,0.4,2.6,0.3c-0.5-1.2-1.8-3.3,0.4-3.6
							C659.7,261.8,659.2,262,659.1,262.4z M666,248.8c0.1,0.4,0.6,1.4-0.2,1.1C664.5,248.8,665.4,249,666,248.8z M674.5,227.1
							c0.3,0.4-0.1,0.6-0.7,0.7C673.8,227.5,674,227.2,674.5,227.1z M696.7,166.2C696.8,166.2,696.8,166.2,696.7,166.2
							C696,166.5,696.3,166.4,696.7,166.2z M697.9,165.3c-0.1-0.2-0.3-0.3-0.5-0.3c0.3,0.3,0.2,0.5-0.1,0.8
							C697.7,165.8,698,165.8,697.9,165.3z M626,291.9l0.5,0C626.5,292.6,626.2,292.2,626,291.9z"/>
						<path class="st5" d="M674.9,230.4c-0.3,0-0.5-0.2-0.7-0.3C674.3,230.3,674.6,230.4,674.9,230.4z"/>
						<path class="st5" d="M655,270.9C655,270.9,655,270.9,655,270.9c0,0.1,0.1,0.2,0.2,0.2L655,270.9z"/>
						<path class="st5" d="M698.7,189.6c-0.3,0.1-0.6,0.2-0.9,0.1C698.1,189.9,698.4,190,698.7,189.6z"/>
						<path class="st5" d="M699.1,157.8l-0.1,0.9c0.1-0.4,0.5-0.4,0.8-0.5C699.5,158.1,699,158,699.1,157.8z"/>
						<path class="st5" d="M710.6,155.3c-0.1-0.2,0.1-0.2,0-0.4l-0.6-0.3C709.8,155,710.1,155.6,710.6,155.3z"/>
						<path class="st5" d="M703.8,159.3c1.1,0.5,1-0.2,1.1-0.8c0,0,0,0.1-0.1,0.1C703.4,157.6,703.6,158.5,703.8,159.3z"/>
						<path class="st5" d="M704.9,158.3c0-0.2,0.1-0.4,0.2-0.5C704.5,157.5,704.9,158,704.9,158.3z"/>
						<path class="st5" d="M698,163.4c0.4-0.1-1.3-0.9-0.8-0.8C696,161.5,698,165.1,698,163.4z"/>
						<polygon class="st5" points="707.5,160.7 706.1,160.2 707,161.1 						"/>
						<path class="st5" d="M704.3,164.5l0.8-0.7c-0.2-0.1-0.3-0.3-0.3-0.5C704.5,163.9,703.9,164.3,704.3,164.5z"/>
						<path class="st5" d="M704.8,163.3c0.2-0.3,0.3-0.5,0.1-0.8C704.9,162.7,704.8,163,704.8,163.3z"/>
						<polygon class="st5" points="707.3,162.1 706.9,162.2 706.5,162.8 						"/>
						<path class="st5" d="M699.1,173.6l-0.1,1.1c0.4,0.3,0.8,0.2,0.8-0.2C699.6,174.1,699.6,173.7,699.1,173.6z"/>
						<path class="st5" d="M704.3,172.7c-0.4,0.1-0.7,0-1.2-0.1l1.6,0.9L704.3,172.7z"/>
						<path class="st5" d="M703.2,175.6c0.4,0.3,0.6,2.1,1.1,0.8C703.9,176.1,704,175,703.2,175.6z"/>
						<polygon class="st5" points="693.4,188.6 693.6,188.4 690.9,186.9 						"/>
						<path class="st5" d="M693,204.5c1.3-0.8-1.5-1.2-0.2-1.7c-0.5-0.6-1.1,0.5-1.5-0.1C691.6,203.7,691.1,203.9,693,204.5z"/>
						<path class="st5" d="M691.3,202.7c0-0.2-0.1-0.3-0.2-0.6C691.2,202.4,691.3,202.6,691.3,202.7z"/>
						<polygon class="st5" points="598.5,332.9 597.5,333.2 598.7,333.3 						"/>
						<path class="st5" d="M599.6,335.4l-1.7-0.9l1.2,1.4C599.1,335.6,599.1,335.3,599.6,335.4z"/>
						<path class="st5" d="M670.5,248.9l-0.4-0.3c-0.5-0.1-0.6,0-0.9,0.3L670.5,248.9z"/>
						<polygon class="st5" points="663.7,257.6 663.8,257.5 662.1,256.9 						"/>
						<path class="st5" d="M661,266.8c0.3-0.3,0.1-0.9,0.4-1.2C661.2,266.5,659,265.7,661,266.8z"/>
					</g>
				</g>
			</g>
		</g>
	</g>
	<g>
		<g>
			<g>
				<g>
					<g>
						<path class="st5" d="M643.3,335.1c0.1,0.1,0-1.1,0-1.4C643.1,334,643.4,335.5,643.3,335.1z"/>
						<polygon class="st5" points="641.5,338.2 641.5,337.7 641.4,338.9 						"/>
						<path class="st5" d="M639.6,338.4c0.4,2.1,0.7-0.4,1.1,0.3l0.1,0.5l0-1.7C640.4,337.7,640,338.9,639.6,338.4z"/>
						<path class="st5" d="M638.1,333.9c0.1,0.8-0.1,0.7,0.3,0.2c0-0.1,0-0.1-0.1-0.2C638.3,333.9,638.2,333.9,638.1,333.9z"/>
						<path class="st5" d="M638.3,333.9C638.5,333.8,638.1,333.2,638.3,333.9L638.3,333.9z"/>
						<path class="st5" d="M637.4,334.5l0.2-0.8c-0.1-0.5-0.4-0.6-0.3-0.9C637.1,333.2,637.2,333.7,637.4,334.5z"/>
						<path class="st5" d="M637.3,336l0.1-0.3C637.4,335.5,637.3,335.4,637.3,336z"/>
						<path class="st5" d="M637.7,335l-0.2,0.7c0.1,0.3,0.2,1,0.1-0.3C637.6,336.1,637.6,335.5,637.7,335z"/>
						<path class="st5" d="M637.9,335.3c0.2,0.4,0.4,0.7,0.2,1.5C638.6,336.5,638.3,335,637.9,335.3z"/>
						<path class="st5" d="M639.7,340.6l0.3,0.6l0.1-0.7C640.1,340.8,639.7,339.9,639.7,340.6z"/>
						<path class="st5" d="M635.6,333.5c0,0.5,0.2,1.2,0.3,1.8l0.1-0.5C635.9,334.5,635.7,334.2,635.6,333.5z"/>
						<path class="st5" d="M635.9,335.3l-0.2,0.8C636,336.2,636,335.8,635.9,335.3z"/>
						<polygon class="st5" points="637.5,338.4 637.8,336.7 637.4,338.4 						"/>
						<polygon class="st5" points="634.5,333.6 634.6,332.5 634.4,334.1 						"/>
						<path class="st5" d="M633.8,333.8c0-0.9-0.3-1.5-0.2-2c-0.2,0.2-0.3,0.9-0.4,1.6C633.3,333.1,633.5,333.2,633.8,333.8z"/>
						<path class="st5" d="M633,334.5c0.1-0.2,0.1-0.6,0.2-1C633.1,333.7,633,334,633,334.5z"/>
						<path class="st5" d="M635.2,335.9c-0.1-0.3-0.2-1-0.4-1.3l0.2,1.3C635.1,335.9,635.1,335.9,635.2,335.9z"/>
						<path class="st5" d="M635.1,336L635.1,336c-0.1-0.1-0.2-0.1-0.3-0.1C634.8,335.9,634.9,335.9,635.1,336z"/>
						<path class="st5" d="M635.2,335.9C635.2,335.9,635.2,335.9,635.2,335.9C635.2,336.1,635.2,336.1,635.2,335.9z"/>
						<path class="st5" d="M636.6,337.3c-0.1,0.7-0.4,1.5,0.1,2.6C636.7,339,636.5,338.4,636.6,337.3z"/>
						<path class="st5" d="M635.5,337.5l0.3,0.3c0-0.3-0.1-0.8-0.1-1.2L635.5,337.5z"/>
						<polygon class="st5" points="635.4,337.9 635.5,337.5 635.4,337.4 						"/>
						<path class="st5" d="M633.7,335.6c-0.1,0.6-0.2,0.6-0.4,0.7c0.2,0.2,0.4,0.3,0.6,0.3C633.8,336.3,633.8,335.6,633.7,335.6z"/>
						<path class="st5" d="M634.4,335.9L634.4,335.9C634.4,336.1,634.4,336.1,634.4,335.9z"/>
						<path class="st5" d="M631.6,336.5c0,0.1,0,0.2,0.1,0.2L631.6,336.5L631.6,336.5z"/>
						<path class="st5" d="M633.9,336.9c0.2,0.2,0.2-0.1,0.2-0.5c-0.1,0.1-0.2,0.2-0.3,0.3C633.9,336.9,633.9,337,633.9,336.9z"/>
						<path class="st5" d="M632.6,335.1c0.1,0.3,0.2,0.5,0.3,0.7C632.8,335.4,632.6,334.8,632.6,335.1z"/>
						<path class="st5" d="M634.3,335.6C634.3,335.6,634.3,335.6,634.3,335.6C634.2,335.3,634.2,335.4,634.3,335.6z"/>
						<path class="st5" d="M634.3,335.6c-0.1,0.2-0.1,0.5-0.1,0.8c0.1-0.1,0.1-0.3,0.2-0.4C634.3,335.9,634.3,335.8,634.3,335.6z"/>
						<path class="st5" d="M632,344.8c-0.1-1.2,0.1-2.3,0.6-1.1c0.2-0.9-0.4-4.8-0.9-6.9c0,0.5,0.1,1-0.1,1.7
							c0.2,0.6,0.8,1.4,0.7,2.5c-0.3,0.7-0.4-0.4-0.6-1c0.3,1.5-0.3,2.2,0,4.4l0.3-0.8C631.9,343.9,631.8,344.5,632,344.8z"/>
						<path class="st5" d="M632.3,336.8l0.1-0.2c-0.2-0.2-0.3-0.7-0.6-1.6c-0.2,0.6-0.2,1-0.1,1.4l0.6,0.1L632.3,336.8z"/>
						<path class="st5" d="M633,336.6c0,1.3-0.2,1.9,0.1,3.2c0.4-0.1,0.2-1.1,0.3-1.7c-0.6,0.4,0.1-0.7-0.4-1.4
							c0.1-0.2,0.2-0.3,0.3-0.4c-0.1-0.1-0.3-0.3-0.4-0.6c0,0,0,0.1,0,0.1l0,0c0,0,0,0,0,0c0,0.2,0.1,0.3,0,0.2c0,0,0,0,0,0
							C632.9,336.3,633,336.4,633,336.6c-0.2-0.3-0.1-0.3,0-0.5c0-0.1,0-0.1,0-0.2c0,0,0,0,0,0l-0.5,0.8
							C632.5,336.8,632.7,336.8,633,336.6z"/>
						<path class="st5" d="M636.7,342.7c0-0.1,0-0.2-0.1-0.3C636.6,342.6,636.6,342.7,636.7,342.7z"/>
						<path class="st5" d="M636.3,342c0-0.2,0-0.7,0.2-0.6c0.2,0.4,0.1,0.6,0.1,1c0.1-0.3,0.2-1-0.1-1.6l0,0.2
							c-0.3-0.4-0.8-2-0.7-2.2C635.9,340,636.1,340.8,636.3,342z"/>
						<path class="st5" d="M634.7,339.6l-0.4,0.7l0.4,1.1l-0.1-0.7C634.8,340.9,634.7,340.1,634.7,339.6z"/>
						<polygon class="st5" points="631.5,335.9 631.4,334.5 631.3,336.5 						"/>
						<polygon class="st5" points="630.9,336.1 630.8,334.9 630.7,335.7 						"/>
						<path class="st5" d="M590.3,351.1l-0.3,0.1C590.1,351.2,590.2,351.2,590.3,351.1z"/>
						<path class="st5" d="M590.4,352.9l0.5-0.5C590.6,352.6,590.4,352.8,590.4,352.9z"/>
						<path class="st5" d="M614.7,337.9c-0.3-1.1-0.7-2.8-0.6-1.4l0.2,1.3C614.5,337.5,614.6,337.6,614.7,337.9z"/>
						<path class="st5" d="M604.4,346.8c0,0.1,0,0.3,0,0.4c0.2-0.5,0.3-0.9,0.4-1.3C604.7,346.2,604.5,346.5,604.4,346.8z"/>
						<path class="st5" d="M602.8,352.4c0,0,0-0.2-0.1-0.4c0-0.2-0.1-0.4-0.1-0.4C602.7,351.8,602.7,352.1,602.8,352.4z"/>
						<path class="st5" d="M587.9,342.2l-1.3,0.2C586.7,342.8,587.3,342.4,587.9,342.2z"/>
						<path class="st5" d="M624.2,337.3c-0.2-0.5-0.4-0.7-0.5-0.7C623.9,337.3,624.2,338.4,624.2,337.3z"/>
						<path class="st5" d="M602.9,339.1c-0.2,0.2-0.5,0.4-0.7,0.7C602.4,339.6,602.6,339.4,602.9,339.1z"/>
						<path class="st5" d="M623.1,336.6c0,0.1,0.1,0.2,0.1,0.3c0.1-0.2,0.2-0.4,0.4-0.4C623.4,336,623.2,335.7,623.1,336.6z"/>
						<path class="st5" d="M586.4,318.5c0.1,0,0.1,0,0.1-0.1C586.4,318.4,586.4,318.4,586.4,318.5z"/>
						<path class="st5" d="M598.8,310.8c0.1,0.1,0.1,0.2,0.1,0.2C599,311,599,311,598.8,310.8z"/>
						<path class="st5" d="M628.2,335.8C628.3,335.7,628.2,335.7,628.2,335.8L628.2,335.8z"/>
						<path class="st5" d="M629.4,340.9c0,0.1,0,0.3,0,0.6C629.3,341.2,629.3,341,629.4,340.9z"/>
						<path class="st5" d="M622.5,344.8L622.5,344.8C622.6,345.1,622.6,345,622.5,344.8z"/>
						<path class="st5" d="M628.4,336.4c-0.1-0.2-0.1-0.3-0.2-0.4C628.2,336.1,628.3,336.2,628.4,336.4z"/>
						<path class="st5" d="M628.3,335.8c0.1,0.1,0.1,0.1,0.1,0.1C628.5,335.7,628.4,335.5,628.3,335.8z"/>
						<path class="st5" d="M628,335.9c0.1,0,0.2,0,0.2,0.1c0-0.1-0.1-0.2-0.1-0.2C628.1,335.8,628.1,335.9,628,335.9z"/>
						<path class="st5" d="M591.1,329.5c0,0,0.1,0,0.1,0C590.7,329.4,590.8,329.4,591.1,329.5z"/>
						<path class="st5" d="M612.5,351.7C612.5,351.7,612.5,351.7,612.5,351.7l0-0.1L612.5,351.7z"/>
						<path class="st5" d="M612.1,352.8c0-1.6,0.2-1.4,0.4-1.1l-0.6-3.7L612.1,352.8z"/>
						<path class="st5" d="M589.5,347.2l-1,1.4c-1.9,0.6-1.3-0.5-2.8,1.2c1.9-1.3,2.1-0.7,2.2-0.2c0.2,0.5,0.3,1.1,2.2-0.5l-0.7,1.1
							c0-0.1-0.2,0-0.2-0.1c-1.7,2.4,2.8-1.8,2.3-0.5c-0.3,0.6-0.8,1.3-1.2,1.5c0,0,0.2,0,0.5-0.1c0.2-0.1,0.5-0.1,0.5-0.1
							c0,0.3-0.7,0.9-0.6,0.6l0.4,0.8l-0.1,0.1c0.6-0.5,1.5-1.1,1.9-1.4c-0.5,0.8-0.4,0.3-0.8,0.9c0,0,0.2-0.1,0.5-0.2
							c0.2-0.1,0.5-0.2,0.5-0.2c-0.9,1.3-1.9,1.9-1.8,1.4c-1.7,2.3-1.6,2.2-1.1,2c0.4-0.2,1.1-0.7,0.3,0.8c0,0.1,0,0.1-0.1,0.2
							l-0.2,0.1l-0.4,0c-0.8,1.1-1.1,1.7-1.3,2.2c-0.1,0.4,0.3,0.4,0,1.3c0.2-0.4,0.6-1.4,1.2-2.4c0.6-1,1.3-2.1,2.1-2.6
							c-0.1,0.3,0.1,0.5,1.1-0.5c-1.2,1.6-0.5,1.2,0,1l-1.5,2.1c1-0.7,1.7-1.7,2.6-2.7c0.4,0.2-0.6,1.7-1.3,3.1
							c0.4,0.1,0.6-0.5,1-1.2c0.3-0.7,0.8-1.5,1.4-1.8c0.2,0.7,1.3-0.2,2.7-1.5c0.1,0.7-0.8,1.3-0.9,1.8l1.3-1.7
							c0.1,0-0.2,0.5-0.4,0.8c0.7-0.7,1.1-2,1.8-2.6c0.6-1.1,0.4-0.3,0.4,0.4c0,0.7,0.1,1.4,0.9,0.1c-0.1,0.6-0.6,1.2-0.8,2
							c0.8-0.9,1.1-1.2,1.4-1.6c0.3-0.4,0.6-0.8,1.3-2c0,0,0,0.3,0.1,0.6c0.1,0.3,0.1,0.6,0.1,0.6c0-1.4,1.1-3.3,1.7-4.8
							c0.1-0.7,0.1-1.3,0.2-1.6c0,0,0.2-0.3,0.4-0.6c0.2-0.3,0.3-0.6,0.3-0.6c0,0.3-0.2,1-0.5,1.8c0.1-0.2,0.1-0.3,0.2-0.5
							c0,0.7-0.3,1.9-0.7,3c0-0.4,0-0.8,0-1.2c-0.4,1.2-0.9,2.6-1.2,3.7c0.1-0.2,0.2-0.4,0.4-0.6c-0.1,0.3-0.2,0.6-0.3,0.8
							c0,0.2,0.2-0.2,0.4-0.8l-0.3,2.2l0.2-0.9c0,0,0.2,0.3,0.4,0.6c0.2,0.3,0.4,0.6,0.4,0.6c1.2-2.3,2-5.6,2.8-6.5
							c-0.2,1.6-0.1,2.6-0.1,4.5c-0.2-1-0.4-0.7-0.6-0.3c-0.3,0.4-0.6,1.1-0.9,0.9c0.3,0.2,0.2,1.1,0,1.4c0,0,0.3-0.5,0.6-1
							c0.3-0.5,0.6-1,0.6-1c-0.1,1.5,0.2,1.1,0.5,1.7c-0.2-3,0.8-2.1,1.1-3.1c0.1,1,0.1,2-0.5,1.9c0.4,1.1,0.5,0.2,0.6-0.7
							c0.1-0.9,0.1-1.9,0.4-1c-0.1,0-0.2-0.1-0.1,0.4c0.1-0.9,0.7-0.3,0.7,0.6l-0.1,0c0.7,0.3,1.9-0.2,1.7-2.7
							c0,0.3,0.2,3.1,0.3,3.6l0.2-8.7c0.1,2.2,1,7.3,0.7,8.6c0.2,0.3,0.4,0.6,0.6-0.2c-0.1-0.3-0.6-3.1-0.5-3.3
							c0.6,2.4,0.4,1.3,1.1,3.3c-0.2-0.5-0.4-3.9-0.1-3.8c0,0.5,0.4,3.4,0.3,3.7l0.2-3.4c-0.1,0.6,0.3,2.8,0.5,3.8
							c-0.1-0.7,0.5,0,0.6-0.3l-0.3-0.8c0.7,0.4,0.2-4.8,0.9-4.7c0,0.7,0.2,4.3,0.6,4.7c0-1.7-0.2-8.3,0.3-9.7l0.2,1l0.3-1.2
							c0,2.6-0.2,8.1-0.4,10.3c0.3,0.8,0.2,1.2,0.6,1c0.2,0.9-0.1,1.4-0.2,1.5l0.9,0.5c-0.2-2,0.5-2.1,0.3-3.7l-0.7,2.2
							c-0.2-2,0-5.8,0.6-5.5c0.2,0.8,0.3,3.6,0.3,4.3c0-0.7,0.5-1.4,0.6-0.9l-0.2,1.1c0.4,0.7,0.3-2.7,0.9-0.8
							c0.2,0.1,0.7,2.5,0.6,1.3c-0.5-2.3-1.2-9.3-1.3-11.1c0.1,0.1,1,2.1,1.3,3.2c0.4,1.8,0.1,4.3,0.4,5.8c0-0.5,0-1.2,0-1.5
							c0.2,0.5,0.1,1.7,0.4,1.4c-0.2-2,0.7,0.1,0-1.7c0.3-0.6,0.4,0.4,0.7,0.3c-0.3-1.3-0.1-4.5,0.1-5.1c0,0.5,0.2,1.2,0.2,1.5
							c0.7,0.1,1.1,1,1.7,1c0.1,0.5,0.5,1.1,0.4,1.9c0.1-0.4,0.1-1.1,0.2-1.1c0.5,1.7-0.4,0.3,0.1,2.4c-0.1-1.2,0.3-1.7,0.5-2.4
							c-0.3-1.8-0.7-0.3-0.8,0.5c-0.3-2.5-0.1-5.2,0.4-6.4c0.4-0.7,0.4,1.6,0.4,1.2c1,0.3,0.4-4.5,1.3-2.7c0.5,1.6,0.3,3.2,0.5,4.3
							c-0.3,0.7-0.7-1-1-0.9l0.4,0.7c-0.1,0.5-0.3,1-0.5,0.5c0.4,1.4,1.6,0.1,2.5,1.4c0.1-0.6,0.2-1.1,0.1-1.8l-0.2,0.2
							c-0.3-1.3,0.3-1.8-0.1-2.4c0.2-0.9,0.4-2.4,0.9-1.7l0.3,1.8c-0.1-0.5-0.4-1.1-0.5-0.5c0.1-0.8,0.9,2.4,0.9,0l-0.4-1.2
							c0.2-1,0.4-2.9,0.9-2.4c-0.4-1.8-0.1,0.2-0.6-1.9c0.5,2.6-1,0-0.3,2.7c-0.5-2.4-0.6-1-1.2-3c0.1,0.6,0.3,1.1-0.1,0.9
							c0,0.2,0,0.4,0,0.5c0,0,0,0,0,0l0,0.1c0,0.1,0,0.1,0,0c0.1,0.3,0.2,0.6,0.3,0.9c0,1.4-0.5,1.4-0.6,2.1c-0.2-0.3,0-0.7-0.2-1.3
							l-0.2,1.1c-0.2-1.3-0.7-2.2-0.4-3l-0.4,0c-0.3-0.7-0.7-1-0.8-0.4c-0.2-0.3-0.3,1.5-0.3,0.5l-0.6,0.9l0-0.3
							c-0.7-0.1-1.1,2.4-2.1,0c-0.2,0.4-0.4,0.8-0.8,0.5l-0.2-1.2c-0.2,0.4-0.9-1.1-0.9,0.1c-0.6-3.1-1.4-0.5-1.9-1l0.1,1.5
							c-0.3-0.1-0.6,0.4-1,1.1l0.2,1.3c-0.2,1.1-1-0.9-1.6-0.7c0-0.5,0.1-0.4,0.3-0.1c-1-3-1.2,2.3-2,0.2c-0.1,0.5-0.2,0.3-0.4,0
							c0,0,0,0,0-0.1c0,0,0,0-0.1,0c-0.1-0.2-0.2-0.5-0.3-0.7c0.1,0.3,0.2,0.6,0.3,0.7c-0.1,0-0.3,0.2-0.4,0.6l-0.2-1.4c0,0,0,0,0,0
							c-0.2-0.5-0.1,0.7,0.1,1.8c-0.1,0.2-0.1,0.5-0.1,0.9c-0.4-2.3-0.4,0.8-0.8-1.6c0,1.2-0.8,1-0.6,3.5c0-0.3-0.1-0.5,0-0.5
							c-0.2-0.3-0.4-0.5-0.5,0.2l-0.3-1.8l-0.2,2.5c-0.4-1.1-0.5-1.7-0.4-3.2c-0.4,2.2-0.4,0.9-0.7,3.1l-0.1-1.2
							c-0.2,0.1-0.3,1.7-0.5,0.7c-0.3-1.1-0.9-1.1-1.5-1.1c-0.7,0-1,0-1.3-1c0.1,1.8,0,1.4-0.1,0.9c-0.1-0.5-0.1-1.1-0.2,0.3
							c0-0.8,0-1.3,0.1-2c-0.1,0.4-0.2,0.1-0.3,0c-0.1-0.1-0.1-0.1-0.4,1.1c0.1-0.8,0.2-1.2,0.3-1.7c0,0.2-0.2,0.7-0.1,0.2
							c0.1-0.5,0.1-0.7,0.2-1.1c-0.1,0.2-0.7,2.8-1.2,5.2c0-1.1,0-1-0.6,0.7c0.1-0.8,0.3-1.6,0.5-1.9c-0.1-0.1-0.3-1.1-1,0.9
							c0.1-0.5-0.1-0.1-0.2,0.1c-0.2-0.1-0.2-0.3-0.6,0l-0.1,0.3c-1.2,2.4-0.5,0.6-0.9,0.9l0.1-0.3c0.2-0.9,0-0.6-0.2-0.5
							c-0.1,0.2-0.3,0.3,0-0.6l-0.9,1.5c-1,1.7-0.9,1.2-0.6,0.5c0.3-0.7,0.7-1.7,0.2-1.1l-0.5,0.9c-0.5,0.6,0.1-0.5,0.9-1.9
							c0.8-1.3,1.8-2.8,1.9-3.1c0.2-0.3,0.4-0.5,0.5-0.7c1.2-2-1.5,2-2.1,2.6c0.8-1.1,2.1-2.8,2.2-3c0.3-0.4-0.4,0.5-1.1,1.2
							c-0.6,0.7-1.1,1.1-0.3,0c-0.7,0.8-1.4,1.7-1.9,2.2c-0.1,0,0.5-0.8,0.9-1.4c0.4-0.6,0.6-0.8-0.6,0.2c0.2-0.2,0.4-0.4,0.6-0.6
							c-0.6,0.5-1,0.5-2.3,1.5c2.3-2.1,1.7-1.8,1.1-1.6c-0.6,0.3-1.3,0.5,0.8-1.1l-0.3-0.3l0.4-0.3c0.3-0.4-0.8,0.1-1.8,0.6
							c0.3-0.2,0.7-0.4,0.9-0.5c0.8-0.9,0.7-0.7-1.6-0.2l1.4-0.6c-0.4,0.1,0.1-0.3,0.6-0.6c0.4-0.4,0.8-0.6-0.1-0.6
							c0.2,0,0.4-0.1,0.7-0.1c-0.9,0,0.1-0.5,0.7-0.7c0.3-0.1,0.4-0.4,0.2-0.5c-0.3-0.1-0.9-0.2-2.3-0.1l-1.4-0.4
							c-0.3,0.8-2.3,0.1-3.2,0.5c-0.3-0.2,1.5-0.9,1.9-0.6l-0.3,0.1c2.8-0.2,0.9-1,2.8-1.2c-0.3-1.4,1.1-3,1.1-4.3l-2.2,0.4l0.1-0.5
							c0.5-0.2,1.7-0.3,1.6,0c1.2-0.3-1.1-0.4-1.6-0.4c0.8-0.7,2.6,0,2.6-0.2l-0.2-0.3l-0.2,0.1c-0.9-0.1-1.9,0-1.8-0.4
							c0.4-0.3,1.3-0.3,1.4-0.4c0.2,0,0.2-0.1,0-0.2l0.1-0.6l-1.7,0.4c-0.9-0.2,0-0.6-1.9-0.1c3-0.7,0.8-2.3,1.8-2.6
							c-1.3-0.2-1.3-0.6-1.2-1c-0.3,0.1-2.3,0.4-2.1,0c4-0.3,1.7-0.9,4.5-1.5c-1.9,0.5-0.6-1-3.2-0.3c0.3-0.4,1.5-0.2,2.4-0.5
							c-1.6-0.6,0.8-1.8,0.2-2.7c-0.5,0-1.3,0.3-2.1,0.2l2.6-0.8c-0.3-0.2-3,0.2-1.3-0.4c-0.4,0.1-1.1,0.2-1.3,0.1
							c2.4-2.1-2.5-3.5,2.1-5.9c-1,0.4-1.1,0.2-1.2,0c-0.2,0.2-1.3,0.1-2,0.2l1.9-1c-2,0.1-0.2-0.8-2.1-0.7l0.4,0.2
							c-2.3-0.1-4.9,1-7.8,1.3c2.6,0.1-3.6,1.4,0,1.6c-0.6,0.2-0.9,0-1.6,0.1c1.2,0,1.5,0.2,1,0.6l-0.3,0c0.4,0.9-0.8,1.5-1.4,2.6
							l1.4-0.2c-0.2,0.3-0.6,0.4-0.9,0.5c2.2,0,0-0.7,2.4-0.7c-2.8,0.6,0.1,1.6-3.1,2.2c0,0.4,1.6-0.3,1.6,0.1l-0.9,0.2l1.1,0
							c-0.2,0.3-1.3,0.5-2,0.6c0.1-0.1-0.2-0.1-0.3-0.2c-1,0.4,0.4,0.8,0.1,1l0.5-0.4c0.9,0.9-0.1,2.2,1.8,3l0.7-0.1
							c1.3,0.6-0.7,0.7,0,1.4l-0.2,0c0.7,0.1,1,0.3,1,0.5c-0.8-0.1-1.5,0.5-2.4,0.4c1.4,0.6,1.1,0.3,3.6,0.5l-1.1,0.2
							c1,0.1,1.5,0,1.9,0.4c-1-0.2-1.7,0.4-3,0.2c-2.3,1.1,2.6,1-0.9,1.7c3.1,0,1.6-0.9,2.3-0.8c1-0.3,2.3,0.1,2,0.4
							c0,0.3-3.9,0.9-3.7,1.5c0-0.1-0.2,0-0.2-0.1c-0.8,0.3,1.1,0.4-0.1,0.8c1.9,0-0.1,0.4,2.3,0.2l-0.6-0.6c0.7,0.3,3.5,0.3,2.2,1
							c-0.5,0-1.1-0.1-1.5-0.2c-0.7,0.2,0.5,0.3-0.2,0.5c-2.4,0.2-0.6-0.7-2.4-0.9c-1,0.3,1.8,0.5-0.8,0.6c3.3-0.1-0.3,0.7,2.2,0.9
							l-1.4,0.1c0.2,0,0.9,0.1,0.9,0.3l-1.9,0c1.6,0.2-1.3,0.9-0.4,1.1c-0.1-0.7,1.7-0.4,2.7-0.8c2,0.7-3.6,0.9-2.9,1.9
							c-0.2-0.1,0.8-0.6,1.5-0.5c-0.3,0.2-0.8,0.5-1.5,0.7c0.4,0.6,1.4-0.3,2.3-0.1c-1.7,0.4,0.7,0.3,1.3,0.5l-1.4,0.2
							c-0.8,0.9,3-0.1,2,0.7l-2-0.1l0.6,0.3L588,335c1.3,0.3,1,0.4,0.5,0.8c1-0.2,2.6-0.2,2.7,0.1c-0.8,0.3-1.4,0-1.1,0.5
							c-0.9-0.1-2.1,0-0.8-0.4c-0.5,0-0.9,0-1.4,0c-0.5,0.2-0.5,0.3-0.4,0.5c0,0.1,0.1,0.2,0.2,0.3c0.1,0.1,0.1,0.2,0.1,0.3
							c0-0.1,0.1-0.3,0.3-0.4c0,0,0.5,0.2,1.1,0.4c0.5,0.2,1,0.4,1,0.4c-0.5,0.3-1,0.2-1.4,0.1c0.2,0.2,0.9,0.2,1,0.5
							c-1.2,0.2-2.4,0.4-3,0c0,0,0.4,0.2,0.7,0.5c0.4,0.2,0.7,0.4,0.7,0.4c-0.5,0.2-1.3,0.9-1.8,0.9c-0.3,0.4,0.3,0.7,0.9,0.9
							c0.6,0.3,1.1,0.5,0.7,1.1c0.2,0,0.4,0,0.6,0.1c-0.2,0.8-1.5,2.3,0.2,2.4c0,0-0.5,0.4-1,0.8c-0.5,0.4-1,0.8-1,0.8
							c0.3,0.3,0.9-0.3,1.5-0.8c0.7-0.5,1.4-0.9,1.8-0.6c0.7,0.4-1.7,1.3-2.2,2c1.1-0.2,3.1-0.9,1.6,1
							C589.4,347.7,589.7,347.3,589.5,347.2z M591.6,354.4c-0.2,0.2-0.7,0.6-0.9,0.8c-0.1,0-0.1-0.1,0.2-0.6c0.7-0.8,0.9-1,0.9-0.8
							C591.8,353.8,591.6,354.2,591.6,354.4z M604.7,349.6c-0.2,0.5-0.3,0.3-0.3-0.3C604.5,349.2,604.6,349.2,604.7,349.6z
							 M626.7,337.2C626.7,337.2,626.7,337.2,626.7,337.2C626.5,336.7,626.6,336.9,626.7,337.2z M627.3,337.7c0-0.2,0-0.4,0-0.6
							c0,0.4-0.1,0.4-0.2,0.3C627.1,337.8,627.2,338.1,627.3,337.7z M600.7,326.9l-0.4,0.1C599.9,326.9,600.2,326.9,600.7,326.9z"/>
						<path class="st5" d="M603,351.7c0-0.2,0.1-0.5,0.1-0.8C603.1,351.2,603,351.5,603,351.7z"/>
						<path class="st5" d="M588.2,342.1C588.2,342.1,588.2,342.1,588.2,342.1c-0.1,0-0.2,0-0.2,0L588.2,342.1z"/>
						<path class="st5" d="M621.2,350.7c-0.1-0.2-0.2-0.5-0.3-0.7C621,350.3,621.1,350.6,621.2,350.7z"/>
						<path class="st5" d="M629.5,335l-0.3,0.4c0.1-0.1,0.2,0.2,0.3,0.4C629.5,335.5,629.4,335.1,629.5,335z"/>
						<path class="st5" d="M633.1,343.7c0-0.2,0.1,0,0.1-0.2l-0.1-0.7C632.9,342.8,632.8,343.4,633.1,343.7z"/>
						<path class="st5" d="M630.3,339.8c0.1,1.2,0.3,0.8,0.5,0.5c0,0,0,0,0,0C630.6,338.6,630.5,339.2,630.3,339.8z"/>
						<path class="st5" d="M630.8,340.3c0.1-0.1,0.1-0.1,0.2-0.1C631,339.5,630.9,340.1,630.8,340.3z"/>
						<path class="st5" d="M627.8,336.9c0.1,0.3-0.1-1.6,0-1.1C627.8,334.2,627.3,337.7,627.8,336.9z"/>
						<polygon class="st5" points="630.9,343.7 630.7,342.3 630.7,343.5 						"/>
						<path class="st5" d="M629.1,342.8l0.4,0.4c0-0.3,0-0.4,0-0.5C629.3,342.7,629,342.4,629.1,342.8z"/>
						<path class="st5" d="M629.5,342.7c0.1,0,0.2,0,0.2-0.3C629.7,342.4,629.6,342.5,629.5,342.7z"/>
						<polygon class="st5" points="630.5,344.2 630.3,343.9 630.1,343.9 						"/>
						<path class="st5" d="M625.4,342.9l-0.3,0.5c0,0.5,0.1,0.8,0.3,0.6C625.4,343.6,625.5,343.4,625.4,342.9z"/>
						<path class="st5" d="M627,346.9c-0.1-0.3-0.2-0.6-0.3-1.1l0.2,1.9L627,346.9z"/>
						<path class="st5" d="M625.9,347.4c0,0.5-0.4,1.5,0.1,1.4C626,348.3,626.3,347.8,625.9,347.4z"/>
						<polygon class="st5" points="620.2,345.7 620.2,345.6 619.9,342.6 						"/>
						<path class="st5" d="M616,353.4c0.5,0.7-0.1-1.9,0.4-1c0-0.7-0.4-0.7-0.4-1.3C615.9,351.9,615.7,351.5,616,353.4z"/>
						<path class="st5" d="M616,351.1c0-0.1,0.1-0.3,0.1-0.5C616.1,350.8,616.1,351,616,351.1z"/>
						<polygon class="st5" points="600.3,309.6 600.9,309.3 599.9,309.6 						"/>
						<path class="st5" d="M598,309.3l1.9-0.3l-1.8,0C598.3,309.1,598.5,309.2,598,309.3z"/>
						<path class="st5" d="M589.6,358.6l0.4-0.5c0.3-0.5,0.2-0.6,0.1-0.6L589.6,358.6z"/>
						<polygon class="st5" points="588.5,352.2 588.5,352.3 590.1,350.6 						"/>
						<path class="st5" d="M585.8,347.8c0,0.3,0.4,0.4,0.3,0.7C585.7,348.1,587.8,346.4,585.8,347.8z"/>
					</g>
				</g>
			</g>
		</g>
	</g>
	<g>
		<g>
			<g>
				<g>
					<g>
						<path class="st5" d="M128.4,130.3c-0.1-0.4-1.1,0.3-1.4,0.4C127.6,131,128.7,130.1,128.4,130.3z"/>
						<polygon class="st5" points="133.7,134.3 133.2,134.4 134.7,134.6 						"/>
						<path class="st5" d="M136.2,139.3c1.7-1.4-1.2-1.6-1-2.9l0.4-0.4l-1.7,0.4C134.6,137.4,136.3,138.2,136.2,139.3z"/>
						<path class="st5" d="M133.4,144c0.7-0.5,0.9,0.2-0.1-0.7c-0.1,0.1-0.1,0.1-0.1,0.2C133.3,143.6,133.4,143.8,133.4,144z"/>
						<path class="st5" d="M133.2,143.5C132.9,143,132.8,144.2,133.2,143.5L133.2,143.5z"/>
						<path class="st5" d="M134.9,145.7l-1-0.3c-0.4,0.4-0.1,1-0.6,1C134,146.9,134.4,146.5,134.9,145.7z"/>
						<path class="st5" d="M136.6,145.7l-0.5-0.2C136,145.6,136,145.7,136.6,145.7z"/>
						<path class="st5" d="M135.2,145l1,0.5c0.3-0.3,0.9-0.6-0.4-0.2C136.3,145,135.7,145.1,135.2,145z"/>
						<path class="st5" d="M135.2,144.4c0.2-0.6,0.2-1.2,1.2-0.9C135.5,142.3,134.3,143.2,135.2,144.4z"/>
						<path class="st5" d="M138.3,138.5l0.3-0.8l-0.9-0.1C138.1,137.7,137.7,138.9,138.3,138.5z"/>
						<path class="st5" d="M136.1,150.5c0.4-0.2,1-0.8,1.4-1.1l-0.7-0.3C136.7,149.6,136.7,150.2,136.1,150.5z"/>
						<path class="st5" d="M137.6,149.4l1.1,0.4C138.4,149.1,138,149.1,137.6,149.4z"/>
						<polygon class="st5" points="138.8,144.7 136.7,144.2 138.9,144.9 						"/>
						<polygon class="st5" points="137.6,153.5 136.4,153.5 138.2,153.6 						"/>
						<path class="st5" d="M138.7,155.3c-0.9,0.1-1.1,1.1-1.7,1c0.4,0.5,1.3,0.5,2.1,0.6C138.6,156.7,138.4,156.2,138.7,155.3z"/>
						<path class="st5" d="M140.4,157.2c-0.3-0.1-0.7-0.2-1.2-0.2C139.4,157.1,139.8,157.2,140.4,157.2z"/>
						<path class="st5" d="M139.1,151.2c-0.2,0.2-0.8,0.6-0.8,1.2l1-0.9C139.2,151.4,139.2,151.3,139.1,151.2z"/>
						<path class="st5" d="M139.3,151.5L139.3,151.5c0.1,0.4,0.2,0.6,0.2,0.7C139.5,152.1,139.4,151.9,139.3,151.5z"/>
						<path class="st5" d="M139.1,151.1C139.1,151.2,139.1,151.2,139.1,151.1C139.2,151.1,139.2,151.1,139.1,151.1z"/>
						<path class="st5" d="M138.8,147.2c0.9,0.1,2,0.7,2.5-0.7C140.4,146.6,140.1,147.4,138.8,147.2z"/>
						<path class="st5" d="M140.3,150l-0.2-0.9c-0.3,0.2-0.7,0.5-1.1,0.5L140.3,150z"/>
						<polygon class="st5" points="140.9,150.2 140.3,150 140.4,150.4 						"/>
						<path class="st5" d="M140.7,155.3c0.7,0.1,0.9,0.4,1.2,0.8c0-0.6-0.2-1.1-0.4-1.6C141.1,154.7,140.4,154.8,140.7,155.3z"/>
						<path class="st5" d="M140.1,153.4c0,0,0.1,0,0.1,0C140.3,153.3,140.3,153.3,140.1,153.4z"/>
						<path class="st5" d="M144.2,160.3l0.2-0.2C144.3,160.2,144.2,160.2,144.2,160.3L144.2,160.3z"/>
						<path class="st5" d="M141.7,154.3c0-0.5-0.4-0.5-0.8-0.5c0.3,0.2,0.5,0.4,0.6,0.7C141.7,154.5,141.8,154.4,141.7,154.3z"/>
						<path class="st5" d="M141.5,158.1c0.1-0.3,0.2-0.6,0.3-0.9C141.6,157.5,141.2,158.2,141.5,158.1z"/>
						<path class="st5" d="M140,153.7C139.9,153.7,139.9,153.7,140,153.7C139.7,153.9,139.8,153.8,140,153.7z"/>
						<path class="st5" d="M140,153.7c0.3,0.1,0.6,0.1,0.9,0.1c-0.2-0.2-0.4-0.3-0.7-0.4C140.2,153.5,140.1,153.6,140,153.7z"/>
						<path class="st5" d="M152.1,157.8c-1.1,0.5-2.5,0.1-1.8-1.3c-1.2-0.4-4.4,2-6,3.7c0.5-0.2,0.9-0.4,1.9,0
							c0.4-0.6,0.4-2.5,1.7-2.3c1.1,0.8,0.1,1.1-0.2,1.9c1.1-1.1,2.6,0.3,4.4-0.9l-1.2-0.6C151.3,158.1,152,158.2,152.1,157.8z"/>
						<path class="st5" d="M143.6,158.6l-0.3-0.3c0,0.5-0.3,1-0.8,1.9c0.8,0.3,1.3,0.2,1.6,0l-0.7-1.7L143.6,158.6z"/>
						<path class="st5" d="M142.5,156.9c1.3-0.3,2.2,0.2,3.2-0.9c-0.6-0.9-1.3-0.2-2.1-0.5c1.1,1.4-0.9-0.1-0.9,1.3
							c-0.4-0.2-0.6-0.4-0.7-0.7c0,0.4,0,0.7-0.1,1.1c0,0,0,0,0.1-0.1l0,0l0,0c0.1-0.1,0.2-0.2,0.1-0.1c0,0,0,0,0,0
							C142.2,156.9,142.4,156.9,142.5,156.9c0,0.6-0.3,0.2-0.5,0.2c-0.1,0-0.1,0-0.2,0.1l0,0l1.4,1.2
							C143.3,157.9,143.1,157.5,142.5,156.9z"/>
						<path class="st5" d="M144.2,146.1c-0.1,0.1-0.2,0.1-0.2,0.2C144.2,146.3,144.3,146.3,144.2,146.1z"/>
						<path class="st5" d="M143.8,147.1c-0.2,0-0.7,0.1-0.8-0.3c0.2-0.5,0.6-0.3,0.9-0.5c-0.4-0.1-1.2-0.3-1.4,0.6l0.2,0
							c-0.1,0.8-1.1,2.4-1.3,2.4C142.4,148.6,143,148,143.8,147.1z"/>
						<path class="st5" d="M143.5,151.8l1.2,1l0.6-1.2l-0.6,0.3C144.7,151.2,144,151.7,143.5,151.8z"/>
						<polygon class="st5" points="143.7,160.8 142.4,161.2 144.5,161.1 						"/>
						<polygon class="st5" points="144.7,162.4 143.6,162.9 144.5,163 						"/>
						<path class="st5" d="M209.7,248.6l0.5,0.2C210,248.7,209.8,248.6,209.7,248.6z"/>
						<path class="st5" d="M208.2,245.9l-0.5,0.2C208,246.1,208.2,246,208.2,245.9z"/>
						<path class="st5" d="M167.1,203.4c-0.7,1.1-1.8,2.5-0.7,1.8l1-0.8C167,204.1,167,203.8,167.1,203.4z"/>
						<path class="st5" d="M189.5,227.4c0.1-0.1,0.2-0.2,0.3-0.4c-0.5,0.1-0.9,0.2-1.3,0.3C188.8,227.3,189.1,227.3,189.5,227.4z"/>
						<path class="st5" d="M194.4,225.1l-0.3,1.1C194.2,225.9,194.3,225.5,194.4,225.1z"/>
						<path class="st5" d="M219.4,262.4l1.4-0.2C220.4,261.5,220,262.2,219.4,262.4z"/>
						<path class="st5" d="M154.3,179.3c-0.2,0.7-0.2,1.2,0,1.6C154.6,180,155.3,179,154.3,179.3z"/>
						<path class="st5" d="M197.1,254.5c0.3,0.1,0.6,0.1,0.9-0.1C197.7,254.3,197.4,254.3,197.1,254.5z"/>
						<path class="st5" d="M155,182.3c0.1-0.1,0.1-0.3,0.1-0.4c-0.4-0.2-0.7-0.5-0.9-1C154,181.6,153.9,182.2,155,182.3z"/>
						<path class="st5" d="M250.4,315.3c0,0.1,0,0.1-0.1,0.2C250.5,315.4,250.5,315.3,250.4,315.3z"/>
						<path class="st5" d="M248.9,337.4c-0.2-0.1-0.3-0.3-0.5-0.6C248.4,337,248.5,337.2,248.9,337.4z"/>
						<path class="st5" d="M147.8,169.4C147.5,169.1,147.6,169.4,147.8,169.4L147.8,169.4z"/>
						<path class="st5" d="M151.4,165.3c0.2,0,0.4,0,0.6-0.2C151.7,165.2,151.5,165.3,151.4,165.3z"/>
						<path class="st5" d="M164,181.9C164,181.9,164,181.9,164,181.9C164.2,181.7,164.2,181.8,164,181.9z"/>
						<path class="st5" d="M148,168.6c-0.1,0.2-0.1,0.4-0.1,0.6C148,169.1,148,168.9,148,168.6z"/>
						<path class="st5" d="M147.5,169c0-0.2,0-0.3-0.1-0.4C147.2,168.7,147.1,168.8,147.5,169z"/>
						<path class="st5" d="M148.1,169.9c-0.1-0.2-0.2-0.4-0.2-0.6c0,0.1-0.1,0.2-0.1,0.2C147.8,169.5,147.9,169.6,148.1,169.9z"/>
						<path class="st5" d="M230.2,289.2c0,0,0,0.1-0.1,0.1C230.8,289.4,230.6,289.3,230.2,289.2z"/>
						<path class="st5" d="M183.9,205.9C183.9,205.9,183.9,205.9,183.9,205.9C183.9,205.9,183.9,206,183.9,205.9L183.9,205.9z"/>
						<path class="st5" d="M185.5,206.7c-1.7,0.3-1.7-0.1-1.6-0.7l-3,2.3L185.5,206.7z"/>
						<path class="st5" d="M213.7,254.8l0.5-1.5c2.3,0.1,2.1,1.2,3.1-0.5c-3.6,1.9-2.3-3.2-5.9-1.2l0.4-1c0.1,0.2,0.3,0.1,0.3,0.3
							c1-2.1-3,0.7-3.4-1.1c0-0.7,0.3-1.3,0.9-1.2l-1.5-0.6c-0.1-0.4,0.5-0.6,0.7-0.3l-1.3-1.5l0.1,0c-0.7,0.1-1.9,0-2.4,0
							c0.3-0.7,0.5,0,0.9-0.4l-1.4-0.4c0.7-0.9,2-0.6,2.3,0.1c3-2.9-1.3-0.3-0.4-3.4l1,0.6c1.7-1.7,0.5-2,1.2-3.7
							c-0.5,0.6-2,3.8-3.4,3.3c0.1-0.4,0-0.9-1-1c1.2-0.7,0.6-1.1,0.2-1.7l1.7-0.9c-0.9-0.5-1.7,0.1-2.7,0.1
							c-0.3-0.9,0.9-1.8,1.9-2.6c-0.5-1.5-1.5,2.1-2.7,0.7c0-1.5-1.1-1.8-2.9-2.6c0.1-1.1,1.1-0.5,1.4-1l-1.7,0.1
							c-0.1-0.2,0.4-0.4,0.6-0.5c-0.8-0.3-1.7,0.9-2.7,0.3c-2,0.8,1.6-3.4-1.1-3.3c0.3-0.5,1.1-0.5,1.7-0.9
							c-2.2-0.7-1.7-0.7-4.3-0.9l0.5-1.7c-0.8,1.5-2.9,1.3-4.6,1.2c-0.4,0.6-0.8,1.2-1,1.5l-1.7-0.9c0.2-0.3,0.8-0.5,1.7-0.7
							c-0.2,0-0.4,0-0.5,0c0.3-0.9,1.4-1.1,2.6-1.3c-0.2,0.4-0.5,0.7-0.7,1.1c1.2-0.2,2.5-0.6,3.5-1.2c-0.2,0-0.5-0.1-0.7-0.2
							c0.3-0.1,0.6-0.1,0.7-0.3c0.1-0.1-0.3-0.1-0.9-0.1l1.7-1.4l-0.8,0.3l0.1-2.5c-2.6-0.2-6,0.2-8-1.5c1.7-0.3,2.3-1.2,3.9-2
							c-1.4,1.5,1.6,1.2,1.9,2.5c-0.1-0.7,0.7-1,1.1-1l-2.6-1c1.3-0.7,0.8-1,1-1.8c-2.4,1.9-2.6-0.4-3.8-0.8
							c0.9-0.5,1.9-0.9,2.2,0.2c1.4-2.2-3.8,0.4-2.8-1.6c0.2,0.2,0.1,0.4,0.6,0.3c-1.1-0.1-1.2-1.8-0.3-1.9l0.1,0.2
							c-0.6-1.7-2.6-4.7-5-3.7c0.3-0.2,2.8-1.3,3.3-1.5l-9.1,1.4c2-0.8,6.1-4.3,7.9-3.6c0.1-0.5,0.1-1.2-1-1.6
							c-0.1,0.4-2.4,2.2-2.8,1.9c1.6-2.1,0.8-1.3,1.9-3.5c-0.2,0.6-3.4,1.9-3.7,1.2c0.5-0.2,2.9-1.7,3.4-1.7l-3.8,0.2
							c0.7,0.1,2.5-1.3,3.2-2.1c-0.5,0.5-0.7-1.3-1.2-1.6l-0.3,1c-0.5-1.9-5.1,0.6-5.8-1.1c0.7-0.1,4-1.6,3.9-2.6
							c-1.7,0.4-8.2,2.3-10.2,1.5l0.7-0.8l-1.6-0.6c2.7-0.5,8.6-1.2,11-1.2c0.3-1,0.9-0.7,0.3-1.6c0.6-0.8,1.5-0.2,1.7,0.1L179,191
							c-1.7,1.1-2.7-0.7-4.1,0.2l3.2,1.4c-1.7,1.1-5.8,1.4-6.3-0.3c0.5-0.8,3.3-1.4,3.9-1.8c-0.7,0.1-2-0.8-1.6-1.2l1.3,0.1
							c0.2-1.2-3.1-0.1-2-2.1c-0.1-0.4,1.7-2.3,0.6-1.8c-1.7,1.7-7.9,5.2-9.6,5.7c0.1-0.2,0.9-3,1.7-3.9c1.3-1.5,4.3-1.2,5.3-2.4
							c-0.5,0.2-1.3,0.2-1.5,0.2c0.2-0.6,1.6-0.7,0.9-1.4c-1.9,0.8-0.8-1.8-1.7,0.4c-1-0.5-0.1-1.1-0.7-2c-1,0.9-4.4,1.3-5.4,0.8
							c0.5-0.2,1-0.7,1.2-0.9c-0.7-1.7-0.4-3.1-1.2-4.6c0.4-0.4,0.5-1.4,1.4-1.5c-0.4,0-1.2,0.1-1.5-0.4c1.1-1.8,0.8,0.9,2.3-0.8
							c-1.1,0.5-2.1-0.5-3.1-0.8c-1.5,1.1,0.5,1.7,1.6,2.1c-2.2,1.2-5.2,1.3-7.1,0.2c-1.2-1,1.1-1.3,0.7-1.4c-0.9-2.6-5,0-4.5-2.8
							c1-1.6,2.8-1.6,3.7-2.3c1.1,0.8,0,2.1,0.4,2.8l0.2-1.2c0.7,0.1,1.4,0.6,1.2,1.2c0.9-1.4-2-4.2-1.8-6.7
							c-0.7-0.1-1.4-0.4-1.9,0.2l0.5,0.5c-0.9,1.2-2.2-0.3-2.3,0.8c-1.2-0.4-3-0.6-2.9-2l1.5-1.1c-0.5,0.3-0.6,1.2,0.1,1.3
							c-1-0.1,1.3-2.9-1.1-2.3l-0.7,1.4c-1.2-0.4-3.5-0.4-3.5-1.7c-1.4,1.3,0.3,0.1-1.2,1.8c2-1.9,1.2,2.6,3.2,0.3
							c-1.8,1.9-0.3,1.7-1.6,3.7c0.5-0.3,0.8-0.9,1,0.1c0.2,0,0.4-0.1,0.6-0.1c0,0,0,0,0,0.1c0,0,0-0.1,0-0.1c0.1,0,0.1,0,0,0
							c0.1-0.3,0.3-0.6,0.6-0.9c1.4-0.2,2.1,1.1,3,1.2c0,0.6-0.7,0.1-1.2,0.7l1.3,0.2c-1.2,0.7-1.3,2.4-2.6,1.6l0.5,1.1
							c-0.3,1-0.1,2,0.6,2.2c0,0.6,2,0.5,0.8,0.6l1.6,1.2l-0.3,0.2c0.7,1.7,3.8,2.3,2.6,5.3c0.6,0.4,1.3,0.7,1.4,1.8l-0.9,0.7
							c0.7,0.5,0.1,2.7,1.3,2.4c-2.3,2.3,1.2,3.7,1.4,5.2l1.4-0.7c0.4,0.9,1.2,1.5,2.3,2.2l1.1-0.7c1.5,0.4,0.4,2.8,1.4,4.1
							c-0.5,0.2-0.6-0.3-0.5-0.7c-1.7,3.2,3.9,2.5,2.8,5.1c0.6,0.1,0.6,0.5,0.5,0.9c0,0-0.1-0.1-0.1-0.1c0,0,0,0.1,0.1,0.2
							c-0.1,0.3-0.2,0.6-0.3,0.9c0.2-0.3,0.3-0.6,0.4-0.8c0.2,0.3,0.6,0.7,1.1,0.9l-1.2,0.9c0,0,0,0.1,0.1,0.1
							c-0.2,0.7,0.8,0,1.6-0.7c0.3,0.1,0.7,0.2,1.1,0.2c-1.8,1.5,1.3,0.8-0.6,2.5c1.2-0.3,2,1.8,4.4,0.8c-0.3,0.2-0.3,0.4-0.5,0.2
							c0,0.6,0,1.3,0.9,1.4l-1.5,1.1l2.8-0.1c-0.6,1.2-1,1.8-2.6,1.8c2.8,0.5,1.4,0.9,4.1,1.1l-1.1,0.5c0.3,0.4,2.1,0.4,1.4,1.2
							c-1.4,2.2,2.7,5.4,2.4,9.1c2.7-2.3-0.7,2,1.8,0.8c-0.6,0.6-0.8,1.2-1.7,1.1c1.5,1,0,2.7,2.6,2.6c-0.6,0.6-1.2,0.3-1.6,0.7
							c0.2,0,0.9,0.1,0.5,0.5c-0.3,0.4-0.7,0.1-1.2,0.1c0.9,1.3,3.2,0.2,5.4-0.9c-0.6,1.3-0.2,1.6,1.4,1.3c-0.5,0.6-1,1.5-1.8,0.7
							c0.2,0.5,0.7,3.6,2.4,2.7c-0.3,0.4,0.3,0.8,0.5,0.8c0.5,1.2,0.4,1.3,1.2,2.3l0.1-0.5c2.3-0.7,1,0.6,1.7,1.4l-0.2,0.1
							c-0.3,2.8,1.2,0.5,0.7,3.4l1.2-0.8c2.8-1.4-0.6,2.7,1.1,3.2l0.5-0.8c1.3,0.1-2.6,3.9-2.6,4.7c-0.2,0.3-0.5,0-0.8-0.1
							c-0.6,2.6,1.8-0.7,2.8,0.3c-0.7,0.7-2.4,1-2.1,1.9c-0.5,0.8,4.2,0.7,3.2,2.8c0.5-0.6,1.1-1.3,1.9-1c0.8,0.7-1.2,3.8,1.4,3.4
							c-0.1,0.2-0.3,0.4-0.4,0.5c0.9,0.3,2.2,1.6,3.6,1.3c-3.9,3.1,4.5,2.9,0.5,5.2l1.4,1.9l-0.4,0.2c0.5,1.5,1.7,1.4,3,1.3
							c-0.1,0.5-0.6,0.5-0.8,0.6c0.3,2.4,0.6,2.5,3.5,2.9l-1.2,0.9c1,0-0.4,3.9,2.2,4.9c-0.2,0.1-0.4,0.2-0.7,0.1
							c2.7,1.2-0.5,7.1,4.6,5.1l2,0.7c-0.7-2,2.2-0.9,2.5-2.1c0.7,0.5-0.3,2.7-1.1,1.9l0.2-0.3c-2.6,1.1,0.5,2.7-1.2,3.7
							c2.2,3.4,3,7.7,4.9,11l1.6-1.5l0.6,1.2c-0.3,0.6-1.2,1.3-1.6,0.4c-0.8,1.1,1.7,0.8,2.1,0.6c0.2,2.1-2.6,0.7-2.3,1.2l0.5,0.6
							l0.1-0.3c1.1,0.1,1.9-0.4,2.4,0.7c0,0.8-1,1-0.9,1.3c-0.1,0.1-0.1,0.2,0.2,0.4l0.7,1.5l1.1-1.5c1.1,0.2,0.8,1.4,2-0.3
							c-2,2.6,2.4,5.9,1.9,7c1.6,0.2,2.2,1.1,2.7,2.3c0.1-0.5,1.7-1.6,2.1-0.6c-3.6,1.8-0.4,2.6-2.4,4.9c1.2-1.7,2.1,2.4,3.7-0.1
							c0.2,1-1.2,0.8-1.7,1.9c2.5,1,1.7,4.6,3.6,6.7c0.5-0.2,0.9-1.1,1.9-1l-1.5,2.6c0.5,0.3,2.8-1.2,1.8,0.6
							c0.3-0.4,0.8-0.9,1.1-0.7c0.7,5.9,7.6,8.1,6.4,15.2c0.5-1.2,0.8-0.8,1.1-0.4c0-0.4,1.1-0.7,1.7-1.1l-0.4,3
							c1.9-0.7,1.4,2,3.2,1.1l-0.7-0.4c2.4-0.4,3.5-3.8,6-5.3c-2.7,0.5,1.7-4.4-2.3-3.9c0.3-0.6,1-0.2,1.4-0.8
							c-1.3,0.3-1.8,0-1.8-1.1l0.3-0.1c-1.7-2.2-1.4-3.8-2.3-6.9l-1.1,1c-0.2-0.7,0.1-1,0.2-1.5c-2.2,0.5,0.9,1.7-1.5,2.3
							c2-2.3-2.5-4,0-6.3c-0.5-0.9-1.2,1.1-1.8,0.2l0.6-0.7l-1.1,0.4c-0.2-0.7,0.6-1.6,1.2-2c0,0.2,0.4,0.3,0.6,0.4
							c0.4-1.3-1.6-1.9-1.5-2.3l0.1,1.1c-2.2-1.9-3-5.5-6-6.8l-0.5,0.5c-2.1-1.1-0.2-1.8-1.9-3.4l0.2,0c-0.8,0-1.4-0.4-1.7-0.9
							c1,0.1,0.7-1.7,1.9-1.5c-2.3-1.2-1.5-0.4-4.4-0.4l0.8-0.9c-1.1,0.1-1.6,0.3-2.4-0.5c1.3,0.3,1.1-1.5,2.7-1.3
							c0.8-3.3-3.9-1.7-1.5-4.5c-3.2,0.7-0.4,2.7-1.3,2.5c-0.6,1-2.4,0.4-2.6-0.4c-0.3-0.7,2.7-3.2,1.6-4.8c0.1,0.2,0.3,0.1,0.4,0.2
							c0.3-1-1.6-0.6-1-2.1c-1.8,0.5-0.5-1-2.6,0.1l1.4,1.2c-1.1-0.5-3.9,0.1-3.6-2c0.5-0.1,1.3,0,1.7,0.1c0.3-0.8-0.9-0.5-0.5-1.3
							c2.1-1.1,1.6,1.6,3.7,1.5c0.6-1-2.5-0.8,0-1.7c-3.2,1-0.6-1.8-3.4-1.6l1.3-0.7c-0.3-0.1-1.1-0.1-1.3-0.4l1.9-0.4
							c-1.9-0.1,0.1-2.5-1.1-2.9c1.1,1.8-1.2,1.3-1.6,2.6c-3-1.2,2.4-3.2,0.3-5.4c0.4,0.2,0,1.7-0.8,1.5c0-0.6,0.1-1.5,0.5-2.2
							c-1.3-1.5-1.1,1-2.3,0.8c1.1-1.5-1.1-0.4-2-0.9l1.2-0.8c-0.3-2.4-2.9,1.1-2.9-1.2l2.2-0.3l-1-0.6l1.5-0.7
							c-1.6-0.3-1.5-0.8-1.7-2c-0.7,0.7-2.3,1.2-2.9,0.4c0.4-1,1.4-0.4,0.5-1.5c0.9-0.2,2.1-0.5,1.3,0.7c0.4-0.2,0.9-0.2,1.4-0.4
							c0.5-1.1-0.7-1.7-1-2.1c0.1,0.2,0.1,0.4,0,0.6l-2.7-0.7c0.3-0.6,0.8-0.6,1.3-0.6c-0.3-0.3-1.1-0.2-1.5-0.6
							c1.1-0.5,2.1-1.1,3-0.7l-2.1-1c0.4-0.4,0.7-1.6,1.2-1.6c0.1-1.3-3.3-1.1-3.2-2.7c-0.2,0.1-0.5,0-0.8-0.1c-0.4-1.3,0.2-3-2-3.5
							l1.4-1.8c-1-0.8-1.7,2.4-3.4,1c-1.3-0.9,1.3-1.4,1.5-2.1c-1.3-0.1-3.8-0.1-3-2.1C213.5,254.1,213.4,254.5,213.7,254.8z
							 M205.3,242.2c0.4,0.1,1.5,0.1,0.9,0.7C204.6,243.5,205.1,242.9,205.3,242.2z M190.8,224.1c0.5,0,0.5,0.4,0.2,1
							C190.7,224.8,190.6,224.5,190.8,224.1z M150.9,172.8C150.9,172.8,150.9,172.8,150.9,172.8
							C150.8,173.6,150.9,173.3,150.9,172.8z M150.8,171.3c-0.2,0-0.4,0.1-0.6,0.2c0.4-0.1,0.5,0.2,0.6,0.5
							C151.1,171.8,151.3,171.5,150.8,171.3z M224.1,297.9l0.2-0.4C225,297.8,224.6,297.8,224.1,297.9z"/>
						<path class="st5" d="M193.8,225.3c-0.2,0.2-0.4,0.3-0.6,0.5C193.5,225.8,193.7,225.7,193.8,225.3z"/>
						<path class="st5" d="M219.2,262.5C219.2,262.5,219.2,262.5,219.2,262.5c0.1,0,0.2,0,0.3,0L219.2,262.5z"/>
						<path class="st5" d="M171.6,184c0,0.3-0.2,0.6-0.4,0.8C171.5,184.6,171.7,184.4,171.6,184z"/>
						<path class="st5" d="M145.2,166l0.7,0.6c-0.3-0.3-0.1-0.6,0.1-0.9C145.7,165.9,145.4,166.3,145.2,166z"/>
						<path class="st5" d="M149.6,155.2c-0.2,0-0.1-0.2-0.4-0.3l-0.6,0.3C149,155.7,149.6,155.8,149.6,155.2z"/>
						<path class="st5" d="M149.1,163.1c1-0.6,0.4-0.9-0.1-1.4c0,0,0,0.1,0.1,0.1C147.5,162.4,148.3,162.8,149.1,163.1z"/>
						<path class="st5" d="M148.9,161.6c-0.1-0.1-0.3-0.3-0.3-0.5C148,161.4,148.6,161.4,148.9,161.6z"/>
						<path class="st5" d="M149.3,170.1c0.1-0.4-1.5,0.6-1.1,0.2C146.7,170.8,150.7,171.1,149.3,170.1z"/>
						<polygon class="st5" points="152.4,160.7 151.2,161.6 152.4,161.4 						"/>
						<path class="st5" d="M153.7,165.5l-0.1-1.1c-0.2,0.1-0.4,0.1-0.6,0C153.3,165,153.3,165.8,153.7,165.5z"/>
						<path class="st5" d="M153,164.5c-0.1-0.3-0.3-0.5-0.6-0.6C152.5,164,152.8,164.3,153,164.5z"/>
						<polygon class="st5" points="153.4,161.7 153.3,162.1 153.5,162.8 						"/>
						<path class="st5" d="M158.4,174.9l0.9,0.7c0.5-0.1,0.6-0.6,0.3-0.8C159.1,174.8,158.8,174.5,158.4,174.9z"/>
						<path class="st5" d="M160.5,170.1c-0.1,0.4-0.4,0.6-0.8,1l1.7-0.9L160.5,170.1z"/>
						<path class="st5" d="M162.4,172.6c0.5-0.2,2,0.7,1.3-0.5C163.1,172.3,162.3,171.6,162.4,172.6z"/>
						<polygon class="st5" points="167.9,187.8 167.8,187.6 165.1,189.1 						"/>
						<path class="st5" d="M181.1,196.7c0-1.5-1.8,0.7-1.5-0.8c-0.8,0.1-0.2,1.2-0.9,1.2C179.7,197.4,179.6,197.9,181.1,196.7z"/>
						<path class="st5" d="M178.7,197.1c-0.2,0-0.4-0.1-0.6-0.1C178.4,197.1,178.6,197.1,178.7,197.1z"/>
						<polygon class="st5" points="249.1,340.8 249,341.9 249.6,340.9 						"/>
						<path class="st5" d="M251.9,340.9l-1.5,1.2l1.7-0.5C251.9,341.5,251.6,341.3,251.9,340.9z"/>
						<path class="st5" d="M207.6,238.3l-0.4,0.2c-0.4,0.4-0.3,0.5-0.2,0.9L207.6,238.3z"/>
						<polygon class="st5" points="211.8,248.5 211.8,248.3 210.4,249.5 						"/>
						<path class="st5" d="M218.4,255.3c-0.1-0.4-0.7-0.5-0.8-0.9C218.3,254.9,216.6,256.5,218.4,255.3z"/>
					</g>
				</g>
			</g>
		</g>
	</g>
	<g>
		<g>
			<g>
				<g>
					<g>
						<path class="st5" d="M215.1,349.7c-0.1-0.1-0.2,1.1-0.2,1.4C215.1,350.8,215.2,349.3,215.1,349.7z"/>
						<polygon class="st5" points="217.5,347 217.4,347.5 217.8,346.3 						"/>
						<path class="st5" d="M219.4,347.3c0-2.1-0.7,0.3-1-0.5l0-0.5l-0.3,1.7C218.5,347.7,219.2,346.6,219.4,347.3z"/>
						<path class="st5" d="M220,352c0-0.8,0.3-0.7-0.2-0.3c0,0.1,0,0.1,0,0.2C219.8,351.9,219.9,351.9,220,352z"/>
						<path class="st5" d="M219.8,351.9C219.6,351.9,219.8,352.6,219.8,351.9L219.8,351.9z"/>
						<path class="st5" d="M220.8,351.5l-0.3,0.7c0,0.5,0.2,0.6,0.1,1C220.9,352.8,220.8,352.3,220.8,351.5z"/>
						<path class="st5" d="M221.2,350l-0.2,0.3C221,350.5,221.1,350.6,221.2,350z"/>
						<path class="st5" d="M220.7,350.9l0.4-0.6c0-0.3,0.1-1-0.2,0.2C221,349.9,220.8,350.5,220.7,350.9z"/>
						<path class="st5" d="M220.5,350.6c-0.1-0.5-0.3-0.8,0.1-1.5C220.1,349.3,220,350.8,220.5,350.6z"/>
						<path class="st5" d="M219.8,345.1l-0.1-0.6l-0.2,0.7C219.5,344.8,219.7,345.7,219.8,345.1z"/>
						<path class="st5" d="M222.3,352.8c0.1-0.5,0-1.2,0.1-1.8l-0.3,0.5C222.2,351.8,222.4,352.1,222.3,352.8z"/>
						<path class="st5" d="M222.4,351l0.4-0.7C222.5,350.1,222.4,350.5,222.4,351z"/>
						<polygon class="st5" points="221.5,347.6 220.8,349.2 221.6,347.6 						"/>
						<polygon class="st5" points="223.5,353 223.2,354 223.6,352.4 						"/>
						<path class="st5" d="M224.2,352.9c-0.2,0.9,0,1.5-0.2,2c0.2-0.1,0.5-0.9,0.7-1.5C224.5,353.7,224.4,353.6,224.2,352.9z"/>
						<path class="st5" d="M225.1,352.4c-0.1,0.2-0.2,0.6-0.4,1C224.9,353.2,225,352.9,225.1,352.4z"/>
						<path class="st5" d="M223.3,350.5c0,0.3,0,1,0.1,1.3l0-1.3C223.3,350.5,223.3,350.5,223.3,350.5z"/>
						<path class="st5" d="M223.4,350.5L223.4,350.5c0.1,0.1,0.2,0.1,0.2,0.1C223.6,350.6,223.5,350.6,223.4,350.5z"/>
						<path class="st5" d="M223.2,350.5C223.2,350.5,223.3,350.5,223.2,350.5C223.3,350.4,223.3,350.4,223.2,350.5z"/>
						<path class="st5" d="M222.1,348.9c0.2-0.7,0.7-1.4,0.5-2.5C222.4,347.2,222.5,347.8,222.1,348.9z"/>
						<path class="st5" d="M223.3,348.9l-0.3-0.3c0,0.3,0,0.8-0.1,1.2L223.3,348.9z"/>
						<polygon class="st5" points="223.5,348.5 223.3,348.9 223.4,349 						"/>
						<path class="st5" d="M224.7,351.2c0.2-0.5,0.3-0.6,0.5-0.6c-0.2-0.3-0.3-0.4-0.5-0.4C224.7,350.5,224.5,351.2,224.7,351.2z"/>
						<path class="st5" d="M224.1,350.7L224.1,350.7C224.1,350.6,224.1,350.5,224.1,350.7z"/>
						<path class="st5" d="M226.9,350.7c0-0.1,0-0.2,0-0.2L226.9,350.7L226.9,350.7z"/>
						<path class="st5" d="M224.7,349.8c-0.1-0.3-0.2,0-0.3,0.4c0.1-0.1,0.2-0.2,0.3-0.2C224.8,349.9,224.8,349.8,224.7,349.8z"/>
						<path class="st5" d="M225.6,351.9c0-0.3-0.1-0.5-0.2-0.7C225.5,351.5,225.6,352.2,225.6,351.9z"/>
						<path class="st5" d="M224.1,351C224.1,351,224.1,351.1,224.1,351C224.1,351.4,224.1,351.2,224.1,351z"/>
						<path class="st5" d="M224.1,351c0.1-0.2,0.2-0.5,0.3-0.8c-0.1,0.1-0.2,0.2-0.3,0.4C224.1,350.8,224.1,350.9,224.1,351z"/>
						<path class="st5" d="M228.2,342.6c-0.1,1.2-0.6,2.2-0.8,0.9c-0.4,0.9-0.6,4.8-0.6,7c0.1-0.5,0.1-1,0.5-1.7
							c0-0.7-0.5-1.6-0.2-2.6c0.5-0.6,0.3,0.5,0.4,1.1c0-1.5,0.7-2.1,0.9-4.3l-0.4,0.7C228.1,343.4,228.3,342.9,228.2,342.6z"/>
						<path class="st5" d="M226.3,350.3l-0.1,0.1c0.1,0.2,0.2,0.7,0.3,1.6c0.3-0.6,0.4-1,0.4-1.4l-0.6-0.2L226.3,350.3z"/>
						<path class="st5" d="M225.6,350.4c0.2-1.3,0.6-1.8,0.6-3.2c-0.4,0.1-0.4,1-0.7,1.6c0.6-0.3-0.2,0.7,0.1,1.5
							c-0.1,0.2-0.3,0.3-0.4,0.3c0.1,0.2,0.2,0.4,0.3,0.6c0,0,0-0.1,0-0.1l0,0c0,0,0,0,0,0c0-0.2,0-0.3,0-0.2c0,0,0,0,0,0
							C225.5,350.7,225.6,350.5,225.6,350.4c0.1,0.3,0,0.3-0.1,0.5c0,0.1,0,0.1,0,0.2c0,0,0,0,0,0l0.7-0.6
							C226,350.2,225.9,350.2,225.6,350.4z"/>
						<path class="st5" d="M223.2,343.6c0,0.1,0,0.2,0,0.3C223.2,343.7,223.3,343.6,223.2,343.6z"/>
						<path class="st5" d="M223.4,344.4c-0.1,0.2-0.2,0.7-0.3,0.5c-0.1-0.4,0.1-0.6,0.1-1c-0.1,0.3-0.4,0.9-0.2,1.5l0.1-0.2
							c0.2,0.5,0.3,2.1,0.3,2.3C223.4,346.4,223.4,345.5,223.4,344.4z"/>
						<path class="st5" d="M224.5,347l0.6-0.6l-0.1-1.1l-0.1,0.7C224.6,345.7,224.6,346.5,224.5,347z"/>
						<polygon class="st5" points="226.9,351.3 226.7,352.7 227.2,350.8 						"/>
						<polygon class="st5" points="227.5,351.2 227.4,352.4 227.6,351.7 						"/>
						<path class="st5" d="M256.7,338.5l-0.3-0.4C256.5,338.3,256.6,338.4,256.7,338.5z"/>
						<path class="st5" d="M256.6,338.8l0.5,0.6C256.8,339.1,256.6,338.8,256.6,338.8z"/>
						<path class="st5" d="M243.7,352.8c0.1,1.1,0.2,2.9,0.3,1.5l0.1-1.3C243.9,353.2,243.8,353.1,243.7,352.8z"/>
						<path class="st5" d="M255.4,346.2c-0.1-0.1-0.1-0.3-0.2-0.4c0.1,0.5,0.1,0.9,0.1,1.3C255.4,346.8,255.4,346.5,255.4,346.2z"/>
						<path class="st5" d="M254.2,340.6l0.4,0.9C254.4,341.2,254.3,340.9,254.2,340.6z"/>
						<path class="st5" d="M255.6,335.7l-1.3-0.5C254.4,335.2,255,335.5,255.6,335.7z"/>
						<path class="st5" d="M234.3,351.5c0.1,0.5,0.3,0.8,0.4,0.8C234.6,351.5,234.5,350.4,234.3,351.5z"/>
						<path class="st5" d="M269.2,351.4c-0.2-0.4-0.4-0.7-0.7-0.9C268.7,350.8,268.9,351.1,269.2,351.4z"/>
						<path class="st5" d="M235.2,352.3c0-0.1,0-0.2-0.1-0.3c-0.2,0.2-0.3,0.4-0.5,0.3C234.8,352.9,235,353.2,235.2,352.3z"/>
						<path class="st5" d="M258.8,316.9c0.1,0,0.1,0,0.2,0C258.7,316.8,258.7,316.8,258.8,316.9z"/>
						<path class="st5" d="M272.5,312.1c0.1,0.1,0.1,0.2,0.1,0.3C272.7,312.3,272.7,312.2,272.5,312.1z"/>
						<path class="st5" d="M230.1,352.1C230,352.2,230.1,352.2,230.1,352.1L230.1,352.1z"/>
						<path class="st5" d="M230,346.9c0-0.1,0.1-0.3,0.1-0.6C230.1,346.6,230,346.8,230,346.9z"/>
						<path class="st5" d="M237.5,344.4L237.5,344.4C237.5,344.2,237.5,344.2,237.5,344.4z"/>
						<path class="st5" d="M230,351.5c0,0.2,0.1,0.3,0.1,0.4C230.1,351.8,230.1,351.6,230,351.5z"/>
						<path class="st5" d="M229.9,352.1c0-0.1-0.1-0.1-0.1-0.1C229.8,352.2,229.8,352.3,229.9,352.1z"/>
						<path class="st5" d="M230.3,352c-0.1,0-0.1-0.1-0.2-0.2c0,0.1,0,0.2,0,0.2C230.2,352.1,230.2,352,230.3,352z"/>
						<path class="st5" d="M261,328.6c0,0,0.1,0,0.1,0C260.6,328.4,260.7,328.5,261,328.6z"/>
						<path class="st5" d="M248.7,339.7C248.7,339.7,248.7,339.8,248.7,339.7l0,0.1L248.7,339.7z"/>
						<path class="st5" d="M249.3,338.8c-0.4,1.6-0.5,1.4-0.6,1l-0.2,3.8L249.3,338.8z"/>
						<path class="st5" d="M256.5,337.3c0,0-0.3-0.2-0.6-0.3c-0.3-0.2-0.5-0.4-0.5-0.4c-1.8-1.4-1.2-0.9-2.7-2
							c1.9,1.3,2,1.5,2.1,1.6c0.1,0.1,0.2,0.3,2.1,1.9l-0.8-0.6c0,0-0.2-0.2-0.1-0.2c-1.8-1.5,2.7,2.5,2.1,2.3
							c-0.3-0.2-0.8-0.6-1.3-1.1c0,0,0.2,0.3,0.4,0.5c0.2,0.3,0.4,0.6,0.4,0.6c-0.1,0-0.7-0.7-0.6-0.7l0.3,0.6l-0.1-0.1
							c0.6,0.7,1.4,1.8,1.8,2.3c-0.5-0.5-0.4-0.5-0.8-1l0.9,1.2c-1-1-1.8-2.3-1.7-2.2c-1.8-1.9-1.6-1.7-1.2-1.2
							c0.4,0.5,1,1.3,0.2,0.4c-0.1-0.1-0.1-0.1-0.2-0.2l-0.1-0.1l-0.4-0.5c-0.7-0.8-1.1-1.3-1.4-1.6c-0.4-0.5-0.5-0.5-1.2-1.5
							c0.3,0.4,1.1,1.4,1.9,2.4c0.8,1,1.7,2.1,2.1,2.7c-0.3-0.3-0.5-0.5,0.1,0.4c-1.2-1.6-1-1.2-1-1.1l-1.5-2.1
							c0.4,0.6,1.1,1.7,1.7,2.6c-0.3-0.2-1.4-1.8-2.3-3.2c-0.1-0.2,0.3,0.5,0.8,1.2c0.5,0.7,1.1,1.6,1.1,1.7c-0.7-0.8-0.2,0,0.2,1.2
							c-0.5-0.7-0.6-1.2-1-1.8c0,0,0.2,0.4,0.4,0.8c0.2,0.4,0.4,0.8,0.4,0.8c-0.1,0-0.3-0.5-0.4-0.8c0.2,0.6,1,2,1.1,2.6
							c0.5,1.1,0,0.3-0.5-0.5c-0.5-0.8-0.9-1.5-0.5-0.3c-0.3-0.6-0.4-1.2-0.8-2c0.2,0.8,0.2,1.1,0.3,1.5c0.1,0.4,0.2,0.8,0.3,1.9
							c0,0-0.2-0.3-0.3-0.7c-0.2-0.3-0.3-0.7-0.3-0.7c0.6,1.5,0.9,3.3,0.9,4.7c0.3,0.7,0.5,1.4,0.7,1.7c0,0-0.1,0.2-0.2,0.5
							c-0.1,0.2-0.2,0.5-0.2,0.5c-0.2-0.3-0.2-1-0.3-1.8c0,0.2,0,0.3,0,0.5c-0.4-0.8-0.5-1.9-0.6-3c0.1,0.4,0.3,0.8,0.5,1.2
							c-0.1-1.2-0.4-2.5-0.7-3.7c0,0.2,0,0.4,0,0.5c-0.1-0.3-0.1-0.6-0.2-0.8c-0.1-0.2,0,0.2,0.1,0.7l-0.6-2.2l0.2,0.9
							c0,0-0.2-0.4-0.3-0.7c-0.2-0.4-0.3-0.7-0.3-0.7c0.1,2.2,0,5.4-0.8,6.2c0.2-1.6,0-2.6,0-4.4c0.1,1,0.2,0.8,0.3,0.4
							c0.1-0.4,0.2-1,0.3-0.8c-0.1-0.2-0.2-1.1-0.2-1.4c0,0,0,0.4-0.1,0.9c-0.1,0.4-0.2,0.9-0.2,0.9c0-1.5-0.1-1.2-0.2-1.8
							c0.1,3-0.4,2-0.6,2.9c0.1-1,0.2-2,0.4-1.8c0-1.1-0.1-0.3-0.3,0.6c-0.1,0.9-0.4,1.9-0.5,0.9c0.1,0,0.1,0.1,0.2-0.4
							c-0.3,0.9-0.8,0.1-0.6-0.8l0.1,0c-0.6-0.4-1.9-0.2-2.2,2.3c0-0.3,0.4-3.1,0.5-3.6l-2,8.4c0.3-2.2,0.5-7.4,1.1-8.6
							c-0.1-0.3-0.3-0.7-0.6,0c0.1,0.3-0.1,3.2-0.2,3.4c-0.1-2.5-0.1-1.3-0.4-3.4c0.1,0.5-0.4,3.9-0.6,3.8c0.1-0.5,0.3-3.4,0.5-3.7
							l-0.9,3.3c0.2-0.6,0.3-2.8,0.3-3.8c0,0.7-0.5-0.1-0.7,0.2l0.2,0.8c-0.6-0.6-1.1,4.7-1.8,4.4c0.2-0.7,0.6-4.2,0.3-4.7
							c-0.3,1.7-1.5,8.2-2.3,9.5l0-1l-0.6,1.1c0.5-2.6,1.9-7.9,2.5-10c-0.2-0.8,0.1-1.2-0.3-1.1c0-0.9,0.3-1.4,0.5-1.4l-0.8-0.7
							c-0.2,2-0.9,1.9-1,3.6l1.2-2c-0.2,2-1.1,5.6-1.7,5.2c-0.1-0.8,0.5-3.6,0.5-4.2c-0.2,0.7-0.7,1.3-0.7,0.8l0.4-1
							c-0.3-0.8-0.8,2.6-1.1,0.6c-0.1-0.1-0.2-2.6-0.3-1.4c0,2.3-0.7,9.4-1,11.1c0-0.2-0.5-2.3-0.6-3.4c0-1.8,0.8-4.2,0.8-5.8
							c-0.1,0.5-0.3,1.2-0.3,1.4c-0.1-0.5,0.2-1.7-0.1-1.5c-0.3,2-0.6-0.2-0.3,1.7c-0.4,0.5-0.3-0.5-0.7-0.4c0,1.3-0.8,4.4-1.2,5
							c0.1-0.5,0.1-1.2,0.1-1.5c-0.6-0.3-0.9-1.2-1.5-1.3c0-0.5-0.2-1.1,0-2c-0.1,0.4-0.3,1-0.5,1.1c-0.2-1.8,0.4-0.2,0.4-2.4
							c-0.1,1.2-0.7,1.6-1,2.3c-0.1,1.8,0.6,0.4,0.9-0.3c-0.3,2.5-1,5.1-1.8,6.2c-0.6,0.6-0.1-1.7-0.2-1.3c-0.9-0.5-1.3,4.3-1.9,2.4
							c-0.1-1.6,0.3-3.2,0.4-4.4c0.5-0.6,0.5,1.1,0.8,1l-0.3-0.8c0.2-0.5,0.5-0.9,0.6-0.4c-0.1-1.5-1.6-0.4-2.2-1.8
							c-0.2,0.5-0.5,1.1-0.4,1.7l0.3-0.2c0.1,1.3-0.6,1.7-0.4,2.4c-0.4,0.9-0.9,2.3-1.3,1.5l0.1-1.8c0,0.5,0.2,1.1,0.4,0.6
							c-0.3,0.8-0.4-2.5-0.9-0.2l0.2,1.3c-0.4,0.9-1,2.8-1.3,2.2c0,1.8,0.1-0.2,0.2,1.9c0-2.7,1,0.2,0.9-2.6c0,2.5,0.4,1.1,0.5,3.2
							c0.1-0.6,0-1.2,0.3-0.8c0-0.2,0.1-0.4,0.1-0.5c0,0,0,0,0,0l0-0.1c0-0.1,0-0.1,0,0c-0.1-0.3-0.1-0.6-0.1-0.9
							c0.3-1.4,0.8-1.3,1.1-2c0.2,0.3-0.2,0.7-0.1,1.3l0.4-1c-0.1,1.3,0.3,2.3-0.3,3l0.4,0.1c0.2,0.8,0.5,1.1,0.7,0.6
							c0.2,0.3,0.6-1.4,0.4-0.4l0.7-0.8l0,0.3c0.6,0.2,1.5-2.1,2,0.4c0.2-0.3,0.5-0.7,0.8-0.3l-0.1,1.2c0.3-0.4,0.7,1.2,0.9,0
							c0,3.2,1.3,0.8,1.7,1.4l0.2-1.5c0.3,0.1,0.7-0.3,1.2-0.8l0.1-1.3c0.5-1.1,0.8,1,1.4,1c-0.1,0.5-0.2,0.4-0.3,0
							c0.4,3.1,1.6-2.1,2,0.2c0.2-0.5,0.3-0.3,0.4,0.1c0,0,0,0,0,0.1c0,0,0,0,0.1,0c0,0.2,0.1,0.5,0.1,0.7c0-0.3-0.1-0.6-0.1-0.7
							c0.1,0,0.3-0.2,0.5-0.5L244,353c0,0,0,0,0,0c0.1,0.5,0.2-0.7,0.2-1.8c0.1-0.2,0.2-0.5,0.3-0.8c-0.1,2.3,0.5-0.7,0.5,1.8
							c0.2-1.2,1-0.8,1.3-3.3c0,0.3,0,0.5-0.1,0.5c0.2,0.3,0.3,0.6,0.6-0.1l-0.1,1.8l0.7-2.4c0.1,1.1,0.2,1.8-0.2,3.2
							c0.8-2.1,0.6-0.8,1.3-2.9l-0.1,1.2c0.2,0,0.7-1.6,0.7-0.6c0.1,1.1,0.6,1.3,1.2,1.4c0.5,0.1,1.5,0.3,2.3,1.4
							c-0.1-1.8,0-1.4,0.3-0.8c0.2,0.5,0.6,1.1,0.5-0.2c0.1,0.8,0.4,1.3,0.2,2c0.4-0.4,0.8,0,1.1,0.2c0.3,0.2,0.6,0.2,0.7-1
							c0.2,0.9,0,1.2,0.2,1.7c0-0.2,0.2-0.7,0.3-0.2c0.2,0.5,0,0.7-0.1,1c1,0,0.5-2.6,0.1-5.1c0.6,1.2,0.8,1.1,0.7-0.5
							c0.3,0.8,0.8,1.7,0.4,1.9c0.3,0.1,2.1,1.4,1.4-0.6c0.3,0.5,0.4,0.2,0.4,0c0.6,0.2,0.8,0.4,1.3,0.2l-0.3-0.3
							c-0.9-2.4,0.2-0.5,0.5-0.7l0.1,0.3c1,0.9,1,0.7,1,0.6c0-0.2,0-0.3,1.1,0.8l-0.9-1.5c-0.9-1.6-0.4-1.1,0.3-0.4
							c0.7,0.8,1.7,1.8,1.6,1.2l-0.8-0.9c-0.2-0.6,0.7,0.6,1.9,2c1.1,1.4,2.5,2.9,2.9,3.2c0.3,0.3,0.2,0.5,0.2,0.7
							c2.5,2.1-1.3-2-0.9-2.4c1,1.1,1.9,2.8,2.6,3.1c0.5,0.5,0.2-0.4,0.1-1.1c-0.6-1.2-1-2.2-0.1-1.6c-0.7-0.6-1.4-1.3-1.9-2.3
							c-0.1-0.4,0.6,0,1.1,0.1c0.5,0.1,0.7-0.1-0.4-1.5c0.2,0.1,0.4,0.3,0.6,0.5c-0.5-1-0.8-2.2-2-3.5c2.3,1.9,1.8,0.7,1.3-0.3
							c-0.5-1-1.2-1.9,1-0.4l-0.1-1.4l0.4,0.3c0.4-0.6-0.6-1.5-1.7-2.4c0.3,0,0.7,0.3,0.9,0.5c1-0.6,0.8-1-1.3-2.7l1.4,0.5
							c-0.4-0.3,0.2-0.4,0.7-0.8c0.5-0.3,0.9-0.9,0.2-1.7c0.2,0.1,0.4,0.1,0.6,0.3c-0.8-0.8,0.3-1.4,1-2c0.3-0.4,0.5-0.5,0.3-0.7
							c-0.2-0.2-0.8-0.4-2.2-0.6l-1.3-0.7c-0.5,0.7-2.3-0.4-3.3-0.2c-0.3-0.3,1.7-0.6,1.9-0.2l-0.3,0c2.8,0.4,1.1-0.8,3-0.6
							c0-1.4,1.7-2.6,2-4L269,330l0.2-0.4c0.5-0.1,1.7,0,1.6,0.3c1.3,0-1-0.7-1.4-0.7c1-0.6,2.5,0.5,2.6,0.3l-0.1-0.3l-0.3,0
							c-0.9-0.3-1.8-0.4-1.7-0.8c0.5-0.2,1.4,0,1.5-0.1c0.2,0,0.2,0,0.1-0.1l0.2-0.6l-1.7,0c-0.8-0.4,0.2-0.5-1.8-0.5
							c3.1-0.1,1.3-2.1,2.3-2.2c-1.2-0.5-1.2-0.9-1-1.3c-0.4,0.1-2.3-0.1-2-0.4c4,0.6,1.8-0.5,4.7-0.5c-1.9,0.1-0.4-1.1-3.1-1
							c0.4-0.3,1.5,0.1,2.5,0c-1.5-0.9,1.2-1.6,0.8-2.6c-0.5-0.1-1.3,0-2.1-0.3l2.7-0.2c-0.2-0.2-3-0.5-1.2-0.6
							c-0.4,0-1.1,0-1.3-0.1c2.8-1.6-1.7-4,3.3-5.3c-1,0.1-1.1,0-1.1-0.2c-0.3,0.1-1.3-0.1-2-0.2l2.1-0.6c-2-0.4,0-0.9-1.9-1.1
							l0.3,0.3c-2.2-0.6-5-0.1-7.9-0.4c2.5,0.6-3.9,0.6-0.3,1.6c-0.6,0.1-0.9-0.2-1.6-0.2c1.2,0.3,1.4,0.5,0.9,0.8l-0.3-0.1
							c0.2,1-1.1,1.3-2,2.3l1.4,0.1c-0.2,0.2-0.7,0.2-1,0.3c2.1,0.5,0.2-0.6,2.5-0.1c-2.9,0-0.2,1.6-3.5,1.5
							c-0.1,0.4,1.6,0.1,1.6,0.4l-0.9,0l1.1,0.2c-0.2,0.2-1.3,0.2-2.1,0.1c0.1,0-0.2-0.2-0.2-0.3c-1.1,0.2,0.3,0.9-0.1,1l0.6-0.3
							c0.7,1.1-0.6,2.1,1.1,3.3l0.7,0c1.2,0.9-0.8,0.5-0.3,1.4l-0.2,0c0.6,0.2,1,0.5,0.9,0.7c-0.8-0.3-1.6,0.2-2.4-0.1
							c1.2,0.9,1,0.5,3.4,1.3l-1.1,0c1,0.3,1.5,0.4,1.8,0.8c-0.9-0.4-1.7,0.1-2.9-0.4c-2.5,0.6,2.3,1.5-1.3,1.5
							c3,0.7,1.8-0.5,2.4-0.2c1-0.1,2.3,0.6,1.9,0.8c-0.1,0.3-4,0-4,0.7c0-0.1-0.2-0.1-0.2-0.2c-0.8,0.2,1,0.6-0.3,0.8
							c1.8,0.4-0.1,0.4,2.2,0.7l-0.5-0.7c0.6,0.4,3.3,1,1.9,1.5c-0.5-0.1-1.1-0.3-1.4-0.5c-0.7,0.1,0.4,0.4-0.3,0.5
							c-2.4-0.3-0.4-0.8-2.2-1.4c-1,0.1,1.6,0.9-0.9,0.4c3.2,0.6-0.5,0.6,2,1.3l-1.4-0.2c0.2,0.1,0.9,0.3,0.8,0.4l-1.8-0.4
							c1.5,0.5-1.4,0.6-0.6,1c0-0.7,1.7,0,2.8-0.2c1.8,1.1-3.8,0.1-3.2,1.2c-0.2-0.2,0.9-0.4,1.5-0.1c-0.3,0.2-0.9,0.4-1.6,0.4
							c0.2,0.7,1.5,0.1,2.3,0.4c-1.7,0,0.7,0.4,1.2,0.8l-1.4-0.2c-1,0.7,3,0.5,1.8,1.1l-2-0.5l0.5,0.4l-1.6-0.3
							c1.2,0.5,0.8,0.6,0.3,0.9c1,0,2.6,0.3,2.6,0.7c-0.9,0.1-1.4-0.3-1.2,0.2c-0.9-0.2-2-0.4-0.7-0.5c-0.5-0.1-0.9-0.2-1.4-0.3
							c-0.5,0.1-0.6,0.2-0.5,0.4c0,0.1,0.1,0.1,0.1,0.1c0.1,0,0.1,0,0.1,0.1c0.1,0,0.1,0,0.3,0c0,0,0.5,0.1,1,0.3
							c0.5,0.1,1,0.3,1,0.3c-0.5,0-1-0.2-1.4-0.3c0.1,0.1,0.8,0.2,0.9,0.4c-1.2-0.3-2.3-0.5-2.9-0.7c0,0,0.3,0.1,0.6,0.2
							c0.3,0.1,0.6,0.2,0.6,0.2c-0.5-0.1-1.4-0.3-1.8-0.4c-0.3-0.1,0.2,0.1,0.7,0.4c0.5,0.2,1,0.5,0.6,0.4c0.2,0.1,0.4,0.2,0.6,0.3
							c-0.3,0.1-1.7-0.5-0.1,0.4c0,0-0.5-0.3-1-0.5c-0.5-0.3-1-0.5-1-0.5c0.2,0.2,0.9,0.5,1.5,0.9c0.7,0.4,1.4,0.7,1.7,1.1
							c0.6,0.6-1.7-1-2.3-1.3c1,0.7,3,2.3,1.4,1.3C256.3,337.2,256.6,337.4,256.5,337.3z M257,340c-0.1-0.2-0.3-0.5-0.5-0.7
							c-0.1-0.2-0.1-0.2,0.3,0.2c0.3,0.4,0.6,0.7,0.7,0.9c0.1,0.2,0.2,0.2,0.2,0.2C257.6,340.7,257.3,340.3,257,340z M254.2,343.3
							c0-0.5,0.1-0.2,0.3,0.3C254.4,343.7,254.3,343.6,254.2,343.3z M231.8,351.1C231.8,351,231.8,351,231.8,351.1
							C232,351.6,231.9,351.4,231.8,351.1z M231.4,350.4c-0.1,0.2-0.1,0.4-0.1,0.6c0.1-0.4,0.2-0.4,0.3-0.3
							C231.6,350.4,231.5,350.1,231.4,350.4z M270.8,328.2l-0.4,0.1C270.1,328,270.4,328.1,270.8,328.2z"/>
						<path class="st5" d="M254.3,341.3c0.1,0.3,0.2,0.5,0.2,0.8C254.5,341.8,254.4,341.6,254.3,341.3z"/>
						<path class="st5" d="M255.9,335.8L255.9,335.8c-0.1,0-0.2-0.1-0.2-0.1L255.9,335.8z"/>
						<path class="st5" d="M239.9,338.9c0.1,0.2,0.1,0.5,0.1,0.8C240.1,339.4,240.1,339.1,239.9,338.9z"/>
						<path class="st5" d="M228.6,352.6l0.3-0.3c-0.2,0.1-0.2-0.3-0.2-0.5C228.7,352.1,228.7,352.6,228.6,352.6z"/>
						<path class="st5" d="M226.9,343.4c-0.1,0.2-0.1,0-0.2,0.2l-0.1,0.7C226.9,344.2,227.1,343.7,226.9,343.4z"/>
						<path class="st5" d="M228.8,347.8c0.1-1.2-0.1-0.8-0.4-0.6c0,0,0,0,0,0C228.3,348.8,228.6,348.3,228.8,347.8z"/>
						<path class="st5" d="M228.4,347.2c-0.1,0-0.1,0.1-0.2,0C228.1,347.9,228.3,347.3,228.4,347.2z"/>
						<path class="st5" d="M230.7,351.1c-0.1-0.3-0.2,1.5-0.2,1C230.2,353.7,231.3,350.4,230.7,351.1z"/>
						<polygon class="st5" points="229.1,343.8 229,345.3 229.2,344.1 						"/>
						<path class="st5" d="M230.6,345l-0.3-0.4c0,0.3-0.1,0.4-0.1,0.5C230.4,345.2,230.6,345.5,230.6,345z"/>
						<path class="st5" d="M230.2,345.1c-0.1,0-0.2,0-0.3,0.2C230,345.3,230.1,345.3,230.2,345.1z"/>
						<polygon class="st5" points="229.6,343.4 229.7,343.7 229.9,343.8 						"/>
						<path class="st5" d="M234.2,345.7l0.4-0.4c0.1-0.5,0-0.8-0.1-0.6C234.4,345,234.2,345.2,234.2,345.7z"/>
						<path class="st5" d="M233.5,341.5c0.1,0.3,0,0.7,0,1.2l0.2-1.9L233.5,341.5z"/>
						<path class="st5" d="M234.7,341.2c0.1-0.5,0.7-1.4,0.2-1.4C234.8,340.3,234.4,340.7,234.7,341.2z"/>
						<polygon class="st5" points="240,344.1 239.9,344.1 239.6,347.1 						"/>
						<path class="st5" d="M245.6,337.3c-0.4-0.8-0.3,1.9-0.6,0.9c-0.2,0.7,0.2,0.8,0.1,1.4C245.4,338.9,245.5,339.3,245.6,337.3z"
							/>
						<path class="st5" d="M245.1,339.6c-0.1,0.1-0.1,0.3-0.2,0.4C245,339.9,245.1,339.7,245.1,339.6z"/>
						<polygon class="st5" points="274.2,311.2 274.9,311 273.9,311.1 						"/>
						<path class="st5" d="M272,310.4l1.9,0.1l-1.7-0.4C272.3,310.3,272.5,310.4,272,310.4z"/>
						<path class="st5" d="M253.5,335.7l0.4,0.5c0.4,0.6,0.5,0.6,0.5,0.7L253.5,335.7z"/>
						<polygon class="st5" points="255,336.7 254.9,336.7 256.6,338.2 						"/>
						<path class="st5" d="M252.9,334.7c-0.1,0,0.3,0.2,0.2,0.2C252.9,334.7,255,336,252.9,334.7z"/>
					</g>
				</g>
			</g>
		</g>
	</g>
</g>
</svg>
