<?xml version="1.0" encoding="utf-8"?>
<!-- Generator: Adobe Illustrator 19.1.0, SVG Export Plug-In . SVG Version: 6.00 Build 0)  -->
<svg version="1.1" id="Layer_1" xmlns="http://www.w3.org/2000/svg" xmlns:xlink="http://www.w3.org/1999/xlink" x="0px" y="0px"
	 viewBox="0 0 350.6 140.7" style="enable-background:new 0 0 350.6 140.7;" xml:space="preserve">
<style type="text/css">
	.st0{fill:#E0E1E0;}
	.st1{fill:#EEEEEE;}
	.st2{fill:#F5F7F9;}
	.st3{fill:#BDBDBD;}
	.st4{fill:#F37046;}
	.st5{fill:#434343;}
</style>
<g>
	<g>
		<polygon class="st0" points="152.2,43.7 77.2,87 77.2,0.4 		"/>
		<polygon class="st0" points="1.9,96.7 76.9,140 76.9,53.4 		"/>
		<polygon class="st1" points="105.6,70.3 76.4,87.1 76.4,53.4 		"/>
		<polygon class="st2" points="1.9,43.7 76.9,87 76.9,0.4 		"/>
		<polygon class="st3" points="46.6,70.3 75.9,87.1 75.9,53.4 		"/>
		<polygon class="st4" points="105.8,70.3 76.5,53.4 76.5,87.1 		"/>
		<g>
			<path class="st5" d="M139.5,90.4c0-0.2,0.1-0.5,0-0.6c-0.2-0.2-0.5-0.3-0.7-0.4c-0.4,1.2-1,0.2-1.2,0c-1.3-0.6-2.6-1.4-3.9-2.2
				c-4.1-2.4-8.2-4.8-12.4-7.2c0.1-0.1,0.2-0.3,0.3-0.6c-1.3,0.2-5.2-2-6-3.3c-0.2,0.1-0.5,0.3-0.6,0.2c-1.7-1-3.3-1.9-5-3
				c-2-1.3-4-2-6.3-0.4c-0.5,0.4-1.2,0.5-1.7,0.7c-0.1,0-0.2,0.2-0.2,0.2c-0.5,0.2-0.8,0.6-1.2,0.8c-3.4,2-6.7,4-10.1,6
				c-3.4,2-6.9,3.9-10.3,5.8c-1.3,0.8-2.4,1.8-2.6,3.5c-0.1,1.3-0.1,2.7-0.2,4c0,0.4-0.3,0.9-0.5,1.4c0.7,1.1,0.8,3.4,0.1,4
				c0.2,0.6,0.4,1,0.4,1.4c0,3.2-0.2,6.5-0.2,9.7c0,3.1,0.1,6.2,0.2,9.3c0,1,0,2.1,0,3.1c0,0.9-0.1,1.7-0.1,2.6c0,1.5,0,2.9,0,4.2
				c-0.4,0.3-0.8,0.5-1.2,0.7c0.4,0.4,0.8,0.8,1.4,1.4c0,2,0,4.4,0,6.8c0,0.4-0.2,0.9-0.5,1.3c-0.4,0.5-0.8,0.6-1.2-0.1
				c-0.1-0.1-0.3-0.2-0.5-0.3c-0.8-0.3-1.6-0.5-2.3-0.9c-3.7-2.1-7.4-4.2-11.1-6.3c-0.5-0.3-1-0.6-0.8-1.4c0-0.2-0.2-0.4-0.3-0.6
				c-0.1,0-0.2,0.1-0.3,0.1c0.1,0.4,0.2,0.7,0.4,1.2c-0.9-0.5-1.6-0.9-2.3-1.3c0.1-0.3,0.3-0.6,0.3-0.7c-0.6,0-1.2,0-2,0
				c0.3-0.4,0.4-0.5,0.5-0.7c0.1-0.1,0.1-0.3,0.2-0.5c-2.3,0.7-3.5-1.2-5.3-1.7c0.4-0.3,0.7-0.6,1.3-1c-0.7,0-1.3-0.2-1.5,0
				c-0.5,0.6-0.8,0.2-1.3-0.1c-2.9-1.7-5.8-3.3-8.7-4.9c-3.1-1.8-6.1-3.6-9.2-5.4c0.2-0.1,0.3-0.2,0.6-0.4c-0.6,0-1,0.1-1.3,0
				c-1.1-0.6-2.3-1.1-3.3-1.8c-1.6-1.2-3.6-1.7-5-3.3c-0.8-0.9-2.3-1-3.4-1.6c-0.9-0.5-1.8-1-2.7-1.6c-0.3-0.2-0.3-0.6-0.6-0.7
				c-0.5-0.2-1.1-0.2-1.6-0.5c-1.8-1-3.6-1.9-5.3-3c-0.9-0.6-2.3-0.7-2.5-2.1c0,0-0.1,0-0.2-0.1c-0.1,0.2-0.1,0.3-0.1,0.4
				c-2-1.3-4.5-1.8-5.9-4C1,98,0.6,97,0.3,96.6c-0.5-0.7-0.1-1.2,0.5-1.5c2.1-1.3,4.2-2.5,6.2-3.7c0.6,0.2,1.1,0.4,1.6,0.6
				c0.1-0.1,0.1-0.2,0.2-0.4c-0.3-0.2-0.6-0.4-1.1-0.7c0.8-0.2,1.2-1.2,2.1-0.5c0.3,0.2,0.9-0.6,0.7-1.1c3.2-1.8,6.4-3.7,9.5-5.5
				c0.2,0.3,0.3,0.5,0.3,0.4c0.4-0.4,0.7-0.8,1.1-1c0.8-0.5,1.7-0.9,2.5-1.4c3.3-2,6.6-3.9,9.9-5.9c2.8-1.7,5.7-3.3,8.5-5
				c0.9-0.6,0.9-1,0-1.6c-2.5-1.5-5-2.9-7.5-4.4c-2.7-1.6-5.3-3.2-7.9-4.8c-2.3-1.4-4.8-2.6-7.1-4c-1.4-0.8-2.8-1.6-4.1-2.4
				c-3.5-2-7-4-10.5-6.1c-0.8-0.5-1.5-1.2-2.3-1.7c-0.6-0.4-1.4-0.5-2-0.8c-1-0.6-1-1.2-0.2-1.8c0.9-0.7,2-1.5,3.1-2
				c2.2-1,4.1-2.6,6.4-3.5c2.1-0.8,3.9-2.5,5.9-3.7c3.9-2.3,7.9-4.7,11.9-6.9c1.5-0.8,2.8-2.2,4.8-1.7c0,0,0.1-0.1,0,0
				c-0.2-0.2-0.4-0.4-0.6-0.7c3.4-2,6.6-3.8,9.8-5.6c0.2-0.1,0.6,0,0.6,0c0.3-0.4,0.5-0.8,0.9-1c2.7-1.6,5.5-3.2,8.3-4.7
				c2.1-1.1,3.9-2.6,6.2-3.3c1.2-0.4,2.1-1.5,3-2.1c0.6,0.4,1,0.6,1.3,0.9c0-0.1,0.1-0.1,0.1-0.2c-0.2-0.3-0.4-0.7-0.6-1.1
				c1.3-0.7,2.6-1.4,3.9-2.1c0,0.3-0.1,0.4-0.1,0.7c0.5-0.6,0.9-1.1,1.5-1.5c2-1.5,4.4-2.4,6.5-3.8c2.3-1.6,4.6-1.2,6.9,0.2
				c3.9,2.4,7.9,4.7,11.9,7c0.2,0.1,0.4,0.4,0.8,0.9c0.8-0.1,1.9,0,2.3,1.4c0.2-0.1,0.4-0.2,0.6-0.2c0,0.3-0.1,0.6-0.1,0.8
				c3,0.5,3.8,0.9,3.8,1.9c0.3,0,0.6-0.1,0.8,0c1.7,0.6,3,2,4.6,2.7c1.7,0.7,3.2,1.8,4.7,2.8c0.3,0.2,0.5,0.6,0.7,0.9
				c0.2,0,0.6-0.2,0.8-0.1c3.2,1.8,6.4,3.6,9.6,5.5c2.3,1.3,4.6,2.7,6.9,4c1.3,0.8,2.6,1.5,4,2.3c-0.5,0.2-0.9,0.3-1.5,0.5
				c1.2,0.1,2.3,0,3,0.4c4.3,2.4,8.5,4.9,12.8,7.4c1.3,0.7,2.6,1.4,3.9,2.2c0.5,0.3,1.1,0.5,1.3,0.9c0.3,0.7,0.4,1.5,0.6,2.2
				c0.5-0.2,0.7-0.3,1-0.3c0.1,0.1,0.1,0.3,0.2,0.4c-0.8,0.4-1.6,0.8-2.4,1.2c-1.9,1.1-3.7,2.4-5.6,3.5c-3.7,2.2-7.4,4.3-11.1,6.4
				c-2.1,1.2-4.1,2.4-6.2,3.6c-3.8,2.2-7.6,4.4-11.4,6.5c-0.4,0.2-1,0.3-1.2,0.4c-1.8,1.3-3.5,2.5-5.5,3.9c6.3,4.1,12.7,7.4,19,11.2
				c-0.3,0.3-0.6,0.5-0.9,0.7c0,0.1,0.1,0.2,0.1,0.3c0.5-0.2,1-0.3,1.7-0.6c1.1,0.7,2.4,1.5,3.7,2.3c4.5,2.6,8.9,5.1,13.4,7.6
				c0.8,0.4,1.4,1,2.2,1.4c0.8,0.5,1.7,0.7,2.4,1.3c0.3,0.3,0.4,1,0.3,1.5c-0.2,0.6-0.7,1-1.4,0.6c-1.4-0.7-2.8-1.5-4.1-2.2
				c-1.2-0.7-2.4-1.4-3.6-2.1c0.2-0.3,0.4-0.5,0.5-0.6c-1.2-0.3-2.4-0.6-3.6-1C139.4,90.7,139.5,90.6,139.5,90.4z M142.5,40.3
				c-6.3-3.6-12.5-7.2-18.7-10.8c0-0.2,0.1-0.5,0.1-0.7c-1.5,0.7-2.2-0.6-3.2-1c-1-0.4-1.8-1.2-2.9-1.9c-0.5-0.2-1.4-0.4-2-0.9
				c-2.1-1.6-4.6-2.6-6.8-3.9c-3.8-2.3-7.7-4.5-11.6-6.7c-0.9-0.5-1.8-1-2.6-1.5c-1.6-1-3.3-1.9-5-2.9c-0.2-0.1-0.4-0.5-0.4-0.9
				c-0.1-0.3,0-0.6,0-1.3c-0.4,0.6-0.6,1-0.9,1.4c-0.4-0.3-1.2-0.3-1-1.1c0,0-0.3-0.2-0.4-0.2c-1.6,0.2-2.5-1.1-3.8-1.7
				c-1.5-0.7-3-1.5-4.6-2.3c-0.6-0.3-0.9-0.1-1,0.6c-0.1,1.2-0.2,2.4-0.2,3.6c0,6.9,0,13.8,0,20.7c0,0.5-0.4,0.9-0.6,1.5
				c0,0,0.3,0.1,0.5,0.2c0,3.3,0,6.6,0,9.9c0,0.9,0.2,1.9,0.1,2.8c0,0.5-0.4,0.9-0.7,1.3c-0.2,0.3-0.5,0.5-0.7,0.7
				c0,0,0.2,0.2,0.2,0.2c0.3-0.2,0.6-0.4,0.8-0.6c0.1-0.1,0.1-0.1,0.3-0.4c0,1.6,0,3.1,0,4.6c-0.1,1.8,0.6,3.1,2.1,4
				c3.3,2,6.7,4,10.1,6c0.3,0.2,0.6,0.6,0.8,0.9c0.3,0.4,0.5,0.8,1,0.3c0,0,0.2,0,0.2,0.1c1.2,0.7,2.5,1.3,3.7,2.1
				c0.3,0.2,0.5,0.6,0.6,0.7c0.3,0,0.7-0.1,0.9,0c2.7,1.6,5.4,3.2,8.1,4.8c1.1,0.6,2.4,0.5,3.3,0c3.2-1.7,6.3-3.6,9.4-5.5
				c0.4,0.2,0.7,0.4,0.7,0.4c0.4-0.5,0.5-1.1,0.9-1.3c1-0.6,2.1-1.1,3.2-1.6c0.1-0.1,0.3,0,0.1,0c1.4-0.9,2.8-1.9,4.2-2.7
				c1.1-0.7,2.3-1.4,3.5-1.9c2-0.8,3.5-2.4,5.6-3.2c0.5-0.2,1.1-0.3,1.5-0.6c0.8-0.6,1.6-1.3,2.4-1.8c2.5-1.5,5.1-2.9,7.6-4.4
				c0.5-0.3,0.8-0.9,1.1-1.2c-1.7-1.9-4.6-2-5.9-4.6C142.4,39.7,142.4,39.9,142.5,40.3z M42,67c0.1,0.1,0.1,0.2,0.2,0.2
				c0.3-0.1,0.5-0.2,0.8-0.4c0.6,0.3,1.4,0.7,2.2,1c1.6,0.5,3,0.1,4.3-0.8c0.9-0.6,1.8-1.4,2.7-1.5c1.1,0,1.3-0.8,2-1.2
				c1.1-0.6,2.4-0.9,3.3-1.7c2.4-2.1,5.3-3.2,8-4.9c1.9-1.2,4-2.1,6-3.3c1-0.6,2-1.3,2.7-2.1c0.6-0.7,0.9-1.7,1-2.7
				c0.1-1.8,0-3.7,0-5.6c0.3,0.1,0.6,0.3,0.8,0.4c0.3-0.9,0.2-0.9-0.8-0.9c0-1.8,0-3.5,0-5.3c0-4.1,0-8.3,0-12.4c0-1.8,0-3.7,0-5.5
				c0-3.3,0-6.7,0-10c0-1,0.2-2,0.2-2.8c0.7,0.4,1.2,0.7,1.7,0.9c0.4-0.8,0.4-0.8-1.9-1.8C75,3.5,74.7,3.3,72,4.9
				c-0.6,0.3-1.1,0.7-1.7,1c-0.4,0.2-0.8,0.2-1.5,0.4c-0.9,1.4-2.5,2.3-3.8,2.1c-0.3,0.4-0.5,0.9-0.9,1.1c-4.4,2.6-8.8,5.2-13.2,7.7
				c-0.7,0.4-1.3,0.7-2,1.1c-0.4,0.2-0.9,0.2-1.4,0.3c-0.6,0.1-1.1,0.2-1.7,0.3c0,0.1,0,0.2,0.1,0.3c0.3,0,0.7-0.1,1-0.1
				c0,0.1,0.1,0.1,0.1,0.2c-2.3,1.3-4.5,2.6-6.8,4c-0.2-0.2-0.3-0.4-0.3-0.3c-0.9,0.7-1.8,1.5-2.7,2.1c-1.4,0.9-2.8,2-4.3,2.3
				c-1,0.2-1.3,0.9-1.9,1.3c-2.1,1.2-4.2,2.4-6.3,3.6c-4.6,2.7-9.2,5.3-13.9,8c-0.5,0.3-1.1,0.3-1.6,0.4c0,0.1,0.2,0.2,0.3,0.4
				c-1.1,0.7-2.2,1.3-3.4,2c-1.4,0.9-1.4,1.4,0,2.3c1.1,0.7,2.2,1.3,3.3,1.9c1.3,0.7,2.6,1.5,4,2.2c0,0,0.1,0,0.1,0
				c0.6,1.3,2.1,1.1,3.1,1.8c1.1,0.8,2.3,1.4,3.5,2.1c1.2,0.7,2.4,1.3,3.6,2.1c1.2,0.8,2.4,1.7,3.6,2.4c1.3,0.7,2.7,1.3,4,2
				c2.5,1.4,5.1,2.8,7.5,4.4c0.5,0.3,1,0.4,1.5,0.8c0.7,0.5,1.4,0.8,2.2,1.3C42.3,66.6,42.1,66.8,42,67z M21.7,106.3
				c2.6,1.5,5.3,2.8,7.6,4.5c1.6,1.2,3.8,1.5,4.9,3c1.1,0.5,2.1,1,3,1.5c2.3,1.3,4.7,2.6,7,4.1c1.2,0.8,2.5,1.2,3.5,2
				c1.2,1.1,2.9,1.3,4.1,2.3c1.4,1,3,1.8,4.5,2.7c1.5,0.9,3,1.7,4.5,2.6c1.5,0.9,3.1,1.7,4.6,2.6c2.3,1.3,4.5,2.7,6.8,4
				c0.7,0.4,1.5,0.5,2.5,0.9c0.1-1.8,0.3-3.4,0.3-5c0-4-0.1-8.1,0-12.1c0.1-3.7-0.2-7.5,0-11.2c0-1.1,0.3-2.1,0.4-3.2
				c-0.1-0.1-0.4-0.4-0.4-0.6c0-3.3,0-6.6,0.1-9.9c0-1.6,0-3.3,0-4.9c-0.1,0-0.2,0-0.3,0c0.3-0.2,0.6-0.5,1-0.7
				c-0.4-0.5-0.7-1.2-1.2-0.1c-2.1-2.5-5.3-3.6-8-5.3c-2.4-1.5-4.8-2.9-7.3-4.3c-0.4-0.2-0.8-0.3-1.2-0.5c0.1-0.1,0.3-0.2,0.4-0.3
				c-0.6-0.3-1.3-0.4-1.9-0.8c-1.6-0.9-3.1-1.9-4.7-2.8c-0.4-0.2-0.8-0.3-0.6-0.9c0-0.1-0.3-0.3-0.5-0.4c-0.1,0.1-0.2,0.3-0.4,0.5
				c-0.6-0.3-1.2-0.9-1.8-1C47.4,72.6,46,72,45,72.4c-1.7,0.6-3.1,1.8-4.7,2.8c-0.8,0.5-1.5,1-2.3,1.4c-0.4,0.2-1,0.2-1.3,0.3
				c-0.6,0.5-1.1,1.1-1.7,1.4C32,80,29,81.7,26,83.4c-0.4,0.2-1,0.2-1.5,0.3c-0.1,0.2-0.1,0.7-0.3,0.8c-4,2.3-7.9,4.6-11.9,6.8
				c-1,0.6-2,1.2-3,1.8c-0.3,0.2-0.7,0.2-1.1,0.3c-0.2,0.2-0.4,0.5-0.7,0.7c-0.6,0.4-1.3,0.8-1.9,1.3c-1,0.6-0.6,1.3,0.1,1.8
				c0.8,0.6,1.7,1.1,2.6,1.6c3.2,1.9,6.4,3.7,9.7,5.6c0.5,0.3,0.9,0.8,1.3,1.1c0.6,0.2,1.2,0.3,1.9,0.5c-0.3,0.3-0.5,0.5-0.8,0.7
				c0.4,0.3,0.8,0.6,1.3,0.9C21.7,107,21.7,106.7,21.7,106.3z M76.9,70.2c2.1,1.6,0.7,3.6,1.3,5.4c-0.4,0.1-0.7,0.2-1,0.2
				c0,0.1,0,0.2,0,0.3c0.3,0.1,0.6,0.1,1.1,0.3c-0.2,0.9-0.5,1.9-0.6,2.9c-0.1,0.4-0.1,0.8,0,1.2c0.1,1,0.4,1.9,0.4,2.9
				c0.1,1.3,0.6,1.6,1.6,1c2.2-1.3,4.5-2.7,6.8-4c0.5-0.3,1.1-0.7,1.7,0c0.2,0.2,0.6,0.1,1.1-0.1c-0.4-0.2-0.8-0.4-1.2-0.7
				c1.7-1,3.5-2,5.3-3.1c3-1.8,6.1-3.5,9.1-5.3c1.4-0.8,1.3-1.3,0-2c-3.2-1.9-6.5-3.8-9.8-5.6c-3.9-2.3-7.9-4.6-11.8-6.8
				c-0.7-0.4-1.5-0.6-2.3-0.8c-0.1,0.8-0.3,1.5-0.4,2.3c-0.1,1.4,0,2.9,0,4.3c0,0.2,0.1,0.4,0,0.6c-0.6,1.2,0.2,2.3,0,3.5
				c-0.1,1.2,0,2.5,0,3.8C77.6,70.2,77.4,70.2,76.9,70.2z M72.8,55.8c-0.7,0.7-1.1,1.3-1.8,1.7c-4,2.3-8.1,4.6-12.1,6.9
				c-2.6,1.5-5.2,3-7.8,4.5c-0.5,0.3-0.8,0.7-1.5,1.3c1.1,0.7,1.9,1.4,2.9,1.9c2.3,1.4,4.7,2.7,7,4c0.1,0.1,0.2,0.4,0.3,0.5
				c0.1,0.1,0.2,0.4,0.3,0.4c2-0.3,3.3,1.4,4.9,2.2c2.8,1.4,5.5,3.2,8.2,4.8c1,0.6,1.6,0.2,1.6-1c0-2.7,0-5.4,0-8.1
				c0-2.2,0.3-4.3,0.3-6.5c0-3.1-0.2-6.3-0.3-9.4c0-0.7,0.2-1.4,0.4-2.3C74.4,56.4,73.4,56,72.8,55.8z"/>
		</g>
	</g>
	<g>
		<g>
			<path class="st5" d="M213,58.6c0.7,1.2,1.7,2.4,2,3.7c0.7,3.5-0.5,6.8-3.6,8.9c-0.1,0.1-0.2,0.1-0.5,0.1c0.1-0.3,0.2-0.5,0.3-0.7
				c-0.1,0-0.3-0.1-0.3,0c-0.6,0.7-0.9,2.7-0.4,3.6c1.3,2.4,2.7,4.8,4.1,7.2c0.3,0.5,0.6,1.1,0.9,1.7c0.2,0.5,0.2,0.9-0.4,1.2
				c-1,0.5-3.4,0.4-4.2-0.3c0.2-0.4,0.3-0.7,0.5-1.1c-0.1-0.1-0.1-0.1-0.2-0.2c-0.3,0.3-0.7,0.6-1.2,1c-0.6-1.2-1.2-2.4-1.8-3.7
				c-0.1-0.1-0.1-0.3-0.2-0.4c-0.9-0.6-1-1.3-0.6-2c-0.5-0.2-0.9-0.4-1.4-0.7c0.4-0.4,0.7-0.7,1-0.9c-0.1-0.1-0.1-0.1-0.2-0.2
				c-0.3,0.2-0.6,0.3-0.8,0.5c-0.5-0.8-0.9-1.7-1.6-2.2c-0.9-0.6-2-1-3-1c-0.6,0-1.5,1.1-1.5,1.8c-0.2,2.4-0.1,4.7-0.1,7.1
				c0,0.4,0.1,0.8,0.1,1.2c-0.3,0.1-0.6,0.2-0.8,0.3c-0.9,1-2.4,1.4-3.6,0.8c-0.2-0.1-0.5-0.3-0.6-0.5c-0.1-0.2,0-0.5,0-0.7
				c0.2,0.1,0.4,0.1,0.6,0.2c0.2,0.1,0.4,0.3,0.7,0.5c0.1-0.3,0.2-0.7,0.3-1.1c-0.3,0-0.5-0.1-0.7-0.1c-0.8,0-1.6,0-0.7-1.1
				c0.1-0.1,0.2-0.4,0.1-0.5c-1.2-1.3-0.3-2.9-0.5-4.4c-0.2-1.6,0-3.2-0.1-4.8c0-3.9,0-7.8,0-11.7c0-1,0.2-1.9,0.1-2.9
				c-0.2-1.4,0.4-1.8,1.8-1.5c0.4,0.1,0.8-0.4,1.3-0.4c1.4,0,2.8,0,4.1,0c0.1,0,0.3,0.3,0.2,0.2c1.1-0.1,2-0.2,2.9-0.2
				c2.5-0.1,4.9,0.3,6.9,1.8c0.3,0.2,0.6,0.6,0.9,0.9c-0.5,0.2-1,0.4-1.7,0.7c0.8,0.3,1.4,0.5,2.1,0.8C212.9,59.3,213,58.9,213,58.6
				z M198.4,66.9c0.4-0.1,0.7-0.1,1-0.2c0.8-0.2,0.2,0.4,0.4,0.6c0.4,0.4,0.7,1.2,1.1,1.3c2.1,0.4,4.2,0.5,6.2-0.4
				c1.7-0.7,2.9-2.6,2.8-4.4c-0.2-2.3-1.4-3.7-3.6-4c-1.5-0.2-3-0.2-4.5-0.3c-1.6,0-2,0.4-2,2c0,1.4,0,2.9,0,4.6
				c-0.6-0.4-0.9-0.5-1.2-0.7C198.5,66,198.5,66.5,198.4,66.9z"/>
			<path class="st5" d="M256,59.3c0.2-1.2,0.4-2.4,0.5-3.6c0-0.2-0.3-0.4-0.3-0.6c0.2-0.6,0.3-1.7,0.7-1.8c0.8-0.3,1.8-0.1,2.7-0.1
				c0.1,0,0.2,0.2,0.3,0.3c0.6-0.6,1.1-0.5,1.3,0.3c0.2,0.5,0.2,1,0.2,1.6c0,9,0,18,0,27.1c0,0.6-0.4,1.7-0.9,1.8
				c-0.8,0.3-1.8,0-2.7,0c-0.1,0-0.2-0.1-0.3-0.2c-0.7-1.1-1.3-1.3-2.5-0.6c-0.2,0.1-0.4,0.3-0.6,0.4c-4.5,2.6-10.3,0.9-12.2-4.7
				c-1.3-3.8-1.4-7.7,0.3-11.5c0.9-2,2.2-3.6,4.2-4.6c2.5-1.2,5.2-1.5,7.8-0.1c1.1,0.6,1.5,0.3,1.6-0.9c0-0.1,0-0.2,0-0.2
				c0-0.8,0-1.7,0-2.5C256.1,59.3,256.1,59.3,256,59.3z M246.6,79.5c0,0.1,0,0.2,0,0.3c0.6,0,1.3-0.1,1.9,0c0.6,0.1,1.2,0.5,1.9,0.7
				c2.5,0.7,5.4-0.7,5.6-3.2c0.1-1.3,0.1-2.6,0.1-3.9c0-1.7,0-3.4,0-5.1c-0.4-0.3-0.7-0.5-1-0.7c-2.2-1.8-5.3-1.5-7,0.8
				c-0.5,0.6-1,1.3-1.4,1.9c0,0.3,0.2,0.7,0.2,1.2c0,1.3-0.7,2.5-0.2,3.9c0.5,1.3,0.8,2.7,1.3,4.2C247.7,79.5,247.2,79.5,246.6,79.5
				z"/>
			<path class="st5" d="M203.9,108.3c-0.3-0.1-0.5-0.1-0.7-0.2c1.7,1.1,1.9,2.7,1.6,4.1c0.4,0.5,0.7,0.7,0.9,1
				c0.5,0.7,0.9,1.5,1.5,2.4c1.2-3.5,2.2-6.7,3.5-9.8c1.2-3,2-6.2,3.3-9.1c0.4,0,0.7,0,1.1,0.1c0-0.4,0-0.8,0-1.5
				c0.7-0.7,1.9-1,3-0.4c0.9,0.5,1.4,2.2,1,3.8c0,0.2-0.4,0.2-0.6,0.4c1.4,1,0.6,2.6,0.6,3.9c0.1,4,0.1,7.9,0,11.9
				c0,0.3-0.2,0.6-0.4,0.8c-0.4,0.5-0.4,1,0.2,1.4c0.1,0.1,0.2,0.4,0.2,0.6c-0.1,0.9-0.3,1.8-0.3,2.8c0,0.3,0.2,0.6,0.3,1
				c0.4,1.7-0.4,2.8-2,2.7c-0.9-0.1-1.5-0.5-1.5-1.5c0-2.6,0-5.2,0-7.8c0-0.3-0.1-0.7,0-1c0.1-0.3,0.3-0.5,0.5-0.8
				c0.1-0.1,0.2-0.2,0.3-0.3c-0.1-0.1-0.3-0.1-0.4-0.2c-0.2-0.3-0.5-0.6-0.5-0.9c0-2.5,0-5,0-7.5c0-0.4,0-0.8,0-1.3
				c-0.1-0.1-0.2-0.1-0.3-0.2c-0.5,0.7-1.2,1.2-1.5,2c-0.7,1.7-1.1,3.5-1.7,5.3c-0.4,1.1-0.8,2.2-1.2,3.3c-0.4,0.1-0.8,0.3-1.5,0.5
				c1.6,0.3,1.1,0.4,0,3.4c-0.2-0.1-0.4-0.1-0.6-0.2c0,0.1,0,0.2,0,0.3c0,0.5,0.1,1,0,1.5c-0.3,1.1-1,2-2.1,2.1
				c-1.2,0-1.2-1-1.6-1.9c-1.3-3.8-2.8-7.5-4.3-11.2c-0.5-1.3-0.9-2.7-1.5-3.9c-0.3-0.6-0.9-1.1-1.5-1.5c0.3,1.6,0.7,3.2-0.2,4.7
				c-0.1,0.1,0,0.2,0,0.3c0.2,1.6,0.4,3.3,0.7,5c-0.7,0-1.1,0-1.6,0c1.8,0.7,1.4,2.2,1.4,3.5c0,2.1,0,4.2,0,6.3
				c0,0.5-0.3,1.4-0.6,1.6c-0.7,0.2-1.8,0.4-2.3,0c-0.4-0.3-0.2-1.5-0.3-2.2c-0.1-0.4-0.3-0.8-0.3-1.2c0-1.5,0-3.1,0-4.7
				c0.3-0.1,0.7-0.3,1-0.4c0-0.1,0-0.1,0-0.2c-0.3,0-0.7-0.1-1-0.2c0-3.9,0-7.8,0-11.6c0-0.5,0.5-1,0.7-1.5c0.1-0.3,0.2-0.6,0.3-1
				c-0.1,0-0.2-0.1-0.3-0.1c-0.1,0.3-0.3,0.6-0.6,1.2c0-1.9,0-3.6,0-5.2c0-1.3,0.9-2,2.2-1.9c1.5,0.2,2.6,0.8,3.1,2.3
				c0.8,2.4,1.8,4.8,2.6,7.3C202.9,105.6,203.7,106.8,203.9,108.3z"/>
			<path class="st5" d="M311.4,108c0,0-0.2-0.1-0.4-0.3c0.4-0.6,0.7-1.4,1.1-2c0.3-0.4,1-0.6,1.4-1c0.1-0.1,0.1-0.3,0.1-0.5
				c1.4-2.1,6.1-3.2,8.7-1.6c0.5,0.3,1.1,0.5,1.7,0.5c1.3,0.1,0.8-1,1-1.6c0.3,0,0.5,0,0.9,0c-1.1-1.5-1.6-2.9-0.2-4.3
				c-0.3-0.3-0.7-0.7-0.7-1c0-1.2,0-2.4,0.4-3.4c0.2-0.4,1.5-0.5,2.2-0.4c0.9,0.1,1.1,0.9,1.1,1.7c0,1.4,0,2.7,0,4.1
				c0,1.1,0,2.2,0,3.3c0,0.7-0.1,1.4-0.1,2.2c0.1,4.4,0.1,8.8,0.1,13.3c-0.4-0.1-0.7-0.2-1.1-0.3c0,0.1-0.1,0.2-0.1,0.3
				c0.4,0.2,0.8,0.4,1.2,0.6c0,1.7,0.1,3.4,0,5.2c0,0.4-0.6,1.1-1,1.1c-0.6,0.1-1.6-0.1-1.9-0.5c-0.9-1.3-1.6-1-2.6-0.3
				c-0.7,0.5-1.6,1.2-2.3,1c-1.8-0.3-3.5,1.1-5.3-0.2c0-0.2,0.1-0.5,0.1-0.8c-0.1-0.1-0.2-0.2-0.3-0.2c-0.2,0.2-0.4,0.5-0.7,0.8
				c-1.7-0.7-2.8-2.2-3.7-4c-1.6-3.5-2-7.1-0.7-10.8C310.6,108.7,311.1,108.4,311.4,108z M313.3,115.9c0.6,1,1.1,1.8,1.6,2.7
				c1.2,2.1,3.5,3.2,5.9,2.7c2.8-0.6,4.3-2.4,4.3-5.1c0-2.2,0.1-4.4,0-6.6c-0.1-1-0.4-2.1-1-2.8c-1.8-2.2-5.8-2.2-7.7-0.3
				c-1.7,1.7-2.7,3.7-2.7,6.2c0,1,0,2.1,0,3.1C313.6,115.9,313.3,115.9,313.3,115.9z"/>
			<path class="st5" d="M300.2,64.6c-0.3-2.2,1.1-2.2,2.3-2.5c0,0.3,0,0.5,0,0.8c1.5,0.1,1.6,0,1.3-1c4.7-0.5,9,3.5,9.3,8.3
				c0.1,0.8,0.1,1.6,0.1,2.4c0,1.8-0.4,2.2-2.2,2.2c-0.2,0-0.5,0-0.8,0c0.1-0.3,0.1-0.6,0.2-0.8c-0.1-0.1-0.2-0.1-0.2-0.2
				c-0.2,0.3-0.4,0.5-0.8,1c-1.2,0-2.8,0-4.2,0c-0.3-0.4-0.6-0.6-0.8-0.9c-0.2,0.3-0.3,0.6-0.6,1c-0.8,0-1.8-0.1-2.9,0
				c-1.2,0.1-1.5,0.7-1.2,1.8c1,3.1,4.3,4.8,7.8,3.9c0.8-0.2,1.5-0.5,2.3-0.7c1.1-0.3,1.6,0.4,2,1.2c0.4,0.8,0.4,1.6-0.5,2.2
				c-6.2,3.4-14,1.5-16.2-5.2c-0.6-1.9-0.6-4.1-0.8-6.2c0-0.3,0.3-0.7,0.6-1.2c0,0-0.2-0.1-0.4-0.2c0.5-2.6,1.8-4.8,3.9-6.5
				C299,63.6,299.5,63.5,300.2,64.6z M307.1,71.9c0.5-0.5,1.2-0.9,1.4-1.4c0.4-1.5-1.4-4.1-2.9-4.3c-2.5-0.2-4.4,0.4-5.6,2.9
				c-0.3,0.6-0.4,1.8-0.1,2c0.8,0.5,1.9,1,2.7,0.8c1.7-0.4,3.3-0.6,4.9,1C307.3,72.2,307.2,71.9,307.1,71.9z"/>
			<path class="st5" d="M224.7,78.7c0.7,0.4,1.5,1,2.4,1.4c1.6,0.9,3.4,1,5.1,0.5c0.7-0.2,1.3-0.5,2-0.6c0.5,0,1.2,0.1,1.5,0.5
				c0.4,0.4,0.7,0.9,0.5,1.8c-0.2,1.1-0.9,1.3-1.6,1.6c-3.5,1.5-7,1.6-10.4-0.1c-3.3-1.6-5-4.5-5.4-8.1c-0.2-1.5-0.3-3.2,0-4.7
				c0.3-1.5,1-3,1.7-4.5c0.2-0.5,0.9-0.7,1.3-1.1c0.5-0.5,0.8-1.2,1.3-1.6c2.7-2.3,7.7-2.5,10.6-0.5c2.6,1.8,3.7,4.4,3.9,7.4
				c0.1,0.7,0,1.4,0,2.1c0,1.6-0.4,2-2,2c-3,0-5.9,0-8.9,0c-0.3,0-0.6,0-0.9,0c-1.8,0.1-2.1,0.6-1.5,2.3
				C224.6,77.6,224.6,78.2,224.7,78.7z M229.8,65.8c-1.2,0.4-2.4,0.8-3.6,1.2c-0.4,0.1-0.9,0.1-1.1,0.4c-0.4,0.8-0.7,1.6-0.9,2.4
				c-0.3,1,0.1,1.7,1.1,1.7c2.2,0.1,4.3,0.1,6.5,0c1.1,0,1.5-0.8,1.3-1.9c-0.3-1.4-1-2.4-2.2-3c-0.1-0.1-0.3-0.2-0.4-0.3
				c0.1-0.2,0.2-0.3,0.4-0.6c-0.4-0.1-0.8-0.2-1.4-0.4C229.7,65.7,229.8,65.8,229.8,65.8z M225.2,64.5c-0.3-0.2-0.6-0.5-0.6-0.4
				c-0.8,0.7-1.3,1.6-1,2.7c0.3-0.3,0.8-0.5,1-0.8c0.1-0.1-0.3-0.5-0.4-0.9C224.3,64.9,224.7,64.8,225.2,64.5z"/>
			<path class="st5" d="M280.5,112.9c-0.5,0.2-0.9,0.3-1.6,0.5c0.7,0.1,1.1,0.2,1.5,0.3c0,1.2,0,2.5,0,3.6c-0.5,0.2-1,0.3-1.5,0.4
				c0.4,0.2,0.9,0.4,1.5,0.7c0,1.2,0,2.6,0,4.1c0,1.2-0.5,1.6-1.8,1.6c-1.3,0-1.9-0.4-1.9-1.5c0-2.6,0-5.3,0-7.9c0-1.8,0-3.6,0-5.6
				c0.1,0,0.4-0.1,0.7-0.2c0-0.1-0.1-0.3-0.1-0.3c-0.7,0-0.9-0.4-1.1-1c-0.8-2.3-3.2-2.9-5.3-2.1c-2,0.8-3.6,2-4.1,4.1
				c-0.4-0.1-0.7-0.1-1.1-0.2c0,0.1-0.1,0.3-0.1,0.4c0.4,0.2,0.7,0.4,1.2,0.6c-0.1,0.1,0.4,0.7-0.4,0.6c0,0.2-0.1,0.7-0.1,0.7
				c0.9,0.3,0.6,1.1,0.6,1.7c0,2.3-0.1,4.5-0.2,6.8c0,0.8,0.2,1.6,0.1,2.4c-0.1,1.1-0.7,1.5-2,1.4c-1,0-1.6-0.4-1.6-1.5
				c0-5.2,0-10.5,0-15.7c0-2.8,0-5.6,0-8.4c0.5-0.2,0.9-0.3,1.4-0.5c0-0.1-0.1-0.3-0.1-0.4c-0.4,0.1-0.8,0.3-1.4,0.5
				c0.1-1.7,0.1-3.2,0.3-4.8c0.2-1.1,1.2-1,2.1-1c0.9,0,1.4,0.5,1.4,1.4c0,1.4-0.1,2.8-0.1,4.2c0,0.5,0.7,1.3-0.1,1.4
				c0.2,1.5,0.4,3.1,0.6,4.9c0.8-0.4,1.5-0.6,2-0.9c2.3-1.4,4.8-1.9,7.4-0.9c1,0.4,1.5,1.2,2.2,2c1.9,2.4,1.7,5.1,1.5,7.8
				C280.3,112.5,280.4,112.7,280.5,112.9z"/>
			<path class="st5" d="M235,31c0.1,0.1,0.4,0.4,0.4,0.6c-0.1,2.8-0.2,5.5-0.3,8.3c0,0.6,0.2,1.2,0.2,1.8c0,0.5,0,1.1,0,1.6
				c-0.1,1.1-0.7,1.5-1.7,1.3c0-0.6,0.1-1.1,0.1-1.6c-0.1,0-0.2,0-0.4,0c-0.2,0.5-0.3,1-0.5,1.5c-0.8,0-1.1-0.2-1.1-1.3
				c-0.1-2.4-0.1-4.8-0.1-7.3c0-2,0.2-4,0-5.9c-0.1-1.1-0.7-2.2-1.3-3.1c-0.5-0.7-1.1-1.2-0.7-2.1c-0.1,0-0.2-0.1-0.3-0.1
				c-0.3,0.2-0.5,0.5-0.9,0.9c-1.2,0.3-2.7,0.7-4.2,1c-0.2,0.4-0.4,0.8-0.7,1c-1.1,0.8-1.8,1.6-1.8,3.1c0,0.4-0.9,0.8-1.6,1.3
				c0.6-0.1,1.1-0.1,1.7-0.2c-0.1,2.7-0.3,5.5-0.4,8.4c0,0.9,0.2,1.8,0.2,2.7c-0.1,0.6-0.4,1.5-0.8,1.6c-0.9,0.3-1.9,0.5-2.7-0.6
				c0.2-0.3,0.4-0.6,0.5-0.7c-0.3-0.4-0.7-0.7-0.6-1c0-1.8,0.3-3.7,0.3-5.5c0-1.2-0.3-2.4-0.4-3.9c0.8,0.2,1.4,0.3,2.1,0.4
				c-0.3-0.4-0.6-0.7-1-1.1c-0.1,0-0.4,0.1-0.9,0.2c0-1.9,0-3.7,0-5.6c0-1.5-0.1-3,0-4.5c0-1,0.2-1.9,0.4-3c0,0-0.4-0.2-0.3-0.4
				c0.1-1.1-0.4-2.3,0.7-3.3c-0.3-0.7-1.5-1.8,0-2.5c0.7-0.3,1.9-0.2,2.6,0.2c0.7,0.4,0.5,1.4,0,1.9c0.1,0.6,0.3,1,0.3,1.5
				c0,2,0,4,0.1,6c0,0.6,0.2,1.1,0.3,2c0.8-0.4,1.5-0.6,2.1-0.9c1.7-0.9,3.4-1.6,5.3-1.4c3.7,0.5,4.8,2.1,5.6,5.5
				c0.1,0.5,0.2,1.1,0.2,1.6C235.3,30,235.1,30.5,235,31z M232.8,33.2c0.1-0.8,0.1-1.4,0.2-2.3c0,0-0.3-0.1-0.6-0.2
				c0.9,1.1-0.8,0.9-0.7,1.6C232.1,32.5,232.4,32.7,232.8,33.2z"/>
			<path class="st5" d="M287.2,119.9c0.2-0.5,0.3-0.8,0.5-1.1c-0.3-0.1-0.6-0.1-1.1-0.2c-0.2-1-0.8-2.2-0.8-3.4
				c0.1-1-0.3-1.8-0.2-2.8c0.1-0.7,0.2-1.3,0.3-2c0.1-0.8,0.3-1.6,1.7-1.3c-1.1-0.6-1.1-1.5-0.2-2.5c0.3-0.3,0.5-0.7,0.8-1
				c1.6-2.2,3.8-3.3,6.5-3.5c1.9-0.1,3.8-0.1,5.4,1.1c1.2,0.9,2.4,1.9,3.5,2.9c0.2,0.2,0,0.8,0.2,1c0.4,0.5,0.9,0.9,1.1,1.4
				c0.8,2.7,1.5,5.4,0.5,8.3c-0.4-0.6-0.7-1.1-1-1.6c0,0-0.1,0-0.1,0c0.1,0.3,0.2,0.6,0.3,0.9c0.7,1.5,0.4,3.1-0.8,4.3
				c-0.5,0.5-0.9,1.1-1.4,1.6c-3.6,3.4-9.2,3.6-12.8,0.5C288.6,121.7,287.9,120.6,287.2,119.9z M289.6,113.6
				c0.1,2.8,0.6,5.4,3.3,7.1c3.5,2.2,7.2-0.1,8.3-3.3c0.9-2.5,1-5.1,0.1-7.6c-0.6-1.7-1.2-3.5-3.2-4.2c-2.8-1-5.3-0.3-7,2.1
				C289.8,109.5,289.5,111.5,289.6,113.6z"/>
			<path class="st5" d="M350.3,64.8c-0.7,0-0.6,0-0.4,0.6c0.2,0.6,0,1.1-0.6,1.1c-1.1,0.1-2.1,0-3.2,0c0-0.1,0-0.2,0-0.3
				c-0.1,0.2-0.3,0.4-0.4,0.6c-0.3,0.6-0.9,1.2-0.9,1.7c-0.1,3.2,0,6.4,0.1,9.5c0,1.2,0.6,2.1,1.8,2.4c0.4,0.1,0.7,0.3,1.2,0.6
				c0.5-0.6,0.9-0.1,1.7,0.2c1.2,0.4,1.3,1.1,1.1,1.9c-0.1,0.5-0.7,1.3-1.1,1.4c-2,0.6-3.8,0.6-5.9-0.2c-3.2-1.1-3.8-3.5-3.9-6.2
				c-0.1-3.2-0.1-6.5-0.1-9.7c0-1-0.2-1.8-1.5-1.7c-0.8,0-1.5-0.4-1.6-1.4c-0.1-1.8,0.2-2.3,1.4-2.6c1.9-0.5,2.3-1,2.3-3.1
				c-0.1-2.2,1.1-3.4,2.9-3.1c1,0.2,1.6,0.8,1.7,1.8c0.1,0.7,0.1,1.5,0,2.2c-0.1,1.3,0.5,2,1.7,2c0.7,0,1.3,0,2,0
				C350,62.7,350.2,63,350.3,64.8z M346.4,63.6c0-0.2,0-0.3-0.1-0.5c-0.9,0.1-1.7,0.2-2.6,0.4c0,0.2,0.1,0.4,0.1,0.6
				C344.8,63.8,345.6,63.7,346.4,63.6z"/>
			<path class="st5" d="M249.5,45.1c-0.1-0.4-0.2-0.6-0.4-1.1c-0.2,0.5-0.3,0.7-0.4,1.1c-0.4-0.1-0.8-0.2-1.2-0.4
				c-1-0.5-2.1-1-3-1.6c-0.2-0.1-1.1-0.4-0.2-1c-0.2-0.1-0.3-0.2-0.5-0.3c-0.3-0.2-0.8-0.2-0.9-0.4c-1.2-1.7-2-3.5-2-5.6
				c0-1.3-0.2-2.7-0.1-4c0.2-1.9,0.9-3.7,2.1-5.2c0.2-0.3,0.7-0.4,1.1-0.6c0.2-0.1,0.4-0.3,0.5-0.5c0.2-0.3,0.2-0.7,0.4-0.9
				c0.7-0.5,1.5-1,2.3-1.4c0.3-0.1,0.7,0.1,0.9,0c0.7-0.2,1.5-0.6,2.2-0.5c1.3,0.1,2.6,0.3,3.8,0.8c3.2,1.4,4.4,4.2,4.8,7.5
				c0.1,0.9,0.1,1.7,0,2.6c-0.1,0.8-0.4,1.5-1.4,1.2c-0.2,0-0.4-0.1-0.5,0c-1,0.3-1.8,0.3-2.2-0.9c0,0.3-0.1,0.6-0.2,1.2
				c-0.9-0.2-1.8-0.4-2.7-0.6c-0.1,0-0.2,0-0.2,0c-1.9,0.5-3.9,0.4-5.9,0.5c-1.1,0.1-1.6,0.7-1.2,1.8c0.4,1.1,1,2.1,1.5,3.2
				c0.1,0.1,0,0.4,0.1,0.5c0.4,0.6,0.4,1.5,1.7,1.3c0.8-0.1,2.4-0.1,3,1.3c0.1,0.3,0.8,0.4,1.4,0.4c-0.3-0.3-0.6-0.6-0.8-0.8
				c1.3-0.4,2.7-0.8,4.1-1.2c0.7-0.2,1.5-0.2,1.8,0.7c0.3,0.8,0.1,1.6-0.7,2C254.5,44.9,252.1,45.6,249.5,45.1z M250.9,25.5
				c-3.1,0.2-5.2,1.8-6,4.6c-0.5,1.5-0.1,2,1.5,2.1c1.6,0.1,3.4-0.4,4.9,0.5c0.1,0,0.3,0.1,0.3,0c0.7-1,1.8-0.4,2.7-0.6
				c1.1-0.1,1.7-0.6,1.4-1.7c-0.3-1.1-0.6-2.2-1.3-3.1c-0.9-1.1-2.1-1.9-3.2-2.7c0,0-0.1,0.1-0.3,0.1
				C250.9,25,250.9,25.2,250.9,25.5z"/>
			<path class="st5" d="M333.5,64.1c0,0.5-1.1,0.7-0.1,1.2c0,0,0,0.2,0,0.3c-0.3,1.1-1.9,1.8-2.9,1.4c-2.1-1-4-0.8-5.9,0.6
				c-0.8,0.6-1.2,2-2.7,1.7c0.3,0.2,0.6,0.4,0.9,0.5c-0.9,2.4-0.8,4.7,0,7c0.3,1,0.6,2.1,0.9,3.1c0.1-0.2,0.3-0.5,0.5-0.8
				c1.3,1.7,3.3,1.4,5.1,1.7c0.6,0.1,1.2-0.7,1.8-1c1.3-0.6,2-0.2,2.7,1.2c0.5,1.1,0.4,1.8-0.8,2.4c-2.7,1.5-5.4,2.1-8.6,1.1
				c-4.7-1.4-6.7-4.7-7.4-9c-0.3-1.7-0.2-3.6,0.2-5.2c1-4.3,4.8-7.8,9.6-8.2c2.3-0.2,4.1,0.8,6.1,1.5
				C333.1,63.6,333.3,63.9,333.5,64.1z"/>
			<path class="st5" d="M228.8,112.6c0.1,1.8,0.3,3.6,0.4,5.4c0.2-0.2,0.4-0.4,0.5-0.6c0.1,0.4,0,1,0.3,1.2c1,1,1.9,2.4,3.1,2.8
				c1.9,0.6,4,0.6,5.9-0.3c0.5-0.2,1-0.4,1.5-0.4c0.5,0.1,1.2,0.4,1.3,0.8c0.1,0.5-0.1,1.3-0.4,1.6c-0.5,0.5-1.3,0.7-2.2,1.1
				c0.1-0.4,0.1-0.6,0.2-0.9c-0.9,0.5-1.7,1.1-2.5,1.3c-1,0.2-2.1,0.1-3.1,0.1c-0.1-0.3-0.1-0.5-0.2-0.8c-0.1,0-0.2-0.1-0.2-0.1
				c-1.5,1.2-2.6,0-3.6-0.7c-1.1-0.8-2.1-1.8-2.9-3c-0.8-1.3-1.5-2.7-1.7-4.2c-0.5-2.9-0.3-5.7,1.1-8.4c0.3-0.6,0.5-1.4,1.5-1.1
				c0.1,0,0.4-0.1,0.5-0.2c-0.1-0.1-0.1-0.2-0.2-0.3c-0.2,0-0.4,0-0.7,0.1c0-0.1,0-0.2,0-0.3c1.3-1.6,2.9-2.7,4.8-3.4
				c0.7-0.2,1.4-0.2,1.6,1c0.2-0.6,0.4-1.2,0.5-1.2c1.3,0.2,2.7,0.3,3.9,0.8c0.4,0.2,0.9,0.1,1.2,0.4c1.7,1.2,2.9,2.8,3.4,4.8
				c0.1,0.2-0.1,0.5-0.1,0.7c0.2,0.3,0.5,0.6,0.5,1c0,0.3-0.3,0.5-0.5,0.8c0.2,0.6,0.6,1.4,0.7,2.1c0,0.9-0.5,1.5-1.6,1.5
				c-1,0-1.9,0.1-2.9,0.1c-0.3,0-0.6-0.3-0.9-0.4c-0.3,0-0.6,0.1-0.8,0.1c-0.2,0-0.3,0.2-0.5,0.2c-1.3,0-2.5,0-3.8,0
				c-0.3,0-0.5-0.4-0.8-0.6c-0.4,0.2-0.8,0.5-1.3,0.6c-0.8,0.2-1.3-0.1-1.3-1.1c0-0.3-0.3-0.5-0.5-0.7
				C229,112.5,228.9,112.5,228.8,112.6z M240.3,110.5c-0.2-0.6-0.4-1-0.5-1.5c-0.5-1.6-1.3-2.9-2.9-3.5c-3.3-1.3-6.4,0.3-7.7,3.9
				c-0.6,1.6-0.1,2.3,1.6,2.3c1.9,0,3.9-0.1,5.8,0C238,111.8,239.3,111.7,240.3,110.5z M231.2,121.4c-0.4-0.3-0.8-0.8-1-0.7
				c-0.5,0.1-1,0.4-1.5,0.7c0,0,0.1,0.1,0.1,0.1C229.5,121.4,230.1,121.4,231.2,121.4z"/>
			<path class="st5" d="M200.8,23c0.6,0.2,1.1,0.3,1.6,0.4c0-0.1,0.1-0.2,0.1-0.3c-0.5-0.6-1-1.3-1.8-2.2c0-0.7,0.2-2-1.5-2.3
				c-0.3,0-0.5-0.6-0.9-1c-0.2,0.4-0.3,0.7-0.5,1c-1.1,0-2.3,0-3.6,0c0.1-0.3,0.1-0.6,0.2-0.8c-0.1-0.1-0.1-0.1-0.2-0.2
				c-0.3,0.3-0.6,0.7-0.9,1c-1-0.1-1.4-0.7-1.3-1.8c0.1-1.1,0.8-1.3,1.7-1.3c3,0,6,0,8.9,0c2.7,0,5.5,0,8.2-0.1
				c1.6,0,2.3,0.3,2.5,1.3c0.2,1.2-0.4,1.8-1.6,1.9c-1.7,0-3.3,0-5,0c-1.8,0-2.2,0.4-2.2,2.2c0,5.5,0,11.1,0,16.6c0,1.8,0,3.5,0,5.3
				c0,1.4-0.4,1.8-1.5,1.9c-1.7,0.1-2.1-0.2-2.2-1.7c-0.1-2.1,0-4.2,0-6.4C200.8,32.1,200.8,27.5,200.8,23z M204.2,36.4
				c-0.3-0.6-0.5-1-0.7-1.4c-0.2,0.4-0.4,0.8-0.5,1.3c0,0.1,0.3,0.4,0.5,0.4C203.6,36.7,203.9,36.5,204.2,36.4z"/>
			<path class="st5" d="M284.2,81.8c0.1,0.1,0.5,0.3,0.5,0.4c0.2,1.1-0.6,2.2-1.6,2.2c-0.7,0.1-1.4,0.1-2.1,0
				c-0.7,0-1.4-0.4-1.4-1.2c-0.1-3.2-0.1-6.4-0.1-9.7c0-1.8,0-3.5,0-5.3c0-1.4,0-2.8,0-4.2c0-0.8,0.3-1.4,1.2-1.4
				c0.9-0.1,1.8-0.7,2.5,0.5c0.2,0.3,0.5,0.4,0.7,0.7c0.8,1.4,0.8,1.5,2,0.3c1.5-1.4,3.1-2.2,5.2-2c1.3,0.1,1.8,0.7,1.6,2
				c-0.3,2.2-0.4,2.3-2.6,2.5c-0.8,0.1-1.5,0.6-2.3-0.1c-0.1-0.1-1.1,0.7-1.1,0.7c0.4,0.7-0.2,1-0.6,1.4c-1,1.2-1.5,2.6-1.5,4.3
				c0.1,2.5,0.1,5.1,0,7.6C284.7,80.9,284.4,81.3,284.2,81.8z"/>
			<path class="st5" d="M253.6,121.8c0.5-0.1,1-0.2,1.5-0.3c0.5,0,0.9,0,1.4,0c0.9,0,2,0.7,2,1.4c0,1.1-0.7,1.4-1.6,1.5
				c-0.8,0.1-1.8,0.8-2.3-0.9c-0.2,1.2-0.7,1.4-1.5,1.1c-1.7-0.7-3.2-1.5-3.7-3.7c-0.5-1.9-0.8-3.7-0.8-5.6c0-3-0.1-5.9-0.1-9
				c0.1,0,0.4-0.1,1-0.3c-0.5-0.2-0.7-0.3-1-0.3c-0.7-0.1-1.5,0-2.1-0.3c-0.4-0.2-0.9-0.9-0.9-1.3c0-0.5,0.5-1.3,0.9-1.3
				c1.8-0.2,2.6-1,2.6-2.8c0-0.2,0.3-0.5,0.5-0.8c-0.7-0.7-0.6-1.6,0-2.2c0.4-0.4,1.3-0.5,1.9-0.4c0.8,0.1,1.2,1.6,0.8,2.7
				c-0.5,1.6,0.5,3.1,2.1,3.1c0.7,0,1.5,0,2.2,0c0.9,0.1,1.5,0.4,1.5,1.5c-0.4,0-0.7,0-1.4,0.1c0.6,0.4,0.9,0.5,1.5,0.9
				c-0.8,0.2-1.3,0.5-1.9,0.5c-0.8,0.1-1.6,0-2.5,0.1c-0.9,0.1-1.5,0.6-1.5,1.5c0,3.8,0,7.6,0.1,11.4c0,0.7,0.5,1.4,0.8,2.2
				C253.5,121.1,253.6,121.6,253.6,121.8z"/>
			<path class="st5" d="M272.9,71.2c-0.4,0.1-0.6,0.1-0.9,0.2c0,0.1,0,0.2,0,0.3c0.3,0,0.6,0.1,0.9,0.1c0,2.2,0,4.4,0,6.6
				c0,1.5,0,3,0,4.5c0,1.1-0.5,1.6-1.5,1.6c-0.7,0-1.5,0.1-2.2,0c-0.8-0.2-1.8-0.4-1-1.6c0-0.1-0.1-0.2-0.1-0.4
				c-0.1-0.2-0.3-0.4-0.3-0.6c0-0.6,0.2-1.1,0.2-1.7c0-0.6-0.2-1.2-0.3-1.8c0.4-0.1,0.7-0.2,1-0.3c0-0.1,0-0.1,0-0.2
				c-0.3-0.1-0.5-0.1-0.8-0.2c0-0.1-0.1-0.1-0.1-0.2c0-4.2,0-8.3,0-12.5c0-1.9,0.3-2.3,2.2-2.3c0.6,0,1.3,0,1.9,0c0,0.4,0,0.7,0.1,1
				c0.2-0.1,0.4-0.2,0.6-0.4c1.1,1.2-0.2,2.5,0.3,3.9C273.3,68.2,272.9,69.7,272.9,71.2z"/>
			<path class="st5" d="M268.4,53.6c0.1,0.2,0.3,0.4,0.5,0.6c0.1-0.4,0.1-0.8,0.1-1.1c2.1-0.8,3.5,0.2,4.2,1.4
				c0.7,1.3,0.2,2.9-1.1,3.6c-1.4,0.8-3.3,0.5-4.3-0.7C266.9,56.4,267.1,54.8,268.4,53.6z"/>
		</g>
	</g>
</g>
</svg>
