<?xml version="1.0" encoding="utf-8"?>
<!-- Generator: Adobe Illustrator 19.2.1, SVG Export Plug-In . SVG Version: 6.00 Build 0)  -->
<svg version="1.1" id="Layer_1" xmlns="http://www.w3.org/2000/svg" xmlns:xlink="http://www.w3.org/1999/xlink" x="0px" y="0px"
	 viewBox="0 0 771.7 382.2" style="enable-background:new 0 0 771.7 382.2;" xml:space="preserve">
<style type="text/css">
	.st0{fill:#B4B5B6;}
	.st1{fill:#4D4E4E;}
	.st2{fill:#FFFFFF;}
	.st3{fill:#F37046;}
	.st4{fill:#CC411B;}
	.st5{fill:#757576;}
</style>
<path class="st0" d="M55.4,147.3c3.3,0,6.5,0,9.7,0c2.1,0,4.6-0.6,5.2,1.5c1-0.6,1.8-1.5,2.7-1.5c13.3-0.1,26.5-0.1,39.7-0.1
	c0.3,0.8,0.5,1.4,0.8,2.1c0.5-0.4,0.9-1,1.5-1.3c0.8-0.4,1.7-0.8,2.6-0.8c17.5,0,34.9,0,52.4,0c4.6,0,9.2-0.1,13.8,0
	c1.3,0,2.7,0.5,4.1,0.7c0.1-0.1,0.6-0.7,1.1-0.7c5.8,0.1,11.6,0.3,17.4,0.4c1.2,0,2.4-0.4,3.6-0.5c11.7,0,23.4,0,35.1,0
	c9.1,0,18.2,0,27.3,0c2.9,0,5.7,0.4,8.6,0.1c3.2-0.3,6.5-0.1,9.8-0.1s6.6,0,9.9,0s6.6,0,9.9,0c10.3,0,20.5,0,30.8,0
	c1.5,0,3,0.7,4.6,1c0.9,0.2,1.9,0.1,2.9,0.1c-0.2-1.7,1.6-1.1,2.6-1.1c4.2-0.1,8.5-0.2,12.7,0c3.1,0.2,6.1-0.1,9.2-0.1
	c3.5,0,7,0,10.5,0c3.4,0,6.8,0,10.2,0c3.5,0,7-0.1,10.5,0c11,0.6,21.9-0.5,32.9,0.2c5.9,0.4,11.9-0.3,17.9-0.2
	c4.6,0.1,9.2-0.3,13.7-0.1c1.1,0,2.7-0.5,3,1c0,0.1,1,0.3,1.2,0.2c3.1-2.2,7-1,10.5-1.1c7.2-0.2,14.4-0.1,21.5-0.1
	c9.7,0,19.4,0,29.2,0c-0.2,0.5-0.5,0.9-0.7,1.4c2.9-1.5,5.5-2,8.8-0.9c0.8,0.3,2.3-0.5,3.4-0.5c9.8,0,19.5,0,29.3,0
	c5.6,0,11.3,0,16.9,0c1.2,0,2.5,0.5,3.6,0.8c1.3-0.3,2.7-0.8,4.1-0.8c13-0.1,26,0,39,0c3.9,0,5.3,1.7,3.6,4.5
	c-0.3,0.4-0.5,0.9-0.4,1.3c0.4,3.9,0.8,7.8,1.2,11.3c-1.2,0.6-1.9,0.9-2.6,1.2c4.2,2.1,1.1,5.1,2.5,7.5c-1.1,0.1-1.8,0.1-3.3,0.2
	c4.4,2,3,4.6,2.4,7.1c-0.2,0.7,0.5,1.5,0.5,2.3c0,10.2,0,20.4,0,30.5c0,0.4-0.7,0.8-1.1,1.2c-0.4,0.5-1.1,0.9-1.3,1.4
	c-0.3,0.7-0.2,1.5-0.3,2.2c0.9-0.3,1.8-0.6,2.6-0.9c0,5.1,0,10.5,0,16.3c-1.2-0.7-2.1-1.1-2.8-1.6c0.1,2.2,0.3,2.4,3.2,2.1
	c-0.3,3.9-0.7,7.8-0.7,11.7c-0.1,3.1,0.3,6.3,0.5,9.4c0.1,2-1.5,2.8-3.9,2.8c-8.5,0-17.1-0.3-25.6-0.3c-14.6,0-29.2,0.2-43.9,0.2
	c-1.5,0-3-0.7-4.5-1c0-0.1,0,0.4,0,0.9c-10,0-19.9,0-29.4,0c0.2-0.4,0.6-1,1-1.7c-0.2-0.2-0.4-0.3-0.6-0.5c-0.8,0.3-2.3,0.5-2.4,0.9
	c-0.3,1.6-1.8,1.5-3.3,1.4c-6.1-0.1-12.3-0.4-18.4-0.4c-10.5,0-21.1,0.3-31.6,0.4c-4.6,0-9.2,0.1-13.9,0c-1.2,0-2.4-0.7-3.6-1.1
	c0,1.4-1.9,1.2-3.8,1.2c-3.6-0.1-7.2-0.2-10.8,0.1c-1.6,0.1-2.8-1-4.7-0.2c-1.5,0.6-3.7,0.2-5.6,0.1c-1,0-1.9-0.4-2.9-0.6
	c-1.2,0.1-2.7,0.4-4.1,0.4c-10,0-20,0-29.8,0c-0.9-0.9-1.7-1.8-3-3.1c0.2,1.3,0.4,2.2,0.5,3.2c-3.7,0-7.3,0.3-10.8-0.1
	c-1.7-0.2-3,0.1-4.6,0.1c-2.1,0-4.2-0.3-6.3-0.1c-1.2,0.1-2.6-1-4.1-1.6c-1,1.9-3.4,1.8-5.8,1.7c-4.3-0.1-8.6,0-12.9,0
	c-2.6,0-5.5,0.6-6.7-2.1c0.2,0.6,0.3,1.3,0.5,2c-7.4,0-14.9,0-22.4,0c-0.1,0-0.2-0.6-0.2-0.7c-1,0.3-1.9,0.8-2.8,0.8
	c-17.6,0-35.3,0.1-52.9,0c-3.3,0-6.5-0.5-9.8-0.6c-3,0-5.9,0.4-8.9,0.4c-11.2,0-22.3,0-33.5,0c-1.6,0-3.3,0.2-4.8,0.2
	c-0.1-1.1-0.2-2.1-0.4-3c0-0.1-1.1,0-1.6,0c0,1,0,1.9,0,3.2c-4.4-0.3-8.7-0.8-13.1-0.8c-4.4,0-8.8,0.8-13.2,0.5
	c-4.5-0.3-8.9,0.4-13.4,0.1s-9.1-0.1-14.4-0.1c0.9-0.7,1.5-1.2,2.1-1.8c-0.7-0.7-1.5-1.4-2.7-2.5c0.2,0.8,0.3,1.1,0.3,1.5
	c-0.1,2.7-0.4,2.9-4.1,2.9c-1.8,0-3.6,0-5.6,0c0.1-0.7,0.1-1.4,0.2-2.2c-1.1,0.5-3.1,0.1-2.9,1.8c0,0.1-0.8,0.2-1.2,0.2
	c-6,0.1-12.1,0.2-18.1,0.1c-1.3,0-2.5-1-3.9-1.7c0,0.6,0,1.2,0,1.6c-15,0-29.9,0-44.9,0c-0.1-0.4-0.2-1-0.4-1.6
	c-1.3,2.1-3.7,1.8-5.8,1.8c-4.1,0-8.2,0-12.3,0c-1.2,0-2.7,0.4-2.9-1.1c0-0.1-1.2-0.3-1.8-0.2c-0.2,0-0.3,0.7-0.3,1
	c-5.4,0-10.9,0-16.5,0c-5.3,0-10.5,0.2-15.8,0.3c-1.2,0-2.5,0.2-3.6,0c-0.9-0.2-2.3-0.8-2.3-1.3c-0.1-5.2,0-10.4,0-15.6
	c0-2.2-0.2-4.4-0.1-6.7c0-0.9,0.5-1.8,0.8-2.6c0.1-0.3,0.3-0.6,0.2-0.8c-2.5-6.5-0.4-13.2-1.1-19.7c0-0.3,0.3-0.6,0.6-0.9
	c0.6-0.7,0.6-0.6-0.3-1.6c-0.3-0.4-0.3-1-0.3-1.4c0.1-7.5,0.3-15,0.3-22.5c0-4-0.3-8.1-0.3-12.2c-0.1-4.6,0-9.2,0-14
	c3.1,0.9,3.8-0.3,3.8-2c-1.1,0.2-2.3,0.4-3.9,0.7c0.6-1.9-1.1-3.7,1.3-5.1c0.2-0.1,0.1-1.1-0.2-1.2c-1.8-0.7-1.2-1.8-0.5-2.5
	c0.5-0.6,1.7-1.2,2.6-1.2c2.9,0.1,5.8,0.6,8.7,0.7c2,0,4-0.6,6.1-0.7c1.1,0,2.3,0.6,3.7,1c0,0,0.3-0.5,0.5-1.1c4.7,0,9.3,0,14,0
	c1.8,0,4.3-0.7,4.5,1.8C54.8,148.4,55.1,147.9,55.4,147.3z M363,252.8c-1.5-0.4-2.6-0.7-3.8-0.9c-0.3,0-0.9,0.4-1.1,0.7
	c-0.1,0.1,0.5,0.7,0.8,0.7c2.1,0.3,4.3,0.5,7.2,0.8c-0.9-1.7-1.6-2.9-2.3-4.2c-0.3,0.1-0.5,0.1-0.8,0.2
	C363,250.9,363,251.7,363,252.8z M240.2,193.3c-0.1,0.1-0.2,0.2-0.3,0.3c0.6,0.3,1,0.8,1.7,1c2,0.5,3.5-0.1,4.2-1.2
	c-0.8-1.1-1.5-2.1-2.3-3.2c-0.4,0.4-0.9,0.9-1.1,1.4c-0.2,0.6,0.1,1.2,0.2,2C241.6,193.5,240.9,193.4,240.2,193.3z M365,187.5
	c-0.1-2.1-2.9-3.3-7.5-3.4C358.2,187.5,363.6,185.1,365,187.5z M591.6,159.2c-0.1-1.5-0.2-2.7-0.3-4c-1.8,0.5-3.5,1.1-5.3,1.6
	C587.8,157.6,589.6,158.3,591.6,159.2z M124.3,205.8c0.6-0.3,1.7-1.1,2.7-1.1c2.8,0,2.8,0.1,2.7-1.7
	C125.2,203.1,123.9,204,124.3,205.8z M529,174.2c0.7-0.1,1.5-0.3,2.3-0.4c0-0.9,0.1-1.7,0-2.5c-0.1-0.4-0.7-0.7-1.1-1
	c-0.8,0.6-1.7,1.1-2.5,1.7c-0.1,0.1,0.3,0.5,0.4,0.7C528.4,173.1,528.6,173.6,529,174.2z M629.4,194.1c1.7,0,3.7,0,5.8,0
	c0.1-0.1,0.1-0.3,0.2-0.4c-1.8-0.7-3.6-1.3-5.1-1.9C629.8,192.8,629.6,193.5,629.4,194.1z M46.3,157.6c0.7-0.4,1.5-0.8,3.1-1.6
	c-2.7-0.2-4.5-0.3-6.3-0.3c-0.3,0-0.7,0.6-1,0.9c0.4,0.2,0.8,0.4,1.2,0.5C44.2,157.2,45.2,157.4,46.3,157.6z M80.4,181.9
	c-0.8,1.3-1.5,2.6-2.4,4C82.7,184.5,83.2,183.6,80.4,181.9z M442.1,230.2c-1.6,1.2,0.2,1.8,1,2.6c0.5,0.5,1,1,1.6,1.4
	c0.3-0.2,0.9-0.5,0.8-0.7c-0.2-0.7-0.5-1.3-1.1-1.9C443.8,231.1,443,230.7,442.1,230.2z M466.4,210.7c-0.3-0.4-0.6-0.8-0.9-1.2
	c-1.7,0.7-3.5,1.5-5.2,2.2c0.2,0.3,0.4,0.6,0.6,0.9C462.7,211.9,464.5,211.3,466.4,210.7z M372.9,207c-0.6-0.7-0.8-1-1.1-1.4
	c0.8-0.3,1.6-0.5,2.3-0.7c-0.6-0.6-1.1-1.1-1.5-1.5c-1.2,1-2.4,2-3.8,3.2C370.4,206.8,371.4,206.9,372.9,207z M435.4,244.6
	c-0.6,1.4-1,2.2-1.5,3.4c3.8-1.9,4.2-2.4,3.5-4.2C436.5,244.2,435.6,244.5,435.4,244.6z M466.9,246.6c0.7,0,1.3,0,2-0.1
	c0-0.8,0.2-1.7-0.1-2.5c0-0.2-1.5-0.1-2.4-0.1C466.6,244.8,466.8,245.7,466.9,246.6z M304,183.7c0.5-0.1,0.9-0.1,1.4-0.2
	c0-1,0-2,0-3c-1,0.2-2,0.3-3,0.5C302.9,181.9,303.5,182.8,304,183.7z M80.3,247.8c0.1,0.8-0.1,2,0.4,2.3c1.2,0.6,2.9,0.7,4.3,1.1
	c0-0.1,0-0.3,0-0.4C83.8,249.9,82.4,249,80.3,247.8z M584.8,161.5c-1.1,0.6-2.1,1.1-3.7,2c2.5,0.2,4.1,0.3,6.3,0.5
	C586.4,163.1,585.7,162.4,584.8,161.5z M148.3,220.3c-0.4,0.9-0.8,1.7-1.3,2.7c3.4-1.2,1.9,1,2.6,1.7
	C151.2,223.4,151,222.5,148.3,220.3z M593.6,181.6c2.3,0.1,3.6-1.9,2.9-5.6C595.4,178,594.5,179.8,593.6,181.6z M178.8,216.8
	c-0.8-0.7-1.7-1.3-2.7-2.1c0,2.6,0,2.6-2.7,2.3C175.5,219.7,177.2,216.5,178.8,216.8z M178.5,149.1c2,0.8,3.8,1.5,5.7,2.3
	c0.2-0.1,0.3-0.3,0.5-0.4c-1.2-1-2.4-1.9-3.7-2.9C180,148.4,179.3,148.7,178.5,149.1z M552.2,252.9c0.3,0,0.6,0.1,0.9,0.1
	c0.5-1,1-2,1.6-3c-0.8,0-1.6-0.1-2.5-0.1C552.2,250.9,552.2,251.9,552.2,252.9z M401.8,152.9c-1.9,0.8-3.8,1.5-5.6,2.3
	C400,155.9,401.8,155.2,401.8,152.9z M274.5,242.9c-0.4-0.2-0.7-0.3-1.1-0.5c-1.3,0.7-2.5,1.4-3.8,2.1c0.9,1,1.5,1.8,2.1,2.5
	c0.3,0,0.6,0,0.9,0C271.1,245.2,271.6,243.8,274.5,242.9z M345.4,243.9c0.3-1,0.5-2,0.8-3.1C342.9,241.4,342.9,241.4,345.4,243.9z
	 M316.9,243.4c3,0.9,2.3-1.3,3.5-2C316.3,239.7,318.2,243,316.9,243.4z M570.8,153.7c-1.9-0.3-3-0.4-4-0.6c0,0.2,0,0.8,0,1.2
	c0.8,0,1.5,0,2.5,0c-0.4,0.8-0.8,1.4-1.1,2c0.3,0.1,0.5,0.2,0.8,0.2C569.6,155.6,570.3,154.5,570.8,153.7z M522.1,175.2
	c-0.9,0.1-1.5,0.2-2.1,0.3c-0.5,0.1-1.1,0.3-1.6,0.4c0.4,0.4,0.7,1,1.2,1c1.2,0.2,2.6,0.1,3.8,0.2
	C522.9,176.4,522.4,175.7,522.1,175.2z M522.2,167c2.2-0.1,4.1-0.1,6.7-0.2C525,165.2,522.8,165.4,522.2,167z M614.2,196.9
	c-1.8-0.3-3.2-0.6-4.7-0.9c-0.1,0.2-0.1,0.4-0.2,0.6C610.6,197.4,611.3,199.7,614.2,196.9z M334.2,228c2,0.2,3.5,0.4,5.3,0.6
	C338,226.5,336.7,226.3,334.2,228z M324.4,178.6c-0.8,1.7,0.7,2.3,2.5,2.8C329.8,178.5,324.1,180,324.4,178.6z M284.4,223.2
	c-0.6,0.9-1.1,1.6-1.6,2.3c0.2,0.2,0.4,0.3,0.6,0.5c1.4-1,2.8-1.9,4.5-3.1C286.4,223.1,285.3,223.2,284.4,223.2z M521,208.6
	c-2.3-1.1-3.6-0.7-4.4,0.7c-0.2,0.4-0.2,0.9-0.2,1.1C518.1,209.7,519.3,209.2,521,208.6z M580,205.2c6,0.9,6,0.9,6.1,0.2
	c-1.2-0.4-2.2-0.7-3.7-1.2C582.1,204.4,581.3,204.7,580,205.2z"/>
<rect x="397.9" y="84.9" class="st1" width="262.6" height="37.7"/>
<g>
	<path class="st2" d="M412.2,99.6v-2.7h9.7v2.4l-3.6,3.5c2,0.3,3.9,1.4,3.9,4c0,2.7-2,4.7-5.2,4.7c-2.6,0-4.4-1-5.6-2.5l2.2-2.1
		c1,1.1,2,1.7,3.5,1.7c1.2,0,2-0.7,2-1.8c0-1.2-1-1.9-2.8-1.9H415l-0.5-2l3.4-3.5h-5.7V99.6z"/>
	<path class="st2" d="M426.8,101.4l-2.2-1.8c1.4-1.9,2.8-3,5.4-3c3.1,0,5,1.8,5,4.5c0,2.4-1.2,3.6-3.8,5.6l-2.3,1.8h6.3v2.7h-10.6
		v-2.5l4.8-3.9c1.8-1.5,2.5-2.3,2.5-3.5s-0.8-1.9-1.9-1.9C428.6,99.5,427.9,100.1,426.8,101.4z"/>
	<path class="st2" d="M443.7,111.5c-3.8,0-6.4-3.2-6.4-7.4c0-4.2,2.6-7.5,6.4-7.5s6.4,3.2,6.4,7.4S447.5,111.5,443.7,111.5z
		 M443.7,99.5c-1.9,0-3.1,1.9-3.1,4.6s1.3,4.6,3.2,4.6c1.9,0,3.1-1.9,3.1-4.6S445.6,99.5,443.7,99.5z"/>
	<path class="st2" d="M453.3,111.3H452V108h3.3v2.8c0,2.7-1.4,3.8-3.8,3.8l-0.3-1.3C452.7,113.2,453.4,112.4,453.3,111.3z"/>
	<path class="st2" d="M462.8,111.5c-2.1,0-3.5-0.7-4.7-1.7l1.7-2.4c1,0.8,1.9,1.2,3.1,1.2c1.8,0,2.7-1.3,2.9-3.3
		c-0.7,0.6-1.7,1-2.9,1c-3.1,0-5.1-1.7-5.1-4.7c0-2.9,2.2-5.1,5.5-5.1c1.9,0,3.1,0.5,4.2,1.6c1,1,1.7,2.6,1.7,5.4
		C469.1,108.3,466.9,111.5,462.8,111.5z M463.4,99.4c-1.6,0-2.4,0.9-2.4,2.2c0,1.3,0.9,2.2,2.5,2.2s2.5-0.9,2.5-2.2
		C465.9,100.3,465,99.4,463.4,99.4z"/>
	<path class="st2" d="M477.7,111.5c-3.8,0-6.4-3.2-6.4-7.4c0-4.2,2.6-7.5,6.4-7.5s6.4,3.2,6.4,7.4S481.6,111.5,477.7,111.5z
		 M477.7,99.5c-1.9,0-3.1,1.9-3.1,4.6s1.3,4.6,3.2,4.6c1.9,0,3.1-1.9,3.1-4.6S479.6,99.5,477.7,99.5z"/>
	<path class="st2" d="M495.5,100.7c-0.9-0.7-1.7-1.2-2.9-1.2c-1.8,0-2.7,1.4-2.9,3.3c0.7-0.5,1.6-0.9,3-0.9c2.9,0,5.1,1.6,5.1,4.6
		s-2.4,5-5.5,5c-1.9,0-3.1-0.5-4.2-1.5c-1-1-1.7-2.6-1.7-5.5c0-4.5,2-7.9,6.3-7.9c2,0,3.2,0.6,4.5,1.6L495.5,100.7z M492,104.6
		c-1.6,0-2.5,0.9-2.5,2.1c0,1.3,0.9,2.2,2.5,2.2s2.5-0.9,2.5-2.1C494.5,105.4,493.6,104.6,492,104.6z"/>
	<path class="st2" d="M513.2,99.8v11.5H510V99.8h-4.4v-2.9h11.9v2.9H513.2z"/>
	<path class="st2" d="M523,111.5c-3.4,0-5.9-2.5-5.9-5.7l0,0c0-3.2,2.5-5.7,6-5.7c3.4,0,5.9,2.5,5.9,5.7l0,0
		C528.9,109,526.4,111.5,523,111.5z M525.9,105.8c0-1.6-1.2-3-2.9-3c-1.8,0-2.9,1.4-2.9,3l0,0c0,1.6,1.2,3,2.9,3
		C524.8,108.8,525.9,107.5,525.9,105.8L525.9,105.8z"/>
	<path class="st2" d="M534.9,111.5c-1.9,0-3.2-0.8-3.2-3.3V103h-1.3v-2.7h1.3v-2.8h3.1v2.8h2.6v2.7h-2.6v4.7c0,0.7,0.3,1.1,1,1.1
		c0.6,0,1.1-0.1,1.5-0.4v2.5C536.7,111.2,536,111.5,534.9,111.5z"/>
	<path class="st2" d="M546.2,111.3v-1.2c-0.8,0.8-1.8,1.4-3.3,1.4c-2.1,0-3.8-1.2-3.8-3.4l0,0c0-2.4,1.8-3.5,4.4-3.5
		c1.1,0,1.9,0.2,2.7,0.5v-0.2c0-1.3-0.8-2-2.4-2c-1.2,0-2,0.2-3,0.6L540,101c1.2-0.5,2.4-0.9,4.3-0.9c3.4,0,4.9,1.8,4.9,4.7v6.4h-3
		V111.3z M546.2,106.8c-0.5-0.2-1.2-0.4-2-0.4c-1.3,0-2.2,0.5-2.2,1.5l0,0c0,0.8,0.7,1.3,1.7,1.3c1.5,0,2.4-0.8,2.4-1.9L546.2,106.8
		L546.2,106.8z"/>
	<path class="st2" d="M552,111.3v-15h3.1v15H552z"/>
	<path class="st2" d="M571.3,111.5c-4.2,0-7.4-3.3-7.4-7.4l0,0c0-4.1,3.1-7.4,7.5-7.4c2.7,0,4.3,0.9,5.7,2.2l-2,2.3
		c-1.1-1-2.2-1.6-3.7-1.6c-2.4,0-4.2,2-4.2,4.5l0,0c0,2.5,1.7,4.5,4.2,4.5c1.6,0,2.7-0.7,3.8-1.7l2,2
		C575.7,110.5,574.1,111.5,571.3,111.5z"/>
	<path class="st2" d="M579.6,111.3v-15h3.1v15H579.6z"/>
	<path class="st2" d="M585.7,99v-2.8h3.3V99H585.7z M585.8,111.3v-11h3.1v11H585.8z"/>
	<path class="st2" d="M597,111.5c-3.3,0-5.7-2.5-5.7-5.7l0,0c0-3.1,2.4-5.7,5.8-5.7c2.1,0,3.4,0.7,4.4,1.8l-1.9,2.1
		c-0.7-0.7-1.4-1.2-2.5-1.2c-1.6,0-2.7,1.4-2.7,3l0,0c0,1.7,1.1,3,2.8,3c1,0,1.8-0.5,2.5-1.2l1.8,1.9
		C600.5,110.7,599.2,111.5,597,111.5z"/>
	<path class="st2" d="M610.6,111.3l-2.9-4.5l-1.1,1.2v3.4h-3.1v-15h3.1v8l3.7-4h3.7l-4.2,4.3l4.3,6.7L610.6,111.3L610.6,111.3z"/>
	<path class="st2" d="M625.4,106.9h-7.7c0.3,1.4,1.3,2.2,2.7,2.2c1,0,1.8-0.3,2.7-1.1l1.8,1.6c-1,1.3-2.5,2.1-4.5,2.1
		c-3.3,0-5.8-2.3-5.8-5.7l0,0c0-3.1,2.2-5.7,5.4-5.7c3.7,0,5.4,2.9,5.4,6l0,0C625.5,106.4,625.5,106.6,625.4,106.9z M620.1,102.6
		c-1.3,0-2.1,0.9-2.4,2.3h4.7C622.3,103.5,621.4,102.6,620.1,102.6z"/>
	<path class="st2" d="M634.3,103.3c-2.1,0-3.4,1.3-3.4,3.9v4.1h-3.1v-11h3.1v2.2c0.6-1.5,1.7-2.5,3.5-2.4L634.3,103.3L634.3,103.3
		L634.3,103.3z"/>
	<path class="st2" d="M640.3,111.5c-1.5,0-3.3-0.5-4.7-1.7l1.3-2.1c1.2,0.9,2.4,1.3,3.5,1.3c0.9,0,1.3-0.3,1.3-0.8l0,0
		c0-0.7-1.1-0.9-2.3-1.3c-1.5-0.5-3.3-1.2-3.3-3.3l0,0c0-2.2,1.8-3.5,4-3.5c1.4,0,2.9,0.5,4.1,1.3l-1.2,2.2c-1.1-0.6-2.2-1-3-1
		s-1.2,0.3-1.2,0.8l0,0c0,0.6,1,0.9,2.2,1.3c1.5,0.5,3.3,1.3,3.3,3.3l0,0C644.5,110.4,642.6,111.5,640.3,111.5z"/>
</g>
<g>
	<g>
		<path class="st1" d="M657.6,126.4c-0.4,0.2-0.6,0.4-0.1,0.8c0.2-0.2,0.3-0.4,0.5-0.6c0.1-0.1,0.3-0.2,0.5-0.2c0.6,0,1.3,0,1.9,0
			c0.2,0.4,0.1,0.8-0.1,1.2c-0.5,0.8-0.9,1.7-1.4,2.5c-0.6,0.8-1,1.8-1.5,2.6c-1.3,2.1-2.4,4.2-3.7,6.4c-1.3,2.3-2.7,4.6-4,6.9
			c-1,1.7-1.9,3.4-2.9,5.1c-0.2,0.4-0.5,0.8-0.6,1.2c-0.2,0.3-0.3,0.5-0.8,0.5c0.1,0.1,0.2,0.2,0.3,0.4c-0.4,0.7-0.8,1.3-1.1,2
			c-0.2-0.1-0.3-0.1-0.6-0.2c0.1,0.3,0.2,0.4,0.3,0.7c-0.5,0.9-1,1.8-1.5,2.8c-0.3,0.5-0.7,0.2-1.1,0.4c0.1,0.2,0.3,0.4,0.4,0.6
			c-0.5,0.3-0.8,0.3-1.1-0.2c-0.9-1.5-1.7-3.1-2.6-4.6c-0.8-1.4-1.6-2.7-2.3-4.1c-0.4-0.7-0.8-1.4-1.1-2.1c-0.3-0.7-0.8-1.3-1.2-2
			c-0.5-0.8-1-1.7-1.5-2.5c-0.3-0.4,0.1-0.8-0.1-1.2c-0.2,0.1-0.3,0.2-0.5,0.3c-0.1-0.6-0.2-1.1-0.3-1.6c-0.2,0-0.4,0-0.5-0.1
			c-0.3-0.5-0.7-0.9-0.8-1.5c0-0.1,0-0.2,0-0.2c-0.9-0.8-1.2-1.9-1.8-2.8c-1-1.5-1.8-3.1-2.7-4.7c-0.7-1.3-1.5-2.5-2.2-3.8
			c-0.1-0.1-0.2-0.3,0-0.5c0.1-0.1,0-0.4,0-0.7c-0.2,0.2-0.3,0.3-0.4,0.3c0,0,0,0-0.1,0c0-0.7,0-0.7,0.5-0.7c0.7,0,1.5,0,2.3,0
			c0,0.2,0,0.4,0,0.6c0.1,0,0.1,0,0.2,0c0.7-0.7,1.6-0.6,2.5-0.6c1.5,0,3,0,4.5,0c1.4,0,2.9,0,4.3,0c0.1,0.2,0.2,0.3,0.3,0.6
			c0.1-0.2,0.2-0.4,0.3-0.5c0.8,0,1.5,0,2.3,0c0.1,0.2,0.1,0.3,0.2,0.5c0.2-0.2,0.3-0.3,0.5-0.5c0.5,0,1.1,0,1.8,0
			c0.6,0,1.3,0,1.9,0c0.6,0,1.3,0,1.9,0c0.6,0,1.3-0.2,1.9,0.2c0.6-0.5,1.2-0.2,1.8-0.2s1.3,0,1.9,0s1.3,0,1.9,0c0.6,0,1.3,0,1.9,0
			C656.2,126.4,656.9,126.4,657.6,126.4z M650.9,140.4c0.1,0,0.1,0.1,0.2,0.1c0.1-0.1,0.3-0.3,0.3-0.4c-0.1-0.4,0.1-0.7,0.3-1
			c-0.2-0.1-0.4-0.1-0.5-0.1s-0.3-0.1-0.3-0.1c-0.1,0.1-0.2,0.3-0.1,0.4c0.1,0.2,0.3,0.3,0.4,0.4C651,140,650.9,140.2,650.9,140.4z
			 M652.9,135.8c-0.3-0.2-0.4-0.4-0.5-0.5c0.2-0.6,0.2-0.6-0.3-0.6c-0.1,0.4-0.1,0.8-0.2,1.1C652.1,135.8,652.4,135.8,652.9,135.8z
			 M650.2,141.2c0.3,0.3,0.5,0.6,0.7,0.8c0.6-0.5,0-0.8,0-1.1c0,0-0.1,0-0.2-0.1C650.6,140.9,650.4,141,650.2,141.2z M646.2,128.7
			c0.3-0.5,0.5-0.9,0.7-1.4c-0.3,0-0.6,0.1-0.9,0.1C646.1,127.8,646.2,128.2,646.2,128.7z M645.5,146.6l0.1,0.1
			c0.2-0.5,1-0.4,1.1-1.1c-0.3,0-0.5,0-0.7,0C645.9,146,645.7,146.3,645.5,146.6z M637.1,144.7c-0.3,0.1-0.4,0.3-0.3,0.6
			c0.1,0.2,1,0.4,1.1,0.2c0.1-0.1,0.1-0.3,0.1-0.3c0-0.1-0.2-0.1-0.3-0.1C637.2,145.1,637.2,145.1,637.1,144.7z M631.7,127.4
			c-0.6,0.3-0.6,0.3-0.2,1.3c0.1-0.1,0.3-0.1,0.4-0.3c0-0.1,0-0.3-0.1-0.4C631.8,127.8,631.7,127.6,631.7,127.4z M630.5,137.2
			c0-0.1-0.1-0.1-0.1-0.2c-0.5,0-1,0.1-1.6,0.1c0.4,0.2,0.7,0.4,1,0.6C629.9,137.5,629.9,137.1,630.5,137.2z M643.3,153.4
			c0.3-0.4,0.8-0.8,0.7-1.4C643.3,152.2,643.5,152.9,643.3,153.4z"/>
	</g>
</g>
<path class="st3" d="M44.2,147.3c2.4,0,4.7,0,7.1,0c1.5,0,3.4-0.6,3.8,1.5c0.7-0.6,1.3-1.5,2-1.5c9.7-0.1,19.4-0.1,29-0.1
	c0.2,0.8,0.4,1.4,0.6,2.1c0.3-0.4,0.6-1,1.1-1.3c0.6-0.4,1.2-0.8,1.9-0.8c12.8,0,25.5,0,38.3,0c3.4,0,6.7-0.1,10.1,0
	c1,0,2,0.5,3,0.7c0.1-0.1,0.4-0.7,0.8-0.7c4.2,0.1,8.5,0.3,12.7,0.4c0.9,0,1.8-0.4,2.7-0.5c8.6,0,17.1,0,25.7,0c6.7,0,13.3,0,20,0
	c2.1,0,4.1,0.4,6.3,0.1c2.3-0.3,4.8-0.1,7.2-0.1s4.8,0,7.2,0s4.8,0,7.2,0c7.5,0,15,0,22.5,0c1.1,0,2.2,0.7,3.4,1
	c0.7,0.2,1.4,0.1,2.1,0.1c-0.2-1.7,1.2-1.1,1.9-1.1c3.1-0.1,6.2-0.2,9.2,0c2.3,0.2,4.5-0.1,6.7-0.1c2.6,0,5.1,0,7.7,0
	c2.5,0,5,0,7.4,0c2.6,0,5.1-0.1,7.7,0c8,0.6,16-0.5,24.1,0.2c4.3,0.4,8.7-0.3,13.1-0.2c3.4,0.1,6.7-0.3,10-0.1c0.8,0,2-0.5,2.2,1
	c0,0.1,0.8,0.3,0.9,0.2c2.3-2.2,5.1-1,7.7-1.1c5.2-0.2,10.5-0.1,15.8-0.1c7.1,0,14.2,0,21.3,0c-0.2,0.5-0.4,0.9-0.5,1.4
	c2.1-1.5,4-2,6.4-0.9c0.6,0.3,1.7-0.5,2.5-0.5c7.1,0,14.3,0,21.4,0c4.1,0,8.3,0,12.4,0c0.9,0,1.8,0.5,2.7,0.8c1-0.3,2-0.8,3-0.8
	c9.5-0.1,19,0,28.5,0c2.9,0,3.9,1.7,2.6,4.5c-0.2,0.4-0.3,0.9-0.3,1.3c0.3,3.9,0.6,7.8,0.9,11.3c-0.9,0.6-1.4,0.9-1.9,1.2
	c3.1,2.1,0.8,5.1,1.8,7.5c-0.8,0.1-1.3,0.1-2.4,0.2c3.2,2,2.2,4.6,1.8,7.1c-0.1,0.7,0.4,1.5,0.4,2.3c0,10.2,0,20.4,0,30.5
	c0,0.4-0.5,0.8-0.8,1.2c-0.3,0.5-0.8,0.9-1,1.4c-0.2,0.7-0.2,1.5-0.2,2.2c0.7-0.3,1.3-0.6,1.9-0.9c0,5.1,0,10.5,0,16.3
	c-0.9-0.7-1.5-1.1-2.1-1.6c0.1,2.2,0.3,2.4,2.3,2.1c-0.2,3.9-0.5,7.8-0.5,11.7c0,3.1,0.2,6.3,0.4,9.4c0.1,2-1.1,2.8-2.9,2.8
	c-6.2,0-12.5-0.3-18.7-0.3c-10.7,0-21.4,0.2-32.1,0.2c-1.1,0-2.2-0.7-3.3-1c0-0.1,0,0.4,0,0.9c-7.3,0-14.5,0-21.5,0
	c0.2-0.4,0.4-1,0.7-1.7c-0.1-0.2-0.3-0.3-0.4-0.5c-0.6,0.3-1.7,0.5-1.8,0.9c-0.2,1.6-1.3,1.5-2.4,1.4c-4.5-0.1-9-0.4-13.5-0.4
	c-7.7,0-15.4,0.3-23.1,0.4c-3.4,0-6.8,0.1-10.1,0c-0.9,0-1.7-0.7-2.7-1.1c0,1.4-1.4,1.2-2.8,1.2c-2.6-0.1-5.3-0.2-7.9,0.1
	c-1.2,0.1-2-1-3.4-0.2c-1.1,0.6-2.7,0.2-4.1,0.1c-0.7,0-1.4-0.4-2.1-0.6c-0.9,0.1-1.9,0.4-3,0.4c-7.3,0-14.6,0-21.8,0
	c-0.6-0.9-1.3-1.8-2.2-3.1c0.2,1.3,0.3,2.2,0.4,3.2c-2.7,0-5.3,0.3-7.9-0.1c-1.2-0.2-2.2,0.1-3.3,0.1c-1.5,0-3-0.3-4.6-0.1
	c-0.9,0.1-1.9-1-3-1.6c-0.8,1.9-2.5,1.8-4.2,1.7c-3.1-0.1-6.3,0-9.4,0c-1.9,0-4,0.6-4.9-2.1c0.1,0.6,0.2,1.3,0.3,2
	c-5.4,0-10.9,0-16.4,0c-0.1,0-0.1-0.6-0.2-0.7c-0.7,0.3-1.4,0.8-2,0.8c-12.9,0-25.8,0.1-38.7,0c-2.4,0-4.8-0.5-7.2-0.6
	c-2.2,0-4.3,0.4-6.5,0.4c-8.2,0-16.3,0-24.5,0c-1.2,0-2.4,0.2-3.5,0.2c-0.1-1.1-0.1-2.1-0.3-3c0-0.1-0.8,0-1.2,0c0,1,0,1.9,0,3.2
	c-3.2-0.3-6.4-0.8-9.5-0.8c-3.2,0-6.5,0.8-9.6,0.5c-3.3-0.3-6.5,0.4-9.8,0.1s-6.7-0.1-10.6-0.1c0.7-0.7,1.1-1.2,1.6-1.8
	c-0.5-0.7-1.1-1.4-2-2.5c0.1,0.8,0.3,1.1,0.2,1.5c-0.1,2.7-0.3,2.9-3,2.9c-1.3,0-2.6,0-4.1,0c0-0.7,0.1-1.4,0.2-2.2
	c-0.8,0.5-2.3,0.1-2.1,1.8c0,0.1-0.6,0.2-0.9,0.2c-4.4,0.1-8.8,0.2-13.2,0.1c-0.9,0-1.8-1-2.8-1.7c0,0.6,0,1.2,0,1.6
	c-11,0-21.9,0-32.8,0c-0.1-0.4-0.2-1-0.3-1.6c-1,2.1-2.7,1.8-4.2,1.8c-3,0-6,0-9,0c-0.9,0-2,0.4-2.1-1.1c0-0.1-0.9-0.3-1.3-0.2
	c-0.2,0-0.2,0.7-0.2,1c-3.9,0-8,0-12,0c-3.9,0-7.7,0.2-11.6,0.3c-0.9,0-1.8,0.2-2.6,0c-0.7-0.2-1.7-0.8-1.7-1.3
	c-0.1-5.2,0-10.4,0-15.6c0-2.2-0.1-4.4-0.1-6.7c0-0.9,0.4-1.8,0.6-2.6c0.1-0.3,0.2-0.6,0.2-0.8c-1.9-6.5-0.3-13.2-0.8-19.7
	c0-0.3,0.2-0.6,0.4-0.9c0.5-0.7,0.4-0.6-0.2-1.6c-0.2-0.4-0.2-1-0.2-1.4c0.1-7.5,0.2-15,0.2-22.5c0-4-0.2-8.1-0.2-12.2
	c0-4.6,0-9.2,0-14c2.3,0.9,2.7-0.3,2.8-2c-0.8,0.2-1.7,0.4-2.8,0.7c0.4-1.9-0.8-3.7,1-5.1c0.2-0.1,0.1-1.1-0.2-1.2
	c-1.3-0.7-0.8-1.8-0.4-2.5c0.3-0.6,1.3-1.2,1.9-1.2c2.1,0.1,4.3,0.6,6.4,0.7c1.5,0,2.9-0.6,4.4-0.7c0.8,0,1.7,0.6,2.7,1
	c0,0,0.2-0.5,0.4-1.1c3.4,0,6.8,0,10.3,0c1.3,0,3.1-0.7,3.3,1.8C43.7,148.4,44,147.9,44.2,147.3z M269.1,252.8
	c-1.1-0.4-1.9-0.7-2.8-0.9c-0.2,0-0.6,0.4-0.8,0.7c-0.1,0.1,0.3,0.7,0.6,0.7c1.6,0.3,3.1,0.5,5.2,0.8c-0.7-1.7-1.2-2.9-1.7-4.2
	c-0.2,0.1-0.4,0.1-0.6,0.2C269.1,250.9,269.1,251.7,269.1,252.8z M179.3,193.3c-0.1,0.1-0.2,0.2-0.2,0.3c0.4,0.3,0.8,0.8,1.2,1
	c1.5,0.5,2.5-0.1,3.1-1.2c-0.6-1.1-1.1-2.1-1.7-3.2c-0.3,0.4-0.7,0.9-0.8,1.4c-0.1,0.6,0.1,1.2,0.1,2
	C180.3,193.5,179.8,193.4,179.3,193.3z M270.6,187.5c0-2.1-2.1-3.3-5.5-3.4C265.5,187.5,269.5,185.1,270.6,187.5z M436.2,159.2
	c-0.1-1.5-0.2-2.7-0.2-4c-1.3,0.5-2.5,1.1-3.9,1.6C433.4,157.6,434.7,158.3,436.2,159.2z M94.6,205.8c0.5-0.3,1.2-1.1,2-1.1
	c2,0,2,0.1,2-1.7C95.2,203.1,94.2,204,94.6,205.8z M390.4,174.2c0.5-0.1,1.1-0.3,1.7-0.4c0-0.9,0.1-1.7,0-2.5
	c-0.1-0.4-0.5-0.7-0.8-1c-0.6,0.6-1.2,1.1-1.8,1.7c-0.1,0.1,0.2,0.5,0.3,0.7C390,173.1,390.2,173.6,390.4,174.2z M463.8,194.1
	c1.2,0,2.7,0,4.2,0c0.1-0.1,0.1-0.3,0.2-0.4c-1.3-0.7-2.6-1.3-3.8-1.9C464.2,192.8,464,193.5,463.8,194.1z M37.5,157.6
	c0.5-0.4,1.1-0.8,2.2-1.6c-2-0.2-3.3-0.3-4.6-0.3c-0.3,0-0.5,0.6-0.8,0.9c0.3,0.2,0.6,0.4,0.9,0.5C36,157.2,36.7,157.4,37.5,157.6z
	 M62.4,181.9c-0.6,1.3-1.1,2.6-1.7,4C64.1,184.5,64.5,183.6,62.4,181.9z M326.9,230.2c-1.2,1.2,0.1,1.8,0.7,2.6
	c0.4,0.5,0.8,1,1.1,1.4c0.2-0.2,0.6-0.5,0.6-0.7c-0.2-0.7-0.4-1.3-0.8-1.9C328.2,231.1,327.5,230.7,326.9,230.2z M344.6,210.7
	c-0.2-0.4-0.4-0.8-0.7-1.2c-1.3,0.7-2.5,1.5-3.8,2.2c0.1,0.3,0.3,0.6,0.4,0.9C342,211.9,343.3,211.3,344.6,210.7z M276.3,207
	c-0.4-0.7-0.6-1-0.8-1.4c0.6-0.3,1.2-0.5,1.7-0.7c-0.4-0.6-0.8-1.1-1.1-1.5c-0.9,1-1.7,2-2.7,3.2C274.5,206.8,275.2,206.9,276.3,207
	z M322,244.6c-0.4,1.4-0.7,2.2-1.1,3.4c2.8-1.9,3.1-2.4,2.5-4.2C322.8,244.2,322.1,244.5,322,244.6z M345,246.6c0.5,0,1,0,1.5-0.1
	c0-0.8,0.1-1.7,0-2.5c0-0.2-1.1-0.1-1.7-0.1C344.8,244.8,344.9,245.7,345,246.6z M226,183.7c0.3-0.1,0.7-0.1,1-0.2c0-1,0-2,0-3
	c-0.7,0.2-1.5,0.3-2.2,0.5C225.2,181.9,225.6,182.8,226,183.7z M62.4,247.8c0.1,0.8-0.1,2,0.3,2.3c0.9,0.6,2.1,0.7,3.2,1.1
	c0-0.1,0-0.3,0-0.4C64.9,249.9,63.9,249,62.4,247.8z M431.2,161.5c-0.8,0.6-1.5,1.1-2.7,2c1.8,0.2,3,0.3,4.6,0.5
	C432.4,163.1,431.9,162.4,431.2,161.5z M112.1,220.3c-0.3,0.9-0.6,1.7-0.9,2.7c2.5-1.2,1.4,1,1.9,1.7
	C114.2,223.4,114,222.5,112.1,220.3z M437.6,181.6c1.7,0.1,2.6-1.9,2.1-5.6C439,178,438.3,179.8,437.6,181.6z M134.4,216.8
	c-0.6-0.7-1.2-1.3-1.9-2.1c0,2.6,0,2.6-1.9,2.3C132,219.7,133.2,216.5,134.4,216.8z M134.2,149.1c1.5,0.8,2.8,1.5,4.1,2.3
	c0.1-0.1,0.2-0.3,0.3-0.4c-0.9-1-1.8-1.9-2.7-2.9C135.3,148.4,134.8,148.7,134.2,149.1z M407.4,252.9c0.2,0,0.4,0.1,0.7,0.1
	c0.4-1,0.8-2,1.1-3c-0.6,0-1.2-0.1-1.8-0.1C407.4,250.9,407.4,251.9,407.4,252.9z M297.4,152.9c-1.4,0.8-2.7,1.5-4.1,2.3
	C296.2,155.9,297.4,155.2,297.4,152.9z M204.4,242.9c-0.3-0.2-0.5-0.3-0.8-0.5c-0.9,0.7-1.9,1.4-2.8,2.1c0.6,1,1.1,1.8,1.5,2.5
	c0.2,0,0.4,0,0.6,0C201.9,245.2,202.3,243.8,204.4,242.9z M256.2,243.9c0.2-1,0.4-2,0.6-3.1C254.4,241.4,254.4,241.4,256.2,243.9z
	 M235.3,243.4c2.2,0.9,1.7-1.3,2.5-2C234.9,239.7,236.4,243,235.3,243.4z M421,153.7c-1.4-0.3-2.2-0.4-3-0.6c0,0.2,0,0.8,0,1.2
	c0.6,0,1.1,0,1.8,0c-0.3,0.8-0.6,1.4-0.8,2c0.2,0.1,0.4,0.2,0.6,0.2C420.1,155.6,420.6,154.5,421,153.7z M385.4,175.2
	c-0.7,0.1-1.1,0.2-1.5,0.3s-0.8,0.3-1.2,0.4c0.3,0.4,0.5,1,0.9,1c0.9,0.2,1.9,0.1,2.8,0.2C386,176.4,385.6,175.7,385.4,175.2z
	 M385.5,167c1.6-0.1,3-0.1,4.9-0.2C387.5,165.2,385.9,165.4,385.5,167z M452.8,196.9c-1.3-0.3-2.4-0.6-3.4-0.9
	c0,0.2-0.1,0.4-0.1,0.6C450.1,197.4,450.6,199.7,452.8,196.9z M248,228c1.4,0.2,2.5,0.4,3.8,0.6C250.8,226.5,249.8,226.3,248,228z
	 M240.8,178.6c-0.6,1.7,0.5,2.3,1.9,2.8C244.8,178.5,240.6,180,240.8,178.6z M211.6,223.2c-0.5,0.9-0.8,1.6-1.1,2.3
	c0.1,0.2,0.3,0.3,0.4,0.5c1-1,2-1.9,3.3-3.1C213.1,223.1,212.3,223.2,211.6,223.2z M384.6,208.6c-1.7-1.1-2.6-0.7-3.2,0.7
	c-0.2,0.4-0.1,0.9-0.1,1.1C382.5,209.7,383.4,209.2,384.6,208.6z M427.7,205.2c4.4,0.9,4.4,0.9,4.5,0.2c-0.8-0.4-1.6-0.7-2.7-1.2
	C429.3,204.4,428.7,204.7,427.7,205.2z"/>
<path class="st4" d="M14.7,257c0-0.1-0.1,0.3-0.2,0.8c-0.1,0-0.2,0-0.3-0.1c0-7.8,0-15.6,0-23.5c0-0.4,0.2-0.9,0.3-1.6
	c-0.1-1.6-0.3-3.6-0.3-5.6c0-4.5,0-9.1,0-13.6c0-0.6,0.2-1.3,0.4-2.1c-0.1-0.2-0.4-0.8-0.4-1.4c0-7.3,0.1-14.7,0.1-22
	c0-1-0.1-2-0.1-3c0-10.2,0-20.4,0-30.5c0-2.4,0-4.7,0-7c2.7-0.2,5.3-0.5,8-0.6s5.3,0,8,0c2.5,0.1,5.1,0.5,7.6,0.3
	c2.5-0.3,5,0.2,7.6,0.1c2.6-0.1,5.2-0.1,7.9-0.1c2.6,0,5.3,0,7.9,0c2.5,0,5.1,0.1,7.6,0.3c0.5-0.2,0.9-0.6,1.4-0.6
	c1.3-0.1,2.7-0.1,4-0.1c5.7,0.1,11.5,0.3,17.2,0.4c3.7,0.1,7.4,0.2,11.1,0.2c1,0,1.9-0.2,2.9-0.1c0.3,0,0.6,0.7,0.8,1.1
	c0.8-1.4,3.3-1.6,4.4-0.3c0.1-0.4,0.2-0.8,0.2-0.9c1.8,0,3.5-0.3,5.3,0.1c1.9,0.4,3.8-0.2,5.8,0.1c2.1,0.3,4.3,0.1,6.4-0.2
	c0.8-0.1,1.5,1.2,2.4,0.3c0.7-0.6,1.7-0.3,2.5-0.2c0.4,0,0.7,0.5,1.1,0.8c0.3-0.2,0.8-0.8,1.3-0.8c1.3-0.1,2.5,0,3.9,0
	c0,0.9,0,1.7,0,2.5c0,12.7,0,25.4,0,38.2c0,1.6,0.3,3.7-1.4,2.9c0,0.2,0.1,0.4,0.1,0.6c0.4,0.3,0.8,0.5,1.4,0.8
	c-0.3,6.9,0.5,14-0.5,20.8c1,1.4,0.2,3.3,0.5,4.7c-0.3,0.3-0.6,0.6-0.9,0.9c0.3,0.8,0.9,1.4,0.8,2c-0.3,5,0.8,10.2-0.7,15.2
	c0.2-0.3,0.4-0.6,0.7-0.8c0,7.4,0,14.9,0,22.7c-2.8,0-5.6,0.3-8.4-0.2c-0.7-0.1-1.3,0.3-2,0.3c-5.1-0.2-10.2-0.1-15.2-0.1
	c-2.4,0-4.9,0-7.3,0c-0.7,0-1.5,0.7-2-0.9c0-0.1-0.6,0.5-0.9,0.7c-0.2,0.1-0.4,0.2-0.6,0.2c-4,0-8,0-11.9,0c-1.8,0-3.6,0-5.4,0
	c-0.4,0-0.8-0.4-1.2-0.4c-0.4,0-0.8,0.4-1.3,0.4c-2.7,0-5.4,0.1-8.1,0c-0.3,0-0.7-0.7-0.8-0.9c-0.7,0.3-1.2,0.9-1.8,0.9
	c-2.8,0-5.7,0-8.5-0.1c-0.3,0-0.5-0.8-0.5-0.7c-0.5,0.4-0.9,0.9-1.3,0.9c-3.7,0.1-7.4,0-11.1,0c0-0.4,0-0.7,0.1-1.4
	c-1.6,3.6-2.4-0.2-3.6-0.9c0,0.9,0,1.5,0,2.3c-3,0-6,0-9,0c-1.9,0-3.9,0-5.8,0c-5.5,0-11.1,0-16.6,0C15.5,257.7,15.2,257.3,14.7,257
	z M113.1,190.8c-0.9,1.9,0.4,2.6,1.1,3.6c0.2,0.2,0.7-0.4,1.1-0.6c-0.3,0.3-0.5,0.6-0.8,1C113.9,193.4,113.5,192.1,113.1,190.8z
	 M93.4,250.5c0.1-0.2,0.3-0.5,0.4-0.7c-0.6-1.2-1.1-2.4-1.9-3.9c0,1.3-0.1,2.1-0.1,2.4C92.5,249.1,92.9,249.8,93.4,250.5z
	 M121.7,183.2c-0.2-0.9-0.4-1.5-0.5-2.1c-1.6,0.8-1.6,0.8-1.6,1.8C120.3,183,120.9,183.1,121.7,183.2z M66.2,246.6
	c0.1,0.2,0.2,0.5,0.3,0.8c0.8-1.5,1,0.7,1.6,1c0.1,0,0.2,0.2,0.3,0.2c0.1-0.2,0.2-0.6,0.2-0.7c-0.4-1.1-0.9-2.2-1.4-3.4
	C66.7,245.5,66.5,246,66.2,246.6z M88,183.3c0.1-1.2,0.3-2.4,0.1-3.2c-0.2-0.9-0.5-2.4-1.2-2.2C87.2,179.6,87.6,181.3,88,183.3z
	 M28.2,198.7c-0.6-0.2-1.2-0.3-1.9-0.5c0.3,1.3,0.5,2.1,0.6,2.9c0.1,0.2,0.2,0.4,0.3,0.6C27.6,200.8,27.9,199.9,28.2,198.7z
	 M112.7,237.9c-0.2,3,0.3,4,1.6,4c0-0.7,0.1-1.4,0.1-2.4C113.7,241.2,113.6,241.1,112.7,237.9z M59.7,171c0,0.2,0,0.5,0.1,0.7
	c0.5,0.1,1,0.4,1.5,0.3c0.1,0,0.2-1.2,0.3-2.4C60.8,170.2,60.2,170.6,59.7,171z M49.6,219.3c-0.3,1.3-0.7,2.3-0.6,2.9
	c0.1,0.9,0.6,1.7,1,2.5c0.2-0.2,0.4-0.3,0.6-0.5C48.7,223.5,50.1,221.4,49.6,219.3z M38.6,204.9c0.6-0.5,1-0.9,1.4-1.3
	c-0.4-0.9-0.7-1.8-1.1-2.7C38.8,202.3,38.7,203.4,38.6,204.9z M62.9,159.4c-0.5,0.5-0.8,0.9-1.1,1.2c0.3,0.8,0.7,1.6,1,2.3
	c0.1-0.1,0.2-0.1,0.3-0.2C63.1,161.7,63,160.7,62.9,159.4z M76.7,147.3c-0.2,0.5-0.4,0.8-0.6,1.2c-0.4-0.3-0.7-0.6-1.3-1.1
	c0.2,1.2,0.3,1.8,0.5,2.8C75.9,149.2,77,149.9,76.7,147.3z M112.8,211.9c0-0.1,0-0.3-0.1-0.4c-0.3,0-0.7-0.1-0.8,0.2
	c-0.1,0.2-0.1,1,0,1.5c0.2,1,0.4,2,0.7,3c0.1,0,0.1,0,0.2,0c-0.1-1.1-0.2-2.3-0.3-3.5C112.5,212.5,112.6,212.2,112.8,211.9z
	 M62,227.1c0-0.1-0.1-0.3-0.1-0.4c-0.4,0.3-0.9,0.5-1.3,0.8c0.2,0.7,0.3,1.4,0.5,2.1C61.4,228.7,61.7,227.9,62,227.1z M18.6,150
	c-0.8,1-0.4,3.4-1.5,3.5c0.1,0.3,0.1,0.5,0.2,0.8c0,0.1,0.1,0.1,0,0c0.6-0.6,1-1.2,1.5-1.6C18.7,151.9,18.7,151.2,18.6,150z
	 M123.1,188.8c-0.1-0.1-0.3-0.3-0.4-0.4c-0.2,0.5-0.4,1.1-0.6,1.6c-0.1,0.3-0.3,0.6-0.4,1c0.3,0.1,0.8,0.5,0.8,0.3
	C122.7,190.5,122.9,189.6,123.1,188.8z M38.4,172.7c1.1-1.6,1.1-1.6,0-4C38.4,170.1,38.4,171.3,38.4,172.7z M57.8,191.3
	c-0.4,1.2-0.7,2.3-1.1,3.5C57.5,194.2,58.4,193.7,57.8,191.3z M41.1,238.9c-1.3,1.3-1,3.2-1.3,4.6c0.1,0.1,0.2,0.2,0.4,0.3
	C40.5,242.4,40.8,241,41.1,238.9z M111,187.8c-1.4,1.1-0.1,3.4-0.7,4.7c0.1,0.1,0.3,0.1,0.4,0.2C110.8,191.2,110.9,189.6,111,187.8z
	 M56.2,239.5c0.2-1.6,0.4-3,0.6-4.3c-0.2-0.1-0.3-0.1-0.5-0.2C56.9,236.6,54.8,237.5,56.2,239.5z M68.4,205.5c0.1-1.3,0.3-2.2,0.2-3
	c0-0.5-0.3-0.9-0.5-1.3c-0.1,0.4-0.4,0.9-0.4,1.2C67.9,203.3,68.1,204.2,68.4,205.5z"/>
<g>
	<g>
		<path class="st5" d="M14,24.1c4.4,7.5,8.5,14.8,12.9,22.3c-3.3,0.8-6.4,0.2-9.8,0.5c-0.2,1.5-0.4,3.1-0.4,4.6
			c0.1,5.5,0.2,11-0.1,16.5c-0.1,2.5,0.3,4.9,0,7.4c-0.3,2.4,0.1,4.9,0.1,7.3c0,2.5,0,4.9,0,7.4c0,1.6,0.4,3.2-0.5,4.6
			c0.9,1.2,0.5,2.5,0.6,3.8c0,2.2-0.2,4.4,0,6.7c0.1,2.3,0,4.6,0,6.9s0,4.6,0,6.9s0,4.6,0,6.9c0,6.1,0,12.2,0,18.3c0,4,0.2,8,0,12
			c-0.2,2.9,0.1,5.8,0,8.7c0,0.7,0.2,1.6-1.3,1.5c1.4,0.4,1.4,1.3,1.3,2.2c-0.1,2.3-0.4,4.6-0.3,6.9c0,5.2,0.2,10.4,0.3,15.5
			c0,1.1,0,2.1-1.5,2.5c1.2,0.9,1.6,1.7,1.6,3c-0.1,3.1,0.1,6.2-0.1,9.4c-0.1,1.6-0.3,3.2-0.1,4.8c0.2,1.6,0.4,3.3,0.4,4.9
			c0,0.9-0.2,1.8-0.3,2.8c0,0.2-0.3,0.5-0.2,0.6c1.4,2.7,0,5.7,0.5,8.5c0.2,1.3-0.2,2.8,0.1,4.2c0.3,1.7-0.5,3.2-0.1,5
			c0.4,1.6,0,3.3,0,5c0,6.5,0.1,13,0.1,19.5c0,6.5-0.2,13-0.2,19.5c0,9.4,0.2,18.8,0.2,28.3c0,4.9,0.1,9.7-0.2,14.6
			c-0.2,2.8,0.3,5.5,0.2,8.2c-0.1,2.9,0,5.8,0,8.6c0,8.4,0,16.7,0,25.1c0,0.4,0.1,0.8,0.1,1.4c0.8,0.1,1.6,0.1,2.3,0.1
			c4.2,0,8.5-0.1,12.7,0c0.7,0,1.3,0.4,2.1,0.7c1-1.6,2.8-0.9,4.1-0.7c4.7,0.8,9.3,0.1,13.9,0.2c5.9,0.2,11.8,0,17.6,0
			c8,0,15.9,0.1,23.9,0.1c6.9,0,13.7-0.1,20.6-0.2c3.6,0,7.1,0.1,10.7,0.2c0.1,0.4,0.3,0.9,0.5,1.8c0.5-0.9,0.8-1.3,1.2-2
			c4.8,0.1,9.8,0.3,14.7,0.3c2.9,0,5.9-0.2,8.8-0.2c17,0,34.1,0,51.1,0c4.2,0,8.5,0.2,12.7,0.2c1.4,0,2.9-0.3,4.3-0.3
			c0.8,0,1.5,0.3,2.3,0.5c0.3,0.1,0.6,0.2,0.9,0.1c3.8-1.3,7.8-0.4,11.6-0.6c7.1-0.4,14.1-0.4,21.2-0.1c4.8,0.2,9.5,0,14.3,0.1
			c0.6,0,1.5-0.4,1.8,0.7c0,0.1,0.2,0.1,0.4,0.1c0.3-1.6,1.6-0.8,2.3-0.8c6.5,0,13.1,0.1,19.6,0.2c3.7,0,7.5,0.2,11.2,0.2
			c4,0,8-0.2,12-0.2c0.9,0,1.8,0.3,2.7,0.4c0.2,0,0.5,0.1,0.7,0.1c3.7-0.9,7.4-0.4,11.2-0.3c2.9,0.1,5.9-0.2,8.8-0.2
			c6.1,0,12.1,0.2,18.2,0.2c3.8,0,7.6-0.2,11.5-0.2c0.9,0,1.7,0.4,2.8,0.6c0.7-0.2,1.6-0.6,2.5-0.6c10.7,0,21.4,0,32,0
			c2.9,0,5.8,0.5,8.7,0.2c5.1-0.6,10.2-0.2,15.3-0.3c4.9-0.1,9.7-0.1,14.6-0.1c6.7,0,13.4,0.1,20,0.2c2.4,0,4.8-0.2,7.2-0.2
			c1.1,0,2.3-0.2,2.7,1.4c0,0.1,0.5,0.1,1.1,0.1c-0.3-0.5-0.5-0.8-0.7-1.1c0.1-0.1,0.2-0.3,0.4-0.3c3.6,0,7.2-0.1,10.8-0.1
			c7,0,14,0.1,21,0.1c7.7,0,15.3-0.1,23-0.1c6.7,0,13.4,0,20.1,0c2.2,0,4.4-0.2,6.6,0c3,0.2,5.9-0.1,8.9,0c3,0,6.1,0,9.1,0
			s6.1-0.1,9.1-0.1c3.1,0,6.2,0,9.3,0.1c0.6,0,1.3,0.4,2.3,0.7c0.4-0.4,1.3-0.8,2.5-0.8c10.8,0.1,117.9,0.1,128.7,0.1
			c1.3,0,2.7-0.4,4-0.4c1.2,0,2.4,0.3,3.9,0.5c0,0,0.3-0.5,0.5-0.4c2.2,0.1,4.4-0.6,6.6,0.4c0.1,0.1,0.3,0.3,0.4,0.2
			c2.4-1.4,5.1-0.2,7.6-0.7c0.1,0,0.1-0.1,0.4-0.4c0-2.5,0-5.3,0-8.1c2.2-0.1,3.6,1.2,5.1,2.1c4.9,2.7,9.7,5.5,14.5,8.4
			c0.9,0.5,1.7,1.1,2.7,1.8c-3.2,2.8-6.9,4.9-10.7,6.9c-0.5,0.3-1.2,0-2,0c0,0.2,0,0.7,0,1.4c-2.8,1.5-5.7,3.1-8.9,4.8
			c-1.2-3.2,0.1-6.3-0.9-9.6c-1.2-0.1-2.5-0.4-3.8-0.4c-8.2-0.1-16.5-0.1-24.7-0.1c-6.1,0-12.1,0.1-18.2,0
			c-3.4,0-103.4,0.2-106.8-0.1c-3.1-0.3-6.1,0.3-9.2,0.1c-4-0.3-8,0-12.1,0c-6.1-0.1-12.2-0.1-18.3-0.1c-5.8,0-11.7,0.2-17.5,0.1
			c-4.6,0-9.2-0.3-13.8-0.4c-2,0-4.1,0.3-6.1,0.3c-4.2,0-8.4-0.2-12.6-0.2c-3.9,0-7.8,0.2-11.6,0.2c-1.7,0-3.5-0.3-5.2-0.3
			c-1.8,0-3.6,0.2-5.4,0.2c-6.9,0-13.8,0-20.7,0.1c-3.2,0-6.4,0.1-9.6,0c-1.1,0-2.2-0.3-3.4-0.5c-0.5,0.1-1.2,0.5-1.9,0.5
			c-7.5,0-15,0-22.4,0c-6.8,0-13.5-0.2-20.3-0.2c-5.7,0-11.3,0.2-17,0.1c-8.3-0.1-16.6,0.1-24.9,0c-13.2-0.1-26.5-0.1-39.7-0.1
			c-1.2,0-2.4,0-3.6,0.1c-0.8,0-1.6,0-2.2-0.7c-0.7,0.7-1.5,0.7-2.4,0.7c-10.2,0-20.3,0.1-30.5-0.1c-3.2,0-6.4,0.2-9.7,0.1
			c-2.7-0.1-5.4-0.4-8.2,0c-2.7,0.3-5.4,0-8.1,0c-2.8,0-5.6,0-8.4,0c-0.8,0-1.7-0.3-2.5-0.4c-0.3,0-0.7,0-1,0.1
			c-0.4,0.1-0.9,0.3-1.3,0.3c-2-0.2-4,0.1-6,0.1s-4,0.1-6,0c-1,0-2-0.4-2.9-0.5c-0.4,0-0.8,0.4-1.3,0.5c-1.3,0.1-2.6,0.1-3.8,0
			c-6.5-0.1-13.1-0.2-19.6-0.2c-9.1,0-18.2,0.1-27.3,0.2c-6.1,0-12.1,0.2-18.1-0.1c-2.8-0.1-5.5,0.4-8.3,0.1c-2.8-0.2-5.6,0-8.3,0
			c-1.5,0-1.5,0-2.5-1c-0.9,0.9-1.9,1.2-3.3,0.8c-1.2-0.4-2.7,0.2-4,0.2c-9.1,0-18.2-0.1-27.3-0.1c-5.4,0-10.9,0.1-16.3,0.1
			c-1.8,0-3.6-0.4-5.4-0.4c-1.1,0-2.2,0.4-3.2,0.4c-3.5,0.1-7,0-10.5,0.1c-1.6,0.1-3.2-0.5-4.9-0.2c-1.6,0.2-3.3,0.4-5,0.2
			c-1.7-0.2-3.5-0.1-5.3-0.1c-7.2,0-14.3,0-21.5,0c-7.8,0-15.6,0-23.4,0c-0.5,0-0.9,0-1.5,0c-1.1-2.2-0.6-4.4-0.7-6.6
			c-0.1-6.7,0-13.4,0-20.1c0-4.5,0-9.1,0-13.6c0-6.5,0-13,0-19.5c0-0.6,0-1.3,0-2c0.4-0.1,0.8-0.1,1.2-0.1c0-0.1,0-0.3,0-0.4
			c-0.5-0.4-1.1-0.6-1-1.6c0.1-2.1,0.2-4.2-0.2-6.2c-0.2-1,1-1.5,0.6-2.5c-0.4-0.8-0.4-1.8-0.5-2.8c-0.1-1.3,0.3-2.7,0.1-4
			c-0.5-3.5-0.8-7-0.4-10.5c0.6-5.3,0.2-10.5,0.3-15.8c0.1-3.4-0.1-6.7,0.1-10.1c0.1-2.3,0.2-4.7-0.1-7c-0.1-1.1,1.1-1.9,0.3-3.2
			c-0.5-0.9,0-2.3,0-3.5c-0.1-2.2-0.2-4.5-0.2-6.7c0-3.6,0-7.2,0.1-10.8c0-0.9,0.4-1.8,0.6-2.9c-0.7-0.6-0.9-1.5-0.4-2.7
			c0.2-0.4-0.2-1-0.2-1.6c0-2.5-0.1-5,0-7.4c0-0.4,0.2-0.7,0.4-1.1c0.1-0.3,0.4-0.6,0.3-0.7c-1.1-1.6-0.6-3.4-0.6-5
			c-0.1-4.6,0-9.3,0-13.9c0-10.6,0-21.2,0-31.8c0-0.3,0.1-0.6,0.1-0.9c0.4,0,0.8,0,1.2,0c-1.3-1-1.3-1-1.3-2.7c0-13.6,0-27.1,0-40.7
			c0-0.6,0.1-1.3,0-1.9c-0.1-1.1,0.5-1.6,1.6-1.8c-0.4-0.1-0.8-0.2-1.6-0.3c0-2.6,0-5.3,0-7.9c0-6.7,0-13.3,0-20
			c0-5.5,0-11,0.2-16.4c0.1-1.7-0.3-3.4,0.3-5.1c0.3-0.8-0.4-1.9-0.5-2.8c-0.1-4,0-8,0-12.2H1.1c0.5-1.5,0.5-2.6,1.5-3.4
			c5-4,8.2-9.9,9.5-16.2C12.4,25.8,12.9,25.5,14,24.1z M753.7,364.1c-1.1,0.2-1.8,0.3-2.7,0.4C752,365.5,752.7,365.6,753.7,364.1z
			 M12.9,57.8c-1.2-0.2-1.2-0.2-1.4,0.8C11.9,58.3,12.3,58.1,12.9,57.8z M14,158.8c-0.3-0.3-0.5-0.5-0.6-0.7
			c-0.2,0.2-0.5,0.4-0.5,0.6c0,0.2,0.2,0.4,0.4,0.7C13.4,159.2,13.7,159,14,158.8z M12.4,354.9c0.1,0.1,0.2,0.3,0.3,0.4
			c0.3-0.2,0.5-0.4,0.7-0.6c0,0-0.2-0.4-0.2-0.3C12.9,354.6,12.7,354.8,12.4,354.9z M328.7,369.6c0.2,0,0.4-0.1,0.6-0.1
			c-0.1-0.4-0.2-0.9-0.2-1.3c-0.2,0-0.3,0-0.5,0.1C328.7,368.8,328.7,369.2,328.7,369.6z M347.9,368.8c0-0.1,0.1-0.2,0.1-0.3
			c-0.3-0.1-0.5-0.3-0.8-0.4c-0.2,0-0.4,0.1-0.6,0.2c0,0.1,0,0.2,0.1,0.3C347,368.7,347.5,368.8,347.9,368.8z M293.8,369.1
			c-0.1-0.1-0.2-0.2-0.2-0.3c-0.4,0.3-0.8,0.5-1.1,0.8c0.1,0.1,0.2,0.3,0.3,0.4C293.1,369.7,293.4,369.4,293.8,369.1z M46.4,370.7
			c-0.2,0.1-0.3,0.2-0.3,0.2s0,0.1,0.1,0.2c0.3,0.2,0.7,0.4,1,0.6c0.1-0.1,0.1-0.2,0.2-0.4C47,371.1,46.7,370.9,46.4,370.7z
			 M459.1,370.9c-0.1,0.2-0.1,0.4-0.2,0.5c0.5,0.1,1,0.3,1.5,0.4c0.1-0.2,0.1-0.3,0.2-0.5C460.1,371.2,459.6,371,459.1,370.9z
			 M152.3,372.7c-0.6-0.2-0.9-0.4-1.1-0.4c-0.2,0.1-0.4,0.4-0.6,0.6c0.2,0.1,0.5,0.4,0.7,0.3C151.6,373.2,151.8,373,152.3,372.7z"/>
	</g>
</g>
<rect x="120.7" y="283.3" class="st1" width="268.5" height="37.7"/>
<g>
	<path class="st2" d="M134.1,295.3h8.8v2.8h-6.1l-0.2,2.5c0.6-0.1,1.1-0.2,1.9-0.2c2.8,0,5,1.4,5,4.6c0,3.1-2.2,5-5.5,5
		c-2.3,0-4-0.8-5.4-2.2l1.9-2.3c1.1,1,2.2,1.6,3.4,1.6c1.5,0,2.4-0.7,2.4-2s-1-2-2.5-2c-0.9,0-1.7,0.2-2.4,0.5l-1.8-1.2L134.1,295.3
		z"/>
	<path class="st2" d="M145.6,295.3H156v2.4l-6.5,12h-3.6l6.4-11.7h-6.8v-2.7H145.6z"/>
	<path class="st2" d="M157.4,309.7h-1.3v-3.3h3.3v2.8c0,2.7-1.4,3.8-3.8,3.8l-0.3-1.3C156.8,311.6,157.5,310.9,157.4,309.7z"/>
	<path class="st2" d="M166.9,310c-2.1,0-3.5-0.7-4.7-1.7l1.7-2.4c1,0.8,1.9,1.2,3.1,1.2c1.8,0,2.7-1.3,2.9-3.3c-0.7,0.6-1.7,1-2.9,1
		c-3.1,0-5.1-1.7-5.1-4.7c0-2.9,2.2-5.1,5.5-5.1c1.9,0,3.1,0.5,4.2,1.6c1,1,1.7,2.6,1.7,5.4C173.2,306.8,171,310,166.9,310z
		 M167.4,297.8c-1.6,0-2.4,0.9-2.4,2.2s0.9,2.2,2.5,2.2s2.5-0.9,2.5-2.2C170,298.7,169,297.8,167.4,297.8z"/>
	<path class="st2" d="M181.8,310c-3.8,0-6.4-3.2-6.4-7.4c0-4.2,2.6-7.5,6.4-7.5s6.4,3.2,6.4,7.4C188.2,306.7,185.6,310,181.8,310z
		 M181.8,298c-1.9,0-3.1,1.9-3.1,4.6s1.3,4.6,3.2,4.6s3.1-1.9,3.1-4.6S183.7,298,181.8,298z"/>
	<path class="st2" d="M191.6,295.3h8.8v2.8h-6.1l-0.2,2.5c0.6-0.1,1.1-0.2,1.9-0.2c2.8,0,5,1.4,5,4.6c0,3.1-2.2,5-5.5,5
		c-2.3,0-4-0.8-5.4-2.2l1.9-2.3c1.1,1,2.2,1.6,3.4,1.6c1.5,0,2.4-0.7,2.4-2s-1-2-2.5-2c-0.9,0-1.7,0.2-2.4,0.5l-1.8-1.2L191.6,295.3
		z"/>
	<path class="st2" d="M210.1,309.7v-14.4H221v2.8h-7.7v2.9h6.8v2.8h-6.8v3h7.8v2.8h-11V309.7z"/>
	<path class="st2" d="M230.5,309.7v-6.1c0-1.5-0.7-2.2-1.9-2.2s-2,0.8-2,2.2v6.1h-3.1v-11h3.1v1.6c0.7-0.9,1.6-1.8,3.2-1.8
		c2.4,0,3.7,1.6,3.7,4.1v7.1L230.5,309.7L230.5,309.7z"/>
	<path class="st2" d="M241.3,313.1c-1.8,0-3.5-0.4-4.9-1.2l1.1-2.3c1.1,0.6,2.3,1,3.7,1c2.1,0,3.1-1,3.1-3V307
		c-0.9,1.1-1.9,1.8-3.6,1.8c-2.6,0-4.9-1.9-4.9-5.1l0,0c0-3.3,2.4-5.1,4.9-5.1c1.7,0,2.7,0.7,3.6,1.6v-1.4h3.1v8.5
		C247.5,311.4,245.4,313.1,241.3,313.1z M244.4,303.7c0-1.5-1.2-2.5-2.7-2.5s-2.7,1-2.7,2.5l0,0c0,1.5,1.2,2.5,2.7,2.5
		S244.4,305.2,244.4,303.7L244.4,303.7z"/>
	<path class="st2" d="M250.4,309.7v-15h3.1v15H250.4z"/>
	<path class="st2" d="M256.5,297.5v-2.8h3.3v2.8H256.5z M256.6,309.7v-11h3.1v11H256.6z"/>
	<path class="st2" d="M266.5,309.9c-1.5,0-3.3-0.5-4.7-1.7l1.3-2.1c1.2,0.9,2.4,1.3,3.5,1.3c0.9,0,1.3-0.3,1.3-0.8l0,0
		c0-0.7-1.1-0.9-2.3-1.3c-1.5-0.5-3.3-1.2-3.3-3.3l0,0c0-2.2,1.8-3.5,4-3.5c1.4,0,2.9,0.5,4.1,1.3l-1.2,2.2c-1.1-0.6-2.2-1-3-1
		s-1.2,0.3-1.2,0.8l0,0c0,0.6,1,0.9,2.2,1.3c1.5,0.5,3.3,1.3,3.3,3.3l0,0C270.7,308.8,268.9,309.9,266.5,309.9z"/>
	<path class="st2" d="M279.9,309.7v-6.1c0-1.5-0.7-2.2-1.9-2.2c-1.2,0-2,0.8-2,2.2v6.1h-3v-15h3.1v5.5c0.7-0.9,1.6-1.8,3.2-1.8
		c2.4,0,3.7,1.6,3.7,4.1v7.1L279.9,309.7L279.9,309.7z"/>
	<path class="st2" d="M299,310c-4.2,0-7.4-3.3-7.4-7.4l0,0c0-4.1,3.1-7.4,7.5-7.4c2.7,0,4.3,0.9,5.7,2.2l-2,2.3
		c-1.1-1-2.2-1.6-3.7-1.6c-2.4,0-4.2,2-4.2,4.5l0,0c0,2.5,1.7,4.5,4.2,4.5c1.6,0,2.7-0.7,3.8-1.7l2,2C303.4,309,301.8,310,299,310z"
		/>
	<path class="st2" d="M307.2,309.7v-15h3.1v15H307.2z"/>
	<path class="st2" d="M313.4,297.5v-2.8h3.3v2.8H313.4z M313.4,309.7v-11h3.1v11H313.4z"/>
	<path class="st2" d="M324.7,310c-3.3,0-5.7-2.5-5.7-5.7l0,0c0-3.1,2.4-5.7,5.8-5.7c2.1,0,3.4,0.7,4.4,1.8l-1.9,2.1
		c-0.7-0.7-1.4-1.2-2.5-1.2c-1.6,0-2.7,1.4-2.7,3l0,0c0,1.7,1.1,3,2.8,3c1,0,1.8-0.5,2.5-1.2l1.8,1.8
		C328.1,309.1,326.9,310,324.7,310z"/>
	<path class="st2" d="M338.3,309.7l-2.9-4.5l-1.1,1.2v3.4h-3.1v-15h3.1v8l3.7-4h3.7l-4.2,4.3l4.3,6.7h-3.5V309.7z"/>
	<path class="st2" d="M353.1,305.3h-7.7c0.3,1.4,1.3,2.2,2.7,2.2c1,0,1.8-0.3,2.7-1.1l1.8,1.6c-1,1.3-2.5,2.1-4.5,2.1
		c-3.3,0-5.8-2.3-5.8-5.7l0,0c0-3.1,2.2-5.7,5.4-5.7c3.7,0,5.4,2.9,5.4,6l0,0C353.2,304.8,353.1,305,353.1,305.3z M347.8,301
		c-1.3,0-2.1,0.9-2.4,2.3h4.7C349.9,302,349.1,301,347.8,301z"/>
	<path class="st2" d="M362,301.8c-2.1,0-3.4,1.3-3.4,3.9v4.1h-3.1v-11h3.1v2.2c0.6-1.5,1.7-2.5,3.5-2.4v3.3H362V301.8z"/>
	<path class="st2" d="M367.9,309.9c-1.5,0-3.3-0.5-4.7-1.7l1.3-2.1c1.2,0.9,2.4,1.3,3.5,1.3c0.9,0,1.3-0.3,1.3-0.8l0,0
		c0-0.7-1.1-0.9-2.3-1.3c-1.5-0.5-3.3-1.2-3.3-3.3l0,0c0-2.2,1.8-3.5,4-3.5c1.4,0,2.9,0.5,4.1,1.3l-1.2,2.2c-1.1-0.6-2.2-1-3-1
		s-1.2,0.3-1.2,0.8l0,0c0,0.6,1,0.9,2.2,1.3c1.5,0.5,3.3,1.3,3.3,3.3l0,0C372.1,308.8,370.3,309.9,367.9,309.9z"/>
</g>
<rect x="452.9" y="284.2" class="st1" width="273.9" height="37.7"/>
<g>
	<path class="st2" d="M468.2,300.7l-2.2-1.8c1.4-1.9,2.8-3,5.4-3c3.1,0,5,1.8,5,4.5c0,2.4-1.2,3.6-3.8,5.6l-2.3,1.8h6.3v2.7H466V308
		l4.8-3.9c1.8-1.5,2.5-2.3,2.5-3.5s-0.8-1.9-1.9-1.9C470.1,298.8,469.3,299.4,468.2,300.7z"/>
	<path class="st2" d="M487.9,300c-0.9-0.7-1.7-1.2-2.9-1.2c-1.8,0-2.7,1.4-2.9,3.3c0.7-0.5,1.6-0.9,3-0.9c2.9,0,5.1,1.6,5.1,4.6
		s-2.4,5-5.5,5c-1.9,0-3.1-0.5-4.2-1.5c-1-1-1.7-2.6-1.7-5.5c0-4.5,2-7.9,6.3-7.9c2,0,3.2,0.6,4.5,1.6L487.9,300z M484.4,303.8
		c-1.6,0-2.5,0.9-2.5,2.1c0,1.3,0.9,2.2,2.5,2.2s2.5-0.9,2.5-2.1C486.9,304.7,486,303.8,484.4,303.8z"/>
	<path class="st2" d="M492.7,298.9v-2.7h9.7v2.4l-3.6,3.5c2,0.3,3.9,1.4,3.9,4c0,2.7-2,4.7-5.2,4.7c-2.6,0-4.4-1-5.6-2.5l2.2-2.1
		c1,1.1,2,1.7,3.5,1.7c1.2,0,2-0.7,2-1.8c0-1.2-1-1.8-2.8-1.8h-1.3l-0.5-2l3.4-3.5L492.7,298.9L492.7,298.9z"/>
	<path class="st2" d="M506.3,310.6H505v-3.3h3.3v2.8c0,2.7-1.4,3.8-3.8,3.8l-0.3-1.3C505.7,312.4,506.4,311.7,506.3,310.6z"/>
	<path class="st2" d="M516.7,310.8c-3.8,0-6.4-3.2-6.4-7.4c0-4.2,2.6-7.5,6.4-7.5s6.4,3.2,6.4,7.4
		C523.1,307.5,520.6,310.8,516.7,310.8z M516.7,298.8c-1.9,0-3.1,1.9-3.1,4.6s1.3,4.6,3.2,4.6s3.1-1.9,3.1-4.6
		S518.6,298.8,516.7,298.8z"/>
	<path class="st2" d="M531.7,310.8c-3.8,0-6.4-3.2-6.4-7.4c0-4.2,2.6-7.5,6.4-7.5s6.4,3.2,6.4,7.4
		C538.1,307.5,535.6,310.8,531.7,310.8z M531.7,298.8c-1.9,0-3.1,1.9-3.1,4.6s1.3,4.6,3.2,4.6s3.1-1.9,3.1-4.6
		S533.6,298.8,531.7,298.8z"/>
	<path class="st2" d="M543.8,296.1h2.2v14.5h-3.1v-11.3l-2.5,0.6l-0.7-2.6L543.8,296.1z"/>
	<path class="st2" d="M566.4,310.6l-1.3-3.2H559l-1.3,3.2h-3.2l6.2-14.5h2.9l6.2,14.5H566.4z M562.1,299.9l-1.9,4.7h3.8L562.1,299.9
		z"/>
	<path class="st2" d="M578.1,302.6c-2.1,0-3.4,1.3-3.4,3.9v4.1h-3.1v-11h3.1v2.2c0.6-1.5,1.7-2.5,3.5-2.4v3.3h-0.1V302.6z"/>
	<path class="st2" d="M586.1,310.6v-1.2c-0.8,0.8-1.8,1.4-3.3,1.4c-2.1,0-3.8-1.2-3.8-3.4l0,0c0-2.4,1.8-3.5,4.4-3.5
		c1.1,0,1.9,0.2,2.7,0.5v-0.2c0-1.3-0.8-2-2.4-2c-1.2,0-2,0.2-3,0.6l-0.8-2.4c1.2-0.5,2.4-0.9,4.3-0.9c3.4,0,4.9,1.8,4.9,4.7v6.4
		H586.1z M586.2,306.1c-0.5-0.2-1.2-0.4-2-0.4c-1.3,0-2.2,0.5-2.2,1.5l0,0c0,0.8,0.7,1.3,1.7,1.3c1.5,0,2.4-0.8,2.4-1.9L586.2,306.1
		L586.2,306.1z"/>
	<path class="st2" d="M598.4,310.8c-1.7,0-2.7-0.8-3.4-1.6v1.4h-3.1v-15h3.1v5.6c0.8-1,1.8-1.8,3.4-1.8c2.6,0,5,2,5,5.7l0,0
		C603.4,308.7,601,310.8,598.4,310.8z M600.3,305c0-1.8-1.2-3-2.7-3s-2.7,1.2-2.7,3l0,0c0,1.8,1.2,3,2.7,3S600.3,306.9,600.3,305
		L600.3,305z"/>
	<path class="st2" d="M605.8,298.3v-2.8h3.3v2.8H605.8z M605.9,310.6v-11h3.1v11H605.9z"/>
	<path class="st2" d="M617.1,310.8c-3.3,0-5.7-2.5-5.7-5.7l0,0c0-3.1,2.4-5.7,5.8-5.7c2.1,0,3.4,0.7,4.4,1.8l-1.9,2.1
		c-0.7-0.7-1.4-1.2-2.5-1.2c-1.6,0-2.7,1.4-2.7,3l0,0c0,1.7,1.1,3,2.8,3c1,0,1.8-0.5,2.5-1.2l1.8,1.8
		C620.6,310,619.3,310.8,617.1,310.8z"/>
	<path class="st2" d="M636.9,310.8c-4.2,0-7.4-3.3-7.4-7.4l0,0c0-4.1,3.1-7.4,7.5-7.4c2.7,0,4.3,0.9,5.7,2.2l-2,2.3
		c-1.1-1-2.2-1.6-3.7-1.6c-2.4,0-4.2,2-4.2,4.5l0,0c0,2.5,1.7,4.5,4.2,4.5c1.6,0,2.7-0.7,3.8-1.7l2,2
		C641.3,309.8,639.7,310.8,636.9,310.8z"/>
	<path class="st2" d="M645.1,310.6v-15h3.1v15H645.1z"/>
	<path class="st2" d="M651.2,298.3v-2.8h3.3v2.8H651.2z M651.3,310.6v-11h3.1v11H651.3z"/>
	<path class="st2" d="M662.6,310.8c-3.3,0-5.7-2.5-5.7-5.7l0,0c0-3.1,2.4-5.7,5.8-5.7c2.1,0,3.4,0.7,4.4,1.8l-1.9,2.1
		c-0.7-0.7-1.4-1.2-2.5-1.2c-1.6,0-2.7,1.4-2.7,3l0,0c0,1.7,1.1,3,2.8,3c1,0,1.8-0.5,2.5-1.2l1.8,1.8
		C666,310,664.8,310.8,662.6,310.8z"/>
	<path class="st2" d="M676.2,310.6l-2.9-4.5l-1.1,1.2v3.4h-3.1v-15h3.1v8l3.7-4h3.7l-4.2,4.3l4.3,6.7h-3.5V310.6z"/>
	<path class="st2" d="M691,306.1h-7.7c0.3,1.4,1.3,2.2,2.7,2.2c1,0,1.8-0.3,2.7-1.1l1.8,1.6c-1,1.3-2.5,2.1-4.5,2.1
		c-3.3,0-5.8-2.3-5.8-5.7l0,0c0-3.1,2.2-5.7,5.4-5.7c3.7,0,5.4,2.9,5.4,6l0,0C691,305.7,691,305.8,691,306.1z M685.7,301.8
		c-1.3,0-2.1,0.9-2.4,2.3h4.7C687.8,302.8,687,301.8,685.7,301.8z"/>
	<path class="st2" d="M699.8,302.6c-2.1,0-3.3,1.3-3.3,3.9v4.1h-3.1v-11h3.1v2.2c0.6-1.5,1.7-2.5,3.5-2.4v3.3h-0.2V302.6z"/>
	<path class="st2" d="M705.8,310.8c-1.5,0-3.3-0.5-4.7-1.7l1.3-2.1c1.2,0.9,2.4,1.3,3.5,1.3c0.9,0,1.3-0.3,1.3-0.8l0,0
		c0-0.7-1.1-0.9-2.3-1.3c-1.5-0.5-3.3-1.2-3.3-3.3l0,0c0-2.2,1.8-3.5,4-3.5c1.4,0,2.9,0.5,4.1,1.3l-1.2,2.2c-1.1-0.6-2.2-1-3-1
		s-1.2,0.3-1.2,0.8l0,0c0,0.6,1,0.9,2.2,1.3c1.5,0.5,3.3,1.3,3.3,3.3l0,0C710,309.7,708.2,310.8,705.8,310.8z"/>
</g>
<g>
	<g>
		<path class="st1" d="M124.3,279.5c0.4-0.2,0.6-0.4,0.1-0.8c-0.2,0.2-0.3,0.4-0.5,0.6c-0.1,0.1-0.3,0.2-0.5,0.2c-0.6,0-1.3,0-1.9,0
			c-0.2-0.4-0.1-0.8,0.1-1.2c0.5-0.8,0.9-1.7,1.4-2.5c0.6-0.8,1-1.8,1.5-2.6c1.3-2.1,2.4-4.2,3.7-6.4c1.3-2.3,2.7-4.6,4-6.9
			c1-1.7,1.9-3.4,2.9-5.1c0.2-0.4,0.5-0.8,0.6-1.2c0.2-0.3,0.3-0.5,0.8-0.5c-0.1-0.1-0.2-0.2-0.3-0.4c0.4-0.7,0.8-1.3,1.1-2
			c0.2,0.1,0.3,0.1,0.6,0.2c-0.1-0.3-0.2-0.4-0.3-0.7c0.5-0.9,1-1.8,1.5-2.8c0.3-0.5,0.7-0.2,1.1-0.4c-0.1-0.2-0.3-0.4-0.4-0.6
			c0.5-0.3,0.8-0.3,1.1,0.2c0.9,1.5,1.7,3.1,2.6,4.6c0.8,1.4,1.6,2.7,2.3,4.1c0.4,0.7,0.8,1.4,1.1,2.1c0.3,0.7,0.8,1.3,1.2,2
			c0.5,0.8,1,1.7,1.5,2.5c0.3,0.4-0.1,0.8,0.1,1.2c0.2-0.1,0.3-0.2,0.5-0.3c0.1,0.6,0.2,1.1,0.3,1.6c0.2,0,0.4,0,0.5,0.1
			c0.3,0.5,0.7,0.9,0.8,1.5c0,0.1,0,0.2,0,0.2c0.9,0.8,1.2,1.9,1.8,2.8c1,1.5,1.8,3.1,2.7,4.7c0.7,1.3,1.5,2.5,2.2,3.8
			c0.1,0.1,0.2,0.3,0,0.5c-0.1,0.1,0,0.4,0,0.7c0.2-0.2,0.3-0.3,0.4-0.3c0,0,0,0,0.1,0c0,0.7,0,0.7-0.5,0.7c-0.7,0-1.5,0-2.3,0
			c0-0.2,0-0.4,0-0.6c-0.1,0-0.1,0-0.2,0c-0.7,0.7-1.6,0.6-2.5,0.6c-1.5,0-3,0-4.5,0c-1.4,0-2.9,0-4.3,0c-0.1-0.2-0.2-0.3-0.3-0.6
			c-0.1,0.2-0.2,0.4-0.3,0.5c-0.8,0-1.5,0-2.3,0c-0.1-0.2-0.1-0.3-0.2-0.5c-0.2,0.2-0.3,0.3-0.5,0.5c-0.5,0-1.1,0-1.8,0
			c-0.6,0-1.3,0-1.9,0c-0.6,0-1.3,0-1.9,0c-0.6,0-1.3,0.2-1.9-0.2c-0.6,0.5-1.2,0.2-1.8,0.2s-1.3,0-1.9,0c-0.6,0-1.3,0-1.9,0
			c-0.6,0-1.3,0-1.9,0C125.7,279.5,125,279.5,124.3,279.5z M131,265.5c-0.1,0-0.1-0.1-0.2-0.1c-0.1,0.1-0.3,0.3-0.3,0.4
			c0.1,0.4-0.1,0.7-0.3,1c0.2,0.1,0.4,0.1,0.5,0.1s0.3,0.1,0.3,0.1c0.1-0.1,0.2-0.3,0.1-0.4c-0.1-0.2-0.3-0.3-0.4-0.4
			C130.9,265.9,131,265.7,131,265.5z M129,270.1c0.3,0.2,0.4,0.4,0.5,0.5c-0.2,0.6-0.2,0.6,0.3,0.6c0.1-0.4,0.1-0.8,0.2-1.1
			C129.8,270.1,129.5,270.1,129,270.1z M131.7,264.7c-0.3-0.3-0.5-0.6-0.7-0.8c-0.6,0.5,0,0.8,0,1.1c0,0,0.1,0,0.2,0.1
			C131.4,265,131.5,264.9,131.7,264.7z M135.7,277.2c-0.3,0.5-0.5,0.9-0.7,1.4c0.3,0,0.6-0.1,0.9-0.1
			C135.8,278.1,135.8,277.7,135.7,277.2z M136.4,259.3l-0.1-0.1c-0.2,0.5-1,0.4-1.1,1.1c0.3,0,0.5,0,0.7,0
			C136.1,259.9,136.2,259.6,136.4,259.3z M144.8,261.3c0.3-0.1,0.4-0.3,0.3-0.6c-0.1-0.2-1-0.4-1.1-0.2c-0.1,0.1-0.1,0.3-0.1,0.3
			c0,0.1,0.2,0.1,0.3,0.1C144.7,260.8,144.7,260.8,144.8,261.3z M150.2,278.5c0.6-0.3,0.6-0.3,0.2-1.3c-0.1,0.1-0.3,0.1-0.4,0.3
			c0,0.1,0,0.3,0.1,0.4C150.1,278.1,150.2,278.3,150.2,278.5z M151.4,268.7c0,0.1,0.1,0.1,0.1,0.2c0.5,0,1-0.1,1.6-0.1
			c-0.4-0.2-0.7-0.4-1-0.6C152,268.4,152,268.8,151.4,268.7z M138.6,252.5c-0.3,0.4-0.8,0.8-0.7,1.4
			C138.6,253.7,138.4,253,138.6,252.5z"/>
	</g>
</g>
<g>
	<g>
		<path class="st1" d="M456.3,280.2c0.4-0.2,0.6-0.4,0.1-0.8c-0.2,0.2-0.3,0.4-0.5,0.6c-0.1,0.1-0.3,0.2-0.5,0.2c-0.6,0-1.3,0-1.9,0
			c-0.2-0.4-0.1-0.8,0.1-1.2c0.5-0.8,0.9-1.7,1.4-2.5c0.6-0.8,1-1.8,1.5-2.6c1.3-2.1,2.4-4.2,3.7-6.4c1.3-2.3,2.7-4.6,4-6.9
			c1-1.7,1.9-3.4,2.9-5.1c0.2-0.4,0.5-0.8,0.6-1.2c0.2-0.3,0.3-0.5,0.8-0.5c-0.1-0.1-0.2-0.2-0.3-0.4c0.4-0.7,0.8-1.3,1.1-2
			c0.2,0.1,0.3,0.1,0.6,0.2c-0.1-0.3-0.2-0.4-0.3-0.7c0.5-0.9,1-1.8,1.5-2.8c0.3-0.5,0.7-0.2,1.1-0.4c-0.1-0.2-0.3-0.4-0.4-0.6
			c0.5-0.3,0.8-0.3,1.1,0.2c0.9,1.5,1.7,3.1,2.6,4.6c0.8,1.4,1.6,2.7,2.3,4.1c0.4,0.7,0.8,1.4,1.1,2.1c0.3,0.7,0.8,1.3,1.2,2
			c0.5,0.8,1,1.7,1.5,2.5c0.3,0.4-0.1,0.8,0.1,1.2c0.2-0.1,0.3-0.2,0.5-0.3c0.1,0.6,0.2,1.1,0.3,1.6c0.2,0,0.4,0,0.5,0.1
			c0.3,0.5,0.7,0.9,0.8,1.5c0,0.1,0,0.2,0,0.2c0.9,0.8,1.2,1.9,1.8,2.8c1,1.5,1.8,3.1,2.7,4.7c0.7,1.3,1.5,2.5,2.2,3.8
			c0.1,0.1,0.2,0.3,0,0.5c-0.1,0.1,0,0.4,0,0.7c0.2-0.2,0.3-0.3,0.4-0.3c0,0,0,0,0.1,0c0,0.7,0,0.7-0.5,0.7c-0.7,0-1.5,0-2.3,0
			c0-0.2,0-0.4,0-0.6c-0.1,0-0.1,0-0.2,0c-0.7,0.7-1.6,0.6-2.5,0.6c-1.5,0-3,0-4.5,0c-1.4,0-2.9,0-4.3,0c-0.1-0.2-0.2-0.3-0.3-0.6
			c-0.1,0.2-0.2,0.4-0.3,0.5c-0.8,0-1.5,0-2.3,0c-0.1-0.2-0.1-0.3-0.2-0.5c-0.2,0.2-0.3,0.3-0.5,0.5c-0.5,0-1.1,0-1.8,0
			c-0.6,0-1.3,0-1.9,0s-1.3,0-1.9,0s-1.3,0.2-1.9-0.2c-0.6,0.5-1.2,0.2-1.8,0.2c-0.6,0-1.3,0-1.9,0s-1.3,0-1.9,0s-1.3,0-1.9,0
			C457.7,280.2,457,280.2,456.3,280.2z M463,266.2c-0.1,0-0.1-0.1-0.2-0.1c-0.1,0.1-0.3,0.3-0.3,0.4c0.1,0.4-0.1,0.7-0.3,1
			c0.2,0.1,0.4,0.1,0.5,0.1s0.3,0.1,0.3,0.1c0.1-0.1,0.2-0.3,0.1-0.4c-0.1-0.2-0.3-0.3-0.4-0.4C462.9,266.7,463,266.4,463,266.2z
			 M461,270.9c0.3,0.2,0.4,0.4,0.5,0.5c-0.2,0.6-0.2,0.6,0.3,0.6c0.1-0.4,0.1-0.8,0.2-1.1C461.7,270.9,461.5,270.9,461,270.9z
			 M463.7,265.4c-0.3-0.3-0.5-0.6-0.7-0.8c-0.6,0.5,0,0.8,0,1.1c0,0,0.1,0,0.2,0.1C463.3,265.8,463.5,265.6,463.7,265.4z M467.7,278
			c-0.3,0.5-0.5,0.9-0.7,1.4c0.3,0,0.6-0.1,0.9-0.1C467.8,278.8,467.7,278.5,467.7,278z M468.4,260.1l-0.1-0.1
			c-0.2,0.5-1,0.4-1.1,1.1c0.3,0,0.5,0,0.7,0C468,260.7,468.2,260.4,468.4,260.1z M476.8,262c0.3-0.1,0.4-0.3,0.3-0.6
			c-0.1-0.2-1-0.4-1.1-0.2c-0.1,0.1-0.1,0.3-0.1,0.3c0,0.1,0.2,0.1,0.3,0.1C476.7,261.6,476.7,261.6,476.8,262z M482.2,279.3
			c0.6-0.3,0.6-0.3,0.2-1.3c-0.1,0.1-0.3,0.1-0.4,0.3c0,0.1,0,0.3,0.1,0.4C482.1,278.9,482.1,279,482.2,279.3z M483.4,269.4
			c0,0.1,0.1,0.1,0.1,0.2c0.5,0,1-0.1,1.6-0.1c-0.4-0.2-0.7-0.4-1-0.6C484,269.2,483.9,269.5,483.4,269.4z M470.5,253.3
			c-0.3,0.4-0.8,0.8-0.7,1.4C470.6,254.5,470.4,253.8,470.5,253.3z"/>
	</g>
</g>
<g>
	<g>
		<path class="st5" d="M280.7,6.5V16h-2.6V6.5h-3.6V4.1h9.9v2.4H280.7z"/>
		<path class="st5" d="M294.5,16v-4.8h-4.8V16H287V4.1h2.6v4.7h4.8V4.1h2.6V16H294.5z"/>
		<path class="st5" d="M300.6,16V4.1h9v2.3h-6.4v2.4h5.6v2.3h-5.6v2.5h6.5V16H300.6z"/>
		<path class="st5" d="M325.7,16l-2.5-3.8h-2.1V16h-2.6V4.1h5.4c2.8,0,4.5,1.5,4.5,3.9l0,0c0,1.9-1,3.1-2.5,3.7l2.9,4.2h-3.1V16z
			 M325.7,8.1c0-1.1-0.8-1.7-2.1-1.7H321v3.4h2.7C325,9.9,325.7,9.2,325.7,8.1L325.7,8.1z"/>
		<path class="st5" d="M331.4,16V4.1h9v2.3H334v2.4h5.6v2.3H334v2.5h6.5V16H331.4z"/>
		<path class="st5" d="M348.1,16h-4.6V4.1h4.6c3.7,0,6.3,2.6,6.3,5.9l0,0C354.5,13.4,351.9,16,348.1,16z M351.7,10
			c0-2.1-1.4-3.6-3.6-3.6h-2v7.2h2C350.3,13.6,351.7,12.2,351.7,10L351.7,10z"/>
		<path class="st5" d="M357.6,16V4.1h2.6V16H357.6z"/>
		<path class="st5" d="M371.1,16l-2.5-3.8h-2.1V16h-2.6V4.1h5.4c2.8,0,4.5,1.5,4.5,3.9l0,0c0,1.9-1,3.1-2.5,3.7l2.9,4.2h-3.1V16z
			 M371.1,8.1c0-1.1-0.8-1.7-2.1-1.7h-2.6v3.4h2.7C370.4,9.9,371.1,9.2,371.1,8.1L371.1,8.1z"/>
		<path class="st5" d="M376.8,16V4.1h9v2.3h-6.4v2.4h5.6v2.3h-5.6v2.5h6.5V16H376.8z"/>
		<path class="st5" d="M394.5,16.2c-3.5,0-6.1-2.7-6.1-6.1l0,0c0-3.4,2.5-6.2,6.2-6.2c2.2,0,3.6,0.7,4.7,1.8l-1.7,1.9
			c-0.9-0.8-1.9-1.3-3-1.3c-2,0-3.5,1.7-3.5,3.7l0,0c0,2,1.4,3.7,3.5,3.7c1.4,0,2.2-0.5,3.1-1.4l1.7,1.7
			C398.1,15.4,396.8,16.2,394.5,16.2z"/>
		<path class="st5" d="M407.5,6.5V16h-2.6V6.5h-3.6V4.1h9.9v2.4H407.5z"/>
		<path class="st5" d="M428.9,16V8.2l-3.3,5.1h-0.1l-3.3-5V16h-2.6V4.1h2.8l3.1,5l3.1-5h2.8V16H428.9z"/>
		<path class="st5" d="M435.1,16V4.1h9v2.3h-6.4v2.4h5.6v2.3h-5.6v2.5h6.5V16H435.1z"/>
		<path class="st5" d="M452.5,6.5V16h-2.6V6.5h-3.6V4.1h9.9v2.4H452.5z"/>
		<path class="st5" d="M466.3,16v-4.8h-4.8V16h-2.6V4.1h2.6v4.7h4.8V4.1h2.6V16H466.3z"/>
		<path class="st5" d="M478.2,16.2c-3.7,0-6.3-2.7-6.3-6.1l0,0c0-3.4,2.7-6.2,6.3-6.2c3.7,0,6.3,2.7,6.3,6.1l0,0
			C484.5,13.4,481.9,16.2,478.2,16.2z M481.8,10c0-2-1.5-3.7-3.6-3.7s-3.6,1.7-3.6,3.7l0,0c0,2,1.5,3.7,3.6,3.7
			C480.3,13.8,481.8,12.1,481.8,10L481.8,10z"/>
		<path class="st5" d="M492.2,16h-4.6V4.1h4.6c3.7,0,6.3,2.6,6.3,5.9l0,0C498.5,13.4,495.9,16,492.2,16z M495.8,10
			c0-2.1-1.4-3.6-3.6-3.6h-2v7.2h2C494.3,13.6,495.8,12.2,495.8,10L495.8,10z"/>
		<path class="st5" d="M286.5,36.4V24.5h9v2.3h-6.4v2.4h5.6v2.3h-5.6V34h6.5v2.3h-9.1V36.4z"/>
		<path class="st5" d="M306.9,36.4l-5.8-7.6v7.6h-2.6V24.5h2.4l5.6,7.3v-7.3h2.6v11.9H306.9z"/>
		<path class="st5" d="M318.4,36.6c-3.7,0-6.3-2.6-6.3-6.1l0,0c0-3.4,2.6-6.2,6.2-6.2c2.1,0,3.4,0.6,4.7,1.6l-1.6,2
			c-0.9-0.8-1.7-1.2-3.1-1.2c-1.9,0-3.4,1.7-3.4,3.7l0,0c0,2.2,1.5,3.8,3.6,3.8c1,0,1.8-0.2,2.5-0.7v-1.7h-2.6v-2.3h5.2v5.2
			C322.2,35.7,320.6,36.6,318.4,36.6z"/>
		<path class="st5" d="M335.5,36.4l-1.1-2.7h-5l-1.1,2.7h-2.7l5.1-12h2.4l5.1,12H335.5z M331.9,27.5l-1.6,3.9h3.2L331.9,27.5z"/>
		<path class="st5" d="M345.7,36.6c-3.7,0-6.3-2.6-6.3-6.1l0,0c0-3.4,2.6-6.2,6.2-6.2c2.1,0,3.4,0.6,4.7,1.6l-1.6,2
			c-0.9-0.8-1.7-1.2-3.1-1.2c-1.9,0-3.4,1.7-3.4,3.7l0,0c0,2.2,1.5,3.8,3.6,3.8c1,0,1.8-0.2,2.5-0.7v-1.7h-2.6v-2.3h5.2v5.2
			C349.6,35.7,347.9,36.6,345.7,36.6z"/>
		<path class="st5" d="M354,36.4V24.5h9v2.3h-6.4v2.4h5.6v2.3h-5.6V34h6.5v2.3H354V36.4z"/>
		<path class="st5" d="M375.4,36.4v-7.8l-3.3,5.1H372l-3.3-5v7.7h-2.6V24.5h2.8l3.1,5l3.1-5h2.8v11.9H375.4z"/>
		<path class="st5" d="M381.5,36.4V24.5h9v2.3h-6.4v2.4h5.6v2.3h-5.6V34h6.5v2.3h-9.1V36.4z"/>
		<path class="st5" d="M401.9,36.4l-5.8-7.6v7.6h-2.6V24.5h2.4l5.6,7.3v-7.3h2.6v11.9H401.9z"/>
		<path class="st5" d="M413.1,26.9v9.5h-2.6v-9.5h-3.6v-2.4h9.9v2.4C416.8,26.9,413.1,26.9,413.1,26.9z"/>
		<path class="st5" d="M432.4,36.4l-2.5-3.8h-2.1v3.8h-2.6V24.5h5.4c2.8,0,4.5,1.5,4.5,3.9l0,0c0,1.9-1,3.1-2.5,3.7l2.9,4.2h-3.1
			V36.4z M432.4,28.5c0-1.1-0.8-1.7-2.1-1.7h-2.6v3.4h2.7C431.7,30.3,432.4,29.6,432.4,28.5L432.4,28.5z"/>
		<path class="st5" d="M438.1,36.4V24.5h9v2.3h-6.4v2.4h5.6v2.3h-5.6V34h6.5v2.3h-9.1V36.4z"/>
		<path class="st5" d="M459.1,36.4l-1.1-2.7h-5l-1.1,2.7h-2.7l5.1-12h2.4l5.1,12H459.1z M455.5,27.5l-1.6,3.9h3.2L455.5,27.5z"/>
		<path class="st5" d="M469.1,36.6c-3.5,0-6.1-2.7-6.1-6.1l0,0c0-3.4,2.5-6.2,6.2-6.2c2.2,0,3.6,0.7,4.7,1.8l-1.7,1.9
			c-0.9-0.8-1.9-1.3-3-1.3c-2,0-3.5,1.7-3.5,3.7l0,0c0,2,1.4,3.7,3.5,3.7c1.4,0,2.2-0.5,3.1-1.4l1.7,1.7
			C472.8,35.8,471.4,36.6,469.1,36.6z"/>
		<path class="st5" d="M484.2,36.4v-4.8h-4.8v4.8h-2.6V24.5h2.6v4.7h4.8v-4.7h2.6v11.9H484.2z"/>
	</g>
</g>
</svg>
