<?xml version="1.0" encoding="utf-8"?>
<!-- Generator: Adobe Illustrator 19.2.1, SVG Export Plug-In . SVG Version: 6.00 Build 0)  -->
<svg version="1.1" id="Layer_1" xmlns="http://www.w3.org/2000/svg" xmlns:xlink="http://www.w3.org/1999/xlink" x="0px" y="0px"
	 viewBox="0 0 858.3 89.2" style="enable-background:new 0 0 858.3 89.2;" xml:space="preserve">
<style type="text/css">
	.st0{fill:#F37046;}
	.st1{fill:#B4B5B6;}
	.st2{fill:#757576;}
	.st3{font-family:'GothamHTF-Bold';}
	.st4{font-size:17px;}
</style>
<g>
	<path class="st0" d="M2.9,47.7C6,37.3,12.8,26.9,15.1,16.4C16,12.8,9.3,6.3,13,5.9C26.1,4.2,42.4,4.7,57.4,4
		c23.3-1,31.4,1.6,30.4,8.7c-1.9,12.4,0.9,24.8-1,37.2c-1.4,9,1.2,18,0.7,27c-0.2,4.2-4.3,6.3-19.6,6C19.1,82.1,3.2,87.7,5.8,66.4
		C6.6,60.2,5.9,54,5.9,47.8C4.9,47.8,3.9,47.7,2.9,47.7z"/>
	<g>
		<path class="st1" d="M781.4,80.1c0.3,0.9,0,1.3-0.9,1.2c-0.7-0.1-1.5-0.4-2.2-0.4c-0.4,0-0.9,0.4-1.3,0.4c-2.2,0-4.5,0-6.7,0
			c0-0.3-0.1-0.5-0.1-0.8c-0.2,0.1-0.5,0.1-0.7,0.2c-0.4,0.2-0.8,0.5-1.3,0.5c-7.7,0-15.4,0-23.2,0c-6,0-12.1,0-18.1,0
			c-0.4,0-0.8-0.2-1.2-0.4c-0.1,0-0.2,0.1-0.2,0.1c-0.2,0.1-0.5,0.3-0.7,0.2c-1.9-0.3-3.8,0.1-5.8,0c-2-0.1-4.1,0-6.1,0
			c-2,0-4,0-6,0c-2,0-4.1,0-6.1,0c-1.6,0-3.2,0-4.8,0c-0.5,0-1-0.4-1.4-0.6c0-0.1,0.1-0.2,0.1-0.3c-0.4,0.1-0.8,0.2-1.3,0.3
			c0.4,0.2,0.7,0.4,1.2,0.6c-2.4,0-4.7,0-6.9,0c-0.6,0-1.2-0.6-1.8,0c-0.1,0.1-0.4-0.3-0.6-0.4c-0.2-0.1-0.4-0.1-0.6-0.1
			c-0.7,0.1-1.4,0.4-2,0.4c-2.8,0.1-5.6,0.2-8.4,0c-2.6-0.2-5.3,0.2-7.9,0.1c-2.8-0.1-5.6,0-8.4,0c-2.8,0-5.5,0-8.4,0
			c0.1-0.2,0.1-0.4,0.2-0.7c-0.6,0.4-1.3,1.1-1.7-0.4c-0.2,0.5-0.4,0.8-0.6,1.1c-2-0.2-4.2,0.3-6.2-0.3c0-0.1,0-0.2,0.1-0.3
			c-0.3,0.2-0.5,0.5-0.8,0.5c-1.5,0-2.9,0-4.4-0.1c-0.2,0-0.3-0.3-0.5-0.3c-0.2-0.1-0.4-0.2-0.6-0.1c-1.5,0.7-3.7,0.8-5.2,0.2
			c-0.2-0.1-0.4,0-0.6,0.1c-0.4,0.1-0.7,0.3-1,0.3c-3.9,0-7.8,0.1-11.6,0c-1.3,0-2.6-0.3-3.9-0.4c-0.5,0-1,0.4-1.4,0.4
			c-8.1,0-16.1,0-24.2,0c-1.2,0-2.4,0-3.6,0c-0.3,0-0.6-0.5-0.7-0.5c-0.5,0.3-0.8,0.6-1.1,0.6c-2.1,0-4.2,0-6.4,0
			c0.1-0.2,0.2-0.4,0.2-0.6c-0.1,0-0.3-0.1-0.3-0.1c-0.6,0.8-1.4,0.7-2.2,0.7c-8.3,0-16.7,0-25,0c-0.5,0-1-0.1-1.6-0.1
			c0.2-0.3,0.4-0.5,0.6-0.7c-0.6-0.1-1.1-0.1-1.7-0.2c0,0.3,0,0.6,0,1c-0.1,0-0.3,0-0.4,0c-2.7,0-5.5,0-8.2,0c-0.3,0-0.7-0.3-1-0.4
			c-0.2,0-0.4,0.2-0.5,0.2c-1.5-0.1-3-0.1-4.5-0.2c-0.1,0-0.2-0.1-0.2-0.1c-1.2,0.4-1.1-0.3-0.9-1.2c-0.6,0.2-1,0.3-1.7,0.6
			c0.7,0.3,1.1,0.5,1.5,0.6c0,0.1,0,0.2,0,0.2c-0.2,0.1-0.4,0.1-0.6,0.1c-4,0-8,0.1-12,0c-2.8-0.1-5.5,0.1-8.3,0
			c-0.3,0-0.5-0.2-0.9-0.3c-0.6,0.1-1.3,0.3-2,0.3c-1.3,0.1-2.6,0.1-3.8,0c-0.9-0.1-1.8,0.1-2.7,0c-1,0-2,0-3,0c-1.1,0-2.2,0-3.2,0
			c-1,0-2.1,0-3.1,0c-3.9,0-7.8-0.1-11.7-0.1c-3,0-6,0-9.1,0.1c-1.9,0-3.8,0-5.7,0c-0.4,0-0.8-0.2-1.4-0.4c-0.3,0.1-0.9,0.2-1.4,0.4
			c0-0.3,0-0.6-0.1-1.2c-0.4,0.5-0.6,0.9-1,1.3c-4.1,0-8.4,0-12.6,0c-4.1,0-8.2,0-12.2,0c-0.1-0.2-0.2-0.6-0.4-0.7
			c-0.3,0-0.6,0.1-0.8,0.2c-0.1,0.1-0.2,0.4-0.3,0.4c-1.3,0-2.6,0-3.9-0.1c-0.2,0-0.4-0.3-0.4-0.3c-0.6,0.2-1,0.4-1.5,0.4
			c-2.4,0-4.9,0-7.3,0c-0.3,0-0.7-0.4-0.9-0.5c-0.5,0.2-1,0.5-1.4,0.5c-2.2,0.1-4.3,0-6.5,0c-3.5,0-6.9,0-10.4,0
			c-0.7,0-1.7,0.7-2.2-0.6c0-0.1-0.7,0.1-1.1,0.2c-0.5,0.1-1,0.4-1.6,0.4c-1.4,0.1-2.9,0.1-4.4,0c-1.9-0.1-3.8-0.2-5.6-0.3
			c0,0,0.2,0.1,0.3,0.3c0,0.1-0.1,0.2-0.1,0.2c-0.8-0.2-1.6-0.5-2.4-0.6c-0.4,0-0.9,0.4-1.3,0.4c-3.2,0-6.3,0-9.5,0
			c-0.2,0-0.5-0.2-0.7-0.3c-0.4-0.2-0.9-0.3-1.3-0.5c0,0.1-0.1,0.3-0.1,0.4c0.2,0.1,0.4,0.1,0.9,0.3c-3.1,0-6,0-9,0
			c0.2-0.3,0.4-0.6,0.6-0.9c-0.4-0.2-0.9-0.4-1.3-0.6c0,0.5,0,1,0,1.5c-3.4,0-6.7,0-10,0c-3.6,0-7.2,0.1-10.7,0
			c-0.5,0-0.9-0.2-1.4-0.4c-0.1,0-0.2-0.1-0.2-0.1c-2.4,1.1-4.8,0.2-7.2,0.4c-0.7,0.1-1.5-0.4-2.2-0.4c-0.6,0-1.2,0.4-1.8,0.4
			c-2.4,0.1-4.8,0.1-7.2,0c-0.8,0-1.6-0.4-2.5-0.6c0,0-0.1,0.3-0.2,0.6c-0.1,0-0.2,0-0.3,0c-2-0.1-4-0.2-6.1-0.2
			c-1.4,0-2.8,0.2-4.3,0.2c-0.3,0-0.9,0.3-0.7-0.5c-0.2,0-0.6-0.1-0.7-0.1c-0.2,0.9-0.9,0.6-1.5,0.6c-6.6,0-13.2,0-19.7,0
			c-0.2-0.4-0.3-0.6-0.5-0.9c-0.2,0.3-0.4,0.5-0.7,0.9c-7,0-14.3,0-21.6,0c-0.4,0-0.7-0.3-1.1-0.5c0,0.1,0,0.3-0.1,0.6
			c-0.3,0-0.7,0-1.1,0c-8.2,0-16.3,0-24.5,0c-3.3,0-6.7,0-10,0c-0.4,0-0.8-0.2-1.3-0.4c-0.4,0.1-0.9,0.4-1.4,0.4c-1.8,0-3.6,0-5.4,0
			c-4.6,0-9.3,0-13.9,0c-7.4,0-14.8,0-22.2,0c-2.2,0-4.4,0.1-6.5,0c-3.2-0.1-6.4,0.1-9.4,0c-0.4-0.4-0.7-0.6-1-0.8
			c-0.1,0.3-0.1,0.5-0.2,0.8c-5,0-10,0.1-15.1,0c-1.6,0-3.1,0.2-4.6,0c-0.6-0.1-1.1-0.4-1.7-0.5c-0.2,0-0.5,0-0.6,0.1
			c-1.5,0.9-3,0.5-4.5,0.3c-0.4-0.1-0.9,0.3-1.2,0.2c-0.9-0.4-1.7,0.1-2.5,0c-1,0-2,0-3,0c-0.9,0-1.9-0.1-2.8-0.3
			c-1.1-0.2-1.5-1-1.5-2c0-5.9,0.1-11.7,0.1-17.6c0-3-0.1-5.9-0.1-8.9c0-4.8,0-9.7,0-14.5c0-4.3-1.1-8.3-3.7-11.7
			c-1.1-1.5-2.6-2.7-3.9-4c-0.4-0.4-0.8-0.8-1.2-1.2c-0.7-0.7-1.8-1.2-1.4-2.2c-0.5-0.2-0.9-0.3-1.2-0.5c-1.6-1.4-3.2-2.8-4.6-4.4
			c-1.1-1.3-2.4-2.2-3.5-3.5c-0.6-0.6-1.3-1.2-0.7-2.2c-0.3-0.1-0.6-0.2-0.7-0.3c-0.1-0.2,0-0.6,0-0.7c0.7-0.2,1.4-0.5,2.2-0.5
			c2-0.1,4-0.1,6,0c1.8,0.1,3.6,0.1,5.4-0.1c1.9-0.1,3.7-0.6,5.6-0.9c0.6-0.1,1.2,0.2,1.9,0.4c-0.1-0.3-0.1-0.6-0.2-0.9
			c1.1,0,2,0,3,0c0.4,0,0.9-0.2,1,0.5c0,0.1,0.5,0.1,0.7,0.1c0-0.2,0-0.4,0-0.6c2.3,0.5,4.5,1.2,6.8,1.5c2.2,0.3,4.5,0.1,6.8,0.1
			c0,0.6,0,1.3,0,2c0.8-0.3,0.8-0.3,0.5-2.1c2.5,0,5,0,7.7,0c0.1,0.2,0.1,0.5,0.2,0.9c0.3-0.2,0.6-0.4,0.9-0.5
			c0.8-0.2,1.7-0.3,2.5-0.3c0,0,0.1,0.8,0.2,1.2c0,0.1,0.1,0.1,0.3,0.2c0.1-1.7,1.3-1.6,2.4-1.5c1.1,0.1,2.1,0.4,3.2,0.4
			c2.3,0,4.5-0.3,6.7-0.3c3.1-0.1,6.2,0,9.2,0c2.3,0,4.6,0,6.9,0c0.4,0,0.9,0.3,1.4,0.5c0,0,0-0.2,0.1-0.5c0.9,0,1.8,0,2.8,0
			c0.2,0,0.5,0.1,0.5,0.2c0,0.8,0.4,0.4,0.7,0.3c0.4-0.2,0.9-0.5,1.3-0.5c4.7,0,9.3,0,14,0c1.8,0,3.5,0,5.3,0c1.8,0,3.7,0,5.5,0
			c1.8,0,3.5-0.1,5.3,0c0.7,0,1.3,0.4,2.2,0.6c0,0,0.1-0.3,0.2-0.7c0.9,0.3,2.1-0.5,2.8,0.5c0.5-0.2,0.9-0.5,1.3-0.5
			c2.2,0,4.5,0,6.7,0c0.6,0,1.1,0.2,1.7,0.2c0.5,0,1-0.2,1.5-0.2c8.8,0,17.5,0,26.3,0c3.4,0,6.9,0,10.3,0c1.4,0,2.9,0.3,4.3,0.4
			c1,0,2-0.2,3-0.2c0.5,0,1,0.2,1.5,0.2c0.3,0,0.6-0.4,0.8-0.4c2.1,0,4.2,0,6.4,0c0.4,0,0.7,0.3,1.1,0.4c0.2-0.1,0.5-0.3,0.9-0.6
			c0.1,0.5,0.2,0.8,0.4,1.5c0.6-1.4,1.5-1.4,2.4-1.4c4.7,0.1,9.4,0.2,14.1,0.2c3.8,0,7.7-0.1,11.5-0.1c3.1,0,6.2,0,9.3,0
			c-0.1,0.4-0.2,0.7-0.3,1.1c0.2,0,0.5,0,0.6-0.1c0.3-1,1.1-1.1,2-1c1.5,0,3-0.1,4.4,0c1.9,0.2,3.8-0.2,5.7-0.1
			c1.9,0.1,3.9,0.1,5.8,0.1c0.4,0,0.8,0.2,1.2,0.3c0.7-0.1,1.4-0.4,2.1-0.4c1.8,0,3.7,0,5.5,0.1c0.3,0,0.7,0.2,1.1,0.3
			c0.4-0.5,2.9-0.7,3.5-0.2c0.1,0.1,0.3,0.2,0.4,0.2c2.9-1,5.9-0.1,8.8-0.4c0.4,0,0.7,0,1.1,0c3.7,0,7.5,0,11.2,0
			c0.3,0,0.6,0.2,0.9,0.4c0.3,0.2,0.6,0.5,0.9,0.7c0.1-0.1,0.2-0.2,0.2-0.3c-0.2-0.1-0.5-0.3-0.7-0.4c0-0.1,0.1-0.2,0.1-0.2
			c1.8-0.1,3.6-0.1,5.4-0.1c1.8,0,3.7,0,5.5,0c1.8,0,3.6,0,5.4,0c1.8,0,3.6,0,5.4,0c1.8,0,3.6-0.2,5.4,0.1c1.7,0.2,3.4-0.3,5.2,0
			c1.7,0.2,3.4-0.5,5.1,0.4c0.4-0.7,2.8-0.6,3.4,0.1c0.3-0.2,0.5-0.5,0.7-0.5c2.4,0,4.7,0.1,7.1,0.1c1.9,0,3.7-0.1,5.6-0.2
			c0.2,0,0.5,0.2,0.9,0.4c0.1-0.1,0.6-0.3,1.1-0.3c2.9,0,5.9,0,8.8,0c2.3,0,4.7,0,7,0c1.8,0,3.6,0,5.4,0c0.1,0.3,0.1,0.6,0.2,1.1
			c0.4-0.3,0.6-0.5,0.8-0.7c0.2-0.2,0.5-0.4,0.7-0.4c2.8,0.3,5.7-0.3,8.6,0c-0.2,0.2-0.3,0.3-0.5,0.6c0.3,0,0.6,0.1,0.7,0
			c0.7-1.2,1.8-0.7,2.7-0.7c2.8-0.1,5.5,0,8.3,0c0.5,0,1,0.3,1.5,0.4c0.2,0,0.4,0.1,0.6,0c0.9-0.1,1.8-0.4,2.7-0.4
			c3.8,0,7.6,0,11.4,0c1.1,0,2.1,0.4,3.2,0c0.3-0.1,0.8,0.3,1.2,0.4c0.2,0,0.4-0.1,0.6-0.2c0.2-0.1,0.5-0.2,0.7-0.2
			c1.4,0,3-0.4,3.9,1.4c0.1-0.2,0.2-0.3,0.2-0.5c-0.3-0.3-0.7-0.5-1.1-0.9c1,0,1.9,0,2.9,0c-0.1,0.4-0.1,0.7-0.2,1
			c0.8-1.4,2.1-1.1,3.4-1.1c2.6,0,5.1,0,7.7,0c3.2,0,6.3,0,9.5,0c1.4,0,2.7,0.2,4.1,0c1.6-0.2,3.3,0,4.9,0c1.7,0,3.4,0,5,0
			c2.4,0,4.9,0,7.3,0c4.7,0,9.3,0.1,14,0.2c1.3,0,2.6-0.2,4-0.1c0.6,0,1.1,0.3,1.7,0.5c0.2,0,0.5-0.1,0.7-0.2
			c0.3-0.1,0.5-0.2,1.1-0.5c-0.2,0.8-0.4,1.3-0.6,2.2c0.6-0.5,1-0.9,1.4-1.3c0,0-0.2-0.4-0.4-0.6c0.9,0,1.8,0,2.7,0
			c0.1,0.1,0.1,0.2,0.2,0.3c-0.4,0.2-0.8,0.4-1.4,0.7c0.7,0,1.1,0.1,1.5,0c0.2-0.1,0.1-0.6,0.2-1.1c4.6,0,9.2,0,13.9,0
			c0.3,0,0.6,0.4,0.6,0.4c1-0.2,1.8-0.4,2.6-0.4c4.3,0,8.6,0,12.9,0c0.4,0,0.9,0.3,1.3,0.4c0.2,0.1,0.6,0.1,0.7,0
			c0.5-0.8,1.3-0.4,1.9-0.4c0.6,0,1.1-0.1,1.7-0.1c4.5,0,9,0,13.5,0c0.4,0,0.8,0.2,1.2,0.4c0.1,0,0.2,0.1,0.2,0.1
			c0.8-0.9,1.8-0.4,2.7-0.5c3.4-0.1,6.7,0,10.1,0c8.9,0,17.7,0,26.6,0c5,0,9.9,0,14.9,0c3.2,0,6.4,0,9.6,0c4.8,0,9.6,0,14.4,0
			c-0.1,0.2-0.1,0.4-0.2,0.7c0.8-0.3,1.4-0.6,2.1-0.6c0.7,0,1.4,0.4,2.2,0.7c-0.2-0.2-0.3-0.4-0.5-0.6c0.1,0,0.2-0.1,0.3-0.1
			c3.6,0,7.2,0.1,10.8,0.1c1,0,2,0,2.9-0.1c1-0.1,1.5,0.2,1.5,1.3c0.7-0.2,0.1-1.7,1.3-1.2c0.1,0-0.1,0.8-0.2,1.3
			c0.3-0.1,0.8-0.3,0.8-0.4c0-1.1,0.7-1,1.4-1c1.6,0,3.3,0,5,0c-0.1,0.2-0.2,0.4-0.3,0.5c2.8-1,5.7-0.4,8.6-0.5
			c5.6-0.1,11.3,0,16.9,0c0.4,0,0.7,0.3,1.1,0.5c0.2,0.1,0.6,0.1,0.6,0.1c0.2-1,1-0.5,1.6-0.5c2.3-0.1,4.6,0,7,0c1.5,0,3,0,4.6,0
			c0.4,0,0.8,0.2,1.3,0.4c0.4-0.1,1-0.4,1.5-0.4c4.4,0,8.9-0.1,13.3,0c2.5,0,5-0.1,7.5,0c2.6,0,5.2,0,7.8,0c6.5,0,13.1,0,19.6,0
			c0.5,0,1,0.3,1.4,0.4c0.1,0,0.3,0.1,0.5,0c2.9-1,5.9-0.3,8.9-0.3c0.6,0,1.3-0.1,1.9-0.1c3.4,0,6.8,0,10.2,0c2,0,2.7,0.6,2.7,2.5
			c0.1,3.4,0,6.7,0,10.1c0,0.3-0.3,0.6-0.4,0.7c0.2,0.4,0.4,0.8,0.4,1.1c0,5.4-0.1,10.8-0.1,16.2c0,1.4,0.1,2.8,0.1,4.1
			c0,0.4-0.2,0.8-0.4,1.3c0.1,0.3,0.4,0.8,0.4,1.3c0,2.6,0,5.3,0,7.9c0,2.3,0.1,4.6,0,6.9c0,0.4-0.3,0.8-0.5,1.3
			c0.6,0.8,0.8,2.6,0.1,4c0,0.1-0.1,0.2,0,0.3c0.8,1.5,0.5,3.1,0.1,4.7c0,0.1,0,0.3,0,0.4c0.1,0.6,0.3,1.3,0.3,1.9c0,2.3,0,4.7,0,7
			c0,1.8-0.9,3-2.7,2.8c-1.6-0.2-3.1,0.2-4.7,0.1c-1.8-0.1-3.7,0.3-5.4-0.1c-1.5-0.3-2.9,0.3-4.3,0.1c-1.6-0.2-3.1,0-4.7,0
			c-2.4,0-4.7,0-7.1,0c-0.6,0-1.1-0.4-1.9-0.7c0.4-0.2,0.6-0.3,0.9-0.5c-1.1-0.2-1.5,0.2-1.4,1.3c-1.3-0.1-2.5-0.2-3.8-0.2
			c-0.7,0-1.5,0.1-2.2,0.1c-7.5,0-15,0-22.5,0c-2.1,0-4.1,0-6.2,0c-0.9,0-1.7,0-2.6,0c-0.9,0-1.8,0.2-1.9-1.1
			C781.9,80.2,781.7,80.2,781.4,80.1z M440.8,8.9c-0.9-0.6-1.7,0.4-2.6,0.1c0,0-0.2,0.5-0.3,0.8c0.5,0,0.9,0,1.2-0.1
			C439.6,9.4,440.2,9.1,440.8,8.9c0.8,0.1,1.5,0,1.6-1.1c-0.6,0-1.2,0.1-1.8,0.1C440.7,8.2,440.7,8.5,440.8,8.9z M317.9,51.4
			c0-0.2,0-0.4,0-0.6c-0.6,0-1.1,0.1-1.8,0.1c0-0.3,0-0.6-0.1-1.1c-0.4,0.4-0.6,0.6-0.8,0.9c-0.3-0.5-0.6-0.9-0.9-1.3
			c-0.1,0.1-0.2,0.1-0.3,0.2c0,0.5,0.1,1.1,0.1,1.8C315.4,51.4,316.6,51.4,317.9,51.4z M793.4,26.1c-0.4,0.2-1,0.4-1.6,0.6
			c0,0.1,0.1,0.2,0.1,0.3c1.2-0.3,2.5-0.5,3.6-0.8c-0.1-0.7-0.2-1.3-0.3-1.9c-0.3,0.3-0.6,0.6-0.9,0.9
			C794.1,25.5,793.8,25.7,793.4,26.1z M580.7,58.6c2-0.4,1.6-1.6,0.8-2.9c-0.2,0.1-0.6,0.3-1,0.5c-0.2,0.1-0.2,0.4-0.3,0.6
			c1.4,0.2,0.8,0.9,0.4,1.6C580.6,58.4,580.7,58.6,580.7,58.6z M652.1,53.5c0.2,0.2,0.4,0.5,0.3,0.5c-0.9,1.1,0.2,1.6,0.8,2.2
			c0.2,0.3,0.7,0.4,1,0.5c-0.1-0.4-0.2-0.7-0.3-1.1c-0.1-0.1-0.3-0.2-0.4-0.3c-0.8-0.4-0.9-0.8-0.4-1.6
			C652.8,53.6,652.5,53.5,652.1,53.5z M132.4,79.4c1.4-1,2.4,1.4,3.9,0.3C135,78.6,133.1,78.4,132.4,79.4z M449.6,29.1
			c-0.4,0.7-0.8,1.4-1.3,2.1c0.1,0,0.1,0.1,0.2,0.1c0.5-0.3,1.1-0.6,1.7-0.9c0.2,0.2,0.4,0.4,0.6,0.7c0.2-0.4,0.3-0.8,0.5-1.2
			C450.7,29.8,449.6,30.5,449.6,29.1z M746.3,51c-0.4,0.9-0.7,1.7-1,2.4c0.1,0.1,0.2,0.2,0.4,0.3c0.6-0.4,1.2-0.8,1.9-1.2
			C747.1,52,746.8,51.6,746.3,51z M268,55.5c0,1.1,0,2.1,0,3.1c0.1,0,0.2,0,0.3,0.1c0.2-0.2,0.5-0.4,0.7-0.7
			c-0.4-0.2-0.7-0.4-0.9-0.4c0.4-0.6,0.7-1.2,1.1-1.8C268.9,55.6,268.5,55.6,268,55.5z M208,21.9c-0.5,0.7-0.8,1.2-1.2,1.7
			c0.2,0,0.6,0.2,0.7,0.1c0.6-0.6,1.2-1.2,1.7-1.8c-0.4-0.1-0.8-0.4-1.2-0.5c-0.4-0.1-0.8,0.1-1.2,0.1c0,0.1,0,0.2,0,0.3
			C207.1,22,207.4,22,208,21.9z M413.5,48.3c-0.3-1.4-0.5-2.4-0.7-3.4c-0.5,0.1-1,0.2-1.7,0.3c0.7,0.5,1.8,0.5,1.3,1.7
			C412.2,47.1,413,47.7,413.5,48.3z M774.8,38.5c1.2-0.4,2.4-0.8,3.9-1.3C777.1,36.7,775.6,37.2,774.8,38.5z M588.9,24.9
			c0,0.1,0,0.2,0,0.3c0.5,0,1,0.2,1.4,0.1c0.5-0.2,0.8-0.6,1.2-0.9c-0.3-0.3-0.5-0.6-0.8-0.9c0,0-0.5,0.3-0.5,0.4
			C590.6,25.4,589.5,24.8,588.9,24.9z M647.5,24.9c-0.8,0-1.4,1.1-1.4,2.2c0.5,0,0.9,0.1,1.4,0.1c0.1,0,0.4-0.1,0.4-0.2
			c0-0.1,0-0.4-0.1-0.4C646.6,26.1,646.9,25.5,647.5,24.9z M496.4,27.5c0.1,0.1,0.2,0.2,0.2,0.3c0.7-0.5,1.5-1,2.2-1.5
			c-0.3-0.5-0.5-0.9-0.6-1.2C497.5,26,497,26.8,496.4,27.5z M502.5,38.7c-0.2,0.6-0.4,1.3-0.6,2c0.6,0,1,0.1,1.4,0.1
			c0-0.1,0-0.1,0-0.2c-0.3-0.1-0.6-0.2-0.9-0.3c0-0.1,0-0.2-0.1-0.3c0.7-0.2,1.4-0.3,2.5-0.6C504,39.1,503.3,38.9,502.5,38.7z
			 M650,39.5c-0.5-0.8-0.8-1.2-1.3-1.9c-0.4,0.3-0.9,0.7-1.4,1.1c0.1,0.1,0.1,0.2,0.2,0.3C648.2,39.1,648.9,39.3,650,39.5z
			 M333.9,80c0.4-0.4,0-1.1-0.3-2.1c-0.7,0.7-1.2,1.2-1.7,1.7C332.6,79.8,333.1,79.9,333.9,80z M635.5,24.1
			c-0.3-0.8-0.4-1.4-0.7-2.1c-0.6,0.7-1,1.2-1.6,1.8c0.1,0.1,0.2,0.3,0.2,0.3C634.3,24.1,635,24.1,635.5,24.1z M512.5,45.3
			c-0.8,0.6-1.4,1.1-2.1,1.6c0.1,0.1,0.1,0.3,0.2,0.4c0.8-0.2,1.6-0.4,2.4-0.6C512.8,46.1,512.7,45.8,512.5,45.3z M492.1,80.6
			c0-0.1,0-0.3-0.1-0.4c-0.5-0.1-1.2,0.2-1.2-0.7c0-0.1-0.7-0.2-1-0.2c-0.1,0-0.3,0.4-0.3,0.6c0,0.4,1.3,1.1,1.7,1
			C491.5,80.8,491.8,80.7,492.1,80.6z M535.7,77.3c0.5-0.5,0.9-0.9,1.5-1.4c-1.6-0.1-1.8,0.3-2,2.3c0.5-0.1,1-0.1,1.6-0.2
			c0-0.1,0-0.2,0-0.3C536.4,77.6,536.1,77.5,535.7,77.3z M794.1,36.8c-0.1-0.2-0.2-0.6-0.4-1.4c-0.3,0.4-0.4,0.8-0.5,0.8
			c-0.8,0.1-1.1,0.8-1.3,1.5c-0.1,0.2,0.1,0.5,0.2,0.7c0.1,0.1,0.4,0,0.5,0c-0.1-0.2-0.2-0.4-0.1-0.5c0.1-0.3,0.2-0.7,0.4-0.8
			C793.2,36.8,793.6,36.8,794.1,36.8z M316.1,21.6c0.2,0.1,0.3,0.1,0.5,0.2c0.3-0.7,0.8-1.4,0.7-2c-0.1-0.5-1-0.8-1.5-1.2
			c-0.1,0.2-0.2,0.4-0.3,0.6c0.4,0.2,0.8,0.4,1.1,0.5C316.4,20.4,316.2,21,316.1,21.6z M834.4,37.1c0,0.2,0.1,0.3,0.1,0.5
			c1-0.2,2-0.4,3.1-0.6C836.2,35.4,835.4,37.2,834.4,37.1z M598.9,54.7c0.4,0.5,0.7,0.9,1,1.3c0.5-0.5,0.9-1.1,1.5-1.7
			c-0.7-0.2-1.2-0.3-1.7-0.4c0.2,0.4,0.3,0.6,0.5,0.9C599.7,54.8,599.4,54.8,598.9,54.7z M698.7,33.6c0.1,0.1,0.3,0.3,0.4,0.4
			c0.6-0.7,1.3-1.4,1.9-2c0-0.1-0.1-0.2-0.1-0.3c-0.3,0-0.8-0.1-1,0c-0.2,0.2-0.3,0.7-0.4,1.1C699.3,32.9,699,33.2,698.7,33.6z
			 M280.4,25c0.8,0.4,1.4,0.9,1.8,0.8c0.4-0.1,0.7-0.9,1.1-1.4C282.3,24.6,281.5,24.8,280.4,25z M510.2,61.6
			c-0.2,0.3-0.4,0.6-0.5,0.9c-0.3,0.7-0.6,1.5,0.6,1c0.4-0.1,0.5-1,0.8-1.5C510.8,61.9,510.5,61.8,510.2,61.6z M762.1,54.8
			c-0.4-0.5-0.6-0.8-0.9-1.1c0.2-0.4,0.4-0.8,0.6-1.1c-0.6,0.2-1.2,0.3-2.1,0.6C760.7,53.6,760.5,55.1,762.1,54.8z M313,72.8
			c0.3-0.6,0.1-1.2-0.7-1c-1.3,0.3-0.3-0.6-0.7-1.1c-0.3,0.3-0.6,0.5-0.7,0.9c-0.1,0.2,0.2,0.7,0.4,0.8
			C311.9,72.5,312.4,72.6,313,72.8z M612,43.4c0.7-0.8,1.5-1.5,0.2-2.4c-0.3,0.2-0.7,0.5-0.8,0.6C611.6,42.3,611.8,42.8,612,43.4z
			 M495,11.8c-0.5-0.2-0.9-0.5-1.3-0.6c-0.3-0.1-0.6-0.1-0.8,0c-0.1,0.1-0.2,0.5-0.1,0.7C493.1,12.6,494.6,12.4,495,11.8z
			 M642.2,13.6c-0.8-0.1-1.3-0.1-1.8-0.1c-0.4,0-0.8,0.1-1.2,0.1c0.2,0.2,0.4,0.4,0.6,0.6C641,15.4,641.4,13.9,642.2,13.6z
			 M234.7,29.8c0-0.1-0.1-0.2-0.1-0.2c-0.6,0-1.2-0.1-1.7,0.1c-0.4,0.3-0.6,0.9-0.9,1.6c0.4,0,0.7,0.1,1.2,0.1
			c-0.1-0.4-0.2-0.6-0.2-0.8C233.6,30.3,234.1,30.1,234.7,29.8z M248.2,18.2c-0.4,0.5-0.6,0.8-0.8,1.1c-0.1,0.2-0.2,0.4-0.3,0.6
			c0.2,0,0.5,0.2,0.7,0.1c0.5-0.4,0.9-0.9,1.6-1.5C248.6,18.2,248.3,18.2,248.2,18.2z M735.4,41.8c-0.7,0.4-1.3,0.8-1.8,1.1
			c0.2,0.1,0.5,0.4,0.8,0.7c-0.2,0.1-0.4,0.3-0.7,0.4c0.4,0.1,0.6,0.3,0.6,0.2c0.5-0.6,0.9-1.2,1.3-1.9
			C735.8,42.2,735.5,41.9,735.4,41.8z M436.1,24.7c-0.5,0-0.8,0-1.2,0c0.1,0.4,0.2,0.8,0.3,1.1c0.1,0.3,0.1,0.9,0.3,0.9
			c0.3,0.1,0.7-0.1,1.1-0.2C435.1,26.1,436,25.4,436.1,24.7z M313.9,73c-0.1,0-0.2,0-0.3,0c0.1,0.6-0.1,1.3,0.2,1.8
			c0.2,0.3,1,0,1.5,0C314.8,74.2,314.3,73.6,313.9,73z M197.9,24.6c-1.1,0.1-0.7,0.9-0.5,1.1c0.4,0.4,1,0.6,1.6,0.8
			c0.1,0,0.3-0.4,0.6-0.8c-0.5,0.2-0.8,0.3-1.2,0.4C198.3,25.5,198.1,25.1,197.9,24.6z M429.4,50.3c-0.8,0.8-1.5,1.4-2.3,2.1
			C428.7,52.6,429.3,52.1,429.4,50.3z M538.5,20.4c0.1,0,0.2,0.1,0.2,0.1c0.1-0.5,0.5-1.1,0.3-1.6c-0.1-0.4-0.8-0.5-1.5-1
			C538,19.1,538.3,19.8,538.5,20.4z M161.8,65c0.6,0.2,1.2,0.3,1.8,0.5c1-1.3-1.7-0.6-1.2-1.7c-0.2-0.1-0.5-0.2-0.6-0.2
			C161.9,64.1,161.8,64.6,161.8,65z M411.2,49.5c0.5-0.3,1-0.7,1.7-1.2c-0.6-0.2-1.1-0.4-1.6-0.5C411.2,48.5,411.2,49.2,411.2,49.5z
			 M289.8,38c0.5,0.1,1.1,0.2,1.7,0.4c-0.2-0.7-0.5-1.3-0.8-2.3C290.4,36.7,290.1,37.3,289.8,38z M688.3,41.1c0,0.1,0,0.2,0,0.3
			c1,0,2,0,2.8,0C690.3,39.8,689.2,41.2,688.3,41.1z M384.1,25.1c-0.1-1.5-1.3-1.5-2.3-2c0,0.4,0,0.6,0,0.7
			C382.6,24.3,383.3,24.7,384.1,25.1z M789.1,12.1c0,0.3-0.1,0.6-0.1,0.9c0.4,0,0.7-0.1,1.1-0.1c-0.1-0.3-0.3-0.5-0.4-0.8
			c-0.2-1.2-0.8-0.7-1.4-0.3c0,0,0,0.1,0,0.2C788.6,12.1,788.9,12.1,789.1,12.1z M455.3,11.8c-1.4,0.9-0.1,2-0.6,3
			c0.9,0.1,0.9-0.2,0.7-0.9c-0.1-0.5,0.1-1,0.1-1.5C455.5,12.2,455.4,12,455.3,11.8z M190.2,72.4c0.2,0.4,0.4,0.7,0.6,1
			c-0.3,0-0.7,0-1.2-0.1c0.3,0.3,0.5,0.6,1,1.1c0.4-0.8,0.7-1.4,1.2-2.2C191.1,72.3,190.7,72.3,190.2,72.4z M220.6,70.2
			c-0.4-0.8-0.7-1.5-1.1-2.3C218.8,69.6,219.2,70.2,220.6,70.2z M596,48.2c0-0.8,0-1.4,0-1.9c-0.5,0.3-1.1,0.6-1.6,0.9
			c-0.1,0.1,0,0.4,0,0.6c0.3-0.1,0.6-0.2,0.9-0.4C595.4,47.6,595.5,47.8,596,48.2z M218.2,34.5c0-0.1,0-0.2,0-0.3
			c-1.1,0.2-2.2-1.5-3.3,0.1C216.1,34.4,217.1,34.4,218.2,34.5z M749.7,38.2c0.3,0.2,0.5,0.5,0.8,0.7c0.1-0.3,0.3-0.6,0.4-0.8
			c0.2,0.2,0.3,0.4,0.4,0.5c0.1-0.1,0.2-0.2,0.3-0.3c-0.4-0.4-0.8-0.8-1.3-1.4C750.1,37.5,749.9,37.8,749.7,38.2z M444.1,18.6
			c0,0.5,0.1,0.9,0.1,1.2c0.8-0.1,1.4-0.2,1.9-0.3c-0.3-0.6-0.5-1-0.8-1.5c0,0.4,0,0.7-0.1,1.1C444.8,18.9,444.5,18.7,444.1,18.6z
			 M348.8,43.9c0,0.1,0,0.2,0,0.4c0.6,0.1,1.1,0.2,1.7,0.2c0.2,0,0.5-0.1,0.7-0.1c-0.2-0.3-0.4-0.8-0.5-0.8
			C350.1,43.6,349.5,43.8,348.8,43.9z M209.5,63.9c-2.1-0.2-2.1-0.2-2.7,1.9c0.1,0,0.2,0.1,0.3,0.1c0.2-0.6,0.4-1.2,0.7-1.9
			c0.2,0.2,0.3,0.4,0.4,0.5C208.7,64.4,209,64.2,209.5,63.9z M446.7,63.4c0.3,0.5,1,0.7,1.5,0.2c0.6-0.6,0.1-1.1-0.2-1.1
			C447.6,62.8,447.2,63.1,446.7,63.4z M498.2,61c0.2-0.3,0.3-0.8-0.6-0.8c-0.7,0-1.3-0.1-2.2-0.2c0.5,0.4,0.8,0.7,0.9,0.9
			C497.1,60.9,497.6,61,498.2,61z M218.2,56.9c-0.8-0.2-1.3-0.3-1.7-0.3c0.1,0.6,0.1,1.2,0.3,1.6c0.3,0.4,0.8,1,1.3,0
			c-0.4-0.2-0.7-0.3-1.2-0.5C217.3,57.4,217.6,57.3,218.2,56.9z M477.6,8.1c-1.2-0.6-1.5,0.7-2.3,1.1c0.2,0.2,0.5,0.4,0.7,0.6
			C476.6,9.3,477.1,8.7,477.6,8.1z M804.4,7.4c-0.1,0.9-0.1,1.8-0.2,2.6C805.9,9.5,805.2,8.5,804.4,7.4z M549.9,81.1
			c0.1-0.1,0.2-0.1,0.3-0.2c0-0.6-0.1-1.1-0.1-1.5c-0.3-0.3-0.6-0.5-0.9-0.7C548.8,79.8,549.2,80.5,549.9,81.1z M512,38.2
			c-0.4-0.8-1.2-1.2-2-0.7c-0.1,0.1-0.2,0.3-0.3,0.5c0.2,0.1,0.4,0.4,0.6,0.4C510.9,38.4,511.4,38.3,512,38.2z M588.5,73.7
			c0.1,0,0.1-0.1,0.2-0.1c-0.2-0.2-0.5-0.3-0.6-0.5c-0.3-0.5-1.4-0.1-1.3-1.1c0-0.1-0.4-0.2-0.4-0.2c-0.1,0.1-0.3,0.5-0.2,0.5
			c0.6,0.3,0.5,1.4,1.5,1.2C587.9,73.5,588.2,73.7,588.5,73.7z M598.9,33.9c0.7,0.6,1.2,0.9,1.7,1.3c0.3-0.5,0.5-0.8,0.7-1.3
			C600.5,33.9,599.9,33.9,598.9,33.9z M363.2,47.5c-0.3,0.4-0.5,0.7-0.8,1.2c1,0,1.9,0,2.7,0c0-0.1,0.1-0.1,0.1-0.2
			C364.6,48.1,363.9,47.8,363.2,47.5z M422.3,49.5c0.6,0.5,1,0.9,1.2,1.1c0.6-0.2,1.2-0.4,1.8-0.6c0-0.1,0-0.1,0-0.2
			C424.4,49.7,423.5,49.6,422.3,49.5z M626.4,60.7c1.4,0.9,2.1,0.7,2.3-0.2c-0.5-0.1-1.1-0.1-1.7-0.2c0-0.1,0-0.2,0-0.3
			C626.9,60.2,626.7,60.4,626.4,60.7z M604.1,23.1c0,0.1,0,0.2,0,0.3c0.5,0.5,1.1,1,1.5,1.4c0-0.1,0.2-0.4,0.4-0.9
			C605.4,23.6,604.8,23.4,604.1,23.1z M460.4,45.7c0.6,0.4,1,0.8,1.5,1.1c0.1,0.1,0.3,0.1,0.4,0.1c0.1-0.1,0.1-0.2,0.2-0.4
			c0.1-0.3,0.1-0.6,0.2-1C462,45.6,461.3,45.7,460.4,45.7z M511.7,65.7c0.6,0.3,1.3,0.6,2,0.8c-0.1-0.6-0.2-1.2-0.3-1.8
			C512.9,65,512.3,65.3,511.7,65.7z M159.7,78c-0.2-0.1-0.4-0.2-0.6-0.3c-0.3,0.4-0.7,0.9-1,1.3c0.3,0.1,0.8,0.4,0.9,0.4
			C159.3,79,159.5,78.5,159.7,78z M748.9,57.3c-0.1,0.1-0.6,0.6-0.6,0.6c0.5,0.7,1,1.3,1.6,1.9c0.1-0.1,0.2-0.2,0.3-0.3
			C749.8,58.9,749.4,58.2,748.9,57.3z M267.5,43.4c0-0.7,0-1.4,0-2.1c-0.1-0.1-0.3-0.2-0.7-0.4c-0.1,0.7-0.1,1.4-0.2,2
			C266.9,43,267.2,43.2,267.5,43.4z M502.6,56.5c-0.1-0.2-0.2-0.4-0.1-0.4c-0.5,0-0.9,0-1.3,0c-0.4,0-0.8-0.1-1.3-0.2
			c0,0.1,0,0.2,0,0.4C500.8,56.6,501.6,57.5,502.6,56.5z M266.3,20.2c-0.7,1.4,0.9,1.2,1.1,2c0.1,0,0.2,0,0.3-0.1c0-0.4,0-0.8,0.1-1
			C267.2,20.8,266.8,20.5,266.3,20.2z M280.2,21.6c0.4-0.2,0.8-0.4,1.1-0.6c-0.6-0.3-1.1-0.6-1.6-0.9c-0.2,0.4-0.4,0.7-0.6,1
			C279.6,21.3,280,21.5,280.2,21.6z M499.5,19.3c0.7,1.1,1.6-0.2,2.4,0.2c-0.2-0.5-0.3-0.9-0.4-1C500.9,18.7,500.3,19,499.5,19.3z
			 M288.7,32.7c0.5-0.4,1.1-0.7,1.6-1.1c0.1-0.1,0.1-0.6,0-0.8c0-0.1-0.4-0.1-0.6-0.1c0,0.4-0.1,0.7-0.1,1
			C288.2,32,288.2,32,288.7,32.7z M598.2,50.1c-0.1-0.3-0.2-0.7-0.3-1c-0.6,0.6-1.2,1.2-2.1,2.1C596.8,50.7,597.4,50.4,598.2,50.1z
			 M810,60.6c-0.4-0.2-0.7-0.4-1-0.6c-0.2-0.1-0.5-0.2-0.7-0.3c0,0.3-0.1,0.7,0.1,0.9C808.8,61.4,809.4,60.9,810,60.6z M815,56.4
			c0.2-0.7,0.3-1.3,0.5-1.9c-0.5-0.4-0.8-0.1-1.4,1.4C814.4,56.1,814.7,56.2,815,56.4z M781,51c0.3,0.4,0.5,0.6,0.7,0.8
			c0.1,0.1,0.3,0,0.5,0c-0.1-0.2-0.2-0.5-0.4-0.7c-0.4-0.4-0.8-0.8-1.3-1.3c0,0.6,0,0.9,0,1.3C780.7,51.1,780.9,51,781,51z
			 M406.8,15.9c0-0.4,0-0.7,0-1c-0.1,0-0.2-0.1-0.3-0.1c-0.2,0.4-0.5,0.9-0.7,1.4c0.9,0,1.6,0,2.4,0c0-0.1,0-0.2,0-0.3
			C407.7,15.9,407.2,15.9,406.8,15.9z M145.8,54.4c0,0.1,0,0.2,0.1,0.2c0.7,0,1.3-0.1,2-0.1c0.2-0.3,0.4-0.8,0.7-1.3
			C147.6,53.7,146.7,54,145.8,54.4z M686.2,74.8c0.1-0.4,0.1-0.7,0.2-1.1c0.3,0.2,0.6,0.4,0.8,0.5c0.2,0.1,0.3,0.2,0.5,0.3
			c0.1-0.2,0.3-0.5,0.3-0.7c0-0.1-0.3-0.4-0.4-0.4c-0.7,0.1-1.4,0.3-2.2,0.5C685.7,74.4,685.9,74.6,686.2,74.8z M542.6,46.2
			c-0.1-0.1-0.2-0.6-0.3-0.6c-0.6,0.1-1.1,0.2-1.4-0.5c0,0-0.5,0-0.6,0.2c-0.1,0.2-0.2,0.5-0.1,0.8c0,0.1,0.4,0.1,0.6,0.1
			C541.3,46.2,541.8,46.2,542.6,46.2z M161.3,22.7c-0.1,0-0.2,0-0.4,0c0.1,0.6,0.2,1.1,0.4,1.8c0.6-0.7,1-1.2,1.5-1.8
			c-0.1-0.1-0.2-0.1-0.3-0.2c-0.2,0.2-0.5,0.4-0.8,0.7C161.5,23,161.4,22.8,161.3,22.7z M378.3,78c0.1,0.2,0.1,0.4,0.2,0.5
			c0.6-0.2,1.1-0.3,1.7-0.5c0.2-0.1,0.3-0.3,0.4-0.4c0,0-0.2-0.3-0.3-0.3C379.7,77.5,379,77.8,378.3,78z M638.1,50.6
			c0,0.5-0.1,0.8,0,1.1c0,0.2,0.3,0.3,0.5,0.5c0.1,0.1,0.1,0.3,0.2,0.5c0.2-0.1,0.5-0.2,0.5-0.3c-0.1-0.5-0.2-1.1-0.4-1.6
			C638.9,50.6,638.4,50.6,638.1,50.6z M584.3,45.5c-0.3-2.3-1.5-0.5-2.1-0.9c0,0.1-0.1,0.2-0.1,0.4
			C582.8,45.1,583.5,45.3,584.3,45.5z M709,9.9c0-0.1,0-0.2,0-0.3c-0.4-0.2-0.9-0.4-1.6-0.7c-0.2,0.3-0.5,0.7-0.8,1.2
			C707.5,10,708.3,10,709,9.9z M528.3,44c0-0.1,0.1-0.2,0.1-0.3c-0.6-0.4-1.2-0.7-1.9-1.1c-0.1,0.5-0.2,0.8-0.2,1.2
			C527,43.9,527.7,44,528.3,44z M603.8,9c0.3,0.5,0.8,1,1.5,0.5c0.3-0.2,0.4-0.7,0.6-1.2C605.1,8.6,604.5,8.8,603.8,9z M329.9,62.3
			c-0.9-0.3-1.8-0.6-2.6-1C327.1,62.1,328.1,62.8,329.9,62.3z M175.8,29.3c0.2-0.2,0.4-0.5,0.6-0.8c-0.4-0.3-0.8-0.6-1.2-0.9
			c-0.2,0.5-0.4,0.9-0.6,1.3C175,29,175.4,29.1,175.8,29.3z M497.2,53.6c-0.7-0.7-1.3-0.8-2.4-0.4C495.4,53.8,495.4,53.8,497.2,53.6
			z M430,62.2c-0.7,0.6-0.8,1.6-0.3,2.3c0.3-0.3,0.5-0.6,0.6-0.7C430.2,63.1,430.1,62.7,430,62.2z M147.6,49c-0.1,0-0.1-0.1-0.2-0.1
			c-0.3,0.5-0.7,1.1-0.8,1.7c-0.1,0.3,0.3,0.7,0.4,1c0.1,0,0.3,0,0.4,0C147.5,50.7,147.6,49.8,147.6,49z M845.7,48.1
			c0.1,0.8,0.2,1.5,0.2,2.3C847.1,49,847.1,49,845.7,48.1z M485.4,59.7c-0.6,0.3-1.3,0.5-1.9,0.8c0,0.1,0,0.2,0.1,0.2
			c0.8-0.2,1.6-0.3,2.6-0.5c-0.3-0.4-0.6-0.9-0.9-1.3c-0.1,0.1-0.2,0.1-0.3,0.2C485.2,59.4,485.4,59.6,485.4,59.7z M289.3,20.9
			c-0.2,0.6-0.3,0.9-0.5,1.5c0.6,0,1.2,0.1,1.7,0.1c0-0.1,0.1-0.3,0.1-0.4C290.2,21.7,289.8,21.3,289.3,20.9z M323.7,79.3
			c-0.9-0.6,0.6-1.2-0.2-1.4c-0.8-0.2-1.3,0.5-1.2,1.4C322.6,79.3,323,79.3,323.7,79.3z M439.5,80.7c0.8-0.3,1.5-0.6,2.3-1
			c0-0.1-0.1-0.2-0.1-0.3C439.5,79.8,439.2,80,439.5,80.7z M138.2,42.1c-0.2-1-0.4-1.9-0.6-2.9C136.8,40.2,137,41.2,138.2,42.1z
			 M615.5,8.5c-0.9-0.2-1.6-0.3-2.3-0.4c0,0.1,0,0.3-0.1,0.4C613.8,8.6,614.2,10.1,615.5,8.5z M459.2,54.2c-0.1,0.1-0.2,0.4-0.3,0.6
			c0.4,0.1,0.9,0.4,1.3,0.4c0.4,0,0.9-0.2,1.3-0.3c0-0.1,0-0.2-0.1-0.3C460.7,54.5,460,54.3,459.2,54.2z M696.9,55.1
			c0,0.1,0,0.2,0,0.3c0.5,0,1.2,0.1,1.3-0.1c0.3-0.5,0.2-1.1,0.2-1.5C697.9,54.3,697.4,54.7,696.9,55.1z M206.3,56.4
			c-1.2,0-2.2,0-3.5,0c0.5,0.4,0.9,0.7,1.1,0.8C204.8,56.9,205.4,56.7,206.3,56.4z M623.3,56.5c-0.1-0.1-0.2-0.1-0.3-0.2
			c-0.4,0.6-0.7,1.2-1.1,1.8c0.3,0.2,0.6,0.3,1,0.5C623.1,57.9,623.2,57.2,623.3,56.5z M528.4,58.6c0.1,0.2,0.2,0.3,0.2,0.5
			c0.6-0.3,1.3-0.6,2-0.9c-0.2-0.3-0.3-0.5-0.4-0.7c-0.4,0.2-0.7,0.4-0.9,0.6C528.9,58.2,528.7,58.4,528.4,58.6z M573.4,64.2
			c1,0.4,2.4-0.5,2.3-1.6C575,63.2,574.2,63.7,573.4,64.2z M750.5,65.8c-0.3-0.3-0.6-0.7-1-0.9c-0.6-0.4-1,0.6-0.6,1.4
			C749.5,66.1,750,65.9,750.5,65.8z M515.7,69.7c-0.1,0-0.2-0.1-0.3-0.1c-0.2,0.5-0.7,1-0.6,1.4c0.1,0.4,0.8,0.7,1.2,1
			c0.1-0.1,0.2-0.1,0.2-0.2c-0.3-0.5-0.5-0.9-0.8-1.5C515.4,70.2,515.5,70,515.7,69.7z M702.6,50.5c0.1,0,0.2-0.1,0.3-0.1
			c-0.2-0.4-0.3-0.9-0.6-1.1c-0.3-0.2-0.8-0.1-1.2-0.1c-0.1,0-0.2,0.2-0.2,0.4c0,0.1,0.2,0.2,0.3,0.3
			C701.7,50.1,702.1,50.3,702.6,50.5z M577.2,49.6c-0.2-0.3-0.3-0.6-0.5-0.8c-0.3,0.4-0.7,0.8-1,1.2c0.2,0.2,0.5,0.5,0.5,0.5
			C576.6,50.2,576.9,49.9,577.2,49.6z M824.2,34.5c0.1-0.1,0.1-0.2,0.2-0.3c-0.6-0.4-1.2-0.9-1.9-1.3
			C822.4,34.3,823.2,34.5,824.2,34.5z M237.6,11.8c0,0.1-0.1,0.2-0.1,0.3c0.4,0.3,0.9,0.5,1.3,0.9c0.6,0.5,1,0.4,1.3-0.3
			C239.2,12.3,238.4,12.1,237.6,11.8z M274.6,75.1c0.9-0.2,1.5-0.3,2.4-0.5c-0.3-0.3-0.7-0.8-0.9-0.7c-0.6,0.2-1.1,0.6-1.8,1
			C274.4,75,274.6,75.1,274.6,75.1z M655,13.1c0.1-0.1,0.2-0.2,0.3-0.4c-0.4-0.3-0.8-0.6-1.2-1c-0.2,0.3-0.3,0.7-0.5,1.1
			C654.2,13,654.6,13,655,13.1z M830,18.9c-0.4-0.6-0.7-1.2-1-1.7c0,0.9,0,1.8,0,2.9C829.5,19.5,829.8,19.2,830,18.9z M388.5,15.7
			c-0.5,0.5-0.9,0.8-1.5,1.3c0.8,0.1,1.3,0.1,2.1,0.2C388.9,16.7,388.7,16.3,388.5,15.7z M443,16.9c0.2,0,0.4,0,0.6-0.1
			c-0.1-0.5-0.1-1-0.2-1.5c0,0-0.5,0-0.8,0.1C442.7,15.9,442.8,16.4,443,16.9z M152.3,60.3c0.1,0,0.1,0.1,0.2,0.1
			c0.4-0.6,0.9-1.3,1.4-2.2c-0.7,0.1-1.1,0.1-1.6,0.2c0,0.1,0,0.2,0,0.3c0.2,0.1,0.4,0.2,0.4,0.2C152.6,59.4,152.4,59.9,152.3,60.3z
			 M625.8,57.9c-0.8,0.3-1.4,0.5-2.1,0.7c0.3,0.3,0.6,0.7,0.9,1.1C625,59.1,625.3,58.6,625.8,57.9z M823.8,77.8
			c1.4,0.8-0.2,0.8,0,1.3c0.4,0,0.8,0,1.2,0C825.2,78.4,825.5,77.6,823.8,77.8z M248.7,39.5c-0.1-0.1-0.1-0.2-0.2-0.3
			c-1.1-0.2-1.4,1.1-2.2,1.3c0.1,0.1,0.2,0.3,0.2,0.4C247.3,40.4,248,40,248.7,39.5z M244.9,40.2c0.1,0.2,0.2,0.3,0.3,0.5
			c0.3-0.1,0.8-0.3,0.9-0.5c0.1-0.4-0.1-0.9-0.1-1.4C245.6,39.3,245.2,39.8,244.9,40.2z M659.6,24.3c0.2-0.1,0.3-0.3,0.5-0.4
			c-0.3-0.4-0.5-0.9-0.8-1.3c0,0-0.5,0.2-0.7,0.4C658.9,23.4,659.2,23.8,659.6,24.3z M842.8,56.4c0.1,0.1,0.1,0.2,0.2,0.3
			c0.6-0.3,1.2-0.7,2-1.2c-0.9-0.2-1.4-0.4-1.9-0.5c0,0.1,0,0.2-0.1,0.2c0.2,0.1,0.5,0.2,0.7,0.4C843.4,56,843.1,56.2,842.8,56.4z
			 M740.8,24.5c-0.6,0.3-1.1,0.5-1.6,0.8c-0.1,0.1-0.3,0.4-0.3,0.4c0.1,0.2,0.4,0.4,0.5,0.4C739.9,25.6,741.2,25.6,740.8,24.5z
			 M734.4,51.5c-0.2,1.2,1.4,0.8,1.4,1.7c0.3-0.3,0.6-0.5,0.9-0.7C735.9,52.1,735.3,51.8,734.4,51.5z M565.8,28.1
			c-0.1,0-0.2,0-0.3-0.1c-0.3,0.5-0.6,1-0.9,1.6c0.5,0.2,0.8,0.3,1.2,0.4C565.8,29.4,565.8,28.7,565.8,28.1z M791.2,51.6
			c-0.7,0.4-1.5,0.9-2.2,1.3C789.8,53.6,789.8,53.6,791.2,51.6z M433.8,34.1c-0.5-0.5-1.1-1-1.7-1.6
			C431.5,34.3,433.1,33.8,433.8,34.1z M529.6,69.8c-0.7-0.1-1.4-0.3-2.1-0.4C527.8,70.7,528.5,70.8,529.6,69.8z M296.7,50.1
			c0.3-0.8,0.4-1.3,0.6-1.8c-0.5,0.1-0.9,0.2-1.4,0.3C296.1,49,296.3,49.4,296.7,50.1z M621.3,15.6c-0.7-0.3-1.2-0.5-1.7-0.7
			c0,0.6-0.1,1.1-0.1,1.9c0.3-0.4,0.5-0.6,0.7-0.7C620.5,15.9,620.8,15.8,621.3,15.6z M344.9,33.8c0.2,0.7,0.5,1.3,0.7,1.9
			c0.1,0,0.1,0,0.2,0c0.1-0.7,0.1-1.4,0.2-2.4C345.4,33.5,345.1,33.7,344.9,33.8z M301.5,75.3c0.1,0.1,0.2,0.4,0.4,0.7
			c0.1-0.1,0.2-0.1,0.3-0.2c-0.3-0.5-0.6-1-0.9-1.5c-0.4,0.3-0.8,0.5-1.1,0.7c0,0.1,0,0.2,0,0.3C300.6,75.3,301,75.3,301.5,75.3z
			 M513,76.6c-0.2,0.2-0.4,0.4-0.6,0.6c0.3,0.4,0.5,0.7,0.7,0.9c0.5-0.1,0.9-0.2,1.3-0.3C514,77.4,513.5,77,513,76.6z M402,37
			c0.7,0.1,1.3,0.2,1.9,0.3c-0.4-0.4-0.8-0.8-1.3-1.2C402.5,36.3,402.3,36.7,402,37z M389,79.9c0.6-0.2,1.1-0.4,1.5-0.6
			c-0.2-0.6-0.4-1-0.6-1.6C389.6,78.5,389.3,79.1,389,79.9z M515.7,45.6c-0.1-0.4-0.2-0.7-0.1-1c0.1-0.2,0.4-0.4,0.5-0.6
			c0.1-0.1,0-0.4-0.1-0.4c-0.2-0.1-0.4-0.1-0.5,0C514.7,43.9,514.8,44.8,515.7,45.6z M470.5,11.4c0.1-0.1,0.4-0.3,0.9-0.6
			c-1-0.1-1.7-1-2.6-0.2C469.4,10.9,469.9,11.1,470.5,11.4z M477.3,42.2c0.3-0.4,0.5-0.7,0.8-1.2c-0.7-0.2-1.2-0.3-2.1-0.5
			C476.6,41.2,476.9,41.6,477.3,42.2z M198,22.2c-0.1-0.1-0.2-0.2-0.3-0.3c-0.5,0.5-0.9,0.9-1.6,1.6c0.9-0.1,1.3-0.1,1.7-0.2
			C197.9,22.9,197.9,22.5,198,22.2z M607.4,22.6c0.1,0.4,0.1,0.8,0.3,1.1c0.2,0.3,0.5,0.4,0.8,0.7C608.8,23.4,608.2,22.6,607.4,22.6
			z M609.3,56.2c-0.9-1.8-1.4-2-2-1.5c0.3,0.3,0.7,0.7,1.1,1C608.6,55.8,608.9,56,609.3,56.2z M653.5,18.5c-0.1,0-0.3,0.1-0.4,0.1
			c0.2,0.5,0.3,1.1,0.6,1.4c0.4,0.3,1.1-0.2,1.3-0.9C654,19.6,653.6,19.4,653.5,18.5z M642.7,61.5c-0.2-0.1-0.4-0.1-0.6-0.2
			c-0.2,0.4-0.3,0.9-0.5,1.3c0.3,0.1,0.7,0.2,0.7,0.2C642.5,62.4,642.6,62,642.7,61.5z M420.8,20c0.9-0.3,1.5-0.5,2.1-0.8
			c0,0-0.1-0.3-0.1-0.5c-0.6,0.2-1.2,0.5-1.8,0.7C421,19.5,421,19.6,420.8,20z M774.8,51.4c-0.3,0.1-0.7,0-0.9,0.2
			c-0.2,0.2-0.4,0.5-0.4,0.8c0,0.1,0.3,0.3,0.5,0.5c0.2-0.3,0.4-0.5,0.6-0.8C774.7,52,774.7,51.7,774.8,51.4z M490.6,32
			c-0.7-0.2-1.2-0.3-1.9-0.4c0,0-0.2,0.3-0.4,0.7C489.2,32.3,490.1,33.2,490.6,32z M537.8,51.1c1-0.2,1.9-0.4,3-0.6
			C539.5,50,538.5,49.7,537.8,51.1z M393.2,68.6c0-0.5,0.1-0.8,0.1-1.2c-0.6,0.2-1.2,0.3-1.7,0.5c0,0.1,0,0.2,0,0.3
			C392.1,68.3,392.5,68.4,393.2,68.6z M306.1,41.4c0.9-0.5,1.4-0.8,1.9-1.1c0-0.1-0.1-0.3-0.1-0.4c-0.5,0.2-1.1,0.3-1.6,0.5
			C306.2,40.6,306.2,41,306.1,41.4z M806.3,24.2c-0.5-0.8-0.8-1.5-1.2-2.1c-0.1,0-0.2,0.1-0.3,0.1c0.1,0.3,0.3,0.6,0.2,0.9
			C804.8,24.1,805.3,24.2,806.3,24.2z M416.6,43.7c0.1-0.1,0.2-0.3,0.3-0.4c-0.6-0.3-1.2-0.6-1.8-0.9c-0.1,0.2-0.2,0.4-0.3,0.6
			C415.4,43.1,416,43.4,416.6,43.7z M326.4,68.7c0.1,0,0.2,0.1,0.3,0.1c0.4-0.4,0.8-0.8,1.2-1.3c-0.6-0.1-0.9-0.2-1.4-0.3
			C326.4,67.8,326.4,68.3,326.4,68.7z M683.5,60.5c1.9-0.4,1.9-0.4,1.4-1.4C684.5,59.7,684,60.1,683.5,60.5z M495.9,12.4
			c0.5-0.3,0.8-0.4,1.1-0.6c0.3-0.2,0.4-0.6,0.6-0.9C496.8,10.5,496.8,10.5,495.9,12.4z M202.6,78.8c0.1,0.4,0.2,0.8,0.4,1.2
			c-0.2-2-0.3-2.1-1.7-1.5C201.6,78.6,202.1,78.7,202.6,78.8z M695,49.5c-0.1,0-0.2,0.1-0.3,0.1c0.1,0.5,0.2,0.9,0.3,1.4
			c0.4-0.1,0.8-0.2,1.2-0.3C695.7,50.3,695.3,49.9,695,49.5z M718,55.1c0.1,0.1,0.3,0.2,0.4,0.3c0.3-0.4,0.7-0.7,1-1.1
			c0.1-0.1-0.3-0.4-0.5-0.7C718.5,54.1,718.3,54.6,718,55.1z M224.5,37.6c-0.8,0.5-1.5,0.9-2.2,1.4c0,0.1,0.1,0.1,0.1,0.2
			c0.7-0.2,1.4-0.4,2.1-0.6C224.5,38.4,224.5,38.1,224.5,37.6z M649.2,45.9c0.7,1.2,1.2-0.3,1.9,0C650.3,44.3,649.8,45.5,649.2,45.9
			z M813.3,50.1c0,0.1,0,0.2,0,0.4c1.2,0.8,1.6,0.8,1.8-0.3C814.5,50.2,813.9,50.1,813.3,50.1z M608,76.9c0.2,0,0.7,0,0.9-0.2
			c0.2-0.2,0.2-0.7,0.4-1.1c-0.3-0.2-0.6-0.3-0.8-0.4C608.3,75.8,608.2,76.4,608,76.9z M568.7,74.8c-0.1,0.1-0.1,0.2-0.2,0.3
			c0.3,0.7,0.4,1.6,1.8,1C569.7,75.6,569.2,75.2,568.7,74.8z M762,34.6c0.1,0.4,0.3,0.7,0.4,1c0.5-0.3,1-0.5,1.5-0.8
			c-0.1-0.1-0.1-0.2-0.2-0.3C763.2,34.5,762.7,34.5,762,34.6z M689.4,35.9c-0.7-0.5-1.3-0.9-2-1.3c0,0.3-0.1,0.8-0.1,1.2
			C688.1,35.8,688.7,35.8,689.4,35.9z M422.7,13.3c0-0.1,0-0.1,0-0.2c-0.8,0-1.5-0.1-2.3-0.1c-0.1,0-0.3,0.4-0.3,0.4
			c0.1,0.2,0.4,0.4,0.5,0.4C421.4,13.7,422,13.5,422.7,13.3z M173.7,12.1c0,0.1,0,0.2,0,0.2c0.1,0,0.1,0,0.2,0c0,0,0-0.1,0-0.1
			C173.8,12.1,173.8,12.1,173.7,12.1z"/>
	</g>
	<path class="st1" d="M52.5,82.9c-0.2-0.5-0.3-0.8-0.5-1.1c-0.3,0.3-0.7,0.6-1,0.9c-0.9,0.5-1.6,0.1-2.2-0.7c-0.4,0.3-0.7,0.6-1,0.9
		c-0.6-0.2-1.2-0.6-1.8,0c-0.2,0.2-0.7,0.1-1.1,0.1c-1.7,0-3.5,0-5.2,0c-0.9,0-1.7-0.3-2.5-0.4c-0.8,0.1-1.5,0.4-2.3,0.4
		c-2.8,0-5.5,0-8.3,0c-2,0-3.9,0-5.9,0c-0.6,0-1.3-0.1-1.8-0.3c-0.4-0.1-0.9-0.6-0.9-0.8c0.4-1-0.5-1.7-0.4-2.6c0.1-1,0.2-2,0.3-2.9
		c0-0.3,0.2-0.7,0.4-1c0.1-0.2,0.4-0.4,0.3-0.4c-0.6-1.1,0.2-2,0.5-3c0.2-0.6,0.8-1.2,0.9-1.8c0.1-0.8,0.5-1.2,1.1-1.6
		C21,68.4,21,68,21,67.8c0-0.1-0.1-0.4-0.1-0.4c1.2-0.6,0.9-2.1,1.8-2.9c0.8-0.8,1.5-1.9,2.3-2.8c0.4-0.5,1.1-0.8,1.8-1.3
		c-0.1,0.2,0,0.1,0,0c0.2-0.8,0.9-1.7,1.4-1.7c0.9,0,0.6,1,0.9,1.4c0.9-0.4,0.9-0.4,0.4-2.7c1-1.1,2.4-1.7,3.7-2.5
		c3.3-1.8,6.8-2.8,10.5-3.3c1.7-0.2,3.5-0.4,5.2-0.3c2.4,0.2,4.9,0.3,7.1,1c1.4,0.4,2.8,0.5,4.1,1.3c1.3,0.8,2.7,1.3,4.1,2.1
		c2.2,1.3,4.2,3,5.9,4.9c1.3,1.4,2.6,2.9,3.7,4.4c1.4,2,2.7,4,3.2,6.4c0.1,0.4,0.4,0.8,0.6,1.2c0.2,0.7,0.7,1.4,0.4,2.3
		c-0.1,0.3,0,0.8,0.2,1c0.6,0.7,0.6,1.4,0.6,2.2c0,0.5,0,1,0.1,1.4c0.3,1.9-0.5,3-2.4,3.1c-1.7,0-3.3,0.3-5-0.3
		c-0.5-0.2-1.3,0.3-1.9,0.3c-2.1,0-4.2,0-6.4,0C59.7,82.9,56.1,82.9,52.5,82.9z M66.6,71c1.3,0.2,1.8,0,1.8-0.6
		c0-0.7-0.7-1.1-1.9-1.2C66.5,69.8,66.6,70.4,66.6,71z"/>
	<path class="st1" d="M50.8,10.6c1.1,0.3,2.1,0.5,3.1,0.9c1,0.3,2,0.7,2.9,1.2c1.4,0.9,2.9,1.6,3.9,3.1c0.7,1.1,1.9,1.8,2.7,2.8
		c0.6,0.7,0.9,1.5,1.3,2.3c0.4,0.8,0.8,1.7,1.2,2.6c0.5,1.1,0.7,2.2-0.5,3.4c0.6-0.1,0.8-0.1,1.1-0.2c0.1,0.5,0.4,1,0.3,1.5
		c-0.1,0.4-0.8,0.8-0.8,1.2c0,0.4,1,0.3,0.8,1.2c-0.3,1.5-0.5,3-0.8,4.5c-0.2,0.9-0.2,1.9-1.2,2.5c-0.3,0.2-0.3,0.9-0.5,1.3
		c-1.5,3.6-4.2,6-7.6,7.8c-1.6,0.8-3.1,1.7-4.9,2c-1.4,0.3-2.8,1.1-4.2,0.2c-0.1,0-0.2,0-0.3,0.1c-2.1,0.8-4,0.1-6-0.7
		c-1-0.4-2.1-0.5-3.1-1.1c-0.8-0.4-1.5-0.9-2.3-1.4c0.1-0.4,0.1-0.9,0.2-1.5c-0.6,0.1-1.1,0.2-1.6,0.3c-1.6-1.2-2.8-2.8-3.9-4.5
		c-0.8-1.2-0.8-1.4-0.2-2.9c-1.4-0.4-2.2-1.4-2-3c0.8-0.7,1.3,1.3,2.3,0.3c-0.5-0.7-1-1.4-1.6-2.3c-0.2,0.2-0.5,0.4-1,0.8
		c-0.6-4-0.1-7.8,1.4-11.4c0.5-0.1,1-0.2,1.6-0.4c-0.3-0.4-0.6-0.6-0.8-1c2.6-4.9,6.6-8.2,12.1-9.4c1.9-0.4,3.9-0.3,5.8-0.4
		c0.1,0,0.3,0,0.4,0.1C49.9,11.5,49.9,11.5,50.8,10.6z M57,43.4c0.7,0.2,1.4,0.4,2.1,0.4c0.3,0,0.8-0.2,1-0.5
		c0.2-0.3,0.2-0.8,0.4-1.6c-0.5,0.5-0.8,0.7-1,0.9c-1.1-0.4-1.2-1.1-0.7-2.1c-1.1,0-1.8,0.4-2.3,1.1C56.7,42.3,56.8,42.9,57,43.4z
		 M55,31c-0.1-0.1-0.2-0.3-0.4-0.4c-0.6-0.3-2.4,0.2-2.8,0.8c-0.2,0.4-0.3,0.7,0.3,1c0.7,0.4,2.7-0.4,2.9-1.2C55,31.2,55,31.1,55,31
		z M49.5,20.7c-0.9,0.2-1.2,0.5-0.8,1.4c0.3,0.6,0.5,1.3,0.7,2.1c0.3-0.2,0.7-0.4,0.8-0.6C50.3,22.6,49.9,21.7,49.5,20.7z
		 M47.1,37.6c0.8-0.1,1.4-0.1,2.2-0.2c-0.5-1.4-1-1.8-1.7-1.6C46.6,36.2,47.3,36.9,47.1,37.6z M40.8,20.4c0.5-0.5,0.9-0.9,1.4-1.6
		c-1.1-0.1-1.5-1.4-2.6-0.5C40,19,40.3,19.7,40.8,20.4z"/>
	<text transform="matrix(1 0 0 1 157.516 39.0456)" class="st2 st3 st4">Comment example here</text>
</g>
</svg>
