<?xml version="1.0" encoding="utf-8"?>
<!-- Generator: Adobe Illustrator 19.2.1, SVG Export Plug-In . SVG Version: 6.00 Build 0)  -->
<svg version="1.1" id="Layer_1" xmlns="http://www.w3.org/2000/svg" xmlns:xlink="http://www.w3.org/1999/xlink" x="0px" y="0px"
	 viewBox="0 0 744 283" style="enable-background:new 0 0 744 283;" xml:space="preserve">
<style type="text/css">
	.st0{fill:#B4B5B6;}
	.st1{fill:#757576;}
	.st2{font-family:'GothamHTF-Bold';}
	.st3{font-size:15px;}
	.st4{font-size:16.6042px;}
	.st5{fill:#FFFFFF;}
	.st6{font-size:18.5347px;}
	.st7{fill:#F37046;}
	.st8{font-size:25.9153px;}
	.st9{letter-spacing:1;}
	.st10{font-size:16px;}
</style>
<g>
	<path class="st0" d="M10.4,200.4c0,0-0.2,0.2-0.3,0.4c-0.2,0-0.4,0-0.5,0c0-4.3,0-8.6,0-12.8c0-0.2,0.3-0.5,0.6-0.9
		c-0.2-0.9-0.5-2-0.5-3.1c-0.1-2.5-0.1-5,0-7.4c0-0.4,0.4-0.7,0.6-1.2c-0.1-0.1-0.6-0.4-0.6-0.7c0-4,0.1-8,0.1-12.1
		c0-0.5-0.2-1.1-0.2-1.6c0-5.6,0-11.1,0-16.7c0-1.3,0-2.6,0-3.8c4.8-0.1,9.4-0.3,14.1-0.3c4.7-0.1,9.4,0,14.1,0
		c4.5,0,9,0.3,13.4,0.2c4.5-0.1,8.9,0.1,13.4,0.1c4.6-0.1,9.3,0,13.9,0c4.6,0,9.3,0,13.9,0c4.5,0,9,0,13.4,0.2
		c0.8-0.1,1.6-0.3,2.4-0.3c2.4-0.1,4.8-0.1,7.1,0c10.1,0.1,20.3,0.2,30.4,0.2c6.5,0,13.1,0.1,19.6,0.1c1.7,0,3.4-0.1,5.2-0.1
		c0.5,0,1,0.4,1.5,0.6c1.4-0.8,5.7-0.9,7.8-0.2c0.1-0.2,0.3-0.4,0.3-0.5c3.2,0,6.3-0.1,9.3,0c3.4,0.2,6.8-0.1,10.2,0
		c3.7,0.1,7.5,0.1,11.3-0.1c1.4-0.1,2.6,0.6,4.2,0.2c1.2-0.4,3-0.1,4.5-0.1c0.6,0,1.2,0.3,1.9,0.4c0.6-0.1,1.4-0.4,2.2-0.4
		c2.2-0.1,4.5,0,6.9,0c0,0.5,0,1,0,1.4c0,7,0,13.9,0,20.9c0,0.9,0.5,2-2.5,1.6c0.1,0.1,0.1,0.2,0.2,0.3c0.7,0.1,1.4,0.3,2.4,0.5
		c-0.6,3.8,0.9,7.7-0.9,11.4c1.7,0.8,0.4,1.8,0.9,2.6c-0.6,0.2-1.1,0.3-1.6,0.5c0.6,0.4,1.5,0.8,1.5,1.1c-0.5,2.7,1.4,5.6-1.2,8.3
		c0.4-0.2,0.8-0.3,1.2-0.5c0,4,0,8.1,0,12.4c-4.9,0-9.9,0.2-14.8-0.1c-1.3-0.1-2.3,0.2-3.5,0.2c-9-0.1-17.9,0-26.9,0
		c-4.3,0-8.6,0-12.9,0c-1.2,0-2.6,0.4-3.5-0.5c0,0-1,0.3-1.5,0.4c-0.4,0.1-0.8,0.1-1.1,0.1c-7,0-14.1,0-21.1,0c-3.2,0-6.4,0-9.6,0
		c-0.7,0-1.4-0.2-2.2-0.2c-0.7,0-1.5,0.2-2.2,0.2c-4.8,0-9.5,0-14.3,0c-0.6,0-1.2-0.4-1.4-0.5c-1.2,0.2-2.2,0.5-3.2,0.5
		c-5,0-10.1,0-15.1-0.1c-0.5,0-0.9-0.4-0.9-0.4c-1,0.2-1.6,0.5-2.3,0.5c-6.5,0-13.1,0-19.6,0c0-0.2,0.1-0.4,0.2-0.8
		c-2.8,2-4.3-0.1-6.4-0.5c0,0.5,0,0.8,0,1.3c-5.3,0-10.7,0-16,0c-3.4,0-6.8,0-10.3,0c-9.8,0-19.6,0-29.4,0
		C11.8,200.8,11.2,200.6,10.4,200.4z M184,164.2c-1.5,1,0.7,1.4,1.9,2c0.3,0.1,1.2-0.2,1.9-0.3c-0.5,0.2-1,0.3-1.4,0.5
		C185.6,165.6,184.8,164.9,184,164.2z M149.3,196.8c0.2-0.1,0.5-0.3,0.7-0.4c-1-0.7-2-1.3-3.3-2.1c-0.1,0.7-0.1,1.2-0.1,1.3
		C147.7,196.1,148.5,196.5,149.3,196.8z M199.4,160.1c-0.4-0.5-0.7-0.8-0.9-1.2c-2.8,0.4-2.8,0.4-2.8,1
		C196.8,159.9,197.9,160,199.4,160.1z M101.3,194.7c0.1,0.1,0.4,0.3,0.6,0.5c1.5-0.8,1.8,0.4,2.7,0.5c0.2,0,0.3,0.1,0.5,0.1
		c0.1-0.1,0.3-0.3,0.3-0.4c-0.8-0.6-1.6-1.2-2.5-1.9C102.1,194.2,101.8,194.4,101.3,194.7z M139.8,160.1c0.1-0.6,0.6-1.3,0.3-1.8
		c-0.4-0.5-0.8-1.3-2.2-1.2C138.5,158.1,139,159,139.8,160.1z M34.3,168.5c-1.1-0.1-2.1-0.2-3.3-0.3c0.5,0.7,0.8,1.2,1.1,1.6
		c0.2,0.1,0.4,0.2,0.6,0.3C33.1,169.7,33.6,169.2,34.3,168.5z M183.4,190c-0.3,1.7,0.5,2.2,2.9,2.2c0.1-0.4,0.1-0.7,0.2-1.3
		C185.2,191.8,184.9,191.7,183.4,190z M89.8,153.4c0,0.1,0.1,0.3,0.1,0.4c0.9,0.1,1.7,0.2,2.6,0.2c0.2,0,0.3-0.7,0.6-1.3
		C91.7,152.9,90.8,153.1,89.8,153.4z M71.9,179.8c-0.5,0.7-1.2,1.2-1.1,1.6c0.2,0.5,1.1,0.9,1.7,1.4c0.4-0.1,0.8-0.2,1.1-0.3
		C70.4,182.1,72.9,181,71.9,179.8z M52.6,171.9c1-0.3,1.7-0.5,2.5-0.7c-0.6-0.5-1.3-1-2-1.5C52.9,170.5,52.7,171.1,52.6,171.9z
		 M95.4,147c-0.8,0.3-1.4,0.5-1.9,0.7c0.6,0.4,1.2,0.9,1.8,1.3c0.2,0,0.4-0.1,0.6-0.1C95.8,148.3,95.6,147.7,95.4,147z M119.8,140.4
		c-0.4,0.3-0.7,0.5-1.1,0.7c-0.6-0.2-1.3-0.3-2.3-0.6c0.4,0.6,0.6,1,0.9,1.5C118.4,141.4,120.4,141.8,119.8,140.4z M183.6,175.7
		c0-0.1-0.1-0.2-0.1-0.2c-0.5,0-1.2,0-1.5,0.1c-0.3,0.1-0.2,0.6-0.1,0.8c0.3,0.6,0.8,1.1,1.2,1.6c0.1,0,0.2,0,0.3,0
		c-0.2-0.6-0.3-1.2-0.5-1.9C183,176.1,183.3,175.9,183.6,175.7z M94,184.1c-0.1-0.1-0.2-0.2-0.3-0.2c-0.8,0.1-1.5,0.3-2.3,0.4
		c0.3,0.4,0.6,0.8,0.9,1.1C92.9,185,93.4,184.5,94,184.1z M17.2,141.9c-1.4,0.5-0.8,1.9-2.6,1.9c0.1,0.1,0.2,0.3,0.3,0.4
		c0,0,0.2,0,0,0c1-0.3,1.8-0.6,2.6-0.9C17.4,142.9,17.4,142.6,17.2,141.9z M201.7,163.1c-0.3-0.1-0.5-0.1-0.8-0.2
		c-0.4,0.3-0.7,0.6-1.1,0.9c-0.2,0.2-0.5,0.3-0.8,0.5c0.5,0.1,1.4,0.3,1.5,0.2C201.1,164,201.4,163.5,201.7,163.1z M52.3,154.3
		c1.9-0.9,1.9-0.9,0-2.2C52.3,152.9,52.3,153.5,52.3,154.3z M86.5,164.5c-0.7,0.6-1.3,1.3-2,1.9C86,166.1,87.6,165.8,86.5,164.5z
		 M57,190.5c-2.3,0.7-1.8,1.7-2.3,2.5c0.2,0.1,0.4,0.1,0.6,0.2C55.9,192.5,56.4,191.7,57,190.5z M180.3,162.6
		c-2.5,0.6-0.2,1.9-1.2,2.6c0.3,0,0.5,0.1,0.8,0.1C180,164.4,180.2,163.6,180.3,162.6z M83.7,190.9c0.4-0.9,0.8-1.6,1.1-2.3
		c-0.3,0-0.6-0.1-0.9-0.1C84.9,189.3,81.1,189.7,83.7,190.9z M105.2,172.3c0.2-0.7,0.5-1.2,0.4-1.6c0-0.3-0.6-0.5-0.9-0.7
		c-0.2,0.2-0.8,0.5-0.7,0.6C104.2,171.1,104.7,171.5,105.2,172.3z"/>
	<path class="st1" d="M9.8,279.1c0,0-0.1,0.2-0.1,0.4c-0.1,0-0.2,0-0.2,0c0-4.3,0-8.6,0-12.8c0-0.2,0.1-0.5,0.2-0.9
		c-0.1-0.9-0.2-2-0.2-3.1c0-2.5,0-5,0-7.4c0-0.4,0.2-0.7,0.3-1.2c0-0.1-0.3-0.4-0.3-0.7c0-4,0-8,0.1-12.1c0-0.5-0.1-1.1-0.1-1.6
		c0-5.6,0-11.1,0-16.7c0-1.3,0-2.6,0-3.8c2-0.1,4-0.3,6-0.3c2-0.1,4,0,6,0c1.9,0,3.8,0.3,5.7,0.2c1.9-0.1,3.8,0.1,5.7,0.1
		c2-0.1,3.9,0,5.9,0c2,0,4,0,5.9,0c1.9,0,3.8,0,5.7,0.2c0.3-0.1,0.7-0.3,1-0.3c1-0.1,2-0.1,3.1,0c4.3,0.1,8.6,0.2,13,0.2
		c2.8,0,5.6,0.1,8.4,0.1c0.7,0,1.5-0.1,2.2-0.1c0.2,0,0.4,0.4,0.6,0.6c0.6-0.8,2.5-0.9,3.3-0.2c0.1-0.2,0.1-0.4,0.1-0.5
		c1.3,0,2.7-0.1,4,0c1.5,0.2,2.9-0.1,4.3,0c1.6,0.1,3.2,0.1,4.8-0.1c0.6-0.1,1.1,0.6,1.8,0.2c0.5-0.4,1.3-0.1,1.9-0.1
		c0.3,0,0.5,0.3,0.8,0.4c0.3-0.1,0.6-0.4,0.9-0.4c1-0.1,1.9,0,2.9,0c0,0.5,0,1,0,1.4c0,7,0,13.9,0,20.9c0,0.9,0.2,2-1.1,1.6
		c0,0.1,0.1,0.2,0.1,0.3c0.3,0.1,0.6,0.3,1,0.5c-0.2,3.8,0.4,7.7-0.4,11.4c0.7,0.8,0.2,1.8,0.4,2.6c-0.3,0.2-0.5,0.3-0.7,0.5
		c0.3,0.4,0.7,0.8,0.6,1.1c-0.2,2.7,0.6,5.6-0.5,8.3c0.2-0.2,0.3-0.3,0.5-0.5c0,4,0,8.1,0,12.4c-2.1,0-4.2,0.2-6.3-0.1
		c-0.5-0.1-1,0.2-1.5,0.2c-3.8-0.1-7.6,0-11.5,0c-1.8,0-3.7,0-5.5,0c-0.5,0-1.1,0.4-1.5-0.5c0,0-0.4,0.3-0.7,0.4
		c-0.2,0.1-0.3,0.1-0.5,0.1c-3,0-6,0-9,0c-1.4,0-2.7,0-4.1,0c-0.3,0-0.6-0.2-0.9-0.2c-0.3,0-0.6,0.2-0.9,0.2c-2,0-4.1,0-6.1,0
		c-0.3,0-0.5-0.4-0.6-0.5c-0.5,0.2-0.9,0.5-1.3,0.5c-2.1,0-4.3,0-6.4-0.1c-0.2,0-0.4-0.4-0.4-0.4c-0.4,0.2-0.7,0.5-1,0.5
		c-2.8,0-5.6,0-8.4,0c0-0.2,0-0.4,0.1-0.8c-1.2,2-1.8-0.1-2.7-0.5c0,0.5,0,0.8,0,1.3c-2.3,0-4.5,0-6.8,0c-1.5,0-2.9,0-4.4,0
		c-4.2,0-8.4,0-12.5,0C10.4,279.5,10.2,279.3,9.8,279.1z M83.9,242.9c-0.7,1,0.3,1.4,0.8,2c0.1,0.1,0.5-0.2,0.8-0.3
		c-0.2,0.2-0.4,0.3-0.6,0.5C84.6,244.3,84.2,243.6,83.9,242.9z M69.1,275.5c0.1-0.1,0.2-0.3,0.3-0.4c-0.4-0.7-0.9-1.3-1.4-2.1
		c0,0.7,0,1.2-0.1,1.3C68.4,274.8,68.7,275.2,69.1,275.5z M90.4,238.7c-0.2-0.5-0.3-0.8-0.4-1.2c-1.2,0.4-1.2,0.4-1.2,1
		C89.3,238.6,89.8,238.7,90.4,238.7z M48.6,273.4c0.1,0.1,0.2,0.3,0.3,0.5c0.6-0.8,0.8,0.4,1.2,0.5c0.1,0,0.1,0.1,0.2,0.1
		c0-0.1,0.1-0.3,0.1-0.4c-0.3-0.6-0.7-1.2-1.1-1.9C48.9,272.8,48.8,273.1,48.6,273.4z M65,238.8c0.1-0.6,0.2-1.3,0.1-1.8
		c-0.2-0.5-0.4-1.3-0.9-1.2C64.4,236.8,64.7,237.7,65,238.8z M20,247.2c-0.5-0.1-0.9-0.2-1.4-0.3c0.2,0.7,0.3,1.2,0.5,1.6
		c0.1,0.1,0.2,0.2,0.3,0.3C19.5,248.4,19.7,247.9,20,247.2z M83.6,268.7c-0.1,1.7,0.2,2.2,1.2,2.2c0-0.4,0-0.7,0.1-1.3
		C84.4,270.5,84.3,270.4,83.6,268.7z M43.7,232c0,0.1,0,0.3,0.1,0.4c0.4,0.1,0.7,0.2,1.1,0.2c0.1,0,0.1-0.7,0.3-1.3
		C44.5,231.6,44.1,231.8,43.7,232z M36.1,258.5c-0.2,0.7-0.5,1.2-0.5,1.6c0.1,0.5,0.5,0.9,0.7,1.4c0.2-0.1,0.3-0.2,0.5-0.3
		C35.4,260.8,36.5,259.6,36.1,258.5z M27.8,250.6c0.4-0.3,0.7-0.5,1-0.7c-0.3-0.5-0.5-1-0.8-1.5C27.9,249.2,27.9,249.7,27.8,250.6z
		 M46.1,225.7c-0.4,0.3-0.6,0.5-0.8,0.7c0.3,0.4,0.5,0.9,0.8,1.3c0.1,0,0.2-0.1,0.2-0.1C46.2,227,46.2,226.4,46.1,225.7z
		 M56.5,219.1c-0.2,0.3-0.3,0.5-0.4,0.7c-0.3-0.2-0.5-0.3-1-0.6c0.2,0.6,0.2,1,0.4,1.5C55.9,220.1,56.8,220.5,56.5,219.1z
		 M83.7,254.4c0-0.1,0-0.2,0-0.2c-0.2,0-0.5,0-0.6,0.1c-0.1,0.1-0.1,0.6,0,0.8c0.1,0.6,0.3,1.1,0.5,1.6c0,0,0.1,0,0.1,0
		c-0.1-0.6-0.1-1.2-0.2-1.9C83.4,254.8,83.6,254.6,83.7,254.4z M45.5,262.7c0-0.1-0.1-0.2-0.1-0.2c-0.3,0.1-0.6,0.3-1,0.4
		c0.1,0.4,0.3,0.8,0.4,1.1C45,263.6,45.2,263.2,45.5,262.7z M12.7,220.5c-0.6,0.5-0.3,1.9-1.1,1.9c0,0.1,0.1,0.3,0.1,0.4
		c0,0,0.1,0,0,0c0.4-0.3,0.8-0.6,1.1-0.9C12.8,221.6,12.8,221.2,12.7,220.5z M91.4,241.8c-0.1-0.1-0.2-0.1-0.3-0.2
		c-0.2,0.3-0.3,0.6-0.5,0.9c-0.1,0.2-0.2,0.3-0.3,0.5c0.2,0.1,0.6,0.3,0.6,0.2C91.2,242.7,91.3,242.2,91.4,241.8z M27.7,233
		c0.8-0.9,0.8-0.9,0-2.2C27.7,231.5,27.7,232.2,27.7,233z M42.3,243.1c-0.3,0.6-0.6,1.3-0.8,1.9C42,244.7,42.7,244.5,42.3,243.1z
		 M29.7,269.2c-1,0.7-0.8,1.7-1,2.5c0.1,0.1,0.2,0.1,0.3,0.2C29.2,271.1,29.4,270.3,29.7,269.2z M82.3,241.3
		c-1.1,0.6-0.1,1.9-0.5,2.6c0.1,0,0.2,0.1,0.3,0.1C82.2,243.1,82.2,242.3,82.3,241.3z M41.1,269.5c0.2-0.9,0.3-1.6,0.5-2.3
		c-0.1,0-0.3-0.1-0.4-0.1C41.6,267.9,40,268.4,41.1,269.5z M50.3,250.9c0.1-0.7,0.2-1.2,0.2-1.6c0-0.3-0.2-0.5-0.4-0.7
		c-0.1,0.2-0.3,0.5-0.3,0.6C49.8,249.7,50,250.2,50.3,250.9z"/>
	<text transform="matrix(1 0 0 1 25.8791 15.4034)"><tspan x="0" y="0" class="st1 st2 st3">arabic click through rate </tspan><tspan x="-21.1" y="18" class="st1 st2 st3">using specific isis keywords vs.</tspan><tspan x="0.7" y="36" class="st1 st2 st3">overall campaign average</tspan></text>
	<text transform="matrix(1 0 0 1 444.5859 15.4034)"><tspan x="0" y="0" class="st1 st2 st3">english click through rate </tspan><tspan x="-9.3" y="18" class="st1 st2 st3">using broad isis keywords vs.</tspan><tspan x="4.7" y="36" class="st1 st2 st3">overall campaign average</tspan></text>
	<g>
		<path class="st1" d="M210.3,115.9c0.1,0.3,0.3,0.5,0.4,0.9c-3.5,0.1-7.1,0-10.6,0.1c-3.8,0.1-7.6,0-11.4,0c-3.6,0-7.2,0-10.8,0
			c-3.8-0.1-7.5-0.3-11.3-0.3c-3.7,0-7.4,0.2-11.2,0.4c0.2-0.4,0.3-0.6,0.4-0.8c-0.1-0.1-0.1-0.1-0.2-0.2c-0.2,0.2-0.5,0.4-0.8,0.7
			c-3.3,0-6.7,0-10.2,0c-1.3,0-2.5,0.1-3.8,0.1c-1.6,0-3.2-0.2-4.8,0c-0.3,0-0.7-0.2-1.1-0.3c-0.1,0-0.2-0.1-0.3-0.1
			c-1.4,0.9-3,0.2-4.5,0.4c-0.9,0.1-1.7,0.1-2.1-1c0.1,0.3,0.2,0.6,0.3,1c-4.8,0-9.5,0-14.2,0c-4.7,0-9.5-0.1-14.2-0.2
			c-4.8,0-9.6,0-14.4,0c-0.1-0.1-0.2-0.4-0.3-0.7c-0.1,0-0.2,0.1-0.3,0.1c0.1,0.3,0.1,0.5,0.2,0.8c-1.4,0-2.8,0-4.2,0
			c0.1-0.4,0.1-0.8,0.2-1.1c-0.2,0.1-0.5,0.2-0.6,0.4c-0.1,0.2,0,0.5,0,0.8c-1.5,0-2.9,0-4.4,0c-4,0-8.1,0-12.1,0c-1,0-2,0.4-3-0.3
			c-0.2-0.1-0.8,0.3-1.1,0.3c-1.8,0-3.7,0-5.5,0c-0.5,0-1.1-0.3-1.6-0.4c-0.2,0-0.5-0.1-0.5-0.1c-0.4,0.8-1.1,0.5-1.7,0.5
			c-11.5,0-22.9,0-34.4,0c-2.1,0-4.2,0-6.3,0c-1.7,0-1.9-0.2-1.9-2c0-0.3-0.1-0.7-0.1-1c0.4-3.3-0.1-6.6,0-9.9
			c0-0.4,0.3-0.9,0.4-1.3c0.1-0.3,0.1-0.6,0-0.9c-0.1-0.4-0.3-0.7-0.6-1.3c0.5,0.2,0.8,0.3,1,0.4c0-0.2,0.1-0.4,0-0.5
			c-0.2-0.2-0.5-0.4-0.8-0.7c-0.1-1.6-0.2-3.3-0.3-5.1c0-0.3,0.3-0.6,0.5-0.8c-1.2-0.8-0.4-2.2-0.5-3.3C7.7,89.7,8,88.9,8,88.1
			c0-4.1,0-8.2,0-12.3c0-1.2,0.4-1.5,1.6-1.6c6.5,0,12.9,0,19.4,0c1.3,0,2.7,0,4,0c1.8,0,3.5,0,5.3,0c0.4,0,0.9,0.2,1.3,0.3
			c0.1,0,0.3,0.1,0.4,0.1c2.1-0.9,4.3-0.2,6.4-0.4c0.8-0.1,1.7,0,2.5,0c0,0.3,0.1,0.6,0.1,0.8c0,0,0.4,0,0.4,0c0-0.2,0-0.4,0-0.8
			c1.9,0.3,3.8-0.3,5.6,0.4c0.4-0.3,0.8-0.9,1.1,0c0.3-0.1,0.7-0.4,1-0.4c1.4,0,2.9,0,4.3,0c0.8,0,1.6,0.2,2.3,0.2
			c0.7,0,1.4-0.2,2-0.2c0.8,0,1.6,0,2.3,0c0.8,0,1.6,0,2.4,0c0.4,0,0.8,0.3,1.2,0.4c0.2-0.1,0.4-0.4,0.7-0.4c3.9,0,7.8,0,11.7,0.1
			c0.9,0,1.9,0.5,2.7,0.2c1.5-0.4,2.9-0.3,4.3-0.3c4.1,0,8.1,0,12.2,0c5.6,0,11.3,0,16.9,0c3.6,0,7.2-0.1,10.8,0c1.9,0,3.9,0,5.8,0
			c3.3,0,6.6-0.2,9.8-0.2c3.2,0,6.4,0,9.6,0c2.7,0,5.5,0,8.2,0c1.9,0,3.8,0.2,5.6,0.2c2.8,0,5.7-0.1,8.5-0.2c1.5,0,3.1-0.1,4.6,0
			c1.4,0.1,2.7,0.3,4.1,0.4c0.5,0,1-0.1,1.5-0.1c2.2,0,4.4,0,6.7,0c3.8,0.1,7.7,0,11.5,0c3.9,0,7.8,0,11.7,0c1.9,0,3.7,0,5.6,0
			c0.3,0,0.7,0,1.3,0.1c-0.5,0.3-0.7,0.5-1,0.7c0.3,0.2,0.6,0.3,1,0.5c0-1.2,0.6-1.3,1.6-1.2c2.6,0.1,5.2,0,7.8,0
			c0.5,0,0.9,0.3,1.4,0.4c0.1,0,0.3,0.1,0.4,0c0.5-0.1,1-0.4,1.5-0.4c2.8,0,5.7,0,8.5,0c2.1,0,4.3,0.2,6.4,0.2
			c1.7,0,3.5-0.1,5.2-0.2c0.6,0,1.1,0.1,1.2,0.9c0,0.3,0.4,0.5,0.6,0.7c0.1-0.1,0.1-0.1,0.2-0.2c-0.1-0.2-0.1-0.4-0.2-0.5
			c-0.1-0.2-0.2-0.3-0.3-0.4c0.2-0.1,0.6-0.4,0.7-0.4c0.4,0.4,0.8,0,1.2,0c3.3,0,6.6,0,9.9,0c0.3,0,0.6,0.4,1,0.7
			c0.1-0.1,0.2-0.4,0.3-0.7c3.4,0,6.8,0,10.3,0c-0.1,0.2-0.3,0.4-0.2,0.5c0,0.2,0.2,0.5,0.3,0.7c0.2-0.2,0.5-0.4,0.5-0.6
			c-0.1-0.7,0.4-0.6,0.8-0.7c1.5,0,3,0,4.6,0c0,0.2,0,0.4,0,0.7c0.2-0.1,0.3-0.1,0.3-0.1c0.3-0.2,0.7-0.5,1-0.5c2.8,0,5.5,0,8.3,0
			c0.4,0,0.7,0.3,1.3,0.6c0,0,0.2-0.2,0.4-0.6c1.8,0,3.8,0,5.8,0c0.8,0,1.3,0.4,1.4,1.2c0.1,0.8,0.1,1.5,0,2.3
			c0,0.2-0.1,0.4-0.4,0.3c0.1,0.4,0.3,0.9,0.3,1.3c0,2.1,0,4.2,0.1,6.3c0,2.5,0,5.1,0,7.6c0,1-1.1,0.6-1.5,1.2
			c0.2,0,0.5,0.1,0.7,0.1c0.2,0,0.5,0,0.7-0.1c-0.1,0.3-0.2,0.6-0.3,0.8c-0.2,0.2-0.4,0.4-0.8,0.7c0.5,0,0.8,0,1.2,0
			c0,1,0.1,2.1,0,3.2c0,0.3-0.5,0.6-0.9,1c0.3,0,0.6,0.1,0.9,0.1c0,0.8,0,1.7,0,2.6c-0.2-0.2-0.4-0.4-0.7-0.6
			c0.1,0.6,0.3,1.1,0.4,1.6c0,0,0,0-0.1,0c0.1,0.2,0.2,0.4,0.2,0.6c-0.2,0-0.5,0-0.7,0.1c0,0.1,0,0.2,0,0.2c0.3,0,0.5,0,0.8,0.1
			c0,2.9,0,5.9,0,8.9c0,1-0.7,0.9-1.5,1c0.5,0.3,0.9,0.5,1.3,0.7c-0.3,0.9-0.6,1.2-1.5,1.2c-5.3,0-10.7-0.1-16-0.1
			c-1.1,0-2.3,0.1-3.4,0.1c-0.4,0-0.8-0.2-1.1-0.3c-0.5,0.1-1,0.2-1.5,0.2c-2.9,0.1-5.8,0.1-8.7,0.1c-3.8,0-7.5,0-11.3,0
			c-0.4,0-0.7-0.2-1.1-0.4c-0.1,0-0.3-0.1-0.3,0c-0.7,0.7-1.5,0.2-2.3,0.2c-4.7,0-9.4,0-14.1,0.1c-0.5,0-1,0.1-1.4,0.1
			c-8.3,0-16.6,0-24.9,0c-1.3,0-2.7,0-4,0c-0.2,0-0.4-0.1-0.6-0.3c-0.3-0.2-0.4-0.3-0.8,0.1C213.9,117.3,211.4,116.8,210.3,115.9z
			 M304.2,109.3c-0.2-0.7-0.5-1.5-0.5-2.3c-0.1-3.5,0-6.9,0-10.4c0-2.8,0.1-5.7,0-8.5c-0.1-2.8,0.4-5.5,0-8.2
			c-0.1-0.9,0-2.1-1.4-2.4c-0.2,0-0.3-0.3-0.3-0.4c-0.2,0.4-0.2,0.9-0.5,1c-0.3,0.1-0.8,0-1.1-0.1c-0.1,0-0.1-0.1-0.2-0.1
			c-1.2,0.2-2.4,0.4-3.6,0.5c0-0.1,0-0.2,0.1-0.4c-0.2-0.2-0.4-0.4-0.6-0.4c-0.2,0-0.4,0.3-0.7,0.5c-1.7,0-3.7,0-5.7,0
			c0.3-0.4,0.5-0.6,0.8-0.9c-0.3-0.1-0.4-0.1-0.6,0c-0.5,0.3-1.1,0.9-1.6,0.9c-2.9,0.1-5.7,0-8.6,0c-0.3,0-0.7,0.1-0.8,0
			c-0.5-0.7-1.1-0.2-1.6-0.1c-0.3,0.1-0.7,0.1-1,0.1c-2.4,0-4.7,0-7.1,0c-2.2,0-4.4-0.2-6.6,0c-1.5,0.1-3,0-4.6,0
			c-0.4,0-0.8-0.3-1.2-0.3c-0.8,0-1.5,0.2-2.3,0.2c-0.3,0-0.7-0.4-1-0.3c-0.7,0.1-1.4,0.3-2.1,0.4c-4.5,0.1-9.1,0-13.6,0
			c-5.4,0-10.9,0-16.3,0c-2.3,0-4.7-0.2-7,0c-1.6,0.1-3.3,0-4.9,0c0,0,0-0.1,0-0.1c0.4-0.1,0.8-0.2,1-0.2c-0.2-0.4-0.3-0.7-0.5-1
			c-0.3,0-0.6-0.1-0.8-0.1c-0.1,0.5-0.2,1-0.2,1.4c-4.6,0-9.2,0-13.8,0c-0.1-0.1-0.2-0.3-0.3-0.4c0.3-0.1,0.5-0.2,1-0.4
			c-0.6,0-0.9,0-1.3,0c-0.1,0.3-0.2,0.5-0.3,0.8c-0.9,0-1.7,0.1-2.5,0c-1.1-0.1-2.4,0.5-2.9-0.6c-0.5,0.2-1,0.6-1.4,0.6
			c-1.3-0.1-2.6,0.2-3.9-0.3c-1-0.3-2.2,0.2-3.4,0.3c-3.6,0.2-7.1-0.3-10.7,0c-2.6,0.2-5.3,0-7.9,0c-1.8,0-3.6,0-5.4,0
			c-1.8,0-3.7-0.1-5.5,0c-1.7,0.1-3.4-0.5-5.1-0.1c-1,0.2-2,0-3,0c-1.3,0-2.7,0-4,0c-0.3,0-0.6-0.3-0.8-0.3
			c-0.4,0.1-0.7,0.3-1.1,0.4c-2.4,0-4.8,0-7.2,0c-7.4,0-14.8,0-22.3,0c-0.4,0-0.9-0.4-1.3-0.4c-1,0.1-1.9,0.4-2.8,0.5
			c-0.2-0.6-0.3-0.9-0.4-1.3c-0.1,0-0.1,0-0.2,0c0,0.4-0.1,0.7-0.1,1c-1,0-2,0-2.9,0c0.2-0.2,0.4-0.4,0.7-0.8
			c-0.8,0.1-1.2,0.2-1.7,0.3c0.1,0.2,0.2,0.3,0.4,0.5c-2,0.1-2.3,0-2.5-0.3c-0.3,0.1-0.6,0.3-0.9,0.3c-0.2,0-0.5-0.2-0.7-0.2
			c-2.3,0.1-4.6,0.2-6.9,0.2c-2.3,0-4.6-0.1-6.9-0.1c-3.9,0-7.8,0.1-11.7,0.1c-0.2,0-0.5,0-0.7-0.1c-0.8-0.8-0.8-0.8-1.6-0.1
			c0.2,0.1,0.3,0.1,0.8,0.3c-0.6,0-0.8,0-1.1,0c-0.9,0.2-1.8-0.1-2.7-0.1c-1.4,0-2.9,0.7-4.1-0.5c-0.1-0.1-0.5,0-0.6,0.1
			c-0.1,0.8-0.7,0.5-1.2,0.5c-1.1,0-2.3,0-3.4,0c-1.1,0-2.3,0-3.4,0s-2.3-0.1-3.4,0c-1,0.2-2-0.6-3.1-0.1c-0.1,0-0.3-0.3-0.5-0.4
			c-0.2-0.1-0.3-0.1-0.5-0.1c0,0.2,0,0.3,0,0.4c-3.4,0-6.8,0-10.3,0c1.1-0.8,1.1-1.1,0.2-1.7c-0.2,0.3-0.6,0.6-0.5,0.8
			c0.4,1.2-0.4,1.1-1.1,1c-2.4-0.1-4.8-0.2-7.2-0.3c-1.3,0-2.6,0.2-3.9,0.3c-0.8,0.1-1.5,0-1.6-1.1c-0.1,0.1-0.2,0.1-0.3,0.2
			c0,0.3,0.1,0.6,0.1,0.9c-2.2,0-4.5,0-6.7,0c-0.4,0.8-0.7,1.5-1.1,2.2c-0.2,0.4,0.2,1.2,0.7,1.3c-0.1,1.7-0.2,3.4-0.2,5.1
			c0,4,0.1,8,0.2,12c0,4.1,0,8.2,0,12.3c0,1.3,0.4,1.6,1.7,1.7c1.5,0.1,3-0.5,4.4,0.4c0.1,0.1,0.3-0.1,0.5-0.1
			c0.3-0.1,0.5-0.3,0.8-0.3c5,0,10,0,15,0c0.4,0,0.7,0.2,1.1,0.4c0.9-0.2,1.8-0.4,2.7-0.4c6.8,0,13.6,0,20.5,0
			c0.5,0,1.1,0.3,1.6,0.5c0,0.1,0,0.2,0,0.3c0.2-0.1,0.4-0.3,0.6-0.5c-0.3-0.1-0.4-0.1-0.7-0.3c1.9-0.3,3.6,0.1,5.4-0.1
			c1.8-0.1,3.6-0.1,5.4,0c1.7,0.1,3.3,0.3,5,0.3c1.6,0,3.2-0.3,4.8-0.3c1.7,0,3.4,0,5,0c1.7,0,3.5,0.2,5.2,0.2
			c1.8,0,3.6-0.1,5.4-0.2c1.8,0,3.5,0,5.3,0c1.8,0,3.5,0,5.3,0c1.8,0,3.6,0,5.4,0c1.8,0,3.5,0,5.3,0c0.1,0.4,0.1,0.7,0.1,1
			c0.5-0.4,0.6-1.6,1.5-0.7c0,0,0.2-0.1,0.3-0.1c0.6-0.1,1.3-0.2,2.1-0.3c-0.3,0.3-0.4,0.5-0.8,0.9c1.2-0.4,2.1-0.6,3.2-1
			c-0.2,0.4-0.2,0.6-0.4,1c0.8-0.7,0.9,1.2,1.6,0.3c-0.3-0.3-0.6-0.6-1-1.1c3.2,0,6.2,0,9.1,0c0.3,0,0.5,0.2,0.8,0.2
			c1.3-0.1,2.6-0.2,3.9-0.2c0.3,0,0.5,0.4,0.8,0.4c0.6-0.1,1.3-0.4,1.9-0.4c2.8,0,5.5,0,8.3,0c0.1,0.5,0.1,1,0.2,1.4
			c0.3-0.1,0.6-0.2,1.1-0.3c-0.2-0.4-0.4-0.8-0.7-1.2c1.1,0.1,2.2,0.2,3.3,0.3c0.5,0.1,1.2,0.3,1.4,0.1c0.7-0.7,1.2-0.2,1.4,0
			c0.4-0.2,0.8-0.4,0.8-0.4c0.6,0.6,1.2,0.3,1.7,0c0.1,0,0.1,0,0.2,0c1,0,2,0,2.8,0c0.3,0.4,0.6,0.6,0.8,0.8
			c0.1-0.3,0.1-0.5,0.2-0.8c7.7,0,15.4,0,23.1,0c0.1,0.2,0.2,0.5,0.3,0.7c0.1-1.1,0.9-0.8,1.5-0.8c1.4,0.1,2.9,0.2,4.3,0.3
			c1.2,0,2.3-0.2,3.5-0.2c0.4,0,0.8,0.3,1.3,0.4c0.6-0.7,6.7-0.7,7.1,0c0.6-0.1,1.1-0.4,1.7-0.4c1.5,0,3.1-0.1,4.6,0
			c1.4,0.2,2.9-0.1,4.3,0c1.1,0,2.1,0,3.2,0c0,0.2,0.1,0.4,0.1,0.4c0.6-0.1,1.1-0.3,1.7-0.3c4.4,0,8.9-0.1,13.3-0.1
			c0.3,0,0.6,0.4,1.1,0.7c0.8-1.1,2.2-0.7,3.5-0.7c4.7,0,9.5,0,14.2-0.1c0.6,0,1.2,0.9,1.8,0c2.1,0.2,4.3-0.7,6.3,0.8
			c0.1-0.3,0.2-0.7,0.3-0.7c0.6-0.1,1.2-0.1,1.9-0.1c4.3,0,8.7,0,13,0c5.6,0,11.3,0,16.9,0c3.6,0,7.2,0,10.8,0
			c1.2,0,1.7-0.6,1.6-1.8c0-0.6,0-1.2,0-1.8C303.9,109.3,304.1,109.3,304.2,109.3z M174.8,76.4c0-0.1,0-0.3,0-0.4
			c-1.2,0-2.4,0-3.7,0c0.3,0.4,0.4,0.7,0.6,0.9C172.7,76.7,173.7,76.5,174.8,76.4z M141.1,76.3c-0.1,0.3-0.1,0.6-0.2,0.8
			c0.6,0,1.1,1,1.8,0.2C142.2,76.9,141.7,76.6,141.1,76.3z M104.3,114.7c0.5-0.2,0.9-0.3,1.2-0.5c0.2-0.1,0.2-0.4,0.3-0.6
			c-0.2,0-0.4,0-0.5,0c-0.3,0-0.6-0.1-0.8-0.1C104.4,113.9,104.4,114.3,104.3,114.7z M299.7,114.8c0.1-0.1,0.1-0.2,0.2-0.4
			c-0.5-0.1-1-0.3-1.4-0.4c-0.1,0-0.3,0.3-0.6,0.6C298.5,114.7,299.1,114.7,299.7,114.8z M63.6,76.5c0,0.2-0.1,0.4-0.1,0.5
			c0.4,0.1,0.8,0.2,1.3,0.3c0.1,0,0.2-0.4,0.2-0.6C64.5,76.6,64,76.6,63.6,76.5z"/>
		<path class="st1" d="M29.4,92.2c0.4-0.3,0.8-0.4,0.9-0.6c0.1-0.2-0.1-0.6-0.4-0.8c-0.1,0.2-0.1,0.4-0.2,0.7c0-0.1-0.1-0.3-0.1-0.3
			c0.5-0.7-0.1-2.1,1.3-2.3c0-0.1-0.1-0.2-0.1-0.4c0-0.2-0.1-0.4,0-0.5c1.5-2.4,3.6-3.8,6.3-4.3c2.3-0.4,4.4-0.1,6.5,0.9
			c2.4,1.1,4.1,3.1,4.7,5.7c0.4,1.7,0.4,3.5,0.1,5.2c-0.3,1.8-1.1,3.4-2.5,4.7c-1.9,1.7-4.1,2.8-6.7,2.6c-0.6,0-1.2-0.1-1.8-0.2
			c0-0.1,0-0.2,0-0.4c-1.4,0.6-2.4-0.1-3.4-0.7c-1.8-1.1-1.9-0.9-3.4,0.5c-0.5,0.5-1,0.9-1.5,1.3c-0.3,0.2-0.8,0.3-1.1,0.4
			c-0.2,0.4-0.3,0.8-0.5,1c-0.7,0.6-1.5,1.2-2.2,1.8c-1,0.8-1.4,0.8-2.3,0c-1.3-1.3-1.2-2.6,0.3-3.5c1.8-1.1,3.5-2.4,5.3-3.7
			c0.2,0.2,0.4,0.4,0.5,0.6c0.1,0,0.1-0.1,0.2-0.1c-0.1-0.2-0.2-0.5-0.3-0.8c1.2-0.6,1.3-1.7,0.9-3c-0.2-0.7-0.5-1.5-0.4-2.2
			C29.6,93.1,29.3,92.6,29.4,92.2z M44.8,88.3c-0.7-0.1-1.3,0-1.7-0.2c-1.3-1-2.7-1.3-4.4-1.3c-4.1,0-7.3,4.1-6.1,8.2
			c0.1,0.4,0,0.8-0.1,1.2c0.3,0.2,0.7,0.4,0.9,0.7c1.2,1.9,3.1,3,5.3,3c2.9,0.1,5-1.4,6.2-3.9c1.2-2.5,0.9-4.9-1-7
			C44.3,88.8,44.5,88.6,44.8,88.3z"/>
		<path class="st1" d="M190.3,87.6c-0.1-0.3-0.1-0.6-0.2-1.1c-0.3,0.3-0.5,0.5-0.9,0.9c0.6,0.2,1,0.4,1.5,0.5c0,1.7,0.3,3.4-0.1,5
			c-0.2,0.9,0.3,1.5,0.2,2.3c-0.2,0.8,0,1.7,0,2.5c0,2.2,0.1,4.3-0.1,6.5c0,0.5,0.1,0.9,0.1,1.4c0,0.5,0,1.1-0.3,1.5
			c-0.3,0.4-0.9,0.5-1.4,0.7c-0.2-0.5-0.6-0.9-0.6-1.4c0-7.3,0-14.6,0-21.8c0-0.6,0.1-1.3,0.8-1.3c0.7,0,1.5,0.1,1.4,1.3
			c-0.1,1,0,2,0,3C190.5,87.5,190.4,87.5,190.3,87.6z"/>
	</g>
	<g>
		<text transform="matrix(1 0 0 1 60.6917 101.687)" class="st1 st2 st4">amaq news</text>
	</g>
	<g>
		<path class="st1" d="M636.9,115.7c0.1,0.3,0.3,0.5,0.4,0.9c-3.5,0.1-7.1,0-10.6,0.1c-3.8,0.1-7.6,0-11.4,0c-3.6,0-7.2,0-10.8,0
			c-3.8-0.1-7.5-0.3-11.3-0.3c-3.7,0-7.4,0.2-11.2,0.4c0.2-0.4,0.3-0.6,0.4-0.8c-0.1-0.1-0.1-0.1-0.2-0.2c-0.2,0.2-0.5,0.4-0.8,0.7
			c-3.3,0-6.7,0-10.2,0c-1.3,0-2.5,0.1-3.8,0.1c-1.6,0-3.2-0.2-4.8,0c-0.3,0-0.7-0.2-1.1-0.3c-0.1,0-0.2-0.1-0.3-0.1
			c-1.4,0.9-3,0.2-4.5,0.4c-0.9,0.1-1.7,0.1-2.1-1c0.1,0.3,0.2,0.6,0.3,1c-4.8,0-9.5,0-14.2,0c-4.7,0-9.5-0.1-14.2-0.2
			c-4.8,0-9.6,0-14.4,0c-0.1-0.1-0.2-0.4-0.3-0.7c-0.1,0-0.2,0.1-0.3,0.1c0.1,0.3,0.1,0.5,0.2,0.8c-1.4,0-2.8,0-4.2,0
			c0.1-0.4,0.1-0.8,0.2-1.1c-0.2,0.1-0.5,0.2-0.6,0.4c-0.1,0.2,0,0.5,0,0.8c-1.5,0-2.9,0-4.4,0c-4,0-8.1,0-12.1,0c-1,0-2,0.4-3-0.3
			c-0.2-0.1-0.8,0.3-1.1,0.3c-1.8,0-3.7,0-5.5,0c-0.5,0-1.1-0.3-1.6-0.4c-0.2,0-0.5-0.1-0.5-0.1c-0.4,0.8-1.1,0.5-1.7,0.5
			c-11.5,0-22.9,0-34.4,0c-2.1,0-4.2,0-6.3,0c-1.7,0-1.9-0.2-1.9-2c0-0.3-0.1-0.7-0.1-1c0.4-3.3-0.1-6.6,0-9.9
			c0-0.4,0.3-0.9,0.4-1.3c0.1-0.3,0.1-0.6,0-0.9c-0.1-0.4-0.3-0.7-0.6-1.3c0.5,0.2,0.8,0.3,1,0.4c0-0.2,0.1-0.4,0-0.5
			c-0.2-0.2-0.5-0.4-0.8-0.7c-0.1-1.6-0.2-3.3-0.3-5.1c0-0.3,0.3-0.6,0.5-0.8c-1.2-0.8-0.4-2.2-0.5-3.3c-0.1-0.8,0.2-1.5,0.2-2.3
			c0-4.1,0-8.2,0-12.3c0-1.2,0.4-1.5,1.6-1.6c6.5,0,12.9,0,19.4,0c1.3,0,2.7,0,4,0c1.8,0,3.5,0,5.3,0c0.4,0,0.9,0.2,1.3,0.3
			c0.1,0,0.3,0.1,0.4,0.1c2.1-0.9,4.3-0.2,6.4-0.4c0.8-0.1,1.7,0,2.5,0c0,0.3,0.1,0.6,0.1,0.8c0,0,0.4,0,0.4,0c0-0.2,0-0.4,0-0.8
			c1.9,0.3,3.8-0.3,5.6,0.4c0.4-0.3,0.8-0.9,1.1,0c0.3-0.1,0.7-0.4,1-0.4c1.4,0,2.9,0,4.3,0c0.8,0,1.6,0.2,2.3,0.2
			c0.7,0,1.4-0.2,2-0.2c0.8,0,1.6,0,2.3,0c0.8,0,1.6,0,2.4,0c0.4,0,0.8,0.3,1.2,0.4c0.2-0.1,0.4-0.4,0.7-0.4c3.9,0,7.8,0,11.7,0.1
			c0.9,0,1.9,0.5,2.7,0.2c1.5-0.4,2.9-0.3,4.3-0.3c4.1,0,8.1,0,12.2,0c5.6,0,11.3,0,16.9,0c3.6,0,7.2-0.1,10.8,0c1.9,0,3.9,0,5.8,0
			c3.3,0,6.6-0.2,9.8-0.2c3.2,0,6.4,0,9.6,0c2.7,0,5.5,0,8.2,0c1.9,0,3.8,0.2,5.6,0.2c2.8,0,5.7-0.1,8.5-0.2c1.5,0,3.1-0.1,4.6,0
			c1.4,0.1,2.7,0.3,4.1,0.4c0.5,0,1-0.1,1.5-0.1c2.2,0,4.4,0,6.7,0c3.8,0.1,7.7,0,11.5,0c3.9,0,7.8,0,11.7,0c1.9,0,3.7,0,5.6,0
			c0.3,0,0.7,0,1.3,0.1c-0.5,0.3-0.7,0.5-1,0.7c0.3,0.2,0.6,0.3,1,0.5c0-1.2,0.6-1.3,1.6-1.2c2.6,0.1,5.2,0,7.8,0
			c0.5,0,0.9,0.3,1.4,0.4c0.1,0,0.3,0.1,0.4,0c0.5-0.1,1-0.4,1.5-0.4c2.8,0,5.7,0,8.5,0c2.1,0,4.3,0.2,6.4,0.2
			c1.7,0,3.5-0.1,5.2-0.2c0.6,0,1.1,0.1,1.2,0.9c0,0.3,0.4,0.5,0.6,0.7c0.1-0.1,0.1-0.1,0.2-0.2c-0.1-0.2-0.1-0.4-0.2-0.5
			c-0.1-0.2-0.2-0.3-0.3-0.4c0.2-0.1,0.6-0.4,0.7-0.4c0.4,0.4,0.8,0,1.2,0c3.3,0,6.6,0,9.9,0c0.3,0,0.6,0.4,1,0.7
			c0.1-0.1,0.2-0.4,0.3-0.7c3.4,0,6.8,0,10.3,0c-0.1,0.2-0.3,0.4-0.2,0.5c0,0.2,0.2,0.5,0.3,0.7c0.2-0.2,0.5-0.4,0.5-0.6
			c-0.1-0.7,0.4-0.6,0.8-0.7c1.5,0,3,0,4.6,0c0,0.2,0,0.4,0,0.7c0.2-0.1,0.3-0.1,0.3-0.1c0.3-0.2,0.7-0.5,1-0.5c2.8,0,5.5,0,8.3,0
			c0.4,0,0.7,0.3,1.3,0.6c0,0,0.2-0.2,0.4-0.6c1.8,0,3.8,0,5.8,0c0.8,0,1.3,0.4,1.4,1.2c0.1,0.8,0.1,1.5,0,2.3
			c0,0.2-0.1,0.4-0.4,0.3c0.1,0.4,0.3,0.9,0.3,1.3c0,2.1,0,4.2,0.1,6.3c0,2.5,0,5.1,0,7.6c0,1-1.1,0.6-1.5,1.2
			c0.2,0,0.5,0.1,0.7,0.1c0.2,0,0.5,0,0.7-0.1c-0.1,0.3-0.2,0.6-0.3,0.8c-0.2,0.2-0.4,0.4-0.8,0.7c0.5,0,0.8,0,1.2,0
			c0,1,0.1,2.1,0,3.2c0,0.3-0.5,0.6-0.9,1c0.3,0,0.6,0.1,0.9,0.1c0,0.8,0,1.7,0,2.6c-0.2-0.2-0.4-0.4-0.7-0.6
			c0.1,0.6,0.3,1.1,0.4,1.6c0,0,0,0-0.1,0c0.1,0.2,0.2,0.4,0.2,0.6c-0.2,0-0.5,0-0.7,0.1c0,0.1,0,0.2,0,0.2c0.3,0,0.5,0,0.8,0.1
			c0,2.9,0,5.9,0,8.9c0,1-0.7,0.9-1.5,1c0.5,0.3,0.9,0.5,1.3,0.7c-0.3,0.9-0.6,1.2-1.5,1.2c-5.3,0-10.7-0.1-16-0.1
			c-1.1,0-2.3,0.1-3.4,0.1c-0.4,0-0.8-0.2-1.1-0.3c-0.5,0.1-1,0.2-1.5,0.2c-2.9,0.1-5.8,0.1-8.7,0.1c-3.8,0-7.5,0-11.3,0
			c-0.4,0-0.7-0.2-1.1-0.4c-0.1,0-0.3-0.1-0.3,0c-0.7,0.7-1.5,0.2-2.3,0.2c-4.7,0-9.4,0-14.1,0.1c-0.5,0-1,0.1-1.4,0.1
			c-8.3,0-16.6,0-24.9,0c-1.3,0-2.7,0-4,0c-0.2,0-0.4-0.1-0.6-0.3c-0.3-0.2-0.4-0.3-0.8,0.1C640.4,117.2,637.9,116.6,636.9,115.7z
			 M730.7,109.2c-0.2-0.7-0.5-1.5-0.5-2.3c-0.1-3.5,0-6.9,0-10.4c0-2.8,0.1-5.7,0-8.5c-0.1-2.8,0.4-5.5,0-8.2
			c-0.1-0.9,0-2.1-1.4-2.4c-0.2,0-0.3-0.3-0.3-0.4c-0.2,0.4-0.2,0.9-0.5,1c-0.3,0.1-0.8,0-1.1-0.1c-0.1,0-0.1-0.1-0.2-0.1
			c-1.2,0.2-2.4,0.4-3.6,0.5c0-0.1,0-0.2,0.1-0.4c-0.2-0.2-0.4-0.4-0.6-0.4c-0.2,0-0.4,0.3-0.7,0.5c-1.7,0-3.7,0-5.7,0
			c0.3-0.4,0.5-0.6,0.8-0.9c-0.3-0.1-0.4-0.1-0.6,0c-0.5,0.3-1.1,0.9-1.6,0.9c-2.9,0.1-5.7,0-8.6,0c-0.3,0-0.7,0.1-0.8,0
			c-0.5-0.7-1.1-0.2-1.6-0.1c-0.3,0.1-0.7,0.1-1,0.1c-2.4,0-4.7,0-7.1,0c-2.2,0-4.4-0.2-6.6,0c-1.5,0.1-3,0-4.6,0
			c-0.4,0-0.8-0.3-1.2-0.3c-0.8,0-1.5,0.2-2.3,0.2c-0.3,0-0.7-0.4-1-0.3c-0.7,0.1-1.4,0.3-2.1,0.4c-4.5,0.1-9.1,0-13.6,0
			c-5.4,0-10.9,0-16.3,0c-2.3,0-4.7-0.2-7,0c-1.6,0.1-3.3,0-4.9,0c0,0,0-0.1,0-0.1c0.4-0.1,0.8-0.2,1-0.2c-0.2-0.4-0.3-0.7-0.5-1
			c-0.3,0-0.6-0.1-0.8-0.1c-0.1,0.5-0.2,1-0.2,1.4c-4.6,0-9.2,0-13.8,0c-0.1-0.1-0.2-0.3-0.3-0.4c0.3-0.1,0.5-0.2,1-0.4
			c-0.6,0-0.9,0-1.3,0c-0.1,0.3-0.2,0.5-0.3,0.8c-0.9,0-1.7,0.1-2.5,0c-1.1-0.1-2.4,0.5-2.9-0.6c-0.5,0.2-1,0.6-1.4,0.6
			c-1.3-0.1-2.6,0.2-3.9-0.3c-1-0.3-2.2,0.2-3.4,0.3c-3.6,0.2-7.1-0.3-10.7,0c-2.6,0.2-5.3,0-7.9,0c-1.8,0-3.6,0-5.4,0
			c-1.8,0-3.7-0.1-5.5,0c-1.7,0.1-3.4-0.5-5.1-0.1c-1,0.2-2,0-3,0c-1.3,0-2.7,0-4,0c-0.3,0-0.6-0.3-0.8-0.3
			c-0.4,0.1-0.7,0.3-1.1,0.4c-2.4,0-4.8,0-7.2,0c-7.4,0-14.8,0-22.3,0c-0.4,0-0.9-0.4-1.3-0.4c-1,0.1-1.9,0.4-2.8,0.5
			c-0.2-0.6-0.3-0.9-0.4-1.3c-0.1,0-0.1,0-0.2,0c0,0.4-0.1,0.7-0.1,1c-1,0-2,0-2.9,0c0.2-0.2,0.4-0.4,0.7-0.8
			c-0.8,0.1-1.2,0.2-1.7,0.3c0.1,0.2,0.2,0.3,0.4,0.5c-2,0.1-2.3,0-2.5-0.3c-0.3,0.1-0.6,0.3-0.9,0.3c-0.2,0-0.5-0.2-0.7-0.2
			c-2.3,0.1-4.6,0.2-6.9,0.2c-2.3,0-4.6-0.1-6.9-0.1c-3.9,0-7.8,0.1-11.7,0.1c-0.2,0-0.5,0-0.7-0.1c-0.8-0.8-0.8-0.8-1.6-0.1
			c0.2,0.1,0.3,0.1,0.8,0.3c-0.6,0-0.8,0-1.1,0c-0.9,0.2-1.8-0.1-2.7-0.1c-1.4,0-2.9,0.7-4.1-0.5c-0.1-0.1-0.5,0-0.6,0.1
			c-0.1,0.8-0.7,0.5-1.2,0.5c-1.1,0-2.3,0-3.4,0c-1.1,0-2.3,0-3.4,0s-2.3-0.1-3.4,0c-1,0.2-2-0.6-3.1-0.1c-0.1,0-0.3-0.3-0.5-0.4
			c-0.2-0.1-0.3-0.1-0.5-0.1c0,0.2,0,0.3,0,0.4c-3.4,0-6.8,0-10.3,0c1.1-0.8,1.1-1.1,0.2-1.7c-0.2,0.3-0.6,0.6-0.5,0.8
			c0.4,1.2-0.4,1.1-1.1,1c-2.4-0.1-4.8-0.2-7.2-0.3c-1.3,0-2.6,0.2-3.9,0.3c-0.8,0.1-1.5,0-1.6-1.1c-0.1,0.1-0.2,0.1-0.3,0.2
			c0,0.3,0.1,0.6,0.1,0.9c-2.2,0-4.5,0-6.7,0c-0.4,0.8-0.7,1.5-1.1,2.2c-0.2,0.4,0.2,1.2,0.7,1.3c-0.1,1.7-0.2,3.4-0.2,5.1
			c0,4,0.1,8,0.2,12c0,4.1,0,8.2,0,12.3c0,1.3,0.4,1.6,1.7,1.7c1.5,0.1,3-0.5,4.4,0.4c0.1,0.1,0.3-0.1,0.5-0.1
			c0.3-0.1,0.5-0.3,0.8-0.3c5,0,10,0,15,0c0.4,0,0.7,0.2,1.1,0.4c0.9-0.2,1.8-0.4,2.7-0.4c6.8,0,13.6,0,20.5,0
			c0.5,0,1.1,0.3,1.6,0.5c0,0.1,0,0.2,0,0.3c0.2-0.1,0.4-0.3,0.6-0.5c-0.3-0.1-0.4-0.1-0.7-0.3c1.9-0.3,3.6,0.1,5.4-0.1
			c1.8-0.1,3.6-0.1,5.4,0c1.7,0.1,3.3,0.3,5,0.3c1.6,0,3.2-0.3,4.8-0.3c1.7,0,3.4,0,5,0c1.7,0,3.5,0.2,5.2,0.2
			c1.8,0,3.6-0.1,5.4-0.2c1.8,0,3.5,0,5.3,0c1.8,0,3.5,0,5.3,0c1.8,0,3.6,0,5.4,0c1.8,0,3.5,0,5.3,0c0.1,0.4,0.1,0.7,0.1,1
			c0.5-0.4,0.6-1.6,1.5-0.7c0,0,0.2-0.1,0.3-0.1c0.6-0.1,1.3-0.2,2.1-0.3c-0.3,0.3-0.4,0.5-0.8,0.9c1.2-0.4,2.1-0.6,3.2-1
			c-0.2,0.4-0.2,0.6-0.4,1c0.8-0.7,0.9,1.2,1.6,0.3c-0.3-0.3-0.6-0.6-1-1.1c3.2,0,6.2,0,9.1,0c0.3,0,0.5,0.2,0.8,0.2
			c1.3-0.1,2.6-0.2,3.9-0.2c0.3,0,0.5,0.4,0.8,0.4c0.6-0.1,1.3-0.4,1.9-0.4c2.8,0,5.5,0,8.3,0c0.1,0.5,0.1,1,0.2,1.4
			c0.3-0.1,0.6-0.2,1.1-0.3c-0.2-0.4-0.4-0.8-0.7-1.2c1.1,0.1,2.2,0.2,3.3,0.3c0.5,0.1,1.2,0.3,1.4,0.1c0.7-0.7,1.2-0.2,1.4,0
			c0.4-0.2,0.8-0.4,0.8-0.4c0.6,0.6,1.2,0.3,1.7,0c0.1,0,0.1,0,0.2,0c1,0,2,0,2.8,0c0.3,0.4,0.6,0.6,0.8,0.8
			c0.1-0.3,0.1-0.5,0.2-0.8c7.7,0,15.4,0,23.1,0c0.1,0.2,0.2,0.5,0.3,0.7c0.1-1.1,0.9-0.8,1.5-0.8c1.4,0.1,2.9,0.2,4.3,0.3
			c1.2,0,2.3-0.2,3.5-0.2c0.4,0,0.8,0.3,1.3,0.4c0.6-0.7,6.7-0.7,7.1,0c0.6-0.1,1.1-0.4,1.7-0.4c1.5,0,3.1-0.1,4.6,0
			c1.4,0.2,2.9-0.1,4.3,0c1.1,0,2.1,0,3.2,0c0,0.2,0.1,0.4,0.1,0.4c0.6-0.1,1.1-0.3,1.7-0.3c4.4,0,8.9-0.1,13.3-0.1
			c0.3,0,0.6,0.4,1.1,0.7c0.8-1.1,2.2-0.7,3.5-0.7c4.7,0,9.5,0,14.2-0.1c0.6,0,1.2,0.9,1.8,0c2.1,0.2,4.3-0.7,6.3,0.8
			c0.1-0.3,0.2-0.7,0.3-0.7c0.6-0.1,1.2-0.1,1.9-0.1c4.3,0,8.7,0,13,0c5.6,0,11.3,0,16.9,0c3.6,0,7.2,0,10.8,0
			c1.2,0,1.7-0.6,1.6-1.8c0-0.6,0-1.2,0-1.8C730.4,109.1,730.7,109.2,730.7,109.2z M601.3,76.2c0-0.1,0-0.3,0-0.4
			c-1.2,0-2.4,0-3.7,0c0.3,0.4,0.4,0.7,0.6,0.9C599.2,76.6,600.2,76.4,601.3,76.2z M567.6,76.1c-0.1,0.3-0.1,0.6-0.2,0.8
			c0.6,0,1.1,1,1.8,0.2C568.8,76.8,568.3,76.5,567.6,76.1z M530.8,114.5c0.5-0.2,0.9-0.3,1.2-0.5c0.2-0.1,0.2-0.4,0.3-0.6
			c-0.2,0-0.4,0-0.5,0c-0.3,0-0.6-0.1-0.8-0.1C531,113.8,530.9,114.1,530.8,114.5z M726.2,114.6c0.1-0.1,0.1-0.2,0.2-0.4
			c-0.5-0.1-1-0.3-1.4-0.4c-0.1,0-0.3,0.3-0.6,0.6C725.1,114.6,725.6,114.6,726.2,114.6z M490.1,76.4c0,0.2-0.1,0.4-0.1,0.5
			c0.4,0.1,0.8,0.2,1.3,0.3c0.1,0,0.2-0.4,0.2-0.6C491,76.5,490.6,76.4,490.1,76.4z"/>
		<path class="st1" d="M455.9,92c0.4-0.3,0.8-0.4,0.9-0.6c0.1-0.2-0.1-0.6-0.4-0.8c-0.1,0.2-0.1,0.4-0.2,0.7c0-0.1-0.1-0.3-0.1-0.3
			c0.5-0.7-0.1-2.1,1.3-2.3c0-0.1-0.1-0.2-0.1-0.4c0-0.2-0.1-0.4,0-0.5c1.5-2.4,3.6-3.8,6.3-4.3c2.3-0.4,4.4-0.1,6.5,0.9
			c2.4,1.1,4.1,3.1,4.7,5.7c0.4,1.7,0.4,3.5,0.1,5.2c-0.3,1.8-1.1,3.4-2.5,4.7c-1.9,1.7-4.1,2.8-6.7,2.6c-0.6,0-1.2-0.1-1.8-0.2
			c0-0.1,0-0.2,0-0.4c-1.4,0.6-2.4-0.1-3.4-0.7c-1.8-1.1-1.9-0.9-3.4,0.5c-0.5,0.5-1,0.9-1.5,1.3c-0.3,0.2-0.8,0.3-1.1,0.4
			c-0.2,0.4-0.3,0.8-0.5,1c-0.7,0.6-1.5,1.2-2.2,1.8c-1,0.8-1.4,0.8-2.3,0c-1.3-1.3-1.2-2.6,0.3-3.5c1.8-1.1,3.5-2.4,5.3-3.7
			c0.2,0.2,0.4,0.4,0.5,0.6c0.1,0,0.1-0.1,0.2-0.1c-0.1-0.2-0.2-0.5-0.3-0.8c1.2-0.6,1.3-1.7,0.9-3c-0.2-0.7-0.5-1.5-0.4-2.2
			C456.1,93,455.8,92.4,455.9,92z M471.4,88.1c-0.7-0.1-1.3,0-1.7-0.2c-1.3-1-2.7-1.3-4.4-1.3c-4.1,0-7.3,4.1-6.1,8.2
			c0.1,0.4,0,0.8-0.1,1.2c0.3,0.2,0.7,0.4,0.9,0.7c1.2,1.9,3.1,3,5.3,3c2.9,0.1,5-1.4,6.2-3.9c1.2-2.5,0.9-4.9-1-7
			C470.8,88.6,471,88.4,471.4,88.1z"/>
		<path class="st1" d="M670.4,87.4c-0.1-0.3-0.1-0.6-0.2-1.1c-0.3,0.3-0.5,0.5-0.9,0.9c0.6,0.2,1,0.4,1.5,0.5c0,1.7,0.3,3.4-0.1,5
			c-0.2,0.9,0.3,1.5,0.2,2.3c-0.2,0.8,0,1.7,0,2.5c0,2.2,0.1,4.3-0.1,6.5c0,0.5,0.1,0.9,0.1,1.4c0,0.5,0,1.1-0.3,1.5
			c-0.3,0.4-0.9,0.5-1.4,0.7c-0.2-0.5-0.6-0.9-0.6-1.4c0-7.3,0-14.6,0-21.8c0-0.6,0.1-1.3,0.8-1.3c0.7,0,1.5,0.1,1.4,1.3
			c-0.1,1,0,2,0,3C670.6,87.4,670.5,87.4,670.4,87.4z"/>
	</g>
	<g>
		<text transform="matrix(1 0 0 1 489.0229 101.5444)" class="st1 st2 st4">how to join isis</text>
	</g>
	<text transform="matrix(1 0 0 1 29.8137 178.2546)" class="st5 st2 st6">9.2%</text>
	<text transform="matrix(1 0 0 1 29.9062 257.2488)" class="st5 st2 st6">4.3%</text>
	<path class="st0" d="M435.4,200.4c0,0-0.2,0.2-0.4,0.4c-0.2,0-0.5,0-0.7,0c0-4.3,0-8.6,0-12.8c0-0.2,0.4-0.5,0.7-0.9
		c-0.2-0.9-0.7-2-0.7-3.1c-0.1-2.5-0.1-5,0-7.4c0-0.4,0.5-0.7,0.9-1.2c-0.1-0.1-0.8-0.4-0.8-0.7c0-4,0.1-8,0.2-12.1
		c0-0.5-0.2-1.1-0.2-1.6c0-5.6,0-11.1,0-16.7c0-1.3,0-2.6,0-3.8c6.5-0.1,12.7-0.3,19-0.3c6.3-0.1,12.7,0,19,0c6,0,12.1,0.3,18,0.2
		c6-0.1,12,0.1,18,0.1c6.2-0.1,12.5,0,18.7,0c6.2,0,12.5,0,18.7,0c6,0,12.1,0,18,0.2c1.1-0.1,2.2-0.3,3.3-0.3c3.2-0.1,6.4-0.1,9.6,0
		c13.6,0.1,27.3,0.2,40.9,0.2c8.8,0,17.6,0.1,26.4,0.1c2.3,0,4.6-0.1,6.9-0.1c0.7,0,1.3,0.4,2,0.6c1.9-0.8,7.7-0.9,10.5-0.2
		c0.2-0.2,0.4-0.4,0.4-0.5c4.3,0,8.4-0.1,12.5,0c4.6,0.2,9.1-0.1,13.7,0c5,0.1,10.2,0.1,15.2-0.1c2-0.1,3.5,0.6,5.6,0.2
		c1.7-0.4,4-0.1,6-0.1c0.8,0,1.7,0.3,2.5,0.4c0.8-0.1,1.9-0.4,3-0.4c3-0.1,6,0,9.3,0c0,0.5,0,1,0,1.4c0,7,0,13.9,0,20.9
		c0,0.9,0.7,2-3.4,1.6c0.1,0.1,0.2,0.2,0.3,0.3c1,0.1,1.9,0.3,3.2,0.5c-0.8,3.8,1.2,7.7-1.3,11.4c2.3,0.8,0.5,1.8,1.2,2.6
		c-0.8,0.2-1.5,0.3-2.2,0.5c0.8,0.4,2.1,0.8,2,1.1c-0.7,2.7,1.9,5.6-1.6,8.3c0.5-0.2,1.1-0.3,1.6-0.5c0,4,0,8.1,0,12.4
		c-6.6,0-13.3,0.2-19.9-0.1c-1.7-0.1-3.1,0.2-4.7,0.2c-12.1-0.1-24.1,0-36.2,0c-5.8,0-11.6,0-17.3,0c-1.6,0-3.5,0.4-4.7-0.5
		c0,0-1.3,0.3-2.1,0.4c-0.5,0.1-1,0.1-1.5,0.1c-9.5,0-18.9,0-28.4,0c-4.3,0-8.6,0-12.9,0c-1,0-1.9-0.2-2.9-0.2c-1,0-2,0.2-3,0.2
		c-6.4,0-12.8,0-19.2,0c-0.8,0-1.6-0.4-1.9-0.5c-1.6,0.2-2.9,0.5-4.2,0.5c-6.8,0-13.5,0-20.3-0.1c-0.6,0-1.2-0.4-1.2-0.4
		c-1.3,0.2-2.2,0.5-3.1,0.5c-8.8,0-17.6,0-26.4,0c0.1-0.2,0.1-0.4,0.2-0.8c-3.7,2-5.8-0.1-8.6-0.5c0,0.5,0,0.8,0,1.3
		c-7.2,0-14.3,0-21.5,0c-4.6,0-9.2,0-13.8,0c-13.2,0-26.3,0-39.5,0C437.3,200.8,436.5,200.6,435.4,200.4z M669.1,164.2
		c-2.1,1,0.9,1.4,2.6,2c0.4,0.1,1.6-0.2,2.5-0.3c-0.6,0.2-1.3,0.3-1.9,0.5C671.1,165.6,670.1,164.9,669.1,164.2z M622.3,196.8
		c0.3-0.1,0.6-0.3,0.9-0.4c-1.4-0.7-2.7-1.3-4.4-2.1c-0.1,0.7-0.1,1.2-0.2,1.3C620.1,196.1,621.2,196.5,622.3,196.8z M689.7,160.1
		c-0.5-0.5-0.9-0.8-1.3-1.2c-3.8,0.4-3.8,0.4-3.8,1C686.2,159.9,687.7,160,689.7,160.1z M557.7,194.7c0.2,0.1,0.5,0.3,0.8,0.5
		c2-0.8,2.4,0.4,3.7,0.5c0.2,0,0.4,0.1,0.7,0.1c0.1-0.1,0.5-0.3,0.4-0.4c-1.1-0.6-2.2-1.2-3.3-1.9
		C558.9,194.2,558.3,194.4,557.7,194.7z M609.5,160.1c0.2-0.6,0.8-1.3,0.3-1.8c-0.5-0.5-1.1-1.3-2.9-1.2
		C607.7,158.1,608.5,159,609.5,160.1z M467.5,168.5c-1.5-0.1-2.8-0.2-4.4-0.3c0.7,0.7,1.1,1.2,1.5,1.6c0.3,0.1,0.5,0.2,0.8,0.3
		C466,169.7,466.6,169.2,467.5,168.5z M668.2,190c-0.4,1.7,0.6,2.2,3.9,2.2c0.1-0.4,0.1-0.7,0.3-1.3
		C670.7,191.8,670.3,191.7,668.2,190z M542.3,153.4c0.1,0.1,0.1,0.3,0.2,0.4c1.2,0.1,2.4,0.2,3.5,0.2c0.3,0,0.4-0.7,0.8-1.3
		C544.8,152.9,543.6,153.1,542.3,153.4z M518.2,179.8c-0.7,0.7-1.7,1.2-1.4,1.6c0.3,0.5,1.5,0.9,2.3,1.4c0.5-0.1,1-0.2,1.5-0.3
		C516.1,182.1,519.5,181,518.2,179.8z M492.1,171.9c1.4-0.3,2.3-0.5,3.3-0.7c-0.9-0.5-1.7-1-2.6-1.5
		C492.6,170.5,492.4,171.1,492.1,171.9z M549.8,147c-1.1,0.3-1.9,0.5-2.6,0.7c0.8,0.4,1.6,0.9,2.5,1.3c0.3,0,0.5-0.1,0.8-0.1
		C550.3,148.3,550.1,147.7,549.8,147z M582.7,140.4c-0.5,0.3-1,0.5-1.4,0.7c-0.9-0.2-1.7-0.3-3-0.6c0.5,0.6,0.8,1,1.2,1.5
		C580.7,141.5,583.5,141.8,582.7,140.4z M668.5,175.7c-0.1-0.1-0.1-0.2-0.2-0.2c-0.7,0-1.6,0-2,0.1c-0.3,0.1-0.3,0.6-0.1,0.8
		c0.4,0.6,1.1,1.1,1.6,1.6c0.1,0,0.3,0,0.4,0c-0.2-0.6-0.5-1.2-0.7-1.9C667.6,176.1,668,175.9,668.5,175.7z M547.9,184.1
		c-0.1-0.1-0.2-0.2-0.3-0.2c-1,0.1-2,0.3-3,0.4c0.4,0.4,0.8,0.8,1.2,1.1C546.4,185,547.1,184.5,547.9,184.1z M444.6,141.9
		c-1.9,0.5-1,1.9-3.5,1.9c0.1,0.1,0.3,0.3,0.4,0.4c0,0,0.2,0,0,0c1.3-0.3,2.5-0.6,3.5-0.9C444.9,142.9,444.8,142.6,444.6,141.9z
		 M692.8,163.1c-0.3-0.1-0.7-0.1-1-0.2c-0.5,0.3-0.9,0.6-1.4,0.9c-0.3,0.2-0.7,0.3-1,0.5c0.7,0.1,1.8,0.3,2,0.2
		C692,164,692.4,163.5,692.8,163.1z M491.7,154.3c2.5-0.9,2.5-0.9,0-2.2C491.7,152.9,491.7,153.5,491.7,154.3z M537.8,164.5
		c-0.9,0.6-1.8,1.3-2.6,1.9C537.1,166.1,539.3,165.8,537.8,164.5z M498.2,190.5c-3.1,0.7-2.4,1.7-3.1,2.5c0.3,0.1,0.6,0.1,0.8,0.2
		C496.6,192.5,497.3,191.7,498.2,190.5z M664.1,162.6c-3.4,0.6-0.2,1.9-1.6,2.6c0.4,0,0.7,0.1,1.1,0.1
		C663.7,164.4,663.9,163.6,664.1,162.6z M534,190.9c0.6-0.9,1-1.6,1.5-2.3c-0.4,0-0.8-0.1-1.2-0.1
		C535.7,189.3,530.6,189.7,534,190.9z M563,172.3c0.3-0.7,0.6-1.2,0.5-1.6c0-0.3-0.8-0.5-1.2-0.7c-0.3,0.2-1,0.5-0.9,0.6
		C561.7,171.1,562.3,171.5,563,172.3z"/>
	<path class="st1" d="M434.4,279.1c0,0-0.1,0.2-0.1,0.4c-0.1,0-0.1,0-0.2,0c0-4.3,0-8.6,0-12.8c0-0.2,0.1-0.5,0.2-0.9
		c-0.1-0.9-0.2-2-0.2-3.1c0-2.5,0-5,0-7.4c0-0.4,0.1-0.7,0.2-1.2c0-0.1-0.2-0.4-0.2-0.7c0-4,0-8,0.1-12.1c0-0.5-0.1-1.1-0.1-1.6
		c0-5.6,0-11.1,0-16.7c0-1.3,0-2.6,0-3.8c1.8-0.1,3.5-0.3,5.2-0.3c1.7-0.1,3.5,0,5.2,0c1.7,0,3.3,0.3,5,0.2c1.7-0.1,3.3,0.1,5,0.1
		c1.7-0.1,3.4,0,5.1,0c1.7,0,3.4,0,5.2,0c1.7,0,3.3,0,5,0.2c0.3-0.1,0.6-0.3,0.9-0.3c0.9-0.1,1.8-0.1,2.7,0
		c3.8,0.1,7.5,0.2,11.3,0.2c2.4,0,4.9,0.1,7.3,0.1c0.6,0,1.3-0.1,1.9-0.1c0.2,0,0.4,0.4,0.5,0.6c0.5-0.8,2.1-0.9,2.9-0.2
		c0.1-0.2,0.1-0.4,0.1-0.5c1.2,0,2.3-0.1,3.4,0c1.3,0.2,2.5-0.1,3.8,0c1.4,0.1,2.8,0.1,4.2-0.1c0.5-0.1,1,0.6,1.6,0.2
		c0.5-0.4,1.1-0.1,1.7-0.1c0.2,0,0.5,0.3,0.7,0.4c0.2-0.1,0.5-0.4,0.8-0.4c0.8-0.1,1.7,0,2.6,0c0,0.5,0,1,0,1.4c0,7,0,13.9,0,20.9
		c0,0.9,0.2,2-0.9,1.6c0,0.1,0.1,0.2,0.1,0.3c0.3,0.1,0.5,0.3,0.9,0.5c-0.2,3.8,0.3,7.7-0.3,11.4c0.6,0.8,0.1,1.8,0.3,2.6
		c-0.2,0.2-0.4,0.3-0.6,0.5c0.2,0.4,0.6,0.8,0.5,1.1c-0.2,2.7,0.5,5.6-0.4,8.3c0.1-0.2,0.3-0.3,0.4-0.5c0,4,0,8.1,0,12.4
		c-1.8,0-3.7,0.2-5.5-0.1c-0.5-0.1-0.9,0.2-1.3,0.2c-3.3-0.1-6.6,0-10,0c-1.6,0-3.2,0-4.8,0c-0.4,0-1,0.4-1.3-0.5
		c0,0-0.4,0.3-0.6,0.4c-0.1,0.1-0.3,0.1-0.4,0.1c-2.6,0-5.2,0-7.8,0c-1.2,0-2.4,0-3.6,0c-0.3,0-0.5-0.2-0.8-0.2
		c-0.3,0-0.5,0.2-0.8,0.2c-1.8,0-3.5,0-5.3,0c-0.2,0-0.4-0.4-0.5-0.5c-0.4,0.2-0.8,0.5-1.2,0.5c-1.9,0-3.7,0-5.6-0.1
		c-0.2,0-0.3-0.4-0.3-0.4c-0.4,0.2-0.6,0.5-0.9,0.5c-2.4,0-4.8,0-7.3,0c0-0.2,0-0.4,0.1-0.8c-1,2-1.6-0.1-2.4-0.5c0,0.5,0,0.8,0,1.3
		c-2,0-4,0-5.9,0c-1.3,0-2.5,0-3.8,0c-3.6,0-7.3,0-10.9,0C435,279.5,434.7,279.3,434.4,279.1z M498.8,242.9c-0.6,1,0.2,1.4,0.7,2
		c0.1,0.1,0.5-0.2,0.7-0.3c-0.2,0.2-0.4,0.3-0.5,0.5C499.4,244.3,499.1,243.6,498.8,242.9z M485.9,275.5c0.1-0.1,0.2-0.3,0.3-0.4
		c-0.4-0.7-0.8-1.3-1.2-2.1c0,0.7,0,1.2,0,1.3C485.3,274.8,485.6,275.2,485.9,275.5z M504.5,238.7c-0.1-0.5-0.2-0.8-0.3-1.2
		c-1.1,0.4-1.1,0.4-1.1,1C503.5,238.6,504,238.7,504.5,238.7z M468.1,273.4c0.1,0.1,0.1,0.3,0.2,0.5c0.6-0.8,0.7,0.4,1,0.5
		c0.1,0,0.1,0.1,0.2,0.1c0-0.1,0.1-0.3,0.1-0.4c-0.3-0.6-0.6-1.2-0.9-1.9C468.4,272.8,468.3,273.1,468.1,273.4z M482.4,238.8
		c0-0.6,0.2-1.3,0.1-1.8c-0.1-0.5-0.3-1.3-0.8-1.2C481.9,236.8,482.1,237.7,482.4,238.8z M443.3,247.2c-0.4-0.1-0.8-0.2-1.2-0.3
		c0.2,0.7,0.3,1.2,0.4,1.6c0.1,0.1,0.1,0.2,0.2,0.3C442.9,248.4,443,247.9,443.3,247.2z M498.6,268.7c-0.1,1.7,0.2,2.2,1.1,2.2
		c0-0.4,0-0.7,0.1-1.3C499.3,270.5,499.2,270.4,498.6,268.7z M463.9,232c0,0.1,0,0.3,0,0.4c0.3,0.1,0.6,0.2,1,0.2
		c0.1,0,0.1-0.7,0.2-1.3C464.6,231.6,464.2,231.8,463.9,232z M457.2,258.5c-0.2,0.7-0.5,1.2-0.4,1.6c0.1,0.5,0.4,0.9,0.6,1.4
		c0.1-0.1,0.3-0.2,0.4-0.3C456.7,260.8,457.6,259.6,457.2,258.5z M450.1,250.6c0.4-0.3,0.6-0.5,0.9-0.7c-0.2-0.5-0.5-1-0.7-1.5
		C450.2,249.2,450.1,249.7,450.1,250.6z M466,225.7c-0.3,0.3-0.5,0.5-0.7,0.7c0.2,0.4,0.5,0.9,0.7,1.3c0.1,0,0.1-0.1,0.2-0.1
		C466.1,227,466,226.4,466,225.7z M475,219.1c-0.1,0.3-0.3,0.5-0.4,0.7c-0.2-0.2-0.5-0.3-0.8-0.6c0.1,0.6,0.2,1,0.3,1.5
		C474.5,220.1,475.2,220.5,475,219.1z M498.7,254.4c0-0.1,0-0.2,0-0.2c-0.2,0-0.4,0-0.5,0.1c-0.1,0.1-0.1,0.6,0,0.8
		c0.1,0.6,0.3,1.1,0.4,1.6c0,0,0.1,0,0.1,0c-0.1-0.6-0.1-1.2-0.2-1.9C498.4,254.8,498.5,254.6,498.7,254.4z M465.4,262.7
		c0-0.1-0.1-0.2-0.1-0.2c-0.3,0.1-0.6,0.3-0.8,0.4c0.1,0.4,0.2,0.8,0.3,1.1C465,263.6,465.2,263.2,465.4,262.7z M437,220.5
		c-0.5,0.5-0.3,1.9-1,1.9c0,0.1,0.1,0.3,0.1,0.4c0,0,0.1,0,0,0c0.4-0.3,0.7-0.6,1-0.9C437,221.6,437,221.2,437,220.5z M505.4,241.8
		c-0.1-0.1-0.2-0.1-0.3-0.2c-0.1,0.3-0.3,0.6-0.4,0.9c-0.1,0.2-0.2,0.3-0.3,0.5c0.2,0.1,0.5,0.3,0.6,0.2
		C505.1,242.7,505.2,242.2,505.4,241.8z M450,233c0.7-0.9,0.7-0.9,0-2.2C450,231.5,450,232.2,450,233z M462.6,243.1
		c-0.2,0.6-0.5,1.3-0.7,1.9C462.5,244.7,463.1,244.5,462.6,243.1z M451.7,269.2c-0.8,0.7-0.7,1.7-0.9,2.5c0.1,0.1,0.2,0.1,0.2,0.2
		C451.3,271.1,451.5,270.3,451.7,269.2z M497.4,241.3c-0.9,0.6-0.1,1.9-0.5,2.6c0.1,0,0.2,0.1,0.3,0.1
		C497.3,243.1,497.4,242.3,497.4,241.3z M461.6,269.5c0.2-0.9,0.3-1.6,0.4-2.3c-0.1,0-0.2-0.1-0.3-0.1
		C462.1,267.9,460.7,268.4,461.6,269.5z M469.6,250.9c0.1-0.7,0.2-1.2,0.1-1.6c0-0.3-0.2-0.5-0.3-0.7c-0.1,0.2-0.3,0.5-0.3,0.6
		C469.2,249.7,469.4,250.2,469.6,250.9z"/>
	<text transform="matrix(1 0 0 1 453.2468 178.2546)" class="st5 st2 st6">14.6%</text>
	<text transform="matrix(1 0 0 1 453.5708 257.2488)" class="st5 st2 st6">3.1%</text>
	<path class="st7" d="M207,220.4c0.6-0.1,1-0.1,1.4-0.2c0-0.1,0-0.2,0-0.2c-0.4-0.1-0.8-0.1-1.6-0.3c0.3-1,0.6-2,0.8-3
		c0.1-0.2,0-0.6-0.1-0.7c-1-1.6-0.6-3.4-0.4-5c0.4-3.3,1.1-6.5,1.9-9.8c0.3-1.2,0.9-2.4,1.4-3.6c0.1-0.3,0.6-0.4,0.8-0.5
		c-0.2-0.2-0.5-0.6-0.5-0.7c0.9-1.2,0.8-3.1,2.2-4.1c0-0.1-0.2-0.4-0.1-0.5c0.7-1.1,1.5-2.2,2.2-3.3c0.2-0.3,0.4-0.7,0.6-1.1
		c1.6-3,3.8-5.6,6.3-7.9c1.7-1.6,3.4-3.2,5.2-4.6c1.6-1.3,3.4-2.5,5.2-3.5c1.7-1,3.5-2.1,5.4-2.7c2-0.7,3.9-1.9,6-2.4
		c2.1-0.5,4.3-1.2,6.4-1.4c3.6-0.4,7.3-0.4,11-0.5c1.4,0,2.8,0.1,4.2,0.2c0.6,0.1,1.7-0.1,1.1,1.3c0.3,0,0.5,0,0.8,0
		c-0.1-0.4-0.2-0.7-0.3-1.1c2.2,0.5,4.2,0.9,6.2,1.5c1.8,0.5,3.6,1.2,5.4,1.9c0.2,0.1,0.4,0.4,0.7,0.8c0.8-0.4,1.5,0,2.3,0.8
		c0.6,0.6,1.7,0.6,2.5,1.1c2.6,1.7,5.1,3.4,7.6,5.1c0.2,0.1,0.9,0.4,0.3,0.9c0,0,0.2,0.5,0.3,0.5c0.3,0,0.5-0.1,0.9-0.2
		c3.4,3.3,6.8,6.8,9.2,11.1c1.3,2.5,2.8,4.9,4,7.5c1.7,3.6,2.8,7.5,3.3,11.5c0.4,3.2,0.6,6.5,0.7,9.8c0.1,1.4-0.1,2.8-0.3,4.1
		c-0.1,0.7-0.6,1.4-0.9,2.2c0,0,0.2,0,0.6-0.1c-1,4.2-1.3,8.6-3.8,12.1c0.5,1.5-0.8,2.4-1.2,3.6c-0.5,1.2-0.8,2.7-2.8,2.4
		c0.1,0.1,0.1,0.3,0.2,0.4c0.3,0.1,0.6,0.2,0.8,0.4c0,0.1,0.1,0.2,0,0.2c-1.7,2.5-3.4,5-5.3,7.4c-0.9,1-1.8,2.2-2.9,3
		c-0.4,0.3-0.6,1.2-1.4,0.6c0,0-0.4,0.4-0.6,0.6c0.8,0.6-0.1,0.9-0.4,1.1c-1.1,0.9-2.4,1.5-3.5,2.5c-2.6,2.3-5.7,3.8-8.8,5.3
		c-4.2,2-8.6,3.4-13.3,4c-1.2,0.2-2.4,0.3-3.6,0.4c-0.8,0.1-1.5-0.1-2.3,0c-0.8,0-1.5,0.3-2.3,0.3c-1.6,0-3.3,0.1-4.9-0.3
		c-1.9-0.4-3.9-0.2-5.8-0.8c-2-0.6-4.1-0.9-6-1.6c-5.6-1.9-10.8-4.6-15.4-8.4c-2.5-2.1-4.9-4.4-7-6.8c-2-2.2-3.7-4.6-5.2-7.1
		c-3-4.8-5-10-6.2-15.6C207.6,224.6,207.3,222.5,207,220.4z M266.3,207.3c-0.9-0.9-2-0.3-2.6,1.8
		C264.7,208.5,265.5,207.9,266.3,207.3z M235.7,202.6c-0.8,0.3-1.4,0.4-1.9,0.7c-0.3,0.2-0.8,0.5-0.8,0.8c-0.1,0.3,0.3,0.7,0.4,0.9
		C234.2,204.1,234.9,203.4,235.7,202.6z M263.4,222.2c-0.2-1.2-0.7-1.1-1.4-0.9c-0.3,0.1-0.7,0.3-0.9,0.2c-0.6-0.4-0.5-0.4-0.8,0.4
		C261.3,222,262.3,222.1,263.4,222.2z M230.7,252.1c-0.4-1.3-0.4-1.3-1.8-0.3c0.1,0.4,0.2,0.8,0.3,1.3
		C229.8,252.7,230.2,252.4,230.7,252.1z M292.5,243.5c-0.1-0.6-0.2-1.2-0.3-1.9c-0.7,0.4-1.3,0.7-1.8,0.9c0.5,0.3,1,0.6,1.4,0.9
		c0,0.1-0.1,0.2-0.1,0.3C292,243.7,292.3,243.6,292.5,243.5z M270.3,208.9c0.8,0.2,1.6,0.4,2.3,0.5c-0.4-0.7-0.7-1.3-1.1-2
		C271.1,207.8,270.7,208.3,270.3,208.9z M257.7,243.2c1,0.2,1.7,0.3,2.8,0.6c-1.6-1-0.1-1.2,0.2-2
		C259.6,242.3,258.7,242.7,257.7,243.2z M242.4,239.1c0.2,0.3,0.3,0.4,0.4,0.6c0.2-0.2,0.4-0.3,0.5-0.5c0.1-0.2-0.1-0.5-0.2-0.9
		c0,0-0.3-0.1-0.5-0.2c-0.4,0.3-0.7,0.5-1,0.7c-0.1,0.1-0.2,0.4-0.3,0.6c0.2,0,0.4,0.2,0.6,0.1C242.1,239.4,242.3,239.2,242.4,239.1
		z M265,182.4c0.1,0.1,0.2,0.2,0.4,0.3c0.5-0.7,1-1.4,1.6-2.3C265.1,180.1,265.7,181.8,265,182.4z M272.7,220.2c0,0.1,0,0.2,0.1,0.3
		c0.8-0.2,1.5-0.4,2.6-0.7c-0.8-0.4-1.3-0.6-1.7-0.8C273.3,219.5,273,219.9,272.7,220.2z M273.9,243.4c0.4-1.1,0.4-1.1-1.8-1.9
		C271.7,243.2,273.8,241.9,273.9,243.4z M277.7,246.5c0.2-0.2,0.5-0.4,0.8-0.5c-1.1-1.7-1.3-1.9-1.3-1.9
		C277.3,244.9,277.5,245.7,277.7,246.5z M228.8,228.6c0.8,0.2,1.5,0.4,2.3,0.5c0-0.1,0-0.2,0-0.3c-0.5-0.4-1-0.8-1.6-1.3
		C229.3,227.9,229,228.3,228.8,228.6z M302.3,213.6c-0.4-1.4-1-1.4-2.5-0.4c0.4,0.2,0.8,0.4,1.2,0.7
		C301,212.7,301.3,212.5,302.3,213.6z M273.8,209.4c1,1.1,1,1.1,1.8,0.1C274.8,208.7,274.8,208.7,273.8,209.4z M224.3,243
		c0.1-1,0.1-1.9,0.2-2.7c-0.1,0-0.2,0-0.3,0c-0.2,0.7-0.4,1.3-0.7,2.2C223.6,242.5,223.9,242.7,224.3,243z M295,235.3
		c0.4-0.2,0.7-0.4,1-0.6c-0.8-1.2-0.8-1.2-1.6-1C294.6,234.2,294.8,234.7,295,235.3z M211.8,232.9c0.1,0,0.2,0,0.3,0.1
		c0.1-0.3,0.3-0.7,0.1-0.9c-0.6-1.1-1.8-0.5-2.7-0.6c0.2,0.2,0.5,0.4,0.8,0.4c0.4,0,0.8,0,1.3-0.1
		C211.8,232.3,211.8,232.6,211.8,232.9z M250.4,168.2c0.4-0.6,0.7-0.9,0.9-1.2c0.1-0.1,0.1-0.3,0.1-0.4c0-0.1-0.2-0.2-0.3-0.2
		c-0.7-0.2-0.9,0.4-0.9,0.9C250.2,167.5,250.3,167.9,250.4,168.2z M271.6,172.7c0-0.1,0-0.2,0-0.4c-0.3,0.1-0.7,0.1-1,0.4
		c-0.3,0.2-0.4,0.6-0.5,0.9c-0.1,0.2-0.1,0.5-0.2,0.7c0.2-0.1,0.5-0.1,0.6-0.3C270.9,173.6,271.2,173.1,271.6,172.7z M212.8,193.8
		c-0.1,0.6-0.3,1-0.4,1.7c0.8-0.6,1.4-1,2.2-1.6C213.8,193.9,213.3,193.8,212.8,193.8z M257.7,198c0.5,0,1.1,0,1.7,0
		c0-0.1,0-0.1,0-0.2c-0.3-0.1-0.6-0.1-0.8-0.2c0.3-0.8,0-1.2-0.8-1C257.8,197.1,257.8,197.5,257.7,198z M210.4,228.2
		c1.3,0.2,1.4-0.6,1.2-1.6C211,227,210.1,227,210.4,228.2z M279.8,236c1,0.5,1.3-0.3,1.7-0.9c0.1-0.1-0.3-0.5-0.4-0.6
		C280.5,235.1,280.2,235.5,279.8,236z M301,211.8c1,0.1,1.8,0.1,2.7,0.2c0-0.1,0-0.2,0-0.3C301.4,211.3,301.4,211.3,301,211.8z
		 M254.9,251.7c0.6-0.1,1-0.1,1.1-0.1c0.1-0.7,0.1-1.1,0.2-1.6C255,249.9,255.4,251.1,254.9,251.7z M281.6,195.5
		c0.1-0.1,0.1-0.2,0.2-0.3c-0.1-0.3-0.2-0.5-0.3-0.8c-0.5,0.1-1,0.2-1.4,0.3c0,0.1-0.1,0.2-0.1,0.3
		C280.5,195.2,281.1,195.4,281.6,195.5z M249.1,191.4c0.4-0.6,0.6-1.1,0.8-1.5c0-0.1-0.1-0.2-0.1-0.3c-0.4,0.1-0.8,0.3-1.2,0.4
		C248.8,190.5,248.9,190.9,249.1,191.4z M219.4,191.5c-0.6-2.1-0.6-2.1-1.3-2C218.5,190.2,218.9,190.8,219.4,191.5z M235.4,180.8
		c0.6-0.1,1.1-0.2,1.7-0.2c-0.3-0.6-0.5-0.9-0.8-1.5C236,179.8,235.8,180.3,235.4,180.8z M255.8,214.2c0.2,0.3,0.5,0.7,0.5,0.6
		c0.6-0.3,1.2-0.6,1.7-0.9c-0.1-0.1-0.1-0.2-0.2-0.4C257.3,213.8,256.6,213.9,255.8,214.2z"/>
	<g>
		<text transform="matrix(1 0 0 1 229.3166 212.6202)" class="st5 st2 st8 st9">113%</text>
	</g>
	<g>
		<text transform="matrix(1 0 0 1 226.0293 233.7867)" class="st5 st2 st10">BETTER</text>
	</g>
	<path class="st7" d="M635.2,220.4c0.6-0.1,1-0.1,1.4-0.2c0-0.1,0-0.2,0-0.2c-0.4-0.1-0.8-0.1-1.6-0.3c0.3-1,0.6-2,0.8-3
		c0.1-0.2,0-0.6-0.1-0.7c-1-1.6-0.6-3.4-0.4-5c0.4-3.3,1.1-6.5,1.9-9.8c0.3-1.2,0.9-2.4,1.4-3.6c0.1-0.3,0.6-0.4,0.8-0.5
		c-0.2-0.2-0.5-0.6-0.5-0.7c0.9-1.2,0.8-3.1,2.2-4.1c0-0.1-0.2-0.4-0.1-0.5c0.7-1.1,1.5-2.2,2.2-3.3c0.2-0.3,0.4-0.7,0.6-1.1
		c1.6-3,3.8-5.6,6.3-7.9c1.7-1.6,3.4-3.2,5.2-4.6c1.6-1.3,3.4-2.5,5.2-3.5c1.7-1,3.5-2.1,5.4-2.7c2-0.7,3.9-1.9,6-2.4
		c2.1-0.5,4.3-1.2,6.4-1.4c3.6-0.4,7.3-0.4,11-0.5c1.4,0,2.8,0.1,4.2,0.2c0.6,0.1,1.7-0.1,1.1,1.3c0.3,0,0.5,0,0.8,0
		c-0.1-0.4-0.2-0.7-0.3-1.1c2.2,0.5,4.2,0.9,6.2,1.5c1.8,0.5,3.6,1.2,5.4,1.9c0.2,0.1,0.4,0.4,0.7,0.8c0.8-0.4,1.5,0,2.3,0.8
		c0.6,0.6,1.7,0.6,2.5,1.1c2.6,1.7,5.1,3.4,7.6,5.1c0.2,0.1,0.9,0.4,0.3,0.9c0,0,0.2,0.5,0.3,0.5c0.3,0,0.5-0.1,0.9-0.2
		c3.4,3.3,6.8,6.8,9.2,11.1c1.3,2.5,2.8,4.9,4,7.5c1.7,3.6,2.8,7.5,3.3,11.5c0.4,3.2,0.6,6.5,0.7,9.8c0.1,1.4-0.1,2.8-0.3,4.1
		c-0.1,0.7-0.6,1.4-0.9,2.2c0,0,0.2,0,0.6-0.1c-1,4.2-1.3,8.6-3.8,12.1c0.5,1.5-0.8,2.4-1.2,3.6c-0.5,1.2-0.8,2.7-2.8,2.4
		c0.1,0.1,0.1,0.3,0.2,0.4c0.3,0.1,0.6,0.2,0.8,0.4c0,0.1,0.1,0.2,0,0.2c-1.7,2.5-3.4,5-5.3,7.4c-0.9,1-1.8,2.2-2.9,3
		c-0.4,0.3-0.6,1.2-1.4,0.6c0,0-0.4,0.4-0.6,0.6c0.8,0.6-0.1,0.9-0.4,1.1c-1.1,0.9-2.4,1.5-3.5,2.5c-2.6,2.3-5.7,3.8-8.8,5.3
		c-4.2,2-8.6,3.4-13.3,4c-1.2,0.2-2.4,0.3-3.6,0.4c-0.8,0.1-1.5-0.1-2.3,0c-0.8,0-1.5,0.3-2.3,0.3c-1.6,0-3.3,0.1-4.9-0.3
		c-1.9-0.4-3.9-0.2-5.8-0.8c-2-0.6-4.1-0.9-6-1.6c-5.6-1.9-10.8-4.6-15.4-8.4c-2.5-2.1-4.9-4.4-7-6.8c-2-2.2-3.7-4.6-5.2-7.1
		c-3-4.8-5-10-6.2-15.6C635.8,224.6,635.6,222.5,635.2,220.4z M694.6,207.3c-0.9-0.9-2-0.3-2.6,1.8
		C692.9,208.5,693.8,207.9,694.6,207.3z M664,202.6c-0.8,0.3-1.4,0.4-1.9,0.7c-0.3,0.2-0.8,0.5-0.8,0.8c-0.1,0.3,0.3,0.7,0.4,0.9
		C662.5,204.1,663.1,203.4,664,202.6z M691.6,222.2c-0.2-1.2-0.7-1.1-1.4-0.9c-0.3,0.1-0.7,0.3-0.9,0.2c-0.6-0.4-0.5-0.4-0.8,0.4
		C689.5,222,690.5,222.1,691.6,222.2z M659,252.1c-0.4-1.3-0.4-1.3-1.8-0.3c0.1,0.4,0.2,0.8,0.3,1.3
		C658,252.7,658.4,252.4,659,252.1z M720.7,243.5c-0.1-0.6-0.2-1.2-0.3-1.9c-0.7,0.4-1.3,0.7-1.8,0.9c0.5,0.3,1,0.6,1.4,0.9
		c0,0.1-0.1,0.2-0.1,0.3C720.2,243.7,720.5,243.6,720.7,243.5z M698.5,208.9c0.8,0.2,1.6,0.4,2.3,0.5c-0.4-0.7-0.7-1.3-1.1-2
		C699.3,207.8,699,208.3,698.5,208.9z M686,243.2c1,0.2,1.7,0.3,2.8,0.6c-1.6-1-0.1-1.2,0.2-2C687.9,242.3,687,242.7,686,243.2z
		 M670.7,239.1c0.2,0.3,0.3,0.4,0.4,0.6c0.2-0.2,0.4-0.3,0.5-0.5c0.1-0.2-0.1-0.5-0.2-0.9c0,0-0.3-0.1-0.5-0.2
		c-0.4,0.3-0.7,0.5-1,0.7c-0.1,0.1-0.2,0.4-0.3,0.6c0.2,0,0.4,0.2,0.6,0.1C670.4,239.4,670.5,239.2,670.7,239.1z M693.3,182.4
		c0.1,0.1,0.2,0.2,0.4,0.3c0.5-0.7,1-1.4,1.6-2.3C693.3,180.1,694,181.8,693.3,182.4z M700.9,220.2c0,0.1,0,0.2,0.1,0.3
		c0.8-0.2,1.5-0.4,2.6-0.7c-0.8-0.4-1.3-0.6-1.7-0.8C701.5,219.5,701.2,219.9,700.9,220.2z M702.2,243.4c0.4-1.1,0.4-1.1-1.8-1.9
		C700,243.2,702.1,241.9,702.2,243.4z M705.9,246.5c0.2-0.2,0.5-0.4,0.8-0.5c-1.1-1.7-1.3-1.9-1.3-1.9
		C705.6,244.9,705.7,245.7,705.9,246.5z M657,228.6c0.8,0.2,1.5,0.4,2.3,0.5c0-0.1,0-0.2,0-0.3c-0.5-0.4-1-0.8-1.6-1.3
		C657.5,227.9,657.3,228.3,657,228.6z M730.5,213.6c-0.4-1.4-1-1.4-2.5-0.4c0.4,0.2,0.8,0.4,1.2,0.7
		C729.2,212.7,729.6,212.5,730.5,213.6z M702,209.4c1,1.1,1,1.1,1.8,0.1C703,208.7,703,208.7,702,209.4z M652.5,243
		c0.1-1,0.1-1.9,0.2-2.7c-0.1,0-0.2,0-0.3,0c-0.2,0.7-0.4,1.3-0.7,2.2C651.9,242.5,652.2,242.7,652.5,243z M723.3,235.3
		c0.4-0.2,0.7-0.4,1-0.6c-0.8-1.2-0.8-1.2-1.6-1C722.8,234.2,723,234.7,723.3,235.3z M640.1,232.9c0.1,0,0.2,0,0.3,0.1
		c0.1-0.3,0.3-0.7,0.1-0.9c-0.6-1.1-1.8-0.5-2.7-0.6c0.2,0.2,0.5,0.4,0.8,0.4c0.4,0,0.8,0,1.3-0.1C640,232.3,640,232.6,640.1,232.9z
		 M678.6,168.2c0.4-0.6,0.7-0.9,0.9-1.2c0.1-0.1,0.1-0.3,0.1-0.4c0-0.1-0.2-0.2-0.3-0.2c-0.7-0.2-0.9,0.4-0.9,0.9
		C678.4,167.5,678.6,167.9,678.6,168.2z M699.8,172.7c0-0.1,0-0.2,0-0.4c-0.3,0.1-0.7,0.1-1,0.4c-0.3,0.2-0.4,0.6-0.5,0.9
		c-0.1,0.2-0.1,0.5-0.2,0.7c0.2-0.1,0.5-0.1,0.6-0.3C699.2,173.6,699.5,173.1,699.8,172.7z M641,193.8c-0.1,0.6-0.3,1-0.4,1.7
		c0.8-0.6,1.4-1,2.2-1.6C642,193.9,641.5,193.8,641,193.8z M686,198c0.5,0,1.1,0,1.7,0c0-0.1,0-0.1,0-0.2c-0.3-0.1-0.6-0.1-0.8-0.2
		c0.3-0.8,0-1.2-0.8-1C686,197.1,686,197.5,686,198z M638.7,228.2c1.3,0.2,1.4-0.6,1.2-1.6C639.3,227,638.3,227,638.7,228.2z
		 M708,236c1,0.5,1.3-0.3,1.7-0.9c0.1-0.1-0.3-0.5-0.4-0.6C708.8,235.1,708.4,235.5,708,236z M729.3,211.8c1,0.1,1.8,0.1,2.7,0.2
		c0-0.1,0-0.2,0-0.3C729.6,211.3,729.6,211.3,729.3,211.8z M683.2,251.7c0.6-0.1,1-0.1,1.1-0.1c0.1-0.7,0.1-1.1,0.2-1.6
		C683.2,249.9,683.7,251.1,683.2,251.7z M709.9,195.5c0.1-0.1,0.1-0.2,0.2-0.3c-0.1-0.3-0.2-0.5-0.3-0.8c-0.5,0.1-1,0.2-1.4,0.3
		c0,0.1-0.1,0.2-0.1,0.3C708.8,195.2,709.3,195.4,709.9,195.5z M677.3,191.4c0.4-0.6,0.6-1.1,0.8-1.5c0-0.1-0.1-0.2-0.1-0.3
		c-0.4,0.1-0.8,0.3-1.2,0.4C677,190.5,677.1,190.9,677.3,191.4z M647.6,191.5c-0.6-2.1-0.6-2.1-1.3-2
		C646.7,190.2,647.2,190.8,647.6,191.5z M663.7,180.8c0.6-0.1,1.1-0.2,1.7-0.2c-0.3-0.6-0.5-0.9-0.8-1.5
		C664.2,179.8,664,180.3,663.7,180.8z M684,214.2c0.2,0.3,0.5,0.7,0.5,0.6c0.6-0.3,1.2-0.6,1.7-0.9c-0.1-0.1-0.1-0.2-0.2-0.4
		C685.5,213.8,684.9,213.9,684,214.2z"/>
	<g>
		<text transform="matrix(1 0 0 1 651.0107 212.6202)" class="st5 st2 st8 st9">370%</text>
	</g>
	<g>
		<text transform="matrix(1 0 0 1 654.2673 233.7867)" class="st5 st2 st10">BETTER</text>
	</g>
</g>
</svg>
