<?xml version="1.0" encoding="utf-8"?>
<!-- Generator: Adobe Illustrator 19.2.1, SVG Export Plug-In . SVG Version: 6.00 Build 0)  -->
<svg version="1.1" id="Layer_1" xmlns="http://www.w3.org/2000/svg" xmlns:xlink="http://www.w3.org/1999/xlink" x="0px" y="0px"
	 viewBox="0 0 771.7 440.2" style="enable-background:new 0 0 771.7 440.2;" xml:space="preserve">
<style type="text/css">
	.st0{fill:#B4B5B6;}
	.st1{fill:#757576;}
	.st2{font-family:'GothamHTF-Bold';}
	.st3{font-size:15px;}
	.st4{font-size:17px;}
	.st5{fill:#4D4E4E;}
	.st6{fill:#FFFFFF;}
	.st7{font-size:20.5466px;}
	.st8{fill:#F37046;}
	.st9{font-size:25.9153px;}
	.st10{letter-spacing:1;}
	.st11{font-size:16px;}
</style>
<g>
	<path class="st0" d="M611.8,291.4c-0.4,0-0.7,0-0.9,0.1c0,0.1,0,0.1,0,0.2c0.3,0.1,0.6,0.1,1.1,0.2c-0.1,2.9-0.3,5.9-0.4,8.8
		c0,2.1,0.1,4.2,0.2,6.3c0.1,1.4-0.2,2.8,0,4.3c0.2,1.5,0.1,3,0,4.5c0,0.5-0.3,0.9-0.4,1.4c0.1,0.3,0.4,0.6,0.4,0.9
		c0,3.6,0,7.2,0,10.8c0,1.6,0,3.1,0,4.7c0,0.6-0.5,1.3-0.4,1.9c0.6,3,0.4,6,0.4,9.1c0,3.4,0,6.8,0,10.2c0,0.5-0.3,1-0.5,1.6
		c-0.1,0.2,0,0.4,0,0.6c0.1,0.6,0.4,1.3,0.4,1.9c0,4.3,0,8.6,0,13c0,0.5-0.2,1-0.4,1.5c0.1,0.2,0.3,0.5,0.4,0.8c0,1.4,0,2.9,0,4.3
		c0,0.6-0.1,0.8-0.9,0.8c-4.4-0.1-8.8,0-13.2,0c-1.7,0-3.4,0.1-5.2,0c-0.7,0-1.4-0.4-2.1-0.6c-0.3-0.1-0.8-0.1-0.9,0
		c-0.3,0.8-0.9,0.6-1.5,0.6c-10,0-20.1,0-30.1,0c-2,0-4,0-6,0c-0.2,0-0.5-0.2-0.7-0.4c0,0,0.2-0.4,0.3-0.6c0-0.1,0.1-0.3,0-0.3
		c-1-1.3-0.2-2.8-0.5-4.2c0-0.2,0.4-0.4,0.3-0.6c0-0.4,0-0.8-0.1-1.1c-0.1-0.5-0.2-0.9-0.2-1.4c0-2.2-0.2-4.3,0-6.5
		c0.2-1.7-0.2-3.4,0-5c0.2-1.3-0.1-2.4-0.1-3.7c0.1-1.3-0.1-2.6,0-4c0.1-1.2-0.7-2.6,1.3-3.4c-0.7,0-1,0-1.3,0c0-2.3,0-4.7,0-7
		c0-2.2,0-4.4,0-6.7c0-5-0.1-10,0-15c0-1.3,0-2.6,0-3.9c0-1.5,0-3,0-4.4s0-3,0-4.4c0-1.5,0-3,0-4.4c0-1.5,0-3,0-4.4c0-1.5,0-3,0-4.4
		c0-0.5,0.2-1.1,0.4-1.9c-0.3-0.4-1-1,0-1.8c0.1-0.1-0.4-0.6-0.4-0.9c0-1.4,0-2.8,0-4.3c0.3,0.1,0.4,0.2,0.8,0.3
		c-1-1.3-1.3-2.6-0.3-3.6c-1-2.7-0.2-5.4-0.5-7.9c0-0.1,0.4-0.2,0.2-0.1c0-0.7-0.1-1.3-0.1-1.9c0-0.4-0.1-0.8-0.1-1.2
		c0-4.7,0.1-9.5,0.1-14.2c0-0.5-0.1-1.1-0.2-1.7c0.4-0.1,0.7-0.2,1.2-0.3c-1.3-0.8-1.2-1.9-1.2-3c0-1.9-0.1-3.8,0-5.7
		c0.1-1.6-0.1-3.3,0-4.9c0-0.6,0.6-1.4,0.4-1.6c-0.8-0.7-0.3-1.5-0.3-2.2c-0.1-5.2,0-10.4,0-15.6c0-2.1,0-4.3,0-6.5
		c0.3-0.1,0.7-0.2,1.1-0.2c0-0.1,0.1-0.1,0.1-0.2c-0.4-0.1-0.7-0.2-1.2-0.4c0-1,0-2.1,0-3.2c0-1.4,0.1-2.8,0.1-4.2
		c0-3.9-0.2-7.8-0.1-11.7c0-0.4,0.2-0.8,0.3-1.2c-0.1-0.5-0.3-1.2-0.3-1.9c0-3.3,0-6.6,0-9.9c0.3,0.1,0.6,0.1,0.9,0.1
		c0-0.2,0-0.3,0-0.3c-0.8-0.1-0.9-0.6-0.9-1.4c0.1-1.3,0-2.5,0-3.8c0-7.6,0-15.3,0-22.9c0.4,0,0.7,0,1.1,0c0.1-0.1,0.1-0.2,0.2-0.3
		c-0.3-0.2-0.7-0.5-1-0.7c0-7.1,0-14.4,0-21.9c0.2-0.1,0.6-0.3,1.1-0.5c-1.2-0.6-1.3-1.5-1.3-2.6c0.1-4.6,0-9.2,0-13.8
		c0-1.1,0.3-1.7,1.5-1.6c2.2,0.2,4.5,0.2,6.8,0.3c0.4,0,0.8-0.3,1.1-0.3c1.3,0.1,2.6,0.3,3.9,0.5c0.2,0,0.4-0.1,0.7-0.3
		c3.8,0,7.9,0,12.1,0c0,0.1-0.1,0.3-0.2,0.6c0.2,0,0.4,0,0.7,0c-0.1-0.2-0.1-0.4-0.2-0.7c0.2,0,0.3-0.1,0.4-0.1
		c2.5,0.1,5.1,0.2,7.6,0.2c5.3,0,10.6-0.1,15.9-0.2c0.5,0,0.9,0.2,1.5,0.4c0.6-0.7,1.6-0.7,2.1,0.3c1.9-1.1,4-0.6,6-0.6
		c0.2,0,0.6,0.4,0.7,0.7c0.1,0.3-0.2,0.6-0.4,1c0.1,0.3,0.4,0.8,0.4,1.2c-0.2,1.6,0.1,3.1,0,4.7c-0.1,1.6,0,3.3,0,5
		c0,5.9,0,11.8,0,17.7c0,1.5-0.3,3-0.3,4.5c0,1,0.3,2,0.3,3c0,10.5,0,21,0,31.4c0,1.2,0,2.4,0,3.6c-0.4,0-0.7,0.1-1.1,0.1
		c1.4,0.3,1.2,1.4,1,2.3c-0.4,2.3,0.1,4.7,0.1,7c-0.1,4.8,0,9.6,0,14.4c0,6.8,0,13.7,0,20.6c-0.3,0-0.7,0-1,0c0,0.1-0.1,0.1-0.1,0.2
		c1.8,2.1,0.9,4.5,0.9,6.8c0,1.8,0.1,3.5,0.2,5.3c0,1.6,0,3.3,0,4.9c0,0.5-0.3,1-0.4,1.6c0.8,0.6,0.8,6.2-0.1,6.7
		c0.2,0.5,0.5,0.9,0.5,1.3c0,3.3,0,6.6,0,9.9c0,2.6,0,5.2,0,7.8c0,0.6-0.3,1.2-0.4,1.6c0.1,0.8,0.2,1.4,0.3,2
		c0.1,1.1,0.1,2.2,0.1,3.3C611.8,284.3,611.8,287.8,611.8,291.4z M587.5,185.8c0.1,0,0.2,0,0.3,0.1c0.3-0.5,0.6-1.1,1-1.6
		c0.6-0.8,0.6-0.8-0.2-0.9c-0.1-0.4-0.2-0.7-0.3-1c-0.1,0-0.1,0.1-0.2,0.1C587.8,183.6,587.6,184.7,587.5,185.8z M580.4,276.7
		c-0.7-0.9-2.2-1.2-2.9-0.5C578.3,277,579.2,277.3,580.4,276.7z M605.4,279.9c-0.1-0.1-0.1-0.2-0.2-0.3c-0.9,0.5-1.8,0.9-2.6,1.4
		c-0.1,0.4-0.2,0.9-0.4,1.5C603.4,281.5,604.4,280.7,605.4,279.9z M607.7,282.9c0.6-0.4,1-0.7,1.6-1.1c-0.3-0.1-0.6-0.1-0.7-0.2
		c-0.2-0.1-0.3-0.4-0.3-0.6c0.1-0.4,0.2-0.5-0.1-0.4c-0.3,0-0.6,0.2-0.9,0.3C607.4,281.6,607.6,282.3,607.7,282.9z M595.2,309.2
		c0-0.1,0-0.3,0-0.4c-0.2,0-0.4,0-0.7-0.1c-0.2,0-0.5,0.1-0.6,0c-1.3-0.7-1.3-0.8-2.2,0.5C592.9,309.2,594,309.2,595.2,309.2z
		 M575,165.3c1-0.4,0.5-1,0-1.4c-0.6-0.5-1-0.9,0-1.3c0.1,0,0.1-0.4,0.1-0.7C573,163.1,574.5,164.2,575,165.3z M554.9,161.5
		c0,0.1,0.1,0.2,0.1,0.2c0.8,0,1.7,0.1,2.6,0.1c-0.2-0.5-0.3-0.9-0.6-1.3c-0.4-0.6-0.7-0.4-0.8,0.5
		C555.7,161.2,555.3,161.3,554.9,161.5z M590.7,377.4c0.1,0,0.2-0.1,0.3-0.1c-0.1-0.8,0.9-1.9-0.7-2.4c-0.2,0.2-0.4,0.6-0.6,0.9
		c0.3,0.1,0.6,0.3,0.8,0.3C590.6,376.6,590.6,377,590.7,377.4z M562.3,308.9c-0.6-0.6-1.2-1.3-1.8-0.7c-0.6,0.5-0.4,1.3,0.5,2
		C560.4,308.8,561.4,309,562.3,308.9z M603.3,173.8c0.2-0.2,0.3-0.3,0.5-0.5c-1.7,0.7,0.5,1.5-0.4,2.3c0.6-0.4,1-0.7,1.9-1.3
		C604.5,174.1,603.9,174,603.3,173.8z M582.8,185.9c0.3,0.5,0.1,1.7,1.4,1.2c-0.3-0.7-0.6-1.3-0.9-2c-0.5,0.3-0.8,0.5-1.2,0.7
		c0,0.1,0.1,0.2,0.1,0.2C582.3,186,582.5,186,582.8,185.9z M561.1,155.9c0.4-0.3,0.7-0.5,1.1-0.8c0.1,0.1,0.1,0.1,0.2,0.2
		c-0.1,0.3-0.1,0.6-0.2,0.9c0.4,0.1,0.8,0.1,1,0.1c-0.2-0.5-0.4-1-0.7-1.7c-0.4,0.1-1.1,0.2-1.8,0.4
		C560.8,155.4,561,155.7,561.1,155.9z M574.7,215.2c0,0.2,0.1,0.3,0.1,0.5c0.8-0.1,1.6-0.3,2.4-0.4c-0.2-0.6-0.2-1-0.4-1.3
		c-0.1-0.2-0.5-0.2-0.8-0.3c0,0.1,0,0.1-0.1,0.2c0.2,0.2,0.4,0.5,0.9,0.9C575.9,214.9,575.3,215,574.7,215.2z M574.6,327.7
		c-0.3-0.3-0.6-0.6-0.8-0.9c-1.2,1.1-1.2,1.1-0.8,1.7C573.5,328.2,574,328,574.6,327.7z M591.9,302.3c0.1-0.1,0.1-0.3,0.2-0.4
		c-0.9-0.3-1.5-0.7-0.6-1.8c-0.6,0.1-1,0.1-1.3,0.3c-0.1,0.1-0.2,0.7-0.1,0.8C590.7,301.5,591.3,301.9,591.9,302.3z M563.3,221.6
		c1,0.2,0.1-0.7,0.4-0.9c0.2-0.2,0.3-0.4,0.5-0.5c-0.5-0.3-0.9-0.7-1.4-1C563,220,563.1,220.6,563.3,221.6z M575,153.2
		c0.4-0.5,0.8-0.9,1.3-1.6c-0.5-0.1-0.9-0.4-1.2-0.3C574,151.8,575.4,152.6,575,153.2z M581.1,184c0.2,0.2,0.4,0.4,0.5,0.6
		c0.5,0,1,0.1,1.2,0.1c0.2-0.8,0.3-1.4,0.4-2c0.1,0.1,0.1,0.2,0.2,0.3C582.7,183.3,581.9,183.7,581.1,184z M595.4,354.3
		c0.1-0.1,0.1-0.2,0.2-0.3c-0.3-0.2-0.7-0.5-0.9-0.4c-0.5,0.1-0.9,0.4-1.4,0.6C593.7,355.3,594.6,354.3,595.4,354.3z M602.1,181
		c0.1,0.1,0.2,0.2,0.3,0.3c0.3-0.1,0.6-0.3,0.9-0.4c0.7-0.3,0.7-0.7,0-1.3C602.8,180.1,602.4,180.6,602.1,181z M568.1,258.9
		c0.3-1.1-0.6-2-2-1.8C566.8,257.6,567.4,258.2,568.1,258.9z M567.7,370.8c-0.8-0.7-0.2-2.2-1.7-2.2C567,369,565.8,371,567.7,370.8z
		 M578,142.4c0-0.4,0.1-0.7,0.1-1.2c-1.1,1.2-0.1,1.8,0.5,2.7c0.2-0.8,0.3-1.3,0.5-1.9C578.7,142.1,578.4,142.2,578,142.4z
		 M602.2,157.6c0.3,0.8,1.1,0.8,1.8,0.6c0.2-0.1,0.3-0.6,0.4-0.9C603.5,157.4,602.9,157.5,602.2,157.6z M586,342.8
		c-0.1,0-0.3,0-0.4,0c-0.1,0.4-0.2,0.9-0.3,1.3c0.4,0.1,0.8,0.1,1.6,0.3C586.5,343.6,586.2,343.2,586,342.8z M609.8,249.8
		c0.5-0.4,0.9-0.8,1.2-1.2c-0.6-0.1-1.2-0.1-1.9-0.2C609.4,249,609.5,249.3,609.8,249.8z M588.5,197c0.2-0.2,0.4-0.6,0.7-1.1
		c-0.7-0.2-1.3-0.5-2.2-0.8C587.5,195.7,587.9,196.2,588.5,197z M561.8,335.2c-0.1-0.8-0.1-1.4-0.2-2.3c-0.5,0.6-0.8,1-1.2,1.5
		C560.9,334.6,561.3,334.8,561.8,335.2z M604.2,140.9c-0.2,0.1-0.3,0.3-0.5,0.4c0.3,0.5,0.7,0.9,1,1.3c0,0,0.4-0.2,0.5-0.3
		C604.9,141.8,604.6,141.3,604.2,140.9z M568.5,123.3c0.7,0.7,1.2,1.1,1.7,1.6c0-0.6-0.1-1.2-0.4-1.7
		C569.6,123,569,123.2,568.5,123.3z M608.8,177.7c-0.9,0.2-1.6,0.3-2.4,0.4c0.8,0.4,1.3,0.6,1.9,0.9
		C608.4,178.6,608.5,178.3,608.8,177.7z M601,176.9c0.2,0,0.5,0,0.9,0c-0.4-1.3-1.1-1.7-1.6-1.4C600.5,176,600.7,176.4,601,176.9z
		 M572.2,229.9c0.2-0.5,0.5-1.1,0.7-1.7c-0.1-0.1-0.2-0.1-0.3-0.2c-0.4,0.5-0.9,0.9-1.4,1.4C571.5,229.6,571.8,229.7,572.2,229.9z
		 M602.1,215.3c-0.1,0.1-0.3,0.2-0.4,0.3c0.6,0.7,1.2,1.5,1.9,2.1c0.1,0.1,0.5-0.2,0.8-0.3C603.4,217.1,603.4,217.1,602.1,215.3z
		 M606.3,284.3c0,0.1-0.1,0.2-0.1,0.4c0.4,0.2,0.8,0.5,1.2,0.7c0.1-0.4,0.2-0.7,0.3-1.1C607.2,284.3,606.8,284.3,606.3,284.3z
		 M555.9,296.9c-0.1,0-0.2,0-0.2-0.1c-0.1,0.6-0.2,1.3-0.1,1.9c0,0.1,0.7,0.1,1,0.2C556.3,298.1,556.1,297.5,555.9,296.9z
		 M573.7,301c0.5,0,0.9,0,1.3,0c0-0.7,0-1.3,0-2.1C574.5,299.7,574.1,300.3,573.7,301z M558.7,318.6c0.1,0.1,0.2,0.2,0.3,0.2
		c-0.2,0.3-0.5,0.7-0.8,1.1c0.6,0,1.1,0,1.6,0.1c-0.2-0.7-0.4-1.3-0.7-2.2C558.8,318.3,558.7,318.5,558.7,318.6z M580.6,362.2
		c1,0-0.5,1.7,0.9,1.3c0.3-0.1,0.4-0.8,0.7-1.3C581.5,362.2,581.1,362.2,580.6,362.2z M557.1,268.9c0,1.1,1.1,1,1.7,1.3
		c0,0,0.1,0,0.2-0.1c0-0.2,0-0.3,0-0.5c0-0.2-0.1-0.3,0-0.2C558.2,269.2,557.6,269,557.1,268.9z M611.5,363.7c0-0.1,0-0.3,0.1-0.4
		c-0.7-0.1-1.4-0.2-2.3-0.4C609.9,364.5,610.8,363.3,611.5,363.7z M589.8,289.2c0,0.1,0,0.2,0,0.4c0.7-0.1,1.3-0.2,2-0.4
		C591.1,287.5,590.5,289,589.8,289.2z M556.7,177.7c-1.1-0.2-1.1-0.2-1.5,1.6C555.7,178.8,556.2,178.3,556.7,177.7z M570.7,196.8
		c-0.2,0.5-0.4,0.9-0.6,1.3c1,0.6,1.2-0.3,1.6-0.8C571.3,197.1,571,196.9,570.7,196.8z M569.7,182c-0.1,0.1-0.1,0.3-0.2,0.4
		c0.5,0.2,1,0.6,1.6,0.7c0.3,0.1,0.7-0.1,1.1-0.1c0-0.1,0-0.1,0-0.2C571.3,182.5,570.5,182.2,569.7,182z M561.3,144.3
		c0.1-0.1,0.2-0.1,0.3-0.2c-0.2-0.3-0.3-0.7-0.6-0.8c-0.6-0.4-1.3-0.5-1.8,0.4c0.1,0.2,0.3,0.3,0.5,0.6
		C560.6,142.7,560.9,143.7,561.3,144.3z"/>
	<path class="st0" d="M171.1,362.9c0-1.3,0-2.6,0-3.9c0-0.8-0.3-1.9,0.8-2.1c-0.3-0.4-0.8-0.7-0.8-1.1c0-5.3,0-10.6,0-15.9
		c0.4-0.1,0.8-0.2,1.1-0.3c-0.2-0.2-0.5-0.3-0.7-0.6c-0.2-0.3-0.4-0.7-0.4-1c0-7,0-14,0-21c0-1.8,0-3.7,0-5.5c0-0.5,0.3-1.1,0.4-1.6
		c0-0.1-0.4-0.2-0.4-0.4c0.1-2.3,0.2-4.7,0.2-7c0-0.5-0.2-1-0.2-1.5c0-4.7,0-9.4,0-14.1c0-3.7,0-7.3,0-11c0-1.1,0.2-2.3,0.1-3.5
		c-0.2-1.3,0-2.6,0-3.9c0-1.3,0-2.6,0-4c0-1.3,0-2.6,0-4c0-4.1,0-8.2,0-12.4c0-0.6,0.4-1.2,0.6-1.8c0.1-0.4,0-0.8,0.1-1.2
		c-1,0.1-0.6-0.6-0.6-1c0-1.7-0.1-3.4,0-5.1c0.1-1.2-0.1-2.5,0-3.7c0-1.4,0-2.8,0-4.2c0-1.4,0-2.7,0-4.1c0-1.4-0.1-2.8,0-4.2
		c0.3-4.4-0.3-8.8,0.1-13.2c0.2-2.4-0.2-4.8-0.1-7.2c0.1-1.8-0.1-3.7,0-5.5c0-0.4-0.3-1.1,0.6-1.2c0.1,0,0.2-0.4,0.1-0.5
		c-1.2-1.3-0.6-2.8-0.6-4.2c-0.1-2.9,0-5.8,0-8.6c0-3.9,0-7.8,0-11.7c0.3,0.1,0.5,0.2,0.8,0.3c-0.8-1.2-1.1-2.2-0.5-3.5
		c0.2-0.3-0.3-0.9-0.3-1.4c0-3.9,0-7.8,0-11.8c0-2.3,0-4.5,0-6.8c0-0.5,0.3-1,0.4-1.5c-0.1-0.5-0.4-1.1-0.4-1.7c0-5.2,0-10.4,0-15.6
		c0-1.6,1-2.1,2.4-1.4c0.2,0.1,0.5,0.2,0.7,0.2c2.1-0.2,4.3-0.3,6.2-0.5c0.3,0.5,0.5,0.8,0.7,1c1.2-1.7,2.8-0.4,4.1-1
		c0,0.4,0.1,0.7,0.1,1.3c1.1-1.8,2.5-1.2,3.9-1c0.4,0.1,0.8-0.2,1.3-0.2c5.6,0,11.2,0,16.7,0c0.2,0,0.5,0.3,0.7,0.4
		c0.3,0.2,0.5,0.4,0.8,0.5c0.4,0.1,0.8,0.1,1.2,0.1c-0.2-0.4-0.3-0.7-0.5-1.1c2.8,0,5.7,0,9,0c-0.4,0.5-0.6,0.8-0.9,1.1
		c1.2,0,1.3-0.1,1.2-1.3c2.2,0.1,4.3,0.3,6.4,0.3c1.7,0,3.4-0.1,5.1-0.2c1.1,0,1.6,0.6,1.6,1.6c0,3.4-0.1,6.9-0.1,10.3
		c0,5.9,0.1,11.7,0.1,17.6c0,0.6-0.4,1.2-0.6,1.8c0,0,0.2,0,0.5,0c0,4,0,8,0,11.8c-0.2-0.1-0.6-0.2-0.9-0.4
		c-0.1,0.1-0.2,0.2-0.3,0.2c0.2,0.3,0.3,0.9,0.5,1c0.9,0.1,0.8,0.7,0.8,1.3c-0.1,2.5-0.2,4.9-0.2,7.4c0,4.2,0.2,8.5,0.2,12.7
		c0,1.9,0.1,3.7,0,5.6c0,0.5-0.4,1-0.6,1.5c0.8,0,0.7,0.8,0.6,1.5c0,1.4-0.1,2.9,0,4.3c0.1,0.6-0.5,1.1-0.1,1.9
		c0.3,0.6,0.1,1.5,0.1,2.2c0,0.4-0.2,0.8-0.3,1.1c0.1,0.5,0.2,1.1,0.2,1.6c0,4,0,8,0,12c-0.5,0.4-1,0.7-1.7,1.2
		c0.7-0.1,1.2-0.1,1.8-0.2c0,1.5,0.2,2.9-0.1,4.3c-0.1,0.7,0,1.2,0,1.8c0,0.8-0.1,1.7,0,2.5c0.1,0.5-0.5,1-0.9,1.6
		c1,0.4,1,1.4,1,2.3c0,1.7,0,3.4,0,5.2c0,1,0.3,2.2-1.1,2.7c0.4-0.1,0.7-0.1,1.1-0.2c0,3,0,6,0,9c0,0-0.3,0.1-0.4,0.1
		c0.2,0.4,0.4,0.8,0.4,1.1c0,7.1,0,14.2,0,21.2c0,1.3-0.3,2.6-0.3,3.9c0,1.2,0.2,2.4,0.2,3.6c0,4.5,0,9,0,13.4
		c0,0.7,0.1,1.3,0.1,1.9c-0.6,0-1.1,0.1-1.7,0.1c0,0,0,0.4,0,0.6c0.5,0,1,0,1.7,0c-0.2,1.8-0.4,3.5-0.4,5.2c0,1.8,0.4,3.6,0.3,5.3
		c-0.2,1.8,0.2,3.6,0,5.4c-0.2,1.8,0,3.7,0,5.8c-0.4-0.4-0.7-0.6-1-0.9c-0.4,0.3-0.7,0.6-1.4,1.1c0.4-0.1,0.6-0.1,0.8-0.1
		c1.5,0,1.6,0.2,1.6,1.6c0,0.7,0,1.4,0,2.3c-0.4,0-0.8-0.1-1.2-0.1c0.3,0.4,0,1.3,1,1.2c0,0,0.1,0.3,0.1,0.5c0,2.4,0.1,4.8,0,7.3
		c0,0.5-0.6,1-0.9,1.6c0.3,0,0.6,0,0.9,0c0,6,0,12,0,18c-0.2,0-0.5,0.1-0.9,0.2c1.2,0.5,1,1.5,1,2.3c0,1.6,0,3.3,0,4.9
		c0,0.5,0.2,1.1-0.6,1.2c-0.1,0-0.2,0.5-0.1,0.7c0,0.1,0.4,0.1,0.5,0.1c0,2.2,0,4.4,0,6.6c0,2.1,0.1,4.2,0.2,6.3c0,0.5,0.1,1,0,1.4
		c-0.1,0.4-0.5,0.9-0.7,0.9c-2.9,0.1-5.7,0-8.6,0c-1.2,0-2.4,0.1-3.7,0.1c-0.5,0-1-0.2-1.4-0.3c-0.1,0-0.3-0.1-0.4-0.1
		c-3.6,1-7.2,0.2-10.8,0.4c-0.2,0-0.3-0.1-0.5-0.2c-0.4-0.3-0.4-0.2-0.9,0.1c-0.2,0.1-0.5,0.1-0.8,0.1c-4.1,0-8.2-0.1-12.3-0.1
		c-2.2,0-4.4,0.1-6.7,0.1c-2.5,0-5.1,0-7.7,0c0.5-1.2-0.2-1.5-1.1-1.5c0.1,0.5,0.2,0.9,0.4,1.5c-1-0.2-2,0.4-2.8-0.5
		c-0.1-0.1-0.6,0-0.7,0.1c-0.4,0.7-1,0.5-1.4,0.2c-0.3-0.2-0.7-0.7-0.7-1.1c0-1.2,0.3-2.3,0.4-3.5c0-0.8-0.3-1.6-0.4-2.4
		c0-0.5,0.3-0.9,0.6-1.5c0,0-0.3-0.1-0.6-0.2c0-1.9,0-3.7,0-5.6c0-0.7-0.4-1.7,1-1.8C171.8,363.1,171.5,363,171.1,362.9z M229,239.5
		c-0.2,0.6-0.4,1-0.5,1.5c0,0.1,0.2,0.4,0.4,0.4c0.1,0,0.4-0.2,0.4-0.3c0.2-0.9,0.3-1.7,0.4-2.9c-0.9,0.4-1.6,0.6-2.3,0.9
		c0,0.1,0.1,0.2,0.1,0.3C228,239.5,228.4,239.5,229,239.5z M196.4,288.7c0.1,0,0.1,0.1,0.2,0.1c0.2-0.2,0.4-0.4,0.5-0.7
		c0.3-0.8-0.1-1.4-0.7-1.7c-0.6,0.3-1.1,0.6-1.7,0.9c0.2,0.1,0.5,0.4,0.8,0.4c0.3,0.1,0.7,0,1.1-0.1
		C196.5,288.2,196.4,288.5,196.4,288.7z M193.2,238.7c-1.1,0-1.8,1.2-1.9,3C193.2,241.4,191.9,239.3,193.2,238.7z M177.7,147.8
		c-0.8,0-1.5,0.1-2.2,0.1c0.3,0.7,0.6,1.4,0.9,2.1C176.8,149.3,177.2,148.6,177.7,147.8z M203.3,335.2c-0.2-0.3-0.6-0.7-0.6-1.1
		c0-1.1,0.1-1.1-1-1.1C201.8,334.9,202.3,335.4,203.3,335.2z M185.9,172.9c-0.1-0.3-0.1-0.6-0.2-0.9c-0.5,0-0.9,0-1.4,0
		c-0.2,0-0.4,0.3-0.6,0.4c0.3,0.3,0.6,0.7,0.9,1c0,0,0.3-0.1,0.4-0.2C185.3,173.1,185.6,173,185.9,172.9z M196.8,132.6
		c0-0.7,0-1.5,0-2.3c-0.1,0-0.2-0.1-0.2-0.1c-0.4,0.7-0.7,1.4-1,2.1C196.1,132.4,196.5,132.5,196.8,132.6z M176.8,366.5
		c-0.2-0.3-0.4-0.6-0.9-1.2c-0.1,1.1-0.2,1.8-0.2,2.5c0,0.1,0.3,0.3,0.5,0.4c0.1-0.2,0.2-0.3,0.3-0.5
		C176.6,367.4,176.7,367,176.8,366.5z M190.2,352.9c0.7,0.3,1.4,0.6,2.2,0.9C191.6,351.9,191.1,351.7,190.2,352.9z M216.7,207.7
		c0.7,0.6,1-0.1,1.4-0.4c0.3-0.2,0.5-0.4,0.8-0.6c-0.1-0.1-0.3-0.3-0.4-0.3c-0.4,0.1-0.7,0.2-1,0.4
		C217.2,207.1,217,207.4,216.7,207.7z M205.9,198c-0.2,0.1-0.4,0.2-0.7,0.4c0.4,0.7,0.8,1.4,1.2,2.1c0.2-0.1,0.3-0.2,0.5-0.2
		C206.6,199.5,206.3,198.8,205.9,198z M203.9,235.5c-0.4,0.2-0.6,0.3-0.8,0.4c-0.1-0.3-0.3-0.7-0.4-0.9c-0.3,0.2-0.6,0.4-0.8,0.6
		c0.6,0.5,1.1,1,1.8,1.5C203.8,236.5,203.9,236.1,203.9,235.5z M224.6,210.4c0.7,0.2,1.2,0.4,1.9,0.6c-1.1-1.5-1.3-1.7-2.3-1.4
		C224.3,210,224.5,210.4,224.6,210.4z M225.6,197.8c0-0.3,0-0.5,0-0.8c-0.5,0-0.9-0.1-1.4,0c-0.1,0,0,0.6-0.1,1
		C224.7,197.9,225.2,197.9,225.6,197.8z M191.1,263.1c0-0.2-0.1-0.4-0.1-0.6c-0.5,0-1.1,0-1.6,0c0.1,0.4,0.2,0.8,0.3,1.2
		C190.2,263.6,190.7,263.4,191.1,263.1z M226.3,352.9c0.5-0.1,1.1,0,1.2-0.2c0.3-0.5,0.4-1.2,0.6-1.7c-0.1,0-0.2,0-0.2,0
		C227.4,351.5,227,352,226.3,352.9z M179,150.5c0.3,0.4,0.6,0.8,1.1,1.5c0.1-1,0.2-1.7,0.3-2.5C179.9,149.9,179.5,150.2,179,150.5z
		 M211.2,325.6c0.5,0.2,0.9,0.3,1.5,0.5c-0.7-1.4,0.5-0.8,0.9-1C213,324.4,212.4,324.5,211.2,325.6z M190,147c0.1-0.9-1-1.5-3.1-1.2
		C188,146.2,189,146.6,190,147z M209.3,313.4c-0.4,0.3-0.7,0.7-1.1,1.1c1.4,0,1.4,0,1.2,1.1C210.9,314.7,209.2,314,209.3,313.4z
		 M172.1,313.5c0.4-0.8,0.8-1.5,1.2-2.3c-0.1-0.1-0.1-0.1-0.2-0.2c-0.5,0.5-1,1-1.6,1.5C171.8,312.9,172,313.2,172.1,313.5z
		 M229.1,163.6c0-0.1,0.1-0.2,0.1-0.4c-0.6-0.2-1.1-0.4-1.7-0.6c0,0.3,0,0.7,0,1C228,163.6,228.6,163.6,229.1,163.6z M174.2,223.9
		c0.4,0.8,0.8,1.5,1.2,2.3C175.9,224.6,175.5,223.9,174.2,223.9z M223.6,275c-0.1,0.1-0.2,0.3-0.3,0.4c0.4,0.5,0.8,1,1.1,1.5
		c0.6-0.3,1-0.6,1.4-0.8c0-0.1,0-0.2,0-0.4C224.9,276.3,224.1,276.1,223.6,275z M224.2,246.6c-0.5-0.1-1.1-0.2-1.7-0.3
		C222.8,247.5,222.8,247.5,224.2,246.6z M223.9,258c0.5-1.2-0.7-0.9-1.1-1.4C221.9,258.2,223.7,257.4,223.9,258z M174.7,156.1
		c-0.2,0.8-0.2,1.2-0.3,1.6c0.1,0,0.4,0,0.7,0c0-0.3,0-0.6,0-1c0.4,0.2,0.7,0.3,1.1,0.4c0-0.1,0.1-0.2,0.1-0.3
		C175.7,156.6,175.1,156.3,174.7,156.1z M186.5,175.7c0.1,0.4,0.1,0.6,0.2,0.8c0.1,0.2,0.2,0.4,0.2,0.6c0.2-0.2,0.5-0.3,0.6-0.5
		c0.1-0.5,0.1-1,0.1-1.5C187.2,175.3,186.7,175.5,186.5,175.7z M182,175.6c0-0.9-0.1-1.7-0.1-2.7C181,174.5,181.1,175.4,182,175.6z
		 M198.4,138.7c-0.2,0.7-0.3,1.3-0.5,1.9c0.1,0,0.2,0.1,0.3,0.1C198.7,140.2,199.9,139.9,198.4,138.7z M215.5,251.1
		c0.1-0.8,0.2-1.4,0.3-2.1C214.6,249.5,214.5,250,215.5,251.1z M188.3,255c1,0.3,1.3-0.3,1.5-1C188.3,252.8,189.1,255.1,188.3,255z
		 M212.8,271c0.5,0.2,0.9,0.4,1.3,0.6c0.1-0.1,0.2-0.1,0.3-0.2c-0.5-0.6-1.1-1.1-1.7-1.8C212.8,270.2,212.8,270.6,212.8,271z
		 M204.8,176.1c-0.6,0.9-0.4,1.4,0.4,1.8c0.2,0.1,0.5,0.1,0.6,0.1C205.4,177.2,205.1,176.8,204.8,176.1z M203,152.4
		c0.5-2.4,0.5-2.4,0.1-2.5c-0.2,0.5-0.4,0.9-0.6,1.5C202.5,151.6,202.7,151.9,203,152.4z"/>
	<path class="st1" d="M453.3,359c-0.1-0.3-0.3-0.7-0.5-1.2c0.4,0,0.6,0,0.8,0c0-0.1,0.1-0.2,0-0.3c-0.7-0.6-0.6-1.4-0.7-2.1
		c-0.1-3.2,0-6.4,0-9.6c0-0.3,0.3-0.6,0.5-0.8c-0.3-1.7-0.9-3.4-0.1-5.2c0.1-0.2-0.1-0.4-0.2-0.6c-0.1-0.3-0.2-0.6-0.2-0.9
		c0-3.3,0.2-6.7,0.2-10c0-1.3-0.2-2.6-0.2-3.9c0-0.3,0.4-0.6,0.6-0.9c0.1,0.1,0.2,0.2,0.4,0.3c-0.2,0.3-0.3,0.5-0.5,0.9
		c0.4,0,0.6,0,1,0c-0.1-0.3-0.1-0.5-0.2-0.7c1,0,1.9-0.1,2.8-0.1c0-0.1,0-0.3,0-0.4c-1.3-0.1-2.6-0.2-4-0.3c0-0.7-0.1-1.3,0-1.8
		c0.6-1.8-0.2-3.5-0.1-5.3c0.1-1.2,0.3-2.4,0.1-3.6c-0.3-1.2-0.1-2.5,0-3.8c0-0.4,0.3-0.9,0.4-1.3c-0.7-1.1-0.3-2.5-0.4-3.8
		c0.3,0,0.6,0,0.9,0c0-0.1,0-0.2,0.1-0.2c-0.3-0.1-0.6-0.2-0.9-0.3c0-0.1-0.1-0.3-0.1-0.4c0-3,0-5.9,0-8.9c0-1.1-0.2-2.2,0-3.2
		c0.2-1.1,0.2-2.2,0-3.4c-0.1-0.4,0.2-0.9,0.4-1.4c-0.1-0.4-0.4-0.9-0.4-1.4c0-3.5,0.1-7,0.1-10.5c0-1.3-0.1-2.5-0.1-3.8
		c0-0.5,0.3-1,0.3-1.4c0-0.3-0.3-0.7-0.3-1c0-5,0-10,0-15c0-0.7,0.3-1.1,1-1c1.1,0.1,2.2,0.3,3.3,0.3c0.7,0,1.4-0.3,2.1-0.3
		c5.2,0,10.3,0,15.5,0c1,0,2.1,0.3,3.1,0.3c1.7,0,3.4-0.3,5.1-0.3c2.2,0,4.3,0.2,6.5,0.2c0.6,0,1.3-0.4,1.9-0.2
		c2.1,0.5,4.3-0.4,6.4,0.1c0.5,0.1,1.1,0.3,1.4,0.4c0.7-0.2,1.3-0.4,1.8-0.5c0.8-0.1,1.6-0.1,2.4,0c1.2,0.2,2.4,0,3.6,0
		c1.4-0.1,2.7,0,4.1,0c0.5,0,0.9,0.2,1.5,0.4c0.2-0.1,0.5-0.2,0.8-0.4c0.1,0.3,0.4,0.6,0.4,0.9c0,3.8,0,7.6,0,11.4
		c0,2-0.2,3.9-0.2,5.9c0,1.8,0.1,3.6,0.2,5.5c0,0.3-0.3,0.7-0.3,1c0,0.4,0.3,0.8,0.3,1.2c0,3.2,0,6.3,0,9.5c0,3.8,0,7.6,0,11.3
		c0,4.8,0.1,9.6-0.1,14.5c-0.1,2.2,0.2,4.5,0.1,6.7c-0.1,2.3,0,4.5,0,6.8c0,7.4,0,14.7,0,22.1c0,3.6,0,7.1,0,10.7
		c0,1.2-0.3,1.9-1.7,2c0.2,0.1,0.5,0.2,0.7,0.2c0.7-0.2,1.1-0.1,1,0.7c-0.1,3.9,0,7.9,0,11.8c0,0.4,0,0.9,0,1.3
		c-0.1,0.8-0.4,1.5-0.4,2.3c0,0.7,0.3,1.4,0.4,2.3c-2.9,0-5.5,0-8,0c-0.3,0-0.5-0.3-0.7-0.4c-0.5,0.2-1,0.4-1.5,0.4
		c-4.2,0-8.4,0-12.7,0c-3,0-6,0-9,0c-0.5,0-0.9-0.3-1.4-0.4c-0.2,0-0.4,0.1-0.6,0.1c-1.1,0.3-2.2,0.7-3.2-0.2
		c-0.1-0.1-0.3-0.2-0.4-0.1c-1.9,1-3.9,0.4-5.8,0.5c-1.1,0.1-2.3-0.3-3.4-0.3c-2.8,0-5.5,0.2-8.3,0.3c-1.1,0-2.2,0-3.3,0
		c-0.2,0-0.5-0.1-0.5-0.1c-0.1-0.7-0.4-0.4-0.8-0.2c-0.3,0.1-0.6,0.3-0.9,0.2c-0.2-0.1-0.3-0.5-0.3-0.8c0-2.8,0-5.7,0-8.5
		c0-3.3,0-6.5,0-9.8C452.9,359.8,453.1,359.5,453.3,359z M497.6,280.5c-0.7-0.7-0.5-2.1-1.5-2.1c-0.7,0.9-1.1,1.5-1.6,2.1
		c0,0.1,0.1,0.2,0.1,0.3c0.6-0.3,1.3-0.7,2-1c0,0.3,0,0.7,0,1.1C497,280.6,497.2,280.6,497.6,280.5z M485.3,313.4
		c0.1-2.1-0.5-3-2-2.8C484,311.5,484.6,312.4,485.3,313.4z M458.2,364.5c-1,0.1-1.8,0.2-2.7,0.2c-0.3,0-0.6,0-0.9,0.1
		c0.3,0.3,0.5,0.7,0.8,0.8C456.6,365.8,457.3,365.2,458.2,364.5z M480.3,376.2c0.6-0.4,1.6-0.4,1-1.5c-0.1-0.2-0.7-0.5-0.9-0.4
		C479.5,374.8,480,375.4,480.3,376.2z M503.5,333.1c-0.2-0.3-0.3-0.5-0.5-0.8c0,0-0.4,0.1-0.5,0.2c-0.2,0.5-0.4,1.1-0.6,1.8
		c0.8-0.6,2-0.3,1.9-1.8c0,0-0.1-0.1-0.1-0.2C503.6,332.7,503.5,332.8,503.5,333.1z M478.7,352.2c0.5-1.1-0.4-1.5-0.8-2
		c0,0-0.1,0-0.2,0c-0.2,0.3-0.3,0.6-0.4,0.8C477.7,351.4,478.2,351.8,478.7,352.2z M479.7,370.3c0.1,0.1,0.2,0.1,0.4,0.2
		c0.2-0.4,0.5-0.8,0.7-1.2c0-0.1-0.2-0.4-0.3-0.4c-0.4-0.1-0.8-0.1-1.4-0.2C479.2,369.2,479.5,369.7,479.7,370.3z M493.6,277.4
		c-0.1,0-0.2,0-0.3-0.1c-0.1,0.5-0.3,1-0.5,1.5c1,0.6,1.4,0.5,1.7-0.2c0.1-0.1,0-0.3-0.1-0.7c-0.3,0.4-0.5,0.6-0.9,1.1
		C493.6,278.2,493.6,277.8,493.6,277.4z M481,310.2c-0.6-0.3-1.2-0.6-1.9-0.9C478.9,310.3,479.4,310.7,481,310.2z M469.3,322.7
		c-0.1,0-0.2,0.1-0.3,0.1c-0.2,0.6-0.3,1.2-0.5,1.8c0.3,0,0.7-0.1,1.3-0.1C469.7,323.8,469.5,323.3,469.3,322.7z M480.3,364.3
		c0.1-0.1,0.2-0.2,0.3-0.4c-0.2-0.2-0.4-0.5-0.6-0.7c-0.2-0.2-0.5-0.5-0.7-0.7c-0.3,0.2-0.5,0.4-0.8,0.6
		C479.1,363.5,479.7,363.9,480.3,364.3z M501.8,359.3c-0.1,0.4-0.1,0.8-0.2,1.2c0.5,0,1.4,0.2,1.5,0.1
		C503.8,359.4,502,360.1,501.8,359.3z M472.5,270.5c-0.4-0.2-0.7-0.4-1.3-0.7c0.3,0.5,0.5,0.7,0.6,0.9c-0.4,0.6-0.8,1.1-1.2,1.6
		c0.1,0.1,0.2,0.2,0.4,0.3C471.4,271.9,471.9,271.3,472.5,270.5z M491.6,280.9c0.9,0.1,1.5,0.2,2.3,0.3c-0.4-0.6-0.7-1-0.9-1.3
		C492.6,280.1,492.3,280.4,491.6,280.9z M467,315.2c0-0.1,0.1-0.2,0.1-0.3c-0.4-0.3-0.7-0.7-1.2-1c-0.1-0.1-0.5,0.1-0.7,0.2
		c-0.1,0,0,0.4,0.1,0.5C465.9,314.8,466.4,315,467,315.2z"/>
	<path class="st1" d="M133.1,378.8c0,0,0.2,0.1,0.4,0.2c0,0.1,0,0.2,0,0.3c-4.3,0-8.6,0-12.8,0c-0.2,0-0.5-0.2-0.9-0.3
		c-0.9,0.1-2,0.3-3.1,0.3c-2.5,0.1-5,0-7.4,0c-0.4,0-0.7-0.2-1.2-0.4c-0.1,0.1-0.4,0.4-0.7,0.4c-4,0-8-0.1-12.1-0.1
		c-0.5,0-1.1,0.1-1.6,0.1c-5.6,0-11.1,0-16.7,0c-1.3,0-2.6,0-3.8,0c-0.1-2.8-0.3-5.5-0.3-8.2c-0.1-2.7,0-5.5,0-8.2
		c0-2.6,0.3-5.2,0.2-7.8c-0.1-2.6,0.1-5.2,0.1-7.7c-0.1-2.7,0-5.4,0-8.1c0-2.7,0-5.4,0-8.1c0-2.6,0-5.2,0.2-7.8
		c-0.1-0.5-0.3-0.9-0.3-1.4c-0.1-1.4-0.1-2.8,0-4.1c0.1-5.9,0.2-11.8,0.2-17.6c0-3.8,0.1-7.6,0.1-11.4c0-1-0.1-2-0.1-3
		c0-0.3,0.4-0.6,0.6-0.9c-0.8-0.8-0.9-3.3-0.2-4.5c-0.2-0.1-0.4-0.2-0.5-0.2c0-1.8-0.1-3.6,0-5.4c0.2-2-0.1-3.9,0-5.9
		c0.1-2.2,0.1-4.4-0.1-6.5c-0.1-0.8,0.6-1.5,0.2-2.4c-0.4-0.7-0.1-1.7-0.1-2.6c0-0.4,0.3-0.7,0.4-1.1c-0.1-0.3-0.4-0.8-0.4-1.3
		c-0.1-1.3,0-2.6,0-4c0.5,0,1,0,1.4,0c7,0,13.9,0,20.9,0c0.9,0,2-0.3,1.6,1.5c0.1,0,0.2-0.1,0.3-0.1c0.1-0.4,0.3-0.8,0.5-1.4
		c3.8,0.3,7.7-0.5,11.4,0.5c0.8-1,1.8-0.2,2.6-0.5c0.2,0.4,0.3,0.6,0.5,1c0.4-0.3,0.8-0.9,1.1-0.9c2.7,0.3,5.6-0.8,8.3,0.7
		c-0.2-0.2-0.3-0.5-0.5-0.7c4,0,8.1,0,12.4,0c0,2.9,0.2,5.7-0.1,8.6c-0.1,0.7,0.2,1.3,0.2,2c-0.1,5.2,0,10.4,0,15.6c0,2.5,0,5,0,7.5
		c0,0.7,0.4,1.5-0.5,2c0,0,0.3,0.6,0.4,0.9c0.1,0.2,0.1,0.4,0.1,0.7c0,4.1,0,8.2,0,12.2c0,1.9,0,3.7,0,5.6c0,0.4-0.2,0.8-0.2,1.3
		c0,0.4,0.2,0.9,0.2,1.3c0,2.8,0,5.5,0,8.3c0,0.3-0.4,0.7-0.5,0.8c0.2,0.7,0.5,1.3,0.5,1.8c0,2.9,0,5.8-0.1,8.8
		c0,0.3-0.4,0.5-0.4,0.5c0.2,0.6,0.5,0.9,0.5,1.3c0,3.8,0,7.6,0,11.4c-0.2,0-0.4,0-0.8-0.1c2,1.6-0.1,2.5-0.5,3.7c0.5,0,0.8,0,1.3,0
		c0,3.1,0,6.2,0,9.3c0,2,0,4,0,6c0,5.7,0,11.4,0,17C133.5,378,133.2,378.3,133.1,378.8z M96.8,278.1c1,0.9,1.4-0.4,2-1.1
		c0.1-0.2-0.2-0.7-0.3-1.1c0.2,0.3,0.3,0.6,0.5,0.8C98.3,277.2,97.5,277.6,96.8,278.1z M129.5,298.2c-0.1-0.1-0.3-0.3-0.4-0.4
		c-0.7,0.6-1.3,1.2-2.1,1.9c0.7,0,1.2,0.1,1.3,0.1C128.7,299.2,129.1,298.7,129.5,298.2z M92.7,269.2c-0.5,0.2-0.8,0.4-1.2,0.5
		c0.4,1.7,0.4,1.7,1,1.6C92.6,270.7,92.6,270,92.7,269.2z M127.4,326.1c0.1-0.1,0.3-0.2,0.5-0.4c-0.8-0.9,0.4-1,0.5-1.6
		c0-0.1,0.1-0.2,0.1-0.3c-0.1-0.1-0.3-0.2-0.4-0.2c-0.6,0.5-1.2,0.9-1.9,1.4C126.8,325.6,127.1,325.8,127.4,326.1z M92.7,303.8
		c-0.6-0.1-1.3-0.3-1.8-0.1c-0.5,0.2-1.3,0.5-1.2,1.3C90.7,304.5,91.6,304.2,92.7,303.8z M101.2,365c-0.1,0.6-0.2,1.2-0.3,1.9
		c0.7-0.3,1.2-0.5,1.6-0.6c0.1-0.1,0.2-0.2,0.3-0.3C102.3,365.6,101.8,365.3,101.2,365z M122.6,278.4c1.7,0.2,2.2-0.3,2.2-1.7
		c-0.4,0-0.7-0.1-1.3-0.1C124.4,277.4,124.3,277.6,122.6,278.4z M86,332.7c0.1,0,0.3,0,0.4-0.1c0.1-0.5,0.2-1,0.2-1.5
		c0-0.1-0.7-0.2-1.3-0.3C85.6,331.6,85.8,332.2,86,332.7z M112.5,343.1c0.7,0.3,1.2,0.7,1.6,0.6c0.5-0.1,0.9-0.7,1.4-1
		c-0.1-0.2-0.2-0.4-0.3-0.7C114.7,344,113.6,342.5,112.5,343.1z M104.6,354.3c-0.3-0.6-0.5-1-0.7-1.4c-0.5,0.4-1,0.7-1.5,1.1
		C103.1,354.2,103.7,354.2,104.6,354.3z M79.7,329.5c0.3,0.5,0.5,0.8,0.7,1.1c0.4-0.4,0.9-0.7,1.3-1.1c0-0.1-0.1-0.2-0.1-0.3
		C80.9,329.3,80.4,329.4,79.7,329.5z M73,315.3c0.3,0.2,0.5,0.4,0.7,0.6c-0.2,0.4-0.3,0.7-0.6,1.3c0.6-0.2,1-0.3,1.5-0.5
		C74.1,316.2,74.4,315,73,315.3z M108.4,278.3c-0.1,0-0.2,0-0.2,0.1c0,0.3,0,0.7,0.1,0.9c0.1,0.1,0.6,0.1,0.8,0
		c0.6-0.2,1.1-0.5,1.6-0.7c0-0.1,0-0.1,0-0.2c-0.6,0.1-1.2,0.2-1.9,0.3C108.7,278.7,108.5,278.5,108.4,278.3z M116.7,330.3
		c-0.1,0-0.2,0.1-0.2,0.1c0.1,0.4,0.3,0.9,0.4,1.3c0.4-0.2,0.8-0.4,1.1-0.5C117.6,330.9,117.1,330.6,116.7,330.3z M74.5,374.8
		c0.5,0.8,1.9,0.4,1.9,1.5c0.1-0.1,0.3-0.1,0.4-0.2c0,0,0-0.1,0,0c-0.3-0.6-0.6-1.1-0.9-1.5C75.6,374.7,75.2,374.8,74.5,374.8z
		 M95.7,267.8c-0.1,0.1-0.1,0.3-0.2,0.4c0.3,0.2,0.6,0.4,0.9,0.6c0.2,0.1,0.3,0.3,0.5,0.4c0.1-0.3,0.3-0.8,0.2-0.9
		C96.7,268.2,96.2,268,95.7,267.8z M86.9,354.5c-0.9-1.1-0.9-1.1-2.2,0C85.5,354.5,86.2,354.5,86.9,354.5z M97.1,334.7
		c0.6,0.4,1.3,0.8,1.9,1.1C98.7,335,98.4,334,97.1,334.7z M123.2,351.7c0.7,1.3,1.7,1,2.5,1.3c0.1-0.1,0.1-0.2,0.2-0.4
		C125.1,352.4,124.3,352.1,123.2,351.7z M95.2,280.2c0.6,1.5,1.9,0.1,2.6,0.7c0-0.2,0.1-0.3,0.1-0.5
		C97.1,280.4,96.2,280.3,95.2,280.2z M123.5,336.3c-0.9-0.2-1.6-0.4-2.3-0.6c0,0.2-0.1,0.4-0.1,0.5
		C121.9,335.6,122.4,337.8,123.5,336.3z M104.9,323.8c-0.7-0.1-1.2-0.3-1.6-0.2c-0.3,0-0.5,0.3-0.7,0.5c0.2,0.1,0.5,0.4,0.6,0.4
		C103.7,324.4,104.2,324.1,104.9,323.8z"/>
	<text transform="matrix(1 0 0 1 66.5 414.9161)"><tspan x="0" y="0" class="st1 st2 st3">English Langauge</tspan><tspan x="10" y="18" class="st1 st2 st3">Advertisements</tspan></text>
	<g>
		<text transform="matrix(1 0 0 1 233.4631 17.5089)"><tspan x="0" y="0" class="st1 st2 st4">Click Through Rate (CTR) of</tspan><tspan x="-36.2" y="20.4" class="st1 st2 st4">the redirect method compared to </tspan><tspan x="9.8" y="40.8" class="st1 st2 st4">control (12 months prior)</tspan></text>
	</g>
	<text transform="matrix(1 0 0 1 449.3549 414.9161)"><tspan x="0" y="0" class="st1 st2 st3">Arabic Langauge</tspan><tspan x="6" y="18" class="st1 st2 st3">Advertisements</tspan></text>
	<g>
		<g>
			<path class="st1" d="M14,34.5c4.4,7.5,8.5,14.8,12.9,22.3c-3.3,0.8-6.4,0.2-9.8,0.5c-0.2,1.5-0.4,3.1-0.4,4.6
				c0.1,5.5,0.2,11-0.1,16.5c-0.1,2.5,0.3,4.9,0,7.4c-0.3,2.4,0.1,4.9,0.1,7.3c0,2.5,0,4.9,0,7.4c0,1.6,0.4,3.2-0.5,4.6
				c0.9,1.2,0.5,2.5,0.6,3.8c0,2.2-0.2,4.4,0,6.7c0.1,2.3,0,4.6,0,6.9c0,2.3,0,4.6,0,6.9c0,2.3,0,4.6,0,6.9c0,6.1,0,12.2,0,18.3
				c0,4,0.2,8,0,12c-0.2,2.9,0.1,5.8,0,8.7c0,0.7,0.2,1.6-1.3,1.5c1.4,0.4,1.4,1.3,1.3,2.2c-0.1,2.3-0.4,4.6-0.3,6.9
				c0,5.2,0.2,10.4,0.3,15.5c0,1.1,0,2.1-1.5,2.5c1.2,0.9,1.6,1.7,1.6,3c-0.1,3.1,0.1,6.2-0.1,9.4c-0.1,1.6-0.3,3.2-0.1,4.8
				c0.2,1.6,0.4,3.3,0.4,4.9c0,0.9-0.2,1.8-0.3,2.8c0,0.2-0.3,0.5-0.2,0.6c1.4,2.7,0,5.7,0.5,8.5c0.2,1.3-0.2,2.8,0.1,4.2
				c0.3,1.7-0.5,3.2-0.1,5c0.4,1.6,0,3.3,0,5c0,6.5,0.1,13,0.1,19.5c0,6.5-0.2,13-0.2,19.5c0,9.4,0.2,18.8,0.2,28.3
				c0,4.9,0.1,9.7-0.2,14.6c-0.2,2.8,0.3,5.5,0.2,8.2c-0.1,2.9,0,5.8,0,8.6c0,8.4,0,16.7,0,25.1c0,0.4,0.1,0.8,0.1,1.4
				c0.8,0.1,1.6,0.1,2.3,0.1c4.2,0,8.5-0.1,12.7,0c0.7,0,1.3,0.4,2.1,0.7c1-1.6,2.8-0.9,4.1-0.7c4.7,0.8,9.3,0.1,13.9,0.2
				c5.9,0.2,11.8,0,17.6,0c8,0,15.9,0.1,23.9,0.1c6.9,0,13.7-0.1,20.6-0.2c3.6,0,7.1,0.1,10.7,0.2c0.1,0.4,0.3,0.9,0.5,1.8
				c0.5-0.9,0.8-1.3,1.2-2c4.8,0.1,9.8,0.3,14.7,0.3c2.9,0,5.9-0.2,8.8-0.2c17,0,34.1,0,51.1,0c4.2,0,8.5,0.2,12.7,0.2
				c1.4,0,2.9-0.3,4.3-0.3c0.8,0,1.5,0.3,2.3,0.5c0.3,0.1,0.6,0.2,0.9,0.1c3.8-1.3,7.8-0.4,11.6-0.6c7.1-0.4,14.1-0.4,21.2-0.1
				c4.8,0.2,9.5,0,14.3,0.1c0.6,0,1.5-0.4,1.8,0.7c0,0.1,0.2,0.1,0.4,0.1c0.3-1.6,1.6-0.8,2.3-0.8c6.5,0,13.1,0.1,19.6,0.2
				c3.7,0,7.5,0.2,11.2,0.2c4,0,8-0.2,12-0.2c0.9,0,1.8,0.3,2.7,0.4c0.2,0,0.5,0.1,0.7,0.1c3.7-0.9,7.4-0.4,11.2-0.3
				c2.9,0.1,5.9-0.2,8.8-0.2c6.1,0,12.1,0.2,18.2,0.2c3.8,0,7.6-0.2,11.5-0.2c0.9,0,1.7,0.4,2.8,0.6c0.7-0.2,1.6-0.6,2.5-0.6
				c10.7,0,21.4,0,32,0c2.9,0,5.8,0.5,8.7,0.2c5.1-0.6,10.2-0.2,15.3-0.3c4.9-0.1,9.7-0.1,14.6-0.1c6.7,0,13.4,0.1,20,0.2
				c2.4,0,4.8-0.2,7.2-0.2c1.1,0,2.3-0.2,2.7,1.4c0,0.1,0.5,0.1,1.1,0.1c-0.3-0.5-0.5-0.8-0.7-1.1c0.1-0.1,0.2-0.3,0.4-0.3
				c3.6,0,7.2-0.1,10.8-0.1c7,0,14,0.1,21,0.1c7.7,0,15.3-0.1,23-0.1c6.7,0,13.4,0,20.1,0c2.2,0,4.4-0.2,6.6,0c3,0.2,5.9-0.1,8.9,0
				c3,0,6.1,0,9.1,0c3,0,6.1-0.1,9.1-0.1c3.1,0,6.2,0,9.3,0.1c0.6,0,1.3,0.4,2.3,0.7c0.4-0.4,1.3-0.8,2.5-0.8
				c10.8,0.1,117.9,0.1,128.7,0.1c1.3,0,2.7-0.4,4-0.4c1.2,0,2.4,0.3,3.9,0.5c0,0,0.3-0.5,0.5-0.4c2.2,0.1,4.4-0.6,6.6,0.4
				c0.1,0.1,0.3,0.3,0.4,0.2c2.4-1.4,5.1-0.2,7.6-0.7c0.1,0,0.1-0.1,0.4-0.4c0-2.5,0-5.3,0-8.1c2.2-0.1,3.6,1.2,5.1,2.1
				c4.9,2.7,9.7,5.5,14.5,8.4c0.9,0.5,1.7,1.1,2.7,1.8c-3.2,2.8-6.9,4.9-10.7,6.9c-0.5,0.3-1.2,0-2,0c0,0.2,0,0.7,0,1.4
				c-2.8,1.5-5.7,3.1-8.9,4.8c-1.2-3.2,0.1-6.3-0.9-9.6c-1.2-0.1-2.5-0.4-3.8-0.4c-8.2-0.1-16.5-0.1-24.7-0.1
				c-6.1,0-12.1,0.1-18.2,0c-3.4,0-103.4,0.2-106.8-0.1c-3.1-0.3-6.1,0.3-9.2,0.1c-4-0.3-8,0-12.1,0c-6.1-0.1-12.2-0.1-18.3-0.1
				c-5.8,0-11.7,0.2-17.5,0.1c-4.6,0-9.2-0.3-13.8-0.4c-2,0-4.1,0.3-6.1,0.3c-4.2,0-8.4-0.2-12.6-0.2c-3.9,0-7.8,0.2-11.6,0.2
				c-1.7,0-3.5-0.3-5.2-0.3c-1.8,0-3.6,0.2-5.4,0.2c-6.9,0-13.8,0-20.7,0.1c-3.2,0-6.4,0.1-9.6,0c-1.1,0-2.2-0.3-3.4-0.5
				c-0.5,0.1-1.2,0.5-1.9,0.5c-7.5,0-15,0-22.4,0c-6.8,0-13.5-0.2-20.3-0.2c-5.7,0-11.3,0.2-17,0.1c-8.3-0.1-16.6,0.1-24.9,0
				c-13.2-0.1-26.5-0.1-39.7-0.1c-1.2,0-2.4,0-3.6,0.1c-0.8,0-1.6,0-2.2-0.7c-0.7,0.7-1.5,0.7-2.4,0.7c-10.2,0-20.3,0.1-30.5-0.1
				c-3.2,0-6.4,0.2-9.7,0.1c-2.7-0.1-5.4-0.4-8.2,0c-2.7,0.3-5.4,0-8.1,0c-2.8,0-5.6,0-8.4,0c-0.8,0-1.7-0.3-2.5-0.4
				c-0.3,0-0.7,0-1,0.1c-0.4,0.1-0.9,0.3-1.3,0.3c-2-0.2-4,0.1-6,0.1c-2,0-4,0.1-6,0c-1,0-2-0.4-2.9-0.5c-0.4,0-0.8,0.4-1.3,0.5
				c-1.3,0.1-2.6,0.1-3.8,0c-6.5-0.1-13.1-0.2-19.6-0.2c-9.1,0-18.2,0.1-27.3,0.2c-6.1,0-12.1,0.2-18.1-0.1
				c-2.8-0.1-5.5,0.4-8.3,0.1c-2.8-0.2-5.6,0-8.3,0c-1.5,0-1.5,0-2.5-1c-0.9,0.9-1.9,1.2-3.3,0.8c-1.2-0.4-2.7,0.2-4,0.2
				c-9.1,0-18.2-0.1-27.3-0.1c-5.4,0-10.9,0.1-16.3,0.1c-1.8,0-3.6-0.4-5.4-0.4c-1.1,0-2.2,0.4-3.2,0.4c-3.5,0.1-7,0-10.5,0.1
				c-1.6,0.1-3.2-0.5-4.9-0.2c-1.6,0.2-3.3,0.4-5,0.2c-1.7-0.2-3.5-0.1-5.3-0.1c-7.2,0-14.3,0-21.5,0c-7.8,0-15.6,0-23.4,0
				c-0.5,0-0.9,0-1.5,0c-1.1-2.2-0.6-4.4-0.7-6.6c-0.1-6.7,0-13.4,0-20.1c0-4.5,0-9.1,0-13.6c0-6.5,0-13,0-19.5c0-0.6,0-1.3,0-2
				c0.4-0.1,0.8-0.1,1.2-0.1c0-0.1,0-0.3,0-0.4c-0.5-0.4-1.1-0.6-1-1.6c0.1-2.1,0.2-4.2-0.2-6.2c-0.2-1,1-1.5,0.6-2.5
				c-0.4-0.8-0.4-1.8-0.5-2.8c-0.1-1.3,0.3-2.7,0.1-4c-0.5-3.5-0.8-7-0.4-10.5c0.6-5.3,0.2-10.5,0.3-15.8c0.1-3.4-0.1-6.7,0.1-10.1
				c0.1-2.3,0.2-4.7-0.1-7c-0.1-1.1,1.1-1.9,0.3-3.2c-0.5-0.9,0-2.3,0-3.5c-0.1-2.2-0.2-4.5-0.2-6.7c0-3.6,0-7.2,0.1-10.8
				c0-0.9,0.4-1.8,0.6-2.9c-0.7-0.6-0.9-1.5-0.4-2.7c0.2-0.4-0.2-1-0.2-1.6c0-2.5-0.1-5,0-7.4c0-0.4,0.2-0.7,0.4-1.1
				c0.1-0.3,0.4-0.6,0.3-0.7c-1.1-1.6-0.6-3.4-0.6-5c-0.1-4.6,0-9.3,0-13.9c0-10.6,0-21.2,0-31.8c0-0.3,0.1-0.6,0.1-0.9
				c0.4,0,0.8,0,1.2,0c-1.3-1-1.3-1-1.3-2.7c0-13.6,0-27.1,0-40.7c0-0.6,0.1-1.3,0-1.9c-0.1-1.1,0.5-1.6,1.6-1.8
				c-0.4-0.1-0.8-0.2-1.6-0.3c0-2.6,0-5.3,0-7.9c0-6.7,0-13.3,0-20c0-5.5,0-11,0.2-16.4c0.1-1.7-0.3-3.4,0.3-5.1
				c0.3-0.8-0.4-1.9-0.5-2.8c-0.1-4,0-8,0-12.2H1.1c0.5-1.5,0.5-2.6,1.5-3.4c5-4,8.2-9.9,9.5-16.2C12.4,36.3,12.9,36,14,34.5z
				 M753.7,374.5c-1.1,0.2-1.8,0.3-2.7,0.4C752,376,752.7,376,753.7,374.5z M12.9,68.2C11.6,68,11.6,68,11.5,69
				C11.9,68.8,12.3,68.5,12.9,68.2z M14,169.2c-0.3-0.3-0.5-0.5-0.6-0.7c-0.2,0.2-0.5,0.4-0.5,0.6c0,0.2,0.2,0.4,0.4,0.7
				C13.4,169.6,13.7,169.5,14,169.2z M12.4,365.4c0.1,0.1,0.2,0.3,0.3,0.4c0.3-0.2,0.5-0.4,0.7-0.6c0,0-0.2-0.4-0.2-0.3
				C12.9,365,12.7,365.2,12.4,365.4z M328.7,380.1c0.2,0,0.4-0.1,0.6-0.1c-0.1-0.4-0.2-0.9-0.2-1.3c-0.2,0-0.3,0-0.5,0.1
				C328.7,379.2,328.7,379.6,328.7,380.1z M347.9,379.3c0-0.1,0.1-0.2,0.1-0.3c-0.3-0.1-0.5-0.3-0.8-0.4c-0.2,0-0.4,0.1-0.6,0.2
				c0,0.1,0,0.2,0.1,0.3C347,379.2,347.5,379.2,347.9,379.3z M293.8,379.5c-0.1-0.1-0.2-0.2-0.2-0.3c-0.4,0.3-0.8,0.5-1.1,0.8
				c0.1,0.1,0.2,0.3,0.3,0.4C293.1,380.1,293.4,379.8,293.8,379.5z M46.4,381.2c-0.2,0.1-0.3,0.2-0.3,0.2c0,0,0,0.1,0.1,0.2
				c0.3,0.2,0.7,0.4,1,0.6c0.1-0.1,0.1-0.2,0.2-0.4C47,381.6,46.7,381.3,46.4,381.2z M459.1,381.3c-0.1,0.2-0.1,0.4-0.2,0.5
				c0.5,0.1,1,0.3,1.5,0.4c0.1-0.2,0.1-0.3,0.2-0.5C460.1,381.6,459.6,381.5,459.1,381.3z M152.3,383.1c-0.6-0.2-0.9-0.4-1.1-0.4
				c-0.2,0.1-0.4,0.4-0.6,0.6c0.2,0.1,0.5,0.4,0.7,0.3C151.6,383.7,151.8,383.4,152.3,383.1z"/>
		</g>
	</g>
	<rect x="633.7" y="231.1" class="st5" width="133" height="37.7"/>
	<text transform="matrix(1 0 0 1 648.1619 257.5205)" class="st6 st2 st7">4.3% CTR</text>
	<g>
		<g>
			<path class="st5" d="M630.2,266.1c-0.2-0.4-0.4-0.6-0.8-0.1c0.2,0.2,0.4,0.3,0.6,0.5c0.1,0.1,0.2,0.3,0.2,0.5c0,0.6,0,1.3,0,1.9
				c-0.4,0.2-0.8,0.1-1.2-0.1c-0.8-0.5-1.7-0.9-2.5-1.4c-0.8-0.6-1.8-1-2.6-1.5c-2.1-1.3-4.2-2.4-6.4-3.7c-2.3-1.3-4.6-2.7-6.9-4
				c-1.7-1-3.4-1.9-5.1-2.9c-0.4-0.2-0.8-0.5-1.2-0.6c-0.3-0.2-0.5-0.3-0.5-0.8c-0.1,0.1-0.2,0.2-0.4,0.3c-0.7-0.4-1.3-0.8-2-1.1
				c0.1-0.2,0.1-0.3,0.2-0.6c-0.3,0.1-0.4,0.2-0.7,0.3c-0.9-0.5-1.8-1-2.8-1.5c-0.5-0.3-0.2-0.7-0.4-1.1c-0.2,0.1-0.4,0.3-0.6,0.4
				c-0.3-0.5-0.3-0.8,0.2-1.1c1.5-0.9,3.1-1.7,4.6-2.6c1.4-0.8,2.7-1.6,4.1-2.3c0.7-0.4,1.4-0.8,2.1-1.1c0.7-0.3,1.3-0.8,2-1.2
				c0.8-0.5,1.7-1,2.5-1.5c0.4-0.3,0.8,0.1,1.2-0.1c-0.1-0.2-0.2-0.3-0.3-0.5c0.6-0.1,1.1-0.2,1.6-0.3c0-0.2,0-0.4,0.1-0.5
				c0.5-0.3,0.9-0.7,1.5-0.8c0.1,0,0.2,0,0.2,0c0.8-0.9,1.9-1.2,2.8-1.8c1.5-1,3.1-1.8,4.7-2.7c1.3-0.7,2.5-1.5,3.8-2.2
				c0.1-0.1,0.3-0.2,0.5,0c0.1,0.1,0.4,0,0.7,0c-0.2-0.2-0.3-0.3-0.3-0.4c0,0,0,0,0-0.1c0.7,0,0.7,0,0.7,0.5c0,0.7,0,1.5,0,2.3
				c-0.2,0-0.4,0-0.6,0c0,0.1,0,0.1,0,0.2c0.7,0.7,0.6,1.6,0.6,2.5c0,1.5,0,3,0,4.5c0,1.4,0,2.9,0,4.3c-0.2,0.1-0.3,0.2-0.6,0.3
				c0.2,0.1,0.4,0.2,0.5,0.3c0,0.8,0,1.5,0,2.3c-0.2,0.1-0.3,0.1-0.5,0.2c0.2,0.2,0.3,0.3,0.5,0.5c0,0.5,0,1.1,0,1.8
				c0,0.6,0,1.3,0,1.9c0,0.6,0,1.3,0,1.9c0,0.6,0.2,1.3-0.2,1.9c0.5,0.6,0.2,1.2,0.2,1.8c0,0.6,0,1.3,0,1.9c0,0.6,0,1.3,0,1.9
				s0,1.3,0,1.9C630.2,264.7,630.2,265.3,630.2,266.1z M616.2,259.3c0,0.1-0.1,0.1-0.1,0.2c0.1,0.1,0.3,0.3,0.4,0.3
				c0.4-0.1,0.7,0.1,1,0.3c0.1-0.2,0.1-0.4,0.1-0.5c0-0.1,0.1-0.3,0.1-0.3c-0.1-0.1-0.3-0.2-0.4-0.1c-0.2,0.1-0.3,0.3-0.4,0.4
				C616.6,259.4,616.4,259.4,616.2,259.3z M620.8,261.3c0.2-0.3,0.4-0.4,0.5-0.5c0.6,0.2,0.6,0.2,0.6-0.3c-0.4-0.1-0.8-0.1-1.1-0.2
				C620.8,260.6,620.8,260.9,620.8,261.3z M615.4,258.7c-0.3,0.3-0.6,0.5-0.8,0.7c0.5,0.6,0.8,0,1.1,0c0,0,0-0.1,0.1-0.2
				C615.7,259,615.6,258.9,615.4,258.7z M627.9,254.7c0.5,0.3,0.9,0.5,1.4,0.7c0-0.3-0.1-0.6-0.1-0.9
				C628.8,254.6,628.5,254.6,627.9,254.7z M610,254c0,0-0.1,0.1-0.1,0.1c0.5,0.2,0.4,1,1.1,1.1c0-0.3,0-0.5,0-0.7
				C610.6,254.3,610.3,254.1,610,254z M612,245.6c-0.1-0.3-0.3-0.4-0.6-0.3c-0.2,0.1-0.4,1-0.2,1.1c0.1,0.1,0.3,0.1,0.3,0.1
				c0.1,0,0.1-0.2,0.1-0.3C611.5,245.6,611.5,245.6,612,245.6z M629.3,240.2c-0.3-0.6-0.3-0.6-1.3-0.2c0.1,0.1,0.1,0.3,0.3,0.4
				c0.1,0,0.3,0,0.4-0.1C628.8,240.2,629,240.2,629.3,240.2z M619.4,238.9c0.1,0,0.1-0.1,0.2-0.1c0-0.5-0.1-1-0.1-1.6
				c-0.2,0.4-0.4,0.7-0.6,1C619.2,238.4,619.5,238.4,619.4,238.9z M603.3,251.8c0.4,0.3,0.8,0.8,1.4,0.7
				C604.4,251.7,603.8,252,603.3,251.8z"/>
		</g>
	</g>
	<rect x="531.4" y="306" class="st5" width="125" height="37.7"/>
	<text transform="matrix(1 0 0 1 545.9258 332.3955)" class="st6 st2 st7">2.4% CTR</text>
	<g>
		<g>
			<path class="st5" d="M528,340.9c-0.2-0.4-0.4-0.6-0.8-0.1c0.2,0.2,0.4,0.3,0.6,0.5c0.1,0.1,0.2,0.3,0.2,0.5c0,0.6,0,1.3,0,1.9
				c-0.4,0.2-0.8,0.1-1.2-0.1c-0.8-0.5-1.7-0.9-2.5-1.4c-0.8-0.6-1.8-1-2.6-1.5c-2.1-1.3-4.2-2.4-6.4-3.7c-2.3-1.3-4.6-2.7-6.9-4
				c-1.7-1-3.4-1.9-5.1-2.9c-0.4-0.2-0.8-0.5-1.2-0.6c-0.3-0.2-0.5-0.3-0.5-0.8c-0.1,0.1-0.2,0.2-0.4,0.3c-0.7-0.4-1.3-0.8-2-1.1
				c0.1-0.2,0.1-0.3,0.2-0.6c-0.3,0.1-0.4,0.2-0.7,0.3c-0.9-0.5-1.8-1-2.8-1.5c-0.5-0.3-0.2-0.7-0.4-1.1c-0.2,0.1-0.4,0.3-0.6,0.4
				c-0.3-0.5-0.3-0.8,0.2-1.1c1.5-0.9,3.1-1.7,4.6-2.6c1.4-0.8,2.7-1.6,4.1-2.3c0.7-0.4,1.4-0.8,2.1-1.1c0.7-0.3,1.3-0.8,2-1.2
				c0.8-0.5,1.7-1,2.5-1.5c0.4-0.3,0.8,0.1,1.2-0.1c-0.1-0.2-0.2-0.3-0.3-0.5c0.6-0.1,1.1-0.2,1.6-0.3c0-0.2,0-0.4,0.1-0.5
				c0.5-0.3,0.9-0.7,1.5-0.8c0.1,0,0.2,0,0.2,0c0.8-0.9,1.9-1.2,2.8-1.8c1.5-1,3.1-1.8,4.7-2.7c1.3-0.7,2.5-1.5,3.8-2.2
				c0.1-0.1,0.3-0.2,0.5,0c0.1,0.1,0.4,0,0.7,0c-0.2-0.2-0.3-0.3-0.3-0.4c0,0,0,0,0-0.1c0.7,0,0.7,0,0.7,0.5c0,0.7,0,1.5,0,2.3
				c-0.2,0-0.4,0-0.6,0c0,0.1,0,0.1,0,0.2c0.7,0.7,0.6,1.6,0.6,2.5c0,1.5,0,3,0,4.5c0,1.4,0,2.9,0,4.3c-0.2,0.1-0.3,0.2-0.6,0.3
				c0.2,0.1,0.4,0.2,0.5,0.3c0,0.8,0,1.5,0,2.3c-0.2,0.1-0.3,0.1-0.5,0.2c0.2,0.2,0.3,0.3,0.5,0.5c0,0.5,0,1.1,0,1.8
				c0,0.6,0,1.3,0,1.9s0,1.3,0,1.9c0,0.6,0.2,1.3-0.2,1.9c0.5,0.6,0.2,1.2,0.2,1.8c0,0.6,0,1.3,0,1.9s0,1.3,0,1.9c0,0.6,0,1.3,0,1.9
				C528,339.6,528,340.2,528,340.9z M514,334.2c0,0.1-0.1,0.1-0.1,0.2c0.1,0.1,0.3,0.3,0.4,0.3c0.4-0.1,0.7,0.1,1,0.3
				c0.1-0.2,0.1-0.4,0.1-0.5c0-0.1,0.1-0.3,0.1-0.3c-0.1-0.1-0.3-0.2-0.4-0.1c-0.2,0.1-0.3,0.3-0.4,0.4
				C514.4,334.3,514.2,334.3,514,334.2z M518.6,336.2c0.2-0.3,0.4-0.4,0.5-0.5c0.6,0.2,0.6,0.2,0.6-0.3c-0.4-0.1-0.8-0.1-1.1-0.2
				C518.6,335.5,518.6,335.7,518.6,336.2z M513.2,333.5c-0.3,0.3-0.6,0.5-0.8,0.7c0.5,0.6,0.8,0,1.1,0c0,0,0-0.1,0.1-0.2
				C513.5,333.9,513.4,333.7,513.2,333.5z M525.7,329.6c0.5,0.3,0.9,0.5,1.4,0.7c0-0.3-0.1-0.6-0.1-0.9
				C526.6,329.4,526.2,329.5,525.7,329.6z M507.8,328.8c0,0-0.1,0.1-0.1,0.1c0.5,0.2,0.4,1,1.1,1.1c0-0.3,0-0.5,0-0.7
				C508.4,329.2,508.1,329,507.8,328.8z M509.8,320.5c-0.1-0.3-0.3-0.4-0.6-0.3c-0.2,0.1-0.4,1-0.2,1.1c0.1,0.1,0.3,0.1,0.3,0.1
				c0.1,0,0.1-0.2,0.1-0.3C509.3,320.5,509.3,320.5,509.8,320.5z M527,315c-0.3-0.6-0.3-0.6-1.3-0.2c0.1,0.1,0.1,0.3,0.3,0.4
				c0.1,0,0.3,0,0.4-0.1C526.6,315.1,526.8,315.1,527,315z M517.2,313.8c0.1,0,0.1-0.1,0.2-0.1c0-0.5-0.1-1-0.1-1.6
				c-0.2,0.4-0.4,0.7-0.6,1C516.9,313.2,517.3,313.3,517.2,313.8z M501,326.7c0.4,0.3,0.8,0.8,1.4,0.7
				C502.2,326.6,501.5,326.8,501,326.7z"/>
		</g>
	</g>
	<rect x="251.2" y="231.1" class="st5" width="133" height="37.7"/>
	<text transform="matrix(1 0 0 1 265.6638 257.5205)" class="st6 st2 st7">3.1% CTR</text>
	<g>
		<g>
			<path class="st5" d="M247.7,266.1c-0.2-0.4-0.4-0.6-0.8-0.1c0.2,0.2,0.4,0.3,0.6,0.5c0.1,0.1,0.2,0.3,0.2,0.5c0,0.6,0,1.3,0,1.9
				c-0.4,0.2-0.8,0.1-1.2-0.1c-0.8-0.5-1.7-0.9-2.5-1.4c-0.8-0.6-1.8-1-2.6-1.5c-2.1-1.3-4.2-2.4-6.4-3.7c-2.3-1.3-4.6-2.7-6.9-4
				c-1.7-1-3.4-1.9-5.1-2.9c-0.4-0.2-0.8-0.5-1.2-0.6c-0.3-0.2-0.5-0.3-0.5-0.8c-0.1,0.1-0.2,0.2-0.4,0.3c-0.7-0.4-1.3-0.8-2-1.1
				c0.1-0.2,0.1-0.3,0.2-0.6c-0.3,0.1-0.4,0.2-0.7,0.3c-0.9-0.5-1.8-1-2.8-1.5c-0.5-0.3-0.2-0.7-0.4-1.1c-0.2,0.1-0.4,0.3-0.6,0.4
				c-0.3-0.5-0.3-0.8,0.2-1.1c1.5-0.9,3.1-1.7,4.6-2.6c1.4-0.8,2.7-1.6,4.1-2.3c0.7-0.4,1.4-0.8,2.1-1.1c0.7-0.3,1.3-0.8,2-1.2
				c0.8-0.5,1.7-1,2.5-1.5c0.4-0.3,0.8,0.1,1.2-0.1c-0.1-0.2-0.2-0.3-0.3-0.5c0.6-0.1,1.1-0.2,1.6-0.3c0-0.2,0-0.4,0.1-0.5
				c0.5-0.3,0.9-0.7,1.5-0.8c0.1,0,0.2,0,0.2,0c0.8-0.9,1.9-1.2,2.8-1.8c1.5-1,3.1-1.8,4.7-2.7c1.3-0.7,2.5-1.5,3.8-2.2
				c0.1-0.1,0.3-0.2,0.5,0c0.1,0.1,0.4,0,0.7,0c-0.2-0.2-0.3-0.3-0.3-0.4c0,0,0,0,0-0.1c0.7,0,0.7,0,0.7,0.5c0,0.7,0,1.5,0,2.3
				c-0.2,0-0.4,0-0.6,0c0,0.1,0,0.1,0,0.2c0.7,0.7,0.6,1.6,0.6,2.5c0,1.5,0,3,0,4.5c0,1.4,0,2.9,0,4.3c-0.2,0.1-0.3,0.2-0.6,0.3
				c0.2,0.1,0.4,0.2,0.5,0.3c0,0.8,0,1.5,0,2.3c-0.2,0.1-0.3,0.1-0.5,0.2c0.2,0.2,0.3,0.3,0.5,0.5c0,0.5,0,1.1,0,1.8
				c0,0.6,0,1.3,0,1.9s0,1.3,0,1.9c0,0.6,0.2,1.3-0.2,1.9c0.5,0.6,0.2,1.2,0.2,1.8c0,0.6,0,1.3,0,1.9c0,0.6,0,1.3,0,1.9
				c0,0.6,0,1.3,0,1.9C247.7,264.7,247.7,265.3,247.7,266.1z M233.7,259.3c0,0.1-0.1,0.1-0.1,0.2c0.1,0.1,0.3,0.3,0.4,0.3
				c0.4-0.1,0.7,0.1,1,0.3c0.1-0.2,0.1-0.4,0.1-0.5c0-0.1,0.1-0.3,0.1-0.3c-0.1-0.1-0.3-0.2-0.4-0.1c-0.2,0.1-0.3,0.3-0.4,0.4
				C234.2,259.4,233.9,259.4,233.7,259.3z M238.3,261.3c0.2-0.3,0.4-0.4,0.5-0.5c0.6,0.2,0.6,0.2,0.6-0.3c-0.4-0.1-0.8-0.1-1.1-0.2
				C238.3,260.6,238.3,260.9,238.3,261.3z M232.9,258.7c-0.3,0.3-0.6,0.5-0.8,0.7c0.5,0.6,0.8,0,1.1,0c0,0,0-0.1,0.1-0.2
				C233.2,259,233.1,258.9,232.9,258.7z M245.4,254.7c0.5,0.3,0.9,0.5,1.4,0.7c0-0.3-0.1-0.6-0.1-0.9
				C246.3,254.6,246,254.6,245.4,254.7z M227.5,254c0,0-0.1,0.1-0.1,0.1c0.5,0.2,0.4,1,1.1,1.1c0-0.3,0-0.5,0-0.7
				C228.1,254.3,227.8,254.1,227.5,254z M229.5,245.6c-0.1-0.3-0.3-0.4-0.6-0.3c-0.2,0.1-0.4,1-0.2,1.1c0.1,0.1,0.3,0.1,0.3,0.1
				c0.1,0,0.1-0.2,0.1-0.3C229,245.6,229,245.6,229.5,245.6z M246.8,240.2c-0.3-0.6-0.3-0.6-1.3-0.2c0.1,0.1,0.1,0.3,0.3,0.4
				c0.1,0,0.3,0,0.4-0.1C246.3,240.2,246.5,240.2,246.8,240.2z M236.9,238.9c0.1,0,0.1-0.1,0.2-0.1c0-0.5-0.1-1-0.1-1.6
				c-0.2,0.4-0.4,0.7-0.6,1C236.7,238.4,237,238.4,236.9,238.9z M220.8,251.8c0.4,0.3,0.8,0.8,1.4,0.7
				C221.9,251.7,221.3,252,220.8,251.8z"/>
		</g>
	</g>
	<rect x="148.9" y="306" class="st5" width="125" height="37.7"/>
	<text transform="matrix(1 0 0 1 163.4277 332.3955)" class="st6 st2 st7">1.7% CTR</text>
	<g>
		<g>
			<path class="st5" d="M145.5,340.9c-0.2-0.4-0.4-0.6-0.8-0.1c0.2,0.2,0.4,0.3,0.6,0.5c0.1,0.1,0.2,0.3,0.2,0.5c0,0.6,0,1.3,0,1.9
				c-0.4,0.2-0.8,0.1-1.2-0.1c-0.8-0.5-1.7-0.9-2.5-1.4c-0.8-0.6-1.8-1-2.6-1.5c-2.1-1.3-4.2-2.4-6.4-3.7c-2.3-1.3-4.6-2.7-6.9-4
				c-1.7-1-3.4-1.9-5.1-2.9c-0.4-0.2-0.8-0.5-1.2-0.6c-0.3-0.2-0.5-0.3-0.5-0.8c-0.1,0.1-0.2,0.2-0.4,0.3c-0.7-0.4-1.3-0.8-2-1.1
				c0.1-0.2,0.1-0.3,0.2-0.6c-0.3,0.1-0.4,0.2-0.7,0.3c-0.9-0.5-1.8-1-2.8-1.5c-0.5-0.3-0.2-0.7-0.4-1.1c-0.2,0.1-0.4,0.3-0.6,0.4
				c-0.3-0.5-0.3-0.8,0.2-1.1c1.5-0.9,3.1-1.7,4.6-2.6c1.4-0.8,2.7-1.6,4.1-2.3c0.7-0.4,1.4-0.8,2.1-1.1c0.7-0.3,1.3-0.8,2-1.2
				c0.8-0.5,1.7-1,2.5-1.5c0.4-0.3,0.8,0.1,1.2-0.1c-0.1-0.2-0.2-0.3-0.3-0.5c0.6-0.1,1.1-0.2,1.6-0.3c0-0.2,0-0.4,0.1-0.5
				c0.5-0.3,0.9-0.7,1.5-0.8c0.1,0,0.2,0,0.2,0c0.8-0.9,1.9-1.2,2.8-1.8c1.5-1,3.1-1.8,4.7-2.7c1.3-0.7,2.5-1.5,3.8-2.2
				c0.1-0.1,0.3-0.2,0.5,0c0.1,0.1,0.4,0,0.7,0c-0.2-0.2-0.3-0.3-0.3-0.4c0,0,0,0,0-0.1c0.7,0,0.7,0,0.7,0.5c0,0.7,0,1.5,0,2.3
				c-0.2,0-0.4,0-0.6,0c0,0.1,0,0.1,0,0.2c0.7,0.7,0.6,1.6,0.6,2.5c0,1.5,0,3,0,4.5c0,1.4,0,2.9,0,4.3c-0.2,0.1-0.3,0.2-0.6,0.3
				c0.2,0.1,0.4,0.2,0.5,0.3c0,0.8,0,1.5,0,2.3c-0.2,0.1-0.3,0.1-0.5,0.2c0.2,0.2,0.3,0.3,0.5,0.5c0,0.5,0,1.1,0,1.8
				c0,0.6,0,1.3,0,1.9c0,0.6,0,1.3,0,1.9c0,0.6,0.2,1.3-0.2,1.9c0.5,0.6,0.2,1.2,0.2,1.8c0,0.6,0,1.3,0,1.9s0,1.3,0,1.9s0,1.3,0,1.9
				C145.5,339.6,145.5,340.2,145.5,340.9z M131.5,334.2c0,0.1-0.1,0.1-0.1,0.2c0.1,0.1,0.3,0.3,0.4,0.3c0.4-0.1,0.7,0.1,1,0.3
				c0.1-0.2,0.1-0.4,0.1-0.5c0-0.1,0.1-0.3,0.1-0.3c-0.1-0.1-0.3-0.2-0.4-0.1c-0.2,0.1-0.3,0.3-0.4,0.4
				C131.9,334.3,131.7,334.3,131.5,334.2z M136.1,336.2c0.2-0.3,0.4-0.4,0.5-0.5c0.6,0.2,0.6,0.2,0.6-0.3c-0.4-0.1-0.8-0.1-1.1-0.2
				C136.1,335.5,136.1,335.7,136.1,336.2z M130.7,333.5c-0.3,0.3-0.6,0.5-0.8,0.7c0.5,0.6,0.8,0,1.1,0c0,0,0-0.1,0.1-0.2
				C131,333.9,130.9,333.7,130.7,333.5z M143.2,329.6c0.5,0.3,0.9,0.5,1.4,0.7c0-0.3-0.1-0.6-0.1-0.9
				C144.1,329.4,143.7,329.5,143.2,329.6z M125.3,328.8c0,0-0.1,0.1-0.1,0.1c0.5,0.2,0.4,1,1.1,1.1c0-0.3,0-0.5,0-0.7
				C125.9,329.2,125.6,329,125.3,328.8z M127.3,320.5c-0.1-0.3-0.3-0.4-0.6-0.3c-0.2,0.1-0.4,1-0.2,1.1c0.1,0.1,0.3,0.1,0.3,0.1
				c0.1,0,0.1-0.2,0.1-0.3C126.8,320.5,126.8,320.5,127.3,320.5z M144.5,315c-0.3-0.6-0.3-0.6-1.3-0.2c0.1,0.1,0.1,0.3,0.3,0.4
				c0.1,0,0.3,0,0.4-0.1C144.1,315.1,144.3,315.1,144.5,315z M134.7,313.8c0.1,0,0.1-0.1,0.2-0.1c0-0.5-0.1-1-0.1-1.6
				c-0.2,0.4-0.4,0.7-0.6,1C134.4,313.2,134.8,313.3,134.7,313.8z M118.5,326.7c0.4,0.3,0.8,0.8,1.4,0.7
				C119.7,326.6,119,326.8,118.5,326.7z"/>
		</g>
	</g>
	<path class="st8" d="M588.5,142.9c0.6-0.1,1-0.1,1.4-0.2c0-0.1,0-0.2,0-0.2c-0.4-0.1-0.8-0.1-1.6-0.3c0.3-1,0.6-2,0.8-3
		c0.1-0.2,0-0.6-0.1-0.7c-1-1.6-0.6-3.4-0.4-5c0.4-3.3,1.1-6.5,1.9-9.8c0.3-1.2,0.9-2.4,1.4-3.6c0.1-0.3,0.6-0.4,0.8-0.5
		c-0.2-0.2-0.5-0.6-0.5-0.7c0.9-1.2,0.8-3.1,2.2-4.1c0-0.1-0.2-0.4-0.1-0.5c0.7-1.1,1.5-2.2,2.2-3.3c0.2-0.3,0.4-0.7,0.6-1.1
		c1.6-3,3.8-5.6,6.3-7.9c1.7-1.6,3.4-3.2,5.2-4.6c1.6-1.3,3.4-2.5,5.2-3.5c1.7-1,3.5-2.1,5.4-2.7c2-0.7,3.9-1.9,6-2.4
		c2.1-0.5,4.3-1.2,6.4-1.4c3.6-0.4,7.3-0.4,11-0.5c1.4,0,2.8,0.1,4.2,0.2c0.6,0.1,1.7-0.1,1.1,1.3c0.3,0,0.5,0,0.8,0
		c-0.1-0.4-0.2-0.7-0.3-1.1c2.2,0.5,4.2,0.9,6.2,1.5c1.8,0.5,3.6,1.2,5.4,1.9c0.2,0.1,0.4,0.4,0.7,0.8c0.8-0.4,1.5,0,2.3,0.8
		c0.6,0.6,1.7,0.6,2.5,1.1c2.6,1.7,5.1,3.4,7.6,5.1c0.2,0.1,0.9,0.4,0.3,0.9c0,0,0.2,0.5,0.3,0.5c0.3,0,0.5-0.1,0.9-0.2
		c3.4,3.3,6.8,6.8,9.2,11.1c1.3,2.5,2.8,4.9,4,7.5c1.7,3.6,2.8,7.5,3.3,11.5c0.4,3.2,0.6,6.5,0.7,9.8c0.1,1.4-0.1,2.8-0.3,4.1
		c-0.1,0.7-0.6,1.4-0.9,2.2c0,0,0.2,0,0.6-0.1c-1,4.2-1.3,8.6-3.8,12.1c0.5,1.5-0.8,2.4-1.2,3.6c-0.5,1.2-0.8,2.7-2.8,2.4
		c0.1,0.1,0.1,0.3,0.2,0.4c0.3,0.1,0.6,0.2,0.8,0.4c0,0.1,0.1,0.2,0,0.2c-1.7,2.5-3.4,5-5.3,7.4c-0.9,1-1.8,2.2-2.9,3
		c-0.4,0.3-0.6,1.2-1.4,0.6c0,0-0.4,0.4-0.6,0.6c0.8,0.6-0.1,0.9-0.4,1.1c-1.1,0.9-2.4,1.5-3.5,2.5c-2.6,2.3-5.7,3.8-8.8,5.3
		c-4.2,2-8.6,3.4-13.3,4c-1.2,0.2-2.4,0.3-3.6,0.4c-0.8,0.1-1.5-0.1-2.3,0c-0.8,0-1.5,0.3-2.3,0.3c-1.6,0-3.3,0.1-4.9-0.3
		c-1.9-0.4-3.9-0.2-5.8-0.8c-2-0.6-4.1-0.9-6-1.6c-5.6-1.9-10.8-4.6-15.4-8.4c-2.5-2.1-4.9-4.4-7-6.8c-2-2.2-3.7-4.6-5.2-7.1
		c-3-4.8-5-10-6.2-15.6C589.1,147.2,588.9,145.1,588.5,142.9z M647.9,129.9c-0.9-0.9-2-0.3-2.6,1.8
		C646.3,131.1,647.1,130.5,647.9,129.9z M617.3,125.2c-0.8,0.3-1.4,0.4-1.9,0.7c-0.3,0.2-0.8,0.5-0.8,0.8c-0.1,0.3,0.3,0.7,0.4,0.9
		C615.8,126.7,616.5,126,617.3,125.2z M644.9,144.8c-0.2-1.2-0.7-1.1-1.4-0.9c-0.3,0.1-0.7,0.3-0.9,0.2c-0.6-0.4-0.5-0.4-0.8,0.4
		C642.8,144.6,643.8,144.7,644.9,144.8z M612.3,174.7c-0.4-1.3-0.4-1.3-1.8-0.3c0.1,0.4,0.2,0.8,0.3,1.3
		C611.3,175.3,611.8,175,612.3,174.7z M674,166.1c-0.1-0.6-0.2-1.2-0.3-1.9c-0.7,0.4-1.3,0.7-1.8,0.9c0.5,0.3,1,0.6,1.4,0.9
		c0,0.1-0.1,0.2-0.1,0.3C673.6,166.3,673.9,166.2,674,166.1z M651.8,131.4c0.8,0.2,1.6,0.4,2.3,0.5c-0.4-0.7-0.7-1.3-1.1-2
		C652.7,130.4,652.3,130.9,651.8,131.4z M639.3,165.8c1,0.2,1.7,0.3,2.8,0.6c-1.6-1-0.1-1.2,0.2-2
		C641.2,164.8,640.3,165.3,639.3,165.8z M624,161.6c0.2,0.3,0.3,0.4,0.4,0.6c0.2-0.2,0.4-0.3,0.5-0.5c0.1-0.2-0.1-0.5-0.2-0.9
		c0,0-0.3-0.1-0.5-0.2c-0.4,0.3-0.7,0.5-1,0.7c-0.1,0.1-0.2,0.4-0.3,0.6c0.2,0,0.4,0.2,0.6,0.1C623.7,162,623.8,161.8,624,161.6z
		 M646.6,105c0.1,0.1,0.2,0.2,0.4,0.3c0.5-0.7,1-1.4,1.6-2.3C646.7,102.7,647.3,104.4,646.6,105z M654.2,142.8c0,0.1,0,0.2,0.1,0.3
		c0.8-0.2,1.5-0.4,2.6-0.7c-0.8-0.4-1.3-0.6-1.7-0.8C654.9,142.1,654.6,142.4,654.2,142.8z M655.5,165.9c0.4-1.1,0.4-1.1-1.8-1.9
		C653.3,165.8,655.4,164.5,655.5,165.9z M659.3,169.1c0.2-0.2,0.5-0.4,0.8-0.5c-1.1-1.7-1.3-1.9-1.3-1.9
		C658.9,167.5,659.1,168.2,659.3,169.1z M610.4,151.2c0.8,0.2,1.5,0.4,2.3,0.5c0-0.1,0-0.2,0-0.3c-0.5-0.4-1-0.8-1.6-1.3
		C610.8,150.5,610.6,150.8,610.4,151.2z M683.9,136.2c-0.4-1.4-1-1.4-2.5-0.4c0.4,0.2,0.8,0.4,1.2,0.7
		C682.5,135.3,682.9,135.1,683.9,136.2z M655.3,131.9c1,1.1,1,1.1,1.8,0.1C656.3,131.2,656.3,131.2,655.3,131.9z M605.9,165.6
		c0.1-1,0.1-1.9,0.2-2.7c-0.1,0-0.2,0-0.3,0c-0.2,0.7-0.4,1.3-0.7,2.2C605.2,165.1,605.5,165.3,605.9,165.6z M676.6,157.9
		c0.4-0.2,0.7-0.4,1-0.6c-0.8-1.2-0.8-1.2-1.6-1C676.2,156.8,676.4,157.3,676.6,157.9z M593.4,155.5c0.1,0,0.2,0,0.3,0.1
		c0.1-0.3,0.3-0.7,0.1-0.9c-0.6-1.1-1.8-0.5-2.7-0.6c0.2,0.2,0.5,0.4,0.8,0.4c0.4,0,0.8,0,1.3-0.1
		C593.3,154.8,593.4,155.2,593.4,155.5z M632,90.8c0.4-0.6,0.7-0.9,0.9-1.2c0.1-0.1,0.1-0.3,0.1-0.4c0-0.1-0.2-0.2-0.3-0.2
		c-0.7-0.2-0.9,0.4-0.9,0.9C631.7,90.1,631.9,90.5,632,90.8z M653.1,95.3c0-0.1,0-0.2,0-0.4c-0.3,0.1-0.7,0.1-1,0.4
		c-0.3,0.2-0.4,0.6-0.5,0.9c-0.1,0.2-0.1,0.5-0.2,0.7c0.2-0.1,0.5-0.1,0.6-0.3C652.5,96.2,652.8,95.7,653.1,95.3z M594.4,116.4
		c-0.1,0.6-0.3,1-0.4,1.7c0.8-0.6,1.4-1,2.2-1.6C595.3,116.4,594.8,116.4,594.4,116.4z M639.3,120.5c0.5,0,1.1,0,1.7,0
		c0-0.1,0-0.1,0-0.2c-0.3-0.1-0.6-0.1-0.8-0.2c0.3-0.8,0-1.2-0.8-1C639.4,119.6,639.3,120,639.3,120.5z M592,150.7
		c1.3,0.2,1.4-0.6,1.2-1.6C592.6,149.5,591.7,149.5,592,150.7z M661.3,158.6c1,0.5,1.3-0.3,1.7-0.9c0.1-0.1-0.3-0.5-0.4-0.6
		C662.1,157.6,661.7,158.1,661.3,158.6z M682.6,134.4c1,0.1,1.8,0.1,2.7,0.2c0-0.1,0-0.2,0-0.3C683,133.9,683,133.9,682.6,134.4z
		 M636.5,174.3c0.6-0.1,1-0.1,1.1-0.1c0.1-0.7,0.1-1.1,0.2-1.6C636.6,172.5,637,173.7,636.5,174.3z M663.2,118.1
		c0.1-0.1,0.1-0.2,0.2-0.3c-0.1-0.3-0.2-0.5-0.3-0.8c-0.5,0.1-1,0.2-1.4,0.3c0,0.1-0.1,0.2-0.1,0.3
		C662.1,117.7,662.6,117.9,663.2,118.1z M630.7,114c0.4-0.6,0.6-1.1,0.8-1.5c0-0.1-0.1-0.2-0.1-0.3c-0.4,0.1-0.8,0.3-1.2,0.4
		C630.3,113,630.5,113.5,630.7,114z M600.9,114c-0.6-2.1-0.6-2.1-1.3-2C600.1,112.7,600.5,113.4,600.9,114z M617,103.4
		c0.6-0.1,1.1-0.2,1.7-0.2c-0.3-0.6-0.5-0.9-0.8-1.5C617.6,102.4,617.3,102.8,617,103.4z M637.3,136.8c0.2,0.3,0.5,0.7,0.5,0.6
		c0.6-0.3,1.2-0.6,1.7-0.9c-0.1-0.1-0.1-0.2-0.2-0.4C638.8,136.3,638.2,136.5,637.3,136.8z"/>
	<g>
		<text transform="matrix(1 0 0 1 613.7824 135.1949)" class="st6 st2 st9 st10">79%</text>
	</g>
	<path class="st8" d="M211.3,119.8c-0.2-0.3-0.4-0.6-0.4-0.8c0.7-2.3,1.6-3.8,2.1-3.8c0.1-0.4,0-0.7,0.2-1c0.7-1.1,1.5-2.1,2.1-3.2
		c1-1.6,1.8-3.2,2.9-4.7c1.2-1.5,2.5-2.9,3.9-4.2c1.7-1.6,3.3-3.2,5.2-4.6c1.6-1.3,3.4-2.4,5.1-3.5c1.7-1,3.5-2.1,5.4-2.7
		c1.1-0.3,1.8-1,2.8-1.3c3.4-0.9,6.8-2,10.3-2.5c3.7-0.5,7.5-0.5,11.3-0.5c1.4,0,2.9,0.3,4.4,0.4c-0.1,0.4-0.2,0.7-0.3,1.2
		c0.4-0.2,0.6-0.3,0.9-0.4c-0.1-0.2-0.2-0.4-0.5-0.9c2.3,0.6,4.3,1,6.3,1.6c1.8,0.5,3.6,1.2,5.5,1.9c0.2,0.1,0.4,0.4,0.7,0.8
		c0.8-0.4,1.5,0,2.3,0.9c0.5,0.6,1.8,0.6,2.5,1.1c2.6,1.7,5.1,3.4,7.6,5.2c0.2,0.1,0.9,0.4,0.2,0.8c0,0,0.3,0.5,0.5,0.9
		c0.2-0.3,0.4-0.5,0.6-0.7c3.2,3.1,6.3,6.3,8.7,10.1c3.7,5.7,6.3,11.8,7.6,18.4c0.4,2.3,0.5,4.6,0.7,6.9c0.1,1.5,0.3,3.1,0.3,4.6
		c0,1.6-0.2,3.1-0.5,4.7c0,0.4-0.4,0.7-0.6,1c-0.1,0.1-0.1,0.3-0.2,0.5c0.2,0,0.4-0.1,0.9-0.1c-0.7,2.9-1.4,5.7-2.2,8.5
		c-0.3,1-0.6,1.9-1.1,2.8c-0.2,0.4-0.7,0.6-0.8,0.7c0.6,1.6-0.7,2.6-1.1,3.7c-0.5,1.2-0.8,2.6-2.8,2.4c0,0.1,0.1,0.2,0.1,0.3
		c0.3,0.1,0.6,0.3,1.1,0.5c-1.3,1.8-2.5,3.6-3.8,5.4c-0.7,1-1.9,1.8-2.5,2.6c-0.8,1.1-1.8,1.8-2.5,2.9c-0.1,0.2-0.4,0.4-0.6,0.4
		c-0.8,0-0.7-0.1-0.7,0.7c0,0.3-0.3,0.6-0.6,0.8c-1.2,0.9-2.4,1.7-3.5,2.5c-1.3,0.9-2.5,2-3.9,2.8c-2,1.1-4.2,1.8-6.1,2.9
		c-2.7,1.6-5.8,2.3-8.8,3.1c-2.3,0.6-4.8,0.7-7.1,1c-0.8,0.1-1.7-0.2-2.6,0.2c-0.8,0.4-2,0.1-3,0.1c-1.2,0-2.5-0.1-3.7-0.3
		c-0.3,0-0.6-0.3-0.8-0.4c-0.5,0.1-1,0.3-1.5,0.2c-6.6-1-12.9-2.9-18.6-6.4c-2.4-1.5-4.9-3-7.1-4.8c-2.3-1.9-4.3-4-6.2-6.2
		c-0.9-1.1-2-2-2.7-3.2c-0.8-1.3-1.8-2.5-2.6-3.9c-3-4.9-5-10.1-6.2-15.6c-0.4-2-0.9-4.1-0.9-6.2c0.4-0.1,0.8-0.1,1.3-0.2
		c0-0.1,0-0.2,0-0.3c-0.4-0.1-0.9-0.1-1.4-0.2c0-1.1-0.3-2.2,0.6-3.2c0.1-0.1,0-0.5-0.1-0.7c-1-1.6-0.6-3.4-0.4-5
		c0.4-3.2,1.1-6.4,1.9-9.6c0.3-1.3,0.8-2.5,1.4-3.7C210.7,120.1,211.1,120,211.3,119.8z M266.6,130.2c-0.9-0.9-1.8-0.4-2.7,1.9
		C264.9,131.3,265.8,130.8,266.6,130.2z M233.7,127.9c0.8-0.9,1.5-1.7,2.2-2.5c-0.7,0.3-1.2,0.5-1.7,0.7c-0.3,0.2-0.8,0.4-0.9,0.7
		C233.3,127.1,233.6,127.6,233.7,127.9z M263.1,143.8c-0.5,0.2-0.8,0.5-1.2,0.6c-0.2,0.1-0.5,0-0.7-0.1c-0.1-0.1-0.2-0.3-0.3-0.5
		c-0.2,0.2-0.4,0.5-0.7,0.9c1.3,0.1,2.3,0.2,3.5,0.3C263.5,144.5,263.4,144.3,263.1,143.8z M229.5,175.9c0.5-0.4,1.1-0.7,1.4-1.1
		c0.1-0.1-0.3-0.6-0.4-1c-0.5,0.2-0.9,0.5-1.3,0.6C229.3,175,229.4,175.4,229.5,175.9z M292.9,166.3c-0.1-0.2-0.2-0.4-0.3-0.7
		c0-0.1-0.1-0.1-0.1-0.2c-0.1-0.9-0.1-0.9-0.9-0.4c-0.3,0.2-0.6,0.3-0.9,0.4c0.5,0.3,1,0.7,1.6,1.1
		C292.3,166.6,292.6,166.5,292.9,166.3z M272.9,132.3c-0.4-0.7-0.7-1.3-1.1-2.1c-0.3,0.5-0.7,1-1.2,1.5
		C271.4,131.9,272.1,132.1,272.9,132.3z M258,166c0.9,0.2,1.7,0.4,2.7,0.6c-1.4-1-0.2-1.3,0.4-2.1C259.9,165.1,259,165.6,258,166z
		 M243,160.9c-0.4,0.3-0.7,0.5-1.1,0.8c-0.1,0.1-0.2,0.4-0.3,0.6c0.2,0,0.5,0.1,0.7,0.1c0.2-0.1,0.3-0.3,0.4-0.4
		c0.2,0.2,0.3,0.5,0.5,0.6c0.1,0,0.5-0.2,0.5-0.4c0-0.3-0.1-0.5-0.3-1C243.4,161.2,243.2,161,243,160.9z M265.3,105.4
		c0.2,0,0.4,0.1,0.5,0c0.3-0.5,0.6-0.9,0.9-1.4c0.1-0.2,0.2-0.5,0.3-0.7c-0.3,0.1-0.8,0.2-1,0.4
		C265.7,104.2,265.6,104.8,265.3,105.4z M273,143.1c0,0.1,0,0.2,0,0.4c0.8-0.2,1.6-0.4,2.6-0.6c-0.8-0.4-1.3-0.6-1.7-0.8
		C273.6,142.3,273.3,142.7,273,143.1z M274.5,165.9c0.3-1.6-1.5-0.9-2.3-1.4c0.2,0.4,0.4,0.8,0.6,1.2c0-0.1,0.1-0.2,0.1-0.3
		C273.4,165.5,273.9,165.7,274.5,165.9z M278.7,168.9c-0.2-0.5-0.2-1-0.5-1.4c-0.2-0.3-0.5-0.5-0.8-0.8c-0.1,0.1-0.2,0.2-0.3,0.3
		c0.3,0.3,0.6,0.7,0.8,1c-0.1,0.4-0.2,0.9-0.3,1.6C278.2,169.3,278.5,169.1,278.7,168.9z M231.4,152.1c0-0.1,0.1-0.2,0.1-0.4
		c-0.3-0.1-0.6-0.2-0.8-0.4c-0.9-0.7-0.9-0.7-1.7,0.1C229.8,151.7,230.6,151.9,231.4,152.1z M300,136c0.4,0.3,0.8,0.5,1.2,0.8
		c0.1-0.4,0.2-0.7,0.3-1.1c0.4,0.2,0.6,0.4,1,0.6C302.3,135.1,301.9,135.1,300,136z M275.9,132c-0.6,0-1.2,0-2,0
		C274.6,132.9,275.1,133.6,275.9,132z M223.8,165.2c0.1,0.1,0.4,0.3,0.8,0.7c0.1-1,0.1-1.9,0.2-2.8c-0.1,0-0.2,0-0.4,0
		C224.2,163.7,224,164.3,223.8,165.2z M295.3,158.2c0.3-0.2,0.6-0.4,0.9-0.6c-0.7-1.2-0.7-1.2-1.6-1
		C294.9,157.1,295.1,157.6,295.3,158.2z M212.1,155.8c0.1,0,0.2,0,0.3,0.1c0.1-0.3,0.3-0.7,0.2-0.9c-0.6-1.1-1.8-0.5-2.7-0.6
		c0.2,0.2,0.5,0.3,0.8,0.3c0.4,0,0.8,0,1.2,0C212,155.1,212.1,155.5,212.1,155.8z M251.5,89c-0.1,0-0.2-0.1-0.3-0.1
		c-0.3,0.6-0.6,1.2-0.9,1.8c0,0,0.4,0.3,0.4,0.3c0.4-0.6,0.6-0.9,1-1.4C251.7,89.5,251.6,89.3,251.5,89z M272.2,95.2
		c-0.6,0.2-1.1,0.2-1.3,0.4c-0.3,0.2-0.4,0.6-0.5,0.9c-0.1,0.3-0.1,0.5-0.1,0.8c0.2-0.1,0.4-0.2,0.6-0.4
		C271.2,96.5,271.6,96,272.2,95.2z M212.7,118.4c0.7-0.6,1.3-1,2-1.5C213.3,116.3,212.8,116.9,212.7,118.4z M258.1,119.4
		c-0.1,0.5-0.1,0.9-0.2,1.4c0.6,0,1.2,0,1.8,0c0-0.1,0-0.2,0-0.3c-0.3,0-0.6-0.1-0.9-0.1C259.3,119.6,258.9,119.3,258.1,119.4z
		 M210.4,150.7c0.1,0.1,0.2,0.2,0.3,0.3c1.2,0,1.3-0.2,1.1-1.7C211.3,149.8,210.8,150.2,210.4,150.7z M280.1,158.9
		c0.3,0,0.8,0.1,1.1-0.1c0.3-0.2,0.5-0.7,0.7-1.2c0,0-0.4-0.3-0.5-0.3C280.8,157.9,280.5,158.3,280.1,158.9z M304,134.9
		c0-0.1,0-0.2,0-0.3c-2.4-0.3-2.4-0.3-2.7,0.1C302.3,134.8,303.1,134.8,304,134.9z M255.3,174.6c0.5-0.1,0.9-0.2,1-0.2
		c0.1-0.7,0.2-1.1,0.2-1.5c-0.2,0-0.4,0-0.7-0.1C255.7,173.4,255.5,173.9,255.3,174.6z M280.3,117.5c0.2,1,1,0.7,1.6,0.7
		c0-0.4,0-0.7,0-1C281.2,117.4,280.8,117.5,280.3,117.5z M258.3,136.8c0-0.1,0-0.2-0.1-0.3c-0.7,0.2-1.3,0.3-2,0.5
		C256.5,137.8,256.5,137.8,258.3,136.8z M249.4,114.2c0.3-0.5,0.4-0.7,0.5-1c0.1-0.2,0.1-0.4,0.2-0.6c-0.2-0.1-0.5-0.2-0.7-0.1
		c-0.2,0.1-0.6,0.4-0.6,0.5C248.9,113.4,249.2,113.8,249.4,114.2z M218.2,112.2c0.5,0.8,1,1.5,1.5,2.2c0.1-0.1,0.2-0.2,0.3-0.2
		C219.3,113.6,219.8,112.2,218.2,112.2z M235.7,103.7c0.6-0.1,1.1-0.1,1.7-0.2c-0.3-0.6-0.5-0.9-0.7-1.5
		C236.3,102.6,236.1,103,235.7,103.7z"/>
	<g>
		<text transform="matrix(1 0 0 1 607.5927 156.3615)" class="st6 st2 st11">BETTER</text>
	</g>
	<g>
		<text transform="matrix(1 0 0 1 230.6972 135.0494)" class="st6 st2 st9 st10">76%</text>
	</g>
	<g>
		<text transform="matrix(1 0 0 1 224.7067 156.2159)" class="st6 st2 st11">BETTER</text>
	</g>
</g>
</svg>
