<?xml version="1.0" encoding="utf-8"?>
<!-- Generator: Adobe Illustrator 19.1.0, SVG Export Plug-In . SVG Version: 6.00 Build 0)  -->
<svg version="1.1" id="Layer_1" xmlns="http://www.w3.org/2000/svg" xmlns:xlink="http://www.w3.org/1999/xlink" x="0px" y="0px"
	 viewBox="0 0 355 180" style="enable-background:new 0 0 355 180;" xml:space="preserve">
<style type="text/css">
	.st0{fill:#F37046;}
	.st1{fill:#757576;}
</style>
<g>
	<path class="st0" d="M229,84.5c0.4-0.5,0.8,0,1.2,0.1c0.4-0.6,0.2-1.3-0.4-1.7c-0.1-0.1-0.3-0.2-0.4-0.3c-0.2-0.2-0.3-0.4,0-0.7
		c0.1-0.1,0.3-0.2,0.4-0.3c0.3-0.2,0.6-0.3,0.8-0.6c0-0.1,0.2-0.1,0.3-0.2c0.2,0,0.3,0,0.5,0.1c0,0.2-0.1,0.3-0.1,0.5
		c0,0.1-0.1,0.1-0.2,0.3c0.4,0.5,0.7,1,1.4,1.2c0.3-0.2,0.2-0.5,0.2-0.8c0-0.1,0-0.3-0.1-0.5c-0.1-0.6-0.1-0.6,0.6-0.6
		c0,0,0.1,0,0.2,0c0-0.9-0.4-1.6-0.9-2.3c-0.3,0.2-0.5,0.3-0.8,0.4c-0.4-0.4-0.1-0.7-0.1-1.1c0,0.2,0.1,0.3,0.1,0.6
		c0.1-0.2,0.2-0.4,0.3-0.6c1,0.2,1.8-0.4,2.7-0.9c0-0.2-0.1-0.5-0.1-0.7c0-0.1,0-0.2-0.1-0.2c-0.6-0.5-0.6-0.5-0.2-1.5
		c0,0,0-0.1,0-0.1c-0.2-0.2-0.2-0.4,0-0.4c0.2,0,0.5,0.1,0.7,0.2c0.2,0.1,0.3,0.4,0.4,0.6c0.5,0.8,1.1,1.1,2.2,1
		c-0.5-0.6-1-1.2-1.6-1.7c-0.5-0.5-1.2-0.9-1.8-1.3c0,0,0-0.1,0.1-0.1c0.3,0,0.6,0,0.8-0.1c0.2-0.3,0.5-0.6,0.7-0.9
		c0.1-0.2,0.1-0.4,0.1-0.6c0-0.3-0.1-0.6-0.2-0.9c-0.1-0.4,0.1-0.5,0.5-0.4c0,0,0,0,0.1,0c1,0,1.4,0.7,1.8,1.5
		c0.3,0.7,0.7,1.4,1.1,2.1c0.1,0.2,0.3,0.4,0.4,0.6c0.4-0.1,0.3-0.3,0.3-0.5c0-0.4,0.1-0.7-0.4-0.8c-0.1,0-0.1-0.1-0.2-0.2
		c-0.4-0.7-0.8-1.4-1.3-2.1c0.1-0.1,0.3-0.2,0.4-0.1c0.2,0.1,0.4,0.2,0.5,0.3c0.1,0.1,0.3,0.2,0,0.4c0.1,0.1,0.2,0.3,0.3,0.4
		c0.3-0.3,0.2-0.6,0.1-0.9c-0.1-0.4-0.3-0.7-0.4-1.1c-0.1-0.3-0.2-0.7,0.1-1.1c0.2,0,0.5,0,0.7,0c0.3-0.3,0.6-0.5,0.9-0.9
		c0,0,0,0,0-0.1c-0.1-0.3-0.5-0.5-0.1-0.8c0.3-0.2,0.5-0.6,1-0.2c0.1,0.1,0.4,0,0.5-0.1c0.2-0.3,0.5-0.6,0.6-0.9
		c0.2-0.3,0.3-0.6,0.7-0.6c0.7-0.1,1.3-0.7,1.2-1.4c-0.1-0.7,0.3-1,0.8-1.4c0.1,0.3,0.2,0.5,0.1,0.7c-0.2,0.7,0.3,1,0.8,1.4
		c0.1-1.1-0.5-1.9-0.6-2.8c1.2-0.6,1.2-0.6,2.1-0.5c0-0.6,0-1.3,0-1.9c0.3-0.1,0.6-0.1,0.9-0.2c0.3,0,0.5-0.1,0.8-0.1
		c-0.2-0.5-0.4-0.8-0.5-1.3c0.8-0.3,0.6-1.1,1-1.6c-0.2-0.2-0.3-0.5-0.5-0.8c0.3,0.1,0.6,0.1,0.9,0.2c0-0.3,0.1-0.5,0.1-0.7
		c0.2-0.1,0.4-0.1,0.6-0.2c-0.9,0-1.3-0.4-1.5-1.3c0-0.2-0.2-0.3-0.5-0.1c-0.4,0.3-0.9,0.3-1.4,0.1c-0.5-0.2-1.1-0.4-1.8-0.6
		c0.4-0.1,0.7-0.2,1.1-0.4c0-0.1,0.1-0.4,0.2-0.7c-0.3,0-0.6-0.1-0.9-0.1c0.1-0.3,0.1-0.5,0.2-0.7c0,0-0.1-0.1-0.1-0.1
		c-0.3,0.2-0.6,0.4-0.9,0.7c-0.5-1.3-1.3-2.2-2.7-2.3c0.1-0.6-0.2-1,0-1.6c0.2-0.4-0.1-0.6-0.6-0.5c-0.1,0-0.2,0.1-0.4,0.1
		c-0.3,0-0.5-0.1-0.5-0.4c0-0.2,0.2-0.3,0.3-0.4c0.1-0.1,0.2,0,0.4-0.1c0.3-0.1,0.3-0.3,0.1-0.5c-0.2,0.1-0.4,0.2-0.7,0.4
		c-0.2-0.3-0.5-0.6-0.7-0.9c-0.4-0.8-0.6-1-1.4-0.7c-0.1,0-0.1,0.1-0.2,0.1c-0.1-0.2-0.2-0.3-0.3-0.5c-0.1-0.1-0.3-0.2-0.5-0.3
		c0.2-0.5,0.3-1,0.5-1.5c-0.4,0.2-0.7,0.4-1.1,0.6c-0.1-0.3-0.2-0.5-0.2-0.7c0-0.4-0.2-0.6-0.5-0.9c-0.5-0.4-0.9-0.9-1.3-1.4
		c-0.3-0.4-0.1-0.8,0-1.2c0.1-0.3,0.3-0.6,0.1-1c-0.9-0.1-0.4,0.8-0.7,1.1c-0.4-0.1-0.8-0.4-1.2-0.7c-0.3-0.2-0.2-0.5-0.1-0.8
		c0.1-0.2,0.2-0.3,0.4-0.5c-0.6-0.6-1.2,0.2-1.8-0.1c0-0.3,0-0.5,0-0.7c-0.3-0.4-0.6-0.7-0.9-1c-0.1-0.1-0.3-0.2-0.5-0.2
		c-0.6,0.1-1.1-0.1-1.5-0.5c-0.6-0.5-1.2-1.1-2-1.2c-0.1,0-0.2-0.1-0.4-0.2c0.2-0.3,0.4-0.7,0.6-1c-0.2-0.5-0.5,0.3-0.8-0.2
		c0,0,0-0.1,0-0.2c0-0.7-0.3-1.1-1-1.1c-0.4-0.1-0.7-0.3-0.9-0.6c-0.3-0.5-0.5-1-0.8-1.5c-0.2-0.3-0.3-0.6-0.7-0.7
		c-0.2-0.1-0.4-0.3-0.4-0.5c-0.1-0.4-0.2-0.7-0.2-1.1c0-0.3,0.1-0.6,0.3-0.9c0.4-0.5,0.7-1.1,1.1-1.7c0.1-0.1,0.1-0.2,0.2-0.3
		c0.2-0.3,0.3-0.6,0.7-0.5c0.2,0,0.5,0.2,0.7,0.3c0.1,0.1,0.1,0.3,0.2,0.5c0,0.1,0.1,0.1,0.1,0.2c0.1,0,0.1,0,0.2,0
		c0.7-0.3,0.8-0.4,1.1,0.5c0.2,0.9,0.9,1.5,1.6,2c0.6,0.5,1.3,0.9,1.7,1.6c0.3,0.5,0.8,0.4,1.3,0.3c0.2,0.3,0.2,0.6,0.6,0.7
		c0.2,0,0.4,0.4,0.5,0.6c0.4,0.9,1.1,1.5,1.9,2.1c0.4,0.3,0.4,0.7,0.2,1.1c0.2,0.5,0.5,0.8,1,1c0.7,0.2,1.2,0.7,1.7,1.3
		c0.1,0.2,0.2,0.3,0.4,0.5c0.3,0.4,0.4,0.4,0.8,0.1c0.5-0.3,0.7-0.2,0.7,0.3c0,0.2,0,0.4,0,0.6c0.3,0,0.5,0,0.8,0
		c-0.4,0.5,0.4,0.6,0.1,1.1c0.3-0.1,0.5-0.2,0.8-0.3c0.2,0.2,0.4,0.4,0.5,0.6c0.7,0.9,1.3,1.9,1.9,2.8c0.4,0.6,0.4,1.1,0.3,1.8
		c-0.2,0-0.4,0-0.6,0c0.1,0.2,0.2,0.3,0.3,0.6c0.1-0.1,0.3-0.1,0.4-0.3c0.2-0.4,0.5-0.5,0.9-0.6c0.3-0.1,0.6-0.2,0.9-0.3
		c0.5-0.2,0.7,0,0.9,0.4c0.2,0.7,0.5,1.2,1,1.6c0.4,0.3,0.7,1.1,0.8,1.9c0.6,0,1.1,0.2,1.4,0.8c0,0.1,0.2,0.1,0.3,0.2
		c0.7,0.2,1,0.7,1,1.5c0,0.2,0.1,0.4,0.2,0.6c0.3,0,0.6,0,0.8,0.1c0.2,0.1,0.2,0.5,0.4,0.7c0.6,0,1.1,0.1,1.7,0.2
		c0.1,0,0.2,0.1,0.3,0.2c0.2,0.2,0.5,0.3,0.8,0.5c0.1-0.3,0.1-0.6,0.2-0.7c0.1-0.1,0.4-0.1,0.6-0.2c0.1-0.5-0.5-0.5-0.6-0.9
		c0.2-0.1,0.5-0.3,0.7-0.4c0.3-0.2,0.6-0.3,0.7-0.5c0.2-0.3,0.4-0.6,0.5-1c0.1-0.3,0.1-0.6,0.2-1c0.6,0.1,1.1-0.3,1.7-0.1
		c0.3,0.1,0.4-0.1,0.4-0.4c0-0.3,0-0.6-0.1-0.9c0.9-0.1,2-0.7,2.7-1.5c-0.1-0.3-0.3-0.6-0.4-1c0.2-0.2,0.5-0.3,0.7-0.5
		c0.2-0.4,0.5-0.3,0.7-0.1c0.3,0.2,0.5,0.4,0.8,0c-0.2-0.3-0.4-0.5-0.6-0.8c0.4-0.4,0.9-0.3,1.4-0.3c0.3-0.5,0.3-1.1,0.9-1.3
		c0.1-0.1,0.3-0.2,0.4-0.3c0.4-0.4,0.9-0.5,1.5-0.3c0.3,0.1,0.7,0.2,1.1,0.3c0-0.3,0.1-0.5,0.1-0.7c-0.5-0.1-0.9-0.1-1.4-0.2
		c0.3-0.4,0.5-0.6,0.7-0.9c0.1-0.1,0.2-0.2,0.2-0.3c0-0.4,0.2-0.3,0.5-0.3c0.3,0.1,0.5,0.3,0.8,0.4c0.4-0.6-0.2-1.2,0-1.8
		c0.2,0,0.5,0,0.7,0c0.4-0.3,0.7-0.7,1-1c0.1-0.1,0.2-0.3,0.2-0.5c-0.2-0.7,0.2-1.2,0.5-1.7c0.2-0.3,0.4-0.7,0.6-1
		c0.1,0.1,0.2,0.2,0.2,0.2c0.1-0.5-0.1-1,0.4-1.5c0.1,0.1,0.3,0.1,0.3,0.2c0.2,0.4,0.4,0.3,0.5,0c0.1-0.3,0.3-0.4,0.6-0.4
		c0.5,0,0.8-0.3,0.8-0.8c0.1-0.6,0.4-0.9,0.9-1.2c0.4-0.2,0.9-0.4,1.3-0.6c0.3-0.2,0.5-0.6,0.7-0.9c0.1-0.3,0.3-0.4,0.6-0.5
		c0.7-0.2,1.4-0.2,2.1,0.2c0.5,0.4,1.1,0.7,1.7,1c0.3,0.2,0.6,0.3,0.5,0.7c-0.1,0.4,0,0.9-0.6,1c-0.1,0-0.1,0.1-0.2,0.1
		c0.1,0.3,0.2,0.5,0.3,0.8c-0.2,0.1-0.3,0.2-0.5,0.2c-0.8,0.2-1.5,0.7-2,1.5c-0.3,0.4-0.6,0.9-1,1.3c-0.4,0.4-0.8,0.7-1.2,1.1
		c0,0.3,0.1,0.6,0.1,0.9c-0.2,0.1-0.3,0.1-0.6,0.2c0.2,0.5-0.2,0.7-0.5,1c-0.6,0.4-1.2,0.9-1.7,1.3c-0.1,0-0.1,0.1-0.2,0.2
		c-0.2,0.8-0.9,0.8-1.6,0.9c-0.1,0-0.2,0-0.3,0.1c-0.2,1.5-1.4,2.3-2.5,3.2c0.2,0.2,0.3,0.5,0.5,0.7c-0.1,0.6-0.5,0.6-1.1,0.5
		c0,0.3,0,0.5-0.1,0.8c-0.1,0-0.2,0-0.4-0.1c-0.1,0.7-0.5,1.2-1.1,1.6c-0.8,0.5-1.5,1.1-2.2,1.6c-0.1-0.1-0.2-0.1-0.3-0.2
		c-0.5,1-1.2,1.1-2.4,0.5c0.1,0.2,0.3,0.4,0.4,0.6c0,0.1,0,0.2,0,0.3c0.1,0,0.3,0,0.5,0c0,0.7,0.7,1.1,0.4,1.9
		c-0.2,0.1-0.4,0.2-0.7,0.3c-0.4,0.2-0.8,0.3-1.1,0.7c-0.4,0.5-0.9,0.9-1.5,1c-0.4,0.1-0.7,0.2-0.6,0.7c0,0.1,0,0.3-0.1,0.4
		c-0.5,0.3-0.7,0.9-1,1.4c-0.3,0.3-0.5,0.6-1,0.5c-0.1,0-0.4,0.2-0.5,0.4c-0.3,0.8-0.3,0.8-0.9,1.1c0,0,0,0.1,0,0.1
		c0.8,0,1.4,0.7,2.1,0.8c0.3,0.1,0.4,0.3,0.4,0.6c-0.1,0.4,0.1,0.7,0.5,0.9c0-0.7,0.7-0.7,1.1-1c0.1-0.1,0.4-0.1,0.5,0.2
		c0.2,0.3,0.3,0.7,0.4,1.1c0.3,1,0.8,1.9,1.5,2.8c0.6,0.7,0.7,0.8,0.9,1.7c0.2,0.1,0.4,0.2,0.6,0.2c0.2,0.1,0.5,0.2,0.7,0.3
		c0,0.2,0,0.3-0.1,0.4c0.3,0.3,0.6,0.5,0.9,0.9c0.5,0,1.3-0.1,1.7,0.7c0.2-0.1,0.4-0.1,0.7-0.2c0.2,0.3,0.4,0.6,0.5,0.9
		c0.2,0.4,0.6,0.7,1,0.8c0.8,0.2,0.7,0.2,0.8,1c0,0.4,0.2,0.8,0.4,1.3c0.4-0.3,0.7-0.7,1.2-0.3c0.1,0.1,0.5,0,0.7,0
		c0.8-0.1,1.6,0.4,1.7,1.2c0.1,0.6,0.2,1.1,0.4,1.7c0.1,0.4,0.4,0.5,0.6,0.4c0.1,0.3,0.2,0.6,0.4,0.8c0.2,0.3,0.4,0.7,0.7,0.9
		c0.3,0.2,0.7,0.2,1.1,0.4c0.5,0.2,0.8,0.5,1,1c0.1,0.2,0.3,0.4,0.6,0.6c0,0-0.1,0.1-0.2,0.1c-0.7-0.1-0.9,0.1-0.8,0.7
		c0,0.1,0.1,0.2,0.1,0.3c0.4,0.1,0.8,0.1,1-0.3c0.1-0.1,0.3-0.2,0.5-0.2c0.1,0,0.2,0.3,0.2,0.4c0,0.4,0.2,0.7,0.5,0.9
		c0.1,0.1,0.3,0.3,0.5,0.5c-0.4,0-0.7,0.1-0.9,0.1c-0.5,0-1,0.1-1.2,0.7c0,0.1-0.3,0.2-0.4,0.2c-0.1-0.1-0.2-0.3-0.2-0.4
		c0.1-0.2,0.2-0.4,0.4-0.8c-0.3,0-0.5-0.1-0.7-0.1c-0.4,0.1-0.7,0.2-1,0.5c-0.6,0.8-0.7,0.8-1.3,0c-0.2-0.3-0.5-0.6-0.7-0.9
		c-0.1-0.2-0.2-0.4-0.1-0.5c0.2-0.2,0.4-0.1,0.6,0c0.1,0.1,0.2,0.1,0.2,0.2c1-0.6,1-0.6,1.2-1.3c-0.2-0.3-0.3-0.3-0.7-0.2
		c-0.4,0.2-0.5,0.2-1.1,0c0-0.1,0-0.2,0-0.3c0-0.3-0.1-0.4-0.4-0.4c-0.7,0-1.2,0.3-1.8,0.6c-0.1,0.1-0.1,0.3,0,0.5
		c0.1,0.2,0.2,0.4,0,0.5c-0.1,0.1-0.4,0.1-0.6,0.1c-0.1,0-0.2-0.1-0.4-0.1c0.5-1.1-0.3-1.9-0.6-2.9c-0.1-0.2-0.3-0.3-0.5-0.4
		c-0.2,0.6-0.7,0.7-1.1,0.8c-0.4,0.1-0.9-0.1-1.3-0.1c-0.1-0.6,0.1-0.8,0.5-1.1c0.3-0.2,0.8-0.3,0.9-0.7c0.1-0.3,0.3-0.5,0.4-0.8
		c0.1-0.3,0.3-0.6,0.4-1c-1.5,0.9-2.4,2.3-3.7,3.4c0-0.4,0-0.6-0.1-0.9c-0.3-0.1-0.7-0.2-0.9-0.6c0-0.1-0.3-0.2-0.5-0.2
		c-0.5,0-0.9,0.1-1.5,0.2c0-0.2-0.1-0.5-0.1-0.7c0.2-0.7,0.6-1.3,1.3-1.5c0.9-0.3,1.7-0.7,2.5-1.1c0.2-0.1,0.5-0.3,0.7-0.4
		c-0.4-0.5-0.7-0.3-1.1-0.1c-0.8,0.5-1.7,1-2.5,1.4c-0.1,0.1-0.3,0.1-0.6,0.3c0.3-0.6,0.6-1,0.9-1.6c-0.6,0.2-1.1,0.4-1.5,0.5
		c-0.8,0.3-1,0.2-1-0.7c0-0.1,0-0.2,0-0.2c-0.3-0.3-0.6-0.6-0.9-0.9c-0.2,0.1-0.4,0.2-0.6,0.2c-0.6-0.6-0.6-0.7-0.2-1.3
		c-0.2-0.4-0.5-0.6-0.9-0.8c-0.4-0.2-0.8-0.4-0.8-1.1c0.1-0.6-1.1-1.1-1.7-0.9c-0.1,0-0.1,0-0.2,0c-0.3-0.3-0.6-0.6-0.9-1
		c0.4,0,0.6-0.1,0.9-0.1c0.6,0,1-0.2,1.2-0.9c-1-0.2-1.9,0.4-2.9,0.5c-0.4-0.6-0.5-1.3-0.2-2.1c-0.6-0.1-1.1-0.1-1.6,0.1
		c-0.2,0.1-0.5,0-0.7,0c-0.1,0-0.3-0.1-0.4-0.2c-0.8-0.5-1.6-0.4-2.4,0c0.1,0.2,0.1,0.4,0.2,0.5c-0.3,0.6-0.9,0.7-1.4,1
		c0.1,0.5,0.1,1-0.4,1.4c-0.1,0.1-0.1,0.2-0.1,0.3c-0.1,0.7-0.5,1.1-1.3,1.1c0.1,0.2,0.1,0.4,0.2,0.6c0.1,0.2,0.4,0.4,0.5,0.7
		c0.2,0.2,0.2,0.6-0.1,0.7c-0.5,0.2-0.8,0.7-1.4,0.6c-0.4,0-0.6,0.2-0.9,0.4c-0.6,0.5-1.2,1.1-1.9,1.5c-0.2,0.2-0.5,0.3-0.7,0.4
		c-0.5,0.1-0.7,0.4-0.8,0.8c-0.1,0.2-0.1,0.5-0.2,0.8c-0.2,0-0.4,0-0.6,0c-0.1,0.2-0.2,0.3-0.3,0.4c-0.4,0.3-0.5,0.6-0.4,1
		c0.1,0.6-0.2,0.9-0.8,1.2c0.3,0.4,0.6,0.8,0.8,1.2c-0.4,0.3-0.5-0.1-0.8-0.3c-0.4,0.3-0.9,0.5-1.4,0.8c0,0.2,0.1,0.3,0.1,0.4
		c-0.1,0.9-0.2,1-1,1c-0.4,0-0.7,0.1-1,0.4c0.3,0.4,0.3,0.9,0.1,1.4c-0.1,0.1,0,0.3,0,0.4c0.1,0.7-0.1,0.8-0.6,1.3
		c-0.6,0.6-1.4,0.8-2.1,0.9c-0.5,0.1-0.3,0.5-0.5,0.8c-0.7-0.1-1.1,0.4-1.4,0.9c-0.3,0.4-0.5,1-0.7,1.4c-0.1,0.3-0.3,0.5-0.7,0.7
		c-0.3,0.1-0.5,0.4-0.9,0.6c0-0.1-0.2-0.2-0.2-0.4c0.1-0.5,0.1-0.5-0.2-0.9c-0.3,0.3-0.6,0.6-0.9,0.9c0.3,0.3,0.6,0.6,1,0.9
		c-0.2,0.2-0.4,0.4-0.6,0.4c-0.5,0-0.8,0.4-1,0.8c0,0.1-0.2,0.1-0.2,0.2c-0.3-0.1-0.4-0.4-0.3-0.6c0.1-0.6-0.1-1.1-0.7-1.4
		C229.1,84.8,229.1,84.6,229,84.5z M267.4,71.1c0.5,0.2,0.8,0.4,1.1,0.5c0.2-0.3,0.3-0.5,0.5-0.6c0.2-0.1,0.2-0.2,0.2-0.3
		c-0.1-0.1-0.3-0.3-0.4-0.2C268.3,70.5,267.8,70.6,267.4,71.1z M236.1,71.2c0.3,0.6,0.2,1.3,1,1.3c0.1-0.5-0.3-1.7-0.5-1.6
		C236.5,71,236.3,71.1,236.1,71.2z M236.9,40.2c0.2,0.1,0.4,0.3,0.5,0.3c0.2-0.4,0.3-0.7,0.4-1.1C237.4,39.2,237.4,39.2,236.9,40.2z
		 M265.2,64.9c-0.7,0.2-0.9,0.6-1.1,1.2c0.2-0.2,0.6,0.1,0.7-0.4C264.7,65.5,265.2,65.3,265.2,64.9z M266.9,40.2
		c0.3-0.5,0.2-0.5-0.7-1c-0.1,0.1-0.1,0.3-0.2,0.4C266.3,39.9,266.6,40.1,266.9,40.2z M241.3,67.5c0.4,0.3,0.7,0.7,1.1,1
		C242.4,67.8,242.2,67.6,241.3,67.5z M260.9,44.1c-0.2,0.3-0.1,0.5,0.2,0.5c0.1,0,0.2-0.1,0.3-0.1C261.2,44.4,261.1,44.3,260.9,44.1
		z M223.9,25.9c0,0,0.1-0.1,0.1-0.1c-0.1-0.1-0.1-0.3-0.2-0.5c-0.1,0.1-0.3,0.2-0.4,0.3C223.6,25.8,223.7,25.9,223.9,25.9z
		 M276.3,33.7c0.2-0.2,0.4-0.3,0.6-0.5C276.4,33.1,276.4,33.1,276.3,33.7z M250.2,50.9c0,0.1,0,0.1,0,0.2c0.2,0,0.5-0.1,0.8-0.1
		C250.6,50.5,250.4,50.8,250.2,50.9z M244.9,67.2c0,0,0.1,0,0.1,0c0-0.2,0-0.4,0-0.6c0,0-0.1,0-0.1,0
		C244.9,66.8,244.9,67,244.9,67.2z M280.7,28.7c0.2-0.1,0.4-0.3,0.5-0.4C281,28.4,280.5,28.2,280.7,28.7z M244.7,43
		C244.7,43.1,244.7,43.1,244.7,43c0.2,0,0.3-0.1,0.4-0.2c0,0-0.1-0.1-0.1-0.1C244.9,42.8,244.8,42.9,244.7,43z M263.7,49.7
		c0-0.1,0-0.1-0.1-0.2c-0.2,0.1-0.4,0.1-0.6,0.2c0,0.1,0,0.1,0.1,0.2C263.3,49.8,263.5,49.8,263.7,49.7z M251.7,50.7
		c-0.4,0.2-0.5,0.4-0.2,0.6C251.5,51.1,251.6,51,251.7,50.7z M257.9,50.7c-0.3-0.1-0.5-0.1-0.5,0.3
		C257.6,50.9,257.7,50.8,257.9,50.7z M229.9,82.3c0,0.1,0,0.1,0,0.2c0.1,0,0.2,0.1,0.2,0.1c0.1,0,0.2-0.1,0.4-0.2
		C230.2,82.3,230.1,82.3,229.9,82.3z M247.2,48.7c0-0.1,0-0.1,0-0.2c-0.1,0-0.2,0-0.3,0.1c0,0.1,0,0.2,0.1,0.2
		C247,48.7,247.1,48.7,247.2,48.7z M250.6,48c-0.1-0.1-0.1-0.2-0.2-0.2c-0.1,0-0.2,0.1-0.2,0.1c0,0,0.1,0.2,0.1,0.2
		C250.4,48.1,250.5,48,250.6,48z M251.5,57.4c0,0,0.1,0,0.1,0c0-0.1-0.1-0.2-0.1-0.3c-0.1,0-0.2,0.1-0.2,0.1
		C251.4,57.2,251.4,57.3,251.5,57.4z M278.4,30.9c0-0.1-0.1-0.1-0.1-0.2c-0.1,0.1-0.1,0.1-0.2,0.2c0,0,0.1,0.1,0.1,0.1
		C278.2,31,278.3,30.9,278.4,30.9z M274.8,31.1c-0.3,0.1-0.3,0.1-0.3,0.4C274.6,31.4,274.7,31.3,274.8,31.1z M271.3,69.3
		c0,0-0.1-0.1-0.1-0.1c-0.1,0.1-0.2,0.2-0.3,0.4c0,0,0.1,0.1,0.1,0.1C271.1,69.5,271.2,69.4,271.3,69.3z M278.2,33.3
		c-0.2-0.1-0.4-0.1-0.6-0.2C277.8,33.5,277.8,33.5,278.2,33.3z M271.1,39c-0.1-0.1-0.1-0.1-0.1-0.2c-0.1,0.1-0.2,0.1-0.2,0.2
		c0,0,0.1,0.1,0.1,0.1C271,39.1,271,39.1,271.1,39z M240.9,41.9c0.4,0.1,0.4,0.1,0.5-0.2C241.2,41.7,241.1,41.8,240.9,41.9z
		 M269.5,42.4c0,0-0.1,0-0.1,0.1c0.1,0.1,0.1,0.2,0.2,0.3c0,0,0.1,0,0.1-0.1C269.6,42.6,269.5,42.5,269.5,42.4z"/>
	<g>
		<path class="st1" d="M164.3,2.8c-0.2-0.3-0.3-0.6-0.6-1.1c2.4,0.3,4.7-0.6,6.9,0.6c0.4-0.1,0.9-0.4,1.3-0.4
			c1.7-0.2,3.4-0.4,5.1-0.4c2.9,0,5.9,0.1,8.8,0.2c0.4,0,0.8,0.3,1.1,0.5c0.2-0.1,0.5-0.3,0.8-0.3c5.6-0.1,11.2-0.2,16.8-0.2
			c2,0,4.1-0.2,6.1-0.2c2.2,0,4.4,0,6.7,0c1.2,0,2.4-0.1,3.6-0.1c0.3,0,1.2-0.2,1.1,0.8c0.3,0,0.7,0.2,1,0.1c2-0.7,4.2-0.6,6.3-0.5
			c0.8,0,1.6,0.6,2.4,0c0.1-0.1,0.6,0.2,0.6,0.2c0.7-0.2,1.1-0.4,1.5-0.4c3.4,0,6.8,0.1,10.2,0c5.8,0,11.6-0.1,17.5-0.1
			c1.2,0,2.5-0.2,3.6,0.7c0.1,0.1,0.2,0.1,0.3,0c1.5-0.8,3.1-0.4,4.7-0.4c2-0.1,4-0.2,5.9,0c1.1,0.1,2.2-0.2,3.3-0.1
			c1.2,0.1,2.4,0,3.6,0c1.2,0,2.4,0,3.6,0c2.9-0.1,5.8-0.2,8.7-0.2c2.6,0,5.3,0,7.9,0c1.3,0,1.5,0.2,1.5,1.5c0,3.4,0.2,6.9-0.1,10.3
			c-0.2,2.1,0.3,4,0.1,6.1c-0.2,2.2,0,4.5,0,6.8c-0.1,5,0,9.9,0,14.9c0,2,0,3.9,0,5.8c-0.4,0.3-0.7,0.5-1,0.7c0,0.1,0.1,0.1,0.1,0.2
			c0.3-0.1,0.5-0.2,0.8-0.2c0,4.1,0,8,0,12c0,3.8-0.3,7.6,0.2,11.5c0.6-0.4,1.1-0.7,1.6-1.1c3.9-2.9,7.8-5.8,11.7-8.7
			c1.9-1.4,3.7-3,5.7-4.2c1.4-0.8,2.2-2.1,3.6-2.8c0.8-0.4,1.7-0.5,2.6-0.8c-0.2-0.2-0.3-0.5-0.6-0.7c2.6-1.9,5.2-3.8,7.7-5.7
			c1.1-0.8,2.1-1.7,3.2-2.5c1.6-1.1,3-0.8,4.2,0.8c2.6,3.4,5.2,6.8,7.9,10.2c1.4,1.7,1.8,3.5-0.5,5.2c-4.1,3-8,6-12.1,9
			c-1.9,1.4-3.8,2.8-5.8,4.2c-0.4,0.3-1,0.4-1.4,0.7c-0.7,0.7-1.3,1.4-2.1,2c-0.6,0.5-1.3,1-2,1.3c-1.8,0.6-2.8,2.1-4.2,3.1
			c-1.4,0.9-2.6,2-4,3c-1.2,0.9-2.3,1.7-3.4,2.6c-0.7,0.6-1.8,0.4-2.1,1.5c0,0.1-0.8-0.1-1.3-0.2c0.1,0.3,0.2,0.5,0.3,0.8
			c-2,1.6-4,3.2-6.1,4.7c-0.5,0.4-1.2,0.5-1.6,0.9c-0.6,0.6-1.2,1.3-1.4,2.1c-0.3,1.2-0.3,2.6-0.3,3.8c0,1,0,2,0,3
			c0,1.9,0,3.7,0,5.6c0,0.3-0.2,0.7-0.4,1c0.1,0.3,0.3,0.7,0.4,1.1c0.1,1.3,0,2.5,0,3.8c0,1.7,0.1,3.4,0,5.2c-0.1,2.9,0,5.7,0,8.6
			c0,3.1,0,6.1,0,9.2c0,3.3,0,6.6-0.3,9.8c-0.1,1.2,0.1,2.2,0.2,3.4c0.1,0.7-0.2,1.4-0.4,2.1c0,0.1-0.1,0.4,0,0.4
			c0.9,0.8,0.4,1.1-0.6,1.4c0.1,0.1,0.1,0.2,0.2,0.3c0.3,0,0.6,0,0.9,0.1c0,0.5,0,1,0,1.7c-0.2-0.3-0.3-0.5-0.7-1
			c0,0.8,0.1,1.2,0.1,1.7c0.2-0.1,0.3-0.2,0.6-0.4c0,1,0,1.9,0,2.7c0,2.6,0,5.3,0,7.9c0,0.5-0.3,1.1-0.4,1.6c0,0.1-0.1,0.3-0.1,0.4
			c0.9,1.8,0.8,3.7-0.4,5.1c0.2,0,0.4,0,0.5,0c0,1.1,0,2.2,0,3.7c-0.5-0.5-0.7-0.7-0.7-0.8c-0.8,0.2-1.5,0.4-2.2,0.4
			c-0.7,0.1-1.6,0.3-1.8-1.1c-0.3,0.4-0.5,0.6-0.9,1.1c-2.4,0-5.2,0-7.9,0c-0.3,0-0.6,0-0.9-0.1c-0.1,0-0.1-0.2-0.2-0.3
			c-0.9,0.9-2.1,0.3-3.1,0.4c-1,0.1-2.1,0.1-3.1,0c-1.3-0.2-2.5,0.2-3.7,0c-2.3-0.4-4.7,0.1-7,0c-2.4-0.1-4.8,0-7.2-0.1
			c-0.4,0-1.2,0.5-1.1-0.6c-0.2,0-0.6,0-0.6,0c-0.4,0.7-1,0.6-1.6,0.5c-1.2-0.1-2.4-0.3-3.5-0.4c-0.2,0-0.3,0.2-0.5,0.2
			c-0.3,0-0.7,0-0.8-0.2c-0.1-0.2,0-0.5,0.1-0.8c-0.6-0.2-0.6-0.2-0.7,0.5c0,0.2-0.4,0.5-0.7,0.5c-0.6,0.2-1.3,0.2-1.9,0.1
			c-0.3-0.3-0.6-0.5-0.8-0.8c-0.1,0.1-0.1,0.1-0.2,0.2c0.1,0.2,0.1,0.5,0.2,0.8c-0.4,0-0.8,0-1.2,0c0-0.2,0-0.3,0-0.5
			c-0.1,0-0.2,0-0.2,0.1c-1.4,0.8-3,0.5-4.5,0.5c-2.4,0-4.7,0-7.1,0c-1.9,0-3.8,0-5.8,0c-1.2,0-2.6,0.4-3.5-1.1
			c-0.1,0.1-0.1,0.2-0.2,0.3c0.1,0.2,0.3,0.4,0.4,0.7c-1.2,0.2-2.5,0.3-3.6-0.8c0.1,0.2,0.1,0.4,0.2,0.9c-1-0.1-1.9-0.3-2.8-0.3
			c-0.7,0-1.4,0.3-2.2,0.3c-2.1,0-4.3-0.1-6.4,0.1c-1,0.1-2-0.7-3-0.1c-0.1,0-0.4-0.3-0.5-0.6c-0.3-0.7-0.6-0.7-1.2-0.3
			c-0.8,0.6-1.7,0.9-2.7,0.9c-2.2,0-4.4,0-6.7,0c-0.7,0-1.5,0.3-2-0.5c-0.1-0.2-0.7-0.1-1,0c-2.6,1.1-5.2,0.6-7.9,0.5c-1,0-2,0-3,0
			c-1.7,0-3.5,0.1-5.2,0c-1.3-0.1-2.6,0.1-3.9,0c-1.4-0.1-2.8,0-4.1,0c-0.9,0-1.7,0-1.8-1.2c0-0.2-0.3-0.3-0.5-0.4
			c0,0.5,0.1,1.1-0.1,1.3c-0.2,0.3-0.8,0.2-1.3,0.2c-1.6,0-3.1,0.1-4.7,0c-0.6,0-1.2-0.5-1.9-0.6c-0.4-0.1-0.8,0.2-1.2,0.3
			c-0.4,0.1-0.7,0.2-1.1,0.2c-2.7,0-5.5,0-8.2,0c-0.5,0-0.9-0.2-1.4-0.3c-0.2,0-0.3,0.1-0.5,0.1c-0.2,0.1-0.5,0.2-0.7,0.1
			c-0.6-0.3-1.1-0.1-1.6,0c-0.6,0.1-1.1,0-1.7,0c-0.7,0-1.5-0.1-2.2,0c-3.1,0.1-6.1,0-9.2,0c-0.3,0-0.6-0.2-0.8-0.3
			c-0.4-0.3-0.3-0.2-0.8,0.2c-0.2,0.2-0.6,0.2-1,0.2c-5.1,0-10.2,0-15.3,0c-0.9,0-1.9,0.2-3,0.3c0.2-0.4,0.3-0.7,0.5-1.3
			c-0.4,0.4-0.6,0.5-0.8,0.7c-0.2-0.1-0.4-0.3-0.8-0.7c-0.1,0.5-0.1,0.9-0.1,1.2c-5.6,0.2-6.6,0.2-7.1-0.7c-0.5,1.2-1.4,0.5-2.2,0.5
			c-3.4,0-6.7,0-10.1,0c-3.1,0-6.2,0-9.3,0c0.1-0.2,0.2-0.4,0.2-0.6c-2.9,1-5.7,0.6-8.6,0.5c-0.5,0-1,0.1-1.6,0.1
			c-3.9-0.1-7.8-0.2-11.8-0.2c-1.8,0-3.5,0.3-5.3,0.4c-0.9,0-1.8-0.2-2.7-0.2c-1.8,0-3.6,0-5.4,0c-4,0-8.1,0.1-12.1,0
			c-0.8,0-1.6,0.1-2.3,0c-0.5-0.1-0.9-0.3-1.3-0.4c-0.3-0.1-0.7-0.1-0.8-0.1c-0.2,0.9-0.9,0.5-1.4,0.5c-1.8,0-3.7,0.1-5.5,0
			c-2-0.1-4,0.1-6.1,0c-1,0-2.1,0-3.1,0c-0.3,0-0.5-0.3-0.6-0.3c-0.6,0.2-1.1,0.5-1.5,0.5c-4,0-8.1-0.1-12.1-0.2
			c-0.5,0-1.1,0-1.5-0.3c-0.3-0.2-0.7-0.7-0.7-1c0.2-0.8-0.1-1.6-0.1-2.4c0-0.9,0-1.8,0-2.8c0-1.2-0.1-2.5-0.1-3.7
			c0-2.8,0.1-5.5,0.1-8.3c0-3.6,0-7.3,0-10.9c0-0.4,0-0.7,0.3-1.2c0.2,0.4,0.5,0.8,0.8,1.3c0.2-0.3,0.4-0.6,0.4-0.7
			c-0.5-0.4-0.9-0.8-1.5-1.3c0-0.5,0-1.1,0-2c0.3,0.4,0.6,0.7,0.8,1c0.6-0.6,0.6-0.8-0.1-1.1c-0.5-0.2-0.8-0.4-0.8-1
			c0-7.5,0-14.9,0-22.5c1.1,0.3,1.3-0.4,1.3-1.5c-0.3,0.3-0.5,0.4-0.6,0.6c-0.2,0.2-0.4,0.3-0.7,0.6c0-1.3,0-2.5,0-3.7
			c0-0.3,0.2-0.6,0.3-0.8c0.1-0.2,0.1-0.4,0.1-0.6c-0.1-0.5-0.4-1.1-0.4-1.6c0-1.9,0.2-3.7,0.2-5.6c0-1.6-0.3-3.3-0.4-4.9
			c0-0.7,0.1-1.4,0.2-2.1c0.1,0-0.1,0-0.4,0c0.1-2.3,0.3-4.6,0.4-7c0-0.2,0-0.4-0.1-0.5c-0.7-1.2-0.2-2.4,0-3.5
			c0.1-0.3,0.4-0.5,0.5-0.6c-0.2-0.5-0.5-1.1-0.5-1.6c0-9.5,0-19,0-28.4c0,0,0-0.1,0-0.1c0.5-1.5-0.1-2.9,0-4.4c0-0.6-0.1-1.3,0-1.9
			c0.1-0.6,0.3-1.1,0.6-1.8c0,0-0.2,0-0.5-0.1c0-1.5,0-3,0.1-4.4c0-0.2,0.8-0.3,1.2-0.5c-0.9-0.6-1.4-1.4-1.4-2.5
			c0-6.1,0-12.2,0-18.2c0-1.9,0-3.8,0-5.6c0-0.4,0.3-0.8,0.5-1.5c-1.1-1.1-0.3-2.7-0.3-4.4c0.2,0.2,0.3,0.4,0.6,0.5
			c0.2,0.1,0.4,0.1,0.7,0c-0.6-0.4-0.2-1.6-1.5-1.6c0-3.6,0-7.4,0-11.2c0-0.2,0.4-0.7,0.7-0.7c2.8,0,5.6,0,8.4,0
			c0,0.4,0.1,0.7,0.1,1c0.1,0,0.1,0,0.2,0c0.1-0.3,0.2-0.7,0.4-1.2c0.6,0.2,1.2,0.4,1.9,0.5c0.3,0,0.7-0.4,1-0.4
			c0.9,0,1.8,0.2,2.7,0.2c0.5,0,1.1-0.3,1.5-0.2c1.8,0.7,3.5-1,5.3-0.1c6.1,0,12.3,0,18.4,0c5.3,0,10.6,0,15.9,0
			c0,0.1,0.1,0.3,0.1,0.6c0.2-0.2,0.5-0.4,0.8-0.7c0.4,0,1.2,0,1.9,0.2c1.8,0.6,3.6-0.1,5.4-0.1c7.5,0.1,14.9,0.1,22.4,0
			c2.5,0,5-0.2,7.5-0.2c1.4,0,2.9-0.1,4.3,0.5c0.6,0.3,1.5-0.1,2.2-0.2c0.5-0.1,1-0.1,1.7-0.1c-0.3,0.2-0.4,0.3-0.8,0.6
			c0.6,0,1.2,0.1,1.2,0c0.2-0.9,0.9-0.5,1.4-0.6c1.8-0.1,3.6-0.2,5.3-0.2c3.5,0,7,0.2,10.5,0.2c3.2,0,6.4-0.2,9.6-0.2
			c3,0,5.9,0.3,8.9,0.3c2.3,0,4.6-0.3,6.9-0.3c2-0.1,3.9-0.1,5.9,0c1.5,0.1,3-0.2,4.5,0c1.3,0.2,2.6-0.1,3.9,0
			c0.7,0,1.5-0.1,1.2,1.1c0,0.1,0.4,0.4,0.6,0.5C164.2,3,164.2,2.9,164.3,2.8z M264.8,173.6c0.1-0.2,0.3-0.3,0.6-0.7
			c-0.7,0.1-1.2,0.2-1.9,0.3c0.1-0.4,0.3-0.7,0.4-1.1c-0.3-0.1-0.7-0.2-1-0.3c0.2,0.6,0.4,1.2,0.6,1.7
			C263.9,173.5,264.4,173.5,264.8,173.6c-0.1,0.4-0.2,0.8-0.3,1.2c1.2,0,1.2,0,1,1.3c0.2-0.1,0.5-0.2,0.5-0.3
			C266,174.8,265.8,174,264.8,173.6z M269.3,169.8c0.7-1.2,1.1-1.4,2.4-1.4c1.8,0.1,3.5,0.2,5.5,0.3c-0.1,0.8-0.2,1.5-0.3,2.2
			c0.9-0.2,1.1-0.7,0.7-2c1.4,0,2.8,0,4.3,0c0.3,0,0.7,0.2,1,0.2c0.7-0.1,1.4-0.3,2.1-0.3c2.4,0,4.8,0,7.3,0c2,0,2.2-0.2,2.4-2.2
			c0-0.3,0.3-0.7,0.4-1c-0.6-0.3-0.5-0.2-0.1-0.7c0.2-0.2,0.3-0.9,0.3-1c-0.9-0.5-0.6-1.3-0.6-2c0-1.8,0-3.7,0-5.5
			c0-8.9,0-17.8,0-26.8c0-0.5,0.3-1,0.4-1.5c-1-0.6-0.3-1.8-0.5-2.7c0.3,0,0.6-0.1,0.8-0.1c0-0.1,0-0.1,0-0.2
			c-0.3-0.1-0.6-0.2-0.9-0.3c0-3,0-6.1,0-9.1c0-3.2,0-6.5,0-9.7c0-0.8,0.1-1.7-0.8-2.1c0.4,0.5,0.8,0.9,1.2,1.4
			c-0.7-0.1-1.5-0.6-2-0.4c-0.9,0.4-1.7,1.3-2.5,1.9c-0.4,0.3-1.4,0.2-1.5,0.5c-0.7,1.6-2.4,1.8-3.4,2.9c-0.9,0.9-1.9,1.6-3.2,1.2
			c0,0-0.1,0.1-0.3,0.3c0.3,0.2,0.6,0.3,1.1,0.6c-1.1,0.7-2.1,1.1-3,1.8c-1.3,0.9-2.4,2.1-3.6,3c-2.1,1.6-4.3,3.2-6.4,4.7
			c-2.1,1.5-4.3,3-6.3,4.7c-1.2,1-2.6,1.3-3.8,2c-0.5,0.3-1,0.6-1.2,0.8c0.1,1.2,0.1,2.4,0.2,3.5c-0.4,0-0.7,0-0.9,0.1
			c0.1,0.2,0.3,0.4,0.4,0.7c0.2,0.3,0.4,0.6,0.6,1c-0.8,0-1.2-0.1-1.7-0.1c0,0.1,0,0.2,0,0.3c0.5,0.2,1,0.3,1.5,0.5
			c0,2.7,0,5.5,0,8.2c0,1.1-0.7,2-1.6,2.1c-1,0.1-2-0.4-3.1,0c-0.1,0-0.3-0.3-0.5-0.3c-0.7-0.2-1.5-0.4-2.2-0.5
			c-0.1,0-0.3,0.2-0.3,0.3c-0.3,1.2-1.4,0-1.9,0.5c-0.2-0.3-0.5-0.6-0.7-0.9c0,0-0.1,0-0.2-0.1c0,0.3,0,0.6,0,1
			c-1-0.1-1.9-0.3-2.8-0.3c-1.5,0-3,0.2-4.4,0.2c-4,0-8,0-12,0c-0.5,0-0.9-0.2-1.3-0.4c-0.6,0.1-1.2,0.3-1.8,0.4c-2.7,0-5.4,0-8,0
			c-0.8,0-1.6-0.2-2.4-0.2c-2.2,0-4.3,0.2-6.5,0.2c-0.2,0-0.5-0.4-0.8-0.7c-0.1,0.2-0.4,0.5-0.6,0.7c-1.5-0.4-1.9-1.2-1.8-2.6
			c0-0.5-0.2-1-0.2-1.5c0-0.9-0.5-2,0.4-2.4c-0.8-0.8-0.3-1.7-0.5-2.6c0.5,0.2,0.8,0.4,1.2,0.5c0.1-0.1,0.1-0.2,0.2-0.3
			c-0.4-0.2-0.9-0.5-1.4-0.8c0.1-1,0.2-2.1,0.3-3.3c-0.2,0-0.6,0-1,0.1c-0.3,0.1-0.6,0.6-0.9,0.7c-1.2,0.4-2.5,0.8-3.8,1.1
			c-0.3,0.1-0.7,0-1.1-0.1c-0.1,0.1-0.2,0.4-0.3,0.4c-0.4,0.2-0.9,0.3-1.3,0.5c-2.2,0.7-4.3,1.4-6.5,2c-1.4,0.4-2.9,0.6-4.4,0.9
			c-0.1,0-0.2,0-0.3,0c0.1,0.8-0.6,0.6-1,0.8c-2.3,0.8-4.7,1.6-7,2.3c-1.1,0.3-1.7,1-1.7,2.1c-0.3,0-0.5,0-0.7-0.1
			c0,0.2,0,0.4,0.1,0.6c0.9,1.1,0.5,2.3,0.3,3.4c-0.5,2.5-2.1,4.3-3.8,6.1c-2.1,2.2-4.8,2.8-7.5,3.5c-0.8,0.2-1.7-0.4-2.6-0.7
			c-0.1,0-0.1,0-0.2,0c-3.7-0.3-6.2-2.5-8.5-5.3c0.3-0.3,0.5-0.5,0.7-0.7c-1,0.3-1.2-0.3-1.5-1c-0.1-0.4-0.4-0.9-0.5-1.3
			c-0.7-2.2-0.8-4.5-0.2-6.7c0.3-1.2-0.1-1.8-0.9-2.4c-0.2-0.2-0.5-0.5-0.5-0.7c0.3-0.9-0.4-0.5-0.7-0.6c-0.4-0.1-0.8,0-1.2-0.2
			c-1.8-1-3.5-2.1-5.2-3.1c-3.6-2-7.3-4-10.9-6c-0.3-0.2-0.5-0.7-0.8-1c-0.2,0-0.6,0.1-1.1,0.2c0.4-0.6,0.7-1.1,1-1.5
			c-0.1-0.1-0.2-0.1-0.2-0.2c-0.5,0.3-0.9,0.6-1.4,1c-1.9-1.4-3.9-2.7-6.7-1.8c-1.6,0.5-3-0.6-2.9-2c0.2-1.6-0.7-2.3-1.9-3
			c-0.5-0.3-0.9-0.7-1.3-1.1c-0.4-0.1-0.9-0.1-1.2-0.3c-2.3-1.3-4.5-2.6-6.9-3.9c0.3-0.1,0.4-0.2,0.7-0.3c-0.5-0.3-0.8-0.6-1.4-1
			c0.3,0.6,0.4,0.9,0.5,1c-2.2-0.2-4.4-0.4-6.6-0.5c-1.5,0-2.9,0.3-4.4,0.3c-0.5,0-0.9-0.4-1.4-0.3c-0.9,0-1.8,0.3-2.6,0.3
			c-2.1,0-4.2-0.2-6.3-0.2c-1.4,0-2.8,0.3-4.2,0.2c-1.3-0.1-2.6,0.1-3.9,0c-1,0-2.1,0-3.1,0c-0.4,0-0.8-0.2-1.2-0.4
			c-0.2,0.5-0.5,0.6-4.4,0.4c0-0.2,0.1-0.4,0-0.5c-0.1-0.1-0.4-0.1-0.5,0c-0.6,0.9-1.6,0.6-2.3,0.5c-1.8-0.2-3.6,0.1-5.1,0.9
			c-1.6,0.9-3,2.2-4.4,3.4c-2.6,2.2-5.1,4.4-7.7,6.6c-1.5,1.2-1.5,2.5-1.1,4.2c0.4,1.6,0.3,3.4,0.2,5c-0.1,1.3-0.8,2.5-1.1,3.8
			c-0.3,1.2-1.3,1.9-1.9,2.8c-0.6,0.9-1.7,1.6-2.8,2.2c-3.2,1.7-6.8,1.5-10.3,1.5c-0.2,0-0.5-0.1-0.7-0.2c-2-1-3.8-2.3-5.3-4
			c-1.2-1.5-2-3-2.4-5c-0.4-2-0.4-4,0-5.9c0.2-0.9,0.2-2.1,1.3-2.7c0.3-0.2,0.1-1,0.4-1.4c1.6-2.3,3.6-3.9,6.3-4.7
			c2.2-0.7,4.5-1,6.8-0.5c1.5,0.3,2.9,0.6,4,1.8c0.6,0.7,1.3,0.7,2,0.1c2-1.7,4.1-3.5,6.1-5.2c1.4-1.2,2.7-2.3,4-3.6
			c1.4-1.3,2.9-2.5,3-4.7c0-1,0.1-1.9,0.1-2.9c0-4.2,0-8.5,0-12.7c0-0.8-0.1-1.6,0-2.4c0.2-1.4-0.7-3.1,0.9-4.3c0,0-0.1-0.2-0.2-0.5
			c-0.2,0.4-0.3,0.7-0.5,0.9c-0.2-2.2-0.1-4.2-0.2-6.2c0-1.6,0.5-2.1,2-2.1c2.1,0,4.2,0,6.2,0c0.9,0,1.8,0,2.8,0
			c0.6,0,1.1-0.3,0.7-0.9c-0.7-1-0.6-2.2-1.2-3.2c-0.9-1.4-1.5-2.9-2.2-4.4c-0.1-0.3-0.2-0.6-0.3-0.9c0.5-0.3,1-0.6,1.5-0.9
			c-0.7-0.7-1.2-0.5-1.8,0.6c-2.6-5.2-5.2-10.4-7.7-15.5c0.1-0.5,0.3-0.9,0.4-1.4c-0.1,0-0.2-0.1-0.3-0.1c-0.2,0.2-0.4,0.4-0.6,0.7
			c-0.2-0.3-0.3-0.5-0.4-0.7c-0.9-1.8-1.7-3.6-2.6-5.3c-0.6-1.2-2.1-2.5-3.2-2.4c-1.2,0.1-2.4,0.2-3.7,0.3c0.2-0.5,0.4-0.8,0.4-0.9
			c-0.7-0.2-1.3-0.5-1.8-0.6c-1.1-0.2-2.2-1.1-3.3,0c-0.3,0.3-0.8,0.3-1.2,0.5c-0.1,0.2-0.2,0.6-0.4,0.8c-0.8,0.8-1.6,1.5-2.4,2.2
			c-1.2,1-2.3,2-3.5,3.1c-1.6,1.4-3.1,2.9-3.2,5.2c0,1.2,0.1,2.6-1.7,3c0.3,0.1,0.5,0.2,0.7,0.3c-3,3.3-8.5,2.9-10-0.7
			c0.4-0.1,0.7-0.3,1-0.4c-0.5-0.2-1.1-0.4-1.2-0.7c-0.4-1-0.8-2.1-0.7-3c0.3-2.3,1.5-4.1,3.9-4.8c0.9-0.3,1.9-0.3,2.9-0.2
			c1,0.1,1.9-0.2,2.7-0.8c0.4-0.3,0.8-1,1.5-0.4c0.2-0.2,0.4-0.5,0.5-0.8c0.1-0.2-0.1-0.5,0-0.6c0.8-0.9,1.5-1.8,2.4-2.5
			c1.8-1.5,3.8-2.7,5.1-4.7c0.3-0.5,0.6-1.3,0.5-1.7c-1.1-2.6-0.9-5.3-0.4-8c0.7-3.6,2.8-6.3,6-8.1c0.3-0.2,0.7-0.1,0.9-0.1
			c0.5-0.2,0.8-0.5,1.3-0.6c2.3-0.8,4.7-0.7,7.1-0.2c2.4,0.5,4.3,1.8,6,3.6c1,1.1,1.6,2.4,2.3,3.8c1,1.9,1.2,3.9,0.9,5.8
			c-0.4,2.2-1.4,4.3-2.3,6.3c-0.3,0.7-1.1,1.3-1.8,1.8c-0.9,0.7-1.3,2-0.8,3c1.1,2.1,2.2,4.1,3.2,6.2c0.2,0.4,0.2,0.9,0.3,1.4
			c1.7,2.4,2.7,5.2,4.2,7.8c-0.3,0.1-0.5,0.1-0.7,0.2c0.5,0.5,1.1,0.9,1.4,1.5c0.9,1.5,1.6,3.2,2.4,4.8c1.7,3.4,3.3,6.9,5.1,10.2
			c0.5,1,1.8,2.2,2.7,2.3c2.2,0,4.4,0.1,6.7,0.1c3.8,0,7.6,0.1,11.5,0.2c0.5,0,1,0.1,1.4,0.1c0.6-0.1,1.2-0.3,1.8-0.4
			c2.1-0.2,4.3,0.6,6.2-0.5c0.7-0.4,2.6,0.5,1.8-1.6c0,0,0-0.1,0.1-0.1c1.1-1.6,2.3-3.1,3.3-4.6c0.4,0.1,0.6,0.1,0.9,0.1
			c0-0.2,0-0.5,0-0.7c-0.8,0-0.3-0.5-0.2-0.7c0.4-0.7,1-1.4,1.4-2.2c0.5-1,1.1-1.7,2.3-1.6c0,0,0-0.1,0-0.3c-0.4,0-0.7,0-1.1-0.1
			c1.4-2.2,2.8-4.4,4.2-6.6c1.5-2.5,3.4-4.8,4.9-7.4c0.5-0.8,0.5-1.5,0.1-2.4c-0.4-0.8-0.8-1.7-1.2-2.6c-0.1-0.2,0.1-0.5,0.1-0.6
			c-0.3-0.6-0.7-1.1-0.7-1.6c-0.2-1.3-0.3-2.6-0.2-3.9c0.1-3,1.3-5.5,3.4-7.5c1.4-1.4,3.1-2.7,5.2-3c1.9-0.3,3.8-0.5,5.6-0.4
			c2.4,0.1,4.4,1.5,6.3,2.7c1.7,1.1,2.7,2.8,3.4,4.6c0.4,0.9,0.2,2,0.5,2.9c0.8,2,0.3,3.9-0.1,5.8c-0.6,3.2-2.6,5.5-5.3,7.2
			c-0.3,0.2-0.7,0.1-1,0.1c-0.1,0.1-0.1,0.4-0.3,0.5c-1.4,0.5-2.7,1.4-4.4,1.1c-1.8-0.4-3.7-0.7-5.5-0.8c-0.6,0-1.5,0.3-1.8,0.8
			c-1.1,1.7-2,3.5-3.1,5.2c-1.8,2.8-3.8,5.6-5.6,8.5c-2,3-3.8,6.1-5.8,9.1c-1,1.5-1.5,3-1.4,4.8c0.1,2.4-0.1,4.9-0.2,7.3
			c0,0.4,0.2,0.8,0.3,1.3c0.5-0.2,0.9-0.3,1.3-0.5c2.7-1,5.4-2,8.2-2.9c0.9-0.3,1.8-0.5,2.9-0.7c0.5-0.2,1.1-0.7,1.8-0.8
			c0.7-0.1,1.5,0.2,2.4,0.3c-0.3-0.3-0.6-0.5-1.1-1c0.5,0,0.8,0,1.3,0.1c0,0,0.1-0.3,0.2-0.4c1.9-0.7,3.6-1.9,5.8-1.7
			c0.3,0,0.6-0.2,0.9-0.4c0.2-0.2,0.4-0.5,0.7-0.6c3.8-1.4,7.5-2.7,11.3-4c1-0.4,1.8-0.8,2-2.1c0.3-1.7,1.7-2.8,3-3.6
			c1.1-0.6,2.6-0.7,3.9-1c-0.3,0.8-0.4,1.2-0.6,1.8c-0.3,0-0.7,0-1.1,0c0.3,0.2,0.6,0.5,0.9,0.4c0.6-0.1,1.1-0.4,1.7-0.6
			c-0.2-0.2-0.3-0.5-0.6-0.9c0.4,0,0.8-0.1,1.1,0c0.8,0.5,2.1,0.5,2,1.9c1,0.2,0.9,1.2,1.2,1.8c1,3-0.2,5.5-2.9,7.3
			c-1.7,1.1-3.4,0.9-5.2,0c-0.8-0.4-1.6-1-2.4-0.9c-1.1,0.1-2.1,0.9-3.2,1.2c-0.7,0.2-1.4,0.3-2.2,0.5c-0.2,0.2-0.5,0.5-0.7,0.6
			c-1.1,0.4-2.3,0.7-3.4,1.1c-2.2,0.9-4.5,1.8-6.8,2.7c0-0.4,0-0.5,0-0.5c-0.7,0.4-1.4,0.8-2.1,1.1c-0.9,0.3-1.8,0.4-2.7,0.7
			c-0.8,0.3-1.6,0.7-2.4,1c-2.5,1-5,1.9-7.6,2.9c-2.1,0.8-4.3,1.5-6.4,2.3c-1,0.3-1.5,1.1-1.5,2.1c0,2.5,0.2,5.1,0.3,7.6
			c0,0.4-0.3,0.7-0.5,1.1c0.1,1.7,0.7,3.4,2.1,4.4c0.4,0.1,0.9,0.1,1.2,0.3c0.9,0.5,1.6,1.1,2.5,1.5c1.5,0.8,3,1.7,4.4,2.6
			c2.1,1.3,4.2,2.8,6.9,1.3c0.3-0.2,1-0.1,1.4,0.2c0.8,0.5,1.5,1.2,2.3,1.8c-0.4,0.6-0.8,1.1-1.4,1.9c4.9,2.8,9.8,5.6,14.6,8.4
			c0,0.6,0,1.1,0,1.8c0.4-0.6,0.6-0.9,1-1.5c1.2,0.9,2.2,1.9,3.4,2.6c1.2,0.7,2.6,1.1,4,1.6c-0.5,0.6-0.8,0.9-1.1,1.3
			c0.1,0.1,0.1,0.2,0.2,0.3c1.2-0.5,1.9-2.1,3.7-1.2c-0.3-0.5-0.4-0.7-0.5-0.9c1.6-1.2,3.3-2.1,5.4-2.1c1.9,0,3.9,0,5.9,0
			c-0.1,0.4-0.2,0.6-0.3,0.8c0.5,0,1.2-0.3,1.5-0.1c1.4,1,3,2,4.1,3.3c0.8,0.9,1.4,1.1,2.4,0.8c2.3-0.7,4.5-1.5,6.9-2.1
			c1.2-0.3,2.3-0.7,3.4-1.1c1.5-0.6,3-1,4.5-1.4c0.4-0.1,0.8,0,1,0c0.1-0.2,0.2-0.4,0.4-0.4c1.8-0.6,3.7-1.2,5.5-1.7
			c0.7-0.2,1.4-0.1,2.1-0.2c0.1-0.1,0.2-0.4,0.5-0.5c1.2-0.5,2.4-0.9,3.6-1.3c1-0.3,1.4-1,1.7-1.9c0.1-0.3,0.3-0.6,0.4-0.9
			c-1.2-1.1,0.5-1.6,0.6-2.5c-0.3,0.2-0.5,0.3-0.7,0.4c0-3.7,0-7.3,0-10.8c0.1,0.1,0.4,0.3,0.9,0.6c-0.3-1-0.5-1.6-0.7-2.3
			c1.9-0.6,3.8-0.7,5.6-0.1c0.4-0.1,0.8-0.4,1.2-0.4c2.6,0,5.3,0,7.9,0c0.5,0,1.3-0.4,1.6,0.5c0,0,0.6-0.1,0.9-0.1
			c-0.3-0.6,0.3-0.4,0.5-0.4c0.2,0,0.4,0.3,0.5,0.3c1.1-0.1,2.2-0.2,3.3-0.4c0.2,0.5,0.3,0.8,0.4,1.3c0.9-1.2,0.9-1.2,2.4-1.2
			c1.4,0,2.9,0.1,4.3,0c0.6-0.1,1.3,0.2,1.9,0.2c1.3,0,2.6-0.2,3.9-0.2c1.1,0,2.1-0.1,3.2,0c0.9,0.1,2-0.5,2.8,0.4
			c0.8-1,2-0.2,2.9-0.4c1.3-0.3,2.7-0.3,3.9-0.7c1.3-0.5,2.5-1.3,3.6-2.3c1.4-1.4,3.2-2.3,4.8-3.5c0.5-0.4,0.9-1.1,1.5-0.2
			c0.1,0.2,0.6,0,0.9,0c0.1-0.1,0.1-0.2,0.2-0.3c-0.4-0.2-0.7-0.4-1.1-0.7c1.8-1.7,4-2.8,5.7-4.3c1.6-1.4,3.3-2.6,5-3.8
			c1.4-1,2.8-1.9,4.1-3c1.2-1.1,2.7-1.6,4-2.7c3.1-2.6,6.4-4.9,9.6-7.3c1.7-1.2,2.9-2.7,2.8-5c-0.1-1.9,0-3.7,0-5.6
			c0-2.7,0.1-5.5,0.2-8.2c0-1.8-0.9-3.7,0.5-5.4c0.1-0.1-0.1-0.3-0.1-0.5c-0.2-0.5-0.5-1.1-0.5-1.6c-0.1-1.6-0.1-3.2,0-4.8
			c0-0.4,0.3-0.7,0.4-1.1C295,48.3,295,48,295,48c-0.8-0.1-0.5-0.8-0.5-1.2c0.1-0.8-0.5-1.7,0.4-2.4c0.2-0.2,0-0.8,0-1.2
			c0-0.1-0.3-0.2-0.4-0.4c-0.1-0.6,0-1.2,0-1.8c0-2.1,0-4.2,0-6.3c0-3.6,0-7.2,0-10.7c0.4-0.2,0.7-0.3,1.3-0.6
			c-0.6-0.2-0.9-0.3-1.2-0.3c0-0.3-0.1-0.6-0.1-0.9c0-2.7,0-5.4,0-8.1c0-0.3,0.4-0.8,0.3-0.8c-0.8-0.6-0.6-1.3,0-2
			c-6.4,0-12.7,0-19,0c-6.3,0-12.6,0-18.8,0c-0.2-0.2-0.3-0.5-0.4-0.6c0,0-0.1,0-0.2,0.1c0,0.2,0,0.4,0,0.7c-1.7,0-3.3,0-5,0
			c-0.5,0-1-0.3-1.7-0.6c-0.7,1-2.1,0.5-3.3,0.6c-2,0-4,0-6,0c-1.9,0.1-3.9-0.1-5.8-0.1c-5.6,0.1-11.1,0.1-16.7,0
			c-0.6,0-1.1-0.3-1.7-0.5c0,0,0,0.2,0,0.4c-3.6,0-7.2,0-10.9,0c0.3-0.5,0.5-0.8,0.6-1c-0.8-0.5-1.6-0.9-2.5-1.4
			c-0.4,1.6,1.7,1,1.6,2.3c-0.1,0.1-0.4,0.3-0.6,0.3c-0.7-0.1-1.3-0.3-2-0.3c-0.5,0-1,0.3-1.5,0.3c-0.3,0-0.6-0.4-0.8-0.3
			c-0.5,0-1.1,0.4-1.6,0.3c-2.1,0-4.3-0.2-6.4-0.2c-6.9,0-13.7,0.1-20.6,0.2c-0.6,0-1.1-0.1-1.7-0.1c-2,0-4.1,0-6,0
			c0.1-0.2,0.2-0.4,0.5-0.8c-0.5,0.1-0.8,0.1-1.2,0.1c0,0.2,0,0.5,0.1,1c-9,0-18,0-27.1,0c0,0.1,0,0.1,0,0c-0.1-0.3-0.3-0.6-0.4-0.9
			c-0.1,0.1-0.2,0.1-0.3,0.2c0.1,0.2,0.2,0.5,0.4,0.8c-0.8,0.1-1.5,0.4-2.1,0.4c-2.2-0.2-4.4,0.6-6.6-0.4c-0.1,0-0.2,0-0.3,0.1
			c-0.4,0.1-0.9,0.4-1.3,0.4c-4.5,0-9-0.3-13.5-0.2c-4.7,0.1-9.3-0.7-14-0.5c-2.1,0.1-4.2-0.2-6.4-0.2c-2,0-4,0.2-5.9,0.2
			c-4.4,0-8.7,0-13.1,0c-1.9,0-3.7,0.1-5.6,0c-1.6-0.2-3.4,0.8-4.9-0.6c-0.1-0.1-0.8,0.3-1.2,0.4c-1.8,0.6-3.7,0.2-5.5,0.1
			c-2.2-0.1-4.4-0.1-6.5-0.1c-1.6,0-3.1,0.1-4.7,0c-1.5-0.1-2.9,0.2-4.4,0c-0.7-0.1-1.3,0-2,0c-0.8,0-1.7,0.2-2.1-0.9
			c0.1,0.3,0.1,0.6,0.3,1.1c-0.9-0.3-1.5-0.6-2.2-0.8c0,0.1,0,0.3-0.1,0.8c-2,0-4,0-6,0c-1.3,0-2.7,0-4,0c-0.8,0-1.8,0.4-2.5-0.6
			c0-0.1-0.4,0.1-0.7,0.1c0.3,0.2,0.5,0.3,0.8,0.5c-0.9,0-1.7,0.1-2.4,0c-2.2-0.3-4.7,0.9-6.7-1.3c-0.2,1.4-0.4,2.5-0.4,3.7
			c-0.1,3.4,0,6.8,0,10.1c0,2.7-0.1,5.4-0.1,8.1c0,4,0.1,7.9,0.1,11.9c0,0.3-0.4,0.5-0.4,0.8c0.1,0.8,0.4,1.6,0.4,2.4
			c0,3.5,0,7,0,10.5c0,0.4-0.3,0.8-0.4,1.2c0.1,0.6,0.4,1.3,0.4,1.9c0,2.2,0,4.4,0,6.6c0,3.1,0,6.3,0,9.4c0,0.5-0.3,1.1-0.3,1.6
			c0.1,1.9,0.2,3.7,0.3,5.6c0,0.3-0.3,0.6-0.3,0.9c0.1,1.8,0.3,3.5,0.4,5.5c-0.7-0.2-1.1-0.2-1.5-0.3c0,0.2,0,0.4,0.1,0.5
			c1.3,0.9,1.4,2.2,1.3,3.6c-0.1,2.1-0.2,4.1-0.2,6.2c0,4.5,0.2,9,0.2,13.5c0,0.6-0.3,1.3-0.4,1.9c0.1,0.2,0.4,0.5,0.4,0.8
			c0.1,1.4,0,2.8,0,4.3c0,2.6,0,5.2,0,7.8c0,0.4-0.3,0.8-0.4,1.1c0.1,0.6,0.4,1.1,0.4,1.6c0.1,1.9,0,3.7,0,5.6c0,1.5,0,3.1,0,4.6
			c0,6.3,0,12.5,0,18.8c0,0.3,0,0.5-0.1,0.8c-0.1,0.5-0.5,1.2-0.3,1.6c0.7,1,0.3,2,0.2,3c-0.2,2-0.2,3.3,2.6,3.2c1,0,2,0.3,3,0.3
			c0.9,0,1.9,0.9,2.6-0.3c0-0.1,0.2,0,0.3,0c1.9-0.1,3.9-0.2,5.8-0.2c1.8,0,3.6,0,5.4,0c0.1,0.3,0.2,0.7,0.3,1
			c0.4-0.1,0.8-0.2,1.3-0.3c-0.4-0.3-0.6-0.5-0.9-0.7c3,0,5.8,0,8.7,0c0.2,0,0.4,0.2,0.6,0.3c0.2,0,0.4,0,0.6,0
			c0.2-0.1,0.4-0.3,0.7-0.3c2.3,0.1,4.6,0.1,6.9,0.2c0.3,0,0.5,0.5,0.8,0.7c0.1,0.1,0.2,0.1,0.3,0.2c0-0.3,0-0.6,0-1
			c1.3,0.1,2.5,0.4,3.7,0.4c1.2,0,2.5-1.1,3.5,0.5c0,0,0.1,0,0.2,0c0-0.3,0-0.5,0-0.8c0.4,0.1,0.8,0.2,1.2,0.2
			c1.9,0,3.7-0.1,5.6-0.2c1.1,0,2.1-0.5,2.7-1.4c0.6-0.9,1-1.9,1.5-2.8c0.2-0.3,0.5-0.4,0.8-0.7c0,0-0.2-0.4-0.1-0.5
			c0.6-0.8,0.6-2,2-2.4c1.4-0.4,2.1-0.6,3,0.3c0.7,0.7,0.8,1.9,0.3,2.9c-0.3,0.7-0.7,1.3-0.9,1.8c-0.4,0-0.7,0-0.8,0
			c0,1,0,1.8,0,2.6c2.4,0.1,5,0.4,7.6,0.3c3-0.2,5.9,0,8.9,0c0.2,0,0.5,0.3,0.5,0.3c0.6-0.1,1.1-0.3,1.7-0.3c1.2,0,2.4,0,3.6,0
			c1.1,0,2.2,0.2,3.3,0c1.3-0.2,2.7,0,4,0c0.6,0,1.1,0,1.4,0.6c0,0,0.1,0,0.3,0c0-0.2,0-0.4,0-0.6c3,0,6,0,9.1,0
			c0.7,0,1.5-0.2,2.2-0.2c0.6,0,1.3,0,1.7,0.3c1.1,0.6,2.1,0.1,3.2,0.1c0.8,0,1.6-0.4,2.4-0.4c1.6,0,3.2,0.4,4.8,0.4
			c2.2,0,4.3-0.2,6.5-0.2c9.3,0,18.5,0,27.7,0c0.2,0.4,0.3,0.7,0.4,0.9c0.1,0,0.2,0,0.2-0.1c0-0.3,0-0.6,0-0.6c2.7,0,5.3,0,8,0
			c0.5,0,1.1,0.3,1.7,0.6c0-0.1,0.2-0.4,0.4-0.8c2.4,0,4.8,0,7.3,0c0,0.2-0.1,0.4-0.2,0.8c0.5-0.3,0.8-0.7,1.1-0.8
			c1.5-0.1,2.9,0,4.4,0c0.1,0,0.3,0.1,0.4,0.1c0.6,0.5,0.5,0.3,1.1,0.1c0.9-0.3,1.8-0.3,2.8-0.4c-0.1,0.5-0.1,0.7-0.2,1
			c0.3,0,0.6,0,0.9,0c-0.1-0.3-0.2-0.6-0.3-0.7c3.5,0,7,0,10.1,0c0.4,0.3,0.6,0.6,0.9,0.8c0.2-0.3,0.3-0.6,0.6-1c1.7,0,3.7,0,5.6,0
			c4,0,8,0,11.9,0c0.4,0,0.8,0.3,1.1,0.4c0.4-0.1,0.8-0.4,1.2-0.4c1.1-0.1,2.2,0,3.4,0c4.8,0,9.7,0,14.5,0c2.6,0,5.1,0.2,7.7,0.2
			c4,0,8,0,12,0c0.8,0,1.7-0.2,2.5-0.2c1.2,0,2.5,0.5,3.6,0.2C267.1,168.5,268.2,169.1,269.3,169.8z M91.9,83.1c-0.6,0-1.2,0-1.8,0
			c-0.8-0.1-1.6-0.2-2.5-0.2c-0.8,0-1.6,0.2-2.5,0.2c-1.9,0-3.7-0.2-5.6-0.2c-0.6,0-1.1,0.2-1.7,0.2c-1.4-0.2-2.8,0-4.2-0.2
			c-2.2-0.4-4.6,0.1-6.9,0c-1.5,0-2.2,0.7-2.2,2.2c0.1,2,0.1,4.1,0,6.1c-0.1,3-0.6,6-0.3,9c0.2,2.1-0.3,4.2,0.3,6.2
			c0.2,0.7-0.1,1.8,0.4,2.2c0.4,0.4,1.4,0.2,2.2,0.2c0.2,0,0.4,0.1,0.6,0.1c2.9,0,5.8-0.1,8.7-0.1c0.3,0,0.6,0.3,1.1,0.5
			c1-0.9,2.5-0.6,3.9-0.5c2.1,0.1,4.2,0,6.3,0c1,0,2.1,0,3.1,0c0.1,0,0.3,0,0.3,0.1c0.2,0.9,0.6,0.4,1,0.1c0.2-0.1,0.4-0.2,0.6-0.2
			c3.3,0,6.6-0.1,9.9,0c1.9,0.1,3.9,0.7,5.1-1.1c-0.2-0.6-0.4-0.9-0.4-1.3c0-5,0-10,0-15c0-2.3,0-4.6,0-6.9c0-0.5-0.4-1.2-0.7-1.3
			c-0.7-0.2-1.4-0.1-2.2-0.1c-1.1,0-2.1-0.1-3.3-0.1c-0.4,0.6-0.9,0.1-1.4-0.7c0,0.4,0,0.6-0.1,0.9c-2,0-4,0-6,0
			c-0.3,0-0.7-0.2-1-0.4c-0.2-0.1-0.3-0.2-0.5-0.3C92.2,82.6,92.1,82.8,91.9,83.1z M247,114.5c-6.1,0-12.1-0.1-18.2,0
			c-6,0-12,0-18.1,0c0,3.3,0,6.3,0,9.4c0,2.1,0,4.2-0.1,6.3c0,2.4-0.1,4.9-0.1,7.3c0,0.6,0,1.3,0.2,1.9c0.3,0.8,1,0.9,1.9,0.9
			c3.7-0.1,7.5-0.2,11.2,0c1.4,0.1,2.9-0.7,4.1,0.4c0.1,0.1,0.2,0,0.3,0c0.4-0.1,0.8-0.4,1.3-0.4c0.9,0,1.8,0.3,2.6,0.3
			c0.9,0,1.8-0.3,2.7-0.3c2.2,0,4.5,0,6.7,0c3.4,0,6.9,0,10.3,0c1,0,1.5-0.5,1.5-1.5c0-1,0-2,0-3c0-1.8,0-3.6,0-5.5
			c-1.4,0.3-2.5,0.6-3.7,0.9c-3.2,0.8-6.4,1.6-9.7,2.4c-0.5,0.1-1.1,0-1.8,0c0.4-0.4,0.6-0.5,0.7-0.7c-0.2-0.1-0.4-0.3-0.5-0.2
			c-0.8,0.1-0.9-0.3-0.8-0.9c0.1-0.9-0.3-1.2-1.2-1.2c-0.5,0-1-0.4-1.5-0.6c0-0.1,0.1-0.1,0.1-0.2c-0.3,0.1-0.7,0.2-1.1,0.2
			c0.1,0.2,0.2,0.4,0.2,0.6c-2.4,0-4.8,0-7.3,0c-1.4,0-2.8-0.2-4.2-0.2c-2.1,0-4.2,0.2-6.4,0.2c-1.3,0-1.8-0.6-2-2.1
			c0.2,0.2,0.4,0.3,0.5,0.4c0.1-0.1,0.1-0.3,0.2-0.4c-0.3-0.1-0.5-0.3-0.8-0.4c-0.3-3.3,0.5-3.9,2.8-4.1c3.8-0.2,7.6-0.1,11.4,0
			c0.4,0,0.7,0.4,1,0.3c1.3-0.1,2.5-0.3,3.8-0.3c2.9-0.1,5.9,0,8.8,0c-0.1-0.1-0.1-0.3-0.2-0.4c0.7-0.8,1.3-1.7,2.1-2.6
			c-0.4-0.7,0.4-2.1,1.7-2.8C245.5,116.7,246.8,115.9,247,114.5z M128.6,38.8c-1.5,4.2-0.7,7.9,2.4,9.8c1.7,1.1,3.6,1.8,5.6,1
			c1.2-0.4,2.6-0.9,3.4-1.7c3.6-3.8,2.9-7.6-0.2-11.3c0.2-0.1,0.5-0.2,0.8-0.4c-0.1-0.2-0.2-0.3-0.2-0.5c-1.2,0.8-2.1,0-3.1-0.3
			c-1.3-0.3-2.8-0.6-4.1-0.4c-1.4,0.3-2.8,1.2-3.7,2.6c-0.1,0.2-0.5,0.2-0.7,0.3c-0.2,0-0.4,0-0.7,0
			C128.2,38.3,128.4,38.5,128.6,38.8z M55.5,38.5c2.9-1.1,4.7-3.3,5-6.4c0.4-3.4-1.9-5.4-4.3-7.3c0.1-0.2,0.2-0.4,0.3-0.4
			c-0.6,0-1.3,0-1.9,0c-1,0-2.1-0.4-2.9-0.1c-2.5,0.9-4.9,2-5.6,5.1c-0.8,3.2,0.1,5.7,2.4,7.8c0.4,0.4,0.7,0.8,1.2,1.3
			c0.5,0,1.1,0,1.7,0c0.1,0.7,0.1,1.3,0.2,1.8c0.3-0.3,0.4-0.6,0.6-0.9c0.1-0.2,0.3-0.6,0.5-0.6c0.6,0.1,1.2,0.2,1.8,0.4
			c0.3,0.1,0.7,0.3,0.8,0.2C55.4,39.3,55.4,38.9,55.5,38.5z M44.5,136.1c0.1-0.4,0.2-0.8,0.3-1.2c0.1-0.6,0.5-1.2,0.4-1.8
			c-0.2-2.5-0.9-4.7-2.7-6.5c-0.6-0.6-1.2-1.3-2-1.5c-2-0.5-4.1-0.4-6,0.2c-3.1,1.1-5,5.9-3.8,9c1,2.6,2.8,4.4,5.6,5
			c0.4,0.1,0.7,0.4,0.9,0.5c1.3-0.5,2.6-0.8,3.7-1.4C42.2,137.9,43.3,136.9,44.5,136.1z M159.5,150c0.6,0.1,1.1,0.2,1.6,0.3
			c0.8,0.3,1.5,0.7,2.4,0.8c0.7,0.1,1.4-0.2,2.1-0.4c2.6-0.7,4.7-2.1,5.5-4.8c0.8-2.7,0.3-5.2-1.5-7.3c-0.3-0.4-1.1-0.5-0.7-1.2
			c0,0-0.3-0.2-0.5-0.4c-0.4,0.6-0.8,0.1-1.2,0c-1-0.5-1.9-0.7-3-0.7c-2.6-0.1-4.5,1.2-6,3.2c-1.6,2.1-1.4,4.3-0.8,6.7
			c0.1,0.3,0.4,0.5,0.4,0.8c0.2,1.1,1.3,1.5,1.8,2.3C159.7,149.5,159.5,149.9,159.5,150z M336.8,60.1c-0.3-0.2-0.8-0.3-1.1-0.7
			c-0.6-0.7-1.2-1.4-1.7-2.2c-0.4-0.7-1-0.6-1.5-0.3c-0.8,0.5-1.6,1.1-2.3,1.6c-1.4,1.2-2.8,2.4-4.2,3.5c0,0,0,0.1,0,0.2
			c1.3-0.5,2.5-0.1,2.8,0.8c0.1,0.2,0,0.6,0.2,0.8c0.7,0.8,1.5,1.5,2.2,2.3c0.6,0.6,1,1.3,1.5,1.9c0.1,0.1,0.2,0.4,0.3,0.4
			c0.3,0,0.5-0.2,0.7-0.3c-0.1-0.2-0.2-0.4-0.3-0.6c1.8-1.4,3.6-2.7,5.3-4.1C338.3,62.3,336.7,61.7,336.8,60.1z M252.8,125.4
			c1.2-1.8,3.4-1,5-1.7c-1.7-2.4-3.4-4.8-5-7c-0.8,0.4-1.3,0.6-1.8,0.8c0.1,0.1,0.3,0.3,0.5,0.4c-0.8,1.5-1.7,3-2.4,4.5
			c-0.2,0.3-0.1,1.1,0.1,1.3c1.1,0.8,2.1,1.8,3.8,1C252.9,125,252.8,125.2,252.8,125.4z M155.6,134.7c0,0.6,0,1.1,0,1.6
			c0.1-0.3,0.2-0.5,0.3-0.9c0.1,0.5,0.1,0.8,0.1,1.1c0.3-0.1,0.6-0.2,0.8-0.2c0.1,0.4,0.2,0.7,0.3,1c0.1,0,0.2,0,0.3,0
			c0.1-0.5,0.3-0.9,0.4-1.4C157.1,135.5,156.5,135.1,155.6,134.7z M81.7,81.1c0.1-0.1,0.1-0.3,0.2-0.4c-0.2-0.1-0.4-0.2-0.5-0.3
			c-0.5-0.4-1.6-0.3-1.3-1.4c0,0-0.5-0.3-0.7-0.2c-0.2,0.1-0.4,0.5-0.3,0.7c0,0.3,0.3,0.6,0.3,0.7C80.2,80.4,80.9,80.8,81.7,81.1z
			 M3.7,97.7c-1.1,0.1-1.2,0.2-1,1.3c-0.1,0-0.3,0-0.4,0c0.1,0.3,0.1,0.6,0.2,0.9c0.4-0.2,0.9-0.3,1-0.6C3.7,98.9,3.7,98.3,3.7,97.7
			z M3.3,33.8c-0.3,0-0.6,0-1,0c0.5,0.8,1,1,1.5,0.6c0.8-0.6,0.8-1.2-0.1-2.3C3.7,32.6,3.5,33.2,3.3,33.8z M327.6,67.5
			c-0.1-0.7-0.3-1.3-0.4-2c-1.5-0.2-0.4,1.6-1.3,2C326.5,67.5,327,67.5,327.6,67.5z M6.1,124.8c-0.6,0.2-1.4-2.1-2.2,0
			c0.1,0.2,0.2,0.5,0.5,0.7c0.1,0.1,0.5,0.2,0.6,0.1C5.4,125.3,5.8,125,6.1,124.8z M3.2,73.8C4,73.6,4.5,73.5,5,73.4
			c-0.2-0.6-0.4-1-0.6-1.6C4,71.9,3.6,72,3.2,72.1c-0.2,0.1-0.4,0.2-0.6,0.3C4.6,72.5,3.8,73.1,3.2,73.8z M300.7,21.6
			c-0.6,0.1-1.2,0.2-1.9,0.3c0,0.1,0,0.3,0.1,0.4c0.4,0,0.8,0,1-0.1c0.4,0.5,0.7,0.9,0.9,1.3c0.1-0.1,0.2-0.1,0.3-0.2
			C301,22.9,300.9,22.4,300.7,21.6z M315.4,67.4c1.2-1.1,1.2-1.2,0.6-2.2c-0.3,0.3-0.7,0.5-1,0.7C315.1,66.5,315.2,67,315.4,67.4z
			 M30.9,136.2c0-0.9-0.2-1.6-1.1-1.7c-0.2,0-0.4,0.7-0.6,1.1C29.9,135.9,30.4,136.1,30.9,136.2z M266.5,171.6c-0.3,0.5-0.6,1-1,1.5
			c1.9,0.4,1.9,0.4,2.1-0.2C266.7,173.1,266.5,172.8,266.5,171.6z M258.2,114.5c0.1-0.1,0.3-0.1,0.4-0.2c-0.2-0.7-0.5-1.5-0.7-2.3
			c-0.5,0.2-0.8,0.3-0.9,0.4C257.4,113.1,257.8,113.8,258.2,114.5z M111.5,3.4c0-0.1-0.1-0.2-0.1-0.3c-0.7,0.1-1.3,0.2-2,0.3
			c0.4,0.6,0.8,1.2,1.2,1.7c0.1-0.1,0.2-0.2,0.3-0.3c-0.1-0.3-0.3-0.6-0.4-0.8C110.9,3.8,111.2,3.6,111.5,3.4z M6.9,88.1
			c0.5,1.1,1.2,0.4,1.8,0.1c0.2-0.1,0.2-0.4,0.3-0.6c-0.2,0-0.5,0-0.7,0C7.8,87.7,7.4,87.9,6.9,88.1z M213.8,144.1
			c-0.8-0.4-1.5-0.7-2.1-1C211.6,144.7,212.4,144.8,213.8,144.1z M282.1,8.5c0.5,0.5,0.5,1,0,1.5c1.4,0.2,1.4,0.2,1.2-1.7
			C283,8.4,282.6,8.4,282.1,8.5z M32.8,172.1c0.7-0.3,1-0.5,1.3-0.6c0.1,0.3,0.2,0.5,0.4,0.9c0.2-0.1,0.4-0.3,0.7-0.5
			c-0.4-0.4-0.7-0.8-1.1-0.9c-0.2-0.1-0.7,0-0.9,0.1C33,171.3,33,171.6,32.8,172.1z M230.9,6.5c0,0.1-0.1,0.2-0.1,0.2
			c0.4,0.4,0.7,0.9,1.1,1.2c0.1,0.1,0.5,0.1,0.6,0c0.1-0.1,0.1-0.6,0-0.6C232,7,231.4,6.7,230.9,6.5z M289,91.5
			c0,0.1-0.1,0.2-0.1,0.3c0.4,0.4,0.7,0.8,1.1,1.1c0.1,0.1,0.4,0.1,0.6,0.2c0.1-0.2,0.2-0.6,0.1-0.6C290.1,92.1,289.6,91.8,289,91.5
			z M121.9,177.4c0.3-0.3,0.7-0.7,1.2-1.3c-0.6,0.2-1.1,0.3-1.5,0.4c-0.4,0.1-0.9,0.1-1.6,0.2C120.8,177,121.3,177.1,121.9,177.4z
			 M320.9,73.8c-0.1,0-0.2,0-0.2,0c-0.2,0.6-0.4,1.1-0.8,1.9c0.5,0,0.8-0.1,1.2-0.1C321,75,321,74.4,320.9,73.8z M239.1,143.5
			c0.4,0,0.8,0.1,1.1,0.1c0.6,0,0.6-1.3,0.1-1.7C239.9,142.4,239.6,142.9,239.1,143.5z M62.1,101.2c0-0.2,0.1-0.3,0.1-0.5
			c-0.5,0-1.2-0.3-1.5-0.1c-0.4,0.3-0.5,1-0.8,1.5c0.2,0,0.4,0.1,0.5,0.1c0.1-0.4,0.2-0.9,0.3-1.4C61.2,101.1,61.6,101.1,62.1,101.2
			z M302.4,162.1c0.4-0.3,0.7-0.4,1-0.7c0.1-0.1,0.1-0.1,0.2-0.2c-0.1-0.1-0.2-0.2-0.2-0.2c-0.8,0.1-1.6,0.3-2.3,0.5
			c0,0.1,0,0.1,0.1,0.2C301.6,161.9,302.1,162,302.4,162.1z M297.3,50.1c0.3,0,0.8,0.1,1.6,0.2c-0.9-0.7-1.5-1.2-2.2-1.7
			c0,0.1-0.1,0.1-0.1,0.2C296.8,49.1,297,49.5,297.3,50.1z M140,11c0.5,1,0.9,0.1,1.2-0.1c0.2-0.2,0.1-0.6,0.1-1
			c0,0-0.4-0.1-0.6-0.1c-0.1,0-0.3,0.3-0.3,0.4C140.4,10.8,140.5,10.8,140,11z M69,112.4c0-0.1,0-0.2,0-0.3
			c-0.6-0.1-1.1-0.3-1.7-0.4c0,0.1-0.1,0.2-0.1,0.3c0.2,0.3,0.3,0.6,0.5,0.9C68.2,112.7,68.6,112.6,69,112.4z M175.9,2.8
			c-0.6,0.8-1,1.4-1.5,2C175,4.3,176.6,4.6,175.9,2.8z M310.2,85c-0.1,1.6,0.3,2.2,1.2,2C310.9,86.3,310.5,85.6,310.2,85z
			 M7.9,146.8c1,0.7,1.2-0.4,1.7-0.8c-0.2-0.3-0.4-0.5-0.5-0.7C8.7,145.9,8.3,146.3,7.9,146.8z M55.7,1.9c0.5,1,0.3,1.7-0.7,2.2
			c0.3,0.2,0.5,0.3,0.8,0.4C56.5,2.9,56.5,2.4,55.7,1.9z M298.5,125.2c0.3,1,1.8,0.1,1.2,1.7c0.6-0.5,0.9-0.8,1.3-1.2
			C300.1,125.6,299.4,125.4,298.5,125.2z M297.9,93.8c-0.1-0.1-0.2-0.2-0.3-0.2c-0.4,0.5-0.9,0.9-1.2,1.4c-0.1,0.1,0.2,0.5,0.4,0.9
			c0.5-0.6-0.4-2,1.1-1.4C297.9,94.2,297.9,94,297.9,93.8z M297.5,41.5c0.3,0.4,0.5,0.7,0.8,1.1c0.4-0.6,0.6-1.1,1-1.8
			C298.6,41.1,298.1,41.2,297.5,41.5z M299.1,156.2c-0.9-1.1-0.9-1.1-1.8,0C297.9,156.2,298.5,156.2,299.1,156.2z M329.1,56.5
			c-0.1,0-0.2-0.1-0.3-0.1c-0.5,0.2-1,0.5-1.5,0.7c0.6,0.3,1,0.4,1.5,0.7C328.8,57.4,328.9,56.9,329.1,56.5z M287.1,174.6
			c-0.1-0.1-0.1-0.2-0.2-0.3c-1.9-0.1-2.1,0-2.2,0.8C285.6,174.8,286.3,174.7,287.1,174.6z M157.2,172.2c1.1,1,1.9,1,2.2,0
			C158.8,172.2,158.1,172.2,157.2,172.2z M52.5,43.3c0.5-0.4,1-0.9,1.6-1.4C53.3,41.5,52.8,41.8,52.5,43.3z M62.1,27.6
			c0.3,0.5,0.6,1,0.9,1.5c0.1-0.9,0.1-1.6,0.2-2.3C62.9,27.1,62.6,27.3,62.1,27.6z"/>
		<path class="st1" d="M258.9,71.8c-1.6,1.5-3.8,0.7-5.7,1c0.1-0.8-0.1-1.1-0.8-0.7c-0.7,0.4-3.4,0.1-3.9-0.5
			c-0.4-0.4-0.9-0.6-1.4-0.8c-1.1-0.4-2.1-1-3-1.7c-1.1-0.9-1.9-1.9-2.9-2.9c-0.5-0.5-0.8-0.9-0.1-1.5c-0.2,0.1-0.5,0.1-0.9,0.3
			c-0.5-0.9-1.1-1.9-1.7-3c0,0,0.3-0.2,0.3-0.3c-0.3-0.5-0.9-1-1-1.6c-0.3-1.5-0.5-2.9-0.7-4.4c-0.2-1.1-0.3-2.2-0.4-3.2
			c0-0.3-0.1-0.7,0-1c1.2-3.4,1.9-7,4.4-9.7c0.7-0.7,1.1-1.9,2.3-1.8c0-0.9,0.7-1,1.3-1.4c2.5-1.8,5.4-2.9,8.4-3.3
			c5.2-0.6,10,0.6,14.2,3.7c0.3,0.2,0.4,0.6,0.6,1c1.1,0,4.8,4.8,4.6,6c0.3,0.2,0.7,0.4,0.8,0.6c0.9,2.3,1.3,4.8,1.2,7.3
			c0,0.8,0.1,1.5,0,2.3c0,0.7-0.1,1.5-0.3,2.2c-0.1,0.3-0.5,0.5-0.5,0.6c0,0.6,0,1.1-0.1,1.5c-0.8,2.4-2.1,4.6-3.9,6.4
			c-1.8,1.9-3.9,3.5-6.4,4.5c-1,0.4-2.1,0.7-3.2,0.9C259.7,72.4,259.3,72,258.9,71.8z M269.2,58.6c-0.1-0.3-0.4-0.7-0.4-1
			c0-0.6,0.4-1.1,0.4-1.7c0.2-5.2-1.3-9.6-5.6-12.9c-3.5-2.6-7.3-3.1-11.4-2.1c-2.1,0.5-4,1.4-5.6,2.9c-2.8,2.5-4.4,5.5-4.6,9.3
			c-0.1,1.4,0,2.7,0,4c-0.2-0.2-0.4-0.4-0.6-0.7c-0.1,0.1-0.1,0.2-0.2,0.2c0.4,0.5,1,0.9,1.3,1.4c1,1.7,1.8,3.4,2.8,5.1
			c0.8,1.3,2,2.1,3.3,2.6c0.3-0.4,0.5-0.7,0.8-1.1c-0.3-0.1-0.6-0.1-0.9-0.2c0-0.6,0.1-1.2,0.1-1.7c0.2,0,0.4,0,0.7,0
			c-0.2-0.3-0.4-0.5-0.5-0.7c1.4-1.9,3.8-1.7,4.6-0.7c0.4,0.5,0.5,1.4,0.5,2.1c0,0.3-0.3,0.6-0.4,0.9c-0.1,0-0.2-0.1-0.2-0.1
			c0.1-0.3,0.2-0.6,0.4-0.9c-0.1-0.1-0.1-0.2-0.2-0.2c-0.2,0.1-0.7,0.3-0.7,0.4c-0.1,0.4,0.1,0.9,0.1,1.7c-0.3,0.8-1.2,1.5-2.6,1.6
			c0.7,0.3,1.4,0.5,2,0.7c1.6,0.6,3.1,0.7,4.8,0.2c0.6-0.2,1.6-0.9,2.1,0.4c0.4-0.4,0.7-1.1,1.1-1.1c0.8-0.1,1.3-0.5,2-0.9
			c2.1-1.3,3.6-3,5-5C268,60.2,268.6,59.3,269.2,58.6z"/>
		<path class="st1" d="M184,33.1c0-0.4,1.1-0.7,1.7-0.2c0.3,0.2,0.3,0.1,0.7-0.1c0.6-0.2,1.4-0.1,2-0.1c3.4,0,3.5,2.7,2.5,4.7
			c-0.2,0.3,0,0.9-0.2,1.2c-0.6,0.9-1.5,1-2.5,1c-2.3,0-4.6-0.2-6.8-0.2c-3,0-6,0.2-8.9,0.2c-0.6,0-1.1-0.3-1.6-0.4
			c-0.6,0.1-1.3,0.4-1.9,0.4c-3,0-6,0-9,0c-0.8,0-1.7-0.1-2.5-0.2c-0.8-0.2-1.4-0.8-1.4-1.7c0-1,0-1.9,0-2.9c0-1.2,0.9-2,2.1-2
			c4.5,0,9,0,13.5,0c3.2,0,6.4,0,9.6,0C182.3,32.7,183.1,32.9,184,33.1z M158.3,35.3c-0.1,0.1-0.2,0.2-0.3,0.4
			c0.3,0.3,0.6,0.7,1,0.8c0.3,0.1,0.8-0.1,1.2-0.2c0-0.1,0-0.2-0.1-0.3C159.5,35.8,158.9,35.5,158.3,35.3z"/>
		<path class="st1" d="M200.8,48c-0.8,0.1-1.4,0.2-2,0.2c-2.9,0.1-5.9,0.2-8.8,0.2c-1.7,0-3.4,0-5.1,0c0-0.4,0.1-0.8,0.1-1.2
			c-0.1-0.1-0.2-0.1-0.3-0.2c0,1.3-0.6,1.5-1.6,1.4c-2.1-0.1-4.3,0-6.4,0c-0.5,0-1.3,0.4-1.6-0.5c0,0-0.3-0.1-0.4,0
			c-1.9,1.1-3.9,0.4-5.9,0.5c-0.8,0.1-1.7-0.2-2.4-0.5c-0.4-0.2-0.7-0.9-0.8-1.5c-0.1-1-0.1-2,0-3c0-1,0.8-1.6,1.8-1.6
			c5.5,0,10.9,0,16.4,0c4.7,0,9.5,0,14.2,0c1.7,0,2.6,0.9,2.6,2.6c0,0.6-0.1,1.1-0.1,1.7C200.6,46.7,200.7,47.3,200.8,48z"/>
		<path class="st1" d="M91.7,24.2c-0.3,0.3-0.4,0.5-0.6,0.8c0.4-0.1,0.7,0,0.8-0.2c0.8-0.9,1.6-1,2.5-0.3c0,0,0.1,0,0.2,0
			c0.8-0.5,0.8-0.5,1.6,0.4c0.1-0.1,0.2-0.1,0.4-0.2c0.1-0.1,0.2-0.2,0.4-0.3c0.9,0.5,1.2,1.3,1.2,2.2c0,0.9,0,1.8,0,2.7
			c0,0.9-0.5,1.4-1.4,1.5c-1.4,0.1-2.8,0.2-4.2,0.2c-1.2,0.1-2.4,0.2-3.6,0.2c-2.9,0-5.9-0.1-8.8-0.3c-1-0.1-1.9-0.6-2.1-1.8
			c-0.1-1.1-0.2-2.2,0-3.2c0.2-1.2,1.1-1.8,2.4-1.8c2.8,0,5.6,0,8.4,0c0.2,0,0.5-0.1,0.6,0c0.6,0.7,1.1,0.4,1.7,0
			C91,24.1,91.3,24.2,91.7,24.2z"/>
		<path class="st1" d="M93.5,39.5c-0.4-0.3-0.7-0.5-1.2-0.8c0.3,0.5,0.4,0.7,0.6,1.2c-0.7-0.4-1.1-0.4-1.8,0c-1,0.5-2.5,0.1-3.7,0.1
			c-0.7,0-1.4-0.2-2-0.2c-1.8,0-3.6,0.2-5.4,0.2c-0.5,0-1,0-0.6-0.8c0-0.1-0.3-0.3-0.5-0.5c-0.1,0.5-0.2,0.9-0.3,1.3
			c-0.9,0-1.7,0-2.6,0c-0.2,0-0.5-0.4-0.7-0.6c-0.1-0.1-0.2-0.3-0.3-0.3c-1.6,0.1-1-1-1.1-1.8c0-0.5,0-1,0-1.6
			c0.5,0.1,1,0.2,1.5,0.3c0-0.1,0.1-0.2,0.1-0.3c-0.2-0.1-0.4-0.2-0.6-0.3c-0.3-0.2-1-0.6-1-0.7c0.1-0.7,0.2-1.6,1.3-1.5
			c1.1,0.1,2.1,0,3.3,0c-0.2,0.3-0.3,0.4-0.5,0.7c0.2,0,0.5,0,0.5,0c0.3-0.9,1-0.6,1.6-0.6c1.5,0,3.1-0.2,4.6,0.1
			c1.1,0.2,2.1-0.1,3.2-0.1c1.1,0,2.2,0,3.2,0c1.1-0.1,1.9,0.3,2.2,1.4C94,36.3,93.9,37.8,93.5,39.5z"/>
		<path class="st1" d="M240.7,76.2c0.1,0.2,0.3,0.4,0.4,0.7c0.1,0,0.1-0.1,0.2-0.1c-0.1-0.2-0.2-0.4-0.3-0.6c0.1,0,0.1-0.1,0.2-0.1
			c1.4-0.2,1.9,0.9,2.8,1.6c0.1,0.1,0,0.2,0.1,0.3c0.3,0.4,0.9,0.8,0.8,1.1c-0.2,0.6-0.7,1.1-1.2,1.5c-1.5,1.4-3.1,2.8-4.7,4.2
			c-2,1.9-3.5,1.9-4.9-0.8c-0.5-1,0-1.8,0.6-2.4c1.6-1.7,3.3-3.2,5-4.8C240,76.5,240.4,76.4,240.7,76.2z"/>
		<path class="st1" d="M107.6,127.2c1.1,0.1,1.9,0.4,2.2,1.4c0.6,2.2,0.5,2.8-0.8,3.5c-2.1,1.3-4.3,2.6-6.4,3.9
			c-1,0.6-2.1,0.3-2.9-0.8c-0.9-1.2-1-2.6,0.1-3.3c1.1-0.9,2.4-1.5,3.6-2.2c0.8-0.5,1.5-1.1,2.3-1.6
			C106.3,127.7,107,127.5,107.6,127.2z"/>
		<path class="st1" d="M90.7,144.2c-0.2,0.6-0.2,1-0.4,1.3c-1.2,1.3-2.4,2.5-3.6,3.7c-0.6,0.7-1.5,1.2-2,1.9c-0.7,0.9-1.5,1-2.4,0.7
			c-1-0.4-1.8-1.2-1.9-2.4c-0.2-1.7,1.3-2.4,2.2-3.4c1.1-1.2,2.2-2.3,3.4-3.3c0.6-0.6,1.5-0.9,2.3-1.3c0.1-0.1,0.5-0.1,0.5,0
			C89.5,142.4,90.2,143.3,90.7,144.2z"/>
		<path class="st1" d="M149.1,116.2c0,0.9-1,0.6-1.6,0.8c-2,0.6-3.3-0.1-3.9-2.1c-0.4-1.2,0.1-2.3,1.3-2.6c2.4-0.6,4.7-1.2,7.1-1.6
			c0.8-0.1,1.6,0.1,2.5,0.2c0.3,0,0.5,0.3,0.7,0.5c0.7,1,0.2,3-0.9,3.4c-1.3,0.5-2.6,0.9-3.9,1.3C150,116.2,149.6,116.2,149.1,116.2
			z"/>
		<path class="st1" d="M191.7,106.5c0.3-0.2,0.4-0.3,0.6-0.4c-0.2-0.1-0.4-0.2-0.5-0.3c-0.2-0.1-0.5-0.1-0.6-0.2
			c-0.5-0.6-0.1-2.7,0.7-3c1-0.4,2.1-0.6,3.1-0.9c1.4-0.4,2.8-0.9,4.2-1.4c1.6-0.5,2.9,0,3.3,1.3c0.5,1.5-0.2,2.9-1.8,3.5
			c-2.2,0.7-4.3,1.5-6.5,2.1C193.4,107.3,192.4,107.6,191.7,106.5z"/>
		<path class="st1" d="M170.3,107.6c2.1-0.6,4.1-1.3,6.3-1.9c0.1,0.4,0.2,0.7,0.2,1c0.4-0.1,0.8-0.4,0.9-0.3
			c0.5,0.5,1.3,1.1,1.4,1.8c0.4,2.1-0.3,2.9-2.6,3.2c-0.5,0.1-1.1,0-1.9,0c-0.7,1-2.2,0.7-3.6,0.8c-0.1,0-0.3-0.1-0.4,0
			c-1.7,0.6-3-0.2-3.1-2c0-0.4-0.2-0.9,0-1.2c0.2-0.5,0.6-1,1-1.2C169.1,107.4,169.7,107.6,170.3,107.6z"/>
		<path class="st1" d="M214.9,94.1c1.7-0.8,3.3-1.7,5-2.5c1-0.4,2.1-0.9,3.2-0.8c0.6,0,1.3,0.9,1.7,1.5c0.4,0.6,0.4,1.2-0.2,2
			c-1.1,1.5-2.8,2-4.2,2.8c-1,0.5-1.9,1-2.9,1.5c-1.3,0.6-2.2,0.5-3.1-0.6c-0.3-0.4-0.4-1-0.4-1.5c0-0.1,0.7-0.3,1.1-0.4
			c0.1-0.4,0.3-0.8,0.5-1.4c-0.1,0-0.3-0.1-0.5-0.2C215,94.4,214.9,94.2,214.9,94.1z"/>
		<path class="st1" d="M71.5,99.3c0.1-0.8,0.2-1.3,0.3-1.8c-0.1,0-0.2,0-0.2-0.1c-0.2,0.6-0.3,1.1-0.5,1.7c-1.8,0.1-3.3-1.6-2.9-3.6
			c0.1-0.4,0.1-0.8,0.2-1.2c0.3-1.3,1-1.7,3.1-1.8c1.5,0,3,0,4.5,0c-0.1,0.3-0.2,0.5-0.3,1.1c1.7-1.7,3.5-1,5.2-1
			c4.9-0.1,9.9,0,14.8,0c0.1,0.4,0.2,0.7,0.3,1.1c0.1,0,0.1,0,0.2,0c0.1-0.3,0.1-0.7,0.2-0.8c1.6-0.1,3.2-0.2,4.8-0.2
			c1.2,0,1.9,0.6,1.9,1.9c0,0.9,0,1.8,0,2.8c-0.9,0.2-1.4,0.7-1,1.8c-3.5,0.1-6.9,0.3-10.3,0.4c-3.2,0-6.3-0.1-9.5-0.1
			C78.7,99.3,75.2,99.3,71.5,99.3z M92.7,93.8c-0.9,0.3-0.6,1.1-0.6,1.7c0,0.6,0.2,1.4,0.9,1.3C92.9,95.7,92.8,94.8,92.7,93.8z"/>
	</g>
</g>
</svg>
