<?xml version="1.0" encoding="utf-8"?>
<!-- Generator: Adobe Illustrator 19.2.1, SVG Export Plug-In . SVG Version: 6.00 Build 0)  -->
<svg version="1.1" id="Layer_1" xmlns="http://www.w3.org/2000/svg" xmlns:xlink="http://www.w3.org/1999/xlink" x="0px" y="0px"
	 viewBox="0 0 818 385.1" style="enable-background:new 0 0 818 385.1;" xml:space="preserve">
<style type="text/css">
	.st0{fill:#B4B5B6;}
	.st1{fill:#4D4E4E;}
	.st2{fill:#FFFFFF;}
	.st3{font-family:'GothamHTF-Bold';}
	.st4{font-size:20.5466px;}
	.st5{fill:#757576;}
	.st6{font-size:15px;}
	.st7{font-size:17px;}
	.st8{fill:#231F20;}
	.st9{fill:#F37046;}
	.st10{font-size:25.9153px;}
	.st11{letter-spacing:1;}
	.st12{font-size:16px;}
</style>
<g>
	<path class="st0" d="M175.3,331.9c0-1,0-2.1,0-3.1c0-0.7-0.3-1.5,0.8-1.6c-0.3-0.3-0.8-0.6-0.8-0.9c0-4.2,0-8.4,0-12.6
		c0.4-0.1,0.8-0.2,1.1-0.3c-0.2-0.2-0.5-0.3-0.7-0.5c-0.2-0.2-0.4-0.5-0.4-0.8c0-5.5,0-11.1,0-16.6c0-1.5,0-2.9,0-4.4
		c0-0.4,0.3-0.8,0.4-1.3c0,0-0.4-0.2-0.4-0.3c0.1-1.8,0.2-3.7,0.2-5.5c0-0.4-0.2-0.8-0.2-1.2c0-3.7,0-7.4,0-11.1c0-2.9,0-5.8,0-8.7
		c0-0.9,0.2-1.8,0.1-2.7c-0.2-1,0-2.1,0-3.1c0-1,0-2.1,0-3.1c0-1,0-2.1,0-3.1c0-3.3,0-6.5,0-9.8c0-0.5,0.4-1,0.6-1.5
		c0.1-0.3,0-0.6,0.1-0.9c-1,0.1-0.6-0.5-0.6-0.8c0-1.3-0.1-2.7,0-4c0.1-1-0.1-1.9,0-2.9c0-1.1,0-2.2,0-3.3c0-1.1,0-2.1,0-3.2
		c0-1.1-0.1-2.2,0-3.3c0.3-3.5-0.3-6.9,0.1-10.4c0.2-1.9-0.2-3.8-0.1-5.7c0.1-1.5-0.1-2.9,0-4.4c0-0.4-0.3-0.9,0.6-0.9
		c0.1,0,0.2-0.3,0.1-0.4c-1.2-1-0.6-2.2-0.6-3.3c-0.1-2.3,0-4.6,0-6.8c0-3.1,0-6.2,0-9.2c0.3,0.1,0.5,0.2,0.8,0.2
		c-0.8-0.9-1.1-1.8-0.5-2.8c0.2-0.3-0.3-0.7-0.3-1.1c0-3.1,0-6.2,0-9.3c0-1.8,0-3.6,0-5.4c0-0.4,0.3-0.8,0.4-1.2
		c-0.1-0.4-0.4-0.9-0.4-1.3c0-4.1,0-8.2,0-12.4c0-1.2,1-1.7,2.4-1.1c0.2,0.1,0.5,0.1,0.7,0.1c2.1-0.1,4.3-0.3,6.2-0.4
		c0.3,0.4,0.5,0.6,0.7,0.8c1.2-1.3,2.8-0.3,4.1-0.8c0,0.3,0.1,0.6,0.1,1c1.1-1.4,2.5-1,3.9-0.8c0.4,0.1,0.8-0.2,1.3-0.2
		c5.6,0,11.2,0,16.7,0c0.2,0,0.5,0.2,0.7,0.3c0.3,0.1,0.5,0.3,0.8,0.4c0.4,0.1,0.8,0.1,1.2,0.1c-0.2-0.3-0.3-0.6-0.5-0.8
		c2.8,0,5.7,0,9,0c-0.4,0.4-0.6,0.7-0.9,0.9c1.2,0,1.3-0.1,1.2-1c2.2,0.1,4.3,0.2,6.4,0.2c1.7,0,3.4-0.1,5.1-0.2
		c1.1,0,1.6,0.5,1.6,1.2c0,2.7-0.1,5.4-0.1,8.1c0,4.6,0.1,9.3,0.1,13.9c0,0.5-0.4,1-0.6,1.4c0,0,0.2,0,0.5,0c0,3.2,0,6.3,0,9.3
		c-0.2-0.1-0.6-0.2-0.9-0.3c-0.1,0.1-0.2,0.1-0.3,0.2c0.2,0.3,0.3,0.7,0.5,0.8c0.9,0.1,0.8,0.6,0.8,1.1c-0.1,1.9-0.2,3.9-0.2,5.8
		c0,3.3,0.2,6.7,0.2,10c0,1.5,0.1,2.9,0,4.4c0,0.4-0.4,0.8-0.6,1.2c0.8,0,0.7,0.6,0.6,1.2c0,1.1-0.1,2.3,0,3.4
		c0.1,0.5-0.5,0.9-0.1,1.5c0.3,0.5,0.1,1.2,0.1,1.8c0,0.3-0.2,0.6-0.3,0.9c0.1,0.4,0.2,0.8,0.2,1.3c0,3.2,0,6.3,0,9.4
		c-0.5,0.3-1,0.5-1.7,0.9c0.7-0.1,1.2-0.1,1.8-0.2c0,1.2,0.2,2.3-0.1,3.4c-0.1,0.5,0,1,0,1.4c0,0.7-0.1,1.3,0,2
		c0.1,0.4-0.5,0.8-0.9,1.3c1,0.3,1,1.1,1,1.8c0,1.4,0,2.7,0,4.1c0,0.8,0.3,1.7-1.1,2.1c0.4,0,0.7-0.1,1.1-0.1c0,2.3,0,4.7,0,7.1
		c0,0-0.3,0.1-0.4,0.1c0.2,0.3,0.4,0.6,0.4,0.9c0,5.6,0,11.2,0,16.8c0,1-0.3,2.1-0.3,3.1c0,0.9,0.2,1.9,0.2,2.8c0,3.5,0,7.1,0,10.6
		c0,0.5,0.1,1,0.1,1.5c-0.6,0-1.1,0.1-1.7,0.1c0,0,0,0.3,0,0.5c0.5,0,1,0,1.7,0c-0.2,1.4-0.4,2.8-0.4,4.1c0,1.4,0.4,2.8,0.3,4.2
		c-0.2,1.4,0.2,2.8,0,4.2c-0.2,1.4,0,2.9,0,4.6c-0.4-0.3-0.7-0.5-1-0.7c-0.4,0.2-0.7,0.5-1.4,0.9c0.4-0.1,0.6-0.1,0.8-0.1
		c1.5,0,1.6,0.1,1.6,1.3c0,0.6,0,1.1,0,1.8c-0.4,0-0.8,0-1.2-0.1c0.3,0.3,0,1,1,0.9c0,0,0.1,0.3,0.1,0.4c0,1.9,0.1,3.8,0,5.7
		c0,0.4-0.6,0.8-0.9,1.2c0.3,0,0.6,0,0.9,0c0,4.8,0,9.5,0,14.2c-0.2,0-0.5,0.1-0.9,0.1c1.2,0.4,1,1.2,1,1.8c0,1.3,0,2.6,0,3.9
		c0,0.4,0.2,0.9-0.6,0.9c-0.1,0-0.2,0.4-0.1,0.6c0,0.1,0.4,0.1,0.5,0.1c0,1.7,0,3.5,0,5.2c0,1.7,0.1,3.3,0.2,5c0,0.4,0.1,0.8,0,1.1
		c-0.1,0.3-0.5,0.7-0.7,0.7c-2.9,0-5.7,0-8.6,0c-1.2,0-2.4,0.1-3.7,0c-0.5,0-1-0.2-1.4-0.3c-0.1,0-0.3-0.1-0.4-0.1
		c-3.6,0.8-7.2,0.1-10.8,0.3c-0.2,0-0.3-0.1-0.5-0.2c-0.4-0.2-0.4-0.2-0.9,0.1c-0.2,0.1-0.5,0.1-0.8,0.1c-4.1,0-8.2-0.1-12.3-0.1
		c-2.2,0-4.4,0.1-6.7,0.1c-2.5,0-5.1,0-7.7,0c0.5-1-0.2-1.2-1.1-1.2c0.1,0.4,0.2,0.7,0.4,1.2c-1-0.2-2,0.3-2.8-0.4
		c-0.1-0.1-0.6,0-0.7,0.1c-0.4,0.6-1,0.4-1.4,0.2c-0.3-0.2-0.7-0.6-0.7-0.8c0-0.9,0.3-1.8,0.4-2.8c0-0.6-0.3-1.3-0.4-1.9
		c0-0.4,0.3-0.7,0.6-1.2c0,0-0.3-0.1-0.6-0.2c0-1.5,0-3,0-4.4c0-0.6-0.4-1.3,1-1.4C175.9,332.1,175.6,332,175.3,331.9z M233.2,234.4
		c-0.2,0.5-0.4,0.8-0.5,1.2c0,0.1,0.2,0.3,0.4,0.3c0.1,0,0.4-0.1,0.4-0.2c0.2-0.7,0.3-1.4,0.4-2.3c-0.9,0.3-1.6,0.5-2.3,0.7
		c0,0.1,0.1,0.2,0.1,0.3C232.1,234.4,232.6,234.4,233.2,234.4z M200.5,273.3c0.1,0,0.1,0.1,0.2,0.1c0.2-0.2,0.4-0.3,0.5-0.5
		c0.3-0.6-0.1-1.1-0.7-1.3c-0.6,0.3-1.1,0.5-1.7,0.7c0.2,0.1,0.5,0.3,0.8,0.3c0.3,0.1,0.7,0,1.1-0.1
		C200.6,272.9,200.6,273.1,200.5,273.3z M197.4,233.8c-1.1,0-1.8,0.9-1.9,2.4C197.3,235.9,196,234.2,197.4,233.8z M181.8,162
		c-0.8,0-1.5,0.1-2.2,0.1c0.3,0.6,0.6,1.1,0.9,1.7C180.9,163.2,181.3,162.6,181.8,162z M207.4,310.1c-0.2-0.2-0.6-0.5-0.6-0.9
		c0-0.9,0.1-0.9-1-0.8C205.9,309.8,206.4,310.2,207.4,310.1z M190,181.8c-0.1-0.2-0.1-0.5-0.2-0.7c-0.5,0-0.9,0-1.4,0
		c-0.2,0-0.4,0.2-0.6,0.3c0.3,0.3,0.6,0.5,0.9,0.8c0,0,0.3-0.1,0.4-0.1C189.4,182,189.7,181.9,190,181.8z M201,150
		c0-0.5,0-1.2,0-1.8c-0.1,0-0.2,0-0.2-0.1c-0.4,0.6-0.7,1.1-1,1.6C200.2,149.8,200.6,149.9,201,150z M180.9,334.8
		c-0.2-0.2-0.4-0.5-0.9-1c-0.1,0.9-0.2,1.4-0.2,2c0,0.1,0.3,0.2,0.5,0.3c0.1-0.1,0.2-0.3,0.3-0.4
		C180.7,335.5,180.8,335.1,180.9,334.8z M194.3,324c0.7,0.2,1.4,0.5,2.2,0.7C195.7,323.3,195.2,323.1,194.3,324z M220.8,209.3
		c0.7,0.5,1-0.1,1.4-0.3c0.3-0.2,0.5-0.3,0.8-0.5c-0.1-0.1-0.3-0.3-0.4-0.3c-0.4,0.1-0.7,0.2-1,0.3
		C221.3,208.8,221.1,209.1,220.8,209.3z M210,201.7c-0.2,0.1-0.4,0.2-0.7,0.3c0.4,0.5,0.8,1.1,1.2,1.6c0.2-0.1,0.3-0.1,0.5-0.2
		C210.7,202.8,210.4,202.2,210,201.7z M208.1,231.3c-0.4,0.2-0.6,0.3-0.8,0.3c-0.1-0.3-0.3-0.5-0.4-0.7c-0.3,0.2-0.6,0.3-0.8,0.5
		c0.6,0.4,1.1,0.8,1.8,1.2C207.9,232.1,208,231.8,208.1,231.3z M228.7,211.5c0.7,0.2,1.2,0.3,1.9,0.5c-1.1-1.2-1.3-1.3-2.3-1.1
		C228.4,211.1,228.6,211.4,228.7,211.5z M229.8,201.5c0-0.2,0-0.4,0-0.6c-0.5,0-0.9-0.1-1.4,0c-0.1,0,0,0.5-0.1,0.8
		C228.8,201.6,229.3,201.5,229.8,201.5z M195.3,253.1c0-0.1-0.1-0.3-0.1-0.4c-0.5,0-1.1,0-1.6,0c0.1,0.3,0.2,0.6,0.3,1
		C194.3,253.4,194.8,253.3,195.3,253.1z M230.4,324c0.5,0,1.1,0,1.2-0.1c0.3-0.4,0.4-0.9,0.6-1.4c-0.1,0-0.2,0-0.2,0
		C231.6,322.9,231.1,323.3,230.4,324z M183.1,164.1c0.3,0.4,0.6,0.7,1.1,1.2c0.1-0.8,0.2-1.3,0.3-2
		C184,163.6,183.6,163.8,183.1,164.1z M215.3,302.5c0.5,0.1,0.9,0.3,1.5,0.4c-0.7-1.1,0.5-0.6,0.9-0.8
		C217.1,301.5,216.6,301.6,215.3,302.5z M194.1,161.3c0.1-0.7-1-1.1-3.1-0.9C192.1,160.7,193.1,161,194.1,161.3z M213.4,292.8
		c-0.4,0.3-0.7,0.5-1.1,0.8c1.4,0,1.4,0,1.2,0.8C215,293.8,213.3,293.3,213.4,292.8z M176.3,292.9c0.4-0.6,0.8-1.2,1.2-1.8
		c-0.1,0-0.1-0.1-0.2-0.1c-0.5,0.4-1,0.8-1.6,1.2C175.9,292.4,176.1,292.6,176.3,292.9z M233.2,174.5c0-0.1,0.1-0.2,0.1-0.3
		c-0.6-0.2-1.1-0.3-1.7-0.5c0,0.3,0,0.5,0,0.8C232.1,174.5,232.7,174.5,233.2,174.5z M178.4,222.1c0.4,0.6,0.8,1.2,1.2,1.8
		C180,222.7,179.6,222.1,178.4,222.1z M227.7,262.4c-0.1,0.1-0.2,0.2-0.3,0.3c0.4,0.4,0.8,0.8,1.1,1.2c0.6-0.3,1-0.5,1.4-0.7
		c0-0.1,0-0.2,0-0.3C229,263.5,228.2,263.4,227.7,262.4z M228.3,240c-0.5-0.1-1.1-0.2-1.7-0.2C226.9,240.8,226.9,240.8,228.3,240z
		 M228,249c0.5-0.9-0.7-0.7-1.1-1.1C226,249.2,227.8,248.6,228,249z M178.8,168.6c-0.2,0.6-0.2,1-0.3,1.3c0.1,0,0.4,0,0.7,0
		c0-0.3,0-0.5,0-0.8c0.4,0.1,0.7,0.2,1.1,0.3c0-0.1,0.1-0.2,0.1-0.2C179.8,168.9,179.2,168.7,178.8,168.6z M190.6,184
		c0.1,0.3,0.1,0.5,0.2,0.7c0.1,0.2,0.2,0.3,0.2,0.5c0.2-0.1,0.5-0.2,0.6-0.4c0.1-0.4,0.1-0.8,0.1-1.2
		C191.3,183.7,190.9,183.9,190.6,184z M186.1,184c0-0.7-0.1-1.3-0.1-2.1C185.1,183.1,185.2,183.8,186.1,184z M202.5,154.8
		c-0.2,0.6-0.3,1-0.5,1.5c0.1,0,0.2,0,0.3,0.1C202.8,155.9,204,155.7,202.5,154.8z M219.6,243.6c0.1-0.6,0.2-1.1,0.3-1.7
		C218.7,242.3,218.6,242.8,219.6,243.6z M192.4,246.7c1,0.3,1.3-0.2,1.5-0.8C192.4,244.9,193.3,246.8,192.4,246.7z M217,259.3
		c0.5,0.2,0.9,0.3,1.3,0.5c0.1-0.1,0.2-0.1,0.3-0.2c-0.5-0.4-1.1-0.9-1.7-1.4C216.9,258.7,216.9,259,217,259.3z M208.9,184.3
		c-0.6,0.7-0.4,1.1,0.4,1.4c0.2,0.1,0.5,0.1,0.6,0.1C209.5,185.2,209.3,184.9,208.9,184.3z M207.1,165.6c0.5-1.9,0.5-1.9,0.1-1.9
		c-0.2,0.4-0.4,0.7-0.6,1.2C206.6,165,206.8,165.2,207.1,165.6z"/>
	<rect x="255.3" y="197.2" class="st1" width="166.8" height="37.7"/>
	<text transform="matrix(1 0 0 1 271.5212 224.3551)" class="st2 st3 st4">2:21 Minutes</text>
	<g>
		<path class="st1" d="M251.8,231c-0.2-0.4-0.4-0.6-0.8-0.1c0.2,0.2,0.4,0.3,0.6,0.5c0.1,0.1,0.2,0.3,0.2,0.5c0,0.6,0,1.3,0,1.9
			c-0.4,0.2-0.8,0.1-1.2-0.1c-0.8-0.5-1.7-0.9-2.5-1.4c-0.8-0.6-1.8-1-2.6-1.5c-2.1-1.3-4.2-2.4-6.4-3.7c-2.3-1.3-4.6-2.7-6.9-4
			c-1.7-1-3.4-1.9-5.1-2.9c-0.4-0.2-0.8-0.5-1.2-0.6c-0.3-0.2-0.5-0.3-0.5-0.8c-0.1,0.1-0.2,0.2-0.4,0.3c-0.7-0.4-1.3-0.8-2-1.1
			c0.1-0.2,0.1-0.3,0.2-0.6c-0.3,0.1-0.4,0.2-0.7,0.3c-0.9-0.5-1.8-1-2.8-1.5c-0.5-0.3-0.2-0.7-0.4-1.1c-0.2,0.1-0.4,0.3-0.6,0.4
			c-0.3-0.5-0.3-0.8,0.2-1.1c1.5-0.9,3.1-1.7,4.6-2.6c1.4-0.8,2.7-1.6,4.1-2.3c0.7-0.4,1.4-0.8,2.1-1.1c0.7-0.3,1.3-0.8,2-1.2
			c0.8-0.5,1.7-1,2.5-1.5c0.4-0.3,0.8,0.1,1.2-0.1c-0.1-0.2-0.2-0.3-0.3-0.5c0.6-0.1,1.1-0.2,1.6-0.3c0-0.2,0-0.4,0.1-0.5
			c0.5-0.3,0.9-0.7,1.5-0.8c0.1,0,0.2,0,0.2,0c0.8-0.9,1.9-1.2,2.8-1.8c1.5-1,3.1-1.8,4.7-2.7c1.3-0.7,2.5-1.5,3.8-2.2
			c0.1-0.1,0.3-0.2,0.5,0c0.1,0.1,0.4,0,0.7,0c-0.2-0.2-0.3-0.3-0.3-0.4c0,0,0,0,0-0.1c0.7,0,0.7,0,0.7,0.5c0,0.7,0,1.5,0,2.3
			c-0.2,0-0.4,0-0.6,0c0,0.1,0,0.1,0,0.2c0.7,0.7,0.6,1.6,0.6,2.5c0,1.5,0,3,0,4.5c0,1.4,0,2.9,0,4.3c-0.2,0.1-0.3,0.2-0.6,0.3
			c0.2,0.1,0.4,0.2,0.5,0.3c0,0.8,0,1.5,0,2.3c-0.2,0.1-0.3,0.1-0.5,0.2c0.2,0.2,0.3,0.3,0.5,0.5c0,0.5,0,1.1,0,1.8
			c0,0.6,0,1.3,0,1.9s0,1.3,0,1.9c0,0.6,0.2,1.3-0.2,1.9c0.5,0.6,0.2,1.2,0.2,1.8c0,0.6,0,1.3,0,1.9c0,0.6,0,1.3,0,1.9
			c0,0.6,0,1.3,0,1.9C251.8,229.7,251.8,230.3,251.8,231z M237.8,224.3c0,0.1-0.1,0.1-0.1,0.2c0.1,0.1,0.3,0.3,0.4,0.3
			c0.4-0.1,0.7,0.1,1,0.3c0.1-0.2,0.1-0.4,0.1-0.5c0-0.1,0.1-0.3,0.1-0.3c-0.1-0.1-0.3-0.2-0.4-0.1c-0.2,0.1-0.3,0.3-0.4,0.4
			C238.3,224.4,238,224.4,237.8,224.3z M242.5,226.3c0.2-0.3,0.4-0.4,0.5-0.5c0.6,0.2,0.6,0.2,0.6-0.3c-0.4-0.1-0.8-0.1-1.1-0.2
			C242.5,225.6,242.5,225.8,242.5,226.3z M237,223.6c-0.3,0.3-0.6,0.5-0.8,0.7c0.5,0.6,0.8,0,1.1,0c0,0,0-0.1,0.1-0.2
			C237.3,224,237.2,223.8,237,223.6z M249.6,219.7c0.5,0.3,0.9,0.5,1.4,0.7c0-0.3-0.1-0.6-0.1-0.9
			C250.4,219.6,250.1,219.6,249.6,219.7z M231.6,218.9c0,0-0.1,0.1-0.1,0.1c0.5,0.2,0.4,1,1.1,1.1c0-0.3,0-0.5,0-0.7
			C232.3,219.3,232,219.1,231.6,218.9z M233.6,210.6c-0.1-0.3-0.3-0.4-0.6-0.3c-0.2,0.1-0.4,1-0.2,1.1c0.1,0.1,0.3,0.1,0.3,0.1
			c0.1,0,0.1-0.2,0.1-0.3C233.2,210.6,233.1,210.6,233.6,210.6z M250.9,205.1c-0.3-0.6-0.3-0.6-1.3-0.2c0.1,0.1,0.1,0.3,0.3,0.4
			c0.1,0,0.3,0,0.4-0.1C250.4,205.2,250.6,205.2,250.9,205.1z M241,203.9c0.1,0,0.1-0.1,0.2-0.1c0-0.5-0.1-1-0.1-1.6
			c-0.2,0.4-0.4,0.7-0.6,1C240.8,203.3,241.1,203.4,241,203.9z M224.9,216.8c0.4,0.3,0.8,0.8,1.4,0.7
			C226.1,216.7,225.4,216.9,224.9,216.8z"/>
	</g>
	<rect x="153.7" y="272.6" class="st1" width="166.8" height="37.7"/>
	<text transform="matrix(1 0 0 1 169.9614 299.7232)" class="st2 st3 st4">1:55 Minutes</text>
	<g>
		<path class="st1" d="M150.3,306.4c-0.2-0.4-0.4-0.6-0.8-0.1c0.2,0.2,0.4,0.3,0.6,0.5c0.1,0.1,0.2,0.3,0.2,0.5c0,0.6,0,1.3,0,1.9
			c-0.4,0.2-0.8,0.1-1.2-0.1c-0.8-0.5-1.7-0.9-2.5-1.4c-0.8-0.6-1.8-1-2.6-1.5c-2.1-1.3-4.2-2.4-6.4-3.7c-2.3-1.3-4.6-2.7-6.9-4
			c-1.7-1-3.4-1.9-5.1-2.9c-0.4-0.2-0.8-0.5-1.2-0.6c-0.3-0.2-0.5-0.3-0.5-0.8c-0.1,0.1-0.2,0.2-0.4,0.3c-0.7-0.4-1.3-0.8-2-1.1
			c0.1-0.2,0.1-0.3,0.2-0.6c-0.3,0.1-0.4,0.2-0.7,0.3c-0.9-0.5-1.8-1-2.8-1.5c-0.5-0.3-0.2-0.7-0.4-1.1c-0.2,0.1-0.4,0.3-0.6,0.4
			c-0.3-0.5-0.3-0.8,0.2-1.1c1.5-0.9,3.1-1.7,4.6-2.6c1.4-0.8,2.7-1.6,4.1-2.3c0.7-0.4,1.4-0.8,2.1-1.1c0.7-0.3,1.3-0.8,2-1.2
			c0.8-0.5,1.7-1,2.5-1.5c0.4-0.3,0.8,0.1,1.2-0.1c-0.1-0.2-0.2-0.3-0.3-0.5c0.6-0.1,1.1-0.2,1.6-0.3c0-0.2,0-0.4,0.1-0.5
			c0.5-0.3,0.9-0.7,1.5-0.8c0.1,0,0.2,0,0.2,0c0.8-0.9,1.9-1.2,2.8-1.8c1.5-1,3.1-1.8,4.7-2.7c1.3-0.7,2.5-1.5,3.8-2.2
			c0.1-0.1,0.3-0.2,0.5,0c0.1,0.1,0.4,0,0.7,0c-0.2-0.2-0.3-0.3-0.3-0.4c0,0,0,0,0-0.1c0.7,0,0.7,0,0.7,0.5c0,0.7,0,1.5,0,2.3
			c-0.2,0-0.4,0-0.6,0c0,0.1,0,0.1,0,0.2c0.7,0.7,0.6,1.6,0.6,2.5c0,1.5,0,3,0,4.5c0,1.4,0,2.9,0,4.3c-0.2,0.1-0.3,0.2-0.6,0.3
			c0.2,0.1,0.4,0.2,0.5,0.3c0,0.8,0,1.5,0,2.3c-0.2,0.1-0.3,0.1-0.5,0.2c0.2,0.2,0.3,0.3,0.5,0.5c0,0.5,0,1.1,0,1.8
			c0,0.6,0,1.3,0,1.9s0,1.3,0,1.9c0,0.6,0.2,1.3-0.2,1.9c0.5,0.6,0.2,1.2,0.2,1.8c0,0.6,0,1.3,0,1.9s0,1.3,0,1.9s0,1.3,0,1.9
			C150.3,305,150.3,305.7,150.3,306.4z M136.2,299.7c0,0.1-0.1,0.1-0.1,0.2c0.1,0.1,0.3,0.3,0.4,0.3c0.4-0.1,0.7,0.1,1,0.3
			c0.1-0.2,0.1-0.4,0.1-0.5c0-0.1,0.1-0.3,0.1-0.3c-0.1-0.1-0.3-0.2-0.4-0.1c-0.2,0.1-0.3,0.3-0.4,0.4
			C136.7,299.8,136.5,299.7,136.2,299.7z M140.9,301.7c0.2-0.3,0.4-0.4,0.5-0.5c0.6,0.2,0.6,0.2,0.6-0.3c-0.4-0.1-0.8-0.1-1.1-0.2
			C140.9,300.9,140.9,301.2,140.9,301.7z M135.5,299c-0.3,0.3-0.6,0.5-0.8,0.7c0.5,0.6,0.8,0,1.1,0c0,0,0-0.1,0.1-0.2
			C135.8,299.4,135.7,299.2,135.5,299z M148,295c0.5,0.3,0.9,0.5,1.4,0.7c0-0.3-0.1-0.6-0.1-0.9C148.9,294.9,148.5,295,148,295z
			 M130.1,294.3c0,0-0.1,0.1-0.1,0.1c0.5,0.2,0.4,1,1.1,1.1c0-0.3,0-0.5,0-0.7C130.7,294.7,130.4,294.5,130.1,294.3z M132,285.9
			c-0.1-0.3-0.3-0.4-0.6-0.3c-0.2,0.1-0.4,1-0.2,1.1c0.1,0.1,0.3,0.1,0.3,0.1c0.1,0,0.1-0.2,0.1-0.3C131.6,286,131.6,286,132,285.9z
			 M149.3,280.5c-0.3-0.6-0.3-0.6-1.3-0.2c0.1,0.1,0.1,0.3,0.3,0.4c0.1,0,0.3,0,0.4-0.1C148.9,280.6,149.1,280.5,149.3,280.5z
			 M139.5,279.3c0.1,0,0.1-0.1,0.2-0.1c0-0.5-0.1-1-0.1-1.6c-0.2,0.4-0.4,0.7-0.6,1C139.2,278.7,139.6,278.7,139.5,279.3z
			 M123.3,292.1c0.4,0.3,0.8,0.8,1.4,0.7C124.5,292.1,123.8,292.3,123.3,292.1z"/>
	</g>
	<path class="st0" d="M615.9,256.9c-0.4,0-0.7,0-0.9,0.1c0,0.1,0,0.1,0,0.2c0.3,0.1,0.6,0.1,1.1,0.2c-0.1,2.9-0.3,5.9-0.4,8.8
		c0,2.1,0.1,4.2,0.2,6.3c0.1,1.4-0.2,2.8,0,4.3c0.2,1.5,0.1,3,0,4.5c0,0.5-0.3,0.9-0.4,1.4c0.1,0.3,0.4,0.6,0.4,0.9
		c0,3.6,0,7.2,0,10.8c0,1.6,0,3.1,0,4.7c0,0.6-0.5,1.3-0.4,1.9c0.6,3,0.4,6,0.4,9.1c0,3.4,0,6.8,0,10.2c0,0.5-0.3,1-0.5,1.6
		c-0.1,0.2,0,0.4,0,0.6c0.1,0.6,0.4,1.3,0.4,1.9c0,4.3,0,8.6,0,13c0,0.5-0.2,1-0.4,1.5c0.1,0.2,0.3,0.5,0.4,0.8c0,1.4,0,2.9,0,4.3
		c0,0.6-0.1,0.8-0.9,0.8c-4.4-0.1-8.8,0-13.2,0c-1.7,0-3.4,0.1-5.2,0c-0.7,0-1.4-0.4-2.1-0.6c-0.3-0.1-0.8-0.1-0.9,0
		c-0.3,0.8-0.9,0.6-1.5,0.6c-10,0-20.1,0-30.1,0c-2,0-4,0-6,0c-0.2,0-0.5-0.2-0.7-0.4c0,0,0.2-0.4,0.3-0.6c0-0.1,0.1-0.3,0-0.3
		c-1-1.3-0.2-2.8-0.5-4.2c0-0.2,0.4-0.4,0.3-0.6c0-0.4,0-0.8-0.1-1.1c-0.1-0.5-0.2-0.9-0.2-1.4c0-2.2-0.2-4.3,0-6.5
		c0.2-1.7-0.2-3.4,0-5c0.2-1.3-0.1-2.4-0.1-3.7c0.1-1.3-0.1-2.6,0-4c0.1-1.2-0.7-2.6,1.3-3.4c-0.7,0-1,0-1.3,0c0-2.3,0-4.7,0-7
		c0-2.2,0-4.4,0-6.7c0-5-0.1-10,0-15c0-1.3,0-2.6,0-3.9c0-1.5,0-3,0-4.4c0-1.5,0-3,0-4.4c0-1.5,0-3,0-4.4c0-1.5,0-3,0-4.4
		c0-1.5,0-3,0-4.4c0-0.5,0.2-1.1,0.4-1.9c-0.3-0.4-1-1,0-1.8c0.1-0.1-0.4-0.6-0.4-0.9c0-1.4,0-2.8,0-4.3c0.3,0.1,0.4,0.2,0.8,0.3
		c-1-1.3-1.3-2.6-0.3-3.6c-1-2.7-0.2-5.4-0.5-7.9c0-0.1,0.4-0.2,0.2-0.1c0-0.7-0.1-1.3-0.1-1.9c0-0.4-0.1-0.8-0.1-1.2
		c0-4.7,0.1-9.5,0.1-14.2c0-0.5-0.1-1.1-0.2-1.7c0.4-0.1,0.7-0.2,1.2-0.3c-1.3-0.8-1.2-1.9-1.2-3c0-1.9-0.1-3.8,0-5.7
		c0.1-1.6-0.1-3.3,0-4.9c0-0.6,0.6-1.4,0.4-1.6c-0.8-0.7-0.3-1.5-0.3-2.2c-0.1-5.2,0-10.4,0-15.6c0-2.1,0-4.3,0-6.5
		c0.3-0.1,0.7-0.2,1.1-0.2c0-0.1,0.1-0.1,0.1-0.2c-0.4-0.1-0.7-0.2-1.2-0.4c0-1,0-2.1,0-3.2c0-1.4,0.1-2.8,0.1-4.2
		c0-3.9-0.2-7.8-0.1-11.7c0-0.4,0.2-0.8,0.3-1.2c-0.1-0.5-0.3-1.2-0.3-1.9c0-3.3,0-6.6,0-9.9c0.3,0.1,0.6,0.1,0.9,0.1
		c0-0.2,0-0.3,0-0.3c-0.8-0.1-0.9-0.6-0.9-1.4c0.1-1.3,0-2.5,0-3.8c0-7.6,0-15.3,0-22.9c0.4,0,0.7,0,1.1,0c0.1-0.1,0.1-0.2,0.2-0.3
		c-0.3-0.2-0.7-0.5-1-0.7c0-7.1,0-14.4,0-21.9c0.2-0.1,0.6-0.3,1.1-0.5c-1.2-0.6-1.3-1.5-1.3-2.6c0.1-4.6,0-9.2,0-13.8
		c0-1.1,0.3-1.7,1.5-1.6c2.2,0.2,4.5,0.2,6.8,0.3c0.4,0,0.8-0.3,1.1-0.3c1.3,0.1,2.6,0.3,3.9,0.5c0.2,0,0.4-0.1,0.7-0.3
		c3.8,0,7.9,0,12.1,0c0,0.1-0.1,0.3-0.2,0.6c0.2,0,0.4,0,0.7,0c-0.1-0.2-0.1-0.4-0.2-0.7c0.2,0,0.3-0.1,0.4-0.1
		c2.5,0.1,5.1,0.2,7.6,0.2c5.3,0,10.6-0.1,15.9-0.2c0.5,0,0.9,0.2,1.5,0.4c0.6-0.7,1.6-0.7,2.1,0.3c1.9-1.1,4-0.6,6-0.6
		c0.2,0,0.6,0.4,0.7,0.7c0.1,0.3-0.2,0.6-0.4,1c0.1,0.3,0.4,0.8,0.4,1.2c-0.2,1.6,0.1,3.1,0,4.7c-0.1,1.6,0,3.3,0,5
		c0,5.9,0,11.8,0,17.7c0,1.5-0.3,3-0.3,4.5c0,1,0.3,2,0.3,3c0,10.5,0,21,0,31.4c0,1.2,0,2.4,0,3.6c-0.4,0-0.7,0.1-1.1,0.1
		c1.4,0.3,1.2,1.4,1,2.3c-0.4,2.3,0.1,4.7,0.1,7c-0.1,4.8,0,9.6,0,14.4c0,6.8,0,13.7,0,20.6c-0.3,0-0.7,0-1,0c0,0.1-0.1,0.1-0.1,0.2
		c1.8,2.1,0.9,4.5,0.9,6.8c0,1.8,0.1,3.5,0.2,5.3c0,1.6,0,3.3,0,4.9c0,0.5-0.3,1-0.4,1.6c0.8,0.6,0.8,6.2-0.1,6.7
		c0.2,0.5,0.5,0.9,0.5,1.3c0,3.3,0,6.6,0,9.9c0,2.6,0,5.2,0,7.8c0,0.6-0.3,1.2-0.4,1.6c0.1,0.8,0.2,1.4,0.3,2
		c0.1,1.1,0.1,2.2,0.1,3.3C615.9,249.8,615.9,253.3,615.9,256.9z M591.6,151.3c0.1,0,0.2,0,0.3,0.1c0.3-0.5,0.6-1.1,1-1.6
		c0.6-0.8,0.6-0.8-0.2-0.9c-0.1-0.4-0.2-0.7-0.3-1c-0.1,0-0.1,0.1-0.2,0.1C591.9,149.1,591.7,150.2,591.6,151.3z M584.5,242.2
		c-0.7-0.9-2.2-1.2-2.9-0.5C582.4,242.5,583.4,242.8,584.5,242.2z M609.6,245.4c-0.1-0.1-0.1-0.2-0.2-0.3c-0.9,0.5-1.8,0.9-2.6,1.4
		c-0.1,0.4-0.2,0.9-0.4,1.5C607.5,247,608.5,246.2,609.6,245.4z M611.8,248.4c0.6-0.4,1-0.7,1.6-1.1c-0.3-0.1-0.6-0.1-0.7-0.2
		c-0.2-0.1-0.3-0.4-0.3-0.6c0.1-0.4,0.2-0.5-0.1-0.4c-0.3,0-0.6,0.2-0.9,0.3C611.6,247.1,611.7,247.8,611.8,248.4z M599.3,274.7
		c0-0.1,0-0.3,0-0.4c-0.2,0-0.4,0-0.7-0.1c-0.2,0-0.5,0.1-0.6,0c-1.3-0.7-1.3-0.8-2.2,0.5C597,274.7,598.2,274.7,599.3,274.7z
		 M579.1,130.8c1-0.4,0.5-1,0-1.4c-0.6-0.5-1-0.9,0-1.3c0.1,0,0.1-0.4,0.1-0.7C577.1,128.6,578.6,129.7,579.1,130.8z M559,127
		c0,0.1,0.1,0.2,0.1,0.2c0.8,0,1.7,0.1,2.6,0.1c-0.2-0.5-0.3-0.9-0.6-1.3c-0.4-0.6-0.7-0.4-0.8,0.5C559.9,126.7,559.4,126.8,559,127
		z M594.8,342.9c0.1,0,0.2-0.1,0.3-0.1c-0.1-0.8,0.9-1.9-0.7-2.4c-0.2,0.2-0.4,0.6-0.6,0.9c0.3,0.1,0.6,0.3,0.8,0.3
		C594.7,342.1,594.8,342.5,594.8,342.9z M566.4,274.4c-0.6-0.6-1.2-1.3-1.8-0.7c-0.6,0.5-0.4,1.3,0.5,2
		C564.5,274.3,565.5,274.5,566.4,274.4z M607.4,139.3c0.2-0.2,0.3-0.3,0.5-0.5c-1.7,0.7,0.5,1.5-0.4,2.3c0.6-0.4,1-0.7,1.9-1.3
		C608.6,139.6,608,139.5,607.4,139.3z M586.9,151.4c0.3,0.5,0.1,1.7,1.4,1.2c-0.3-0.7-0.6-1.3-0.9-2c-0.5,0.3-0.8,0.5-1.2,0.7
		c0,0.1,0.1,0.2,0.1,0.2C586.4,151.5,586.6,151.5,586.9,151.4z M565.2,121.4c0.4-0.3,0.7-0.5,1.1-0.8c0.1,0.1,0.1,0.1,0.2,0.2
		c-0.1,0.3-0.1,0.6-0.2,0.9c0.4,0.1,0.8,0.1,1,0.1c-0.2-0.5-0.4-1-0.7-1.7c-0.4,0.1-1.1,0.2-1.8,0.4
		C564.9,120.9,565.1,121.2,565.2,121.4z M578.8,180.7c0,0.2,0.1,0.3,0.1,0.5c0.8-0.1,1.6-0.3,2.4-0.4c-0.2-0.6-0.2-1-0.4-1.3
		c-0.1-0.2-0.5-0.2-0.8-0.3c0,0.1,0,0.1-0.1,0.2c0.2,0.2,0.4,0.5,0.9,0.9C580,180.4,579.4,180.5,578.8,180.7z M578.7,293.2
		c-0.3-0.3-0.6-0.6-0.8-0.9c-1.2,1.1-1.2,1.1-0.8,1.7C577.6,293.7,578.1,293.5,578.7,293.2z M596,267.8c0.1-0.1,0.1-0.3,0.2-0.4
		c-0.9-0.3-1.5-0.7-0.6-1.8c-0.6,0.1-1,0.1-1.3,0.3c-0.1,0.1-0.2,0.7-0.1,0.8C594.8,267,595.4,267.4,596,267.8z M567.5,187.1
		c1,0.2,0.1-0.7,0.4-0.9c0.2-0.2,0.3-0.4,0.5-0.5c-0.5-0.3-0.9-0.7-1.4-1C567.1,185.5,567.3,186.1,567.5,187.1z M579.1,118.7
		c0.4-0.5,0.8-0.9,1.3-1.6c-0.5-0.1-0.9-0.4-1.2-0.3C578.1,117.3,579.6,118.1,579.1,118.7z M585.2,149.5c0.2,0.2,0.4,0.4,0.5,0.6
		c0.5,0,1,0.1,1.2,0.1c0.2-0.8,0.3-1.4,0.4-2c0.1,0.1,0.1,0.2,0.2,0.3C586.8,148.8,586,149.2,585.2,149.5z M599.5,319.8
		c0.1-0.1,0.1-0.2,0.2-0.3c-0.3-0.2-0.7-0.5-0.9-0.4c-0.5,0.1-0.9,0.4-1.4,0.6C597.9,320.8,598.7,319.8,599.5,319.8z M606.2,146.5
		c0.1,0.1,0.2,0.2,0.3,0.3c0.3-0.1,0.6-0.3,0.9-0.4c0.7-0.3,0.7-0.7,0-1.3C607,145.6,606.6,146.1,606.2,146.5z M572.2,224.4
		c0.3-1.1-0.6-2-2-1.8C570.9,223.1,571.5,223.7,572.2,224.4z M571.9,336.3c-0.8-0.7-0.2-2.2-1.7-2.2
		C571.1,334.5,569.9,336.5,571.9,336.3z M582.1,107.9c0-0.4,0.1-0.7,0.1-1.2c-1.1,1.2-0.1,1.8,0.5,2.7c0.2-0.8,0.3-1.3,0.5-1.9
		C582.8,107.6,582.5,107.7,582.1,107.9z M606.3,123.1c0.3,0.8,1.1,0.8,1.8,0.6c0.2-0.1,0.3-0.6,0.4-0.9
		C607.7,122.9,607,123,606.3,123.1z M590.1,308.3c-0.1,0-0.3,0-0.4,0c-0.1,0.4-0.2,0.9-0.3,1.3c0.4,0.1,0.8,0.1,1.6,0.3
		C590.6,309.1,590.4,308.7,590.1,308.3z M613.9,215.3c0.5-0.4,0.9-0.8,1.2-1.2c-0.6-0.1-1.2-0.1-1.9-0.2
		C613.5,214.5,613.7,214.8,613.9,215.3z M592.6,162.5c0.2-0.2,0.4-0.6,0.7-1.1c-0.7-0.2-1.3-0.5-2.2-0.8
		C591.6,161.2,592,161.7,592.6,162.5z M565.9,300.7c-0.1-0.8-0.1-1.4-0.2-2.3c-0.5,0.6-0.8,1-1.2,1.5
		C565,300.1,565.4,300.3,565.9,300.7z M608.3,106.4c-0.2,0.1-0.3,0.3-0.5,0.4c0.3,0.5,0.7,0.9,1,1.3c0,0,0.4-0.2,0.5-0.3
		C609,107.3,608.7,106.8,608.3,106.4z M572.6,88.8c0.7,0.7,1.2,1.1,1.7,1.6c0-0.6-0.1-1.2-0.4-1.7C573.7,88.5,573.1,88.7,572.6,88.8
		z M612.9,143.2c-0.9,0.2-1.6,0.3-2.4,0.4c0.8,0.4,1.3,0.6,1.9,0.9C612.5,144.2,612.6,143.8,612.9,143.2z M605.1,142.5
		c0.2,0,0.5,0,0.9,0c-0.4-1.3-1.1-1.7-1.6-1.4C604.6,141.5,604.9,142,605.1,142.5z M576.3,195.4c0.2-0.5,0.5-1.1,0.7-1.7
		c-0.1-0.1-0.2-0.1-0.3-0.2c-0.4,0.5-0.9,0.9-1.4,1.4C575.6,195.1,575.9,195.3,576.3,195.4z M606.2,180.8c-0.1,0.1-0.3,0.2-0.4,0.3
		c0.6,0.7,1.2,1.5,1.9,2.1c0.1,0.1,0.5-0.2,0.8-0.3C607.5,182.6,607.5,182.6,606.2,180.8z M610.4,249.8c0,0.1-0.1,0.2-0.1,0.4
		c0.4,0.2,0.8,0.5,1.2,0.7c0.1-0.4,0.2-0.7,0.3-1.1C611.3,249.8,610.9,249.8,610.4,249.8z M560.1,262.4c-0.1,0-0.2,0-0.2-0.1
		c-0.1,0.6-0.2,1.3-0.1,1.9c0,0.1,0.7,0.1,1,0.2C560.4,263.6,560.2,263,560.1,262.4z M577.8,266.5c0.5,0,0.9,0,1.3,0
		c0-0.7,0-1.3,0-2.1C578.6,265.2,578.2,265.8,577.8,266.5z M562.8,284.1c0.1,0.1,0.2,0.2,0.3,0.2c-0.2,0.3-0.5,0.7-0.8,1.1
		c0.6,0,1.1,0,1.6,0.1c-0.2-0.7-0.4-1.3-0.7-2.2C562.9,283.8,562.9,284,562.8,284.1z M584.7,327.7c1,0-0.5,1.7,0.9,1.3
		c0.3-0.1,0.4-0.8,0.7-1.3C585.6,327.7,585.2,327.7,584.7,327.7z M561.2,234.4c0,1.1,1.1,1,1.7,1.3c0,0,0.1,0,0.2-0.1
		c0-0.2,0-0.3,0-0.5c0-0.2-0.1-0.3,0-0.2C562.3,234.7,561.8,234.6,561.2,234.4z M615.6,329.2c0-0.1,0-0.3,0.1-0.4
		c-0.7-0.1-1.4-0.2-2.3-0.4C614,330,615,328.8,615.6,329.2z M594,254.7c0,0.1,0,0.2,0,0.4c0.7-0.1,1.3-0.2,2-0.4
		C595.3,253,594.6,254.5,594,254.7z M560.8,143.2c-1.1-0.2-1.1-0.2-1.5,1.6C559.8,144.3,560.3,143.8,560.8,143.2z M574.8,162.3
		c-0.2,0.5-0.4,0.9-0.6,1.3c1,0.6,1.2-0.3,1.6-0.8C575.4,162.6,575.1,162.4,574.8,162.3z M573.8,147.5c-0.1,0.1-0.1,0.3-0.2,0.4
		c0.5,0.2,1,0.6,1.6,0.7c0.3,0.1,0.7-0.1,1.1-0.1c0-0.1,0-0.1,0-0.2C575.4,148,574.6,147.7,573.8,147.5z M565.4,109.8
		c0.1-0.1,0.2-0.1,0.3-0.2c-0.2-0.3-0.3-0.7-0.6-0.8c-0.6-0.4-1.3-0.5-1.8,0.4c0.1,0.2,0.3,0.3,0.5,0.6
		C564.7,108.2,565,109.2,565.4,109.8z"/>
	<path class="st5" d="M457.4,333.1c-0.1-0.2-0.3-0.4-0.5-0.7c0.4,0,0.6,0,0.8,0c0-0.1,0.1-0.1,0-0.2c-0.7-0.3-0.6-0.8-0.7-1.2
		c-0.1-1.8,0-3.7,0-5.5c0-0.2,0.3-0.4,0.5-0.5c-0.3-1-0.9-2-0.1-3c0.1-0.1-0.1-0.2-0.2-0.4c-0.1-0.2-0.2-0.4-0.2-0.5
		c0-1.9,0.2-3.9,0.2-5.8c0-0.8-0.2-1.5-0.2-2.3c0-0.2,0.4-0.4,0.6-0.5c0.1,0,0.2,0.1,0.4,0.1c-0.2,0.1-0.3,0.3-0.5,0.5
		c0.4,0,0.6,0,1,0c-0.1-0.2-0.1-0.3-0.2-0.4c1,0,1.9-0.1,2.8-0.1c0-0.1,0-0.2,0-0.3c-1.3-0.1-2.6-0.1-4-0.2c0-0.4-0.1-0.8,0-1.1
		c0.6-1-0.2-2.1-0.1-3.1c0.1-0.7,0.3-1.4,0.1-2.1c-0.3-0.7-0.1-1.5,0-2.2c0-0.3,0.3-0.5,0.4-0.8c-0.7-0.7-0.3-1.4-0.4-2.2
		c0.3,0,0.6,0,0.9,0c0,0,0-0.1,0.1-0.1c-0.3,0-0.6-0.1-0.9-0.2c0-0.1-0.1-0.2-0.1-0.3c0-1.7,0-3.4,0-5.1c0-0.6-0.2-1.3,0-1.9
		c0.2-0.7,0.2-1.3,0-1.9c-0.1-0.3,0.2-0.5,0.4-0.8c-0.1-0.2-0.4-0.5-0.4-0.8c0-2,0.1-4.1,0.1-6.1c0-0.7-0.1-1.5-0.1-2.2
		c0-0.3,0.3-0.6,0.3-0.8c0-0.2-0.3-0.4-0.3-0.6c0-2.9,0-5.8,0-8.7c0-0.4,0.3-0.6,1-0.6c1.1,0.1,2.2,0.2,3.3,0.2
		c0.7,0,1.4-0.2,2.1-0.2c5.2,0,10.3,0,15.5,0c1,0,2.1,0.2,3.1,0.2c1.7,0,3.4-0.2,5.1-0.2c2.2,0,4.3,0.1,6.5,0.1
		c0.6,0,1.3-0.2,1.9-0.1c2.1,0.3,4.3-0.2,6.4,0.1c0.5,0.1,1.1,0.2,1.4,0.2c0.7-0.1,1.3-0.2,1.8-0.3c0.8,0,1.6-0.1,2.4,0
		c1.2,0.1,2.4,0,3.6,0c1.4,0,2.7,0,4.1,0c0.5,0,0.9,0.1,1.5,0.2c0.2,0,0.5-0.1,0.8-0.2c0.1,0.2,0.4,0.4,0.4,0.5c0,2.2,0,4.4,0,6.6
		c0,1.1-0.2,2.3-0.2,3.4c0,1.1,0.1,2.1,0.2,3.2c0,0.2-0.3,0.4-0.3,0.6c0,0.2,0.3,0.5,0.3,0.7c0,1.8,0,3.7,0,5.5c0,2.2,0,4.4,0,6.6
		c0,2.8,0.1,5.6-0.1,8.4c-0.1,1.3,0.2,2.6,0.1,3.9c-0.1,1.3,0,2.6,0,3.9c0,4.3,0,8.5,0,12.8c0,2.1,0,4.1,0,6.2
		c0,0.7-0.3,1.1-1.7,1.2c0.2,0,0.5,0.1,0.7,0.1c0.7-0.1,1.1-0.1,1,0.4c-0.1,2.3,0,4.6,0,6.8c0,0.3,0,0.5,0,0.8
		c-0.1,0.4-0.4,0.9-0.4,1.3c0,0.4,0.3,0.8,0.4,1.3c-2.9,0-5.5,0-8,0c-0.3,0-0.5-0.2-0.7-0.3c-0.5,0.1-1,0.3-1.5,0.3
		c-4.2,0-8.4,0-12.7,0c-3,0-6,0-9,0c-0.5,0-0.9-0.2-1.4-0.2c-0.2,0-0.4,0-0.6,0.1c-1.1,0.2-2.2,0.4-3.2-0.1c-0.1,0-0.3-0.1-0.4-0.1
		c-1.9,0.6-3.9,0.3-5.8,0.3c-1.1,0-2.3-0.2-3.4-0.1c-2.8,0-5.5,0.1-8.3,0.2c-1.1,0-2.2,0-3.3,0c-0.2,0-0.5,0-0.5-0.1
		c-0.1-0.4-0.4-0.2-0.8-0.1c-0.3,0.1-0.6,0.2-0.9,0.1c-0.2,0-0.3-0.3-0.3-0.5c0-1.6,0-3.3,0-4.9c0-1.9,0-3.8,0-5.7
		C457,333.6,457.3,333.4,457.4,333.1z M501.7,287.6c-0.7-0.4-0.5-1.2-1.5-1.2c-0.7,0.5-1.1,0.8-1.6,1.2c0,0.1,0.1,0.1,0.1,0.2
		c0.6-0.2,1.3-0.4,2-0.6c0,0.2,0,0.4,0,0.6C501.1,287.7,501.3,287.6,501.7,287.6z M489.4,306.7c0.1-1.2-0.5-1.7-2-1.6
		C488.1,305.6,488.8,306.1,489.4,306.7z M462.3,336.3c-1,0.1-1.8,0.1-2.7,0.1c-0.3,0-0.6,0-0.9,0c0.3,0.2,0.5,0.4,0.8,0.5
		C460.7,337,461.4,336.7,462.3,336.3z M484.4,343.1c0.6-0.2,1.6-0.2,1-0.8c-0.1-0.1-0.7-0.3-0.9-0.2
		C483.6,342.2,484.1,342.6,484.4,343.1z M507.6,318.1c-0.2-0.2-0.3-0.3-0.5-0.4c0,0-0.4,0.1-0.5,0.1c-0.2,0.3-0.4,0.6-0.6,1.1
		c0.8-0.3,2-0.2,1.9-1c0,0-0.1-0.1-0.1-0.1C507.7,317.8,507.6,317.9,507.6,318.1z M482.8,329.1c0.5-0.7-0.4-0.9-0.8-1.2
		c0,0-0.1,0-0.2,0c-0.2,0.2-0.3,0.3-0.4,0.5C481.8,328.7,482.3,328.9,482.8,329.1z M483.8,339.6c0.1,0,0.2,0.1,0.4,0.1
		c0.2-0.2,0.5-0.4,0.7-0.7c0-0.1-0.2-0.2-0.3-0.3c-0.4-0.1-0.8-0.1-1.4-0.1C483.3,339,483.6,339.3,483.8,339.6z M497.7,285.8
		c-0.1,0-0.2,0-0.3,0c-0.1,0.3-0.3,0.6-0.5,0.9c1,0.3,1.4,0.3,1.7-0.1c0.1-0.1,0-0.2-0.1-0.4c-0.3,0.2-0.5,0.3-0.9,0.6
		C497.7,286.3,497.7,286,497.7,285.8z M485.1,304.8c-0.6-0.2-1.2-0.4-1.9-0.5C483,304.9,483.5,305.1,485.1,304.8z M473.5,312.1
		c-0.1,0-0.2,0-0.3,0.1c-0.2,0.3-0.3,0.7-0.5,1.1c0.3,0,0.7,0,1.3-0.1C473.8,312.7,473.6,312.4,473.5,312.1z M484.4,336.2
		c0.1-0.1,0.2-0.1,0.3-0.2c-0.2-0.1-0.4-0.3-0.6-0.4c-0.2-0.1-0.5-0.3-0.7-0.4c-0.3,0.1-0.5,0.2-0.8,0.3
		C483.2,335.7,483.8,335.9,484.4,336.2z M505.9,333.2c-0.1,0.2-0.1,0.5-0.2,0.7c0.5,0,1.4,0.1,1.5,0
		C507.9,333.3,506.1,333.8,505.9,333.2z M476.6,281.8c-0.4-0.1-0.7-0.2-1.3-0.4c0.3,0.3,0.5,0.4,0.6,0.5c-0.4,0.3-0.8,0.6-1.2,1
		c0.1,0.1,0.2,0.1,0.4,0.2C475.5,282.7,476,282.3,476.6,281.8z M495.7,287.8c0.9,0.1,1.5,0.1,2.3,0.2c-0.4-0.4-0.7-0.6-0.9-0.8
		C496.7,287.4,496.4,287.5,495.7,287.8z M471.1,307.7c0-0.1,0.1-0.1,0.1-0.2c-0.4-0.2-0.7-0.4-1.2-0.6c-0.1-0.1-0.5,0-0.7,0.1
		c-0.1,0,0,0.2,0.1,0.3C470,307.5,470.6,307.6,471.1,307.7z"/>
	<path class="st5" d="M137.2,344.3c0,0,0.2,0.1,0.4,0.2c0,0.1,0,0.2,0,0.3c-4.3,0-8.6,0-12.8,0c-0.2,0-0.5-0.2-0.9-0.3
		c-0.9,0.1-2,0.3-3.1,0.3c-2.5,0.1-5,0-7.4,0c-0.4,0-0.7-0.2-1.2-0.4c-0.1,0.1-0.4,0.4-0.7,0.4c-4,0-8-0.1-12.1-0.1
		c-0.5,0-1.1,0.1-1.6,0.1c-5.6,0-11.1,0-16.7,0c-1.3,0-2.6,0-3.8,0c-0.1-2.8-0.3-5.5-0.3-8.2c-0.1-2.7,0-5.5,0-8.2
		c0-2.6,0.3-5.2,0.2-7.8c-0.1-2.6,0.1-5.2,0.1-7.7c-0.1-2.7,0-5.4,0-8.1c0-2.7,0-5.4,0-8.1c0-2.6,0-5.2,0.2-7.8
		c-0.1-0.5-0.3-0.9-0.3-1.4c-0.1-1.4-0.1-2.8,0-4.1c0.1-5.9,0.2-11.8,0.2-17.6c0-3.8,0.1-7.6,0.1-11.4c0-1-0.1-2-0.1-3
		c0-0.3,0.4-0.6,0.6-0.9c-0.8-0.8-0.9-3.3-0.2-4.5c-0.2-0.1-0.4-0.2-0.5-0.2c0-1.8-0.1-3.6,0-5.4c0.2-2-0.1-3.9,0-5.9
		c0.1-2.2,0.1-4.4-0.1-6.5c-0.1-0.8,0.6-1.5,0.2-2.4c-0.4-0.7-0.1-1.7-0.1-2.6c0-0.4,0.3-0.7,0.4-1.1c-0.1-0.3-0.4-0.8-0.4-1.3
		c-0.1-1.3,0-2.6,0-4c0.5,0,1,0,1.4,0c7,0,13.9,0,20.9,0c0.9,0,2-0.3,1.6,1.5c0.1,0,0.2-0.1,0.3-0.1c0.1-0.4,0.3-0.8,0.5-1.4
		c3.8,0.3,7.7-0.5,11.4,0.5c0.8-1,1.8-0.2,2.6-0.5c0.2,0.4,0.3,0.6,0.5,1c0.4-0.3,0.8-0.9,1.1-0.9c2.7,0.3,5.6-0.8,8.3,0.7
		c-0.2-0.2-0.3-0.5-0.5-0.7c4,0,8.1,0,12.4,0c0,2.9,0.2,5.7-0.1,8.6c-0.1,0.7,0.2,1.3,0.2,2c-0.1,5.2,0,10.4,0,15.6c0,2.5,0,5,0,7.5
		c0,0.7,0.4,1.5-0.5,2c0,0,0.3,0.6,0.4,0.9c0.1,0.2,0.1,0.4,0.1,0.7c0,4.1,0,8.2,0,12.2c0,1.9,0,3.7,0,5.6c0,0.4-0.2,0.8-0.2,1.3
		c0,0.4,0.2,0.9,0.2,1.3c0,2.8,0,5.5,0,8.3c0,0.3-0.4,0.7-0.5,0.8c0.2,0.7,0.5,1.3,0.5,1.8c0,2.9,0,5.8-0.1,8.8
		c0,0.3-0.4,0.5-0.4,0.5c0.2,0.6,0.5,0.9,0.5,1.3c0,3.8,0,7.6,0,11.4c-0.2,0-0.4,0-0.8-0.1c2,1.6-0.1,2.5-0.5,3.7c0.5,0,0.8,0,1.3,0
		c0,3.1,0,6.2,0,9.3c0,2,0,4,0,6c0,5.7,0,11.4,0,17C137.6,343.5,137.3,343.8,137.2,344.3z M100.9,243.6c1,0.9,1.4-0.4,2-1.1
		c0.1-0.2-0.2-0.7-0.3-1.1c0.2,0.3,0.3,0.6,0.5,0.8C102.4,242.7,101.7,243.1,100.9,243.6z M133.6,263.7c-0.1-0.1-0.3-0.3-0.4-0.4
		c-0.7,0.6-1.3,1.2-2.1,1.9c0.7,0,1.2,0.1,1.3,0.1C132.9,264.7,133.2,264.2,133.6,263.7z M96.8,234.7c-0.5,0.2-0.8,0.4-1.2,0.5
		c0.4,1.7,0.4,1.7,1,1.6C96.7,236.2,96.7,235.5,96.8,234.7z M131.5,291.6c0.1-0.1,0.3-0.2,0.5-0.4c-0.8-0.9,0.4-1,0.5-1.6
		c0-0.1,0.1-0.2,0.1-0.3c-0.1-0.1-0.3-0.2-0.4-0.2c-0.6,0.5-1.2,0.9-1.9,1.4C130.9,291.1,131.2,291.3,131.5,291.6z M96.9,269.3
		c-0.6-0.1-1.3-0.3-1.8-0.1c-0.5,0.2-1.3,0.5-1.2,1.3C94.8,270,95.7,269.7,96.9,269.3z M105.3,330.5c-0.1,0.6-0.2,1.2-0.3,1.9
		c0.7-0.3,1.2-0.5,1.6-0.6c0.1-0.1,0.2-0.2,0.3-0.3C106.4,331.1,106,330.8,105.3,330.5z M126.7,243.9c1.7,0.2,2.2-0.3,2.2-1.7
		c-0.4,0-0.7-0.1-1.3-0.1C128.6,242.9,128.5,243.1,126.7,243.9z M90.1,298.2c0.1,0,0.3,0,0.4-0.1c0.1-0.5,0.2-1,0.2-1.5
		c0-0.1-0.7-0.2-1.3-0.3C89.7,297.1,89.9,297.7,90.1,298.2z M116.6,308.6c0.7,0.3,1.2,0.7,1.6,0.6c0.5-0.1,0.9-0.7,1.4-1
		c-0.1-0.2-0.2-0.4-0.3-0.7C118.8,309.5,117.7,308.1,116.6,308.6z M108.7,319.9c-0.3-0.6-0.5-1-0.7-1.4c-0.5,0.4-1,0.7-1.5,1.1
		C107.3,319.7,107.8,319.7,108.7,319.9z M83.8,295c0.3,0.5,0.5,0.8,0.7,1.1c0.4-0.4,0.9-0.7,1.3-1.1c0-0.1-0.1-0.2-0.1-0.3
		C85,294.8,84.5,294.9,83.8,295z M77.1,280.8c0.3,0.2,0.5,0.4,0.7,0.6c-0.2,0.4-0.3,0.7-0.6,1.3c0.6-0.2,1-0.3,1.5-0.5
		C78.2,281.7,78.6,280.5,77.1,280.8z M112.5,243.8c-0.1,0-0.2,0-0.2,0.1c0,0.3,0,0.7,0.1,0.9c0.1,0.1,0.6,0.1,0.8,0
		c0.6-0.2,1.1-0.5,1.6-0.7c0-0.1,0-0.1,0-0.2c-0.6,0.1-1.2,0.2-1.9,0.3C112.8,244.2,112.7,244,112.5,243.8z M120.8,295.8
		c-0.1,0-0.2,0.1-0.2,0.1c0.1,0.4,0.3,0.9,0.4,1.3c0.4-0.2,0.8-0.4,1.1-0.5C121.7,296.5,121.3,296.1,120.8,295.8z M78.6,340.4
		c0.5,0.8,1.9,0.4,1.9,1.5c0.1-0.1,0.3-0.1,0.4-0.2c0,0,0-0.1,0,0c-0.3-0.6-0.6-1.1-0.9-1.5C79.7,340.2,79.3,340.3,78.6,340.4z
		 M99.8,233.3c-0.1,0.1-0.1,0.3-0.2,0.4c0.3,0.2,0.6,0.4,0.9,0.6c0.2,0.1,0.3,0.3,0.5,0.4c0.1-0.3,0.3-0.8,0.2-0.9
		C100.8,233.7,100.3,233.5,99.8,233.3z M91,320c-0.9-1.1-0.9-1.1-2.2,0C89.6,320,90.3,320,91,320z M101.2,300.2
		c0.6,0.4,1.3,0.8,1.9,1.1C102.8,300.5,102.6,299.5,101.2,300.2z M127.3,317.2c0.7,1.3,1.7,1,2.5,1.3c0.1-0.1,0.1-0.2,0.2-0.4
		C129.2,317.9,128.4,317.6,127.3,317.2z M99.3,245.7c0.6,1.5,1.9,0.1,2.6,0.7c0-0.2,0.1-0.3,0.1-0.5
		C101.2,245.9,100.3,245.8,99.3,245.7z M127.6,301.8c-0.9-0.2-1.6-0.4-2.3-0.6c0,0.2-0.1,0.4-0.1,0.5
		C126,301.1,126.5,303.3,127.6,301.8z M109,289.3c-0.7-0.1-1.2-0.3-1.6-0.2c-0.3,0-0.5,0.3-0.7,0.5c0.2,0.1,0.5,0.4,0.6,0.4
		C107.8,289.9,108.3,289.6,109,289.3z"/>
	<text transform="matrix(1 0 0 1 72.6159 380.4221)" class="st5 st3 st6">English playlists</text>
	<g>
		<text transform="matrix(1 0 0 1 195.9575 18.0789)"><tspan x="0" y="0" class="st5 st3 st7">average Time spent in all playlists vs.</tspan><tspan x="66.6" y="20.4" class="st5 st3 st7">redirect method playlists</tspan></text>
	</g>
	<text transform="matrix(1 0 0 1 457.8174 380.4219)" class="st5 st3 st6">Arabic playlistS</text>
	<g>
		<g>
			<path class="st5" d="M18.1,0c4.4,7.5,8.5,14.8,12.9,22.3c-3.3,0.8-6.4,0.2-9.8,0.5c-0.2,1.5-0.4,3.1-0.4,4.6
				c0.1,5.5,0.2,11-0.1,16.5c-0.1,2.5,0.3,4.9,0,7.4c-0.3,2.4,0.1,4.9,0.1,7.3c0,2.5,0,4.9,0,7.4c0,1.6,0.4,3.2-0.5,4.6
				c0.9,1.2,0.5,2.5,0.6,3.8c0,2.2-0.2,4.4,0,6.7c0.1,2.3,0,4.6,0,6.9c0,2.3,0,4.6,0,6.9c0,2.3,0,4.6,0,6.9c0,6.1,0,12.2,0,18.3
				c0,4,0.2,8,0,12c-0.2,2.9,0.1,5.8,0,8.7c0,0.7,0.2,1.6-1.3,1.5c1.4,0.4,1.4,1.3,1.3,2.2c-0.1,2.3-0.4,4.6-0.3,6.9
				c0,5.2,0.2,10.4,0.3,15.5c0,1.1,0,2.1-1.5,2.5c1.2,0.9,1.6,1.7,1.6,3c-0.1,3.1,0.1,6.2-0.1,9.4c-0.1,1.6-0.3,3.2-0.1,4.8
				c0.2,1.6,0.4,3.3,0.4,4.9c0,0.9-0.2,1.8-0.3,2.8c0,0.2-0.3,0.5-0.2,0.6c1.4,2.7,0,5.7,0.5,8.5c0.2,1.3-0.2,2.8,0.1,4.2
				c0.3,1.7-0.5,3.2-0.1,5c0.4,1.6,0,3.3,0,5c0,6.5,0.1,13,0.1,19.5c0,6.5-0.2,13-0.2,19.5c0,9.4,0.2,18.8,0.2,28.3
				c0,4.9,0.1,9.7-0.2,14.6c-0.2,2.8,0.3,5.5,0.2,8.2c-0.1,2.9,0,5.8,0,8.6c0,8.4,0,16.7,0,25.1c0,0.4,0.1,0.8,0.1,1.4
				c0.8,0.1,1.6,0.1,2.3,0.1c4.2,0,8.5-0.1,12.7,0c0.7,0,1.3,0.4,2.1,0.7c1-1.6,2.8-0.9,4.1-0.7c4.7,0.8,9.3,0.1,13.9,0.2
				c5.9,0.2,11.8,0,17.6,0c8,0,15.9,0.1,23.9,0.1c6.9,0,13.7-0.1,20.6-0.2c3.6,0,7.1,0.1,10.7,0.2c0.1,0.4,0.3,0.9,0.5,1.8
				c0.5-0.9,0.8-1.3,1.2-2c4.8,0.1,9.8,0.3,14.7,0.3c2.9,0,5.9-0.2,8.8-0.2c17,0,34.1,0,51.1,0c4.2,0,8.5,0.2,12.7,0.2
				c1.4,0,2.9-0.3,4.3-0.3c0.8,0,1.5,0.3,2.3,0.5c0.3,0.1,0.6,0.2,0.9,0.1c3.8-1.3,7.8-0.4,11.6-0.6c7.1-0.4,14.1-0.4,21.2-0.1
				c4.8,0.2,9.5,0,14.3,0.1c0.6,0,1.5-0.4,1.8,0.7c0,0.1,0.2,0.1,0.4,0.1c0.3-1.6,1.6-0.8,2.3-0.8c6.5,0,13.1,0.1,19.6,0.2
				c3.7,0,7.5,0.2,11.2,0.2c4,0,8-0.2,12-0.2c0.9,0,1.8,0.3,2.7,0.4c0.2,0,0.5,0.1,0.7,0.1c3.7-0.9,7.4-0.4,11.2-0.3
				c2.9,0.1,5.9-0.2,8.8-0.2c6.1,0,12.1,0.2,18.2,0.2c3.8,0,7.6-0.2,11.5-0.2c0.9,0,1.7,0.4,2.8,0.6c0.7-0.2,1.6-0.6,2.5-0.6
				c10.7,0,21.4,0,32,0c2.9,0,5.8,0.5,8.7,0.2c5.1-0.6,10.2-0.2,15.3-0.3c4.9-0.1,9.7-0.1,14.6-0.1c6.7,0,13.4,0.1,20,0.2
				c2.4,0,4.8-0.2,7.2-0.2c1.1,0,2.3-0.2,2.7,1.4c0,0.1,0.5,0.1,1.1,0.1c-0.3-0.5-0.5-0.8-0.7-1.1c0.1-0.1,0.2-0.3,0.4-0.3
				c3.6,0,7.2-0.1,10.8-0.1c7,0,14,0.1,21,0.1c7.7,0,15.3-0.1,23-0.1c6.7,0,13.4,0,20.1,0c2.2,0,4.4-0.2,6.6,0c3,0.2,5.9-0.1,8.9,0
				c3,0,6.1,0,9.1,0c3,0,6.1-0.1,9.1-0.1c3.1,0,6.2,0,9.3,0.1c0.6,0,1.3,0.4,2.3,0.7c0.4-0.4,1.3-0.8,2.5-0.8
				c10.8,0.1,21.5,0.1,32.3,0.1c1.3,0,2.7-0.4,4-0.4c1.2,0,2.4,0.3,3.9,0.5c0,0,0.3-0.5,0.5-0.4c2.2,0.1,135.3-0.6,137.5,0.4
				c0.1,0.1,0.3,0.3,0.4,0.2c2.4-1.4,5.1-0.2,7.6-0.7c0.1,0,0.1-0.1,0.4-0.4c0-2.5,0-5.3,0-8.1c2.2-0.1,3.6,1.2,5.1,2.1
				c4.9,2.7,9.7,5.5,14.5,8.4c0.9,0.5,1.7,1.1,2.7,1.8c-3.2,2.8-6.9,4.9-10.7,6.9c-0.5,0.3-1.2,0-2,0c0,0.2,0,0.7,0,1.4
				c-2.8,1.5-5.7,3.1-8.9,4.8c-1.2-3.2,0.1-6.3-0.9-9.6c-1.2-0.1-2.5-0.4-3.8-0.4c-8.2-0.1-147.3-0.1-155.6-0.1
				c-6.1,0-12.1,0.1-18.2,0c-3.4,0-6.9,0.2-10.3-0.1c-3.1-0.3-6.1,0.3-9.2,0.1c-4-0.3-8,0-12.1,0c-6.1-0.1-12.2-0.1-18.3-0.1
				c-5.8,0-11.7,0.2-17.5,0.1c-4.6,0-9.2-0.3-13.8-0.4c-2,0-4.1,0.3-6.1,0.3c-4.2,0-8.4-0.2-12.6-0.2c-3.9,0-7.8,0.2-11.6,0.2
				c-1.7,0-3.5-0.3-5.2-0.3c-1.8,0-3.6,0.2-5.4,0.2c-6.9,0-13.8,0-20.7,0.1c-3.2,0-6.4,0.1-9.6,0c-1.1,0-2.2-0.3-3.4-0.5
				c-0.5,0.1-1.2,0.5-1.9,0.5c-7.5,0-15,0-22.4,0c-6.8,0-13.5-0.2-20.3-0.2c-5.7,0-11.3,0.2-17,0.1c-8.3-0.1-16.6,0.1-24.9,0
				c-13.2-0.1-26.5-0.1-39.7-0.1c-1.2,0-2.4,0-3.6,0.1c-0.8,0-1.6,0-2.2-0.7c-0.7,0.7-1.5,0.7-2.4,0.7c-10.2,0-20.3,0.1-30.5-0.1
				c-3.2,0-6.4,0.2-9.7,0.1c-2.7-0.1-5.4-0.4-8.2,0c-2.7,0.3-5.4,0-8.1,0c-2.8,0-5.6,0-8.4,0c-0.8,0-1.7-0.3-2.5-0.4
				c-0.3,0-0.7,0-1,0.1c-0.4,0.1-0.9,0.3-1.3,0.3c-2-0.2-4,0.1-6,0.1c-2,0-4,0.1-6,0c-1,0-2-0.4-2.9-0.5c-0.4,0-0.8,0.4-1.3,0.5
				c-1.3,0.1-2.6,0.1-3.8,0c-6.5-0.1-13.1-0.2-19.6-0.2c-9.1,0-18.2,0.1-27.3,0.2c-6.1,0-12.1,0.2-18.1-0.1
				c-2.8-0.1-5.5,0.4-8.3,0.1c-2.8-0.2-5.6,0-8.3,0c-1.5,0-1.5,0-2.5-1c-0.9,0.9-1.9,1.2-3.3,0.8c-1.2-0.4-2.7,0.2-4,0.2
				c-9.1,0-18.2-0.1-27.3-0.1c-5.4,0-10.9,0.1-16.3,0.1c-1.8,0-3.6-0.4-5.4-0.4c-1.1,0-2.2,0.4-3.2,0.4c-3.5,0.1-7,0-10.5,0.1
				c-1.6,0.1-3.2-0.5-4.9-0.2c-1.6,0.2-3.3,0.4-5,0.2c-1.7-0.2-3.5-0.1-5.3-0.1c-7.2,0-14.3,0-21.5,0c-7.8,0-15.6,0-23.4,0
				c-0.5,0-0.9,0-1.5,0c-1.1-2.2-0.6-4.4-0.7-6.6c-0.1-6.7,0-13.4,0-20.1c0-4.5,0-9.1,0-13.6c0-6.5,0-13,0-19.5c0-0.6,0-1.3,0-2
				c0.4-0.1,0.8-0.1,1.2-0.1c0-0.1,0-0.3,0-0.4c-0.5-0.4-1.1-0.6-1-1.6c0.1-2.1,0.2-4.2-0.2-6.2c-0.2-1,1-1.5,0.6-2.5
				c-0.4-0.8-0.4-1.8-0.5-2.8c-0.1-1.3,0.3-2.7,0.1-4c-0.5-3.5-0.8-7-0.4-10.5c0.6-5.3,0.2-10.5,0.3-15.8c0.1-3.4-0.1-6.7,0.1-10.1
				c0.1-2.3,0.2-4.7-0.1-7c-0.1-1.1,1.1-1.9,0.3-3.2c-0.5-0.9,0-2.3,0-3.5c-0.1-2.2-0.2-4.5-0.2-6.7c0-3.6,0-7.2,0.1-10.8
				c0-0.9,0.4-1.8,0.6-2.9c-0.7-0.6-0.9-1.5-0.4-2.7c0.2-0.4-0.2-1-0.2-1.6c0-2.5-0.1-5,0-7.4c0-0.4,0.2-0.7,0.4-1.1
				c0.1-0.3,0.4-0.6,0.3-0.7c-1.1-1.6-0.6-3.4-0.6-5c-0.1-4.6,0-9.3,0-13.9c0-10.6,0-21.2,0-31.8c0-0.3,0.1-0.6,0.1-0.9
				c0.4,0,0.8,0,1.2,0c-1.3-1-1.3-1-1.3-2.7c0-13.6,0-27.1,0-40.7c0-0.6,0.1-1.3,0-1.9c-0.1-1.1,0.5-1.6,1.6-1.8
				c-0.4-0.1-0.8-0.2-1.6-0.3c0-2.6,0-5.3,0-7.9c0-6.7,0-13.3,0-20c0-5.5,0-11,0.2-16.4c0.1-1.7-0.3-3.4,0.3-5.1
				c0.3-0.8-0.4-1.9-0.5-2.8c-0.1-4,0-8,0-12.2H5.2c0.5-1.5,0.5-2.6,1.5-3.4c5-4,8.2-9.9,9.5-16.2C16.5,1.8,17,1.5,18.1,0z
				 M792.3,340.1c-1.1,0.2-1.8,0.3-2.7,0.4C790.5,341.5,791.2,341.5,792.3,340.1z M17,33.7c-1.2-0.2-1.2-0.2-1.4,0.8
				C16,34.3,16.4,34,17,33.7z M18.1,134.7c-0.3-0.3-0.5-0.5-0.6-0.7c-0.2,0.2-0.5,0.4-0.5,0.6c0,0.2,0.2,0.4,0.4,0.7
				C17.6,135.1,17.8,135,18.1,134.7z M16.5,330.9c0.1,0.1,0.2,0.3,0.3,0.4c0.3-0.2,0.5-0.4,0.7-0.6c0,0-0.2-0.4-0.2-0.3
				C17,330.5,16.8,330.7,16.5,330.9z M332.9,345.6c0.2,0,0.4-0.1,0.6-0.1c-0.1-0.4-0.2-0.9-0.2-1.3c-0.2,0-0.3,0-0.5,0.1
				C332.8,344.7,332.8,345.1,332.9,345.6z M352,344.8c0-0.1,0.1-0.2,0.1-0.3c-0.3-0.1-0.5-0.3-0.8-0.4c-0.2,0-0.4,0.1-0.6,0.2
				c0,0.1,0,0.2,0.1,0.3C351.2,344.7,351.6,344.7,352,344.8z M297.9,345.1c-0.1-0.1-0.2-0.2-0.2-0.3c-0.4,0.3-0.8,0.5-1.1,0.8
				c0.1,0.1,0.2,0.3,0.3,0.4C297.2,345.6,297.5,345.3,297.9,345.1z M50.5,346.7c-0.2,0.1-0.3,0.2-0.3,0.2c0,0,0,0.1,0.1,0.2
				c0.3,0.2,0.7,0.4,1,0.6c0.1-0.1,0.1-0.2,0.2-0.4C51.1,347.1,50.8,346.8,50.5,346.7z M463.2,346.8c-0.1,0.2-0.1,0.4-0.2,0.5
				c0.5,0.1,1,0.3,1.5,0.4c0.1-0.2,0.1-0.3,0.2-0.5C464.2,347.1,463.7,347,463.2,346.8z M156.4,348.6c-0.6-0.2-0.9-0.4-1.1-0.4
				c-0.2,0.1-0.4,0.4-0.6,0.6c0.2,0.1,0.5,0.4,0.7,0.3C155.7,349.2,155.9,348.9,156.4,348.6z"/>
		</g>
	</g>
	<g>
		<g>
			<path class="st1" d="M634.3,231.6c-0.2-0.4-0.4-0.6-0.8-0.1c0.2,0.2,0.4,0.3,0.6,0.5c0.1,0.1,0.2,0.3,0.2,0.5c0,0.6,0,1.3,0,1.9
				c-0.4,0.2-0.8,0.1-1.2-0.1c-0.8-0.5-1.7-0.9-2.5-1.4c-0.8-0.6-1.8-1-2.6-1.5c-2.1-1.3-4.2-2.4-6.4-3.7c-2.3-1.3-4.6-2.7-6.9-4
				c-1.7-1-3.4-1.9-5.1-2.9c-0.4-0.2-0.8-0.5-1.2-0.6c-0.3-0.2-0.5-0.3-0.5-0.8c-0.1,0.1-0.2,0.2-0.4,0.3c-0.7-0.4-1.3-0.8-2-1.1
				c0.1-0.2,0.1-0.3,0.2-0.6c-0.3,0.1-0.4,0.2-0.7,0.3c-0.9-0.5-1.8-1-2.8-1.5c-0.5-0.3-0.2-0.7-0.4-1.1c-0.2,0.1-0.4,0.3-0.6,0.4
				c-0.3-0.5-0.3-0.8,0.2-1.1c1.5-0.9,3.1-1.7,4.6-2.6c1.4-0.8,2.7-1.6,4.1-2.3c0.7-0.4,1.4-0.8,2.1-1.1c0.7-0.3,1.3-0.8,2-1.2
				c0.8-0.5,1.7-1,2.5-1.5c0.4-0.3,0.8,0.1,1.2-0.1c-0.1-0.2-0.2-0.3-0.3-0.5c0.6-0.1,1.1-0.2,1.6-0.3c0-0.2,0-0.4,0.1-0.5
				c0.5-0.3,0.9-0.7,1.5-0.8c0.1,0,0.2,0,0.2,0c0.8-0.9,1.9-1.2,2.8-1.8c1.5-1,3.1-1.8,4.7-2.7c1.3-0.7,2.5-1.5,3.8-2.2
				c0.1-0.1,0.3-0.2,0.5,0c0.1,0.1,0.4,0,0.7,0c-0.2-0.2-0.3-0.3-0.3-0.4c0,0,0,0,0-0.1c0.7,0,0.7,0,0.7,0.5c0,0.7,0,1.5,0,2.3
				c-0.2,0-0.4,0-0.6,0c0,0.1,0,0.1,0,0.2c0.7,0.7,0.6,1.6,0.6,2.5c0,1.5,0,3,0,4.5c0,1.4,0,2.9,0,4.3c-0.2,0.1-0.3,0.2-0.6,0.3
				c0.2,0.1,0.4,0.2,0.5,0.3c0,0.8,0,1.5,0,2.3c-0.2,0.1-0.3,0.1-0.5,0.2c0.2,0.2,0.3,0.3,0.5,0.5c0,0.5,0,1.1,0,1.8
				c0,0.6,0,1.3,0,1.9s0,1.3,0,1.9c0,0.6,0.2,1.3-0.2,1.9c0.5,0.6,0.2,1.2,0.2,1.8c0,0.6,0,1.3,0,1.9c0,0.6,0,1.3,0,1.9s0,1.3,0,1.9
				C634.3,230.2,634.3,230.8,634.3,231.6z M620.3,224.8c0,0.1-0.1,0.1-0.1,0.2c0.1,0.1,0.3,0.3,0.4,0.3c0.4-0.1,0.7,0.1,1,0.3
				c0.1-0.2,0.1-0.4,0.1-0.5c0-0.1,0.1-0.3,0.1-0.3c-0.1-0.1-0.3-0.2-0.4-0.1c-0.2,0.1-0.3,0.3-0.4,0.4
				C620.8,224.9,620.5,224.9,620.3,224.8z M625,226.8c0.2-0.3,0.4-0.4,0.5-0.5c0.6,0.2,0.6,0.2,0.6-0.3c-0.4-0.1-0.8-0.1-1.1-0.2
				C625,226.1,625,226.4,625,226.8z M619.5,224.2c-0.3,0.3-0.6,0.5-0.8,0.7c0.5,0.6,0.8,0,1.1,0c0,0,0-0.1,0.1-0.2
				C619.8,224.5,619.7,224.4,619.5,224.2z M632,220.2c0.5,0.3,0.9,0.5,1.4,0.7c0-0.3-0.1-0.6-0.1-0.9
				C632.9,220.1,632.6,220.1,632,220.2z M614.1,219.5c0,0-0.1,0.1-0.1,0.1c0.5,0.2,0.4,1,1.1,1.1c0-0.3,0-0.5,0-0.7
				C614.8,219.8,614.5,219.6,614.1,219.5z M616.1,211.1c-0.1-0.3-0.3-0.4-0.6-0.3c-0.2,0.1-0.4,1-0.2,1.1c0.1,0.1,0.3,0.1,0.3,0.1
				c0.1,0,0.1-0.2,0.1-0.3C615.7,211.1,615.6,211.1,616.1,211.1z M633.4,205.7c-0.3-0.6-0.3-0.6-1.3-0.2c0.1,0.1,0.1,0.3,0.3,0.4
				c0.1,0,0.3,0,0.4-0.1C632.9,205.7,633.1,205.7,633.4,205.7z M623.5,204.4c0.1,0,0.1-0.1,0.2-0.1c0-0.5-0.1-1-0.1-1.6
				c-0.2,0.4-0.4,0.7-0.6,1C623.3,203.9,623.6,203.9,623.5,204.4z M607.4,217.3c0.4,0.3,0.8,0.8,1.4,0.7
				C608.6,217.3,607.9,217.5,607.4,217.3z"/>
		</g>
	</g>
	<g>
		<g>
			<path class="st1" d="M149.6,306.4c-0.2-0.4-0.4-0.6-0.8-0.1c0.2,0.2,0.4,0.3,0.6,0.5c0.1,0.1,0.2,0.3,0.2,0.5c0,0.6,0,1.3,0,1.9
				c-0.4,0.2-0.8,0.1-1.2-0.1c-0.8-0.5-1.7-0.9-2.5-1.4c-0.8-0.6-1.8-1-2.6-1.5c-2.1-1.3-4.2-2.4-6.4-3.7c-2.3-1.3-4.6-2.7-6.9-4
				c-1.7-1-3.4-1.9-5.1-2.9c-0.4-0.2-0.8-0.5-1.2-0.6c-0.3-0.2-0.5-0.3-0.5-0.8c-0.1,0.1-0.2,0.2-0.4,0.3c-0.7-0.4-1.3-0.8-2-1.1
				c0.1-0.2,0.1-0.3,0.2-0.6c-0.3,0.1-0.4,0.2-0.7,0.3c-0.9-0.5-1.8-1-2.8-1.5c-0.5-0.3-0.2-0.7-0.4-1.1c-0.2,0.1-0.4,0.3-0.6,0.4
				c-0.3-0.5-0.3-0.8,0.2-1.1c1.5-0.9,3.1-1.7,4.6-2.6c1.4-0.8,2.7-1.6,4.1-2.3c0.7-0.4,1.4-0.8,2.1-1.1c0.7-0.3,1.3-0.8,2-1.2
				c0.8-0.5,1.7-1,2.5-1.5c0.4-0.3,0.8,0.1,1.2-0.1c-0.1-0.2-0.2-0.3-0.3-0.5c0.6-0.1,1.1-0.2,1.6-0.3c0-0.2,0-0.4,0.1-0.5
				c0.5-0.3,0.9-0.7,1.5-0.8c0.1,0,0.2,0,0.2,0c0.8-0.9,1.9-1.2,2.8-1.8c1.5-1,3.1-1.8,4.7-2.7c1.3-0.7,2.5-1.5,3.8-2.2
				c0.1-0.1,0.3-0.2,0.5,0c0.1,0.1,0.4,0,0.7,0c-0.2-0.2-0.3-0.3-0.3-0.4c0,0,0,0,0-0.1c0.7,0,0.7,0,0.7,0.5c0,0.7,0,1.5,0,2.3
				c-0.2,0-0.4,0-0.6,0c0,0.1,0,0.1,0,0.2c0.7,0.7,0.6,1.6,0.6,2.5c0,1.5,0,3,0,4.5c0,1.4,0,2.9,0,4.3c-0.2,0.1-0.3,0.2-0.6,0.3
				c0.2,0.1,0.4,0.2,0.5,0.3c0,0.8,0,1.5,0,2.3c-0.2,0.1-0.3,0.1-0.5,0.2c0.2,0.2,0.3,0.3,0.5,0.5c0,0.5,0,1.1,0,1.8
				c0,0.6,0,1.3,0,1.9c0,0.6,0,1.3,0,1.9c0,0.6,0.2,1.3-0.2,1.9c0.5,0.6,0.2,1.2,0.2,1.8c0,0.6,0,1.3,0,1.9s0,1.3,0,1.9s0,1.3,0,1.9
				C149.6,305.1,149.6,305.7,149.6,306.4z M135.6,299.7c0,0.1-0.1,0.1-0.1,0.2c0.1,0.1,0.3,0.3,0.4,0.3c0.4-0.1,0.7,0.1,1,0.3
				c0.1-0.2,0.1-0.4,0.1-0.5c0-0.1,0.1-0.3,0.1-0.3c-0.1-0.1-0.3-0.2-0.4-0.1c-0.2,0.1-0.3,0.3-0.4,0.4
				C136,299.8,135.8,299.8,135.6,299.7z M140.2,301.7c0.2-0.3,0.4-0.4,0.5-0.5c0.6,0.2,0.6,0.2,0.6-0.3c-0.4-0.1-0.8-0.1-1.1-0.2
				C140.2,301,140.2,301.2,140.2,301.7z M134.8,299c-0.3,0.3-0.6,0.5-0.8,0.7c0.5,0.6,0.8,0,1.1,0c0,0,0-0.1,0.1-0.2
				C135.1,299.4,135,299.2,134.8,299z M147.3,295.1c0.5,0.3,0.9,0.5,1.4,0.7c0-0.3-0.1-0.6-0.1-0.9C148.2,295,147.8,295,147.3,295.1
				z M129.4,294.3c0,0-0.1,0.1-0.1,0.1c0.5,0.2,0.4,1,1.1,1.1c0-0.3,0-0.5,0-0.7C130,294.7,129.7,294.5,129.4,294.3z M131.4,286
				c-0.1-0.3-0.3-0.4-0.6-0.3c-0.2,0.1-0.4,1-0.2,1.1c0.1,0.1,0.3,0.1,0.3,0.1c0.1,0,0.1-0.2,0.1-0.3C130.9,286,130.9,286,131.4,286
				z M148.7,280.5c-0.3-0.6-0.3-0.6-1.3-0.2c0.1,0.1,0.1,0.3,0.3,0.4c0.1,0,0.3,0,0.4-0.1C148.2,280.6,148.4,280.6,148.7,280.5z
				 M138.8,279.3c0.1,0,0.1-0.1,0.2-0.1c0-0.5-0.1-1-0.1-1.6c-0.2,0.4-0.4,0.7-0.6,1C138.5,278.7,138.9,278.8,138.8,279.3z
				 M122.6,292.2c0.4,0.3,0.8,0.8,1.4,0.7C123.8,292.1,123.1,292.3,122.6,292.2z"/>
		</g>
	</g>
	<text transform="matrix(1 0 0 1 558.9456 379.8617)" class="st8 st3 st6"> </text>
	<rect x="535" y="272.5" class="st1" width="166.8" height="37.7"/>
	<text transform="matrix(1 0 0 1 551.262 299.5894)" class="st2 st3 st4">3:32 Minutes</text>
	<g>
		<path class="st1" d="M531.6,306.3c-0.2-0.4-0.4-0.6-0.8-0.1c0.2,0.2,0.4,0.3,0.6,0.5c0.1,0.1,0.2,0.3,0.2,0.5c0,0.6,0,1.3,0,1.9
			c-0.4,0.2-0.8,0.1-1.2-0.1c-0.8-0.5-1.7-0.9-2.5-1.4c-0.8-0.6-1.8-1-2.6-1.5c-2.1-1.3-4.2-2.4-6.4-3.7c-2.3-1.3-4.6-2.7-6.9-4
			c-1.7-1-3.4-1.9-5.1-2.9c-0.4-0.2-0.8-0.5-1.2-0.6c-0.3-0.2-0.5-0.3-0.5-0.8c-0.1,0.1-0.2,0.2-0.4,0.3c-0.7-0.4-1.3-0.8-2-1.1
			c0.1-0.2,0.1-0.3,0.2-0.6c-0.3,0.1-0.4,0.2-0.7,0.3c-0.9-0.5-1.8-1-2.8-1.5c-0.5-0.3-0.2-0.7-0.4-1.1c-0.2,0.1-0.4,0.3-0.6,0.4
			c-0.3-0.5-0.3-0.8,0.2-1.1c1.5-0.9,3.1-1.7,4.6-2.6c1.4-0.8,2.7-1.6,4.1-2.3c0.7-0.4,1.4-0.8,2.1-1.1c0.7-0.3,1.3-0.8,2-1.2
			c0.8-0.5,1.7-1,2.5-1.5c0.4-0.3,0.8,0.1,1.2-0.1c-0.1-0.2-0.2-0.3-0.3-0.5c0.6-0.1,1.1-0.2,1.6-0.3c0-0.2,0-0.4,0.1-0.5
			c0.5-0.3,0.9-0.7,1.5-0.8c0.1,0,0.2,0,0.2,0c0.8-0.9,1.9-1.2,2.8-1.8c1.5-1,3.1-1.8,4.7-2.7c1.3-0.7,2.5-1.5,3.8-2.2
			c0.1-0.1,0.3-0.2,0.5,0c0.1,0.1,0.4,0,0.7,0c-0.2-0.2-0.3-0.3-0.3-0.4c0,0,0,0,0-0.1c0.7,0,0.7,0,0.7,0.5c0,0.7,0,1.5,0,2.3
			c-0.2,0-0.4,0-0.6,0c0,0.1,0,0.1,0,0.2c0.7,0.7,0.6,1.6,0.6,2.5c0,1.5,0,3,0,4.5c0,1.4,0,2.9,0,4.3c-0.2,0.1-0.3,0.2-0.6,0.3
			c0.2,0.1,0.4,0.2,0.5,0.3c0,0.8,0,1.5,0,2.3c-0.2,0.1-0.3,0.1-0.5,0.2c0.2,0.2,0.3,0.3,0.5,0.5c0,0.5,0,1.1,0,1.8
			c0,0.6,0,1.3,0,1.9c0,0.6,0,1.3,0,1.9c0,0.6,0.2,1.3-0.2,1.9c0.5,0.6,0.2,1.2,0.2,1.8c0,0.6,0,1.3,0,1.9s0,1.3,0,1.9
			c0,0.6,0,1.3,0,1.9C531.6,304.9,531.6,305.5,531.6,306.3z M517.6,299.5c0,0.1-0.1,0.1-0.1,0.2c0.1,0.1,0.3,0.3,0.4,0.3
			c0.4-0.1,0.7,0.1,1,0.3c0.1-0.2,0.1-0.4,0.1-0.5c0-0.1,0.1-0.3,0.1-0.3c-0.1-0.1-0.3-0.2-0.4-0.1c-0.2,0.1-0.3,0.3-0.4,0.4
			C518,299.6,517.8,299.6,517.6,299.5z M522.2,301.5c0.2-0.3,0.4-0.4,0.5-0.5c0.6,0.2,0.6,0.2,0.6-0.3c-0.4-0.1-0.8-0.1-1.1-0.2
			C522.2,300.8,522.2,301.1,522.2,301.5z M516.8,298.9c-0.3,0.3-0.6,0.5-0.8,0.7c0.5,0.6,0.8,0,1.1,0c0,0,0-0.1,0.1-0.2
			C517.1,299.2,517,299.1,516.8,298.9z M529.3,294.9c0.5,0.3,0.9,0.5,1.4,0.7c0-0.3-0.1-0.6-0.1-0.9
			C530.2,294.8,529.8,294.8,529.3,294.9z M511.4,294.2c0,0-0.1,0.1-0.1,0.1c0.5,0.2,0.4,1,1.1,1.1c0-0.3,0-0.5,0-0.7
			C512,294.5,511.7,294.3,511.4,294.2z M513.3,285.8c-0.1-0.3-0.3-0.4-0.6-0.3c-0.2,0.1-0.4,1-0.2,1.1c0.1,0.1,0.3,0.1,0.3,0.1
			c0.1,0,0.1-0.2,0.1-0.3C512.9,285.8,512.9,285.8,513.3,285.8z M530.6,280.4c-0.3-0.6-0.3-0.6-1.3-0.2c0.1,0.1,0.1,0.3,0.3,0.4
			c0.1,0,0.3,0,0.4-0.1C530.2,280.4,530.4,280.4,530.6,280.4z M520.8,279.1c0.1,0,0.1-0.1,0.2-0.1c0-0.5-0.1-1-0.1-1.6
			c-0.2,0.4-0.4,0.7-0.6,1C520.5,278.6,520.9,278.6,520.8,279.1z M504.6,292c0.4,0.3,0.8,0.8,1.4,0.7
			C505.8,292,505.1,292.2,504.6,292z"/>
	</g>
	<rect x="639.1" y="197.2" class="st1" width="166.8" height="37.7"/>
	<text transform="matrix(1 0 0 1 655.3093 224.3551)" class="st2 st3 st4">8:21 Minutes</text>
	<g>
		<path class="st1" d="M635.6,231c-0.2-0.4-0.4-0.6-0.8-0.1c0.2,0.2,0.4,0.3,0.6,0.5c0.1,0.1,0.2,0.3,0.2,0.5c0,0.6,0,1.3,0,1.9
			c-0.4,0.2-0.8,0.1-1.2-0.1c-0.8-0.5-1.7-0.9-2.5-1.4c-0.8-0.6-1.8-1-2.6-1.5c-2.1-1.3-4.2-2.4-6.4-3.7c-2.3-1.3-4.6-2.7-6.9-4
			c-1.7-1-3.4-1.9-5.1-2.9c-0.4-0.2-0.8-0.5-1.2-0.6c-0.3-0.2-0.5-0.3-0.5-0.8c-0.1,0.1-0.2,0.2-0.4,0.3c-0.7-0.4-1.3-0.8-2-1.1
			c0.1-0.2,0.1-0.3,0.2-0.6c-0.3,0.1-0.4,0.2-0.7,0.3c-0.9-0.5-1.8-1-2.8-1.5c-0.5-0.3-0.2-0.7-0.4-1.1c-0.2,0.1-0.4,0.3-0.6,0.4
			c-0.3-0.5-0.3-0.8,0.2-1.1c1.5-0.9,3.1-1.7,4.6-2.6c1.4-0.8,2.7-1.6,4.1-2.3c0.7-0.4,1.4-0.8,2.1-1.1c0.7-0.3,1.3-0.8,2-1.2
			c0.8-0.5,1.7-1,2.5-1.5c0.4-0.3,0.8,0.1,1.2-0.1c-0.1-0.2-0.2-0.3-0.3-0.5c0.6-0.1,1.1-0.2,1.6-0.3c0-0.2,0-0.4,0.1-0.5
			c0.5-0.3,0.9-0.7,1.5-0.8c0.1,0,0.2,0,0.2,0c0.8-0.9,1.9-1.2,2.8-1.8c1.5-1,3.1-1.8,4.7-2.7c1.3-0.7,2.5-1.5,3.8-2.2
			c0.1-0.1,0.3-0.2,0.5,0c0.1,0.1,0.4,0,0.7,0c-0.2-0.2-0.3-0.3-0.3-0.4c0,0,0,0,0-0.1c0.7,0,0.7,0,0.7,0.5c0,0.7,0,1.5,0,2.3
			c-0.2,0-0.4,0-0.6,0c0,0.1,0,0.1,0,0.2c0.7,0.7,0.6,1.6,0.6,2.5c0,1.5,0,3,0,4.5c0,1.4,0,2.9,0,4.3c-0.2,0.1-0.3,0.2-0.6,0.3
			c0.2,0.1,0.4,0.2,0.5,0.3c0,0.8,0,1.5,0,2.3c-0.2,0.1-0.3,0.1-0.5,0.2c0.2,0.2,0.3,0.3,0.5,0.5c0,0.5,0,1.1,0,1.8
			c0,0.6,0,1.3,0,1.9c0,0.6,0,1.3,0,1.9c0,0.6,0.2,1.3-0.2,1.9c0.5,0.6,0.2,1.2,0.2,1.8c0,0.6,0,1.3,0,1.9c0,0.6,0,1.3,0,1.9
			c0,0.6,0,1.3,0,1.9C635.6,229.7,635.6,230.3,635.6,231z M621.6,224.3c0,0.1-0.1,0.1-0.1,0.2c0.1,0.1,0.3,0.3,0.4,0.3
			c0.4-0.1,0.7,0.1,1,0.3c0.1-0.2,0.1-0.4,0.1-0.5c0-0.1,0.1-0.3,0.1-0.3c-0.1-0.1-0.3-0.2-0.4-0.1c-0.2,0.1-0.3,0.3-0.4,0.4
			C622.1,224.4,621.8,224.4,621.6,224.3z M626.2,226.3c0.2-0.3,0.4-0.4,0.5-0.5c0.6,0.2,0.6,0.2,0.6-0.3c-0.4-0.1-0.8-0.1-1.1-0.2
			C626.2,225.6,626.2,225.8,626.2,226.3z M620.8,223.6c-0.3,0.3-0.6,0.5-0.8,0.7c0.5,0.6,0.8,0,1.1,0c0,0,0-0.1,0.1-0.2
			C621.1,224,621,223.8,620.8,223.6z M633.3,219.7c0.5,0.3,0.9,0.5,1.4,0.7c0-0.3-0.1-0.6-0.1-0.9
			C634.2,219.6,633.9,219.6,633.3,219.7z M615.4,218.9c0,0-0.1,0.1-0.1,0.1c0.5,0.2,0.4,1,1.1,1.1c0-0.3,0-0.5,0-0.7
			C616,219.3,615.7,219.1,615.4,218.9z M617.4,210.6c-0.1-0.3-0.3-0.4-0.6-0.3c-0.2,0.1-0.4,1-0.2,1.1c0.1,0.1,0.3,0.1,0.3,0.1
			c0.1,0,0.1-0.2,0.1-0.3C616.9,210.6,616.9,210.6,617.4,210.6z M634.7,205.1c-0.3-0.6-0.3-0.6-1.3-0.2c0.1,0.1,0.1,0.3,0.3,0.4
			c0.1,0,0.3,0,0.4-0.1C634.2,205.2,634.4,205.2,634.7,205.1z M624.8,203.9c0.1,0,0.1-0.1,0.2-0.1c0-0.5-0.1-1-0.1-1.6
			c-0.2,0.4-0.4,0.7-0.6,1C624.6,203.3,624.9,203.4,624.8,203.9z M608.7,216.8c0.4,0.3,0.8,0.8,1.4,0.7
			C609.8,216.7,609.2,216.9,608.7,216.8z"/>
	</g>
	<path class="st9" d="M214.2,120.9c0.6-0.1,1-0.1,1.4-0.2c0-0.1,0-0.2,0-0.2c-0.4-0.1-0.8-0.1-1.6-0.3c0.3-1,0.6-2,0.8-3
		c0.1-0.2,0-0.6-0.1-0.7c-1-1.6-0.6-3.4-0.4-5c0.4-3.3,1.1-6.5,1.9-9.8c0.3-1.2,0.9-2.4,1.4-3.6c0.1-0.3,0.6-0.4,0.8-0.5
		c-0.2-0.2-0.5-0.6-0.5-0.7c0.9-1.2,0.8-3.1,2.2-4.1c0-0.1-0.2-0.4-0.1-0.5c0.7-1.1,1.5-2.2,2.2-3.3c0.2-0.3,0.4-0.7,0.6-1.1
		c1.6-3,3.8-5.6,6.3-7.9c1.7-1.6,3.4-3.2,5.2-4.6c1.6-1.3,3.4-2.5,5.2-3.5c1.7-1,3.5-2.1,5.4-2.7c2-0.7,3.9-1.9,6-2.4
		c2.1-0.5,4.3-1.2,6.4-1.4c3.6-0.4,7.3-0.4,11-0.5c1.4,0,2.8,0.1,4.2,0.2c0.6,0.1,1.7-0.1,1.1,1.3c0.3,0,0.5,0,0.8,0
		c-0.1-0.4-0.2-0.7-0.3-1.1c2.2,0.5,4.2,0.9,6.2,1.5c1.8,0.5,3.6,1.2,5.4,1.9c0.2,0.1,0.4,0.4,0.7,0.8c0.8-0.4,1.5,0,2.3,0.8
		c0.6,0.6,1.7,0.6,2.5,1.1c2.6,1.7,5.1,3.4,7.6,5.1c0.2,0.1,0.9,0.4,0.3,0.9c0,0,0.2,0.5,0.3,0.5c0.3,0,0.5-0.1,0.9-0.2
		c3.4,3.3,6.8,6.8,9.2,11.1c1.3,2.5,2.8,4.9,4,7.5c1.7,3.6,2.8,7.5,3.3,11.5c0.4,3.2,0.6,6.5,0.7,9.8c0.1,1.4-0.1,2.8-0.3,4.1
		c-0.1,0.7-0.6,1.4-0.9,2.2c0,0,0.2,0,0.6-0.1c-1,4.2-1.3,8.6-3.8,12.1c0.5,1.5-0.8,2.4-1.2,3.6c-0.5,1.2-0.8,2.7-2.8,2.4
		c0.1,0.1,0.1,0.3,0.2,0.4c0.3,0.1,0.6,0.2,0.8,0.4c0,0.1,0.1,0.2,0,0.2c-1.7,2.5-3.4,5-5.3,7.4c-0.9,1-1.8,2.2-2.9,3
		c-0.4,0.3-0.6,1.2-1.4,0.6c0,0-0.4,0.4-0.6,0.6c0.8,0.6-0.1,0.9-0.4,1.1c-1.1,0.9-2.4,1.5-3.5,2.5c-2.6,2.3-5.7,3.8-8.8,5.3
		c-4.2,2-8.6,3.4-13.3,4c-1.2,0.2-2.4,0.3-3.6,0.4c-0.8,0.1-1.5-0.1-2.3,0c-0.8,0-1.5,0.3-2.3,0.3c-1.6,0-3.3,0.1-4.9-0.3
		c-1.9-0.4-3.9-0.2-5.8-0.8c-2-0.6-4.1-0.9-6-1.6c-5.6-1.9-10.8-4.6-15.4-8.4c-2.5-2.1-4.9-4.4-7-6.8c-2-2.2-3.7-4.6-5.2-7.1
		c-3-4.8-5-10-6.2-15.6C214.7,125.2,214.5,123.1,214.2,120.9z M273.5,107.9c-0.9-0.9-2-0.3-2.6,1.8
		C271.9,109,272.7,108.5,273.5,107.9z M242.9,103.1c-0.8,0.3-1.4,0.4-1.9,0.7c-0.3,0.2-0.8,0.5-0.8,0.8c-0.1,0.3,0.3,0.7,0.4,0.9
		C241.4,104.7,242.1,104,242.9,103.1z M270.5,122.7c-0.2-1.2-0.7-1.1-1.4-0.9c-0.3,0.1-0.7,0.3-0.9,0.2c-0.6-0.4-0.5-0.4-0.8,0.4
		C268.5,122.6,269.4,122.6,270.5,122.7z M237.9,152.6c-0.4-1.3-0.4-1.3-1.8-0.3c0.1,0.4,0.2,0.8,0.3,1.3
		C236.9,153.3,237.4,153,237.9,152.6z M299.7,144.1c-0.1-0.6-0.2-1.2-0.3-1.9c-0.7,0.4-1.3,0.7-1.8,0.9c0.5,0.3,1,0.6,1.4,0.9
		c0,0.1-0.1,0.2-0.1,0.3C299.2,144.3,299.5,144.2,299.7,144.1z M277.5,109.4c0.8,0.2,1.6,0.4,2.3,0.5c-0.4-0.7-0.7-1.3-1.1-2
		C278.3,108.4,277.9,108.8,277.5,109.4z M264.9,143.7c1,0.2,1.7,0.3,2.8,0.6c-1.6-1-0.1-1.2,0.2-2
		C266.8,142.8,265.9,143.3,264.9,143.7z M249.6,139.6c0.2,0.3,0.3,0.4,0.4,0.6c0.2-0.2,0.4-0.3,0.5-0.5c0.1-0.2-0.1-0.5-0.2-0.9
		c0,0-0.3-0.1-0.5-0.2c-0.4,0.3-0.7,0.5-1,0.7c-0.1,0.1-0.2,0.4-0.3,0.6c0.2,0,0.4,0.2,0.6,0.1C249.3,140,249.5,139.8,249.6,139.6z
		 M272.2,82.9c0.1,0.1,0.2,0.2,0.4,0.3c0.5-0.7,1-1.4,1.6-2.3C272.3,80.7,272.9,82.4,272.2,82.9z M279.9,120.8c0,0.1,0,0.2,0.1,0.3
		c0.8-0.2,1.5-0.4,2.6-0.7c-0.8-0.4-1.3-0.6-1.7-0.8C280.5,120,280.2,120.4,279.9,120.8z M281.1,143.9c0.4-1.1,0.4-1.1-1.8-1.9
		C278.9,143.8,281,142.5,281.1,143.9z M284.9,147.1c0.2-0.2,0.5-0.4,0.8-0.5c-1.1-1.7-1.3-1.9-1.3-1.9
		C284.5,145.5,284.7,146.2,284.9,147.1z M236,129.2c0.8,0.2,1.5,0.4,2.3,0.5c0-0.1,0-0.2,0-0.3c-0.5-0.4-1-0.8-1.6-1.3
		C236.5,128.5,236.2,128.8,236,129.2z M309.5,114.1c-0.4-1.4-1-1.4-2.5-0.4c0.4,0.2,0.8,0.4,1.2,0.7
		C308.2,113.3,308.5,113,309.5,114.1z M280.9,109.9c1,1.1,1,1.1,1.8,0.1C282,109.2,282,109.2,280.9,109.9z M231.5,143.5
		c0.1-1,0.1-1.9,0.2-2.7c-0.1,0-0.2,0-0.3,0c-0.2,0.7-0.4,1.3-0.7,2.2C230.8,143,231.1,143.3,231.5,143.5z M302.2,135.8
		c0.4-0.2,0.7-0.4,1-0.6c-0.8-1.2-0.8-1.2-1.6-1C301.8,134.7,302,135.2,302.2,135.8z M219,133.5c0.1,0,0.2,0,0.3,0.1
		c0.1-0.3,0.3-0.7,0.1-0.9c-0.6-1.1-1.8-0.5-2.7-0.6c0.2,0.2,0.5,0.4,0.8,0.4c0.4,0,0.8,0,1.3-0.1C218.9,132.8,219,133.1,219,133.5z
		 M257.6,68.8c0.4-0.6,0.7-0.9,0.9-1.2c0.1-0.1,0.1-0.3,0.1-0.4c0-0.1-0.2-0.2-0.3-0.2c-0.7-0.2-0.9,0.4-0.9,0.9
		C257.4,68.1,257.5,68.4,257.6,68.8z M278.8,73.2c0-0.1,0-0.2,0-0.4c-0.3,0.1-0.7,0.1-1,0.4c-0.3,0.2-0.4,0.6-0.5,0.9
		c-0.1,0.2-0.1,0.5-0.2,0.7c0.2-0.1,0.5-0.1,0.6-0.3C278.1,74.2,278.4,73.7,278.8,73.2z M220,94.4c-0.1,0.6-0.3,1-0.4,1.7
		c0.8-0.6,1.4-1,2.2-1.6C220.9,94.4,220.4,94.4,220,94.4z M264.9,98.5c0.5,0,1.1,0,1.7,0c0-0.1,0-0.1,0-0.2
		c-0.3-0.1-0.6-0.1-0.8-0.2c0.3-0.8,0-1.2-0.8-1C265,97.6,264.9,98,264.9,98.5z M217.6,128.7c1.3,0.2,1.4-0.6,1.2-1.6
		C218.2,127.5,217.3,127.5,217.6,128.7z M287,136.5c1,0.5,1.3-0.3,1.7-0.9c0.1-0.1-0.3-0.5-0.4-0.6
		C287.7,135.6,287.4,136.1,287,136.5z M308.2,112.4c1,0.1,1.8,0.1,2.7,0.2c0-0.1,0-0.2,0-0.3C308.6,111.9,308.6,111.9,308.2,112.4z
		 M262.1,152.3c0.6-0.1,1-0.1,1.1-0.1c0.1-0.7,0.1-1.1,0.2-1.6C262.2,150.5,262.6,151.6,262.1,152.3z M288.8,96.1
		c0.1-0.1,0.1-0.2,0.2-0.3c-0.1-0.3-0.2-0.5-0.3-0.8c-0.5,0.1-1,0.2-1.4,0.3c0,0.1-0.1,0.2-0.1,0.3
		C287.7,95.7,288.3,95.9,288.8,96.1z M256.3,92c0.4-0.6,0.6-1.1,0.8-1.5c0-0.1-0.1-0.2-0.1-0.3c-0.4,0.1-0.8,0.3-1.2,0.4
		C255.9,91,256.1,91.4,256.3,92z M226.6,92c-0.6-2.1-0.6-2.1-1.3-2C225.7,90.7,226.1,91.4,226.6,92z M242.6,81.4
		c0.6-0.1,1.1-0.2,1.7-0.2c-0.3-0.6-0.5-0.9-0.8-1.5C243.2,80.3,242.9,80.8,242.6,81.4z M262.9,114.8c0.2,0.3,0.5,0.7,0.5,0.6
		c0.6-0.3,1.2-0.6,1.7-0.9c-0.1-0.1-0.1-0.2-0.2-0.4C264.4,114.3,263.8,114.5,262.9,114.8z"/>
	<g>
		<text transform="matrix(1 0 0 1 239.8818 113.169)" class="st2 st3 st10 st11">23%</text>
	</g>
	<g>
		<text transform="matrix(1 0 0 1 233.2126 134.3355)" class="st2 st3 st12">BETTER</text>
	</g>
	<path class="st9" d="M590.8,120.9c0.6-0.1,1-0.1,1.4-0.2c0-0.1,0-0.2,0-0.2c-0.4-0.1-0.8-0.1-1.6-0.3c0.3-1,0.6-2,0.8-3
		c0.1-0.2,0-0.6-0.1-0.7c-1-1.6-0.6-3.4-0.4-5c0.4-3.3,1.1-6.5,1.9-9.8c0.3-1.2,0.9-2.4,1.4-3.6c0.1-0.3,0.6-0.4,0.8-0.5
		c-0.2-0.2-0.5-0.6-0.5-0.7c0.9-1.2,0.8-3.1,2.2-4.1c0-0.1-0.2-0.4-0.1-0.5c0.7-1.1,1.5-2.2,2.2-3.3c0.2-0.3,0.4-0.7,0.6-1.1
		c1.6-3,3.8-5.6,6.3-7.9c1.7-1.6,3.4-3.2,5.2-4.6c1.6-1.3,3.4-2.5,5.2-3.5c1.7-1,3.5-2.1,5.4-2.7c2-0.7,3.9-1.9,6-2.4
		c2.1-0.5,4.3-1.2,6.4-1.4c3.6-0.4,7.3-0.4,11-0.5c1.4,0,2.8,0.1,4.2,0.2c0.6,0.1,1.7-0.1,1.1,1.3c0.3,0,0.5,0,0.8,0
		c-0.1-0.4-0.2-0.7-0.3-1.1c2.2,0.5,4.2,0.9,6.2,1.5c1.8,0.5,3.6,1.2,5.4,1.9c0.2,0.1,0.4,0.4,0.7,0.8c0.8-0.4,1.5,0,2.3,0.8
		c0.6,0.6,1.7,0.6,2.5,1.1c2.6,1.7,5.1,3.4,7.6,5.1c0.2,0.1,0.9,0.4,0.3,0.9c0,0,0.2,0.5,0.3,0.5c0.3,0,0.5-0.1,0.9-0.2
		c3.4,3.3,6.8,6.8,9.2,11.1c1.3,2.5,2.8,4.9,4,7.5c1.7,3.6,2.8,7.5,3.3,11.5c0.4,3.2,0.6,6.5,0.7,9.8c0.1,1.4-0.1,2.8-0.3,4.1
		c-0.1,0.7-0.6,1.4-0.9,2.2c0,0,0.2,0,0.6-0.1c-1,4.2-1.3,8.6-3.8,12.1c0.5,1.5-0.8,2.4-1.2,3.6c-0.5,1.2-0.8,2.7-2.8,2.4
		c0.1,0.1,0.1,0.3,0.2,0.4c0.3,0.1,0.6,0.2,0.8,0.4c0,0.1,0.1,0.2,0,0.2c-1.7,2.5-3.4,5-5.3,7.4c-0.9,1-1.8,2.2-2.9,3
		c-0.4,0.3-0.6,1.2-1.4,0.6c0,0-0.4,0.4-0.6,0.6c0.8,0.6-0.1,0.9-0.4,1.1c-1.1,0.9-2.4,1.5-3.5,2.5c-2.6,2.3-5.7,3.8-8.8,5.3
		c-4.2,2-8.6,3.4-13.3,4c-1.2,0.2-2.4,0.3-3.6,0.4c-0.8,0.1-1.5-0.1-2.3,0c-0.8,0-1.5,0.3-2.3,0.3c-1.6,0-3.3,0.1-4.9-0.3
		c-1.9-0.4-3.9-0.2-5.8-0.8c-2-0.6-4.1-0.9-6-1.6c-5.6-1.9-10.8-4.6-15.4-8.4c-2.5-2.1-4.9-4.4-7-6.8c-2-2.2-3.7-4.6-5.2-7.1
		c-3-4.8-5-10-6.2-15.6C591.3,125.2,591.1,123.1,590.8,120.9z M650.1,107.9c-0.9-0.9-2-0.3-2.6,1.8
		C648.5,109,649.3,108.5,650.1,107.9z M619.5,103.1c-0.8,0.3-1.4,0.4-1.9,0.7c-0.3,0.2-0.8,0.5-0.8,0.8c-0.1,0.3,0.3,0.7,0.4,0.9
		C618,104.7,618.7,104,619.5,103.1z M647.1,122.7c-0.2-1.2-0.7-1.1-1.4-0.9c-0.3,0.1-0.7,0.3-0.9,0.2c-0.6-0.4-0.5-0.4-0.8,0.4
		C645.1,122.6,646.1,122.6,647.1,122.7z M614.5,152.6c-0.4-1.3-0.4-1.3-1.8-0.3c0.1,0.4,0.2,0.8,0.3,1.3
		C613.6,153.3,614,153,614.5,152.6z M676.3,144.1c-0.1-0.6-0.2-1.2-0.3-1.9c-0.7,0.4-1.3,0.7-1.8,0.9c0.5,0.3,1,0.6,1.4,0.9
		c0,0.1-0.1,0.2-0.1,0.3C675.8,144.3,676.1,144.2,676.3,144.1z M654.1,109.4c0.8,0.2,1.6,0.4,2.3,0.5c-0.4-0.7-0.7-1.3-1.1-2
		C654.9,108.4,654.5,108.8,654.1,109.4z M641.5,143.7c1,0.2,1.7,0.3,2.8,0.6c-1.6-1-0.1-1.2,0.2-2
		C643.4,142.8,642.5,143.3,641.5,143.7z M626.2,139.6c0.2,0.3,0.3,0.4,0.4,0.6c0.2-0.2,0.4-0.3,0.5-0.5c0.1-0.2-0.1-0.5-0.2-0.9
		c0,0-0.3-0.1-0.5-0.2c-0.4,0.3-0.7,0.5-1,0.7c-0.1,0.1-0.2,0.4-0.3,0.6c0.2,0,0.4,0.2,0.6,0.1C625.9,140,626.1,139.8,626.2,139.6z
		 M648.8,82.9c0.1,0.1,0.2,0.2,0.4,0.3c0.5-0.7,1-1.4,1.6-2.3C648.9,80.7,649.5,82.4,648.8,82.9z M656.5,120.8c0,0.1,0,0.2,0.1,0.3
		c0.8-0.2,1.5-0.4,2.6-0.7c-0.8-0.4-1.3-0.6-1.7-0.8C657.1,120,656.8,120.4,656.5,120.8z M657.7,143.9c0.4-1.1,0.4-1.1-1.8-1.9
		C655.5,143.8,657.6,142.5,657.7,143.9z M661.5,147.1c0.2-0.2,0.5-0.4,0.8-0.5c-1.1-1.7-1.3-1.9-1.3-1.9
		C661.1,145.5,661.3,146.2,661.5,147.1z M612.6,129.2c0.8,0.2,1.5,0.4,2.3,0.5c0-0.1,0-0.2,0-0.3c-0.5-0.4-1-0.8-1.6-1.3
		C613.1,128.5,612.8,128.8,612.6,129.2z M686.1,114.1c-0.4-1.4-1-1.4-2.5-0.4c0.4,0.2,0.8,0.4,1.2,0.7
		C684.8,113.3,685.1,113,686.1,114.1z M657.6,109.9c1,1.1,1,1.1,1.8,0.1C658.6,109.2,658.6,109.2,657.6,109.9z M608.1,143.5
		c0.1-1,0.1-1.9,0.2-2.7c-0.1,0-0.2,0-0.3,0c-0.2,0.7-0.4,1.3-0.7,2.2C607.4,143,607.7,143.3,608.1,143.5z M678.8,135.8
		c0.4-0.2,0.7-0.4,1-0.6c-0.8-1.2-0.8-1.2-1.6-1C678.4,134.7,678.6,135.2,678.8,135.8z M595.6,133.5c0.1,0,0.2,0,0.3,0.1
		c0.1-0.3,0.3-0.7,0.1-0.9c-0.6-1.1-1.8-0.5-2.7-0.6c0.2,0.2,0.5,0.4,0.8,0.4c0.4,0,0.8,0,1.3-0.1
		C595.5,132.8,595.6,133.1,595.6,133.5z M634.2,68.8c0.4-0.6,0.7-0.9,0.9-1.2c0.1-0.1,0.1-0.3,0.1-0.4c0-0.1-0.2-0.2-0.3-0.2
		c-0.7-0.2-0.9,0.4-0.9,0.9C634,68.1,634.1,68.4,634.2,68.8z M655.4,73.2c0-0.1,0-0.2,0-0.4c-0.3,0.1-0.7,0.1-1,0.4
		c-0.3,0.2-0.4,0.6-0.5,0.9c-0.1,0.2-0.1,0.5-0.2,0.7c0.2-0.1,0.5-0.1,0.6-0.3C654.7,74.2,655,73.7,655.4,73.2z M596.6,94.4
		c-0.1,0.6-0.3,1-0.4,1.7c0.8-0.6,1.4-1,2.2-1.6C597.5,94.4,597.1,94.4,596.6,94.4z M641.5,98.5c0.5,0,1.1,0,1.7,0
		c0-0.1,0-0.1,0-0.2c-0.3-0.1-0.6-0.1-0.8-0.2c0.3-0.8,0-1.2-0.8-1C641.6,97.6,641.5,98,641.5,98.5z M594.2,128.7
		c1.3,0.2,1.4-0.6,1.2-1.6C594.8,127.5,593.9,127.5,594.2,128.7z M663.6,136.5c1,0.5,1.3-0.3,1.7-0.9c0.1-0.1-0.3-0.5-0.4-0.6
		C664.3,135.6,664,136.1,663.6,136.5z M684.8,112.4c1,0.1,1.8,0.1,2.7,0.2c0-0.1,0-0.2,0-0.3C685.2,111.9,685.2,111.9,684.8,112.4z
		 M638.7,152.3c0.6-0.1,1-0.1,1.1-0.1c0.1-0.7,0.1-1.1,0.2-1.6C638.8,150.5,639.2,151.6,638.7,152.3z M665.4,96.1
		c0.1-0.1,0.1-0.2,0.2-0.3c-0.1-0.3-0.2-0.5-0.3-0.8c-0.5,0.1-1,0.2-1.4,0.3c0,0.1-0.1,0.2-0.1,0.3
		C664.3,95.7,664.9,95.9,665.4,96.1z M632.9,92c0.4-0.6,0.6-1.1,0.8-1.5c0-0.1-0.1-0.2-0.1-0.3c-0.4,0.1-0.8,0.3-1.2,0.4
		C632.5,91,632.7,91.4,632.9,92z M603.2,92c-0.6-2.1-0.6-2.1-1.3-2C602.3,90.7,602.7,91.4,603.2,92z M619.2,81.4
		c0.6-0.1,1.1-0.2,1.7-0.2c-0.3-0.6-0.5-0.9-0.8-1.5C619.8,80.3,619.5,80.8,619.2,81.4z M639.6,114.8c0.2,0.3,0.5,0.7,0.5,0.6
		c0.6-0.3,1.2-0.6,1.7-0.9c-0.1-0.1-0.1-0.2-0.2-0.4C641,114.3,640.4,114.5,639.6,114.8z"/>
	<g>
		<text transform="matrix(1 0 0 1 609.9951 113.169)" class="st2 st3 st10 st11">136%</text>
	</g>
	<g>
		<text transform="matrix(1 0 0 1 609.8181 134.3355)" class="st2 st3 st12">BETTER</text>
	</g>
</g>
</svg>
