<?xml version="1.0" encoding="utf-8"?>
<!-- Generator: Adobe Illustrator 20.1.0, SVG Export Plug-In . SVG Version: 6.00 Build 0)  -->
<svg version="1.1" id="Layer_1" xmlns="http://www.w3.org/2000/svg" xmlns:xlink="http://www.w3.org/1999/xlink" x="0px" y="0px"
	 viewBox="0 0 622 176" style="enable-background:new 0 0 622 176;" xml:space="preserve">
<style type="text/css">
	.st0{fill:#FFFFFF;}
	.st1{fill:#F37046;}
	.st2{fill:#434343;}
</style>
<g>
	<g>
		<circle class="st0" cx="91.2" cy="88.9" r="77"/>
		<g>
			<path class="st1" d="M88.6,149.6c0.2,0,0.4,0,0.5,0c0-0.1,0-0.1,0-0.2c-0.2-0.1-0.4-0.1-0.6-0.2c0.3-0.6-0.5-1.6,0.7-1.9
				c-0.2,0-0.4-0.1-0.7-0.1c0-1,0-2,0-3c0-1.9,0-3.9,0-5.8c0-0.3,0.2-0.6,0.3-0.9c-0.1-0.4-0.3-0.8-0.3-1.2c0-4,0-8.1,0-12.1
				c0-0.9-0.3-1.9,0.4-2.8c-0.1,0.1-0.2,0.1-0.3,0.1c0-6,0-12.1,0-18.2c0.2,0.1,0.4,0.2,0.6,0.3c0-0.1,0.1-0.1,0.1-0.2
				c-0.1-0.1-0.3-0.2-0.4-0.4c0.2-0.1,0.3-0.3,0.4-0.4c0,0,0-0.1,0-0.1c-0.3,0.1-0.5,0.1-0.7,0.2c0-2.4,0-4.7,0-7.1
				c0-1-0.1-2.1-0.1-3.1c0-2.2,0-4.5,0-6.7c0-1,0-2.1,0-3.1c0-1.1,0-2.1,0-3.2c0-0.3,0.2-0.7,0.3-1.1c-0.8-0.7-0.3-3.1,0.9-3.6
				c0-0.1,0-0.1-0.1-0.2c-0.3,0.1-0.6,0.2-1,0.4c0-0.6-0.1-1.1-0.1-1.7c0.4,0.2,0.7,0.3,1,0.5c0,0,0.1-0.1,0.1-0.1
				c-0.1-0.1-0.3-0.2-0.3-0.4c-0.1-0.1-0.1-0.3-0.1-0.4c-0.2,0.1-0.4,0.1-0.8,0.3c0.2-0.4,0.3-0.6,0.4-0.8c0-0.1,0.2-0.1,0.3-0.2
				c-0.2,0-0.4,0-0.6-0.1c0-1.7,0-3.3,0-5c0-1.6-0.1-3.3,0-4.9c0.1-1.6-0.2-3.3,0-5c0.1,0,0.3,0.1,0.5,0.2c-1.3-1.1,0.3-1.9-0.1-2.9
				c-0.1,0.2-0.3,0.4-0.4,0.7c0-0.2-0.1-0.4-0.1-0.6c0-2.5,0-5,0-7.5c0-0.5,0-0.9,0-1.4c0-0.1,0.1-0.2,0.1-0.3
				c0.1-0.3,0.3-0.5,0.4-0.8c-0.1,0-0.2-0.1-0.2-0.1c-0.1,0.2-0.1,0.3-0.2,0.5c-0.3-0.2-0.1-4.5,0.2-4.8c-0.1-0.1-0.4-0.3-0.3-0.4
				c0.4-0.7-0.3-1.4,0-2.1c0.1-0.2,0.2-0.4,0.2-0.5c-0.1-0.3-0.2-0.6-0.2-0.9c0-4.8,0-9.6,0-14.4c0-1.6,0-3.2,0-4.9
				c1.1,0,2.1,0,3.2,0c0.8,0,1.7-0.1,2.4,0.4c0.9-0.6,1.9-0.1,2.8,0c1.2,0.1,2.4,0.4,3.6,0.6c1.2,0.2,2.3,0.3,3.5,0.6
				c1.2,0.2,2.5,0.6,3.7,0.9c0.2,0,0.3,0.3,0.4,0.4c0.2-0.1,0.5-0.2,0.6-0.1c0.5,0.4,1.1,0.2,1.6,0.4c0.5,0.3,1.2,0.3,1.6,0.6
				c0.9,0.6,2,0.5,2.9,1c1,0.5,2.1,1,3.1,1.4c1,0.5,2.1,0.9,3.1,1.4c0,0.3-0.1,0.5-0.1,0.7c0.2-0.1,0.3-0.1,0.5-0.1
				c0.2,0,0.4-0.1,0.5,0c0.9,0.5,1.8,1.1,2.7,1.7c1.3,0.8,2.7,1.6,4.1,2.5c1,0.7,1.9,1.5,2.9,2.3c0.2,0.1,0.5,0.2,0.6,0.3
				c0.3,0.3,0.6,0.9,0.8,0.9c0.6,0,0.7,0.4,1,0.6c2,1.9,4,3.8,6,5.7c1.2,1.2,2.2,2.4,3.3,3.7c1.1,1.3,2.1,2.6,3,3.8
				c-0.2,0.2-0.4,0.3-0.5,0.4c0,0.1,0.1,0.1,0.1,0.2c0.2,0,0.4,0,0.7,0c0.8,1.3,1.9,2.5,2.4,4.1c0,0,0.2,0.1,0.3,0.2
				c0.9,1.8,2.3,3.4,2.8,5.5c0.6,0.2,0.8,1,0.4,1.4c1.2,0.8,1.4,2.2,1.8,3.5c0.3,1,0.8,2,1.2,3c0.2,0.4,0.3,0.9,0.5,1.5
				c-0.3-0.3-0.4-0.4-0.5-0.6c-0.1,0.5-0.1,0.9,0.6,0.7c1.6,5.2,2.5,10.5,2.9,16c-0.2-0.1-0.3-0.1-0.4-0.2c-0.1,0.2-0.1,0.4-0.2,0.6
				c0.2,0.1,0.4,0.2,0.6,0.2c-0.1,0.1-0.3,0.2-0.5,0.3c1.1,0.4,0.6,1.3,0.7,2c0.1,1.6,0.1,3.2,0,4.8c-0.2,2.4-0.5,4.8-0.7,7.2
				c0,0.5-0.1,0.9-0.2,1.3c-0.2,0-0.4,0-0.7,0.1c0.8,0.6,0.6,2.1-0.1,2.5c0.4,0.8,0,2.4-0.4,2.6c-0.1,0.7-0.1,1.4-0.3,1.9
				c-0.2,0.9-0.5,1.9-0.9,2.8c-0.1,0.3-0.6,0.5-0.8,0.8c-0.1,0.1-0.1,0.2,0,0.4c0.1-0.1,0.2-0.2,0.3-0.4c0.1,0,0.2,0.1,0.2,0.1
				c-0.8,2.6-1.8,5.1-3,7.5c-0.2-0.1-0.5-0.1-0.7-0.2c0,0-0.1,0.1-0.1,0.1c0.2,0.1,0.4,0.3,0.6,0.5c-1,2.4-1.5,3.3-1.9,3.1
				c-0.1,0.3-0.1,0.7-0.2,1c-0.7,1.2-1.4,2.3-2.1,3.5c-0.1,0.1-0.3,0.1-0.4,0.2c-0.1,0-0.3,0.1-0.3,0.1c-0.4,2.3-2.2,3.6-3.4,5.5
				c-0.2,0.3-0.5,0.4-0.9,0.7c0.1,0.8-0.7,1.2-1.3,2c0-0.3-0.1-0.4-0.1-0.6c-0.1,0.1-0.3,0.1-0.5,0.2c0.1,0.2,0.3,0.4,0.5,0.6
				c-3.4,3.9-7.4,7.5-11.8,10.6c0.1-0.3,0.2-0.5,0.3-0.9c-0.7,0.5-0.9,0.8-0.7,1.2c-0.3,0.3-0.6,0.6-0.9,0.8
				c-0.2,0.1-0.5,0.1-0.8,0.1c0.3,0.8-0.6,0.7-1,1c-0.7,0.6-1.6,1.1-2.4,1.5c-1.9,1-3.8,1.8-5.6,2.9c-2.8,1.6-5.8,2.5-8.7,3.5
				c-1.5,0.5-3,0.9-4.6,1.3c-0.2,0.1-0.6-0.1-0.9-0.2c0,0,0,0.2,0,0.3c-2.4,0.9-9,1.7-9.3,1.2c-1,0.7-2.1,0.6-3.3,0.5
				c-0.3,0-0.6,0-0.9,0.1c-0.7,0.1-1.5,0.1-2.2,0.2c-0.1-0.1-0.1-0.1-0.2-0.2c0.2-0.3,0.3-0.6,0.5-0.9c0.1-0.2,0.1-0.3,0.2-0.5
				c-0.2,0-0.3,0-0.5,0c0-0.1,0-0.3,0-0.5c0.2,0,0.4,0,0.6,0.1c-0.1-0.2-0.1-0.3-0.2-0.4c-0.1-0.2-0.4-0.3-0.4-0.4
				c0.2-0.8,0-1.5,0-2.3C88.6,151.5,88.6,150.6,88.6,149.6z M111.4,80.4c-0.2-0.5-0.4-1.2-1-1.3c0.1,0.4,0.3,0.8,0.4,1.2
				C110.8,80.6,111,80.6,111.4,80.4c0.3,0.1,0.6,0.2,0.9,0.2c0.1,0,0.2-0.3,0.3-0.4c-0.3,0-0.6,0.1-0.8,0
				C111.5,79.9,111.5,80.2,111.4,80.4z M130.2,106.7c-0.2,0-0.4,0-0.5,0.1c-0.1,0.3-0.1,0.6-0.1,0.8c0.4,0,0.8,0,1.3,0
				C130.6,107.2,130.4,106.9,130.2,106.7c0.3,0,0.6,0,0.7,0c-0.1-0.5-0.2-0.9-0.3-1.3c-0.1,0-0.1,0-0.2,0
				C130.3,105.8,130.3,106.2,130.2,106.7z M104.3,151.8c-0.2-0.2-0.4-0.4-0.6-0.6c-0.2-0.1-0.4,0-0.6,0.1c-0.1,0-0.1,0.2-0.1,0.3
				c0.2,0.5,0.5,1,0.8,1.6c0.2-0.4,0.4-0.7,0.6-0.9c-0.3-0.1-0.5-0.2-0.8-0.3C103.8,151.9,104,151.9,104.3,151.8z M137.6,133.3
				c-0.1,0-0.2,0-0.3,0c0,0.6-0.1,1.1-0.1,1.4c0.3,0.3,0.5,0.6,0.8,0.7c0.3,0.2,0.7,0.2,1.1,0.4c0-0.1,0-0.1,0-0.2
				c-0.5-0.3-0.9-0.6-1.5-1C137.6,134.3,137.6,133.8,137.6,133.3z M106.3,146.4c-0.6,0.6-1.2,0.8-1.1,1.7c0.2,0.1,0.4,0.1,0.7,0.3
				c-0.7-1.2,0.4-0.8,0.7-1.1C106.5,147,106.4,146.7,106.3,146.4z M135.9,122.5c0.1,0.2,0.2,0.4,0.1,0.6c-0.1,0.1-0.3,0.2-0.5,0.3
				c-0.2,0.1-0.5,0.3-0.5,0.5c0,0.2,0.2,0.4,0.4,0.6c0.1-0.3,0.2-0.6,0.3-0.6c0.2-0.1,0.4,0,0.6,0.1
				C136.4,122.6,136.4,122.6,135.9,122.5z M150.4,61.3c0.1-0.3,0.3-0.6,0.3-0.6c0.6,0.2,0.3-0.5,0.6-0.6c0,0,0-0.2,0-0.4
				c-0.1,0-0.2,0-0.3,0.1c-0.8,0.1-1.1,0.4-0.6,1.2C150.4,61.1,150.3,61.1,150.4,61.3z M115.3,122.6c0,0-0.2,0-0.3,0
				c-0.2,0-0.3,0-0.5,0c0,0.1,0,0.3,0.1,0.4c0.1,0.1,0.4,0.2,0.5,0.2c0.3-0.2,1.2-0.1,0.6-1c-0.1-0.1,0-0.3,0.1-0.4
				c-0.1,0-0.2,0-0.2,0C115.4,122,115.4,122.3,115.3,122.6z M133,105.8c-0.1,0.5-0.2,0.8-0.2,1.1c0,0.1,0.4,0.3,0.5,0.2
				c0.2-0.1,0.4-0.4,0.6-0.6C133.7,106.3,133.4,106.1,133,105.8z M139.5,114.2c0.5,1.3,1.2,1.6,1.9,0.9
				C140.9,114.9,140.3,114.6,139.5,114.2z M119.9,52.6c-0.4-0.4-0.7-0.8-1-1.1c-0.1,0.1-0.1,0.1-0.2,0.2c0.2,0.6,0.5,1.2,1.2,1.6
				C119.9,52.9,119.9,52.7,119.9,52.6z M97.9,82.7c-0.1-0.1-0.1-0.1-0.2-0.2c-0.3,0.3-0.7,0.6-0.9,0.9c-0.1,0.1,0.3,0.5,0.5,0.8
				C97.6,83.5,97.8,83.1,97.9,82.7z M138,69.1c0.5-0.2,0.9-0.5,1.5-0.8c-0.6-0.2-0.9-0.3-1.2-0.3c-0.2,0.2-0.4,0.4-0.6,0.7
				C137.9,68.8,138,68.9,138,69.1z M132.6,51c0.2-0.5,0.3-0.7,0.4-0.9c-0.5-0.2-1-0.3-1.5-0.4c0,0-0.1,0.1-0.1,0.1
				C131.8,50.2,132.2,50.6,132.6,51z M95.2,142.2c0.6-0.7,0.7-1.6,0.2-1.8c-0.2,0.5-0.3,1-0.5,1.6C94.9,142,95.1,142.1,95.2,142.2z
				 M129.9,44.3c0-0.1-0.1-0.1-0.1-0.2c-0.4-0.3-0.8-0.5-1.2-0.8c0,0.1-0.1,0.1-0.1,0.2c0.1,0,0.2,0.1,0.3,0.1
				c-0.1,0.3-0.3,0.5-0.5,0.9C128.9,44.4,129.4,44.4,129.9,44.3z M139,39.1c-0.5,0.2-1-0.1-1,0.6c0,0.2,0.3,0.4,0.5,0.4
				C139.2,40.1,138.9,39.5,139,39.1z M129.1,139.7c0-0.1,0.1-0.1,0.1-0.2c-0.6-0.6-0.8-1.1-0.4-1.3c-0.3,0-0.6-0.1-0.8-0.1
				c0.7,0.4-0.2,0.5-0.1,0.6C128.3,139.1,128.7,139.4,129.1,139.7z M146.8,59.9c0.7-0.6,0.8-1.3,0.3-1.9c-0.1,0.5-0.1,0.8-0.2,1.2
				c-0.2,0-0.4,0.1-0.7,0.1C146.5,59.5,146.6,59.7,146.8,59.9z M129.7,39.8c-0.7,0.1-0.9,0.7-1,1.4
				C129.2,41.3,129.8,40.5,129.7,39.8z M107.7,96.4c-0.1,0.1-0.1,0.2-0.2,0.4c0.7,0.3,1.3,0.5,2,0.8c0-0.1,0.1-0.2,0.1-0.3
				C109,97,108.3,96.7,107.7,96.4z M118.6,73.3c0,0-0.1-0.1-0.1-0.1c-0.5,0.1-1,0.3-1.5,0.4c-0.1,0-0.1,0.2-0.2,0.3
				c0.1,0.1,0.3,0.1,0.4,0.2c0.2-0.5,0.6-0.2,0.9-0.4C118.3,73.6,118.5,73.4,118.6,73.3z M118.7,130.5c-0.1,1,0.1,1.1,1,0.8
				c0-0.4-0.1-0.7-0.1-1.1c0,0-0.1,0-0.1,0c-0.1,0.2-0.1,0.5-0.2,0.8C119.1,130.8,118.9,130.7,118.7,130.5z M93,129.8
				c0,0-0.1,0-0.1,0.1c0.1,0.2,0.1,0.5,0.3,0.6c0.1,0.1,0.4,0.1,0.5,0c0.5-0.3,0.3-0.8,0.4-1.2c0,0-0.2-0.1-0.3-0.1
				c-0.1,0.4-0.2,0.7-0.3,1.1C93.2,130.1,93.1,129.9,93,129.8z M137,69c-1.3,0.5-1.3,0.5-1.3,1.2C136.9,69.8,136.9,69.8,137,69z
				 M112.7,53.7c0.3,0,0.6,0,0.8-0.1c0.1-0.1,0-0.4,0-0.8c0.1,0,0.4-0.1,0.6-0.2c0-0.1,0-0.1,0-0.2c-0.2,0-0.4-0.1-0.5,0
				c-0.2,0.1-0.3,0.3-0.4,0.4C113,53,112.9,53.2,112.7,53.7z M125.3,94.9c0.5-0.3,0.9-0.5,1.4-0.7c0.1-0.1,0.2-0.2,0.3-0.3
				c-0.1,0-0.2-0.1-0.3-0.1C126.1,94.1,125.3,94.1,125.3,94.9z M126.5,120.1c-0.1-0.2-0.1-0.3-0.2-0.5c-0.3,0.1-0.7,0.3-1,0.4
				c0.1,0.1,0.3,0.4,0.4,0.4C125.9,120.4,126.2,120.2,126.5,120.1z M88.7,127.6c0.3,0.1,0.6,0.2,0.7,0.3c0.2,0.1,0.3,0.3,0.4,0.5
				c0.1,0.1,0.2,0.1,0.3,0c0.1,0,0.1-0.2,0.1-0.2C90.2,127.7,89.4,127.3,88.7,127.6z M115,48.6c-0.1-0.3-0.3-0.7-0.4-1
				c-0.4,0-0.7,0.1-1.1,0.1c0,0.1,0,0.1-0.1,0.2C113.9,48.1,114.4,48.3,115,48.6z M111,142.6c0-0.5,0.1-1,0.1-1.4
				c-0.4,0.2-0.7,0.4-1,0.6C110.5,142.1,110.7,142.3,111,142.6z M89.5,77.6c0.9,0,0.7-0.7,1-1c-0.1-0.1-0.3-0.3-0.4-0.4
				C89.9,76.7,89.7,77.1,89.5,77.6z M91.2,119.4c-0.2-0.1-0.4-0.3-0.5-0.3c-0.1-0.3-0.2-0.5-0.3-0.9
				C89.9,119.1,90.2,119.5,91.2,119.4z M94.2,66c-0.4,0.2-0.7,0.4-1,0.7c0,0,0.1,0.2,0.1,0.3c0.4-0.1,0.8-0.3,1.2-0.4
				C94.4,66.3,94.2,66.1,94.2,66z M152.5,93.1c0.1-0.1,0.1-0.1,0.2-0.2c-0.1-0.1-0.2-0.3-0.2-0.4c-0.1-0.2,0-0.4-0.1-0.6
				c-0.2,0.1-0.5,0.2-0.9,0.3C151.9,92.6,152.2,92.9,152.5,93.1z M109.4,64.4c-0.8,0.8-0.7,1.3,0,1.5
				C109.4,65.5,109.4,65,109.4,64.4z M119,121.1c0-0.6-0.6-1-1.6-0.9C118,120.6,118.5,120.8,119,121.1z M92.6,148.7
				c0.4-0.1,0.9,0.4,1.2-0.3C93.3,147.9,92.9,148,92.6,148.7z M148.5,74.6c0.9,0.3,0.9,0.3,1.2-0.7C149.3,74.1,149,74.4,148.5,74.6z
				 M98.3,76.2c0.2,0.8,0.2,0.8,1.1,0.2c-0.1-0.2-0.2-0.3-0.2-0.4C98.9,76,98.6,76.1,98.3,76.2z M117.6,144.6
				c-0.1,0-0.2-0.1-0.3-0.1c-0.1,0.4-0.3,0.8-0.4,1.4c0.1,0,0.4,0.1,0.4,0C117.4,145.5,117.5,145,117.6,144.6z M110.2,119.8
				c-0.1-0.5-0.2-0.9-0.2-1.3c-0.2,0.1-0.4,0.2-0.5,0.2c0.1,0.3,0.2,0.5,0.2,0.6c0.1,0.2,0.1,0.4,0.2,0.5
				C110,120,110.2,119.8,110.2,119.8z M98.9,73.8c0,0,0.1-0.1,0.1-0.1c-0.1-0.4-0.2-0.8-0.3-1.2c-0.2,0.2-0.4,0.4-0.6,0.6
				C98.4,73.4,98.7,73.6,98.9,73.8z M146.3,102.6c0.9,0.1,1.1-0.1,0.9-0.7C146.8,101.9,146.3,101.8,146.3,102.6z M99.6,105.2
				c0.1,0,0.1,0,0.2,0c0-0.4,0-0.8-0.1-1.1c-0.1-0.2-0.5-0.2-0.8-0.3C99.2,104.4,99.4,104.8,99.6,105.2z M112.1,45.6
				c-0.1,1.4-0.1,1.4,0.6,1.2C112.5,46.4,112.3,46,112.1,45.6z M117.4,38.1c0.9-0.4,0.1-0.8,0-1.2c0-0.1-0.3-0.1-0.4-0.1
				C117.1,37.3,117.3,37.7,117.4,38.1z M137,135.8c0-0.1,0-0.2,0-0.3c-0.5,0-1,0.1-1.5,0.1C136,136.4,136.5,136,137,135.8z
				 M90.8,27.1c-0.1,0.1-0.3,0.3-0.4,0.4c0,0,0.1,0.3,0.2,0.3c0.4-0.1,0.8-0.2,1.4-0.4C91.5,27.3,91.2,27.2,90.8,27.1z M142.4,125
				c-0.3,0.3-0.6,0.5-0.9,0.7c0.1,0.2,0.3,0.4,0.4,0.6C141.8,125.8,143.1,125.7,142.4,125z M111.2,24.9c0.2,0.2,0.4,0.3,0.5,0.4
				c0.1,0.1,0.3,0.1,0.5,0.1c0-0.1-0.1-0.3-0.2-0.4c0-0.1-0.1-0.2-0.1-0.3c0-0.1,0-0.2,0-0.3c-0.1,0-0.2,0.1-0.3,0.1
				C111.5,24.6,111.4,24.7,111.2,24.9z M119.3,50.4c-0.4-0.8-0.8-0.9-1.4-0.4C118.4,50.1,118.8,50.2,119.3,50.4z M124.9,52.4
				c-0.1,0-0.1,0-0.2,0c-0.2,0.2-0.4,0.4-0.5,0.7c-0.1,0.1,0,0.3,0.1,0.5c0.1-0.1,0.3-0.1,0.4-0.2C124.8,53,124.9,52.7,124.9,52.4z
				 M98,95.8c0.1,0.3,0.2,0.6,0.4,0.7c0.4,0.1,0.8,0,1.2,0c0,0,0-0.1,0-0.1C99.2,96.2,98.7,96.1,98,95.8z M125.1,90.3
				c-0.1,0.2-0.3,0.4-0.2,0.5c0.3,0.4,0.7,0.7,1.1,1c0,0,0.1-0.1,0.1-0.1C125.8,91.3,125.4,90.9,125.1,90.3z M141.7,83.9
				c-0.4-0.1-0.7-0.2-1-0.3c0,0.4,0.1,0.7,0.1,1.1C141,84.4,141.2,84.2,141.7,83.9z M106.4,80.1c0.1,0,0.2,0,0.3,0
				c0-0.2-0.1-0.4-0.1-0.5c0-0.1-0.1-0.3-0.2-0.4c0.1,0,0.3,0,0.4,0c0-0.1,0-0.2,0.1-0.2c-0.3-0.1-0.5-0.2-0.8-0.3
				C106.1,79.2,106.3,79.7,106.4,80.1z M100,83c-0.6-0.5-1.3-0.4-1.7,0.1C98.9,83.1,99.4,83.1,100,83z M99.5,80.5
				c0-0.1-0.1-0.1-0.1-0.2c-0.3,0.2-0.7,0.4-1,0.6c0.1,0.2,0.3,0.4,0.4,0.5C99,81.1,99.2,80.8,99.5,80.5z M154.3,68.4
				c0.5-0.1,1-0.1,1.5-0.2C155.1,67.5,155.3,67.5,154.3,68.4z M117.5,146.8c0,0.1-0.1,0.1-0.1,0.2c0.1,0.2,0.1,0.4,0.2,0.7
				c0.3,0,0.5-0.1,0.8-0.1c0-0.1,0.1-0.1,0.1-0.2C118.2,147.2,117.8,147,117.5,146.8z M133.5,71c0.1,0.1,0.2,0.2,0.3,0.3
				c0.2-0.1,0.6-0.3,0.6-0.4c0-0.3-0.2-0.5-0.6-0.3C133.7,70.6,133.6,70.8,133.5,71z M127,72.3c-0.4,0-0.8-0.1-1.2-0.1
				c0,0.1-0.1,0.1-0.1,0.2c0.4,0.2,0.7,0.4,1.2,0.6C126.9,72.6,126.9,72.4,127,72.3z M125.6,131.9c0,0-0.1,0.1-0.1,0.1
				c0.3,0.4,0.6,0.7,0.9,1.2c0.1-0.1,0.3-0.2,0.5-0.4C126.4,132.5,126,132.2,125.6,131.9z M97.9,81.5c0-0.1,0-0.2,0.1-0.3
				c-0.6-0.6-0.6-0.6-1.2,0C97.2,81.3,97.6,81.4,97.9,81.5z M95.6,130c0-0.2,0-0.3,0-0.5c-0.4,0-0.7,0-1.1,0.1c0,0,0,0.2,0,0.3
				C94.8,129.9,95.2,130,95.6,130z M118.3,128.9c0-0.1,0-0.3,0-0.4c-0.4,0-0.8,0-1.1,0.1c-0.1,0-0.1,0.2-0.1,0.4
				C117.4,128.9,117.8,128.9,118.3,128.9z M155.5,92.4c-0.2-0.4-0.4-0.7-0.6-1.1c0,0-0.2-0.1-0.5-0.2c0.3,0.6,0.6,1,0.9,1.5
				C155.3,92.6,155.4,92.5,155.5,92.4z M153.6,80.1c-0.1-0.1-0.2-0.3-0.3-0.4c-0.3,0.3-0.6,0.6-0.8,0.9c0.1,0.1,0.1,0.1,0.2,0.2
				C153,80.6,153.3,80.4,153.6,80.1z M101.3,77c0.1,0,0.1,0.1,0.2,0.1c0.3-0.2,0.6-0.3,0.9-0.5c0,0,0-0.1-0.1-0.1
				c-0.2,0-0.4,0-0.6,0c0-0.2,0-0.3,0-0.4c-0.1,0-0.1,0-0.2,0C101.4,76.4,101.3,76.7,101.3,77z M150.3,93c-0.1-0.4-0.1-0.7-0.2-1.1
				c-0.2,0.1-0.5,0.3-0.8,0.5C149.6,92.7,149.9,92.8,150.3,93z M142.1,120c-0.1,0-0.2,0.1-0.3,0.1c0.1,0.3,0.2,0.7,0.3,1.1
				c0,0,0.2,0,0.6,0C142.5,120.7,142.3,120.4,142.1,120z M106.1,110.5c-0.1-0.1-0.1-0.3-0.2-0.4c-0.4,0.2-0.8,0.4-1.2,0.6
				c0,0.1,0,0.1,0.1,0.2C105.2,110.7,105.6,110.6,106.1,110.5z M128.9,54.5c0.9,0,0.1-0.8,0.5-1c-0.2,0-0.4,0-0.6,0.1
				C128.8,53.8,128.8,54.1,128.9,54.5z M142.9,111.8c0,0,0.1-0.2,0.1-0.4c-0.1-0.3-0.7-0.4-1.2-0.3
				C142.1,111.3,142.5,111.5,142.9,111.8z M131.7,111.3c0,0,0-0.1-0.1-0.1c0,0-0.1,0-0.1,0C131.6,111.3,131.6,111.3,131.7,111.3
				C131.6,111.3,131.6,111.3,131.7,111.3z"/>
		</g>
		<g>
			<path class="st2" d="M171.2,102.7c-0.1,0-0.2-0.1-0.3-0.2c0.3,1.2,0.2,1.8-0.3,2c0.3,0.5,0.3,0.5,0.1,0.5
				c-0.2,0.9-0.3,1.7-0.5,2.6c-0.3-0.2-0.5-0.3-0.8-0.4c0,0.1-0.1,0.1-0.1,0.1c0.7,0.5,0.7,1,0.4,1.8c-0.7,2.2-1.3,4.5-2,6.7
				c-0.1,0.4-0.4,0.7-0.6,1c0,0.2,0,0.6-0.1,0.9c-0.3,1-0.7,1.9-1.1,2.8c-1.6,3.1-3.2,6.2-4.8,9.3c-0.4,0.7-0.9,1.4-1.2,2.2
				c-0.2,0.4-0.1,0.8-0.2,1.3c-0.2-0.2-0.4-0.4-0.6-0.6c0,0.2,0,0.4-0.1,0.6c-1.1,1.6-2.3,3.1-3.4,4.7c-0.2,0.3-0.4,0.6-0.6,0.9
				c-0.4-0.1-0.7-0.1-1-0.2c0.3,0.7,0.4,1.2-0.2,1.7c-0.5,0.4-1.1,0.9-1.5,1.5c-1.8,2.8-4.5,4.9-6.8,7.3c-1.7,1.7-3.6,3.4-5.6,4.8
				c-2.9,2.2-6,4.2-9,6.2c-1.3,0.9-2.7,1.6-4.1,2.3c-0.2,0.1-0.5,0.1-0.7,0.1c-0.1,0-0.3,0-0.3,0.1c-1,1.2-2.5,1.5-3.8,2.1
				c-2.1,0.9-4.2,1.7-6.4,2.5c-2.2,0.7-4.4,1.3-6.7,1.9c-0.2,0.1-0.5-0.1-0.7-0.1c0,0,0,0.1,0.1,0.3c-0.7,0.2-1.4,0.3-2.1,0.5
				c0-0.1,0-0.3-0.1-0.4c0,0-0.2,0-0.3,0c-0.4,0.9-1.4,0.5-2.1,0.8c-0.2,0.1-0.6-0.1-0.9-0.1c-0.1,0-0.2,0.2-0.3,0.2
				c-0.4,0.2-0.8,0.4-1.1-0.1c-0.2,0.1-0.3,0.4-0.5,0.4c-2.2,0.3-4.5,0.5-6.7,0.7c-0.1,0-0.2-0.1-0.2-0.2c-0.2-0.1-0.4-0.1-0.6-0.2
				c-0.1,0.5-0.5,0.3-0.8,0.3c-1.6,0.1-3.2,0.1-4.7,0.1c-1.7,0-3.5,0.1-5.2-0.2c-0.9-0.1-1.8-0.1-2.7-0.2c-0.4,0-0.8,0-1.1,0
				c-0.3-0.3-0.5-0.6-0.7-0.8c0,0-0.1,0-0.1,0.1c0,0.2,0.1,0.4,0.1,0.7c-1.1-0.1-2.1-0.2-3.2-0.4c-1.8-0.3-3.7-0.7-5.5-1
				c-0.2,0-0.4-0.2-0.7-0.5c-0.9,0.5-1.9-0.2-3-0.5c-1-0.3-2-0.4-3-0.8c-2.3-0.7-4.6-1.5-6.8-2.4c-2.6-1.1-5.1-2.3-7.7-3.5
				c0.3-0.2,0.4-0.4,0.6-0.6c-0.7,0.1-1.2,0.2-1.8-0.2c-1.3-0.8-2.6-1.5-3.9-2.3c-1-0.6-2.1-1.3-3.1-2c-0.9-0.6-1.8-1.3-2.7-2
				c0.2-0.2,0.4-0.5,0.6-0.8c-0.2,0-0.4-0.1-0.4-0.1c-0.7,0.8-1.1,0.2-1.6-0.2c-3-2.4-5.9-5-8.5-7.8c-0.2-0.2-0.2-0.6-0.4-0.8
				c-0.1-0.2-0.4-0.3-0.7-0.4c-2-1.9-3.9-4-5.5-6.3c-1.7-2.3-3.4-4.6-5-7.1c-1.5-2.4-2.9-4.9-4.4-7.4c0.2-0.1,0.4-0.2,0.4-0.2
				c-1-0.5-0.9-1.6-1.6-2.3c0.2-0.3,0.3-0.5,0.5-0.8c-0.7,0.2-0.9-0.1-1.1-0.6c-0.4-1.2-0.9-2.3-1.4-3.4c-0.1-0.2,0-0.5-0.1-0.7
				c0-0.1-0.3-0.2-0.3-0.3c-0.5-1.4-1-2.8-1.3-4.3c-0.1-0.5-0.1-0.8-0.4-1.2c-0.4-0.6-0.5-1.5-0.6-2.2c-0.2-0.8-0.4-1.7-0.6-2.5
				c0-0.2,0.1-0.4,0.3-0.8c0,0-0.1-0.1-0.5-0.3c-0.1-0.4,0.3-0.6,0.8-0.7c-0.1-0.2-0.2-0.4-0.4-0.5c0.2-0.1,0.3-0.2,0.6-0.4
				c-0.3,0-0.5,0-0.5,0c-0.2,0.3-0.4,0.6-0.5,0.8c-0.6-0.8-1.5-8.4-1.2-8.9c-0.1-1-0.2-1.7-0.3-2.5c0.2-0.1,0.4-0.1,0.6-0.1
				c0,0,0-0.1,0-0.1c-0.2,0-0.5,0-0.6-0.1c-0.1-0.1-0.1-0.4-0.1-0.6c0.2-0.1,0.4-0.1,0.8-0.3c-0.3-0.2-0.5-0.2-0.8-0.4
				c0.1-0.9,0.1-1.8,0.2-2.7c0-0.6-0.1-1.2-0.1-1.8c0-0.8,0-1.6,0-2.4c0-0.3-0.2-0.7,0.3-0.7c0,0,0-0.2,0.1-0.3
				c-0.1,0-0.3,0-0.5-0.1c0.1-1.2,0.2-2.3,0.4-3.5c0.1-1,0.2-1.9,0.3-2.9c0.3-2,0.5-4,0.9-5.9c0.6-2.8,1.4-5.6,2.2-8.4
				c0.1-0.2,0.2-0.4,0.4-0.5c0.3-0.3,0.3-0.2,0-0.6c0-0.1,0.2-0.3,0.2-0.4c0.1-0.1,0.2-0.2,0.2-0.3c-0.1,0-0.2-0.1-0.2-0.1
				c0.3-0.9,0.6-1.8,0.9-2.6c0.2,0,0.5-0.1,1-0.1c-1.1-0.4-0.5-1-0.4-1.4c0.1-0.5,0.5-0.9,0.8-1.5c-0.1-0.6,1.3-3.4,1.8-3.4
				c-0.1-1.5,0.9-2.6,1.5-3.7c1.1-2,2.4-3.9,3.5-5.8c0,0,0-0.1,0-0.1c1.2-1.4,2.1-3.1,3.4-4.5c0.7-0.7,1.1-1.6,1.9-2.3
				c0.8-0.7,1.4-1.6,2.1-2.4c1.2-1.3,2.4-2.6,3.7-3.8c1.6-1.5,3.4-3,5.1-4.5c0.1-0.1,0.3,0,0.4-0.1c0.3,0,0.5,0,0.8,0
				c0-0.1,0-0.1,0-0.2c-0.2-0.1-0.3-0.1-0.5-0.2c0-0.1,0-0.1,0-0.1c0.6,0.1,0.5-0.5,0.8-0.7c1.3-0.9,2.5-1.9,3.8-2.7
				c1.9-1.3,3.8-2.5,5.8-3.7c1.2-0.7,2.3-1.4,3.6-2c0.2-0.1,0.5-0.1,0.7-0.1c0.3,0,0.6,0.1,0.5-0.4c0-0.1,0.2-0.2,0.3-0.3
				c2.3-1.1,4.7-2.2,7.1-3.2c1.5-0.6,3-1.3,4.6-1.7c1.7-0.4,3.3-1.3,5-1.6c0.1,0.2,0.1,0.4,0.2,0.6c1.2-1.6,2.9-1.6,4.5-1.5
				c-0.2-0.1-0.3-0.1-0.5-0.2c0-0.1,0-0.1,0.1-0.1c2.3-0.5,4.6-1,6.9-1.4C79,4.5,80.5,4.3,82,4.1c1-0.1,2-0.3,3-0.4
				c1-0.1,2.1-0.2,3.1-0.3c1.5-0.1,3-0.3,4.6-0.3c1.6,0,3.3,0.1,4.9,0.2c0,0,0.1,0,0.1,0c1.6-0.4,3.2-0.2,4.8,0
				c2.4,0.4,4.8,0.9,7.2,1.3c0.2,0,0.5,0.3,0.7,0.4c0.1,0,0.3-0.1,0.5-0.1c2,0.7,3.9,1.4,5.9,2.1c1.5,0.5,2.9,1.1,4.3,1.7
				c1.4,0.6,2.9,1.4,4.2,2.1c0.3,0.1,0.3,0.7,0.6,0.9c0.3,0.1,0.7-0.2,1,0c0.8,0.4,1.6,0.9,2.4,1.4c0.3,0.2,0.5,0.4,0.7,0.6
				c0.2,0.1,0.5,0.1,0.8,0.3c0.7,0.4,1.4,0.9,2.1,1.4c1.4,1,2.9,1.9,4.3,2.9c1.4,1.1,2.9,2.1,4.2,3.3c1,1,2.2,1.7,3.2,2.7
				c0.2,0.2,0.1,0.5,0.2,0.8c0,0.1,0.1,0.2,0.3,0.3c0-0.2,0-0.3-0.1-0.5c0.1,0,0.2,0,0.2,0c0.9,0.9,1.8,1.8,2.7,2.7
				c0.1,0.1,0.1,0.3,0.1,0.5c0,0.1,0.1,0.2,0.2,0.2c1.3,0.4,1.8,1.6,2.7,2.3c0.4,0.3,0.7,0.7,1,1.1c0.2,0.2,0.3,0.5,0.3,0.6
				c0.5,0.5,0.9,0.8,1.2,1.2c1,1.2,2,2.3,2.8,3.6c2,2.8,3.9,5.7,5.7,8.7c0.3,0.5,1,1,0.9,1.9c-0.1,0.3,0.6,0.7,0.8,1.1
				c1,2,1.9,3.9,2.8,6c0.8,1.8,1.4,3.7,2,5.6c0.2,0.6,0.2,1.3,0.4,1.9c0.2,0.6,0.5,1.1,0.7,1.6c0.4,1.6,0.8,3.3,1.3,4.9
				c-0.2,0-0.3,0-0.6,0c0.5,0.5,1.2,0.8,0.5,1.6c0.1,0,0.2-0.1,0.4-0.1c0,0.6,0.7,1.3-0.4,1.7c0.2-0.1,0.4-0.1,0.7-0.2
				c0.3,2.1,0.5,4.1,0.7,6.2c0.1,0.5,0.5,1-0.1,1.5c0.1,0.1,0.3,0.2,0.3,0.4c0,0.8,0,1.6,0.1,2.5c0,0.1-0.1,0.2-0.1,0.2
				c0.8,1,0,2.2,0.4,3.3c-0.3,0-0.4,0.1-0.7,0.1c1,0.6,0.5,1.5,0.6,2.3c0.1,0.8,0,1.6,0,2.5c0,0.2-0.3,0.4-0.3,0.6
				c0,0.2,0.1,0.4,0.2,0.9c0,0.2,0.2,0.9,0,1.1c-0.5,0.6,0.2,1.1-0.1,1.7c-0.1,0.2,0.2,0.6-0.3,0.6c0,0.1,0.1,0.3,0.1,0.4
				c0.1,0,0.2,0,0.2,0c-0.6,1,0.4,2.4-1.3,3.1c1.5,0.3,0.6,1.2,0.6,1.9C171.6,101.5,171.3,102.1,171.2,102.7z M131.6,31.1
				c0-0.1,0-0.2,0-0.3c-0.3,0-0.5,0-0.8,0.1c-0.4,0-0.8,0.1-1.1,0c-1-0.6-2-1.3-3-2c-0.7-0.5-0.9-0.4-1.3,0.3
				c-0.4,0.6-0.7,1.3-1.1,1.9c-0.8,1.2-1.6,2.4-2.3,3.6c-1.2,2-2.4,4.1-3.6,6.1c-0.4,0.7-1.2,0.8-1.9,0.7c-0.7-0.1-1.2-0.5-1.5-1.2
				c-0.5-1,0.2-1.8,0.6-2.5c1-1.9,2.2-3.8,3.4-5.7c1-1.6,1.9-3.2,2.9-4.8c0.6-0.9,0.6-1.1-0.4-1.6c-1-0.5-2-1-3-1.5
				c-0.2-0.1-0.5-0.6-0.6-0.5c-0.6,0.3-0.7-0.3-1-0.5c-0.9,0.2-1.6-0.5-2.4-0.7c-0.3-0.1-0.6-0.3-0.9-0.5c-0.2-0.1-0.4,0-0.6-0.1
				c-2.5-1-5-1.8-7.6-2.4c-2.2-0.5-4.4-0.9-6.6-1.4c-0.3-0.1-0.6-0.2-0.9-0.3c-0.3,0.1-0.6,0.1-0.9,0.1c-1.1,0-2.1-0.6-3.2-0.4
				c-0.9,0.1-1.8-0.1-2.7-0.1c-1,0-1.2,0.1-1.2,1.2c0,2.1,0,4.1,0,6.2c0,0.8,0,1.7,0,2.5c-0.3-0.1-0.5-0.2-0.8-0.3
				c0.1-0.2,0.2-0.3,0.3-0.5c-0.3,0-0.7-0.1-1-0.1c0,0,0,0.1,0,0.1c0.2,0.1,0.4,0.2,0.6,0.4c-0.1,0.1-0.2,0.1-0.4,0.2
				c0.3,0.1,0.6,0.2,0.9,0.4c-0.4,0.2-0.6,0.3-0.8,0.5c0,0,0,0.1,0,0.1c0.3-0.1,0.6-0.1,1-0.2c-0.2,0.8,0.4,1.6-0.6,2.2
				c0.2,0,0.3-0.1,0.5-0.1c0,0.9,0,1.8,0,2.7c0,0.4-0.2,0.8-0.3,1.2c0.1,0.2,0.2,0.5,0.3,0.7c0,0.6,0.1,1.2,0,1.8
				c-0.1,0.6,0.4,1.5-0.7,1.8c0,0,0,0.1,0,0.1c0.3,0.3,0.7,0.7,0.7,1.1c0.1,0.8,0.1,1.6,0,2.5c-0.1,0.9-0.7,1.8-2.3,1.7
				c-0.8-0.1-1.6-0.9-1.6-1.7c0-0.9,0-1.8,0-2.7c0.1-1-0.3-2.1,0.3-3.1c0-0.1,0-0.2,0-0.2c-0.6-0.1-0.3-0.5-0.3-0.8
				c0-0.9,0-1.7,0-2.6c0-0.9,0.1-1.7,0-2.6c-0.1-0.7,0.1-1.5,0.1-2.2c-0.1-1.6-0.1-3.1,0-4.7c0-0.4,0.2-0.8,0.3-1.3
				c-0.5-0.3-0.6-1.6,0-2.6c-0.1-0.3-0.3-0.5-0.4-0.7c-0.1-0.6-0.4-0.8-1-0.7c-1.2,0.1-2.5,0.2-3.7,0.3c-1.7,0.2-3.4,0.3-5.1,0.6
				c-2.2,0.4-4.4,0.9-6.6,1.5c-0.4,0.1-0.6,0-0.7-0.3c0,0-0.1,0-0.2,0.1c0.1,0.1,0.1,0.2,0.2,0.3c-0.1,0.1-0.1,0.1-0.1,0.1
				c-1.3,0.4-2.6,0.8-3.9,1.3c-1.3,0.4-2.5,0.9-3.7,1.5c-1.1,0.5-2.3,0.7-3.3,1.5c-1,0.7-2.1,1.1-3.2,1.7c-0.5,0.2-0.6,0.6-0.3,1
				c0.5,0.7,0.6,1.7,1.3,2.3c0.1,0.1,0,0.3,0,0.4c0,0.4-0.5,0.6-0.2,1.1c0.1,0.1,0.2,0.3,0.3,0.4c0-0.2,0.1-0.4,0.1-0.6
				c0-0.1-0.1-0.3-0.2-0.4c0.2-0.1,0.3-0.1,0.4-0.2c0.2,0.6,0.5,1.1,0.9,1.7c1,1.5,1.9,3.1,2.8,4.7c-0.1,0-0.3,0-0.4,0
				c0.3,0.2,0.6,0.3,0.7,0.5c0.5,0.7,1,1.4,1.2,2.2c0.2,0.5,0.1,1.1-0.1,1.7c-0.2,0.5-0.7,0.6-1.2,0.9c-1,0.4-1.6,0-2.1-0.6
				c-0.3-0.4-0.9-0.8-0.5-1.5c-0.6,0-0.7-0.3-0.5-0.7c-0.3-0.3-0.5-0.5-0.7-0.8c-0.4-0.5-0.7-1.1-1-1.7c-0.3-0.3-0.3-0.6,0.1-0.9
				c0,0,0-0.1,0-0.1c-0.2,0-0.4,0.1-0.4,0.1c-1.4-2.4-2.8-4.6-4.2-6.9c-0.6,0.4-1.2,0.5-1.7,1c-0.8,0.7-1.8,1.2-2.6,1.9
				c-1.9,1.5-3.8,3-5.6,4.6c-1.5,1.4-3,2.8-4.4,4.4c-1,1.2-2.1,2.3-3.1,3.6c-1,1.4-2.2,2.7-3.1,4.2c-0.8,1.4-2.2,2.4-2.2,4.2
				c0,0.1,0,0.2-0.1,0.3c0.1-0.1,0.3-0.2,0.4-0.2c0.7,0.4,1.5,0.7,2.2,1.2c0.9,0.6,1.8,1.2,2.7,1.7c0.8,0.5,1.7,0.7,2.6,1.2
				c0.7,0.4,1.4,0.8,2.1,1.2c0.8,0.5,1.7,0.9,2.5,1.4c0.7,0.4,1,1.4,0.8,2.3c-0.2,0.7-0.7,1.2-1.5,1.3c-0.2,0-0.5-0.1-0.7-0.1
				c-0.3,0-0.7,0-0.9-0.1c-0.8-0.5-1.8-0.7-2.1-1.5c-0.5-0.1-0.9-0.1-1.1-0.3c-2.7-1.5-5.4-3-8.1-4.5c-0.8-0.4-1-0.4-1.3,0.4
				c-1.2,2.8-2.4,5.5-3.5,8.3c-1.5,3.9-2.5,8-3,12.2c-0.3,2.3-0.5,4.7-0.7,7c0,0.1-0.1,0.3-0.1,0.4c0.1-0.7-0.4-0.6-1-0.7
				c0.7,0.9,1.3,1.7,1,2.7c0.6,0.3,0.8,0,0.8-0.5c0.5,0.3,1,0.5,1.4,0.7c0-0.1,0.1-0.2,0.1-0.2c-0.2-0.1-0.4-0.3-0.6-0.5
				c1.8,0,3.5,0,5.2,0c0.7,0,1.5-0.1,2.1,0.4c0.1,0,0.2,0,0.3,0c-0.1-0.2-0.1-0.3-0.2-0.4c1.6,0.3,3.2-0.4,4.7,0.5
				c-0.1-0.1-0.2-0.2-0.4-0.4c1.4,0,2.7,0,4,0c0.4,0,0.8,0.2,1.3,0.3c0,0,0.2-0.3,0.4-0.2c1.1,0.2,2.3-0.4,3.4,0.3
				c0.1,0,0.2,0,0.3,0c0.5-0.4,1-0.4,1.5-0.1c0.4,0.3,0.9,0.6,1.2,1c0.4,0.6,0.2,1.7-0.3,2.2c-0.5,0.6-1.5,0.7-1.8,0.4
				c-0.3,0.1-0.5,0.2-0.7,0.2c-1.8,0-3.5,0.1-5.3,0.1c-0.6,0-1.2-0.2-1.9-0.3c-0.1,0-0.1,0-0.2,0.1c-0.3,0.1-0.5,0.3-0.8,0.3
				c-4.6,0-9.2,0-13.9,0c-0.1,0-0.2,0-0.3,0c-0.1-0.2-0.1-0.4-0.2-0.7c-0.1,0.3-0.2,0.4-0.2,0.5c0,0.8-0.1,1.6,0,2.4
				c0.1,1.4,0.3,2.7,0.4,4.1c0.1,0.6,0.1,1.2,0.1,1.9c0.2,0.2,0.6,1.4,0.3,1.6c-0.5,0.4-0.2,0.6,0.3,0.9c-0.2,0.1-0.4,0.2-0.6,0.3
				c0,0,0.1,0.1,0.1,0.1c0.2,0,0.4-0.1,0.7-0.2c-0.1,0.2-0.2,0.4-0.2,0.5c0,0.2-0.1,0.5,0,0.7c0.1,0.2,0.4,0.3,0.4,0.4
				c0.3,1.2,0.6,2.5,0.9,3.7c0.2,0.9,0.4,1.7,0.7,2.6c0.6,1.6,1.2,3.2,1.8,4.8c0,0-0.1,0.1-0.1,0.1c-0.3-0.1-0.6-0.3-1-0.4
				c0,0.2,0,0.5,0.1,0.6c0.1,0.1,0.4,0.3,0.5,0.2c0.6-0.4,0.7,0.1,0.9,0.4c0.2,0.4,0.4,0.8,0.5,1.1c-0.2,0.2-0.3,0.3-0.4,0.4
				c0.2,0,0.4,0.1,0.6,0.1c0.1,0.3,0.2,0.8,0.5,1.1c0.6,0.9,0.7,2.3,2,2.4c0.2-0.2,0.2-0.4,0.4-0.5c0.8-0.5,1.7-0.9,2.5-1.3
				c0,0,0.1,0.1,0.1,0.1c0,0.1-0.1,0.1-0.1,0.2c-0.1,0.1-0.1,0.1-0.2,0.2c0.8,0.2,1,0.1,0.9-0.3c-0.1-0.5,0.3-0.9,0.8-0.8
				c0.2,0,0.5,0,0.7,0.1c0-0.1-0.1-0.1-0.1-0.2c0.1-0.2,0.3-0.5,0.5-0.6c0.9-0.5,1.9-1,2.9-1.6c0.1,0.1,0.1,0.3,0.2,0.4
				c0.2-0.1,0.5-0.2,0.8-0.3c-0.2-0.2-0.3-0.3-0.5-0.4c0.3-0.1,0.7-0.3,1.2-0.5c0.9-0.3,1.9,0.1,2.3,1c0.4,0.7,0,2-0.7,2.5
				c-1.6,0.9-3,2.1-4.8,2.3c-0.2,0.3-0.3,0.5-0.4,0.6c-1.4,0.8-2.8,1.5-4.2,2.3c-0.3,0.2-0.5,0.4-0.7,0.7c-0.2,0.2-0.2,0.5-0.3,0.6
				c0.3,0.2,0.6,0.3,0.7,0.6c1,1.5,2,2.9,3,4.5c-0.1,0-0.2,0.1-0.3,0.1c0.4,0.4,0.9,0.7,1.2,1.1c1,1.1,1.8,2.3,2.8,3.4
				c1.7,1.8,3.4,3.6,5.2,5.3c0.6,0.6,1.2,1.1,1.7,1.5c-0.1,0.4-0.2,0.5-0.2,0.7c0,0,0.1,0.1,0.2,0.1c0.1-0.2,0.2-0.4,0.3-0.6
				c0.5,0.5,1,1,1.6,1.4c1.6,1.2,3.3,2.4,4.9,3.7c1.2,0.9,1.5,0.9,2.2-0.4c0.9-1.5,1.9-3.1,2.9-4.6c0.5-0.8,1.1-1.6,1.6-2.4
				c0.4-0.6,0.7-1.2,1-1.8c0.4-0.6,1-0.9,1.7-0.8c0.8,0.1,1.5,0.5,1.8,1.3c0.1,0.1,0.1,0.4,0,0.5c-0.2,0.2-0.5,0.4-0.7,0.5
				c0,0,0.1,0.1,0.1,0.1c0.2,0,0.4,0,0.6,0.1c-0.2,0.4-0.3,0.8-0.5,1.2c-0.8,1.3-1.6,2.6-2.4,3.9c-0.9,1.6-1.9,3.1-2.8,4.7
				c-0.2,0.4,0,1.2,0.4,1.3c0.5,0.2,1,0.3,1.4,0.5c1.3,0.6,2.6,1.4,3.9,2c1.5,0.7,3.1,1.2,4.6,1.7c0.1,0.1,0.3,0.2,0.3,0.3
				c0,0.4,0,0.4,0.4,0.3c0.4,0,0.7,0,1.1,0c2.7,0.7,5.4,1.3,8,2c0.5,0.1,1.2,0,1.3,0.7c0,0.1,0.2,0.2,0.4,0.4c0-0.3,0-0.5,0-0.7
				c1,0.1,1.9,0.2,2.9,0.4c0.6,0.1,1.2,0.2,1.8,0.3c1.3,0.1,2.6,0.1,3.9,0.3c0.9,0.1,1.3-0.1,1.3-1c0-1.3,0-2.6,0-3.9
				c0-3.1,0-6.2,0-9.4c0-1.2-0.1-2.5,0.2-3.7c0.2-0.8-0.1-1.7-0.2-2.6c0-0.6-0.1-1.2,0.4-1.7c0,0,0-0.1-0.2-0.3
				c0,0.2-0.1,0.3-0.1,0.4c0,0,0,0-0.1,0c-0.3-2.5,0.6-3.1,2.1-3.2c-0.1,0.2-0.2,0.3-0.2,0.5c0.5-0.4,0.9-0.4,1.4,0.1
				c0.6,0.6,0.3,1-0.3,1.4c0.3,0.1,0.4,0.1,0.6,0.2c0-0.1,0.1-0.3,0.2-0.6c0,2.2,0,4.2,0,6.2c0,0.2-0.2,0.5-0.3,0.7
				c0.1,0.1,0.3,0.2,0.3,0.4c0,1.7,0,3.3,0,5c0,0.2-0.2,0.4-0.2,0.5c0.4,0.8,0.3,1.7-0.4,2.3c0.2,0,0.4,0,0.5,0c0,2.6,0,5.1,0,7.6
				c-0.2,0-0.3,0-0.4,0c0.1,0.1,0.1,0.3,0.2,0.4c0.1,0.1,0.3,0.2,0.5,0.4c0.1,0.1,0.3,0.4,0.4,0.4c0.5,0.1,1.1,0.2,1.6,0.1
				c1.3-0.1,2.6-0.4,3.8-0.5c1.2-0.2,2.4-0.3,3.6-0.5c1.1-0.2,2.1-0.4,3.2-0.6c0.2,0,0.5,0.1,0.7,0.1c0.2,0,0.4-0.4,0.5-0.4
				c0.5,0.2,0.8-0.2,1.2-0.3c2.3-0.7,4.6-1.4,6.9-2.1c0.2-0.1,0.6,0.1,0.9,0.1c0.1-0.3,0.1-1,0.9-0.4c0.1,0.1,0.4-0.1,0.4-0.1
				c0-0.7,0.5-0.5,0.9-0.7c0.9-0.3,1.8-1,2.7-1.3c0.6-0.2,1.1-0.9,1.8-0.4c0.2-1.2,1.3-1,2.1-1.3c0-0.2,0-0.4-0.1-0.5
				c-0.5-1-1.1-2-1.6-3c-1-1.8-2.1-3.6-3.1-5.4c-0.2-0.3-0.2-0.6-0.3-1c-0.1-0.1-0.4-0.1-0.5-0.3c-0.2-0.6-0.4-1.3-0.3-1.9
				c0.2-1.1,1.3-1.5,2.2-0.9c0.1,0.1,0.3,0.2,0.4,0.1c0.6-0.3,0.8,0.2,1,0.5c0.4,0.5,0.6,1,0.9,1.5c1.5,2.6,3,5.1,4.5,7.7
				c0.3,0.6,0.6,0.6,1.2,0.3c2.3-1.5,4.6-3.1,6.8-5c0.3-0.3,0.8-0.5,1.1-0.7c0.1,0.1,0.1,0.1,0.2,0.2c-0.1,0.4-0.2,0.8-0.3,1.3
				c0.3,0,0.6,0.1,1,0.1c-0.2-0.2-0.4-0.3-0.5-0.5c0.5-0.4,0.4-0.7-0.3-0.9c0.3-0.1,0.5-0.1,0.7-0.2c-0.4,0-0.6-0.1-1-0.1
				c0.1-0.2,0.2-0.2,0.2-0.3c1.1-1,2.3-2,3.4-3.1c2.2-2.4,4.4-4.8,6.4-7.3c1.4-1.8,2.6-3.8,3.9-5.6c0.3-0.4,0.3-0.8-0.3-1.1
				c-2.5-1.4-5-2.7-7.5-4.2c-1-0.6-2.3-0.8-2.8-2.3c-0.2-0.6-0.4-1,0-1.6c0.6-1.1,1.9-1.3,2.8-0.4c0.1,0.1,0.2,0.1,0.2,0.1
				c0.2-0.4,0.4,0,0.5,0c0.8,0.2,1.2,0.9,2,1.1c1.1,0.4,2,1.1,3,1.7c1.2,0.7,2.4,1.3,3.6,2c0.4,0.2,1.1,0,1.1,0.9
				c0.1-0.4,0-0.7,0.1-1c0.6-1.5,1.3-3,1.9-4.5c0.4-0.9,0.7-1.7,1.1-2.6c0.3-0.8,1-1.4,0.9-2.3c0,0,0.1-0.1,0.1-0.1
				c0.3-0.9,0.8-1.7,0.9-2.6c0-0.3,0.4-0.6,0.5-0.8c0-0.3-0.1-0.6,0-0.8c0.2-0.8,0.5-1.6,0.7-2.4c0.3-1.7,0.6-3.5,0.9-5.2
				c0.2-1.1,0.2-2.2,0.4-3.3c0.1-0.3,0.3-0.6,0.4-0.8c-0.1-0.4-0.3-0.7-0.3-1c0-0.8,0.1-1.6,0.1-2.4c0-0.5-0.2-0.7-0.7-0.7
				c-0.3,0-0.5-0.2-0.7-0.3c-0.2,0.1-0.5,0.2-0.7,0.3c-0.6,0-1.3-0.1-1.9-0.1c-3.3,0-6.7,0.1-10,0.1c-0.6,0-1.2-0.2-1.9-0.3
				c-0.1,0-0.2,0-0.3,0.1c-0.2,0.1-0.5,0.2-0.7,0.2c-0.9,0-1.8,0-2.8,0c-0.6,0-1.1,0-1.1-0.7c0-0.1-0.2-0.1-0.3-0.2
				c0,0.3,0,0.6,0,0.9c-0.8,0-1.6,0.1-2.3,0c-0.5,0-0.9-0.2-1.4-0.4c-0.8-0.3-0.9-1.1-0.8-1.8c0.1-0.5,0.4-1,0.8-1.3
				c0.9-0.7,1.9-0.5,2.9-0.4c0.3,0,0.6,0.2,1,0.3c0.1-0.1,0.4-0.3,0.6-0.3c4.2,0,8.5,0,12.8,0c0,0.2,0.1,0.4,0.1,0.7
				c0.6-0.7,1.2-0.8,1.9-0.6c0,0.2,0,0.4,0,0.6c0.1-0.1,0.2-0.3,0.4-0.4c0.2-0.1,0.4-0.3,0.6-0.3c1.3,0,2.6,0,3.9,0
				c0.7,0,0.8-0.4,0.8-1c-0.1-1.3-0.2-2.5-0.3-3.8c-0.1-1-0.3-2.1-0.4-3.1c-0.1-0.8-0.1-1.6-0.1-2.4c-0.1-0.2-0.2-0.5-0.3-0.8
				c0-0.2,0-0.4,0-0.6c-0.4-1.5-0.8-3-1.2-4.5c0-0.1,0.1-0.2,0.2-0.2c0.1-0.1,0.1-0.2,0.1-0.4c-0.2,0-0.4,0-0.5,0
				c-0.5-1.7-1-3.5-1.6-5.4c-0.5-1.2-1.1-2.6-1.8-4c0.3,0,0.4,0,0.8,0c-0.2-0.2-0.4-0.5-0.5-0.4c-0.4,0.2-0.5-0.2-0.6-0.4
				c-0.3-0.6-0.6-1.3-0.9-1.9c-0.4-1.1-0.8-1.2-1.8-0.7c-0.9,0.5-1.8,1-2.7,1.6c-0.5,0.3-0.9,0.6-1.4,0.1c-0.1-0.1-0.3,0.1-0.5,0.1
				c0.4,0.2,0.5,0.3,0.8,0.4c-1.6,0.9-3.2,1.7-4.7,2.5c-0.7,0.4-1.4,0.6-2,1.1c-1.2,0.9-2.1,0.9-3.1,0.1c0.1-0.2,0.2-0.3,0.2-0.4
				c0-0.2-0.1-0.4-0.2-0.7c-0.2,0.2-0.3,0.3-0.5,0.4c-0.4-0.8-0.1-1.8,0.8-2.4c0.3-0.2,0.9-0.1,1.1-0.4c0.4-0.5,0.9-0.7,1.5-1
				c2.2-1.2,4.3-2.4,6.5-3.6c1-0.6,2-1.1,3-1.7c0.2-0.1,0.3-0.5,0.2-0.7c-0.4-0.7-0.8-1.3-1.2-1.9c-1.2-1.8-2.5-3.6-3.7-5.4
				c0-0.1,0.1-0.3,0.2-0.4c-0.2,0.1-0.3,0.1-0.5,0.2c-0.9-1.3-1.7-1.6-1.8-2.9c-0.1,0.1-0.2,0.2-0.2,0.2c-3.3-3.1-6.6-6.2-9.8-9.3
				c0.1-0.1,0.3-0.1,0.4-0.2c0-0.1,0-0.1,0-0.2c-0.3,0-0.6,0.1-0.8,0.1c0,0,0-0.1,0-0.1C131.1,31.3,131.4,31.2,131.6,31.1z
				 M159.2,98.9c0.1,0,0.1,0,0.2,0c0.1-0.5,0.3-1,0.4-1.5c-0.5,0-1,0.1-1.5,0.1c0,0.1,0,0.1,0,0.2c0.3,0.1,0.7,0.1,0.9,0.3
				C159.2,98.2,159.1,98.6,159.2,98.9z M168.3,81.8c0-0.4,0-0.6,0-0.9c-0.3,0-0.6,0.1-0.9,0.1c-0.3,0.1-0.6,0.1-1,0.2
				C167.1,81.4,167.6,81.5,168.3,81.8z M105.4,14.6c-0.4,0.5-0.7,1-1,1.5c0.7-0.3,1.1-0.6,1.7-0.8C105.9,15.1,105.6,14.9,105.4,14.6
				z M11.7,116.1c0.4,0,0.7,0,1.1,0.1c-0.1-0.2-0.2-0.3-0.2-0.3c-1-0.3-1.4,0.3-1.9,1.1c0.4-0.1,0.7-0.1,1-0.2
				C11.8,116.7,11.7,116.4,11.7,116.1z M165,110.5c-0.2,0.3-0.9,0.5-0.4,1.1c0.1,0.1,0.5,0.1,0.7,0
				C165.6,111.2,165.4,110.8,165,110.5z M76.3,11.5c0-0.5-0.1-1-0.2-1.4c0,0-0.3,0-0.4,0c0.1,0.4,0.2,0.7,0.3,1.1
				c-0.1,0-0.1,0.1-0.2,0.1c-0.2-0.2-0.5-0.3-0.7-0.5C74.9,11.5,75,11.6,76.3,11.5z M162.4,73.5c0.7,0.3,1.2,0.6,1.7,0.8
				c0-0.1,0.1-0.1,0.1-0.2c-0.3-0.4-0.7-0.7-1.1-1.1C163.1,73,162.8,73.3,162.4,73.5z M146.6,54.7c0.6,0.5,1.2,0.9,1.7,1.2
				c0-0.9-0.8-1.1-1.4-1.5C146.8,54.5,146.7,54.6,146.6,54.7z M60.1,158.4c0-0.1-0.1-0.1-0.1-0.2c-0.4,0.1-0.8,0-1.1,0.2
				c-0.2,0.1-0.4,0.5-0.5,0.7c0,0,0.3,0.2,0.4,0.3c0.2-0.2,0.4-0.4,0.5-0.7c0,0-0.1,0-0.1-0.1C59.5,158.6,59.8,158.5,60.1,158.4z
				 M71.2,9.9C72.5,9,72.5,9,72.4,8.7c-0.5,0.2-1,0.4-1.5,0.6c0,0.1,0,0.2,0.1,0.4C71,9.8,71.1,9.8,71.2,9.9z M149.9,139.5
				c0-0.2,0.1-0.4,0.1-0.6c0.1-0.4-0.4-0.9-0.7-0.8c0.8,0.4-0.1,0.7-0.2,1C149.4,139.3,149.6,139.4,149.9,139.5z M155.6,42.6
				c-0.2-0.3-0.2-0.5-0.4-0.6c-0.2-0.2-0.4-0.2-0.5-0.4c-0.1,0.1-0.1,0.1-0.2,0.2c0.1,0.3,0.1,0.7,0.3,0.8
				C155,42.8,155.4,42.6,155.6,42.6z M51.7,163c1.1,0.1,1.1,0.1,1.4-1.2C52.5,162.2,52.1,162.5,51.7,163z M63.4,15.7
				c-0.1,0-0.2,0.1-0.3,0.1c0.7,0.7,0.1,1-0.4,1.3c0.7,0.1,1.2-0.2,1.2-0.6C63.9,16.2,63.6,15.9,63.4,15.7z M65,10.8
				c0-0.1,0.1-0.2,0.1-0.3c-0.5-0.2-1.1-0.4-1.6-0.6c0,0.1-0.1,0.3-0.1,0.4C63.9,10.4,64.4,10.6,65,10.8z M13.6,110.4
				c-0.5-0.4-0.8-0.7-1.2-1c0.1,0.4,0.2,0.8,0.3,1.2C13,110.6,13.3,110.5,13.6,110.4z M21.3,64.3c-0.6,0.1-1.2,0.1-1.2,0.9
				C20.8,65.3,21.1,64.9,21.3,64.3z M39,33.5c0.3,0.1,0.5,0.2,0.6,0.4c0.2,0.2,0.3,0.4,0.4,0.7c0.1-0.3,0.2-0.5,0.4-0.8
				C40.2,33.3,39.6,33.5,39,33.5z M11.9,65.3c-0.1,0-0.1,0.1-0.2,0.1c0.2,1.1,0.2,1.1,0.9,0.7C12.3,65.8,12.1,65.6,11.9,65.3z
				 M9.4,72.5c0.2-0.3,0.3-0.4,0.4-0.5c-0.1-0.1-0.1-0.1-0.2-0.2c-0.3,0.3-0.6,0.5-0.9,0.8c0,0.1,0.1,0.1,0.1,0.2
				c0.4-0.1,0.8-0.1,1.3-0.2c0-0.1,0-0.1,0-0.2C9.9,72.5,9.7,72.5,9.4,72.5z M166.6,107.5c0-0.1,0.1-0.1,0.1-0.2
				c-0.5-0.3-1.1-0.7-1.6-1C165.1,107.4,166.1,107.1,166.6,107.5z M32.2,42.5c0.1-0.5,0.1-1,0.2-1.6c-0.1,0.1-0.3,0.3-0.4,0.4
				c-0.1,0.2-0.1,0.4-0.1,0.5C31.5,42.4,31.7,42.6,32.2,42.5z M83.6,168.8c0.1-0.3,0.2-0.6,0.3-0.8c-0.4-0.1-0.7-0.2-1-0.3
				c0,0.1-0.1,0.3-0.1,0.4C83,168.3,83.2,168.5,83.6,168.8z M15.2,65c0-0.1,0.1-0.1,0.1-0.2c0-0.3,0-0.7-0.1-1.1
				c-0.3,0.2-0.5,0.4-0.8,0.6C14.7,64.5,14.9,64.7,15.2,65z M149.1,47.9c0.1,0,0.1,0,0.2,0c0.8-0.9,0.8-1.3,0.3-1.5
				C149.4,46.9,149.2,47.4,149.1,47.9z M77.2,17.8c0.2-0.2,0.3-0.4,0.4-0.6c0.1-0.2,0.2-0.3,0.2-0.5c0-0.1-0.3-0.3-0.3-0.2
				c-0.2,0.1-0.4,0.3-0.4,0.4C77.1,17.2,77.2,17.5,77.2,17.8z M102.1,160.9c0.4,0.3,0.8,0.5,1.1,0.7
				C103.2,160.6,103.2,160.6,102.1,160.9z M74.4,167.1c0.1,0,0.2,0,0.3-0.1c0-0.2,0.1-0.6,0-0.7c-0.2-0.1-0.5-0.1-0.8-0.2
				C74.1,166.5,74.2,166.8,74.4,167.1z M15.9,87.3c-0.2,0.3-0.3,0.6-0.4,1c0.5-0.1,0.9-0.3,1.2-0.4C16.4,87.7,16.2,87.5,15.9,87.3z
				 M166.6,85.7c0,0.1,0,0.1-0.1,0.2c0.3,0.2,0.6,0.4,0.9,0.6c0.1-0.3,0.1-0.6,0.2-0.8C167.2,85.7,166.9,85.7,166.6,85.7z
				 M153.1,40.2c0.6,0.6,1.1,0.2,1.7,0.1c0-0.1-0.1-0.3-0.1-0.3C154.1,40,153.7,40.1,153.1,40.2z M156.3,62.3c0.5,0.1,0.7,0.2,1,0.3
				c0,0.2,0,0.4-0.1,0.7c0.8-0.4,0.4-0.8,0.2-1.2C157.1,62.1,156.9,62.2,156.3,62.3z M114.1,13.4c0.3,0.4,0.6,0.7,0.8,1
				c0.1-0.3,0.3-0.6,0.4-1.1C114.9,13.4,114.6,13.4,114.1,13.4z M22.3,55.6c0.4,0.2,0.8,0.4,1.3,0.6C23.6,55.5,23.3,55.3,22.3,55.6z
				 M148.7,45.2c0-0.1,0-0.1-0.1-0.2c-0.5,0-1-0.1-1.5-0.1c0,0,0,0.1,0,0.1c0.3,0.2,0.5,0.3,0.9,0.5
				C148.1,45.5,148.4,45.3,148.7,45.2z M141.1,146.2c-0.1,0-0.4-0.1-0.5,0c-0.2,0.2-0.3,0.5-0.4,0.7c0,0.1,0.1,0.2,0.2,0.3
				c0.1-0.1,0.2-0.2,0.3-0.3C140.9,146.7,140.9,146.5,141.1,146.2z M54.4,28.3c-0.5-0.2-0.7,0.2-0.9,0.6c-0.1,0.1,0,0.3,0,0.5
				c0.2-0.1,0.4-0.2,0.5-0.3C54.2,28.9,54.3,28.6,54.4,28.3z M85.2,168.5c0.1,0,0.1,0,0.2-0.1c0-0.3-0.1-0.6-0.1-0.9
				c-0.3,0.1-0.5,0.2-0.9,0.3C84.8,168.2,85,168.4,85.2,168.5z M56.5,22.7c0,0,0.1,0.1,0.1,0.1c0.3,0.1,0.6,0.2,0.9,0.2
				c0.1,0,0.3,0,0.5-0.1c0,0,0.1-0.2,0.1-0.2c-0.1-0.1-0.3-0.1-0.4-0.2c-0.2,0-0.3-0.1-0.5-0.1C56.9,22.6,56.7,22.7,56.5,22.7z
				 M85.7,10.4c0-0.2,0-0.4,0.1-0.6c0.3-0.5,0.3-0.5-0.3-0.6c0,0.2,0,0.4-0.1,0.5C85.1,10.2,85.2,10.3,85.7,10.4z M17.8,72.3
				c-0.6,0.1-0.6,0.1-0.4,0.7c0,0.2,0,0.4,0,0.5c0.1,0,0.2,0,0.2,0c0-0.2,0-0.4,0-0.5C17.7,72.8,17.8,72.6,17.8,72.3z M15.1,76.6
				c0.7-0.1,0.9-0.4,0.9-1.1c-0.3,0.1-0.6,0.1-0.9,0.2c0.3,0.2,0.4,0.3,0.5,0.4C15.4,76.3,15.3,76.4,15.1,76.6z M167.4,88.3
				c-0.2,0.5-0.3,0.8-0.5,1.3c0.3-0.2,0.7-0.3,1-0.5C167.7,88.8,167.6,88.6,167.4,88.3z M37,117.8c0.1-0.1,0.1-0.2,0.2-0.3
				c-0.3-0.2-0.6-0.4-0.9-0.6c0,0.1-0.2,0.4-0.1,0.4C36.4,117.5,36.7,117.6,37,117.8z M56.9,16.1c-0.3-0.7-0.4-0.7-1.6,0.2
				C56,16.2,56.5,16.2,56.9,16.1z M70.9,160.7c-0.5,0-0.9-0.8-1.3,0c0.1,0.2,0.2,0.4,0.3,0.5C70.2,161,70.5,160.9,70.9,160.7z
				 M103.9,156.8c0,0,0.1,0.1,0.1,0.1c0.3-0.1,0.7-0.2,1-0.4c0.1-0.1,0.1-0.3,0.2-0.4c-0.1,0-0.3-0.1-0.4,0
				C104.5,156.3,104.2,156.6,103.9,156.8z M123.7,152c0,0,0.1-0.1,0.1-0.1c-0.2-0.2-0.4-0.5-0.5-0.4c-0.3,0.1-0.5,0.3-0.7,0.5
				c-0.1,0.1,0.1,0.4,0.2,0.7c0.1-0.4,0.1-0.6,0.1-0.7C123.2,152,123.4,152,123.7,152z M129.6,151.5c0-0.4,0.1-0.8,0.1-1.2
				c-0.3,0.1-0.5,0.1-0.8,0.2c0.2,0.1,0.3,0.2,0.3,0.2C128.7,151.3,129.4,151.3,129.6,151.5z M97.4,11.5c-0.4-0.2-0.8-0.3-1.3-0.5
				C96.4,11.9,96.7,12.1,97.4,11.5z M28.7,144c-0.1,0.3-0.2,0.7-0.3,1.1c0,0,0.1,0.1,0.1,0.1c0.3-0.2,0.5-0.5,0.8-0.7
				c-0.1,0.1-0.2,0.2-0.3,0.2C28.9,144.5,28.8,144.2,28.7,144z M146.4,31.4c0,0,0.1,0.1,0.1,0.1c0.4-0.2,0.7-0.4,1.1-0.6
				c-0.1-0.2-0.2-0.3-0.4-0.6C146.9,30.7,146.6,31.1,146.4,31.4z M148.2,40.8c-0.4-0.7,0.1-1.1,0.7-1.5
				C147.6,39.5,147.5,39.7,148.2,40.8z M156.5,133.2c-0.8,0.2-0.7,0.6-0.6,1.1c0.3,0,0.6,0,0.9-0.1c0-0.1,0-0.1,0-0.2
				c-0.2-0.1-0.5-0.2-0.7-0.2C156.2,133.6,156.3,133.5,156.5,133.2z M26.5,121.9c-0.3-0.2-0.6-0.3-0.9-0.4c-0.2,0.4-0.3,0.7-0.5,1
				C25.7,122.3,26.1,122.1,26.5,121.9z M149.6,120.8c-0.3-0.8-0.7-1.1-1.3-0.8C148.7,120.3,149.2,120.6,149.6,120.8z M102.6,6.4
				c-1.4,0.3-1.4,0.3-0.8,0.9C102,7,102.2,6.8,102.6,6.4z M140.5,138c0.3-0.1,0.7-0.2,1-0.2c-0.2-0.2-0.4-0.2-0.6-0.3
				c-0.2-0.1-0.3-0.3-0.4-0.5c-0.1,0-0.1,0-0.2,0.1C140.5,137.4,140.5,137.7,140.5,138z M157.1,115.5c0.5,0.1,1,0.2,1.6,0.3
				c-0.3-0.3-0.7-0.5-0.3-0.9C158,115.1,157.6,115.3,157.1,115.5z M17.5,59.1c-0.9-1.1-0.9-1.1-1.3-0.7
				C16.6,58.7,17.1,58.9,17.5,59.1z"/>
			<path class="st2" d="M94.5,83.3c-0.2,0.1-0.3,0.1-0.4,0.1c0.3,0.3,0.6,0.5,0.9,0.8c0,0-0.1,0.1-0.1,0.1c-0.3,0-0.5,0-0.8,0
				c0,0.1-0.1,0.1-0.1,0.2c0.2,0.2,0.5,0.3,0.7,0.5c0.2,0.2,0.5,0.4,0.5,0.6c0.1,1.7-0.2,3.4-0.6,5.1c-0.5,2.2-0.9,4.5-1.4,6.8
				c-0.1,0.3-0.4,0.6-0.6,0.9c0.2-0.1,0.4-0.1,0.5-0.2c-0.9,4.5-1.8,8.9-2.7,13.4c-0.1-0.1-0.2-0.2-0.3-0.3
				c-0.1,0.3-0.2,0.5-0.4,0.8c0.3-0.1,0.4-0.1,0.7-0.2c-0.8,2.8-1,5.6-1.9,8.3c-0.1,0-0.3,0-0.4,0c-1.3-6.6-2.6-13.1-3.8-19.7
				c0.2,0,0.3,0,0.4,0.1c0-0.1,0-0.1,0-0.1c-0.7-0.3-0.6-1-0.7-1.5c-0.3-1.4-0.5-2.9-0.8-4.3c-0.2-0.8-0.4-1.6-0.5-2.4
				c-0.2-0.8-0.3-1.6-0.5-2.5c0-0.2,0.2-0.4,0.2-0.4c-0.2-0.5-0.4-0.9-0.5-1.4c-0.3-1.5,0-3.4,0.7-4.7c0.5-0.1,0.9-0.2,1.4-0.3
				c-0.1-0.2-0.2-0.4-0.3-0.8c-0.3,0.3-0.5,0.6-0.7,0.9c0,0-0.1-0.1-0.1-0.1c0.1-0.2,0.2-0.4,0.3-0.6c1.1-1.3,2.4-2.2,4.1-2.5
				c0.4-0.1,0.8-0.1,1.2-0.1c0.2,0,0.3,0.2,0.4,0.2c0.3-0.1,0.6-0.3,0.8-0.2c2,0.4,3.7,1.4,4.8,3.2C94.4,83.1,94.5,83.2,94.5,83.3z
				 M90.4,105.6c0-0.1,0-0.2,0-0.3c-0.5-0.1-1.1-0.3-1.7-0.4c0,0.2,0,0.4,0.1,0.6c0.4,0,0.7,0,1,0C90,105.5,90.2,105.6,90.4,105.6z
				 M85.8,96.6c-0.3-0.5-0.5-0.8-0.7-1c-0.1,0-0.1,0-0.2,0c0,0.4,0.1,0.7,0.1,1.1C85.3,96.7,85.5,96.6,85.8,96.6z M85.5,89.8
				c0.1,0.2,0.2,0.3,0.3,0.5c0.2-0.2,0.4-0.4,0.7-0.6C86.1,89.3,86.1,89.3,85.5,89.8z M90.5,89.5c-0.1,0.2-0.3,0.4-0.6,0.9
				c0.6-0.1,1-0.2,1.2-0.3C90.9,90,90.7,89.8,90.5,89.5z"/>
		</g>
	</g>
	<g>
		<path class="st2" d="M564.8,80.4c0.2-0.2,0.5-0.3,0.9-0.7c-1,0-1.4-0.4-1.6-1.1c-1.7-5.1-2.5-10.4-2-15.7c0.3-4,1.1-7.8,2.7-11.5
			c1.7-4.1,3.7-8,7.1-11.1c0.3-0.3,0.6-1.1,1.4-0.1c-0.1-1.2,0.6-1.7,1.4-2.2c1.4-1,2.8-1.9,4.4-2.4c1-0.3,1.9-0.9,2.8-1.2
			c1-0.3,2.1-0.6,3.2-0.8c1.1-0.2,2.2-0.6,3.3-0.6c3,0.1,6-0.1,9,0.8c3.4,1,6.4,2.4,9.3,4.5c0.5,0.4,1.2,0.6,1.2,1.4
			c0,0.1,0.2,0.3,0.3,0.4c3.1,1.4,4.6,4.4,6.1,7.1c2.4,4.4,3.7,9.2,4.2,14.2c0.3,3.1,0,6.2-0.1,9.2c-0.1,1-0.3,2.1-0.5,3.1
			c-0.2,0.8-0.2,1.8-0.5,2.6c-0.4,0.9-0.6,1.9-0.9,2.8c-0.3,1-0.6,2-1.2,2.9c-1.1,1.7-1.7,3.8-3.3,5.3c-0.9,0.8-1.4,2-2.2,2.9
			c-3.1,3.2-6.7,5.6-11,6.9c-4.4,1.3-9,1.6-13.5,0.7c-6.6-1.2-12.2-4.3-16.1-9.8C567.2,85.8,565.5,83.3,564.8,80.4z M587.4,85.6
			c1,0,1.6,0,2.2,0c2,0.1,4-0.3,5.8-1.3c3.1-1.7,5.1-4.2,6.6-8c1.4-3.5,2.1-7.2,1.9-11c-0.2-5.3-1.1-10.4-4.4-14.7
			c-0.2-0.2-0.2-0.6-0.3-1c-0.4-0.2-0.9-0.6-1.4-0.9c-1.5-0.9-2.9-2.1-4.5-2.6c-1.8-0.6-3.8-0.7-5.7-0.2c-2.7,0.7-5.1,1.9-6.6,4.4
			c-0.7,1.1-1.7,1.9-2.1,3.3c-1.1,3.2-2.1,6.3-2.2,9.7c0,0.4-0.4,0.9-0.6,1.2c0.1,0.3,0.4,0.7,0.4,1.1c0.4,2.5,0.6,5.1,1.1,7.6
			c0.6,3,1.8,5.7,3.9,8c0.5,0.6,0.9,1.2,1.3,1.8c0.3,0.4,0.7,0.8,1.2,0.9C585.4,84.3,586.5,85,587.4,85.6z M599.3,86.7
			c-1.2-0.5-1.4,0.5-1.9,1C598,87.4,598.6,87.1,599.3,86.7z M572.3,44c0.3-0.5,0.6-0.9,0.9-1.4C572.3,42.7,572.3,42.7,572.3,44z
			 M611,68.1c0.2,0.1,0.4,0.1,0.6,0.2c0.1-0.5,0.2-0.9,0.3-1.4c-0.1,0-0.2-0.1-0.3-0.1C611.4,67.3,611.2,67.7,611,68.1z M596.7,89.2
			c0.2,0.4,0.4,0.6,0.6,0.9c0.1-0.1,0.2-0.2,0.3-0.2c0-0.3,0-0.7,0-1.1C597.2,88.9,597,89,596.7,89.2z M610.4,87.3
			c0.1,0,0.3,0,0.4,0c0.2-0.4,0.5-0.7-0.3-1C610.4,86.7,610.4,87,610.4,87.3z M568.9,82c-0.1-0.1-0.2-0.1-0.3-0.2
			c-0.2,0.4-0.5,0.7-0.7,1.1c0.1,0.1,0.2,0.1,0.3,0.2C568.5,82.7,568.7,82.4,568.9,82z M608.4,56.9c-0.4-0.1-0.7-0.2-1.1-0.3
			c0.2,0.4,0.3,0.6,0.4,0.9C607.9,57.3,608.1,57.2,608.4,56.9z M572.7,74.9c0.1,0.6,0.2,1,0.2,1.4C573.2,75.9,573.7,75.4,572.7,74.9
			z"/>
		<path class="st2" d="M473.1,33c1.7,0.2,3-0.3,3.9,1c0.1,0.1,0.4,0.1,0.5,0.1c0.7-1,1.6-0.3,2.3-0.1c2.3,0.8,4.4,1.7,6.6,2.6
			c0.4,0.2,0.6,0.7,0.9,1.1c0.1,0.1,0.3,0.3,0.3,0.3c0.7-0.4,1.1,0.1,1.5,0.5c1.1,1,2.4,1.8,3.1,3.1c0.5,0.8,1.3,0.9,1.8,1.6
			c1.7,2.3,3.2,4.8,4.1,7.5c1.1,3,1.9,6.2,2.6,9.4c0.4,2.2,0.4,4.4,0.4,6.6c0,3.4-0.6,6.7-1.5,10c-0.4,1.5-0.9,3-1.6,4.4
			c-1.6,3.3-3.2,6.5-5.7,9.3c-1.9,2.1-4.1,3.8-6.6,5.2c-0.3,0.2-0.8,0.5-1.1,0.4c-0.7-0.3-0.8,0.2-1.1,0.5c-0.5,0.3-1,0.7-1.5,0.8
			c-2.4,0.6-4.8,1.3-7.4,1.4c-4.7,0.2-9.1-0.5-13.3-2.5c-4.7-2.2-8.4-5.5-11.1-9.9c-0.9-1.4-1.7-2.8-2.2-4.4
			c-0.6-1.8-1.7-3.4-1.9-5.4c-0.2-1.9-0.7-3.8-1-5.7c-0.1-0.4-0.3-0.8,0.3-1c0.1,0,0.2-0.4,0.1-0.4c-1.2-1.1-0.6-2.5-0.7-3.7
			c-0.2-1.4,0.1-2.8,0.2-4.2c0.2-1.4,0.4-2.9,0.7-4.3c0.3-1.4,0.6-2.7,1.1-4.1c0.4-1.3,1-2.7,1.6-3.9c2-4.2,4.8-7.7,8.5-10.6
			c3.1-2.4,6.7-3.9,10.5-4.7C469.3,33.2,471.5,33.1,473.1,33z M486.9,63.7c-0.6-0.6-0.8-2-0.4-2.8c0.1-0.1,0.1-0.3,0.1-0.4
			c-0.7,0.1-0.5-0.4-0.6-0.8c-0.9-3.3-2-6.6-4.2-9.4c-2.3-2.9-5.3-4.4-8.9-4.6c-3.4-0.1-6.4,1.5-8.8,3.7c-1.3,1.1-2,3-2.7,4.6
			c-1.2,2.7-1.9,5.5-2.1,8.5c0,0.4-0.3,0.8-0.3,1.2c0,0.7,0.3,1.4,0.3,2c0,2.2,0.1,4.4,0.6,6.6c0.2,0.7,0,1.5,0.2,2.1
			c1,1.9,2,3.8,3.1,5.7c0.5,0.9,1,1.8,1.4,2.5c0.3,0.1,0.7,0.1,0.9,0.3c1.3,0.8,2.6,1.9,4,2.4c1.3,0.4,2.8,0.3,4.1,0.2
			c4.6-0.3,7.7-2.9,9.8-6.8c2.4-4.3,3-8.9,3-13.7C486.5,64.7,486.7,64.3,486.9,63.7z M448.9,71.8c0.1,0.1,0.2,0.2,0.3,0.3
			c0.3-0.2,0.6-0.4,1-0.7c-0.4-0.3-0.6-0.5-1-0.8C449.1,71.1,449,71.5,448.9,71.8z M488.9,49c-0.1,0-0.2-0.1-0.3-0.1
			c-0.2,0.4-0.3,0.8-0.5,1.3c0.4,0,0.7,0,1.1,0C489,49.7,489,49.4,488.9,49z M489.1,70.3c-0.4-0.3-0.7-0.5-1-0.7
			c-0.1,0.4-0.2,0.7-0.3,1.1C488.4,70.5,488.7,70.4,489.1,70.3z M452.2,47.7c0.2,0,0.3,0,0.5,0c0-0.4,0-0.9,0-1.3
			c-0.1,0-0.2,0-0.3,0C452.2,46.8,452.2,47.3,452.2,47.7z M479.1,92c0,0.2,0,0.4,0,0.5c0.4,0,0.9,0,1.3,0.1c0-0.1,0-0.2,0-0.2
			C480,92.2,479.5,92.1,479.1,92z M469.4,42.5c-0.4-0.5-0.6-0.7-0.9-1c-0.2,0.4-0.3,0.6-0.5,0.9C468.4,42.4,468.7,42.5,469.4,42.5z
			 M470.1,35c0.5-0.3,0.8-0.4,1.3-0.7C470.6,34,470.1,33.8,470.1,35z M465.6,36.1c-1.1-0.1-0.7,0.4-0.7,1
			C465.2,36.7,465.4,36.5,465.6,36.1z M479.3,88.4c-0.1,0-0.2-0.1-0.3-0.1c-0.1,0.4-0.3,0.7-0.4,1.1c0.1,0,0.2,0.1,0.2,0.1
			C479,89.1,479.2,88.7,479.3,88.4z M471.4,39.4c0,0.1,0,0.2,0,0.3c0.3,0,0.7-0.1,1-0.1c0-0.1,0-0.2,0-0.3
			C472.1,39.4,471.8,39.4,471.4,39.4z M499,72.1c-0.1,0-0.1,0-0.2,0c-0.1,0.4-0.1,0.8-0.2,1.2c0.1,0,0.3,0,0.4,0
			C499,72.9,499,72.5,499,72.1z"/>
		<path class="st2" d="M298.3,88.8c0.5-0.1,0.8-0.1,1.2-0.2c-1.4-0.6-3.1-0.9-2.5-3c-0.3-0.1-0.8,0-0.9-0.2
			c-0.7-1.4-1.4-2.9-2.1-4.4c-0.1-0.2,0.2-0.6,0.1-0.6c-1.7-1.6-1.7-3.8-2.2-5.8c-1-4.2-1.4-8.4-0.8-12.6c0.3-2.3,0.1-4.8,1.5-6.8
			c0.5-4.2,2.6-7.8,5-11.2c3.1-4.5,7.4-7.7,12.6-9.4c2-0.7,4.2-1.3,6.3-1.3c3.5,0,7-0.3,10.4,0.9c0.6,0.2,1.5,0.1,1.6,1.1
			c0,0.1,0.3,0.2,0.4,0.2c0.9-0.4,1.6,0.1,2.3,0.5c3.9,1.9,7.1,4.6,9.6,8.1c2.1,3,3.9,6.2,4.7,9.9c0.3,1.4,1.3,2.8,0.7,4.4
			c1,0.8,0.7,2,0.8,3.1c0.6,4.8,0.3,9.5-0.9,14.2c-0.5,2-1.3,4-2.1,5.9c-0.6,1.5-1.3,3-2.2,4.4c-0.7,1-1.1,2.1-1.9,3
			c-1,1-1.8,2-2.8,2.9c-1,0.9-2,1.7-3.1,2.4c-1.1,0.7-2.2,1.4-3.4,1.9c-4.4,2.2-9.1,2.8-14,2.5c-4.4-0.3-8.5-1.7-12.3-4.2
			C302.2,92.7,300.4,90.8,298.3,88.8z M317.9,85.8c6.7-0.1,10-2.8,12.6-8.2c1.4-3,2.3-6.2,2.3-9.6c0-1.4,0.2-2.8,0-4.1
			c-0.2-2.4-0.5-4.8-1.2-7.1c-0.3-1.2-1-2.2-1.4-3.3c-0.3-0.8-0.6-1.4-1.2-2c-0.8-0.8-1.7-1.7-2.2-2.7c-0.3-0.6-0.4-1.1-1.2-1
			c-0.1,0-0.1-0.2-0.2-0.2c-2-1.3-4.2-1.9-6.5-1.7c-4.9,0.4-8.3,2.9-10.7,7.6c-1.3,2.6-2,5.4-2.3,8.4c-0.7,6.5,0.2,12.6,3.6,18.3
			c0.6,0.9,1.3,1.7,2.1,2.4c1.7,1.5,3.6,2.6,5.8,3.1c0.1,0,0.2,0.2,0.4,0.4c-0.3,0.3-0.5,0.5-0.8,0.7c0.4,0.2,0.7,0.4,1.2,0.6
			C318,86.7,318,86.3,317.9,85.8z M299.8,70.9c0.5,0.3,0.9,1.3,1.8,0.4C300.9,71.1,300.3,71,299.8,70.9z M295.8,67.3
			c-0.1,0.1-0.3,0.2-0.4,0.2c0,0.6,0.1,1.2,1.2,0.9C296.3,68.1,296,67.7,295.8,67.3z M338.2,85.7c-0.1-0.1-0.2-0.2-0.3-0.3
			c-0.2,0.3-0.4,0.6-0.6,0.9c0.1,0,0.1,0.1,0.2,0.1C337.8,86.3,338,86,338.2,85.7z M297.3,52c0.1-0.1,0.1-0.2,0.2-0.4
			c-0.2-0.1-0.5-0.1-0.7-0.2c0,0-0.1,0.2-0.1,0.2C296.8,51.8,297,51.9,297.3,52z M332.6,85.2c0.1-0.1,0.3-0.3,0.3-0.4
			c0-0.1-0.2-0.2-0.3-0.3c-0.1,0.1-0.3,0.3-0.4,0.4C332.3,85,332.5,85.1,332.6,85.2z M312.6,43.1c-0.1,0-0.1-0.1-0.2-0.1
			c-0.1,0.2-0.3,0.5-0.4,0.7c0.1,0,0.2,0.1,0.3,0.1C312.3,43.6,312.5,43.4,312.6,43.1z M330,91.9c0.1-0.1,0.1-0.3,0.2-0.4
			c-0.3-0.1-0.6-0.1-0.9-0.2c0,0.1-0.1,0.2-0.1,0.3C329.4,91.7,329.7,91.8,330,91.9z M338.2,71.7c-0.3-0.6-0.6-0.7-1.1,0
			C337.6,71.7,337.9,71.7,338.2,71.7z"/>
		<path class="st2" d="M410.4,53.6c1.1,0.2,1.3,0.8,1.4,1.5c0.4,2.6,0.8,5.2,1.2,7.8c0.1,0.9,0.2,1.8,0.2,2.8c0,0.4-0.2,0.7-0.3,1.1
			c-0.1,0.2-0.2,0.3-0.2,0.4c0.9,2.8,0.1,5.5-0.6,8.1c-0.8,3.3-1.7,6.6-3.7,9.4c-0.4,0.5-0.9,0.9-1.5,1.5c0.1,0.8-0.1,1.7-1.4,2
			c-0.2,0-0.4,0.1-0.4,0.3c-0.5,2.5-2.7,3.4-4.4,4.9c-1.7,1.5-3.6,2.4-5.6,3.3c-2.7,1.2-5.5,1.7-8.4,1.8c-2.9,0.1-5.8,0.1-8.6-0.7
			c-0.6-0.2-1.2-0.6-2.1-1c-0.2,0-0.8,0.2-1.2,0c-1.2-0.8-2.8-0.9-3.9-1.9c-1.2-0.9-2.4-1.8-3.6-2.7c-3-2.5-5.2-5.7-7-9.2
			c-0.2-0.5-0.3-0.9,0.2-1.2c-0.4-0.3-1-0.6-1.1-1c-0.7-2.5-1.3-5.1-2.1-7.6c-0.2-0.7,0.6-1.4-0.1-2.2c-0.4-0.5-0.2-1.5-0.4-2.3
			c-0.4-2.7-0.2-5.3,0.1-8c0.4-2.7,0.9-5.4,1.9-8c1.2-3.3,2.6-6.4,4.8-9.1c2.2-2.7,4.6-5.2,7.7-6.9c3.2-1.8,6.6-2.8,10.1-3.2
			c3.7-0.5,7.4-0.4,11,0.7c3.6,1.2,7,2.7,9.9,5.3c1.7,1.6,3.4,3.2,4.7,5.2c1.5,2.5,3.1,5,3.9,7.8C411.1,52.9,411.3,53.3,410.4,53.6z
			 M371.2,65.2c-0.2,3.6,0.5,7,1.6,10.3c1.2,3.5,3,6.5,6.2,8.5c1.1,0.7,2.2,1.3,3.6,1.6c2.7,0.4,5.2,0.1,7.6-1.2
			c2.7-1.5,4.6-3.8,5.9-6.6c1.5-3.2,2.4-6.5,2.5-10.1c0-0.5,0.2-1,0.2-1.5c-0.2-2-0.5-4.1-0.9-6.1c-0.6-3.4-1.5-6.6-4.2-9.8
			c-3.3-4-8.4-5.8-13.4-3.4c-1.5,0.7-3,1.5-4.1,2.6c-1.1,1.2-1.9,2.8-2.6,4.3C371.9,57.4,371.3,61.3,371.2,65.2z M383.1,88.8
			c-0.5-0.8-0.8-1.4-1.7-1.4C381.6,88.4,382.2,88.6,383.1,88.8z M371.2,39.6c1.1,0.4,1.1,0.4,1.2-0.4
			C372.1,39.3,371.8,39.4,371.2,39.6z M407,63.9c-0.8-0.8-1-0.4-1.2,0.2c0,0.1,0.1,0.2,0.2,0.3C406.2,64.2,406.5,64.1,407,63.9z
			 M402.3,77.7c0-0.1,0.1-0.3,0.1-0.4c-0.4,0-0.7-0.5-1.5-0.1C401.5,77.5,401.9,77.6,402.3,77.7z M378.9,37.9
			c0.3-0.5,0.5-0.7,0.5-0.9c0-0.2-0.2-0.4-0.5-0.7C378.9,36.9,378.9,37.2,378.9,37.9z M372.1,94c0.8,0.3,0.8,0.3,1.3-0.4
			C372.8,93.8,372.5,93.9,372.1,94z M368.6,70.4c-0.5,0.5-0.6,0.9,0,1.6C368.6,71.3,368.6,71,368.6,70.4z M368,75.4
			c-0.2-0.2-0.4-0.4-0.5-0.4c-0.2,0-0.4,0.2-0.4,0.3c0,0.2,0.2,0.3,0.3,0.5C367.6,75.8,367.8,75.6,368,75.4z M404.8,85.6
			c-0.6,0.4-1,0.7-0.1,1.2C404.7,86.4,404.7,86.1,404.8,85.6z M387.2,37.4c0.1,0,0.2,0,0.3,0c0-0.3,0.1-0.6,0.1-0.8
			c0,0-0.3,0-0.5-0.1C387.1,36.8,387.2,37.1,387.2,37.4z M361.6,49.7c0.1,0.1,0.1,0.1,0.2,0.2c0.3-0.2,0.5-0.4,0.8-0.6
			c-0.1-0.1-0.1-0.2-0.2-0.3C362.1,49.3,361.9,49.5,361.6,49.7z M391.3,39.6c0.2,0.1,0.3,0.3,0.3,0.3c0.3-0.2,0.6-0.5,0.8-0.7
			c-0.1-0.1-0.1-0.2-0.2-0.3C391.9,39.1,391.6,39.3,391.3,39.6z M367,69c0-0.1-0.1-0.2-0.1-0.2c-0.3,0.1-0.5,0.2-0.8,0.3
			c0.1,0.1,0.2,0.3,0.3,0.4C366.6,69.3,366.8,69.1,367,69z M402.5,84.7c0.1,0.1,0.3,0.2,0.4,0.3c0.1-0.3,0.3-0.5,0.4-0.8
			c0,0-0.2-0.2-0.3-0.2C402.9,84.2,402.7,84.4,402.5,84.7z M370.6,63.8c-0.1,0-0.3-0.1-0.4-0.1c-0.1,0.2-0.2,0.3-0.1,0.5
			c0,0.2,0.1,0.4,0.3,0.9C370.5,64.4,370.5,64.1,370.6,63.8z M361.7,79.3c-0.2-0.1-0.4-0.3-0.4-0.3c-0.2,0.1-0.3,0.3-0.4,0.5
			c0,0,0.3,0.3,0.3,0.3C361.4,79.6,361.5,79.5,361.7,79.3z M372.5,77.2c-0.9-0.8-0.9-0.8-1.4-0.1C371.5,77.1,371.8,77.1,372.5,77.2z
			 M407.5,68.7c0.1-0.1,0.2-0.2,0.2-0.2c-0.1-0.1-0.2-0.3-0.3-0.4c-0.1-0.1-0.3-0.1-0.8-0.2C407.1,68.3,407.3,68.5,407.5,68.7z"/>
		<path class="st2" d="M261.8,34.6c0.4-0.1,0.9-0.4,1.5-0.5c1.3-0.1,2.6-0.1,3.9,0c0.5,0,1.1,0.3,1.6,0.3c0.5,0,1-0.3,1.6-0.4
			c0.2,0.5,0.3,0.9,0.4,1.3c0.1,0,0.2,0,0.3,0c0.1-0.4,0.2-0.7,0.3-1.2c1.9,0,3.8,0,5.7,0c0.9,0,1.2,0.5,1.2,1.4
			c0,1.9-0.1,3.9-0.1,5.8c0,0.5,0.2,1,0.1,1.4c-0.1,0.4-0.3,0.8-0.6,1.3c0.1,0.1,0.4,0.4,0.5,0.8c0.3,1-0.2,1.6-1.2,1.6
			c-2.8,0-5.5,0.2-8.3-0.1c-2.3-0.3-4.6,0.2-6.8,0c-2.7-0.2-5.4,0.1-8.2,0c-1.7-0.1-2.2,0.3-2.4,2c-0.2,2.2-0.4,4.4-0.5,6.7
			c0,0.6,0.2,1.2,0.3,1.6c3.4-0.2,6.5-0.5,9.7-0.4c5.6,0.1,10.8,1.6,15,5.5c2.9,2.8,4.5,6.4,5,10.5c0.5,3.5,0.3,7-0.4,10.5
			c-0.3,1.2-0.7,2.4-1.2,3.5c-1.5,3.1-3.5,5.9-6.4,7.9c-0.9,0.6-2,1-3,1.6c-1,0.6-2.1,0.9-3.3,1.2c-1.2,0.4-2.4,0.6-3.6,0.8
			c-0.4,0.1-0.9-0.2-1.5-0.3c-0.1,0.1-0.4,0.6-0.7,0.7c-4.4,0.3-8.7,0.5-13-0.8c-5-1.5-9.7-3.8-13.4-7.6c-0.2-0.2-0.6-0.3-0.9-0.5
			c1-1.5,1.8-3,3-4.3c1-1.1,1.8-2.3,2.8-3.3c0.4-0.4,1-0.7,1.5-1.1c0.1-0.3,0.2-0.9,0.6-1.2c0.5-0.4,1-0.1,1.4,0.3
			c1.1,0.8,2.2,1.6,3.2,2.4c0.3,0.2,0.4,0.6,0.6,1c1.1-0.3,1.9,0.6,2.9,1c4.1,1.8,8.4,2.4,12.6,0.6c3.7-1.6,5.4-4.8,5.1-8.4
			c-0.3-4-3.2-6.3-6.5-7.2c-4.4-1.3-8.6-0.6-12.7,0.9c-1.9,0.7-3.5,0.6-4.8-0.8c-0.7-0.7-2.1-0.7-2.3-2c0-0.1-0.3-0.2-0.4-0.2
			c-0.9,0.2-1.7-0.3-2.1-0.9c-0.5-0.6-0.8-1.5-0.7-2.3c0.1-3.6,0.4-7.1,0.7-10.7c0.1-0.8,0.1-1.6,0.2-2.4c0.2-4.8,0.4-9.6,0.6-14.4
			c0.1-1.8,0.4-2,2.1-2c3.3,0,6.7,0.1,10,0.1c2.8,0,5.7-0.2,8.5-0.2C260.4,34.1,261.1,34.4,261.8,34.6z M244.4,63.9
			c-0.1,0.1-0.2,0.2-0.3,0.3c0.4,0.3,0.7,0.6,1.1,0.9c0.1-0.1,0.1-0.2,0.2-0.3C245.1,64.6,244.7,64.3,244.4,63.9z M256.6,56.5
			c-0.1,0.1-0.2,0.2-0.3,0.3c0.2,0.4,0.3,0.9,1.3,0.6C257.1,57,256.9,56.8,256.6,56.5z M245.5,41.9c-0.1,0-0.2-0.1-0.2-0.1
			c-0.2,0.3-0.3,0.6-0.5,0.9c0.1,0.1,0.2,0.1,0.4,0.2C245.3,42.5,245.4,42.2,245.5,41.9z M273.1,77.3c1,0,1,0,1.3-0.5
			C273.9,77,273.6,77.1,273.1,77.3z M262.6,43.2c-0.5-0.3-0.9-0.5-1.5-0.8C261.4,43.3,261.7,43.5,262.6,43.2z M279.3,74.5
			c0-0.1-0.1-0.2-0.1-0.2c-0.2,0-0.3,0-0.5,0c-0.2,0.1-0.3,0.2-0.5,0.3c0.1,0.1,0.1,0.2,0.2,0.3C278.7,74.8,279,74.7,279.3,74.5z
			 M244.7,38.4c0-0.1,0-0.2,0-0.3c-0.3,0-0.5,0-0.8,0c0,0.1,0,0.2,0,0.3C244.2,38.5,244.5,38.5,244.7,38.4z M248.6,95.1
			c0.1,0,0.3,0,0.4,0c0-0.3-0.1-0.5-0.1-0.8c0,0-0.3,0-0.3,0C248.6,94.6,248.6,94.8,248.6,95.1z M243.1,47.5
			c-0.2-0.2-0.4-0.4-0.4-0.4c-0.2,0-0.3,0.2-0.5,0.3c0.1,0.1,0.2,0.3,0.3,0.3C242.6,47.8,242.7,47.6,243.1,47.5z"/>
		<path class="st2" d="M547.3,58.3c-0.2,0.7-0.2,1.2-0.5,1.7c-1.7,3.1-3,6.3-5.2,9.1c-0.2,1.8-1.4,3.1-2.2,4.6
			c-2.4,4.5-4.9,9-7.3,13.6c-0.2,0.4-0.3,0.8-0.5,1.1c-0.4,0.5-0.9,0.9-1.4,1.5c0,0.2,0.2,0.7,0.1,1c-0.8,1.7-1.8,3.3-2.6,5
			c-0.5,1.1-1.3,1.6-2.5,1.6c-1.9,0-3.9,0-5.8,0c-0.4,0-1,0.1-1-0.6c-1,0.7-4.3,0.9-7,0.4c0.2-1.5,1-2.8,1.8-3.9
			c1-1.3,1.4-3,2.3-4.3c0.3-0.5,0.3-1.4,1.2-1.3c0.1,0,0.2-0.1,0.2-0.2c-0.2-2,1.3-3.2,2.1-4.7c1-1.8,1.9-3.6,2.9-5.3
			c0.5-0.9,0.9-2,1.8-2.6c0.3-2.4,2-4.1,3-6.2c0.4-0.9,0.6-2.2,1.9-2.6c0.1,0,0.1-0.2,0.1-0.2c-0.3-1,0.4-1.5,0.8-2.2
			c1-2,2-4,3.2-5.8c1.1-1.7,1.8-3.6,2.9-5.3c1-1.7,1.9-3.5,2.8-5.3c0.1-0.1,0.1-0.3,0.2-0.6c-1.2-0.5-2.4-0.3-3.6-0.3
			c-0.7,0-1.5,0.1-1.7-1c-0.1,1-0.6,1.1-1.3,1.1c-1.9,0-3.9,0-5.8,0c-3.2,0-6.3,0-9.5,0c-1.9,0-3.9-0.1-5.8,0
			c-0.8,0-1.2-0.4-1.3-1.1c-0.1-0.7-0.3-1.5-0.1-2.1c0.4-0.9-0.5-2,0.4-2.8c0.1-0.1-0.4-0.6-0.5-1c-0.1-1.3-0.1-2.6,0-3.9
			c0.1-1.2,0.4-1.5,1.7-1.5c4.3,0,8.6-0.1,12.9,0c1.5,0.1,2.9-0.1,4.4-0.1c1.6,0.1,3.2,0,4.8,0c1.5,0,3.1,0,4.6,0
			c5.1,0,10.2,0,15.3,0c1.8,0,2.1,0.3,2.1,2.2c0,2.1,0.1,4.1,0,6.2c-0.1,1.3-0.4,2.7-1,3.9c-1.9,3.7-3.9,7.4-5.9,11
			C548,57.8,547.5,58.1,547.3,58.3z M516.9,90.4c-0.5,0.7-0.8,1.1-1.2,1.7C516.7,91.8,516.6,91.2,516.9,90.4z M538.9,69.7
			c1-0.4,0.5-0.7,0-1.3C538.9,68.9,538.9,69.2,538.9,69.7z M544.8,47.7c-0.3-0.8-0.4-1.2-1.1-0.8c-0.1,0.1-0.2,0.3-0.3,0.5
			C543.8,47.5,544.2,47.6,544.8,47.7z M529.9,35.4c0.1-0.1,0.2-0.2,0.4-0.2c-0.2-0.3-0.4-0.6-0.6-0.9c-0.1,0.1-0.2,0.1-0.3,0.2
			C529.6,34.8,529.8,35.1,529.9,35.4z M554.4,43.5c0-0.1,0.1-0.2,0.1-0.3c-0.3-0.1-0.5-0.2-0.8-0.4c-0.1,0.1-0.1,0.3-0.2,0.4
			C553.9,43.4,554.2,43.5,554.4,43.5z M545.8,43.1c-0.1,0-0.3,0.1-0.4,0.1c0.1,0.3,0.2,0.6,0.4,0.9c0.1,0,0.2-0.1,0.3-0.1
			C545.9,43.8,545.8,43.5,545.8,43.1z M516.2,37.5c-0.1,0.1-0.2,0.1-0.3,0.2c0.3,0.3-0.1,0.9,1,0.8
			C516.6,38.1,516.4,37.8,516.2,37.5z M535,72.9c0.1,0.1,0.1,0.2,0.2,0.3c0.3-0.2,0.7-0.4,1-0.6c0-0.1-0.1-0.1-0.1-0.2
			C535.7,72.6,535.4,72.8,535,72.9z M523.7,77c0.1-0.1,0.2-0.1,0.3-0.1c-0.1-0.1-0.1-0.3-0.2-0.4c-0.1,0-0.3,0.1-0.4,0.1
			C523.5,76.8,523.6,76.9,523.7,77z"/>
		<path class="st2" d="M418.5,106.5c2-0.8,3.8-1.3,5.4-2.3c2.3-1.4,3.5-3.5,3.2-6.4c-1.6-1-3.5-0.2-5.3-0.9c-0.7-2.3-0.3-4.7-0.3-7
			c0-2.3,0.2-4.6,0.3-7.1c0.9,0,1.6-0.1,2.2-0.1c3.4,0,6.8,0,10.2,0c1.8,0,1.9,0.1,2,1.9c0,2.4-0.1,4.8-0.1,7.1c0,0.5,0,0.9,0,1.4
			c0.2,4.3,0.2,8.6-2.2,12.4c-1.5,2.3-3.4,4.4-6.4,4.9c-1.8,1.5-4,1.1-6,1.5c-1.6,0.3-2.1-0.1-2.4-1.7
			C418.9,109,418.7,107.7,418.5,106.5z M431.2,101.9c-0.1,0.1-0.2,0.1-0.3,0.2c0.2,0.3,0.4,0.7,0.6,1c0,0.1,0.3,0,0.6,0
			C431.7,102.6,431.5,102.3,431.2,101.9z"/>
		<path class="st2" d="M403.3,125c0.7-0.1,1.1-0.1,1.6-0.1c1.4,0,2.1,0.4,2.5,1.7c0.7,2.2,1.3,4.4,1.9,6.6c0.2,0.7,0.4,1.4,1.2,2
			c0.9-2.5,1.7-4.9,2.5-7.3c0.1-0.4,0.5-0.7,0.7-1.1c0.1-0.1,0.1-0.3,0-0.4c-0.2-0.6,0.2-1,0.6-1.2c1.2-0.6,2.7,0,3.2,1.3
			c0.8,2.2,1.4,4.3,2.2,6.5c0.2,0.7,0.5,1.4,0.8,2.1c0.1,0,0.3,0,0.4,0c0.4-1,0.9-1.9,1.2-2.9c0.6-1.8,1-3.7,1.6-5.5
			c0.4-1.3,0.9-1.7,2.3-1.7c0.6,0,1.1,0.2,1.8,0.3c-0.1,0.5-0.1,0.9-0.2,1.3c-0.6,1.6-1.2,3.1-1.7,4.7c-0.6,1.8-1.1,3.6-1.7,5.4
			c-0.4,1.3-0.9,2.5-1.3,3.8c-0.3,1-1.1,1.3-2,1.3c-1,0-1.7-0.2-2-1.3c-0.8-2.2-1.6-4.4-2.4-6.6c-0.2-0.6-0.5-1.3-0.9-2.2
			c-0.4,0.7-0.6,1.2-0.8,1.6c-0.7,2-1.6,3.9-2.1,6c-0.1,0.5-0.3,1-0.6,1.5c-0.5,0.8-1.2,1.1-2.1,1c-0.8-0.1-1.4-0.4-1.7-1.3
			c-1-2.8-1.9-5.5-2.9-8.3c-0.6-1.7-1.1-3.4-1.6-5.1C403.5,126.4,403.4,125.7,403.3,125z M422.1,137.1c-0.7,0.1-1,0.1-1.4,0.2
			c0.2,0.4,0.3,0.6,0.5,0.9C421.5,137.9,421.7,137.7,422.1,137.1z M411.2,140.7c0.5-0.8,0.5-0.8,0-1.4
			C411.2,139.7,411.2,140.1,411.2,140.7z"/>
		<path class="st2" d="M307.4,125.2c0.2,0.4,0.3,0.9,0.4,0.9c1-0.2,1.1,0.7,1.5,1.2c0.9,1.3,1.8,2.7,2.8,4.2
			c1.1-1.2,1.8-2.4,2.6-3.5c0.3-0.5,0.6-1,0.9-1.5c0.6-0.9,1.4-1.4,2.4-1.6c1.8-0.4,2.7,0.4,2.4,2.3c-0.1,0.4,0.1,0.8,0.1,1.2
			c0,2.2-0.1,4.3-0.1,6.5c0,1.5,0.1,3,0.1,4.5c0,0.6-0.1,1.2-0.2,1.8c-3.2,0.6-3.5,0.3-3.4-2.6c0.1-2.2,0.3-4.3-0.3-6.8
			c-0.8,0.8-1.4,1.3-1.9,2c-0.9,1.2-1.6,2.5-2.5,3.8c-1.5-1.5-1.6-1.6-1.5-2.8c-1.6-0.2-1.6-2.2-2.9-2.7c-0.6,0.4-0.1,1.6-1.1,1.7
			c0.6,0.5,0.4,1.2,0.4,1.8c0.1,1.5,0.2,3,0.2,4.5c0,1.2-0.5,1.5-1.9,1.4c-1.2-0.1-1.6-0.4-1.6-1.6c0-3.9,0-7.7,0.1-11.6
			c0-0.7-0.1-1.4,0-2.1c0.1-0.9,0.4-1.3,1.3-1.3C306,124.9,306.8,125.1,307.4,125.2z"/>
		<path class="st2" d="M503.9,129.7c0.1-1.3,0.2-2.5,0.2-3.6c0-0.8,0.3-1.5,1.1-1.8c1.4-0.5,2.2,0.1,2.4,1.6
			c0.2,1.1-0.2,2.2-0.1,3.4c0.2,3.1,0.1,6.3,0.1,9.4c0,0.5,0,0.9-0.1,1.4c-0.1,1.3-0.8,2-1.9,1.4c-1.7-0.9-3.2-0.3-4.8-0.1
			c-4.3,0.6-6.1-2-6.4-5.5c-0.1-1,0.1-2.1,0.3-3.1c0.6-2.8,4.2-5.1,7.5-3.6C502.8,129.3,503.3,129.5,503.9,129.7z M503.5,137.7
			c0.2-0.6,0.4-1.1,0.5-1.6c0.5-2-0.8-4-2.6-4.3c-2.8-0.4-4,2.3-3.2,4.6c0.6,1.8,2.6,3,4.4,1.8C502.8,138,503.1,137.8,503.5,137.7z"
			/>
		<path class="st2" d="M587,141.2c-1.6,0.6-2.8,0.7-3.9-0.7c-1.5,0.9-3,1.3-4.7,1c-0.7-0.1-1.9-0.4-2-0.8c-0.3-1.1-1.6-1.3-1.8-2.3
			c-0.3-1.1-0.4-2.2-0.6-3.2c-0.1-0.5,0-1,0-1.4c0.1-0.7,0.4-1.3,0.6-2.1c0.3,0.2,0.5,0.4,0.7,0.5c0.1-0.1,0.2-0.1,0.2-0.2
			c0-0.5-0.2-1.2,0.1-1.5c0.5-0.6,1.3-1.1,2-1.3c1.3-0.3,2.7-0.3,4.1,0.1c0.4,0.1,0.9,0.3,1.6,0.5c0.1-0.9,0.3-1.6,0.3-2.4
			c0-0.5-0.1-0.9,0-1.4c0.2-1.3,0.6-1.7,1.9-1.7c1.1,0,1.6,0.3,1.6,1.4c-0.2,2.6,0.4,5.2-0.2,7.8c-0.2,0.9,0.1,1.9,0.2,2.9
			C587,137.9,587,139.5,587,141.2z M580.6,138.9c0.3-0.2,0.7-0.4,1-0.6c1.4-0.7,1.8-1.9,1.9-3.3c0-1.5-1.1-2.9-2.4-3.2
			c-1.4-0.3-2.8,0.5-3.4,1.8c-0.7,1.7,0,3.7,1.7,4.6C579.8,138.5,580.2,138.7,580.6,138.9z M585,132.4c0-0.1,0-0.2,0.1-0.4
			c-0.3,0-0.6-0.1-0.9-0.1c0,0.1,0,0.2-0.1,0.3C584.4,132.3,584.7,132.4,585,132.4z"/>
		<path class="st2" d="M549,125c1.3-0.1,2.4-0.3,3.4-0.1c0.5,0.1,1,0.9,1.3,1.5c0.6,1.5,1.1,3,1.6,4.5c0.6,1.5,1.2,3.1,1.9,4.9
			c0.4-0.7,0.7-1.1,0.9-1.5c0.8-2.1,1.6-4.3,2.4-6.4c0.1-0.3,0.2-0.7,0.4-1c1-2.4,1.6-2.6,4.3-1.7c-0.1,0.4-0.1,0.9-0.3,1.3
			c-1.2,3-2.5,6-3.8,9c-0.2,0.5-0.6,0.9-0.9,1.5c0-0.1,0.1,0.1,0.1,0.2c0.1,1.5-0.6,2.8-1.4,3.9c-0.6,0.9-1.7,0.6-2.6,0.2
			c-0.4-0.2-0.9-0.5-1.1-0.9c-0.4-0.9-1.2-1.8-0.8-2.9c0-0.1,0-0.2,0-0.3c-1.5-1.2-1.6-3.2-2.3-4.8C551,130.2,550.1,127.8,549,125z"
			/>
		<path class="st2" d="M469.2,129.8c1.4-0.4,2.3-1,3.5-1.1c2.2-0.2,4.2,1.2,4.3,3.4c0.1,2.6,0.1,5.2,0.2,7.8c0,0.7-0.1,1.4-0.9,1.5
			c-0.8,0.1-1.6,0-2.4-0.2c-0.2,0-0.3-0.7-0.3-1.1c0-1.5,0-3.1,0-4.6c0-0.6-0.1-1.2-0.2-1.7c-0.3-1.1-1.3-1.8-2.2-1.7
			c-1.1,0.1-2,0.9-2.1,2c-0.1,1.3-0.1,2.7-0.1,4c0,0.8,0,1.7-0.1,2.5c-0.2,0.9-0.9,1.3-1.9,1.2c-1-0.1-1.5-0.6-1.5-1.6
			c0-1.1-0.1-2.2,0-3.3c0.1-0.8,0.1-1.5,0-2.4c-0.3-2.3-0.1-4.7-0.1-7c0-0.8,0.9-1.5,0.2-2.3c0.4-0.3,0.7-0.8,1.2-0.9
			c0.6-0.2,1.4-0.1,1.7,0.6c0.2,0.5,0.3,1.1,0.4,1.7C469.1,127.4,469.2,128.5,469.2,129.8z M474.7,138.9c0.1-0.2,0.2-0.3,0.4-0.5
			c-0.3-0.2-0.7-0.4-1-0.6c-0.1,0.1-0.2,0.2-0.2,0.3C474.2,138.4,474.4,138.6,474.7,138.9z"/>
		<path class="st2" d="M373.9,136.6c0.3,1.9,1.5,2.7,3.2,2.3c0.8-0.2,1.5-0.5,2.3-0.6c0.8-0.1,1,0.3,1.3,0.7
			c0.4,0.6,0.1,1.2-0.3,1.5c-0.5,0.4-1.2,0.8-1.8,1c-2.6,0.6-6,0.5-8-2.8c-1.6-2.5-0.9-6.5,1-8.5c1.9-1.9,5.4-2.4,8.1-0.5
			c1.7,1.2,2.3,3.1,2.4,5.2c0.1,1-0.5,1.4-1.6,1.4c-1.5,0-3.1,0-4.6,0C375.2,136.4,374.5,136.5,373.9,136.6z M378,133.9
			c-0.3-2.5-1.6-3-4.2-1.5c0,0.5,0,1,0.1,1.5C375.3,133.9,376.6,133.9,378,133.9z"/>
		<path class="st2" d="M524.2,141.8c-2.6,0-4.6-1.1-5.9-3.4c-0.3-0.5-0.7-1-0.2-1.6c0.1-0.1,0.1-0.4,0-0.5c-1.6-2.4-0.1-4.2,1.3-5.7
			c2.4-2.6,6.6-2.6,9.3-0.4c1.5,1.2,2.5,3,2.3,4.9C530.8,138.9,529,141.7,524.2,141.8z M522.5,138.4c0.2,0,0.4,0,0.5,0.1
			c2.4,1.1,5-1.3,4.3-4c-0.2-0.8-0.5-1.6-0.8-2.4c-0.9-0.1-1.8-0.4-2.6-0.3c-1.9,0.2-3.3,2.5-2.7,4.3
			C521.5,136.9,522.1,137.6,522.5,138.4c-0.7,0.6,0,1,0,1.5c0.1,0,0.3-0.1,0.4-0.1C522.8,139.3,522.7,138.9,522.5,138.4z"/>
		<path class="st2" d="M594.2,136.6c0.1,1.8,1,2.6,2.6,2.3c0.8-0.1,1.6-0.5,2.4-0.7c0.9-0.2,1.6,0.2,1.9,1c0.3,0.8-0.2,1.2-0.8,1.6
			c-2.5,1.6-6.6,1.7-9.2-1.4c-1.6-1.9-2.1-7.2,1.3-9.5c2.6-1.8,6.7-2,8.9,1.6c0.6,1,0.8,2.3,0.9,3.5c0.1,0.9-0.4,1.4-1.4,1.4
			c-1.5,0.1-2.9,0-4.4,0C595.7,136.4,594.9,136.5,594.2,136.6z M598.4,133.9c-0.9-2.8-2-3-4.8-1.2c0.2,1.2,1,1.4,2,1.3
			C596.5,134,597.3,134,598.4,133.9z"/>
		<path class="st2" d="M611,141.8c-2.7-0.1-4.7-1.2-5.8-3.9c-1.3-3-0.7-6.2,1.8-7.9c0.3-0.2,0.8-0.3,1.2-0.4c0.1,0,0.4,0,0.4-0.1
			c0.6-1.4,1.8-0.9,2.7-0.9c2.7,0.1,4.8,1.3,6,3.8c0.3,0.6,0.7,1.3,0.1,2c-0.1,0.1-0.1,0.3-0.1,0.5c0.5,2.5,0,3.8-1.9,5.4
			C614.3,141.4,612.7,141.9,611,141.8z M614.3,135.7c0.1-2.4-1.1-3.8-3.2-3.9c-1.6-0.1-3.2,1.5-3.2,3.2c0,1.8,1.6,3.7,3.2,3.8
			C612.7,138.9,614.3,137.4,614.3,135.7z"/>
		<path class="st2" d="M262.1,132.7c-1.6,0.7-0.1,1.5,0,2.2c0-0.5,0-0.9,0-1.5c1.3,2.7-0.2,6.3-3,7.7c-3.6,1.7-7.9,0.4-9.4-3.1
			c-1.5-3.4-0.1-7.1,3.2-8.8C255.8,127.7,260.8,129.1,262.1,132.7z M258.9,135.3c0-0.2,0-0.5,0-0.9c-0.2-1.4-1.3-2.4-2.7-2.6
			c-1.4-0.2-2.8,0.6-3.3,1.8c-0.8,1.8,0.1,4.1,1.9,5c0.3,0.1,0.6,0.4,0.9,0.3C257.5,138.8,259.3,137.2,258.9,135.3z"/>
		<path class="st2" d="M282,134.1c0.3-0.7,0.6-1.3,0.9-2c-0.4,0.1-0.8,0.4-0.9,0.3c-1.2-0.8-2.6-0.6-3.9-0.4
			c-1.4,0.1-1.9-0.2-2.1-1.3c-0.1-0.7,0.1-1.1,0.7-1.4c1.8-0.8,6.6-1,8.1,1c0.4,0.5,1,0.8,0.7,1.7c-0.2,0.5,0.5,1.2,0.5,1.7
			c0.1,2.1,0.1,4.2,0.1,6.3c0,1.2-0.1,1.2-1.3,1.3c-0.8,0.1-1.6,0.1-2.4-0.4c-0.3-0.2-0.9,0-1.2,0.2c-1.4,0.5-2.7,0.7-4.1,0.2
			c-1.8-0.7-2.5-1.8-2.6-3.6c-0.1-1.7,0.9-2.8,2.6-3.5C278.7,133.5,280.4,133.5,282,134.1z M278.5,138.8c0.4,0.1,0.9,0.3,1.3,0.4
			c1,0.2,2.2-0.5,2.6-1.4c0.3-0.6,0.2-1.2-0.4-1.5c-0.9-0.4-2-0.7-2.8-0.1C278.2,136.7,277.9,137.7,278.5,138.8z"/>
		<path class="st2" d="M435.7,133.8c-0.5-1.9-0.6-2-2.2-2c-0.9,0-1.8,0.1-2.6,0.1c-0.7,0-1.1-0.3-1.3-1c-0.2-0.7,0-1.1,0.5-1.5
			c0.1-0.1,0.2-0.2,0.3-0.2c1.6-1.1,6.3-0.6,7.7,0.7c0.9,0.8,1.4,1.7,1.4,2.9c0.1,2.2,0.2,4.3,0.3,6.5c0.1,2.3-1.1,2.4-2.6,2.1
			c-0.3-0.1-0.6-0.1-0.8-0.2c-0.6-0.2-1.1-0.3-1.8,0.1c-1.2,0.6-2.4,0.7-3.7,0.2c-2.6-0.9-3.5-3.5-2.2-5.8c0.7-1.2,1.8-1.6,3-1.2
			c0.2,0.1,0.4,0.1,0.6,0C433.6,133.7,434,133.6,435.7,133.8z M435.9,137.1c-0.1-0.2-0.2-0.6-0.5-0.8c-0.8-0.7-2.7-0.5-3.3,0.3
			c-0.3,0.4-0.5,1-0.4,1.4c0.1,0.8,1.2,1.2,2.1,1.1C435.1,138.9,435.9,138.2,435.9,137.1z M429.1,136.4c0.5,0,0.9-0.1,1.6-0.1
			C429.8,135.6,429.4,135.4,429.1,136.4z"/>
		<path class="st2" d="M491.4,131.7c-0.5,0.2-0.9,0.4-1.3,0.6c0.1,0.1,0.2,0.3,0.3,0.4c0.8,0.2,1.8,0.2,1.8,1.3
			c0,0.7-0.3,1.4-0.4,2.2c-1.3,0.5-2.7,0.3-4,0.2c-1.3-0.1-2.5,0.2-3.8,0.2c0.2,2,1.9,2.9,3.9,2.2c0.7-0.3,1.4-0.5,2.1-0.7
			c0.5,0.7,0.8,1.2,1.2,1.8c-1.3,1.7-4.5,2.5-6.5,1.7c-1.2-0.5-2.6-0.8-3.4-2c-1.1-1.6-1.6-3.3-1.3-5.3c0.1-0.7,0.8-1.1,0.6-2.1
			c-0.1-0.6,0.8-1.4,1.3-1.9c1.1-1,2.3-2,4-1.3c0.3,0.1,0.8-0.2,1.3-0.2C488.9,129,490.3,129.9,491.4,131.7z M483.4,133.5
			c1.6,0.7,2.7,0.8,4.7,0.2c0.3-1.1-0.3-1.8-1.1-2.1C485.3,131.2,484.2,132.1,483.4,133.5z M490.8,134.3c0-0.1,0.1-0.3,0.1-0.4
			c-0.3-0.1-0.6-0.1-0.9-0.2c0,0.1-0.1,0.2-0.1,0.3C490.3,134.1,490.6,134.2,490.8,134.3z M489.1,134.8c0.1,0,0.3-0.1,0.4-0.1
			c-0.1-0.3-0.2-0.6-0.3-0.9c-0.1,0-0.2,0-0.2,0.1C488.9,134.1,489,134.5,489.1,134.8z"/>
		<path class="st2" d="M357.5,140.2c-0.7,0.6-1.3,1-2.1,1.6c-0.5-0.3-1.2-0.7-2-1.1c-0.2,0.1-0.6,0.3-1,0.5c-1.5,0.8-3,0.8-4.4-0.1
			c-1.3-0.8-2-2-1.7-3.7c0.1-0.9-0.2-1.8-0.2-2.8c0-1.6,0-3.3,0.1-4.9c0-0.3,0.5-0.8,0.9-0.9c1.8-0.5,2.6,0.2,2.6,2.1
			c0,1.8,0,3.5,0.1,5.3c0.1,1.5,1.1,2.3,2.5,2.1c0.8-0.1,1.3-0.6,1.5-1.3c0.2-0.7,0.3-1.4,0.3-2.1c0.1-1.5,0-3,0-4.5
			c0-1.2,0.3-1.5,1.5-1.6c0.3,0,0.7,0,1,0c0.9,0.7,1,1.6,1,2.6C357.5,134.4,357.5,137.3,357.5,140.2z M351.5,139.8
			c-0.1,0-0.2-0.1-0.3-0.1c-0.2,0.2-0.3,0.4-0.5,0.7c0.1,0,0.1,0.1,0.2,0.1C351.2,140.3,351.4,140.1,351.5,139.8z"/>
		<path class="st2" d="M334.2,141.2c-0.1-0.4-0.1-0.7-0.2-1.3c-0.4,0.6-0.5,1.1-0.9,1.3c-0.4,0.2-1,0.2-1.7,0.3
			c0-1.5-0.1-2.8-0.1-4.1c0-1.9,0-3.9,0-5.8c0-0.9-0.2-2,0.8-2.5c1.1-0.6,2.3-0.5,3.1,0.7c1.3-0.8,2.5-1.3,4-1.2
			c1.8,0.2,3.3,1.6,3.5,3.4c0.1,1.2,0.1,2.5,0.3,3.7c0.2,1.2-0.3,2.4-0.1,3.6c0.1,0.6-0.1,1.5-0.5,1.8c-0.5,0.4-1.3,0.4-2,0.3
			c-0.3,0-0.7-0.5-0.9-0.9c-0.2-0.3-0.1-0.7-0.1-1c-0.1-1.8-0.1-3.5-0.2-5.3c-0.1-1.4-1-2.2-2.2-2.2c-1.2,0-2,0.9-2.1,2.4
			c-0.1,1.8,0,3.5-0.1,5.3c0,0.5-0.2,1.1-0.3,1.6C334.4,141.2,334.3,141.2,334.2,141.2z"/>
		<path class="st2" d="M241.3,141.3c-0.1-0.9-0.3-1.8-0.3-2.7c0-2.7,0-5.4,0-8.1c0-0.7-0.2-1.4-0.3-2.2c-1.5,0-2.9,0-4.3,0
			c-0.8-1.1-0.4-2.1-0.3-3.2c0.4-0.1,0.7-0.3,1-0.3c3.4,0,6.9,0,10.3,0c0.8,0,1.4,0.2,1.9,0.8c0.9,1.1,0.4,2.4-1,2.6
			c-0.7,0.1-1.4,0-2.1,0c-1.4,0.1-1.7,0.3-1.7,1.7c0,3.2,0,6.3,0,9.5c0,0.4,0,0.7,0,1.1c-0.1,0.7-0.5,1-1.2,1
			C242.7,141.4,242.1,141.4,241.3,141.3z"/>
		<path class="st2" d="M390.5,131.8c0-0.4,0-0.8,0-1.2c-0.2,0-0.4,0-0.4,0c-0.1,0.8-0.5,0.9-1.2,0.9c-0.4,0-0.7,0.5-1,0.7
			c0.3,0.3,0.5,0.8,0.9,0.9c1.1,0.5,2.3,1,3.5,1.5c1.2,0.5,1.8,1.6,1.9,2.8c0.1,1.4-0.5,2.8-1.8,3.6c-2,1.2-6.4,0.7-8-0.8
			c-0.2-0.2-0.3-0.6-0.2-0.7c0.2-0.2,0.6-0.3,0.9-0.4c0.1-0.3,0.1-0.8,0.2-1.4c2,0.8,4,1.3,6,0.8c-0.5-0.6-1-1.2-1.6-1.9
			c-2.5,0.3-5.3-1.5-5.2-4.2c0-1.2,1.1-2.9,2.2-3.3c1.8-0.6,3.7-0.6,5.5,0.1c1,0.4,1.5,1,1.2,1.8c-0.3,1.1-1,1.4-2.2,1
			C390.9,131.9,390.7,131.8,390.5,131.8z"/>
		<path class="st2" d="M455.2,137.8c0.3,0,0.7,0,1,0.2c1.2,1,2.4,0.8,3.6,0.3c1.8-0.6,1.9-0.6,2.9,1.2c-0.8,2.4-5.3,3.3-8.5,1.2
			c-2.8-1.8-3.6-6.3-1.6-9.3c2.2-3.3,7.4-3.8,10.2-0.9c-0.6,2-1.5,2.5-3.2,1.6c-1.1-0.6-2.1-0.4-3.1,0.3c-1.2,0.8-1.4,2-1.4,3.2
			C455.1,136.3,455.2,137,455.2,137.8z"/>
		<path class="st2" d="M367.7,138.5c0,0.6,0,1.1,0,1.6c0,0.8-0.4,1.2-1.3,1.4c-3.2,0.8-5-0.7-5-3.7c0-1.8,0-3.6,0-5.5
			c-2.4-1.5-2.4-2.3,0.3-4.6c-0.2-0.7-0.7-1.6,0.2-1.9c0.8-0.3,1.8-0.2,2.6,0.1c0.5,0.1,0.5,1.1-0.1,2.4c0.7,0.2,1.4,0.4,2.1,0.5
			c0.8,0.1,1.3,0.5,1.4,1.3c0.1,0.9-0.3,1.5-1.3,1.8c-1.8,0.5-1.8,0.5-1.8,2.2c0,0.8,0,1.5,0,2.3c0,1.6,0.2,1.8,1.8,2
			C367,138.4,367.2,138.4,367.7,138.5z"/>
		<path class="st2" d="M269.2,133.4c0.1,0.4,0.3,0.7,0.4,1.1c0.1,0.8,0,1.6,0.1,2.4c0.1,0.8,0.4,1.4,1.3,1.3c1-0.1,1.4,0.4,1.5,1.3
			c0.1,1.2-0.2,1.6-1.3,1.9c-3.1,0.8-4.9-0.5-5-3.7c0-1,0-2,0-3c0-0.4,0-0.8,0-1.2c0-0.7-0.3-1.3-0.9-1.8c-1.2-1.1-1.2-1.8-0.1-2.9
			c0.4-0.4,0.7-1,0.9-1.6c0.4-1.2,1.2-1.7,2.5-1.5c0.6,0.1,1,0.4,1,1c0,1.4,0.8,2,2,2.2c0.8,0.1,1.1,0.5,1.1,1.3
			c0,0.8-0.3,1.4-1.1,1.5C270.4,131.9,269.6,132.4,269.2,133.4z"/>
		<path class="st2" d="M444.1,125.6c0.4,0,0.8,0,1.2,0c0.9-0.1,1.5,0.3,1.5,1.3c0,1.2,0.5,2,1.9,2c0.8,0,1.2,0.5,1.2,1.2
			c0.1,0.8-0.5,1.6-1.3,1.7c-0.6,0.1-1.3,0.2-1.9,0.2c0,1.3,0,2.7,0,4.1c0,1.3,0.5,2.1,1.8,2.2c0.9,0,1.1,0.6,1.3,1.3
			c0.2,0.8-0.2,1.5-0.8,1.7c-1.3,0.5-2.6,0.7-3.9,0c-0.5-0.3-0.9-0.9-1.2-1.5c-0.1-0.2,0.1-0.6,0.2-1c-0.2,0-0.4-0.1-0.7-0.2
			c0-0.2-0.1-0.3-0.1-0.5c0-1.4,0-2.8,0-4.2c0-0.8-0.2-1.5-0.9-2.2c-1.2-1.1-1-1.7,0-3C443.1,127.9,443.5,126.8,444.1,125.6z
			 M445.2,127.9c0.1,0,0.3,0,0.4,0c0-0.4,0-0.8-0.1-1.2c-0.1,0-0.3,0-0.4,0C445.2,127.1,445.2,127.5,445.2,127.9z"/>
		<path class="st2" d="M534.7,128.3c-0.5-1.3,0.1-2.3,0.8-3.3c0.1-0.1,0.3-0.3,0.4-0.3c1,0.2,1.7-0.4,2.5-0.6
			c1.9-0.4,2.5,0.4,2.1,2.6c-0.8,0.3-1.9,0.2-2.3,1.6c0.8,0.4,1.6,0.7,2.4,1.1c0,0.3,0.1,0.6,0.1,0.9c0.1,1-0.3,1.5-1.3,1.7
			c-1.4,0.3-1.3,0.4-1.6,1.9c-0.4,2,0.2,4,0,6c0,0.4-0.1,0.8-0.1,1.3c-0.4,0.1-0.8,0.2-1.2,0.3c-1.8,0.1-2.2-0.3-2.2-2.1
			c0-1.8,0.1-3.5,0-5.3c0-0.7-0.2-1.4-0.6-1.9C532.6,130.4,532.7,129.6,534.7,128.3z M538,130.4c0-0.1,0-0.3,0-0.4
			c-0.4,0-0.9,0-1.3,0c0,0.1,0,0.2,0,0.3C537.1,130.3,537.5,130.3,538,130.4z M537,138.3c-0.5-0.7-0.8-1.1-1.2-0.3
			c-0.1,0.2,0,0.4,0,0.7C536.2,138.5,536.5,138.4,537,138.3z"/>
		<path class="st2" d="M289.3,124.9c1.2-1.3,2.2-0.2,3.3-0.2c0.1,0.4,0.2,0.9,0.2,1.3c0,4.5,0,9-0.1,13.6c0,1.6-0.5,2-2,1.9
			c-1.1-0.1-1.4-0.4-1.5-1.5c0-2.1,0-4.2,0-6.3C289.3,130.6,289.3,127.7,289.3,124.9z"/>
		<path class="st2" d="M324.4,129c0.3-0.2,0.3-0.2,0.4-0.2c2.5-0.3,3,0,2.9,2.5c-0.1,1.6,0,3.2,0,4.8c0,0.1-0.1,0.2-0.1,0.4
			c-0.4,0-0.8,0.1-1.2,0.1c0,0,0,0.1,0,0.1c0.4,0,0.7,0.1,1.3,0.2c0,0.6,0.1,1.2,0.1,1.9c0,0.6,0,1.2,0,1.6c-1,1.1-2,1.4-3.3,0.9
			c-0.1-0.1-0.2-0.3-0.2-0.4c0-3.4-0.1-6.8,0-10.1c0-0.3,0.4-0.6,0.7-1C324.8,129.6,324.7,129.3,324.4,129z"/>
		<path class="st2" d="M567.7,141.2c-0.1-2.4-0.3-4.7-0.4-7c0-1.3,0.1-2.7,0.2-4c0-1.4,0.3-1.6,1.7-1.4c1.9,0.3,1.9,0.3,1.7,2.3
			c-0.1,1,0.1,1.9,0.1,2.9c0,1-0.3,2-0.3,3.1c0,0.7,0.3,1.4,0.3,2.2c0,2.1-0.2,2.3-2.3,2.2C568.4,141.5,568.1,141.3,567.7,141.2z"/>
		<path class="st2" d="M324.5,124.4c0.5-0.1,1-0.1,1.5-0.2c1.1-0.2,2.1,0.8,1.7,2.4c-0.1,0.3-0.6,0.7-1,0.8c-2.2,0.4-2.6,0-2.4-2.3
			C324.3,124.8,324.4,124.7,324.5,124.4z"/>
		<path class="st2" d="M567.7,127.2c-0.1-1.2-0.6-2.4,0.5-2.9c0.7-0.3,1.8,0,2.6,0.4c0.6,0.2,0.3,1.3-0.4,2.6
			C569.6,127.3,568.7,127.3,567.7,127.2z"/>
	</g>
</g>
</svg>
