<?xml version="1.0" encoding="utf-8"?>
<!-- Generator: Adobe Illustrator 19.1.0, SVG Export Plug-In . SVG Version: 6.00 Build 0)  -->
<svg version="1.1" id="Layer_1" xmlns="http://www.w3.org/2000/svg" xmlns:xlink="http://www.w3.org/1999/xlink" x="0px" y="0px"
	 viewBox="0 0 355 180" style="enable-background:new 0 0 355 180;" xml:space="preserve">
<style type="text/css">
	.st0{fill:#757576;}
	.st1{fill-rule:evenodd;clip-rule:evenodd;fill:#757576;}
	.st2{fill:#F37046;}
</style>
<g>
	<g>
		<path class="st0" d="M143.2,48.4c-0.4,0.4-0.7,0.7-1.1,1c0.5,0,1.1-0.2,1.4,0c0.6,0.3,1,0.9,1.4,1.4c0.2,0.2,0.1,0.6,0.3,0.8
			c0.1,0.1,0.5-0.1,0.7-0.1c-0.1-0.3-0.1-0.7-0.2-0.9c-1.1-1.8-0.5-2.1,1.4-2.1c5.2,0.2,10.4-0.1,15.6,0.1c4.4,0.2,8.8-0.2,13.3-0.1
			c4.6,0.1,9.2,0,13.8,0c10.2,0,20.5,0,30.7,0c3.9,0,7.9-0.2,11.8,0.3c2.1,0.3,3.9-0.8,5.9-0.4c1.1,0.3,2.3,1.6,3.6,0.1
			c0.3-0.3,1.4,0.1,2.1,0.1c2.9,0,5.8-0.2,8.7-0.1c0.5,0,1.4,1.1,1.5,1.7c0.2,2.6,0.1,5.3,0,7.9c0,0.3-0.5,0.6-0.7,1
			c-0.1,0.2-0.3,0.6-0.2,0.8c1.7,2.9,0.9,6,0.4,9c-0.1,0.4,0.2,0.8,0.3,1.2c0.1,2.7,0.3,5.3,0.1,8c-0.1,2.5,0.2,5,0.1,7.5
			c-0.1,2.7,0,5.5,0,8.2c0,9.5,0.1,19-0.2,28.4c0,1.1-0.2,2.1,0,3.3c0.5,3.1,0.3,6.4,0.2,9.6c0,2.6,0.1,5.2,0,7.8
			c0,0.7-0.5,1.4-0.8,2.1c-0.1,0.1-0.1,0.3-0.1,0.5c0.3,1.6,0.8,3.1,0.9,4.7c0.2,1.5,0.2,3.1,0,4.7c-0.1,0.6-1,1.5-1.6,1.6
			c-2.2,0.2-4.4,0.1-6.6,0.1c-3.3,0-6.6,0-9.9,0c-3.9,0-7.8,0-11.8,0c-10.8,0-21.5,0-32.3,0c-0.9,0-2.4,0.4-2.1-1.6
			c0-0.1-0.4-0.5-0.6-0.4c-0.2,0.1-0.6,0.4-0.6,0.6c-0.1,1.4-1,1.5-2.1,1.5c-4.5,0-9,0-13.4,0c-4.3,0-8.6,0-12.9,0
			c-0.9,0-2,0.3-2.6-0.1c-1.4-1-2.6,0.5-3.9,0.2c-1.6-0.3-3.4,0-5.1-0.1c-0.6-0.1-1.1-0.9-1.6-1.4c-0.2-0.3-0.2-0.8-0.4-1.2
			c0-0.1-0.7,0-0.7,0.1c-0.1,0.6-0.2,1.2-0.2,1.8c0,0.2,0.3,0.4,0.5,0.6c-0.3,0-0.6,0.1-0.9,0.1c-1.9,0-3.8,0-5.6,0
			c-1.2,0-2.3-2.1-3.5,0c-5.6,0-11.2,0-16.8,0c-4.4,0-8.9,0-13.3,0c-4.9,0-9.7-0.1-14.6-0.3c-4.3-0.1-8.5,0.5-12.8,0.3
			c-1.6-0.1-2.5-0.6-2.4-2.3c0.1-1.3,0.5-2.6,0.5-3.9c0-0.9-0.4-1.9-0.4-2.8c0-9.2,0-18.4,0-27.6c0-6.3-0.1-12.6-0.1-18.9
			c0-1.4-0.6-3.3,0.1-4.1c1.1-1.4,0-2.2,0-3.3c0-3.5-0.1-6.9-0.1-10.4c0-0.8,0.5-1.6,0.8-2.5c0.1-0.2,0.1-0.6,0-0.7
			c-1.2-1.4-1.1-3.9,0.2-5.5c0.1-0.1,0-0.6-0.1-0.7c-1.4-1.4-1-2.8-0.3-4.3c0.1-0.2,0-0.5-0.1-0.7c-0.1-0.2-0.5-0.5-0.4-0.6
			c0.8-1.9-0.3-3.7-0.1-5.6c0.2-2.1,0-4.2,0.1-6.3c0-0.3,0.3-0.6,0.6-0.8c0.3-0.1,0.6,0.1,0.9,0.1c-0.2-0.3-0.4-0.7-0.7-0.9
			c-0.8-0.7-1.3-5.1-0.7-6c0.1-0.1,0.3-0.4,0.4-0.4c2.8,0,5.6,0,8.4,0c1.6,0,3.2,0.1,4.8,0.1c4.4,0,8.9,0,13.3-0.1
			c3.3,0,6.6-0.1,9.9-0.1c7,0,13.9,0,20.9,0c0.6,0,1.2,0.6,1.8,0.9c0.1,0.1,0.2,0.1,0.3,0.2c0.8-2.3,2.7-0.7,4.1-1.1
			C141.5,48.2,142.4,48.4,143.2,48.4z M245.8,62.2c0,0,0.1,0,0.1,0c0-0.7-0.1-1.4,0-2.1c0.3-2.1-0.6-2.7-2.6-2.7
			c-2.4,0-4.8-0.5-7.2-0.7c-0.2,0-0.5,0.2-0.8,0.2c-0.7,0.2-1.3,0.5-2,0.5c-8.5,0-16.9,0-25.4,0c-3.9,0-7.8,0-11.8,0
			c-1.8,0-3.5-0.7-5.5-0.1c-1.6,0.5-3.5,0.1-5.2,0.1c-7.3,0-14.7,0-22,0c-4.3,0-8.6,0-12.8,0c-0.7,0-1.5-0.4-2.2-0.3
			c-2.6,0.1-5.1,0.3-7.7,0.3c-0.6,0-1.2-0.6-1.8-0.5c-1,0.1-2,0.5-3,0.6c-4.8,0.1-9.6,0.1-14.4,0c-4.5-0.1-9-0.3-13.4-0.4
			c-3.3,0-6.7,0.3-10,0.3c-0.8,0-1.5-0.2-2.3-0.3c-1.2-0.2-2.3-0.3-3.5-0.4c-0.2,0-0.5,0.1-0.7,0.1c-0.6,0.2-1.1,0.6-1.7,0.6
			c-1.3,0.1-2.6-0.2-3.8,0.1c-0.9,0.2-1.6,1-2.4,1.6c2,1.2,0.7,3.2,1,4.7c0.2,1.2,0.4,3.1-0.2,3.5c-1.7,1.1-0.4,1.4,0.2,2
			c0.1,0.1,0,0.3,0,0.4c0,0.5,0.1,0.9,0,1.4c-0.3,1.2-0.1,2.4-0.2,3.4c-0.3,5.7,1.7,11.6-1.1,17.1c-0.1,0.2,0.1,0.6,0.2,0.9
			c0.2-0.2,0.3-0.4,0.5-0.6c0.1-0.1,0.3-0.2,0.4-0.3c0.1,0.1,0.1,0.2,0.1,0.3c0,1.9,0,3.8,0,5.6c0,7.4,0,14.7,0,22.1
			c0,8.4,0,16.9,0,25.3c0,2,0.9,2.9,2.7,2.6c3-0.5,6,0.5,9.1,0.2c4.5-0.5,9-0.2,13.6-0.2c1.6,0,3.2,0.2,4.7-0.1
			c1.5-0.3,2.6,1,4.3,0.2c1.2-0.6,2.9-0.1,4.4-0.1c3.9,0,7.9,0.1,11.8,0c5.4,0,10.8-0.1,16.2-0.1c0.5,0,0.9,0.4,1.4,0.4
			c0.7,0.1,1.3,0,2,0.1c0.6,0,1.1,0.3,1.7,0.2c0.7-0.1,1.4-0.6,2.1-0.6c15,0,30,0,45,0c2.5,0,5,0.1,7.5,0.1c10.2,0,20.4-0.1,30.6,0
			c3.4,0,4-0.3,4-3.7c0-6.5,0-13,0-19.5c0-0.4,0.2-1.3,0.4-1.3c2-0.1,0.2-0.9,0.2-1.3c0-2.3-0.2-4.6-0.1-6.9c0-0.5,2.4-1.2-0.3-1.2
			c-0.1,0-0.2-0.5-0.2-0.8c0-4.6-0.3-9.3,0.2-13.8c0.1-1.2-0.3-2.1-0.2-3.2c0.1-1.6,0.4-3.2,0.4-4.7c-0.1-3.7-0.3-7.5-0.3-11.2
			c0-3.6,0.3-7.2,0.3-10.8C246.3,67,246,64.6,245.8,62.2z M76.9,100.3c0.5,0.8,0.8,1.4,1.2,1.8c0.1,0.1,0.7,0.1,0.8-0.1
			c0.2-0.3,0.1-0.7,0.1-1.1c0-0.3-0.2-0.5-0.3-0.7c-0.1-0.4-0.3-0.8-0.4-1.3C77.8,99.4,77.4,99.8,76.9,100.3z M208.6,52.7
			c-0.1-0.1-0.2-0.3-0.3-0.4c-0.1,0.1-0.2,0.2-0.3,0.4c0.3,0.2,0.6,0.5,0.9,0.6c0.6,0.3,1.2,0.6,1.7,0.9c0.2,0.1,0.3,0.4,0.5,0.5
			c0.1-0.2,0.4-0.5,0.4-0.6c-0.2-0.6-0.5-1.2-0.8-1.8c-0.1-0.2,0-0.5-0.1-0.8c-0.3,0.1-0.6,0.2-0.9,0.3
			C209.4,52.2,209,52.5,208.6,52.7z M83.2,76.4c-1.1-0.5-1.8-1-2.6-1.2c-0.2,0-0.9,0.8-0.9,1.2c0,0.4,0.7,1.2,0.9,1.2
			C81.5,77.4,82.1,77,83.2,76.4z M178.7,148.2c-0.6-0.1-1.6-0.5-1.6-0.4c-0.5,0.8-0.7,1.7-1,2.5c0,0.1,0.3,0.3,0.5,0.5
			C177.3,150,178,149.2,178.7,148.2z M81.4,61.4c-0.4-0.5-0.8-1.2-1-1.2c-0.5,0.2-1.3,0.7-1.2,0.9c0.1,0.6,0.6,1.1,1,1.7
			C80.5,62.4,80.9,62,81.4,61.4z M187.9,150.7c-0.6,0.8-0.9,1.3-1.3,1.8c0,0.1,0.3,0.5,0.4,0.5c0.6-0.2,1.3-0.5,1.9-0.8
			C188.6,151.7,188.4,151.3,187.9,150.7z M212.3,151c-0.7,0-1.2-0.2-1.5,0c-0.4,0.3-0.7,0.8-0.8,1.3c-0.1,0.3,0.2,0.7,0.4,1
			c0.1,0.1,0.4,0,0.6,0c0-0.2-0.1-0.4-0.1-0.6c0.1-0.3,0.3-0.7,0.5-1C211.6,151.5,211.9,151.4,212.3,151z M112.6,49.3
			c-0.6,0.4-0.9,0.5-1.2,0.7c0.5,0.4,1.1,0.9,1.6,1.3c0.1-0.2,0.4-0.5,0.4-0.7C113.2,50.2,112.9,49.8,112.6,49.3z M251.7,76.2
			c0.4-0.3,0.7-0.5,1-0.7c-0.5-0.4-0.9-0.9-1.5-1.1c-0.2-0.1-0.6,0.5-0.9,0.8C250.7,75.6,251.1,75.9,251.7,76.2z M77.9,110.3
			c0.3-1.1,0.5-1.8,0.7-2.5c0-0.1-0.3-0.3-0.5-0.4c-0.3,0.6-0.6,1.2-0.8,1.8C77.2,109.3,77.5,109.6,77.9,110.3z"/>
		<path class="st0" d="M249.5,178.9c-1.4-0.3-2.8-0.7-4.2-0.9c-0.7-0.1-1.4,0.6-2.1,0.6c-9.4,0-18.7,0-28.1,0
			c-0.5,0-0.9-0.5-1.4-0.7c-0.3-0.1-0.6-0.1-0.9-0.1c-0.7,0.1-1.5,0.2-2.2,0.4c-0.5,0.1-0.9,0.5-1.4,0.5c-7.2-0.1-14.4-0.3-21.6-0.3
			c-1,0-2,0.4-3,0.4c-10.8,0-21.7,0-32.5,0c-1.1,0-2.2,0-3.3,0c-0.3,0-0.5-0.1-0.8-0.2c0.1-0.2,0.1-0.4,0.2-0.6
			c0.1-0.2,0.3-0.4,0.5-0.6c-0.6-0.1-1.1-0.2-1.7-0.3c-0.1,0-0.4,0.3-0.3,0.5c0.3,1.3-0.5,1.3-1.4,1.3c-3.7,0-7.4,0-11.1,0
			c-0.7,0-1.5-0.4-2.2-0.6c-0.3-0.1-0.5-0.2-0.8-0.1c-3.7,0.3-7.4,0.6-11.1,0.8c-2.6,0.1-5.1,0-7.7,0c-9.5,0-19.1,0-28.6,0
			c-2.2,0-4.4,0-6.6-0.3c-3-0.4-4.6-2.7-6.3-4.8c1.5-1.6-0.3-1.9-0.9-2.9c-0.6-0.9-0.4-2.3-0.2-3.5c0-0.3,0.9-0.9,1.5-0.9
			c5-0.1,10.1,0,15.1,0c1.1,0,2.2-0.1,3.2,0.2c2.4,0.6,4.7-0.5,7.1-0.2c2.7,0.3,5.4,0,8,0.1c0.8,0,1.7,0.5,2.5,0.7
			c0.2,0.1,0.4,0,0.7,0c1-0.2,2-0.7,3-0.7c3.5-0.1,7.1,0,10.6,0c0.2,0,0.6-0.1,0.7,0c1.5,1.7,3-0.1,4.5,0c1.9,0.1,3.8,0,5.7,0
			c0.6,0,1.3,0.4,1.9,0.4c0.6,0.1,1.2-0.1,1.8-0.2c0.5-0.1,0.9-0.3,1.4-0.3c5.6,0,11.2,0,16.9,0c1.9,0,3.8,0,5.6,0
			c7,0,14.1,0,21.1,0c4.4,0,8.9,0,13.3,0c4.9,0,9.7,0,14.6,0c0.4,0,0.8,0.5,1.2,0.6c0.3,0.1,0.7,0,1-0.1c0.8-0.1,1.5-0.2,2.2-0.2
			c0.5,0,1.1-0.1,1.6-0.1c3.9,0,7.8,0,11.8-0.1c1.9,0,3.8-0.2,5.7-0.2c8.6,0,17.3,0.1,25.9-0.1c2.1,0,2.5,1.2,2.6,2.5
			c0.3,5.7-3.5,10-9.5,10c-0.7,0-1.4,0-2.1,0C249.5,178.7,249.5,178.8,249.5,178.9z M198.7,168.7c-0.5,0.9-0.8,1.4-1.1,2
			c0,0.1,0.2,0.4,0.2,0.4c0.8-0.4,1.5-0.8,2.3-1.2C199.8,169.6,199.4,169.4,198.7,168.7z"/>
	</g>
	<g>
		<path class="st1" d="M86.3,62.9c0.2-0.2,0.4-0.5,0.6-0.7c0.3,0.2,0.6,0.5,0.8,0.7c-0.2,0.2-0.4,0.5-0.6,0.7
			C86.8,63.4,86.6,63.1,86.3,62.9z"/>
		<path class="st1" d="M92.4,55.4c0.2-0.2,0.4-0.5,0.6-0.7C93.1,55.7,93.3,55.1,92.4,55.4z"/>
		<path class="st1" d="M93.8,62.2c0.4,0.1,0.8,0.2,1.1,0.3c-0.1,0.1-0.2,0.2-0.3,0.4C94.3,62.6,94.1,62.4,93.8,62.2z"/>
		<path class="st1" d="M99.9,54.7c0.4,0.1,0.8,0.2,1.1,0.3c-0.1,0.1-0.2,0.2-0.3,0.4C100.5,55.2,100.2,54.9,99.9,54.7z"/>
		<path class="st1" d="M94.5,69.7c0.2-0.2,0.4-0.5,0.6-0.7C95.3,70,95.5,69.3,94.5,69.7z"/>
		<path class="st1" d="M100.7,62.2c0.4-0.3,0.9-0.5,1.3-0.8c-0.1,0.1-0.2,0.2-0.3,0.4c-0.1,0.4-0.1,0.7-0.2,1.1
			C101.2,62.7,100.9,62.4,100.7,62.2z"/>
		<path class="st1" d="M106.8,54.7c0.2-0.2,0.4-0.5,0.6-0.7C107.5,55,107.7,54.4,106.8,54.7z"/>
		<path class="st1" d="M83.6,91.4c0.4,0.1,0.8,0.2,1.1,0.3c-0.1,0.1-0.2,0.2-0.3,0.4C84.2,91.8,83.9,91.6,83.6,91.4z"/>
		<path class="st1" d="M89.5,84.3c0.2-0.2,0.4-0.5,0.6-0.7c0.3,0.2,0.6,0.5,0.8,0.7c-0.2,0.2-0.4,0.5-0.6,0.7
			C90,84.7,89.7,84.5,89.5,84.3z"/>
		<path class="st1" d="M102,69c0.4,0.1,0.8,0.2,1.1,0.3c-0.1,0.1-0.2,0.2-0.3,0.4C102.6,69.4,102.3,69.2,102,69z"/>
		<path class="st1" d="M107.9,61.9c1.4-0.8,0.3-0.6,1.7-0.4c-0.3,0.4-0.6,0.7-0.9,1.1C108.4,62.3,108.1,62.1,107.9,61.9z"/>
		<path class="st1" d="M114,54.4c1.4-0.8,0.3-0.6,1.7-0.4c-0.3,0.4-0.6,0.7-0.9,1.1C114.6,54.8,114.3,54.6,114,54.4z"/>
		<path class="st1" d="M84.7,98.5c0.4,0.1,0.8,0.2,1.1,0.3c-0.1,0.1-0.2,0.2-0.3,0.4C85.2,99,85,98.7,84.7,98.5z"/>
		<path class="st1" d="M90.5,91.4c0.2-0.2,0.4-0.5,0.6-0.7c0.3,0.2,0.6,0.5,0.8,0.7c-0.2,0.2-0.4,0.5-0.6,0.7
			C91.1,91.9,90.8,91.6,90.5,91.4z"/>
		<path class="st1" d="M96.7,83.9c0.4-0.3,0.9-0.5,1.3-0.8c-0.1,0.1-0.2,0.2-0.3,0.4c-0.1,0.4-0.1,0.7-0.2,1.1
			C97.2,84.4,96.9,84.2,96.7,83.9z"/>
		<path class="st1" d="M103.1,76.1c0.4,0.1,0.8,0.2,1.1,0.3c-0.1,0.1-0.2,0.2-0.3,0.4C103.6,76.5,103.4,76.3,103.1,76.1z"/>
		<path class="st1" d="M108.9,69c0.2-0.2,0.4-0.5,0.6-0.7C109.6,69.3,109.8,68.6,108.9,69z"/>
		<path class="st1" d="M115.1,61.5c0.2-0.2,0.4-0.5,0.6-0.7C115.8,61.8,116,61.2,115.1,61.5z"/>
		<path class="st1" d="M121.2,54c0.2-0.2,0.4-0.5,0.6-0.7C121.9,54.3,122.1,53.7,121.2,54z"/>
		<path class="st1" d="M91.9,98.2c0.4,0.1,0.8,0.2,1.1,0.3c-0.1,0.1-0.2,0.2-0.3,0.4C92.4,98.6,92.2,98.4,91.9,98.2z"/>
		<path class="st1" d="M98,90.7c0.2-0.2,0.4-0.5,0.6-0.7c0,0.2,0.1,0.5,0.1,0.7c0.1,0.1,0.3,0.2,0.4,0.3
			C98.8,90.9,98.4,90.8,98,90.7z"/>
		<path class="st1" d="M103.8,83.6c0.2-0.2,0.4-0.5,0.6-0.7C104.6,83.9,104.8,83.2,103.8,83.6z"/>
		<path class="st1" d="M110,76.1c0.2-0.2,0.4-0.5,0.6-0.7C110.7,76.4,110.9,75.8,110,76.1z"/>
		<path class="st1" d="M116.1,68.6c0.2-0.2,0.4-0.5,0.6-0.7c0.3,0.2,0.6,0.5,0.8,0.7c-0.2,0.2-0.4,0.5-0.6,0.7
			C116.7,69.1,116.4,68.9,116.1,68.6z"/>
		<path class="st1" d="M122.3,61.2c0.4-0.3,0.9-0.5,1.3-0.8c-0.1,0.1-0.2,0.2-0.3,0.4c-0.1,0.4-0.1,0.7-0.2,1.1
			C122.8,61.6,122.5,61.4,122.3,61.2z"/>
		<path class="st1" d="M128.4,53.7c1.4-0.8,0.3-0.6,1.7-0.4C129,53.8,129.4,53.7,128.4,53.7z"/>
		<path class="st1" d="M86.5,113.1c0.2-0.2,0.4-0.5,0.6-0.7c0.3,0.2,0.6,0.5,0.8,0.7c-0.2,0.2-0.4,0.5-0.6,0.7
			C87,113.6,86.8,113.4,86.5,113.1z"/>
		<path class="st1" d="M92.6,105.7c0.2-0.2,0.4-0.5,0.6-0.7C93.3,105.9,93.6,105.3,92.6,105.7z"/>
		<path class="st1" d="M99.1,97.8c0.4,0.1,0.8,0.2,1.1,0.3c-0.1,0.1-0.2,0.2-0.3,0.4C99.6,98.3,99.4,98,99.1,97.8z"/>
		<path class="st1" d="M104.9,90.7c0.2-0.2,0.4-0.5,0.6-0.7c0.3,0.2,0.6,0.5,0.8,0.7c-0.2,0.2-0.4,0.5-0.6,0.7
			C105.5,91.2,105.2,90.9,104.9,90.7z"/>
		<path class="st1" d="M111,83.2c0.2-0.2,0.4-0.5,0.6-0.7C111.8,83.5,112,82.9,111,83.2z"/>
		<path class="st1" d="M117.5,75.4c0.4,0.1,0.8,0.2,1.1,0.3c-0.1,0.1-0.2,0.2-0.3,0.4C118,75.8,117.8,75.6,117.5,75.4z"/>
		<path class="st1" d="M123.3,68.3c0.2-0.2,0.4-0.5,0.6-0.7C124,68.6,124.2,67.9,123.3,68.3z"/>
		<path class="st1" d="M135.6,53.3c0.4-0.3,0.9-0.5,1.3-0.8c-0.1,0.1-0.2,0.2-0.3,0.4c-0.1,0.4-0.1,0.7-0.2,1.1
			C136.1,53.8,135.9,53.6,135.6,53.3z"/>
		<path class="st1" d="M94,112.4c0.4,0.1,0.8,0.2,1.1,0.3c-0.1,0.1-0.2,0.2-0.3,0.4C94.5,112.9,94.3,112.6,94,112.4z"/>
		<path class="st1" d="M100.1,104.9c0.4,0.1,0.8,0.2,1.1,0.3c-0.1,0.1-0.2,0.2-0.3,0.4C100.7,105.4,100.4,105.2,100.1,104.9z"/>
		<path class="st1" d="M106,97.8c0.2-0.2,0.4-0.5,0.6-0.7C106.7,98.1,106.9,97.5,106,97.8z"/>
		<path class="st1" d="M112.1,90.4c0.2-0.2,0.4-0.5,0.6-0.7c0.3,0.2,0.6,0.5,0.8,0.7c-0.2,0.2-0.4,0.5-0.6,0.7
			C112.6,90.8,112.4,90.6,112.1,90.4z"/>
		<path class="st1" d="M118.2,82.9c0.2-0.2,0.4-0.5,0.6-0.7c0.3,0.2,0.6,0.5,0.8,0.7c-0.2,0.2-0.4,0.5-0.6,0.7
			C118.8,83.3,118.5,83.1,118.2,82.9z"/>
		<path class="st1" d="M124.4,75.4c0.4-0.3,0.9-0.5,1.3-0.8c-0.1,0.1-0.2,0.2-0.3,0.4c-0.1,0.4-0.1,0.7-0.2,1.1
			C124.9,75.9,124.6,75.6,124.4,75.4z"/>
		<path class="st1" d="M130.8,67.6c0.4,0.1,0.8,0.2,1.1,0.3c-0.1,0.1-0.2,0.2-0.3,0.4C131.4,68,131.1,67.8,130.8,67.6z"/>
		<path class="st1" d="M136.9,60.1c0.4,0.1,0.8,0.2,1.1,0.3c-0.1,0.1-0.2,0.2-0.3,0.4C137.5,60.5,137.2,60.3,136.9,60.1z"/>
		<path class="st1" d="M142.8,53c0.4-0.3,0.9-0.5,1.3-0.8C144.1,52.9,143.7,53.8,142.8,53z"/>
		<path class="st1" d="M95.1,119.5c0.4,0.1,0.8,0.2,1.1,0.3c-0.1,0.1-0.2,0.2-0.3,0.4C95.6,120,95.3,119.8,95.1,119.5z"/>
		<path class="st1" d="M101.2,112.1c0.4,0.1,0.8,0.2,1.1,0.3c-0.1,0.1-0.2,0.2-0.3,0.4C101.7,112.5,101.5,112.3,101.2,112.1z"/>
		<path class="st1" d="M107.3,104.6c0.4,0.1,0.8,0.2,1.1,0.3c-0.1,0.1-0.2,0.2-0.3,0.4C107.9,105,107.6,104.8,107.3,104.6z"/>
		<path class="st1" d="M113.5,97.1c0.4,0.1,0.8,0.2,1.1,0.3c-0.1,0.1-0.2,0.2-0.3,0.4C114,97.6,113.7,97.3,113.5,97.1z"/>
		<path class="st1" d="M119.6,89.6c0.4,0.1,0.8,0.2,1.1,0.3c-0.1,0.1-0.2,0.2-0.3,0.4C120.1,90.1,119.9,89.9,119.6,89.6z"/>
		<path class="st1" d="M125.4,82.5c0.2-0.2,0.4-0.5,0.6-0.7c0.3,0.2,0.6,0.5,0.8,0.7c-0.2,0.2-0.4,0.5-0.6,0.7
			C126,83,125.7,82.8,125.4,82.5z"/>
		<path class="st1" d="M131.6,75.1c1.4-0.8,0.3-0.6,1.7-0.4c-0.3,0.4-0.6,0.7-0.9,1.1C132.1,75.5,131.8,75.3,131.6,75.1z"/>
		<path class="st1" d="M137.7,67.6c0.2-0.2,0.4-0.5,0.6-0.7c0.3,0.2,0.6,0.5,0.8,0.7c-0.2,0.2-0.4,0.5-0.6,0.7
			C138.2,68,138,67.8,137.7,67.6z"/>
		<path class="st1" d="M143.8,60.1c0.2-0.2,0.4-0.5,0.6-0.7C144.5,60.4,144.8,59.8,143.8,60.1z"/>
		<path class="st1" d="M150,52.6c0.2-0.2,0.4-0.5,0.6-0.7c0.3,0.2,0.6,0.5,0.8,0.7c-0.2,0.2-0.4,0.5-0.6,0.7
			C150.5,53.1,150.2,52.9,150,52.6z"/>
		<path class="st1" d="M96.1,126.7c0.4,0.1,0.8,0.2,1.1,0.3c-0.1,0.1-0.2,0.2-0.3,0.4C96.7,127.1,96.4,126.9,96.1,126.7z"/>
		<path class="st1" d="M108.1,112.1c0.4-0.3,0.9-0.5,1.3-0.8c-0.1,0.1-0.2,0.2-0.3,0.4c-0.1,0.4-0.1,0.7-0.2,1.1
			C108.6,112.5,108.4,112.3,108.1,112.1z"/>
		<path class="st1" d="M114.5,104.2c0.4,0.1,0.8,0.2,1.1,0.3c-0.1,0.1-0.2,0.2-0.3,0.4C115.1,104.7,114.8,104.5,114.5,104.2z"/>
		<path class="st1" d="M120.3,97.1c0.2-0.2,0.4-0.5,0.6-0.7C121.1,97.4,121.3,96.8,120.3,97.1z"/>
		<path class="st1" d="M126.5,89.7c0.2-0.2,0.4-0.5,0.6-0.7c0.3,0.2,0.6,0.5,0.8,0.7c-0.2,0.2-0.4,0.5-0.6,0.7
			C127,90.1,126.8,89.9,126.5,89.7z"/>
		<path class="st1" d="M132.6,82.2c0.2-0.2,0.4-0.5,0.6-0.7C133.3,82.5,133.5,81.8,132.6,82.2z"/>
		<path class="st1" d="M139.1,74.3c0.4,0.1,0.8,0.2,1.1,0.3c-0.1,0.1-0.2,0.2-0.3,0.4C139.6,74.8,139.3,74.6,139.1,74.3z"/>
		<path class="st1" d="M144.9,67.2c0.2-0.2,0.4-0.5,0.6-0.7c0.3,0.2,0.6,0.5,0.8,0.7c-0.2,0.2-0.4,0.5-0.6,0.7
			C145.4,67.7,145.2,67.5,144.9,67.2z"/>
		<path class="st1" d="M151,59.8c1.4-0.8,0.3-0.6,1.7-0.4c0,0.2,0.1,0.5,0.1,0.7c-0.2,0-0.5,0-0.7,0C151.8,60,151.4,59.9,151,59.8z"
			/>
		<path class="st1" d="M157.2,52.3c0.2-0.2,0.4-0.5,0.6-0.7c0.3,0.2,0.6,0.5,0.8,0.7c-0.2,0.2-0.4,0.5-0.6,0.7
			C157.7,52.7,157.4,52.5,157.2,52.3z"/>
		<path class="st1" d="M152,66.2c1-0.1,0.6-0.1,1.9,0.3c-0.3,0.4-0.6,0.7-0.9,1.1C152.6,67.1,152.3,66.6,152,66.2z"/>
		<path class="st1" d="M90.7,141.6c0.2-0.2,0.4-0.5,0.6-0.7C91.4,141.9,91.7,141.3,90.7,141.6z"/>
		<path class="st1" d="M103,126.7c0.2-0.2,0.4-0.5,0.6-0.7C103.7,126.9,103.9,126.3,103,126.7z"/>
		<path class="st1" d="M109.4,118.8c0.4,0.1,0.8,0.2,1.1,0.3c-0.1,0.1-0.2,0.2-0.3,0.4C110,119.3,109.7,119.1,109.4,118.8z"/>
		<path class="st1" d="M115.6,111.4c0.4,0.1,0.8,0.2,1.1,0.3c-0.1,0.1-0.2,0.2-0.3,0.4C116.1,111.8,115.9,111.6,115.6,111.4z"/>
		<path class="st1" d="M127.9,96.4c0.4,0.1,0.8,0.2,1.1,0.3c-0.1,0.1-0.2,0.2-0.3,0.4C128.4,96.9,128.1,96.6,127.9,96.4z"/>
		<path class="st1" d="M133.7,89.3c0.4-0.3,0.9-0.5,1.3-0.8c-0.1,0.1-0.2,0.2-0.3,0.4c-0.1,0.4-0.1,0.7-0.2,1.1
			C134.2,89.8,134,89.5,133.7,89.3z"/>
		<path class="st1" d="M139.8,81.8c0.4-0.3,0.9-0.5,1.3-0.8C141.1,81.7,140.7,82.7,139.8,81.8z"/>
		<path class="st1" d="M146,74.4c0.2-0.2,0.4-0.5,0.6-0.7c0.3,0.2,0.6,0.5,0.8,0.7c-0.2,0.2-0.4,0.5-0.6,0.7
			C146.5,74.8,146.2,74.6,146,74.4z"/>
		<path class="st1" d="M158.2,59.4c0.2-0.2,0.4-0.5,0.6-0.7C158.9,59.7,159.1,59.1,158.2,59.4z"/>
		<path class="st1" d="M164.4,51.9c0.4-0.3,0.9-0.5,1.3-0.8c-0.1,0.1-0.2,0.2-0.3,0.4c-0.1,0.4-0.1,0.7-0.2,1.1
			C164.9,52.4,164.6,52.2,164.4,51.9z"/>
		<path class="st1" d="M104.1,133.8c0.2-0.2,0.4-0.5,0.6-0.7C104.8,134.1,105,133.5,104.1,133.8z"/>
		<path class="st1" d="M116.6,118.5c0.4,0.1,0.8,0.2,1.1,0.3c-0.1,0.1-0.2,0.2-0.3,0.4C117.2,118.9,116.9,118.7,116.6,118.5z"/>
		<path class="st1" d="M135,96.1c0.4,0.1,0.8,0.2,1.1,0.3c-0.1,0.1-0.2,0.2-0.3,0.4C135.6,96.5,135.3,96.3,135,96.1z"/>
		<path class="st1" d="M153.1,74c1.4-0.8,0.3-0.6,1.7-0.4c-0.3,0.4-0.6,0.7-0.9,1.1C153.7,74.5,153.4,74.2,153.1,74z"/>
		<path class="st1" d="M159.3,66.5c0.2-0.2,0.4-0.5,0.6-0.7c0.3,0.2,0.6,0.5,0.8,0.7c-0.2,0.2-0.4,0.5-0.6,0.7
			C159.8,67,159.6,66.8,159.3,66.5z"/>
		<path class="st1" d="M165.4,59.1c0.2-0.2,0.4-0.5,0.6-0.7c0.3,0.2,0.6,0.5,0.8,0.7c-0.2,0.2-0.4,0.5-0.6,0.7
			C166,59.5,165.7,59.3,165.4,59.1z"/>
		<path class="st1" d="M171.6,51.6c0.2-0.2,0.4-0.5,0.6-0.7c0.3,0.2,0.6,0.5,0.8,0.7c-0.2,0.2-0.4,0.5-0.6,0.7
			C172.1,52,171.8,51.8,171.6,51.6z"/>
		<path class="st1" d="M105.4,140.6c0.4,0.1,0.8,0.2,1.1,0.3c-0.1,0.1-0.2,0.2-0.3,0.4C106,141,105.7,140.8,105.4,140.6z"/>
		<path class="st1" d="M111.6,133.1c0.4,0.1,0.8,0.2,1.1,0.3c-0.1,0.1-0.2,0.2-0.3,0.4C112.1,133.5,111.8,133.3,111.6,133.1z"/>
		<path class="st1" d="M117.7,125.6c0.4,0.1,0.8,0.2,1.1,0.3c-0.1,0.1-0.2,0.2-0.3,0.4C118.2,126.1,118,125.8,117.7,125.6z"/>
		<path class="st1" d="M129.7,111c0.2-0.2,0.4-0.5,0.6-0.7C130.4,111.3,130.6,110.7,129.7,111z"/>
		<path class="st1" d="M136.1,103.2c0.4,0.1,0.8,0.2,1.1,0.3c-0.1,0.1-0.2,0.2-0.3,0.4C136.7,103.6,136.4,103.4,136.1,103.2z"/>
		<path class="st1" d="M141.9,96.1c0.2-0.2,0.4-0.5,0.6-0.7c0.3,0.2,0.6,0.5,0.8,0.7c-0.2,0.2-0.4,0.5-0.6,0.7
			C142.5,96.5,142.2,96.3,141.9,96.1z"/>
		<path class="st1" d="M148.4,88.2"/>
		<path class="st1" d="M154.2,81.1c0.2-0.2,0.4-0.5,0.6-0.7c0.3,0.2,0.6,0.5,0.8,0.7c-0.2,0.2-0.4,0.5-0.6,0.7
			C154.8,81.6,154.5,81.4,154.2,81.1z"/>
		<path class="st1" d="M160.6,73.3c0.4,0.1,0.8,0.2,1.1,0.3c-0.1,0.1-0.2,0.2-0.3,0.4C161.2,73.7,160.9,73.5,160.6,73.3z"/>
		<path class="st1" d="M166.5,66.2c0.2-0.2,0.4-0.5,0.6-0.7c0.3,0.2,0.6,0.5,0.8,0.7c-0.2,0.2-0.4,0.5-0.6,0.7
			C167,66.6,166.7,66.4,166.5,66.2z"/>
		<path class="st1" d="M172.6,58.7c0.4-0.3,0.9-0.5,1.3-0.8c-0.1,0.1-0.2,0.2-0.3,0.4c-0.1,0.4-0.1,0.7-0.2,1.1
			C173.2,59.2,172.9,58.9,172.6,58.7z"/>
		<path class="st1" d="M179.1,50.9c0.4,0.1,0.8,0.2,1.1,0.3c-0.1,0.1-0.2,0.2-0.3,0.4C179.6,51.3,179.3,51.1,179.1,50.9z"/>
		<path class="st1" d="M112.6,140.2c0.4,0.1,0.8,0.2,1.1,0.3c-0.1,0.1-0.2,0.2-0.3,0.4C113.2,140.7,112.9,140.4,112.6,140.2z"/>
		<path class="st1" d="M124.9,125.3c0.4,0.1,0.8,0.2,1.1,0.3c-0.1,0.1-0.2,0.2-0.3,0.4C125.4,125.7,125.2,125.5,124.9,125.3z"/>
		<path class="st1" d="M131,117.8c0.4,0.1,0.8,0.2,1.1,0.3c-0.1,0.1-0.2,0.2-0.3,0.4C131.6,118.2,131.3,118,131,117.8z"/>
		<path class="st1" d="M167.5,73.3c0.2-0.2,0.4-0.5,0.6-0.7c0.3,0.2,0.6,0.5,0.8,0.7c-0.2,0.2-0.4,0.5-0.6,0.7
			C168.1,73.8,167.8,73.5,167.5,73.3z"/>
		<path class="st1" d="M179.8,58.4c0.2-0.2,0.4-0.5,0.6-0.7C180.5,58.6,180.7,58,179.8,58.4z"/>
		<path class="st1" d="M185.9,50.9c0.4-0.3,0.9-0.5,1.3-0.8C187.3,50.7,186.8,51.7,185.9,50.9z"/>
		<path class="st1" d="M125.6,132.8c0.2-0.2,0.4-0.5,0.6-0.7C126.4,133,126.6,132.4,125.6,132.8z"/>
		<path class="st1" d="M144.4,110c0.4,0.1,0.8,0.2,1.1,0.3c-0.1,0.1-0.2,0.2-0.3,0.4C144.9,110.4,144.6,110.2,144.4,110z"/>
		<path class="st1" d="M168.6,80.4c0.4-0.3,0.9-0.5,1.3-0.8c-0.1,0.1-0.2,0.2-0.3,0.4c-0.1,0.4-0.1,0.7-0.2,1.1
			C169.1,80.9,168.9,80.7,168.6,80.4z"/>
		<path class="st1" d="M175,72.6c0.4,0.1,0.8,0.2,1.1,0.3C175.4,73.4,174.7,73.4,175,72.6z"/>
		<path class="st1" d="M187,58c0.4-0.3,0.9-0.5,1.3-0.8C188.3,57.9,187.9,58.9,187,58z"/>
		<path class="st1" d="M193.4,50.2c0.4,0.1,0.8,0.2,1.1,0.3c-0.1,0.1-0.2,0.2-0.3,0.4C194,50.6,193.7,50.4,193.4,50.2z"/>
		<path class="st1" d="M127,139.5c0.4,0.1,0.8,0.2,1.1,0.3c-0.1,0.1-0.2,0.2-0.3,0.4C127.6,140,127.3,139.7,127,139.5z"/>
		<path class="st1" d="M133.1,132c0.4,0.1,0.8,0.2,1.1,0.3c-0.1,0.1-0.2,0.2-0.3,0.4C133.7,132.5,133.4,132.3,133.1,132z"/>
		<path class="st1" d="M139.3,124.6c0.4,0.1,0.8,0.2,1.1,0.3c-0.1,0.1-0.2,0.2-0.3,0.4C139.8,125,139.6,124.8,139.3,124.6z"/>
		<path class="st1" d="M175.8,80.1c1.4-0.8,0.3-0.6,1.7-0.4c-0.3,0.4-0.6,0.7-0.9,1.1C176.3,80.5,176.1,80.3,175.8,80.1z"/>
		<path class="st1" d="M181.9,72.6c1.4-0.8,0.3-0.6,1.7-0.4c-0.3,0.4-0.6,0.7-0.9,1.1C182.5,73.1,182.2,72.8,181.9,72.6z"/>
		<path class="st1" d="M188.4,64.8c0.2-0.2,0.4-0.5,0.6-0.7c0,0.2,0.1,0.5,0.1,0.7c0.1,0.1,0.3,0.2,0.4,0.3
			C189.1,65,188.7,64.9,188.4,64.8z"/>
		<path class="st1" d="M194.2,57.7c1.4-0.8,0.3-0.6,1.7-0.4c-0.3,0.4-0.6,0.7-0.9,1.1C194.7,58.1,194.5,57.9,194.2,57.7z"/>
		<path class="st1" d="M200.3,50.2c0.2-0.2,0.4-0.5,0.6-0.7C201,50.5,201.2,49.8,200.3,50.2z"/>
		<path class="st1" d="M122.8,154.8c-0.3-0.2-0.6-0.5-0.8-0.7c0.4,0.1,0.8,0.2,1.1,0.3C123,154.5,122.9,154.7,122.8,154.8"/>
		<path class="st1" d="M134.2,139.2c0.4,0.1,0.8,0.2,1.1,0.3c-0.1,0.1-0.2,0.2-0.3,0.4C134.7,139.6,134.5,139.4,134.2,139.2z"/>
		<path class="st1" d="M140,132.1c0.4-0.3,0.9-0.5,1.3-0.8C141.4,131.9,140.9,132.9,140,132.1z"/>
		<path class="st1" d="M146.5,124.2c0.4,0.1,0.8,0.2,1.1,0.3c-0.1,0.1-0.2,0.2-0.3,0.4C147,124.7,146.7,124.4,146.5,124.2z"/>
		<path class="st1" d="M183,79.7c1.4-0.8,0.3-0.6,1.7-0.4c-0.3,0.4-0.6,0.7-0.9,1.1C183.5,80.2,183.3,80,183,79.7z"/>
		<path class="st1" d="M189.1,72.3c0.4-0.3,0.9-0.5,1.3-0.8c-0.1,0.1-0.2,0.2-0.3,0.4c-0.1,0.4-0.1,0.7-0.2,1.1
			C189.7,72.7,189.4,72.5,189.1,72.3z"/>
		<path class="st1" d="M195.2,64.8c0.2-0.2,0.4-0.5,0.6-0.7C196,65,196.2,64.4,195.2,64.8z"/>
		<path class="st1" d="M201.4,57.3c0.2-0.2,0.4-0.5,0.6-0.7c0.3,0.2,0.6,0.5,0.8,0.7c-0.2,0.2-0.4,0.5-0.6,0.7
			C201.9,57.8,201.7,57.5,201.4,57.3z"/>
		<path class="st1" d="M207.5,49.8c0.4-0.3,0.9-0.5,1.3-0.8c-0.1,0.1-0.2,0.2-0.3,0.4c-0.1,0.4-0.1,0.7-0.2,1.1
			C208.1,50.3,207.8,50.1,207.5,49.8z"/>
		<path class="st1" d="M129.1,153.8c0.4,0.1,0.8,0.2,1.1,0.3c-0.1,0.1-0.2,0.2-0.3,0.4C129.7,154.2,129.4,154,129.1,153.8z"/>
		<path class="st1" d="M135.3,146.3c0.4,0.1,0.8,0.2,1.1,0.3c-0.1,0.1-0.2,0.2-0.3,0.4C135.8,146.7,135.5,146.5,135.3,146.3z"/>
		<path class="st1" d="M141.4,138.8c0.4,0.1,0.8,0.2,1.1,0.3c-0.1,0.1-0.2,0.2-0.3,0.4C141.9,139.3,141.7,139,141.4,138.8z"/>
		<path class="st1" d="M147.5,131.3c0.4,0.1,0.8,0.2,1.1,0.3c-0.1,0.1-0.2,0.2-0.3,0.4C148.1,131.8,147.8,131.6,147.5,131.3z"/>
		<path class="st1" d="M153.7,123.9c0.4,0.1,0.8,0.2,1.1,0.3c-0.1,0.1-0.2,0.2-0.3,0.4C154.2,124.3,153.9,124.1,153.7,123.9z"/>
		<path class="st1" d="M185.4,86.1"/>
		<path class="st1" d="M190.5,79c0.4,0.1,0.8,0.2,1.1,0.3c-0.1,0.1-0.2,0.2-0.3,0.4C191,79.5,190.8,79.2,190.5,79z"/>
		<path class="st1" d="M196.6,71.5c0.4,0.1,0.8,0.2,1.1,0.3c-0.1,0.1-0.2,0.2-0.3,0.4C197.2,72,196.9,71.8,196.6,71.5z"/>
		<path class="st1" d="M202.4,64.4c0.2-0.2,0.4-0.5,0.6-0.7c0.3,0.2,0.6,0.5,0.8,0.7c-0.2,0.2-0.4,0.5-0.6,0.7
			C203,64.9,202.7,64.7,202.4,64.4z"/>
		<path class="st1" d="M208.6,57c0.2-0.2,0.4-0.5,0.6-0.7c0.3,0.2,0.6,0.5,0.8,0.7c-0.2,0.2-0.4,0.5-0.6,0.7
			C209.1,57.4,208.9,57.2,208.6,57z"/>
		<path class="st1" d="M215,49.1c0.4,0.1,0.8,0.2,1.1,0.3c-0.1,0.1-0.2,0.2-0.3,0.4C215.6,49.6,215.3,49.3,215,49.1z"/>
		<path class="st1" d="M136.3,153.4c0.4,0.1,0.8,0.2,1.1,0.3c-0.1,0.1-0.2,0.2-0.3,0.4C136.9,153.9,136.6,153.6,136.3,153.4z"/>
		<path class="st1" d="M142.1,146.3c0.2-0.2,0.4-0.5,0.6-0.7C142.9,146.6,143.1,146,142.1,146.3z"/>
		<path class="st1" d="M148.6,138.5c0.4,0.1,0.8,0.2,1.1,0.3c-0.1,0.1-0.2,0.2-0.3,0.4C149.1,138.9,148.9,138.7,148.6,138.5z"/>
		<path class="st1" d="M160.9,123.5c0.4,0.1,0.8,0.2,1.1,0.3c-0.1,0.1-0.2,0.2-0.3,0.4C161.4,124,161.1,123.7,160.9,123.5z"/>
		<path class="st1" d="M185.1,94c1.4-0.8,0.3-0.6,1.7-0.4c0,0.2,0.1,0.5,0.1,0.7c-0.2,0-0.5,0-0.7,0C185.8,94.2,185.5,94.1,185.1,94
			z"/>
		<path class="st1" d="M197.7,78.7c0.4,0.1,0.8,0.2,1.1,0.3c-0.1,0.1-0.2,0.2-0.3,0.4C198.2,79.1,197.9,78.9,197.7,78.7z"/>
		<path class="st1" d="M203.5,71.6c0.4-0.3,0.9-0.5,1.3-0.8c-0.1,0.1-0.2,0.2-0.3,0.4c-0.1,0.4-0.1,0.7-0.2,1.1
			C204,72,203.8,71.8,203.5,71.6z"/>
		<path class="st1" d="M215.8,56.6c0.2-0.2,0.4-0.5,0.6-0.7c0.3,0.2,0.6,0.5,0.8,0.7c-0.2,0.2-0.4,0.5-0.6,0.7
			C216.3,57.1,216,56.8,215.8,56.6z"/>
		<path class="st1" d="M221.9,49.1c0.2-0.2,0.4-0.5,0.6-0.7c0.3,0.2,0.6,0.5,0.8,0.7c-0.2,0.2-0.4,0.5-0.6,0.7
			C222.5,49.6,222.2,49.4,221.9,49.1z"/>
		<path class="st1" d="M143.5,153.1c0.4,0.1,0.8,0.2,1.1,0.3c-0.1,0.1-0.2,0.2-0.3,0.4C144.1,153.5,143.8,153.3,143.5,153.1z"/>
		<path class="st1" d="M149.3,146c0.4-0.3,0.9-0.5,1.3-0.8c-0.1,0.1-0.2,0.2-0.3,0.4c-0.1,0.4-0.1,0.7-0.2,1.1
			C149.9,146.4,149.6,146.2,149.3,146z"/>
		<path class="st1" d="M155.5,138.5c0.2-0.2,0.4-0.5,0.6-0.7C156.2,138.7,156.4,138.1,155.5,138.5z"/>
		<path class="st1" d="M161.6,131c0.2-0.2,0.4-0.5,0.6-0.7c0.3,0.2,0.6,0.5,0.8,0.7c-0.2,0.2-0.4,0.5-0.6,0.7
			C162.2,131.5,161.9,131.2,161.6,131z"/>
		<path class="st1" d="M168.1,123.2c0.4,0.1,0.8,0.2,1.1,0.3c-0.1,0.1-0.2,0.2-0.3,0.4C168.6,123.6,168.3,123.4,168.1,123.2z"/>
		<path class="st1" d="M186.5,100.7c0.4,0.1,0.8,0.2,1.1,0.3c-0.1,0.1-0.2,0.2-0.3,0.4C187,101.2,186.7,101,186.5,100.7z"/>
		<path class="st1" d="M198.4,86.2c0.2-0.2,0.4-0.5,0.6-0.7C199.1,86.4,199.3,85.8,198.4,86.2z"/>
		<path class="st1" d="M204.6,78.7c0.2-0.2,0.4-0.5,0.6-0.7c0.3,0.2,0.6,0.5,0.8,0.7c-0.2,0.2-0.4,0.5-0.6,0.7
			C205.1,79.1,204.8,78.9,204.6,78.7z"/>
		<path class="st1" d="M210.7,71.2c0.2-0.2,0.4-0.5,0.6-0.7C211.4,71.5,211.6,70.9,210.7,71.2z"/>
		<path class="st1" d="M216.8,63.7c0.2-0.2,0.4-0.5,0.6-0.7c0.3,0.2,0.6,0.5,0.8,0.7c-0.2,0.2-0.4,0.5-0.6,0.7
			C217.4,64.2,217.1,64,216.8,63.7z"/>
		<path class="st1" d="M223,56.3c0.4-0.3,0.9-0.5,1.3-0.8C224.3,56.1,223.9,57.1,223,56.3z"/>
		<path class="st1" d="M229.1,48.8c0.2-0.2,0.4-0.5,0.6-0.7C229.8,49.1,230,48.4,229.1,48.8z"/>
		<path class="st1" d="M156.8,145.2c0.4,0.1,0.8,0.2,1.1,0.3c-0.1,0.1-0.2,0.2-0.3,0.4C157.4,145.7,157.1,145.5,156.8,145.2z"/>
		<path class="st1" d="M163,137.8c0.4,0.1,0.8,0.2,1.1,0.3c-0.1,0.1-0.2,0.2-0.3,0.4C163.5,138.2,163.2,138,163,137.8z"/>
		<path class="st1" d="M168.8,130.7c0.2-0.2,0.4-0.5,0.6-0.7c0.3,0.2,0.6,0.5,0.8,0.7c-0.2,0.2-0.4,0.5-0.6,0.7
			C169.4,131.1,169.1,130.9,168.8,130.7z"/>
		<path class="st1" d="M175.2,122.8c0.4,0.1,0.8,0.2,1.1,0.3c-0.1,0.1-0.2,0.2-0.3,0.4C175.8,123.3,175.5,123,175.2,122.8z"/>
		<path class="st1" d="M187.2,108.2c0.2-0.2,0.4-0.5,0.6-0.7c0.3,0.2,0.6,0.5,0.8,0.7c-0.2,0.2-0.4,0.5-0.6,0.7
			C187.8,108.7,187.5,108.5,187.2,108.2z"/>
		<path class="st1" d="M193.7,100.4c0.4,0.1,0.8,0.2,1.1,0.3c-0.1,0.1-0.2,0.2-0.3,0.4C194.2,100.8,193.9,100.6,193.7,100.4z"/>
		<path class="st1" d="M199.5,93.3c0.2-0.2,0.4-0.5,0.6-0.7C200.2,93.5,200.4,92.9,199.5,93.3z"/>
		<path class="st1" d="M205.6,85.8c1.4-0.8,0.3-0.6,1.7-0.4c-0.3,0.4-0.6,0.7-0.9,1.1C206.2,86.3,205.9,86,205.6,85.8z"/>
		<path class="st1" d="M212.1,78c0.4,0.1,0.8,0.2,1.1,0.3c-0.1,0.1-0.2,0.2-0.3,0.4C212.6,78.4,212.3,78.2,212.1,78z"/>
		<path class="st1" d="M217.9,70.9c0.2-0.2,0.4-0.5,0.6-0.7c0.3,0.2,0.6,0.5,0.8,0.7c-0.2,0.2-0.4,0.5-0.6,0.7
			C218.4,71.3,218.2,71.1,217.9,70.9z"/>
		<path class="st1" d="M224,63.4c0.4-0.3,0.9-0.5,1.3-0.8C225.4,63.2,224.9,64.2,224,63.4z"/>
		<path class="st1" d="M230.2,55.9c0.4-0.3,0.9-0.5,1.3-0.8c-0.1,0.1-0.2,0.2-0.3,0.4c-0.1,0.4-0.1,0.7-0.2,1.1
			C230.7,56.4,230.4,56.1,230.2,55.9z"/>
		<path class="st1" d="M236.9,47.7c0.3,0.2,0.6,0.5,0.8,0.7c-0.2,0.2-0.4,0.5-0.6,0.7c-0.3-0.2-0.6-0.5-0.8-0.7
			C236.5,48.2,236.7,47.9,236.9,47.7"/>
		<path class="st1" d="M237.2,54.9c1.6,0.3,1-0.2,0.9,1.4C237.9,55.8,237.6,55.3,237.2,54.9z"/>
		<path class="st1" d="M157.9,152.4c0.4,0.1,0.8,0.2,1.1,0.3c-0.1,0.1-0.2,0.2-0.3,0.4C158.4,152.8,158.2,152.6,157.9,152.4z"/>
		<path class="st1" d="M169.9,137.8c0.2-0.2,0.4-0.5,0.6-0.7c0.3,0.2,0.6,0.5,0.8,0.7c-0.2,0.2-0.4,0.5-0.6,0.7
			C170.4,138.2,170.1,138,169.9,137.8z"/>
		<path class="st1" d="M176.3,129.9c0.4,0.1,0.8,0.2,1.1,0.3c-0.1,0.1-0.2,0.2-0.3,0.4C176.9,130.4,176.6,130.2,176.3,129.9z"/>
		<path class="st1" d="M182.1,122.8c0.4-0.3,0.9-0.5,1.3-0.8c-0.1,0.1-0.2,0.2-0.3,0.4c-0.1,0.4-0.1,0.7-0.2,1.1
			C182.7,123.3,182.4,123.1,182.1,122.8z"/>
		<path class="st1" d="M188.3,115.4c0.2-0.2,0.4-0.5,0.6-0.7c0.3,0.2,0.6,0.5,0.8,0.7c-0.2,0.2-0.4,0.5-0.6,0.7
			C188.8,115.8,188.5,115.6,188.3,115.4z"/>
		<path class="st1" d="M194.7,107.5c0.4,0.1,0.8,0.2,1.1,0.3c-0.1,0.1-0.2,0.2-0.3,0.4C195.3,108,195,107.7,194.7,107.5z"/>
		<path class="st1" d="M212.8,85.5c0.4-0.3,0.9-0.5,1.3-0.8C214.1,85.3,213.7,86.3,212.8,85.5z"/>
		<path class="st1" d="M218.9,78c0.2-0.2,0.4-0.5,0.6-0.7c0.3,0.2,0.6,0.5,0.8,0.7c-0.2,0.2-0.4,0.5-0.6,0.7
			C219.5,78.4,219.2,78.2,218.9,78z"/>
		<path class="st1" d="M225.1,70.5c0.4-0.3,0.9-0.5,1.3-0.8c-0.1,0.1-0.2,0.2-0.3,0.4c-0.1,0.4-0.1,0.7-0.2,1.1
			C225.6,71,225.4,70.7,225.1,70.5z"/>
		<path class="st1" d="M231.2,63c0.2-0.2,0.4-0.5,0.6-0.7c0.3,0.2,0.6,0.5,0.8,0.7c-0.2,0.2-0.4,0.5-0.6,0.7
			C231.8,63.5,231.5,63.3,231.2,63z"/>
		<path class="st1" d="M165.1,152c0.4,0.1,0.8,0.2,1.1,0.3c-0.1,0.1-0.2,0.2-0.3,0.4C165.6,152.5,165.4,152.2,165.1,152z"/>
		<path class="st1" d="M183.5,129.6c0.4,0.1,0.8,0.2,1.1,0.3c-0.1,0.1-0.2,0.2-0.3,0.4C184,130,183.8,129.8,183.5,129.6z"/>
		<path class="st1" d="M189.3,122.5c0.2-0.2,0.4-0.5,0.6-0.7c0.3,0.2,0.6,0.5,0.8,0.7c-0.2,0.2-0.4,0.5-0.6,0.7
			C189.9,122.9,189.6,122.7,189.3,122.5z"/>
		<path class="st1" d="M195.5,115c0.2-0.2,0.4-0.5,0.6-0.7c0.3,0.2,0.6,0.5,0.8,0.7c-0.2,0.2-0.4,0.5-0.6,0.7
			C196,115.5,195.7,115.2,195.5,115z"/>
		<path class="st1" d="M213.9,92.6c0.4-0.3,0.9-0.5,1.3-0.8c-0.1,0.1-0.2,0.2-0.3,0.4c-0.1,0.4-0.1,0.7-0.2,1.1
			C214.4,93,214.1,92.8,213.9,92.6z"/>
		<path class="st1" d="M220.3,84.7c0.4,0.1,0.8,0.2,1.1,0.3c-0.1,0.1-0.2,0.2-0.3,0.4C220.9,85.2,220.6,85,220.3,84.7z"/>
		<path class="st1" d="M226.1,77.6c0.4-0.3,0.9-0.5,1.3-0.8c-0.1,0.1-0.2,0.2-0.3,0.4c-0.1,0.4-0.1,0.7-0.2,1.1
			C226.7,78.1,226.4,77.9,226.1,77.6z"/>
		<path class="st1" d="M232.3,70.2c0.2-0.2,0.4-0.5,0.6-0.7c0.3,0.2,0.6,0.5,0.8,0.7c-0.2,0.2-0.4,0.5-0.6,0.7
			C232.8,70.6,232.5,70.4,232.3,70.2z"/>
		<path class="st1" d="M238.7,62.3c0.4,0.1,0.8,0.2,1.1,0.3c-0.1,0.1-0.2,0.2-0.3,0.4C239.3,62.8,239,62.5,238.7,62.3z"/>
		<path class="st1" d="M244.5,55.2c0.4-0.3,0.9-0.5,1.3-0.8c-0.1,0.1-0.2,0.2-0.3,0.4c-0.1,0.4-0.1,0.7-0.2,1.1
			C245.1,55.7,244.8,55.4,244.5,55.2z"/>
		<path class="st1" d="M172.3,151.7c0.4,0.1,0.8,0.2,1.1,0.3c-0.1,0.1-0.2,0.2-0.3,0.4C172.8,152.1,172.6,151.9,172.3,151.7z"/>
		<path class="st1" d="M178.1,144.6c0.4-0.3,0.9-0.5,1.3-0.8c-0.1,0.1-0.2,0.2-0.3,0.4c-0.1,0.4-0.1,0.7-0.2,1.1
			C178.7,145,178.4,144.8,178.1,144.6z"/>
		<path class="st1" d="M184.6,136.7c0.4,0.1,0.8,0.2,1.1,0.3c-0.1,0.1-0.2,0.2-0.3,0.4C185.1,137.2,184.8,136.9,184.6,136.7z"/>
		<path class="st1" d="M190.4,129.6c0.4-0.3,0.9-0.5,1.3-0.8c-0.1,0.1-0.2,0.2-0.3,0.4c-0.1,0.4-0.1,0.7-0.2,1.1
			C190.9,130.1,190.7,129.8,190.4,129.6z"/>
		<path class="st1" d="M196.5,122.1c0.2-0.2,0.4-0.5,0.6-0.7c0.3,0.2,0.6,0.5,0.8,0.7c-0.2,0.2-0.4,0.5-0.6,0.7
			C197.1,122.6,196.8,122.4,196.5,122.1z"/>
		<path class="st1" d="M202.7,114.7c0.2-0.2,0.4-0.5,0.6-0.7c0.3,0.2,0.6,0.5,0.8,0.7c-0.2,0.2-0.4,0.5-0.6,0.7
			C203.2,115.1,202.9,114.9,202.7,114.7z"/>
		<path class="st1" d="M208.8,107.2c1.4-0.8,0.3-0.6,1.7-0.4c-0.3,0.4-0.6,0.7-0.9,1.1C209.3,107.6,209.1,107.4,208.8,107.2z"/>
		<path class="st1" d="M215.2,99.3c0.4,0.1,0.8,0.2,1.1,0.3c-0.1,0.1-0.2,0.2-0.3,0.4C215.8,99.8,215.5,99.6,215.2,99.3z"/>
		<path class="st1" d="M221.1,92.2c0.2-0.2,0.4-0.5,0.6-0.7C221.8,92.5,222,91.9,221.1,92.2z"/>
		<path class="st1" d="M227.2,84.8c0.4-0.3,0.9-0.5,1.3-0.8C228.5,84.6,228.1,85.6,227.2,84.8z"/>
		<path class="st1" d="M233.3,77.3c0.4-0.3,0.9-0.5,1.3-0.8c-0.1,0.1-0.2,0.2-0.3,0.4c-0.1,0.4-0.1,0.7-0.2,1.1
			C233.9,77.7,233.6,77.5,233.3,77.3z"/>
		<path class="st1" d="M239.5,69.8c0.4-0.3,0.9-0.5,1.3-0.8c-0.1,0.1-0.2,0.2-0.3,0.4c-0.1,0.4-0.1,0.7-0.2,1.1
			C240,70.3,239.7,70,239.5,69.8z"/>
		<path class="st1" d="M245.6,62.3c1.4-0.8,0.3-0.6,1.7-0.4c-0.3,0.4-0.6,0.7-0.9,1.1C246.2,62.8,245.9,62.6,245.6,62.3z"/>
		<path class="st1" d="M179.5,151.3c0.4,0.1,0.8,0.2,1.1,0.3c-0.1,0.1-0.2,0.2-0.3,0.4C180,151.8,179.8,151.5,179.5,151.3z"/>
		<path class="st1" d="M185.3,144.2c0.2-0.2,0.4-0.5,0.6-0.7C186,144.5,186.2,143.9,185.3,144.2z"/>
		<path class="st1" d="M191.4,136.7c0.2-0.2,0.4-0.5,0.6-0.7c0.3,0.2,0.6,0.5,0.8,0.7c-0.2,0.2-0.4,0.5-0.6,0.7
			C192,137.2,191.7,137,191.4,136.7z"/>
		<path class="st1" d="M197.6,129.3c0.2-0.2,0.4-0.5,0.6-0.7C198.3,129.5,198.5,128.9,197.6,129.3z"/>
		<path class="st1" d="M204,121.4c0.4,0.1,0.8,0.2,1.1,0.3c-0.1,0.1-0.2,0.2-0.3,0.4C204.6,121.9,204.3,121.6,204,121.4z"/>
		<path class="st1" d="M209.8,114.3c0.4-0.3,0.9-0.5,1.3-0.8c-0.1,0.1-0.2,0.2-0.3,0.4c-0.1,0.4-0.1,0.7-0.2,1.1
			C210.4,114.8,210.1,114.5,209.8,114.3z"/>
		<path class="st1" d="M216.3,106.5c0.4,0.1,0.8,0.2,1.1,0.3c-0.1,0.1-0.2,0.2-0.3,0.4C216.8,106.9,216.6,106.7,216.3,106.5z"/>
		<path class="st1" d="M222.1,99.4c0.2-0.2,0.4-0.5,0.6-0.7C222.8,99.6,223,99,222.1,99.4z"/>
		<path class="st1" d="M228.3,91.9c0.2-0.2,0.4-0.5,0.6-0.7C229,92.1,229.2,91.5,228.3,91.9z"/>
		<path class="st1" d="M234.4,84.4c0.4-0.3,0.9-0.5,1.3-0.8C235.7,84.3,235.3,85.3,234.4,84.4z"/>
		<path class="st1" d="M240.8,76.6c0.4,0.1,0.8,0.2,1.1,0.3c-0.1,0.1-0.2,0.2-0.3,0.4C241.4,77,241.1,76.8,240.8,76.6z"/>
		<path class="st1" d="M246.7,69.5c0.4-0.3,0.9-0.5,1.3-0.8c-0.1,0.1-0.2,0.2-0.3,0.4c-0.1,0.4-0.1,0.7-0.2,1.1
			C247.2,69.9,246.9,69.7,246.7,69.5z"/>
		<path class="st1" d="M186.4,151.3c0.2-0.2,0.4-0.5,0.6-0.7C187.1,151.6,187.3,151,186.4,151.3z"/>
		<path class="st1" d="M192.8,143.5c0.4,0.1,0.8,0.2,1.1,0.3c-0.1,0.1-0.2,0.2-0.3,0.4C193.4,143.9,193.1,143.7,192.8,143.5z"/>
		<path class="st1" d="M198.6,136.4c0.2-0.2,0.4-0.5,0.6-0.7C199.3,136.6,199.6,136,198.6,136.4z"/>
		<path class="st1" d="M205.1,128.5c0.4,0.1,0.8,0.2,1.1,0.3c-0.1,0.1-0.2,0.2-0.3,0.4C205.6,129,205.4,128.8,205.1,128.5z"/>
		<path class="st1" d="M210.9,121.4c0.4-0.3,0.9-0.5,1.3-0.8c-0.1,0.1-0.2,0.2-0.3,0.4c-0.1,0.4-0.1,0.7-0.2,1.1
			C211.5,121.9,211.2,121.7,210.9,121.4z"/>
		<path class="st1" d="M217,114c0.4-0.3,0.9-0.5,1.3-0.8c-0.1,0.1-0.2,0.2-0.3,0.4c-0.1,0.4-0.1,0.7-0.2,1.1
			C217.6,114.4,217.3,114.2,217,114z"/>
		<path class="st1" d="M229.3,99c0.4-0.3,0.9-0.5,1.3-0.8c-0.1,0.1-0.2,0.2-0.3,0.4c-0.1,0.4-0.1,0.7-0.2,1.1
			C229.9,99.5,229.6,99.2,229.3,99z"/>
		<path class="st1" d="M235.4,91.5c1.4-0.8,0.3-0.6,1.7-0.4c-0.3,0.4-0.6,0.7-0.9,1.1C236,92,235.7,91.8,235.4,91.5z"/>
		<path class="st1" d="M241.6,84.1c0.4-0.3,0.9-0.5,1.3-0.8C242.9,83.9,242.5,84.9,241.6,84.1z"/>
		<path class="st1" d="M247.7,76.6c1.4-0.8,0.3-0.6,1.7-0.4c-0.3,0.4-0.6,0.7-0.9,1.1C248.3,77,248,76.8,247.7,76.6z"/>
		<path class="st1" d="M218,120.4c1-0.1,0.6-0.1,1.9,0.3C218.1,121.2,219.4,121.2,218,120.4z"/>
		<path class="st1" d="M199.7,143.5c0.2-0.2,0.4-0.5,0.6-0.7C200.4,143.8,200.6,143.2,199.7,143.5z"/>
		<path class="st1" d="M205.8,136c0.4-0.3,0.9-0.5,1.3-0.8c-0.1,0.1-0.2,0.2-0.3,0.4c-0.1,0.4-0.1,0.7-0.2,1.1
			C206.4,136.5,206.1,136.3,205.8,136z"/>
		<path class="st1" d="M212.3,128.2c0.4,0.1,0.8,0.2,1.1,0.3c-0.1,0.1-0.2,0.2-0.3,0.4C212.8,128.6,212.5,128.4,212.3,128.2z"/>
		<path class="st1" d="M224.5,113.2c0.4,0.1,0.8,0.2,1.1,0.3c-0.1,0.1-0.2,0.2-0.3,0.4C225.1,113.7,224.8,113.5,224.5,113.2z"/>
		<path class="st1" d="M230.4,106.1c0.2-0.2,0.4-0.5,0.6-0.7C231.1,106.4,231.3,105.8,230.4,106.1z"/>
		<path class="st1" d="M236.8,98.3c0.2-0.2,0.4-0.5,0.6-0.7c0,0.2,0.1,0.5,0.1,0.7c0.1,0.1,0.3,0.2,0.4,0.3
			C237.6,98.5,237.2,98.4,236.8,98.3z"/>
		<path class="st1" d="M242.6,91.2c0.2-0.2,0.4-0.5,0.6-0.7c0.3,0.2,0.6,0.5,0.8,0.7c-0.2,0.2-0.4,0.5-0.6,0.7
			C243.2,91.6,242.9,91.4,242.6,91.2z"/>
		<path class="st1" d="M248.8,83.7c0.4-0.3,0.9-0.5,1.3-0.8c-0.1,0.1-0.2,0.2-0.3,0.4c-0.1,0.4-0.1,0.7-0.2,1.1
			C249.3,84.2,249.1,83.9,248.8,83.7z"/>
		<path class="st1" d="M201.1,150.3c0.4,0.1,0.8,0.2,1.1,0.3c-0.1,0.1-0.2,0.2-0.3,0.4C201.6,150.7,201.3,150.5,201.1,150.3z"/>
		<path class="st1" d="M213.3,135.3c0.2-0.2,0.4-0.5,0.6-0.7c0,0.2,0.1,0.5,0.1,0.7c0.1,0.1,0.3,0.2,0.4,0.3
			C214.1,135.5,213.7,135.4,213.3,135.3z"/>
		<path class="st1" d="M219.2,128.2c0.2-0.2,0.4-0.5,0.6-0.7c0.3,0.2,0.6,0.5,0.8,0.7c-0.2,0.2-0.4,0.5-0.6,0.7
			C219.7,128.7,219.4,128.4,219.2,128.2z"/>
		<path class="st1" d="M225.3,120.7c0.4-0.3,0.9-0.5,1.3-0.8C226.6,120.6,226.2,121.6,225.3,120.7z"/>
		<path class="st1" d="M231.7,112.9c0.4,0.1,0.8,0.2,1.1,0.3c-0.1,0.1-0.2,0.2-0.3,0.4C232.3,113.3,232,113.1,231.7,112.9z"/>
		<path class="st1" d="M237.9,105.4c0.2-0.2,0.4-0.5,0.6-0.7c0,0.2,0.1,0.5,0.1,0.7c0.1,0.1,0.3,0.2,0.4,0.3
			C238.6,105.6,238.2,105.5,237.9,105.4z"/>
		<path class="st1" d="M243.7,98.3c0.4-0.3,0.9-0.5,1.3-0.8C245,98.2,244.6,99.2,243.7,98.3z"/>
		<path class="st1" d="M249.8,90.8c0.2-0.2,0.4-0.5,0.6-0.7C250.6,91.1,250.8,90.5,249.8,90.8z"/>
		<path class="st1" d="M232.4,119.7c0.5,0.2,1,0.4,1.5,0.6c-0.2,0.2-0.4,0.5-0.6,0.7C233,120.6,232.7,120.1,232.4,119.7z"/>
		<path class="st1" d="M207.9,150.3c0.2-0.2,0.4-0.5,0.6-0.7C208.7,150.5,208.9,149.9,207.9,150.3z"/>
		<path class="st1" d="M220.2,135.3c0.2-0.2,0.4-0.5,0.6-0.7C220.9,135.6,221.1,135,220.2,135.3z"/>
		<path class="st1" d="M226.4,127.9c0.4-0.3,0.9-0.5,1.3-0.8c-0.1,0.1-0.2,0.2-0.3,0.4c-0.1,0.4-0.1,0.7-0.2,1.1
			C226.9,128.3,226.6,128.1,226.4,127.9z"/>
		<path class="st1" d="M238.6,112.9c0.2-0.2,0.4-0.5,0.6-0.7C239.3,113.2,239.5,112.6,238.6,112.9z"/>
		<path class="st1" d="M244.8,105.4c0.2-0.2,0.4-0.5,0.6-0.7C245.5,105.7,245.7,105.1,244.8,105.4z"/>
		<path class="st1" d="M250.9,98c0.2-0.2,0.4-0.5,0.6-0.7c0.3,0.2,0.6,0.5,0.8,0.7c-0.2,0.2-0.4,0.5-0.6,0.7
			C251.4,98.4,251.2,98.2,250.9,98z"/>
		<path class="st1" d="M215.1,149.9c0.2-0.2,0.4-0.5,0.6-0.7C215.9,150.2,216.1,149.6,215.1,149.9z"/>
		<path class="st1" d="M221.3,142.5c0.2-0.2,0.4-0.5,0.6-0.7c0.3,0.2,0.6,0.5,0.8,0.7c-0.2,0.2-0.4,0.5-0.6,0.7
			C221.8,142.9,221.5,142.7,221.3,142.5z"/>
		<path class="st1" d="M227.4,135c0.2-0.2,0.4-0.5,0.6-0.7c0.3,0.2,0.6,0.5,0.8,0.7c-0.2,0.2-0.4,0.5-0.6,0.7
			C228,135.4,227.7,135.2,227.4,135z"/>
		<path class="st1" d="M233.5,127.5c1.4-0.8,0.3-0.6,1.7-0.4c-0.3,0.4-0.6,0.7-0.9,1.1C234.1,128,233.8,127.7,233.5,127.5z"/>
		<path class="st1" d="M239.7,120c0.2-0.2,0.4-0.5,0.6-0.7C240.4,120.3,240.6,119.7,239.7,120z"/>
		<path class="st1" d="M253.3,104.3c0,0.6-0.4,1.6-1.3,0.8C252.4,104.8,252.8,104.6,253.3,104.3"/>
		<path class="st1" d="M234.2,134.3c1-0.1,0.6-0.1,1.9,0.3c-0.2,0.2-0.4,0.5-0.6,0.7C235,135,234.6,134.6,234.2,134.3z"/>
		<path class="st1" d="M222.3,149.6c0.2-0.2,0.4-0.5,0.6-0.7C223,149.8,223.3,149.2,222.3,149.6z"/>
		<path class="st1" d="M228.5,142.1c0.2-0.2,0.4-0.5,0.6-0.7c0.3,0.2,0.6,0.5,0.8,0.7c-0.2,0.2-0.4,0.5-0.6,0.7
			C229,142.6,228.7,142.3,228.5,142.1z"/>
		<path class="st1" d="M240.7,127.2c0.4-0.3,0.9-0.5,1.3-0.8c-0.1,0.1-0.2,0.2-0.3,0.4c-0.1,0.4-0.1,0.7-0.2,1.1
			C241.3,127.6,241,127.4,240.7,127.2z"/>
		<path class="st1" d="M246.9,119.7c0.4-0.3,0.9-0.5,1.3-0.8c-0.1,0.1-0.2,0.2-0.3,0.4c-0.1,0.4-0.1,0.7-0.2,1.1
			C247.4,120.1,247.1,119.9,246.9,119.7z"/>
		<path class="st1" d="M253.6,111.5c0.1,1,0.3,0.4-0.6,0.7C253.2,112,253.4,111.7,253.6,111.5"/>
		<path class="st1" d="M241.4,133.9c0.4-0.3,0.9-0.5,1.3-0.8c0.3,0.2,0.6,0.5,0.8,0.7c-0.3,0.4-0.6,0.7-0.9,1.1
			C242.2,134.6,241.8,134.3,241.4,133.9z"/>
		<path class="st1" d="M229.5,149.2c0.2-0.2,0.4-0.5,0.6-0.7c0.1,0.1,0.3,0.2,0.4,0.3C230.2,149,229.9,149.1,229.5,149.2z"/>
		<path class="st1" d="M235.7,141.8c0.2-0.2,0.4-0.5,0.6-0.7c0.3,0.2,0.6,0.5,0.8,0.7c-0.2,0.2-0.4,0.5-0.6,0.7
			C236.2,142.2,235.9,142,235.7,141.8z"/>
		<path class="st1" d="M247.9,126.8c0.4-0.3,0.9-0.5,1.3-0.8c-0.1,0.1-0.2,0.2-0.3,0.4c-0.1,0.4-0.1,0.7-0.2,1.1
			C248.5,127.3,248.2,127,247.9,126.8z"/>
		<path class="st1" d="M236.7,148.9c0.4-0.3,0.9-0.5,1.3-0.8c-0.1,0.1-0.2,0.2-0.3,0.4c-0.1,0.4-0.1,0.7-0.2,1.1
			C237.3,149.3,237,149.1,236.7,148.9z"/>
		<path class="st1" d="M242.9,141.4c0.4-0.3,0.9-0.5,1.3-0.8c-0.1,0.1-0.2,0.2-0.3,0.4c-0.1,0.4-0.1,0.7-0.2,1.1
			C243.4,141.9,243.1,141.6,242.9,141.4z"/>
		<path class="st1" d="M249,133.9c0.4-0.3,0.9-0.5,1.3-0.8c-0.1,0.1-0.2,0.2-0.3,0.4c-0.1,0.4-0.1,0.7-0.2,1.1
			C249.5,134.4,249.3,134.2,249,133.9z"/>
		<path class="st1" d="M249.9,140.3c1-0.1,0.6-0.1,1.9,0.3c-0.3,0.4-0.6,0.7-0.9,1.1C250.6,141.3,250.3,140.8,249.9,140.3z"/>
		<path class="st1" d="M243.9,148.5c0.4-0.3,0.9-0.5,1.3-0.8c-0.1,0.1-0.2,0.2-0.3,0.4c-0.1,0.4-0.1,0.7-0.2,1.1
			C244.5,149,244.2,148.8,243.9,148.5z"/>
		<path class="st1" d="M251.1,148.2c0.4-0.3,0.9-0.5,1.3-0.8c-0.1,0.1-0.2,0.2-0.3,0.4c-0.1,0.4-0.1,0.7-0.2,1.1
			C251.7,148.6,251.4,148.4,251.1,148.2z"/>
	</g>
	<g>
		<path class="st0" d="M47.6,129.6c-0.2-0.3-0.4-0.5-0.6-0.7c0.6,1-0.1,1.3-0.7,1.6c-1.9,0.9-3.4,2.4-5.2,3.5
			c-2.1,1.3-4.2,2.8-6.3,4.2c-0.3,0.2-0.8,0.3-1.2,0.4c-0.2,0.3-0.4,0.6-0.7,0.8c-1.6,1-3.3,1.9-4.9,2.9c-2,1.3-3.9,2.8-5.9,4.2
			c-2.4,1.7-4.9,3.3-7.4,4.9c-0.3,0.2-0.7,0.2-1.2,0.4c0,0.8-0.8,1-1.5,1.3c-0.7,0.3-1.3-0.1-1.7-0.7c-1.8-3.1-3.5-6.1-5.3-9.2
			c-0.2-0.3-0.4-0.6-0.6-0.9c-0.9-1.4-0.6-2.6,1-3.3c1.2-0.6,2.5-0.9,3.6-1.5c2-1,4-2.3,6.1-3.3c1.3-0.7,2.7-1.1,4-1.7
			c1.1-0.5,2-1.3,3.1-1.8c1.2-0.7,2.5-1.3,3.8-1.9c2.1-1,4.2-2,6.2-3.1c4-2,8-4.1,12.1-6.2c0.7-0.4,1-0.8,0.6-1.6
			c-0.3-0.8-0.5-1.6-0.7-2.4c0-0.2,0.1-0.4,0.1-0.4c-0.2-0.4-0.5-0.8-0.6-1.2c-1.1-3.5-1.6-7.2-1.5-10.9c0-0.3,0.3-0.6,0.4-0.9
			c0.1-0.2,0.2-0.4,0.2-0.6c-0.2-0.1-0.4-0.1-0.7-0.2c0.2-8.9,3.7-16.6,9.2-23.5c0.2-0.2,0.5-0.3,0.7-0.4c0.1-0.3,0.2-0.8,0.4-1
			c3.2-3.5,6.8-6.4,11-8.6c1.5-0.8,3-1.5,4.6-2c4.2-1.3,8.6-2.3,13-2.1c0.4,0,0.9,0.2,1.3,0.4c0.1,0,0.2,0.1,0.3,0.1
			c1.6-1.1,3.3-0.2,4.9-0.1c1.6,0.1,3.2,0.7,4.8,1.1c0.5,0.1,0.9,0.5,1.3,0.7c0.3,0,0.8-0.1,0.9,0c0.2,0.5,0.2,1,0.3,1.5
			c1-1.5,2.4-0.7,3.7,0c1.5,0.8,2.8,1.9,4.3,2.6c3.1,1.5,5.4,3.9,7.7,6.3c0.7,0.7,1.1,1.6,1.7,2.3c0.5,0.6,1.1,1.1,1.6,1.6
			c0,0,0.1,0.1,0.1,0.2c-0.5,0.2-1,0.4-1.5,0.6c0,0.2,0.1,0.3,0.1,0.5c0.6-0.2,1.2-0.3,1.7-0.5c1.2,1.6,1.3,2.2,0.4,2.4
			c0.4,0.6,0.7,0.8,1.2-0.2c0.8,1.9,1.8,3.5,2.4,5.3c1,3,2,6,2.4,9.1c0.4,2.9,0.1,5.9,0.1,8.9c0,1-0.1,1.9-0.2,2.9
			c-0.1,0.6-0.4,1.2-0.6,1.7c0,0.3,0.2,0.7,0.1,1.1c-0.8,3.7-2.2,7.3-4.1,10.6c-0.3,0.6-0.5,1.8-1.8,1.4c-0.1,0-0.4,0.3-0.4,0.4
			c0.1,0.2,0.3,0.4,0.7,0.8c-0.7,0.7-1.5,1.4-2.2,2.1c0,0,0.2,0,0.4-0.1c0,0.1,0,0.2,0,0.2c-1.6,1.7-3.2,3.6-5,5.2
			c-3.3,2.9-6.9,5.5-11.1,6.9c-2.4,0.8-4.8,1.6-7.2,2.2c-1.5,0.4-3,0.4-4.5,0.6c-1,0.1-1.9,0.3-2.9,0.2c-2.2-0.1-4.5-0.1-6.7-0.5
			c-2.2-0.4-4.5-0.9-6.6-1.6c-2.2-0.8-4.2-1.9-6.2-2.9c-1.1-0.6-2.4-1.1-3.3-1.9c-1.2-1.1-2.7-1.7-3.8-2.9c-1.1-1.3-2.4-2.4-3.5-3.6
			c-1.3-1.4-1.7-1.5-3.3-0.4C48.5,129,48,129.3,47.6,129.6z M88.3,74.3c-0.3,0.3-0.6,0.6-0.8,0.6c-1.3-0.1-2.7-0.4-4-0.4
			c-2.3,0-4.7,0-7,0.4c-3,0.4-5.8,1.5-8.5,3c-0.3,0.1-0.7,0-0.9,0.1c-0.4,0.3-0.6,0.8-1,1.1c-2.6,1.7-4.9,3.8-6.8,6.2
			C57.9,87,56.6,89,55.2,91c0,0.1,0.3,0.4,0.2,0.7c-0.2,0.7-0.5,1.4-0.7,2.1c-0.7,2.6-1.5,5.1-1.5,7.8c0,4.2,0.4,8.2,2.1,12.1
			c0.7,1.7,1.4,3.4,2.4,4.8c2.6,3.5,5.4,6.8,9.3,9c0.5,0.3,0.9,0.7,1.4,1.1c0,0.1,0.1-0.1,0.2-0.4c3.8,2.1,7.9,3.2,12.1,3.4
			c2.6,0.1,5.2-0.5,7.8-0.7c0.3,0,0.8-0.1,0.9,0.1c0.4,0.9,1.1,0.3,1.7,0.3c-0.3-0.2-0.7-0.3-1.2-0.6c0.9-0.5,1.9-0.5,2.6-1
			c2.2-1.4,4.5-2.7,6.8-4c0.3-0.1,0.7,0,1,0c0.2,0,0.5,0,0.7,0c-0.1-0.2-0.1-0.4-0.2-0.5c-0.1-0.1-0.2-0.2-0.5-0.4
			c0.9-0.6,1.7-1.2,2.7-1.8c-0.2-0.7,1-2.1,2-2.3c0.2-0.5,0.2-0.9,0.4-1.2c2-3,3.7-6.1,4.4-9.6c0.1-0.7,0.6-0.9,1-1.2
			c0.2-0.1,0.3-0.3,0.5-0.5c-0.1-0.1-0.1-0.1-0.2-0.2c-0.3,0.1-0.6,0.2-0.9,0.2c0.3-1.2,0.5-2.4,0.8-3.7c-0.1-0.6-0.3-1.4-0.3-2.2
			c-0.1-1.5,0-3-0.4-4.4c-0.9-2.8-1.7-5.6-2.6-8.5c0,0,0.1-0.1,0.2-0.1c-0.4-0.3-0.9-0.5-1.2-0.9c-0.9-1.3-1.5-2.7-2.6-3.7
			c-0.7-0.7-1.3-1.6-2-2.2c-1.6-1.4-3.3-2.7-5-3.9c-2.6-1.7-5.6-2.8-8.6-3.7C88.3,74.8,88.3,74.5,88.3,74.3z M114.9,123.3
			c0.5-0.7,0.8-1.3,1.1-1.8c-0.1-0.1-0.1-0.1-0.2-0.2c-0.3,0.3-0.7,0.6-1,0.8c-0.3-0.1-0.5-0.2-0.7-0.3c-0.1,0.1-0.1,0.2-0.2,0.2
			C114.2,122.5,114.6,122.9,114.9,123.3z M87,138.7c0.2-1.8,0.1-2-1.1-1.8c0.3,0.2,0.5,0.4,0.7,0.6c-0.3,0.1-0.5,0.3-0.8,0.4
			C86.2,138.2,86.6,138.5,87,138.7z M116,96.3c-1,0.7-0.6,1.4-0.2,2c0.1,0.1,0.5,0.1,0.7,0.1C116.4,97.6,116.2,97,116,96.3z
			 M75.6,139.4c0-0.8,0-1.4,0-1.9c-0.5,0.3-0.9,0.5-1.5,0.9C74.5,138.7,74.9,139,75.6,139.4z M96.8,129.6c-0.5-0.4-0.9-0.6-1.3-0.9
			c-0.1,0.2-0.3,0.4-0.3,0.5c0.3,0.3,0.6,0.7,0.9,0.9C96.1,130.2,96.4,129.9,96.8,129.6z M53.4,127c-0.6,0.2-1.8,0.2-1,1.3
			c0.6-0.2,1.1-0.3,1.5-0.5C53.7,127.5,53.6,127.2,53.4,127z M25.4,140.9c0.6,0,1,0.1,1.5,0.1c0.2,0,0.3,0,0.5-0.1
			c-0.1-0.2-0.1-0.5-0.2-0.5c-0.4-0.2-0.9-0.3-1.3-0.4C25.7,140.3,25.6,140.6,25.4,140.9z M63.9,71.4C63.1,71,62.8,71.2,63,72
			c0.4,0,0.8-0.1,1.3-0.1c0.1-0.4,0.3-0.8,0.4-1.3c-0.1,0-0.2-0.1-0.4-0.1C64.2,70.7,64,71,63.9,71.4z M35.1,127
			c0-0.1,0-0.3,0.1-0.4c-0.7-0.1-1.5-0.3-2.2-0.4c0,0.1,0,0.2-0.1,0.3C33.6,126.8,34.2,127.3,35.1,127z"/>
	</g>
	<g>
		<path class="st2" d="M132.4,139.3c-0.4,0.9-0.9,0-1.3-0.1c-2.3-1-3.9-2.7-4.5-5.2c-0.2-0.7-0.4-1.5-0.4-2.3c-0.1-2.4,0-4.9,0-7.3
			c0-0.7-0.1-1.4,1.2-1.6c-0.6-0.4-0.9-0.6-1.1-0.8c0-2.9,0-5.8,0-8.6c0-0.4-0.1-0.9-0.1-1.3c0-2.2,0-4.4,0-6.6
			c0-0.4,0.2-0.8,0.4-1.3c-0.1-0.2-0.4-0.5-0.4-0.8c0-5,0-10,0-15c0-0.4,0.2-0.7,0.4-1.2c-0.1-0.4-0.4-0.9-0.4-1.5
			c0-2.1,0.1-4.2,0.2-6.4c0-1.2-0.2-2.4-0.2-3.5c0.2-3.6,2.5-6.7,6.1-7.7c0.3-0.1,0.8-0.3,1.1,0.3c0.1,0.2,0.5,0.3,0.8,0.2
			c-0.1-0.1-0.2-0.3-0.4-0.5c0.2-0.1,0.5-0.2,0.7-0.2c1.9,0,3.8,0.1,5.7,0.2c1.8,0,3.6-0.1,5.5-0.1c0.3,0,0.7,0.3,1,0.4
			c0.3,0.1,0.7,0.2,0.9,0c1.2-0.8,2.4-0.2,3.6-0.4c0.1,0.3,0.2,0.5,0.1,0.5c0.6-0.2,1-0.5,1.5-0.5c4.3,0,8.6,0,12.9,0
			c3,0,5.9,0,8.9,0c0.6,0,1.3-0.4,1.7,0.3c0,0,0.2,0,0.3,0c1.1-0.5,2.3-0.5,3.4-0.1c0.1,0,0.3-0.1,0.4-0.1c0.9-0.2,1.8-0.4,2.3,0.3
			c0.8-0.2,1.5-0.4,2.2-0.5c2.7-0.1,5.4,0,8.1,0c1.7,0,3.3,0,5,0c3.2,0,5.7,1.1,7.5,3.8c0.2,0.3,0.8,0.7,0.2,1
			c0.3,0.6,0.8,1.1,0.8,1.7c0.2,1.3,0,2.7,0.2,4c0.1,0.9-0.2,1.1-0.9,1.1c-0.1,0-0.2,0.1-0.5,0.2c0.6,0.2,1,0.4,1.5,0.5
			c0,0.4,0,0.8,0,1.2c-0.3-0.1-0.6-0.1-1-0.3c1.3,1.4,1.1,2.8,0.9,4.3c0,0.2,0,0.4-0.1,0.7c0,0.3,0,0.5,0,0.8c0,6.1,0,12.2,0,18.4
			c0,3,0,6.1,0,9.1c-0.4,0.2-0.8,0.4-1.4,0.6c0.5,0.7,1.8,0.8,1.4,2.1c-0.2,0.9,0.3,1.9-1,2.6c0.4,0,0.6,0.1,0.9,0.1
			c0.1,1.7,0.2,3.4,0.3,5.1c0.1,1.3,0.3,2.6,0.2,3.8c-0.2,2.8,0.1,5.7-1.8,8c-0.5,0.6-1.2,1.2-1.8,1.7c-0.7,0.5-1.5,0.9-2.2,1.4
			c-1.2-0.8,0.2-0.9,0.2-1.5c-0.5-0.2-1-0.2-0.9,0.5c0.1,0.5-0.2,0.4-0.4,0.5c-0.8,0.6-1.6,1-2.7,0.9c-2.9-0.1-5.8,0-8.7-0.1
			c-0.8,0-1.6-0.2-2.5-0.2c-0.7,0-1.3,0.3-2.2,0.4c0.2-0.9,0.4-1.6,0.6-2.2c-0.1,0-0.2-0.1-0.2-0.1c-0.5,0.7-1,1.4-1.6,2.2
			c-1.8,0-3.8,0-5.8,0c-4.1,0-8.2,0-12.4,0c-0.4,0-0.7-0.3-1.1-0.3c-0.3,0-0.5,0.3-0.8,0.3c-0.9,0-1.7,0-2.6,0
			c-0.2-0.3-0.3-0.5-0.4-0.8c-0.2,0.2-0.4,0.4-0.6,0.6c0,0.1,0,0.2,0.1,0.3c-1.2-0.1-2.5-0.3-3.7-0.4c-0.1,0-0.3,0-0.4,0.1
			c-0.2,0.1-0.3,0.2-0.5,0.2c-1.6-0.3-3.2,0.1-4.8,0c-1.7-0.1-3.4,0-5.2,0c-1.7,0-3.4,0-5.1,0c-0.4,0-0.9-0.3-1.3-0.4
			c-0.4,0-0.8,0.4-1.2,0.3c-1.4,0-2.7-0.1-4.1-0.2C132.9,139.8,132.7,139.5,132.4,139.3z M135.7,121.9c0.6,0.2,1.1,0.6,1.7,0.6
			c1.5,0.1,3.1-0.1,4.6-0.1c0.3,0,0.7,0.3,0.9,0.4c0.5-0.1,1.1-0.4,1.6-0.4c1.1,0,2.2,0.2,3.4,0.2c3-0.1,5.9-0.2,8.9-0.3
			c0,0.5,0,0.8,0,1.1c0.4-0.3,0.7-0.6,1.2-0.9c0.4,0,1-0.1,1.7-0.1c1.8,0,3.6,0,5.3,0c2.1,0,4.1,0.2,6.2,0.2c1.6,0,3.2-0.2,4.8-0.2
			c0.3,0,0.6,0.2,0.7,0.3c0.4-0.1,0.8-0.3,1.1-0.3c2,0,4-0.1,6,0c1.7,0.1,3.4-0.4,5,0.5c0.1,0.1,0.3,0,0.5,0
			c-0.2-0.2-0.2-0.3-0.4-0.4c1.6,0,3,0,4.5,0c-0.1,0.3-0.1,0.5-0.2,0.8c0.1,0,0.1,0.1,0.2,0.1c0.4-0.8,1.1-0.9,1.9-1
			c1.9-0.1,2.4-0.6,2.7-2.2c0.1-0.7,0.4-1.4,0.3-2c-0.3-1.3-0.4-2.7-0.4-4c0-1.4,0.1-2.9,0.2-4.3c0-1.1,0-2.1,0-3.2
			c0-0.2,0.2-0.3,0.3-0.5c0.1-0.2,0.2-0.5,0.4-0.9c-0.4,0.2-0.5,0.3-0.8,0.4c0.2-1.9-0.3-3.8,0.4-5.6c-0.1-0.1-0.1-0.1-0.2-0.2
			c-0.1,0.2-0.2,0.4-0.3,0.7c-0.1,0-0.1-0.1-0.2-0.1c0.3-1.6,0.3-3.1,0-4.7c-0.1-1,0.1-2.1,0.1-3.1c0-0.9,0.1-1.8,0-2.7
			c0-0.5-0.1-0.9,0-1.4c0.2-1.6-0.2-3.2-2.1-3.2c-0.7,0-1.3-0.2-2-0.2c-1.2,0-2.4-0.4-3.7-0.1c-1.2,0.3-2.6,0.1-3.9,0
			c-0.4,0-0.8-0.3-1.2-0.3c-1.1,0.1-2.2,0.3-3.3,0.5c0-0.6,0-1,0-1.4c-0.4,1.3-1.5,1.3-2.6,1.3c-3.1-0.1-6.2-0.1-9.3-0.1
			c-2.9,0-5.9,0.1-8.8,0.1c-0.3,0-0.6,0-0.8-0.1c0-0.2,0.1-0.4,0.1-0.5c-0.4,0-1.2-0.1-1.2,0c-0.2,0.9-0.8,0.5-1.2,0.5
			c-1.1,0-2.2,0-3.3,0c-0.7,0-1.2-0.2-1.5-0.9c-1.2,0.8-2.4,1.6-3.8,0.1c0.1,0.2,0.1,0.4,0.2,0.7c-2,0-4,0-6,0
			c-0.1-0.2-0.2-0.5-0.3-0.7c0,0-0.1,0-0.1,0c0,0.2,0,0.4,0,0.6c-1.6,0-3.1,0-4.9,0c1-0.8,0.2-1-0.4-1.2c0.1,0.4,0.2,0.8,0.4,1.3
			c-0.6,0-1.2,0.1-2.1,0.1c-0.1,0.5-0.3,1.1-0.3,1.7c-0.1,0.9,0,1.7,0,2.6c0,0.3-0.3,0.6-0.4,0.8c0.1,0.5,0.4,0.9,0.4,1.4
			c0,2.2,0,4.4,0,6.6c0,0.5,0.1,1.2-0.8,1.2c1,0.5,1.1,1.1,0.2,1.8c1-0.2,0.7,0.4,0.7,0.7c0,3.1,0,6.3,0,9.4c0,2.5,0,5.1,0,7.6
			c0,0.2-0.3,0.5-0.5,0.7C136,120.4,135.4,121.3,135.7,121.9z M140.4,128.6c-1.1,0-2,0-3.2,0c0.6-0.6,1.3-0.9,0.7-1.7
			c-0.5,0.6-1,1.1-1.6,1.7c0,0-0.1,0-0.3,0c-1,0-1.2,0.2-1.1,1.3c0,0.3,0.1,0.6,0,0.9c-0.1,0.3-0.3,0.7-0.5,1
			c0.2,0.5,0.3,1.1,0.5,1.6c0.1,0.5,0.4,0.6,0.9,0.6c1.5,0,3,0,4.5,0C140.4,132.2,140.4,130.5,140.4,128.6z M183.5,133.8
			c-0.2-0.8,0.2-1.2,0.9-1.3c0.2,0,0.3-0.3,0.5-0.5c-0.1,0-0.1-0.1-0.2-0.1c-0.4,0.1-0.8,0.1-1.4,0.2c0.2-1.3-0.4-2.6,0.6-3.6
			c-1.9,0-3.7,0-5.6,0c-0.2,1.1-0.4,2.2-0.6,3.3c0.5,0.3,0.5,0.3,0.3,0.9c-0.1,0.3,0,0.6,0.1,0.8c0.1,0.2,0.3,0.3,0.6,0.4
			c0.9,0.2,2-0.6,2.6,0.6c0,0,0.4,0,0.4-0.1C182.1,133.7,182.8,134.1,183.5,133.8z M149.6,128.4c-0.1,0.4-0.2,0.8-0.2,1.2
			c0,0.9,0,1.8,0,2.7c0,0.4-0.3,0.8-0.3,1.3c0,0.2,0.3,0.5,0.4,0.5c0.9,0,1.8-0.1,2.8-0.1c1.1,0,2.3,0.2,3-1.1c0-0.1,0-0.1,0.1-0.2
			c-0.7,0.1-0.5-0.4-0.5-0.8c0-1,0-2.1,0-3.2c-1.1,0-2,0-3,0c-0.3-0.4-0.5-0.7-0.8-1.2c-0.1,0.5-0.1,0.8-0.1,1.2
			C150.4,128.6,150.1,128.5,149.6,128.4z M169.2,79c0-1.5,0-2.9,0-4.4c0-0.3-0.4-0.8-0.7-0.8c-1-0.1-2.1,0-3.1,0
			c-1.4,0-1.6,0.2-1.6,1.6c0,0.6,0.2,1.3-0.1,1.8c-0.3,0.7,0.3,1.2,0.1,1.9c0,0.1,0.3,0.3,0.5,0.3C165.8,79.3,167.4,79.6,169.2,79z
			 M149.3,74.7c-0.3-0.1-0.6-0.2-0.8-0.4c0,0.1-0.1,0.2-0.1,0.3c0.3,0.2,0.7,0.4,1.1,0.6c-0.1,0.8-0.1,1.8-0.2,2.8
			c0.8-0.1,0.2,0.6,0.4,1.1c1.7,0,3.4,0,5.1,0c0-0.3,0-0.4,0.1-0.6c0.1-1-0.3-2.1,0.4-3c0.3-0.4-0.6-1.7-1.2-1.7
			c-0.9-0.1-1.8,0.1-2.7,0C150.3,73.6,149.6,73.7,149.3,74.7z M169.2,128.6c-1.6,0-3.1,0-4.6,0c-0.3,0-0.8,0.3-0.8,0.5
			c-0.1,1.6-0.3,3.2,0.2,4.8c1.7,0.3,3.3-0.3,4.9,0.3c0.2,0.1,0.5-0.3,1-0.7c-0.4,0-0.6,0.1-0.7,0.1
			C169.2,132,169.2,130.4,169.2,128.6z M197.9,128.7c-1.9,0-3.6,0-5.4,0c0,1.5,0.1,3,0,4.4c0,0.7,0.2,0.9,0.8,0.9
			c0.4,0,0.8-0.1,1.1,0c0.3,0.1,0.5,0.3,0.5,0.3c0.6-0.1,1.1-0.3,1.6-0.3c1.2-0.1,1.4-0.2,1.3-1.4c0-0.9,0-1.7,0-2.6
			C197.9,129.6,197.9,129.1,197.9,128.7z M178.3,76.4c-0.9-0.2-1,0.2-0.8,0.8c0.3-0.1,0.5-0.1,0.9-0.2c0,0.7,0,1.4,0,2.1
			c0.4,0.1,0.9,0.2,1.3,0.2c1,0,2,0,3,0.1c0.6,0,1.3-0.3,1.2-0.8c-0.1-0.5-0.3-1.1-0.3-1.7c0-1,0-2.1,0-3.1c-1.8,0-3.4,0-5.2,0
			C178.3,74.7,178.3,75.5,178.3,76.4z M140.3,74.1c-0.3-0.1-0.7-0.1-1-0.2c-1.2,0-2.4-0.1-3.6-0.1c-0.4,0-0.8,0.2-0.8,0.8
			c0,1.3-0.1,2.6,0,3.9c0,0.3,0.6,1,0.7,0.9c1-0.3,2.1-0.3,3.1-0.3c0.5,0,0.9,0,1.5,0c-0.5-1.3,0.6-1.5,1.3-2.3
			c-0.6,0.2-0.9,0.3-1.3,0.4C140.3,76.1,140.3,75.1,140.3,74.1z M197.9,79.1c0-1.2,0-2.3,0-3.3c0-0.3,0.3-0.7,0.6-1.2
			c-0.2-0.7-1-0.7-1.8-0.7c-0.8,0-1.5-0.1-2.3-0.2c-0.9-0.2-1.9,0.2-1.9,0.9c0,1.3,0,2.5,0,3.8c0,0.5,0.2,0.7,0.7,0.7
			C194.7,79.1,196.2,79.1,197.9,79.1z"/>
		<path class="st2" d="M181.2,91.8c0.3,0.1,0.7,0,0.9,0.2c0.8,0.4,1.4,1.1,1.5,2.1c0.1,0.7,0.7,1.3,0.8,2c0.2,1.9,0.2,3.9,0.3,5.8
			c0.1,1.2,0.2,2.4,0.3,3.7c-0.3-0.1-0.5-0.2-0.9-0.4c0.1,0.3,0.1,0.5,0.1,0.5c0.9,0.2,0.7,0.9,0.7,1.5c-0.2,1.8-0.4,3.6-0.6,5.5
			c-0.5-0.3-0.7-0.4-1.2-0.7c0.2,0.4,0.2,0.8,0.3,0.8c0.6,0.1,0.5,0.4,0.2,0.7c-0.6,0.7-1.2,1.3-1.8,1.9c-0.9,0.9-2,1-3.2,0.9
			c-1.8,0-3.7,0.1-5.5,0.2c-1.3,0.1-2.6,0.1-3.9,0.2c-0.7,0-1.1-0.2-0.7-1c-0.2,0.1-0.4,0.1-0.4,0.1c0,1.1-0.8,0.8-1.5,0.9
			c0-0.2-0.1-0.5-0.2-0.9c-0.2,0.3-0.4,0.6-0.7,0.9c-1.3-0.3-2.9,0.6-4.3-0.6c-0.6,0.8-1.2,0.5-1.7,0c-0.2,0.1-0.3,0.4-0.5,0.4
			c-2.1-0.1-4.3,0-6.3-0.3c-2-0.4-3-2-3.7-3.8c-0.6-1.7-0.7-3.4-0.7-5.2c0-0.6,0-1.3,0-1.9c0-0.2,0.3-0.4,0.3-0.5
			c-0.2-0.6-0.7-1.4-0.5-1.9c0.3-0.7-0.3-1.3,0-2c0.3-0.6,0.2-1.4,0.2-2.2c0.3-0.1,0.6-0.2,1.1-0.4c-0.4-0.2-0.6-0.4-0.9-0.5
			c-0.1-2.2,0.6-4.1,2.1-5.6c0.3-0.3,0.6-0.9,1.2-0.4c0,0,0.2,0,0.3-0.1c0.8-1.1,2.1-0.7,3.1-0.9c1.8-0.2,3.5-0.2,5.3-0.2
			c2.4,0,4.9,0.2,7.3,0.2c1,0,1.9-0.1,2.9-0.2c1.2,0,2.3,0,3.5,0.1c0.3,0,0.6,0.1,0.9,0.1c1.6,0.1,3.1,0.1,4.7,0.3
			C180.3,91.3,180.7,91.6,181.2,91.8z M171.1,101.3c-0.4,0.3-0.8,0.8-1,0.7c-1.1-0.6-2.5-0.7-3.2-2c0-0.1-0.1-0.1-0.2-0.1
			c-0.3,0.6-0.6,0.1-0.8-0.1c-1.1-0.6-2.3-1.3-3.5-2c0,2.9-0.1,5.6,0,8.4c0,0.6-0.5,1-0.1,1.7c0.3,0.4,0,1.2,0,1.9
			c2.9-1.7,5.7-3.2,8.4-4.8c0.6-0.4,1.2-0.9,1.8-1.2c0.5-0.3,0-0.6,0.1-0.8c0,0-0.1-0.1-0.2-0.1c0,0.2,0,0.4-0.1,0.7
			c-0.7-0.4-1.3-0.8-1.8-1.1C170.6,101.9,171.8,102,171.1,101.3z"/>
	</g>
	<g>
		<path class="st0" d="M300,61.9c-0.1,0.5-0.1,0.8-0.2,1.1c0.5-1.4,1.4-0.9,2.1-0.5c2.4,1.2,5,1.4,7.4,2.2c2.9,1,6,1.8,8.9,2.7
			c0.5,0.2,0.9,0.6,1.3,0.8c0.4,0,0.9-0.1,1.3,0c2.2,0.8,4.4,1.7,6.6,2.3c2.9,0.9,5.8,1.5,8.6,2.3c3.5,1,7,2.1,10.4,3.2
			c0.4,0.1,0.8,0.5,1.3,0.8c0.8-0.6,1.6,0,2.4,0.4c0.8,0.5,1,1.3,0.7,2.2c-1.5,4.1-3.1,8.2-4.6,12.2c-0.2,0.4-0.3,0.9-0.4,1.3
			c-0.7,2-2,2.5-4,1.6c-1.5-0.7-2.8-1.6-4.3-2.3c-2.6-1.1-5.3-2.1-7.9-3.2c-1.6-0.7-3.2-1.8-4.8-2.5c-1.3-0.6-2.8-0.9-4.2-1.5
			c-1.6-0.6-3.2-1.4-4.8-2.1c-2.6-1.2-5.2-2.4-7.8-3.5c-5.1-2.2-10.2-4.4-15.4-6.7c-0.9-0.4-1.5-0.3-2,0.6c-0.5,0.9-1.1,1.7-1.8,2.6
			c-0.1,0.2-0.4,0.2-0.5,0.2c-0.2,0.5-0.3,1-0.6,1.5c-2.5,3.8-5.6,7.2-9.1,10c-0.3,0.2-0.8,0.2-1.1,0.3c-0.2,0.1-0.5,0.2-0.7,0.2
			c0.1,0.3,0.2,0.5,0.3,0.8c-8.7,6.8-18.7,9.5-29.6,9.7c-0.3,0-0.6-0.3-0.9-0.4c-0.4,0.1-0.9,0.4-1.3,0.4
			c-5.8-0.3-11.5-1.4-16.8-3.8c-1.9-0.8-3.7-1.7-5.5-2.8c-4.6-3-8.9-6.4-12.2-10.8c-0.3-0.4-0.5-1-0.7-1.5c-0.1-0.1-0.1-0.3-0.2-0.3
			c-2.3-0.7-2.8-3-4-4.6c-1.2-1.6-1.9-3.6-2.8-5.4c-0.3-0.6-0.3-1.2-0.4-1.8c-0.2-0.3-0.7-0.7-0.7-0.8c0.3-0.6,0.8-1,1.2-1.5
			c-2.3,0.2-2.5-1.8-2.8-3.5c-0.4-2-0.4-4.1-0.9-6.1c-0.9-4.1-0.6-8.2-0.1-12.3c0.1-1.2,0.7-2.3,0.9-3.4c0.2-0.9,0.2-1.9,0.2-2.8
			c0-0.1,0.1-0.1,0.1-0.2c0.6,0.3,1.2,0.7,1.8,1c0.1-0.2,0.2-0.3,0.3-0.5c-0.6-0.4-1.2-0.9-1.8-1.3c0.6-2.3,1.1-2.9,2-2.3
			c0.2-0.8,0.2-1.3-1.1-1.1c1.1-2.3,2-4.5,3.2-6.4c2.1-3.2,4.1-6.6,6.7-9.4c2.5-2.7,5.6-4.8,8.4-7.1c0.9-0.7,1.9-1.4,2.9-2
			c0.7-0.4,1.5-0.5,2.1-0.8c0.3-0.3,0.5-0.7,0.9-1c4.2-2.2,8.6-3.6,13.3-4.4c0.9-0.2,2.1-0.9,2.7,0.6c0,0.1,0.7,0.1,0.7,0.1
			c0.1-0.3,0.1-0.6,0.2-1.3c1.2,0.1,2.5,0.3,3.7,0.4c0,0-0.2-0.2-0.4-0.3c0.1-0.1,0.1-0.1,0.2-0.1c3,0.2,5.9,0.2,8.8,0.7
			c5.4,0.8,10.6,2.3,15.3,5.2c2.7,1.6,5.3,3.3,7.8,5.2c1.5,1.1,2.8,2.5,4.1,3.8c0.9,0.8,1.8,1.6,2.5,2.6c1.7,2.2,3.4,4.4,4.8,6.7
			c1.4,2.4,2.7,4.9,3.6,7.6c1,2.7,1.5,5.5,2.1,8.2c0.4,1.5,0.9,3.1,0.8,4.6c-0.1,2,0.5,3.9,0.1,5.9c-0.3,2.1-0.4,4.2-0.7,6.2
			c-0.3,2.3-0.1,2.8,2.2,3.5C298.7,61.5,299.4,61.7,300,61.9z M215.3,66.6c0.5,0.1,1.1,0.1,1.2,0.3c1,1.3,1.7,2.9,2.8,4.1
			c1.8,2.2,3.7,4.5,5.8,6.4c2.8,2.5,6,4.4,9.5,5.7c0.3,0.1,0.5,0.7,0.8,0.8c0.6,0.2,1.2,0,1.8,0.1c3.7,1.2,7.4,1.7,11.3,1.6
			c2.9-0.1,5.8-0.4,8.8-0.6c0-0.1,0.2-0.6,0.6-0.8c0.8-0.4,1.7-0.6,2.6-1c3-1.3,6-2.6,8.6-4.7c4-3.3,7.5-6.9,9.9-11.4
			c1-2,2.2-4,2.7-6.1c1.4-5.2,2.2-10.5,1.3-16c-0.1-0.7,0-1.4,0-2.2c0.1,0-0.2,0.1-0.5,0.2c-0.9-5.3-3.1-10-6.3-14.2
			c-1.9-2.6-4.5-4.6-6.8-6.9c-0.3-0.3-0.7-0.7-0.7-0.9c0.5-1.1-0.6-1.3-1.1-1.9c0.1,0.4,0.2,0.9,0.4,1.6c-1.2-0.5-1.9-1.4-3-1.7
			c-3.1-1-6.1-2.2-9.2-3.4c-0.3-0.1-0.5-0.6-0.8-1c-0.2-0.2-0.4-0.4-0.5-0.6c-0.1,0.2-0.2,0.4-0.3,0.6c-0.1,0.2,0,0.4,0,0.8
			c-1.3-0.4-2.5-0.7-3.8-1.1c-0.6,0.7-2.8,0.7-3.8,0c-0.6,0.2-1,0.5-1.5,0.5c-4.4,0.4-8.7,1.3-12.6,3.4c-0.7,0.4-1.3,0.2-1.9,0
			c-0.3-0.1-0.6-0.1-0.8-0.1c0,0.1,0,0.2,0,0.3c0.3,0.2,0.6,0.4,1,0.7c-1.4,0.7-2.7,1.4-4.2,2.1c-0.5,0.5-1.1,1.4-1.9,2.1
			c-1.4,1.2-2.8,2.3-3.9,3.9c-2,3.1-4,6.1-6,9.1c0,0-0.2-0.1-0.3-0.1c0,0.7,0.3,1.3,0.1,1.8c-0.5,1.8-1.4,3.5-1.5,5.5
			c-0.1,1.2-0.5,2.4-0.5,3.7c0,2.6,0,5.3,0.2,7.9c0.4,3.9,1.7,7.5,3.3,11.1C215.9,66.2,215.6,66.4,215.3,66.6z M241.2,2.7
			c-1.1,0.1-1.8,0.2-2.6,0.3c0,0.1,0,0.2,0,0.3c0.5,0.1,1,0.2,1.5,0.3c0.1,0.3,0.2,0.7,0.3,1c0.1,0,0.3,0,0.4,0
			C240.9,4,241.1,3.3,241.2,2.7z M277.8,17.2c-1.9,1.2-2,1.4-0.8,2.5c0-0.4,0-0.8,0-1.1c0.4,0.1,0.7,0.3,1,0.4
			C277.9,18.3,277.8,17.8,277.8,17.2z M214.5,22.9c1.5,0.4,1.8-0.6,2.1-1.4c0.1-0.2-0.3-0.5-0.4-0.8
			C215.6,21.5,215.1,22.2,214.5,22.9z M287.4,27.5c-0.8,0.7-1.3,1.1-1.8,1.5c0.7,0.3,1.3,0.5,2.1,0.8
			C287.6,29.1,287.5,28.5,287.4,27.5z M261.4,15c0.1,0.8,0.1,1.4,0.2,1.9c0.2,0,0.7,0,0.7-0.1c0.1-0.5,0.2-1.1,0.2-1.6
			C262.5,15.2,262,15.1,261.4,15z M293,58.4c0.7,0.4,1.6,1.5,2-0.1c-0.6-0.4-1.1-0.8-1.6-1.1C293.2,57.7,293.1,58.1,293,58.4z
			 M328.2,74.1c-0.4-0.6-0.7-1-1.1-1.5c-0.1-0.2-0.3-0.3-0.5-0.4c-0.1,0.2-0.4,0.5-0.3,0.6c0.2,0.5,0.4,1,0.7,1.6
			C327.4,74.3,327.8,74.2,328.2,74.1z M231.8,92.1c0.2,1,0.6,1.2,1.3,0.4c-0.4-0.4-0.7-0.7-1.1-1.1c-0.5,0.2-1,0.4-1.6,0.6
			c0,0.1,0.1,0.3,0.1,0.4C230.9,92.3,231.3,92.2,231.8,92.1z M307.4,75.8c-0.1,0.1-0.3,0.2-0.4,0.3c0.4,0.8,0.9,1.6,1.3,2.4
			c0.1-0.1,0.2-0.1,0.3-0.2C308.3,77.4,308.4,76.4,307.4,75.8z"/>
	</g>
</g>
</svg>
