<?xml version="1.0" encoding="utf-8"?>
<!-- Generator: Adobe Illustrator 19.1.0, SVG Export Plug-In . SVG Version: 6.00 Build 0)  -->
<svg version="1.1" id="Layer_1" xmlns="http://www.w3.org/2000/svg" xmlns:xlink="http://www.w3.org/1999/xlink" x="0px" y="0px"
	 viewBox="0 0 230 390" style="enable-background:new 0 0 230 390;" xml:space="preserve">
<style type="text/css">
	.st0{fill:#616262;}
	.st1{fill-rule:evenodd;clip-rule:evenodd;fill:#333333;}
	.st2{fill-rule:evenodd;clip-rule:evenodd;fill:#757576;}
	.st3{fill:#F37046;}
</style>
<g>
	<path class="st0" d="M185,155.3c-2,2.3-3.9,4.7-5.9,6.9c-0.6,0.6-1.6,0.8-2.4,1.2c-0.2,0.1-0.4,0.5-0.4,0.5
		c1.4,1.5-0.6,1.7-1.1,2.2c-1.2,1.3-2.6,2.5-4.1,3.5c-2.5,1.8-5,3.5-7.6,5.1c-2.8,1.8-5.6,3.7-8.6,5.3c-3,1.6-6.3,2.8-9.4,4.2
		c-0.3,0.1-0.7-0.1-1.1-0.2c-0.1,0-0.3-0.1-0.3-0.1c-1.4,2-3.7,1.8-5.7,2.4c-3.2,0.8-6.3,2-9.5,2.4c-4.6,0.7-9.3,0.8-14,1.2
		c-0.8,0.1-1.6,0.1-2.5,0.1c-0.3,0-0.5-0.3-0.8-0.5c-0.3-0.2-0.6-0.4-0.8-0.6c0,0.2,0.1,0.5,0,0.7c-0.1,0.2-0.4,0.4-0.5,0.4
		c-2.6-0.1-5.2-0.3-7.8-0.5c-0.2,0-0.4-0.4-0.6-0.6c-0.2-0.2-0.5-0.4-0.6-0.4c-2.7,1.5-5.2-0.1-7.8-0.4c-1.9-0.2-3.7-0.7-5.5-1.3
		c-3.5-1.1-7.1-1.9-10.4-3.4c-5.2-2.3-10.2-5.1-15.3-7.8c-1.1-0.6-2.2-1.4-3.2-2.2c-2.7-2.1-5.5-4.1-8.1-6.3c-1.2-1-2.1-2.4-3.2-3.6
		c-0.4-0.4-1.1-0.4-1.5-0.8c-2.4-2.6-4.8-5.2-7.2-7.8c-0.1-0.1,0.1-0.5,0-0.7c0-0.3-0.1-0.6-0.2-1c-1.9,0.4-2.1-1.4-2.8-2.3
		c-1.1-1.3-2-2.9-2.8-4.4c-1.5-2.6-3-5.2-4.2-7.9c-2-4.2-3.7-8.5-5.6-12.8c-0.1-0.2-0.1-0.6,0-0.9c0.1-0.5,1.2-1.3-0.5-1.1
		c-0.1,0-0.3-0.4-0.3-0.6c-1.2-6.7-2.8-13.3-3.5-20c-0.5-5.7-0.2-11.5,0.2-17.2c0.3-4.3,1.3-8.5,2.1-12.7c0.2-1,1-1.9,1.4-2.9
		c0.1-0.3-0.4-0.8-0.3-1.1c1.3-3.6,2.5-7.3,4-10.9c2.9-6.9,6.8-13.3,11.4-19.2c0.5-0.6,0.8-1.6,2-0.7c0.2,0.2,1.4-0.5,1.8-1
		c2.3-2.6,4.7-5.3,6.9-8c0.6-0.7,0.7-1.8,1.1-2.7c0.1-0.3,0.5-0.7,0.7-0.7c2.2,0.2,3.3-1.7,4.9-2.5c0.6-0.3,1.3-0.3,1.9-0.6
		c0.3-0.2,0.3-0.8,0.6-0.9c0.9-0.5,1.9-1,2.9-1.4c0.2-0.1,0.4-0.1,0.7-0.1c0,0.2,0.1,0.4,0,0.5c-0.1,0.2-0.4,0.2-0.6,0.4
		c-0.3,0.2-0.6,0.4-0.8,0.6c-1.3,1.3-2.6,2.5-3.9,3.8c-0.4,0.4-1,0.6-1.2,1.1c-0.5,0.9-0.8,1.8-1.3,2.8c0.9-0.1,1.7-0.2,2.6-0.3
		c0.3,0,0.6,0.1,0.9,0c0.4,0,1.1-0.2,1.1-0.2c-0.1-2.1,1.7-1.4,2.6-1.6c3.4-0.6,6.9-0.7,10.3-1.3c1.8-0.3,3.5-1.4,5.3-2.1
		c1-0.4,2-0.6,3-1.1c0.4-0.2,0.7-0.7,1.1-0.9c2.1-1.3,4.3-2.6,6.4-3.9c0.8-0.5,1.6-1,2.2,0.3c0,0.1,0.3,0,0.5,0c0-0.2,0.1-0.6,0-0.7
		c-1.5-1,0-1,0.4-1.2c2.3-0.9,4.8-1.6,7.1-2.6c2.4-1,2.8-2.8,2.5-5.3c-0.4-3.2,0.9-5.4,4.1-5.7c5.3-0.4,10.6-0.1,15.9-0.2
		c0.5,0,1,0,1.4,0c0.2,0,0.4,0.2,0.6,0.3c-0.1,0.1-0.3,0.3-0.3,0.4c-0.1,0.2-0.3,0.7-0.2,0.8c0.4,0.3,0.8,0.6,1.3,0.9
		c-0.1-0.3-0.4-0.7-0.3-0.8c0.3-0.5,0.7-1.2,1.1-1.2c1.8,0.1,3.6,0.3,5.3,0.7c2.8,0.6,5.6,1.1,8.2,2c1.7,0.6,4,0.9,4.4,3.3
		c0,0.1,0.4,0.1,0.6,0.2c0.3,0.1,0.9,0.2,0.9,0.4c0.1,0.4,0.1,1.1-0.1,1.4c-0.9,1.2-2.9,1.1-4.2,0.2c-0.6-0.4-1.7-0.2-2.6-0.1
		c-0.1,0-0.4,0.7-0.3,0.7c0.5,0.3,1,0.7,1.5,0.8c1.5,0.3,3.1,0.4,4.7,0.8c0.5,0.1,0.9,0.7,1.4,1.1c-0.4,0.4-0.8,0.8-1.2,1.1
		c-0.1,0.1-0.3,0-0.3,0.1c-2.4,2.9-5.2,1.3-8,0.8c-3.9-0.8-7.9-1.2-11.8-1.8c-0.4-0.1-0.8,0.2-1.3,0.4c0.3,0.3,0.6,0.7,0.9,0.8
		c1.5,0.4,3,0.8,4.5,1c1.8,0.3,2.7,1.2,2.4,3.1c-0.2,1.2-0.5,2.5-0.9,3.7c-0.7,2.3-2.8,3.4-5.2,2.9c-0.3-0.1-0.8,0-0.9,0.2
		c-0.2,0.3-0.2,0.8-0.3,1.3c0.3-0.2,0.7-0.3,1-0.4c0.1-0.1,0.3-0.1,0.5-0.1c0,0.1,0.1,0.2,0,0.3c-0.1,1.2-0.1,2.4-0.5,3.5
		c-0.2,0.6-1.1,1.1-1.8,1.5c-0.5,0.3-1.2,0.3-1.7,0.6c-1.6,1.3-3.5,1.7-5.5,1.8c-1.3,0-2.9,0.6-3.9,1.4c-2.4,1.9-4.2,1-6.1-0.7
		c-0.7-0.6-1.5-1.2-2.3-1.8c-2.3-1.7-4.7-1.8-7.6-1.4c-3,0.5-5.3,1.8-7.5,3.7c-0.9,0.8-1.6,1.9-2.6,2.5c-2,1.2-4.2,2.2-6.4,3
		C74.2,43,72,46.7,72.7,49c0.1,0.2-0.3,0.6-0.5,0.8c-0.2,0.2-0.5,0.3-0.8,0.5c0.3,0.1,0.7,0.4,0.9,0.3c1.1-0.5,0.7,0.3,0.6,0.7
		c-0.5,2.5-3,4.6-5.6,4.9c-0.2,0-0.5-0.2-0.8-0.4c-0.2-0.1-0.4-0.3-0.6-0.4c0,0.2,0,0.4,0,0.6c-0.1,0.2-0.2,0.3-0.3,0.5
		c-0.2-0.2-0.7-0.4-0.7-0.7c-0.2-1-0.4-2-0.4-3c0.1-1.5,0.4-3,0.8-4.5c0.3-1.2,0.6-2.3-1-2.9c-0.2-0.1-0.6-0.1-0.7,0
		c-0.8,0.7-1.6,1.4-2.4,2.1c-0.8,0.6-1.7,1-2.4,1.7c-1.2,1.1-2.4,2.4-3.4,3.6c-0.1,0.1,0.6,0.9,1,1.3c0.4,0.4,1.2,0.6,1.2,1
		c0,1.5,1.4,3.2-0.6,4.4c-0.3,0.2-0.2,1.1-0.2,1.7c0,1.1,0.2,2.2,0.1,3.2c-0.1,1.3-1.1,1.5-2.2,1.2c-1-0.3-1.9-0.9-2.9-1
		c-0.8-0.1-2,0.1-2.5,0.7c-1.1,1.3-1.9,2.8-2.5,4.4c-0.3,0.7,0,1.6-0.1,2.4c0,0.4-0.1,0.7-0.1,1.1c0,0.2,0,0.5,0,0.5
		c1.7,0.2,0.6,1.1,0.2,1.4c-2.5,2.2-4.9,4.6-8.1,5.9c-3.1,1.3-4.8,4.1-5.7,7.3c-0.6,2.4-1.5,4.7-1.9,7.1c-0.2,1,0.2,2.2,0.6,3.3
		c1.1,2.7,2.3,5.4,3.4,8.1c1.4,3.7,4.7,4.6,8,5.4c2.2,0.5,4.5,0.6,6.7,1c0.8,0.1,1.5,0.5,2.1,0.9c1.8,1.2,3.8,2.3,5.1,3.9
		c0.9,1.1,0.9,3,1.4,4.5c0.3,1.1,0.2,2.6,1,3.3c3.1,2.8,4.7,6.3,5.2,10.3c0.1,1.1-0.4,2.3-0.9,3.4c-0.7,1.8-0.6,3.3,0.5,4.9
		c0.8,1.1,1.7,2.2,2.3,3.3c2.2,4.1,5.5,7.4,8.4,11c0.1,0.2,0.4,0.4,0.4,0.6c0.5,3.1,3,3,5.1,3c3.1,0,6.2-0.5,9.3-0.7
		c0.7-0.1,1.8,0.5,1.9-0.9c0-0.1,0.2-0.1,0.3-0.2c1.3-0.7,3.6-3,4.9-4.8c0.4-0.5,0.8-1.1,1.3-1.4c1.5-1,1.5-2.2,1.4-3.8
		c-0.1-0.8,0.4-2.1,1-2.5c1.1-0.7,2.7-0.5,3.7-1.3c1.1-0.8,2.5-2.2,2.5-3.4c0-2.1-0.9-4.1-1.4-6.2c-0.3-1.4-0.8-3-0.5-4.3
		c0.5-2,1.9-3.4,3.6-4.8c3.6-2.8,7-5.8,10.2-9c1.3-1.3,1.8-3.3,2.5-5c0.1-0.3-0.9-1.4-1.4-1.4c-2,0.1-4,0.4-6,0.6
		c-0.9,0.1-1.7,0.1-2.6,0.1c-0.1,0-0.2-0.2-0.4-0.3c0.3-0.3,0.5-0.7,0.9-0.9c2-0.8,4-1.5,5.9-2.5c4.1-2.1,8.6-3.4,11.9-6.8
		c0.6-0.6,1.2-1.4,1.8-2.1c0.2-0.2,0.4-0.5,0.6-0.7c0.5-0.4,1.1-0.7,1.7-1.1c-1.1-0.8-2.1-1.6-3.2-2.4c-0.4-0.3-0.8-0.6-1.2-1
		c0.3-0.1,0.5-0.3,0.8-0.4c3-0.4,6-0.8,9-1.2c1-0.1,2.1-0.4,3.1-0.4c0.7,0,1.5,0.4,2.2,0.8c2,1.3,3.8,3,6.5,2.8c0.3,0,0.9,0.6,1,1
		c1.4,3.9,4.2,6.8,7.1,9.5c1.1,1.1,3.2,1.1,4.8,1.7c0.2,0.1,0.5,0,0.6,0.1c0.8,0.9,1.5,0.8,2.1-0.2c0.6-1,0.6-1.8-0.5-2.6
		c-2.3-1.7-2.5-3.9-1.7-6.6c1.1-4,4.2-6.6,6.1-10c0.5-0.8,1.3-1.7,2.2-1.9c1.2-0.3,2.6-0.3,3.8,0c1,0.2,1.8,1,2.6,1.8
		c0.9,0.9,1.8,1.4,3.2,1c0.9-0.3,1.5-0.1,1.7,1.3c0.2,1.6,1.3,3.1,1.9,4.6c0.2,0.5,0,1,0.1,1.6c0,0.2,0,0.4,0.2,0.4
		c0.6,0.4,1.4,0.6,1.9,1.1c0.4,0.3,0.7,1.3,0.6,1.4c-0.6,0.5-1.3,0.8-2,1.1c-0.5,0.2-1.4,0.1-1.6,0.5c-0.3,0.5-0.3,1.5,0,1.9
		c1.8,2.5,4.5,3.9,7.1,5.5c3.1,1.9,5.3,0.6,7.7-1.2c1.2-0.9,2.4-1.8,3.8-2.4c1.3-0.6,2.2,0.3,1.8,1.6c-0.7,2.8-1.4,5.7-2.4,8.4
		c-0.8,2.4-2,4.7-3.1,7c-0.3,0.6-0.8,0.7-0.8,1.7c0.1,2.7-0.3,5.4-0.9,8c-0.4,1.9-1.4,3.7-2.2,5.5c-0.2,0.5-0.9,0.8-1.2,1.2
		c-0.2,0.2,0,0.7-0.1,1c0,0.3-0.1,0.7-0.3,0.7c-0.3,0-0.7-0.1-1-0.2c-0.3-0.1-0.6-0.2-0.9-0.3c0.1,0.3,0.2,0.5,0.4,0.8
		c1.6,1.9-0.5,2.9-1.2,4.2c-1.1,1.8-2.5,3.4-3.9,5.1c-1,1.2-1.9,2.4-2.9,3.7c-0.8-0.4-1.6-0.9-2.4-1.3c-0.1,0-0.4,0.4-0.5,0.6
		C182.9,154.7,184,155,185,155.3z M120.4,140.3c-1.2,0.3-2.1,0.5-2.9,0.7c-0.1,0-0.2,0.2-0.3,0.3c-0.5,0.6-0.8,1.5-1.4,1.7
		c-2.9,1.2-4.1,2.8-4,5.8c0,0.5,0.1,1.1-0.1,1.5c-0.6,1-0.5,1.7,0.4,2.6c1.5,1.6,4,2.2,5.2,0.4c2-3.1,3.4-6.6,5.1-9.9
		c0.2-0.4,0.6-1.1,0.5-1.2C122,141.4,121.1,140.8,120.4,140.3z M117.6,23.5c-0.2-0.2-0.3-0.3-0.4-0.5c-1.6-1.5-1.6,1.5-2.9,1
		c-0.8,2-1.6,4-2.4,5.9c0,0.1,0.1,0.3,0.1,0.4c0.4,0.6,1.3,1.2,0.3,2c0.2,0,0.4,0,0.6,0.1c0.4,0.1,0.7,0.2,1.1,0.3
		c-0.2,0.1-0.4,0.3-0.6,0.4c-0.2,0.1-0.3,0.3-0.4,0.5c0.2,0.1,0.6,0.3,0.7,0.3c0.5-0.8,1.6-1.7,1.5-2.5c-0.4-2.4,0.1-4.5,1.5-6.5
		C117.1,24.6,117.3,24.1,117.6,23.5z M97.5,22.8c1.6,0.1,4.5-1.9,4.8-3.5c0.1-0.4-0.5-1.3-1-1.4c-1.4-0.4-4.4,1.2-5.1,2.6
		C95.4,22,95.8,22.7,97.5,22.8z M64.4,35.9c1.4-0.5,2.5-0.9,3.6-1.3c-0.5-1-1-2.1-1.5-3.1c-0.1-0.2-0.3-0.4-0.4-0.6
		C66,30.6,66,30.2,66,30.2c-0.5,0-1.1-0.1-1.4,0.2c-0.6,0.5-1.1,1.2-1.4,1.8c-0.3,0.6-0.8,1.6-0.6,2C62.9,35,63.8,35.4,64.4,35.9z
		 M111.3,19.2c0.5-0.8,1-1.3,1.1-2c0.1-0.2-0.8-1-1-1c-0.8,0.4-1.5,1-2.2,1.5C109.7,18.2,110.3,18.6,111.3,19.2z M174.4,124.5
		c0.1-0.1-0.1,0.1-0.1,0.1c0.2,0.7,0.4,1.4,0.8,1.9c0.3,0.4,0.9,0.5,1.4,0.6c0.1,0,0.4-0.6,0.5-0.9c-0.3,0-0.6-0.1-0.8-0.1
		c-0.3-0.1-0.8-0.3-0.8-0.3c0.1-0.5,0.4-1.1,0.6-1.6C175.6,124.2,175.1,124.3,174.4,124.5z M47.6,118.5c-0.2-0.2-0.4-0.5-0.5-0.7
		c-0.3,0.7-0.6,1.4-0.9,2.2c0,0.1,0.3,0.4,0.5,0.4C48.1,120.3,47.9,119.5,47.6,118.5z M96,31.6c-0.6-0.2-1-0.5-1.3-0.5
		c-0.6,0.1-1.1,0.4-1.6,0.6c0.7,0.3,1.4,0.6,2.2,0.8C95.4,32.6,95.6,32.1,96,31.6z M98.9,170.7c-0.2,0.2-0.5,0.5-0.4,0.6
		c0.4,0.4,0.8,0.9,1.2,1.2c0.1,0.1,0.6-0.4,0.9-0.6C100.1,171.5,99.5,171.1,98.9,170.7z M175.6,137.6c0.5,0.3,0.8,0.6,1.3,0.8
		c0.1,0.1,0.4-0.1,0.5-0.1c-0.2-0.8-0.5-1.6-0.7-2.4c-0.2,0.1-0.4,0.2-0.5,0.3C176,136.5,175.9,136.9,175.6,137.6z M97,180.9
		c0.9-0.5,1.6-0.9,2.3-1.3c-0.1-0.1-0.3-0.4-0.4-0.3c-0.8,0.3-1.7,0.6-2.5,0.9C96.5,180.3,96.7,180.5,97,180.9z M146.3,136
		c-0.9-0.1-1.5-0.3-2.1-0.3c-0.3,0-0.5,0.3-0.8,0.5c0.6,0.2,1.2,0.6,1.8,0.7C145.5,136.9,145.8,136.4,146.3,136z M140.7,150.7
		c-0.3,0.5-0.5,0.7-0.5,0.8c0.4,0.4,0.8,0.8,1.2,1.2c0.2-0.2,0.6-0.6,0.5-0.6C141.7,151.7,141.3,151.3,140.7,150.7z M193.9,117
		c0.6-0.3,1-0.5,1.5-0.7c-0.3-0.3-0.7-1-1-0.9c-0.4,0.1-0.8,0.6-1.2,0.9C193.4,116.5,193.6,116.7,193.9,117z M148.6,117.6
		c-0.5-0.5-0.8-1-1.2-1.2c-0.1-0.1-0.6,0.5-0.9,0.7c0.4,0.3,0.8,0.6,1.2,0.8C147.9,118,148.2,117.7,148.6,117.6z M129.3,146.6
		c0.7,0.7,0.9,1,1.1,1.2c0,0,0.3,0,0.3-0.1c0.3-0.4,0.6-0.8,0.9-1.3c0.1-0.1,0.2-0.3,0.2-0.4c-0.1-0.1-0.3-0.3-0.4-0.2
		C130.8,146.1,130.3,146.3,129.3,146.6z M149.7,141.3c-0.3-0.3-0.6-0.5-0.9-0.8c-0.4,0.5-0.8,1-1.1,1.5c-0.1,0.1,0.2,0.4,0.3,0.6
		C148.6,142.2,149.1,141.8,149.7,141.3z M187.4,136.7c-0.1,0.1-0.3,0.2-0.3,0.2c0.2,0.4,0.4,0.9,0.7,1.1c0.5,0.3,1.2,0.4,1.8,0.5
		c0-0.1,0.1-0.4,0-0.4C188.9,137.7,188.2,137.2,187.4,136.7z M176,145c0.6-0.5,0.9-0.7,1.2-0.9c-0.6-0.3-1.1-0.7-1.7-1
		c0,0-0.4,0.4-0.4,0.5C175.3,144.1,175.6,144.4,176,145z M86.5,32.1c0.1,0-0.1,0-0.3,0.1c0.1,0.2,0.1,0.6,0.2,0.6
		c0.5,0.1,1,0.1,1.5,0c0.3,0,0.6-0.1,0.9-0.1c-0.3-0.2-0.6-0.4-0.9-0.5C87.6,32.1,87.2,32.2,86.5,32.1z M118.5,153.4
		c1,0.4,1.7,0.8,2.3,1c0.1,0,0.3-0.3,0.5-0.5c-0.5-0.3-1-0.7-1.5-0.9C119.5,153,119.2,153.2,118.5,153.4z M102.1,174.1
		c0.5-0.7,0.9-1.2,1.2-1.7c0-0.1-0.2-0.4-0.2-0.4c-0.6,0.3-1.1,0.7-1.6,1C101.6,173.3,101.8,173.6,102.1,174.1z M140.3,143
		c1.1,0.3,1.7,0.4,2.2,0.5c0.2,0,0.4-0.2,0.6-0.2c-0.5-0.4-1-0.9-1.5-1.2C141.5,142,141.1,142.4,140.3,143z M137.2,98.8
		c0.2-0.5,0.5-0.8,0.4-1c-0.2-0.5-0.6-1-0.9-1.4c-0.1,0.2-0.4,0.5-0.4,0.6C136.6,97.6,136.9,98.1,137.2,98.8z M23.4,118.6
		c-0.4-0.3-0.7-0.7-0.9-0.7c-0.3,0-0.7,0.4-0.7,0.7c0,0.3,0.4,0.6,0.6,0.9C22.6,119.3,22.9,119,23.4,118.6z M66.2,42.6
		c-0.5-0.4-0.9-0.7-1.3-1c-0.2,0.2-0.5,0.6-0.4,0.7c0.3,0.4,0.6,0.7,1,1C65.5,43.3,65.9,42.8,66.2,42.6z M41.2,62.5
		c-0.1,0.2-0.3,0.5-0.3,0.6c0.4,0.5,0.9,0.9,1.4,1.3c0.1,0.1,0.5-0.2,0.8-0.4C42.4,63.6,41.8,63.1,41.2,62.5z M139.5,178.2
		c0.4-0.4,0.7-0.7,1-1.1c-0.5-0.1-1.1-0.3-1.6-0.4c-0.2,0-0.4,0.2-0.6,0.4C138.7,177.4,139.1,177.8,139.5,178.2z M83.9,167.5
		c0.4-0.7,0.7-1,0.8-1.3c0-0.2-0.5-0.6-0.7-0.5c-0.3,0.1-0.6,0.4-0.7,0.7C83.2,166.6,83.6,166.9,83.9,167.5z M141.9,101
		c0.4,0.3,0.8,0.6,1.2,0.9c0.1,0,0.4-0.3,0.4-0.3c-0.2-0.6-0.5-1.2-0.8-1.8C142.6,100.1,142.4,100.4,141.9,101z M111.7,178.2
		c-0.6,0.2-0.8,0.3-1.1,0.3c0.5,0.4,0.9,0.8,1.4,1.1c0.1,0,0.4-0.3,0.6-0.5C112.4,178.8,112,178.5,111.7,178.2z M145.2,161.7
		c-0.5,0.6-0.8,1-1.2,1.5c0.2,0.1,0.5,0.4,0.5,0.4c0.4-0.4,0.8-0.9,1.2-1.3C145.7,162.2,145.5,162,145.2,161.7z M125.6,136.7
		c0.3-0.1,0.7-0.3,1.1-0.4c-0.2-0.2-0.4-0.7-0.5-0.7c-0.6,0.1-1.2,0.4-1.8,0.6C124.7,136.4,125.1,136.5,125.6,136.7z M138,108.1
		c-0.4,0.4-0.7,0.8-1.1,1.3c0,0,0.3,0.4,0.3,0.4c0.6-0.3,1.2-0.7,1.8-1.1C138.7,108.5,138.5,108.3,138,108.1z"/>
	<path class="st0" d="M88.2,243.4c-0.4,0.4-0.8,0.7-1.2,1c0.5,0,1.2-0.3,1.6,0c0.6,0.3,1.1,0.9,1.6,1.5c0.2,0.2,0.1,0.7,0.3,0.9
		c0.1,0.1,0.5-0.1,0.8-0.1c-0.1-0.3-0.1-0.7-0.2-1c-1.2-2-0.6-2.4,1.6-2.3c5.7,0.2,11.4-0.1,17.1,0.1c4.9,0.2,9.7-0.2,14.6-0.1
		c5,0.1,10.1,0,15.1,0c11.3,0,22.5,0,33.8,0c4.3,0,8.7-0.2,13,0.3c2.3,0.3,4.2-0.9,6.5-0.4c1.2,0.3,2.5,1.8,4,0.1
		c0.3-0.4,1.5,0.1,2.3,0.1c3.2,0,6.4-0.2,9.6-0.1c0.6,0,1.6,1.2,1.6,1.9c0.2,2.9,0.1,5.8,0,8.7c0,0.4-0.5,0.7-0.7,1.1
		c-0.1,0.2-0.3,0.7-0.2,0.8c1.9,3.2,1,6.6,0.5,9.9c-0.1,0.4,0.3,0.9,0.3,1.3c0.1,2.9,0.3,5.9,0.1,8.8c-0.1,2.8,0.2,5.5,0.1,8.2
		c-0.1,3,0,6.1,0,9.1c0,10.4,0.1,20.9-0.2,31.3c0,1.3-0.3,2.3,0,3.7c0.5,3.4,0.3,7,0.2,10.5c0,2.9,0.1,5.7-0.1,8.6
		c0,0.8-0.6,1.6-0.9,2.4c-0.1,0.2-0.1,0.4-0.1,0.5c0.3,1.7,0.8,3.4,1,5.2c0.2,1.7,0.2,3.5,0,5.1c-0.1,0.7-1.1,1.7-1.7,1.7
		c-2.4,0.2-4.8,0.1-7.3,0.1c-3.6,0-7.3,0-10.9,0c-4.3,0-8.6,0-13,0c-11.9,0-23.7,0-35.6,0c-1,0-2.7,0.4-2.3-1.7
		c0-0.1-0.5-0.5-0.6-0.5c-0.3,0.1-0.6,0.4-0.6,0.6c-0.1,1.5-1.1,1.6-2.3,1.6c-4.9-0.1-9.9,0-14.8,0c-4.7,0-9.5,0-14.2,0
		c-1,0-2.2,0.4-2.9-0.1c-1.6-1.1-2.8,0.5-4.3,0.2c-1.8-0.4-3.7,0.1-5.6-0.2c-0.6-0.1-1.2-1-1.7-1.6c-0.3-0.3-0.3-0.9-0.5-1.3
		c0-0.1-0.8,0-0.8,0.1c-0.1,0.6-0.2,1.3-0.2,2c0,0.2,0.3,0.5,0.5,0.7c-0.3,0-0.7,0.1-1,0.1c-2.1,0-4.1-0.1-6.2,0
		c-1.3,0-2.5-2.3-3.8,0c-6.2,0-12.3,0-18.5,0c-4.9,0-9.8,0-14.6,0c-5.4,0-10.7-0.1-16.1-0.3c-4.7-0.1-9.3,0.5-14,0.3
		c-1.8-0.1-2.8-0.7-2.6-2.5c0.1-1.4,0.5-2.9,0.6-4.3c0-1-0.4-2.1-0.4-3.1c0-10.1,0-20.2,0-30.3c0-6.9-0.1-13.9-0.1-20.8
		c0-1.5-0.6-3.6,0.1-4.5c1.2-1.5,0-2.4,0-3.6c0-3.8-0.1-7.6-0.1-11.5c0-0.9,0.6-1.8,0.8-2.7c0.1-0.2,0.1-0.6,0-0.8
		c-1.3-1.5-1.2-4.2,0.2-6.1c0.1-0.2,0-0.6-0.1-0.8c-1.6-1.5-1.1-3.1-0.3-4.8c0.1-0.2,0-0.6-0.1-0.8c-0.1-0.2-0.5-0.5-0.5-0.6
		c0.8-2.1-0.3-4.1-0.1-6.1c0.3-2.3,0-4.6,0.1-6.9c0-0.3,0.4-0.7,0.7-0.8c0.3-0.1,0.7,0.1,1,0.1c-0.3-0.3-0.5-0.7-0.8-1
		c-0.8-0.8-1.4-5.6-0.7-6.6c0.1-0.2,0.3-0.4,0.4-0.4c3.1,0,6.1,0,9.2,0c1.8,0,3.6,0.1,5.3,0.1c4.9,0,9.8-0.1,14.7-0.1
		c3.6,0,7.3-0.1,10.9-0.1c7.7,0,15.3,0,23,0c0.7,0,1.4,0.6,2,1c0.1,0.1,0.2,0.1,0.4,0.2c0.9-2.5,3-0.8,4.5-1.2
		C86.3,243.2,87.3,243.4,88.2,243.4z M201,258.7c0,0,0.1,0,0.1,0c0-0.8-0.1-1.5,0-2.3c0.3-2.3-0.6-2.9-2.9-2.9
		c-2.6,0-5.3-0.5-7.9-0.8c-0.3,0-0.6,0.2-0.8,0.3c-0.7,0.2-1.5,0.6-2.2,0.6c-9.3,0-18.6,0-27.9,0c-4.3,0-8.6,0-12.9,0
		c-2,0-3.9-0.8-6-0.1c-1.8,0.6-3.8,0.1-5.8,0.1c-8.1,0-16.1,0-24.2,0c-4.7,0-9.4,0-14.1,0c-0.8,0-1.6-0.4-2.4-0.4
		c-2.8,0.1-5.6,0.3-8.5,0.3c-0.7,0-1.3-0.6-2-0.6c-1.1,0.1-2.2,0.6-3.3,0.6c-5.3,0.1-10.6,0.1-15.9,0c-4.9-0.1-9.9-0.4-14.8-0.4
		c-3.7,0-7.4,0.3-11,0.4c-0.8,0-1.7-0.3-2.5-0.4c-1.3-0.2-2.5-0.3-3.8-0.5c-0.3,0-0.6,0.1-0.8,0.1c-0.6,0.2-1.2,0.6-1.8,0.7
		c-1.4,0.1-2.9-0.2-4.2,0.1c-1,0.2-1.7,1.1-2.6,1.8c2.2,1.3,0.8,3.5,1.1,5.2c0.2,1.3,0.4,3.4-0.2,3.8c-1.9,1.3-0.5,1.5,0.3,2.2
		c0.1,0.1,0,0.3,0,0.4c0,0.5,0.1,1,0,1.5c-0.3,1.3-0.1,2.6-0.2,3.8c-0.4,6.3,1.8,12.7-1.3,18.8c-0.1,0.2,0.1,0.6,0.2,0.9
		c0.2-0.2,0.4-0.5,0.6-0.7c0.1-0.1,0.3-0.2,0.5-0.3c0.1,0.1,0.2,0.2,0.2,0.4c0,2.1,0,4.1,0,6.2c0,8.1,0,16.2,0,24.3
		c0,9.3,0,18.6,0,27.9c0,2.2,1,3.2,3,2.9c3.4-0.5,6.6,0.6,10,0.2c4.9-0.5,9.9-0.2,14.9-0.2c1.7,0,3.5,0.3,5.2-0.1
		c1.6-0.3,2.9,1.1,4.7,0.2c1.3-0.6,3.2-0.1,4.9-0.1c4.3,0,8.7,0.1,13,0c5.9,0,11.9-0.1,17.8-0.1c0.5,0,1,0.4,1.6,0.5
		c0.7,0.1,1.5,0,2.2,0.1c0.6,0,1.3,0.3,1.9,0.2c0.8-0.1,1.6-0.7,2.4-0.7c16.5,0,33,0,49.5,0c2.7,0,5.5,0.1,8.2,0.1
		c11.2,0,22.5-0.1,33.7,0c3.7,0,4.4-0.4,4.5-4.1c0-7.2,0-14.3,0-21.5c0-0.5,0.3-1.4,0.4-1.4c2.2-0.1,0.2-1,0.2-1.4
		c0-2.5-0.2-5.1-0.1-7.6c0-0.5,2.6-1.3-0.3-1.3c-0.1,0-0.3-0.6-0.3-0.9c0-5.1-0.3-10.2,0.2-15.2c0.1-1.3-0.3-2.3-0.2-3.5
		c0.1-1.7,0.4-3.5,0.4-5.2c-0.1-4.1-0.4-8.2-0.4-12.3c0-4,0.4-7.9,0.4-11.9C201.6,264,201.2,261.3,201,258.7z M15.2,300.6
		c0.6,0.9,0.9,1.5,1.3,2c0.1,0.1,0.8,0.1,0.9-0.1c0.2-0.3,0.2-0.8,0.1-1.2c0-0.3-0.2-0.5-0.3-0.8c-0.2-0.5-0.3-0.9-0.4-1.4
		C16.2,299.6,15.7,300,15.2,300.6z M160.1,248.2c-0.1-0.2-0.2-0.3-0.4-0.5c-0.1,0.1-0.2,0.3-0.3,0.4c0.3,0.2,0.7,0.5,1,0.7
		c0.6,0.3,1.3,0.6,1.9,1c0.2,0.1,0.4,0.4,0.6,0.6c0.2-0.2,0.5-0.5,0.4-0.7c-0.2-0.7-0.6-1.3-0.8-2c-0.1-0.3-0.1-0.6-0.1-0.9
		c-0.3,0.1-0.7,0.2-1,0.4C161,247.6,160.5,247.9,160.1,248.2z M22.2,274.3c-1.2-0.6-2-1.1-2.8-1.3c-0.2-0.1-1,0.8-0.9,1.3
		c0,0.5,0.7,1.3,1,1.3C20.2,275.4,21,274.9,22.2,274.3z M127.3,353.3c-0.7-0.2-1.7-0.6-1.8-0.4c-0.5,0.8-0.8,1.8-1.1,2.8
		c0,0.1,0.4,0.4,0.5,0.6C125.7,355.3,126.4,354.4,127.3,353.3z M20.1,257.7c-0.4-0.5-0.9-1.3-1.1-1.3c-0.5,0.2-1.4,0.8-1.3,1
		c0.1,0.7,0.7,1.2,1.1,1.8C19.2,258.8,19.6,258.4,20.1,257.7z M137.4,356c-0.6,0.9-1,1.4-1.4,2c0,0.1,0.3,0.5,0.4,0.5
		c0.7-0.3,1.4-0.6,2.1-0.9C138.2,357.2,137.9,356.7,137.4,356z M164.2,356.4c-0.8,0-1.3-0.2-1.6,0c-0.4,0.3-0.7,0.9-0.9,1.4
		c-0.1,0.3,0.2,0.8,0.4,1.1c0.1,0.1,0.4,0,0.7,0c0-0.2-0.1-0.5-0.1-0.7c0.1-0.4,0.3-0.7,0.5-1.1
		C163.5,356.9,163.7,356.8,164.2,356.4z M54.4,244.4c-0.7,0.4-1,0.6-1.3,0.8c0.6,0.5,1.2,1,1.8,1.5c0.1-0.3,0.4-0.6,0.4-0.8
		C55.1,245.4,54.8,245,54.4,244.4z M207.5,274.1c0.4-0.3,0.7-0.5,1.1-0.7c-0.5-0.4-1-0.9-1.6-1.2c-0.2-0.1-0.7,0.5-1,0.8
		C206.4,273.3,206.9,273.7,207.5,274.1z M16.3,311.5c0.3-1.2,0.6-2,0.7-2.7c0-0.1-0.4-0.3-0.6-0.5c-0.3,0.6-0.7,1.3-0.9,1.9
		C15.5,310.5,15.9,310.8,16.3,311.5z"/>
	<path class="st0" d="M205.1,387c-1.6-0.3-3.1-0.8-4.7-1c-0.7-0.1-1.5,0.6-2.3,0.6c-10.3,0-20.6,0-30.9,0c-0.5,0-1-0.6-1.5-0.8
		c-0.3-0.1-0.7-0.2-1-0.1c-0.8,0.1-1.6,0.2-2.4,0.4c-0.5,0.1-1,0.5-1.6,0.5c-7.9-0.1-15.8-0.3-23.7-0.4c-1.1,0-2.2,0.4-3.3,0.4
		c-11.9,0-23.8,0-35.7,0c-1.2,0-2.4,0-3.7,0c-0.3,0-0.6-0.1-0.8-0.2c0.1-0.2,0.1-0.5,0.2-0.6c0.1-0.3,0.4-0.5,0.5-0.7
		c-0.6-0.1-1.2-0.3-1.9-0.3c-0.1,0-0.4,0.4-0.4,0.5c0.3,1.4-0.5,1.4-1.6,1.4c-4.1,0-8.2,0-12.3,0c-0.8,0-1.6-0.4-2.4-0.7
		c-0.3-0.1-0.6-0.2-0.9-0.2c-4.1,0.3-8.1,0.6-12.2,0.8c-2.8,0.1-5.6,0-8.5,0c-10.5,0-21,0-31.5,0c-2.4,0-4.9,0-7.3-0.3
		c-3.3-0.4-5-3-6.9-5.3c1.6-1.8-0.3-2.1-1-3.2c-0.6-0.9-0.4-2.6-0.3-3.9c0-0.4,1-0.9,1.6-1c5.6-0.1,11.1-0.1,16.7,0
		c1.2,0,2.4-0.1,3.6,0.2c2.7,0.7,5.2-0.5,7.9-0.3c2.9,0.3,5.9,0,8.8,0.1c0.9,0,1.9,0.5,2.8,0.8c0.2,0.1,0.5,0,0.7,0
		c1.1-0.2,2.2-0.7,3.3-0.8c3.9-0.1,7.8,0,11.7,0c0.3,0,0.6-0.1,0.7,0c1.7,1.9,3.3-0.1,4.9,0c2.1,0.1,4.2,0,6.3,0
		c0.7,0,1.4,0.4,2.1,0.5c0.7,0.1,1.3-0.1,2-0.2c0.5-0.1,1-0.3,1.6-0.3c6.2,0,12.4,0,18.6,0c2.1,0,4.1,0,6.2,0c7.7,0,15.5,0,23.2,0
		c4.9,0,9.8,0,14.6,0c5.3,0,10.7,0,16,0c0.5,0,0.9,0.5,1.4,0.7c0.3,0.1,0.8,0,1.1-0.1c0.8-0.1,1.6-0.2,2.5-0.3
		c0.6-0.1,1.2-0.1,1.8-0.1c4.3,0,8.6,0,12.9-0.1c2.1,0,4.2-0.2,6.3-0.2c9.5,0,19,0.1,28.5-0.1c2.3,0,2.8,1.3,2.8,2.8
		c0.3,6.3-3.9,11-10.5,11c-0.8,0-1.5,0-2.3,0C205.1,386.8,205.1,386.9,205.1,387z M149.2,375.9c-0.5,1-0.9,1.6-1.2,2.2
		c0,0.1,0.2,0.4,0.2,0.4c0.8-0.4,1.7-0.9,2.5-1.3C150.4,376.9,150,376.6,149.2,375.9z"/>
	<path class="st0" d="M201.7,68.2c1.6,5.5,2.7,11.1,4,16.6c-0.3,0-0.6,0.1-1,0.1c0,1.7,0.1,3.4-0.1,5.1c-0.1,0.6-1,1.2-1.5,1.7
		c-0.4-0.5-0.7-1.1-1.1-1.6c-0.4-0.6-0.8-1.1-1.2-1.7c-0.4,0.6-0.8,1.2-1.1,1.9c-0.8,2.2-1.5,4.5-2.2,6.7c-0.1,0.2-0.4,0.3-0.6,0.4
		c-0.2,0.1-0.5,0.2-0.8,0.3c0.2,0.2,0.5,0.3,0.6,0.5c0.1,0.3,0.1,0.6,0.1,0.9c0,0.8-0.2,1.7,0.1,2.3c0.3,0.7,1.1,1.5,1.8,1.7
		c0.6,0.1,1.5-0.6,2.1-1.1c0.5-0.4,0.8-1.2,1.4-1.6c0.3-0.3,0.8-0.3,1.3-0.5c0,0.3-0.2,0.6-0.1,0.8c0.2,0.5,0.8,1,0.7,1.3
		c-0.6,1.1-1.2,2.3-2.1,3c-1.2,1-2.3,2.5-4.3,1.9c-0.1,0-0.3,0.1-0.5,0.2c0.1,0.1,0.1,0.3,0.2,0.3c0.2,0.1,0.4,0.2,0.6,0.3
		c-0.6,0.1-1.2,0.2-1.8,0.2c-0.2,0-0.3-0.5-0.5-0.7c1.7-0.6,0.1-0.9-0.1-1.3c-0.7-1.5-1.5-3-2.2-4.5c-0.2-0.4-0.4-0.7-0.5-1.1
		c-0.1-0.2-1-0.5,0.1-0.6c0.1,0,0.2-0.2,0.3-0.4c-0.3-0.2-0.6-0.4-0.9-0.6c-1.4-0.9-3.1-1.6-4.2-2.7c-0.7-0.7-0.6-2.1-0.8-3.1
		c0-0.1,0.3-0.4,0.5-0.4c0.5,0.1,1,0.2,1.4,0.4c0.2,0.1,0.6,0.4,0.6,0.4c0.9-1,3.1,1.1,3.4-1.5c0.1-1,0.8-1.9,1.1-2.9
		c0.7-2.2-0.1-4-2.1-5.7c-0.8-0.6-1.3-1.6-1.9-2.4c-0.1-0.1,0.2-0.4,0.3-0.6c0.1-0.1,0.3-0.3,0.5-0.3c0.6,0.1,1.7-1,1.6-1.7
		c-0.6-3.1,0.8-5.7,2.3-8.1c0.9-1.4,1-2.6,0.3-4 M188.3,55.5c-0.6-0.9-0.8-2-1.1-3.1c-0.1-0.2,0.1-0.5,0.1-0.8
		c0.3,0.1,0.5,0.1,0.8,0.2 M198.3,76c0-0.1,0,0.2-0.1,0.4c-0.1-0.1-0.1-0.2-0.2-0.3c-0.1-0.2-0.2-0.3-0.4-0.5
		c-0.3,0.5-0.7,0.9-1,1.4c0.2,0.1,0.4,0.2,0.7,0.2c0.5,0.1,1.3,0.1,1.4,0.3c0.4,1.7,0.6,3.4,0.8,5.1c0,0.1,0,0.3,0.1,0.3
		c0.9,0.6,1.8,1.2,2.7,1.6c0.5,0.2,1.1,0.2,1.6,0c0.1,0,0.2-0.9,0.1-1.3c-0.6-2.6-1.6-5-3.4-6.9c-0.3-0.3-0.1-1-0.2-1.6
		c0-0.2-0.1-0.4-0.2-0.5C199.5,73.9,198.2,74.7,198.3,76z M202.4,87.1c-0.4-0.4-0.7-0.9-1-0.8c-0.5,0.1-1,0.4-1.5,0.6
		c0.4,0.3,0.8,0.7,1.3,0.8C201.5,87.8,201.9,87.4,202.4,87.1z"/>
	<path class="st0" d="M93.6,88.9c-1.7,0-3.3,0.2-5-0.1c-2-0.3-4-1-5.9-1.7c-2.2-0.8-4.4-1.9-6.6-0.2c-1.7,1.3-3.3,0.7-4.7-0.3
		c-1-0.8-1.7-2-2.6-2.9c-0.1-0.1-0.4-0.2-0.6-0.2c-1.4,0.8-1.7-0.4-1.7-1.2c-0.2-4.3,0.2-3.9-4.3-4.8c-1.2-0.2-2.3-0.7-3.4-0.9
		c-1.3-0.2-1.1-0.6-0.5-1.3c0.2-0.3,0.4-0.7,0.6-1c-0.5,0.2-1.3,0.3-1.6,0.7c-1,1.2-3.7,1.9-5.1,1C52,76,52,75.6,52,75.4
		c0-0.2,0.2-0.4,0.3-0.5c0.1,0.2,0.2,0.4,0.3,0.5c0.1,0.1,0.4,0.3,0.5,0.2c1.1-1.1,2-2.4,3.3-3.1c0.7-0.4,1.1-1,1.6-1.2
		c1.8-0.8,3.7-1.5,5.7-1.8c1.6-0.3,2.1,0.6,1.6,2.2c0,0.1,0,0.2,0,0.2c-0.1,0.9-0.1,1.7-0.2,2.6c0.5-0.6,0.9-1.3,1.5-1.7
		c0.5-0.3,1.5-0.7,1.9-0.4c1.2,0.9,2.3,2.1,3.3,3.2c0.9,1,0.7,1.9-0.8,2.3c-0.6,0.2-1.2,0.6-1.7,0.9c0.3,0.4,0.6,1,0.9,1
		c0.6,0,1.3-0.2,1.8-0.6c0.8-0.6,1.6-1.4,2.3-2c1.2-1,2.8-0.8,3.3,0.7c1.4,4.3,5,4.6,8.6,5c1.3,0.1,2.6-0.2,3.9-0.2
		c0.5,0,1.2,0,1.6,0.3c1.4,1,2.6,2.3,4.6,1.9c0.1,0,0.4,0.4,0.4,0.6C97,87,95.3,88.9,93.6,88.9z M73.5,82.9c-0.6-0.4-1-0.7-1.5-1
		c-0.1-0.1-0.4,0.2-0.6,0.3c0.3,0.4,0.4,0.9,0.8,1.2C72.4,83.5,72.9,83.1,73.5,82.9z M77.1,81.5c0.6-0.2,0.9-0.3,1.2-0.4
		c-0.7-0.3-1.5-0.7-2.2-1c-0.1,0-0.2,0.2-0.4,0.3C76.2,80.8,76.7,81.2,77.1,81.5z"/>
	<path class="st0" d="M101.7,76.2c-0.9-0.2-1.8-0.2-2.6-0.5c-2.5-1-5-0.9-7.6-0.1c-0.7,0.2-1.8-0.2-2.3-0.7
		c-0.3-0.2,0.1-1.4,0.5-2.1c0.5-0.8,1.1-1.6,1.9-2.3c1.2-1.1,3.2-0.3,3.5,1.3c0,0.2,0.6,0.5,0.7,0.4c3.4-1.9,5.7,0.3,8.2,2
		c0.3,0.2,0.5,0.8,0.4,1c-0.1,0.3-0.6,0.5-1,0.6C102.8,76,102.3,76.1,101.7,76.2z"/>
	<path class="st0" d="M119.3,80.9c-2.3,0-2.9-0.8-3.2-2.8c-0.3-1.5-1.2-2.9-1.9-4.3c-0.4-0.9-1.3-2.2-1-2.8c0.5-1,1.8-1.5,2.8-2.2
		c0.3,0.4,0.7,0.8,0.9,1.3c0.3,0.9,0.5,1.8,0.8,2.6c1,2.1,2,4.2,3,6.3c0.1,0.1,0,0.3,0,0.5c-0.2-0.1-0.3-0.3-0.5-0.3
		c-0.4,0-0.8,0.1-1.1,0.1c0.2,0.2,0.3,0.4,0.5,0.6c0.1,0.2,0.2,0.4,0.4,0.5C119.6,80.7,119.3,80.9,119.3,80.9z"/>
	<path class="st0" d="M99.4,102.3c-0.4-0.7,1-1.8-0.8-2.4c-1.1-0.4-1.7-2.5-2.4-3.9c-0.1-0.2,0.1-0.7,0.2-0.9c0.1-0.1,0.7,0,0.8,0.2
		c1.1,1.2,2.6,2.2,3.1,3.7c0.3,0.8,0.8,1,1.1,1.5c0.3,0.7,1.8,1.1,0.9,2.3c0,0,0.4,0.6,0.7,0.7c1.7,0.4,2.2,1.1,1.7,2.8
		c0,0.1,0.4,0.5,0.5,0.4c1.4-0.6,1.5,0.7,1.8,1.4c0.1,0.2-0.2,1-0.3,1c-0.7,0-1.5,0-2-0.4c-1.7-1.5-3.2-3.2-4.7-4.9
		C99.8,103.4,99.6,102.8,99.4,102.3z"/>
	<path class="st0" d="M82,56c-1.4-0.4-2.2-0.6-3.1-0.8c0.6-0.6,1.3-1.3,1.9-1.9c0.9-0.9,1.7-1.8,2.6-2.6c0.6-0.6,1.4-1.1,2.1-1.5
		c0.3-0.1,0.8,0.2,1.2,0.3c-0.1,0.3-0.2,0.7-0.3,1c-0.5,1.2-0.9,2.5-1.7,3.5C84,54.9,82.8,55.5,82,56z"/>
	<path class="st0" d="M123,95.1c-0.1,0.3-0.3,0.6-0.2,0.8c0,0.2,0.2,0.4,0.3,0.6c-0.4,0-0.8,0-1.2-0.1c-0.2-0.1-0.2-0.5-0.4-0.7
		c-0.2-0.2-0.6-0.6-0.8-0.6c-1,0.3-4.4-2.3-4-3.3c0.1-0.4,1.2-0.8,1.5-0.6c1.9,0.8,3.7,1.8,5.5,2.8c0.7,0.4,1.8,0.5,0.8,1.6
		C124.4,95.8,123.8,95.4,123,95.1z"/>
	<g>
		<path class="st1" d="M32.1,246.3c0.2-0.3,0.4-0.5,0.7-0.8c0,0.3,0.1,0.5,0.1,0.8c0.1,0.1,0.3,0.2,0.4,0.4
			C32.9,246.5,32.5,246.4,32.1,246.3z"/>
		<path class="st1" d="M26.3,262.4c0.2-0.3,0.4-0.5,0.7-0.8c0.3,0.2,0.6,0.5,0.9,0.7c-0.2,0.3-0.4,0.5-0.7,0.8
			C26.9,262.9,26.6,262.7,26.3,262.4z"/>
		<path class="st1" d="M32.9,254.4c0.2-0.3,0.4-0.5,0.7-0.8C33.7,254.7,33.9,254,32.9,254.4z"/>
		<path class="st1" d="M34.4,261.6c0.4,0.1,0.8,0.2,1.2,0.3c-0.1,0.1-0.2,0.3-0.3,0.4C35,262.1,34.7,261.9,34.4,261.6z"/>
		<path class="st1" d="M41,253.6c0.4,0.1,0.8,0.2,1.2,0.3c-0.1,0.1-0.2,0.3-0.3,0.4C41.6,254.1,41.3,253.8,41,253.6z"/>
		<path class="st1" d="M47.6,245.6c0.4,0.1,0.8,0.2,1.2,0.3c-0.1,0.1-0.2,0.3-0.3,0.4C48.2,246,47.9,245.8,47.6,245.6z"/>
		<path class="st1" d="M35.2,269.7c0.2-0.3,0.4-0.5,0.7-0.8C36,270,36.2,269.3,35.2,269.7z"/>
		<path class="st1" d="M41.8,261.7c0.5-0.3,1-0.6,1.4-0.8c-0.1,0.1-0.2,0.3-0.3,0.4c-0.1,0.4-0.1,0.8-0.2,1.2
			C42.4,262.1,42.1,261.9,41.8,261.7z"/>
		<path class="st1" d="M48.4,253.6c0.2-0.3,0.4-0.5,0.7-0.8C49.1,253.9,49.4,253.2,48.4,253.6z"/>
		<path class="st1" d="M55,245.6c0.2-0.3,0.4-0.5,0.7-0.8c0.3,0.2,0.6,0.5,0.9,0.7c-0.2,0.3-0.4,0.5-0.7,0.8
			C55.6,246.1,55.3,245.8,55,245.6z"/>
		<path class="st1" d="M23.5,293c0.4,0.1,0.8,0.2,1.2,0.3c-0.1,0.1-0.2,0.3-0.3,0.4C24.1,293.5,23.8,293.3,23.5,293z"/>
		<path class="st1" d="M29.7,285.4c0.2-0.3,0.4-0.5,0.7-0.8c0.3,0.2,0.6,0.5,0.9,0.7c-0.2,0.3-0.4,0.5-0.7,0.8
			C30.3,285.9,30,285.6,29.7,285.4z"/>
		<path class="st1" d="M43.2,268.9c0.4,0.1,0.8,0.2,1.2,0.3c-0.1,0.1-0.2,0.3-0.3,0.4C43.8,269.4,43.5,269.2,43.2,268.9z"/>
		<path class="st1" d="M49.5,261.3c1.6-0.9,0.3-0.6,1.9-0.5c-0.3,0.4-0.7,0.8-1,1.2C50.1,261.8,49.8,261.5,49.5,261.3z"/>
		<path class="st1" d="M56.1,253.2c1.6-0.9,0.3-0.6,1.9-0.5c-0.3,0.4-0.7,0.8-1,1.2C56.7,253.7,56.4,253.5,56.1,253.2z"/>
		<path class="st1" d="M62.7,245.2c0.2-0.3,0.4-0.5,0.7-0.8c0.3,0.2,0.6,0.5,0.9,0.7c-0.2,0.3-0.4,0.5-0.7,0.8
			C63.3,245.7,63,245.5,62.7,245.2z"/>
		<path class="st1" d="M24.6,300.7c0.4,0.1,0.8,0.2,1.2,0.3c-0.1,0.1-0.2,0.3-0.3,0.4C25.2,301.2,24.9,300.9,24.6,300.7z"/>
		<path class="st1" d="M30.9,293c0.2-0.3,0.4-0.5,0.7-0.8c0.3,0.2,0.6,0.5,0.9,0.7c-0.2,0.3-0.4,0.5-0.7,0.8
			C31.5,293.5,31.2,293.3,30.9,293z"/>
		<path class="st1" d="M37.5,285c0.5-0.3,1-0.6,1.4-0.8c-0.1,0.1-0.2,0.3-0.3,0.4c-0.1,0.4-0.1,0.8-0.2,1.2
			C38.1,285.5,37.8,285.2,37.5,285z"/>
		<path class="st1" d="M44.4,276.6c0.4,0.1,0.8,0.2,1.2,0.3c-0.1,0.1-0.2,0.3-0.3,0.4C45,277.1,44.7,276.8,44.4,276.6z"/>
		<path class="st1" d="M50.6,268.9c0.2-0.3,0.4-0.5,0.7-0.8C51.4,269.2,51.6,268.6,50.6,268.9z"/>
		<path class="st1" d="M57.2,260.9c0.2-0.3,0.4-0.5,0.7-0.8C58,261.2,58.2,260.5,57.2,260.9z"/>
		<path class="st1" d="M63.8,252.9c0.2-0.3,0.4-0.5,0.7-0.8C64.6,253.1,64.8,252.5,63.8,252.9z"/>
		<path class="st1" d="M70.4,244.8c0.5-0.3,1-0.6,1.4-0.8c-0.1,0.1-0.2,0.3-0.3,0.4c-0.1,0.4-0.1,0.8-0.2,1.2
			C71,245.3,70.7,245.1,70.4,244.8z"/>
		<path class="st1" d="M32.3,300.3c0.4,0.1,0.8,0.2,1.2,0.3c-0.1,0.1-0.2,0.3-0.3,0.4C32.9,300.8,32.6,300.5,32.3,300.3z"/>
		<path class="st1" d="M38.9,292.3c0.2-0.3,0.4-0.5,0.7-0.8c0,0.3,0.1,0.5,0.1,0.8c0.1,0.1,0.3,0.2,0.4,0.4
			C39.7,292.5,39.3,292.4,38.9,292.3z"/>
		<path class="st1" d="M45.2,284.6c0.2-0.3,0.4-0.5,0.7-0.8C46,284.9,46.2,284.2,45.2,284.6z"/>
		<path class="st1" d="M51.8,276.6c0.2-0.3,0.4-0.5,0.7-0.8C52.6,276.9,52.8,276.2,51.8,276.6z"/>
		<path class="st1" d="M58.4,268.6c0.2-0.3,0.4-0.5,0.7-0.8c0.3,0.2,0.6,0.5,0.9,0.7c-0.2,0.3-0.4,0.5-0.7,0.8
			C59,269,58.7,268.8,58.4,268.6z"/>
		<path class="st1" d="M65,260.5c0.5-0.3,1-0.6,1.4-0.8c-0.1,0.1-0.2,0.3-0.3,0.4c-0.1,0.4-0.1,0.8-0.2,1.2
			C65.6,261,65.3,260.8,65,260.5z"/>
		<path class="st1" d="M71.6,252.5c1.6-0.9,0.3-0.6,1.9-0.5C72.3,252.6,72.7,252.4,71.6,252.5z"/>
		<path class="st1" d="M78.2,244.5c0.5-0.3,1-0.6,1.4-0.8c-0.1,0.1-0.2,0.3-0.3,0.4c-0.1,0.4-0.1,0.8-0.2,1.2
			C78.8,244.9,78.5,244.7,78.2,244.5z"/>
		<path class="st1" d="M26.5,316.4c0.2-0.3,0.4-0.5,0.7-0.8c0.3,0.2,0.6,0.5,0.9,0.7c-0.2,0.3-0.4,0.5-0.7,0.8
			C27.1,316.9,26.8,316.6,26.5,316.4z"/>
		<path class="st1" d="M33.1,308.3c0.2-0.3,0.4-0.5,0.7-0.8C33.9,308.6,34.1,308,33.1,308.3z"/>
		<path class="st1" d="M40.1,299.9c0.4,0.1,0.8,0.2,1.2,0.3c-0.1,0.1-0.2,0.3-0.3,0.4C40.7,300.4,40.4,300.2,40.1,299.9z"/>
		<path class="st1" d="M46.3,292.3c0.2-0.3,0.4-0.5,0.7-0.8c0.3,0.2,0.6,0.5,0.9,0.7c-0.2,0.3-0.4,0.5-0.7,0.8
			C46.9,292.8,46.6,292.5,46.3,292.3z"/>
		<path class="st1" d="M52.9,284.2c0.2-0.3,0.4-0.5,0.7-0.8C53.7,284.5,53.9,283.9,52.9,284.2z"/>
		<path class="st1" d="M59.8,275.8c0.4,0.1,0.8,0.2,1.2,0.3c-0.1,0.1-0.2,0.3-0.3,0.4C60.4,276.3,60.1,276.1,59.8,275.8z"/>
		<path class="st1" d="M66.1,268.2c0.2-0.3,0.4-0.5,0.7-0.8C66.9,268.5,67.1,267.8,66.1,268.2z"/>
		<path class="st1" d="M79.3,252.1c0.5-0.3,1-0.6,1.4-0.8c-0.1,0.1-0.2,0.3-0.3,0.4c-0.1,0.4-0.1,0.8-0.2,1.2
			C79.9,252.6,79.6,252.4,79.3,252.1z"/>
		<path class="st1" d="M85.9,244.1c0.2-0.3,0.4-0.5,0.7-0.8C86.7,244.4,86.9,243.7,85.9,244.1z"/>
		<path class="st1" d="M34.6,315.6c0.4,0.1,0.8,0.2,1.2,0.3c-0.1,0.1-0.2,0.3-0.3,0.4C35.2,316.1,34.9,315.8,34.6,315.6z"/>
		<path class="st1" d="M41.2,307.6c0.4,0.1,0.8,0.2,1.2,0.3c-0.1,0.1-0.2,0.3-0.3,0.4C41.8,308.1,41.5,307.8,41.2,307.6z"/>
		<path class="st1" d="M47.5,299.9c0.2-0.3,0.4-0.5,0.7-0.8C48.2,300.2,48.5,299.6,47.5,299.9z"/>
		<path class="st1" d="M54.1,291.9c0.2-0.3,0.4-0.5,0.7-0.8c0.3,0.2,0.6,0.5,0.9,0.7c-0.2,0.3-0.4,0.5-0.7,0.8
			C54.7,292.4,54.4,292.1,54.1,291.9z"/>
		<path class="st1" d="M60.7,283.9c0.2-0.3,0.4-0.5,0.7-0.8c0.3,0.2,0.6,0.5,0.9,0.7c-0.2,0.3-0.4,0.5-0.7,0.8
			C61.2,284.4,60.9,284.1,60.7,283.9z"/>
		<path class="st1" d="M67.2,275.8c0.5-0.3,1-0.6,1.4-0.8c-0.1,0.1-0.2,0.3-0.3,0.4c-0.1,0.4-0.1,0.8-0.2,1.2
			C67.8,276.3,67.5,276.1,67.2,275.8z"/>
		<path class="st1" d="M74.2,267.4c0.4,0.1,0.8,0.2,1.2,0.3c-0.1,0.1-0.2,0.3-0.3,0.4C74.8,267.9,74.5,267.6,74.2,267.4z"/>
		<path class="st1" d="M80.8,259.4c0.4,0.1,0.8,0.2,1.2,0.3c-0.1,0.1-0.2,0.3-0.3,0.4C81.4,259.9,81.1,259.6,80.8,259.4z"/>
		<path class="st1" d="M87,251.7c0.5-0.3,1-0.6,1.4-0.8C88.5,251.6,88,252.6,87,251.7z"/>
		<path class="st1" d="M94,243.3c0.4,0.1,0.8,0.2,1.2,0.3c-0.1,0.1-0.2,0.3-0.3,0.4C94.5,243.8,94.3,243.5,94,243.3z"/>
		<path class="st1" d="M35.7,323.3c0.4,0.1,0.8,0.2,1.2,0.3c-0.1,0.1-0.2,0.3-0.3,0.4C36.3,323.7,36,323.5,35.7,323.3z"/>
		<path class="st1" d="M42.3,315.2c0.4,0.1,0.8,0.2,1.2,0.3c-0.1,0.1-0.2,0.3-0.3,0.4C42.9,315.7,42.6,315.5,42.3,315.2z"/>
		<path class="st1" d="M48.9,307.2c0.4,0.1,0.8,0.2,1.2,0.3c-0.1,0.1-0.2,0.3-0.3,0.4C49.5,307.7,49.2,307.4,48.9,307.2z"/>
		<path class="st1" d="M55.5,299.2c0.4,0.1,0.8,0.2,1.2,0.3c-0.1,0.1-0.2,0.3-0.3,0.4C56.1,299.6,55.8,299.4,55.5,299.2z"/>
		<path class="st1" d="M62.1,291.1c0.4,0.1,0.8,0.2,1.2,0.3c-0.1,0.1-0.2,0.3-0.3,0.4C62.7,291.6,62.4,291.4,62.1,291.1z"/>
		<path class="st1" d="M68.4,283.5c0.2-0.3,0.4-0.5,0.7-0.8c0.3,0.2,0.6,0.5,0.9,0.7c-0.2,0.3-0.4,0.5-0.7,0.8
			C69,284,68.7,283.7,68.4,283.5z"/>
		<path class="st1" d="M75,275.5c1.6-0.9,0.3-0.6,1.9-0.5c-0.3,0.4-0.7,0.8-1,1.2C75.6,275.9,75.3,275.7,75,275.5z"/>
		<path class="st1" d="M81.6,267.4c0.2-0.3,0.4-0.5,0.7-0.8c0.3,0.2,0.6,0.5,0.9,0.7c-0.2,0.3-0.4,0.5-0.7,0.8
			C82.2,267.9,81.9,267.7,81.6,267.4z"/>
		<path class="st1" d="M88.2,259.4c0.2-0.3,0.4-0.5,0.7-0.8C88.9,259.7,89.2,259,88.2,259.4z"/>
		<path class="st1" d="M94.8,251.4c0.2-0.3,0.4-0.5,0.7-0.8c0.3,0.2,0.6,0.5,0.9,0.7c-0.2,0.3-0.4,0.5-0.7,0.8
			C95.4,251.8,95.1,251.6,94.8,251.4z"/>
		<path class="st1" d="M101.4,243.3c0.5-0.3,1-0.6,1.4-0.8c-0.1,0.1-0.2,0.3-0.3,0.4c-0.1,0.4-0.1,0.8-0.2,1.2
			C101.9,243.8,101.7,243.6,101.4,243.3z"/>
		<path class="st1" d="M36.9,330.9c0.4,0.1,0.8,0.2,1.2,0.3c-0.1,0.1-0.2,0.3-0.3,0.4C37.5,331.4,37.2,331.2,36.9,330.9z"/>
		<path class="st1" d="M49.7,315.3c0.5-0.3,1-0.6,1.4-0.8c-0.1,0.1-0.2,0.3-0.3,0.4c-0.1,0.4-0.1,0.8-0.2,1.2
			C50.3,315.7,50,315.5,49.7,315.3z"/>
		<path class="st1" d="M56.7,306.8c0.4,0.1,0.8,0.2,1.2,0.3c-0.1,0.1-0.2,0.3-0.3,0.4C57.3,307.3,57,307.1,56.7,306.8z"/>
		<path class="st1" d="M62.9,299.2c0.2-0.3,0.4-0.5,0.7-0.8C63.7,299.5,63.9,298.8,62.9,299.2z"/>
		<path class="st1" d="M69.5,291.2c0.2-0.3,0.4-0.5,0.7-0.8c0.3,0.2,0.6,0.5,0.9,0.7c-0.2,0.3-0.4,0.5-0.7,0.8
			C70.1,291.6,69.8,291.4,69.5,291.2z"/>
		<path class="st1" d="M76.1,283.1c0.2-0.3,0.4-0.5,0.7-0.8C76.9,283.4,77.1,282.7,76.1,283.1z"/>
		<path class="st1" d="M83,274.7c0.4,0.1,0.8,0.2,1.2,0.3c-0.1,0.1-0.2,0.3-0.3,0.4C83.6,275.2,83.3,274.9,83,274.7z"/>
		<path class="st1" d="M89.3,267.1c0.2-0.3,0.4-0.5,0.7-0.8c0.3,0.2,0.6,0.5,0.9,0.7c-0.2,0.3-0.4,0.5-0.7,0.8
			C89.9,267.5,89.6,267.3,89.3,267.1z"/>
		<path class="st1" d="M95.9,259c1.6-0.9,0.3-0.6,1.9-0.5c0,0.3,0.1,0.5,0.1,0.8c-0.3,0-0.5,0-0.8,0C96.7,259.2,96.3,259.1,95.9,259
			z"/>
		<path class="st1" d="M102.5,251c0.2-0.3,0.4-0.5,0.7-0.8c0.3,0.2,0.6,0.5,0.9,0.7c-0.2,0.3-0.4,0.5-0.7,0.8
			C103.1,251.5,102.8,251.2,102.5,251z"/>
		<path class="st1" d="M109.7,242.1c0.3,0.2,0.6,0.5,0.9,0.7c-0.2,0.3-0.4,0.5-0.7,0.8c-0.3-0.2-0.6-0.5-0.9-0.7
			C109.3,242.7,109.5,242.4,109.7,242.1"/>
		<path class="st1" d="M96.9,265.9c1.1-0.1,0.7-0.1,2,0.3c-0.3,0.4-0.7,0.8-1,1.2C97.6,266.9,97.3,266.4,96.9,265.9z"/>
		<path class="st1" d="M31.1,347c0.2-0.3,0.4-0.5,0.7-0.8C31.9,347.3,32.1,346.6,31.1,347z"/>
		<path class="st1" d="M44.3,330.9c0.2-0.3,0.4-0.5,0.7-0.8C45.1,331.2,45.3,330.6,44.3,330.9z"/>
		<path class="st1" d="M51.2,322.5c0.4,0.1,0.8,0.2,1.2,0.3c-0.1,0.1-0.2,0.3-0.3,0.4C51.8,323,51.5,322.8,51.2,322.5z"/>
		<path class="st1" d="M57.8,314.5c0.4,0.1,0.8,0.2,1.2,0.3c-0.1,0.1-0.2,0.3-0.3,0.4C58.4,315,58.1,314.7,57.8,314.5z"/>
		<path class="st1" d="M71,298.4c0.4,0.1,0.8,0.2,1.2,0.3c-0.1,0.1-0.2,0.3-0.3,0.4C71.6,298.9,71.3,298.7,71,298.4z"/>
		<path class="st1" d="M77.3,290.8c0.5-0.3,1-0.6,1.4-0.8c-0.1,0.1-0.2,0.3-0.3,0.4c-0.1,0.4-0.1,0.8-0.2,1.2
			C77.8,291.3,77.6,291,77.3,290.8z"/>
		<path class="st1" d="M83.8,282.7c0.5-0.3,1-0.6,1.4-0.8C85.3,282.6,84.8,283.7,83.8,282.7z"/>
		<path class="st1" d="M90.4,274.7c0.2-0.3,0.4-0.5,0.7-0.8c0.3,0.2,0.6,0.5,0.9,0.7c-0.2,0.3-0.4,0.5-0.7,0.8
			C91,275.2,90.7,275,90.4,274.7z"/>
		<path class="st1" d="M103.6,258.6c0.2-0.3,0.4-0.5,0.7-0.8C104.4,258.9,104.6,258.3,103.6,258.6z"/>
		<path class="st1" d="M110.2,250.6c0.5-0.3,1-0.6,1.4-0.8c-0.1,0.1-0.2,0.3-0.3,0.4c-0.1,0.4-0.1,0.8-0.2,1.2
			C110.8,251.1,110.5,250.9,110.2,250.6z"/>
		<path class="st1" d="M45.4,338.6c0.2-0.3,0.4-0.5,0.7-0.8C46.2,338.9,46.4,338.2,45.4,338.6z"/>
		<path class="st1" d="M58.9,322.1c0.4,0.1,0.8,0.2,1.2,0.3c-0.1,0.1-0.2,0.3-0.3,0.4C59.5,322.6,59.2,322.4,58.9,322.1z"/>
		<path class="st1" d="M78.7,298c0.4,0.1,0.8,0.2,1.2,0.3c-0.1,0.1-0.2,0.3-0.3,0.4C79.3,298.5,79,298.3,78.7,298z"/>
		<path class="st1" d="M91.6,282.4c0.5-0.3,1-0.6,1.4-0.8c-0.1,0.1-0.2,0.3-0.3,0.4c-0.1,0.4-0.1,0.8-0.2,1.2
			C92.2,282.9,91.9,282.6,91.6,282.4z"/>
		<path class="st1" d="M98.2,274.3c1.6-0.9,0.3-0.6,1.9-0.5c-0.3,0.4-0.7,0.8-1,1.2C98.8,274.8,98.5,274.6,98.2,274.3z"/>
		<path class="st1" d="M104.8,266.3c0.2-0.3,0.4-0.5,0.7-0.8c0.3,0.2,0.6,0.5,0.9,0.7c-0.2,0.3-0.4,0.5-0.7,0.8
			C105.4,266.8,105.1,266.5,104.8,266.3z"/>
		<path class="st1" d="M111.4,258.3c0.2-0.3,0.4-0.5,0.7-0.8c0.3,0.2,0.6,0.5,0.9,0.7c-0.2,0.3-0.4,0.5-0.7,0.8
			C112,258.8,111.7,258.5,111.4,258.3z"/>
		<path class="st1" d="M118,250.2c0.2-0.3,0.4-0.5,0.7-0.8c0.3,0.2,0.6,0.5,0.9,0.7c-0.2,0.3-0.4,0.5-0.7,0.8
			C118.6,250.7,118.3,250.5,118,250.2z"/>
		<path class="st1" d="M46.9,345.9c0.4,0.1,0.8,0.2,1.2,0.3c-0.1,0.1-0.2,0.3-0.3,0.4C47.5,346.3,47.2,346.1,46.9,345.9z"/>
		<path class="st1" d="M53.5,337.8c0.4,0.1,0.8,0.2,1.2,0.3c-0.1,0.1-0.2,0.3-0.3,0.4C54.1,338.3,53.8,338.1,53.5,337.8z"/>
		<path class="st1" d="M60.1,329.8c0.4,0.1,0.8,0.2,1.2,0.3c-0.1,0.1-0.2,0.3-0.3,0.4C60.7,330.3,60.4,330,60.1,329.8z"/>
		<path class="st1" d="M72.9,314.1c0.2-0.3,0.4-0.5,0.7-0.8C73.7,314.4,73.9,313.7,72.9,314.1z"/>
		<path class="st1" d="M79.9,305.7c0.4,0.1,0.8,0.2,1.2,0.3c-0.1,0.1-0.2,0.3-0.3,0.4C80.5,306.2,80.2,305.9,79.9,305.7z"/>
		<path class="st1" d="M86.1,298.1c0.2-0.3,0.4-0.5,0.7-0.8c0.3,0.2,0.6,0.5,0.9,0.7c-0.2,0.3-0.4,0.5-0.7,0.8
			C86.7,298.5,86.4,298.3,86.1,298.1z"/>
		<path class="st1" d="M93,289.6c0.4,0.1,0.8,0.2,1.2,0.3c-0.1,0.1-0.2,0.3-0.3,0.4C93.6,290.1,93.3,289.9,93,289.6z"/>
		<path class="st1" d="M99.3,282c0.2-0.3,0.4-0.5,0.7-0.8c0.3,0.2,0.6,0.5,0.9,0.7c-0.2,0.3-0.4,0.5-0.7,0.8
			C99.9,282.5,99.6,282.2,99.3,282z"/>
		<path class="st1" d="M106.2,273.6c0.4,0.1,0.8,0.2,1.2,0.3c-0.1,0.1-0.2,0.3-0.3,0.4C106.8,274,106.5,273.8,106.2,273.6z"/>
		<path class="st1" d="M112.5,265.9c0.2-0.3,0.4-0.5,0.7-0.8c0.3,0.2,0.6,0.5,0.9,0.7c-0.2,0.3-0.4,0.5-0.7,0.8
			C113.1,266.4,112.8,266.2,112.5,265.9z"/>
		<path class="st1" d="M119.1,257.9c0.5-0.3,1-0.6,1.4-0.8c-0.1,0.1-0.2,0.3-0.3,0.4c-0.1,0.4-0.1,0.8-0.2,1.2
			C119.7,258.4,119.4,258.1,119.1,257.9z"/>
		<path class="st1" d="M126,249.5c0.4,0.1,0.8,0.2,1.2,0.3c-0.1,0.1-0.2,0.3-0.3,0.4C126.6,249.9,126.3,249.7,126,249.5z"/>
		<path class="st1" d="M54.6,345.5c0.4,0.1,0.8,0.2,1.2,0.3c-0.1,0.1-0.2,0.3-0.3,0.4C55.2,346,54.9,345.7,54.6,345.5z"/>
		<path class="st1" d="M67.8,329.4c0.4,0.1,0.8,0.2,1.2,0.3c-0.1,0.1-0.2,0.3-0.3,0.4C68.4,329.9,68.1,329.7,67.8,329.4z"/>
		<path class="st1" d="M74.4,321.4c0.4,0.1,0.8,0.2,1.2,0.3c-0.1,0.1-0.2,0.3-0.3,0.4C75,321.9,74.7,321.6,74.4,321.4z"/>
		<path class="st1" d="M93.9,297.7c0.2-0.3,0.4-0.5,0.7-0.8c0.3,0.2,0.6,0.5,0.9,0.7c-0.2,0.3-0.4,0.5-0.7,0.8
			C94.4,298.2,94.2,297.9,93.9,297.7z"/>
		<path class="st1" d="M100.4,289.6c0.2-0.3,0.4-0.5,0.7-0.8C101.2,289.9,101.4,289.3,100.4,289.6z"/>
		<path class="st1" d="M113.6,273.6c0.2-0.3,0.4-0.5,0.7-0.8c0.3,0.2,0.6,0.5,0.9,0.7c-0.2,0.3-0.4,0.5-0.7,0.8
			C114.2,274.1,113.9,273.8,113.6,273.6z"/>
		<path class="st1" d="M126.8,257.5c0.2-0.3,0.4-0.5,0.7-0.8C127.6,257.8,127.8,257.1,126.8,257.5z"/>
		<path class="st1" d="M133.4,249.5c0.5-0.3,1-0.6,1.4-0.8C134.9,249.3,134.4,250.4,133.4,249.5z"/>
		<path class="st1" d="M68.6,337.5c0.2-0.3,0.4-0.5,0.7-0.8C69.4,337.8,69.6,337.1,68.6,337.5z"/>
		<path class="st1" d="M88.7,313c0.4,0.1,0.8,0.2,1.2,0.3c-0.1,0.1-0.2,0.3-0.3,0.4C89.3,313.5,89,313.2,88.7,313z"/>
		<path class="st1" d="M95.3,304.9c0.4,0.1,0.8,0.2,1.2,0.3c-0.1,0.1-0.2,0.3-0.3,0.4C95.9,305.4,95.6,305.2,95.3,304.9z"/>
		<path class="st1" d="M101.9,296.9c0.4,0.1,0.8,0.2,1.2,0.3c-0.1,0.1-0.2,0.3-0.3,0.4C102.5,297.4,102.2,297.1,101.9,296.9z"/>
		<path class="st1" d="M114.8,281.2c0.5-0.3,1-0.6,1.4-0.8c-0.1,0.1-0.2,0.3-0.3,0.4c-0.1,0.4-0.1,0.8-0.2,1.2
			C115.4,281.7,115.1,281.5,114.8,281.2z"/>
		<path class="st1" d="M121.7,272.8c0.4,0.1,0.8,0.2,1.2,0.3C122.1,273.7,121.3,273.6,121.7,272.8z"/>
		<path class="st1" d="M134.6,257.1c0.5-0.3,1-0.6,1.4-0.8C136,257,135.5,258,134.6,257.1z"/>
		<path class="st1" d="M141.5,248.7c0.4,0.1,0.8,0.2,1.2,0.3c-0.1,0.1-0.2,0.3-0.3,0.4C142.1,249.2,141.8,248.9,141.5,248.7z"/>
		<path class="st1" d="M70.1,344.7c0.4,0.1,0.8,0.2,1.2,0.3c-0.1,0.1-0.2,0.3-0.3,0.4C70.7,345.2,70.4,345,70.1,344.7z"/>
		<path class="st1" d="M76.7,336.7c0.4,0.1,0.8,0.2,1.2,0.3c-0.1,0.1-0.2,0.3-0.3,0.4C77.3,337.2,77,336.9,76.7,336.7z"/>
		<path class="st1" d="M83.3,328.7c0.4,0.1,0.8,0.2,1.2,0.3c-0.1,0.1-0.2,0.3-0.3,0.4C83.9,329.1,83.6,328.9,83.3,328.7z"/>
		<path class="st1" d="M96.5,312.6c0.4,0.1,0.8,0.2,1.2,0.3c-0.1,0.1-0.2,0.3-0.3,0.4C97.1,313.1,96.8,312.8,96.5,312.6z"/>
		<path class="st1" d="M103.1,304.6c0.4,0.1,0.8,0.2,1.2,0.3c-0.1,0.1-0.2,0.3-0.3,0.4C103.6,305,103.3,304.8,103.1,304.6z"/>
		<path class="st1" d="M109.6,296.5c0.2-0.3,0.4-0.5,0.7-0.8c0,0.3,0.1,0.5,0.1,0.8c0.1,0.1,0.3,0.2,0.4,0.4
			C110.5,296.7,110.1,296.6,109.6,296.5z"/>
		<path class="st1" d="M115.9,288.9c0.2-0.3,0.4-0.5,0.7-0.8c0.3,0.2,0.6,0.5,0.9,0.7c-0.2,0.3-0.4,0.5-0.7,0.8
			C116.5,289.4,116.2,289.1,115.9,288.9z"/>
		<path class="st1" d="M122.5,280.9c1.6-0.9,0.3-0.6,1.9-0.5c-0.3,0.4-0.7,0.8-1,1.2C123.1,281.3,122.8,281.1,122.5,280.9z"/>
		<path class="st1" d="M129.1,272.8c1.6-0.9,0.3-0.6,1.9-0.5c-0.3,0.4-0.7,0.8-1,1.2C129.7,273.3,129.4,273.1,129.1,272.8z"/>
		<path class="st1" d="M136,264.4c0.2-0.3,0.4-0.5,0.7-0.8c0,0.3,0.1,0.5,0.1,0.8c0.1,0.1,0.3,0.2,0.4,0.4
			C136.8,264.6,136.4,264.5,136,264.4z"/>
		<path class="st1" d="M142.3,256.8c1.6-0.9,0.3-0.6,1.9-0.5c-0.3,0.4-0.7,0.8-1,1.2C142.9,257.2,142.6,257,142.3,256.8z"/>
		<path class="st1" d="M148.9,248.7c0.2-0.3,0.4-0.5,0.7-0.8C149.7,249,149.9,248.3,148.9,248.7z"/>
		<path class="st1" d="M65.5,361.1c-0.3-0.2-0.6-0.5-0.9-0.7c0.4,0.1,0.8,0.2,1.2,0.3C65.7,360.9,65.6,361,65.5,361.1"/>
		<path class="st1" d="M77.8,344.3c0.4,0.1,0.8,0.2,1.2,0.3c-0.1,0.1-0.2,0.3-0.3,0.4C78.4,344.8,78.1,344.6,77.8,344.3z"/>
		<path class="st1" d="M84.1,336.7c0.5-0.3,1-0.6,1.4-0.8C85.5,336.6,85.1,337.6,84.1,336.7z"/>
		<path class="st1" d="M91,328.3c0.4,0.1,0.8,0.2,1.2,0.3c-0.1,0.1-0.2,0.3-0.3,0.4C91.6,328.8,91.3,328.5,91,328.3z"/>
		<path class="st1" d="M97.6,320.2c0.4,0.1,0.8,0.2,1.2,0.3c-0.1,0.1-0.2,0.3-0.3,0.4C98.2,320.7,97.9,320.5,97.6,320.2z"/>
		<path class="st1" d="M104.2,312.2c0.4,0.1,0.8,0.2,1.2,0.3c-0.1,0.1-0.2,0.3-0.3,0.4C104.8,312.7,104.5,312.5,104.2,312.2z"/>
		<path class="st1" d="M110.8,304.2c0.4,0.1,0.8,0.2,1.2,0.3c-0.1,0.1-0.2,0.3-0.3,0.4C111.4,304.7,111.1,304.4,110.8,304.2z"/>
		<path class="st1" d="M117.1,296.6c1.6-0.9,0.3-0.6,1.9-0.5c-0.3,0.4-0.7,0.8-1,1.2C117.6,297,117.3,296.8,117.1,296.6z"/>
		<path class="st1" d="M123.6,288.5c0.5-0.3,1-0.6,1.4-0.8c-0.1,0.1-0.2,0.3-0.3,0.4c-0.1,0.4-0.1,0.8-0.2,1.2
			C124.2,289,123.9,288.8,123.6,288.5z"/>
		<path class="st1" d="M130.2,280.5c1.6-0.9,0.3-0.6,1.9-0.5c-0.3,0.4-0.7,0.8-1,1.2C130.8,281,130.5,280.7,130.2,280.5z"/>
		<path class="st1" d="M136.8,272.5c0.5-0.3,1-0.6,1.4-0.8c-0.1,0.1-0.2,0.3-0.3,0.4c-0.1,0.4-0.1,0.8-0.2,1.2
			C137.4,272.9,137.1,272.7,136.8,272.5z"/>
		<path class="st1" d="M143.4,264.4c0.2-0.3,0.4-0.5,0.7-0.8C144.2,264.7,144.4,264,143.4,264.4z"/>
		<path class="st1" d="M150,256.4c0.2-0.3,0.4-0.5,0.7-0.8c0.3,0.2,0.6,0.5,0.9,0.7c-0.2,0.3-0.4,0.5-0.7,0.8
			C150.6,256.9,150.3,256.6,150,256.4z"/>
		<path class="st1" d="M156.6,248.4c0.5-0.3,1-0.6,1.4-0.8c-0.1,0.1-0.2,0.3-0.3,0.4c-0.1,0.4-0.1,0.8-0.2,1.2
			C157.2,248.8,156.9,248.6,156.6,248.4z"/>
		<path class="st1" d="M72.4,360c0.4,0.1,0.8,0.2,1.2,0.3c-0.1,0.1-0.2,0.3-0.3,0.4C72.9,360.5,72.7,360.3,72.4,360z"/>
		<path class="st1" d="M79,352c0.4,0.1,0.8,0.2,1.2,0.3c-0.1,0.1-0.2,0.3-0.3,0.4C79.5,352.5,79.2,352.2,79,352z"/>
		<path class="st1" d="M85.5,344c0.4,0.1,0.8,0.2,1.2,0.3c-0.1,0.1-0.2,0.3-0.3,0.4C86.1,344.5,85.8,344.2,85.5,344z"/>
		<path class="st1" d="M92.1,335.9c0.4,0.1,0.8,0.2,1.2,0.3c-0.1,0.1-0.2,0.3-0.3,0.4C92.7,336.4,92.4,336.2,92.1,335.9z"/>
		<path class="st1" d="M98.7,327.9c0.4,0.1,0.8,0.2,1.2,0.3c-0.1,0.1-0.2,0.3-0.3,0.4C99.3,328.4,99,328.1,98.7,327.9z"/>
		<path class="st1" d="M111.6,312.2c0.2-0.3,0.4-0.5,0.7-0.8C112.4,312.5,112.6,311.9,111.6,312.2z"/>
		<path class="st1" d="M118.2,304.2c0.5-0.3,1-0.6,1.4-0.8c-0.1,0.1-0.2,0.3-0.3,0.4c-0.1,0.4-0.1,0.8-0.2,1.2
			C118.8,304.7,118.5,304.4,118.2,304.2z"/>
		<path class="st1" d="M124.8,296.2c0.5-0.3,1-0.6,1.4-0.8c-0.1,0.1-0.2,0.3-0.3,0.4c-0.1,0.4-0.1,0.8-0.2,1.2
			C125.4,296.7,125.1,296.4,124.8,296.2z"/>
		<path class="st1" d="M131.4,288.1c0.5-0.3,1-0.6,1.4-0.8C132.8,288,132.4,289.1,131.4,288.1z"/>
		<path class="st1" d="M138.3,279.7c0.4,0.1,0.8,0.2,1.2,0.3c-0.1,0.1-0.2,0.3-0.3,0.4C138.9,280.2,138.6,279.9,138.3,279.7z"/>
		<path class="st1" d="M144.9,271.7c0.4,0.1,0.8,0.2,1.2,0.3c-0.1,0.1-0.2,0.3-0.3,0.4C145.5,272.2,145.2,271.9,144.9,271.7z"/>
		<path class="st1" d="M151.2,264c0.2-0.3,0.4-0.5,0.7-0.8c0.3,0.2,0.6,0.5,0.9,0.7c-0.2,0.3-0.4,0.5-0.7,0.8
			C151.8,264.5,151.5,264.3,151.2,264z"/>
		<path class="st1" d="M157.8,256c0.2-0.3,0.4-0.5,0.7-0.8c0.3,0.2,0.6,0.5,0.9,0.7c-0.2,0.3-0.4,0.5-0.7,0.8
			C158.3,256.5,158,256.3,157.8,256z"/>
		<path class="st1" d="M164.7,247.6c0.4,0.1,0.8,0.2,1.2,0.3c-0.1,0.1-0.2,0.3-0.3,0.4C165.3,248.1,165,247.8,164.7,247.6z"/>
		<path class="st1" d="M80.1,359.7c0.4,0.1,0.8,0.2,1.2,0.3c-0.1,0.1-0.2,0.3-0.3,0.4C80.7,360.1,80.4,359.9,80.1,359.7z"/>
		<path class="st1" d="M86.4,352c0.2-0.3,0.4-0.5,0.7-0.8C87.1,352.3,87.3,351.7,86.4,352z"/>
		<path class="st1" d="M93.3,343.6c0.4,0.1,0.8,0.2,1.2,0.3c-0.1,0.1-0.2,0.3-0.3,0.4C93.9,344.1,93.6,343.8,93.3,343.6z"/>
		<path class="st1" d="M106.5,327.5c0.4,0.1,0.8,0.2,1.2,0.3c-0.1,0.1-0.2,0.3-0.3,0.4C107.1,328,106.8,327.8,106.5,327.5z"/>
		<path class="st1" d="M113.1,319.5c0.4,0.1,0.8,0.2,1.2,0.3c-0.1,0.1-0.2,0.3-0.3,0.4C113.7,320,113.4,319.7,113.1,319.5z"/>
		<path class="st1" d="M119.3,311.9c0.2-0.3,0.4-0.5,0.7-0.8c0.3,0.2,0.6,0.5,0.9,0.7c-0.2,0.3-0.4,0.5-0.7,0.8
			C119.9,312.3,119.6,312.1,119.3,311.9z"/>
		<path class="st1" d="M125.9,303.8c0.5-0.3,1-0.6,1.4-0.8C127.3,303.7,126.9,304.7,125.9,303.8z"/>
		<path class="st1" d="M132.5,295.8c1.6-0.9,0.3-0.6,1.9-0.5c0,0.3,0.1,0.5,0.1,0.8c-0.3,0-0.5,0-0.8,0
			C133.3,296,132.9,295.9,132.5,295.8z"/>
		<path class="st1" d="M146,279.3c0.4,0.1,0.8,0.2,1.2,0.3c-0.1,0.1-0.2,0.3-0.3,0.4C146.6,279.8,146.3,279.6,146,279.3z"/>
		<path class="st1" d="M152.3,271.7c0.5-0.3,1-0.6,1.4-0.8c-0.1,0.1-0.2,0.3-0.3,0.4c-0.1,0.4-0.1,0.8-0.2,1.2
			C152.9,272.2,152.6,271.9,152.3,271.7z"/>
		<path class="st1" d="M165.5,255.6c0.2-0.3,0.4-0.5,0.7-0.8c0.3,0.2,0.6,0.5,0.9,0.7c-0.2,0.3-0.4,0.5-0.7,0.8
			C166.1,256.1,165.8,255.9,165.5,255.6z"/>
		<path class="st1" d="M172.1,247.6c0.2-0.3,0.4-0.5,0.7-0.8c0.3,0.2,0.6,0.5,0.9,0.7c-0.2,0.3-0.4,0.5-0.7,0.8
			C172.7,248.1,172.4,247.8,172.1,247.6z"/>
		<path class="st1" d="M87.8,359.3c0.4,0.1,0.8,0.2,1.2,0.3c-0.1,0.1-0.2,0.3-0.3,0.4C88.4,359.8,88.1,359.5,87.8,359.3z"/>
		<path class="st1" d="M94.1,351.7c0.5-0.3,1-0.6,1.4-0.8c-0.1,0.1-0.2,0.3-0.3,0.4c-0.1,0.4-0.1,0.8-0.2,1.2
			C94.7,352.1,94.4,351.9,94.1,351.7z"/>
		<path class="st1" d="M100.7,343.6c0.2-0.3,0.4-0.5,0.7-0.8C101.4,343.9,101.7,343.2,100.7,343.6z"/>
		<path class="st1" d="M107.3,335.6c0.2-0.3,0.4-0.5,0.7-0.8c0.3,0.2,0.6,0.5,0.9,0.7c-0.2,0.3-0.4,0.5-0.7,0.8
			C107.9,336.1,107.6,335.8,107.3,335.6z"/>
		<path class="st1" d="M114.2,327.2c0.4,0.1,0.8,0.2,1.2,0.3c-0.1,0.1-0.2,0.3-0.3,0.4C114.8,327.6,114.5,327.4,114.2,327.2z"/>
		<path class="st1" d="M120.5,319.5c0.2-0.3,0.4-0.5,0.7-0.8c0.3,0.2,0.6,0.5,0.9,0.7c-0.2,0.3-0.4,0.5-0.7,0.8
			C121.1,320,120.8,319.8,120.5,319.5z"/>
		<path class="st1" d="M127.1,311.5c0.5-0.3,1-0.6,1.4-0.8C128.5,311.3,128,312.4,127.1,311.5z"/>
		<path class="st1" d="M134,303.1c0.4,0.1,0.8,0.2,1.2,0.3c-0.1,0.1-0.2,0.3-0.3,0.4C134.6,303.5,134.3,303.3,134,303.1z"/>
		<path class="st1" d="M146.8,287.4c0.2-0.3,0.4-0.5,0.7-0.8C147.6,287.7,147.8,287,146.8,287.4z"/>
		<path class="st1" d="M153.4,279.4c0.2-0.3,0.4-0.5,0.7-0.8c0.3,0.2,0.6,0.5,0.9,0.7c-0.2,0.3-0.4,0.5-0.7,0.8
			C154,279.8,153.7,279.6,153.4,279.4z"/>
		<path class="st1" d="M160,271.3c0.2-0.3,0.4-0.5,0.7-0.8C160.8,271.6,161,270.9,160,271.3z"/>
		<path class="st1" d="M166.6,263.3c0.2-0.3,0.4-0.5,0.7-0.8c0.3,0.2,0.6,0.5,0.9,0.7c-0.2,0.3-0.4,0.5-0.7,0.8
			C167.2,263.8,166.9,263.5,166.6,263.3z"/>
		<path class="st1" d="M173.2,255.3c0.5-0.3,1-0.6,1.4-0.8C174.6,255.1,174.2,256.2,173.2,255.3z"/>
		<path class="st1" d="M179.8,247.2c0.2-0.3,0.4-0.5,0.7-0.8C180.6,247.5,180.8,246.8,179.8,247.2z"/>
		<path class="st1" d="M102.1,350.9c0.4,0.1,0.8,0.2,1.2,0.3c-0.1,0.1-0.2,0.3-0.3,0.4C102.7,351.4,102.4,351.1,102.1,350.9z"/>
		<path class="st1" d="M108.7,342.8c0.4,0.1,0.8,0.2,1.2,0.3c-0.1,0.1-0.2,0.3-0.3,0.4C109.3,343.3,109,343.1,108.7,342.8z"/>
		<path class="st1" d="M115,335.2c0.2-0.3,0.4-0.5,0.7-0.8c0.3,0.2,0.6,0.5,0.9,0.7c-0.2,0.3-0.4,0.5-0.7,0.8
			C115.6,335.7,115.3,335.5,115,335.2z"/>
		<path class="st1" d="M121.9,326.8c0.4,0.1,0.8,0.2,1.2,0.3c-0.1,0.1-0.2,0.3-0.3,0.4C122.5,327.3,122.2,327,121.9,326.8z"/>
		<path class="st1" d="M128.5,318.7c0.4,0.1,0.8,0.2,1.2,0.3c-0.1,0.1-0.2,0.3-0.3,0.4C129.1,319.2,128.8,319,128.5,318.7z"/>
		<path class="st1" d="M134.8,311.1c0.2-0.3,0.4-0.5,0.7-0.8c0.3,0.2,0.6,0.5,0.9,0.7c-0.2,0.3-0.4,0.5-0.7,0.8
			C135.4,311.6,135.1,311.4,134.8,311.1z"/>
		<path class="st1" d="M141.7,302.7c0.4,0.1,0.8,0.2,1.2,0.3c-0.1,0.1-0.2,0.3-0.3,0.4C142.3,303.2,142,302.9,141.7,302.7z"/>
		<path class="st1" d="M148,295c0.2-0.3,0.4-0.5,0.7-0.8C148.7,295.3,149,294.7,148,295z"/>
		<path class="st1" d="M154.6,287c1.6-0.9,0.3-0.6,1.9-0.5c-0.3,0.4-0.7,0.8-1,1.2C155.2,287.5,154.9,287.3,154.6,287z"/>
		<path class="st1" d="M161.5,278.6c0.4,0.1,0.8,0.2,1.2,0.3c-0.1,0.1-0.2,0.3-0.3,0.4C162.1,279.1,161.8,278.8,161.5,278.6z"/>
		<path class="st1" d="M167.8,270.9c0.2-0.3,0.4-0.5,0.7-0.8c0.3,0.2,0.6,0.5,0.9,0.7c-0.2,0.3-0.4,0.5-0.7,0.8
			C168.4,271.4,168.1,271.2,167.8,270.9z"/>
		<path class="st1" d="M174.4,262.9c0.5-0.3,1-0.6,1.4-0.8C175.8,262.8,175.3,263.8,174.4,262.9z"/>
		<path class="st1" d="M180.9,254.9c0.5-0.3,1-0.6,1.4-0.8c-0.1,0.1-0.2,0.3-0.3,0.4c-0.1,0.4-0.1,0.8-0.2,1.2
			C181.5,255.4,181.2,255.1,180.9,254.9z"/>
		<path class="st1" d="M188.2,246c0.3,0.2,0.6,0.5,0.9,0.7c-0.2,0.3-0.4,0.5-0.7,0.8c-0.3-0.2-0.6-0.5-0.9-0.7
			C187.8,246.6,188,246.3,188.2,246"/>
		<path class="st1" d="M188.6,253.7c1.7,0.3,1.1-0.2,1,1.5C189.2,254.7,188.9,254.2,188.6,253.7z"/>
		<path class="st1" d="M103.3,358.5c0.4,0.1,0.8,0.2,1.2,0.3c-0.1,0.1-0.2,0.3-0.3,0.4C103.9,359,103.6,358.8,103.3,358.5z"/>
		<path class="st1" d="M116.1,342.9c0.2-0.3,0.4-0.5,0.7-0.8c0.3,0.2,0.6,0.5,0.9,0.7c-0.2,0.3-0.4,0.5-0.7,0.8
			C116.7,343.4,116.4,343.1,116.1,342.9z"/>
		<path class="st1" d="M123.1,334.4c0.4,0.1,0.8,0.2,1.2,0.3c-0.1,0.1-0.2,0.3-0.3,0.4C123.7,334.9,123.4,334.7,123.1,334.4z"/>
		<path class="st1" d="M129.3,326.8c0.5-0.3,1-0.6,1.4-0.8c-0.1,0.1-0.2,0.3-0.3,0.4c-0.1,0.4-0.1,0.8-0.2,1.2
			C129.9,327.3,129.6,327,129.3,326.8z"/>
		<path class="st1" d="M135.9,318.8c0.2-0.3,0.4-0.5,0.7-0.8c0.3,0.2,0.6,0.5,0.9,0.7c-0.2,0.3-0.4,0.5-0.7,0.8
			C136.5,319.3,136.2,319,135.9,318.8z"/>
		<path class="st1" d="M142.8,310.3c0.4,0.1,0.8,0.2,1.2,0.3c-0.1,0.1-0.2,0.3-0.3,0.4C143.4,310.8,143.1,310.6,142.8,310.3z"/>
		<path class="st1" d="M162.3,286.6c0.5-0.3,1-0.6,1.4-0.8C163.7,286.5,163.3,287.5,162.3,286.6z"/>
		<path class="st1" d="M168.9,278.6c0.2-0.3,0.4-0.5,0.7-0.8c0.3,0.2,0.6,0.5,0.9,0.7c-0.2,0.3-0.4,0.5-0.7,0.8
			C169.5,279.1,169.2,278.8,168.9,278.6z"/>
		<path class="st1" d="M175.5,270.6c0.5-0.3,1-0.6,1.4-0.8c-0.1,0.1-0.2,0.3-0.3,0.4c-0.1,0.4-0.1,0.8-0.2,1.2
			C176.1,271.1,175.8,270.8,175.5,270.6z"/>
		<path class="st1" d="M182.1,262.5c0.2-0.3,0.4-0.5,0.7-0.8c0.3,0.2,0.6,0.5,0.9,0.7c-0.2,0.3-0.4,0.5-0.7,0.8
			C182.7,263,182.4,262.8,182.1,262.5z"/>
		<path class="st1" d="M111,358.2c0.4,0.1,0.8,0.2,1.2,0.3c-0.1,0.1-0.2,0.3-0.3,0.4C111.6,358.6,111.3,358.4,111,358.2z"/>
		<path class="st1" d="M130.8,334.1c0.4,0.1,0.8,0.2,1.2,0.3c-0.1,0.1-0.2,0.3-0.3,0.4C131.4,334.5,131.1,334.3,130.8,334.1z"/>
		<path class="st1" d="M137.1,326.4c0.2-0.3,0.4-0.5,0.7-0.8c0.3,0.2,0.6,0.5,0.9,0.7c-0.2,0.3-0.4,0.5-0.7,0.8
			C137.7,326.9,137.4,326.7,137.1,326.4z"/>
		<path class="st1" d="M143.7,318.4c0.2-0.3,0.4-0.5,0.7-0.8c0.3,0.2,0.6,0.5,0.9,0.7c-0.2,0.3-0.4,0.5-0.7,0.8
			C144.2,318.9,144,318.6,143.7,318.4z"/>
		<path class="st1" d="M163.4,294.3c0.5-0.3,1-0.6,1.4-0.8c-0.1,0.1-0.2,0.3-0.3,0.4c-0.1,0.4-0.1,0.8-0.2,1.2
			C164,294.8,163.7,294.5,163.4,294.3z"/>
		<path class="st1" d="M170.4,285.9c0.4,0.1,0.8,0.2,1.2,0.3c-0.1,0.1-0.2,0.3-0.3,0.4C171,286.3,170.7,286.1,170.4,285.9z"/>
		<path class="st1" d="M176.6,278.2c0.5-0.3,1-0.6,1.4-0.8c-0.1,0.1-0.2,0.3-0.3,0.4c-0.1,0.4-0.1,0.8-0.2,1.2
			C177.2,278.7,176.9,278.5,176.6,278.2z"/>
		<path class="st1" d="M183.2,270.2c0.2-0.3,0.4-0.5,0.7-0.8c0.3,0.2,0.6,0.5,0.9,0.7c-0.2,0.3-0.4,0.5-0.7,0.8
			C183.8,270.7,183.5,270.4,183.2,270.2z"/>
		<path class="st1" d="M190.1,261.8c0.4,0.1,0.8,0.2,1.2,0.3c-0.1,0.1-0.2,0.3-0.3,0.4C190.7,262.2,190.4,262,190.1,261.8z"/>
		<path class="st1" d="M196.4,254.1c0.5-0.3,1-0.6,1.4-0.8c-0.1,0.1-0.2,0.3-0.3,0.4c-0.1,0.4-0.1,0.8-0.2,1.2
			C197,254.6,196.7,254.4,196.4,254.1z"/>
		<path class="st1" d="M118.7,357.8c0.4,0.1,0.8,0.2,1.2,0.3c-0.1,0.1-0.2,0.3-0.3,0.4C119.3,358.3,119,358,118.7,357.8z"/>
		<path class="st1" d="M125,350.1c0.5-0.3,1-0.6,1.4-0.8c-0.1,0.1-0.2,0.3-0.3,0.4c-0.1,0.4-0.1,0.8-0.2,1.2
			C125.6,350.6,125.3,350.4,125,350.1z"/>
		<path class="st1" d="M131.9,341.7c0.4,0.1,0.8,0.2,1.2,0.3c-0.1,0.1-0.2,0.3-0.3,0.4C132.5,342.2,132.2,342,131.9,341.7z"/>
		<path class="st1" d="M138.2,334.1c0.5-0.3,1-0.6,1.4-0.8c-0.1,0.1-0.2,0.3-0.3,0.4c-0.1,0.4-0.1,0.8-0.2,1.2
			C138.8,334.6,138.5,334.3,138.2,334.1z"/>
		<path class="st1" d="M144.8,326c0.2-0.3,0.4-0.5,0.7-0.8c0.3,0.2,0.6,0.5,0.9,0.7c-0.2,0.3-0.4,0.5-0.7,0.8
			C145.4,326.5,145.1,326.3,144.8,326z"/>
		<path class="st1" d="M151.4,318c0.2-0.3,0.4-0.5,0.7-0.8c0.3,0.2,0.6,0.5,0.9,0.7c-0.2,0.3-0.4,0.5-0.7,0.8
			C152,318.5,151.7,318.3,151.4,318z"/>
		<path class="st1" d="M158,310c1.6-0.9,0.3-0.6,1.9-0.5c-0.3,0.4-0.7,0.8-1,1.2C158.6,310.5,158.3,310.2,158,310z"/>
		<path class="st1" d="M164.9,301.5c0.4,0.1,0.8,0.2,1.2,0.3c-0.1,0.1-0.2,0.3-0.3,0.4C165.5,302,165.2,301.8,164.9,301.5z"/>
		<path class="st1" d="M171.2,293.9c0.2-0.3,0.4-0.5,0.7-0.8C171.9,294.2,172.2,293.5,171.2,293.9z"/>
		<path class="st1" d="M177.8,285.9c0.5-0.3,1-0.6,1.4-0.8C179.2,285.7,178.7,286.8,177.8,285.9z"/>
		<path class="st1" d="M184.4,277.8c0.5-0.3,1-0.6,1.4-0.8c-0.1,0.1-0.2,0.3-0.3,0.4c-0.1,0.4-0.1,0.8-0.2,1.2
			C185,278.3,184.7,278.1,184.4,277.8z"/>
		<path class="st1" d="M191,269.8c0.5-0.3,1-0.6,1.4-0.8c-0.1,0.1-0.2,0.3-0.3,0.4c-0.1,0.4-0.1,0.8-0.2,1.2
			C191.5,270.3,191.3,270.1,191,269.8z"/>
		<path class="st1" d="M197.5,261.8c1.6-0.9,0.3-0.6,1.9-0.5c-0.3,0.4-0.7,0.8-1,1.2C198.1,262.3,197.8,262,197.5,261.8z"/>
		<path class="st1" d="M126.5,357.4c0.4,0.1,0.8,0.2,1.2,0.3c-0.1,0.1-0.2,0.3-0.3,0.4C127.1,357.9,126.8,357.6,126.5,357.4z"/>
		<path class="st1" d="M132.7,349.8c0.2-0.3,0.4-0.5,0.7-0.8C133.5,350.1,133.7,349.4,132.7,349.8z"/>
		<path class="st1" d="M139.3,341.7c0.2-0.3,0.4-0.5,0.7-0.8c0.3,0.2,0.6,0.5,0.9,0.7c-0.2,0.3-0.4,0.5-0.7,0.8
			C139.9,342.2,139.6,342,139.3,341.7z"/>
		<path class="st1" d="M145.9,333.7c0.2-0.3,0.4-0.5,0.7-0.8C146.7,334,146.9,333.3,145.9,333.7z"/>
		<path class="st1" d="M152.9,325.3c0.4,0.1,0.8,0.2,1.2,0.3c-0.1,0.1-0.2,0.3-0.3,0.4C153.4,325.8,153.2,325.5,152.9,325.3z"/>
		<path class="st1" d="M159.1,317.6c0.5-0.3,1-0.6,1.4-0.8c-0.1,0.1-0.2,0.3-0.3,0.4c-0.1,0.4-0.1,0.8-0.2,1.2
			C159.7,318.1,159.4,317.9,159.1,317.6z"/>
		<path class="st1" d="M166,309.2c0.4,0.1,0.8,0.2,1.2,0.3c-0.1,0.1-0.2,0.3-0.3,0.4C166.6,309.7,166.3,309.4,166,309.2z"/>
		<path class="st1" d="M172.3,301.6c0.2-0.3,0.4-0.5,0.7-0.8C173.1,301.9,173.3,301.2,172.3,301.6z"/>
		<path class="st1" d="M178.9,293.5c0.2-0.3,0.4-0.5,0.7-0.8C179.7,293.8,179.9,293.2,178.9,293.5z"/>
		<path class="st1" d="M185.5,285.5c0.5-0.3,1-0.6,1.4-0.8C186.9,285.4,186.5,286.4,185.5,285.5z"/>
		<path class="st1" d="M192.4,277.1c0.4,0.1,0.8,0.2,1.2,0.3c-0.1,0.1-0.2,0.3-0.3,0.4C193,277.6,192.7,277.3,192.4,277.1z"/>
		<path class="st1" d="M198.7,269.4c0.5-0.3,1-0.6,1.4-0.8c-0.1,0.1-0.2,0.3-0.3,0.4c-0.1,0.4-0.1,0.8-0.2,1.2
			C199.3,269.9,199,269.7,198.7,269.4z"/>
		<path class="st1" d="M133.9,357.4c0.2-0.3,0.4-0.5,0.7-0.8C134.6,357.7,134.9,357,133.9,357.4z"/>
		<path class="st1" d="M140.8,349c0.4,0.1,0.8,0.2,1.2,0.3c-0.1,0.1-0.2,0.3-0.3,0.4C141.4,349.5,141.1,349.2,140.8,349z"/>
		<path class="st1" d="M147.1,341.4c0.2-0.3,0.4-0.5,0.7-0.8C147.8,341.6,148.1,341,147.1,341.4z"/>
		<path class="st1" d="M154,332.9c0.4,0.1,0.8,0.2,1.2,0.3c-0.1,0.1-0.2,0.3-0.3,0.4C154.6,333.4,154.3,333.2,154,332.9z"/>
		<path class="st1" d="M160.3,325.3c0.5-0.3,1-0.6,1.4-0.8c-0.1,0.1-0.2,0.3-0.3,0.4c-0.1,0.4-0.1,0.8-0.2,1.2
			C160.8,325.8,160.6,325.5,160.3,325.3z"/>
		<path class="st1" d="M166.9,317.3c0.5-0.3,1-0.6,1.4-0.8c-0.1,0.1-0.2,0.3-0.3,0.4c-0.1,0.4-0.1,0.8-0.2,1.2
			C167.4,317.7,167.1,317.5,166.9,317.3z"/>
		<path class="st1" d="M180,301.2c0.5-0.3,1-0.6,1.4-0.8c-0.1,0.1-0.2,0.3-0.3,0.4c-0.1,0.4-0.1,0.8-0.2,1.2
			C180.6,301.7,180.3,301.4,180,301.2z"/>
		<path class="st1" d="M186.6,293.2c1.6-0.9,0.3-0.6,1.9-0.5c-0.3,0.4-0.7,0.8-1,1.2C187.2,293.6,186.9,293.4,186.6,293.2z"/>
		<path class="st1" d="M193.2,285.1c0.5-0.3,1-0.6,1.4-0.8C194.7,285,194.2,286,193.2,285.1z"/>
		<path class="st1" d="M199.8,277.1c1.6-0.9,0.3-0.6,1.9-0.5c-0.3,0.4-0.7,0.8-1,1.2C200.4,277.6,200.1,277.3,199.8,277.1z"/>
		<path class="st1" d="M167.9,324.2c1.1-0.1,0.7-0.1,2,0.3C168,325,169.3,325,167.9,324.2z"/>
		<path class="st1" d="M148.2,349c0.2-0.3,0.4-0.5,0.7-0.8C149,349.3,149.2,348.6,148.2,349z"/>
		<path class="st1" d="M154.8,341c0.5-0.3,1-0.6,1.4-0.8c-0.1,0.1-0.2,0.3-0.3,0.4c-0.1,0.4-0.1,0.8-0.2,1.2
			C155.4,341.5,155.1,341.2,154.8,341z"/>
		<path class="st1" d="M161.7,332.6c0.4,0.1,0.8,0.2,1.2,0.3c-0.1,0.1-0.2,0.3-0.3,0.4C162.3,333,162,332.8,161.7,332.6z"/>
		<path class="st1" d="M174.9,316.5c0.4,0.1,0.8,0.2,1.2,0.3c-0.1,0.1-0.2,0.3-0.3,0.4C175.5,317,175.2,316.7,174.9,316.5z"/>
		<path class="st1" d="M181.2,308.9c0.2-0.3,0.4-0.5,0.7-0.8C181.9,309.1,182.2,308.5,181.2,308.9z"/>
		<path class="st1" d="M188.1,300.4c0.2-0.3,0.4-0.5,0.7-0.8c0,0.3,0.1,0.5,0.1,0.8c0.1,0.1,0.3,0.2,0.4,0.4
			C188.9,300.6,188.5,300.5,188.1,300.4z"/>
		<path class="st1" d="M194.4,292.8c0.2-0.3,0.4-0.5,0.7-0.8c0.3,0.2,0.6,0.5,0.9,0.7c-0.2,0.3-0.4,0.5-0.7,0.8
			C195,293.3,194.7,293,194.4,292.8z"/>
		<path class="st1" d="M201,284.8c0.5-0.3,1-0.6,1.4-0.8c-0.1,0.1-0.2,0.3-0.3,0.4c-0.1,0.4-0.1,0.8-0.2,1.2
			C201.6,285.2,201.3,285,201,284.8z"/>
		<path class="st1" d="M142.7,364.7c0.2-0.3,0.4-0.5,0.7-0.8C143.5,365,143.7,364.3,142.7,364.7"/>
		<path class="st1" d="M149.7,356.3c0.4,0.1,0.8,0.2,1.2,0.3c-0.1,0.1-0.2,0.3-0.3,0.4C150.3,356.8,150,356.5,149.7,356.3z"/>
		<path class="st1" d="M162.9,340.2c0.2-0.3,0.4-0.5,0.7-0.8c0,0.3,0.1,0.5,0.1,0.8c0.1,0.1,0.3,0.2,0.4,0.4
			C163.7,340.4,163.3,340.3,162.9,340.2z"/>
		<path class="st1" d="M169.1,332.6c0.2-0.3,0.4-0.5,0.7-0.8c0.3,0.2,0.6,0.5,0.9,0.7c-0.2,0.3-0.4,0.5-0.7,0.8
			C169.7,333.1,169.4,332.8,169.1,332.6z"/>
		<path class="st1" d="M175.7,324.5c0.5-0.3,1-0.6,1.4-0.8C177.2,324.4,176.7,325.5,175.7,324.5z"/>
		<path class="st1" d="M182.6,316.1c0.4,0.1,0.8,0.2,1.2,0.3c-0.1,0.1-0.2,0.3-0.3,0.4C183.2,316.6,182.9,316.3,182.6,316.1z"/>
		<path class="st1" d="M189.2,308.1c0.2-0.3,0.4-0.5,0.7-0.8c0,0.3,0.1,0.5,0.1,0.8c0.1,0.1,0.3,0.2,0.4,0.4
			C190.1,308.3,189.6,308.2,189.2,308.1z"/>
		<path class="st1" d="M195.5,300.4c0.5-0.3,1-0.6,1.4-0.8C196.9,300.3,196.5,301.4,195.5,300.4z"/>
		<path class="st1" d="M202.1,292.4c0.2-0.3,0.4-0.5,0.7-0.8C202.9,292.7,203.1,292,202.1,292.4z"/>
		<path class="st1" d="M183.3,323.4c0.6,0.2,1.1,0.5,1.7,0.7c-0.2,0.3-0.4,0.5-0.7,0.8C184,324.4,183.7,323.9,183.3,323.4z"/>
		<path class="st1" d="M150.8,363.9c0.4,0.1,0.8,0.2,1.2,0.3c-0.1,0.1-0.2,0.3-0.3,0.4C151.4,364.4,151.1,364.2,150.8,363.9z"/>
		<path class="st1" d="M157.1,356.3c0.2-0.3,0.4-0.5,0.7-0.8C157.8,356.6,158.1,355.9,157.1,356.3z"/>
		<path class="st1" d="M170.3,340.2c0.2-0.3,0.4-0.5,0.7-0.8C171,340.5,171.3,339.9,170.3,340.2z"/>
		<path class="st1" d="M176.9,332.2c0.5-0.3,1-0.6,1.4-0.8c-0.1,0.1-0.2,0.3-0.3,0.4c-0.1,0.4-0.1,0.8-0.2,1.2
			C177.4,332.7,177.2,332.4,176.9,332.2z"/>
		<path class="st1" d="M190,316.1c0.2-0.3,0.4-0.5,0.7-0.8C190.8,316.4,191,315.8,190,316.1z"/>
		<path class="st1" d="M196.6,308.1c0.2-0.3,0.4-0.5,0.7-0.8C197.4,308.4,197.6,307.7,196.6,308.1z"/>
		<path class="st1" d="M203.2,300.1c0.2-0.3,0.4-0.5,0.7-0.8c0.3,0.2,0.6,0.5,0.9,0.7c-0.2,0.3-0.4,0.5-0.7,0.8
			C203.8,300.6,203.5,300.3,203.2,300.1z"/>
		<path class="st1" d="M158.2,364c0.2-0.3,0.4-0.5,0.7-0.8C159,364.2,159.2,363.6,158.2,364z"/>
		<path class="st1" d="M164.8,355.9c0.2-0.3,0.4-0.5,0.7-0.8C165.6,356.2,165.8,355.5,164.8,355.9z"/>
		<path class="st1" d="M171.4,347.9c0.2-0.3,0.4-0.5,0.7-0.8c0.3,0.2,0.6,0.5,0.9,0.7c-0.2,0.3-0.4,0.5-0.7,0.8
			C172,348.4,171.7,348.1,171.4,347.9z"/>
		<path class="st1" d="M178,339.9c0.2-0.3,0.4-0.5,0.7-0.8c0.3,0.2,0.6,0.5,0.9,0.7c-0.2,0.3-0.4,0.5-0.7,0.8
			C178.6,340.3,178.3,340.1,178,339.9z"/>
		<path class="st1" d="M184.6,331.8c1.6-0.9,0.3-0.6,1.9-0.5c-0.3,0.4-0.7,0.8-1,1.2C185.2,332.3,184.9,332.1,184.6,331.8z"/>
		<path class="st1" d="M191.2,323.8c0.2-0.3,0.4-0.5,0.7-0.8C192,324.1,192.2,323.4,191.2,323.8z"/>
		<path class="st1" d="M205.8,306.9c0,0.7-0.5,1.8-1.4,0.8C204.9,307.4,205.3,307.2,205.8,306.9"/>
		<path class="st1" d="M185.3,339.1c1.1-0.1,0.7-0.1,2,0.3c-0.2,0.3-0.4,0.5-0.7,0.8C186.2,339.8,185.7,339.5,185.3,339.1z"/>
		<path class="st1" d="M166.3,363.2c0.4,0.1,0.8,0.2,1.2,0.3c-0.1,0.1-0.2,0.3-0.3,0.4C166.9,363.7,166.6,363.4,166.3,363.2z"/>
		<path class="st1" d="M172.5,355.5c0.2-0.3,0.4-0.5,0.7-0.8C173.3,355.8,173.5,355.2,172.5,355.5z"/>
		<path class="st1" d="M179.1,347.5c0.2-0.3,0.4-0.5,0.7-0.8c0.3,0.2,0.6,0.5,0.9,0.7c-0.2,0.3-0.4,0.5-0.7,0.8
			C179.7,348,179.4,347.8,179.1,347.5z"/>
		<path class="st1" d="M192.3,331.4c0.5-0.3,1-0.6,1.4-0.8c-0.1,0.1-0.2,0.3-0.3,0.4c-0.1,0.4-0.1,0.8-0.2,1.2
			C192.9,331.9,192.6,331.7,192.3,331.4z"/>
		<path class="st1" d="M198.9,323.4c0.5-0.3,1-0.6,1.4-0.8c-0.1,0.1-0.2,0.3-0.3,0.4c-0.1,0.4-0.1,0.8-0.2,1.2
			C199.5,323.9,199.2,323.7,198.9,323.4z"/>
		<path class="st1" d="M206.2,314.6c0.1,1.1,0.3,0.4-0.7,0.8C205.7,315.1,205.9,314.8,206.2,314.6"/>
		<path class="st1" d="M193,338.7c0.5-0.3,1-0.6,1.4-0.8c0.3,0.2,0.6,0.5,0.9,0.7c-0.3,0.4-0.7,0.8-1,1.2
			C193.9,339.5,193.5,339.1,193,338.7z"/>
		<path class="st1" d="M174,362.8c0.4,0.1,0.8,0.2,1.2,0.3c-0.1,0.1-0.2,0.3-0.3,0.4C174.6,363.3,174.3,363,174,362.8z"/>
		<path class="st1" d="M180.3,355.2c0.2-0.3,0.4-0.5,0.7-0.8c0.1,0.1,0.3,0.2,0.4,0.4C181,354.9,180.6,355,180.3,355.2z"/>
		<path class="st1" d="M186.9,347.1c0.2-0.3,0.4-0.5,0.7-0.8c0.3,0.2,0.6,0.5,0.9,0.7c-0.2,0.3-0.4,0.5-0.7,0.8
			C187.5,347.6,187.2,347.4,186.9,347.1z"/>
		<path class="st1" d="M200.1,331.1c0.5-0.3,1-0.6,1.4-0.8c-0.1,0.1-0.2,0.3-0.3,0.4c-0.1,0.4-0.1,0.8-0.2,1.2
			C200.6,331.6,200.3,331.3,200.1,331.1z"/>
		<path class="st1" d="M181.4,362.8c0.2-0.3,0.4-0.5,0.7-0.8c0.3,0.2,0.6,0.5,0.9,0.7c-0.2,0.3-0.4,0.5-0.7,0.8
			C182,363.3,181.7,363.1,181.4,362.8z"/>
		<path class="st1" d="M188,354.8c0.5-0.3,1-0.6,1.4-0.8c-0.1,0.1-0.2,0.3-0.3,0.4c-0.1,0.4-0.1,0.8-0.2,1.2
			C188.6,355.3,188.3,355,188,354.8z"/>
		<path class="st1" d="M194.6,346.8c0.5-0.3,1-0.6,1.4-0.8c-0.1,0.1-0.2,0.3-0.3,0.4c-0.1,0.4-0.1,0.8-0.2,1.2
			C195.2,347.2,194.9,347,194.6,346.8z"/>
		<path class="st1" d="M201.2,338.7c0.5-0.3,1-0.6,1.4-0.8c-0.1,0.1-0.2,0.3-0.3,0.4c-0.1,0.4-0.1,0.8-0.2,1.2
			C201.8,339.2,201.5,339,201.2,338.7z"/>
		<path class="st1" d="M202.2,345.6c1.1-0.1,0.7-0.1,2,0.3c-0.3,0.4-0.7,0.8-1,1.2C202.9,346.6,202.5,346.1,202.2,345.6z"/>
		<path class="st1" d="M189.1,362.4c0.2-0.3,0.4-0.5,0.7-0.8c0.3,0.2,0.6,0.5,0.9,0.7c-0.2,0.3-0.4,0.5-0.7,0.8
			C189.7,362.9,189.4,362.7,189.1,362.4z"/>
		<path class="st1" d="M195.7,354.4c0.5-0.3,1-0.6,1.4-0.8c-0.1,0.1-0.2,0.3-0.3,0.4c-0.1,0.4-0.1,0.8-0.2,1.2
			C196.3,354.9,196,354.7,195.7,354.4z"/>
		<path class="st1" d="M196.9,362.1c0.5-0.3,1-0.6,1.4-0.8c-0.1,0.1-0.2,0.3-0.3,0.4c-0.1,0.4-0.1,0.8-0.2,1.2
			C197.5,362.6,197.2,362.3,196.9,362.1z"/>
		<path class="st1" d="M203.5,354c0.5-0.3,1-0.6,1.4-0.8c-0.1,0.1-0.2,0.3-0.3,0.4c-0.1,0.4-0.1,0.8-0.2,1.2
			C204.1,354.5,203.8,354.3,203.5,354z"/>
		<path class="st1" d="M204.6,361.7c0.5-0.3,1-0.6,1.4-0.8c-0.1,0.1-0.2,0.3-0.3,0.4c-0.1,0.4-0.1,0.8-0.2,1.2
			C205.2,362.2,204.9,361.9,204.6,361.7z"/>
	</g>
	<path class="st2" d="M121.6,73.9c0.2-0.1,0.4-0.2,0.6-0.2c-0.1,0.5-0.1,1-0.2,1.5C121.9,74.7,121.8,74.3,121.6,73.9z"/>
	<g>
		<path class="st0" d="M77,342.1c-0.4,1-1,0-1.4-0.1c-2.6-1.1-4.4-3-5.1-5.8c-0.2-0.8-0.4-1.7-0.4-2.5c-0.1-2.7,0-5.4,0-8.2
			c0-0.8-0.1-1.6,1.4-1.7c-0.6-0.4-1-0.6-1.3-0.9c0-3.2,0-6.4,0-9.6c0-0.5-0.1-1-0.1-1.4c0-2.4,0-4.9,0-7.3c0-0.5,0.3-0.9,0.4-1.4
			c-0.1-0.2-0.4-0.6-0.4-0.9c0-5.5,0-11.1,0-16.6c0-0.4,0.3-0.8,0.4-1.3c-0.1-0.4-0.4-1-0.4-1.7c0-2.4,0.2-4.7,0.2-7.1
			c0-1.3-0.2-2.6-0.2-3.9c0.2-4,2.8-7.4,6.8-8.5c0.4-0.1,0.9-0.3,1.2,0.3c0.1,0.2,0.5,0.3,0.9,0.3c-0.1-0.2-0.2-0.3-0.4-0.6
			c0.3-0.1,0.5-0.3,0.7-0.3c2.1,0,4.2,0.2,6.3,0.2c2,0,4-0.1,6.1-0.2c0.4,0,0.8,0.3,1.1,0.4c0.3,0.1,0.8,0.2,1,0.1
			c1.3-0.9,2.7-0.3,4-0.5c0.1,0.3,0.2,0.6,0.2,0.6c0.6-0.2,1.2-0.5,1.7-0.5c4.8,0,9.6,0,14.4,0c3.3,0,6.6,0,9.9,0
			c0.6,0,1.4-0.4,1.9,0.4c0,0,0.2,0,0.3,0c1.3-0.6,2.5-0.5,3.8-0.1c0.1,0,0.3-0.1,0.5-0.1c1-0.2,2-0.5,2.6,0.4
			c0.9-0.2,1.7-0.5,2.4-0.5c3-0.1,6,0,9,0c1.8,0,3.7,0,5.5,0c3.5,0,6.4,1.3,8.3,4.2c0.2,0.3,0.8,0.8,0.2,1.1
			c0.3,0.6,0.8,1.2,0.9,1.8c0.2,1.5,0,3,0.2,4.4c0.2,1-0.3,1.2-1,1.3c-0.1,0-0.3,0.1-0.6,0.2c0.7,0.2,1.1,0.4,1.6,0.6
			c0,0.4,0,0.8,0,1.3c-0.3-0.1-0.6-0.2-1.1-0.3c1.4,1.5,1.3,3.2,1,4.8c0,0.2-0.1,0.5-0.1,0.7c0,0.3,0,0.6,0,0.9c0,6.8,0,13.6,0,20.4
			c0,3.4,0,6.8,0,10.1c-0.5,0.2-0.9,0.4-1.5,0.7c0.6,0.8,1.9,0.9,1.6,2.3c-0.3,0.9,0.3,2.1-1.1,2.9c0.5,0,0.7,0.1,1,0.1
			c0.1,1.9,0.2,3.8,0.3,5.6c0.1,1.4,0.3,2.9,0.2,4.3c-0.2,3.1,0.1,6.3-2,8.9c-0.6,0.7-1.3,1.3-2,1.9c-0.8,0.6-1.6,1-2.4,1.5
			c-1.3-0.8,0.2-1.1,0.2-1.6c-0.6-0.2-1.1-0.2-1,0.5c0.1,0.5-0.2,0.4-0.4,0.5c-0.9,0.6-1.8,1.1-3,1.1c-3.2-0.1-6.4-0.1-9.6-0.1
			c-0.9,0-1.8-0.3-2.7-0.2c-0.8,0-1.5,0.3-2.4,0.5c0.3-1,0.4-1.7,0.6-2.5c-0.1,0-0.2-0.1-0.3-0.1c-0.6,0.8-1.1,1.5-1.8,2.4
			c-2,0-4.2,0-6.4,0c-4.6,0-9.2,0-13.7,0c-0.4,0-0.8-0.3-1.2-0.3c-0.3,0-0.6,0.3-0.9,0.3c-1,0-1.9,0-2.9,0c-0.2-0.3-0.3-0.6-0.5-0.9
			c-0.2,0.2-0.4,0.5-0.7,0.7c0,0.1,0,0.2,0.1,0.3c-1.4-0.2-2.7-0.3-4.1-0.5c-0.1,0-0.3,0-0.4,0.1c-0.2,0.1-0.4,0.2-0.6,0.2
			c-1.8-0.3-3.5,0.2-5.3,0c-1.9-0.1-3.8,0-5.7,0c-1.9,0-3.7,0-5.6,0c-0.5,0-1-0.4-1.5-0.4c-0.4,0-0.9,0.4-1.3,0.4
			c-1.5,0-3-0.1-4.6-0.3C77.6,342.7,77.3,342.4,77,342.1z M80.7,322.8c0.7,0.3,1.3,0.7,1.9,0.7c1.7,0.1,3.4-0.1,5.1-0.1
			c0.4,0,0.8,0.3,1,0.4c0.6-0.1,1.2-0.4,1.8-0.4c1.2,0,2.5,0.2,3.7,0.2c3.3-0.1,6.6-0.2,9.8-0.3c0,0.5,0,0.9,0.1,1.3
			c0.4-0.3,0.8-0.6,1.3-1c0.4,0,1.2-0.1,1.9-0.1c2,0,4,0,5.9,0c2.3,0.1,4.6,0.2,6.9,0.3c1.8,0,3.6-0.2,5.3-0.2
			c0.3,0,0.6,0.3,0.7,0.3c0.5-0.1,0.8-0.3,1.2-0.3c2.2,0,4.4-0.1,6.7,0c1.9,0.1,3.8-0.4,5.6,0.5c0.1,0.1,0.3,0,0.6,0
			c-0.2-0.2-0.3-0.3-0.4-0.5c1.8,0,3.4,0,5,0c-0.1,0.3-0.2,0.6-0.2,0.9c0.1,0.1,0.1,0.1,0.2,0.2c0.5-0.9,1.3-1.1,2.2-1.1
			c2.1-0.1,2.7-0.6,3-2.4c0.2-0.7,0.5-1.5,0.3-2.2c-0.4-1.5-0.4-3-0.4-4.5c0-1.6,0.1-3.2,0.2-4.8c0-1.2,0-2.3,0-3.5
			c0-0.2,0.2-0.4,0.3-0.6c0.1-0.3,0.2-0.5,0.5-1c-0.4,0.2-0.6,0.3-0.9,0.5c0.2-2.1-0.4-4.2,0.5-6.2c-0.1-0.1-0.1-0.1-0.2-0.2
			c-0.1,0.2-0.2,0.5-0.3,0.7c-0.1,0-0.1-0.1-0.2-0.1c0.3-1.8,0.3-3.5,0-5.2c-0.2-1.1,0.1-2.3,0.1-3.5c0-1,0.1-2,0-3
			c0-0.5-0.1-1,0-1.6c0.2-1.7-0.2-3.5-2.3-3.6c-0.7,0-1.5-0.2-2.2-0.2c-1.4,0-2.7-0.4-4.1-0.1c-1.4,0.3-2.9,0.1-4.4,0.1
			c-0.4,0-0.9-0.4-1.3-0.3c-1.2,0.1-2.4,0.3-3.7,0.5c0-0.7,0-1.1,0-1.6c-0.5,1.5-1.6,1.4-2.9,1.4c-3.5-0.1-6.9-0.2-10.4-0.2
			c-3.3,0-6.6,0.1-9.8,0.1c-0.3,0-0.6,0-0.9-0.1c0.1-0.2,0.1-0.4,0.1-0.5c-0.5,0-1.3-0.1-1.3,0c-0.2,1-0.9,0.6-1.4,0.6
			c-1.2,0.1-2.4,0-3.7,0c-0.8,0-1.4-0.2-1.7-1c-1.4,0.9-2.7,1.8-4.2,0.2c0.1,0.2,0.1,0.5,0.2,0.7c-2.2,0-4.5,0-6.7,0
			c-0.1-0.3-0.2-0.5-0.3-0.8c0,0-0.1,0-0.1,0.1c0,0.2,0,0.4,0,0.7c-1.7,0-3.5,0-5.4,0c1.1-0.9,0.2-1.1-0.5-1.3
			c0.1,0.4,0.2,0.9,0.4,1.5c-0.6,0-1.3,0.1-2.3,0.1c-0.1,0.5-0.3,1.2-0.4,1.9c-0.1,1,0,1.9,0,2.9c0,0.3-0.3,0.6-0.4,0.9
			c0.1,0.5,0.4,1,0.4,1.6c0,2.5,0,4.9,0,7.4c0,0.6,0.2,1.3-0.9,1.4c1.2,0.5,1.2,1.2,0.2,2c1.1-0.3,0.7,0.4,0.7,0.8c0,3.5,0,7,0,10.5
			c0,2.8,0,5.6,0,8.5c0,0.3-0.3,0.5-0.5,0.8C81,321.1,80.4,322.1,80.7,322.8z M85.8,330.2c-1.2,0-2.2,0-3.5,0c0.7-0.7,1.4-1,0.8-1.9
			c-0.6,0.6-1.1,1.2-1.7,1.9c0.1,0-0.2,0-0.4,0c-1.1,0-1.3,0.2-1.2,1.4c0,0.3,0.1,0.7,0,1c-0.1,0.4-0.3,0.7-0.5,1.1
			c0.2,0.5,0.4,1.2,0.6,1.8c0.2,0.5,0.5,0.6,1,0.6c1.7,0,3.4,0,5,0C85.8,334.2,85.8,332.3,85.8,330.2z M133.8,336
			c-0.2-0.9,0.2-1.3,1-1.4c0.2,0,0.4-0.4,0.6-0.5c-0.1,0-0.1-0.1-0.2-0.1c-0.5,0.1-0.9,0.2-1.5,0.3c0.3-1.4-0.5-2.8,0.6-4
			c-2.1,0-4.1,0-6.2,0c-0.2,1.3-0.4,2.4-0.6,3.6c0.5,0.3,0.5,0.4,0.4,1c-0.1,0.3,0,0.7,0.1,0.9c0.1,0.2,0.4,0.3,0.6,0.4
			c1,0.3,2.2-0.6,2.9,0.7c0,0,0.4,0,0.4-0.1C132.2,335.8,133,336.3,133.8,336z M96.1,330c-0.1,0.4-0.2,0.9-0.3,1.4c0,1,0,2,0,3
			c0,0.5-0.3,0.9-0.3,1.4c0,0.2,0.3,0.6,0.5,0.6c1,0,2-0.1,3.1-0.1c1.3,0,2.6,0.3,3.3-1.2c0-0.1,0-0.1,0.1-0.3
			c-0.8,0.1-0.6-0.5-0.6-0.9c0-1.2,0-2.3,0-3.6c-1.2,0-2.3,0-3.3,0c-0.3-0.4-0.5-0.8-0.9-1.3c-0.1,0.6-0.1,0.9-0.1,1.3
			C97,330.2,96.6,330.1,96.1,330z M117.9,275.1c0-1.6,0-3.3,0-4.9c0-0.3-0.5-0.9-0.8-0.9c-1.2-0.1-2.3,0-3.5,0
			c-1.5,0-1.7,0.2-1.8,1.8c0,0.7,0.2,1.4-0.1,2c-0.4,0.8,0.3,1.4,0.2,2.1c0,0.1,0.4,0.4,0.6,0.4
			C114.2,275.4,115.9,275.8,117.9,275.1z M95.7,270.3c-0.4-0.1-0.6-0.3-0.9-0.4c-0.1,0.1-0.1,0.2-0.2,0.3c0.4,0.2,0.7,0.4,1.2,0.7
			c-0.1,0.9-0.1,2-0.2,3.1c0.9-0.1,0.2,0.7,0.4,1.3c1.9,0,3.8,0,5.7,0c0-0.3,0-0.5,0.1-0.6c0.1-1.1-0.3-2.3,0.5-3.4
			c0.3-0.4-0.7-1.9-1.3-1.9c-1-0.1-2,0.1-3,0C96.9,269.2,96.1,269.2,95.7,270.3z M117.9,330.2c-1.8,0-3.5,0-5.1,0
			c-0.3,0-0.9,0.4-0.9,0.6c-0.1,1.8-0.4,3.6,0.2,5.3c1.9,0.3,3.7-0.3,5.4,0.4c0.2,0.1,0.6-0.4,1.1-0.7c-0.5,0-0.7,0.1-0.7,0.1
			C117.9,334,117.9,332.2,117.9,330.2z M149.7,330.3c-2.1,0-4,0-6,0c0,1.7,0.1,3.3,0,4.9c0,0.8,0.2,1,0.9,1c0.4,0,0.8-0.1,1.2,0
			c0.3,0.1,0.5,0.3,0.6,0.3c0.7-0.1,1.2-0.3,1.8-0.4c1.4-0.1,1.5-0.2,1.4-1.6c0-0.9,0-1.9,0-2.9
			C149.7,331.3,149.7,330.8,149.7,330.3z M128,272.3c-1-0.2-1.1,0.2-0.9,0.9c0.3-0.1,0.6-0.1,1-0.2c0,0.8,0,1.5,0,2.3
			c0.5,0.1,1,0.2,1.4,0.2c1.1,0.1,2.2,0,3.3,0.1c0.7,0,1.4-0.4,1.3-0.9c-0.1-0.6-0.3-1.2-0.3-1.8c0-1.1,0-2.3,0-3.5
			c-2,0-3.8,0-5.7,0C128,270.3,128,271.2,128,272.3z M85.8,269.6c-0.4-0.1-0.7-0.2-1.1-0.2c-1.3-0.1-2.6-0.1-4-0.1
			c-0.5,0-0.9,0.3-0.9,0.9c0,1.5-0.1,2.9,0,4.4c0,0.4,0.6,1.1,0.8,1c1.1-0.3,2.3-0.3,3.5-0.3c0.5,0,1.1,0,1.7,0
			c-0.6-1.4,0.6-1.7,1.4-2.5c-0.6,0.2-1,0.3-1.5,0.4C85.8,271.9,85.8,270.8,85.8,269.6z M149.7,275.2c0-1.3,0-2.5,0-3.7
			c0-0.4,0.3-0.7,0.6-1.3c-0.2-0.8-1.1-0.8-2-0.8c-0.8,0-1.7-0.1-2.5-0.3c-1.1-0.2-2.1,0.2-2.1,1c0,1.4,0,2.8,0,4.2
			c0,0.6,0.3,0.8,0.8,0.8C146.3,275.2,147.9,275.2,149.7,275.2z"/>
		<path class="st0" d="M131.2,289.4c0.4,0.1,0.7,0,1,0.2c0.9,0.5,1.6,1.2,1.7,2.3c0.1,0.8,0.8,1.5,0.8,2.2c0.2,2.2,0.2,4.3,0.3,6.5
			c0.1,1.3,0.2,2.6,0.3,4.1c-0.4-0.2-0.6-0.2-1-0.4c0.1,0.3,0.1,0.6,0.1,0.6c1,0.2,0.8,1,0.7,1.6c-0.2,2-0.5,4-0.7,6.1
			c-0.5-0.3-0.8-0.5-1.3-0.8c0.2,0.5,0.2,0.9,0.4,0.9c0.6,0.1,0.5,0.5,0.2,0.8c-0.7,0.7-1.3,1.5-2,2.1c-1,0.9-2.2,1.1-3.6,1.1
			c-2,0-4.1,0.1-6.1,0.2c-1.4,0.1-2.9,0.2-4.3,0.2c-0.8,0-1.2-0.2-0.8-1.1c-0.2,0.1-0.5,0.1-0.5,0.2c0,1.2-0.9,0.9-1.7,1
			c-0.1-0.3-0.1-0.5-0.2-1c-0.3,0.4-0.5,0.6-0.8,1c-1.4-0.3-3.2,0.6-4.8-0.6c-0.7,0.9-1.3,0.5-1.9,0c-0.2,0.2-0.4,0.4-0.5,0.4
			c-2.4-0.1-4.7,0-7-0.4c-2.2-0.4-3.4-2.2-4.1-4.2c-0.6-1.8-0.8-3.8-0.8-5.7c0-0.7,0-1.4,0-2.1c0-0.2,0.3-0.4,0.4-0.5
			c-0.2-0.7-0.8-1.6-0.6-2.1c0.4-0.8-0.3-1.4,0-2.2c0.3-0.7,0.2-1.6,0.3-2.4c0.3-0.1,0.7-0.2,1.2-0.4c-0.4-0.2-0.7-0.4-1-0.6
			c-0.2-2.4,0.6-4.5,2.3-6.3c0.4-0.4,0.7-1,1.4-0.5c0.1,0,0.3,0,0.3-0.1c0.9-1.2,2.3-0.8,3.5-1c1.9-0.2,3.9-0.3,5.9-0.3
			c2.7,0,5.4,0.2,8.1,0.2c1.1,0,2.1-0.2,3.2-0.2c1.3,0,2.6,0,3.8,0.1c0.3,0,0.6,0.1,1,0.1c1.7,0.1,3.5,0.1,5.2,0.3
			C130.2,288.8,130.7,289.2,131.2,289.4z M120,299.9c-0.4,0.3-0.9,0.9-1.1,0.8c-1.2-0.7-2.8-0.7-3.5-2.2c0-0.1-0.1-0.1-0.2-0.1
			c-0.3,0.7-0.7,0.1-0.9-0.1c-1.3-0.7-2.5-1.4-3.9-2.2c0,3.2-0.1,6.3,0,9.3c0,0.6-0.6,1.1-0.1,1.8c0.3,0.5,0.1,1.3,0.1,2.1
			c3.2-1.9,6.3-3.6,9.4-5.3c0.7-0.4,1.3-1,2-1.3c0.5-0.3,0-0.6,0.1-0.9c0,0-0.1-0.1-0.2-0.1c0,0.2,0,0.4-0.1,0.8
			c-0.8-0.5-1.4-0.8-2-1.2C119.4,300.6,120.8,300.7,120,299.9z"/>
	</g>
	<g>
		<path class="st3" d="M57.2,208c-1.4-1.5-2-2.2-2.6-2.9c-0.5-0.4-1-0.8-1.6-1.1c-1.5-0.8-3-1.9-4.7-2.2c-1.1-0.2-2.5,0.8-3.7,1.3
			c-0.4,0.2-0.8,0.6-0.8,0.6c-1.2-3.7-2.2-7.4-3.7-11c-1.4-3.5-7-5.7-10.5-4.6c-0.6,0.2-1.1,0.7-2,1.3c0.3-0.8,0.8-1.4,0.6-1.7
			c-0.3-1.1-0.9-2-1.4-3c-0.4-0.8-1-1.5-1.4-2.4c-0.3-0.7-0.3-1.4-0.4-2.2c-0.8,0.3-1.6,0.6-2.4,0.9c-0.1-0.1-0.3-0.2-0.4-0.3
			c-0.4,0.3-0.8,0.7-1.2,0.9c-0.7,0.2-1.6,0.6-2.2,0.4c-0.8-0.3-2-0.9-2.2-1.6c-0.3-1.4-0.1-2.9-0.1-4.8c-3.5-3.5-7.5-7.5-11.9-12
			c1.6-0.8,2.5-1.1,3.3-1.7c0.8-0.6,1.4-1.6,2.2-2.2c0.6-0.5,1.4-0.6,2.1-0.9c0.2,0.8,0.4,1.7,0.8,2.9c1.4-1,2.9-2.3,4.7-3.4
			c0.6-0.4,2.2-0.5,2.3-0.1c0.6,1.1,0.8,2.4,1.2,3.7c-1,0.2-2.1,0.3-3.8,0.6c-0.5,0.7-1.5,2.1-3.3,4.5c4.3-1.1,7.4-1.8,10.5-2.6
			c0.3-0.1,0.4-0.4,0.6-0.6c0.8-0.9,1.5-1.9,2.3-2.8c0,1.2-0.1,2.4,0,3.6c0.1,1.1,0.4,2.2,0.6,3.2c1-0.5,2-1.1,3-1.5
			c1.4-0.5,2.8-0.9,4.2-1.3c0.2-0.1,0.7,0.4,0.8,0.6c0.1,0.3-0.1,0.9-0.3,1.1c-1.4,1.4-2.9,2.8-4.4,4.2c0.3,0.3,0.7,0.7,1,1
			c2.2-2.4,4.4-4.8,6.8-7.4c1.1,3.5,3.2,3.8,6,2.1c0.2-0.1,0.9,0.1,1,0.4c0.1,0.4-0.1,0.8-0.3,1.2c-1.1,2-2.3,4.1-3.4,6.1
			c-0.1,0.2,0,0.6,0.1,0.8c0.1,0.1,0.5,0.3,0.7,0.2c1.2-0.5,2.3-1,2.6-1.1c1.7,1.2,2.9,2,4.1,2.9c0.2,0.1,0.5,0.3,0.5,0.5
			c0.7,2,1.3,4.1,2.2,6c0.4,0.8,1.4,1.7,2.2,1.9c3.1,0.6,5.8,1.4,5.7,5.4c0,0.3,0.6,1.1,0.7,1c2.9-0.9,3,0.9,2.7,2.2
			c2.6,0.5,5,0.9,7.4,1.3c0.3,0.1,0.8,0.2,0.9,0.5c1.4,2.7,2.7,5.4,4.1,8.1c0.3,0.7,0.6,1.4,1.1,2c0.2,0.2,0.7,0.1,1.1,0.1
			c0-0.3,0.1-0.7,0-1c-0.1-0.5-0.4-1.1-0.6-1.6c1.2-0.1,2.4-0.3,3.5-0.2c0.4,0,0.9,0.9,1,1.5c0.2,1,0,2,0,2.9
			c0.5-0.2,0.9-0.4,1.4-0.6c0.6,0.5,1.1,1,1.7,1.6c0.7,0.7,1.3,2,2.1,2.1c2.8,0.4,2.5,2,1.9,4c-0.1,0.4,0.5,1,0.8,1.4
			c0.4,0.5,1,0.9,1.2,1.5c0.7,1.9-0.1,5.4,3.9,3.1c0.1-0.1,1.2,0.8,1.3,1.4c0.1,0.7-0.3,1.5,0.3,1.9c1,1.9,2.6,3.8,2.9,5.8
			c0.3,2.2-0.6,4.6-1,7c1.6,0.5,1-5.5,4.1-2.2c0.5,0.5-0.5,2.4-0.8,3.6c1-0.2,2.4-0.6,4.1-1c-0.3,3.2,0.9,4.8,4.1,3.9
			c0.3-0.1,0.8-0.1,1-0.3c2.2-2,4.4-4,6.5-6.1c0.2-0.2,0.5-0.6,0.7-0.6c3.2,0.3,4.5-2,6.2-4.1c1-1.3,3.2-1.9,1.2-4
			c-0.1-0.1-0.1-0.6,0-0.7c3.5-3.4,7.1-6.8,12.3-7.3c0.4,0,1.1-0.2,1.1-0.3c0.1-1.8,0-3.7-0.8-5.6c-0.1,0.5-0.3,1.1-0.4,1.9
			c-0.1-0.9-0.2-1.5-0.3-2.2c2.1-0.6,4.1-1.2,6.2-1.8c0.7-0.2,1.4-0.7,1.9-1.2c2.4-2.2,4.8-4.5,7.1-6.8c0.3-0.3,0.4-0.7,0.6-1
			c0.5-1,1.2-2,1.6-3c0.2-0.8-0.1-1.7,0-2.6c0.1-1.1,0.4-2.2,0.6-3.3c1,0.4,1.9,0.7,2.9,1.1c2,0.7,4.1,1.5,6.1,2.1
			c0.5,0.2,1.2-0.3,1.9-0.5c-0.6-0.3-1.2-0.6-1.9-1c1.1-0.7,2.3-1.5,3.4-2.3c0.2-0.2,0.2-0.7,0.2-1c-0.1-1-0.5-2-0.3-2.8
			c0.5-1.6,1.3-3.1,1.9-4.3c-1.3-0.5-2.1-0.9-3-1.3c4.6-1.2,8.7-2.3,12.4-3.3c1.8-4.2,6.4-7.5,1.9-13c3.7,3.1,4.6,1.2,5.2-1.4
			c0.1-0.3,1.1-0.5,1.7-0.6c0.7-0.1,1.4,0,2.1-0.1c-0.1-0.7-0.2-1.3-0.3-2c-0.1-0.3-0.2-0.7-0.3-1c-1.7-5.2-1.4-5.3,3.9-5.9
			c2.7-0.3,5.3-1.3,6.5-5.1c0.8-2.4,4.9-3.7,7.5-5.4c0,0,0.6,0.9,1,1.4c0.9,0.9,1.9,1.5,2.6,2.5c0.5,0.7,0.7,1.8,0.6,2.6
			c-0.1,0.3-1.5,0.4-2.8,0.7c1,1.3,2.2,2.7,3.2,4.1c0.4,0.6,1,1.9,0.9,1.9c-1,0.8-2.2,1.4-3.4,1.8c-0.2,0.1-0.9-1-1.3-1.6
			c-1.1-1.7-2.1-3.4-3.1-5c-0.4,0.1-0.6,0.1-0.6,0.2c0.2,3.5-1.4,7.4,2.2,10.2c1,0.8,2.1,1.5,3.1,2.3c0.2,0.2,0,0.8-0.1,1.2
			c-0.4-0.1-0.8-0.1-1.1-0.2c-0.8-0.3-1.6-0.8-2.4-0.8c-1.1,0-2.2,0.4-3.3,0.6c0.4,1,0.9,1.9,1.2,2.9c0.7,1.7,1.3,3.5,1.9,5.3
			c-0.4,0.3-0.9,0.7-1.3,1c-1.2-1.5-2.3-3.1-3.5-4.6c-0.3-0.4-0.9-0.6-1.4-0.8c0,0-0.4,0.4-0.4,0.5c0.2,0.7,0.3,1.7,0.8,2.1
			c1.8,1.5,3.7,2.7,4.3,4.3c-0.1,2.2-0.2,4.4-0.3,6.6c0,0.3-0.3,0.8-0.6,0.9c-0.3,0.1-0.8-0.1-1.1-0.3c-2.1-1.2-4.3-2.5-7-3.6
			c4.2,5.3-2.4,5.9-3.2,8.9c0-0.4-0.1-0.8-0.2-1.5c-2.1,1.3-4,2.3-5.7,3.6c-0.5,0.4-0.3,1.7-0.4,2.5c0,0.5,0.2,1.4,0,1.5
			c-1.9,1.2-4,2.2-5.9,3.5c-0.8,0.6-1.2,1.7-1.9,2.6c0.5,0.2,0.8,0.4,2,0.8c-1.8,0-2.8,0-3.2,0c-0.5,3.3-0.9,6.2-1.5,10.1
			c-0.5-1.3-0.7-1.7-1-2.5c-3.4,3.4,1.5,3.3,1.5,5c-3.7,1-7.7,4.1-8.4,6.8c-0.9-0.4-1.7-0.8-1.9-0.9c-2,1.9-3.9,3.6-5.6,5.2
			c-0.1,0.8-0.1,1.7-0.2,2.5c-0.7-0.1-1.5-0.3-2.2-0.4c-1.2-0.1-2.4,0-4.5,0c1.4,1,1.8,1.3,2.2,1.6c-0.5,0.2-0.9,0.5-1.4,0.6
			c-2.1,0.5-5.2,0.1-3.7,4c0.1,0.2-1.8,1.1-3.9,2.3c-1.9,0.5-4.8,1.3-7.7,2.1c-0.3,0.1-0.7,0.3-0.7,0.5c-0.1,3.3-1.4,4.3-4.7,1.9
			c0.3,1.1,0.6,1.9,0.5,2.5c-0.1,0.6-0.7,1.1-1.1,1.7c-0.8,1-1.7,2-2.3,3.1c-0.6,1.1-0.9,2.3-1.4,3.4c-0.4,0.8-0.9,1.6-1.3,2.4
			c-0.2,0.5-0.4,1-0.6,1.5c-0.2-0.3-0.4-0.7-0.7-0.8c-0.3-0.2-0.8-0.4-1.1-0.2c-1.1,0.5-2.5,0.9-3.1,1.8c-2.4,3.5-4.4,7.3-7.1,10.6
			c-1.1,1.3-3.4,2-5.2,2.3c-0.7,0.1-1.6-1.7-2.6-2.6c-2.6-2.4-5.3-4.8-8-7.2c-0.5-0.4-1.6-0.4-1.8-0.9c-1.3-2.8-2.4-5.6-3.8-8.4
			c-0.5-0.9-1.5-1.6-2.2-2.4c-0.8-0.9-1.6-1.8-2.5-2.6c-0.4-0.4-1.3-1-1.4-0.9c-3.5,3-3.7-2.2-6.5-1.9c1.2-0.9,1.7-1.4,2.6-2
			c-5.1,0-4.9-3.9-5.3-6.6c-0.4-2.5-1.1-2.7-2.9-1.6c-2.8,1.9-4,2-4.3-2.1c-0.1-2.1-2.8-4-4.4-6c-0.9-1.1-1.8-2.2-2.7-3.4
			c-0.4-0.6-0.6-1.8-1.1-1.9c-2.9-0.6-4.6-4.4-8.2-3c-0.6,0.2-1.9-0.2-2.4-0.8c-0.3-0.3,0.3-1.5,0.6-2.2
			C55.4,211.2,56.6,209.2,57.2,208z M38.5,175.4c-0.1-0.2-0.2-0.4-0.4-0.5c-1.7,1.2-3.5,2.2-5.1,3.5c-0.6,0.5-0.5,1.7-0.7,2.6
			c0.7,0,1.4,0,2.5,0c-0.6-0.9-0.9-1.5-1.2-2C35.3,177.8,36.9,176.6,38.5,175.4z M193.6,169.9c0.3-0.1-0.4-0.1-0.6,0.2
			c-0.3,0.4-0.3,1.2-0.1,1.7c0.7,1.3,1.5,2.5,2.4,3.7c0.2,0.3,0.8,0.3,1.2,0.5c0.1-0.6,0.3-1.1,0.4-1.7c-0.4,0.1-0.8,0.3-1.6,0.6
			C194.8,173.3,194.3,171.9,193.6,169.9z M170.7,208.4c0,1.5,0,2.5,0,3.5c0.9-0.7,1.7-1.3,2.9-2.2
			C172.4,209.2,171.8,208.9,170.7,208.4z M57.5,188.3c-0.1-0.3-0.2-0.6-0.3-1c-1.3,0.6-2.7,1.2-4,1.9c0.1,0.3,0.3,0.6,0.4,0.8
			C54.8,189.5,56.1,188.9,57.5,188.3z M202,181c0.3-0.1,0.5-0.2,0.8-0.3c-0.7-1.4-1.3-2.8-2-4.2c-0.3,0.1-0.6,0.3-0.9,0.4
			C200.6,178.3,201.3,179.6,202,181z M184.2,196.6c0-1.6,0.2-2.4,0-2.9c-0.4-0.8-1.2-1.5-1.8-2.2c-0.2,0.1-0.3,0.3-0.5,0.4
			C182.5,193.1,183.1,194.3,184.2,196.6z M42.1,169.9c-0.2-0.3-0.3-0.5-0.5-0.8c-1.1,0.7-2.1,1.4-3.2,2.2c0.2,0.2,0.3,0.4,0.5,0.7
			C40,171.3,41,170.6,42.1,169.9z M42.6,192.8c0.2,0.2,0.4,0.4,0.6,0.7c0.7-0.6,1.4-1,1.9-1.7c0.2-0.3-0.2-1-0.4-1.5
			C44.1,191.1,43.4,191.9,42.6,192.8z M58.8,209.2c-0.6,0.3-1.2,0.3-1.3,0.6c-0.4,0.6-0.5,1.3-0.7,2c0,0.1,0.8,0.3,1.1,0.4
			C58.2,211.2,58.5,210.4,58.8,209.2z M198,162.9c-1.2,0-2.3,0-4,0c1.6,0.8,2.5,1.3,3.5,1.8C197.6,164,197.8,163.6,198,162.9z
			 M66,217.7c-0.1,0.3-0.2,0.5-0.3,0.8c0.8,0.2,1.7,0.6,2.5,0.7c0.3,0.1,0.7-0.3,1.1-0.5C68.2,218.4,67.1,218,66,217.7z M45.5,185.6
			c-0.3-0.2-0.7-0.5-0.8-0.5c-0.5,0.5-1,1.1-1.3,1.7c-0.1,0.2,0.2,0.7,0.3,1C44.3,187.2,44.8,186.5,45.5,185.6z M11.8,165.6
			c-0.4-0.3-0.8-0.7-0.9-0.6c-0.5,0.4-0.9,0.9-1.4,1.3c0.3,0.3,0.8,0.8,0.9,0.8C10.9,166.7,11.3,166.2,11.8,165.6z M24.3,177.1
			c0.4,0,0.7,0,1.1,0c0-0.7,0-1.3,0-2c0-0.1-0.7-0.1-1-0.1C24.3,175.7,24.3,176.4,24.3,177.1z"/>
		<path class="st3" d="M214.9,144.7c-0.3-0.5-0.6-1.3-1.1-1.6c-0.7-0.4-1.6-0.5-2.5-0.8c-0.8-0.2-1.7-0.4-2.6-0.6
			c0.5-0.4,1-0.9,1.5-1.2c1.1-0.6,2.2-1.1,3-1.5c0.8,1.8,1.5,3.5,2.2,5.1C215.3,144.4,215.1,144.6,214.9,144.7z"/>
		<path class="st3" d="M217.9,154c-1.3-2.3-2.2-3.8-2.9-5.3c-0.1-0.2,0.5-0.7,0.8-1c1.1,0.9,2.4,1.7,3.3,2.8
			C219.4,150.9,218.5,152.2,217.9,154z"/>
		<path class="st3" d="M5.4,156.3c-0.2,1.4-0.4,3.2-0.7,5c-0.1,0.5-0.9,0.8-1.3,1.2c-0.2-0.5-0.4-0.9-0.5-1.4"/>
		<path class="st3" d="M11.2,153c1.6,0,2.6,0,3.5,0c-0.5,0.8-0.9,1.8-1.7,2.3c-0.8,0.5-2,0.6-3.8,1C10.2,154.8,10.9,153.6,11.2,153z
			"/>
		<path class="st3" d="M75,197.7c0.4-0.2,0.8-0.4,0.8-0.4c0.3-1,0.4-1.6,0.6-2.3c0.3,0.1,0.6,0.3,0.9,0.4c-0.6,0.9-1.1,1.8-1.7,2.7
			C75.4,198,75.2,197.9,75,197.7z"/>
		<path class="st3" d="M8,157.7c-0.4,0.5-0.7,1.1-1.2,1.6c-0.1,0.1-0.6-0.2-0.9-0.3c0.4-0.6,0.9-1.2,1.3-1.7
			C7.5,157.4,7.8,157.5,8,157.7z"/>
		<path class="st3" d="M225.9,134.3c0.1-0.6,0.3-1.2,0.5-1.7c0-0.1,0.5,0.1,0.8,0.1c-0.1,0.6-0.3,1.2-0.4,1.8
			C226.5,134.4,226.2,134.4,225.9,134.3z"/>
		<path class="st3" d="M201.2,186c-0.5-0.5-0.9-1-1.4-1.5c0.2-0.2,0.5-0.5,0.7-0.7c0.6,0.4,1.1,0.8,1.7,1.2
			C201.9,185.4,201.6,185.7,201.2,186z"/>
		<path class="st3" d="M48,170.5c-0.5,0.4-1,0.7-1.5,1.1c-0.1-0.2-0.4-0.6-0.4-0.7c0.5-0.4,1-0.7,1.5-1
			C47.8,170.1,47.9,170.3,48,170.5z"/>
		<path class="st3" d="M212.5,144.4c0.5,0.4,1,0.8,1.5,1.2c-0.1,0.2-0.2,0.3-0.4,0.5c-0.5-0.4-1.1-0.8-1.6-1.2
			C212.2,144.8,212.4,144.6,212.5,144.4z"/>
	</g>
</g>
</svg>
