<?xml version="1.0" encoding="utf-8"?>
<!-- Generator: Adobe Illustrator 19.1.0, SVG Export Plug-In . SVG Version: 6.00 Build 0)  -->
<svg version="1.1" id="Layer_1" xmlns="http://www.w3.org/2000/svg" xmlns:xlink="http://www.w3.org/1999/xlink" x="0px" y="0px"
	 viewBox="0 0 360 255" style="enable-background:new 0 0 360 255;" xml:space="preserve">
<style type="text/css">
	.st0{fill:#757576;}
	.st1{fill:#F37046;}
</style>
<g>
	<g>
		<path class="st0" d="M95.6,205.7c1.2-0.5,2.4-1,3.7-1.5c0.3-0.1,0.8,0.2,1.2,0.2c0.2,0,0.5,0,0.7-0.1c0.3,0,0.7,0,1,0
			c0.4,0,1.2,0.3,1.3,0.2c0.5-0.8,1.3-0.3,1.9-0.4c0.7-0.1,1.5,0,2.2,0c2.4-0.1,4.8-0.1,7.1-0.2c0.5,0,1,0.1,1.9,0.2
			c-0.7,0.9-1.1,1.6-1.7,2.3c-1.8,1.9-3.6,3.7-5.3,5.6c-1.5,1.5-2.9,3.1-4.5,4.8c0.8,0.1,1.4,0.3,2.1,0.3c2.3,0,4.7,0,7,0
			c0.3,0,0.7,0.2,1,0.3c0.1-0.1,0.4-0.3,0.6-0.3c1.7,0,3.5-0.1,5.2,0c1.4,0.1,2.9-0.1,4.3,0c0.1,0.2,0.2,0.4,0.2,0.5
			c0.1-0.1,0.2-0.3,0.5-0.5c1.9,0,4,0,6.2,0c0.4,0,0.7,0.4,1,0.6c0-0.1-0.1-0.4-0.1-0.7c0.9,0.3,1.8-0.4,2.6,0.4
			c0,0,0.3-0.3,0.5-0.3c2,0,4-0.2,5.9,0.1c0.8,0.1,1.5-0.3,2.3-0.1c0.8,0.2,1.7,0,2.6,0c0.3,0,0.6,0.2,0.9,0.3c0.1,0,0.3,0,0.4-0.1
			c0.3-0.1,0.5-0.2,0.8-0.2c3.4,0,6.9,0,10.3,0c1.8,0,3.6,0,5.5,0c0,0.2-0.1,0.5-0.1,0.7c0.1,0,0.1,0.1,0.2,0.1
			c0.1-0.2,0.3-0.4,0.6-0.8c1.3,0,2.9,0,4.5,0c2.5,0,5.1-0.1,7.6,0c1.4,0.1,2.9-0.1,4.3-0.1c1.5,0,3,0,4.4,0c1.5,0,3,0,4.4,0
			c0.3,0,0.7,0.1,0.8,0.3c0.1,0.2-0.1,0.5,0,0.8c0,0.4,0,0.8,0.1,1.2c0,0.3,0.2,0.5,0.2,0.8c0,1.6,0,3.2,0,4.8c0,0.6-0.3,1-1,1
			c-2.9,0-5.9,0-8.8,0.1c-2,0-4,0.1-6.1,0.1c-0.9,0-1.7,0-2.6-0.2c0.2,0,0.5-0.1,0.7-0.1c0-0.1,0-0.2,0-0.3c-0.3,0-0.6,0-0.8,0.1
			c-0.4,0.1-0.7,0.4-1,0.5c-1.2,0.1-2.4,0.1-3.7,0c-1.9-0.1-3.8,0-5.6,0c-1.9,0-3.9,0-5.8,0c-2.4,0-4.7,0-7.1,0
			c-0.3,0-0.6-0.2-0.9-0.3c-0.1,0-0.2-0.1-0.2-0.1c-0.5,0.6-1.1,0.4-1.8,0.3c-0.4-0.1-0.8,0.1-1.4,0.2c0.1-0.3,0.1-0.6,0.2-0.8
			c-0.1-0.1-0.2-0.1-0.3-0.2c-0.2,0.3-0.3,0.5-0.6,0.9c-2.1,0-4.3,0-6.6,0c-0.6,0-1.1,0.1-1.7,0.1c-2.3,0-4.5,0-6.8,0
			c-0.4,0-0.7-0.2-1.2-0.3c-0.9,0.8-1.8,0.3-2.8-0.3c0.1,0.2,0.2,0.3,0.4,0.6c-1.8,0-3.6,0.2-5.3-0.1c-0.9-0.2-1.7,0.2-2.7,0.1
			c0.4-0.2,0.6-0.3,0.8-0.4c0-0.1,0-0.2-0.1-0.3c-0.3,0.1-0.7,0.1-1,0.2c-0.4,0.1-0.7,0.4-1.1,0.4c-1.5,0-3,0-4.5,0
			c-0.8,0-1.6-0.3-2.5-0.1c-0.9,0.2-1.9,0.1-2.9,0.1c-0.9,0-1.9,0-2.8,0c-1,0-1.9,0-2.9,0c-0.3,0-0.7-0.2-1-0.3c-0.1,0-0.2,0-0.4,0
			c-0.4,0.1-0.8,0.3-1.1,0.3c-3.7,0-7.3,0-11,0c-1,0-2-0.3-3.1-0.3c-0.9,0-1.9,0.3-2.7,0.6c-2.6,1-5.1,2.1-7.6,3.1
			c-0.4,0.1-0.8,0.2-1.1,0.3c-0.6,0.3-1.2,0.7-1.8,0.9c-1,0.5-2.1,0.9-3.2,1.3c-0.3,0.1-0.6-0.1-0.9,0c-0.2,0-0.3,0.3-0.5,0.5
			c-0.1,0.1-0.1,0.2-0.2,0.3c-1.3,0.6-2.5,1.1-3.8,1.6c-0.2,0.1-0.5-0.2-0.7-0.2c-0.2,0-0.5,0-0.6,0.1c-0.1,0.1,0,0.4-0.1,0.8
			c-2.8,0.8-5.5,2.6-8.6,3.4c-0.6,0.3-1.3,0.8-2,1c-1.6,0.6-3.2,1.4-5,2.1c0.2-0.3,0.3-0.4,0.5-0.6c-0.3,0-0.5,0-0.7-0.1
			c0,0.3,0,0.5,0,0.8c-1.5,0.6-3,1.3-4.5,1.9c-0.3,0.1-0.7,0.1-1,0.1c-0.1,0-0.1,0-0.2,0c0.2,0.8-0.5,0.6-0.8,0.7
			c-1,0.4-2.1,0.7-3.2,1.1c-2,0.9-3.9,1.8-5.8,2.7c-0.9,0.4-1.8,1-2.7,1.2c-0.7,0.1-1.6,0-2.3,0.1c-0.3,0.1-0.6,0.1-0.8,0.4
			c0.3,0.1,0.6,0.1,0.9,0.2c0,0.1,0,0.2,0.1,0.3c-0.9,0.4-1.8,0.8-2.7,1.1c-0.2,0.1-0.4,0.1-0.5,0.2c-1,1-2.1,0.8-2.6-0.5
			c-0.1-0.3-0.3-0.6-0.4-0.9c-0.1-0.2,0-0.5,0-0.9c-0.1,0-0.3-0.2-0.6-0.3c0.1-0.2,0.3-0.4,0.3-0.5c-0.4-0.4-0.8-0.8-0.9-1.2
			c-0.5-1.1-1.1-2.2-1.4-3.4c-0.1-0.5-0.4-0.8-0.6-1.2c-0.2-0.6-0.5-1.1-0.8-1.7c-0.3-0.8-0.1-1.4,0.7-1.8c3-1.3,6.1-2.5,9.1-3.8
			c2.6-1.1,5.3-2.3,7.9-3.4c1.4-0.6,2.7-1.2,4.1-1.7c0.1,0.2,0.3,0.3,0.2,0.3c0.3-0.3,0.6-0.6,0.9-0.9c0.3,0.3,0.4,0.4,0.6,0.6
			c0.1-0.2,0.1-0.4,0.2-0.6c0.1-0.1,0.2-0.3,0.4-0.3c2.3-1,4.6-1.9,6.9-2.9c1.9-0.8,3.7-1.6,5.6-2.5c0.1,0.2,0.3,0.3,0.4,0.5
			c0.1-0.1,0.2-0.1,0.2-0.1c0-0.9,0.8-0.9,1.3-1.1c3.7-1.6,7.4-3.2,11.1-4.8c0.4-0.2,0.8-0.1,1.3-0.3c2.2-1.1,4.4-2,6.6-2.9
			c0.9-0.4,1.2-1.1,1.2-2.1c0-5.6,0-11.3,0-16.9c0-1.2-0.1-2.3,0-3.5c0.1-0.8,0-1.6,0-2.4c0-0.9,0-1.9,0-2.8c0-1,0-1.9,0-2.9
			c0-0.3,0.2-0.5,0.3-0.8c0.1,0,0.2,0,0.3,0.1c-0.2-0.2-0.4-0.4-0.7-0.8c0.4-0.1,0.7-0.1,1-0.2c0-0.1,0-0.2,0-0.2
			c-0.3,0-0.5,0-0.9-0.1c0-1.1,0-2.2,0-3.4c0-2.1,0-4.1,0-6.2c0-0.4,0.2-0.7,0.2-1.1c0-0.3-0.2-0.5-0.2-0.8c0-2.6,0-5.1,0-7.7
			c0-0.3,0.3-0.6,0.4-0.9c-0.2-0.2-0.4-0.5-0.4-0.7c0-1.2-0.1-2.4,0.1-3.6c0.1-0.5,0-0.8-0.1-1.2c-0.1-1.9,0-3.8,0-5.7
			c0-0.5,0.1-1.1,0.1-1.6c0.1-0.9-0.1-1.8-0.1-2.7c-0.1-0.8,0.2-1.7,0-2.5c-0.1-1,0-2,0-3c0-1,0-2,0-3c0-0.2,0.1-0.4,0.3-0.6
			c-0.1-0.5-0.3-1-0.3-1.5c0-4.4,0-8.8,0-13.2c0-1.8-0.1-3.7,0-5.5c0.2,0,0.5,0,0.7,0c0-0.1,0-0.2,0-0.2c-0.7-0.2-0.7-0.7-0.7-1.3
			c0-2.7,0-5.3,0-8c0-0.3,0.2-0.6,0.2-0.9c0-0.1,0-0.3,0-0.4c0-0.2-0.2-0.4-0.2-0.6c0.4-0.8-0.1-1.6,0-2.4c0-0.9,0-1.9,0-2.8
			c0-0.5,0.3-1,0-1.6c-0.1-0.2,0.2-0.6,0.3-0.8c-0.1-0.3-0.3-0.5-0.3-0.8c0-2.4,0-4.7,0-7.1c0-0.3,0.3-0.5,0.4-0.7
			c-0.1-0.2-0.4-0.4-0.4-0.6c-0.1-0.5,0-0.9,0-1.4c0.1-1.4,0.5-2.8,0.2-4.1c-0.4-1.4-0.1-2.8-0.2-4.2c-0.1-1.4,0-2.8,0-4.3
			c0-1.2,0.2-1.4,1.4-1.4c3.5,0,7.1,0,10.6,0c1,0,2,0,3.1,0.1c0,0.2-0.1,0.4-0.1,0.6c0.1,0,0.1,0.1,0.2,0.1c0.2-0.2,0.3-0.5,0.5-0.7
			c0.8,0,1.6,0,2.4,0c0,0.2,0.1,0.4,0.1,0.6c1.9-0.7,2.4-0.8,4.5-0.5c0.3,0,0.6-0.1,1-0.1c0.8,0,1.7-0.1,2.4,0.6
			c0.1,0.1,0.4,0.1,0.7,0c-0.2-0.2-0.4-0.3-0.7-0.5c2.3,0,4.5,0,6.7,0c0,0.1,0,0.4,0,0.6c0.1,0,0.2,0,0.2,0c0.6-1.1,1.6-0.6,2.4-0.5
			c0.8,0,1.6-0.1,2.4-0.1c2.5,0,5.1,0,7.6,0c2.2,0,4.4,0.1,6.6,0.1c2.4,0,4.7-0.1,7.1-0.1c0.4,0,0.7,0.2,0.9,0.3
			c1-0.1,1.8-0.3,2.7-0.3c1.9,0,3.9-0.1,5.8,0c1.7,0,3.5-0.1,5.2,0c0.5,0,1.1-0.1,1.6-0.2c0.1-0.3,0.2-0.6,0.3-0.8
			c-0.4-0.5-0.8-0.9-1.1-1.4c-0.7-1.1-1.3-2.2-2-3.2c-0.5-0.7-0.4-1.2,0.1-1.9c-0.3,0-0.7,0.1-1.2,0.2c-0.6-1-1.3-2.1-2-3.2
			c-0.6-1-1.3-1.9-1.9-2.9c-0.7-1-1.2-2.1-1.8-3.2c0.1-0.1,0.3-0.2,0.6-0.4c-1.2,0-1.4-0.8-1.9-1.6c-0.9-1.6-2.1-3-3.2-4.6
			c0.5-0.2,0.8-0.4,1.1-0.5c-0.5,0.4-0.7-1.6-1.4-0.1c-2.1-3.3-4.2-6.4-6.1-9.6c-1.8-3.1-4.2-5.9-5.6-9.4c-0.2-0.2-0.6-0.6-0.9-1
			c-1.4-2.2-2.7-4.5-4.2-6.7c-1-1.5-2.1-3-3.1-4.5c0.2-0.2,0.4-0.4,0.5-0.5c0-0.1-0.1-0.1-0.1-0.1c-0.7,0-1.1-0.5-1.4-1
			c-1.3-2.2-2.7-4.3-4-6.4c-0.2-0.3-0.8-0.6,0.1-1c0.2-0.1,0.2-0.6-0.3-0.5c-0.1,0-0.2,0.1-0.5-0.1c0.3-0.3,0.6-0.7,1-0.9
			c1.4-0.9,2.9-1.8,4.3-2.7c1.7-1.1,3.4-2.2,5.2-3.3c0.8-0.5,1.3-0.4,1.8,0.3c1.1,1.7,2.2,3.5,3.2,5.2c0.1,0.2,0.1,0.5,0.2,0.8
			c0,0.1,0,0.2,0.1,0.3c1.8,1.2,2.4,3.3,3.6,5c2.2,3.3,4.3,6.6,6.4,10c1.4,2.3,2.9,4.4,4.2,6.8c-0.3,0.1-0.6,0.2-1.1,0.4
			c0.5,0.1,0.9,0.2,1.3,0.3c0-0.1,0.1-0.2,0.1-0.2c1.7,2.7,3.5,5.4,5.2,8.1c0.6,1,1.3,2,1.9,3c0.9,1.5,1.8,3,2.6,4.6
			c0.1,0.2,0.4,0.4,0.6,0.6c0.4,0.4,0.7,0.9,0,1.4c0.4,0,0.7,0,1-0.1c0.9,1.4,1.8,2.8,2.6,4.2c0.8,1.3,1.5,2.6,2.3,3.9
			c0.5,0.8,1.2,1.6,1.7,2.4c0.3,0.4,0.3,1,0.6,1.4c0.2,0.3,0.6,0.5,0.8,0.8c0.8,1.1,1.5,2.3,2.2,3.4c1.5,2.3,3,4.7,4.4,7.1
			c0.9,1.6,2.2,2.1,4,1.9c0.6-0.1,1.4-0.4,1.8,0.5c0,0.1,0.4,0.1,0.5,0c0.6-1.1,1.6-0.5,2.4-0.5c4.5-0.1,9.1-0.1,13.6-0.1
			c1.4,0,2.7,0,4.1,0c-0.1,0.3-0.1,0.6-0.2,0.9c0.3-0.1,0.5-0.1,0.9-0.2c-0.2,1.3-0.3,2.6-0.4,3.8c0,0.3,0.3,0.7,0.3,1
			c-0.1,0.8-0.3,1.5-0.4,2.3c0,0,0.2-0.1,0.3-0.2c0.2,0.9-0.2,1.5-1.1,1.5c-3.8,0-7.7,0-11.5,0c-0.2,0-0.4-0.2-0.5-0.3
			c-0.4,0.1-0.8,0.2-1.5,0.4c0.4-0.5,0.6-0.8,0.8-1.1c-0.1-0.1-0.2-0.1-0.2-0.2c-0.2,0.3-0.3,0.5-0.5,0.8c-0.1,0.1-0.4,0.4-0.4,0.4
			c-0.9-0.4-1.7,0.2-2.6,0c-0.9-0.2-1.9,0-2.9,0c0-0.2,0-0.4,0-0.6c-0.2,0.1-0.5,0.1-0.5,0.2c0,1-0.2,2.1,0,3.1
			c0.4,2.5,0.8,4.9,1.3,7.4c0,0.2,0.1,0.4,0.2,0.7c-0.3-0.1-0.4-0.2-0.4-0.2c0.2,0.6,0.4,1.3,0.5,2c0.1,0.6-0.2,0.8-0.8,0.5
			c-1.2-0.7-2.4-1.5-3.5-2.2c-1.5-1-3-2-4.5-3c-0.7-0.5-1.5-1-2.3-1.5c0.2-0.2,0.4-0.3,0.6-0.5c0,0-0.2-0.4-0.2-0.3
			c-0.3,0.1-0.6,0.2-1,0.4c-0.5-0.4-1.1-0.8-1.6-1.2c-1.1-0.8-2-1.8-2.4-3.2c-0.2-0.8-2.1-1.9-2.8-1.7c-0.3,0.1-0.6,0-0.8,0
			c-1.6-0.1-3.2-0.2-4.9-0.2c-2.5,0-5,0.1-7.6,0.2c-4.2,0-8.4,0.1-12.6,0c-2,0-4.1,0.1-6.1,0c-2.1,0-4.1,0-6.2,0
			c-4.4,0-8.8,0-13.2,0c-5.7,0-11.4,0-17.1,0c-1.3,0-1.5,0.4-1.4,1.7c0.2,1.1,0.1,2.3,0.1,3.5c0,1.1,0,2.2,0,3.2
			c-0.4,0.3-0.7,0.5-1,0.8c0,0.1,0.1,0.1,0.1,0.2c0.3-0.1,0.5-0.2,0.9-0.3c-0.2,0.4-0.3,0.8-0.4,1c0.1,0.8,0.3,1.5,0.3,2.2
			c0,2.4,0,4.9,0,7.3c0,0.2-0.3,0.4-0.3,0.7c0,0.3,0.3,0.6,0.3,0.9c0,1.2,0,2.5,0,3.5c-0.3,0.3-0.5,0.5-0.7,0.7
			c0.2,0.1,0.4,0.2,0.7,0.3c-0.1,0.6,0.2,1.5-0.3,2.2c0.1,0.3,0.4,0.7,0.3,1c-0.2,0.3-0.6,0.5-1,0.8c0.3,0.1,0.6,0.3,1.1,0.6
			c-0.2,0.6,0.4,1.5-0.4,2.1c0.1,0.3,0.3,0.6,0.3,1c0,2,0,4,0,6.1c0,0.2-0.2,0.4-0.3,0.6c0.1,0.6,0.3,1.2,0.3,1.9
			c0,4.9,0,9.7,0,14.6c0,0.3-0.2,0.6-0.3,0.9c0.1,0.3,0.3,0.6,0.3,0.9c0,5.5,0,10.9,0,16.4c0,0.3-0.2,0.7-0.3,1.1
			c0.1,0.2,0.3,0.5,0.3,0.8c0,2.9,0,5.9,0,8.8c0,0.3-0.2,0.5-0.4,0.9c0.1,0.1,0.3,0.3,0.6,0.6c-0.4,0.1-0.6,0.2-1,0.3
			c0.4,0.2,0.6,0.4,1,0.6c-0.1,0.4-0.2,0.9-0.4,1.4c0,0.2,0.2,0.5,0.2,0.9c0.1,1.3,0.1,2.6,0.1,3.9c0,0.8-0.1,1.6,0,2.4
			c0,0.3-0.2,0.7-0.3,0.9c0.1,0.6,0.3,1.1,0.3,1.6c0,2.4,0,4.8,0,7.1c0,2.7,0,5.3,0,8c0,0.4-0.4,0.8-0.6,1.2c0.1,0,0.3,0,0.6-0.1
			c0,1.8,0,3.7,0,5.6c-0.2,0-0.4-0.1-0.6-0.2c0.2,0.5,0.7,1.1,0.6,1.6c-0.1,0.5-0.6,1-1,1.5c0.3-0.1,0.6-0.2,1.1-0.3
			c-0.1,0.8-0.2,1.4-0.3,2.1c-0.1,0,0,0,0.2,0c0,0.2,0.1,0.5,0.1,1c0.7-0.2,1.3-0.4,1.9-0.7c2.2-0.9,4.3-1.9,6.5-2.7
			c0.5-0.2,1.2,0,1.8,0c-0.1-0.1-0.1-0.4-0.3-0.7C94.6,206,95.1,205.8,95.6,205.7c0,0.3,0,0.6,0,0.9c0.1,0,0.2,0,0.3,0
			c0.3-0.1,0.6-0.2,0.8-0.3c-0.2-0.2-0.5-0.4-0.8-0.5C95.8,205.7,95.7,205.7,95.6,205.7z M117.1,219.9c-0.1-0.1-0.1-0.2-0.2-0.3
			c-0.3,0-0.6,0-1,0c0.2,0.6,0.3,1.1,0.5,1.6c-0.1-0.6,0.3-0.7,0.7-0.9c0.1-0.1,0.2-0.2,0.4-0.3C117.3,220,117.2,220,117.1,219.9z
			 M24.5,241.8c0.1,0,0.2,0,0.2,0c0.1-0.2,0.2-0.3,0.3-0.5c0.5,0.5,1.5,0.2,1.8,1.1c0.4,1.1,0.9,2.1,1.3,3.2
			c0.3,0.7,0.7,0.9,1.4,0.5c1.8-0.7,3.6-1.4,5.3-2.1c0.5-0.2,1.1-0.6,0.7-1.4c-0.6-1.3-1.1-2.6-1.7-4c-0.3-0.8-0.7-1.7-1-2.5
			c-0.3-0.6-0.6-0.9-1.4-0.6c-1.8,0.8-3.7,1.5-5.6,2.3c-0.5,0.2-0.8,1.4-0.5,1.9c0.4,0.6,0.7,1.2,1.1,1.8c0,0-0.1,0-0.1,0.1
			c-0.7-0.4-1.3-0.9-2-1.3c-0.1,0.1-0.2,0.2-0.2,0.2C24.3,240.9,24.4,241.3,24.5,241.8z M116.3,18c0.2,0.2,0.6,0.3,0.8,0.6
			c0.8,0.9,1.2,2.1,2,3c0.4,0.4,0.6,1,1,1.5c0.4,0.6,0.8,0.8,1.3,0.2c0.1-0.1,0.2-0.1,0.2-0.1c0.8-0.3,1.2-1.4,2.4-0.9
			c0,0,0.2-0.2,0.3-0.3c0.2-0.2,0.3-0.6,0.5-0.7c0.8-0.5,1.6-1,2.4-1.5c0.7-0.4,0.9-0.9,0.4-1.7c-0.5-0.7-0.8-1.5-1.3-2.4
			c0.7,0.2,1.2,0.3,1.7,0.4c0-0.1,0-0.2,0-0.2c-0.7-0.2-1.3-0.4-2.3-0.7c-0.3-0.5-0.8-1.3-1.4-2.1c-0.3-0.4-0.6-0.6-1.2-0.2
			c-1.2,0.9-2.5,1.6-3.8,2.3c-0.2,0.1-0.5,0.1-0.6,0.2c-0.1,0.2-0.3,0.4-0.5,0.6c-0.5,0.4-1.1,0.8-1.6,1.2
			C116.4,17.3,116.4,17.8,116.3,18z M168.1,85.5c-0.3-1.4-0.5-2.8-0.9-4.2c-0.2-1-1-1.3-1.8-0.7c-1.3,0.9-2.6,1.8-3.8,2.7
			c-0.4,0.3-0.9,0.7-1.3,0.7c-0.8,0.1-0.9,0.6-0.8,1.1c0.1,0.5,0.3,1.1,0.9,1.3c1,0.5,2,1,2.5,1.8c0.3,0.1,0.6,0.2,0.8,0.3
			c0.4,0.2,0.7,0.5,1.1,0.7c0.5,0.3,0.9,0.5,1.3,0c0.3-0.3,0.7-0.5,1.1-0.7c-0.2-0.7,1.1-2.5,2-2.9
			C168.9,85.5,168.5,85.5,168.1,85.5z M102.6,215.3c0.7-0.5,1.1-0.8,1.5-1.3c1.2-1.2,2.4-2.5,3.6-3.7c0.4-0.4,0.5-0.8,0.1-1.2
			c-0.5-0.5-1-1.1-1.4-1.6c-0.3-0.3-0.4-0.7-0.6-0.9c-1.8,0-3.6,0-5.3,0c0-0.2,0-0.4-0.1-0.6c-0.4,0.3-0.8,0.6-1.4,1
			C99.9,209.7,101.1,212.5,102.6,215.3z M111.3,77.9c0-0.1,0-0.2-0.1-0.3c-0.4,0.1-0.8,0.3-1.3,0.4c-0.5-0.9-1,0.3-1.6,0.2
			c0,0.4,0,0.7,0,1c0.6,0,1.2-0.1,1.8-0.1C110.3,78.7,110.8,78.1,111.3,77.9z M56.7,233.9c-0.8,0.3-1.4,0.6-2,0.8
			c-0.1,0-0.2,0.2-0.3,0.3c0.2,0.1,0.3,0.3,0.5,0.3C55.8,235.4,56.4,235.1,56.7,233.9z M132.5,25.2c0.6,0.9,1.4,0.8,2-0.3
			C133.7,24.3,133.2,25.1,132.5,25.2z M178.7,222.4c-0.1,0.1-0.2,0.1-0.2,0.2c0.2,0.3,0.4,0.8,0.7,0.9c0.4,0.1,0.9-0.1,1.3-0.2
			c0-0.1,0-0.2,0-0.2C179.8,222.9,179.2,222.7,178.7,222.4z M163.1,219.1c-0.3,0.6-0.5,1-0.7,1.4c0.6,0,1.1-0.1,1.7-0.1
			c0-0.3,0-0.5-0.1-0.9c-0.2,0.3-0.3,0.4-0.5,0.6C163.4,219.8,163.3,219.5,163.1,219.1z M23.9,247c0.5,0.3,0.9,0.5,1.5,0.8
			c0-0.4,0-1-0.1-1.1C24.9,246.6,24.3,246.4,23.9,247z M82.7,96.9c1.1,0.1,1.3-0.1,1-0.8c-0.2,0.1-0.4,0.4-0.6,0.4
			c-0.8,0.2-0.9,0.3-0.2,1.1C82.8,97.4,82.8,97.2,82.7,96.9z M80,153c-0.5-0.3-0.8-0.5-1.1-0.7c-0.1,0.6-0.2,1-0.3,1.6
			C79.1,153.6,79.5,153.4,80,153z M73.8,165.8c0.6,0.1,1,0.1,1.3,0.2c-0.2-0.3-0.4-0.5-0.6-0.8c0.1-0.1,0.2-0.3,0.2-0.5
			c-0.1,0-0.1-0.1-0.2-0.1C74.4,164.9,74.2,165.2,73.8,165.8z M83.4,217.8c-0.6,0.5,0.1,1,0.3,1.5c0,0.1,0.3,0.1,0.5,0.1
			c0-0.2,0.1-0.4,0-0.6C83.9,218.5,83.6,218.2,83.4,217.8z M28.6,248c0,0.1,0,0.2,0,0.3c0.3,0,0.7,0,1-0.1c0.1,0,0.2-0.3,0.2-0.3
			c-0.4-0.3-0.7-0.6-1.1-0.9c-0.1,0.1-0.1,0.1-0.2,0.2c0.3,0.2,0.5,0.5,0.8,0.8C29,248,28.8,248,28.6,248z M40.7,232.3
			c0.1,0.2,0.1,0.3,0.2,0.5c0.6-0.3,1.2-0.6,1.8-0.9c-0.1-0.1-0.1-0.2-0.2-0.3C41.9,231.9,41.3,232.1,40.7,232.3z M104.2,78.2
			c0.1-0.1,0.2-0.3,0.3-0.4c-0.4-0.4-0.9-0.8-1.3-1.1c-0.1,0.1-0.2,0.2-0.3,0.3C103.4,77.4,103.8,77.8,104.2,78.2z M160.1,83.4
			c-1.1-0.9-1.6-0.8-1.8,0C158.8,83.4,159.3,83.4,160.1,83.4z M80.9,195.6c-0.7,0.1-1.3,0.3-1.9,0.4
			C79.7,196.4,80.5,196.7,80.9,195.6z M124.8,21.8c0.7,1.2,0.9-0.2,1.4,0.1c0-0.1,0-0.2-0.1-0.4C125.7,21.7,125.3,21.8,124.8,21.8z
			 M91.9,224.7c-0.4-0.1-0.7-0.1-1.1-0.1c-0.1,0-0.3,0.2-0.4,0.3c0,0.1,0.1,0.3,0.1,0.4C90.8,225.5,91.7,225.1,91.9,224.7z
			 M77.1,180.7c-0.2,0.6-0.4,1,0.2,1.1c0.2,0,0.5-0.1,0.7-0.1C77.7,181.4,77.4,181.1,77.1,180.7z M177.3,219.9c0,0.1,0,0.2,0,0.3
			c0.6-0.1,1.2-0.1,1.9-0.2C179,219.6,178.7,219.6,177.3,219.9z"/>
		<path class="st0" d="M317.1,190c0.1,1.1,0.1,2.1,0.1,3.2c0,5.2,0.1,10.3,0,15.5c0,1.5,0.2,3,0,4.6c-0.1,1.6,0,3.2,0,4.8
			c0,2,0,4,0,6c0,0.6,0,1.2-0.3,1.7c-0.2,0.3-0.8,0.5-1.3,0.5c-2.7,0-5.4,0-8.2,0c0-0.3,0-0.6,0-0.8c0,0-0.1,0-0.1,0
			c-0.1,0.3-0.2,0.5-0.2,0.8c-2.4,0-4.8,0-7.1,0c0-0.3,0-0.5,0-0.7c-0.1,0-0.2,0-0.2,0c-0.1,0.2-0.1,0.4-0.2,0.7
			c-0.8,0.3-3.3,0-3.6-0.3c-0.4,0.1-0.7,0.4-1,0.4c-1.7,0-3.4,0-5.2,0c0-0.2,0-0.3,0-0.5c-0.4,0.1-1-0.4-1.2,0.5c0,0.1-0.4,0-0.6,0
			c-1.7,0-3.3,0-5,0c-5.7,0-11.4,0-17.1,0c-2,0-3.9,0-5.9,0c-2.9,0-5.8,0-8.7,0c-0.2,0-0.5-0.3-0.8-0.5c0,0.2-0.1,0.3-0.1,0.7
			c-0.9-0.2-1.8-0.4-2.8-0.5c-0.3,0-0.6,0.3-0.8,0.3c-0.6,0.1-1.2,0-1.8,0c-0.7,0.1-1.1-0.1-1.1-1c-1,1.7-2.5,0.8-3.8,1
			c-0.4,0.1-0.9-0.2-1.4-0.3c-0.1,0-0.2-0.1-0.3-0.1c-2.2,0.8-4.5,0.2-6.7,0.3c-2.6,0.1-5.1,0-7.7,0c-1.2,0-2.3,0-3.5,0
			c-1.1,0-2.2,0.2-3.1-0.7c-0.1-0.1-0.3-0.1-0.5-0.1c0.1,0.3,0.2,0.5,0.3,0.8c-0.8,0-1.5,0-2.2,0c-0.2,0-0.5-0.3-0.7-0.4
			c-0.2-0.1-0.5-0.3-0.6-0.2c-0.2,0.1-0.2,0.4-0.4,0.7c-0.2,0-0.6,0.1-0.8,0c-0.6-0.3-1.2,0-1.8,0c-2.4,0-4.8,0-7.2,0
			c-1.2,0-2.5-0.1-3.7-0.1c-0.8,0-0.8-0.5-0.8-1c0-1.7,0-3.5,0-5.2c0-0.3,0.2-0.5,0.3-0.8c-0.6-0.2-0.4-0.9-0.3-1.3
			c0.1-0.3,0.7-0.5,1-0.5c1.1,0.1,2.3-0.3,3.5,0.3c0.3,0.2,0.9-0.2,1.4-0.4c0,0.1,0,0.2-0.1,0.3c0.3,0.2,0.5,0.4,0.9,0.7
			c0.1-0.3,0.1-0.5,0.2-0.9c1.7,0,3.4,0,5.2,0c2,0,3.9,0,5.9,0c3.1,0,6.3,0,9.4,0c0.3,0,0.6,0.2,1,0.3c0.2-0.1,0.6-0.3,1-0.3
			c3.2,0,6.4,0,9.5,0c0.4,0,0.9,0.3,1.3,0.5c0,0.1,0,0.2,0,0.3c-0.2,0.1-0.5,0.3-0.7,0.4c0,0.1,0,0.2,0,0.2c0.2,0,0.6,0.1,0.7,0
			c0.2-0.4,0.3-0.8,0.6-1.4c1.1,0,2.6,0,4,0c0.2,0.2,0.3,0.5,0.5,0.6c0,0,0.3-0.2,0.4-0.2c-0.1-0.1-0.2-0.3-0.3-0.4c1,0,2,0,3.2,0
			c-0.3,0.1-0.4,0.2-0.5,0.2c0,0.1,0,0.1,0,0.2c0.2,0,0.6,0.1,0.6,0.1c0.2-0.7,0.7-0.4,1.1-0.4c1.7,0.1,3.3,0,5,0c1.7,0,3.5,0,5.2,0
			c1.7,0,3.5,0,5.2,0c0.9,0,1.9,0.1,2.8,0c0.6-0.1,1.1,0.3,1.8,0.1c0.6-0.2,1.4,0,2.1,0c0.8,0,1.5,0,2.3,0c0.7,0,1.5,0,2.2,0
			c0.7,0,1.5,0,2.2,0c0.8,0,1.6-0.1,2.4,0c1,0.1,1.9,0.3,2.9,0.4c0,0-0.1-0.2-0.2-0.4c0.9,0,1.7-0.1,2.5,0c0.7,0.1,1.6-0.5,2.1,0.5
			c1.3-0.7,3.2-0.8,3.5-0.2c0.6-0.1,1.1-0.3,1.6-0.3c1.1,0,2.3,0.2,3.4,0.3c0.8,0,1.6-0.2,2.3-0.2c2.2-0.1,4.5-0.1,6.7-0.1
			c0.3,0,0.7-0.1,1-0.1c0.9,0,1-0.6,1-1.3c0-2,0-4,0-6c0-3.6,0-7.1,0-10.7c0-2.1,0-4.3,0-6.4c0-0.4,0.1-0.7,0.2-1.1
			c-0.1-0.2-0.3-0.6-0.2-0.7c0.3-0.3,0.5-0.4,0-0.6c-0.1,0,0-0.4,0-0.6c0-3.9,0-7.8,0-11.7c0-2.3,0-4.6,0-6.9c0-0.3,0.3-0.6,0.3-0.9
			c0-0.3-0.3-0.7-0.3-1c0-6,0-11.9,0-17.9c0-2.2,0-4.4,0-6.6c0-0.6,0-1.2,0.9-1.3c-0.3-0.1-0.6-0.2-0.9-0.3c0-4.5,0-9.1,0-13.6
			c0-0.2,0.2-0.4,0.4-0.8c-0.1-0.1-0.3-0.3-0.5-0.6c0-0.1,0.1-0.1,0.1-0.2c0.2,0.1,0.5,0.2,0.7,0.3c-0.9-0.7-0.7-1.7-0.7-2.6
			c0.1-1.7-0.1-3.4-0.1-5.1c0-0.6,0-1.2,0-1.8c0-0.3,0.2-0.6,0.3-0.9c-0.1-0.2-0.3-0.4-0.3-0.6c0.1-1.2,0.2-2.3,0.2-3.5
			c0-0.4-0.2-0.8-0.2-1.3c0-3.6,0.1-7.2,0.1-10.8c0-3.1-0.1-6.2-0.1-9.2c0-1.9,0-3.8,0-5.8c0-0.3,0.1-0.6,0.2-0.9
			c0,0.2,0.1,0.4,0.1,0.6c0.3-0.1,0.6-0.1,0.8-0.1c-0.1-0.5-0.2-1-0.4-1.7c-0.1,0.4-0.2,0.7-0.3,0.9c-0.1-0.3-0.3-0.5-0.4-0.8
			c0-0.8-0.4-1.1-1.1-1.1c-1.3,0-2.6,0-3.8,0c-0.8,0-1.4,0.4-1.8,0.9c-1.2,1.6-2.4,3.2-3.6,4.8c-0.5,0.8-1,1.6-1.6,2.4
			c-0.2-0.2-0.4-0.3-0.7-0.6c-0.1,0.2-0.2,0.3-0.4,0.5c0.2,0.1,0.5,0.2,0.7,0.3c-1.5,1.9-2.6,4.2-4.9,5.4c-2,1.1-3.8,2.7-6.1,3.3
			c-0.1,0.1-0.3,0.4-0.5,0.6c-1.8,1.1-3.6,2.2-5.4,3.3c-0.4,0.2-0.8,0.3-1.5,0.6c0.1-3.6,1.5-6.9,2-10.3c0.2,0.1,0.4,0.1,0.6,0.2
			c0-0.1,0.1-0.1,0.1-0.2c-0.2-0.1-0.4-0.3-0.6-0.4c0.1-0.3,0.2-0.7,0.3-1c0.3,0,0.7,0.1,1,0.1c0-0.1,0-0.1,0-0.2
			c-0.3-0.1-0.6-0.1-1-0.2c0.6-2.3,0.7-4.8,2.6-6.6c0.4-0.4,0.6-0.8,0.9-1.2c0.4-0.6,1.2-1.2,0.1-1.9c-0.1,0,0-0.3-0.1-0.5
			c-0.9,1.1-2,0.5-3,0.7c-0.1-0.2-0.2-0.5-0.3-0.7c-0.2,0.1-0.3,0.4-0.5,0.4c-1.2,0.1-2.4,0.1-3.7,0.1c0-0.1,0-0.2,0.1-0.6
			c-0.8,1-1.7,0.8-2.5,0.8c-3.9,0-7.7,0-11.6,0c-0.3,0-0.7-0.3-1-0.3c-0.2,0-0.4,0.1-0.7,0.2c-0.1,0-0.3,0.2-0.4,0.2c-3,0-6,0-9,0
			c-0.9,0-1.9-0.2-2.8-0.3c-0.3,0-0.6,0.3-0.9,0.3c-0.6-0.1-1.1-0.3-1.8-0.5c0.1,0.2,0.1,0.3,0.2,0.5c-0.1,0-0.2,0-0.3,0
			c-6.1,0-12.2,0-18.2,0c-6.9,0-13.7,0-20.6,0c-0.3,0-0.6,0.1-0.8,0c-0.2-0.1-0.4-0.3-0.4-0.6c0-0.3,0.2-0.8,0.1-0.9
			c-0.5-0.4-1.1-0.7-1.7-1.1c-0.1,0.1-0.1,0.2-0.2,0.3c0.3,0.2,0.6,0.5,0.9,0.6c0.8,0.2,0.7,0.8,0.5,1.3c-0.1,0.2-0.6,0.4-0.9,0.4
			c-0.8,0.1-1.6,0-2.3,0c-0.7,0-1.1-0.3-1.1-1.1c0-2.3,0-4.6,0-6.9c0-0.8,0.3-1.1,1-1c1.5,0.1,3,0.2,4.5,0.2c1.1,0,2.1-0.2,3.2-0.2
			c0.7,0,1.4,0.3,2.1,0.2c1,0,1.9-0.2,2.9-0.3c1.7,0,3.5-0.1,5.2,0c0.5,0,1,0.4,1.6,0.6c0-0.1,0-0.3,0.1-0.6c2.2,0,4.5,0,6.7,0
			c1.2,0,2.4,0,3.6,0.1c0.5,0,1.1,0.2,1.6,0.4c0.2-0.1,0.7-0.5,0.9-0.4c1.1,0.5,2.2-0.1,3.3-0.1c2.2,0.1,4.3-0.1,6.5,0.1
			c2.8,0.2,5.5-0.3,8.3,0.2c1.8,0.3,3.6-0.1,5.4-0.2c0.8,0,1.7,0,2.5,0c0.1,0.3,0.2,0.6,0.4,0.9c0.1,0,0.2-0.1,0.2-0.1
			c-0.1-0.2-0.2-0.4-0.3-0.7c0.3,0,0.5-0.1,0.8-0.1c3.3,0,6.5-0.1,9.8,0c1,0,2-0.1,2.9,0c1,0,2.1-0.1,3.1,0c1,0.1,2-0.1,3,0
			c1.1,0,2.2,0,3.3,0c1.1,0,2.2,0,3.3,0c1.1,0,2.2,0,3.3,0c0.9,0,1.8-0.3,2.4-1.1c2.3-3.1,4.6-6.1,6.9-9.2c1.6-2.1,3-4.3,4.7-6.3
			c1.7-2.1,3.1-4.4,4.8-6.4c1.3-1.6,2.5-3.2,3.7-4.8c1.9-2.6,3.8-5.3,5.8-7.9c1-1.4,2.1-2.9,3.2-4.3c0.4-0.5,0.9-0.9,1.4-1.4
			c0,0-0.1-0.1-0.3-0.2c1.2-1.3,1.9-3,3.3-4c0.1-0.3,0.1-0.6,0.3-0.9c1.5-2,3-4,4.5-6c0.4-0.5,1.1-0.7,1.3-1.2
			c0.5-1.7,1.8-2.8,2.7-4.1c0.4-0.6,0.9-1.2,1.2-1.5c0.5,0,0.8,0,1,0c0.2,0,0.4,0,0.4,0c0.8,0.7,1.5,1.6,2.4,2
			c1.6,0.6,2.7,1.9,4.1,2.8c0.6,0.4,1.1,0.8,1.7,1.2c-0.1,0.1-0.2,0.3-0.2,0.5c0.1,0.1,0.2,0.2,0.2,0.1c0.8-0.3,1.5,0.4,1.6,1.2
			c0.1,0.9-0.6,1.4-1.1,2c-0.7,0.9-1.5,1.8-2.3,2.7c-0.3,0.3-0.3,0.8-0.5,1.2c-3.3,4.4-6.5,8.9-9.8,13.3c-0.2,0.3-0.6,0.5-0.9,0.7
			c0,0.2,0,0.6-0.1,0.8c-0.3,0.5-0.6,0.9-1,1.3c-0.2,0.2-0.5,0.3-0.8,0.3c-0.4,0-0.5,0.1-0.5,0.6c0,0.7-0.4,1.4-0.9,2
			c-1,1.4-2,2.7-3,4.1c-1,1.3-2,2.6-3,3.9c-0.1,0.1-0.5,0.1-0.6,0.2c-0.2,0.2-0.3,0.5-0.4,0.7c0.1,0,0.1,0.1,0.2,0.1
			c-2.1,2.9-4.2,5.8-6.3,8.6c-0.8,1-1.8,1.9-2.6,2.9c-0.4,0.5-0.5,1.1-0.8,1.6c-0.9,1.4-1.9,2.7-3,4.1c0.4,0.2,0.8,0.3,1.1,0.5
			c0.2,0.1,0.5,0.3,0.7,0.4c0.1,0.1,0.3,0.1,0.4,0.1c1.3-0.9,2.7-0.2,4.1-0.4c0.4-0.1,0.8,0,1.2,0c0.6,0,1.2,0,0.8,1
			c0.3-0.4,0.5-0.6,0.6-0.8c0.1,0.3,0.4,0.7,0.4,1c0,1.7,0,3.5,0,5.2c0,2.6,0,5.2,0,7.8c0,0.2,0,0.4,0,0.7c-0.3,0-0.6,0.1-0.8,0.1
			c0,0.1-0.1,0.2-0.1,0.2c0.2,0.2,0.5,0.4,0.8,0.8c-0.1,0.5,0.5,1.5-0.3,2.1c0.1,0.3,0.4,0.5,0.4,0.7c0,5.6,0,11.2-0.1,16.9
			c0,0.8,0.1,1.7,0.1,2.5c0,1,0.1,2.1,0,3.1c-0.1,1,0.1,1.9,0.1,2.9c-0.1,1,0,2.1,0,3.1c0,0.3-0.2,0.5-0.3,0.8
			c-0.1,0.1-0.2,0.3-0.3,0.4c0.2,0.1,0.3,0.1,0.4,0.1c0,2.6,0,5.1,0,7.6c0,1.5,0.1,3.1,0.1,4.6c0,1.9-0.1,3.8-0.1,5.7
			c0,2.3,0.1,4.5,0.1,6.8c0,0.6-0.1,1.1-0.9,1.1c0.3,0.2,0.6,0.4,0.9,0.6c0,2.9,0,5.8,0,8.7c0,0.3-0.3,0.5-0.5,0.8
			c0.1,0,0.3,0.1,0.5,0.2c0,2.8,0,5.6,0,8.4c0,0.8,0.1,1.7,0.1,2.5c0,6.2,0,12.5,0,18.7C317.3,189.2,317.2,189.6,317.1,190
			c-0.2,0-0.5,0-0.6,0.1c-0.4,0.4-0.6,0.8-1,1.3c0.1,0.2,0.2,0.4,0.3,0.5c0.2-0.2,0.5-0.5,0.8-0.8c0-0.1-0.2-0.3-0.3-0.5
			c0.1,0.1,0.2,0.1,0.3,0.2C316.8,190.5,317,190.3,317.1,190z M326.9,32.2c0.5,0.1,1,0.1,1.3,0.4c1.5,1,2.9,2.1,4.5,3.3
			c0.3-0.3,0.7-0.7,1-1.1c1.1-1.5,2.2-2.9,3.3-4.4c0.1-0.2,0.2-0.6,0.1-0.7c-0.7-0.7-1.4-1.4-2.1-2.1c-0.3-0.3-0.5-0.6-0.7-0.9
			c-0.1-0.2-0.1-0.5-0.2-0.8c-0.1,0-0.2,0.1-0.2,0.1c0.1,0.3,0.1,0.6,0.2,0.9c-0.1,0-0.2,0-0.2,0c-1.3-0.8-2.2-2-3.7-2.5
			c-0.2-0.1-0.4-0.4-0.4-0.7c-0.1-0.4-0.1-0.9-0.1-1.4c-0.5,0.3-0.8,0.6-1,0.7c0.2,0.2,0.5,0.3,0.6,0.5c0.1,0.3,0.1,0.7,0.2,0.9
			c0.2,0.4,0.2,0.6,0,0.9c-1.3,1.8-2.7,3.6-4,5.3c0.6,0.4,1.1,0.8,1.6,1.2C327,31.9,326.9,32.1,326.9,32.2z M290.1,94
			c-2.3-1.7-4.4-3.3-6.6-4.9c-0.9-0.7-1.5-0.3-1.8,0.8c-0.4,1.7-0.7,3.4-1.2,5.1c-0.3,0.9,0.2,1.3,0.9,1.6c0.6,0.3,1.2,0.3,1.8,0.6
			c0.5,0.3,1,0.2,1.4-0.1C286.4,96.2,288.1,95.2,290.1,94z M213.2,77.8c0-0.1,0-0.1,0-0.2c-0.8-0.2-1.6-0.3-2.3-0.5
			c-0.9-0.2-1.1-0.1-1.2,0.8c0.6-0.2,1.2-0.3,1.8-0.5c-0.1,0.9-0.2,1.6-0.3,2.5c0.3-0.3,1.1,0,0.7-0.9c-0.1-0.2,0.4-0.6,0.7-0.8
			C212.6,78,212.9,77.9,213.2,77.8z M321.4,49.9c1-0.2,1.9-0.4,2.9-0.6C323.4,48.8,321.8,49.2,321.4,49.9z M307.7,161.3
			c0.4,0.4,0.8,0.7,1.1,1c0.3-0.3,0.5-0.7,0.9-1.2C308.9,161.2,308.4,161.2,307.7,161.3z M311.2,168.6c-0.6,0-1.1-0.1-1.6-0.1
			c0.1,0.6,0.2,1.1,0.2,1.4C310.3,169.5,310.7,169.1,311.2,168.6z M293.2,82.6c0.3-0.5,0.7-1,0.6-1.3c-0.1-0.4-0.7-0.6-0.9-0.9
			C293,81.1,293.1,81.7,293.2,82.6z M314,99.7c-0.1,1.2-1.1,0-1.5,0.7c0.2,0,0.4,0.1,0.6,0.2c-0.3,0.4-0.5,0.7-0.7,0.9
			c0.1,0,0.1,0.1,0.2,0.1c0.5-0.5,1.1-0.9,1.6-1.4C314.3,100.1,314.1,99.9,314,99.7z M313.5,105.9c0,0.1-0.1,0.2-0.1,0.2
			c0.6,0.2,1.3,0.4,1.9,0.6c0-0.3,0-0.6,0-0.8C314.8,105.9,314.2,105.9,313.5,105.9z M308.4,184.5c1.2,0.5,0.7-1,1.5-1
			c-0.3-0.1-0.6-0.2-1-0.2C308.7,183.7,308.6,184.1,308.4,184.5z M308.2,140.4c0.1,0.6,0.1,1.1,0.2,1.6c0.1,0,0.2,0.1,0.2,0.1
			c0.3-0.3,0.5-0.6,0.8-0.9C309,141,308.7,140.8,308.2,140.4z M298.9,77.9c-1,0.2-1.3,0.5-1,1.1c0.1,0.1,0.3,0.1,0.5,0.2
			C298.6,78.8,298.7,78.5,298.9,77.9z M266,82.4c0,0,0.1,0.1,0.1,0.1c0.1,0,0.2,0,0.2-0.1c0.2-0.2,0.4-0.4,0.7-0.6
			c-0.3-0.1-0.5-0.2-0.8-0.3c-0.2-0.1-0.4-0.2-0.6-0.4c-0.1,0.2-0.1,0.3-0.2,0.5c0.3,0.1,0.6,0.2,0.9,0.3
			C266.2,82.1,266.1,82.3,266,82.4z M280.9,221.9c-0.4,0.2-0.4,0.2,0.1,1.3c0.3-0.2,0.6-0.4,0.9-0.5
			C281.6,222.5,281.2,222.2,280.9,221.9z M310,133.3c0.3,0.1,0.6,0.3,1,0.5c0.1,0,0.3,0.1,0.4,0c0.1,0,0.1-0.3,0.1-0.3
			c-0.4-0.3-0.9-0.7-1.3-1C310.1,132.9,310.1,133.1,310,133.3z M228.5,82.6c0.3-0.3,0.6-0.5,0.8-0.8c0-0.1-0.1-0.2-0.1-0.3
			c-0.5,0-0.9,0.1-1.5,0.1C228,82,228.2,82.2,228.5,82.6z M310.5,198.7c-0.7-0.1-1-0.1-1.4-0.1c-0.5-0.1-0.6,0-0.4,0.5
			c0.1,0.2,0.2,0.4,0.3,0.6c0.2-0.2,0.4-0.4,0.6-0.6C309.8,198.9,310.1,198.9,310.5,198.7z M316.3,151.6c-0.3,0.5-0.5,0.9-0.8,1.5
			C316.5,153,316.8,152.5,316.3,151.6z M236.1,218.1c-0.2-0.2-0.5-0.3-0.7-0.5c0.1,0.4,0.3,0.8,0.6,1.1c0,0,0.5-0.1,0.6-0.3
			c0.1-0.2,0.1-0.5,0.2-0.8c-0.1,0-0.2,0-0.2-0.1C236.3,217.7,236.2,217.9,236.1,218.1z M299.4,218.2c0,0.1,0,0.2,0.1,0.3
			c0.5-0.1,0.9-0.1,1.4-0.2c0,0,0-0.4,0-0.8C300.2,217.9,299.8,218.1,299.4,218.2z M326.3,27.3c0.2,0,0.7,0.2,0.7,0
			c0.2-0.3,0.3-0.7,0.3-1.1c0,0-0.3-0.2-0.3-0.2c-0.1,0.1-0.2,0.3-0.3,0.4C326.6,26.7,326.5,26.9,326.3,27.3z M258,222.6
			c0.4,0,0.8,0.1,0.9,0c0.5-0.6,0.3-1-0.4-1.1C258.3,221.5,258.2,222.2,258,222.6z M296.6,220.8c0.1-0.5,0.2-0.9,0.3-1.2
			c-0.4-0.1-0.7-0.1-1.2-0.2C296,219.9,296.2,220.3,296.6,220.8z M289.1,218.7c0,0.1,0.1,0.1,0.1,0.2c0.5,0,1,0,1.6,0
			c-0.4-0.3-0.6-0.6-0.9-0.7C289.7,218.2,289.4,218.5,289.1,218.7z M307.1,149.3c0.2,0.1,0.6,0.1,0.9,0.2c-0.3-1.2-0.3-1.2-0.7-1.1
			C307.2,148.6,307.1,148.9,307.1,149.3z M337.6,26.7c0.4-0.3,0.8-0.5,1.2-0.7c-0.4-0.5-1.3,0.4-1.4-0.6
			C337.5,25.8,337.5,26.1,337.6,26.7z M303.3,219.5c-0.1,0.1-0.2,0.2-0.3,0.4c0.3,0.2,0.5,0.4,0.8,0.6c0,0,0.3-0.3,0.4-0.5
			C304,219.8,303.7,219.7,303.3,219.5z"/>
		<path class="st0" d="M121.7,203.3c-0.5,0-1-0.2-1.3-0.6c-0.5-0.5-0.7-0.9-0.7-1.5c0-0.5,0.2-1,0.7-1.4l0.8-0.7
			c1.7-1.7,3.6-3.4,5.4-5c0,0,0.1-0.1,0.1-0.1l0.6-0.5c0.2-0.2,0.2-0.2-0.1-0.9l0-0.1c-1.5-3.4-1.1-6.5,1.1-9.2
			c0.7-0.8,1.4-1.4,2.4-1.9c0.1-0.1,0.3-0.7,0.3-1.3c0-0.5-0.1-1.1-0.2-1.7c-0.1-0.4-0.1-0.8-0.2-1.3c-0.1-1-0.1-2-0.2-2.9
			c-0.1-1.2-0.1-2.4-0.2-3.6c-0.1-0.7-0.2-1.5-0.3-2.2c-0.1-0.5-0.1-1.1-0.2-1.6l-1.1,0.3l-0.2-0.5c-0.1,0-0.2,0.1-0.3,0.2
			c-0.2,0.1-0.3,0.1-0.5,0.1l-0.1,0l-3.3,0c-1.7,0-3.3,0-5,0c-0.3,0-0.6-0.1-0.7-0.2c0,0-0.1,0-0.1,0l0,0c-0.1,0.1-0.3,0.2-0.4,0.3
			c-0.8,0.6-1.6,1.1-2.3,1.7c-0.7,0.6-1.4,1.2-2.1,1.8c-0.6,0.6-1.3,1.1-1.9,1.7c-1.3,1.1-2.3,2-3,2.9c0,0,0,0.4,0,0.6
			c0,0.1,0,0.2,0,0.4c0.1,0.1,0.2,0.3,0.3,0.4c0.2,0.5,0,0.9-0.2,1.2c0.8,0.8,0.5,1.7,0.3,2.3c-0.1,0.2-0.1,0.5-0.1,0.6
			c0,0.3,0,0.9-0.4,1.3c0,0-0.1,0.1-0.2,0.1c0,0,0,0,0,0.1c0.1,0.5-0.2,0.9-0.4,1.1c0,0-0.1,0.1-0.1,0.1c-0.7,1.3-1.9,2.3-3.5,3.2
			c-0.3,0.1-0.3,0.2-0.2,0.5c0.4,1.5,0.8,3,1.2,4.5c0.3,1.1,0.6,2.2,0.9,3.4c0.3,1.1,0,1.8-0.2,2.1c-0.3,0.3-0.7,0.7-1.6,0.7
			c-0.4,0-0.9,0-1.3-0.4c-0.3-0.3-0.4-0.7-0.4-1.2c0-0.1-0.2-0.4-0.3-0.6c-0.1-0.2-0.3-0.5-0.4-0.8c-0.1-0.3-0.1-0.6-0.1-0.8
			c0-0.1,0-0.1,0-0.2c0,0,0,0-0.1-0.1c-0.1-0.1-0.3-0.3-0.4-0.6c-0.1-0.3-0.2-0.6-0.3-1c-0.3-1-0.7-2-0.8-3.1
			c-0.2-1.1-0.7-1.6-2.1-1.9c-1.5-0.3-2.9-1-3.9-2.2c-0.8-0.9-1.4-1.7-1.7-2.5c-0.4-0.8-0.5-1.6-0.7-2.5l-0.1-0.5
			c-0.1-0.4,0.1-0.7,0.2-0.9l-0.5-0.5l0.4-0.3l0,0l0.1-0.6c0.6-3.1,2.4-5.2,5.4-6.3c1-0.4,2.1-0.6,3.1-0.6c1.7,0,3.2,0.5,4.7,1.5
			c0.2,0.1,0.4,0.2,0.5,0.2c0,0,0.2,0,0.5-0.3c0.6-0.5,1.2-1,1.7-1.6c0.6-0.5,1.2-1.1,1.8-1.6c0.5-0.5,1-0.9,1.6-1.3
			c0.8-0.7,1.7-1.4,2.5-2.2c0.2-0.2,0.4-0.4,0.6-0.7c0.1-0.2,0.2-0.3,0.3-0.5c0.1-0.2,0.2-0.3,0.3-0.4c0-0.1,0-0.2,0-0.3
			c-0.1-0.5-0.1-0.9-0.1-1.4c0-2.1,0-3.9,0.1-5.5l-0.1,0l0-3.4c0-2.8,0-5.7,0-8.5c0-0.5,0.1-0.9,0.4-1.1c0.4-0.4,0.8-0.4,1.2-0.4
			c1,0,2,0,2.9,0c0.9,0,1.8,0,2.6,0c0.3,0,0.5-0.1,0.8-0.1l-0.1-0.6c-0.2-0.1-0.4-0.2-0.5-0.4c-0.2-0.4-0.1-0.7,0-1
			c-1.1-1.2-2.6-3.8-2.7-5.2l-1.1-1.8l0.1-0.1c-0.2-0.2-0.3-0.4-0.4-0.6c-0.8-1.6-1.6-3-2.2-4.3c-0.2-0.4-0.3-0.8-0.3-1.2
			c0-0.1,0-0.1,0-0.2c-0.2-0.2-0.5-0.4-0.7-0.7c-0.6-1.2-1.2-2.4-1.8-3.6c-0.3-0.6-0.6-1.2-0.9-1.8c-0.2-0.5-0.8-0.5-1.2-0.5
			c-0.1,0-0.2,0-0.3,0c-0.2,0-0.3,0-0.5,0c-0.7,0-1.4-0.1-2-0.4c-0.9-0.4-1.8-0.9-2.6-1.5l-0.3-0.2c-0.3-0.2-0.4-0.5-0.5-0.8
			c-0.9-0.4-1.5-1.1-1.6-1.8c0-0.2,0-0.4,0-0.5c-0.4-0.3-0.5-0.8-0.6-1.1l0-0.2c-0.5-1.8-0.4-3.7,0.4-5.4c1.1-2.6,2.9-4.2,5.3-4.8
			c0.1,0,0.2,0,0.3,0c0.2,0,0.5,0.1,0.7,0.1l0-0.2l0.5-0.1c0.5-0.1,1-0.2,1.5-0.2c2.3,0,4.5,1.3,5.7,2.4c0.1,0.1,0.2,0.2,0.2,0.4
			c0.8,0.4,1.2,1.2,1.4,1.8c0.1,0.1,0.1,0.2,0.2,0.3c1,2.1,1.1,4.4,0.2,6.7l-0.2,0.4l-0.1,0l-0.2,0.4c-0.1,0.1-0.1,0.3-0.2,0.4
			c-0.2,0.3-0.3,0.7-0.6,1c-0.4,0.5-0.9,1-1.5,1.5c-0.4,0.3-0.4,0.4-0.2,0.7c1.5,2.9,3,5.9,4.3,8.6c0.2,0.3,0.2,0.6,0.3,0.9
			c0,0.2,0.1,0.4,0.2,0.6c0,0,0.1,0.1,0.1,0.1c0.2,0.1,0.4,0.3,0.5,0.6c0.6,1.2,1.2,2.4,1.7,3.6c0.6,1.2,1.2,2.5,1.8,3.7
			c0.9,1.8,1.7,3.4,2.6,4.9c0.2,0,0.6,0,0.8,0l0.1,0c1.6,0,3.3,0,4.9,0c1.4,0,2.9,0,4.3,0c0.5,0,0.9-0.2,1.1-0.9l0-0.1
			c0.1-0.5,0.3-1.1,0.5-1.6c0.1-0.3,0.4-0.5,0.5-0.7c0,0,0.1-0.1,0.1-0.1c0.1-0.1,0.1-0.1,0.2-0.2c-0.2-1.3-0.2-1.5,0.2-2.8l0.2-0.6
			c0.4-1.2,0.7-2.4,1-3.6c0.1-0.5,0.3-0.9,0.6-1.1c0-0.1,0-0.2-0.1-0.3c-0.1-0.2-0.2-0.4-0.4-0.5l0.1,0.4l-1.3-1.5
			c0,0-0.5-0.4-0.5-0.4l0.1-0.1c-1.2-1.3-1.8-2.9-2-4.7c-0.1-1,0-2.1,0.2-3c0.3-1.3,0.8-2.3,1.4-3c1.8-2.3,4.1-3.5,6.7-3.5
			c0.3,0,0.5,0,0.8,0c0,0,0,0,0,0c0.2,0,0.3,0,0.3-0.1c0,0,0,0,0-0.1c0-0.6,0.2-1.1,0.4-1.5c0.1-0.2,0.1-0.3,0.2-0.5
			c0.2-0.4,0.3-0.9,0.5-1.3c0.4-1,0.7-2,1-3c0.2-0.8,0.7-1.3,1.2-1.6l-0.4-0.3l0.2-0.5c0-0.1,0.1-0.3,0.1-0.4
			c0.1-0.4,0.2-0.8,0.4-1.2c0.4-0.7,0.9-1.1,1.6-1.1c0.2,0,0.4,0,0.6,0.1c1.3,0.5,1.9,1.3,1.6,2.4c-0.2,0.8-0.5,1.5-0.8,2.2
			c-0.2,0.4-0.3,0.8-0.5,1.2c-0.1,0.3-0.2,0.6-0.3,0.9c-0.1,0.2-0.1,0.5-0.2,0.7l-0.4,1.3c-0.4,1.3-0.8,2.5-1.3,3.8
			c-0.1,0.2-0.1,0.2,0.2,0.5l0.3,0.3c0.8,0.9,1.7,1.9,2.5,3c0.5,0.7,1,1.7,0.6,3.1c-0.1,0.4,0,0.8,0,1.3c0.1,0.5,0.1,1,0,1.5
			c-0.3,2.6-2.9,5.5-5.5,6.1c-0.6,0.1-1.3,0.2-1.9,0.2c-0.5,0-0.9,0.1-1.3,0.1c-0.1,0-0.2,0.1-0.2,0.2c-0.1,0.3-0.2,0.7-0.3,1
			c-0.1,0.3-0.1,0.5-0.2,0.8c-0.1,0.2-0.2,0.5-0.3,0.6c0,0.2-0.1,0.4-0.1,0.5c-0.1,0.5-0.1,0.9-0.2,1.4c-0.6,2.2-1.2,4.3-1.9,6.5
			c0,0.1,0,0.1,0,0.2c0,0,0,0,0,0c0.7,0,1.4,0,2,0.1c0.5,0,1.1,0.1,1.6,0.1c0.5,0,0.9,0,1.4,0c0.4,0,0.8,0,1.1,0c0.1,0,0.1,0,0.2,0
			c0.7,0,1,0.3,1.3,0.5c0.3,0.3,0.5,0.8,0.5,1.3c0,0.3-0.1,0.7-0.2,0.9c-0.1,0.2-0.1,0.4-0.1,0.6c0,0,0,0,0,0c0,0,0,0.1,0.1,0.1
			c0.1,0.2,0.2,0.4,0.2,0.7l0,0.4c0,0.8,0.1,1.6,0,2.4c-0.1,0.8-0.1,1.5,0,2.3c0,0.5,0.1,1,0.1,1.6c0,1.3,0,2.6,0,3.8l0,0.4
			c0,1,0,2,0,3l0,2l-0.2,0c0.3,0.6,0.2,1.2,0.2,1.7c0,0.2,0,0.3,0,0.5c0,0.5-0.2,1-0.5,1.4c-0.3,0.4-0.8,0.5-1.4,0.6
			c-0.4,0-0.8,0-1.2,0c-0.9,0-1.9,0-2.8,0l-1.8,0l-3.3,0v0l-2.9,0c-0.5,0-2.2,0-2.2,0c-0.3,0-0.5,0-0.6,0c0,0.2,0,0.6,0,1l0,0.5
			c0,0.1,0,0.3,0,0.5c0,0.1-0.1,0.3-0.1,0.4l0.2,0c0,0,0.4,6.1,0.5,7.7c0.1,0.9,0.1,1.8,0.2,2.7c0,0.3,0.1,0.5,0.7,0.5
			c1.2,0.1,2.8,0.4,4.2,1.5c0.4,0.3,0.6,0.6,0.9,0.8c0.1,0.1,0.1,0.2,0.2,0.2l0.3,0.4l-0.1,0.2c0.2,0,0.4,0.1,0.7,0.2
			c0.2,0.1,0.2,0.1,0.3,0.1c0.1,0,0.3,0,0.5-0.1c1.1-0.5,2.1-1,3.2-1.4c0.6-0.2,1.1-0.5,1.7-0.7c0.4-0.2,0.7-0.2,1-0.2
			c0.7,0,1.2,0.3,1.5,0.9c0.3,0.6,0.5,1.7,0,2.3c-0.1,0.2-0.3,0.3-0.4,0.5l0.5,0.2l-2.1,0.6l-0.2,0l-1.2,0.5c-0.8,0.3-1.6,0.7-2.4,1
			c-0.4,0.1-0.5,0.3-0.4,0.7c0.1,2.3-0.5,4.4-1.8,6.1c-0.2,0.3-0.6,0.7-1,1l0.1,0.2l-0.6,0.4c-1.7,1.2-3.5,1.7-5.2,1.7
			c-1.3,0-2.6-0.3-3.8-0.9c-0.2-0.1-0.4-0.2-0.6-0.2c-0.1,0-0.3,0-0.6,0.3c-0.3,0.2-0.5,0.4-0.8,0.7c-0.8,0.6-1.6,1.3-2.4,2
			c-0.6,0.6-1.3,1.3-1.9,1.9c-0.4,0.4-0.8,0.9-1.3,1.3C122.9,203.1,122.3,203.3,121.7,203.3z M134.7,184.2c-0.9,0-1.8,0.3-2.7,1
			c-1.1,0.9-1.7,2.2-1.8,3.6c0,1.3,0.4,2.5,1.3,3.4c0.2,0.2,0.3,0.4,0.5,0.5c0.1,0.1,0.2,0.3,0.3,0.4c0.2,0,0.4,0.1,0.6,0.1
			c0.7,0.2,1.3,0.3,1.9,0.3h0c0.5,0,1-0.1,1.4-0.3c0.8-0.4,1.6-0.8,2.2-1.4c0.2-0.2,0.3-0.5,0.4-0.9c0.2-0.5,0.4-1.1,0.9-1.5
			c-0.2-0.4-0.4-0.8-0.5-1.3c-0.3-1.6-1.3-2.9-2.8-3.5C135.9,184.3,135.3,184.2,134.7,184.2z M96,177.7c0,0.2,0,0.4,0,0.6
			c0,0.4,0,0.7,0,1.1c0.1,1.4,1.7,3.3,2.7,3.6c0.6,0.2,1.2,0.2,1.7,0.2c1.3,0,2.4-0.4,3.4-1.4c0.1-0.1,0.1-0.1,0.2-0.2l0.4-0.7
			c1-1.8,0.9-3.4-0.3-5c-0.9-1.2-2.2-1.9-3.7-1.9c-1.7,0-3.3,0.9-4.1,2.5c-0.1,0.1-0.1,0.2-0.1,0.3c-0.1,0.2-0.2,0.4-0.3,0.7V177.7z
			 M118.8,162.8c0,0,0.1,0,0.4,0l2,0c2.3,0,4.7,0.1,7,0.1l0.2,0c2.4,0,4.8,0,7.2-0.1c1.5,0,3,0,4.5,0c0.6,0,1.2,0,1.8,0l2.8,0
			c0.5,0,1.1,0,1.6,0c0.5,0,0.6-0.1,0.6-0.6c0-1,0-2,0-2.9l0-4.4c0-2.6,0-5.2,0-7.8c0-0.6-0.1-0.7-0.1-0.8c0,0,0,0,0,0
			c-0.1,0-0.2,0-0.5,0l-0.1,0c-2,0-3.9,0-5.9,0c-2.2,0-4.4,0-6.5,0l-1,0c-0.3,0-0.6-0.1-0.8-0.2c0,0,0,0,0,0
			c-0.4,0.2-1.2,0.3-2.5,0.3c-1,0-2.3-0.1-3.1-0.4c-0.2,0.1-0.5,0.3-0.9,0.3c-1.1,0-2.1,0-3.2,0c-0.7,0-1.4,0-2,0l-0.3,0
			c-0.5,0-0.8,0-1.1,0.1c0.1,0.2,0.2,0.5,0.2,0.8c0,0.7,0,1.5,0,2.2c0,0.8,0,1.6,0,2.4c0,0.6,0,1.2,0,1.8c0,0.9-0.1,1.7,0,2.5
			c0,0.3,0,0.5,0,0.8c0,0.1,0,0.2,0,0.4c0,0.6,0,1.1,0,1.7c0,1.1,0.1,2.1,0,3.2C118.7,162.6,118.8,162.8,118.8,162.8
			C118.8,162.8,118.8,162.8,118.8,162.8z M146.2,118.1c-1.5,0-3.4,0.5-4.4,3.1c-0.7,1.7-0.1,3.8,1.4,5c1,0.8,1.9,1.2,2.8,1.2
			c0.8,0,1.6-0.3,2.5-0.8l0.2-0.2c1.2-0.8,1.8-1.9,1.9-3.4c0-0.2,0-0.3,0.1-0.5l0,0l-0.1-0.7c-0.3-2-2.3-3.5-3.9-3.7
			C146.6,118.1,146.4,118.1,146.2,118.1z M106.3,113.3c0.2,0.3,0.4,0.6,0.6,1c0.2,0.4,0.4,0.7,0.7,1c0.9,0.9,1.9,1.3,2.9,1.3
			c0.1,0,0.3,0,0.4,0c0.5-0.1,1-0.1,1.4-0.2c0.1,0,0.2,0,0.4-0.1c0.1-0.1,0.2-0.3,0.4-0.4c0.2-0.3,0.5-0.5,0.8-0.8
			c0.5-0.5,1-0.9,1.2-1.4c0.3-0.7,0.3-1.6,0.1-2.8c-0.4-2-2.3-3.6-4.5-3.6c-0.2,0-0.5,0-0.7,0.1c-1.2,0.2-2.2,0.7-2.7,1.5
			c-0.4,0.6-0.8,1.3-1.1,2.1c-0.1,0.2-0.2,0.3-0.2,0.5c0,0,0,0.1,0,0.1c0.1,0.4,0.2,0.8,0.2,1.1L106.3,113.3
			C106.3,113.3,106.3,113.3,106.3,113.3z"/>
		<path class="st0" d="M244.9,140.4c-0.6,0-1.2,0-1.7-0.1c-0.3,0-0.6,0-0.9,0c-0.4,0-0.9,0-1.3,0c-0.5,0-0.9,0.1-1.4,0.1
			c-0.2,0-0.4,0-0.5,0c-0.2,0-0.4,0-0.7-0.1v0c0,0-2.7,0-3.1,0c-0.6,0-1.3,0-1.9,0l0,0h-1c-0.3,0-0.6,0-0.9,0c-0.3,0-0.6,0-0.9,0
			c-0.4,0-0.9,0-1.3,0c-0.9-0.1-1.5-0.8-1.5-1.8l0-1.7c0-1.2,0-2.5,0-3.7c0-0.3,0.1-0.6,0.2-0.8c-0.1-0.2-0.2-0.5-0.2-0.8
			c0-2.1,0-4.2,0-5.9c0-0.3,0.2-0.6,0.2-0.7c0,0,0-0.1,0-0.1c-0.6-0.8-0.3-1.7-0.1-2.4c-0.1-0.2-0.2-0.4-0.2-0.7
			c0-0.8,0-1.5,0.1-2.2c0-0.7,0-1.3,0.1-2c0-0.1,0-0.2,0-0.3c0-0.2-0.1-0.5-0.1-0.7c0.1-1.2,0.1-2.5,0-3.8c0-0.9-0.1-1.7,0-2.6
			c0-1.6,0-3.2,0-4.8c0-0.7,0-1.4,0-2.1l0-6.8c0-1.6,1-2.2,1.9-2.2c0.1,0,0.2,0,0.2,0c1.2,0.1,1.9,1,1.8,2.2c0,0.4-0.1,0.9-0.2,1.3
			l0.1,0.4c0,0.1,0.1,0.2,0.1,0.4l0,5.5c0,4.6,0,9.1,0,13.7c0,0,0,0.1,0,0.1c0.6-0.7,1.2-1.4,1.8-2.1c0.1-0.1,0.1-0.2,0.2-0.3
			c0.2-0.2,0.4-0.6,0.7-0.8l4.3-5.1l0.2,0.1c0.1-0.3,0.2-0.6,0.5-0.9c0.6-0.8,1.3-1.6,2-2.4l0.7-0.8c0.4-0.5,0.9-0.7,1.5-0.7
			c0.5,0,1.1,0.2,1.8,0.6c0.4,0.2,0.8,0.5,1.2,0.7l2.1,1.2c1.3,0.8,2.7,1.5,4,2.3c0.3,0.2,0.4,0.4,0.5,0.6c0,0,0,0.1,0.1,0.1
			c0,0,0.1,0.1,0.1,0.2c0.1,0,0.2,0,0.3,0c0.6,0,1.1,0.3,1.5,0.6c0.2,0.1,0.3,0.2,0.4,0.3c0.4,0.2,0.8,0.4,1.1,0.6
			c0.2,0.2,0.5,0.3,0.7,0.4c0.1,0,0.2,0.1,0.4,0.1c0.1,0,0.2,0,0.3,0c0.1-0.1,0.3-0.1,0.4-0.1c0.1,0,0.3-0.1,0.3-0.1c0,0,0,0,0-0.1
			c0.1-0.6,0.6-0.9,1-1.2c0.2-0.1,0.4-0.2,0.4-0.3c0,0,0.1-0.1,0.1-0.2c0.1-0.2,0.2-0.4,0.4-0.6c0.3-0.3,0.7-0.6,1-1
			c0.3-0.3,0.6-0.5,0.9-0.8c0.5-0.5,1-1,1.5-1.5c0.6-0.6,1.2-1.2,1.7-1.7c0.3-0.2,0.5-0.4,0.8-0.6c0,0,0.1-0.1,0.1-0.1
			c0.5-1.1,2.3-2.7,3.3-3l0.4-0.1c0.2-1.2,1.9-3,3-3h0l0.1,0c0.7,0.1,1.4,0.6,1.9,1.2c0.4,0.6,0.1,1.7-0.4,2.2
			c-3.2,3.2-6.4,6.4-10,9.9c-0.8,0.8-1.6,1.6-2.5,2.4c-0.8,0.8-1.6,1.5-2.4,2.3c-0.8,0.8-1.4,1.2-2.2,1.2c-0.6,0-1.2-0.3-2-0.8
			c-2-1.2-4-2.3-5.9-3.4l-3.5-2c-0.7-0.4-1.5-0.8-2.2-1.3c-0.2-0.1-0.3-0.1-0.3-0.1c0,0-0.1,0-0.1,0.1c-0.9,1-1.8,2.1-2.7,3.1
			l-0.6,0.7l0.3,0.1l-1,1c-0.5,0.4-0.9,1-1.3,1.5c-0.6,0.8-1.2,1.5-2,2.2l0.1,0.3l-1.1,0.5l0.1,0.3l-0.3,0.4
			c-0.5,0.7-1.1,1.4-1.7,2.1c-1,1.1-2,2.2-2.4,3.6l-0.1,0.2c0.1,0.4,0.3,0.9,0.3,1.4c0,1.3,0,2.7,0,4l0,0.6c0,0.4-0.2,0.6-0.3,0.8
			l-0.1,0.1c-0.1,0.1-0.1,0.2-0.2,0.4l0.7,0.1l0,1.4c0,0.6,0,1.2,0,1.8c0,0.2,0,0.4,0.1,0.4c0,0,0.1,0.1,0.4,0.1c0.7,0,5.1,0,5.1,0
			h0.6l0,0.1h6.3l0.2,0.3c0.7-0.4,1.4-0.4,1.8-0.4l0.6,0c0.7,0,1.3,0,2,0l5.5,0c0.9,0,1.8,0,2.6,0c0.2,0,0.5,0.1,0.6,0.1
			c0.1,0,0.2,0.1,0.3,0.1c0,0,0,0,0,0c0.2,0,0.3,0,0.5,0c0.1,0,0.2,0,0.3,0l0.1,0c0.2,0,0.4,0,0.5,0l5.4,0c0.2,0,0.3-0.1,0.5-0.1
			c0.2,0,0.4,0,0.5,0c0.1,0,0.2,0,0.4,0c3.2,0,6.5,0,9.7,0c3.4,0,6.9,0,10.3,0c0.3,0,0.5,0.1,0.8,0.2c0.1,0,0.2,0.1,0.3,0.1
			c0.1,0,0.2,0,0.3,0c0.3,0,0.6,0.1,0.8,0.3c0.4,0.3,0.6,0.9,0.5,1.6c-0.1,0.7-0.4,1.3-0.9,1.6c-0.5,0.3-1,0.3-1.3,0.3
			c-4.3,0-8.5,0-12.8,0l-17.9,0c-0.5,0-0.9,0-1.4,0c-0.5,0-0.9,0-1.4,0c-0.9,0-1.6,0-2.3-0.1c-0.1,0-0.2,0-0.3,0c-0.2,0-0.3,0-0.5,0
			c-0.2,0-0.3,0-0.5,0l-0.1,0c-0.5,0-0.8-0.2-1.2-0.3c0,0,0,0,0,0c0,0-0.1,0-0.1,0c-0.4,0.1-0.8,0.3-1.2,0.3
			C246.4,140.3,245.7,140.4,244.9,140.4z"/>
		<path class="st0" d="M232.8,156.8c-0.7,0-1.3,0-2,0c-1.4-0.1-2-0.6-2.3-1.1c-0.3-0.4-0.5-1.2,0-2.3c0.3-0.7,1.2-1.3,1.9-1.3l0.9,0
			c1.5,0,3,0,4.5,0c1.2,0,2.4,0,3.7,0l0.1,0c0.8,0,1.7,0,2.5-0.1c0.5,0,1,0,1.5-0.1l0.1,0c0.1,0,0.2,0,0.3,0c0.1,0,0.3,0,0.6,0.1
			c0.1,0,0.2-0.1,0.3-0.1c0.4,0,0.7,0,1.1,0c0.4,0,0.8,0,1.2,0c0.6,0,1.1,0,1.5,0.1c0.2,0,0.4,0.1,0.7,0.1c0.3,0,0.7,0,1-0.1
			c0.2,0,0.4,0,0.6,0c0.1,0,0.2,0,0.3,0c0.3,0,0.6,0,0.9,0c0.3,0,0.5,0,0.8,0c0.2,0,0.4,0,0.5,0c0.4-0.1,0.8-0.1,1.3-0.1
			c0.4,0,0.9,0,1.3,0l0.4,0c0.3,0,0.6,0.1,0.9,0.2c0.3-0.2,0.6-0.3,0.8-0.3c0.4,0,0.8,0.2,1.2,0.5c0.1,0,0.3-0.1,0.3-0.1
			c0,0,0.1,0,0.1-0.1c0.2-0.1,0.5-0.3,0.8-0.3c2,0,3.9,0,5.9,0c1.8,0,3.6,0,5.5,0l0.1,0c0.7,0,1.5,0,2.2,0c0.7,0,1.5,0,2.2,0
			c0.2,0,0.4,0,0.6,0c0.7,0,1.5,0,2.2,0c1,0,1.9,0,2.9,0c1,0,1.9,0,2.9,0c0.8,0,1.6,0,2.4,0c0.4,0,0.7,0.1,0.9,0.2
			c0.1,0,0.2,0.1,0.4,0.1c0.1,0,0.2,0,0.3,0c0.1,0,0.2,0,0.3-0.1l0.2,0l0.2,0.1c0.6,0.3,1.5,1.1,1,2.9c-0.2,0.5-0.7,1.5-2.4,1.5
			c-2,0-3.9,0-5.8,0l-6.2,0c-0.6,0-1.2,0-1.8,0c-0.6,0-1.2,0-1.8,0c-0.7,0-1.5,0-2.2,0c-1.2,0-2.4-0.1-3.6-0.2
			c-1.2-0.1-2.3-0.1-3.5-0.2h0c-0.1,0-0.3,0.1-0.5,0.1c-0.3,0.1-0.6,0.2-1,0.2c-1.2,0-2.3,0-3.5,0l-3.8,0h-18.7c-0.5,0-1,0-1.5,0
			C233.8,156.8,233.3,156.8,232.8,156.8z"/>
		<path class="st0" d="M234.2,184.1c-0.2,0-0.5,0-0.7,0c-0.2,0-0.4,0-0.6,0l-1.3,0c-0.3,0-0.5,0-0.8,0c-1.3,0-1.9-0.6-2.3-1
			c-0.3-0.4-0.6-1.2-0.2-2.3c0.3-0.9,1-1.4,2.1-1.4c1,0,2,0,3,0c2,0,4.2,0.1,6.2,0.1l0.2,0c2.7,0,5.4,0,8.1-0.1c1.3,0,2.6,0,3.9,0
			l0.4,0c0.6,0,1.3,0,2,0.1l10.1,0c2.3,0,4.7,0,7,0c1.2,0,2.4,0,3.6-0.1c1.1,0,2.2,0,3.3-0.1c1.2,0,2.4,0,3.6,0l4.3,0l2.2,0
			c1.2,0,2,0.5,2.4,1.6h0.2l-0.1,0.3l0.2,0.5l-0.3,0.1l0,0c0,0.1,0,0.1,0,0.2c0,0.3-0.1,0.8-0.4,1.1c-0.5,0.4-1.1,0.8-1.8,0.8
			l-0.1,0c-1.9,0-3.8,0.1-5.7,0.1c-1.7,0-3.2,0-4.6-0.1c-0.2,0-0.4,0-0.6,0c-0.5,0-1,0-1.5,0c-0.5,0-1,0-1.5,0c-0.1,0-0.3,0-0.4,0
			c-1.4,0-2.8,0-4.2,0l-3.8,0c-0.8,0-1.6,0-2.4,0c-0.5,0-1-0.1-1.4-0.2c-0.1,0-0.2-0.1-0.3-0.1c-0.1,0-0.2,0-0.2,0.1
			c-0.4,0.1-0.8,0.2-1.2,0.2c-1.6,0-3.3,0-4.9,0c-1.3,0-2.6,0-3.8,0l-0.4,0c-0.4,0-0.8,0-1.1,0c-0.4,0-0.8,0-1.2,0
			c-0.5,0-0.9,0-1.4-0.1l-1.1-0.1c-0.6,0.1-1.2,0.1-1.8,0.1c-0.2,0-0.4,0-0.6,0c-0.3,0-0.6,0-0.9,0c-0.5,0-1,0-1.5,0
			c-0.5,0-1.1,0-1.6,0c-0.3,0-0.5,0-0.8,0c-0.5,0-1,0-1.5,0c-0.5,0-0.9,0-1.3,0.1c-0.1,0-0.1,0-0.2,0c-0.3,0-0.5-0.1-0.7-0.1
			c-0.1,0-0.3-0.1-0.4-0.1c-0.1,0-0.1,0-0.1,0C235,184,234.6,184.1,234.2,184.1z"/>
		<path class="st0" d="M277.1,174.8c0,0-1.1,0-1.9-0.3l0.1,0.2c0,0-15.2,0-17.4,0c-5,0-8.9,0-12.6-0.1l-0.2,0c-0.6,0-1.1,0-1.7,0
			c-0.6,0-1.1,0-1.7,0c-0.5,0-1,0-1.4,0c-0.4,0-0.6-0.2-0.7-0.4c0,0,0,0,0,0c-0.1,0-0.2,0-0.2,0c-0.1,0-0.2,0.1-0.3,0.1
			c-0.3,0.1-0.6,0.3-0.9,0.3c-0.1,0-0.2,0-0.3,0c-0.1,0-0.2,0-0.3,0c-0.2,0-0.3,0-0.5,0c-0.2,0-0.4,0-0.6,0c-0.3,0-0.9,0-1.4-0.3
			c-0.1,0-0.2,0.1-0.3,0.1c-0.3,0.1-0.6,0.2-1,0.2l-0.1,0c-0.6,0-1.2,0-1.8-0.1c-0.6,0-1.1-0.1-1.7-0.1c-1,0-1.6-0.6-1.6-1.5l0-0.2
			c0-0.7-0.1-1.5,0.4-2.2c0.4-0.5,1.1-0.5,1.4-0.5c0.1,0,0.6,0,0.6,0c0.1,0,0.1,0,0.2,0l0.4,0c0.4,0,0.8-0.1,1.1-0.1l2.1,0
			c1,0,2,0,3,0c1.2,0,2.5,0,3.7,0c0.3,0,0.5,0,0.8,0c0.5,0,1,0,1.5,0c0.5,0,1,0,1.6,0c0.2,0,0.4,0,0.6,0c0.6,0,1.2,0,1.8,0l5.3,0
			c0.7,0,1.4,0,2.1,0c0.4,0,0.8,0.2,1.1,0.3c0,0,0.1,0,0.1,0c0,0,0,0,0.1,0c0.3-0.1,0.8-0.3,1.3-0.3c1.1,0,2.2-0.1,3.3-0.1
			c0.9,0,1.8,0,2.6,0.1c0.2,0,0.4,0,0.7,0c0.4,0,0.8,0,1.2,0c0.4,0,0.9,0,1.3,0c0.2,0,0.4,0,0.5,0c0.5,0,1,0,1.5,0c0.4,0,2,0,2.4,0
			l7.9,0c0.2,0,0.4,0,0.6,0c0.2,0,0.5,0,0.7,0c0.4,0,0.8,0,1.1,0.1c0.1,0,0.2,0,0.2,0.1l-0.2-0.9l2.4,1.1c0.4-0.3,1-0.3,1.1-0.3
			l0.3,0c0.4,0,0.7,0,1.1,0c0.4,0,0.7,0,1.1,0c0.6,0,1.1,0,1.6,0c0.1,0,0.1,0,0.2,0c1.2,0,1.7,0.9,1.8,1.3c0.4,0.7,0.3,1.6-0.1,2.3
			c-0.4,0.7-1.2,1.2-2,1.2c-0.4,0-0.9,0-1.3,0c-0.7,0-1.4,0-2.1,0c-1.1,0-2,0-2.8-0.1c-0.1,0-0.2,0-0.2,0c-0.2,0-0.5,0-0.7,0
			c-0.3,0-0.6,0-0.8,0c-0.2,0-0.4,0-0.6,0c-0.2,0-0.5-0.1-0.7-0.2c-0.2-0.1-0.5-0.1-0.7-0.1c-0.1,0-0.1,0-0.2,0
			C277.9,174.8,277.3,174.8,277.1,174.8z"/>
		<path class="st0" d="M258.8,193.4c-0.4,0-0.8-0.1-1.1-0.1c-0.3,0-0.5-0.1-0.7-0.1c0,0,0,0,0,0c-0.1,0-0.2,0-0.3,0
			c-0.1,0-0.2,0-0.3,0c-0.6,0.1-1.1,0.1-1.6,0.1c-0.6,0-1-0.1-1.5-0.2c0,0-0.1,0-0.1,0c-0.1,0-0.2,0-0.3,0c-0.2,0-0.3,0.1-0.5,0.1
			l-0.5,0c-1,0-1.9,0-2.9,0c-1,0-2,0-2.8-0.1c0,0-0.1,0-0.1,0c-0.2,0-0.4,0-0.6,0.1c-0.3,0-0.5,0.1-0.8,0.1c-0.3,0-0.5,0-0.8-0.1
			c-0.2,0-0.4-0.1-0.5-0.2c-0.2,0.1-0.5,0.2-0.8,0.2c-2.5,0-5,0-7.6-0.1l-3.8,0c0,0-0.1,0-0.1,0c-0.1,0-0.3,0.1-0.5,0.1
			c-0.7,0-1.4-0.3-1.9-0.8c-0.3-0.4-0.5-0.8-0.5-1.2c0.1-0.8,0.2-2.1,1.7-2.4l0.8-0.2l0.1,0.3c0.1,0,0.2,0,0.3,0
			c0.2,0,0.5,0,0.8,0.1l0,0c0,0,0.1,0,0.1,0c0.2-0.1,0.5-0.2,0.8-0.2l2.4,0c1.4,0,2.7,0,4.1,0c2,0,3.6,0,5.1,0.1c0.1,0,0.2,0,0.3,0
			c0.4,0,0.8,0,1.2,0c0.4,0,0.9,0,1.3,0c0.3,0,0.6,0,0.9,0c0.3,0,0.5,0.1,0.7,0.1c0.2,0,0.3,0.1,0.5,0.1c0.1,0,0.3,0,0.4-0.1
			c0.2-0.1,0.5-0.1,0.8-0.1c2.1,0,4.2,0,6.2,0l5.3,0l0.3,0.5l0.3-0.5h7.8c0.4,0,0.8,0,1.2,0c0.4,0,0.8,0,1.2,0c0.5,0,1,0,1.6,0
			c0.5,0,1,0.1,1.4,0.2c0.5,0.1,1,0.2,1.4,0.2c0.2,0,0.4,0,0.6-0.1c0.8-0.2,1.6-0.3,2.2-0.3l1,0c0.2,0,0.4,0,0.6,0
			c0.2,0,0.3,0,0.5,0c0.5,0,1.1,0,1.6,0.1c0.5,0,1,0.1,1.5,0.1l0.1,0c0.8,0,1.7-0.1,2.5-0.2c0.4,0,0.8-0.1,1.1-0.1l0.1,0l0.3-0.7
			l0.8,1.1c0.7,0.9,0.8,2,0.4,3.1c-0.3,0.6-1.1,1.1-1.7,1.1l-0.5,0c-1.1,0-2.1,0-3.2,0c-1.1,0-2.1,0-3.2,0l-0.2,0
			c-1.8,0-3.6,0-5.4,0.1c-2,0-4.1,0.1-6.1,0.1l-0.2,0c-0.8,0-1.6-0.1-2.4-0.1c-0.8-0.1-1.5-0.1-2.2-0.1c0,0,0,0,0,0
			c-0.7,0-1.4,0.1-2.1,0.1c-0.5,0.1-1.1,0.1-1.6,0.1c0,0,0,0,0,0c-0.4,0-0.7-0.2-0.9-0.3c-0.1,0-0.1-0.1-0.2-0.1c0,0-0.1,0-0.2-0.1
			C260,193.2,259.4,193.4,258.8,193.4z"/>
		<path class="st0" d="M268.3,165.3c-0.4,0-0.9,0-1.3,0c-0.4,0-0.6-0.2-0.9-0.3c-0.1,0-0.1-0.1-0.2-0.1c-0.2,0-0.4,0.1-0.7,0.1
			c-0.5,0.1-1.1,0.2-1.7,0.2c-3.2,0-6.4,0-9.6,0l-18.2,0l-1.2,0c-0.4,0-0.8,0-1.2,0c-0.1,0-0.3,0-0.4-0.1c-0.1,0.1-0.2,0.1-0.4,0.1
			c-0.9,0-1.9,0-2.8-0.2c-0.5-0.1-1-0.3-1.2-0.7c-0.3-0.4-0.4-1-0.3-1.5l0-0.2c0.1-0.6,0.4-1.9,1.8-1.9c0.1,0,0.1,0,0.2,0
			c0.3,0,0.7,0.1,1,0.2c0.4,0.1,0.8,0.1,1.2,0.1c0.5,0,0.9-0.1,1.4-0.2c0.3-0.1,0.6-0.1,1-0.1l0.1,0c0.3,0,0.5,0.1,0.7,0.2
			c0,0,0,0,0,0c0.2-0.1,0.6-0.2,1-0.2c1.6,0,3.2,0,4.8,0c1.4,0,2.8,0,4.2,0l0.1,0c0.7,0,1.4,0,2.2,0c0.7,0,1.5,0,2.2,0
			c0.2,0,0.5,0,0.7,0c0.7,0,1.4,0.1,2.1,0.2c0.5,0.1,1.1,0.1,1.6,0.1c0,0,0.2-0.1,0.2-0.1c0.2-0.1,0.5-0.2,0.8-0.2
			c2.1,0,4.2,0,6.2,0c2.2,0,4.3,0,6.5,0c0.4,0,0.7,0.2,1,0.3c0.1,0,0.2,0.1,0.3,0.1c0,0,0.1,0,0.1,0c0.9-0.4,1.9-0.5,2.7-0.5
			c0.3,0,0.6,0,0.9,0c0.3,0,0.6,0,0.8,0l0.1,0c1,0,2,0,3,0l6.7,0c0.7,0,1.5,0,2.2,0c0.2,0,0.3,0.1,0.4,0.1l0.1-0.4l1.9,0.5
			c0.3-0.2,0.6-0.3,0.9-0.3c1,0,1.2,1.1,1.3,1.7c0,0.1,0,0.1,0,0.2c0.1,0.8-0.1,1.5-0.5,1.9c-0.4,0.5-1,0.7-1.8,0.7l-18.7,0
			L268.3,165.3z"/>
		<path class="st0" d="M183.4,204.8c-0.3,0-0.6,0.1-0.9,0.1c-0.4-1.6,0.9-3.4,3.4-3.5c2.6,0,5.2-0.1,7.8,0c0.9,0.1,1.8-0.1,2.7-0.1
			c1,0.1,2,0,3,0c0.3,0,0.6,0.2,1,0.4c0.1,0,0.3-0.4,0.5-0.4c1.8,0,3.5,0.1,5.3,0.2c1.8,0.1,2.5,2,2.4,3.5c-0.1,1.3-1.5,2.6-3,2.6
			c-4.1,0-8.3,0-12.4,0c-2,0-4.1,0.1-6.2,0c0-0.2,0-0.4,0-0.7c-0.1,0-0.2,0-0.2,0c-0.5,0.9-1.2,0.8-2,0.6c-1.1-0.3-1.8-0.9-2.1-1.9
			C182.6,205.5,183.1,205.2,183.4,204.8z"/>
		<path class="st0" d="M205.5,97c0.2,0.3,0.3,0.4,0.3,0.6c-5.5,0-11,0-16.5,0c0-0.1,0-0.3,0-0.4c-0.2,0-0.3,0.1-0.5,0.1
			c-0.1,0.1-0.3,0.4-0.4,0.3c-1.4,0-2.7,0-4.1-0.2c-1.3-0.2-2.2-1.8-2-3.3c0.1-1.5,1.5-2.8,3-2.8c2.1,0,4.1-0.1,6.2,0
			c1.2,0.1,2.3-0.2,3.5,0c1.1,0.1,2.2,0.3,3.3,0.3c1.6,0,3.2-0.3,4.8-0.2c1.3,0,2.6-0.3,3.9,0.4c1.2,0.7,1.5,1.8,1.4,2.9
			c0,1.1-0.5,2.1-1.6,2.5C206.6,97.4,206.1,97.1,205.5,97z"/>
		<path class="st0" d="M189.5,119.4c-1.3,0.7-2.8,0.1-4,0.3c-0.2-0.5-0.3-1.2-0.7-1.4c-0.3-0.2-0.9,0-1.6,0.1
			c-1.6-1.5-0.4-4.9,1.9-5c-0.1,0.3-0.2,0.6-0.3,0.9c0.1,0.1,0.2,0.1,0.3,0.2c0.2-0.3,0.5-0.6,0.8-1c4.9,0,10.1,0,15.1,0
			c0.1,0.2,0.3,0.5,0.4,0.8c0.1,0,0.1-0.1,0.2-0.1c0-0.3,0-0.5,0-0.8c1.4,0,2.7-0.1,4.1,0c0.7,0.1,1.4,0.1,2,1.1
			c1.1,1.9,1.3,2.5,0.3,4c-0.7,0.9-1.7,1.1-2.7,1.1c-1.3,0-2.7-0.2-4-0.2c-2.1,0-4.3,0.2-6.4,0.2c-1.2,0-2.4,0-3.6,0
			C190.5,119.7,190,119.5,189.5,119.4z M183.4,117.7c0.1-0.5,0.2-0.7,0.2-1c0.2,0.1,0.4,0.2,0.6,0.3c0.1,0,0.1-0.1,0.2-0.1
			c-0.3-0.3-0.6-0.7-0.9-1c-0.2,0.3-0.4,0.5-0.6,0.7C183,116.8,183.2,117.2,183.4,117.7z"/>
		<path class="st0" d="M200,135.6c0.2,0.2,0.4,0.3,0.5,0.4c0.1-0.7,0.8-0.4,1.1-0.4c1.5-0.1,3.1-0.2,4.6,0c2,0.3,2.9,2.7,2.1,4.1
			c-0.3-0.6-0.7-1.1-1.5-0.6c0.4,0.4,0.8,0.9,1.3,1.3c-1.2,1.5-2.1,1.7-2.8,0.6c-0.1,0.4-0.1,0.6-0.2,0.9c-2.3,0-4.8,0-7.3,0
			c-0.6,0-1.3,0.1-1.9,0.1c-2,0-4.1,0.1-6.1,0c-1.6-0.1-3.2,0-4.8-0.2c-1-0.1-2-0.7-2.5-1.8c-0.5-1.2-0.3-2.4,0.6-3.2
			c0.6-0.6,1.3-1.2,2.4-1.1c1.7,0.1,3.3,0.1,5,0c0.7,0,1.2,0.1,1.1,1.3c0.2-0.6,0.3-0.9,0.4-1.2C194.8,135.6,197.5,135.6,200,135.6z
			 M184.8,137.5c-0.3,0-0.6-0.1-0.9-0.1c0.1,0.7,0.1,1.2,0.1,1.9C184.3,138.5,184.5,138.1,184.8,137.5z"/>
		<path class="st0" d="M201.1,157.8c0.1-0.1,0.3-0.3,0.5-0.3c0.6,0.1,1.1,0.3,1.7,0.3c0.4,0,0.8,0,1.1-0.1c0.1,0.3,0.2,0.5,0.4,1
			c0.6-1.4,1.2-1.7,2.1-0.9c0.6,0.5,1.7,0.9,1.6,2c0,0.9-0.1,1.8-0.6,2.5c-0.4,0.6-1.5,1.3-2,1.2c-1-0.3-1.6,0.5-2.5,0.3
			c-1-0.2-2,0-3,0c-0.7,0-1.4,0-2.1,0c-0.2,0-0.3-0.2-0.5-0.3c-0.1-0.1-0.4-0.2-0.4-0.2c-0.5,1.1-1.4,0.1-2.1,0.4
			c-0.7,0.3-1.6,0.1-2.4,0c-0.3,0-0.5-0.2-0.7-0.3c-0.2-0.1-0.3-0.1-0.5-0.2c-0.1,0.2-0.1,0.3-0.1,0.4c-2.1,0-4.2,0.1-6.3,0
			c-1.6-0.1-2.7-1.5-2.6-3.3c0.1-1.5,1.4-2.8,2.9-2.7c1.1,0,2.2,0.3,3.3,0.3c0.5,0,1-0.3,1.4-0.3c1.3,0,2.5,0,3.9,0
			c-0.1,0.2-0.1,0.5-0.2,0.8c0.2-0.1,0.6-0.2,0.5-0.3c-0.2-0.6,0.2-0.5,0.6-0.5c1.2,0.1,2.4,0.2,3.5,0.3c0.4,0,0.9-0.3,1.3-0.3
			C200.2,157.5,200.6,157.7,201.1,157.8z M195.2,162.8c-0.6-0.3-1.1-0.6-1.7-0.9C193.8,162.8,194.6,163.3,195.2,162.8z"/>
		<path class="st0" d="M198.3,185.4c-0.2,0.1-0.4,0.3-0.6,0.3c-4.1,0-8.1,0-12.2,0c-1.4,0-2.5-0.9-2.9-2.2c-0.4-1.3,0-2.7,1.2-3.4
			c0.6-0.4,1.3-0.6,2.1-0.2c0.1,0.1,0.3,0.1,0.4,0c0.6-0.5,1.1-0.4,1.4,0.4c0,0.1,0.3,0.1,0.6,0.1c-0.2-0.3-0.4-0.5-0.5-0.7
			c0,0,0-0.1,0.1-0.1c0.5,0,1,0,1.4,0c5.5,0,10.9,0,16.4,0c1.4,0,2.9,1.4,2.8,2.7c-0.1,2.6-1.6,3.4-3.1,3.3c-2,0-4,0-6,0
			C199,185.7,198.7,185.5,198.3,185.4z M205,181.5c0.6-0.1,1-0.2,1.4-0.3c-0.2-0.4-0.3-0.6-0.6-1C205.6,180.6,205.4,180.9,205,181.5
			z"/>
		<path class="st0" d="M234.2,202.7c-0.2,0-0.3,0-0.5,0c-0.2,0-0.5,0-0.8,0c-0.4,0-0.8,0-1.2,0c-0.4,0-0.8-0.2-1.1-0.4c0,0,0,0,0,0
			c-0.2,0.1-0.4,0.2-0.6,0.2h-0.1l-0.1,0c-0.6-0.1-1.1-0.6-1.3-1c-0.4-0.7-0.4-1.5,0-2.2c0.4-0.7,1.2-1.1,2-1.1c1,0,2,0,3,0
			c1.4,0,2.8,0,4.2,0l0.4,0c0.9,0,1.8,0,2.6,0.1c0.9,0,1.8,0.1,2.6,0.1c1.5,0,2.9,0,4.3-0.1c0.8,0,1.6,0,2.4-0.1l0.2,0
			c0.5,0,0.8,0,1.2,0.1c0.1,0,0.1,0,0.2,0.1c0.2-0.2,0.4-0.3,0.7-0.3c0.2,0,0.5,0.1,0.7,0.2c0,0,0.1,0,0.1,0
			c0.2-0.1,0.4-0.1,0.7-0.1c0.6,0,1.1,0,1.7,0l1.5,0l0-0.2l1,0.1c0.6,0,1.2,0.1,1.8,0.1c1.3,0.1,2.6,0.2,3.9,0.2l0.3,0
			c1.4,0,2.8-0.1,4.2-0.1c0.7,0,1.5-0.1,2.2-0.1c0.2,0,0.4,0,0.6,0l1.1,0c1.3,0,2.1,0.7,2.2,1.9c0.1,0.6,0.2,2.6-1.9,2.8
			c-0.4,0-0.8,0.1-1.2,0.1c-0.4,0-0.9,0-1.3-0.1c-0.3,0-0.5-0.1-0.6-0.3c-0.2,0.1-0.4,0.3-0.7,0.3c-0.9,0-1.8,0-2.6-0.1
			c-0.8,0-1.5-0.1-2.3-0.1c0,0,0,0,0,0c-0.2,0-0.4,0.1-0.6,0.1c-0.2,0-0.3,0.1-0.5,0.1l-0.9,0.2v-0.3c-0.1,0-0.2,0-0.3,0
			c-0.1,0-0.1,0-0.1,0c-0.5,0-0.9,0-1.4-0.1c-0.5,0-1.1-0.1-1.6-0.1c-0.6,0-1.1,0-1.6,0.1c-0.6,0-1.1,0.1-1.7,0.1
			c-0.4,0-0.7,0-1.1,0c-0.3,0-0.5,0-0.8,0c-0.4,0-0.8,0-1.3,0c-0.4,0-0.9,0-1.3,0c-0.1,0-0.3,0-0.4,0c-0.4,0-0.7,0-1.1,0
			c-0.3,0-1.4,0-1.7,0c-0.4,0-0.8,0-1.2,0c-0.5,0-0.9-0.2-1.3-0.3c-0.1,0-0.1,0-0.2-0.1c0,0,0,0-0.1,0c-0.3,0.1-0.7,0.3-1.1,0.3
			c-0.9,0-1.7,0-2.6,0c-0.9,0-1.8,0-2.7,0c-0.3,0-0.6-0.1-0.9-0.2c-0.1,0-0.2-0.1-0.4-0.1c0,0-0.1,0-0.2,0.1
			c-0.2,0.1-0.3,0.1-0.5,0.2l-0.4,0.2l-1.5,0.6L234.2,202.7z"/>
		<path class="st0" d="M160,98.9c-0.4,0-0.8-0.1-1.2-0.1c-0.2,0-0.5-0.1-0.7-0.1c-0.4,0-0.7,0-1,0.1c-0.4,0-0.8,0.1-1.2,0.1
			c-0.1,0-0.3,0-0.4,0c-1.7-0.1-3.6-0.2-5.6-0.2c0,0,0,0,0,0c-0.5,0-1,0-1.4,0.1c-0.4,0-0.9,0.1-1.4,0.1l-0.1,0
			c-1.3,0-1.9-0.5-2.2-1c-0.3-0.4-0.5-1.2,0-2.4c0.3-0.6,1-1.1,1.6-1.1c1.2,0,2.4,0,3.6,0l3.9,0c0.2,0,0.4,0,0.6,0
			c0.2,0,0.4,0,0.6,0c0.2,0,0.5,0,0.7,0c0.5,0.1,1,0.1,1.5,0.2l0-0.2l4.2,0c1.6,0,3.2,0,4.8,0c0.6,0,1.1,0.5,1.3,1
			c0.5,1.3,0.3,2.1,0,2.6c-0.3,0.4-0.9,1-2.2,1c-0.1,0-0.2,0-0.3,0c-0.2,0-0.4,0-0.6,0c-0.2,0-1,0-1.2,0h-0.8v-0.1
			c-0.2,0.1-0.4,0.1-0.6,0.1c-0.2,0-0.4,0-0.6-0.1l-0.2-0.1C160.8,98.8,160.4,98.9,160,98.9z"/>
		<path class="st0" d="M162.5,184.6c-1.5,0-3,0-4.6,0c-0.7,0-1.9-0.3-2.2-1.1c-0.7-1.4,0-2.2,0.4-2.6c0-0.1,0-0.2,0.1-0.4l0.1-0.6
			l6.6,0c1.7,0,3.4,0,5.1,0c0.6,0,1.1,0.3,1.4,0.8c0.5,0.7,0.6,1.6,0.2,2.5c-0.5,1.4-1.7,1.4-2.4,1.4L162.5,184.6z"/>
		<path class="st0" d="M159,178.7l-2.7,0c-0.7,0-1.4,0-2.1,0c0,0-0.4,0-0.4,0c-0.2,0-0.8,0-1.2-0.5c-0.2-0.2-0.3-0.5-0.3-0.9
			c-0.1-0.1-0.3-0.3-0.3-0.6c-0.1-0.7-0.1-1.6,0.4-2.1c0.5-0.6,1.3-0.7,2.1-0.7l3.1,0c0.6,0,1.3,0,1.9,0c0.7,0,1.4,0,2.1,0
			c0.9,0,1.9,0,2.8,0c0,0,0,0,0,0c1.1,0,1.3,0.8,1.4,1.1c0,0,0,0.1,0,0.1c0.5,0.8,0.5,1.7,0.1,2.4c-0.4,0.7-1.1,1.1-2.1,1.1
			c-0.7,0-1.3,0-2,0L159,178.7z"/>
		<path class="st0" d="M127,157c-0.7,0-1.5,0-2.2,0l-1.5,0c-2,0-2.5-0.5-2.5-2.5c0-1.8,0.5-2.1,2.4-2.2c1,0,2,0,2.9,0
			c0.9,0,1.8,0,2.7,0l1.6,0c0.3,0,0.5,0.1,0.6,0.2c0.2,0,0.3,0,0.5-0.1c0,0,0.4-0.1,0.5-0.1c0.2,0,0.4-0.1,0.6-0.1l5,0
			c1.5,0,2.9,0,4.4,0c1.2,0,1.8,0.6,1.9,1.8c0,0.9,0.1,1.7-0.5,2.3c-0.5,0.5-1.2,0.6-2.2,0.6c-0.1,0-0.3,0-0.4,0
			c-0.5,0-1-0.1-1.4-0.1c-0.5-0.1-1-0.1-1.4-0.1l-0.1,0c-1.5,0-3,0.1-4.5,0.1c-1.3,0-2.6,0.1-3.9,0.1C128.7,157,127.8,157,127,157z"
			/>
	</g>
	<path class="st1" d="M274.5,159.9c0.5,0.4,1.2,0.7,1.8,0.8c1.9,0.4,3.9,0.7,5.8,0.9c0.8,0.1,1.6,0.3,2.1,0.9
		c0.8,0.9,1.9,1.1,2.9,1.4c0.5,0,1,0.1,0.9,0.2c0.1,0,0.2-0.1,0.3-0.1c0.3-0.2,0.5-0.5,0.6-0.9c0.1-0.7,0.2-1.3,0.3-2
		c0.1-0.4,0.5-0.7,0.8-1.2c1.3,1.4,2.6,1.7,4,0.6c0.2-0.1,0.5-0.3,0.7-0.3c0.2,0,0.5,0,0.7,0c0.1-0.1,0.3-0.2,0.4-0.4
		c0.6-0.6,1.1-1,1.5-1.4c-0.1-1.6-0.1-3.1-0.2-4.7c-1.8-0.9-3.5-1.9-5.2-3.1c-0.1,0.1-0.2,0.2-0.3,0.3c-0.2-0.4-0.4-0.7-0.6-1
		c-0.3-0.2-0.7-0.5-1-0.8c-0.3-0.2-0.5-0.4-0.7-0.6c-0.5-0.2-1-0.4-1.8-0.7c-1.4,1.7-1.8,4.1-4,5.6c-0.2-1.6-0.5-2.9,1.1-3.7
		c0.4-0.2,0.7-0.8,1.1-1.4c-1.6-0.2-2.7-0.6-3.8,0.8c-1.1,1.3-3.1,1.2-4.4,0.1c-0.7-0.6-1.4-0.5-2.2-0.3c-0.9,0.2-1.8,0.3-2.6,0.3
		c-0.3,0-1-0.4-1-0.6c-0.1-1.4-1.1-1.3-2-1.4c-1.1-0.1-0.9,0.9-1.3,1.5c-0.1,0.1-0.2,0.2-0.1,0.1c-1.1-0.1-2.1-0.2-3-0.2
		c-0.4-0.5-0.8-0.9-1.1-1.3c-1.1,0.1-1.7,0.7-2.1,1.5c-0.4,0.8-0.8,1.7-1.2,2.5c-0.3,0.7-0.7,1.4-1.8,1.4c0.1-0.5,0.2-0.9,0.3-1.2
		c0.8,0.3,0.7-0.3,0.7-0.7c0-0.5-0.1-1-0.2-1.5c-0.1-0.2-0.5-0.2-0.8-0.4c-0.6,2-1.1,3.9-1.7,5.7c-0.1,0.2-0.2,0.6-0.1,0.7
		c0.8,1.1,0,1.4-0.7,2c-0.5,0.4-0.7,0.8-1.5,0.3c0.1-0.5,0.2-1.1,0.4-1.7c0.7-1.8,1.3-3.6,2-5.3c0.8-1.9,1.4-3.8-0.3-5.6
		c0,0,0-0.1-0.1-0.2c-0.4-1.1-0.8-1.2-1.5-0.3c-0.4,0.6-0.8,1.3-1.3,1.8c-0.3,0.4-0.8,0.7-1.3,0.8c-0.8,0.2-1.6,0.2-2.6,0.2
		c-0.4-0.4-0.9-0.9-1.4-1.3l-0.3,0.1c0.2,1.8,0.5,3.6,0.5,5.3c0,1.8-0.4,3.7-0.6,5.6c-1.9-1.7-2.4-3.3-1.8-5.5
		c0.2-0.6,0.4-1.2,0.4-1.8c0-0.5-0.3-1.2-0.7-1.5c-0.5-0.4-0.8,0.1-0.8,0.7c0,0-0.1,0.1-0.1,0.1c-2.3,0.9-2.3,0.9-2.3,2.8
		c0,0.2-0.1,0.4-0.2,0.5c-0.4,0.5-0.7,0.9-1.1,1.3c-2.2-0.8-4.5-1.2-5.8-3.3c-0.5,0.1-0.9,0.2-1.5,0.4c0.4-0.5,0.6-0.8,0.9-1.1
		c-0.7,0.5-1.7,0.6-1.8,1.9c0.6,0.2,1.2,0.4,2,0.7c-0.4,2.1-1.1,3.9-2.7,5.3c-0.3-0.2-0.4-0.3-0.5-0.4c-1-1.1-1.2-1.1-2,0
		c-0.2,0.3-0.5,0.5-0.7,0.9c-0.4,0.6-0.7,1.2-1.7,1c-0.7-1.4-0.2-2.9-0.1-4.4c0.4,0,0.6,0.1,0.8,0c0.4-0.1,0.7-0.4,1-0.5
		c-0.2-0.3-0.4-0.7-0.7-1c-0.2-0.2-0.6-0.4-0.8-0.3c-0.9,0.3-1.6-0.3-2.4-0.4c-0.4-0.1-0.8-0.1-1.3-0.2c-0.8-0.1-1.1,0.4-1.1,1.1
		c0,0.4,0,0.7,0.1,1.1c0.3,1.7-0.6,3.1-2.3,3.5c-0.4-0.8-0.2-2.2-1.8-2.2c-0.1,0.3-0.3,0.7-0.2,1c0.5,1.5-0.1,2.6-1.3,3.5
		c-0.5,0.4-0.9,0.9-0.6,1.6c0.2,0,0.5,0.1,0.7,0.1c1.1-0.2,2.1-0.3,3.1,0.6c0.3,0.3,1.1,0.3,1.8,0.4c0-1.3,0-2.4,0-3.4
		c1,0.1,2,0.2,3,0.3c-0.3,1.2-0.3,1.1-1.3,1.8c-0.3,0.2-0.3,0.7-0.4,0.9c1,0.2,1.8,0.2,2.5,0.6c0.8,0.4,1.5,0.3,2.3,0.1
		c1.2-0.4,2.4-0.9,3.7-1.1c1.4-0.2,2.9-0.2,3.9,1.1c0.7-0.2,1.2-1.2,2.2-0.4c1.5,1.1,2.9,2.2,5,2.4c1.7,0.1,2.3,0.3,3.3-1
		c0.2-0.3,0.5-0.6,0.8-0.7c1.2-0.5,2.1-1.2,2.4-2.5c1.1-0.1,1.7,0.4,2.3,1c1.5,1.5,1.9,1.5,3.5,0.2c0.2-0.2,0.4-0.5,0.6-0.7
		c1.3,0.4,2.5,0.8,3.7,1.2c0.2,0.7-0.5,1.7,0.8,1.9c0.3-1.1,0.6-2.2,0.9-3.4c1.4,0.7,2.6,0.7,3.4-0.5c0.7-1,1.4-1.2,2.5-1
		c0.4,0.1,0.8-0.1,1.2-0.2c0.3,0.4,0.6,0.7,0.9,1.1c0.6-0.3,1.1-0.6,1.6-0.9C272.7,159.3,273.5,159.1,274.5,159.9z M277.2,155.7
		l0.1,0.2c-0.3,0.3-0.7,0.6-1,0.9l-0.2-0.3C276.4,156.2,276.8,155.9,277.2,155.7z M224.9,154.8c-0.1-0.1-0.2-0.4-0.2-0.6
		c0.1-0.1,0.2-0.1,0.3-0.2c0.2,0.2,0.4,0.5,0.9,1C225.4,155,225.1,155,224.9,154.8z M254,151.2c-1.3-1.5,0.1-2.6,0.7-3.9
		c0.6,0.1,1,0.3,1.3,0.4C256.5,148,255,150.5,254,151.2z M269.7,154.4c0-1.4,0-2.5,0-3.7C271,152.3,271,152.9,269.7,154.4z"/>
</g>
</svg>
