<?xml version="1.0" encoding="utf-8"?>
<!-- Generator: Adobe Illustrator 19.1.0, SVG Export Plug-In . SVG Version: 6.00 Build 0)  -->
<svg version="1.1" id="Layer_1" xmlns="http://www.w3.org/2000/svg" xmlns:xlink="http://www.w3.org/1999/xlink" x="0px" y="0px"
	 viewBox="0 0 75 75" style="enable-background:new 0 0 75 75;" xml:space="preserve">
<style type="text/css">
	.st0{fill:#757576;}
</style>
<g>
	<path class="st0" d="M6.3,41.5c-0.1,0.1-0.2,0.3-0.5,0.6c-0.1-0.3-0.3-0.5-0.3-0.8c0-1.6,0-3.2,0-4.8c0-0.7,0.3-1,0.9-1.2
		c1.1-0.3,2.1-0.7,3.2-1c0.5-0.1,1.1,0.1,1.8,0.1c0-0.1,0-0.4,0.1-0.7c0,0,0.1,0,0.1,0c0.8-0.2,1.6-0.5,2.5-0.7
		c0.6-0.1,1.1-0.6,1.9-0.2c0.3,0.1,1-0.6,1.5-1c0,0.1,0,0.3,0,0.4c0.4,0.1,0.8,0.3,1.1,0.4c0-0.1,0.1-0.2,0.1-0.3
		c-0.1-0.1-0.2-0.2-0.4-0.2c-0.1-0.1-0.2-0.1-0.4-0.1c0.1-0.1,0.2-0.2,0.2-0.2c2.1-0.6,4.2-1.3,6.3-1.9c0.9-0.2,1.9-0.5,2.7,0.2
		c0.1,0.1,0.4-0.1,0.7-0.2c0.1,0,0.2-0.2,0.3-0.2c0.8,0.5,1.6-0.2,2.4,0c0.9,0.1,1.8,0,2.7,0c0.9,0,1.8,0,2.6,0
		c0.9,0,1.8,0.1,2.7,0.1c4.4,0,8.8-0.1,13.3-0.1c2.4,0,4.8,0,7.2,0c0.3,0,0.7-0.2,0.6,0.4c0,0,0.5,0.2,0.5,0.1
		c0.4-0.8,0.8-0.1,1.2,0.1c0.8,0.4,1.5,0.9,2.3,1.4c0.5,0.3,1.2,0.5,1,1.3c0,0.1,0.2,0.2,0.5,0.4c-0.2-0.4-0.2-0.5-0.4-0.8
		c0.3,0.1,0.5,0.1,0.6,0.2c1.3,0.7,2.6,1.4,3.8,2.3c0.5,0.3,0.8,1.1,0.8,1.7c0.1,1.4-0.1,2.7-0.1,4.1c0,0.7-0.2,1-0.9,0.9
		c-1-0.1-2.1-0.3-3.1-0.3c-0.7,0-1.4,0.3-2.2,0.3c-1.8,0.1-3.6,0.2-5.4,0.2c-3.8,0-7.7,0-11.5,0c-0.5,0-1-0.2-1.5-0.4
		c-0.1,0-0.2-0.1-0.3-0.1c-0.9,0.9-2-0.1-3,0.4c-0.3,0.1-0.6,0.1-1,0.1c-1.8,0-3.7,0-5.5,0c-1,0-2,0.1-3,0.2c-0.3,0-0.6-0.2-0.9-0.3
		c-0.1,0-0.3-0.1-0.5-0.1c-2,0.8-4,0.2-6.1,0.4c-0.7,0.1-1.3,0-2,0c-1.6-0.1-3.1-0.3-4.7-0.3c-2.7,0-5.3,0.1-8,0.1
		c-1.1,0-2.2-0.1-3.3-0.2C6.9,41.9,6.7,41.6,6.3,41.5z M35,39.6c0.1,0.1,0.3,0.2,0.4,0.3c0.3-0.4,0.6-0.8,0.8-1.2
		c0,0-0.1-0.2-0.2-0.3c-0.1-0.1-0.3-0.1-0.3,0C35.5,38.8,35.2,39.2,35,39.6z"/>
	<path class="st0" d="M34.9,43.5c0.1,0.2,0.2,0.4,0.3,0.6c0.1,0.1,0.3-0.1,0.4-0.1c-0.1-0.1-0.1-0.3-0.1-0.3c2,0,4.2,0,6.2,0
		c0,0.2,0.1,0.6,0.1,0.9c0.1,0,0.2,0,0.3,0c0.1-0.4,0.2-0.7,0.3-1.1c3.1,0,6.1,0,9.1,0c0,0.2-0.1,0.4-0.1,0.5
		c0.7-0.2,1.3-0.5,1.9-0.7c-0.1,0.4-0.1,0.7-0.2,1c0.3-0.1,0.6-0.2,0.8-0.4c0.3-0.2,0.6-0.4,0.9-0.5c0.1,0.1,0.2,0.1,0.2,0.2
		c-0.1,0.3-0.2,0.5-0.3,0.9c0.3,0,0.7,0.1,1.3,0.2c-0.3-0.4-0.6-0.7-0.9-1.1c0.4,0,0.7,0,1,0c1.9,0,3.8-0.2,5.6,0.1
		c1.1,0.2,2.1-0.2,3.1-0.1c1.3,0.2,2.5,0,3.8,0.1c0.8,0.1,1.7,0.3,2.4,0.7c0.3,0.2,0.4,0.9,0.5,1.4c0.2,0.3,0.6,0.6,0.6,0.9
		c0.3,3.6-0.9,6.6-3.5,9.1c-1.5,1.4-3.3,2.3-5.2,2.8c-0.2,0-0.4-0.2-0.6-0.3c-0.2-0.1-0.4-0.3-0.6-0.5c-0.1,0.1-0.1,0.1-0.2,0.2
		c0.1,0.2,0.3,0.4,0.5,0.7c-0.3,0.1-0.7,0.2-1,0.2c-1.4,0-2.9,0-4.3,0c-4.7,0-9.4,0-14.1,0c-2.9,0-5.8,0-8.8,0
		c-1.7,0-3.4-0.2-5.1-0.2c-2.2,0-4.3,0.1-6.5,0.2c-0.5,0-0.9-0.2-1.4-0.2c-0.4,0-0.9,0.2-1.3,0.2c-2.2,0-4.4,0.1-6.6,0
		c-2.3-0.1-4.4-0.9-6.1-2.4c-1.9-1.7-3.6-3.6-4.1-6.4c-0.3-1.5-0.5-3,0.1-4.4c0.4-1.1,1.4-1.9,2.5-1.9c6.3,0,12.5-0.1,18.8,0
		c1.7,0,3.4-0.1,5.1,0C31.4,43.5,33.2,43.5,34.9,43.5z M6.6,49.4c0.5,0.9,1.3,1.5,2.4,1.5c1,0,1.9-0.1,2.4-1.1
		c0.5-0.8,0.9-1.6,0.4-2.5c-0.4-0.9-1-1.7-1.4-2.4c-0.3,0.1-0.6,0.3-0.9,0.3c-1.6,0-2.8,0.5-3,2.1C6.4,48,6.6,48.7,6.6,49.4
		c-0.3-0.3-0.5-0.6-0.9-1c0,1.5,0,1.5-0.7,1.6c0.4,0.1,0.8,0.3,1.2,0.2C6.4,50.2,6.4,49.7,6.6,49.4z M36.2,49.8c-0.6-1-1-2.3-1.9-3
		c-0.9-0.7-2.2-0.9-3.4-0.9c-0.9,0-1.8,0.7-2.5,1.3c-0.6,0.4-1.1,1.1-1.3,1.8c-0.7,2.5-0.1,5,2.1,5.9c1,0.4,2.1,0.6,3.2,0.5
		c1.3-0.1,2.4-0.9,3.1-2.1c0.3,0.1,0.5,0.3,0.8,0.4c0-0.3,0.1-0.5,0.1-0.8c-0.1-0.8-0.2-1.5-0.3-2.3c0.1,0,0.2,0,0.3,0.1
		c0.2-0.2,0.4-0.4,0.7-0.6C36.7,50,36.4,49.9,36.2,49.8z M47.6,47.6c-0.8-0.4-1.6-0.8-2.3-1c-1.4-0.5-2.9-0.5-4.2,0.3
		c-1.8,1.1-2.5,2.8-2.1,5.2c0,0.3-0.4,0.7-0.3,0.9c0.3,0.3,0.8,0.4,1,0.7c0.7,1,1.5,1.5,2.7,1.7c0.7,0.1,1.3,0.3,2.1,0.5
		c0.3-0.7,0.8-0.6,1.5-0.3c-0.1-0.1-0.2-0.3-0.2-0.2c0.7-0.9,1.4-1.6,1.9-2.4c0.4-0.6,0.5-1.4,0.7-2c-0.4-0.9-0.8-1.8-1.2-2.8
		C47.3,47.9,47.5,47.8,47.6,47.6z M57.6,56.1c0.4-0.7,0.6-1.3,1-1.6c1.6-1.4,2.2-3.2,1.4-5.2c-0.4-0.9-1-2.1-1.8-2.5
		c-1.1-0.5-2.4-0.9-3.8-0.5c-2.5,0.7-3.6,3.1-3.2,5.4c0.2,1.2,1,2,1.8,2.8c0.8,0.7,1.7,0.9,2.7,1C56.3,55.5,57,54.7,57.6,56.1z
		 M19.4,46.2c-2.8,0-4.5,1.8-4.6,4.5c-0.1,2.3,1.9,4.8,4.6,4.7c1.3-0.1,2.4-0.5,3.4-1.3c1-0.9,1.3-2.3,1.4-3.5
		C24.2,48.2,21.8,46.2,19.4,46.2z M70.2,48.2c-0.5-0.4-1-0.6-1.2-1c-0.5-1.3-1.3-1.9-2.7-2c-1.3,0-2.3,0.5-2.7,1.9
		c-0.5,1.7,0.1,2.8,2,3.8c0.8,0.4,2.4-0.3,3.1-1.4c0.1-0.2,0.4-0.3,0.7-0.4C68.3,47.8,70.2,48.6,70.2,48.2z M62.6,52.6
		c0.4,0.5,0.7,1,1.2,1.6C63.9,53,63.3,52.3,62.6,52.6z M4.9,44.9c0-0.1,0-0.1-0.1-0.2c0,0-0.1,0-0.1,0c0,0.1,0,0.1,0,0.2
		C4.9,44.9,4.9,44.9,4.9,44.9z"/>
	<path class="st0" d="M60,26c0.8,0.3,0.2,1.2,0.4,2c-0.2-0.1-0.4-0.2-0.7-0.3c0.1,0.3,0.2,0.5,0.4,0.8c-1,0-2,0-2.6,0
		c-0.3-0.2-0.6-0.4-0.7-0.3c-0.8,0.8-1.8,0.4-2.6,0.4c-2.7,0.2-5.5,0.1-8.2,0.1c-0.2,0-0.5-0.1-0.7-0.2c-0.3-0.3-0.5-0.2-0.9,0
		c-0.6,0.3-1.4,0.4-2.1,0.4c-3.5,0-7.1-0.1-10.6-0.1c-1.3,0-2.6,0.1-3.9,0.1c-1,0-1.9-0.1-2.8-0.8c-0.4-0.4-1.2-0.5-1.8-0.5
		c-2.4-0.1-4.8-0.2-7.2-0.2c-0.1,0-0.3,0-0.4,0c-0.9-0.6-2,0-3-0.5c-0.3-0.1-0.8-0.3-1.3-0.5c0,0.3,0.1,0.5,0.1,0.7
		c-1.2,0-2.4,0-3.6,0c-1.1,0-2.3-0.2-3.4-0.2c-1,0-1.7-0.1-1.6-1.3c0.1-0.1,0.3-0.1,0.5-0.2c-0.1-0.1-0.1-0.3-0.2-0.3
		c-0.5-0.4-0.3-0.8,0-1.2C4,22.7,4,22.8,5.5,22.7c1.4,0,2.8-0.1,4.3-0.2c0.2,0,0.5,0.2,0.8,0.4c0.5-0.6,0.9-0.6,1.5,0.1
		c0.1-0.2,0.2-0.4,0.3-0.5c0.4-0.1,0.9-0.2,1.3-0.2c2.3-0.1,4.7-0.1,7-0.2c0.3,0,0.5-0.1,0.9,0c-0.2,0.1-0.5,0.2-0.7,0.3
		c0,0.1,0,0.1,0,0.2c0.4-0.1,1,0,1-0.2c0.2-0.6,0.6-0.5,1-0.5c1.2-0.1,2.3,0,3.5-0.2c0.6-0.1,1.2-0.6,1.7-1c1.3-1,2.5-2.2,3.8-3
		c1.5-0.9,3.3-1.4,5.1-1.2c1.8,0.2,3.5-0.1,5.3,0c1.9,0.1,3.8,0,5.8,0c0.4,0,0.7,0,1.1,0c-0.1,0.1-0.1,0.2-0.2,0.2
		c0.4,0.4,0.8,0.8,1.2,1.2c0.1-0.1,0.1-0.1,0.2-0.2c-0.3-0.4-0.5-0.7-0.9-1.3c1.6,0.3,3.2-0.6,3.9,1c0.9-0.3,1.6-0.8,2.5-0.9
		c1.1-0.2,1.1-0.1,1.4,0.9c1-0.6,1.7-0.3,2.4,1.1c0.4,0.7,0.3,1.5,0.5,2.2c0.4,1.3,0.1,2.6,0.2,3.9C60.4,25,60.1,25.5,60,26z
		 M36.3,20.9c-0.6-0.7-1-1.3-1.5-1.9c-0.1-0.2-0.3-0.3-0.5-0.3c0,0-0.3,0.2-0.2,0.2c0.1,0.2,0.2,0.4,0.3,0.6c0.3,0.4,0.6,0.8,1,1.2
		c0,0,0,0.2-0.1,0.3C35.6,21,35.8,20.9,36.3,20.9z"/>
</g>
</svg>
